<?xml version="1.0" encoding="UTF-8" standalone="no"?>
<!-- Creator: CorelDRAW X6 -->

<svg
   xmlns:dc="http://purl.org/dc/elements/1.1/"
   xmlns:cc="http://creativecommons.org/ns#"
   xmlns:rdf="http://www.w3.org/1999/02/22-rdf-syntax-ns#"
   xmlns:svg="http://www.w3.org/2000/svg"
   xmlns="http://www.w3.org/2000/svg"
   xmlns:sodipodi="http://sodipodi.sourceforge.net/DTD/sodipodi-0.dtd"
   xmlns:inkscape="http://www.inkscape.org/namespaces/inkscape"
   xml:space="preserve"
   width="13.449992cm"
   height="16.381001cm"
   version="1.1"
   style="clip-rule:evenodd;fill-rule:evenodd;image-rendering:optimizeQuality;shape-rendering:geometricPrecision;text-rendering:geometricPrecision"
   viewBox="0 0 13449.992 16381"
   id="svg1407"
   sodipodi:docname="coat_am.svg"
   inkscape:version="0.92.4 (5da689c313, 2019-01-14)"><metadata
   id="metadata1411"><rdf:RDF><cc:Work
       rdf:about=""><dc:format>image/svg+xml</dc:format><dc:type
         rdf:resource="http://purl.org/dc/dcmitype/StillImage" /><dc:title></dc:title></cc:Work></rdf:RDF></metadata><sodipodi:namedview
   pagecolor="#ffffff"
   bordercolor="#666666"
   borderopacity="1"
   objecttolerance="10"
   gridtolerance="10"
   guidetolerance="10"
   inkscape:pageopacity="0"
   inkscape:pageshadow="2"
   inkscape:window-width="1920"
   inkscape:window-height="1017"
   id="namedview1409"
   showgrid="false"
   fit-margin-top="0"
   fit-margin-left="0"
   fit-margin-right="0"
   fit-margin-bottom="0"
   inkscape:zoom="0.75722501"
   inkscape:cx="255.88352"
   inkscape:cy="327.0803"
   inkscape:window-x="-4"
   inkscape:window-y="-4"
   inkscape:window-maximized="1"
   inkscape:current-layer="svg1407" />
 <defs
   id="defs1116">
  <style
   type="text/css"
   id="style1114">
   <![CDATA[
    .fil9 {fill:#009846}
    .fil0 {fill:#2B2A29}
    .fil2 {fill:#B0CB1F}
    .fil10 {fill:#C5C6C6}
    .fil11 {fill:#DBE285}
    .fil8 {fill:#E31E24}
    .fil13 {fill:#FBD9CA}
    .fil1 {fill:#FECC00}
    .fil3 {fill:#FEFEFE}
    .fil5 {fill:#FFED00}
    .fil7 {fill:#FFF383}
    .fil15 {fill:#FFF7B2}
    .fil12 {fill:#8A4137}
    .fil4 {fill:#CC292C}
    .fil6 {fill:#D32C2E}
    .fil14 {fill:#E2E69A}
   ]]>
  </style>
 </defs>
 <g
   id="Layer_x0020_1"
   transform="translate(-3729.7484,-7123)">
  <metadata
   id="CorelCorpID_0Corel-Layer" />
  <g
   id="_666825264">
   <path
   class="fil0"
   d="m 10478,7143 c 30,92 73,206 180,238 123,15 255,97 295,222 12,27 18,55 27,82 75,-7 153,-1 211,42 34,30 16,87 3,121 -9,18 -25,36 -43,47 -71,15 -169,-49 -208,42 -36,84 -3,179 45,247 51,61 115,108 196,99 26,-5 54,-19 66,-45 22,-36 13,-90 56,-115 54,-11 116,-5 153,42 20,90 -25,170 -82,236 92,82 150,182 187,290 -28,136 -117,287 -259,337 -2,45 6,101 -43,124 -46,15 -101,11 -143,-12 -44,-35 5,-110 -47,-137 -64,-27 -152,-24 -209,16 -62,56 -99,137 -67,217 62,121 192,166 304,211 193,54 415,26 557,-120 79,-80 144,-174 111,-291 -12,-63 -102,-107 -61,-179 26,-31 60,-47 93,-61 -93,-129 -126,-323 -63,-476 74,-180 258,-316 456,-312 l 33,2 c 25,-75 51,-152 69,-231 -91,-36 -195,-53 -289,-83 l 66,-251 287,79 7,-7 c 26,-94 53,-188 80,-282 84,18 163,47 247,65 -21,98 -55,197 -75,295 l 286,80 c -14,87 -46,165 -65,249 l -291,-76 -70,243 c 82,63 152,150 183,242 67,193 14,413 -150,545 -61,51 -128,87 -204,105 45,8 106,0 125,51 7,54 10,117 -40,147 -78,15 -186,-18 -219,76 -35,60 -51,143 -26,211 102,189 307,249 511,251 137,-3 272,-51 341,-178 23,-74 -21,-137 -79,-181 -35,-35 -99,-11 -125,-60 -17,-45 -7,-100 17,-138 14,-15 29,-24 48,-25 -87,-87 -139,-193 -150,-315 110,-100 254,-156 406,-118 -18,-38 -33,-82 -36,-128 3,-45 -7,-106 43,-127 39,-16 92,-9 129,8 61,38 -2,135 66,166 83,24 160,-17 215,-79 30,-45 63,-101 37,-156 -36,-70 -143,0 -171,-79 -10,-44 -14,-98 13,-135 83,-51 189,-14 262,34 81,-62 173,-97 261,-144 130,-40 255,18 350,108 -90,30 -192,94 -231,191 -36,118 -2,267 -61,375 l -45,91 c 107,30 218,-6 301,-62 34,54 46,126 26,190 -30,75 -91,142 -156,198 24,40 51,80 64,125 h 8 c 297,-161 630,-326 996,-228 17,7 38,21 43,42 8,28 1,58 -6,85 l 509,363 c 80,12 162,76 186,156 113,425 -222,628 -513,784 -82,51 -179,137 -222,228 -29,54 -47,111 -56,173 l 7,6 c 139,9 303,27 416,-48 180,-106 325,-296 552,-288 366,10 749,98 921,453 162,389 0,815 -153,1160 l -128,255 -234,417 c -103,202 -188,440 -126,685 82,7 169,3 253,3 31,-28 64,-60 110,-51 47,17 69,67 101,102 300,398 380,917 308,1440 -58,403 -193,773 -247,1176 -145,863 -106,1847 26,2704 103,584 174,1308 -66,1851 -14,18 -31,33 -53,31 -47,-2 -89,-20 -120,-55 l -307,36 c -145,508 -451,959 -881,1341 14,18 17,44 10,66 -34,57 -92,94 -141,139 -449,353 -966,542 -1496,697 l -443,114 c -267,62 -540,110 -812,157 l -567,82 -585,66 -596,54 -441,28 -621,-46 -624,-62 -521,-64 -549,-87 -495,-96 c -711,-163 -1412,-353 -2012,-783 -72,-55 -144,-114 -209,-182 -12,-19 -19,-48 -9,-70 l 9,-16 c -431,-380 -733,-831 -880,-1338 l -310,-38 c -33,36 -76,58 -126,53 -23,0 -44,-21 -52,-40 -192,-434 -175,-996 -115,-1487 l 96,-649 c 128,-955 103,-2028 -118,-2931 l -107,-432 c -42,-214 -66,-434 -63,-667 20,-405 141,-769 399,-1075 17,-20 43,-25 67,-21 31,7 57,34 85,51 h 243 c 71,-255 -26,-502 -135,-713 l -268,-479 c -164,-339 -327,-683 -298,-1094 18,-236 174,-470 399,-567 187,-89 400,-120 622,-118 254,12 404,282 643,334 93,14 202,12 295,-6 -25,-126 -72,-252 -198,-328 l -148,-93 c -49,-30 -99,-59 -147,-91 -28,-19 -45,-36 -69,-57 -171,-149 -280,-344 -238,-579 13,-67 56,-135 121,-166 l 78,-27 502,-359 3,-3 c -7,-29 -15,-70 0,-98 25,-34 65,-35 101,-45 352,-62 655,92 936,245 17,-43 38,-83 65,-121 -88,-88 -181,-174 -166,-304 11,-31 20,-62 38,-90 84,58 196,94 301,62 -85,-124 -96,-280 -98,-436 -28,-106 -139,-189 -240,-217 92,-97 226,-151 360,-107 83,46 172,79 249,141 66,-45 147,-65 233,-53 19,5 37,24 45,42 10,43 13,100 -17,135 -54,38 -183,-1 -163,111 9,84 88,157 164,182 40,8 92,11 121,-23 33,-46 -17,-125 48,-151 42,-12 94,-22 134,1 56,67 29,174 -6,244 -1,1 -3,3 -3,7 151,-42 297,17 408,115 -6,124 -57,228 -150,317 22,5 47,15 58,37 13,39 28,90 7,129 -48,55 -138,28 -173,106 -25,39 -54,93 -25,141 108,174 326,190 515,153 133,-34 285,-107 339,-251 18,-94 -10,-184 -76,-249 -61,-44 -169,21 -210,-56 -12,-42 -24,-102 10,-137 27,-25 64,-24 100,-27 -26,-14 -63,-22 -93,-38 -179,-85 -291,-269 -279,-469 5,-155 87,-286 213,-381 -24,-81 -47,-163 -69,-245 -96,21 -193,52 -290,78 -28,-78 -47,-161 -70,-242 l 4,-9 283,-80 c -20,-101 -56,-195 -78,-295 l 247,-67 c 28,97 54,193 82,290 98,-18 192,-52 289,-78 l 6,6 66,243 -288,82 c 19,75 36,156 61,232 198,-11 385,92 475,272 80,153 64,379 -46,513 40,17 92,43 108,91 -7,66 -76,108 -79,177 -24,146 105,256 214,328 181,111 445,76 619,-24 75,-49 177,-124 153,-228 -12,-55 -49,-110 -102,-141 -57,-18 -137,-26 -189,7 -44,37 5,116 -56,139 -44,12 -105,21 -144,-7 -28,-27 -25,-66 -25,-105 -141,-49 -227,-199 -260,-333 33,-110 87,-214 184,-295 -48,-63 -90,-130 -89,-214 1,-19 11,-36 26,-47 40,-20 97,-40 142,-15 48,51 39,178 147,155 82,-4 155,-75 192,-147 30,-54 45,-130 20,-193 -18,-37 -54,-62 -96,-60 -43,-1 -81,34 -124,8 -43,-36 -62,-94 -43,-151 56,-62 139,-60 222,-54 26,-102 80,-209 183,-263 87,-43 206,-33 256,-137 28,-51 52,-103 67,-161 12,12 39,-10 39,17 z"
   id="path1119"
   inkscape:connector-curvature="0"
   style="fill:#2b2a29" />
   <path
   class="fil1"
   d="m 10655,7414 c 100,10 198,62 249,156 l 44,115 c -49,26 -109,54 -148,107 -61,70 -78,157 -75,255 -56,-85 -144,-163 -249,-165 l -3,-305 c -9,-1 -17,-6 -26,-3 -10,100 -2,208 -7,310 -118,16 -219,127 -262,233 29,-130 6,-282 -107,-370 -26,-48 -141,-26 -94,-99 27,-90 101,-188 196,-215 107,-12 225,-78 258,-189 l 27,-66 c 30,94 94,207 199,236 z"
   id="path1121"
   inkscape:connector-curvature="0"
   style="fill:#fecc00" />
   <path
   class="fil1"
   d="m 8529,7564 c 96,-29 195,-53 291,-79 17,63 35,126 52,190 l -288,81 c 15,85 45,170 66,255 -66,9 -127,33 -184,64 -28,-84 -51,-175 -78,-262 -98,18 -195,54 -292,75 l -52,-187 5,-5 c 96,-27 191,-49 285,-81 -21,-99 -53,-195 -76,-294 l 187,-51 c 31,96 52,196 85,291 z"
   id="path1123"
   inkscape:connector-curvature="0"
   style="fill:#fecc00" />
   <path
   class="fil1"
   d="m 12578,7616 289,83 -49,189 -289,-78 c -30,88 -53,178 -80,265 -57,-31 -119,-56 -184,-64 l 69,-251 c -96,-34 -195,-57 -291,-85 l 49,-189 c 96,22 193,53 291,78 l 84,-291 188,51 -76,292 z"
   id="path1125"
   inkscape:connector-curvature="0"
   style="fill:#fecc00" />
   <path
   class="fil1"
   d="m 10105,7828 c 82,120 57,307 -19,423 -91,136 -232,227 -398,202 -82,-18 -169,-85 -193,-170 -9,-34 -26,-70 -12,-107 26,-28 69,-30 107,-25 42,38 27,108 82,142 42,27 108,29 153,7 112,-53 193,-171 191,-298 -3,-56 -27,-112 -80,-138 -49,-18 -107,-5 -154,7 -40,-18 -43,-62 -48,-100 12,-52 74,-44 117,-56 102,-6 196,27 255,114 z"
   id="path1127"
   inkscape:connector-curvature="0"
   style="fill:#fecc00" />
   <path
   class="fil1"
   d="m 11159,7740 c 20,9 22,31 20,53 -8,26 -12,57 -37,74 -51,10 -97,-27 -147,-9 -51,17 -90,67 -94,120 -9,119 39,223 138,295 47,33 105,54 165,39 67,-18 91,-91 106,-150 14,-22 42,-15 63,-13 26,2 51,13 64,36 0,92 -43,171 -117,226 -75,57 -192,55 -278,22 -170,-75 -296,-251 -285,-442 -1,-107 62,-205 156,-254 71,-35 174,-29 245,2 z"
   id="path1129"
   inkscape:connector-curvature="0"
   style="fill:#fecc00" />
   <path
   class="fil1"
   d="m 10687,8049 c 152,229 146,592 19,830 -47,80 -129,156 -225,161 -103,10 -186,-65 -240,-147 -151,-249 -146,-644 36,-877 61,-69 137,-111 231,-97 72,17 135,67 179,130 z"
   id="path1131"
   inkscape:connector-curvature="0"
   style="fill:#fecc00" />
   <path
   class="fil0"
   d="m 10613,8091 c 143,219 142,575 -11,788 -37,43 -80,79 -137,75 -143,-26 -198,-180 -226,-299 -35,-217 -22,-458 133,-616 37,-30 83,-48 134,-36 43,13 80,51 108,88 z"
   id="path1133"
   inkscape:connector-curvature="0"
   style="fill:#2b2a29" />
   <path
   class="fil2"
   d="m 10636,8196 c 81,217 74,508 -81,689 -31,30 -79,53 -123,33 -105,-57 -139,-170 -165,-273 -35,-196 -16,-407 103,-558 31,-42 79,-65 130,-52 70,25 107,100 135,161 z"
   id="path1135"
   inkscape:connector-curvature="0"
   style="fill:#b0cb1f" />
   <path
   class="fil3"
   d="m 9138,8313 c 69,160 46,369 -79,497 -126,137 -319,190 -497,127 -139,-47 -270,-189 -297,-333 -38,-197 35,-388 208,-496 134,-88 351,-93 485,-1 78,46 146,126 180,206 z"
   id="path1137"
   inkscape:connector-curvature="0"
   style="fill:#fefefe" />
   <path
   class="fil3"
   d="m 12619,8311 c 75,159 42,370 -76,497 -125,141 -316,189 -494,133 -138,-47 -272,-186 -300,-330 -43,-195 30,-384 196,-495 136,-94 361,-105 498,-6 74,48 144,121 177,200 z"
   id="path1139"
   inkscape:connector-curvature="0"
   style="fill:#fefefe" />
   <path
   class="fil1"
   d="m 7198,8216 c 5,7 11,8 16,15 -73,66 -89,161 -79,256 18,98 72,186 155,252 -78,-31 -174,-14 -235,45 -18,17 -28,37 -44,55 -96,-115 -107,-279 -110,-439 -20,-105 -119,-197 -216,-235 72,-60 156,-93 254,-78 93,25 174,83 259,128 z"
   id="path1141"
   inkscape:connector-curvature="0"
   style="fill:#fecc00" />
   <path
   class="fil1"
   d="m 14227,8163 c -105,43 -213,150 -216,269 1,152 -25,292 -107,411 -46,-75 -121,-127 -213,-118 l -69,15 c 116,-97 177,-224 153,-373 -15,-49 -35,-97 -75,-135 76,-60 165,-96 250,-137 101,-25 201,7 277,70 z"
   id="path1143"
   inkscape:connector-curvature="0"
   style="fill:#fecc00" />
   <path
   class="fil1"
   d="m 7480,8199 c 10,33 21,82 -3,111 -40,23 -100,3 -137,36 -35,32 -42,80 -31,126 24,85 109,165 195,187 46,5 103,10 134,-31 56,-34 -6,-124 53,-151 29,-5 66,-15 93,2 42,60 18,147 -10,206 -52,79 -134,126 -231,119 -148,-1 -287,-106 -350,-240 -38,-81 -39,-197 9,-272 61,-85 161,-124 264,-105 l 15,11 z"
   id="path1145"
   inkscape:connector-curvature="0"
   style="fill:#fecc00" />
   <path
   class="fil1"
   d="m 13711,8290 c 46,74 53,187 14,265 -54,133 -191,237 -332,247 -97,9 -184,-25 -242,-105 -35,-61 -56,-141 -29,-211 30,-22 81,-21 112,-3 38,51 -9,143 72,169 83,28 164,-6 225,-61 61,-54 92,-130 71,-207 -21,-67 -92,-60 -147,-64 -17,-2 -24,-19 -29,-33 0,-35 -15,-83 25,-102 105,-12 200,18 261,105 z"
   id="path1147"
   inkscape:connector-curvature="0"
   style="fill:#fecc00" />
   <path
   class="fil1"
   d="m 10108,8581 c -129,24 -259,47 -388,72 -8,7 0,17 0,25 l 6,6 384,-70 c 17,97 44,190 91,273 -114,-98 -297,-123 -438,-65 -69,30 -141,99 -152,175 -128,-45 -202,-180 -232,-300 31,-101 90,-195 177,-272 96,80 260,84 366,22 89,-46 175,-136 216,-226 -28,111 -40,235 -29,360 z"
   id="path1149"
   inkscape:connector-curvature="0"
   style="fill:#fecc00" />
   <path
   class="fil1"
   d="m 11276,8470 c 27,-10 53,-26 76,-45 92,74 150,172 180,277 -29,118 -106,247 -228,295 -18,-82 -100,-157 -178,-183 -118,-44 -262,-19 -367,37 28,-69 56,-152 66,-234 121,21 242,45 363,66 5,-8 7,-20 6,-27 -120,-29 -244,-46 -366,-72 9,-96 8,-198 -11,-288 111,141 278,237 458,174 z"
   id="path1151"
   inkscape:connector-curvature="0"
   style="fill:#fecc00" />
   <path
   class="fil1"
   d="m 8169,8834 c -8,125 -72,233 -177,310 -124,27 -238,148 -274,269 -9,39 -18,82 -11,125 -66,-52 -146,-88 -237,-89 90,-94 109,-232 82,-360 l 381,-137 c -5,-8 -3,-40 -25,-24 l -363,128 c -26,-94 -76,-179 -151,-253 105,51 262,49 350,-38 56,-44 135,-44 208,-39 81,14 152,55 217,108 z"
   id="path1153"
   inkscape:connector-curvature="0"
   style="fill:#fecc00" />
   <path
   class="fil1"
   d="m 13151,8749 c 85,93 226,103 341,65 l 27,-11 c -72,74 -125,157 -151,252 -126,-39 -249,-87 -373,-130 -10,4 -9,17 -14,26 l 377,137 c -24,127 -5,270 84,361 -90,2 -168,34 -235,91 15,-147 -73,-285 -200,-363 -29,-16 -61,-27 -93,-35 -100,-80 -164,-184 -169,-309 108,-93 267,-142 406,-83 z"
   id="path1155"
   inkscape:connector-curvature="0"
   style="fill:#fecc00" />
   <path
   class="fil1"
   d="m 7496,9007 c 47,124 58,300 -36,406 -40,43 -90,63 -148,61 -136,-13 -242,-148 -285,-267 -45,-125 -51,-300 51,-400 46,-46 115,-60 177,-45 111,28 201,144 242,245 z"
   id="path1157"
   inkscape:connector-curvature="0"
   style="fill:#fecc00" />
   <path
   class="fil1"
   d="m 13867,8844 c 82,129 55,326 -23,450 -54,90 -145,178 -254,180 -58,2 -108,-25 -145,-69 -92,-108 -66,-289 -23,-412 46,-103 146,-223 265,-236 75,-10 136,27 179,87 z"
   id="path1159"
   inkscape:connector-curvature="0"
   style="fill:#fecc00" />
   <path
   class="fil1"
   d="m 7001,8856 c -82,178 -25,400 106,541 53,54 111,91 179,105 -118,57 -159,182 -166,303 -64,-10 -133,-20 -168,-82 -23,-56 2,-114 18,-163 -87,-31 -206,-64 -224,-173 -11,-92 46,-161 89,-233 -98,-87 -215,-188 -166,-326 l 7,-14 c 92,52 218,83 326,43 z"
   id="path1161"
   inkscape:connector-curvature="0"
   style="fill:#fecc00" />
   <path
   class="fil1"
   d="m 14239,8973 c -37,65 -98,128 -160,178 52,83 121,179 73,285 -51,74 -134,96 -209,121 16,53 47,124 11,179 -42,47 -99,62 -159,69 -8,-119 -54,-243 -170,-303 178,-38 295,-226 317,-394 11,-88 5,-179 -34,-252 106,34 233,16 322,-43 33,39 29,112 8,160 z"
   id="path1163"
   inkscape:connector-curvature="0"
   style="fill:#fecc00" />
   <path
   class="fil1"
   d="m 11243,8938 c 28,48 39,114 24,173 -26,31 -83,20 -117,10 -40,-26 -6,-88 -36,-121 -61,-62 -170,-51 -243,-22 -72,52 -121,125 -115,215 26,166 209,237 344,286 202,60 432,20 581,-132 82,-85 148,-188 116,-310 -15,-48 -43,-90 -72,-132 -2,-48 52,-61 83,-80 37,5 57,51 83,74 67,105 80,269 16,379 -82,151 -240,283 -402,322 -214,-40 -436,-65 -659,-85 -108,-57 -217,-170 -235,-291 -16,-151 60,-290 191,-360 137,-60 342,-63 440,75 z"
   id="path1165"
   inkscape:connector-curvature="0"
   style="fill:#fecc00" />
   <path
   class="fil1"
   d="m 10217,8951 c 84,89 109,236 57,348 -47,92 -142,168 -231,215 -216,19 -434,37 -644,73 -189,-54 -391,-231 -433,-430 -18,-129 22,-247 121,-330 42,-1 73,26 98,56 -10,64 -72,106 -75,172 -29,145 84,250 188,335 171,134 447,121 633,31 87,-44 205,-117 224,-223 15,-91 -34,-164 -102,-218 -63,-37 -163,-39 -228,-5 -80,21 -2,132 -80,145 -36,6 -80,9 -101,-23 -21,-87 11,-170 83,-220 147,-87 378,-71 490,72 z"
   id="path1167"
   inkscape:connector-curvature="0"
   style="fill:#fecc00" />
   <path
   class="fil0"
   d="m 7401,8987 c 57,105 88,271 2,373 -28,30 -71,42 -111,30 -143,-53 -213,-201 -222,-344 -2,-83 17,-168 97,-206 103,-28 187,66 234,146 z"
   id="path1169"
   inkscape:connector-curvature="0"
   style="fill:#2b2a29" />
   <path
   class="fil0"
   d="m 13782,8861 c 89,93 65,251 18,355 -36,74 -105,160 -190,177 -30,7 -60,-2 -83,-19 -79,-60 -71,-165 -62,-256 21,-116 103,-250 227,-280 35,-5 65,3 90,24 z"
   id="path1171"
   inkscape:connector-curvature="0"
   style="fill:#2b2a29" />
   <path
   class="fil4"
   d="m 7386,9024 c 36,88 63,208 10,297 -13,21 -35,37 -58,43 -90,2 -161,-81 -196,-154 -40,-84 -63,-209 -14,-297 12,-22 36,-43 62,-46 91,-6 163,85 196,157 z"
   id="path1173"
   inkscape:connector-curvature="0"
   style="fill:#cc292c" />
   <path
   class="fil4"
   d="m 13762,8885 c 69,76 55,202 22,291 -33,75 -92,170 -180,187 -25,2 -46,-2 -64,-16 -74,-72 -62,-201 -29,-288 29,-79 92,-173 182,-193 27,-5 48,6 69,19 z"
   id="path1175"
   inkscape:connector-curvature="0"
   style="fill:#cc292c" />
   <path
   class="fil5"
   d="m 12193,8995 c -99,22 -187,119 -224,211 26,-82 13,-202 -29,-283 76,45 160,69 253,72 z"
   id="path1177"
   inkscape:connector-curvature="0"
   style="fill:#ffed00" />
   <path
   class="fil5"
   d="m 9009,9334 c 83,116 200,215 325,262 -160,31 -324,61 -481,101 107,-106 152,-250 120,-400 -25,-126 -118,-265 -249,-300 90,-3 170,-28 243,-72 -55,120 -49,303 42,409 z"
   id="path1179"
   inkscape:connector-curvature="0"
   style="fill:#ffed00" />
   <path
   class="fil3"
   d="m 10533,9065 c 26,-9 52,-19 75,-36 -52,109 -36,265 43,361 36,48 85,87 132,123 -224,-8 -451,-16 -674,0 133,-82 244,-219 223,-381 -5,-47 -20,-91 -40,-134 63,65 152,87 242,67 z"
   id="path1181"
   inkscape:connector-curvature="0"
   style="fill:#fefefe" />
   <path
   class="fil1"
   d="m 8901,9194 c 65,125 73,318 -26,431 -26,35 -58,70 -94,93 -200,47 -393,115 -589,170 -184,-19 -397,-123 -445,-321 -31,-137 37,-258 144,-341 48,-36 105,-55 168,-56 38,11 36,55 39,89 -1,19 -7,40 -27,46 -66,1 -118,45 -159,98 -22,45 -49,100 -24,153 90,172 286,202 468,191 179,-25 377,-105 448,-291 16,-110 -11,-234 -117,-289 -49,-21 -109,-1 -161,-17 -19,-32 -27,-76 -13,-112 16,-22 48,-18 73,-24 134,-9 264,56 316,180 z"
   id="path1183"
   inkscape:connector-curvature="0"
   style="fill:#fecc00" />
   <path
   class="fil1"
   d="m 12406,9055 c 1,30 1,62 -13,87 -52,30 -126,-3 -178,29 -87,54 -111,147 -110,242 2,146 164,244 278,294 171,66 408,58 559,-46 62,-53 112,-121 85,-202 -26,-78 -105,-154 -190,-156 -29,-16 -20,-57 -17,-85 3,-17 14,-32 27,-43 107,-8 193,48 259,134 74,80 85,215 43,314 -91,187 -289,263 -485,269 l -92,-2 c -132,-46 -263,-93 -398,-132 -129,-91 -220,-222 -210,-382 17,-134 69,-282 209,-337 64,-20 151,-35 217,-9 10,6 11,18 17,28 z"
   id="path1185"
   inkscape:connector-curvature="0"
   style="fill:#fecc00" />
   <path
   class="fil5"
   d="m 6717,9311 c -15,60 -6,127 38,171 51,51 111,79 174,98 l -5,16 c -358,-198 -713,-478 -1167,-379 -40,-12 -42,-60 -48,-94 10,-64 88,-46 134,-63 333,-36 607,108 874,252 z"
   id="path1187"
   inkscape:connector-curvature="0"
   style="fill:#ffed00" />
   <path
   class="fil5"
   d="m 15190,9088 c 29,24 11,70 2,99 -38,63 -108,-1 -166,9 -318,-18 -570,134 -824,276 l -213,127 -6,-19 c 83,-30 195,-75 215,-177 6,-29 3,-63 -2,-91 288,-156 602,-317 961,-238 l 34,15 z"
   id="path1189"
   inkscape:connector-curvature="0"
   style="fill:#ffed00" />
   <path
   class="fil6"
   d="m 5749,9245 c 79,-7 154,-29 237,-20 343,29 621,222 908,389 44,10 3,47 16,76 3,51 47,96 91,117 44,22 96,26 145,36 10,-23 1,-54 9,-78 228,110 471,187 721,245 -27,18 -44,54 -39,92 7,55 29,105 75,141 -31,21 -67,51 -75,90 -70,55 -76,142 -70,226 17,92 70,195 166,229 25,6 51,9 76,10 l -1,9 c -400,-84 -783,-227 -1119,-471 l -461,-323 -381,-236 c -246,-127 -501,-245 -795,-249 l 450,-321 c 10,17 28,33 47,36 z m 9915,285 c -241,-1 -453,85 -659,180 l -205,108 -386,246 -489,342 c -310,204 -655,326 -1017,404 v -7 c 109,-67 157,-188 138,-317 -7,-73 -69,-124 -105,-184 -26,-33 -63,-43 -99,-52 60,-37 85,-102 88,-170 -3,-12 -5,-26 -12,-36 l 6,-6 c 288,-63 570,-144 832,-270 6,21 5,48 7,73 87,-8 181,-26 231,-111 12,-30 11,-72 7,-102 301,-174 589,-380 953,-405 71,0 135,12 200,22 27,2 48,-15 62,-36 l 449,321 z"
   id="path1191"
   inkscape:connector-curvature="0"
   style="fill:#d32c2e" />
   <path
   class="fil5"
   d="m 12091,9730 -438,-105 -73,-14 c 150,-58 308,-207 373,-362 -66,174 2,363 137,480 z"
   id="path1193"
   inkscape:connector-curvature="0"
   style="fill:#ffed00" />
   <path
   class="fil1"
   d="m 7724,9602 c 23,88 94,159 168,220 33,6 57,29 88,42 8,26 9,65 -7,89 -30,29 -79,10 -115,10 -147,-63 -174,-231 -300,-321 -60,-38 -142,-18 -197,16 -28,24 -56,56 -94,49 -32,-22 -69,-57 -58,-98 85,-99 208,-146 336,-121 69,18 128,56 180,114 z"
   id="path1195"
   inkscape:connector-curvature="0"
   style="fill:#fecc00" />
   <path
   class="fil1"
   d="m 13701,9600 c 11,15 8,33 3,48 -16,22 -34,49 -60,62 -71,-10 -112,-88 -187,-88 -160,-10 -211,171 -299,265 -42,49 -92,84 -157,81 -25,-7 -63,3 -69,-33 -2,-25 -11,-57 7,-75 29,-12 55,-34 88,-39 74,-65 137,-137 164,-223 78,-89 183,-128 300,-114 79,17 147,57 209,115 z"
   id="path1197"
   inkscape:connector-curvature="0"
   style="fill:#fecc00" />
   <path
   class="fil1"
   d="m 12877,10044 c 15,12 24,28 21,48 -7,48 -24,96 -65,126 l -46,-1 c -1037,-449 -2328,-614 -3514,-373 -459,80 -892,224 -1320,379 -52,-3 -64,-60 -81,-97 -3,-23 -7,-48 3,-70 l 61,-36 c 1099,-436 2445,-624 3688,-369 434,91 854,217 1253,393 z"
   id="path1199"
   inkscape:connector-curvature="0"
   style="fill:#fecc00" />
   <path
   class="fil5"
   d="m 5831,9706 215,106 396,249 523,363 c 321,217 683,336 1057,424 l 17,17 c -28,36 -55,72 -73,111 -389,-85 -759,-217 -1091,-442 l -560,-389 c -277,-182 -559,-353 -881,-427 -78,-15 -175,-32 -249,5 -57,35 -27,115 -33,172 46,251 316,388 511,506 183,123 313,310 290,533 -15,48 -57,98 -107,114 -150,31 -330,30 -475,-12 -168,-61 -295,-215 -456,-290 -62,-28 -137,-18 -206,-15 -273,21 -583,107 -684,394 -75,225 -15,480 54,687 55,165 133,321 211,477 l 268,480 c 117,224 204,483 144,757 -46,3 -93,1 -141,2 34,-165 15,-350 -43,-501 -161,-393 -430,-740 -562,-1144 -115,-307 -191,-767 72,-1030 224,-224 527,-270 842,-265 269,40 421,359 713,340 72,3 146,2 213,-12 19,-6 16,-27 16,-44 -49,-269 -219,-351 -442,-484 -192,-114 -369,-308 -363,-542 -9,-100 21,-199 112,-250 162,-72 354,-16 508,33 l 201,79 z"
   id="path1201"
   inkscape:connector-curvature="0"
   style="fill:#ffed00" />
   <path
   class="fil5"
   d="m 15870,9664 c 58,94 44,236 12,339 -140,378 -484,358 -670,614 -56,76 -97,165 -109,262 -7,21 8,36 25,39 153,14 332,28 454,-58 174,-106 317,-288 540,-276 360,13 756,110 896,481 129,399 -39,791 -191,1131 l -124,241 -214,381 c -108,209 -198,452 -134,706 -46,3 -93,1 -141,2 -71,-318 54,-607 197,-863 l 236,-423 c 151,-316 310,-641 265,-1026 -19,-197 -201,-372 -385,-425 -152,-49 -324,-75 -493,-57 -197,69 -340,271 -547,317 -135,25 -297,28 -429,-7 -48,-18 -83,-70 -99,-116 -19,-227 118,-418 306,-538 191,-114 453,-252 496,-496 -6,-61 26,-152 -46,-180 -138,-37 -273,14 -398,51 -470,165 -873,496 -1293,779 -335,222 -707,355 -1101,435 -20,2 -34,-19 -40,-34 -8,-25 -15,-54 -8,-81 l 18,-17 c 426,-97 830,-247 1188,-511 l 439,-307 c 331,-220 669,-421 1071,-470 108,-1 215,10 278,103 z"
   id="path1203"
   inkscape:connector-curvature="0"
   style="fill:#ffed00" />
   <path
   class="fil3"
   d="m 7599,9726 -177,-64 c 65,-22 136,3 177,64 z"
   id="path1205"
   inkscape:connector-curvature="0"
   style="fill:#fefefe" />
   <path
   class="fil3"
   d="m 13491,9664 -181,65 c 40,-58 112,-90 181,-65 z"
   id="path1207"
   inkscape:connector-curvature="0"
   style="fill:#fefefe" />
   <path
   class="fil5"
   d="m 7290,9742 c 38,-8 66,-39 98,-62 81,30 161,63 245,88 44,63 80,132 143,187 -213,-53 -418,-127 -614,-219 1,-24 10,-49 20,-72 24,36 60,83 108,79 z"
   id="path1209"
   inkscape:connector-curvature="0"
   style="fill:#ffed00" />
   <path
   class="fil5"
   d="m 13753,9736 c -197,94 -404,166 -616,220 58,-53 101,-119 141,-184 82,-28 165,-54 246,-90 44,25 85,78 138,52 28,-16 52,-44 69,-70 l 23,72 z"
   id="path1211"
   inkscape:connector-curvature="0"
   style="fill:#ffed00" />
   <path
   class="fil5"
   d="m 10350,9766 c -96,33 -188,125 -211,223 -27,129 19,252 125,331 l 48,29 c -359,7 -722,29 -1067,79 108,-55 215,-165 209,-296 -7,-70 -46,-130 -105,-173 -60,-34 -123,-56 -195,-58 386,-78 779,-130 1196,-134 z"
   id="path1213"
   inkscape:connector-curvature="0"
   style="fill:#ffed00" />
   <path
   class="fil5"
   d="m 11692,9903 c -105,10 -213,44 -271,144 -45,75 -26,183 24,251 47,67 117,111 183,145 -319,-53 -662,-79 -1004,-91 96,-46 173,-144 186,-246 13,-120 -35,-223 -132,-295 -25,-21 -55,-27 -81,-43 380,7 741,64 1095,135 z"
   id="path1215"
   inkscape:connector-curvature="0"
   style="fill:#ffed00" />
   <path
   class="fil1"
   d="m 10728,9906 c 55,72 66,191 28,273 -62,121 -188,188 -324,172 -110,-9 -224,-96 -258,-202 -29,-98 -7,-204 67,-274 75,-76 174,-108 285,-92 76,17 151,53 201,124 z"
   id="path1217"
   inkscape:connector-curvature="0"
   style="fill:#fecc00" />
   <path
   class="fil0"
   d="m 10668,9969 c 31,46 35,124 10,174 -30,64 -97,108 -163,123 -94,12 -186,-18 -240,-100 -40,-58 -36,-148 3,-206 58,-78 148,-111 244,-92 57,12 111,48 145,101 z"
   id="path1219"
   inkscape:connector-curvature="0"
   style="fill:#2b2a29" />
   <path
   class="fil5"
   d="m 8137,9910 -127,49 c 2,-22 11,-52 6,-80 39,12 80,22 121,30 z"
   id="path1221"
   inkscape:connector-curvature="0"
   style="fill:#ffed00" />
   <path
   class="fil5"
   d="m 12896,9881 c -1,43 2,93 46,114 8,1 15,4 23,3 l -76,19 c -67,-39 -141,-62 -211,-93 78,-3 148,-22 219,-43 z"
   id="path1223"
   inkscape:connector-curvature="0"
   style="fill:#ffed00" />
   <path
   class="fil4"
   d="m 10653,10004 c 20,48 10,110 -17,153 -52,67 -133,93 -216,75 -62,-15 -128,-70 -138,-136 -11,-57 7,-107 44,-145 53,-46 121,-69 193,-54 54,12 110,54 134,107 z"
   id="path1225"
   inkscape:connector-curvature="0"
   style="fill:#cc292c" />
   <path
   class="fil1"
   d="m 9415,10096 c 30,107 -40,189 -115,256 -119,100 -295,126 -448,84 -62,-21 -128,-72 -148,-137 -26,-97 19,-183 92,-246 129,-107 315,-159 480,-94 57,21 124,73 138,137 z"
   id="path1227"
   inkscape:connector-curvature="0"
   style="fill:#fecc00" />
   <path
   class="fil1"
   d="m 12137,10172 c 18,53 20,121 -10,169 -83,119 -228,134 -363,112 -128,-26 -268,-101 -323,-231 -24,-51 -15,-123 12,-169 75,-107 202,-128 330,-115 142,20 289,92 354,233 z"
   id="path1229"
   inkscape:connector-curvature="0"
   style="fill:#fecc00" />
   <path
   class="fil0"
   d="m 9918,10008 c 27,38 35,100 13,144 -20,48 -71,80 -118,89 -67,10 -126,-23 -162,-79 -24,-37 -20,-94 -3,-134 25,-48 75,-80 126,-87 57,-3 109,18 144,66 z"
   id="path1231"
   inkscape:connector-curvature="0"
   style="fill:#2b2a29" />
   <path
   class="fil0"
   d="m 11234,10021 c 31,40 34,100 17,147 -25,49 -76,85 -130,91 -62,2 -118,-27 -151,-82 -26,-42 -17,-107 6,-147 38,-56 102,-84 171,-69 34,9 64,31 88,60 z"
   id="path1233"
   inkscape:connector-curvature="0"
   style="fill:#2b2a29" />
   <path
   class="fil5"
   d="m 8666,10280 c 14,84 97,162 177,186 l 82,19 c -242,53 -480,116 -694,236 61,-117 27,-287 -56,-390 -39,-47 -87,-84 -141,-100 268,-103 544,-188 824,-264 -103,65 -213,179 -192,314 z"
   id="path1235"
   inkscape:connector-curvature="0"
   style="fill:#ffed00" />
   <path
   class="fil1"
   d="m 9899,10035 c 22,37 17,90 -7,126 -26,33 -60,52 -100,51 -47,2 -93,-21 -115,-66 -14,-28 -18,-72 -3,-101 20,-45 66,-69 111,-72 47,-1 89,24 114,63 z"
   id="path1237"
   inkscape:connector-curvature="0"
   style="fill:#fecc00" />
   <path
   class="fil5"
   d="m 12792,10251 c -130,31 -215,172 -235,294 -10,72 0,150 33,209 -214,-135 -456,-204 -702,-259 94,-9 195,-38 259,-125 39,-52 47,-132 26,-195 -27,-80 -102,-152 -175,-197 272,73 541,172 795,272 z"
   id="path1239"
   inkscape:connector-curvature="0"
   style="fill:#ffed00" />
   <path
   class="fil1"
   d="m 11196,10024 c 36,34 47,91 26,135 -22,45 -69,72 -119,71 -47,-2 -93,-34 -111,-78 -16,-43 -6,-92 25,-125 46,-47 134,-52 180,-3 z"
   id="path1241"
   inkscape:connector-curvature="0"
   style="fill:#fecc00" />
   <path
   class="fil0"
   d="m 9334,10102 c 20,52 -3,102 -33,142 -105,115 -250,160 -403,127 -48,-9 -101,-45 -119,-94 -17,-79 34,-144 96,-190 106,-70 255,-109 380,-55 30,15 62,40 79,71 z"
   id="path1243"
   inkscape:connector-curvature="0"
   style="fill:#2b2a29" />
   <path
   class="fil0"
   d="m 12059,10191 c 12,26 16,60 9,89 -34,83 -124,105 -206,107 -141,-5 -280,-61 -349,-193 -14,-43 -8,-93 29,-124 85,-81 229,-62 331,-31 74,27 144,82 186,153 z"
   id="path1245"
   inkscape:connector-curvature="0"
   style="fill:#2b2a29" />
   <path
   class="fil2"
   d="m 9310,10121 c 10,57 -27,105 -67,141 -103,87 -261,117 -387,60 -28,-19 -48,-47 -48,-81 17,-89 109,-159 190,-181 99,-34 252,-44 313,62 z"
   id="path1247"
   inkscape:connector-curvature="0"
   style="fill:#b0cb1f" />
   <path
   class="fil2"
   d="m 12035,10210 c 6,26 11,58 -6,80 -63,73 -168,76 -258,57 -91,-26 -205,-76 -233,-182 -3,-22 -2,-46 12,-63 81,-82 224,-71 321,-31 63,28 134,71 163,139 z"
   id="path1249"
   inkscape:connector-curvature="0"
   style="fill:#b0cb1f" />
   <path
   class="fil0"
   d="m 8574,10273 c 35,44 43,115 13,163 -26,45 -72,71 -120,79 -64,7 -119,-26 -152,-79 -27,-42 -25,-107 1,-147 39,-55 102,-88 172,-71 31,9 61,28 85,55 z"
   id="path1251"
   inkscape:connector-curvature="0"
   style="fill:#2b2a29" />
   <path
   class="fil0"
   d="m 12526,10295 c 24,44 24,111 -7,152 -34,44 -80,71 -135,69 -54,1 -98,-30 -129,-73 -24,-39 -27,-91 -10,-134 21,-48 71,-85 121,-93 67,-6 126,22 160,80 z"
   id="path1253"
   inkscape:connector-curvature="0"
   style="fill:#2b2a29" />
   <path
   class="fil1"
   d="m 8562,10308 c 20,36 17,87 -7,121 -28,44 -78,58 -127,53 -44,-5 -85,-44 -98,-88 -11,-43 2,-84 31,-115 30,-31 73,-39 118,-33 33,9 66,28 82,61 z"
   id="path1255"
   inkscape:connector-curvature="0"
   style="fill:#fecc00" />
   <path
   class="fil1"
   d="m 12501,10309 c 20,35 14,89 -7,121 -34,46 -88,65 -141,51 -44,-10 -81,-58 -88,-101 -3,-49 19,-97 64,-120 58,-30 137,-9 171,49 z"
   id="path1257"
   inkscape:connector-curvature="0"
   style="fill:#fecc00" />
   <path
   class="fil1"
   d="m 8192,10416 c 42,88 55,216 1,303 -31,44 -79,69 -133,62 79,-43 83,-136 75,-219 -20,-99 -71,-204 -172,-252 -24,-5 -51,-14 -75,-5 36,-45 94,-55 146,-42 67,23 128,89 157,153 z"
   id="path1259"
   inkscape:connector-curvature="0"
   style="fill:#fecc00" />
   <path
   class="fil1"
   d="m 12928,10331 c -53,-14 -105,11 -144,49 -90,97 -138,238 -84,367 10,22 32,49 56,58 -57,11 -107,-20 -137,-65 -62,-115 -29,-270 46,-367 49,-57 112,-106 192,-88 26,9 49,22 71,45 z"
   id="path1261"
   inkscape:connector-curvature="0"
   style="fill:#fecc00" />
   <path
   class="fil4"
   d="m 8092,10515 c 16,70 27,161 -21,218 -33,30 -79,34 -123,29 -90,-30 -138,-126 -151,-211 -7,-80 7,-160 78,-204 27,-18 63,-18 91,-2 64,37 105,105 126,170 z"
   id="path1263"
   inkscape:connector-curvature="0"
   style="fill:#cc292c" />
   <path
   class="fil4"
   d="m 12997,10431 c 51,106 15,234 -62,316 -40,35 -96,55 -150,36 -22,-7 -45,-26 -58,-48 -43,-119 -3,-247 83,-334 30,-28 69,-49 112,-38 28,13 60,40 74,69 z"
   id="path1265"
   inkscape:connector-curvature="0"
   style="fill:#cc292c" />
   <path
   class="fil1"
   d="m 12180,10604 c 199,75 409,141 558,324 36,54 61,114 54,186 h -200 c 11,-51 -20,-96 -60,-132 -205,-146 -449,-198 -687,-261 -644,-146 -1368,-160 -2063,-120 -477,36 -938,107 -1361,273 -88,43 -191,84 -243,181 -7,17 -9,38 -6,58 h -200 c -9,-229 250,-358 418,-438 450,-177 950,-238 1459,-277 718,-46 1442,-3 2103,142 l 227,63 z"
   id="path1267"
   inkscape:connector-curvature="0"
   style="fill:#fecc00" />
   <path
   class="fil7"
   d="m 12222,10859 c 117,51 247,83 332,198 11,15 10,37 8,56 H 8206 c -10,-56 38,-99 81,-130 345,-198 746,-261 1149,-315 751,-94 1582,-69 2308,63 163,33 323,75 478,128 z"
   id="path1269"
   inkscape:connector-curvature="0"
   style="fill:#fff383" />
   <polygon
   class="fil0"
   points="15121,10666 15118,10669 "
   id="polygon1271"
   style="fill:#2b2a29" />
   <path
   class="fil6"
   d="m 16864,11143 c 84,319 -39,626 -154,900 l -115,233 -269,486 c -118,226 -201,489 -144,764 -47,3 -97,1 -144,2 -96,-107 -254,-103 -389,-82 -66,18 -137,36 -177,105 -96,159 -49,385 0,550 42,138 109,271 94,429 -10,60 -55,116 -110,147 -67,-67 -79,-164 -102,-254 -129,-640 -198,-1449 132,-2019 l 308,-513 c 126,-229 287,-549 101,-803 -35,-53 -88,-101 -135,-141 105,-73 196,-174 324,-191 309,10 662,64 779,388 z M 5156,10946 c -163,123 -249,304 -211,507 103,472 494,826 626,1286 172,543 91,1208 -25,1751 -18,66 -35,133 -83,186 -75,-37 -119,-114 -117,-196 17,-245 156,-441 153,-694 0,-117 -21,-231 -118,-300 -125,-62 -306,-72 -436,-14 -24,15 -48,30 -66,55 h -142 c 61,-315 -53,-604 -195,-857 l -259,-467 c -142,-298 -289,-603 -253,-966 16,-165 142,-324 296,-388 160,-71 343,-97 530,-90 115,27 204,117 300,187 z"
   id="path1273"
   inkscape:connector-curvature="0"
   style="fill:#d32c2e" />
   <path
   class="fil8"
   d="m 8091,10817 c -10,7 -18,18 -27,26 -7,-12 -33,-16 -25,-33 z"
   id="path1275"
   inkscape:connector-curvature="0"
   style="fill:#e31e24" />
   <path
   class="fil5"
   d="m 5312,11041 c -135,87 -219,240 -183,406 27,144 94,271 164,398 l 300,498 c 342,615 273,1486 125,2167 -36,126 -73,280 -216,332 -123,25 -219,-76 -281,-170 -127,-259 45,-508 92,-752 16,-91 35,-215 -24,-291 -66,-46 -173,-65 -247,-22 -75,94 -112,206 -148,316 -121,480 -18,1003 82,1460 l 135,597 c 130,648 147,1376 98,2067 l -44,475 -65,502 -64,463 c -40,348 -76,728 -27,1083 11,66 33,127 46,192 2,21 -21,33 -36,40 -25,8 -54,21 -81,9 -29,-36 -34,-80 -47,-121 -90,-402 -33,-857 10,-1261 l 121,-908 43,-451 24,-431 5,-456 c -9,-443 -53,-872 -141,-1282 l -148,-648 c -100,-471 -177,-1064 12,-1521 l 81,-180 c 87,-107 245,-99 373,-76 66,13 143,51 166,123 58,146 22,323 -16,467 -43,150 -118,291 -102,461 10,75 66,145 137,178 29,3 46,-28 60,-47 76,-148 89,-323 121,-489 108,-629 102,-1364 -240,-1884 l -228,-373 c -127,-236 -315,-557 -115,-821 37,-46 81,-92 128,-127 42,29 84,55 129,78 z"
   id="path1277"
   inkscape:connector-curvature="0"
   style="fill:#ffed00" />
   <path
   class="fil5"
   d="m 15942,11441 c -102,479 -507,835 -630,1305 -163,544 -88,1202 27,1744 18,76 40,153 98,211 42,16 73,-28 102,-54 117,-130 38,-323 -5,-462 -61,-174 -124,-385 -58,-576 49,-137 201,-143 331,-146 73,9 146,18 200,74 258,433 242,1049 139,1548 l -94,442 -103,451 c -138,678 -154,1450 -92,2168 l 45,439 72,535 58,447 c 36,366 75,781 -9,1137 -15,38 -16,84 -52,111 -42,3 -87,-7 -109,-45 3,-52 28,-97 36,-147 76,-433 8,-891 -39,-1316 l -98,-716 c -34,-279 -56,-562 -71,-849 l -8,-432 c 0,-566 61,-1107 187,-1620 l 99,-434 c 100,-501 211,-1151 -62,-1607 -21,-48 -71,-67 -121,-65 -71,6 -156,14 -183,88 -39,147 9,292 49,423 67,187 164,460 6,637 -66,69 -142,133 -242,112 -109,-33 -161,-150 -192,-245 -115,-483 -189,-1014 -121,-1541 36,-265 115,-512 238,-742 l 288,-476 c 99,-191 238,-422 124,-647 -36,-58 -90,-111 -147,-148 43,-22 88,-49 129,-80 155,116 246,282 209,477 z"
   id="path1279"
   inkscape:connector-curvature="0"
   style="fill:#ffed00" />
   <path
   class="fil9"
   d="m 14920,15220 c -310,-65 -622,6 -890,112 -307,109 -616,261 -976,197 -478,-82 -875,-416 -1405,-314 -474,85 -869,404 -1396,314 -580,-83 -1095,-457 -1724,-288 l -183,56 -438,161 c -234,90 -533,114 -783,42 l -236,-71 -408,-141 c -153,-48 -312,-87 -484,-92 v -4024 h 8922 v 4048 z"
   id="path1281"
   inkscape:connector-curvature="0"
   style="fill:#009846" />
   <path
   class="fil5"
   d="m 4268,13566 c 10,16 -1,33 -10,46 -354,408 -414,1002 -305,1541 71,326 162,642 215,975 58,354 89,720 99,1093 l -2,479 -21,403 -45,452 -65,465 c -89,529 -142,1173 65,1662 7,22 -9,38 -26,48 -26,12 -52,27 -82,20 -45,-40 -51,-105 -75,-157 -125,-394 -117,-878 -65,-1302 l 96,-651 c 132,-970 111,-2058 -115,-2977 -147,-498 -256,-1133 -63,-1644 66,-180 160,-350 291,-502 10,-15 33,-16 46,-7 24,13 49,31 63,56 z"
   id="path1283"
   inkscape:connector-curvature="0"
   style="fill:#ffed00" />
   <path
   class="fil5"
   d="m 16796,13560 c 376,451 425,1124 290,1702 l -136,562 c -208,932 -198,2037 -54,2996 l 75,502 c 55,468 57,996 -121,1408 -11,19 -35,28 -57,21 -26,-10 -58,-18 -73,-47 l 1,-28 c 179,-409 159,-941 103,-1401 l -94,-637 c -126,-946 -111,-2013 99,-2915 l 126,-516 c 121,-541 73,-1162 -283,-1580 -12,-15 -26,-28 -26,-48 10,-36 49,-60 81,-73 34,-2 52,34 70,55 z"
   id="path1285"
   inkscape:connector-curvature="0"
   style="fill:#ffed00" />
   <path
   class="fil6"
   d="m 16618,13557 c -14,44 19,78 44,110 337,406 378,1008 263,1528 -111,431 -213,866 -260,1324 -72,606 -55,1275 6,1882 l 58,462 73,493 c 48,427 53,909 -102,1289 -9,16 -11,34 -12,53 l -655,78 c 110,-367 67,-811 32,-1197 l -65,-506 -64,-461 -49,-493 c -69,-815 -35,-1669 156,-2417 l 101,-447 c 119,-525 180,-1197 -78,-1678 l -9,-20 z m -11759,0 c -198,377 -226,874 -154,1320 l 52,296 109,497 c 195,734 233,1563 172,2371 l -45,471 -65,499 -66,495 c -39,408 -97,878 23,1269 l -653,-75 c -10,-69 -46,-126 -63,-191 -124,-418 -89,-932 -25,-1368 l 72,-479 c 133,-976 115,-2076 -109,-3003 l -111,-454 c -111,-489 -83,-1070 207,-1468 29,-62 114,-105 98,-180 h 560 z"
   id="path1287"
   inkscape:connector-curvature="0"
   style="fill:#d32c2e" />
   <path
   class="fil6"
   d="m 5265,13649 c 42,49 36,123 32,187 -35,312 -323,704 0,972 l -403,-60 c -46,-380 -45,-801 159,-1108 62,-47 153,-25 213,9 z"
   id="path1289"
   inkscape:connector-curvature="0"
   style="fill:#d32c2e" />
   <path
   class="fil6"
   d="m 15925,13748 c 139,289 138,664 100,998 l -405,64 c 138,-108 172,-277 142,-442 -38,-209 -145,-388 -145,-613 6,-36 7,-74 30,-102 61,-33 153,-63 215,-14 z"
   id="path1291"
   inkscape:connector-curvature="0"
   style="fill:#d32c2e" />
   <path
   class="fil3"
   d="m 6553,15359 434,150 c 233,71 516,112 764,43 l 192,-57 481,-177 c 244,-96 565,-97 820,-26 l 236,67 470,150 c 265,76 601,118 872,24 400,-110 767,-355 1226,-274 456,88 838,387 1344,318 141,-20 273,-63 404,-109 l 411,-150 c 213,-75 480,-101 714,-51 v 1490 c -312,-63 -626,8 -896,116 -307,108 -615,260 -975,193 -467,-85 -857,-403 -1374,-317 -485,78 -882,408 -1418,318 -148,-21 -288,-62 -429,-105 l -462,-147 c -249,-73 -550,-116 -813,-43 l -214,65 -427,157 c -232,90 -534,116 -783,43 l -223,-64 -424,-146 c -154,-49 -314,-85 -486,-94 l 1,-1492 c 199,6 378,61 556,118 z"
   id="path1293"
   inkscape:connector-curvature="0"
   style="fill:#fefefe" />
   <path
   class="fil9"
   d="m 9386,16870 566,178 c 261,78 596,117 864,26 399,-109 761,-353 1217,-280 479,82 875,418 1407,314 436,-79 799,-349 1272,-325 72,1 139,11 208,22 l -2,3551 c -11,255 -150,525 -406,608 -127,48 -267,67 -413,67 l -2900,1 c -264,72 -538,276 -661,536 -30,61 -55,124 -79,187 -80,-262 -304,-548 -574,-659 -61,-27 -123,-52 -188,-65 l -2971,-2 c -279,-9 -578,-134 -674,-418 -73,-179 -53,-396 -56,-603 v -3226 c 162,0 310,40 458,84 l 529,180 c 251,83 572,112 832,27 391,-107 739,-342 1188,-287 132,18 260,45 384,83 z"
   id="path1295"
   inkscape:connector-curvature="0"
   style="fill:#009846" />
   <path
   class="fil5"
   d="m 5611,20044 c 65,179 74,381 106,575 21,165 165,310 313,384 256,130 538,204 821,272 88,27 198,82 223,183 15,62 -5,121 -46,166 -67,67 -171,79 -263,56 -115,-30 -189,-161 -303,-195 -98,-24 -205,-57 -309,-31 -12,8 -30,18 -34,35 -10,56 44,90 62,138 -79,-35 -154,-88 -234,-127 -7,-55 24,-103 67,-137 91,-69 216,-78 330,-51 114,45 245,46 335,151 64,57 144,114 233,75 10,-7 24,-13 26,-26 3,-39 -36,-65 -66,-81 -110,-47 -234,-58 -348,-96 -253,-75 -505,-152 -724,-310 -58,-47 -118,-107 -147,-173 l -101,-406 c -18,-189 -61,-367 -147,-527 -10,-15 -25,-26 -40,-31 -55,38 -53,112 -48,175 31,159 134,286 216,423 l 98,402 c -15,55 -58,115 -117,128 -134,27 -240,-76 -315,-178 -102,-153 -157,-325 -179,-512 -5,-164 0,-330 16,-488 10,-24 37,-22 61,-22 26,7 60,7 72,36 l -8,110 -3,1 c -27,295 6,587 170,813 39,47 88,102 150,102 34,-28 20,-88 19,-130 -61,-231 -263,-400 -313,-635 0,-76 10,-153 13,-229 24,-65 87,-130 159,-136 160,1 214,180 259,297 z"
   id="path1297"
   inkscape:connector-curvature="0"
   style="fill:#ffed00" />
   <path
   class="fil5"
   d="m 15696,19829 29,58 c -5,103 42,222 -14,313 -69,206 -262,360 -290,583 1,34 -6,71 19,96 53,3 94,-37 130,-76 187,-229 219,-535 190,-840 l -9,-110 c 18,-33 57,-36 94,-36 16,2 34,9 39,26 10,215 42,461 -17,664 -60,197 -152,433 -372,511 -49,12 -103,3 -142,-26 -36,-27 -54,-64 -65,-102 l 102,-414 c 97,-156 227,-303 211,-502 -8,-30 -17,-63 -45,-84 -26,3 -44,29 -56,49 -79,162 -120,339 -137,525 -38,136 -69,274 -107,412 -152,225 -399,300 -625,389 -173,54 -348,106 -526,147 -47,18 -107,33 -127,87 -3,19 11,36 26,42 169,65 252,-145 395,-173 150,-53 359,-118 502,-3 43,34 74,80 71,137 -79,39 -154,88 -233,130 14,-51 82,-93 53,-154 -39,-40 -102,-31 -154,-28 -118,17 -235,37 -323,127 -81,81 -178,135 -298,112 -72,-12 -157,-64 -173,-142 -22,-85 21,-161 91,-210 127,-79 281,-92 423,-134 236,-72 472,-141 674,-295 206,-159 169,-420 218,-643 26,-136 65,-265 126,-387 34,-64 98,-123 170,-129 63,-3 114,33 150,82 z"
   id="path1299"
   inkscape:connector-curvature="0"
   style="fill:#ffed00" />
   <path
   class="fil6"
   d="m 5487,20237 27,161 c -82,-132 -201,-273 -162,-450 l 13,-25 c 66,94 94,205 121,314 z"
   id="path1301"
   inkscape:connector-curvature="0"
   style="fill:#d32c2e" />
   <path
   class="fil6"
   d="m 15523,20203 c -36,66 -78,132 -118,197 13,-146 54,-290 111,-422 l 36,-55 c 52,90 9,198 -29,280 z"
   id="path1303"
   inkscape:connector-curvature="0"
   style="fill:#d32c2e" />
   <path
   class="fil6"
   d="m 5454,20721 c 9,39 19,88 6,128 -110,-52 -162,-166 -208,-265 -45,-114 -66,-238 -73,-369 65,179 211,326 276,506 z"
   id="path1305"
   inkscape:connector-curvature="0"
   style="fill:#d32c2e" />
   <path
   class="fil6"
   d="m 15523,20806 c -20,18 -42,35 -65,43 -24,-102 27,-191 74,-274 73,-118 157,-231 205,-360 -9,219 -61,429 -214,592 z"
   id="path1307"
   inkscape:connector-curvature="0"
   style="fill:#d32c2e" />
   <path
   class="fil6"
   d="m 15853,20810 c 38,28 89,46 136,31 l 34,-33 146,-18 c -146,459 -448,872 -849,1210 l -262,-324 c 18,-13 28,-33 30,-54 -6,-51 -35,-105 -85,-124 7,-85 -60,-160 -132,-192 -49,-20 -100,-39 -157,-39 192,-80 407,-160 551,-350 20,54 73,114 133,127 148,34 265,-78 350,-190 51,-76 93,-157 119,-244 2,65 -69,136 -13,199 z m -10400,242 c 82,9 157,-44 190,-117 0,-6 5,-10 7,-17 145,188 352,272 553,349 -96,10 -205,41 -265,135 -16,29 -27,61 -24,98 -55,23 -87,81 -84,137 6,15 12,32 29,40 l -261,324 c -403,-336 -701,-750 -851,-1208 l 148,16 c 11,16 28,34 46,37 57,5 118,-12 143,-66 6,-62 -29,-110 -36,-169 62,177 191,411 405,441 z"
   id="path1309"
   inkscape:connector-curvature="0"
   style="fill:#d32c2e" />
   <path
   class="fil5"
   d="m 4711,20786 c 152,470 456,893 867,1241 l -25,29 c -16,-13 -36,-24 -57,-20 -28,1 -51,22 -71,44 -423,-373 -721,-814 -862,-1310 47,8 98,11 147,17 z"
   id="path1311"
   inkscape:connector-curvature="0"
   style="fill:#ffed00" />
   <path
   class="fil5"
   d="m 15492,22079 c -22,-25 -46,-45 -78,-46 -20,0 -36,11 -52,22 l -24,-29 c 408,-348 715,-767 864,-1237 48,-12 102,-11 151,-20 -141,496 -439,937 -862,1310 z"
   id="path1313"
   inkscape:connector-curvature="0"
   style="fill:#ffed00" />
   <path
   class="fil6"
   d="m 6879,21471 27,29 c -21,28 -72,21 -103,12 -55,-27 -105,-74 -154,-114 79,19 159,36 231,72 z"
   id="path1315"
   inkscape:connector-curvature="0"
   style="fill:#d32c2e" />
   <path
   class="fil6"
   d="m 14011,21504 c 29,-51 90,-55 138,-75 l 118,-29 c -75,54 -152,162 -256,105 z"
   id="path1317"
   inkscape:connector-curvature="0"
   style="fill:#d32c2e" />
   <path
   class="fil6"
   d="m 6547,21571 c 112,116 272,199 429,124 -20,80 -45,164 -66,246 -237,-78 -471,-174 -694,-294 0,-61 -72,-97 -65,-155 35,-25 88,-17 130,-13 93,18 193,24 267,92 z"
   id="path1319"
   inkscape:connector-curvature="0"
   style="fill:#d32c2e" />
   <path
   class="fil6"
   d="m 14770,21499 c -6,56 -66,91 -69,148 -225,119 -458,216 -697,297 l -71,-252 c 118,56 274,30 367,-63 56,-46 108,-99 175,-118 84,-20 173,-43 265,-33 10,4 26,7 29,20 z"
   id="path1321"
   inkscape:connector-curvature="0"
   style="fill:#d32c2e" />
   <path
   class="fil5"
   d="m 5958,21538 c 715,434 1524,641 2374,749 l 448,46 478,30 562,18 1419,-2 536,-20 447,-33 c 989,-92 1930,-299 2751,-795 14,-2 27,-6 38,5 26,30 58,69 37,107 -245,161 -508,282 -778,387 -696,267 -1451,395 -2235,453 l -517,29 -533,11 h -814 l -521,-3 -520,-20 -444,-33 c -1009,-97 -1974,-303 -2811,-817 -20,-11 -20,-37 -12,-54 17,-30 49,-97 94,-58 z"
   id="path1323"
   inkscape:connector-curvature="0"
   style="fill:#ffed00" />
   <path
   class="fil6"
   d="m 8396,22469 430,42 496,29 530,14 1371,-1 540,-21 468,-34 c 1000,-94 1954,-301 2787,-802 l 301,375 6,6 c -371,340 -813,513 -1263,665 -234,75 -475,138 -716,193 l -458,94 -575,94 -649,82 -659,64 -570,40 -665,-49 -612,-62 -585,-75 -553,-91 -470,-96 c -680,-164 -1352,-349 -1917,-795 l -70,-64 307,-381 c 759,457 1622,666 2526,774 z"
   id="path1325"
   inkscape:connector-curvature="0"
   style="fill:#d32c2e" />
   <path
   class="fil5"
   d="m 5522,22069 c 496,450 1098,646 1710,817 l 393,94 429,85 526,85 601,78 680,66 606,45 702,-54 649,-66 559,-74 516,-85 462,-94 c 658,-157 1306,-339 1861,-743 l 183,-154 c 36,-11 66,26 85,53 11,15 14,35 2,49 -363,349 -797,532 -1241,693 -469,157 -957,272 -1455,358 l -503,80 -631,79 -666,63 -549,38 -628,-47 -639,-63 -587,-75 -502,-81 -456,-89 -431,-102 c -602,-168 -1192,-362 -1692,-777 -32,-35 -92,-63 -84,-112 19,-31 54,-81 97,-64 z"
   id="path1327"
   inkscape:connector-curvature="0"
   style="fill:#ffed00" />
   <g
   id="g1341">
    <polygon
   class="fil0"
   points="8853,13402 8444,13712 8503,14277 8007,14195 8003,14195 7662,14636 7659,14639 7359,14214 6813,14276 6892,13760 6865,13733 6466,13403 6465,13402 6875,13092 6815,12526 7310,12608 7316,12608 7660,12164 7960,12591 8504,12527 8425,13046 "
   id="polygon1329"
   style="fill:#2b2a29" />
    <path
   class="fil5"
   d="m 8451,12577 -73,487 404,336 -386,291 57,533 -470,-78 -322,417 -15,-14 -267,-382 -514,58 73,-487 -405,-336 386,-291 -56,-531 c 153,18 312,52 470,75 l 324,-418 279,397 514,-58 z"
   id="path1331"
   inkscape:connector-curvature="0"
   style="fill:#ffed00" />
    <path
   class="fil0"
   d="m 11304,12527 c -27,173 -53,346 -80,518 143,119 286,238 429,357 -136,103 -273,206 -409,309 20,189 40,377 60,566 -165,-27 -331,-55 -496,-82 -2,0 -3,0 -5,0 -114,147 -227,294 -341,441 -1,1 -2,2 -3,3 -100,-142 -199,-283 -299,-425 -182,21 -364,41 -547,62 26,-172 52,-344 79,-516 -9,-9 -18,-18 -27,-27 -133,-110 -265,-220 -398,-330 0,0 -1,-1 -1,-1 136,-103 273,-207 409,-310 -20,-189 -40,-377 -60,-566 165,27 330,55 495,82 2,0 4,0 6,0 115,-148 229,-296 344,-444 100,142 200,285 300,427 181,-21 363,-43 544,-64 z"
   id="path1333"
   inkscape:connector-curvature="0"
   style="fill:#2b2a29" />
    <path
   class="fil5"
   d="m 11251,12577 c -24,162 -49,325 -73,487 135,112 269,224 404,336 -129,97 -257,194 -386,291 19,178 38,355 57,533 -157,-26 -313,-52 -470,-78 -107,139 -214,278 -322,417 -5,-5 -10,-9 -15,-14 -89,-127 -178,-255 -267,-382 -171,20 -343,39 -514,58 24,-162 49,-325 73,-487 -135,-112 -270,-224 -405,-336 129,-97 257,-194 386,-291 -19,-177 -37,-354 -56,-531 153,18 312,52 470,75 108,-139 216,-279 324,-418 93,132 186,265 279,397 171,-19 343,-39 514,-58 z"
   id="path1335"
   inkscape:connector-curvature="0"
   style="fill:#ffed00" />
    <polygon
   class="fil0"
   points="14452,13402 14043,13712 14102,14277 13606,14195 13602,14195 13261,14636 13258,14639 12958,14214 12412,14276 12490,13760 12464,13733 12065,13403 12064,13402 12474,13092 12414,12526 12909,12608 12915,12608 13259,12164 13559,12591 14103,12527 14023,13046 "
   id="polygon1337"
   style="fill:#2b2a29" />
    <path
   class="fil5"
   d="m 14050,12577 -73,487 404,336 -386,291 57,533 -470,-78 -322,417 -15,-14 -267,-382 -514,58 73,-487 -405,-336 386,-291 -56,-531 c 153,18 312,52 470,75 l 324,-418 279,397 514,-58 z"
   id="path1339"
   inkscape:connector-curvature="0"
   style="fill:#ffed00" />
   </g>
   <path
   class="fil10"
   d="m 8925,8797 c -91,74 -230,99 -337,42 -112,-56 -183,-171 -175,-298 0,-8 1,-17 3,-26 8,101 70,190 162,235 98,53 228,30 311,-39 42,-34 78,-89 92,-143 23,-69 8,-156 -30,-223 70,74 106,201 74,297 -15,59 -54,118 -100,155 z"
   id="path1343"
   inkscape:connector-curvature="0"
   style="fill:#c5c6c6" />
   <path
   class="fil10"
   d="m 12413,8797 c -91,74 -230,99 -337,42 -112,-56 -183,-171 -175,-298 0,-8 1,-17 3,-26 8,101 70,190 162,235 98,53 228,30 311,-39 42,-34 78,-89 92,-143 23,-69 8,-156 -30,-223 70,74 106,201 74,297 -15,59 -54,118 -100,155 z"
   id="path1345"
   inkscape:connector-curvature="0"
   style="fill:#c5c6c6" />
   <g
   id="g1351">
    <path
   class="fil9"
   d="m 10622,8335 c 58,155 53,362 -58,492 -22,22 -56,38 -87,23 -54,-30 -82,-80 -100,-133 15,21 35,39 60,53 31,14 65,-2 87,-23 106,-124 115,-321 64,-474 14,20 25,43 34,63 z"
   id="path1347"
   inkscape:connector-curvature="0"
   style="fill:#009846" />
    <path
   class="fil11"
   d="m 10322,8586 c -7,-20 -12,-40 -17,-60 -26,-144 -12,-299 76,-410 23,-31 58,-48 96,-38 25,9 44,26 60,47 -28,8 -52,22 -72,40 -131,115 -165,270 -143,421 z"
   id="path1349"
   inkscape:connector-curvature="0"
   style="fill:#dbe285" />
   </g>
   <g
   id="g1357">
    <path
   class="fil12"
   d="m 7325,9017 c 60,81 91,204 48,299 -10,16 -27,31 -48,28 -37,-8 -61,-33 -81,-62 13,10 27,17 44,21 21,3 38,-12 48,-28 42,-91 14,-208 -41,-289 11,9 22,21 30,31 z"
   id="path1353"
   inkscape:connector-curvature="0"
   style="fill:#8a4137" />
    <path
   class="fil13"
   d="m 7190,9214 c -7,-11 -14,-22 -20,-33 -39,-80 -56,-174 -23,-254 9,-22 26,-38 50,-38 16,1 30,8 43,18 -15,9 -27,22 -35,36 -58,89 -53,186 -14,271 z"
   id="path1355"
   inkscape:connector-curvature="0"
   style="fill:#fbd9ca" />
   </g>
   <path
   class="fil12"
   d="m 13592,9018 c -60,81 -91,204 -48,299 10,16 27,31 48,28 37,-8 61,-33 81,-62 -13,10 -27,17 -44,21 -21,3 -38,-12 -48,-28 -42,-91 -14,-208 41,-289 -11,9 -22,21 -30,31 z"
   id="path1359"
   inkscape:connector-curvature="0"
   style="fill:#8a4137" />
   <path
   class="fil13"
   d="m 13727,9215 c 7,-11 14,-22 20,-33 39,-80 56,-174 23,-254 -9,-22 -26,-38 -50,-38 -16,1 -30,8 -43,18 15,9 27,22 35,36 58,89 53,186 14,271 z"
   id="path1361"
   inkscape:connector-curvature="0"
   style="fill:#fbd9ca" />
   <path
   class="fil12"
   d="m 12842,10496 c -49,67 -75,169 -39,246 8,14 22,26 39,23 30,-7 51,-28 67,-51 -10,8 -22,14 -36,17 -17,3 -31,-10 -39,-23 -35,-75 -12,-171 34,-239 -9,8 -18,17 -25,26 z"
   id="path1363"
   inkscape:connector-curvature="0"
   style="fill:#8a4137" />
   <path
   class="fil13"
   d="m 12939,10672 c 6,-9 11,-18 17,-27 32,-66 47,-144 19,-209 -7,-18 -22,-31 -41,-32 -13,1 -25,7 -35,15 12,8 22,18 29,29 48,74 43,154 12,224 z"
   id="path1365"
   inkscape:connector-curvature="0"
   style="fill:#fbd9ca" />
   <g
   id="g1371">
    <path
   class="fil12"
   d="m 7999,10477 c 49,67 75,169 39,246 -8,14 -22,26 -39,23 -30,-7 -51,-28 -67,-51 10,8 22,14 36,17 17,3 31,-10 39,-23 35,-75 12,-171 -34,-239 9,8 18,17 25,26 z"
   id="path1367"
   inkscape:connector-curvature="0"
   style="fill:#8a4137" />
    <path
   class="fil13"
   d="m 7902,10653 c -6,-9 -11,-18 -17,-27 -32,-66 -47,-144 -19,-209 7,-18 22,-31 41,-32 13,1 25,7 35,15 -12,8 -22,18 -29,29 -48,74 -43,154 -12,224 z"
   id="path1369"
   inkscape:connector-curvature="0"
   style="fill:#fbd9ca" />
   </g>
   <path
   class="fil12"
   d="m 10579,10176 c -48,35 -122,47 -178,20 -59,-26 -97,-81 -93,-141 0,-4 1,-8 1,-12 4,48 37,90 85,111 52,25 120,14 165,-18 22,-16 41,-42 49,-68 12,-33 4,-74 -16,-106 37,35 56,95 39,141 -8,28 -29,56 -53,73 z"
   id="path1373"
   inkscape:connector-curvature="0"
   style="fill:#8a4137" />
   <path
   class="fil13"
   d="m 10448,9920 c 37,0 67,23 67,51 0,28 -30,51 -67,51 -37,0 -67,-23 -67,-51 0,-28 30,-51 67,-51 z"
   id="path1375"
   inkscape:connector-curvature="0"
   style="fill:#fbd9ca" />
   <path
   class="fil14"
   d="m 11705,10068 c 29,0 53,18 53,41 0,23 -24,41 -53,41 -29,0 -53,-18 -53,-41 0,-23 24,-41 53,-41 z"
   id="path1377"
   inkscape:connector-curvature="0"
   style="fill:#e2e69a" />
   <path
   class="fil14"
   d="m 8968,10100 c 31,0 56,19 56,43 0,24 -25,43 -56,43 -31,0 -56,-19 -56,-43 0,-24 25,-43 56,-43 z"
   id="path1379"
   inkscape:connector-curvature="0"
   style="fill:#e2e69a" />
   <path
   class="fil9"
   d="m 11653,10234 c 73,70 191,117 290,85 18,-7 35,-23 34,-44 -4,-37 -25,-65 -51,-88 8,14 14,29 15,46 1,21 -16,36 -34,44 -95,30 -208,-12 -282,-77 8,13 18,24 27,34 z"
   id="path1381"
   inkscape:connector-curvature="0"
   style="fill:#009846" />
   <path
   class="fil9"
   d="m 9000,10307 c 101,8 222,-29 280,-115 9,-17 13,-39 -1,-55 -26,-27 -61,-35 -95,-37 15,6 29,14 41,27 14,16 10,38 1,55 -55,83 -170,121 -268,116 14,5 29,7 43,10 z"
   id="path1383"
   inkscape:connector-curvature="0"
   style="fill:#009846" />
   <polygon
   class="fil8"
   points="9770,23252 9769,23252 10434,23302 11003,23261 11003,23261 11543,23209 11543,22546 11222,22559 11222,22559 9851,22560 9851,22560 9343,22547 9343,23209 "
   id="polygon1385"
   style="fill:#e31e24" />
   <path
   class="fil8"
   d="m 15858,21403 -346,-353 c -17,4 -35,7 -54,8 -20,1 -41,-1 -62,-6 -29,-7 -57,-24 -80,-46 -22,-22 -41,-48 -53,-74 -52,67 -113,120 -179,164 -66,44 -136,79 -207,111 l 615,628 c 69,-67 135,-137 196,-210 61,-72 117,-146 169,-222 z m -9793,-184 c -77,-32 -152,-69 -222,-115 -70,-46 -136,-102 -192,-173 -1,1 -1,3 -1,4 l -1,3 c -17,39 -46,72 -82,94 -34,21 -74,31 -115,27 v 0 c -3,0 -6,-1 -9,-1 -2,0 -4,-1 -5,-1 l -362,370 c 53,76 110,149 172,221 62,71 127,140 197,207 l 621,-634 z"
   id="path1387"
   inkscape:connector-curvature="0"
   style="fill:#e31e24" />
   <path
   class="fil8"
   d="m 16739,15974 h -751 c -65,326 -104,669 -119,1016 -17,375 -7,756 25,1128 v 0 l 8,84 h 744 c -24,-288 -37,-587 -35,-884 2,-271 16,-541 47,-800 v 0 c 10,-94 22,-187 36,-279 13,-89 29,-178 45,-266 z m -12559,0 c 64,345 103,708 118,1075 16,385 7,775 -25,1154 h 743 l 15,-162 v 0 c 27,-363 35,-730 17,-1091 -17,-334 -55,-662 -118,-976 h -749 z"
   id="path1389"
   inkscape:connector-curvature="0"
   style="fill:#e31e24" />
   <path
   class="fil8"
   d="m 16832,13955 h -625 c 14,63 24,128 31,193 8,70 12,140 14,212 h 699 c -11,-71 -27,-141 -47,-210 -20,-67 -44,-132 -72,-195 z m -25,5519 h -749 l 14,105 v 0 c 5,54 10,111 14,151 4,49 8,98 12,148 h 727 c 1,-68 -1,-136 -4,-203 -3,-68 -8,-135 -14,-201 z m -12715,404 h 728 c 7,-97 17,-195 26,-290 3,-28 5,-56 8,-81 v 0 l 4,-33 h -749 c -6,66 -11,134 -14,202 -3,68 -5,135 -4,203 z m -127,-5519 h 698 c 2,-70 7,-140 15,-209 8,-66 19,-131 33,-195 h -628 c -28,62 -52,127 -72,194 -20,68 -35,139 -47,210 z"
   id="path1391"
   inkscape:connector-curvature="0"
   style="fill:#e31e24" />
   <path
   class="fil8"
   d="m 16552,12339 h -1019 l -40,67 c 0,0 0,0 0,0 v 0 0 c -45,77 -82,159 -113,244 -30,83 -54,168 -72,256 h 943 c 10,-24 21,-49 32,-73 12,-26 24,-51 37,-75 v 0 z m -12185,0 181,327 v 0 c 22,39 43,79 63,120 19,39 37,79 54,120 h 943 c -6,-27 -12,-53 -19,-79 -8,-29 -16,-58 -25,-86 v 0 c -21,-71 -48,-140 -79,-208 -31,-66 -65,-130 -102,-194 H 4366 Z"
   id="path1393"
   inkscape:connector-curvature="0"
   style="fill:#e31e24" />
   <path
   class="fil8"
   d="m 6041,9238 -359,367 c 62,22 122,48 182,75 63,29 125,60 186,92 v 0 l 159,98 405,-413 c -89,-51 -179,-98 -273,-136 -96,-39 -195,-68 -300,-83 z m 8288,205 402,411 66,-42 h 1 l 205,-108 v 0 c 45,-21 90,-41 135,-59 42,-17 84,-34 128,-49 l -354,-361 c -108,12 -209,39 -306,76 -95,37 -187,83 -277,133 z"
   id="path1395"
   inkscape:connector-curvature="0"
   style="fill:#e31e24" />
   <path
   class="fil6"
   d="m 14467,10276 111,-78 386,-242 c 209,-108 421,-209 669,-224 37,0 78,1 99,34 25,136 -27,255 -124,350 -171,183 -407,225 -562,434 -62,84 -103,179 -113,283 l -466,-558 z"
   id="path1397"
   inkscape:connector-curvature="0"
   style="fill:#d32c2e" />
   <path
   class="fil3"
   d="m 6484,10299 387,269 c 330,222 697,351 1082,438 -8,34 -16,70 -12,108 H 5939 l 2,9251 c 8,280 174,567 451,658 157,60 334,71 517,69 l 2801,2 c 269,72 543,299 647,567 43,96 72,197 101,298 60,-209 132,-416 289,-586 135,-144 295,-227 467,-281 l 2953,-1 c 289,-13 586,-108 723,-389 56,-115 81,-244 87,-379 v -9208 h -2150 c 3,-112 -49,-201 -130,-279 37,7 76,4 109,-11 26,3 53,-3 74,-7 -2,10 -14,15 -20,21 -29,39 -14,100 7,138 40,71 120,12 178,10 396,-94 769,-245 1104,-487 l 296,-207 487,583 c 0,18 1,37 2,56 13,69 79,139 148,152 155,22 342,27 486,-25 103,56 191,165 197,285 -1,219 -117,391 -216,571 l -249,409 c -349,624 -283,1510 -128,2202 36,133 81,298 234,346 57,15 115,-1 163,-26 l 449,-69 c -14,133 -38,264 -63,395 l -108,481 c -189,748 -233,1590 -168,2410 l 43,454 62,479 66,487 30,305 c -48,-11 -111,-5 -148,35 -42,-62 -112,-118 -197,-107 -156,26 -216,198 -259,323 -62,178 -78,376 -105,567 -69,353 -458,438 -734,539 -196,80 -442,55 -590,235 -36,51 -49,123 -28,184 14,40 44,75 78,107 l 79,281 c -528,178 -1088,274 -1665,334 l -513,39 -458,19 -460,7 h -710 l -520,-3 -517,-21 -443,-33 c -607,-57 -1196,-159 -1751,-342 l 76,-280 c 75,-53 107,-138 87,-226 -45,-155 -213,-195 -345,-229 -267,-63 -527,-138 -764,-272 -184,-98 -259,-288 -268,-480 -20,-216 -66,-422 -160,-607 -40,-69 -109,-137 -192,-141 -79,-7 -146,42 -187,108 -34,-42 -98,-48 -151,-34 l 36,-353 111,-819 49,-499 c 62,-731 40,-1508 -100,-2195 l -166,-737 c -26,-135 -53,-270 -69,-408 l 466,72 c 64,39 162,31 219,-14 111,-93 142,-227 173,-357 141,-673 205,-1518 -121,-2126 -146,-276 -348,-527 -452,-821 -46,-128 -43,-298 63,-396 31,-35 67,-55 101,-82 144,54 332,47 488,26 69,-14 129,-80 150,-144 1,-15 2,-30 3,-44 l 498,-596 z"
   id="path1399"
   inkscape:connector-curvature="0"
   style="fill:#fefefe" />
   <path
   class="fil6"
   d="m 5860,9909 c 172,85 333,195 496,301 l 104,73 -475,569 c -13,-204 -143,-375 -320,-487 -202,-117 -513,-283 -486,-569 3,-19 6,-43 28,-52 90,-27 187,-1 272,18 132,36 258,87 380,147 z"
   id="path1401"
   inkscape:connector-curvature="0"
   style="fill:#d32c2e" />
   <path
   class="fil15"
   d="M 12051,11105 H 8774 c 275,-173 906,-294 1638,-294 732,0 1364,121 1638,294 z"
   id="path1403"
   inkscape:connector-curvature="0"
   style="fill:#fff7b2" />
  </g>
 </g>
</svg>