<?xml version="1.0" encoding="utf-8"?>
<!-- Generator: Adobe Illustrator 22.0.1, SVG Export Plug-In . SVG Version: 6.00 Build 0)  -->
<svg version="1.1" id="Слой_1" xmlns="http://www.w3.org/2000/svg" xmlns:xlink="http://www.w3.org/1999/xlink" x="0px" y="0px"
	 viewBox="0 0 127.3 127" style="enable-background:new 0 0 127.3 127;" xml:space="preserve">
<style type="text/css">
	.st0{fill:url(#SVGID_1_);}
	.st1{fill:#FFFFFF;}
	.st2{fill-rule:evenodd;clip-rule:evenodd;fill:#D1D3D4;}
	.st3{clip-path:url(#SVGID_3_);fill:none;stroke:#000000;stroke-width:8.483270e-02;}
	.st4{fill-rule:evenodd;clip-rule:evenodd;fill:#FFFFFF;}
	.st5{fill:none;stroke:#1F1A17;stroke-width:0.1105;}
	.st6{fill-rule:evenodd;clip-rule:evenodd;fill:#F2DA00;}
	.st7{fill-rule:evenodd;clip-rule:evenodd;fill:#066C4B;}
	.st8{fill-rule:evenodd;clip-rule:evenodd;fill:#282074;}
	.st9{fill-rule:evenodd;clip-rule:evenodd;fill:#282878;}
	.st10{fill-rule:evenodd;clip-rule:evenodd;fill:#47A5AE;}
	.st11{fill:none;stroke:#FFFFFF;stroke-width:0.4448;}
	.st12{fill-rule:evenodd;clip-rule:evenodd;fill:#FFCB05;}
	.st13{fill-rule:evenodd;clip-rule:evenodd;fill:#00923F;}
</style>
<radialGradient id="SVGID_1_" cx="64.8" cy="2586.7468" r="62.6" gradientTransform="matrix(1 0 0 1 0 -2522.3469)" gradientUnits="userSpaceOnUse">
	<stop  offset="0.9487" style="stop-color:#212121"/>
	<stop  offset="1" style="stop-color:#606060;stop-opacity:0"/>
</radialGradient>
<circle class="st0" cx="64.8" cy="64.4" r="62.6"/>
<circle class="st1" cx="62.6" cy="62.6" r="62.6"/>
<g>
	<path class="st2" d="M99.4,21.9V97c0,4.8-3.9,8.7-8.6,8.7H71.5c-3.8,0.1-6.8,1.4-8.6,5.1c-1.9-3.6-3.1-4.9-8.5-5.1H35.5
		c-4.8,0-8.6-3.9-8.6-8.7V21.9H99.4z M99.4,21.9"/>
	<g>
		<defs>
			<rect id="SVGID_2_" x="26.8" y="21.8" width="72.6" height="89.2"/>
		</defs>
		<clipPath id="SVGID_3_">
			<use xlink:href="#SVGID_2_"  style="overflow:visible;"/>
		</clipPath>
		<path class="st3" d="M99.4,21.9V97c0,4.8-3.9,8.7-8.6,8.7H71.5c-3.8,0.1-6.8,1.4-8.6,5.1c-1.9-3.6-3.1-4.9-8.5-5.1H35.5
			c-4.8,0-8.6-3.9-8.6-8.7V21.9H99.4z M99.4,21.9"/>
	</g>
	<path class="st4" d="M63.2,39.9c16,0,29,13,29,29c0,16-13,29-29,29c-16,0-29-13-29-29C34.2,52.9,47.2,39.9,63.2,39.9L63.2,39.9z
		 M63.2,39.9"/>
	<path class="st5" d="M63.2,39.9c16,0,29,13,29,29c0,16-13,29-29,29c-16,0-29-13-29-29C34.2,52.9,47.2,39.9,63.2,39.9L63.2,39.9z
		 M63.2,39.9"/>
	<path class="st6" d="M63.2,49.8c10.5,0,19.1,8.5,19.1,19c0,10.5-8.5,19-19.1,19c-10.5,0-19.1-8.5-19.1-19
		C44.1,58.4,52.7,49.8,63.2,49.8L63.2,49.8z M63.2,47.6c11.8,0,21.3,9.5,21.3,21.3S75,90.2,63.2,90.2c-11.8,0-21.3-9.5-21.3-21.3
		S51.4,47.6,63.2,47.6L63.2,47.6z M63.2,47.6"/>
	<path class="st7" d="M81.4,74.4c-0.4,1.2-0.8,2.4-1.4,3.5H46.4c-0.4-0.8-0.8-1.6-1.1-2.4l0.4,0.1c2.4-1.5,4.6-2.4,7.2-3.4
		c1,0.7,2,1,2.8,2.1c2.2-0.7,4.1-1.2,6.4-1.9c0.7-0.2,1.5-0.6,2.4-0.8c2.2,0.4,4.2,1.1,5.7,2c0.8-0.4,1.6-0.8,2.7-1.5
		C75.8,73.4,78.6,73.8,81.4,74.4L81.4,74.4z M81.4,74.4"/>
	<path class="st8" d="M80,77.8c-3.2,6-9.5,10.1-16.8,10.1c-7.3,0-13.6-4.1-16.8-10.1H80z M80,77.8"/>
	<path class="st4" d="M74.9,83.9c-0.7,0.5-1.4,1-2.1,1.4c-0.1-0.1-0.2-0.1-0.3-0.2c-0.4,0.4-1.3,0.8-2,0.8c-0.8,0-1.9-0.4-2.5-0.8
		c-0.5,0.4-1.5,0.8-2.3,0.8c-0.8,0-1.7-0.4-2.3-0.8c-0.5,0.3-1.7,0.8-2.6,0.8c-0.8,0-1.6-0.3-2.3-0.8c-0.7,0.4-1.5,0.8-2.2,0.8
		c-1,0-2.1-0.3-2.9-0.8c0,0-0.1,0-0.1,0.1c-0.6-0.4-1.3-0.8-1.8-1.3c0.6-0.1,1.2-0.4,1.9-0.7c0.9,0.4,1.8,0.8,2.7,0.8
		c0.8,0,1.7-0.4,2.4-0.8c0.8,0.4,1.6,0.8,2.4,0.8c0.8,0,1.6-0.3,2.4-0.8c0.7,0.5,1.6,0.8,2.4,0.8c0.7,0,1.5-0.4,2.1-0.8
		c0.7,0.4,1.7,0.8,2.6,0.8c0.7,0,1.4-0.2,2-0.8c0.6,0.4,1.5,0.8,2.3,0.8C74.7,83.9,74.8,83.9,74.9,83.9L74.9,83.9z M78.8,79.8
		c-0.4,0.6-0.9,1.2-1.4,1.8c-0.1-0.1-0.2-0.1-0.3-0.2c-0.6,0.6-1.6,0.9-2.3,0.9c-0.8,0-1.8-0.4-2.3-0.9c-0.4,0.4-1.3,0.9-2,0.9
		c-0.8,0-1.9-0.5-2.5-0.9c-0.5,0.4-1.5,0.9-2.3,0.9c-0.8,0-1.7-0.5-2.3-0.9c-0.5,0.4-1.7,0.9-2.6,0.9c-0.8,0-1.6-0.4-2.3-0.9
		c-0.7,0.5-1.5,0.9-2.2,0.9c-1,0-2.1-0.4-2.9-0.9c-0.7,0.5-1.5,0.9-2.3,0.9c-0.8,0-1.6-0.4-2.3-0.9c-0.5-0.5-0.9-1.1-1.3-1.7
		c0.5-0.1,0.9-0.3,1.3-0.5c0.9,0.5,1.5,0.9,2.3,0.9c0.8,0,1.5-0.4,2.3-0.9c0.9,0.5,1.8,0.9,2.7,0.9c0.8,0,1.7-0.4,2.4-0.9
		c0.8,0.5,1.6,0.9,2.4,0.9c0.8,0,1.6-0.3,2.4-0.9c0.7,0.5,1.6,0.9,2.4,0.9c0.7,0,1.5-0.4,2.1-0.9c0.7,0.4,1.7,0.9,2.6,0.9
		c0.7,0,1.4-0.3,2-0.9c0.6,0.5,1.5,0.9,2.3,0.9c0.8,0,1.7-0.4,2.3-0.9C77.3,79.5,78,79.7,78.8,79.8L78.8,79.8z M78.8,79.8"/>
	<path class="st9" d="M63.2,45c13.2,0,23.9,10.7,23.9,23.9c0,13.2-10.7,23.9-23.9,23.9c-13.2,0-23.9-10.7-23.9-23.9
		C39.3,55.7,50,45,63.2,45L63.2,45z M63.2,39.9c16,0,29,13,29,29c0,16-13,29-29,29c-16,0-29-13-29-29C34.2,52.9,47.2,39.9,63.2,39.9
		L63.2,39.9z M63.2,39.9"/>
	<path class="st10" d="M86.8,88.6c-0.1-1.2,0.1-2.5,0.7-3.6c0.8,0.6,1.5,2.5,1.4,2.7C88.5,88.7,87.4,88.1,86.8,88.6L86.8,88.6z
		 M78.8,79.4c-1.1-0.4-2.2-0.1-2.9,0.8c-0.5,0.6,0.2,1.2,0.9,1.7C77.6,81.1,78.2,80.3,78.8,79.4L78.8,79.4z M39.5,88.4
		c0.1-1.2-0.2-2.4-0.8-3.5c-0.8,0.6-1.4,2.3-1.3,2.5C37.9,88.4,38.9,87.8,39.5,88.4L39.5,88.4z M49.4,81.7c-0.7-0.8-1.3-1.5-1.9-2.4
		c1.1-0.4,2.1-0.1,2.8,0.7C50.8,80.6,50.1,81.2,49.4,81.7L49.4,81.7z M84.5,88.9c0.5,0.4,1.6,1.9,1.2,2.4c-0.6,0.7-2.6,0.4-3.7-0.1
		C82.8,90.6,83.7,89.7,84.5,88.9L84.5,88.9z M44.4,91.3c-1-0.8-1.9-1.7-2.6-2.4c-0.5,0.4-1.6,1.9-1.2,2.4
		C41.3,92,43.3,91.8,44.4,91.3L44.4,91.3z M44.4,91.3"/>
	<path class="st11" d="M86.8,88.6c-0.1-1.2,0.1-2.5,0.7-3.6c0.8,0.6,1.5,2.5,1.4,2.7C88.5,88.7,87.4,88.1,86.8,88.6L86.8,88.6z
		 M78.8,79.4c-1.1-0.4-2.2-0.1-2.9,0.8c-0.5,0.6,0.2,1.2,0.9,1.7C77.6,81.1,78.2,80.3,78.8,79.4L78.8,79.4z M39.5,88.4
		c0.1-1.2-0.2-2.4-0.8-3.5c-0.8,0.6-1.4,2.3-1.3,2.5C37.9,88.4,38.9,87.8,39.5,88.4L39.5,88.4z M49.4,81.7c-0.7-0.8-1.3-1.5-1.9-2.4
		c1.1-0.4,2.1-0.1,2.8,0.7C50.8,80.6,50.1,81.2,49.4,81.7L49.4,81.7z M84.5,88.9c0.5,0.4,1.6,1.9,1.2,2.4c-0.6,0.7-2.6,0.4-3.7-0.1
		C82.8,90.6,83.7,89.7,84.5,88.9L84.5,88.9z M44.4,91.3c-1-0.8-1.9-1.7-2.6-2.4c-0.5,0.4-1.6,1.9-1.2,2.4
		C41.3,92,43.3,91.8,44.4,91.3L44.4,91.3z M44.4,91.3"/>
	<path class="st12" d="M75.8,50.8c0.1,0.6,0.1,1.2,0.1,1.8C75.9,60,70,66,62.6,66c-7.3,0-13.3-6-13.3-13.3c0-0.6,0-1.2,0.1-1.8
		c1.7,5.6,7,9.7,13.2,9.7C68.8,60.5,74.1,56.5,75.8,50.8L75.8,50.8z M62.6,38c5.7,0,10.3,4.6,10.3,10.3c0,5.7-4.6,10.3-10.3,10.3
		c-5.7,0-10.3-4.6-10.3-10.3C52.3,42.6,56.9,38,62.6,38L62.6,38z M62.8,37.5c0.4-0.6,1.1-1.2,1.7-1.2c1.5-0.1,2.8-0.5,3.4-1.9
		c0.6-1.5-0.5-2.7-0.6-3.3c-0.1-0.4,0.1-0.8,0-1.2c-0.1-0.3-0.5-0.6-0.6-0.9c-0.1-0.4-0.2-0.8-0.2-1.2c-0.3,0.3-0.6,0.6-0.7,1
		c-0.1,0.5,0.4,1.1,0.3,1.7c-0.1,0.5-0.7,0.7-0.9,1.1c-0.1,0.2,0,0.5,0,0.8c0,0.2-0.2,0.4-0.4,0.4c-0.2,0-0.4-0.1-0.4-0.4
		c0-0.2,0-0.3,0-0.5c0-0.4,0.5-1,0.5-1.4c-0.1-0.9-1-1.1-1.2-1.9c-0.2-0.6,0.3-1.3,0.2-1.9c-0.1-0.4-0.4-0.8-0.6-1.2
		c-0.1-0.3-0.1-0.5,0-0.8c-0.7,0.3-1.2,1-1.4,1.7c-0.1,0.5,0.5,1.1,0.5,1.6c0,0.8-1.1,1.3-1.3,2.1c-0.2,0.8,0.6,1.8,0.6,2.3
		c0,0.3,0,0.6-0.3,0.6c-0.3,0-0.6-0.2-0.6-0.4c-0.1-0.3,0.1-0.7,0-0.9c-0.2-0.4-0.7-0.7-0.8-1.2c-0.1-0.5,0.2-1,0.2-1.5
		c0-0.5-0.3-0.9-0.7-1.2c0,0.3,0,0.7-0.1,1c-0.2,0.4-0.7,0.8-0.8,1.2c-0.1,0.4,0.3,0.7,0.1,1c-0.2,0.5-1,1.1-0.9,2.1
		c0.2,1.8,1.6,3,3.5,3.1C61.6,36.3,62.3,37.1,62.8,37.5L62.8,37.5z M62.8,37.5"/>
	<path class="st13" d="M46.7,75l4.2-1.9l1.8-0.7l-0.6,2.9L52,74.2l-2.5,1.3l0.6-1.1L46.7,75z M67.3,75.9l4.3-3l1.2-0.7l-0.4,2.9
		L72.3,74l-1.7,1.3l0.4-1.1L67.3,75.9z M55,74.6l7.3-2.2l1.9-0.8L63,75.6l0.2-2.2l-4,2.1l1.5-2L55,74.6z M55,74.6"/>
	<path class="st10" d="M94.4,84.2c-0.4-0.5-1.1-1-1.6-1.6c-1.3,1.9-2.5,3.8-3.9,5.5c-0.8,1-2,0.1-2.2,0.9c0.5,3.7,1.7,4.5,2.9,5.5
		C91.2,91.1,92.8,87.7,94.4,84.2L94.4,84.2z M93,81.9c-1.2,1.7-2.7,4-3.9,5.7c0.1-2.2-4.4-5.5-7.3-7c-1.8-0.9-4.2-2.3-5.9-0.6
		c1.3-2.6,2.6-5.1,3.8-7.6c1.2-0.3,3.8,0.7,6.1,1.5C89.9,75.5,94.8,79.1,93,81.9L93,81.9z M31.9,84.1c0.4-0.5,1.1-1.2,1.6-1.8
		c1.3,1.9,2.3,4,3.9,5.7c0.6,0.7,2-0.1,2.1,0.9c-0.5,3.7-1.7,4.5-2.9,5.5C35.2,90.9,33.6,87.5,31.9,84.1L31.9,84.1z M33.4,81.8
		c1.2,1.7,2.7,4,3.9,5.7c-0.1-2.2,4.4-5.5,7.3-7c1.8-0.9,4-2.3,5.7-0.5c-1.3-2.6-2.4-5.1-3.7-7.7c-1.2-0.3-3.8,0.7-6.1,1.5
		C36.5,75.4,31.6,79,33.4,81.8L33.4,81.8z M63.1,97.7c6,0,11.6,0.8,17.5,2.5c0.7-1.4,1.2-2.8,2-4.2c0.7-1.3,1.9-2.8,2.7-4.1
		c-0.8,0.4-2,0.3-2.8,0c-5.4-1.9-11.6-3.4-19.4-3.4c-7.7,0-13.9,1.6-19.2,3.4c-0.8,0.3-1.9,0.4-2.7,0c0.8,1.3,1.9,2.8,2.7,4.1
		c0.7,1.3,1.3,2.8,2,4.2C51.6,98.5,57.2,97.7,63.1,97.7L63.1,97.7z M63.1,97.7"/>
	<path class="st11" d="M94.4,84.2c-0.4-0.5-1.1-1-1.6-1.6c-1.3,1.9-2.5,3.8-3.9,5.5c-0.8,1-2,0.1-2.2,0.9c0.5,3.7,1.7,4.5,2.9,5.5
		C91.2,91.1,92.8,87.7,94.4,84.2L94.4,84.2z M93,81.9c-1.2,1.7-2.7,4-3.9,5.7c0.1-2.2-4.4-5.5-7.3-7c-1.8-0.9-4.2-2.3-5.9-0.6
		c1.3-2.6,2.6-5.1,3.8-7.6c1.2-0.3,3.8,0.7,6.1,1.5C89.9,75.5,94.8,79.1,93,81.9L93,81.9z M31.9,84.1c0.4-0.5,1.1-1.2,1.6-1.8
		c1.3,1.9,2.3,4,3.9,5.7c0.6,0.7,2-0.1,2.1,0.9c-0.5,3.7-1.7,4.5-2.9,5.5C35.2,90.9,33.6,87.5,31.9,84.1L31.9,84.1z M33.4,81.8
		c1.2,1.7,2.7,4,3.9,5.7c-0.1-2.2,4.4-5.5,7.3-7c1.8-0.9,4-2.3,5.7-0.5c-1.3-2.6-2.4-5.1-3.7-7.7c-1.2-0.3-3.8,0.7-6.1,1.5
		C36.5,75.4,31.6,79,33.4,81.8L33.4,81.8z M63.1,97.7c6,0,11.6,0.8,17.5,2.5c0.7-1.4,1.2-2.8,2-4.2c0.7-1.3,1.9-2.8,2.7-4.1
		c-0.8,0.4-2,0.3-2.8,0c-5.4-1.9-11.6-3.4-19.4-3.4c-7.7,0-13.9,1.6-19.2,3.4c-0.8,0.3-1.9,0.4-2.7,0c0.8,1.3,1.9,2.8,2.7,4.1
		c0.7,1.3,1.3,2.8,2,4.2C51.6,98.5,57.2,97.7,63.1,97.7L63.1,97.7z M63.1,97.7"/>
</g>
</svg>
