<?xml version="1.0" encoding="utf-8"?>
<!-- Generator: Adobe Illustrator 22.0.1, SVG Export Plug-In . SVG Version: 6.00 Build 0)  -->
<svg version="1.1" id="Слой_1" xmlns="http://www.w3.org/2000/svg" xmlns:xlink="http://www.w3.org/1999/xlink" x="0px" y="0px"
	 viewBox="0 0 127.3 127" style="enable-background:new 0 0 127.3 127;" xml:space="preserve">
<style type="text/css">
	.st0{fill:url(#SVGID_1_);}
	.st1{fill:#FFFFFF;}
	.st2{fill:#C42730;}
	.st3{fill:#183883;}
	.st4{fill:#0093DD;}
	.st5{fill:#D4AF38;}
	.st6{fill:url(#SVGID_2_);}
	.st7{fill:#CFCFCD;}
	.st8{fill:#666666;}
	.st9{fill:#C1C1C1;}
	.st10{fill:url(#SVGID_3_);}
	.st11{fill:url(#SVGID_4_);}
	.st12{fill:url(#SVGID_5_);}
	.st13{fill:url(#SVGID_6_);}
	.st14{fill:url(#SVGID_7_);}
	.st15{fill:url(#SVGID_8_);}
	.st16{fill:url(#SVGID_9_);}
	.st17{fill:url(#SVGID_10_);}
	.st18{fill:url(#SVGID_11_);}
	.st19{fill:#FFD700;}
	.st20{fill:url(#SVGID_12_);}
	.st21{fill:url(#SVGID_13_);}
</style>
<radialGradient id="SVGID_1_" cx="64.8" cy="682.747" r="62.6" gradientTransform="matrix(1 0 0 1 0 -618.347)" gradientUnits="userSpaceOnUse">
	<stop  offset="0.9487" style="stop-color:#212121"/>
	<stop  offset="1" style="stop-color:#606060;stop-opacity:0"/>
</radialGradient>
<circle class="st0" cx="64.8" cy="64.4" r="62.6"/>
<circle class="st1" cx="62.6" cy="62.6" r="62.6"/>
<g transform="translate(749.3941,305.7824)">
	<path class="st2" d="M-653.2-282.9h-64.9l32.4,37.5L-653.2-282.9z"/>
	<path class="st3" d="M-685-202.5c0.4-0.7,0.8-1.3,1.4-1.8c1.3-1.1,3.3-1.8,6-1.8h21.3c1.5,0,2.4-0.2,3-0.7c0.5-0.5,0.8-1.4,0.8-3.1
		v-72l-32.6,37.6V-202.5z"/>
	<path class="st4" d="M-718.9-281.8v72.1c0,1.7,0.3,2.6,0.8,3.1s1.5,0.7,3,0.7h21.3c2.8,0,4.7,0.6,6,1.8c0.6,0.5,1,1.1,1.4,1.7
		l0-41.7L-718.9-281.8z"/>
	<path class="st5" d="M-718.9-281.8l32.6,37.6l0,41.7c0.2,0.4,0.5,0.9,0.6,1.3c0.2-0.5,0.4-0.9,0.6-1.3v-41.7l32.6-37.6v-1.1h-0.8
		l-32.4,37.5l-32.4-37.5h-0.8V-281.8z"/>
	<path class="st1" d="M-718.9-283.8l-1,0.8l33.6,38.7l0,44.6h1.3v-44.6l33.6-38.8l-1-0.8l-33.2,38.4L-718.9-283.8L-718.9-283.8z"/>
	<path class="st5" d="M-719.9-283.9v74.1c0,1.8,0.3,3.1,1.1,3.8c0.8,0.8,2,0.9,3.6,0.9h21.3c2.6,0,4.3,0.6,5.4,1.5s1.8,2.3,2.2,4
		l0.5,1.7l0.5-1.7c0.5-1.7,1.1-3.1,2.2-4c1.1-1,2.8-1.5,5.4-1.5h21.3c1.6,0,2.8-0.2,3.6-0.9s1.1-2,1.1-3.8v-74.1H-719.9z
		 M-718.9-282.9h66.5v73.1c0,1.7-0.3,2.6-0.8,3.1c-0.5,0.5-1.5,0.7-3,0.7h-21.3c-2.8,0-4.7,0.6-6,1.8c-1,0.8-1.6,1.9-2.1,3.1
		c-0.5-1.2-1.1-2.3-2.1-3.1c-1.3-1.1-3.3-1.8-6-1.8h-21.3c-1.5,0-2.4-0.2-3-0.7s-0.8-1.4-0.8-3.1V-282.9z"/>
	<path class="st1" d="M-694.1-233.3l-0.1,0.2l-0.4,3.5l-3,1.3h2.9l-0.2,1.8l-3.2,1.2l3,0l-0.2,1.8l-3.5,1.1h3.4l-0.6,5.3l-0.8,3.1
		h0.5l2.2-1.6l2.1,1.6h0.5l-0.8-3.1l-0.6-5.3l3.4,0l-3.5-1.1l-0.2-1.8l3,0l-3.2-1.2l-0.2-1.8h2.9l-3-1.3l-0.4-3.5L-694.1-233.3z
		 M-694.1-231.8l0.1,1h-0.2L-694.1-231.8z M-694.2-230.5h0.3l0.1,0.8h-0.4L-694.2-230.5z M-694.1-229.6l0.2,0.1l0.1,0.9h-0.7
		l0.1-0.9L-694.1-229.6z M-694.6-229.4l-0.1,0.9h-2.1L-694.6-229.4z M-693.6-229.4l2.2,0.9h-2.2L-693.6-229.4z M-694.3-228.3h0.5
		l-0.2,0.4L-694.3-228.3z M-694.5-228l0.2,0.4l-0.3,0.5L-694.5-228z M-693.7-228l0.1,0.9l-0.3-0.5L-693.7-228z M-694.1-227.4
		l0.4,0.6l-0.4-0.1l-0.4,0.1L-694.1-227.4z M-694.1-226.5l0.6,0.1l0.1,0.9h-1.3l0.1-0.9L-694.1-226.5z M-695-226.3l-0.1,0.8h-2.2
		L-695-226.3z M-693.2-226.3l2.3,0.8h-2.2L-693.2-226.3z M-694.7-225.4h1.1l-0.6,0.6L-694.7-225.4z M-694.8-225.1l0.5,0.5l-0.6,0.7
		L-694.8-225.1z M-693.4-225.1l0.1,0.6l0.1,0.7l-0.6-0.7L-693.4-225.1z M-694.1-224.3l0.6,0.7l-0.6-0.1l-0.6,0.1L-694.1-224.3z
		 M-694.1-223.6l0.9,0.3l0.1,0.9h-1.9l0.1-0.9L-694.1-223.6z M-695.3-223.3l-0.1,0.8h-2.5L-695.3-223.3z M-692.9-223.3l2.6,0.8h-2.5
		L-692.9-223.3z M-695.1-222.4h2l0.1,0.9l-1.1,1.2l-1.1-1.2L-695.1-222.4z M-695.2-221.1l0.9,1l-1.2,1.3L-695.2-221.1z M-693-221.1
		l0.2,2.3l-1.2-1.3L-693-221.1z M-694.1-219.8l1.4,1.6l0.1,1.2h-3.1l0.1-1.1L-694.1-219.8z M-695.4-216.8h2.5l-1.3,0.9L-695.4-216.8
		z M-695.7-216.7l1.4,1l-2,1.5L-695.7-216.7z M-692.5-216.7l0.7,2.6l-2-1.5L-692.5-216.7z"/>
	
		<linearGradient id="SVGID_2_" gradientUnits="userSpaceOnUse" x1="-944.7515" y1="-109.5854" x2="-933.5118" y2="-126.911" gradientTransform="matrix(1.3268 0 0 -1.3268 541.1361 -382.7043)">
		<stop  offset="0" style="stop-color:#C0C0C0"/>
		<stop  offset="0.5" style="stop-color:#F7F7F7"/>
		<stop  offset="1" style="stop-color:#C0C0C0"/>
	</linearGradient>
	<path class="st6" d="M-714.5-235.9v5.2l12,17.8h2.9v-1.3h-1.4l-9.5-14l2.2,0.8l8.6,13.2l0.8,1.3h1.7v-1.1h-0.9l-8.3-12.6l2.7,1
		l7.7,12.7h1.5v-1h-0.7l-7.2-11.3l1.6,0.6l7.1,11.7h1v-0.9h-0.9l-6.5-11.2v-3L-714.5-235.9L-714.5-235.9z"/>
	<path class="st7" d="M-700.7-224.6v-3.3l-1.8-1v3.6L-700.7-224.6z M-706.4-230.9v4.2l2.9,1.1v-3.7L-706.4-230.9z M-711.7-233.7v5
		l3.5,1.3v-4.5L-711.7-233.7z"/>
	<path class="st8" d="M-712.4-234.8v0.7l-0.2-0.1h-0.5v3.5l11.5,16.5h0.7l-10.8-15.9v-2.8l0.8,0.4v-0.8l3.3,1.8v3.2l9.3,14.3l0.3,0
		l-8.3-12.6l0.9,0.3l-1.2-1.5v-2.3l0.2,0.1v-0.8l3.1,1.6v3.7l7.6,11.6h0.4l-7.2-11.3l0.8,0.3l-1-1.4v-1.8h0.2v-0.7l1.9,1v2.5
		l6.7,11.5h0.2l-6.5-11.2v-3L-712.4-234.8z"/>
	<path class="st9" d="M-714.5-230.7v17.8h12L-714.5-230.7z"/>
	
		<linearGradient id="SVGID_3_" gradientUnits="userSpaceOnUse" x1="-944.2014" y1="-106.7703" x2="-931.0183" y2="-99.9721" gradientTransform="matrix(1.3268 0 0 -1.3268 541.1361 -382.7043)">
		<stop  offset="0" style="stop-color:#C0C0C0"/>
		<stop  offset="0.5" style="stop-color:#F7F7F7"/>
		<stop  offset="1" style="stop-color:#C0C0C0"/>
	</linearGradient>
	<path class="st10" d="M-706.1-246.2l1.4-0.7h2l5.8-3.4c0,0,2.3-0.8,2.8,0c0.3,0.5-0.8,1.7-0.8,1.7l-6.3,3.6l-2.9,5l-2.5,1.4
		l1.5-4.1l-3.5,1.9c0,0-0.9,0.5-1.5,0.4c-1.4-0.2-2.1-1.9-3.7-3c0,0-0.7,0.8-1.3,1.1c0,0,0-1.1,0.6-1.5l-1-0.4c0,0,0.8-0.8,2.1-0.6
		c1.3,0.2,3,2.2,4.8,1.2l3.7-2.1C-705.5-245.6-705.8-246-706.1-246.2L-706.1-246.2z"/>
	
		<linearGradient id="SVGID_4_" gradientUnits="userSpaceOnUse" x1="-917.2056" y1="-98.4823" x2="-905.0167" y2="-106.7695" gradientTransform="matrix(1.3268 0 0 -1.3268 541.1361 -382.7043)">
		<stop  offset="0" style="stop-color:#D4AF38"/>
		<stop  offset="0.5" style="stop-color:#FFD90D"/>
		<stop  offset="1" style="stop-color:#D4AF38"/>
	</linearGradient>
	<path class="st11" d="M-674.8-251.7c3.6,0.5,4.4,1.4,6.6,2.4c1-0.1,2.3,0,3,0.4c-0.1,0.5-0.1,1.1-0.7,1.4c1.1,1.1,2.2,2.1,3.3,3.2
		c0.2,0.2-0.2,0.3-0.5,0.4c0.6,0.4,1.3,0.8,1.7,1.3c2.7,0.2,3.5,1,3.5,1c-1.3,0.2-2.8,1.2-3,3.1c-0.4-0.2-1.2-1.4-2.3-3.5
		c-0.4,0.1-0.7,0.3-1.1,0c-1-0.8-2.2-1.6-3.4-2.2c0,0-0.3,0.6-0.4,1.2c-0.1,0.7-0.8-0.6-1-1.7c-5.7-2.7-7-5.1-7.2-6.2
		C-676.5-251.8-675.4-251.8-674.8-251.7z"/>
	<path d="M-676.3-251.5c0,0-0.1,0.1-0.1,0.1c0,0,0,0,0,0.1c0.4,0.2,0.7,0.6,0.8,1.2c0,0,0,0.1,0.1,0.1c0,0,0.1,0,0.1-0.1
		c0,0,0,0,0,0C-675.4-250.8-675.7-251.3-676.3-251.5C-676.2-251.5-676.2-251.5-676.3-251.5L-676.3-251.5z"/>
	<path d="M-674.4-251.3c-0.1,0-0.2,0.1-0.2,0.2c0,0.1,0.1,0.2,0.2,0.2s0.2-0.1,0.2-0.2C-674.2-251.2-674.3-251.3-674.4-251.3z"/>
	
		<linearGradient id="SVGID_5_" gradientUnits="userSpaceOnUse" x1="-2993.3569" y1="371.7934" x2="-2992.3059" y2="371.7934" gradientTransform="matrix(-0.9271 -0.9492 0.9492 -0.9271 -3814.0234 -2762.5908)">
		<stop  offset="0" style="stop-color:#C0C0C0"/>
		<stop  offset="0.5" style="stop-color:#F7F7F7"/>
		<stop  offset="1" style="stop-color:#C0C0C0"/>
	</linearGradient>
	<polygon class="st12" points="-678.5,-273.5 -679.4,-274.4 -694.4,-259.7 -693.5,-258.8 	"/>
	
		<linearGradient id="SVGID_6_" gradientUnits="userSpaceOnUse" x1="-1602.2031" y1="-1052.8872" x2="-1601.1521" y2="-1052.8872" gradientTransform="matrix(0.9271 -0.9492 -0.9492 -0.9271 -198.8441 -2762.5947)">
		<stop  offset="0" style="stop-color:#C0C0C0"/>
		<stop  offset="0.5" style="stop-color:#F7F7F7"/>
		<stop  offset="1" style="stop-color:#C0C0C0"/>
	</linearGradient>
	<polygon class="st13" points="-692.1,-272.8 -691.2,-273.7 -676.8,-259.6 -677.7,-258.7 	"/>
	
		<linearGradient id="SVGID_7_" gradientUnits="userSpaceOnUse" x1="-645.2354" y1="-606.4688" x2="-640.987" y2="-611.2191" gradientTransform="matrix(1.3268 0 0 -1.3268 175.368 -1082.5986)">
		<stop  offset="0" style="stop-color:#D4AF38"/>
		<stop  offset="0.5" style="stop-color:#FFD90D"/>
		<stop  offset="1" style="stop-color:#D4AF38"/>
	</linearGradient>
	<path class="st14" d="M-681.8-276.9l5.6,5.7c0.3,0.1,0.7,0.1,0.9-0.3l-0.5-3.3l-4-4.1L-681.8-276.9z"/>
	
		<linearGradient id="SVGID_8_" gradientUnits="userSpaceOnUse" x1="-652.0345" y1="-612.7351" x2="-645.8457" y2="-612.7351" gradientTransform="matrix(1.3268 0 0 -1.3268 175.368 -1082.5986)">
		<stop  offset="0" style="stop-color:#C0C0C0"/>
		<stop  offset="0.5" style="stop-color:#F7F7F7"/>
		<stop  offset="1" style="stop-color:#C0C0C0"/>
	</linearGradient>
	<path class="st15" d="M-689.2-271h7.2l1,2.8h-9.2L-689.2-271z"/>
	
		<linearGradient id="SVGID_9_" gradientUnits="userSpaceOnUse" x1="-658.6942" y1="-613.1833" x2="-650.0677" y2="-605.2312" gradientTransform="matrix(1.3268 0 0 -1.3268 175.368 -1082.5986)">
		<stop  offset="0" style="stop-color:#D4AF38"/>
		<stop  offset="0.5" style="stop-color:#FFD90D"/>
		<stop  offset="1" style="stop-color:#D4AF38"/>
	</linearGradient>
	<path class="st16" d="M-691.6-274.9c0.1,0.5,0.5,1.1,0.5,1.1l-0.9,0.9c0,0-0.4-0.2-1.6-0.7c-1.4-0.5-3.6,5.2-4.1,5.3
		c-0.3-0.9,1.7-5.5,3.7-7.3c2.1-1.9,5.5-3.8,7.8-3.2C-688.1-277.4-691.7-275.6-691.6-274.9L-691.6-274.9z"/>
	
		<linearGradient id="SVGID_10_" gradientUnits="userSpaceOnUse" x1="-647.5129" y1="-615.0344" x2="-640.4752" y2="-615.0344" gradientTransform="matrix(1.3268 0 0 -1.3268 173.668 -1082.5986)">
		<stop  offset="0" style="stop-color:#D4AF38"/>
		<stop  offset="0.5" style="stop-color:#FFD90D"/>
		<stop  offset="1" style="stop-color:#D4AF38"/>
	</linearGradient>
	<path class="st17" d="M-684.4-268h7.2l1,2.8h-9.2L-684.4-268z"/>
	
		<linearGradient id="SVGID_11_" gradientUnits="userSpaceOnUse" x1="-654.843" y1="-615.017" x2="-647.8052" y2="-615.017" gradientTransform="matrix(1.3268 0 0 -1.3268 173.668 -1082.5986)">
		<stop  offset="0" style="stop-color:#D4AF38"/>
		<stop  offset="0.5" style="stop-color:#FFD90D"/>
		<stop  offset="1" style="stop-color:#D4AF38"/>
	</linearGradient>
	<path class="st18" d="M-694.1-268h7.2l1,2.8h-9.2L-694.1-268z"/>
	<path class="st5" d="M-689-249.5l2.4,3.4h1L-689-249.5L-689-249.5L-689-249.5z M-685.7-246.1l3.3-3.4l-3.3,2.4V-246.1z
		 M-685.7-246.1l3.4,3.4l-2.4-3.4H-685.7L-685.7-246.1z M-685.7-246.1l-3.4,3.4l3.4-2.4L-685.7-246.1L-685.7-246.1z"/>
	<path class="st19" d="M-689-242.8l3.4-3.4l-1,0L-689-242.8z M-682.3-242.8l-3.4-3.4l0,1L-682.3-242.8z M-682.3-249.5l-3.4,3.4l1,0
		L-682.3-249.5z M-689-249.5l3.4,3.4l0-1L-689-249.5z"/>
	<path class="st5" d="M-685.7-252.8l-0.9,5.7l0.9,0.9V-252.8L-685.7-252.8z M-685.7-246.1h6.7l-5.7-0.9L-685.7-246.1L-685.7-246.1z
		 M-685.7-246.1v6.7l0.9-5.7C-684.7-245.2-685.7-246.1-685.7-246.1z M-685.7-246.1h-6.7l5.7,0.9L-685.7-246.1L-685.7-246.1z"/>
	<path class="st19" d="M-692.3-246.1h6.7l-0.9-0.9L-692.3-246.1z M-685.7-239.4v-6.7l-0.9,0.9L-685.7-239.4z M-679-246.1h-6.7
		l0.9,0.9L-679-246.1z M-685.7-252.8v6.7l0.9-0.9L-685.7-252.8z"/>
	
		<linearGradient id="SVGID_12_" gradientUnits="userSpaceOnUse" x1="-917.2056" y1="-35.0443" x2="-905.0167" y2="-43.3314" gradientTransform="matrix(1.3268 0 0 -1.3268 541.1361 -284.5982)">
		<stop  offset="0" style="stop-color:#D4AF38"/>
		<stop  offset="0.5" style="stop-color:#FFD90D"/>
		<stop  offset="1" style="stop-color:#D4AF38"/>
	</linearGradient>
	<path class="st20" d="M-674.8-237.8c3.6,0.5,4.4,1.4,6.6,2.4c1-0.1,2.3,0,3,0.4c-0.1,0.5-0.1,1.1-0.7,1.4c1.1,1.1,2.2,2.1,3.3,3.2
		c0.2,0.2-0.2,0.3-0.5,0.4c0.6,0.4,1.3,0.8,1.7,1.3c2.7,0.2,3.5,1,3.5,1c-1.3,0.2-2.8,1.2-3,3.1c-0.4-0.2-1.2-1.4-2.3-3.5
		c-0.4,0.1-0.7,0.3-1.1,0c-1-0.8-2.2-1.6-3.4-2.2c0,0-0.3,0.6-0.4,1.2c-0.1,0.7-0.8-0.6-1-1.7c-5.7-2.7-7-5.1-7.2-6.2
		C-676.5-237.9-675.4-237.9-674.8-237.8z"/>
	<path d="M-676.3-237.6c0,0-0.1,0.1-0.1,0.1c0,0,0,0,0,0.1c0.4,0.2,0.7,0.6,0.8,1.2c0,0,0,0.1,0.1,0.1c0,0,0.1,0,0.1-0.1
		c0,0,0,0,0,0C-675.4-236.9-675.7-237.3-676.3-237.6C-676.2-237.6-676.2-237.6-676.3-237.6L-676.3-237.6z"/>
	<path d="M-674.4-237.4c-0.1,0-0.2,0.1-0.2,0.2c0,0.1,0.1,0.2,0.2,0.2s0.2-0.1,0.2-0.2C-674.2-237.3-674.3-237.4-674.4-237.4z"/>
	
		<linearGradient id="SVGID_13_" gradientUnits="userSpaceOnUse" x1="-917.2056" y1="28.3938" x2="-905.0167" y2="20.1066" gradientTransform="matrix(1.3268 0 0 -1.3268 541.1361 -186.492)">
		<stop  offset="0" style="stop-color:#D4AF38"/>
		<stop  offset="0.5" style="stop-color:#FFD90D"/>
		<stop  offset="1" style="stop-color:#D4AF38"/>
	</linearGradient>
	<path class="st21" d="M-674.8-223.9c3.6,0.5,4.4,1.4,6.6,2.4c1-0.1,2.3,0,3,0.4c-0.1,0.5-0.1,1.1-0.7,1.4c1.1,1.1,2.2,2.1,3.3,3.2
		c0.2,0.2-0.2,0.3-0.5,0.4c0.6,0.4,1.3,0.8,1.7,1.3c2.7,0.2,3.5,1,3.5,1c-1.3,0.2-2.8,1.2-3,3.1c-0.4-0.2-1.2-1.4-2.3-3.5
		c-0.4,0.1-0.7,0.3-1.1,0c-1-0.8-2.2-1.6-3.4-2.2c0,0-0.3,0.6-0.4,1.2c-0.1,0.7-0.8-0.6-1-1.7c-5.7-2.7-7-5.1-7.2-6.2
		C-676.5-224-675.4-223.9-674.8-223.9L-674.8-223.9z"/>
	<path d="M-676.3-223.6c0,0-0.1,0.1-0.1,0.1c0,0,0,0,0,0.1c0.4,0.2,0.7,0.6,0.8,1.2c0,0,0,0.1,0.1,0.1c0,0,0.1,0,0.1-0.1
		c0,0,0,0,0,0C-675.4-222.9-675.7-223.4-676.3-223.6C-676.2-223.6-676.2-223.6-676.3-223.6L-676.3-223.6z"/>
	<path d="M-674.4-223.5c-0.1,0-0.2,0.1-0.2,0.2c0,0.1,0.1,0.2,0.2,0.2s0.2-0.1,0.2-0.2C-674.2-223.3-674.3-223.5-674.4-223.5z"/>
</g>
</svg>
