<?xml version="1.0" encoding="utf-8"?>
<!-- Generator: Adobe Illustrator 22.0.1, SVG Export Plug-In . SVG Version: 6.00 Build 0)  -->
<svg version="1.1" id="Слой_1" xmlns="http://www.w3.org/2000/svg" xmlns:xlink="http://www.w3.org/1999/xlink" x="0px" y="0px"
	 viewBox="0 0 127.3 127" style="enable-background:new 0 0 127.3 127;" xml:space="preserve">
<style type="text/css">
	.st0{fill:url(#SVGID_1_);}
	.st1{fill:#FFFFFF;}
	.st2{fill-rule:evenodd;clip-rule:evenodd;fill:#00923F;}
	.st3{fill:#71625B;}
	.st4{fill-rule:evenodd;clip-rule:evenodd;fill:#28166F;}
	.st5{fill-rule:evenodd;clip-rule:evenodd;fill:#71625B;}
	.st6{fill-rule:evenodd;clip-rule:evenodd;fill:#FFF500;}
	.st7{fill-rule:evenodd;clip-rule:evenodd;fill:#E77817;}
</style>
<radialGradient id="SVGID_1_" cx="64.8" cy="682.747" r="62.6" gradientTransform="matrix(1 0 0 1 0 -618.347)" gradientUnits="userSpaceOnUse">
	<stop  offset="0.9487" style="stop-color:#212121"/>
	<stop  offset="1" style="stop-color:#606060;stop-opacity:0"/>
</radialGradient>
<circle class="st0" cx="64.8" cy="64.4" r="62.6"/>
<circle class="st1" cx="62.6" cy="62.6" r="62.6"/>
<g>
	<path class="st2" d="M28.3,87.5c0,3.8,6,10.9,10.5,10.9H52c5.9,0,10.4,5.2,10.4,9.6c0.8,0,0.8,0,1.7,0c0-4.4,2.8-9.6,10.4-9.6h13
		c4.7,0,10.6-7.1,10.6-10.9c0-21.7,0-43.3,0-65l-69.8,0L28.3,87.5z M28.3,87.5"/>
	<path class="st3" d="M38.8,98.1v0.7l-0.5,0l-0.5-0.1l-0.5-0.1L37,98.4l-0.5-0.2L36.1,98l-0.5-0.2l-0.5-0.3l-0.5-0.3l-0.5-0.3
		l-0.4-0.3l-0.4-0.4l-0.4-0.4l-0.4-0.4L32.1,95l-0.4-0.4l-0.4-0.4l-0.4-0.4l-0.4-0.5l-0.3-0.5l-0.3-0.5l-0.3-0.5l-0.3-0.5L29.1,91
		l-0.2-0.5l-0.2-0.5l-0.2-0.5l-0.1-0.4l-0.1-0.4l-0.1-0.4L28,87.9l0-0.4h0.7l0,0.3l0,0.4l0.1,0.4l0.1,0.4l0.1,0.4l0.2,0.4l0.2,0.4
		l0.2,0.4l0.2,0.4l0.3,0.4l0.3,0.4l0.3,0.4l0.3,0.4l0.3,0.4l0.4,0.4l0.4,0.4l0.4,0.4l0.4,0.4l0.4,0.4l0.4,0.4l0.4,0.3l0.4,0.3
		l0.4,0.3l0.4,0.3l0.4,0.3l0.4,0.2l0.4,0.2l0.4,0.2l0.4,0.1L38,98l0.4,0.1L38.8,98.1z M38.8,98.1L38.8,98.1z M52,98.7H38.8v-0.7H52
		V98.7z M52,98.7L52,98.7z M62.4,107.7v0.7l-0.3-0.3l0-0.4l0-0.4l-0.1-0.4l-0.1-0.4l-0.1-0.4l-0.1-0.4l-0.2-0.4l-0.2-0.4l-0.2-0.4
		l-0.2-0.4l-0.2-0.4l-0.3-0.4l-0.3-0.4l-0.3-0.4l-0.3-0.4l-0.3-0.3l-0.3-0.3l-0.4-0.3l-0.4-0.3l-0.4-0.3l-0.4-0.3l-0.4-0.3l-0.4-0.2
		L56,99.6l-0.5-0.2l-0.5-0.2l-0.5-0.1L54.1,99l-0.5-0.1l-0.5-0.1l-0.5,0l-0.5,0v-0.7l0.6,0l0.6,0l0.6,0.1l0.5,0.1l0.5,0.1l0.5,0.2
		l0.5,0.2l0.5,0.2l0.5,0.2l0.5,0.2l0.4,0.3l0.4,0.3l0.4,0.3l0.4,0.3l0.4,0.3l0.4,0.4l0.3,0.4l0.3,0.4l0.3,0.4l0.3,0.4l0.3,0.4
		l0.3,0.4l0.2,0.4l0.2,0.4l0.2,0.4l0.2,0.4l0.1,0.4l0.1,0.4l0.1,0.4l0.1,0.4l0,0.4l0,0.4L62.4,107.7z M62.4,108.4h-0.3V108
		L62.4,108.4z M63.8,108h0.7l-0.3,0.3l-0.1,0l-0.1,0h-0.1l-0.1,0l-0.1,0h-0.1l-0.1,0h0l0,0h-0.1l0,0h-0.3l0,0h0l0,0h-0.1l-0.1,0
		l-0.1,0h-0.1l-0.1,0h-0.1l-0.1,0l-0.1,0v-0.7l0.1,0l0.1,0h0.1l0.1,0h0.1l0.1,0l0.1,0H63l0,0h0l0,0h0.3l0,0h0.1l0,0h0l0.1,0h0.1
		l0.1,0l0.1,0H64l0.1,0l0.1,0L63.8,108z M64.4,108v0.3h-0.3L64.4,108z M74.5,98.1v0.7l-0.7,0l-0.7,0l-0.6,0.1L72,99l-0.6,0.1
		l-0.5,0.1l-0.5,0.2l-0.5,0.2l-0.5,0.2l-0.4,0.2l-0.4,0.2l-0.4,0.3l-0.4,0.3l-0.4,0.3l-0.3,0.3l-0.3,0.3l-0.3,0.3l-0.3,0.4l-0.2,0.4
		l-0.2,0.4l-0.2,0.4l-0.2,0.4l-0.2,0.4l-0.1,0.4l-0.1,0.4l-0.1,0.4l-0.1,0.4l-0.1,0.4l-0.1,0.4l0,0.4l0,0.4l0,0.4h-0.7l0-0.4l0-0.4
		l0-0.4l0.1-0.4l0.1-0.4l0.1-0.4l0.1-0.4l0.1-0.4l0.2-0.4l0.2-0.4l0.2-0.4l0.2-0.4l0.2-0.4l0.3-0.4l0.3-0.4l0.3-0.4l0.3-0.4l0.4-0.3
		l0.4-0.3l0.4-0.3l0.4-0.3l0.5-0.3l0.5-0.2l0.5-0.2l0.5-0.2l0.6-0.2l0.6-0.2l0.6-0.1l0.6-0.1l0.7-0.1l0.7,0L74.5,98.1z M74.5,98.1
		L74.5,98.1z M87.5,98.7h-13v-0.7h13V98.7z M87.5,98.7L87.5,98.7z M97.8,87.5h0.7l0,0.4l-0.1,0.4l-0.1,0.4l-0.1,0.4L98,89.6
		l-0.2,0.4l-0.2,0.5L97.4,91l-0.3,0.5l-0.3,0.5l-0.3,0.5l-0.3,0.5l-0.3,0.5l-0.4,0.5l-0.4,0.4l-0.4,0.4L94.4,95L94,95.4l-0.4,0.4
		l-0.4,0.4l-0.4,0.4l-0.5,0.3l-0.5,0.3l-0.5,0.3l-0.5,0.3L90.4,98l-0.5,0.2l-0.5,0.2l-0.5,0.1l-0.5,0.1L88,98.7l-0.5,0v-0.7l0.4,0
		l0.4-0.1l0.4-0.1l0.4-0.1l0.4-0.2l0.4-0.2l0.4-0.2l0.4-0.2l0.4-0.3l0.4-0.3l0.4-0.3l0.4-0.3l0.4-0.4l0.4-0.4l0.4-0.4l0.4-0.4
		l0.4-0.4l0.4-0.4l0.3-0.4l0.3-0.4L96,92l0.3-0.4l0.3-0.4l0.2-0.4l0.2-0.4l0.2-0.4l0.2-0.4l0.1-0.4l0.1-0.4l0.1-0.4l0-0.4L97.8,87.5
		z M98.4,87.5L98.4,87.5z M98.1,22.9v-0.7l0.3,0.3v6.1l0,2l0,2v2l0,2v2l0,2l0,2v2l0,2l0,2v2l0,2V57l0,2v2l0,2v6.1l0,2v2l0,2v2l0,2v2
		l0,2v4.1h-0.7v-4.1l0-2v-2l0-2v-2l0-2v-2l0-2v-6.1l0-2v-2l0-2V53l0-2v-2l0-2l0-2v-2l0-2l0-2v-2l0-2v-2l0-2l0-2v-6.1L98.1,22.9z
		 M98.1,22.2h0.3v0.3L98.1,22.2z M28,22.5l0.3-0.3l69.8,0v0.7l-69.8,0L28,22.5z M28,22.5v-0.3h0.3L28,22.5z M28.7,87.5H28v-65h0.7
		L28.7,87.5L28.7,87.5z M28.7,87.5"/>
	<path class="st4" d="M90,97.8c3.3-1.2,8.2-6.8,8.2-10.6l0-2.6L73.3,58.2l24.8-26.5v-9.2H86.6L63.2,47.4L39.8,22.5H28.3v9.2
		l24.6,26.5L28.3,84.6v2.8c0,3.8,5,8.9,8.1,10.4l26.8-28.7L90,97.8z M90,97.8"/>
	<path class="st3" d="M97.8,87.2h0.7l0,0.4l0,0.4l-0.1,0.4l-0.1,0.4l-0.1,0.4L98,89.6L97.8,90l-0.2,0.4l-0.2,0.4l-0.2,0.4l-0.2,0.4
		l-0.3,0.4l-0.3,0.4l-0.3,0.4l-0.3,0.4l-0.3,0.4l-0.3,0.4l-0.3,0.4l-0.3,0.4l-0.3,0.4l-0.3,0.3l-0.3,0.3l-0.3,0.3l-0.4,0.3l-0.4,0.3
		L92.1,97l-0.4,0.2l-0.4,0.2l-0.3,0.2l-0.3,0.2L90.4,98l-0.3,0.1l-0.2-0.6l0.3-0.1l0.3-0.1l0.3-0.2l0.3-0.2l0.3-0.2l0.3-0.2l0.3-0.3
		l0.3-0.3l0.3-0.3l0.3-0.3l0.3-0.3l0.3-0.3l0.3-0.3l0.3-0.4l0.3-0.4l0.3-0.4l0.3-0.4l0.3-0.4l0.3-0.4l0.3-0.4l0.2-0.4l0.2-0.4
		l0.2-0.4l0.2-0.4l0.2-0.4l0.2-0.4l0.1-0.4l0.1-0.4l0.1-0.4l0.1-0.4l0-0.3L97.8,87.2z M98.4,87.2L98.4,87.2z M98.4,84.4l0.1,0.2v2.6
		h-0.7v-2.6L98.4,84.4z M98.4,84.4L98.4,84.4l0.1,0.2L98.4,84.4z M73.1,58h0.5l24.8,26.4l-0.5,0.5L73.1,58.5V58z M73.1,58.5
		l-0.2-0.2l0.2-0.2V58.5z M98.4,31.7L98.4,32L73.5,58.5L73.1,58l24.8-26.5L98.4,31.7z M98.4,31.7v0.1L98.4,32L98.4,31.7z M98.1,22.2
		l0.3,0.3v9.2h-0.7v-9.2L98.1,22.2z M98.1,22.2h0.3v0.3L98.1,22.2z M86.4,22.3l0.2-0.1h11.5v0.7H86.6L86.4,22.3z M86.4,22.3l0.1-0.1
		h0.1L86.4,22.3z M63,47.7v-0.5l23.4-24.9l0.5,0.5L63.4,47.7H63z M63.4,47.7l-0.2,0.3L63,47.7H63.4z M39.8,22.2l0.2,0.1l23.4,24.9
		L63,47.7L39.5,22.7L39.8,22.2z M39.8,22.2h0.1l0.1,0.1L39.8,22.2z M28,22.5l0.3-0.3h11.4v0.7H28.3L28,22.5z M28,22.5v-0.3h0.3
		L28,22.5z M28.1,32L28,31.7v-9.2h0.7v9.2L28.1,32z M28.1,32L28.1,32L28,31.7L28.1,32z M53.1,58.5h-0.5L28.1,32l0.5-0.5L53.1,58
		V58.5z M53.1,58l0.2,0.2l-0.2,0.2V58z M28,84.6l0.1-0.2L52.7,58l0.5,0.5L28.6,84.8L28,84.6z M28,84.6v-0.1l0.1-0.1L28,84.6z
		 M28.7,87.4H28l0-2.8h0.7V87.4z M28.7,87.4L28.7,87.4z M36.2,97.6l0.5,0.5l-0.4,0.1L36,98l-0.3-0.2l-0.3-0.2L35,97.4l-0.3-0.2
		l-0.3-0.2L34,96.7l-0.3-0.3l-0.3-0.3l-0.3-0.3l-0.3-0.3l-0.3-0.3l-0.3-0.3l-0.3-0.3l-0.3-0.4L31,93.7l-0.3-0.4L30.4,93l-0.3-0.4
		l-0.3-0.4l-0.3-0.4l-0.2-0.4L29.1,91l-0.2-0.4l-0.2-0.4l-0.2-0.4l-0.1-0.4L28.2,89l-0.1-0.4l-0.1-0.4l0-0.4l0-0.4h0.7l0,0.3l0,0.3
		l0.1,0.4l0.1,0.4l0.1,0.4l0.1,0.4l0.2,0.4l0.2,0.4l0.2,0.4l0.2,0.4l0.2,0.4l0.2,0.4l0.3,0.4l0.3,0.4l0.3,0.4l0.3,0.4l0.3,0.4
		l0.3,0.3l0.3,0.3l0.3,0.3l0.3,0.3l0.3,0.3l0.3,0.3l0.3,0.3l0.3,0.3l0.3,0.3l0.3,0.2l0.3,0.2l0.3,0.2l0.3,0.2l0.3,0.2l0.3,0.1
		L36.2,97.6z M36.7,98.1l-0.2,0.2l-0.2-0.1L36.7,98.1z M63.4,69v0.5L36.7,98.1l-0.5-0.5L63,69H63.4z M63,69l0.2-0.3l0.2,0.3H63z
		 M90.1,98.1l-0.4-0.1L63,69.4l0.5-0.5l26.8,28.7L90.1,98.1z M90.1,98.1l-0.2,0.1l-0.2-0.2L90.1,98.1z M90.1,98.1"/>
	<path class="st5" d="M46.8,57.2c0.4,0.4,0.9,0.9,1.1,1.4c-0.1,0.1,0,0.1,0.1,0.2c1.2,0.2,2.2,1,3,1.8c1.2,0,2.5-0.2,3.4,0.6
		c1.2,0.6,2.2,1.5,3.6,1.6c2,0.2,4.1,0.1,6,0c0.8,0,1.5,0.2,2.3,0.2c0.3,0.1,0.7,0.3,1,0.3c1.5,0.5,3.4,0.5,5.1,0.4
		c1.7,0.2,3.5,0.4,5.1,0.8c0.4,0.4,1,0.4,1.4,0.7c0.3,0.2,0.6,0.4,0.7,0.8c0.4,0.3,0.7,0.7,1.2,0.9c0.4,0.2,0.3,0.7,0.7,0.8
		c0.7,0.8,1.5,1.5,2.5,1.6c0.5,0.2,1,0.2,1.6,0.3c0.6,0,1.3,0.1,1.7-0.3c0.3-0.1,0.4-0.3,0.6-0.5c0.4-0.5,0.2-1.4,0.2-2.1
		c-0.6-1.2-2-2.2-3.2-2.8c-0.7-0.2-1.1-0.6-2-0.6c-1.7-0.2-3.4-0.4-5.2-0.2c-1.1,0-2.3,0.3-3.5,0.2l-5.3,0c-0.7-0.2-1.5-0.2-2.2-0.5
		c-1.2-0.5-2.2-1-3.5-1.3c-0.6-0.2-1.1-0.4-1.5-1c-0.2-0.5-0.2-1.2,0.3-1.6c0.6-0.3,1-0.9,1.7-0.9c0.7-0.3,1.7-0.1,2.4-0.1
		c1.1,0.3,2.1,0.6,3.1,1.1c1,0.2,2,0.7,3.1,0.3c1.5,0,2.9-0.4,4.5-0.3c1.8-0.3,3.6,0.1,5.4,0.1c4.3,0.9,9.9,2.6,10.7,7.8
		c0.6,4.5-4.3,8.5-8.6,7c0.3,1.2,0.8,2.3,1.2,3.5c0.3,0.2,0.5,0.6,0.7,1c0.4,0.6,1,1.3,1.7,1.6c0.8,0.5,1.9,0.2,2.7,0.9
		c0.6,1.6,1.1,3.3,2,4.8c0.1,0.8-2.1,3.6-2.4,4.8h-9.2c-0.8-1.1,0.8-4,0.6-3.6c0.7-0.9,1.6-1.5,2.6-1.8c-0.3-0.3-0.5-0.9-1-0.8
		c-1.3-1-2.9-1.4-4.1-2.6c-0.1,0.2-0.4,0.3-0.4,0.5c-1.1,1.3-0.6,3.5-2.1,4.6c-1.9,0.7-2.3,2.6-3.4,3.6H56.2c-0.1-1-0.2-2.5,1-3.8
		c0.3-0.4,0.9-0.5,1.3-0.9c0.3-0.2,0.6-0.3,0.9-0.3c0-0.1,0.2-0.2,0-0.3c-0.8-0.6-1.2-1.6-1.9-2.3c-0.5-0.3-0.7-0.9-1.3-1.1
		c-0.5,0.8-1,1.6-1.1,2.6l-0.6,0.8c-1,0.1-1.9,0.8-2.8,1.4c-1.8,1-2,3-2.6,4.3c-0.2,0.2-0.5,0.1-0.8,0.1h-9.8c0-1.2,0.6-2.5,0.9-2.9
		c0.1-0.6,0.7-0.9,1.1-1.3c1-0.4,1.8-1,2.9-1.2c0.6-1.6,2.4-2.5,3.1-4c0.4-1.6,0.6-3.2,1.3-4.7c-0.9-0.4-1.6-1.1-2.3-1.6
		c-0.8-0.9-2.2-1.6-2.6-2.8l-0.5-0.9c-0.6-0.4-1.4-0.6-1.9-1.2c-1,0-1.8-0.4-2.7-0.6c-0.2,0.1-0.4,0-0.6,0.1c-0.7,0.1-1.5,0.1-2-0.2
		c-0.3,0.1-0.4-0.2-0.7-0.3c-0.9-0.8-0.5-1.9-0.6-3c0.1-0.3,0.3-0.7,0.6-0.9c0.7-0.4,1.6,0.2,2.2-0.3c-0.7-0.2-1.4,0.2-2.2,0.1
		c-0.6,0-1.2-0.3-1.6-0.8c-0.5-0.6,0.3-1.3-0.2-1.8c-0.4-0.1-0.6-0.5-0.8-0.9c0-0.7,0.1-1.3,0.7-1.7c0.5-0.1,1-0.3,1.5-0.3
		c0.4-0.3,0.8-0.6,1.4-0.6c1.8,0.1,2.8-2,4.8-1.5c1,0.1,2,0.2,3,0.1c0.3-0.2,0.7-0.5,1.1-0.5c0.3-0.2,0.6-0.1,0.9-0.1
		C45.8,56.7,46.5,56.6,46.8,57.2L46.8,57.2z M69.7,77.1c-0.3,0.9-0.1,2,0.2,2.9c-0.1,1,0.4,1.9,0.7,2.8c-0.7,0.8-1.5,1.7-2.6,2.2
		c-0.6,0.1-1.4,0.3-2,0.5c-0.1-1.2,0.3-2.6-0.8-3.3c-0.6-0.9-1.1-1.8-1.5-2.8c-0.2-0.3-0.3-0.7-0.4-1C65.7,78.3,67.7,77.3,69.7,77.1
		L69.7,77.1z M69.7,77.1"/>
	<path class="st6" d="M48.5,83.8c0,0.1,0,0.1-0.1,0.2c-0.3-0.1-0.8,0.1-1-0.2v-0.4c0.1,0,0.1-0.1,0.1-0.1L48.5,83.8z M48.1,82.3
		c0.5,0.5,1.2,0.7,1.9,1c0.2,0,0.3,0,0.5,0.1c0,0.1-0.1,0.1-0.2,0.1c-0.9,0-1.7-0.1-2.3-0.6C47.9,82.7,47.8,82.3,48.1,82.3
		C48.1,82.2,48.1,82.2,48.1,82.3L48.1,82.3z M73.7,82l0.7,0.1c-0.5,0.3-1.2,0.3-1.8,0.3v-0.4c0.1,0.1,0.1-0.1,0.2-0.1
		C73.1,81.8,73.5,81.6,73.7,82L73.7,82z M61.1,81.2l-1,1c-0.1,0-0.3,0.1-0.4-0.1v-0.3c0.2-0.1,0.3-0.2,0.5-0.2v-0.1
		c0.4,0,0.6-0.4,1-0.5V81.2z M48.6,81c0.4,0.1,0.9,0.1,1.2,0.3c0.8,0.4,1.9,0.9,2.7,1.5c-1.1-0.3-2.5-0.9-3.7-0.8
		c-0.2-0.1-0.4-0.2-0.6-0.4c0-0.2-0.1-0.5,0-0.8C48.5,80.8,48.5,80.9,48.6,81L48.6,81z M75.5,81.2c-0.9,0.1-1.9-0.1-2.9-0.1
		c-0.2-0.1-0.3-0.2-0.5-0.4l0-0.3C73.4,80.3,74.4,81,75.5,81.2L75.5,81.2z M83.5,79.9c-0.2,0.3-0.3,0.3-0.6,0.5
		c-0.6,0.2-0.9,0.7-1.6,0.5c-0.1,0-0.1,0-0.2-0.1c0.4-0.3,0.9-0.6,1.4-0.7C82.9,80.3,83,79.9,83.5,79.9L83.5,79.9z M61.3,79.7
		c0,0.1-0.1,0.2-0.2,0.3c-0.4,0.2-0.8,0.6-1.1,0.9c-0.4,0-0.5,0.2-0.9,0.3h-0.4c-0.1-0.1-0.1-0.3-0.3-0.4c0.2-0.2,0.6,0,0.9-0.1
		C60.1,80.5,60.8,80.2,61.3,79.7L61.3,79.7z M50.4,80.1c0.5,0,0.7,0.6,1.3,0.6c0.4,0.4,0.8,0.6,1.3,0.9v0.1c-1.4-0.9-3-1.1-4.4-1.7
		c0-0.2,0-0.3,0.1-0.4C49.4,79.5,50,79.6,50.4,80.1L50.4,80.1z M59.9,79.1c-0.5,0.4-1.4,0-1.8,0.5c-0.2,0-0.2,0.2-0.3,0.2
		c-0.3,0-0.6,0-0.9-0.2c-0.2,0-0.3-0.1-0.3-0.2c0.3,0,0.7-0.1,1-0.2c0.8-0.1,1.5-0.1,2.3-0.2V79.1z M83.2,78.5
		C83.2,78.5,83.2,78.5,83.2,78.5c-0.3,0.2-0.8,0.3-1.1,0.5c-0.5,0.1-0.8,0.5-1.2,0.7c-0.4,0.2-0.9,0-1.3-0.1v-0.1
		c0.7-0.3,1.4-0.5,2.1-0.9C82.2,78.6,82.7,78.5,83.2,78.5L83.2,78.5z M73.6,78.7c0.6,0.1,1.2,0.2,1.7,0.4c0.2,0.3,0.7,0.2,1,0.5
		c-1.5-0.6-3.1,0.2-4.6-0.5c-0.1-0.1-0.1-0.4,0.2-0.5C72.5,78.5,73.1,78.5,73.6,78.7L73.6,78.7z M51.1,78.3c0.7,0.4,1.4,1.1,2,1.6
		c-1.3-0.5-2.8-1.2-4.2-1.4c0-0.4,0.3-0.4,0.3-0.7c0.1-0.2,0.3,0,0.4,0C50.2,77.9,50.6,78.2,51.1,78.3L51.1,78.3z M73,77.3
		c0.8,0.2,1.7,0.7,2.6,0.9c-1.1,0-2-0.5-3.2-0.3c-0.2-0.1-0.5-0.1-0.6-0.4c0-0.2,0-0.3,0.1-0.3C72.3,77.1,72.6,77.4,73,77.3L73,77.3
		z M51.5,77.5c0.5,0.2,0.9,0.5,1.4,0.7l0,0c0.9,0.7,1.8,1.4,2.7,2c-0.1,0.5-0.5,1.1-0.9,1.6c-0.3,0.5-0.3,1-0.4,1.5
		c-0.1,0.1-0.2,0.2-0.2,0.3c-1.5,0.4-3.4,1.9-4.4,3c-0.2,0.4-0.5,0.8-0.8,1.2c0,0.5-0.3,0.8-0.3,1.3l-8.3,0
		c-0.1-0.5,0.2-0.8,0.5-1.2c0.6-0.7,1.4-0.9,2.1-1.3c0.4-0.2,0.9-0.1,1.3-0.3c1-1.4,2.1-2.6,3.3-4c0.1-0.3,0.3-0.5,0.4-0.8
		c0.3-1.4,0.7-2.9,1.1-4.2c-0.1-0.6,0.6-0.2,0.9-0.3C50.4,77.2,50.9,77.3,51.5,77.5L51.5,77.5z M82.5,77c-0.3,0.3-0.8,0-1.1,0.4
		c-0.7,0.4-1.3,0.7-1.9,1.2c-0.5,0.1-0.8-0.2-1.3-0.3c0.4-0.2,1.1-0.3,1.3-0.6C80.5,77.3,81.5,77,82.5,77L82.5,77z M59.9,76.7
		c-0.4,0.4-1.3,0.4-1.8,0.8c-0.8,0.2-1,1.1-1.8,1.4c-0.4,0-0.9,0.1-1.2-0.2c-0.1,0-0.4-0.1-0.4-0.2c0.4,0,0.9-0.1,1.3-0.3
		c0.2-0.2,0.5-0.3,0.8-0.4v-0.1c0.5-0.2,0.9-0.4,1.4-0.5C58.8,77,59.3,76.8,59.9,76.7L59.9,76.7z M81.7,75.9
		c-0.5,0.3-1.2,0.2-1.7,0.6c-0.9,0.2-1.4,1-2.3,1.2c-0.1-0.2-0.4,0-0.5-0.1c-0.2-0.1-0.4-0.2-0.4-0.3c1,0.2,1.4-0.8,2.2-1
		c0.9-0.1,1.7-0.3,2.6-0.4V75.9z M59,75.4c-0.3,0.1-0.5,0.2-0.9,0.3c-1,0.6-2,1.3-3,2.1c-0.5,0.2-1.1,0.1-1.5-0.3
		c-0.1,0-0.1-0.1-0.1-0.2c0.2,0.1,0.3-0.1,0.5-0.1c0.9-0.5,1.7-1.1,2.7-1.5C57.5,75.6,58.3,75.4,59,75.4L59,75.4z M80.4,74.7
		c-1.8-0.1-2.5,2.2-4.3,1.7c-0.2-0.1-0.6,0-0.8-0.2c0.4-0.3,1.1-0.1,1.4-0.6C77.9,75.1,79.1,74.7,80.4,74.7L80.4,74.7z M56.5,74.3
		c-0.2,0.1-0.6,0.2-0.7,0.4c-0.1,0-0.2,0-0.3,0c-0.6,0.5-1,1.4-1.7,1.8c-0.5,0.2-1.1,0-1.7-0.2c0-0.1,0-0.1,0.1-0.1
		c0.3-0.2,0.9-0.3,1.3-0.6c0.3-0.2,0.7-0.5,1-0.7c0.6-0.3,1.3-0.7,2-0.8C56.7,74.2,56.5,74.2,56.5,74.3L56.5,74.3z M52.1,72.4
		c-0.3,0.7-0.6,1.4-0.8,2.1c-0.1,0.4-0.3,0.7-0.6,1c-0.1,0-0.2,0-0.2,0.1c-0.3,0.2-0.4-0.3-0.7-0.2c0.6-0.6,1-1.3,1.7-1.9
		c0-0.3,0.3-0.5,0.3-0.8C51.9,72.7,51.9,72.5,52.1,72.4L52.1,72.4z M50.4,71.3c-0.1,0.6-0.3,1.2-0.5,1.7c-0.2,0-0.3,0.2-0.4,0.1
		c-0.4,0.4-0.5,1-1,1.5c-0.1,0-0.2,0-0.2,0.1c-0.4,0-0.9,0-1.1-0.4c0.4-0.1,0.5-0.4,0.9-0.6c0.7-0.7,1.3-1.5,2-2.4
		c0.2-0.2,0.3-0.5,0.4-0.7C50.5,70.8,50.6,71.2,50.4,71.3L50.4,71.3z M76,72.6c1.4,0.1,2.9,0,4.1,0.7c0.1,0.2,0.4,0.1,0.5,0.3
		c-1.4-0.2-2.9,0.1-4.3,0.2c-0.6-0.3-1.2-0.7-1.8-1c-0.2-0.1-1.5-2.7-1.4-2.4C74.2,71.7,74.4,72.1,76,72.6L76,72.6z M48.5,69.7
		c-0.1,0.8-0.8,1.4-1.1,2.1c-0.2,0.3-0.3,0.7-0.7,1c-0.2,0-0.3,0.1-0.5,0.1c-0.1-0.1-0.3,0-0.4-0.1c-0.1-0.1-0.2-0.3-0.3-0.4
		c0.6-0.2,1-0.6,1.6-0.9C47.8,71,48,70.3,48.5,69.7L48.5,69.7z M57.8,69.6c0.5,0.4,0.8,1.1,1.4,1.4c0.3,0.3,0.4,0.8,0.3,1.2
		c-0.1,0.3-0.4,0.6-0.4,1c-0.2,0-0.2-0.2-0.3-0.3L58.7,72h0C58.8,71.1,57.9,70.4,57.8,69.6L57.8,69.6z M79.2,68.8
		c0.1,0.6,0.3,1.4,0.5,2.1c-0.3-0.3-0.5-0.6-0.8-0.8c-0.9-0.6-0.8-1.7-1.2-2.5l0-0.2C78.2,67.8,79,68,79.2,68.8L79.2,68.8z
		 M66.6,67.3c0.3,0.5,0.6,1.1,0.9,1.7c0,0.4,0.1,0.9,0.3,1.2c0,1,0.8,1.7,1,2.7c0.1,0.4,0,0.8-0.2,1.2c-0.1-0.4-0.2-0.9-0.4-1.3
		c-0.1-0.5-0.6-0.9-1-1.3c-0.3-0.5-0.3-1.1-0.4-1.7C66.7,68.9,66.8,68.1,66.6,67.3L66.6,67.3z M61.3,67.3c0.1,0.6,0.4,1,0.7,1.5
		c0.5,1.3,0.8,2.7,0.4,4.1c-0.1,0.5-0.3,0.9-0.3,1.4c-0.1-0.8,0.1-1.8-0.2-2.6c-0.2-1.7-0.8-3.2-0.8-4.9
		C61.3,66.8,61.2,67.1,61.3,67.3L61.3,67.3z M76.6,67.4c0.4,1.1,0.8,2.2,1.6,3.2c-0.7-0.4-1.2-0.8-1.9-1.3c-0.4-0.9-1-1.7-1.6-2.6
		c-0.1-0.1-0.2,0-0.3-0.2C75.3,66.5,76,66.8,76.6,67.4L76.6,67.4z M73,66.5c0.3,0.2,1.1,0.5,1,1c0,0.7,0.4,1.2,0.5,1.8
		c0.1,0.3,0.3,0.5,0.4,0.8c0.2,0.1,0.3,0.3,0.5,0.3c0,0.2,0.3,0.1,0.3,0.3c0.2,0.1,0.3,0.3,0.6,0.4c0,0.3,0.3,0.3,0.4,0.6
		c-0.9-0.5-1.7-1.1-2.6-1.7c-0.2-0.4-0.8-0.8-0.8-1.4c-0.3-0.5-0.5-1-0.7-1.6c0,0-0.8-0.7-0.8-0.8C72.2,66.2,72.5,66.5,73,66.5
		L73,66.5z M70.1,66.4c0.3,0.2,0.6,0.4,1,0.6c0.4,0.2,0.1,0.8,0.3,1c-0.2,1,0.4,2,0.4,3c0,0.3,0,0.7-0.1,1c-0.3-0.8-0.6-1.7-1.1-2.3
		c-0.3-0.9-0.3-1.8-0.7-2.7c-0.2-0.3-0.6-0.4-0.8-0.8C69.6,66.1,69.8,66.4,70.1,66.4L70.1,66.4z M68.1,66.2c0.7,0.4,0.7,1.3,1,1.9
		l0.4,1.5c0.3,0.6,0.6,1,0.9,1.6c0,0.6-0.1,1.3,0.2,1.9l-0.1,0c-0.1-0.4-0.4-0.9-0.5-1.4c-0.1-0.2-0.4-0.5-0.6-0.7
		c-0.6-0.9-1.2-1.8-1.2-2.9c-0.3-0.8-0.7-1.5-1.3-2.2l-0.3-0.1C67.2,65.7,67.6,66.1,68.1,66.2L68.1,66.2z M41.8,67.8
		c-0.4,0.1-0.8,0.4-1.3,0.3c0.7-0.6,1.3-1.4,1.8-2.2l0.3-0.5C42.5,66.4,42.3,67.1,41.8,67.8L41.8,67.8z M58.1,65.2
		c0.9,0.2,2,0.2,2.9,0.1c0.6-0.2,1.3-0.1,1.9-0.1c0.6,0.1,1.3,0.1,1.8,0.3c0.3,0,0.5,0.4,0.8,0.4c0.5,0.6,0.5,1.4,0.5,2.2
		c-0.7,1.4,0.9,2.3,0.3,3.7c-0.3-0.4-0.2-1.2-0.7-1.5c0-0.2-0.2-0.4-0.3-0.5c-0.6-0.9,0-1.9-0.1-3c-0.3-0.4-0.3-1.1-1.1-0.9
		c-0.9,0.8-0.6,2.3-0.3,3.2c0.1,0.3,0.1,0.8,0.3,1.2c-0.1,0.3-0.1,0.7-0.3,1c0,0.6-0.3,1.1-0.2,1.6c-0.1-0.8,0-1.8-0.1-2.7
		c-0.8-1.4-1.3-2.6-2.1-4c-0.4-0.5-0.4-0.3-0.8-0.3c-1.5,1.9,0.8,3.7,0.1,5.8c-0.2-0.7-0.3-1.5-0.7-2.1c-0.4-0.4-0.3-1-0.6-1.5
		c-0.1-0.5,0-1.1-0.3-1.6c0-0.3-0.3-0.4-0.5-0.6l-0.3-0.1c-0.3,0.2-0.3,0.4-0.5,0.6c-0.1,0.8-0.2,1.7,0.2,2.4h-0.1
		c-0.2-0.2-0.2-0.4-0.4-0.6c-0.3-0.9-0.2-2-0.6-3c0-0.4-0.5-0.2-0.6-0.6C57,65,57.5,65.1,58.1,65.2L58.1,65.2z M47.3,64.8
		c-0.1,0.4-0.3,0.8-0.5,1.2c-0.4,0.9-1.2,1.6-1.8,2.4l-1.1,1c-0.3,0.2-0.8,0.1-1,0c-0.2-0.2-0.5-0.3-0.7-0.5
		c0.6-0.2,1.3-0.3,1.8-0.7c0.7-0.6,1.4-1.4,2-2.1c0.3-0.6,0.7-1,1.1-1.5C47.2,64.8,47.3,64.7,47.3,64.8L47.3,64.8z M54.9,64.2
		c0.4,0.3,0.9,0.6,1,1.1c0.2,0.8-0.3,1.4-0.5,2.1c0,0.7,0.5,1.2,0.5,1.9c-0.1,1.1-0.6,2.1-1.1,3c-0.1,1.2-1.4,1.6-1.8,2.6h-0.1
		c0.3-1,1.4-1.6,1.6-2.7c0.2-0.9,0.4-1.7,0.5-2.6c0-0.3-0.2-0.5-0.3-0.7c-0.2-0.1-0.3-0.2-0.6-0.1c-0.4,0.2-0.7,0.5-1,0.8
		c0-0.4,0.3-0.6,0.4-1c0.4-0.3,0.4-0.8,0.9-1.1c0.2-0.4,0.2-1,0.4-1.4c0-0.7,0.1-1.4,0.1-2H54.9z M54,63.6c0.1,0.2,0.4,0.3,0.3,0.6
		c0.2,0.2,0,0.4-0.1,0.6c-0.8,0.9-1.2,2.2-1.8,3.3c0,0.6-0.5,1.1-0.7,1.7c-0.1,0.2-0.3,0.4-0.6,0.4c0.5-1.4,1-2.9,1.6-4.3
		c0.1-0.5,0.4-1.1,0.1-1.6c-0.3-0.1-0.3-0.3-0.6-0.4c-0.1,0.7-0.5,1.2-0.6,2c-0.3,0.9-0.7,1.7-1.1,2.5c-0.2,0.6-0.5,1-0.9,1.5h-0.1
		c0.3-0.7,0.5-1.4,0.8-2.1c0.1-0.4,0.3-0.8,0.4-1.3c0-0.2,0-0.4-0.1-0.6c-0.5-0.1-0.5,0.6-0.9,0.5c-0.1-0.3,0.2-0.5,0.2-0.9
		c0.3-0.8,0.6-1.6,1-2.3c0.6-0.5,1.6-0.2,2.3,0L54,63.6z M38.7,63.3c0.2,0.2,0.3,0.3,0.4,0.6c0.3,0.3,0.3,0.7,0.4,1
		c-0.1,0.5-0.2,1-0.7,1.4c0,0.2-0.2,0.3-0.3,0.4c-0.4,0.1-0.9,0.3-1.3,0.3c-0.4,0.1-0.9-0.2-1.3-0.2v-0.1l1.2-0.1
		c0.5-0.4,1.3-0.4,1.5-1.2c0.1-0.6,0.3-1.5-0.4-1.9c-0.4-0.3-0.8-0.6-1.2-0.7c-0.1-0.1-0.1-0.1,0-0.2C37.7,62.8,38.2,63,38.7,63.3
		L38.7,63.3z M40.6,62.5c0.1,0.2,0.2,0.3,0.3,0.4c0.1,0.6,0.2,1.2-0.1,1.8c-0.2,0.3-0.5,0.8-0.9,1.1l-0.1-0.1c0.1-0.7,0.5-1.3,0.4-2
		c-0.3-0.3-0.3-0.8-0.7-1c-0.4-0.4-1-0.5-1.6-0.7c-0.1,0.2-0.3,0-0.4,0.1V62c0.1,0,0.3,0,0.4-0.1c0.6,0.1,1.2-0.3,1.7,0
		c0.2,0,0.3,0.1,0.5,0.2L40.6,62.5z M49.7,62.2c0.3,0.4,0.3,1,0.1,1.5c0.1,0.3-0.2,0.5-0.2,0.8c-0.3,0.2-0.3,0.7-0.5,1
		c-0.3,0-0.1-0.4-0.2-0.6c-0.4,0.9-1.2,1.7-1.6,2.5c-0.1,0.1-0.2,0.3-0.4,0.3c-0.1-0.6,0.5-1,0.5-1.6c0.2-0.1,0.1-0.4,0.3-0.6
		c0-0.6,0.5-1,0.5-1.6c0.3-0.6,0.2-1.4,0.2-2.1c-0.2-0.2-0.1-0.4-0.3-0.6h0.1L49.7,62.2z M42.8,61.2c0.2,0.3,0.3,0.7,0.6,1
		c0,0.3,0.2,0.7,0.3,1h0.1c-0.2,0.8,0.2,1.6-0.2,2.3c-0.1,0.3-0.1,0.7-0.4,0.9l-0.1-0.1c0.3-0.8,0.1-1.8-0.1-2.6
		c0-0.1-0.1-0.2-0.3-0.2c-0.4,0.4-0.7,0.9-1,1.4c-0.1,0.1-0.3,0-0.3,0.1c0.1-0.3,0.2-0.3,0.3-0.5c0-0.3,0.1-0.7,0.2-0.9
		c0.1-0.7,0.1-1.6,0.1-2.2l0.2-0.3C42.5,61.1,42.7,61.1,42.8,61.2L42.8,61.2z M47.7,61.1c0,0.8-0.6,1.3-0.6,2L46.7,64
		c-1.1,0.8-1.5,2.2-2.5,3.1c-0.2,0.3-0.7,0.7-1.1,0.8c0.6-0.5,1-1.2,1.4-1.9c0.3-1,0.3-2,0.6-2.9c0.4-0.3,0.8-0.8,1-1.2
		c0.1,0,0.1,0,0.2,0.1l-0.1,0.9c0.1,0,0.2,0.2,0.3,0.1c0.2-0.2,0.2-0.4,0.3-0.6c0-0.5,0-1.1,0.3-1.5C47.4,60.7,47.7,60.7,47.7,61.1
		L47.7,61.1z M37.7,60.9L37.7,60.9c-0.9,0.6-1.9,1.1-2.8,1.8c0-0.1-0.1-0.4,0.1-0.4c1-0.3,1.4-1.8,2.6-1.5L37.7,60.9z M45.2,59.3
		c0,0.2-0.1,0.4-0.1,0.6c-0.1,0.3-0.4,0.4-0.5,0.7c-0.2,0.2-0.4,0.3-0.6,0.4c-0.1-0.6,0.6-1,0.3-1.6c-0.2-0.2-0.2-0.4-0.4-0.6
		c0.1-0.3,0.4-0.1,0.6-0.2C44.8,58.9,45.2,59,45.2,59.3L45.2,59.3z M46.3,59.4c0,0.3,0,0.5,0.2,0.7c-0.3,0.6-0.2,1.5-0.8,1.9h-0.4
		c-0.2-0.1-0.3-0.3-0.3-0.5c0.3-0.7,0.8-1.4,0.8-2.2c-0.1-0.3-0.1-0.5-0.2-0.7C46,58.6,46,59.1,46.3,59.4L46.3,59.4z M45.9,57.8
		c0.4,0.5,1,1,1,1.6c0,0-0.1,0-0.1,0c0.2,0,0.1,0.2,0.2,0.3c0.8,0.3,1.7,0.2,2.3,0.9c0.6,0.2,1,0.9,1.6,1.2c0.9,0.1,1.8,0,2.7,0.2
		c0.8,0.6,1.8,1,2.7,1.6l1.9,0.5c2.1,0.2,4.2,0,6.2-0.1c1.3,0,2.6,0.4,3.9,0.8c1.3,0.3,2.9,0.2,4.3,0.1c0.9,0.1,1.8,0.2,2.6,0.3
		c0.6,0.1,1.3,0.2,1.9,0.3v0.1c1.6,0.1,1.8,1.6,3.2,2.2c0.1,0.1,0.1,0.4,0.4,0.4c0.6,0.6,1.2,1.1,1.9,1.7l1.9,0.6
		c1,0.2,2.1,0.1,3.1,0.1c0.3-0.3,0.7-0.4,1-0.5c0.1-0.5,0.7-0.5,0.8-1c0.7-0.5,0.5-2.5,0.3-3c-0.1-0.4-0.5-0.6-0.5-1
		c-0.9-1-1.9-1.8-3.1-2.5c-0.6-0.3-0.9-0.4-1.6-0.7c-1.4-0.2-2.9-0.4-4.3-0.5c-1.9-0.1-3.6,0.3-5.4,0.3h-5.1l-1.7-0.3
		c-0.4-0.2-0.4-0.2-0.8-0.4c-1.1-0.4-2.1-1-3.3-1.2c-0.1-0.1-0.3-0.2-0.4-0.3c0.1-0.3,0.5-0.2,0.7-0.6c0.3,0,0.5-0.2,0.7-0.2l1.7,0
		c1,0.2,2,0.6,2.9,1.1c1.2,0.2,2.4,0.7,3.7,0.4c2.1-0.3,4.3-0.3,6.4-0.4c1.3,0.1,2.7,0.1,4,0.3c3.3,0.8,7.4,2.3,8.5,5.8
		c1.1,3.8-3,7.3-6.8,6.4c-0.9-0.1-1.7-0.4-2.6-0.7c0.1,0.9,0.7,1.6,1,2.5c0.3,1.4,0.9,2.5,1.4,3.8c0.6,0.6,1,1.5,1.7,2
		c0.1,0.7,0.9,0.4,1.3,0.9c0.7,0.3,1.5,0.4,2.2,0.5c0,0.5,0.2,0.9,0.3,1.3c0.3,1,0.8,1.9,1.3,2.9c-0.4,1-1.5,2-1.8,3.1l-7.3,0
		c0-1,0.4-1.8,1.2-2.4c0.9-0.5,1.8-1,2.9-1c0.1,0,0-0.1,0-0.2c-0.2-0.3-0.5-0.5-0.6-0.8c-0.4-0.5-1-1-1.3-1.5
		c-1.6-0.7-3-1.7-4.5-2.6c-0.4-0.3-0.5-0.6-0.8-0.9c-0.9-0.7-1.7-1.3-2.5-2.2c-1.3-0.8-2.8-1.5-4.2-1.8c-2.9-0.2-4.8,0.3-7.2,1.1
		c-1,0.3-2.2,0.3-3,0.1c-0.3-0.4-0.3-0.9-0.5-1.3c0.1-0.3-0.4-0.4-0.6-0.7c-1-0.3-1.9-1.1-2.7-1.8c0.3,0.2,0.2,0.7,0.5,0.8
		c0.4,0.6,1.1,1,1.6,1.3c0.2,0,0.4,0.1,0.6,0.3c0,1.1,0.6,1.9,0.8,3c0.7,1,0.8,2.4,1.7,3.4c0.3,0.2,0.3,0.8,0.7,1l0.4,0.4l0,4.1
		c0.1,0.3,0.1,0.7,0.3,1c0.3,0,0.4-0.3,0.5-0.5c0.3-0.6,0.4-0.6,0.8-1.1c0.6-0.4,1.4-0.8,2-0.7c0.4,0.1,0.6-0.3,0.9-0.4
		c0.5-0.5,1-1.3,1.7-1.5c0.4-0.4,0.6-0.5,1.1-0.9c-0.2-1-0.8-2-1-3.1c0.1-1.2-0.7-2.5,0-3.6c-0.1-0.3,0.2-0.2,0.3-0.2
		c0.7,0.1,1.5,0.1,2.2,0.3c1,0.1,1.7,0.7,2.6,1c0.5,0.4,1.1,1.1,1.7,1.6c0,0.3,0.4,0.3,0.4,0.5c-0.4,0.3-0.3,0.9-0.8,1.1
		c-0.6,1-1,2-1.3,3.1c0,0.4-0.2,0.7-0.2,1.1c-0.4,0.7-1.1,0.8-1.3,0.9c-1.1,0.9-1.3,2.2-2.4,3H57.7c0.7-2.7,2.1-2.4,3.1-2.9
		c0.1-0.4,0.2-0.9,0.4-1.3c0.2-0.3-0.1-0.5-0.4-0.6c-0.8-0.9-1.6-2.1-2.5-2.9c-0.3-0.6-1-0.9-1.6-1.3c-1.3-0.6-2.6-1.3-3.6-2.5
		c-0.2,0-0.2-0.3-0.3-0.4c-1.5-0.9-3.1-1.3-4.7-2c-1.4-0.9-2.4-2.1-3.7-3.2L43.5,70c-0.7-0.5-1.6-0.6-2.1-1.4
		c-0.8-0.3-1.7-0.1-2.4-0.6c0,0,0-0.1-0.1-0.1c0.2-0.1,0.4-0.2,0.7-0.2c0.2-0.4,0.5-0.6,0.9-0.7c0.1-0.1,0.1-0.2,0.1-0.3
		c-0.2-0.1-0.3-0.3-0.5-0.3c-1.3,1.6-0.7,0.6-2.4,1.5c-0.6,0-1.3,0.2-1.9-0.1c-0.3,0-0.3-0.3-0.4-0.5c0.2-0.4-0.1-0.9,0-1.4
		c0.1,0,0.2,0,0.3,0c-0.1-0.1-0.2,0-0.3-0.1c-0.1-0.2,0.1-0.4,0.3-0.5c0.3,0.2-0.1,0.9,0.5,0.7c0.2,0.2,0.4,0,0.6,0
		c0.3,0,0.7,0.1,0.7-0.3c0.3-0.1,0.7-0.3,0.7-0.6c0.1-0.3,0.2-0.7,0.2-1.1c-0.1-0.3-0.4-0.3-0.5-0.7c-0.2,0-0.4,0-0.6-0.1
		c-0.9-0.1-1.7,0.2-2.6,0.2l-0.3-0.1c0.2-0.7,0.1-0.7,0-1.2c0.3-0.2,0.6-0.5,0.9-0.8c0,0,0.1-0.9,0.1-1c0.4-0.3,0.5-0.3,0.9-0.5
		c1-0.2,1.7,0.3,2.6,0.4c0.6,0.1,1.1,0.4,1.7,0.4c0.1,0.1,0.3,0,0.4,0.2h0.4c-0.1-0.3-0.1-0.6-0.1-0.9c-0.2-0.2-0.6-0.3-0.8-0.4
		c-0.8,0.2-1.7,0.2-2.6,0.2c0.2-0.1,0.1-0.4,0.4-0.4c0.2-0.1,0.3-0.5,0.6-0.4c0.4-0.3,1-0.2,1.5-0.3c1.1,0.2,2.2,0.1,3.3,0.1
		c0.3-0.2,0.7-0.4,1.1-0.5C45.2,57.5,45.6,57.9,45.9,57.8L45.9,57.8z M34.4,60c0,0.4-0.1,0.7-0.4,1c-0.3,0.1-0.6,0.3-0.9,0h0
		c0-0.2-0.1-0.4-0.1-0.7c0.2-0.3,0.6-0.3,0.9-0.5C34.1,59.9,34.3,59.9,34.4,60L34.4,60z M36.5,63.8c-0.3,0.1-0.2-0.2-0.4-0.3
		c-0.1,0.2,0,0.6-0.2,0.9c-0.3-0.1-0.4-0.5-0.5-0.7c-0.3,0.1-0.2,0.4-0.3,0.7c-0.1-0.1-0.3-0.2-0.3-0.3c-0.1-0.2-0.2-0.3-0.2-0.6
		l1.9-0.1C36.6,63.5,36.6,63.7,36.5,63.8L36.5,63.8z M37.7,64.6c-0.3,0.5-0.7,1.1-1.4,1.1v-0.5C36.6,64.8,37.1,64.6,37.7,64.6
		L37.7,64.6z M37.7,64.6"/>
	<path class="st7" d="M50,109.8l-0.2-0.1l-0.1,0L50,109.8z M50,109.8"/>
	<path class="st7" d="M77.5,109.8l0.2-0.1l0.1,0L77.5,109.8z M77.5,109.8"/>
</g>
</svg>
