<?xml version="1.0" encoding="utf-8"?>
<!-- Generator: Adobe Illustrator 22.0.1, SVG Export Plug-In . SVG Version: 6.00 Build 0)  -->
<svg version="1.1" id="Слой_1" xmlns="http://www.w3.org/2000/svg" xmlns:xlink="http://www.w3.org/1999/xlink" x="0px" y="0px"
	 viewBox="0 0 127.3 127" style="enable-background:new 0 0 127.3 127;" xml:space="preserve">
<style type="text/css">
	.st0{fill:url(#SVGID_1_);}
	.st1{fill:#FFFFFF;}
	.st2{fill-rule:evenodd;clip-rule:evenodd;fill:#D20000;}
	.st3{fill:none;stroke:#000000;stroke-width:0.1977;}
	.st4{fill:#005BB9;}
	.st5{fill-rule:evenodd;clip-rule:evenodd;fill:#FFFFFF;}
	.st6{fill:none;stroke:#000000;stroke-width:0.3955;}
	.st7{clip-path:url(#SVGID_3_);fill:none;stroke:#000000;stroke-width:0.3955;stroke-linecap:round;}
	.st8{fill-rule:evenodd;clip-rule:evenodd;fill:#FFF500;}
	.st9{clip-path:url(#SVGID_5_);fill:none;stroke:#CC9933;stroke-width:0.2966;}
	.st10{fill:none;stroke:#CC9933;stroke-width:0.2966;}
	.st11{fill:none;stroke:#000000;stroke-width:0.4002;}
	.st12{clip-path:url(#SVGID_7_);fill:none;stroke:#000000;stroke-width:0.3955;stroke-linecap:round;}
	.st13{fill:none;stroke:#000000;stroke-width:0.2966;}
	.st14{fill-rule:evenodd;clip-rule:evenodd;}
	.st15{fill:none;stroke:#FFFFFF;stroke-width:9.886803e-02;}
	.st16{fill:none;stroke:#000000;stroke-width:0.2966;stroke-linejoin:round;}
	.st17{fill-rule:evenodd;clip-rule:evenodd;fill:#005BB9;}
	.st18{clip-path:url(#SVGID_9_);fill:none;stroke:#000000;stroke-width:0.1977;}
	.st19{clip-path:url(#SVGID_9_);fill-rule:evenodd;clip-rule:evenodd;fill:#FFFFFF;}
	.st20{clip-path:url(#SVGID_9_);fill-rule:evenodd;clip-rule:evenodd;fill:#D20000;}
	.st21{clip-path:url(#SVGID_11_);fill:none;stroke:#000000;stroke-width:0.1977;}
	.st22{fill:none;stroke:#000000;stroke-width:1.977361e-02;}
</style>
<radialGradient id="SVGID_1_" cx="64.8" cy="2586.7468" r="62.6" gradientTransform="matrix(1 0 0 1 0 -2522.3469)" gradientUnits="userSpaceOnUse">
	<stop  offset="0.9487" style="stop-color:#212121"/>
	<stop  offset="1" style="stop-color:#606060;stop-opacity:0"/>
</radialGradient>
<circle class="st0" cx="64.8" cy="64.4" r="62.6"/>
<circle class="st1" cx="62.6" cy="62.6" r="62.6"/>
<g>
	<path class="st2" d="M89.9,72.3l0.4-1.3l2.1-1l0,3.4c-0.7,0-1.2,0-2.1-0.3C90.1,72.9,90,72.6,89.9,72.3L89.9,72.3z M89.9,72.3"/>
	<path class="st3" d="M89.9,72.3l0.4-1.3l2.1-1l0,3.4c-0.7,0-1.2,0-2.1-0.3C90.1,72.9,90,72.6,89.9,72.3L89.9,72.3z M89.9,72.3"/>
	<path class="st4" d="M96.7,73.6L96.7,73.6l0-3c1.2,0.4,3.2,0.7,3.7,1.5c0.6,1-1.3,2.7-2.6,2.6L96.7,73.6z M96.7,73.6"/>
	<path class="st3" d="M96.7,73.6L96.7,73.6l0-3c1.2,0.4,3.2,0.7,3.7,1.5c0.6,1-1.3,2.7-2.6,2.6L96.7,73.6z M96.7,73.6"/>
	<path class="st1" d="M96.9,72.4c1,0.2,2.2,0.5,2.1,1.1l0.5,0.8h-2.5L96.9,72.4z M96.9,72.4"/>
	<path class="st2" d="M34.5,72.3L34.1,71L32,70l0,3.4c0.7,0,1.2,0,2.1-0.3C34.3,72.9,34.4,72.6,34.5,72.3L34.5,72.3z M34.5,72.3"/>
	<path class="st3" d="M34.5,72.3L34.1,71L32,70l0,3.4c0.7,0,1.2,0,2.1-0.3C34.3,72.9,34.4,72.6,34.5,72.3L34.5,72.3z M34.5,72.3"/>
	<path class="st4" d="M27.7,73.6L27.7,73.6l0-3c-1.2,0.4-3.2,0.7-3.7,1.5c-0.6,1,1.3,2.7,2.6,2.6L27.7,73.6z M27.7,73.6"/>
	<path class="st3" d="M27.7,73.6L27.7,73.6l0-3c-1.2,0.4-3.2,0.7-3.7,1.5c-0.6,1,1.3,2.7,2.6,2.6L27.7,73.6z M27.7,73.6"/>
	<path class="st1" d="M27.5,72.4c-1,0.2-2.2,0.5-2.1,1.1L25,74.3h2.5L27.5,72.4z M27.5,72.4"/>
	<rect x="26.8" y="29.7" class="st5" width="6.3" height="67"/>
	<rect x="26.8" y="29.7" class="st6" width="6.3" height="67"/>
	<rect x="25.7" y="28.8" class="st5" width="8.4" height="2.2"/>
	<rect x="25.7" y="28.8" class="st6" width="8.4" height="2.2"/>
	<path class="st5" d="M26.8,95.4H33c1.1,0,2.1,0.9,2.1,2.1v0.7l-10.4,0v-0.7C24.7,96.3,25.6,95.4,26.8,95.4L26.8,95.4z M26.8,95.4"
		/>
	<path class="st6" d="M26.8,95.4H33c1.1,0,2.1,0.9,2.1,2.1v0.7l-10.4,0v-0.7C24.7,96.3,25.6,95.4,26.8,95.4L26.8,95.4z M26.8,95.4"
		/>
	<path class="st5" d="M31.6,33.6c0,1.1,0.9,2,2,2.1c1.4,0.1,2.6-0.9,2.7-2.3c0.1-1.5-1.1-2.9-2.6-3h-7.6c-1.5,0.1-2.7,1.5-2.6,3
		c0.1,1.3,1.3,2.4,2.7,2.3c1.1-0.1,2-1,2-2.1H31.6z M31.6,33.6"/>
	<g>
		<defs>
			<rect id="SVGID_2_" x="22.9" y="19" width="78.6" height="89.1"/>
		</defs>
		<clipPath id="SVGID_3_">
			<use xlink:href="#SVGID_2_"  style="overflow:visible;"/>
		</clipPath>
		<path class="st7" d="M31.6,33.6c0,1.1,0.9,2,2,2.1c1.4,0.1,2.6-0.9,2.7-2.3c0.1-1.5-1.1-2.9-2.6-3h-7.6c-1.5,0.1-2.7,1.5-2.6,3
			c0.1,1.3,1.3,2.4,2.7,2.3c1.1-0.1,2-1,2-2.1H31.6z M31.6,33.6 M29.9,37.3v55.9 M28.4,37.3v55.9 M31.4,37.3v55.9 M26.1,33.5
			c-0.1,0-0.2,0-0.2-0.1c-0.2-0.2,0.1-0.5,0.3-0.6c0.4-0.1,0.8,0.2,0.9,0.6c0.1,0.6-0.3,1.1-0.9,1.2c-0.7,0.1-1.4-0.4-1.5-1.1
			c-0.1-0.9,0.6-1.7,1.4-1.8c1.1-0.1,2,0.7,2.1,1.7c0.1,1.2-0.8,2.3-2,2.4c-1.4,0.1-2.6-0.9-2.7-2.3c-0.1-1.5,1.1-2.9,2.6-3
			c1.7-0.1,3.2,1.2,3.3,2.9v0.3 M33.7,33.5c0.1,0,0.2,0,0.2-0.1c0.2-0.2-0.1-0.5-0.3-0.6c-0.4-0.1-0.8,0.2-0.9,0.6
			c-0.1,0.6,0.3,1.1,0.9,1.2c0.7,0.1,1.4-0.4,1.5-1.1c0.1-0.9-0.6-1.7-1.4-1.8c-1.1-0.1-2,0.7-2.1,1.7c-0.1,1.2,0.8,2.3,2,2.4
			c1.4,0.1,2.6-0.9,2.7-2.3c0.1-1.5-1.1-2.9-2.6-3c-1.7-0.1-3.2,1.2-3.3,2.9v0.3"/>
	</g>
	<path class="st8" d="M73.9,37.5l10-5c-0.3-0.6-0.7-1.2-1-1.8l-11.1,6.8H73.9z M62.2,19.1c0.4,0,0.7,0,1.1,0l-0.8,18.3H62l-0.8-18.3
		C61.5,19.2,61.9,19.1,62.2,19.1L62.2,19.1z M64.8,19.3c0.7,0.1,1.4,0.2,2.1,0.3l-3.6,17.9h-0.5L64.8,19.3z M68.4,20
		c0.7,0.2,1.4,0.4,2,0.6l-6.1,16.9h-0.6L68.4,20z M71.9,21.2c0.6,0.3,1.3,0.6,1.9,0.9l-8.4,15.4h-0.6L71.9,21.2z M75.2,22.9
		c0.6,0.4,1.2,0.8,1.7,1.2L66.7,37.5h-0.8L75.2,22.9z M78.1,25.1c0.5,0.5,1,0.9,1.5,1.5l-11.4,11h-1L78.1,25.1z M80.7,27.7
		c0.5,0.5,0.9,1.1,1.3,1.7l-11.5,8.1h-1.4L80.7,27.7z M40.5,32.6c0.3-0.6,0.7-1.2,1-1.8l11.1,6.8h-2.2L40.5,32.6z M42.4,29.4
		c0.4-0.6,0.8-1.1,1.3-1.7l11.6,9.8h-1.4L42.4,29.4z M44.8,26.6c0.5-0.5,1-1,1.5-1.5l10.8,12.4h-1L44.8,26.6z M47.5,24.1
		c0.6-0.4,1.1-0.8,1.7-1.2l9.3,14.6h-0.8L47.5,24.1z M50.6,22.1c0.6-0.3,1.2-0.6,1.9-0.9l7.2,16.3H59L50.6,22.1z M54,20.6
		c0.7-0.2,1.3-0.4,2-0.6l4.7,17.6h-0.6L54,20.6z M57.5,19.6c0.7-0.1,1.4-0.2,2.1-0.3l2,18.2h-0.5L57.5,19.6z M57.5,19.6"/>
	<g>
		<defs>
			<rect id="SVGID_4_" x="22.9" y="19" width="78.6" height="89.1"/>
		</defs>
		<clipPath id="SVGID_5_">
			<use xlink:href="#SVGID_4_"  style="overflow:visible;"/>
		</clipPath>
		<path class="st9" d="M73.9,37.5l10-5c-0.3-0.6-0.7-1.2-1-1.8l-11.1,6.8H73.9z M62.2,19.1c0.4,0,0.7,0,1.1,0l-0.8,18.3H62
			l-0.8-18.3C61.5,19.2,61.9,19.1,62.2,19.1L62.2,19.1z M64.8,19.3c0.7,0.1,1.4,0.2,2.1,0.3l-3.6,17.9h-0.5L64.8,19.3z M68.4,20
			c0.7,0.2,1.4,0.4,2,0.6l-6.1,16.9h-0.6L68.4,20z M71.9,21.2c0.6,0.3,1.3,0.6,1.9,0.9l-8.4,15.4h-0.6L71.9,21.2z M75.2,22.9
			c0.6,0.4,1.2,0.8,1.7,1.2L66.7,37.5h-0.8L75.2,22.9z M78.1,25.1c0.5,0.5,1,0.9,1.5,1.5l-11.4,11h-1L78.1,25.1z M80.7,27.7
			c0.5,0.5,0.9,1.1,1.3,1.7l-11.5,8.1h-1.4L80.7,27.7z M40.5,32.6c0.3-0.6,0.7-1.2,1-1.8l11.1,6.8h-2.2L40.5,32.6z M42.4,29.4
			c0.4-0.6,0.8-1.1,1.3-1.7l11.6,9.8h-1.4L42.4,29.4z M44.8,26.6c0.5-0.5,1-1,1.5-1.5l10.8,12.4h-1L44.8,26.6z M47.5,24.1
			c0.6-0.4,1.1-0.8,1.7-1.2l9.3,14.6h-0.8L47.5,24.1z M50.6,22.1c0.6-0.3,1.2-0.6,1.9-0.9l7.2,16.3H59L50.6,22.1z M54,20.6
			c0.7-0.2,1.3-0.4,2-0.6l4.7,17.6h-0.6L54,20.6z M57.5,19.6c0.7-0.1,1.4-0.2,2.1-0.3l2,18.2h-0.5L57.5,19.6z M57.5,19.6"/>
	</g>
	<path class="st8" d="M62.2,29.9c7.4,0,13.5,6,13.5,13.5c0,7.4-6,13.5-13.5,13.5c-7.4,0-13.5-6-13.5-13.5
		C48.7,35.9,54.8,29.9,62.2,29.9L62.2,29.9z M62.2,29.9"/>
	<path class="st10" d="M62.2,29.9c7.4,0,13.5,6,13.5,13.5c0,7.4-6,13.5-13.5,13.5c-7.4,0-13.5-6-13.5-13.5
		C48.7,35.9,54.8,29.9,62.2,29.9L62.2,29.9z M62.2,29.9"/>
	<path class="st2" d="M62.2,98.8c-14.8-2.9-25.9-16.6-25.9-32.9V35.2h51.8v30.7C88.1,82.2,77,95.9,62.2,98.8L62.2,98.8z M62.2,98.8"
		/>
	<path class="st11" d="M62.2,98.8c-14.8-2.9-25.9-16.6-25.9-32.9V35.2h51.8v30.7C88.1,82.2,77,95.9,62.2,98.8L62.2,98.8z M62.2,98.8
		"/>
	<rect x="91.4" y="29.7" class="st5" width="6.3" height="67"/>
	<rect x="91.4" y="29.7" class="st6" width="6.3" height="67"/>
	<rect x="90.3" y="28.8" class="st5" width="8.4" height="2.2"/>
	<rect x="90.3" y="28.8" class="st6" width="8.4" height="2.2"/>
	<path class="st5" d="M97.7,95.4h-6.3c-1.1,0-2.1,0.9-2.1,2.1v0.7l10.4,0v-0.7C99.7,96.3,98.8,95.4,97.7,95.4L97.7,95.4z M97.7,95.4
		"/>
	<path class="st6" d="M97.7,95.4h-6.3c-1.1,0-2.1,0.9-2.1,2.1v0.7l10.4,0v-0.7C99.7,96.3,98.8,95.4,97.7,95.4L97.7,95.4z M97.7,95.4
		"/>
	<path class="st5" d="M92.9,33.6c0,1.1-0.9,2-2,2.1c-1.4,0.1-2.6-0.9-2.7-2.3c-0.1-1.5,1.1-2.9,2.6-3h7.6c1.5,0.1,2.7,1.5,2.6,3
		c-0.1,1.3-1.3,2.4-2.7,2.3c-1.1-0.1-2-1-2-2.1H92.9z M92.9,33.6"/>
	<g>
		<defs>
			<rect id="SVGID_6_" x="22.9" y="19" width="78.6" height="89.1"/>
		</defs>
		<clipPath id="SVGID_7_">
			<use xlink:href="#SVGID_6_"  style="overflow:visible;"/>
		</clipPath>
		<path class="st12" d="M92.9,33.6c0,1.1-0.9,2-2,2.1c-1.4,0.1-2.6-0.9-2.7-2.3c-0.1-1.5,1.1-2.9,2.6-3h7.6c1.5,0.1,2.7,1.5,2.6,3
			c-0.1,1.3-1.3,2.4-2.7,2.3c-1.1-0.1-2-1-2-2.1H92.9z M92.9,33.6 M94.5,37.3v55.9 M96.1,37.3v55.9 M93,37.3v55.9 M98.3,33.5
			c0.1,0,0.2,0,0.2-0.1c0.2-0.2-0.1-0.5-0.3-0.6c-0.4-0.1-0.8,0.2-0.9,0.6c-0.1,0.6,0.3,1.1,0.9,1.2c0.7,0.1,1.4-0.4,1.5-1.1
			c0.1-0.9-0.6-1.7-1.4-1.8c-1-0.1-2,0.7-2.1,1.7c-0.1,1.2,0.8,2.3,2,2.4c1.4,0.1,2.6-0.9,2.7-2.3c0.1-1.5-1.1-2.9-2.6-3
			c-1.7-0.1-3.2,1.2-3.3,2.9v0.3 M90.7,33.5c-0.1,0-0.2,0-0.2-0.1c-0.2-0.2,0.1-0.5,0.3-0.6c0.4-0.1,0.8,0.2,0.9,0.6
			c0.1,0.6-0.3,1.1-0.9,1.2c-0.7,0.1-1.4-0.4-1.5-1.1c-0.1-0.9,0.6-1.7,1.4-1.8c1-0.1,2,0.7,2.1,1.7c0.1,1.2-0.8,2.3-2,2.4
			c-1.4,0.1-2.6-0.9-2.7-2.3c-0.1-1.5,1.1-2.9,2.6-3c1.7-0.1,3.2,1.2,3.3,2.9v0.3"/>
	</g>
	<path class="st5" d="M47,55.5c1.5-0.6,4.3-0.6,6.1,0.4L52.8,57C50.9,56,49,55.6,47,55.5L47,55.5z M47,55.5"/>
	<path class="st13" d="M47,55.5c1.5-0.6,4.3-0.6,6.1,0.4L52.8,57C50.9,56,49,55.6,47,55.5L47,55.5z M47,55.5"/>
	<path class="st5" d="M53.3,55.7l-1.8-2.9C49.9,52,47,52,46.4,54.5c1.7-0.4,3.6-0.1,5.2,1.5c-1,0.5-2.2,0.5-3.2,0.5
		c1,1.3,2.3,1.6,3.9,1.3l0.9-0.9L53.3,55.7z M53.3,55.7"/>
	<path class="st6" d="M53.3,55.7l-1.8-2.9C49.9,52,47,52,46.4,54.5c1.7-0.4,3.6-0.1,5.2,1.5c-1,0.5-2.2,0.5-3.2,0.5
		c1,1.3,2.3,1.6,3.9,1.3l0.9-0.9L53.3,55.7z M53.3,55.7"/>
	<path class="st5" d="M64.3,79.7c-0.5,0.4-0.9,1-0.9,1.7c0,0.2,0,0.3,0.1,0.5c-0.6-0.4-1-1-1-1.8c0-0.2,0-0.4,0.1-0.6h1.5L64.3,79.7
		z M64.3,79.7"/>
	<path class="st6" d="M64.3,79.7c-0.5,0.4-0.9,1-0.9,1.7c0,0.2,0,0.3,0.1,0.5c-0.6-0.4-1-1-1-1.8c0-0.2,0-0.4,0.1-0.6h1.5L64.3,79.7
		z M64.3,79.7"/>
	<path class="st5" d="M68.1,79.7c-0.5,0.4-0.9,1-0.9,1.7c0,0.2,0,0.3,0.1,0.5c-0.6-0.4-1-1-1-1.8c0-0.2,0-0.4,0.1-0.6h1.5L68.1,79.7
		z M68.1,79.7"/>
	<path class="st6" d="M68.1,79.7c-0.5,0.4-0.9,1-0.9,1.7c0,0.2,0,0.3,0.1,0.5c-0.6-0.4-1-1-1-1.8c0-0.2,0-0.4,0.1-0.6h1.5L68.1,79.7
		z M68.1,79.7"/>
	<path class="st5" d="M66.2,79.7c-0.5,0.4-0.9,1-0.9,1.7c0,0.2,0,0.3,0.1,0.5c-0.6-0.4-1-1-1-1.8c0-0.2,0-0.4,0.1-0.6H66L66.2,79.7z
		 M66.2,79.7"/>
	<path class="st6" d="M66.2,79.7c-0.5,0.4-0.9,1-0.9,1.7c0,0.2,0,0.3,0.1,0.5c-0.6-0.4-1-1-1-1.8c0-0.2,0-0.4,0.1-0.6H66L66.2,79.7z
		 M66.2,79.7"/>
	<path class="st5" d="M72.1,79.7c-0.5,0.4-0.9,1-0.9,1.7c0,0.2,0,0.3,0.1,0.5c-0.6-0.4-1-1-1-1.8c0-0.2,0-0.4,0.1-0.6h1.5L72.1,79.7
		z M72.1,79.7"/>
	<path class="st6" d="M72.1,79.7c-0.5,0.4-0.9,1-0.9,1.7c0,0.2,0,0.3,0.1,0.5c-0.6-0.4-1-1-1-1.8c0-0.2,0-0.4,0.1-0.6h1.5L72.1,79.7
		z M72.1,79.7"/>
	<path class="st5" d="M76,79.7c-0.5,0.4-0.9,1-0.9,1.7c0,0.2,0,0.3,0.1,0.5c-0.6-0.4-1-1-1-1.8c0-0.2,0-0.4,0.1-0.6h1.5L76,79.7z
		 M76,79.7"/>
	<path class="st6" d="M76,79.7c-0.5,0.4-0.9,1-0.9,1.7c0,0.2,0,0.3,0.1,0.5c-0.6-0.4-1-1-1-1.8c0-0.2,0-0.4,0.1-0.6h1.5L76,79.7z
		 M76,79.7"/>
	<path class="st5" d="M74.1,79.7c-0.5,0.4-0.9,1-0.9,1.7c0,0.2,0,0.3,0.1,0.5c-0.6-0.4-1-1-1-1.8c0-0.2,0-0.4,0.1-0.6h1.5L74.1,79.7
		z M74.1,79.7"/>
	<path class="st6" d="M74.1,79.7c-0.5,0.4-0.9,1-0.9,1.7c0,0.2,0,0.3,0.1,0.5c-0.6-0.4-1-1-1-1.8c0-0.2,0-0.4,0.1-0.6h1.5L74.1,79.7
		z M74.1,79.7"/>
	<path class="st5" d="M47.6,79.7c-0.5,0.4-0.9,1-0.9,1.7c0,0.2,0,0.3,0.1,0.5c-0.6-0.4-1-1-1-1.8c0-0.2,0-0.4,0.1-0.6h1.5L47.6,79.7
		z M47.6,79.7"/>
	<path class="st6" d="M47.6,79.7c-0.5,0.4-0.9,1-0.9,1.7c0,0.2,0,0.3,0.1,0.5c-0.6-0.4-1-1-1-1.8c0-0.2,0-0.4,0.1-0.6h1.5L47.6,79.7
		z M47.6,79.7"/>
	<path class="st5" d="M51.4,79.7c-0.5,0.4-0.9,1-0.9,1.7c0,0.2,0,0.3,0.1,0.5c-0.6-0.4-1-1-1-1.8c0-0.2,0-0.4,0.1-0.6h1.5L51.4,79.7
		z M51.4,79.7"/>
	<path class="st6" d="M51.4,79.7c-0.5,0.4-0.9,1-0.9,1.7c0,0.2,0,0.3,0.1,0.5c-0.6-0.4-1-1-1-1.8c0-0.2,0-0.4,0.1-0.6h1.5L51.4,79.7
		z M51.4,79.7"/>
	<path class="st5" d="M49.5,79.7c-0.5,0.4-0.9,1-0.9,1.7c0,0.2,0,0.3,0.1,0.5c-0.6-0.4-1-1-1-1.8c0-0.2,0-0.4,0.1-0.6h1.5L49.5,79.7
		z M49.5,79.7"/>
	<path class="st6" d="M49.5,79.7c-0.5,0.4-0.9,1-0.9,1.7c0,0.2,0,0.3,0.1,0.5c-0.6-0.4-1-1-1-1.8c0-0.2,0-0.4,0.1-0.6h1.5L49.5,79.7
		z M49.5,79.7"/>
	<path class="st5" d="M41.5,63.5c-0.5-0.4-0.9-1-0.9-1.7c0-0.2,0-0.3,0.1-0.5c-0.6,0.4-1,1-1,1.8c0,0.2,0.1,0.5,0.2,0.6l1.4-0.1
		L41.5,63.5z M41.5,63.5"/>
	<path class="st6" d="M41.5,63.5c-0.5-0.4-0.9-1-0.9-1.7c0-0.2,0-0.3,0.1-0.5c-0.6,0.4-1,1-1,1.8c0,0.2,0.1,0.5,0.2,0.6l1.4-0.1
		L41.5,63.5z M41.5,63.5"/>
	<path class="st5" d="M45.3,63.5c-0.5-0.4-0.9-1-0.9-1.7c0-0.2,0-0.3,0.1-0.5c-0.6,0.4-1,1-1,1.8c0,0.2,0,0.4,0.1,0.6h1.5L45.3,63.5
		z M45.3,63.5"/>
	<path class="st6" d="M45.3,63.5c-0.5-0.4-0.9-1-0.9-1.7c0-0.2,0-0.3,0.1-0.5c-0.6,0.4-1,1-1,1.8c0,0.2,0,0.4,0.1,0.6h1.5L45.3,63.5
		z M45.3,63.5"/>
	<path class="st5" d="M43.4,63.5c-0.5-0.4-0.9-1-0.9-1.7c0-0.2,0-0.3,0.1-0.5c-0.6,0.4-1,1-1,1.8c0,0.2,0,0.4,0.1,0.6h1.5L43.4,63.5
		z M43.4,63.5"/>
	<path class="st6" d="M43.4,63.5c-0.5-0.4-0.9-1-0.9-1.7c0-0.2,0-0.3,0.1-0.5c-0.6,0.4-1,1-1,1.8c0,0.2,0,0.4,0.1,0.6h1.5L43.4,63.5
		z M43.4,63.5"/>
	<path class="st5" d="M66.4,75.4c-3.1-3-3.6-5.7-2-8.1l7.6,0.4c-0.3,3.2-3.1,4.9-0.3,8.1c-1.1,1.1-2.6,2.2-3,4.2h-6.3
		c0.3-1.3,1.5-2.2,2.8-2.1C66.3,77.2,66.7,76.5,66.4,75.4L66.4,75.4z M66.4,75.4"/>
	<path class="st6" d="M66.4,75.4c-3.1-3-3.6-5.7-2-8.1l7.6,0.4c-0.3,3.2-3.1,4.9-0.3,8.1c-1.1,1.1-2.6,2.2-3,4.2h-6.3
		c0.3-1.3,1.5-2.2,2.8-2.1C66.3,77.2,66.7,76.5,66.4,75.4L66.4,75.4z M66.4,75.4"/>
	<path class="st5" d="M64.6,55.8c2.4,0.3,4.7-0.2,7.2-1.7c3.1-2,4.6,2.6,0.9,4.5c-2.8,1.4-5.9,1-9.2-0.2L64.6,55.8z M64.6,55.8"/>
	<path class="st6" d="M64.6,55.8c2.4,0.3,4.7-0.2,7.2-1.7c3.1-2,4.6,2.6,0.9,4.5c-2.8,1.4-5.9,1-9.2-0.2L64.6,55.8z M64.6,55.8"/>
	<path class="st5" d="M61.1,52.7c-0.6-2.4-1.9-4.6-4.3-6.5c-3.1-2.4,0.9-5.5,4.1-2.5c2.4,2.3,3.2,5.5,3.2,9.2L61.1,52.7z M61.1,52.7
		"/>
	<path class="st6" d="M61.1,52.7c-0.6-2.4-1.9-4.6-4.3-6.5c-3.1-2.4,0.9-5.5,4.1-2.5c2.4,2.3,3.2,5.5,3.2,9.2L61.1,52.7z M61.1,52.7
		"/>
	<path class="st5" d="M52.2,69.6l-2.5,1.9c-1.5-3.2-3.5-5.5-6.4-6.4c-1.5,0.6-3.3-0.3-3.6-1.9h6.5c2.3,2.2,4.5,3.8,6.8,4.8
		L52.2,69.6z M52.2,69.6"/>
	<path class="st6" d="M52.2,69.6l-2.5,1.9c-1.5-3.2-3.5-5.5-6.4-6.4c-1.5,0.6-3.3-0.3-3.6-1.9h6.5c2.3,2.2,4.5,3.8,6.8,4.8
		L52.2,69.6z M52.2,69.6"/>
	<path class="st5" d="M57.6,61.9c-0.2-2.3-0.2-4.6-0.5-6.9c-0.2-1.2-0.5-2.3-1.5-3.1c0.6-0.2,1-0.6,1.3-1.2
		c-0.8,0.2-1.6,0.4-2.3,0.2c-2.5-0.5-3.8,0-4,1.6c1.3,1.8,2.9,3.8,0.9,5.7c-1.1,3.6-1.7,7.6-0.4,10.4c1.1,2.4,5.2,4.3,7.8,3.5
		c2.6-0.8,5.2-2,7.6-3.4l0.1,0.6l2-1.1l-0.1-0.4c0.3,2.4,2.4,4.9,6.1,5.7c0.5,0.5,0.7,1,0.8,1.5c0.2,1.6-1.4,2-2.3,2.8
		c-1.4-0.1-2.6,0.8-2.8,2.1h6.3c0.4-1.6,1.4-2.7,2.6-3.6l0.1-5.3c-3.8-1.2-2.8-3.8-3.7-6.4c1.4-0.1,2.7-0.2,4-0.6
		c0.5,0.4,0.9,0.8,1.1,1.3c-0.2,0.4-0.3,0.9-0.3,1.4c0,1.2,0.5,2.2,1.4,2.7c0.8-0.6,1.4-1.6,1.4-2.7c0-0.6-0.1-1.1-0.4-1.6
		c-0.2-0.9-0.6-1.5-1.1-2c0.9-0.5,1.8-1.2,2.3-2c1.2-1.8,0.9-4.3-0.6-5.8c-0.8-0.8-2-1.4-3.3-1.4c-1.2,0-2.4,0.5-3.3,1.4
		c-1.3,1.3-1.7,3.1-1.1,4.8c0.4,1.1,1,1.8,1.8,2.4c-1.1,0.2-2.3,0.2-3.4,0.1c-1.1-0.7-2.7-0.9-4.5-0.6c-1.9,0.2-3.5,1.1-5.4,1.5
		C62.5,63.7,57.8,64.4,57.6,61.9L57.6,61.9z M80,61.7c0.9-0.4,1.8-0.9,2.3-1.6c0.8-1.1,0.6-2.5-0.3-3.5c-1.1-1.1-2.8-1.1-3.8,0
		c-0.8,0.8-1,1.9-0.6,2.8c0.4,1.1,1.4,1.5,2.3,2.1C79.9,61.6,79.9,61.6,80,61.7L80,61.7z M80,61.7"/>
	<path class="st6" d="M57.6,61.9c-0.2-2.3-0.2-4.6-0.5-6.9c-0.2-1.2-0.5-2.3-1.5-3.1c0.6-0.2,1-0.6,1.3-1.2
		c-0.8,0.2-1.6,0.4-2.3,0.2c-2.5-0.5-3.8,0-4,1.6c1.3,1.8,2.9,3.8,0.9,5.7c-1.1,3.6-1.7,7.6-0.4,10.4c1.1,2.4,5.2,4.3,7.8,3.5
		c2.6-0.8,5.2-2,7.6-3.4l0.1,0.6l2-1.1l-0.1-0.4c0.3,2.4,2.4,4.9,6.1,5.7c0.5,0.5,0.7,1,0.8,1.5c0.2,1.6-1.4,2-2.3,2.8
		c-1.4-0.1-2.6,0.8-2.8,2.1h6.3c0.4-1.6,1.4-2.7,2.6-3.6l0.1-5.3c-3.8-1.2-2.8-3.8-3.7-6.4c1.4-0.1,2.7-0.2,4-0.6
		c0.5,0.4,0.9,0.8,1.1,1.3c-0.2,0.4-0.3,0.9-0.3,1.4c0,1.2,0.5,2.2,1.4,2.7c0.8-0.6,1.4-1.6,1.4-2.7c0-0.6-0.1-1.1-0.4-1.6
		c-0.2-0.9-0.6-1.5-1.1-2c0.9-0.5,1.8-1.2,2.3-2c1.2-1.8,0.9-4.3-0.6-5.8c-0.8-0.8-2-1.4-3.3-1.4c-1.2,0-2.4,0.5-3.3,1.4
		c-1.3,1.3-1.7,3.1-1.1,4.8c0.4,1.1,1,1.8,1.8,2.4c-1.1,0.2-2.3,0.2-3.4,0.1c-1.1-0.7-2.7-0.9-4.5-0.6c-1.9,0.2-3.5,1.1-5.4,1.5
		C62.5,63.7,57.8,64.4,57.6,61.9L57.6,61.9z M80,61.7c0.9-0.4,1.8-0.9,2.3-1.6c0.8-1.1,0.6-2.5-0.3-3.5c-1.1-1.1-2.8-1.1-3.8,0
		c-0.8,0.8-1,1.9-0.6,2.8c0.4,1.1,1.4,1.5,2.3,2.1C79.9,61.6,79.9,61.6,80,61.7L80,61.7z M80,61.7"/>
	<path class="st5" d="M49.8,62.8l1.5-4.6h2C53,60.8,52,62.5,49.8,62.8L49.8,62.8z M49.8,62.8"/>
	<path class="st6" d="M49.8,62.8l1.5-4.6h2C53,60.8,52,62.5,49.8,62.8L49.8,62.8z M49.8,62.8"/>
	<path class="st5" d="M53.2,52.6c0.4,0,0.7,0.2,0.7,0.4c0,0.2-0.3,0.4-0.7,0.4c-0.4,0-0.7-0.2-0.7-0.4
		C52.5,52.8,52.8,52.6,53.2,52.6L53.2,52.6z M53.2,52.6"/>
	<path class="st13" d="M53.2,52.6c0.4,0,0.7,0.2,0.7,0.4c0,0.2-0.3,0.4-0.7,0.4c-0.4,0-0.7-0.2-0.7-0.4
		C52.5,52.8,52.8,52.6,53.2,52.6L53.2,52.6z M53.2,52.6"/>
	<path class="st14" d="M52.9,52.6c0.2,0,0.4,0.2,0.4,0.4c0,0.2-0.2,0.4-0.4,0.4c-0.2,0-0.4-0.2-0.4-0.4
		C52.5,52.8,52.7,52.6,52.9,52.6L52.9,52.6z M52.9,52.6"/>
	<path class="st6" d="M80,61.7c0.6,0.4,1.2,0.8,1.7,1.4 M77.5,62.3c0.7,0.5,1.5,1,2.2,1.6"/>
	<path class="st14" d="M55.4,60.6h1.2c0,0.7-0.2,1.3-0.6,1.6C55.6,61.9,55.4,61.3,55.4,60.6L55.4,60.6z M53.6,60.6h1.2
		c0,0.7-0.2,1.3-0.6,1.6C53.9,61.9,53.6,61.3,53.6,60.6L53.6,60.6z M54.1,58.3h1.2c0,0.7-0.2,1.3-0.6,1.6
		C54.3,59.6,54.1,59,54.1,58.3L54.1,58.3z M51.1,63h1.2c0,0.7-0.2,1.3-0.6,1.6C51.3,64.2,51.1,63.7,51.1,63L51.1,63z M52.8,63H54
		c0,0.7-0.2,1.3-0.6,1.6C53,64.2,52.8,63.7,52.8,63L52.8,63z M54.5,63h1.2c0,0.7-0.2,1.3-0.6,1.6C54.8,64.2,54.5,63.7,54.5,63
		L54.5,63z M55.8,58.3H57c0,0.7-0.2,1.3-0.6,1.6C56,59.6,55.8,59,55.8,58.3L55.8,58.3z M55.8,58.3"/>
	<path class="st15" d="M55.4,60.6h1.2c0,0.7-0.2,1.3-0.6,1.6C55.6,61.9,55.4,61.3,55.4,60.6L55.4,60.6z M53.6,60.6h1.2
		c0,0.7-0.2,1.3-0.6,1.6C53.9,61.9,53.6,61.3,53.6,60.6L53.6,60.6z M54.1,58.3h1.2c0,0.7-0.2,1.3-0.6,1.6
		C54.3,59.6,54.1,59,54.1,58.3L54.1,58.3z M51.1,63h1.2c0,0.7-0.2,1.3-0.6,1.6C51.3,64.2,51.1,63.7,51.1,63L51.1,63z M52.8,63H54
		c0,0.7-0.2,1.3-0.6,1.6C53,64.2,52.8,63.7,52.8,63L52.8,63z M54.5,63h1.2c0,0.7-0.2,1.3-0.6,1.6C54.8,64.2,54.5,63.7,54.5,63
		L54.5,63z M55.8,58.3H57c0,0.7-0.2,1.3-0.6,1.6C56,59.6,55.8,59,55.8,58.3L55.8,58.3z M55.8,58.3"/>
	<path class="st5" d="M46.2,60.1c-0.8,0.7-2.4,1.2-4.2,1.2c-1.8,0-3.4-0.5-4.2-1.2c1.2,0.2,2.7,0.3,4.2,0.3S45,60.3,46.2,60.1
		L46.2,60.1z M46.2,60.1"/>
	<path class="st13" d="M46.2,60.1c-0.8,0.7-2.4,1.2-4.2,1.2c-1.8,0-3.4-0.5-4.2-1.2c1.2,0.2,2.7,0.3,4.2,0.3S45,60.3,46.2,60.1
		L46.2,60.1z M46.2,60.1"/>
	<path class="st5" d="M42,60.4c1.4,0,3.9-0.8,4.3-2.3c0-0.4-0.6-0.8-1-0.6c0.2-0.7-0.9-1.1-1.2-0.5c0-0.7-1-0.9-1.3-0.3
		c-0.2-0.6-1.2-0.6-1.5,0C41,56.1,40,56.3,39.9,57c-0.3-0.5-1.4-0.1-1.2,0.5c-0.4-0.3-1,0.1-1,0.6C38.1,59.5,40.6,60.4,42,60.4
		L42,60.4z M42,60.4"/>
	<path class="st16" d="M42,60.4c1.4,0,3.9-0.8,4.3-2.3c0-0.4-0.6-0.8-1-0.6c0.2-0.7-0.9-1.1-1.2-0.5c0-0.7-1-0.9-1.3-0.3
		c-0.2-0.6-1.2-0.6-1.5,0C41,56.1,40,56.3,39.9,57c-0.3-0.5-1.4-0.1-1.2,0.5c-0.4-0.3-1,0.1-1,0.6C38.1,59.5,40.6,60.4,42,60.4
		L42,60.4z M42,60.4"/>
	<path class="st17" d="M42,57.9c0.6,0,1,0.5,1,1c0,0.6-0.5,1-1,1c-0.6,0-1-0.5-1-1C41,58.3,41.4,57.9,42,57.9L42,57.9z M42,57.9"/>
	<path class="st5" d="M63,51.9c0.4-2.4,0-4.9-1.4-7.5c-1.9-3.3,3-4.7,4.7-0.7c1.4,3,0.8,6.2-0.6,9.6C64.8,52.8,63.9,52.3,63,51.9
		L63,51.9z M63,51.9"/>
	<path class="st6" d="M63,51.9c0.4-2.4,0-4.9-1.4-7.5c-1.9-3.3,3-4.7,4.7-0.7c1.4,3,0.8,6.2-0.6,9.6C64.8,52.8,63.9,52.3,63,51.9
		L63,51.9z M63,51.9"/>
	<path class="st5" d="M64.8,52.4c1.4-2,2.1-4.4,2-7.3c-0.3-3.8,4.6-2.9,4.5,1.4c-0.1,3.3-2,5.8-4.7,8.2C66,54,65.4,53.2,64.8,52.4
		L64.8,52.4z M64.8,52.4"/>
	<path class="st6" d="M64.8,52.4c1.4-2,2.1-4.4,2-7.3c-0.3-3.8,4.6-2.9,4.5,1.4c-0.1,3.3-2,5.8-4.7,8.2C66,54,65.4,53.2,64.8,52.4
		L64.8,52.4z M64.8,52.4"/>
	<path class="st5" d="M65.8,53.8c2.2-1,4-2.7,5.2-5.3c1.6-3.4,5.4-0.2,3.2,3.4c-1.7,2.8-4.5,4.1-8,4.8l-2.5-0.8L65.8,53.8z
		 M65.8,53.8"/>
	<path class="st6" d="M65.8,53.8c2.2-1,4-2.7,5.2-5.3c1.6-3.4,5.4-0.2,3.2,3.4c-1.7,2.8-4.5,4.1-8,4.8l-2.5-0.8L65.8,53.8z
		 M65.8,53.8"/>
	<path class="st5" d="M59.9,54.9C57.4,63.5,54,71.2,49.4,78c-1.5-0.6-3.3,0.3-3.6,1.9h6.5c1.2-3.1,3.1-5.6,6.3-6.9l0.3-3.4
		c0.3,0.1,0.7,0.1,1.1,0.1c1.3,0,2.4-0.5,3-1.2c-0.2-0.2-0.5-0.5-0.8-0.6c0.1,0,0.1,0,0.2,0c1.5,0,2.9-0.6,3.6-1.4
		c-0.7-0.8-2-1.3-3.4-1.4c0-0.1,0.1-0.1,0.1-0.2c0.1,0,0.1,0,0.2,0c1.6,0,2.9-0.6,3.7-1.4c-0.6-0.7-1.7-1.2-2.9-1.4
		c0-0.1,0-0.2,0.1-0.3c0,0,0.1,0,0.1,0c1.6,0,3-0.6,3.8-1.4c-0.7-0.8-1.9-1.3-3.3-1.4l0-0.2c0.1,0,0.2,0,0.3,0c1.6,0,3-0.6,3.8-1.5
		c-0.7-0.8-1.9-1.3-3.3-1.5c0.1-0.1,0.1-0.1,0.2-0.2h0c1.6,0,3.1-0.6,3.9-1.5c-0.7-0.8-1.9-1.3-3.3-1.5c-0.4-1.3-1.6-2.3-3.1-2.3
		c-1.8,0-3.2,1.4-3.2,3.2C59.6,54,59.7,54.5,59.9,54.9L59.9,54.9z M59.9,54.9"/>
	<path class="st6" d="M59.9,54.9C57.4,63.5,54,71.2,49.4,78c-1.5-0.6-3.3,0.3-3.6,1.9h6.5c1.2-3.1,3.1-5.6,6.3-6.9l0.3-3.4
		c0.3,0.1,0.7,0.1,1.1,0.1c1.3,0,2.4-0.5,3-1.2c-0.2-0.2-0.5-0.5-0.8-0.6c0.1,0,0.1,0,0.2,0c1.5,0,2.9-0.6,3.6-1.4
		c-0.7-0.8-2-1.3-3.4-1.4c0-0.1,0.1-0.1,0.1-0.2c0.1,0,0.1,0,0.2,0c1.6,0,2.9-0.6,3.7-1.4c-0.6-0.7-1.7-1.2-2.9-1.4
		c0-0.1,0-0.2,0.1-0.3c0,0,0.1,0,0.1,0c1.6,0,3-0.6,3.8-1.4c-0.7-0.8-1.9-1.3-3.3-1.4l0-0.2c0.1,0,0.2,0,0.3,0c1.6,0,3-0.6,3.8-1.5
		c-0.7-0.8-1.9-1.3-3.3-1.5c0.1-0.1,0.1-0.1,0.2-0.2h0c1.6,0,3.1-0.6,3.9-1.5c-0.7-0.8-1.9-1.3-3.3-1.5c-0.4-1.3-1.6-2.3-3.1-2.3
		c-1.8,0-3.2,1.4-3.2,3.2C59.6,54,59.7,54.5,59.9,54.9L59.9,54.9z M59.9,54.9"/>
	<path class="st1" d="M23.5,60.7c1.5,1.5,3,3.1,4.3,4.8c-1.4,0.6-2.8,1.3-4.1,2.2c3.3,0.9,6.6,2.2,9.6,3.9c0.6,0.3,1.3,0.7,0.7,1.4
		c0.8-0.4,0.6-1.8,0.5-2.5c-0.2-1.2,0.2-2,0.4-3.3c0.3-1.5-0.2-2.4-1.6-3.1C30.2,62.7,26.9,61.5,23.5,60.7L23.5,60.7z M24.1,72
		c-0.6,0.5-0.2,1.4,0,2.5c0.2,1.1,0,2.1-0.3,3.1c-0.2,0.9-0.4,1.8,0.6,2.2c2.4,0.8,4.4,2.1,6.2,3.8c1.7,1.6,3,3.5,4.4,5.5
		c6.2,8.6,14.9,15.3,25.5,16.9l-0.3-6.6l-0.1-0.2L60,99.1c-8.2-1.8-14.8-7.1-19.7-13.9c-1.6-2.3-3.2-4.5-5.2-6.4
		c-2.5-2.3-5.4-4-8.6-5.2c-0.4-0.1-0.7-0.3-1.1-0.4C24.9,73,23.5,72.8,24.1,72L24.1,72z M24.1,72"/>
	<path class="st17" d="M23.5,60.7c3.4,0.8,6.7,1.9,9.8,3.4c1.4,0.6,1.9,1.5,1.6,3.1c0,0.1,0,0.1,0,0.2c-0.3-0.8-0.8-1.3-1.6-1.7
		c-1.6-0.8-3.2-1.4-4.9-2c-1-0.3-2-0.6-3-0.9C24.9,62.1,24.2,61.4,23.5,60.7L23.5,60.7z M24.1,72c-0.6,0.4-0.3,1.1-0.1,2.1
		c0.3,0.2,0.7,0.4,1,0.5c0.8,0.3,1.6,0.6,2.4,0.9c2.5,1.1,4.7,2.5,6.7,4.3c1.9,1.7,3.3,3.8,4.8,5.9l0.2,0.3v0h0
		c0.8,1.1,1.7,2.2,2.6,3.3c0.9,1,1.9,2,2.8,3c3.4,3.2,7.4,5.8,11.8,7.3l0.2,0.4l3.8,3l-0.1-3.5c0-0.3-0.1-0.4-0.5-0.5
		c-8.1-1.9-14.7-7.1-19.5-13.9c-1.6-2.3-3.2-4.5-5.2-6.4c-2.8-2.6-6.1-4.4-9.6-5.5C24.6,73,23.6,72.7,24.1,72L24.1,72z M24.1,72"/>
	<path class="st2" d="M25.5,66.7c-0.6,0.3-1.1,0.7-1.7,1c3.3,0.9,6.6,2.2,9.6,3.9c0.6,0.3,1.2,0.8,0.7,1.4c0.7-0.4,0.6-1.5,0.5-2.3
		c-0.2-0.3-0.5-0.5-0.8-0.6C31.1,68.7,28.3,67.5,25.5,66.7L25.5,66.7z M23.7,77.8c0,0.2-0.1,0.4-0.1,0.5c0,0,0,0,0,0
		c-0.1,0.7,0,1.3,0.8,1.5c0.1,0,0.3,0.1,0.4,0.1v0.1c2.1,0.9,4.1,2,5.8,3.6c1.7,1.6,3,3.5,4.4,5.5c6.2,8.6,14.9,15.3,25.5,16.9
		l-0.1-1.5c-0.6-0.1-1.3-0.2-1.9-0.4c-1.5-0.3-2.9-0.8-4.3-1.3c-7.3-2.8-13.4-8.1-18-14.6l-0.3-0.4c-1.3-1.8-2.6-3.7-4.3-5.2
		c-1.8-1.7-3.8-2.9-6-3.8c-0.3-0.1-0.7-0.3-1.1-0.4C24.2,78.3,23.9,78.1,23.7,77.8L23.7,77.8z M23.7,77.8"/>
	<path class="st3" d="M23.5,60.7c1.5,1.5,3,3.1,4.3,4.8c-1.4,0.6-2.8,1.3-4.1,2.2c3.3,0.9,6.6,2.2,9.6,3.9c0.6,0.3,1.3,0.7,0.7,1.4
		c0.8-0.4,0.6-1.8,0.5-2.5c-0.2-1.2,0.2-2,0.4-3.3c0.3-1.5-0.2-2.4-1.6-3.1C30.2,62.7,26.9,61.5,23.5,60.7L23.5,60.7z M24.1,72
		c-0.6,0.5-0.2,1.4,0,2.5c0.2,1.1,0,2.1-0.3,3.1c-0.2,0.9-0.4,1.8,0.6,2.2c2.4,0.8,4.4,2.1,6.2,3.8c1.7,1.6,3,3.5,4.4,5.5
		c6.2,8.6,14.9,15.3,25.5,16.9l-0.3-6.6c0-0.1-0.1-0.3-0.2-0.3c-8.2-1.8-14.8-7.1-19.7-13.9c-1.6-2.3-3.2-4.5-5.2-6.4
		c-2.5-2.3-5.4-4-8.6-5.2c-0.4-0.1-0.7-0.3-1.1-0.4C24.9,73,23.5,72.8,24.1,72L24.1,72z M24.1,72"/>
	<path class="st1" d="M100.9,60.7c-1.5,1.5-3,3.1-4.3,4.8c1.4,0.6,2.8,1.3,4.1,2.2c-3.3,0.9-6.6,2.2-9.6,3.9
		c-0.6,0.3-1.3,0.7-0.7,1.4c-0.8-0.4-0.6-1.8-0.5-2.5c0.2-1.2-0.2-2-0.4-3.3c-0.3-1.5,0.2-2.4,1.6-3.1
		C94.2,62.7,97.5,61.5,100.9,60.7L100.9,60.7z M100.3,72c0.7,0.5,0.2,1.4,0,2.5c-0.2,1.1,0,2.1,0.3,3.1c0.2,0.9,0.4,1.8-0.6,2.2
		c-2.4,0.8-4.4,2.1-6.2,3.8c-1.7,1.6-3,3.5-4.4,5.5c-6.2,8.6-14.9,15.3-25.5,16.9l0.3-6.6l0.1-0.2l0.1-0.1
		c8.2-1.8,14.8-7.1,19.7-13.9c1.6-2.3,3.2-4.5,5.2-6.4c2.5-2.3,5.4-4,8.6-5.2c0.4-0.1,0.7-0.3,1.1-0.4C99.5,73,100.9,72.8,100.3,72
		L100.3,72z M100.3,72"/>
	<path class="st17" d="M100.9,60.7c-3.4,0.8-6.7,1.9-9.8,3.4c-1.4,0.6-1.9,1.5-1.6,3.1c0,0.1,0,0.1,0,0.2c0.3-0.8,0.8-1.3,1.6-1.7
		c1.6-0.8,3.2-1.4,4.9-2c1-0.3,2-0.6,3-0.9C99.6,62.1,100.2,61.4,100.9,60.7L100.9,60.7z M100.3,72c0.6,0.4,0.3,1.1,0.1,2.1
		c-0.3,0.2-0.7,0.4-1,0.5c-0.8,0.3-1.6,0.6-2.4,0.9c-2.5,1.1-4.7,2.5-6.7,4.3c-1.9,1.7-3.3,3.8-4.8,5.9L85.3,86v0h0
		c-0.8,1.1-1.7,2.2-2.6,3.3c-0.9,1-1.9,2-2.8,3c-3.4,3.2-7.4,5.8-11.8,7.3l-0.2,0.4l-3.8,3l0.1-3.5c0-0.3,0.1-0.4,0.5-0.5
		c8.1-1.9,14.7-7.1,19.5-13.9c1.6-2.3,3.2-4.5,5.2-6.4c2.8-2.6,6.1-4.4,9.6-5.5C99.8,73,100.8,72.7,100.3,72L100.3,72z M100.3,72"/>
	<path class="st2" d="M99,66.7c0.6,0.3,1.1,0.7,1.7,1c-3.3,0.9-6.6,2.2-9.6,3.9c-0.6,0.3-1.2,0.8-0.7,1.4c-0.7-0.4-0.6-1.5-0.5-2.3
		c0.2-0.3,0.5-0.5,0.8-0.6C93.3,68.7,96.1,67.5,99,66.7L99,66.7z M100.7,77.8c0,0.2,0.1,0.4,0.1,0.5c0,0,0,0,0,0
		c0.1,0.7,0,1.3-0.8,1.5c-0.1,0-0.3,0.1-0.4,0.1v0.1c-2.1,0.9-4.1,2-5.8,3.6c-1.7,1.6-3,3.5-4.4,5.5c-6.2,8.6-14.9,15.3-25.5,16.9
		l0.1-1.5c0.6-0.1,1.3-0.2,1.9-0.4c1.5-0.3,2.9-0.8,4.3-1.3c7.3-2.8,13.4-8.1,18-14.6l0.3-0.4c1.3-1.8,2.6-3.7,4.3-5.2
		c1.8-1.7,3.8-2.9,6-3.8c0.3-0.1,0.7-0.3,1.1-0.4C100.2,78.3,100.5,78.1,100.7,77.8L100.7,77.8z M100.7,77.8"/>
	<g>
		<defs>
			<rect id="SVGID_8_" x="22.9" y="19" width="78.6" height="89.1"/>
		</defs>
		<clipPath id="SVGID_9_">
			<use xlink:href="#SVGID_8_"  style="overflow:visible;"/>
		</clipPath>
		<path class="st18" d="M100.9,60.7c-1.5,1.5-3,3.1-4.3,4.8c1.4,0.6,2.8,1.3,4.1,2.2c-3.3,0.9-6.6,2.2-9.6,3.9
			c-0.6,0.3-1.3,0.7-0.7,1.4c-0.8-0.4-0.6-1.8-0.5-2.5c0.2-1.2-0.2-2-0.4-3.3c-0.3-1.5,0.2-2.4,1.6-3.1
			C94.2,62.7,97.5,61.5,100.9,60.7L100.9,60.7z M100.3,72c0.7,0.5,0.2,1.4,0,2.5c-0.2,1.1,0,2.1,0.3,3.1c0.2,0.9,0.4,1.8-0.6,2.2
			c-2.4,0.8-4.4,2.1-6.2,3.8c-1.7,1.6-3,3.5-4.4,5.5c-6.2,8.6-14.9,15.3-25.5,16.9l0.3-6.6c0-0.1,0.1-0.2,0.2-0.3
			c8.2-1.8,14.8-7.1,19.7-13.9c1.6-2.3,3.2-4.5,5.2-6.4c2.5-2.3,5.4-4,8.6-5.2c0.4-0.1,0.7-0.3,1.1-0.4C99.5,73,100.9,72.8,100.3,72
			L100.3,72z M100.3,72"/>
		<path class="st18" d="M56.9,100c-0.2,0-0.5-0.1-0.5-0.4c0-0.2,0.1-0.5,0.4-0.5c0.9-0.2,2.1,1,3.1,0.8c0.2,0,0.4-0.3,0.4-0.5
			c0-0.2-0.3-0.4-0.5-0.4 M67.5,100c0.2,0,0.5-0.1,0.5-0.4c0-0.2-0.1-0.5-0.4-0.5c-0.9-0.2-2.1,1-3.1,0.8c-0.2,0-0.4-0.3-0.4-0.5
			c0-0.2,0.3-0.4,0.5-0.4"/>
		<path class="st19" d="M68,107.1c1.2-0.4,1.8-0.8,0.9-2.1c-1-1.6-1.3-3.3-1-5.2c-3.9,1.6-7.5,1.6-11.4,0c0.3,1.9,0,3.6-1,5.2
			c-0.8,1.3-0.3,1.7,0.9,2.1C60,108.2,64.4,108.2,68,107.1L68,107.1z M68,107.1"/>
		<path class="st20" d="M68,107.1c1.2-0.4,1.8-0.8,0.9-2.1c-0.1-0.2-0.3-0.5-0.4-0.7l0,0c0.3,0.7-0.2,1.1-0.9,1.3
			c-3.1,0.9-7.6,0.9-10.7,0c-0.7-0.2-1.3-0.5-0.9-1.3l0,0c-0.1,0.2-0.2,0.5-0.4,0.7c-0.8,1.3-0.3,1.7,0.9,2.1
			C60,108.2,64.4,108.2,68,107.1L68,107.1z M68,107.1"/>
	</g>
	<path class="st17" d="M56.6,101.2c0-0.5,0-0.8-0.1-1.4c3.9,1.6,7.5,1.6,11.4,0c-0.1,0.5-0.1,0.8-0.1,1.3c-0.3,0.7-1,0.7-1.6,0.9
		c-2.9,0.8-5.5,0.7-8.4-0.1C57.3,101.8,56.8,101.7,56.6,101.2L56.6,101.2z M56.6,101.2"/>
	<g>
		<defs>
			<rect id="SVGID_10_" x="22.9" y="19" width="78.6" height="89.1"/>
		</defs>
		<clipPath id="SVGID_11_">
			<use xlink:href="#SVGID_10_"  style="overflow:visible;"/>
		</clipPath>
		<path class="st21" d="M68,107.1c1.2-0.4,1.8-0.8,0.9-2.1c-1-1.6-1.3-3.3-1-5.2c-3.9,1.6-7.5,1.6-11.4,0c0.3,1.9,0,3.6-1,5.2
			c-0.8,1.3-0.3,1.7,0.9,2.1C60,108.2,64.4,108.2,68,107.1L68,107.1z M68,107.1"/>
	</g>
	<path class="st14" d="M75.2,96.7l1.5-1.1l0.5,0.6l-0.1,0.1C77,96.1,76.8,96,76.7,96c-0.1,0-0.3,0-0.4,0.1l-0.4,0.3c0,0,0,0-0.1,0.1
		c0,0,0,0.1,0,0.1l0.5,0.7l0.2-0.1c0.1-0.1,0.1-0.1,0.1-0.2c0-0.1,0-0.2-0.1-0.3l0.1-0.1l0.6,0.9l-0.1,0.1c-0.1-0.1-0.2-0.2-0.3-0.2
		c-0.1,0-0.2,0-0.3,0.1l-0.1,0.1L77,98c0,0,0,0,0.1,0c0,0,0.1,0,0.1,0l0.3-0.2c0.3-0.2,0.4-0.6,0.1-1l0.1-0.1l0.5,0.7l-1.6,1.1
		l-0.1-0.1l0.1-0.1c0.1,0,0.1-0.1,0.1-0.1c0,0,0-0.1,0-0.1l-1.1-1.5c0,0,0-0.1-0.1-0.1c0,0-0.1,0-0.1,0L75.2,96.7L75.2,96.7z
		 M80.3,95.6l0.4,0.5l-0.1,0.1c-0.1-0.1-0.2-0.2-0.2-0.2c-0.1,0-0.2,0-0.3,0c-0.1,0-0.2,0.1-0.3,0.2l-0.7,0.6
		c-0.1,0.1-0.2,0.2-0.3,0.4c0,0.1,0,0.3,0.1,0.5l-0.1,0.1l-0.4-0.6c0.1-0.1,0.2-0.2,0.2-0.3c0-0.1,0-0.2,0-0.4
		c0-0.2-0.1-0.3-0.2-0.5c-0.1-0.2-0.2-0.4-0.4-0.6c-0.1-0.1-0.2-0.2-0.3-0.2c-0.1,0-0.2,0-0.2,0.1l0,0l-0.1-0.1l1.5-1.2L79,94
		l-0.1,0.1c0,0-0.1,0.1-0.1,0.1c0,0,0,0.1,0.1,0.2l1,1.3c0.1,0.1,0.2,0.1,0.3,0L80.3,95.6z M79.8,96l-1.3-1.6l-0.3,0.3
		c-0.1,0.1-0.2,0.1-0.2,0.2c0,0.1,0,0.1,0,0.2c0,0.1,0.1,0.2,0.2,0.4c0.3,0.4,0.4,0.7,0.5,0.9c0.1,0.2,0,0.4,0,0.6L79.8,96z
		 M80.9,94.5l-0.2-1.8l0,0c0,0-0.1-0.1-0.1-0.1c0,0-0.1,0-0.1,0.1l-0.1,0.1l-0.1-0.1L81,92l0.1,0.1l-0.1,0.1c0,0-0.1,0.1-0.1,0.1
		c0,0,0,0.1,0.1,0.2l1.1,1.2c0,0,0.1,0.1,0.1,0.1c0,0,0,0,0.1,0c0,0,0.1,0,0.1-0.1l0.1-0.1l0.1,0.1l-0.7,0.7l-0.1-0.1l0.1-0.1
		c0,0,0.1-0.1,0.1-0.1c0,0,0-0.1-0.1-0.1l-1-1.1l0.2,1.8c0,0,0.1,0.1,0.1,0.1c0,0,0,0,0.1,0c0,0,0.1,0,0.1-0.1l0.1-0.1l0.1,0.1
		l-0.7,0.7l-0.1-0.1l0.1-0.1c0,0,0.1-0.1,0-0.1c0,0,0-0.1-0.1-0.1l-1.1-1.2c-0.1-0.1-0.1-0.1-0.1-0.1c0,0-0.1,0-0.1,0.1l-0.1,0.1
		l-0.1-0.1l0.7-0.7L80,93l-0.1,0.1c0,0-0.1,0.1-0.1,0.1c0,0,0,0.1,0.1,0.1L80.9,94.5z M81.2,91.7l0.7-0.7L82,91l-0.1,0.1
		c0,0-0.1,0.1-0.1,0.1c0,0,0,0.1,0.1,0.1l0.5,0.5l0.7-0.8l-0.5-0.5c-0.1-0.1-0.1-0.1-0.1-0.1c0,0-0.1,0-0.1,0.1l-0.1,0.1l-0.1-0.1
		l0.7-0.7l0.1,0.1l-0.1,0.1c0,0,0,0.1-0.1,0.1c0,0,0,0,0,0.1c0,0,0,0,0.1,0.1l1.2,1.1c0.1,0.1,0.1,0.1,0.1,0.1c0,0,0.1,0,0.1-0.1
		l0.1-0.1l0.1,0.1l-0.7,0.7l-0.1-0.1l0.1-0.1c0,0,0.1-0.1,0.1-0.1c0,0,0-0.1-0.1-0.1l-0.6-0.5L82.6,92l0.6,0.6
		c0.1,0.1,0.1,0.1,0.1,0.1c0,0,0.1,0,0.1-0.1l0.1-0.1l0.1,0.1l-0.7,0.7l-0.1-0.1L83,93c0,0,0,0,0-0.1c0,0,0,0,0-0.1c0,0,0,0-0.1-0.1
		l-1.2-1.1c-0.1-0.1-0.1-0.1-0.1-0.1c0,0-0.1,0-0.1,0.1L81.2,91.7L81.2,91.7z M84.4,88.4l-0.1-0.2l0.1-0.1l0.7,0.6L85,88.8
		c-0.2-0.1-0.4-0.2-0.6-0.2c-0.2,0-0.4,0.1-0.5,0.2c-0.1,0.1-0.2,0.3-0.1,0.5c0.1,0.2,0.2,0.4,0.6,0.7c0.3,0.2,0.5,0.3,0.7,0.4
		c0.2,0,0.4-0.1,0.5-0.2c0.1-0.1,0.2-0.3,0.2-0.5c0-0.2-0.1-0.4-0.3-0.5l0.1-0.1c0.2,0.2,0.3,0.4,0.3,0.6c0,0.2-0.1,0.4-0.2,0.6
		c-0.1,0.1-0.3,0.3-0.5,0.3c-0.2,0.1-0.4,0.1-0.6,0c-0.2,0-0.4-0.1-0.6-0.3c-0.2-0.1-0.3-0.3-0.4-0.5c-0.1-0.2-0.1-0.4-0.1-0.6
		c0-0.2,0.1-0.3,0.2-0.5c0.1-0.1,0.1-0.1,0.2-0.2C84.1,88.5,84.2,88.5,84.4,88.4L84.4,88.4z M84.7,87.7l1.1-1.5l0.7,0.5l-0.1,0.1
		c-0.5-0.3-0.8-0.3-1,0c0,0-0.1,0.1-0.1,0.1c0,0,0,0.1,0.1,0.1l1.5,1.1c0,0,0.1,0,0.1,0c0,0,0.1,0,0.1-0.1l0.1-0.2l0.1,0.1l-0.6,0.9
		l-0.1-0.1l0.2-0.2c0,0,0-0.1,0-0.1c0,0,0,0,0-0.1l-1.5-1.1c0,0-0.1,0-0.1,0c0,0-0.1,0-0.1,0.1c-0.1,0.1-0.1,0.3-0.1,0.4
		c0,0.1,0.2,0.3,0.3,0.5l-0.1,0.1L84.7,87.7z M86.1,85.8l0.7-1c0.1-0.2,0.3-0.3,0.4-0.3c0.2,0,0.3,0,0.4,0.1
		c0.1,0.1,0.2,0.2,0.2,0.3c0,0.1,0,0.3-0.1,0.4c0.2-0.1,0.3-0.2,0.5-0.3c0.1,0,0.3,0,0.4,0.1c0.1,0.1,0.2,0.2,0.2,0.3
		c0,0.1,0,0.2,0,0.4c0,0.2-0.1,0.3-0.2,0.5L88,87.2l-0.1-0.1L88,87c0,0,0.1-0.1,0.1-0.1c0,0,0-0.1,0-0.1l-1.5-1.1c0,0-0.1,0-0.1,0
		c0,0-0.1,0-0.1,0.1L86.1,85.8L86.1,85.8z M87.4,85.9l0.3-0.4c0.1-0.1,0.1-0.2,0.1-0.3c0-0.1-0.1-0.2-0.2-0.3
		c-0.1-0.1-0.2-0.1-0.2-0.1c-0.1,0-0.1,0-0.2,0.1c-0.1,0-0.2,0.1-0.3,0.3c-0.1,0.1-0.1,0.2-0.1,0.2c0,0,0,0.1,0.1,0.1L87.4,85.9z
		 M87.5,86l0.7,0.5c0,0,0.1,0,0.1,0c0,0,0.1,0,0.1-0.1l0.2-0.2c0.1-0.2,0.2-0.3,0.1-0.4c0-0.1-0.1-0.2-0.2-0.3
		c-0.1-0.1-0.3-0.1-0.4-0.1c-0.1,0-0.2,0.1-0.3,0.2L87.5,86z M87.7,83.6l1.1-1.4l0.6,0.4l-0.1,0.1c-0.2-0.1-0.4-0.2-0.5-0.2
		c-0.1,0-0.2,0.1-0.3,0.2l-0.3,0.4c0,0,0,0.1,0,0.1c0,0,0,0.1,0.1,0.1l0.6,0.5l0.1-0.2c0.1-0.1,0.1-0.2,0.1-0.3
		c0-0.1-0.1-0.2-0.2-0.3l0.1-0.1l0.8,0.7l-0.1,0.1c-0.1-0.1-0.3-0.2-0.4-0.1c-0.1,0-0.2,0.1-0.3,0.1L89,83.8l0.7,0.6
		c0,0,0.1,0,0.1,0c0,0,0.1,0,0.1-0.1l0.2-0.3c0.2-0.3,0.2-0.6-0.2-1L90,83l0.7,0.6L89.5,85L89.4,85l0.1-0.1c0,0,0.1-0.1,0.1-0.1
		c0,0,0-0.1-0.1-0.1l-1.4-1.1c0,0-0.1,0-0.1,0c0,0-0.1,0-0.1,0.1L87.7,83.6L87.7,83.6z M87.7,83.6"/>
	<path class="st22" d="M75.2,96.7l1.5-1.1l0.5,0.6l-0.1,0.1C77,96.1,76.8,96,76.7,96c-0.1,0-0.3,0-0.4,0.1l-0.4,0.3c0,0,0,0-0.1,0.1
		c0,0,0,0.1,0,0.1l0.5,0.7l0.2-0.1c0.1-0.1,0.1-0.1,0.1-0.2c0-0.1,0-0.2-0.1-0.3l0.1-0.1l0.6,0.9l-0.1,0.1c-0.1-0.1-0.2-0.2-0.3-0.2
		c-0.1,0-0.2,0-0.3,0.1l-0.1,0.1L77,98c0,0,0,0,0.1,0c0,0,0.1,0,0.1,0l0.3-0.2c0.3-0.2,0.4-0.6,0.1-1l0.1-0.1l0.5,0.7l-1.6,1.1
		l-0.1-0.1l0.1-0.1c0.1,0,0.1-0.1,0.1-0.1c0,0,0-0.1,0-0.1l-1.1-1.5c0,0,0-0.1-0.1-0.1c0,0-0.1,0-0.1,0L75.2,96.7L75.2,96.7z
		 M80.3,95.6l0.4,0.5l-0.1,0.1c-0.1-0.1-0.2-0.2-0.2-0.2c-0.1,0-0.2,0-0.3,0c-0.1,0-0.2,0.1-0.3,0.2l-0.7,0.6
		c-0.1,0.1-0.2,0.2-0.3,0.4c0,0.1,0,0.3,0.1,0.5l-0.1,0.1l-0.4-0.6c0.1-0.1,0.2-0.2,0.2-0.3c0-0.1,0-0.2,0-0.4
		c0-0.2-0.1-0.3-0.2-0.5c-0.1-0.2-0.2-0.4-0.4-0.6c-0.1-0.1-0.2-0.2-0.3-0.2c-0.1,0-0.2,0-0.2,0.1l0,0l-0.1-0.1l1.5-1.2L79,94
		l-0.1,0.1c0,0-0.1,0.1-0.1,0.1c0,0,0,0.1,0.1,0.2l1,1.3c0.1,0.1,0.2,0.1,0.3,0L80.3,95.6z M79.8,96l-1.3-1.6l-0.3,0.3
		c-0.1,0.1-0.2,0.1-0.2,0.2c0,0.1,0,0.1,0,0.2c0,0.1,0.1,0.2,0.2,0.4c0.3,0.4,0.4,0.7,0.5,0.9c0.1,0.2,0,0.4,0,0.6L79.8,96z
		 M80.9,94.5l-0.2-1.8l0,0c0,0-0.1-0.1-0.1-0.1c0,0-0.1,0-0.1,0.1l-0.1,0.1l-0.1-0.1L81,92l0.1,0.1l-0.1,0.1c0,0-0.1,0.1-0.1,0.1
		c0,0,0,0.1,0.1,0.2l1.1,1.2c0,0,0.1,0.1,0.1,0.1c0,0,0,0,0.1,0c0,0,0.1,0,0.1-0.1l0.1-0.1l0.1,0.1l-0.7,0.7l-0.1-0.1l0.1-0.1
		c0,0,0.1-0.1,0.1-0.1c0,0,0-0.1-0.1-0.1l-1-1.1l0.2,1.8c0,0,0.1,0.1,0.1,0.1c0,0,0,0,0.1,0c0,0,0.1,0,0.1-0.1l0.1-0.1l0.1,0.1
		l-0.7,0.7l-0.1-0.1l0.1-0.1c0,0,0.1-0.1,0-0.1c0,0,0-0.1-0.1-0.1l-1.1-1.2c-0.1-0.1-0.1-0.1-0.1-0.1c0,0-0.1,0-0.1,0.1l-0.1,0.1
		l-0.1-0.1l0.7-0.7L80,93l-0.1,0.1c0,0-0.1,0.1-0.1,0.1c0,0,0,0.1,0.1,0.1L80.9,94.5z M81.2,91.7l0.7-0.7L82,91l-0.1,0.1
		c0,0-0.1,0.1-0.1,0.1c0,0,0,0.1,0.1,0.1l0.5,0.5l0.7-0.8l-0.5-0.5c-0.1-0.1-0.1-0.1-0.1-0.1c0,0-0.1,0-0.1,0.1l-0.1,0.1l-0.1-0.1
		l0.7-0.7l0.1,0.1l-0.1,0.1c0,0,0,0.1-0.1,0.1c0,0,0,0,0,0.1c0,0,0,0,0.1,0.1l1.2,1.1c0.1,0.1,0.1,0.1,0.1,0.1c0,0,0.1,0,0.1-0.1
		l0.1-0.1l0.1,0.1l-0.7,0.7l-0.1-0.1l0.1-0.1c0,0,0.1-0.1,0.1-0.1c0,0,0-0.1-0.1-0.1l-0.6-0.5L82.6,92l0.6,0.6
		c0.1,0.1,0.1,0.1,0.1,0.1c0,0,0.1,0,0.1-0.1l0.1-0.1l0.1,0.1l-0.7,0.7l-0.1-0.1L83,93c0,0,0,0,0-0.1c0,0,0,0,0-0.1c0,0,0,0-0.1-0.1
		l-1.2-1.1c-0.1-0.1-0.1-0.1-0.1-0.1c0,0-0.1,0-0.1,0.1L81.2,91.7L81.2,91.7z M84.4,88.4l-0.1-0.2l0.1-0.1l0.7,0.6L85,88.8
		c-0.2-0.1-0.4-0.2-0.6-0.2c-0.2,0-0.4,0.1-0.5,0.2c-0.1,0.1-0.2,0.3-0.1,0.5c0.1,0.2,0.2,0.4,0.6,0.7c0.3,0.2,0.5,0.3,0.7,0.4
		c0.2,0,0.4-0.1,0.5-0.2c0.1-0.1,0.2-0.3,0.2-0.5c0-0.2-0.1-0.4-0.3-0.5l0.1-0.1c0.2,0.2,0.3,0.4,0.3,0.6c0,0.2-0.1,0.4-0.2,0.6
		c-0.1,0.1-0.3,0.3-0.5,0.3c-0.2,0.1-0.4,0.1-0.6,0c-0.2,0-0.4-0.1-0.6-0.3c-0.2-0.1-0.3-0.3-0.4-0.5c-0.1-0.2-0.1-0.4-0.1-0.6
		c0-0.2,0.1-0.3,0.2-0.5c0.1-0.1,0.1-0.1,0.2-0.2C84.1,88.5,84.2,88.5,84.4,88.4L84.4,88.4z M84.7,87.7l1.1-1.5l0.7,0.5l-0.1,0.1
		c-0.5-0.3-0.8-0.3-1,0c0,0-0.1,0.1-0.1,0.1c0,0,0,0.1,0.1,0.1l1.5,1.1c0,0,0.1,0,0.1,0c0,0,0.1,0,0.1-0.1l0.1-0.2l0.1,0.1l-0.6,0.9
		l-0.1-0.1l0.2-0.2c0,0,0-0.1,0-0.1c0,0,0,0,0-0.1l-1.5-1.1c0,0-0.1,0-0.1,0c0,0-0.1,0-0.1,0.1c-0.1,0.1-0.1,0.3-0.1,0.4
		c0,0.1,0.2,0.3,0.3,0.5l-0.1,0.1L84.7,87.7z M86.1,85.8l0.7-1c0.1-0.2,0.3-0.3,0.4-0.3c0.2,0,0.3,0,0.4,0.1
		c0.1,0.1,0.2,0.2,0.2,0.3c0,0.1,0,0.3-0.1,0.4c0.2-0.1,0.3-0.2,0.5-0.3c0.1,0,0.3,0,0.4,0.1c0.1,0.1,0.2,0.2,0.2,0.3
		c0,0.1,0,0.2,0,0.4c0,0.2-0.1,0.3-0.2,0.5L88,87.2l-0.1-0.1L88,87c0,0,0.1-0.1,0.1-0.1c0,0,0-0.1,0-0.1l-1.5-1.1c0,0-0.1,0-0.1,0
		c0,0-0.1,0-0.1,0.1L86.1,85.8L86.1,85.8z M87.4,85.9l0.3-0.4c0.1-0.1,0.1-0.2,0.1-0.3c0-0.1-0.1-0.2-0.2-0.3
		c-0.1-0.1-0.2-0.1-0.2-0.1c-0.1,0-0.1,0-0.2,0.1c-0.1,0-0.2,0.1-0.3,0.3c-0.1,0.1-0.1,0.2-0.1,0.2c0,0,0,0.1,0.1,0.1L87.4,85.9z
		 M87.5,86l0.7,0.5c0,0,0.1,0,0.1,0c0,0,0.1,0,0.1-0.1l0.2-0.2c0.1-0.2,0.2-0.3,0.1-0.4c0-0.1-0.1-0.2-0.2-0.3
		c-0.1-0.1-0.3-0.1-0.4-0.1c-0.1,0-0.2,0.1-0.3,0.2L87.5,86z M87.7,83.6l1.1-1.4l0.6,0.4l-0.1,0.1c-0.2-0.1-0.4-0.2-0.5-0.2
		c-0.1,0-0.2,0.1-0.3,0.2l-0.3,0.4c0,0,0,0.1,0,0.1c0,0,0,0.1,0.1,0.1l0.6,0.5l0.1-0.2c0.1-0.1,0.1-0.2,0.1-0.3
		c0-0.1-0.1-0.2-0.2-0.3l0.1-0.1l0.8,0.7l-0.1,0.1c-0.1-0.1-0.3-0.2-0.4-0.1c-0.1,0-0.2,0.1-0.3,0.1L89,83.8l0.7,0.6
		c0,0,0.1,0,0.1,0c0,0,0.1,0,0.1-0.1l0.2-0.3c0.2-0.3,0.2-0.6-0.2-1L90,83l0.7,0.6L89.5,85L89.4,85l0.1-0.1c0,0,0.1-0.1,0.1-0.1
		c0,0,0-0.1-0.1-0.1l-1.4-1.1c0,0-0.1,0-0.1,0c0,0-0.1,0-0.1,0.1L87.7,83.6L87.7,83.6z M87.7,83.6"/>
	<path class="st14" d="M61.2,103.1h1.2c0.2,0,0.4,0.1,0.5,0.2c0.1,0.1,0.2,0.2,0.2,0.4c0,0.1,0,0.2-0.1,0.3
		c-0.1,0.1-0.2,0.2-0.4,0.2c0.2,0,0.4,0.1,0.5,0.2c0.1,0.1,0.2,0.2,0.2,0.4c0,0.1,0,0.2-0.1,0.3c-0.1,0.1-0.2,0.2-0.3,0.2
		c-0.1,0.1-0.3,0.1-0.5,0.1h-1.2v-0.1h0.2c0.1,0,0.1,0,0.1,0c0,0,0,0,0-0.1v-1.9c0,0,0-0.1,0-0.1c0,0-0.1,0-0.1,0h-0.2V103.1z
		 M61.9,104.2h0.4c0.1,0,0.2,0,0.3-0.1c0.1-0.1,0.1-0.2,0.1-0.4c0-0.1,0-0.2-0.1-0.3c0-0.1-0.1-0.1-0.2-0.1c-0.1,0-0.2,0-0.4,0
		c-0.1,0-0.2,0-0.2,0c0,0,0,0.1,0,0.1V104.2z M61.9,104.3v0.9c0,0,0,0.1,0,0.1c0,0,0.1,0,0.1,0h0.3c0.2,0,0.3,0,0.4-0.1
		c0.1-0.1,0.1-0.2,0.1-0.4c0-0.2,0-0.3-0.1-0.4c-0.1-0.1-0.2-0.1-0.4-0.1H61.9z M61.9,104.3"/>
	<path class="st22" d="M61.2,103.1h1.2c0.2,0,0.4,0.1,0.5,0.2c0.1,0.1,0.2,0.2,0.2,0.4c0,0.1,0,0.2-0.1,0.3
		c-0.1,0.1-0.2,0.2-0.4,0.2c0.2,0,0.4,0.1,0.5,0.2c0.1,0.1,0.2,0.2,0.2,0.4c0,0.1,0,0.2-0.1,0.3c-0.1,0.1-0.2,0.2-0.3,0.2
		c-0.1,0.1-0.3,0.1-0.5,0.1h-1.2v-0.1h0.2c0.1,0,0.1,0,0.1,0c0,0,0,0,0-0.1v-1.9c0,0,0-0.1,0-0.1c0,0-0.1,0-0.1,0h-0.2V103.1z
		 M61.9,104.2h0.4c0.1,0,0.2,0,0.3-0.1c0.1-0.1,0.1-0.2,0.1-0.4c0-0.1,0-0.2-0.1-0.3c0-0.1-0.1-0.1-0.2-0.1c-0.1,0-0.2,0-0.4,0
		c-0.1,0-0.2,0-0.2,0c0,0,0,0.1,0,0.1V104.2z M61.9,104.3v0.9c0,0,0,0.1,0,0.1c0,0,0.1,0,0.1,0h0.3c0.2,0,0.3,0,0.4-0.1
		c0.1-0.1,0.1-0.2,0.1-0.4c0-0.2,0-0.3-0.1-0.4c-0.1-0.1-0.2-0.1-0.4-0.1H61.9z M61.9,104.3"/>
	<path class="st14" d="M32.6,79.1l1.7,1.6l-0.1,0.1l-0.1-0.1c0,0-0.1-0.1-0.1-0.1c0,0-0.1,0-0.1,0.1l-1.1,1.2c0,0-0.1,0.1-0.1,0.1
		c0,0,0,0,0,0.1c0,0,0,0.1,0.1,0.1l0.1,0.1l-0.1,0.1L32,81.7l0.1-0.1l0.1,0.1c0,0,0.1,0.1,0.1,0.1c0,0,0.1,0,0.1-0.1l1.3-1.4
		l-0.8-0.7L31.7,81c0,0.1-0.1,0.1-0.1,0.1c0,0,0,0,0,0.1c0,0,0,0.1,0.1,0.1l0.1,0.1l-0.1,0.1L31,80.8l0.1-0.1l0.1,0.1
		c0,0,0.1,0,0.1,0c0,0,0,0,0.1,0c0,0,0,0,0.1-0.1l1.1-1.2c0.1-0.1,0.1-0.1,0.1-0.1c0,0,0-0.1-0.1-0.1L32.6,79.1L32.6,79.1z
		 M34.7,81.1l0.7,0.9c0.2,0.2,0.3,0.4,0.3,0.6c0,0.2-0.1,0.3-0.2,0.5c-0.1,0.1-0.3,0.2-0.4,0.1c-0.2,0-0.4-0.2-0.6-0.3l-0.3-0.3
		L33.6,83c0,0-0.1,0.1-0.1,0.1c0,0,0,0.1,0,0.1l0.2,0.2l-0.1,0.1l-0.7-0.8l0.1-0.1l0.2,0.2c0,0,0.1,0.1,0.1,0.1c0,0,0.1,0,0.1,0
		l1.4-1.2c0,0,0.1-0.1,0.1-0.1c0,0,0-0.1-0.1-0.1L34.7,81.1L34.7,81.1z M34.2,82.4l0.2,0.2c0.1,0.2,0.3,0.2,0.4,0.2
		c0.1,0,0.3,0,0.4-0.2c0.1-0.1,0.2-0.2,0.2-0.2c0-0.1,0-0.2,0-0.2c0-0.1-0.1-0.2-0.2-0.3c-0.1-0.1-0.1-0.1-0.2-0.1c0,0-0.1,0-0.1,0
		L34.2,82.4z M36.9,83.8c0.1,0.2,0.2,0.3,0.2,0.5s0,0.4-0.1,0.6c-0.1,0.2-0.2,0.4-0.4,0.5c-0.2,0.1-0.4,0.2-0.6,0.3
		c-0.2,0-0.4,0-0.6-0.1c-0.2-0.1-0.3-0.2-0.4-0.3c-0.1-0.1-0.2-0.3-0.2-0.5c0-0.2,0-0.4,0.1-0.6c0.1-0.2,0.2-0.4,0.4-0.5
		c0.2-0.1,0.4-0.2,0.6-0.3c0.2,0,0.4,0,0.6,0.1C36.6,83.6,36.8,83.7,36.9,83.8L36.9,83.8z M36.8,83.9c-0.1-0.2-0.3-0.2-0.5-0.2
		c-0.2,0-0.5,0.1-0.8,0.3c-0.3,0.2-0.5,0.5-0.6,0.7c0,0.2,0,0.4,0.1,0.5c0.1,0.1,0.2,0.2,0.3,0.2c0.1,0,0.3,0,0.4,0
		c0.2,0,0.3-0.1,0.5-0.3c0.2-0.2,0.4-0.3,0.5-0.5c0.1-0.1,0.1-0.3,0.1-0.4C36.9,84.1,36.9,84,36.8,83.9L36.8,83.9z M37.4,88.3
		l-0.5,0.4l-0.1-0.1c0.3-0.2,0.3-0.5,0.1-0.8l-1-1.3l0.1-0.1l0.1,0.1c0,0,0.1,0.1,0.1,0.1c0,0,0.1,0,0.2-0.1l1.3-1
		c0.1,0,0.1-0.1,0.1-0.1c0,0,0,0,0-0.1c0,0,0-0.1,0-0.1l-0.1-0.1l0.1-0.1l0.6,0.8l-0.1,0.1l-0.1-0.1c0-0.1-0.1-0.1-0.1-0.1
		c0,0-0.1,0-0.2,0.1l-1.5,1.1l0.6,0.8l1.5-1.1c0.1,0,0.1-0.1,0.1-0.1c0,0,0,0,0-0.1c0,0,0-0.1,0-0.1l-0.1-0.1l0.1-0.1l0.6,0.8L39,87
		l-0.1-0.2c0,0,0-0.1-0.1-0.1c0,0,0,0-0.1,0c0,0-0.1,0-0.1,0.1l-1.3,1c-0.1,0.1-0.1,0.1-0.1,0.1c0,0,0,0.1,0.1,0.1L37.4,88.3z
		 M39.3,87.2l0.8,0.9c0.1,0.2,0.2,0.4,0.2,0.5c0,0.2-0.1,0.3-0.2,0.4c-0.1,0.1-0.2,0.1-0.3,0.1c-0.1,0-0.3-0.1-0.4-0.2
		c0.1,0.2,0.1,0.4,0.1,0.5c0,0.1-0.1,0.3-0.2,0.4c-0.1,0.1-0.2,0.1-0.3,0.1c-0.1,0-0.2,0-0.4-0.1c-0.1-0.1-0.3-0.2-0.4-0.3l-0.7-0.9
		l0.1-0.1l0.1,0.1c0,0,0.1,0.1,0.1,0.1c0,0,0.1,0,0.1,0l1.4-1.2c0,0,0.1-0.1,0.1-0.1c0,0,0-0.1,0-0.1L39.3,87.2L39.3,87.2z
		 M38.9,88.4l0.3,0.3c0.1,0.1,0.2,0.2,0.3,0.2c0.1,0,0.2,0,0.4-0.2c0.1-0.1,0.1-0.1,0.2-0.2c0-0.1,0-0.1,0-0.2
		c0-0.1-0.1-0.2-0.2-0.3c-0.1-0.1-0.1-0.2-0.2-0.2c0,0-0.1,0-0.1,0L38.9,88.4z M38.8,88.4L38.1,89c0,0,0,0.1,0,0.1
		c0,0,0,0.1,0.1,0.1l0.2,0.2c0.1,0.1,0.2,0.2,0.4,0.2c0.1,0,0.2,0,0.4-0.1c0.1-0.1,0.2-0.2,0.2-0.3c0-0.1,0-0.3-0.1-0.4L38.8,88.4z
		 M40.7,89l1.2,1.4l-0.6,0.5l-0.1-0.1c0.2-0.2,0.2-0.4,0.3-0.5c0-0.1,0-0.3-0.1-0.4l-0.3-0.3c0,0,0,0-0.1,0c0,0-0.1,0-0.1,0
		l-0.6,0.5l0.1,0.2c0.1,0.1,0.2,0.1,0.3,0.1c0.1,0,0.2,0,0.3-0.1l0.1,0.1l-0.8,0.7L40.3,91c0.1-0.1,0.2-0.2,0.2-0.3
		c0-0.1,0-0.2-0.1-0.3l-0.1-0.1l-0.7,0.6c0,0,0,0,0,0.1c0,0,0,0.1,0.1,0.1l0.2,0.3c0.3,0.3,0.6,0.3,1,0l0.1,0.1L40.2,92L39,90.5
		l0.1-0.1l0.1,0.1c0,0,0.1,0.1,0.1,0.1c0,0,0.1,0,0.1,0l1.4-1.2c0,0,0-0.1,0-0.1c0,0,0-0.1,0-0.1L40.7,89L40.7,89z M42.2,90.6
		l1.3,1.3l-0.6,0.6l-0.1-0.1c0.3-0.4,0.4-0.7,0.2-0.9c0,0-0.1-0.1-0.1-0.1c0,0-0.1,0-0.1,0l-1.3,1.3c0,0,0,0.1,0,0.1
		c0,0,0,0.1,0.1,0.1l0.2,0.2l-0.1,0.1l-0.7-0.8l0.1-0.1l0.2,0.2c0,0,0,0,0.1,0c0,0,0,0,0.1,0l1.3-1.3c0,0,0-0.1,0-0.1
		c0,0,0-0.1-0.1-0.1c-0.1-0.1-0.2-0.1-0.4-0.1c-0.1,0-0.3,0.1-0.5,0.3l-0.1-0.1L42.2,90.6z M44.4,92.8L44.4,92.8l-0.8,2.2
		c0,0.1,0,0.2,0.1,0.2l0.1,0l-0.1,0.1L43,94.7l0.1-0.1l0.1,0.1c0.1,0.1,0.1,0.1,0.2,0.1c0,0,0.1,0,0.1,0c0,0,0,0,0,0l0.2-0.5
		l-0.7-0.6l-0.3,0.1c-0.1,0-0.1,0.1-0.2,0.1c0,0,0,0.1,0,0.1c0,0.1,0,0.1,0.1,0.2l0.1,0.1l-0.1,0.1l-0.6-0.6l0.1-0.1
		c0.1,0.1,0.1,0.1,0.2,0.1c0.1,0,0.2,0,0.3-0.1L44.4,92.8z M44,93.1l-1,0.5l0.6,0.6L44,93.1z M45.2,93.7l0.8,0.6l-0.1,0.1l-0.1-0.1
		c0,0-0.1-0.1-0.1-0.1c0,0-0.1,0-0.1,0.1l-0.4,0.6l0.8,0.7l0.4-0.6c0.1-0.1,0.1-0.1,0.1-0.1c0,0,0-0.1-0.1-0.1l-0.1-0.1l0.1-0.1
		l0.8,0.6L47,95.3l-0.1-0.1c0,0-0.1,0-0.1,0c0,0,0,0-0.1,0c0,0,0,0-0.1,0.1l-1,1.3c-0.1,0.1-0.1,0.1-0.1,0.1c0,0,0,0.1,0.1,0.1
		l0.1,0.1L45.6,97l-0.8-0.6l0.1-0.1l0.1,0.1c0.1,0,0.1,0.1,0.1,0c0,0,0.1,0,0.1-0.1l0.5-0.6L45,95l-0.5,0.6
		c-0.1,0.1-0.1,0.1-0.1,0.1c0,0,0,0.1,0.1,0.1l0.1,0.1l-0.1,0.1l-0.8-0.6l0.1-0.1l0.1,0.1c0,0,0.1,0,0.1,0c0,0,0,0,0.1,0
		c0,0,0,0,0.1-0.1l1.1-1.3c0.1-0.1,0.1-0.1,0.1-0.1c0,0,0-0.1-0.1-0.1L45.2,93.7L45.2,93.7z M46.8,97.1l1.7-0.5l0,0
		c0-0.1,0.1-0.1,0-0.1c0,0,0-0.1-0.1-0.1l-0.1-0.1l0.1-0.1l0.8,0.6l-0.1,0.1L49,96.7c0,0-0.1,0-0.1,0c0,0-0.1,0-0.1,0.1l-1,1.4
		c0,0.1-0.1,0.1-0.1,0.1c0,0,0,0,0,0.1c0,0,0,0.1,0.1,0.1l0.1,0.1l-0.1,0.1L47.1,98l0.1-0.1l0.1,0.1c0.1,0,0.1,0.1,0.1,0
		c0,0,0.1-0.1,0.1-0.1l0.8-1.2l-1.7,0.6c0,0.1-0.1,0.1-0.1,0.1c0,0,0,0,0,0.1c0,0,0,0.1,0.1,0.1l0.1,0.1l-0.1,0.1l-0.8-0.6l0.1-0.1
		l0.2,0.1c0,0,0.1,0,0.1,0c0,0,0.1-0.1,0.1-0.1l1-1.4c0-0.1,0.1-0.1,0.1-0.1c0,0,0-0.1-0.1-0.1l-0.1-0.1l0.1-0.1l0.8,0.6L48,96
		l-0.1-0.1c-0.1,0-0.1-0.1-0.1,0c0,0-0.1,0-0.1,0.1L46.8,97.1z M49.4,96.9l1.6,0.9l-0.4,0.7l-0.1-0.1c0.1-0.2,0.1-0.4,0.1-0.5
		c0-0.1-0.1-0.2-0.2-0.3L50,97.4c0,0-0.1,0-0.1,0c0,0,0,0-0.1,0.1l-0.4,0.7l0.2,0.1c0.1,0.1,0.2,0.1,0.3,0c0.1,0,0.2-0.1,0.3-0.2
		l0.1,0.1L49.6,99l-0.1-0.1c0.1-0.2,0.1-0.3,0.1-0.4c0-0.1-0.1-0.2-0.2-0.2l-0.2-0.1L48.9,99c0,0,0,0.1,0,0.1c0,0,0,0.1,0.1,0.1
		l0.3,0.2c0.3,0.2,0.7,0.1,1-0.3l0.1,0.1l-0.5,0.7l-1.6-1l0.1-0.1l0.1,0.1c0.1,0,0.1,0,0.1,0c0,0,0.1,0,0.1-0.1l0.9-1.6
		c0,0,0-0.1,0-0.1c0,0,0-0.1-0.1-0.1L49.3,97L49.4,96.9z M49.4,96.9"/>
	<path class="st22" d="M32.6,79.1l1.7,1.6l-0.1,0.1l-0.1-0.1c0,0-0.1-0.1-0.1-0.1c0,0-0.1,0-0.1,0.1l-1.1,1.2c0,0-0.1,0.1-0.1,0.1
		c0,0,0,0,0,0.1c0,0,0,0.1,0.1,0.1l0.1,0.1l-0.1,0.1L32,81.7l0.1-0.1l0.1,0.1c0,0,0.1,0.1,0.1,0.1c0,0,0.1,0,0.1-0.1l1.3-1.4
		l-0.8-0.7L31.7,81c0,0.1-0.1,0.1-0.1,0.1c0,0,0,0,0,0.1c0,0,0,0.1,0.1,0.1l0.1,0.1l-0.1,0.1L31,80.8l0.1-0.1l0.1,0.1
		c0,0,0.1,0,0.1,0c0,0,0,0,0.1,0c0,0,0,0,0.1-0.1l1.1-1.2c0.1-0.1,0.1-0.1,0.1-0.1c0,0,0-0.1-0.1-0.1L32.6,79.1L32.6,79.1z
		 M34.7,81.1l0.7,0.9c0.2,0.2,0.3,0.4,0.3,0.6c0,0.2-0.1,0.3-0.2,0.5c-0.1,0.1-0.3,0.2-0.4,0.1c-0.2,0-0.4-0.2-0.6-0.3l-0.3-0.3
		L33.6,83c0,0-0.1,0.1-0.1,0.1c0,0,0,0.1,0,0.1l0.2,0.2l-0.1,0.1l-0.7-0.8l0.1-0.1l0.2,0.2c0,0,0.1,0.1,0.1,0.1c0,0,0.1,0,0.1,0
		l1.4-1.2c0,0,0.1-0.1,0.1-0.1c0,0,0-0.1-0.1-0.1L34.7,81.1L34.7,81.1z M34.2,82.4l0.2,0.2c0.1,0.2,0.3,0.2,0.4,0.2
		c0.1,0,0.3,0,0.4-0.2c0.1-0.1,0.2-0.2,0.2-0.2c0-0.1,0-0.2,0-0.2c0-0.1-0.1-0.2-0.2-0.3c-0.1-0.1-0.1-0.1-0.2-0.1c0,0-0.1,0-0.1,0
		L34.2,82.4z M36.9,83.8c0.1,0.2,0.2,0.3,0.2,0.5s0,0.4-0.1,0.6c-0.1,0.2-0.2,0.4-0.4,0.5c-0.2,0.1-0.4,0.2-0.6,0.3
		c-0.2,0-0.4,0-0.6-0.1c-0.2-0.1-0.3-0.2-0.4-0.3c-0.1-0.1-0.2-0.3-0.2-0.5c0-0.2,0-0.4,0.1-0.6c0.1-0.2,0.2-0.4,0.4-0.5
		c0.2-0.1,0.4-0.2,0.6-0.3c0.2,0,0.4,0,0.6,0.1C36.6,83.6,36.8,83.7,36.9,83.8L36.9,83.8z M36.8,83.9c-0.1-0.2-0.3-0.2-0.5-0.2
		c-0.2,0-0.5,0.1-0.8,0.3c-0.3,0.2-0.5,0.5-0.6,0.7c0,0.2,0,0.4,0.1,0.5c0.1,0.1,0.2,0.2,0.3,0.2c0.1,0,0.3,0,0.4,0
		c0.2,0,0.3-0.1,0.5-0.3c0.2-0.2,0.4-0.3,0.5-0.5c0.1-0.1,0.1-0.3,0.1-0.4C36.9,84.1,36.9,84,36.8,83.9L36.8,83.9z M37.4,88.3
		l-0.5,0.4l-0.1-0.1c0.3-0.2,0.3-0.5,0.1-0.8l-1-1.3l0.1-0.1l0.1,0.1c0,0,0.1,0.1,0.1,0.1c0,0,0.1,0,0.2-0.1l1.3-1
		c0.1,0,0.1-0.1,0.1-0.1c0,0,0,0,0-0.1c0,0,0-0.1,0-0.1l-0.1-0.1l0.1-0.1l0.6,0.8l-0.1,0.1l-0.1-0.1c0-0.1-0.1-0.1-0.1-0.1
		c0,0-0.1,0-0.2,0.1l-1.5,1.1l0.6,0.8l1.5-1.1c0.1,0,0.1-0.1,0.1-0.1c0,0,0,0,0-0.1c0,0,0-0.1,0-0.1l-0.1-0.1l0.1-0.1l0.6,0.8L39,87
		l-0.1-0.2c0,0,0-0.1-0.1-0.1c0,0,0,0-0.1,0c0,0-0.1,0-0.1,0.1l-1.3,1c-0.1,0.1-0.1,0.1-0.1,0.1c0,0,0,0.1,0.1,0.1L37.4,88.3z
		 M39.3,87.2l0.8,0.9c0.1,0.2,0.2,0.4,0.2,0.5c0,0.2-0.1,0.3-0.2,0.4c-0.1,0.1-0.2,0.1-0.3,0.1c-0.1,0-0.3-0.1-0.4-0.2
		c0.1,0.2,0.1,0.4,0.1,0.5c0,0.1-0.1,0.3-0.2,0.4c-0.1,0.1-0.2,0.1-0.3,0.1c-0.1,0-0.2,0-0.4-0.1c-0.1-0.1-0.3-0.2-0.4-0.3l-0.7-0.9
		l0.1-0.1l0.1,0.1c0,0,0.1,0.1,0.1,0.1c0,0,0.1,0,0.1,0l1.4-1.2c0,0,0.1-0.1,0.1-0.1c0,0,0-0.1,0-0.1L39.3,87.2L39.3,87.2z
		 M38.9,88.4l0.3,0.3c0.1,0.1,0.2,0.2,0.3,0.2c0.1,0,0.2,0,0.4-0.2c0.1-0.1,0.1-0.1,0.2-0.2c0-0.1,0-0.1,0-0.2
		c0-0.1-0.1-0.2-0.2-0.3c-0.1-0.1-0.1-0.2-0.2-0.2c0,0-0.1,0-0.1,0L38.9,88.4z M38.8,88.4L38.1,89c0,0,0,0.1,0,0.1
		c0,0,0,0.1,0.1,0.1l0.2,0.2c0.1,0.1,0.2,0.2,0.4,0.2c0.1,0,0.2,0,0.4-0.1c0.1-0.1,0.2-0.2,0.2-0.3c0-0.1,0-0.3-0.1-0.4L38.8,88.4z
		 M40.7,89l1.2,1.4l-0.6,0.5l-0.1-0.1c0.2-0.2,0.2-0.4,0.3-0.5c0-0.1,0-0.3-0.1-0.4l-0.3-0.3c0,0,0,0-0.1,0c0,0-0.1,0-0.1,0
		l-0.6,0.5l0.1,0.2c0.1,0.1,0.2,0.1,0.3,0.1c0.1,0,0.2,0,0.3-0.1l0.1,0.1l-0.8,0.7L40.3,91c0.1-0.1,0.2-0.2,0.2-0.3
		c0-0.1,0-0.2-0.1-0.3l-0.1-0.1l-0.7,0.6c0,0,0,0,0,0.1c0,0,0,0.1,0.1,0.1l0.2,0.3c0.3,0.3,0.6,0.3,1,0l0.1,0.1L40.2,92L39,90.5
		l0.1-0.1l0.1,0.1c0,0,0.1,0.1,0.1,0.1c0,0,0.1,0,0.1,0l1.4-1.2c0,0,0-0.1,0-0.1c0,0,0-0.1,0-0.1L40.7,89L40.7,89z M42.2,90.6
		l1.3,1.3l-0.6,0.6l-0.1-0.1c0.3-0.4,0.4-0.7,0.2-0.9c0,0-0.1-0.1-0.1-0.1c0,0-0.1,0-0.1,0l-1.3,1.3c0,0,0,0.1,0,0.1
		c0,0,0,0.1,0.1,0.1l0.2,0.2l-0.1,0.1l-0.7-0.8l0.1-0.1l0.2,0.2c0,0,0,0,0.1,0c0,0,0,0,0.1,0l1.3-1.3c0,0,0-0.1,0-0.1
		c0,0,0-0.1-0.1-0.1c-0.1-0.1-0.2-0.1-0.4-0.1c-0.1,0-0.3,0.1-0.5,0.3l-0.1-0.1L42.2,90.6z M44.4,92.8L44.4,92.8l-0.8,2.2
		c0,0.1,0,0.2,0.1,0.2l0.1,0l-0.1,0.1L43,94.7l0.1-0.1l0.1,0.1c0.1,0.1,0.1,0.1,0.2,0.1c0,0,0.1,0,0.1,0c0,0,0,0,0,0l0.2-0.5
		l-0.7-0.6l-0.3,0.1c-0.1,0-0.1,0.1-0.2,0.1c0,0,0,0.1,0,0.1c0,0.1,0,0.1,0.1,0.2l0.1,0.1l-0.1,0.1l-0.6-0.6l0.1-0.1
		c0.1,0.1,0.1,0.1,0.2,0.1c0.1,0,0.2,0,0.3-0.1L44.4,92.8z M44,93.1l-1,0.5l0.6,0.6L44,93.1z M45.2,93.7l0.8,0.6l-0.1,0.1l-0.1-0.1
		c0,0-0.1-0.1-0.1-0.1c0,0-0.1,0-0.1,0.1l-0.4,0.6l0.8,0.7l0.4-0.6c0.1-0.1,0.1-0.1,0.1-0.1c0,0,0-0.1-0.1-0.1l-0.1-0.1l0.1-0.1
		l0.8,0.6L47,95.3l-0.1-0.1c0,0-0.1,0-0.1,0c0,0,0,0-0.1,0c0,0,0,0-0.1,0.1l-1,1.3c-0.1,0.1-0.1,0.1-0.1,0.1c0,0,0,0.1,0.1,0.1
		l0.1,0.1L45.6,97l-0.8-0.6l0.1-0.1l0.1,0.1c0.1,0,0.1,0.1,0.1,0c0,0,0.1,0,0.1-0.1l0.5-0.6L45,95l-0.5,0.6
		c-0.1,0.1-0.1,0.1-0.1,0.1c0,0,0,0.1,0.1,0.1l0.1,0.1l-0.1,0.1l-0.8-0.6l0.1-0.1l0.1,0.1c0,0,0.1,0,0.1,0c0,0,0,0,0.1,0
		c0,0,0,0,0.1-0.1l1.1-1.3c0.1-0.1,0.1-0.1,0.1-0.1c0,0,0-0.1-0.1-0.1L45.2,93.7L45.2,93.7z M46.8,97.1l1.7-0.5l0,0
		c0-0.1,0.1-0.1,0-0.1c0,0,0-0.1-0.1-0.1l-0.1-0.1l0.1-0.1l0.8,0.6l-0.1,0.1L49,96.7c0,0-0.1,0-0.1,0c0,0-0.1,0-0.1,0.1l-1,1.4
		c0,0.1-0.1,0.1-0.1,0.1c0,0,0,0,0,0.1c0,0,0,0.1,0.1,0.1l0.1,0.1l-0.1,0.1L47.1,98l0.1-0.1l0.1,0.1c0.1,0,0.1,0.1,0.1,0
		c0,0,0.1-0.1,0.1-0.1l0.8-1.2l-1.7,0.6c0,0.1-0.1,0.1-0.1,0.1c0,0,0,0,0,0.1c0,0,0,0.1,0.1,0.1l0.1,0.1l-0.1,0.1l-0.8-0.6l0.1-0.1
		l0.2,0.1c0,0,0.1,0,0.1,0c0,0,0.1-0.1,0.1-0.1l1-1.4c0-0.1,0.1-0.1,0.1-0.1c0,0,0-0.1-0.1-0.1l-0.1-0.1l0.1-0.1l0.8,0.6L48,96
		l-0.1-0.1c-0.1,0-0.1-0.1-0.1,0c0,0-0.1,0-0.1,0.1L46.8,97.1z M49.4,96.9l1.6,0.9l-0.4,0.7l-0.1-0.1c0.1-0.2,0.1-0.4,0.1-0.5
		c0-0.1-0.1-0.2-0.2-0.3L50,97.4c0,0-0.1,0-0.1,0c0,0,0,0-0.1,0.1l-0.4,0.7l0.2,0.1c0.1,0.1,0.2,0.1,0.3,0c0.1,0,0.2-0.1,0.3-0.2
		l0.1,0.1L49.6,99l-0.1-0.1c0.1-0.2,0.1-0.3,0.1-0.4c0-0.1-0.1-0.2-0.2-0.2l-0.2-0.1L48.9,99c0,0,0,0.1,0,0.1c0,0,0,0.1,0.1,0.1
		l0.3,0.2c0.3,0.2,0.7,0.1,1-0.3l0.1,0.1l-0.5,0.7l-1.6-1l0.1-0.1l0.1,0.1c0.1,0,0.1,0,0.1,0c0,0,0.1,0,0.1-0.1l0.9-1.6
		c0,0,0-0.1,0-0.1c0,0,0-0.1-0.1-0.1L49.3,97L49.4,96.9z M49.4,96.9"/>
</g>
</svg>
