<?xml version="1.0" encoding="utf-8"?>
<!-- Generator: Adobe Illustrator 22.0.1, SVG Export Plug-In . SVG Version: 6.00 Build 0)  -->
<svg version="1.1" id="Слой_1" xmlns="http://www.w3.org/2000/svg" xmlns:xlink="http://www.w3.org/1999/xlink" x="0px" y="0px"
	 viewBox="0 0 127.3 127" style="enable-background:new 0 0 127.3 127;" xml:space="preserve">
<style type="text/css">
	.st0{fill:url(#SVGID_1_);}
	.st1{fill:#FFFFFF;}
	.st2{fill-rule:evenodd;clip-rule:evenodd;fill:#231F20;}
	.st3{fill-rule:evenodd;clip-rule:evenodd;fill:#EC1C24;}
	.st4{fill-rule:evenodd;clip-rule:evenodd;fill:#FFF100;}
	.st5{fill-rule:evenodd;clip-rule:evenodd;fill:#268F3B;}
</style>
<radialGradient id="SVGID_1_" cx="64.8" cy="-554.747" r="62.6" gradientTransform="matrix(1 0 0 -1 0 -490.347)" gradientUnits="userSpaceOnUse">
	<stop  offset="0.9487" style="stop-color:#212121"/>
	<stop  offset="1" style="stop-color:#606060;stop-opacity:0"/>
</radialGradient>
<circle class="st0" cx="64.8" cy="64.4" r="62.6"/>
<circle class="st1" cx="62.6" cy="62.6" r="62.6"/>
<g>
	<path class="st2" d="M103.7,64.9c0.4-0.2,0.8-0.6,0.8-1.1c0-0.5-0.5-1.5-1.5-1.9c-0.7-0.2-1.7-0.2-3,1.3c-0.7-0.3-1.8-0.7-2.3-1.1
		c0,0,0,0,0-0.1c0.4-0.4,1-0.9,1.1-1.4c0.5-0.3,2.1-1.4,2.1-2.6c0-0.1,0-0.1,0-0.2c0-0.2-0.2-0.3-0.3-0.3c-0.2,0-0.3,0-0.4-0.1
		c0.2-0.3,0.9-1,1.2-1.1c0.5-0.1,1.3-1.1,1.3-1.9c0,0,0-0.1,0-0.1c0-0.4-0.3-1-1.4-1.2c0.1-0.3,0.2-0.6,0.2-0.9c0-0.2,0-0.4-0.1-0.6
		c-0.1-0.4-0.5-0.8-0.9-1c-0.1-0.3-0.3-1-0.8-1.3c-0.4-0.2-0.9-0.3-1.5-0.2c0.3-0.8,0.7-1.6,1-1.7c0.8-0.4,1.3-1.2,1.4-2
		c0.7-0.1,2.3-0.6,2.3-1.9c0,0,0,0,0-0.1c0-1-0.2-1.5-0.7-1.7c-0.1,0-0.1-0.1-0.2-0.1c0.3-0.5,0.5-1,0.5-1.5c0-0.1,0-0.3-0.1-0.4
		c0-0.1,0-0.1,0-0.2c0-0.2,0.1-0.4,0.2-0.5c0-0.1,0-0.1,0-0.2c0-0.1,0-0.2-0.1-0.2c-0.1-0.1-0.2-0.2-0.4-0.1c0,0-0.9,0.2-1.3-0.4
		c-0.3-0.5-0.7-0.9-1.2-1c-0.4-0.1-1.1-0.1-1.9,0.5c-0.4,0.3-0.7,0.7-0.7,1c0,0,0,0,0,0c0,0.5,0.5,0.9,0.8,1.2c0,0,0,0,0,0
		c0,0,0,0,0,0c-0.2,0.1-0.4,0.1-0.5,0.3c-0.1,0-0.2,0-0.2,0c-0.4,0.1-1,0.1-1.5,0.4c-0.2-0.4-0.3-0.8-0.3-1c0,0,0-0.1,0-0.1
		c0-0.2,0.2-0.4,0.3-0.7c0.2-0.5,0.5-1,0.5-1.5c0-0.3-0.1-0.5-0.3-0.8c-0.5-0.4-0.7-0.8-0.7-1.1c0-0.2,0.1-0.3,0.2-0.5
		c0.3-0.5,0.5-1.1,0.5-1.7c0-0.3,0-0.5-0.1-0.7c-0.2-0.4-0.5-0.7-1-0.9c-1-0.3-1-0.5-1-1c0,0,0-0.1,0-0.1c0-0.1-0.1-0.3-0.2-0.3
		c0,0-0.4-0.1-0.8,0c-0.1-0.2-0.1-0.4-0.1-0.6c0,0,0-0.1,0-0.1c0,0,0,0,0-0.1c0-0.5-0.4-1.3-1-1.6c-0.3-0.1-0.8-0.2-1.4,0.3
		c-0.1-0.1-0.2-0.2-0.2-0.5c0-0.5-0.2-0.8-0.5-1.1c-0.4-0.3-1-0.3-1.5,0c-0.6,0.3-0.9,0.7-1,1c-0.5-0.1-1.5-0.2-2.1,0.1
		c-0.1-0.1-0.2-0.1-0.2-0.2c0-0.5-1.1-0.7-1.5-0.7c-1.2-0.1-2,0.2-2.1,0.9c-0.1,0.3-0.1,0.7-0.1,1c0,0.8,0.3,1.5,1.5,2.2
		c0,0,0,0,0,0c0,0,0,0,0,0c0,0,0,0.1,0,0.2c0,0.2-0.1,0.5-0.1,0.7c0,0.4,0.1,0.8,0.4,1.2c0.3,0.4,0.8,0.6,1.4,0.6
		c1,0,1.1,0.2,1.2,0.4c0,0,0.1,0.1,0.1,0.1c-0.1,0.2-0.2,0.4-0.3,0.7H70.2c0.3-1.1,0.9-3.3,0.9-3.4c0.5-0.5,3.2-3.8,3.2-7.1
		c0-0.3,0-0.6-0.1-1l-0.1-0.3l-0.3,0c-0.1,0-1.3,0-3.1,0.4c-0.9-1.6-2.1-2.1-2.2-2.1l-0.1,0l-0.1,0c-0.7,0.2-1.3,0.5-1.9,0.8
		c-1.4-2.3-3-3-3-3l-0.1-0.1l-0.1,0.1c-1.4,0.6-2.5,2.2-3,2.9c-1.1-0.6-1.9-0.9-1.9-0.9l-0.1,0l-0.1,0.1c-1.3,0.8-2.1,1.9-2.3,2.3
		c-1.7-0.4-2.9-0.6-3-0.6l-0.4,0l0,0.4c0,0.2,0,0.4,0,0.7c0,4.1,2.5,6.7,3,7.2c0,0.1,0.6,2.5,0.9,3.7h-15c-0.1-0.3-0.2-0.5-0.3-0.7
		c0,0,0.1-0.1,0.1-0.1c0.1-0.2,0.2-0.4,1.2-0.4c0.6,0,1.1-0.2,1.4-0.6c0.3-0.3,0.4-0.8,0.4-1.2c0-0.3,0-0.5-0.1-0.7
		c0-0.1,0-0.1,0-0.2c0,0,0,0,0,0c0,0,0,0,0,0c1.2-0.6,1.5-1.4,1.5-2.2c0-0.3-0.1-0.7-0.1-1c-0.1-0.7-0.9-1-2.1-0.9
		c-0.5,0-1.5,0.2-1.5,0.7c0,0-0.1,0.1-0.2,0.2c-0.6-0.3-1.5-0.2-2.1-0.1c-0.1-0.4-0.4-0.8-1-1c-0.5-0.3-1.1-0.3-1.5,0
		c-0.3,0.2-0.5,0.6-0.5,1.1c0,0.3-0.1,0.4-0.2,0.5c-0.6-0.5-1.1-0.4-1.4-0.3c-0.6,0.3-1,1.1-1,1.6c0,0,0,0,0,0.1c0,0,0,0.1,0,0.1
		c0,0.2-0.1,0.5-0.1,0.6c-0.4-0.1-0.7,0-0.8,0c-0.1,0.1-0.2,0.2-0.2,0.3c0,0,0,0.1,0,0.1c0,0.5,0,0.7-1,1c-0.5,0.1-0.8,0.4-1,0.9
		c-0.1,0.2-0.1,0.5-0.1,0.7c0,0.6,0.2,1.2,0.5,1.7c0.1,0.2,0.2,0.4,0.2,0.5c0,0.3-0.2,0.6-0.7,1.1c-0.2,0.2-0.3,0.5-0.3,0.8
		c0,0.5,0.3,1.1,0.5,1.5c0.1,0.3,0.3,0.5,0.3,0.7c0,0,0,0.1,0,0.1c0,0.3-0.1,0.7-0.3,1c-0.4-0.3-1.1-0.4-1.5-0.4c-0.1,0-0.2,0-0.2,0
		c-0.1-0.2-0.3-0.2-0.5-0.3c0,0,0,0,0,0c0,0,0,0,0,0c0.3-0.3,0.8-0.7,0.8-1.2c0,0,0,0,0,0c0-0.4-0.3-0.7-0.7-1
		c-0.9-0.6-1.5-0.6-1.9-0.5c-0.5,0.1-0.9,0.5-1.2,1c-0.3,0.6-1.2,0.4-1.3,0.4c-0.1,0-0.3,0-0.4,0.1c0,0.1-0.1,0.1-0.1,0.2
		c0,0.1,0,0.1,0,0.2c0,0.1,0.2,0.3,0.2,0.5c0,0.1,0,0.2,0,0.2c-0.1,0.1-0.1,0.2-0.1,0.4c0,0.4,0.2,1,0.5,1.5c-0.1,0-0.1,0-0.2,0.1
		c-0.4,0.2-0.6,0.8-0.7,1.7c0,0,0,0,0,0.1c0,1.3,1.6,1.7,2.3,1.9c0.1,0.8,0.6,1.6,1.4,2c0.3,0.2,0.8,1,1,1.7
		c-0.6-0.1-1.1-0.1-1.5,0.2c-0.6,0.3-0.8,1-0.8,1.3c-0.5,0.2-0.8,0.6-0.9,1c-0.1,0.2-0.1,0.4-0.1,0.6c0,0.4,0.1,0.7,0.2,0.9
		c-1.1,0.1-1.4,0.8-1.4,1.2c0,0,0,0.1,0,0.1c0,0.9,0.8,1.8,1.3,1.9c0.3,0.1,1,0.7,1.2,1.1c-0.1,0-0.3,0.1-0.4,0.1
		c-0.2,0-0.3,0.1-0.3,0.3c0,0.1,0,0.1,0,0.2c0,1.2,1.6,2.3,2.1,2.6c0.2,0.5,0.7,1,1.1,1.4c0,0,0,0,0,0.1c-0.5,0.4-1.6,0.9-2.3,1.1
		c-1.3-1.5-2.3-1.5-3-1.3c-1,0.3-1.5,1.4-1.5,1.9c0,0.5,0.4,0.9,0.8,1.1c-0.2,0.1-0.4,0.3-0.5,0.6c0,0.1,0,0.2,0,0.3
		c0,0.3,0.1,0.5,0.3,0.8c0.4,0.6,1.3,0.9,2,1.1c-0.1,0.1-0.2,0.3-0.3,0.5c-0.1,0.3-0.2,0.5-0.2,0.8c0,0.3,0.1,0.7,0.3,1
		c0.8,1.1,2.2,0.6,2.8,0.5l0.1,0c0.1,0,0.1,0,0.2,0c0,0.1,0,0.2,0,0.3c0,0.3,0.1,0.7,0.2,1c0.2,0.6,0.6,0.9,1.2,1.1
		c0,0,0.2,0.1,0.3,0.1c-0.3,0.1-0.7,0.3-1.1,0.4l0,0c-0.8,0.3-1.4,0.7-1.6,1.2c-0.1,0.2-0.1,0.4-0.1,0.6c0,0.4,0.2,0.8,0.3,1.1
		c0.1,0.1,0.1,0.3,0.1,0.4c0.2,0.9,1.5,0.9,2.2,0.9c0.2,0.5,0.6,0.8,0.9,1c0.1,0.2,0.1,0.4,0.2,0.5c0,0.1,0.6,2.5,0.7,3.3
		c-0.7-0.1-2.1-0.4-2.1-0.4c0,0,0,0,0,0c-0.1,0-2.3-0.3-3.7,1c-0.7,0.6-1.1,1.6-1.1,2.7c0,1.8,0.4,3.3,0.9,5c0.6,2.1,1.3,4.5,1.3,8
		c0,0,0,0.1,0,0.1c0,0.2,0.4,1.7,1.4,1.9c0.4,0.1,0.9-0.1,1.3-0.7c0.2,0.4,0.8,1.6,2.2,2c1.3,0.5,2.9,0.1,4.7-1.1
		c4.8-3.1,8.8-5.2,10.5-5.8c0,0,0,0,0,0c0.2,0.9,0.6,2.9,0.6,4.3c0,0.1,0,0.1,0,0.2c0,0.3-0.1,0.6-0.1,1c-0.1,0.4-0.1,0.8-0.1,1.2
		c0,0.5,0.1,1,0.4,1.4c0.5,0.6,1.5,1,2.9,1.1c0,0.1,0,0.2,0,0.3c0,0.7,0.2,1.5,1.1,1.9l0.2,0.1c0.8,0.3,1.8,0.7,2.6,0.1
		c0.7-0.5,1-1.6,1-3.4c0-0.3,0-0.6,0-0.9c0.8-0.3,3.8-1.4,6.4-1.9l0.3,0.3l-5.2,3.9c0,0,0,0,0,0c-0.6,0.5-1.3,1.9-0.2,3.6
		c0.1,0.1,0.1,0.1,0.2,0.1c0.1,0,0.2,0,0.3-0.1l6.7-5.8l6.6,6c0.1,0.1,0.2,0.1,0.3,0.1c0.1,0,0.2-0.1,0.3-0.2
		c0.1-0.1,1.3-2.5-0.2-3.6c-1.1-0.8-4.4-3.3-5.2-3.9l0.5-0.4c2.6,0.5,5.5,1.6,6.3,1.9c0,0.3,0,0.6,0,0.9c0,1.8,0.3,2.9,1,3.4
		c0.8,0.6,1.9,0.2,2.6-0.1l0.2-0.1c0.9-0.4,1.1-1.2,1.1-1.9c0-0.1,0-0.2,0-0.3c1.5-0.1,2.4-0.5,2.9-1.1c0.3-0.4,0.4-0.9,0.4-1.4
		c0-0.4-0.1-0.8-0.1-1.2c-0.1-0.3-0.1-0.7-0.1-1c0-0.1,0-0.1,0-0.2c0-1.4,0.4-3.4,0.6-4.3c0,0,0,0,0,0c1.8,0.6,5.8,2.7,10.5,5.8
		c1.8,1.2,3.4,1.5,4.7,1.1c1.3-0.5,2-1.6,2.2-2c0.4,0.5,0.9,0.7,1.3,0.7c1-0.2,1.4-1.7,1.4-1.9c0,0,0-0.1,0-0.1c0-3.5,0.7-5.9,1.3-8
		c0.5-1.7,0.9-3.2,0.9-5c0-1.2-0.4-2.1-1.1-2.7c-1.4-1.3-3.6-1-3.7-1c0,0,0,0,0,0c0,0-1.4,0.3-2.1,0.4c0.2-0.8,0.7-3.1,0.7-3.3
		c0.1-0.1,0.2-0.3,0.2-0.5c0.3-0.1,0.7-0.4,0.9-1c0.6,0,1.9,0,2.2-0.9c0-0.1,0.1-0.2,0.1-0.4c0.1-0.3,0.3-0.7,0.3-1.1
		c0-0.2,0-0.4-0.1-0.6c-0.2-0.5-0.7-0.9-1.6-1.2l0,0c-0.4-0.2-0.8-0.3-1.1-0.4c0.1,0,0.3-0.1,0.3-0.1c0.5-0.2,0.9-0.6,1.2-1.1
		c0.1-0.3,0.2-0.7,0.2-1c0-0.1,0-0.2,0-0.3c0.1,0,0.1,0,0.2,0l0.1,0c0.6,0.2,2,0.6,2.8-0.5c0.2-0.3,0.3-0.6,0.3-1
		c0-0.3-0.1-0.5-0.2-0.8c-0.1-0.2-0.2-0.3-0.3-0.5c0.7-0.1,1.6-0.5,2-1.1c0.2-0.3,0.3-0.6,0.3-0.8c0-0.1,0-0.2,0-0.3
		C104,65.2,103.9,65,103.7,64.9L103.7,64.9z M100.5,45.1C100.5,45.1,100.5,45.1,100.5,45.1C100.5,45.1,100.5,45.1,100.5,45.1
		L100.5,45.1z M82.3,31.1C82.3,31.1,82.3,31.1,82.3,31.1C82.3,31.1,82.3,31.1,82.3,31.1L82.3,31.1z M43.8,31.1
		C43.7,31.1,43.7,31.1,43.8,31.1C43.7,31.1,43.7,31.1,43.8,31.1L43.8,31.1z M25.5,45.1C25.5,45.1,25.5,45.1,25.5,45.1
		C25.5,45.1,25.5,45.1,25.5,45.1C25.5,45.1,25.5,45.1,25.5,45.1L25.5,45.1z M85.1,60.6c0.2,0.2,0.4,0.5,0.7,0.7
		c0.2,0.2,0.7,0.6,0.7,0.8c0,0,0,0-0.1,0.1c0,0,0,0,0,0c-0.4,0.3-1,0.8-1,1.5c0,0.2,0,0.4,0.2,0.5c0.1,0.2,0.2,0.5,0.2,0.7
		c0,0.2,0,0.4-0.1,0.5c0,0-0.1,0.1-0.4,0c0,0,0,0-0.1,0V60.6L85.1,60.6z M34.5,88c0-0.2,0.1-0.6,0.2-1.2c0.2,0.1,0.4,0.2,0.6,0.3
		c0.3,0.1,0.6,0.1,0.9,0.1C35.4,87.6,34.8,87.9,34.5,88L34.5,88z M90.7,87c0.2-0.1,0.4-0.2,0.6-0.3c0.1,0.6,0.1,1,0.2,1.2
		c-0.3-0.1-0.9-0.4-1.7-0.8C90.1,87.2,90.5,87.1,90.7,87L90.7,87z M40.4,65.3c-0.1-0.1-0.1-0.3-0.1-0.5c0-0.2,0.1-0.5,0.2-0.7
		c0.1-0.2,0.2-0.4,0.2-0.5c0-0.6-0.6-1.2-1-1.5c0,0,0,0,0,0c-0.1,0-0.1-0.1-0.1-0.1c0-0.2,0.5-0.6,0.7-0.8c0.2-0.2,0.4-0.3,0.5-0.5
		v4.6C40.5,65.4,40.4,65.3,40.4,65.3L40.4,65.3z M40.7,58.7c-0.6-0.5-1.5-0.8-2.1-0.9c0.4-0.5,0.5-1,0.5-1.3c0-0.1,0-0.1,0-0.2
		c-0.1-0.6-0.4-1.1-1-1.5c0,0-0.1-0.1-0.1-0.1c0,0,0,0,0,0c0-0.2,0.6-0.8,0.9-1.1c0.3-0.2,0.5-0.5,0.7-0.7c0.1-0.1,0.3-0.4,0.3-0.7
		c0-0.1,0-0.1,0-0.2c-0.1-0.4-0.6-0.5-0.9-0.6l0,0c-0.2-0.1-0.8-0.5-1.2-0.8c0-0.1,0-0.2,0-0.2c0-0.2-0.1-0.4-0.1-0.5
		c-0.1-0.1-0.2-0.2-0.3-0.3c0.1,0,0.2,0,0.2,0c0.2,0,0.5-0.1,0.6-0.4c0.2-0.3,0.3-0.6,0.3-1c0-0.3-0.1-0.7-0.2-1.1
		c-0.1-0.3-0.3-0.5-0.6-0.8c0.5-0.1,1-0.4,1.5-0.9c0.6-0.6,0.9-1.1,0.9-1.6c0-0.1,0-0.2,0-0.3c-0.2-0.8-1.3-1-1.7-1.1c0,0,0,0-0.1,0
		c0.2-0.1,0.5-0.1,1-0.1c0.6,0,1.1-0.2,1.5-0.5V58.7L40.7,58.7z M86.8,42.2c0.5,0,0.8,0.1,1,0.1c0,0,0,0-0.1,0
		c-0.4,0.1-1.5,0.3-1.7,1.1c0,0.1,0,0.2,0,0.3c0,0.5,0.3,1,0.9,1.6c0.5,0.5,1,0.8,1.5,0.9c-0.2,0.2-0.4,0.5-0.6,0.8
		c-0.2,0.4-0.2,0.7-0.2,1.1c0,0.4,0.1,0.8,0.3,1c0.2,0.2,0.4,0.4,0.6,0.4c0.1,0,0.1,0,0.2,0c-0.1,0.1-0.2,0.2-0.3,0.3
		c-0.1,0.1-0.1,0.3-0.1,0.5c0,0.1,0,0.2,0,0.2c-0.4,0.4-1,0.8-1.2,0.8l0,0c-0.3,0.1-0.8,0.2-0.9,0.6c0,0.1,0,0.1,0,0.2
		c0,0.3,0.2,0.6,0.3,0.7c0.2,0.2,0.4,0.4,0.7,0.7c0.3,0.3,0.9,0.8,0.9,1.1c0,0,0,0,0,0c0,0-0.1,0.1-0.1,0.1c-0.6,0.4-0.9,0.9-1,1.5
		c0,0.1,0,0.1,0,0.2c0,0.3,0.1,0.8,0.5,1.3c-0.6,0.2-1.6,0.5-2.2,1V41.7C85.5,42,86,42.2,86.8,42.2L86.8,42.2z M85.1,71.3
		c0,0.1,0.1,0.1,0.1,0.2c0,0.1-0.1,0.1-0.1,0.2V71.3L85.1,71.3z M85.4,76.3c-0.1,0.1-0.2,0.2-0.3,0.4V76
		C85.2,76.1,85.3,76.2,85.4,76.3L85.4,76.3z M85.4,80.1c0,0,0.1,0.2,0.1,0.3c0,0,0,0.1,0,0.1c0,0.2-0.3,0.5-0.6,0.7
		c0.1-0.4,0.1-0.9,0.2-1.4C85.2,79.8,85.3,80,85.4,80.1L85.4,80.1z M83.7,84.4C83.7,84.4,83.7,84.4,83.7,84.4
		C83.7,84.4,83.7,84.4,83.7,84.4C83.7,84.4,83.7,84.4,83.7,84.4L83.7,84.4z M41,81c-0.3-0.2-0.4-0.4-0.5-0.6c0,0,0-0.1,0-0.1
		c0-0.2,0.1-0.3,0.1-0.3c0.1-0.1,0.2-0.1,0.2-0.2C40.9,80.3,40.9,80.7,41,81L41,81z M40.6,76.3c0.1,0,0.1-0.1,0.2-0.1v0.3
		C40.7,76.4,40.6,76.3,40.6,76.3L40.6,76.3z M40.7,37.9c-0.3-0.3-0.7-0.4-1-0.4c0,0,0,0,0,0c-0.1,0-0.1,0-0.2-0.1c0,0,0-0.1,0-0.2
		c0,0,0,0,0,0c0.5-0.1,0.9-0.3,1.1-0.5V37.9L40.7,37.9z M86.4,37.2C86.4,37.2,86.4,37.2,86.4,37.2c0,0.1,0,0.1,0,0.2
		c0,0-0.1,0.1-0.2,0.1c0,0,0,0,0,0c-0.3,0-0.7,0.2-1.1,0.6v-1.5C85.4,36.8,85.8,37.1,86.4,37.2L86.4,37.2z M61.7,100.3
		C61.7,100.3,61.7,100.3,61.7,100.3L61.7,100.3L61.7,100.3L61.7,100.3z"/>
	<path class="st3" d="M28.4,92.1c0-0.6,0.5-1.1,1-1.4c0,0,0,0,0,0c0.3-1.1,0.8-3.8-0.3-4.1c-0.9-0.2-2.1-0.1-2.4,0.4
		c-0.3,0.4-0.1,1,0.6,1.8c0,0,0.1-0.1,0.1-0.1c0.1-0.1,0.1-0.1,0.2,0c0.1,0,0.1,0.1,0.1,0.2l0.7,9.1c0-0.9,0-2.3,0-3.4
		C28.5,93.5,28.5,92.5,28.4,92.1C28.4,92.1,28.4,92.1,28.4,92.1L28.4,92.1z"/>
	<path class="st3" d="M98.4,88.6c0.1,0,0.1,0,0.2,0c0,0,0.1,0.1,0.1,0.1c0.6-0.8,0.8-1.4,0.6-1.8c-0.4-0.6-1.6-0.7-2.4-0.4
		c-1,0.3-0.6,3.1-0.3,4.1c0,0,0,0,0,0c0.5,0.3,1,0.8,1,1.4c0,0,0,0,0,0.1c0,0.4,0,1.3,0,2.4c0,1.2,0,2.5,0,3.4l0.7-9.1
		C98.3,88.7,98.3,88.6,98.4,88.6L98.4,88.6z"/>
	<path class="st3" d="M25.5,89.4c0.4,0.1,0.9,0,1.5-0.4c-0.9-1.2-0.9-1.9-0.6-2.3c0.5-0.8,2-0.8,2.9-0.6c1.4,0.4,0.9,3.3,0.6,4.3
		c0.4-0.2,0.7-0.3,0.8-0.3c0,0,1.9-0.8,3.1-1.4c0,0,0,0,0-0.1c0,0,0,0,0,0c0,0,0.1-1.1,0.3-2.5c0-0.1,0-0.3,0.1-0.4
		c0.2-1.4,0.4-3.1,0.6-4.4c0-0.1,0-0.2,0-0.3c0,0,0-0.1,0-0.1c0,0,0,0.1-0.1,0.1c-0.1,0.1-0.1,0.2-0.2,0.2c-0.4,0.6-1,1.2-1.7,1.7
		c-0.1,0-0.1,0-0.2,0c-0.1,0-0.1-0.1-0.1-0.2c0,0,0-1.8,0-2.8c0-0.1,0-0.3,0-0.4c-0.1,0.1-0.2,0.1-0.3,0.2c-0.3,0.2-0.6,0.3-0.9,0.3
		c-0.3,0-0.5-0.1-0.8-0.3l0.7,3c0,0.1,0,0.2-0.1,0.3c-0.1,0.1-0.2,0.1-0.3,0.1c0,0-2.6-0.5-2.6-0.5c-0.1,0-2-0.2-3.2,0.8
		C24.3,84,24,84.7,24,85.7c0,0,0,0.1,0,0.1c0,0.7,0.1,1.3,0.2,1.9C24.5,88.4,24.9,89.1,25.5,89.4L25.5,89.4z"/>
	<path class="st3" d="M102,85.7c0-1-0.3-1.7-0.9-2.2c-1.2-1-3.1-0.8-3.2-0.8c0,0-2.6,0.5-2.6,0.5c-0.1,0-0.2,0-0.3-0.1
		c-0.1-0.1-0.1-0.2-0.1-0.3l0.7-3c-0.2,0.2-0.5,0.3-0.8,0.3c-0.4,0-0.7-0.1-0.9-0.3c-0.1-0.1-0.2-0.1-0.3-0.2c0,0.1,0,0.2,0,0.4
		c0,1,0,2.8,0,2.8c0,0.1,0,0.1-0.1,0.2c-0.1,0-0.1,0-0.2,0c-0.8-0.5-1.3-1.1-1.7-1.7c-0.1-0.1-0.1-0.2-0.2-0.2c0,0,0,0,0,0
		c0,0,0,0,0,0c0,0.1,0,0.2,0,0.3c0.2,1.3,0.4,3,0.6,4.4c0,0.1,0,0.3,0.1,0.4c0.2,1.4,0.3,2.5,0.3,2.5c0,0,0,0,0,0c0,0,0,0,0,0.1
		c1.2,0.5,3.1,1.4,3.1,1.4c0.1,0,0.4,0.1,0.8,0.3c-0.2-1-0.8-3.9,0.6-4.3c0.8-0.2,2.3-0.2,2.9,0.6c0.3,0.4,0.3,1.1-0.6,2.3
		c0.5,0.4,1,0.5,1.5,0.4c0.6-0.2,1.1-1,1.3-1.6c0.1-0.6,0.2-1.3,0.2-1.9C102,85.8,102,85.7,102,85.7L102,85.7z"/>
	<path class="st3" d="M72.5,101.9c0.4-1.3,0.5-2.8,0.5-4.3c0-2.7-0.4-5.2-0.5-5.7c-4.4-2.5-7.7-2.6-8.4-2.5
		c-0.1,0.1-0.2,0.2-0.2,0.3c4.6,0.4,8.2,2.4,8.2,2.4c0.1,0.1,0.1,0.2,0.1,0.3c-0.1,0.1-0.2,0.1-0.3,0.1c0,0-3.7-2.1-8.3-2.4
		c-0.3,0.6-0.4,1-0.4,1h-0.7c0,0-0.1-0.4-0.4-1c-4.5,0.3-8.1,2.4-8.1,2.4c-0.1,0.1-0.2,0-0.3-0.1c-0.1-0.1,0-0.2,0.1-0.3
		c0,0,3.6-2,8.1-2.4c-0.1-0.1-0.2-0.2-0.3-0.3c-0.9,0-4.1,0.2-8.2,2.5c-0.1,0.5-0.5,3-0.5,5.7c0,1.5,0.1,3.1,0.5,4.3
		c0.1,0,0.2,0,0.3,0c0,0,0.1,0,0.1-0.1c0.2-0.1,5-2,8.4-2.2c0,0,0,0,0,0h0.5c0.1-0.1,0.2,0,0.3,0h0.7c0,0,0,0,0,0
		c3.3,0.2,8.2,2.1,8.4,2.2c0,0,0.1,0,0.1,0.1C72.4,101.9,72.5,101.9,72.5,101.9L72.5,101.9z"/>
	<path class="st4" d="M31.5,39.6c0,0.1,0,0.1,0,0.2c0,0.5-0.2,1-0.4,1.4c0.3,0.1,0.6,0.2,0.9,0.4c0.1,0,0.2,0,0.3-0.1
		c0.7-0.1,1.5-0.4,1.6-0.6c0,0,0,0,0,0c0,0-0.1-0.1-0.1-0.1c-0.6-0.8-0.7-1.5-0.2-2.1c0.1-0.1,0.3-0.2,0.5-0.3
		c-0.1-0.2-0.3-0.7-0.5-1c-0.3-0.5-0.5-0.9-0.5-1.2c0-0.1,0-0.2,0.1-0.2c0,0,0.1-0.1,0.1-0.1c0-0.1-0.1-0.3-0.2-0.6
		C33,35.2,33,35.1,33,35c0-0.2,0.1-0.4,0.2-0.7c0.2-0.4,0.7-0.9,1.1-0.9c0.1,0,0.1,0,0.2,0c0-0.1,0-0.1,0-0.2c0-0.1,0-0.2,0-0.3
		c0,0-0.1-0.1-0.1-0.1c-0.2-0.2-0.5-0.3-0.7-0.3c-0.2-0.1-0.3-0.1-0.3-0.3c0,0,0-0.2,0.1-0.2c0.1-0.1,0.1-0.4,0.1-0.8
		c-0.1,0-0.2,0-0.2,0c0,0.6-0.3,1.1-1.5,1.4c-0.3,0.1-0.5,0.2-0.6,0.5c-0.1,0.1-0.1,0.3-0.1,0.5c0,0.4,0.2,1,0.4,1.3
		c0.2,0.3,0.3,0.6,0.3,0.9c0,0.6-0.4,1.2-0.9,1.6c-0.1,0.1-0.1,0.2-0.1,0.3c0,0.3,0.2,0.8,0.4,1.2C31.3,39.1,31.5,39.4,31.5,39.6
		L31.5,39.6z M38.3,30.4C38.2,30.4,38.2,30.4,38.3,30.4c-0.2,0.1-0.3,0-0.4-0.1l-0.1-0.1c-0.3-0.3-0.7-0.6-1-0.3
		c-0.5,0.3-0.9,1.3-0.9,2.1c0,0.8-0.6,1.4-1.2,1.6c0,0-0.1,0-0.1,0c-0.1,0-0.2,0.1-0.3,0.1c-0.2,0-0.5,0.3-0.7,0.7
		c-0.1,0.2-0.2,0.4-0.2,0.5c0,0.1,0,0.1,0,0.1c0.1,0.2,0.3,0.5,0.3,0.8c0,0.1-0.1,0.3-0.2,0.4c0,0.2,0.3,0.6,0.5,0.9
		c0.2,0.4,0.4,0.7,0.5,0.9c0,0,0,0,0,0c0-0.1,0.1-0.1,0.1-0.2c0,0,0-0.1,0-0.1l1.1-2.2c0.7-0.8,1.5-1.3,2-1.4c0.6-0.1,0.9-1.2,1.1-2
		c0.1-0.3,0.2-0.6,0.2-0.8c0.3-0.7,0.4-1,1.1-1c0.4,0,1.5-0.5,1.9-0.6c0.1,0,0.2,0,0.3,0.1c0,0.1,0,0.2-0.1,0.3c0,0-0.2,0.1-0.4,0.2
		c-0.5,0.2-1.3,0.5-1.7,0.5c-0.4,0-0.5,0.1-0.8,0.8c-0.1,0.2-0.1,0.5-0.2,0.8c-0.1,0.5-0.3,1.2-0.6,1.7c-0.1,0.2-0.2,0.3-0.3,0.4
		c-0.1,0.1-0.3,0.2-0.5,0.2c-0.9,0.2-2.4,1.5-2.7,3c0.2-0.1,0.4-0.2,0.6-0.3c0.6-0.2,1.2-0.2,1.6-0.2l0.2,0c0.6-0.1,1.2-0.2,1.5-0.3
		c0-0.1,0.1-0.2,0.3-0.2c0.7-0.1,1.1-0.4,1.2-0.7c0-0.1,0.1-0.2,0.1-0.3c0-0.4-0.3-0.9-0.4-1.1c0-0.1-0.1-0.1-0.1-0.2
		c0,0,0-0.1,0-0.1c0-0.1,0.1-0.2,0.2-0.2c0,0,0.1-0.1,0.1-0.1c0.2-0.4,0.5-0.7,1.8-0.7c0.4,0,0.7-0.1,0.9-0.3
		c0.2-0.2,0.2-0.5,0.2-0.7c0-0.2,0-0.4-0.1-0.6c0-0.1,0-0.2,0-0.3c0-0.2,0-0.3,0.1-0.5c0.1-0.1,0.2-0.2,0.3-0.2
		c0.9-0.5,1.1-1,1.1-1.5c0-0.3,0-0.5-0.1-0.8c0-0.1,0-0.2-0.3-0.3c-0.6-0.2-1.7,0-1.9,0.1c-0.1,0.4-0.6,0.7-0.7,0.7
		c-0.1,0.1-0.3,0-0.4-0.1c-0.3-0.3-1.3-0.2-1.9,0c-0.1,0.1-0.4,0.5-0.4,0.8C38.7,29.8,38.5,30.2,38.3,30.4L38.3,30.4z M29.2,50
		c0.2,0.2,0.2,0.5,0.3,0.8c0,0.1,0,0.2,0,0.3c0,0.3,0,0.4,0.1,0.4c0.3,0,0.5,0.1,0.7,0.1c0,0,0,0,0,0l0,0c0.1-0.4,0.3-0.7,0.5-1
		c0,0,0,0,0,0C30.6,50.4,30.1,50,29.2,50L29.2,50z M28.2,40.7C28.2,40.7,28.2,40.7,28.2,40.7C28.2,40.7,28.2,40.7,28.2,40.7
		L28.2,40.7z M25.5,67.6c0,0.2-0.1,0.3-0.3,0.4c-0.3,0-0.6,0.3-0.7,0.6c-0.1,0.2-0.2,0.6,0.1,1.1c0.4,0.6,1.3,0.4,2,0.2l0.2,0
		c0.5-0.1,0.9,0.1,1,0.2c0.1,0.1,0.1,0.3,0.1,0.4c0,0.1-0.1,0.6,0.1,1.1c0.2,0.3,0.4,0.6,0.7,0.7l0.3,0.1c0.3,0.1,0.5,0.2,0.6,0.3
		c0.4,0.1,0.9,0.3,1.3,0.5c0,0,0,0,0,0c0.4-0.1,0.8,0,1.1,0.1c0-0.1,0-0.1,0.1-0.1c0.1-0.1,0.3-0.1,0.8,0.1l0.7,0.2
		c0.2,0.1,0.4,0.1,0.5,0.2l0.2,0.2c0,0,0-0.1,0-0.1c0,0,0,0,0,0c0,0,0,0,0,0c-0.3-0.7-0.7-1.9-1.1-2.9c-0.2-0.6-1-0.8-1.9-1.1
		c-0.5-0.1-1-0.2-1.4-0.5c-0.6-0.3-1.2-0.7-1.7-1.4c-0.4-0.5-0.7-1-1-1.3c-0.2-0.3-0.5-0.5-0.7-0.7c-0.5-0.4-0.8-0.6-0.8-0.6
		c-0.1,0-0.1-0.2-0.1-0.3c0-0.1,0.2-0.1,0.3-0.1c0.1,0,1.2,0.5,2.7,2.7c0.7,1.1,1.9,1.4,2.9,1.7c0.9,0.2,1.8,0.5,2.2,1.3
		c0.3,0.9,0.7,1.9,1,2.6c0,0,0,0,0-0.1c0.8-1.2,1.4-2.3,1.3-2.5c-0.2-0.4-0.3-0.5-0.4-0.6c0,0,0,0,0,0l0,0c-1.5-0.7-1.7-2.4-1.8-3.7
		c-0.5,0-1.2,0-1.4,0.2c-0.2,0.2-0.5,0.2-0.8,0c-0.5-0.2-1-0.8-1-1.2c0,0,0,0,0,0c-0.1,0-0.3,0-0.4,0.1c-0.1,0-0.2,0.1-0.3,0.1
		c-0.1,0-0.1,0-0.2-0.1c-0.1-0.1-0.1-0.3,0-0.7c0-0.2,0.1-0.6,0.1-0.8c0-0.1,0-0.2-0.1-0.2c-0.3-0.4-0.8-0.9-1.8-0.7
		c0,0-0.1,0-0.1,0l0,0C27,63.7,26.2,63.9,26,64c-0.1,0-0.3,0-0.4-0.1c-0.6-0.7-1.5-1.5-2.3-1.2c-0.7,0.2-1,1-1,1.2
		c0,0.3,0.5,0.5,0.7,0.6c0.2,0,0.5,0,0.5,0.3c0.1,0.3-0.3,0.5-0.4,0.5c-0.2,0.1-0.5,0.2-0.6,0.4c-0.1,0.2,0.1,0.4,0.2,0.6
		c0.4,0.6,1.9,0.9,2.4,0.9C25.3,67.2,25.5,67.4,25.5,67.6L25.5,67.6z M25.8,58.3c0.2,0.7,1.3,1.5,1.8,1.8c0.4-0.4,0.8-0.6,1.3-0.8
		c-0.7-0.9-2.4-3.6-1.6-7.3c0-0.1,0.1-0.2,0.2-0.2c0.1,0,0.2,0.1,0.2,0.2c0,0.1-0.1,0.3-0.1,0.4c-0.5,3.4,1,5.8,1.6,6.6
		c0,0,0,0.1,0.1,0.1c0.3-0.1,0.7-0.2,1.1-0.2c-0.2-0.3-0.6-0.9-0.9-1c-0.3-0.1-0.6-0.5-0.6-0.9c0-0.2,0.1-0.6,0.6-0.9
		c0.7-0.4,1-1.2,1.1-1.9c-0.2-0.1-0.3-0.2-0.5-0.3c-0.1-0.1-0.4-0.3-0.4-0.6c0,0,0,0,0-0.1c0-0.3,0.3-0.5,0.5-0.5
		c0-0.2,0-0.4,0.1-0.7c-0.2,0-0.4-0.1-0.7-0.1c-0.4-0.1-0.4-0.5-0.4-0.8c0-0.4,0-0.8-0.4-1.1c-0.1,0.1-0.2,0.1-0.3,0
		c-0.7-0.3-1.2-0.3-1.5-0.1c-0.5,0.3-0.5,1-0.5,1c0,0.1-0.1,0.2-0.2,0.3c-0.4,0.2-0.6,0.4-0.7,0.7c0,0.1-0.1,0.3-0.1,0.4
		c0,0.6,0.3,1.1,0.3,1.1c0,0.1,0,0.1,0,0.2c0,0.1,0,0.1,0,0.2c-0.1,0.1-0.2,0.2-0.3,0.2c-0.5,0-1.2,0.1-1.2,0.5c0,0,0,0.1,0,0.1
		c0,0.5,0.6,1.2,0.7,1.2c0.6,0.1,1.4,1,1.7,1.5c0.1,0.1,0.1,0.3,0.1,0.4c0,0.1,0,0.1,0,0.2C26.5,58.1,26.2,58.2,25.8,58.3L25.8,58.3
		z M42.2,27.9C42.2,27.9,42.2,27.9,42.2,27.9C42.2,27.9,42.2,27.9,42.2,27.9L42.2,27.9z M39.3,28.3C39.3,28.3,39.3,28.3,39.3,28.3
		C39.3,28.3,39.3,28.3,39.3,28.3C39.3,28.3,39.3,28.3,39.3,28.3L39.3,28.3z M31.6,74.6c0.1,0,0.2-0.1,0.3-0.1c0-0.1,0-0.1,0-0.2
		c0-0.2-0.1-0.3-0.2-0.4c-0.1-0.1-0.2-0.1-0.4-0.1h0c0,0-0.1,0.1-0.1,0.1c0,0,0,0.1,0,0.1c0,0.2,0.1,0.5,0.2,0.8
		C31.4,74.7,31.5,74.6,31.6,74.6L31.6,74.6z M37.5,37.5l-0.1,0l0,0c-0.7,0.1-1.8,0.1-2.3,0.6c0,0-0.1,0.1-0.1,0.1
		c0,0-0.1,0.1-0.1,0.1c0,0,0,0,0,0.1l0,0l0.1,0l0.1,0c0.4,0,1,0,1.5,0c0.5,0,0.9,0,1.3,0c0.7,0,1-0.2,1.3-0.3c0,0,0,0-0.1-0.1
		c-0.1-0.2-0.1-0.4-0.1-0.5c0,0,0,0,0,0C38.6,37.4,38.1,37.5,37.5,37.5L37.5,37.5z M37.8,60.9c-0.2,0.4-1.3,2-2.2,2.2
		c-0.8,0.2-1.6,1.1-1.6,2c0,0.1,0,0.2,0,0.3c0.1,0.2,0.1,0.5,0.1,0.9c0.1,1.1,0.2,2.8,1.4,3.5c-0.3-0.5-0.6-1.3-0.6-2
		c0-0.3,0.1-0.6,0.2-0.8c0.3-0.6,0.8-1.1,1.3-1.4c0.5-0.4,0.9-0.8,0.9-1.2c0-0.5,0.4-1,1-1.1c0.3-0.1,0.6,0,1,0.1
		c0.2,0.1,0.4,0.3,0.6,0.5c0.2-0.5-0.6-1-0.6-1c0,0,0,0,0,0c-0.3-0.2-0.4-0.4-0.4-0.6c0,0,0-0.1,0-0.1c0-0.5,0.4-0.9,1-1.3
		c0.4-0.3,0.9-0.8,0.9-1.1c0,0,0,0,0-0.1c-0.2-0.6-1.7-1.1-2.6-1.3c0,0-0.1,0-0.1,0c-0.2,0.1-0.5,0.2-1,0.3l0,0l-0.1,0
		c-1.2,0.2-2,0.3-2.1,1.5c0,0.1,0,0.2,0,0.3c0,0.4,0,0.9-0.4,1c-0.2,0.1-0.4,0-0.5-0.1c-0.1,0.8-0.5,1.6-1.1,2.1
		c-0.5,0.4-1,0.4-1.4,0.3l-0.1-0.2c0,0-0.1,0.1-0.2,0.1c-0.1,0.1-0.2,0.1-0.2,0.2c0,0.1,0,0.1,0,0.2c0.1,0.1,0.3,0.3,0.6,0.6
		c0.1,0.1,0.2,0.2,0.3,0.3c0.2,0.2,0.4,0.4,0.6,0.6c0.2,0.2,0.3,0.4,0.3,0.7c0.3-0.1,0.6-0.1,0.9-0.1c0.1,0,0.2,0,0.2,0
		c0-0.3,0-0.5-0.1-0.7c-0.3-1.2,0.8-2.5,1.9-2.7c0.8-0.2,1.7-1.6,2-2.1c0.1-0.1,0.2-0.1,0.3-0.1c0.1,0,0.1,0.1,0.1,0.2
		C37.9,60.7,37.9,60.8,37.8,60.9C37.9,60.8,37.9,60.8,37.8,60.9L37.8,60.9z M39.9,80.9c-0.4-0.1-0.7-0.1-1-0.2
		c-0.2,0-0.3,0.1-0.5,0.3c-0.3,0.2-0.7,0.5-1.4,0.6c-0.7,0.1-1.2,0.1-1.5-0.1c0,0,0,0,0,0c0,0,0,0,0,0l-0.1,1.3
		c0.3,0.1,0.7,0.2,1.3,0.4c0.5,0.1,1.1,0.3,1.6,0.3c0.1,0,0.2,0,0.3,0c0.9,0,1.9,0.2,2.6,0.3c0.1,0,0.3,0.1,0.4,0.1
		c-0.1-0.6-0.4-1.4-0.8-2.1C40.3,81.6,40,81.3,39.9,80.9L39.9,80.9z M40,76.8l0-0.1c0,0,0,0-0.1,0l0,0c0,0,0,0-0.1,0
		c-0.2,0-0.6-0.1-1-0.1c0.2,0.5,0.5,1.4,0.2,2.2c-0.1,0.4-0.4,0.8-0.7,1c0.2,0.1,0.4,0.1,0.6,0.2c0.1,0,0.3,0,0.5,0
		c0.1,0,0.1,0.1,0.2,0.1c0.1,0,0.2,0,0.3,0.1c0.1,0,0.1,0,0.2,0l0-0.4c0-0.1,0.1-0.1,0.1-0.1c0,0,0,0,0,0c0.3-0.3,0.6-0.6,0.6-0.9
		c0-0.2,0-0.5,0-0.8C40.6,77.5,40.3,77,40,76.8L40,76.8z M38.6,83.9c-1,0-2.6-0.4-3.3-0.7l-0.1,1.9c0,0.1,0,0.1-0.1,0.2
		c0,0-0.3,0.4-0.4,0.6c0,0,0,0,0,0c0.2,0.2,0.4,0.4,0.7,0.5c1.6,0.5,4.7-1,5.9-1.7c0.1-0.1,0.2-0.2,0.2-0.4c-0.1,0-0.3-0.1-0.5-0.1
		C40.5,84.1,39.4,83.9,38.6,83.9L38.6,83.9z M35,74.1c0.9,0.7,1.6,1.6,1.9,2c0.3-0.1,0.6-0.2,1-0.2c-0.1-0.7-0.4-2.3,0-3.4l0.3-0.8
		c0.2-0.6,0.4-1.3,0.6-2c0.2-1,0.4-1.9,0.2-2.7c0-0.2-0.1-0.3-0.1-0.5c0-0.1,0-0.2,0.1-0.3c0.1,0,0.2,0,0.3,0.1
		c0.6,1.4-0.1,3.6-0.6,5.2c0,0.1-0.1,0.2-0.1,0.3l-0.3,0.8c-0.3,0.9-0.1,2.2,0,2.9c0,0.1,0,0.2,0.1,0.3c0.7-0.1,1.4,0,1.7,0.1
		c0.5-0.3,0.7-0.7,0.8-1.2v-1.1c-0.2-1-0.7-1.9-0.7-1.9c0-0.1,0-0.1,0-0.2c0-0.1,0-0.2,0.1-0.2c0.5-0.6,0.6-2.1,0.6-3.4
		c0-0.7,0-1.3-0.1-1.7c-0.4,0-0.7-0.2-0.8-0.3c-0.4-0.4-0.4-1.1-0.2-1.6c-0.4-0.8-1.1-0.7-1.3-0.7c-0.4,0.1-0.7,0.4-0.7,0.7
		c0,0.6-0.5,1.1-1,1.5c-0.4,0.4-0.9,0.8-1.2,1.3c-0.6,1.1,0.8,3,0.8,3c0,0.1,0,0.2,0,0.2c0,0,0,0,0,0c0,0.1,0.1,0.2,0.1,0.3
		c0.2,0.5-0.9,2.3-1.5,3.1C34.9,74,35,74.1,35,74.1L35,74.1z M25.9,44.8c0.2,0,0.3,0.2,0.3,0.4c0,0.6,0.3,1.3,1,1.6
		c0.5,0.2,0.9,0.9,1.2,1.6l0.3,1.2c0,0,0.1,0,0.1,0c0,0,0,0,0.1,0c0.9-0.2,1.6,0.2,2,0.5c-0.3-0.8-1.2-2.2-1.9-3
		c-0.5-0.6-0.9-1.1-1.2-1.7c-1.4-2.1-1.6-3.7-1.6-4.7c0-0.6,0.1-0.9,0.1-0.9c0-0.1,0.1-0.2,0.2-0.1c0.1,0,0.2,0.1,0.1,0.2
		c0,0,0,0.1-0.1,0.4c-0.1,0.6,0,1.9,0.9,3.7c0.4,0.8,1,1.8,1.8,2.8c0.2,0.2,1.1,1.3,1.7,2.4c0.2-0.7,0.1-1.2-0.2-1.4
		c-0.1-0.1-0.2-0.2-0.2-0.6c0-0.4,0.2-0.9,0.5-1.1c0.1-0.1,0.2-0.3,0.2-0.5c-2.2-0.1-3.4-2.2-3.4-2.3c-0.1-0.1-0.1-0.2,0-0.3
		c0.3-0.9,1.5-1.5,2.2-1.8c-0.3-0.2-0.7-0.2-1-0.2c-0.3,0-0.7-0.1-0.8-0.3c0,0-0.1,0-0.1-0.1c-0.2-0.1-0.5-0.2-0.6-0.5
		c0,0,0-0.1,0-0.1c0-0.1,0-0.3,0.2-0.4l0.2-0.2c0.2-0.2,0.5-0.5,0.5-0.7c0,0,0,0,0,0c0-0.1-0.1-0.3-0.4-0.5c-0.5-0.4-1-0.5-1.4-0.4
		c-0.4,0.1-0.6,0.4-0.7,0.6c-0.3,0.6-1,0.8-1.5,0.8c0,0.1,0,0.2,0,0.3c0,0.2,0,0.4-0.1,0.5c0,0,0,0,0,0c0,0.3,0.4,1.1,0.8,1.8
		c0,0.1,0.1,0.1,0.1,0.2c0,0.1,0,0.2-0.1,0.3c-0.1,0.1-0.3,0.1-0.4,0c-0.2-0.2-0.4-0.2-0.4-0.1c0,0-0.2,0.2-0.3,1.1
		C23.9,44.6,25.9,44.8,25.9,44.8L25.9,44.8z M30.5,62.8c0.3,0.1,1.1,0.5,1.7,0.1c0.8-0.6,1.1-1.8,0.7-2.3c-0.2-0.2-0.9-0.7-1.7-0.8
		c0.3,0.5,0.5,1.3,0.3,2C31.3,62.4,30.5,62.8,30.5,62.8L30.5,62.8z M28.7,61.8c0.2-0.1,0.3,0,0.5,0.1c0.3,0,0.6,0.2,0.8,0.4
		c0.3-0.1,0.7-0.3,0.8-0.7c0.2-0.5-0.1-1.2-0.4-1.6c0-0.1-0.1-0.2-0.1-0.2c-0.9,0-1.3-0.1-1.9,0.5C27.9,60.7,28.5,61.3,28.7,61.8
		L28.7,61.8z M37.6,79.5C37.6,79.5,37.6,79.5,37.6,79.5c0.4-0.3,0.7-0.6,0.8-0.9c0.2-0.6,0-1.3-0.2-1.7c0-0.1-0.1-0.2-0.1-0.3
		c-0.8,0.1-1.8,0.4-2.5,1.2C35.8,78.2,36.4,78.9,37.6,79.5L37.6,79.5z M35.5,80.7c0.2,0.1,0.6,0.3,1.3,0.2c0.5-0.1,0.7-0.2,1-0.4
		c0.1,0,0.1-0.1,0.2-0.1c-0.1-0.1-0.3-0.1-0.4-0.2c-0.1,0-0.1,0-0.2-0.1c-0.7-0.4-1.3-0.8-1.7-1.1c0,0,0,0,0,0c0,0,0,0,0,0
		C35.7,79.1,35.6,79.7,35.5,80.7C35.5,80.7,35.5,80.7,35.5,80.7L35.5,80.7z M29.6,73.4C29.6,73.3,29.6,73.3,29.6,73.4
		c-0.2,0.1-0.4,0.1-0.5,0.2c-0.3,0.1-0.7,0.3-1.3,0.5l0,0c-0.6,0.2-1,0.5-1.2,0.9c-0.1,0.3,0,0.7,0.2,1.1c0.1,0.2,0.1,0.3,0.2,0.5
		c0.1,0.3,1,0.4,1.7,0.3c0.2,0,0.4,0.1,0.4,0.3c0,0.2,0.1,0.3,0.2,0.5c0-0.2,0-0.4,0.1-0.6c0.1-0.4,0.3-0.9,0.7-1.4
		c-0.2-0.2-0.6-0.4-1.1-0.4c-0.1,0-0.2-0.1-0.2-0.2c0-0.1,0.1-0.2,0.2-0.2c0.6,0.1,1.1,0.4,1.3,0.6c0.1-0.1,0.2-0.2,0.4-0.3
		c-0.1-0.2-0.1-0.4-0.2-0.6c0-0.2-0.1-0.4-0.1-0.6c0-0.1,0-0.2,0-0.2C30.2,73.5,29.9,73.4,29.6,73.4L29.6,73.4z M28.6,43.3
		c0.2,0.3,0.7,1,1.5,1.4c0,0,0.1,0,0.1,0c0,0,0.1,0,0.1,0c0.2-0.1,0.4-0.2,0.5-0.4c0.3-0.5,0-1.4-0.2-2c0-0.1-0.1-0.2-0.1-0.3
		C29.9,42.2,28.9,42.7,28.6,43.3L28.6,43.3z M31,45c0.2,0,0.4,0,0.6,0c0.7-0.1,1.1-0.5,1.1-1.2v0c0-0.7-0.5-1.6-1.5-1.9
		c0.2,0.7,0.5,1.8,0.1,2.6C31.3,44.8,31.1,44.9,31,45L31,45z M32.5,73.7c0.1,0.2,0.1,0.5,0.1,0.7c0.3,0,0.6,0.1,0.9,0.3
		c0.8,0.5,1.4,1.5,1.7,2.5c0.4-0.4,0.9-0.7,1.3-0.9c0-0.1-0.1-0.1-0.2-0.2c-0.3-0.4-0.9-1.1-1.6-1.6c0,0-0.1,0-0.1-0.1
		c-0.4-0.3-0.8-0.5-1.2-0.7l-0.7-0.2c-0.2-0.1-0.3-0.1-0.4-0.1c0,0,0,0.1,0,0.1c0,0,0,0.1,0,0.1c0,0,0,0.1,0,0.1L32.5,73.7
		L32.5,73.7z M30,65.1c0,0.1,0,0.2,0,0.3c0,0,0.1,0,0.1,0c0.3-0.1,0.6-0.2,0.8,0c0.1,0.1,0.1,0.1,0.1,0.3c0,0.2,0.4,0.6,0.8,0.8
		c0.1,0,0.3,0.1,0.4,0c0,0,0.1-0.1,0.1-0.1c0,0,0,0,0,0c0.2-0.4-0.6-1-1.1-1.4c0,0,0,0,0,0c-0.3-0.3-0.6-0.5-0.7-0.7
		c-0.1-0.2-0.1-0.3,0-0.5c0-0.1,0.1-0.2,0.1-0.2c-0.3-0.1-0.5-0.2-0.5-0.2c-0.1,0-0.1-0.1-0.1-0.2c-0.2-0.6-0.7-0.6-1-0.6
		c-0.1,0.1-0.3,0.2-0.5,0.3c0.7,0.1,1.1,0.5,1.4,0.9c0.1,0.2,0.2,0.4,0.2,0.6c0,0,0,0,0,0C30,64.7,30,64.9,30,65.1L30,65.1z
		 M33,51.4c-0.8,0.3-1.5,1-1.9,1.7c-0.1,0.1-0.1,0.2-0.1,0.3C31,53.6,31,53.7,31,53.9c0,0.1,0,0.2,0,0.3c0,0.1,0,0.2-0.1,0.4
		c-0.1,0.7-0.5,1.6-1.3,2c-0.3,0.2-0.4,0.3-0.4,0.6c0,0.3,0.3,0.5,0.4,0.6c0.3,0.2,0.9,0.8,1.1,1.3c0,0,0,0.1,0,0.1
		c0.3,0,0.7,0.1,1,0.2c-0.2-1.1-0.2-1.9,0-2.6l0.4-0.9c0.8-1.4,2.4-1.9,3.2-2.1l0.2-0.1c0.2-0.1,0.4-0.2,0.5-0.3
		c0.1-0.1,0.1-0.2,0.2-0.3c0.1-0.1,0-0.3,0-0.3c0-0.1,0-0.2,0.2-0.2c0.1,0,0.2,0,0.2,0.1c0.1,0.3,0,1-0.9,1.2l-0.1,0l-0.1,0
		c-1.2,0.4-4,1.2-3.3,5c0,0.1,0,0.1,0,0.2c0,0.1,0,0.1-0.1,0.2c0.7,0.3,1.2,0.6,1.4,0.9c0.1,0.2,0.2,0.4,0.3,0.6l-0.1,0
		c0,0,0,0,0.1,0.1c0.1,0.1,0.3,0.2,0.4,0.2c0,0,0.1-0.2,0.1-0.7v0c0-1.7,1.1-1.9,2.4-2.1l0.2,0c0.5-0.1,0.7-0.2,0.9-0.3
		c0-0.1,0-0.1,0.1-0.2c0.4-0.4,0.6-0.9,0.6-1.3c0,0,0-0.1,0-0.1c0-0.4-0.3-0.7-0.7-1c-0.3-0.2-0.4-0.5-0.4-0.6c0,0,0,0,0-0.1
		c0-0.5,0.6-1.1,1.1-1.6c0.2-0.2,0.5-0.4,0.6-0.6c0.1-0.2,0.2-0.2,0.2-0.3c-0.1-0.1-0.3-0.1-0.4-0.1l0,0c-0.5-0.1-1.5-1-1.7-1.1
		c0,0-0.1-0.1-0.1-0.1C36.8,51,36.6,51,36.3,51c0,0,0,0-0.1,0c-0.5,0-0.5,0-0.6,0.4l0,0.1l0,0.1c-0.1,0.3-0.5,0.4-0.8,0.5
		c-0.1,0-0.1,0-0.2,0.1c-0.1,0-0.2,0.1-0.2,0.1c0,0,0,0,0,0c-0.1,0.3-0.7,1.1-1.5,1.6c0,0,0,0-0.1,0c-0.4,0.2-0.7,0.3-1,0.3
		c-0.1,0-0.2,0-0.3,0c0,0,0,0-0.1,0c-0.1,0-0.1-0.1-0.1-0.2c0-0.1,0.1-0.1,0.2-0.1c0,0,0,0,0.1,0c0.1,0,0.1,0,0.2,0c0,0,0.1,0,0.1,0
		c0.3,0,0.6-0.2,0.8-0.3c0.2-0.1,0.3-0.2,0.5-0.4c0.2-0.2,0.3-0.3,0.5-0.5c0.2-0.3,0.4-0.5,0.4-0.6c0.1-0.3,0.4-0.4,0.7-0.4
		c0.2,0,0.5-0.1,0.5-0.2l0-0.2c0.1-0.4,0.3-0.6,1-0.6c0.5,0,0.6-0.2,0.6-0.2l0,0c0-0.1,0.1-0.1,0.1-0.1c0,0,0,0,0,0c0,0,0-0.1,0-0.1
		c-0.1-0.2-0.5-0.3-0.7-0.3c-0.2,0-0.3-0.1-0.3-0.3c0,0,0-0.1,0-0.1c0-0.1,0.1-0.2,0.2-0.3c0.1-0.1,0.9-0.5,1.4-0.5
		c0.1-0.1,0.2-0.4,0.2-0.7c0-0.2,0-0.5-0.2-0.8c-0.2-0.3-0.5-0.7-0.9-1.1c0,0-0.1,0-0.3,0c-0.5,0.1-1.4,0.3-2,1.2
		c-0.1,0.2-0.2,0.3-0.3,0.4c0.1,0,0.1,0.1,0.1,0.1c0,0.1,0,0.1,0,0.1c0,0.2-0.1,0.3-0.2,0.4c-0.3,0.3-0.7,0.3-1,0.3
		c-0.2,0-0.3,0-0.5,0.1c-0.1,0.1-0.3,0.6-0.5,0.9c-0.2,0.5-0.4,1-0.7,1.2c-0.3,0.3-0.4,1.1-0.4,1.6c0,0.1,0,0.1,0,0.2c0,0,0,0,0,0
		c0.4-0.8,1.1-1.6,2.1-1.9c1.2-0.4,2.3-2.5,2.3-3.1c0-0.1,0.1-0.2,0.2-0.2c0.1,0,0.2,0.1,0.2,0.2c0,0.5-0.5,1.6-1.3,2.5
		C34,50.8,33.5,51.2,33,51.4L33,51.4z M33.8,32c0.1,0,0.2,0.1,0.3,0.1c0.2,0.1,0.5,0.3,0.6,0.5c0.1,0.1,0.1,0.3,0.1,0.4c0,0,0,0,0,0
		c0.3-0.2,0.6-0.6,0.6-1.1c0-1,0.5-2,1.1-2.4c0.6-0.4,1.2,0.1,1.5,0.4c0,0,0.1,0.1,0.1,0.1c0.1,0,0.3-0.2,0.3-0.6
		c0-0.3,0.2-0.7,0.4-0.9c-0.1-0.1-0.1-0.2-0.1-0.3c0-0.1-0.1-0.5-0.6-0.8c-0.3-0.1-0.6-0.2-0.8,0C37,27.5,37,27.7,37,27.9
		c0,0.9-0.6,1.2-1,1.3c-0.1,0-0.2,0-0.3-0.1c-0.3-0.3-0.5-0.4-0.8-0.3c-0.4,0.2-0.6,0.7-0.6,0.9c0,0.7-0.3,1.3-0.3,1.4
		c0,0.1-0.1,0.1-0.2,0.2c0,0.1,0,0.2,0,0.3c0,0,0,0.1,0,0.1C33.9,31.8,33.9,31.9,33.8,32L33.8,32z M30.9,47.4c0,0.1,0,0.2,0.1,0.2
		c0.1,0.1,0.2,0.1,0.2,0.3c0.2,0.4,0.3,1.1,0,2c0,0,0,0,0,0c0,0,0,0.1,0,0.1c0.1-0.1,0.1-0.2,0.2-0.4c0.2-0.5,0.4-1,0.8-1.2
		c0.1-0.1,0.3-0.1,0.4-0.2c-0.6-2.1,1-3.8,1-3.9c0,0,0,0,0,0c0,0,1.5-0.9,1.6-1.9c0.1-1.2,2.8-2.2,3.1-2.3c0.1,0,0.2,0,0.2,0.1
		c0,0,0,0,0,0.1c0,0.1-0.1,0.2-0.1,0.2c-0.1,0-0.2,0.1-0.2,0.1c-1.1,0.4-2.6,1.2-2.6,1.9c-0.1,1.2-1.5,2-1.8,2.2
		c-0.1,0.2-1,1.2-1,2.7c0,0.3,0,0.6,0.1,0.9c0,0.1,0,0.2,0.1,0.2l0.2-0.3c0,0,0,0,0.1,0c0,0,0,0,0-0.1c0,0,0,0,0,0l1.2-1.8
		c0.5-0.4,0.9-0.5,1.3-0.6c-0.1-0.1-0.1-0.1-0.1-0.1c0-0.1-0.1-0.1-0.1-0.2c0-0.1,0-0.2,0.1-0.2c0.1-0.1,0.3-0.2,0.4-0.1
		c0,0,0.3,0.2,0.7,0.5c0.1,0,0.2,0.1,0.3,0.1c0.5,0,1-0.2,1.6-0.7c0.5-0.4,0.7-0.8,0.7-1.1c0,0,0-0.1,0-0.1
		c-0.1-0.3-0.6-0.5-1.1-0.6c-0.5-0.1-0.9-0.4-0.9-0.7c0,0,0,0,0,0c0-0.6,1.1-0.8,1.8-0.8c0.7-0.1,1.1-0.2,1.4-0.5
		c0.1-0.1,0.2-0.3,0.2-0.4v-1c0-0.1,0-0.2,0-0.3c-0.1-1-0.9-1.1-1-1.1c-0.1,0-0.2,0-0.3-0.1c-0.2,0.2-0.7,0.4-1.5,0.5
		c0,0-0.1,0-0.1,0c-0.4,0-0.8,0-1.3,0c-0.8,0-1.7,0-2.2,0.1c0,0,0,0,0,0c0,0,0,0,0,0c-0.2,0-0.3,0.1-0.4,0.2c-0.4,0.5,0,1.3,0.3,1.6
		c0,0,0,0.1,0.1,0.1c0.1,0.1,0.1,0.3,0.1,0.4c-0.2,0.4-1.2,0.7-1.8,0.8c0.6,0.5,0.9,1.3,0.9,1.9c0,1-0.7,1.8-1.7,1.9c0,0,0,0,0,0
		c0,0.2-0.1,0.5-0.3,0.7c0,0-0.1,0.1-0.1,0.1C31.1,46.7,30.9,47.1,30.9,47.4L30.9,47.4z M88.7,80.1c-0.1,0.1-0.1,0.1-0.2,0.1
		c-0.1,0.1-0.2,0.1-0.4,0.2c0.1,0,0.1,0.1,0.2,0.1c0.2,0.1,0.5,0.3,1,0.4c0.7,0.1,1.1,0,1.3-0.2c0,0,0,0,0,0c-0.1-1-0.2-1.6-0.2-1.6
		c0,0,0,0,0,0c0,0,0,0,0,0C90,79.4,89.4,79.8,88.7,80.1L88.7,80.1z M97.8,40.7C97.8,40.7,97.8,40.7,97.8,40.7
		C97.8,40.7,97.8,40.7,97.8,40.7L97.8,40.7z M94.7,74.7c0.1-0.3,0.2-0.6,0.2-0.8c0,0,0-0.1,0-0.1c0,0-0.1-0.1-0.1-0.1h0
		c-0.2,0-0.3,0-0.4,0.1c-0.1,0.1-0.2,0.3-0.2,0.4c0,0.1,0,0.2,0,0.2c0.1,0,0.2,0.1,0.3,0.1C94.5,74.6,94.6,74.7,94.7,74.7L94.7,74.7
		z M90.6,67.1c-0.3-0.5-0.7-0.9-1.2-1.3c-0.5-0.5-1-0.9-1-1.5c0-0.3-0.3-0.7-0.7-0.7c-0.2,0-0.8-0.1-1.3,0.7
		c0.2,0.6,0.2,1.2-0.2,1.6c-0.1,0.1-0.4,0.3-0.8,0.3c0,0.5-0.1,1.1-0.1,1.7c0,1.4,0.1,2.8,0.6,3.4c0.1,0.1,0.1,0.1,0.1,0.2
		c0,0.1,0,0.1,0,0.2c0,0-0.7,1.3-0.7,2.5c0,0.7,0.2,1.3,0.8,1.7c0.4-0.1,1-0.2,1.7-0.1c0-0.1,0-0.2,0.1-0.3c0.1-0.8,0.3-2,0-2.9
		l-0.3-0.8c0-0.1-0.1-0.2-0.1-0.3c-0.5-1.6-1.2-3.8-0.6-5.2c0-0.1,0.2-0.1,0.3-0.1c0.1,0,0.1,0.2,0.1,0.3c-0.1,0.1-0.1,0.3-0.1,0.5
		c-0.2,0.8,0,1.8,0.2,2.7c0.2,0.7,0.4,1.4,0.6,2l0.3,0.8c0.3,1.1,0.1,2.7,0,3.4c0.3,0,0.6,0.1,1,0.2c0.3-0.3,1-1.3,1.9-2
		c0-0.1,0.1-0.2,0.1-0.4c-0.6-0.9-1.7-2.6-1.5-3.1c0-0.1,0.1-0.2,0.1-0.3c0,0,0,0,0,0c0-0.1,0-0.2,0-0.2
		C89.8,70.1,91.1,68.2,90.6,67.1L90.6,67.1z M84.4,83.9c0.1,0,0.2,0,0.4-0.1c0.7-0.1,1.8-0.4,2.6-0.3c0.1,0,0.2,0,0.3,0
		c0.5,0,1.1-0.2,1.6-0.3c0.5-0.1,1-0.3,1.3-0.4l-0.1-1.3c0,0,0,0,0,0c0,0,0,0,0,0c-0.4,0.1-0.8,0.2-1.5,0.1
		c-0.7-0.1-1.1-0.4-1.4-0.6c-0.2-0.1-0.3-0.2-0.5-0.3c-0.3,0.1-0.7,0.2-1,0.2c-0.1,0.4-0.5,0.7-0.9,1C84.9,82.5,84.5,83.3,84.4,83.9
		L84.4,83.9z M92.3,66.2c0.1,0,0.2,0,0.2,0c0.3,0,0.6,0,0.9,0.1c0-0.2,0.1-0.5,0.3-0.7c0.2-0.2,0.4-0.4,0.6-0.6
		c0.1-0.1,0.2-0.2,0.3-0.3c0.3-0.2,0.5-0.4,0.6-0.6c0-0.1,0-0.1,0-0.2c0-0.1-0.1-0.2-0.2-0.2c-0.1,0-0.1-0.1-0.2-0.1l-0.1,0.2
		c-0.5,0.1-1,0-1.4-0.3c-0.6-0.5-1-1.3-1.1-2.1c-0.2,0.1-0.3,0.1-0.5,0.1c-0.4-0.1-0.4-0.7-0.4-1c0-0.1,0-0.2,0-0.3
		c-0.1-1.1-0.9-1.3-2.1-1.5l-0.1,0l0,0c-0.4-0.1-0.7-0.2-1-0.3c0,0-0.1,0-0.1,0c-1,0.2-2.4,0.7-2.6,1.3c0,0,0,0,0,0.1
		c0,0.3,0.5,0.7,0.9,1.1c0.5,0.5,1,0.9,1,1.3c0,0,0,0.1,0,0.1c0,0.2-0.1,0.4-0.4,0.6c0,0,0,0,0,0c0,0-0.9,0.6-0.6,1
		c0.2-0.2,0.4-0.4,0.6-0.5c0.3-0.2,0.7-0.2,1-0.1c0.6,0.1,1,0.6,1,1.1c0,0.4,0.4,0.8,0.9,1.2c0.5,0.4,1,0.8,1.3,1.4
		c0.1,0.3,0.2,0.5,0.2,0.8c0,0.7-0.4,1.5-0.6,2c1.2-0.7,1.3-2.4,1.4-3.5c0-0.4,0.1-0.7,0.1-0.9c0-0.1,0-0.2,0-0.3
		c0-0.9-0.8-1.8-1.6-2c-1-0.2-2-1.8-2.2-2.2c0-0.1,0-0.1-0.1-0.1c0,0,0-0.1,0-0.1c0-0.1,0-0.1,0.1-0.2c0.1-0.1,0.2,0,0.3,0.1
		c0.3,0.5,1.3,2,2,2.1c1.1,0.2,2.1,1.5,1.9,2.7C92.3,65.7,92.3,65.9,92.3,66.2L92.3,66.2z M83.8,27.8C83.8,27.9,83.8,27.9,83.8,27.8
		C83.8,27.9,83.8,27.9,83.8,27.8L83.8,27.8z M103,64.5c0.2-0.1,0.7-0.3,0.7-0.6c0-0.2-0.3-1-1-1.2c-0.9-0.3-1.7,0.5-2.3,1.2
		c-0.1,0.1-0.2,0.2-0.4,0.1c-0.1,0-0.9-0.3-1.7-0.7l0,0c0,0-0.1,0-0.1,0c-1-0.1-1.4,0.3-1.8,0.7c0,0.1-0.1,0.1-0.1,0.2
		c0,0.2,0,0.6,0.1,0.8c0.1,0.3,0.1,0.5,0,0.7c0,0.1-0.1,0.1-0.2,0.1c-0.1,0-0.2,0-0.3-0.1c-0.1,0-0.3-0.1-0.4-0.1c0,0,0,0,0,0
		c0,0.4-0.6,1-1,1.2c-0.3,0.1-0.6,0.1-0.8,0c-0.2-0.2-0.9-0.3-1.4-0.2c-0.1,1.3-0.3,2.9-1.8,3.7c0,0,0,0,0,0
		c-0.1,0.1-0.3,0.2-0.4,0.6c-0.1,0.2,0.5,1.3,1.3,2.5c0,0,0,0,0,0.1c0.3-0.7,0.7-1.7,1-2.6c0.3-0.8,1.2-1.1,2.2-1.3
		c1-0.3,2.2-0.6,2.9-1.7c1.4-2.2,2.6-2.7,2.7-2.7c0.1,0,0.2,0,0.3,0.1c0,0.1,0,0.2-0.1,0.3c0,0-0.3,0.1-0.8,0.6
		c-0.2,0.2-0.4,0.4-0.7,0.7c-0.3,0.3-0.6,0.8-1,1.3c-0.5,0.7-1.1,1.1-1.7,1.4c-0.5,0.2-1,0.3-1.4,0.5c-0.9,0.2-1.6,0.4-1.9,1.1
		c-0.4,1-0.8,2.2-1.1,2.9c0.1-0.1,0.2-0.1,0.3-0.2c0.2-0.1,0.4-0.2,0.5-0.2l0.7-0.2c0.5-0.2,0.7-0.2,0.8-0.1c0,0,0.1,0.1,0.1,0.1
		c0.3-0.2,0.6-0.2,1.1-0.1c0,0,0,0,0,0c0.3-0.1,0.9-0.4,1.3-0.5c0.1-0.1,0.4-0.2,0.6-0.3l0.3-0.1c0.3-0.1,0.6-0.3,0.7-0.7
		c0.2-0.5,0.2-1,0.1-1.1l0,0c-0.1-0.1,0-0.3,0.1-0.4c0.1-0.1,0.5-0.4,1-0.2l0.2,0c0.8,0.2,1.6,0.4,2-0.2c0.3-0.4,0.2-0.8,0.1-1.1
		c-0.2-0.3-0.5-0.6-0.7-0.6c-0.2,0-0.3-0.2-0.3-0.4c0-0.2,0.1-0.3,0.3-0.3c0.5,0,2-0.2,2.4-0.9c0.1-0.2,0.2-0.4,0.2-0.6
		c-0.1-0.2-0.3-0.3-0.6-0.4c-0.1-0.1-0.5-0.2-0.4-0.5C102.6,64.5,102.9,64.5,103,64.5L103,64.5z M95.3,75c0.1,0.1,0.3,0.2,0.4,0.3
		c0.3-0.2,0.8-0.5,1.3-0.6c0.1,0,0.2,0.1,0.2,0.2c0,0.1-0.1,0.2-0.2,0.2c-0.5,0.1-0.9,0.3-1.1,0.4c0.4,0.5,0.6,1,0.7,1.4
		c0,0.2,0.1,0.4,0.1,0.6c0.1-0.1,0.2-0.3,0.2-0.5c0-0.2,0.2-0.3,0.4-0.3c0.7,0.1,1.6,0,1.7-0.3c0-0.2,0.1-0.3,0.2-0.5
		c0.2-0.4,0.3-0.8,0.2-1.1c-0.1-0.3-0.5-0.6-1.2-0.9l0,0c-0.6-0.2-1.1-0.4-1.3-0.5c-0.1-0.1-0.3-0.1-0.4-0.2c0,0-0.1,0-0.1,0
		c-0.2,0.1-0.6,0.2-0.9,0.3c0,0.1,0,0.1,0,0.2c0,0.2,0,0.4-0.1,0.6C95.4,74.7,95.4,74.9,95.3,75L95.3,75z M90.6,47.7
		c0.1,0,0.2,0.1,0.2,0.2c0,0.7,1.1,2.7,2.3,3.1c1,0.3,1.7,1.1,2.1,1.9c0,0,0,0,0,0c0-0.1,0-0.1,0-0.2c0-0.5-0.1-1.3-0.4-1.6
		c-0.3-0.3-0.5-0.8-0.8-1.2c-0.1-0.3-0.4-0.8-0.5-0.9C93.4,49,93.2,49,93,49c-0.3,0-0.6-0.1-1-0.3c-0.1-0.1-0.2-0.2-0.2-0.4
		c0,0,0-0.1,0-0.1c0,0,0.1-0.1,0.1-0.1c-0.1-0.1-0.1-0.2-0.3-0.4c-0.6-0.9-1.5-1.1-2-1.2c-0.1,0-0.2,0-0.3,0
		c-0.4,0.3-0.8,0.7-0.9,1.1c-0.1,0.3-0.2,0.5-0.2,0.8c0,0.4,0.1,0.7,0.2,0.7c0.5,0,1.2,0.4,1.4,0.5c0.1,0.1,0.2,0.2,0.2,0.3
		c0,0,0,0.1,0,0.1c0,0.2-0.2,0.3-0.3,0.3c-0.2,0-0.6,0.1-0.7,0.3c0,0,0,0.1,0,0.1c0,0,0,0,0,0c0.1,0,0.1,0.1,0.1,0.1l0,0
		c0,0,0.1,0.2,0.6,0.2c0.7,0,0.8,0.2,1,0.6l0,0.2c0,0.1,0.3,0.2,0.5,0.2c0.3,0.1,0.6,0.1,0.7,0.4c0,0.1,0.2,0.3,0.4,0.6
		c0.1,0.2,0.3,0.3,0.5,0.5c0.1,0.1,0.3,0.2,0.5,0.4c0.2,0.1,0.5,0.3,0.8,0.3c0,0,0.1,0,0.1,0c0.1,0,0.1,0,0.2,0c0,0,0,0,0.1,0
		c0.1,0,0.1,0.1,0.2,0.1c0,0.1,0,0.2-0.1,0.2c0,0,0,0-0.1,0c-0.1,0-0.2,0-0.3,0c-0.3,0-0.7-0.1-1-0.3c0,0,0,0-0.1,0
		c-0.7-0.5-1.4-1.3-1.5-1.6c0,0,0,0,0,0c0,0-0.1-0.1-0.2-0.1c-0.1,0-0.2,0-0.2-0.1c-0.3-0.1-0.7-0.1-0.8-0.5l0-0.1l0-0.1
		c-0.1-0.3-0.1-0.4-0.6-0.4c0,0,0,0-0.1,0c-0.3,0-0.5-0.1-0.7-0.1c0,0,0,0.1-0.1,0.1c-0.2,0.2-1.2,1-1.7,1.1l0,0
		c-0.1,0-0.3,0.1-0.4,0.1c0,0,0,0.1,0.2,0.3c0.1,0.2,0.4,0.4,0.6,0.6c0.5,0.5,1.1,1,1.1,1.6c0,0,0,0,0,0.1c0,0.2-0.1,0.4-0.4,0.6
		c-0.4,0.3-0.6,0.6-0.7,1c0,0,0,0.1,0,0.1c0,0.4,0.2,0.8,0.6,1.3c0.1,0.1,0.1,0.1,0.1,0.2c0.1,0.1,0.4,0.2,0.9,0.3l0.2,0
		c1.3,0.2,2.4,0.4,2.4,2.1v0c0,0.5,0.1,0.6,0.1,0.7c0.1,0,0.2-0.1,0.4-0.2c0,0,0.1,0,0.1-0.1l-0.1,0c0-0.2,0.1-0.4,0.3-0.6
		c0.2-0.3,0.7-0.6,1.4-0.9c0,0-0.1-0.1-0.1-0.2c0-0.1,0-0.1,0-0.2c0.7-3.7-2.1-4.6-3.3-5l-0.1,0l-0.1,0c-0.9-0.3-1-0.9-0.9-1.2
		c0-0.1,0.1-0.2,0.2-0.1c0.1,0,0.2,0.1,0.2,0.2c0,0,0,0.1,0,0.3c0,0.1,0.1,0.2,0.2,0.3c0.1,0.1,0.2,0.2,0.5,0.3l0.2,0.1
		c0.8,0.2,2.3,0.7,3.2,2.1l0.4,0.9c0.2,0.7,0.2,1.6,0,2.6c0.3-0.1,0.6-0.2,1-0.2c0,0,0-0.1,0-0.1c0.2-0.4,0.8-1.1,1.1-1.3
		c0.2-0.1,0.4-0.3,0.4-0.6c0-0.2-0.1-0.4-0.4-0.6c-0.8-0.5-1.2-1.3-1.3-2c0-0.1,0-0.2-0.1-0.4c0-0.1,0-0.2,0-0.3
		c0-0.1,0-0.3-0.1-0.4c0-0.1-0.1-0.2-0.1-0.3c-0.3-0.7-1-1.4-1.9-1.7c-0.5-0.2-0.9-0.5-1.3-1c-0.7-0.9-1.2-2-1.3-2.5
		C90.4,47.8,90.5,47.7,90.6,47.7L90.6,47.7z M84.6,84.7c1.2,0.7,4.3,2.2,5.9,1.7c0.3-0.1,0.5-0.3,0.7-0.5c0,0,0,0,0,0
		c-0.1-0.2-0.4-0.6-0.4-0.6c0-0.1-0.1-0.1-0.1-0.2l-0.1-1.9c-0.7,0.2-2.2,0.7-3.3,0.7c-0.8,0-1.9,0.2-2.6,0.3
		c-0.2,0-0.3,0.1-0.5,0.1C84.4,84.5,84.5,84.7,84.6,84.7L84.6,84.7z M97.6,62.9c-0.2-0.1-0.3-0.2-0.5-0.3c-0.3,0-0.8,0.1-1,0.6
		c0,0.1-0.1,0.1-0.1,0.2c0,0-0.2,0.1-0.5,0.2c0.1,0.1,0.1,0.2,0.1,0.2c0.1,0.2,0,0.3,0,0.5c-0.1,0.2-0.3,0.4-0.7,0.7c0,0,0,0,0,0
		c-0.5,0.4-1.2,1-1.1,1.4c0,0,0,0,0,0c0,0,0.1,0.1,0.1,0.1c0.1,0.1,0.3,0,0.4,0c0.4-0.2,0.8-0.6,0.8-0.8c0-0.2,0.1-0.3,0.1-0.3
		c0.2-0.2,0.5-0.1,0.8,0c0,0,0.1,0,0.1,0c0-0.1,0-0.2,0-0.3c0-0.2-0.1-0.4-0.1-0.7c0,0,0,0,0,0c0-0.2,0-0.5,0.2-0.6
		C96.5,63.4,96.9,63,97.6,62.9L97.6,62.9z M82.5,30.5c0.1,0,0.2,0.1,0.3,0.2c0.1,0.1,0.1,0.3,0.1,0.5c0,0.1,0,0.2,0,0.3
		c0,0.2-0.1,0.4-0.1,0.6c0,0.3,0,0.5,0.2,0.7c0.2,0.2,0.5,0.3,0.9,0.3c1.2,0,1.5,0.3,1.8,0.7c0.1,0.1,0.1,0.1,0.1,0.1
		c0.1,0,0.2,0.1,0.2,0.2c0,0,0,0.1,0,0.1c0,0.1,0,0.1-0.1,0.2c-0.1,0.2-0.4,0.7-0.4,1.1c0,0.1,0,0.2,0.1,0.3
		c0.1,0.3,0.6,0.6,1.2,0.7c0.1,0,0.2,0.1,0.3,0.2c0.3,0.1,0.8,0.2,1.5,0.3l0.2,0c0.5,0,1.1,0.1,1.6,0.2c0.2,0.1,0.4,0.1,0.6,0.3
		c-0.3-1.5-1.8-2.8-2.7-3c-0.2,0-0.3-0.1-0.5-0.2c-0.1-0.1-0.2-0.2-0.3-0.4c-0.3-0.5-0.5-1.1-0.6-1.7c-0.1-0.3-0.1-0.6-0.2-0.8
		c-0.3-0.7-0.3-0.8-0.8-0.8c-0.4,0-1.2-0.3-1.7-0.5c-0.2-0.1-0.4-0.1-0.4-0.2c-0.1,0-0.1-0.2-0.1-0.3c0-0.1,0.2-0.1,0.3-0.1
		c0.4,0.2,1.5,0.6,1.9,0.6c0.7,0,0.8,0.3,1.1,1c0.1,0.2,0.2,0.5,0.2,0.8c0.2,0.8,0.5,1.9,1.1,2c0.6,0.1,1.4,0.6,2,1.4l1.1,2.2
		c0,0,0,0.1,0,0.1c0,0.1,0.1,0.1,0.1,0.2c0,0,0,0,0,0c0.1-0.2,0.2-0.5,0.5-0.9c0.2-0.3,0.4-0.8,0.5-0.9c-0.1-0.1-0.2-0.3-0.2-0.4
		c0-0.3,0.2-0.6,0.3-0.8c0,0,0-0.1,0-0.1c0-0.1-0.1-0.3-0.2-0.5c-0.2-0.4-0.6-0.7-0.7-0.7c-0.1,0-0.2,0-0.3-0.1c0,0-0.1,0-0.1,0
		c-0.5-0.2-1.2-0.9-1.2-1.6c0-0.8-0.4-1.8-0.9-2.1c-0.3-0.2-0.7,0-1,0.3l-0.1,0.1c-0.1,0.1-0.2,0.1-0.3,0.1c0,0-0.1,0-0.1,0
		c-0.3-0.1-0.5-0.5-0.5-1c0-0.3-0.3-0.6-0.4-0.8c-0.7-0.2-1.6-0.2-1.9,0c-0.1,0.1-0.3,0.1-0.4,0.1c-0.2-0.1-0.6-0.3-0.7-0.7
		c-0.3-0.1-1.3-0.4-1.9-0.1c-0.3,0.1-0.3,0.2-0.3,0.3c-0.1,0.3-0.1,0.6-0.1,0.8C81.4,29.6,81.7,30,82.5,30.5L82.5,30.5z M92.4,32.4
		c-0.2,0.1-0.5,0.2-0.7,0.3c0,0-0.1,0.1-0.1,0.1c0,0.1-0.1,0.2,0,0.3c0,0.1,0,0.1,0,0.2c0.1,0,0.1,0,0.2,0c0.4,0,0.8,0.5,1.1,0.9
		c0.1,0.2,0.2,0.5,0.2,0.7c0,0.1,0,0.2-0.1,0.3c-0.2,0.3-0.2,0.5-0.2,0.6c0,0.1,0,0.1,0.1,0.1c0.1,0.1,0.1,0.1,0.1,0.2
		c0,0.2-0.2,0.6-0.5,1.2c-0.2,0.3-0.4,0.8-0.5,1c0.2,0.1,0.4,0.2,0.5,0.3c0.4,0.5,0.3,1.3-0.2,2.1c0,0-0.1,0.1-0.1,0.1c0,0,0,0,0,0
		c0.1,0.2,0.9,0.5,1.6,0.6c0.1,0,0.2,0,0.3,0.1c0.3-0.2,0.6-0.3,0.9-0.4c-0.2-0.4-0.4-0.9-0.4-1.4c0-0.1,0-0.2,0-0.2
		c0-0.3,0.2-0.6,0.4-0.9c0.2-0.4,0.4-0.9,0.4-1.2c0-0.1,0-0.2-0.1-0.3c-0.5-0.4-0.9-1-0.9-1.6c0-0.3,0.1-0.6,0.3-0.9
		c0.2-0.4,0.4-0.9,0.4-1.3c0-0.2,0-0.3-0.1-0.5c-0.1-0.2-0.3-0.4-0.6-0.5c-1.2-0.3-1.5-0.8-1.5-1.4c-0.1,0-0.2,0-0.2,0
		c0,0.4,0,0.7,0,0.8c0.1,0.1,0.1,0.2,0.1,0.2C92.7,32.3,92.6,32.3,92.4,32.4L92.4,32.4z M86.9,37.9c0.2,0.1,0.6,0.3,1.3,0.3
		c0.4,0,0.8,0,1.3,0c0.5,0,1,0,1.5,0l0.1,0l0.1,0l0,0c0,0,0,0,0-0.1c0,0-0.1-0.1-0.1-0.1c0,0-0.1-0.1-0.1-0.1
		c-0.5-0.4-1.6-0.5-2.3-0.6l0,0l-0.1,0c-0.5,0-1-0.2-1.3-0.3c0,0,0,0,0,0C87.1,37.5,87.1,37.7,86.9,37.9C87,37.9,87,37.9,86.9,37.9
		L86.9,37.9z M85.2,78.4c0,0.5,0.2,0.9,0.7,1.3c0,0,0,0,0,0c0,0,0,0,0.1,0.1l0,0.4c0.1,0,0.1,0,0.2,0c0.1,0,0.2,0,0.3-0.1
		c0.1-0.1,0.1-0.1,0.2-0.1c0.2,0,0.3,0,0.4,0c0.2-0.1,0.4-0.1,0.6-0.2c-0.3-0.3-0.6-0.6-0.7-1c-0.3-0.8,0-1.7,0.2-2.2
		c-0.4,0-0.8,0.1-1,0.1c0,0,0,0-0.1,0l0,0c0,0,0,0-0.1,0l0,0.1C85.7,77.1,85.2,77.7,85.2,78.4C85.2,78.4,85.2,78.4,85.2,78.4
		L85.2,78.4z M98.2,43.2c0,0.1,0,0.2,0,0.3c-0.1,0.1-1.2,2.2-3.4,2.3c0,0.2,0.1,0.4,0.2,0.5c0.3,0.2,0.5,0.7,0.5,1.1
		c0,0.3-0.1,0.5-0.2,0.6c-0.2,0.2-0.4,0.7-0.2,1.4c0.6-1.1,1.5-2.2,1.7-2.4c0.8-1,1.4-2,1.8-2.8c0.9-1.8,0.9-3,0.9-3.7
		c0-0.3-0.1-0.4-0.1-0.4c0-0.1,0-0.2,0.1-0.2c0.1,0,0.2,0,0.2,0.1c0,0,0.1,0.4,0.1,0.9c0,0.9-0.3,2.5-1.6,4.7
		c-0.3,0.5-0.7,1.1-1.2,1.7c-0.7,0.8-1.6,2.1-1.9,2.9c0.4-0.3,1-0.7,2-0.5c0,0,0,0,0.1,0c0,0,0.1,0,0.1,0l0.3-1.2
		c0.3-0.7,0.7-1.4,1.2-1.6c0.7-0.3,1-1.1,1-1.6c0-0.2,0.1-0.4,0.3-0.4c0,0,2-0.3,1.9-1.3c0-1-0.3-1.1-0.3-1.1c-0.1,0-0.2,0-0.4,0.1
		c-0.1,0.1-0.3,0.1-0.4,0c-0.1-0.1-0.1-0.2-0.1-0.3c0-0.1,0-0.1,0.1-0.2c0.5-0.7,0.8-1.5,0.8-1.8c0,0,0,0,0,0
		c-0.1-0.2-0.1-0.4-0.1-0.5c0-0.1,0-0.2,0-0.3c-0.5,0-1.1-0.2-1.5-0.8c-0.1-0.2-0.4-0.6-0.7-0.6C99,37.9,98.5,38,98,38.4
		c-0.2,0.2-0.4,0.3-0.4,0.5c0,0,0,0,0,0c0,0.2,0.3,0.5,0.5,0.7l0.2,0.2c0.2,0.2,0.2,0.3,0.2,0.4c0,0,0,0.1,0,0.1
		c-0.1,0.3-0.4,0.4-0.6,0.5c0,0-0.1,0-0.1,0.1c-0.1,0.2-0.4,0.3-0.8,0.3c-0.3,0-0.7,0.1-1,0.2C96.7,41.7,97.8,42.3,98.2,43.2
		L98.2,43.2z M86.3,38.2c-0.1,0-0.8,0.1-1,1.1c0,0.3-0.1,0.6-0.1,0.9c0,0.4,0.1,0.7,0.2,0.9c0.2,0.3,0.7,0.5,1.4,0.5
		c0.8,0.1,1.8,0.2,1.8,0.8c0,0,0,0,0,0c0,0.3-0.3,0.6-0.9,0.7c-0.5,0.1-1,0.3-1.1,0.6c0,0,0,0.1,0,0.1c0,0.3,0.3,0.6,0.7,1.1
		c0.6,0.5,1.1,0.7,1.6,0.7c0.1,0,0.2,0,0.3-0.1c0.4-0.3,0.6-0.5,0.7-0.5c0.1-0.1,0.3-0.1,0.4,0.1c0.1,0.1,0.1,0.2,0.1,0.2
		c0,0.1,0,0.2-0.1,0.2c0,0,0,0.1-0.1,0.1c0.4,0.1,0.9,0.3,1.3,0.6l1.2,1.8c0,0,0,0,0,0c0,0,0,0,0,0.1c0,0,0,0,0.1,0l0.2,0.3
		c0-0.1,0.1-0.2,0.1-0.2c0.1-0.3,0.1-0.6,0.1-0.9c0-1.4-0.9-2.5-1-2.7c-0.2-0.1-1.7-1-1.8-2.2c0-0.7-1.5-1.5-2.6-1.9
		c-0.1,0-0.2-0.1-0.2-0.1c-0.1,0-0.1-0.1-0.1-0.2c0,0,0,0,0-0.1c0-0.1,0.1-0.2,0.2-0.1c0.3,0.1,3.1,1.1,3.1,2.3
		c0.1,1,1.6,1.9,1.6,1.9c0,0,0,0,0,0c0.1,0.1,1.6,1.8,1,3.9c0.1,0,0.3,0.1,0.4,0.2c0.3,0.2,0.5,0.6,0.8,1.2c0.1,0.1,0.1,0.2,0.2,0.4
		c0,0,0-0.1,0-0.1c0,0,0,0,0,0c-0.3-0.9-0.3-1.6,0-2c0.1-0.1,0.1-0.2,0.2-0.3c0,0,0.1-0.1,0.1-0.2c0-0.3-0.2-0.7-0.3-0.8
		c-0.1,0-0.1-0.1-0.1-0.1c-0.2-0.2-0.3-0.6-0.3-0.7c0,0,0,0,0,0c-1.1-0.1-1.7-0.8-1.7-1.9c0-0.7,0.3-1.4,0.9-1.9
		c-0.7-0.1-1.6-0.4-1.8-0.8c-0.1-0.1,0-0.3,0.1-0.4c0,0,0-0.1,0.1-0.1c0.2-0.3,0.7-1.1,0.3-1.6c-0.1-0.1-0.2-0.2-0.4-0.2
		c0,0,0,0,0,0c0,0,0,0,0,0c-0.5-0.1-1.4-0.1-2.2-0.1c-0.5,0-0.9,0-1.3,0c0,0-0.1,0-0.1,0c-0.8-0.1-1.2-0.3-1.5-0.5
		C86.5,38.2,86.4,38.2,86.3,38.2L86.3,38.2z M101.2,55.8c0.2-0.1,0.7-0.7,0.7-1.2c0,0,0-0.1,0-0.1c-0.1-0.4-0.7-0.5-1.2-0.5
		c-0.1,0-0.2-0.1-0.3-0.2c0-0.1,0-0.1,0-0.2c0-0.1,0-0.1,0-0.2c0,0,0.3-0.5,0.3-1.1c0-0.1,0-0.3-0.1-0.4c-0.1-0.3-0.3-0.5-0.7-0.7
		c-0.1-0.1-0.2-0.2-0.2-0.3c0,0-0.1-0.7-0.5-1c-0.3-0.2-0.9-0.2-1.5,0.1c-0.1,0-0.2,0-0.3,0c-0.4,0.2-0.4,0.7-0.4,1.1
		c0,0.3,0,0.8-0.4,0.8C96.2,52,96,52,95.8,52c0,0.3,0.1,0.5,0.1,0.7c0.2,0.1,0.5,0.2,0.5,0.5c0,0,0,0,0,0.1c0,0.3-0.3,0.5-0.4,0.6
		c-0.2,0.1-0.3,0.2-0.5,0.3c0.1,0.7,0.4,1.5,1.1,1.9c0.5,0.3,0.6,0.7,0.6,0.9c0,0.5-0.4,0.8-0.6,0.9c-0.3,0.1-0.7,0.7-0.9,1
		c0.4,0,0.7,0.1,1.1,0.2c0,0,0-0.1,0.1-0.1c0.6-0.8,2.1-3.2,1.6-6.6c0-0.1,0-0.3-0.1-0.4c0-0.1,0-0.2,0.2-0.2c0.1,0,0.2,0,0.2,0.2
		c0.8,3.7-0.9,6.4-1.6,7.3c0.5,0.2,0.9,0.5,1.3,0.8c0.5-0.3,1.6-1.1,1.8-1.8c-0.3,0-0.7-0.2-0.8-0.5c0-0.1,0-0.1,0-0.2
		c0-0.2,0.1-0.3,0.1-0.4C99.7,56.8,100.6,55.9,101.2,55.8L101.2,55.8z M86.7,28.3C86.7,28.3,86.7,28.3,86.7,28.3
		C86.7,28.3,86.7,28.3,86.7,28.3C86.7,28.3,86.7,28.3,86.7,28.3L86.7,28.3z M87.7,29.4c0,0.4,0.2,0.6,0.3,0.6L88,30
		c0.3-0.2,0.9-0.8,1.5-0.4c0.6,0.4,1.1,1.5,1.1,2.4c0,0.5,0.3,0.9,0.6,1.1c0,0,0,0,0,0c0-0.1,0-0.3,0.1-0.4c0.1-0.3,0.4-0.4,0.6-0.5
		c0.1,0,0.2-0.1,0.3-0.1c-0.1-0.1-0.1-0.3-0.1-0.5c0,0,0-0.1,0-0.1c0-0.1,0-0.2,0-0.3c-0.1,0-0.1-0.1-0.2-0.2c0,0-0.4-0.7-0.3-1.4
		c0-0.2-0.2-0.8-0.6-0.9c-0.2-0.1-0.5,0-0.8,0.3c-0.1,0.1-0.2,0.1-0.3,0.1c-0.3,0-1-0.3-1-1.3c0-0.2-0.1-0.4-0.2-0.5
		c-0.2-0.1-0.5-0.1-0.8,0c-0.6,0.3-0.6,0.7-0.6,0.8l0,0c0,0.1,0,0.2-0.1,0.3C87.5,28.7,87.7,29,87.7,29.4L87.7,29.4z M53.5,101.9
		c-0.4-1.3-0.5-2.8-0.5-4.3c0-2.7,0.4-5.2,0.5-5.7c4.1-2.3,7.3-2.5,8.2-2.5c-0.1-0.1-0.2-0.3-0.3-0.4C60,89,57,89.4,53.2,91.6
		c0,0,0,0-0.1,0.1C47,92,41,95.7,36.7,98.4l-1.7,1c-1.7,1-3.2,1.4-4.2,1.1c-0.8-0.2-1.1-0.8-1.1-0.8c0-0.1-0.1-0.1-0.2-0.1
		c-0.1,0-0.1,0.1-0.1,0.2c0,0,0.3,0.7,1.3,0.9c1.1,0.3,2.6-0.1,4.4-1.1l1.7-1c4.3-2.7,10.2-6.3,16.3-6.7c0,0.2-0.1,0.5-0.2,0.9
		c-0.3-0.1-1.1-0.4-2.1-0.4c-1.2,0-3,0.3-4.7,1.9c0,0,0.1,0,0.1,0c0.1,0,0.1,0.1,0.2,0.2c0,0,0,0,0,0c1.3-1.2,2.8-1.8,4.4-1.8
		c1.1,0,1.9,0.3,2.1,0.4c-0.1,1-0.3,2.5-0.3,4c-0.3,0-1.6-0.1-1.9-1.1c0.1-0.3,0.2-0.8,0.2-1.3c0-0.4-0.1-0.7-0.3-0.9
		c-0.4-0.3-1.2-0.3-1.7-0.1c-0.1,0-0.4,0.1-0.7,0.3c-0.4,0.2-1.3,0.5-1.8,0.6c0,0.1,0.1,0.2,0.1,0.4c0.4-0.1,1-0.3,1.8-0.7
		c0.3-0.1,0.6-0.2,0.7-0.3c0.5-0.2,1.1-0.1,1.4,0.1c0.2,0.2,0.1,1.3-0.1,1.7C50,96.5,50,97.5,50,97.7l-0.1,4.8c-1.8,0.3-2.8-1-3-1.3
		c0,0.2,0,0.4-0.1,0.5c0.5,0.5,1.5,1.4,3.1,1.2l0,0.7c0,0,0,0,0,0c0.1,0,0.2,0.1,0.3,0.1c0.1,0.1,0.1,0.2,0.1,0.3
		c0,0-0.1,0.2-0.1,0.5c0.6,0.7,1.2,1.1,1.9,1.2c0.5,0.1,1,0,1.3-0.1c0.1-0.1,0.1-0.3,0.2-0.5c-0.3,0.2-0.8,0.3-1.4,0.2
		c-0.7-0.1-1.3-0.6-1.8-1.3c0-0.1,0.1-6.3,0.1-6.3c0-0.2,0-0.6,0.1-1c0.5,0.8,1.5,0.9,2.1,0.9c0,1.6,0.2,3.2,0.6,4.5
		c0,0.1,0.1,0.1,0.1,0.1c0,0,0.1,0,0.4,0c0,0,0-0.1,0-0.1c0-0.1,0-0.2,0.1-0.3C53.6,101.9,53.5,101.9,53.5,101.9L53.5,101.9z
		 M62.1,90c-0.1-0.1-0.1-0.2-0.2-0.4c-4.5,0.4-8.1,2.4-8.1,2.4c-0.1,0.1-0.1,0.2-0.1,0.3c0.1,0.1,0.2,0.1,0.3,0.1
		C54,92.4,57.6,90.4,62.1,90L62.1,90z M72.3,92.3c0.1-0.1,0-0.2-0.1-0.3c0,0-3.7-2.1-8.2-2.4c-0.1,0.1-0.2,0.3-0.2,0.4
		c4.6,0.3,8.3,2.4,8.3,2.4C72.1,92.5,72.2,92.4,72.3,92.3L72.3,92.3z M29.6,91.9c0,0.1,0.1,0.1,0.2,0.1l13.9-6.2
		c-0.1,0-0.2-0.1-0.2-0.1l-13.7,6.1C29.6,91.8,29.6,91.9,29.6,91.9L29.6,91.9z M93.2,76.3c-1.2,0.3-1.6,2.6-1.6,3.1
		c-0.1,0-0.3,0-0.4,0c0,0,0,0.1,0,0.1c0,0,0,0.1,0,0.1c0,0.2,0.1,0.5,0.1,0.8c0.1,0.1,0.2,0.3,0.1,0.5c0.1,0.1,0.1,0.2,0.2,0.2
		c0.4,0.6,1,1.2,1.7,1.7c0.1,0,0.1,0,0.2,0c0.1,0,0.1-0.1,0.1-0.2c0,0,0-1.8,0-2.8c0-0.1,0-0.3,0-0.4c0.1,0.1,0.2,0.1,0.3,0.2
		c0.3,0.2,0.6,0.3,0.9,0.3c0.3,0,0.5-0.1,0.8-0.3l0.2-0.8c-0.3,0.4-0.6,0.7-1,0.7c-0.2,0-0.4,0-0.5-0.1c-0.4-0.2-0.7-0.6-0.7-0.6
		c-0.1-0.1-0.1-0.1-0.2-0.1c-0.1,0-0.1,0.1-0.1,0.2c0,0,0,0.5,0,1.1c0,0.8,0,1.8,0,2.1c-0.6-0.4-1-0.9-1.3-1.3
		c-0.3-0.5-0.6-0.9-0.7-1.3l0.5,0c0.1,0,0.1,0,0.1-0.1c0,0,0.3-2.8,1.5-3c0.6-0.1,1-0.1,1.3,0.2c0.2,0.2,0.4,0.5,0.4,0.9
		c0,0.1,0.1,0.1,0.1,0.1c0.1,0,0.1-0.1,0.1-0.1c0-0.5-0.2-0.8-0.5-1.1C94.3,76.2,93.8,76.1,93.2,76.3L93.2,76.3z M93.7,73.4
		c-0.1,0-0.3,0.1-0.4,0.1l-0.7,0.2c-0.4,0.1-0.8,0.4-1.2,0.7c0,0-0.1,0.1-0.1,0.1c-0.7,0.5-1.2,1.2-1.6,1.6
		c-0.1,0.1-0.1,0.1-0.2,0.2c0.5,0.2,0.9,0.5,1.3,0.9c0.3-0.9,0.9-2,1.7-2.5c0.3-0.2,0.6-0.3,0.9-0.3c0-0.2,0-0.4,0.1-0.7l0.2-0.1
		c0,0,0-0.1,0-0.1c0,0,0,0,0-0.1C93.7,73.4,93.7,73.4,93.7,73.4L93.7,73.4z M93.1,60.6c-0.3,0.5-0.1,1.6,0.7,2.3
		c0.6,0.5,1.4,0,1.7-0.1c0,0,0,0,0,0c-0.5-0.2-0.9-0.6-1-1.1c-0.2-0.7,0-1.5,0.3-2C94,59.9,93.3,60.4,93.1,60.6L93.1,60.6z
		 M97.8,60.4c-0.7-0.7-1.2-0.7-2.1-0.7c0,0.1-0.1,0.1-0.1,0.2c-0.2,0.4-0.5,1.1-0.4,1.6c0.1,0.3,0.3,0.5,0.7,0.7c0,0,0,0,0.1,0
		c0.3-0.3,0.5-0.5,1.1-0.5C97.4,61.5,98.2,60.8,97.8,60.4L97.8,60.4z M87.9,76.6c0,0.1-0.1,0.2-0.1,0.3c-0.2,0.4-0.3,1.1-0.2,1.7
		c0.1,0.4,0.3,0.7,0.7,0.9c0,0,0.1,0,0.1,0.1c1.2-0.6,1.8-1.3,2-1.7C89.7,77,88.8,76.7,87.9,76.6L87.9,76.6z M93.3,43.9L93.3,43.9
		c0,0.7,0.4,1.1,1.1,1.2c0.2,0,0.4,0,0.6,0c-0.2-0.1-0.3-0.3-0.4-0.5c-0.4-0.8-0.1-1.9,0.1-2.6C93.8,42.3,93.3,43.1,93.3,43.9
		L93.3,43.9z M95.7,51.7c0.2,0,0.4-0.1,0.7-0.1c0.1,0,0.1-0.2,0.1-0.4c0-0.1,0-0.2,0-0.3c0-0.3,0.1-0.5,0.3-0.8
		c-0.8,0-1.3,0.4-1.6,0.7c0,0,0,0,0,0C95.5,50.9,95.6,51.2,95.7,51.7C95.7,51.6,95.7,51.6,95.7,51.7L95.7,51.7z M100.5,89.4
		c-0.4,0.1-0.9,0-1.5-0.4c0.9-1.2,0.9-1.9,0.6-2.3c-0.5-0.8-2-0.8-2.9-0.6c-1.4,0.4-0.9,3.3-0.6,4.3c-0.4-0.2-0.7-0.3-0.8-0.3
		c0,0-1.9-0.8-3.1-1.4c0,0.1-0.1,0.2-0.1,0.2C92.1,89,92.1,89,92,89l3.2,1.4c0,0,0,0,0,0c0.6,0.2,2,0.8,2,1.7c0,1.1,0,6,0,7
		c0,0,0,0,0,0c0-0.2,0.1-0.3,0.3-0.3c0,0,0.1,0,0.1,0c0-0.1,0-0.3,0-0.5c0,0,0,0,0,0c0,0,0.8,1,1.6,0.9c0.2,0,0.4-0.1,0.5-0.3
		c0-0.1,0-0.1,0.1-0.2c0-0.1,0-0.1,0-0.2c0-0.2,0-0.3,0-0.5c-0.1,0.4-0.4,0.8-0.7,0.8c-0.4,0.1-1-0.4-1.2-0.7c0-0.1,0.6-8.2,0.7-8.9
		c0.7,0.6,1.4,0.7,2,0.5c0.4-0.1,0.6-0.4,0.9-0.6c0.1-0.5,0.2-0.9,0.3-1.4C101.6,88.4,101.1,89.1,100.5,89.4L100.5,89.4z M98.6,88.7
		c-0.1-0.1-0.1-0.1-0.2,0c-0.1,0-0.1,0.1-0.1,0.2l-0.7,9.1c0-0.9,0-2.3,0-3.4c0-1,0-2,0-2.4c0,0,0,0,0-0.1c0-0.6-0.5-1.1-1-1.4
		c0,0,0,0,0,0c-0.3-1.1-0.8-3.8,0.3-4.1c0.9-0.2,2.1-0.1,2.4,0.4C99.5,87.3,99.3,88,98.6,88.7C98.7,88.7,98.6,88.7,98.6,88.7
		L98.6,88.7z M97.5,86.6c-0.3,0-0.5,0.1-0.6,0.3c-0.6,0.8,0.1,2.9,0.1,3c0,0.1,0.1,0.1,0.1,0.1c0.1,0,0.1-0.1,0.1-0.1
		c-0.2-0.6-0.6-2.2-0.2-2.8c0.1-0.1,0.2-0.2,0.4-0.2c0.5,0,0.8,0.1,1,0.3c0.2,0.2,0.1,0.5,0.1,0.7l0,0c0,0.1,0,0.1,0.1,0.1
		c0.1,0,0.1,0,0.1-0.1l0,0c0-0.2,0.1-0.6-0.2-0.9C98.5,86.8,98.1,86.6,97.5,86.6L97.5,86.6z M96.4,91.9c0-0.1,0-0.1-0.1-0.2
		l-13.8-6.2c-0.1,0.1-0.2,0.1-0.2,0.1l14,6.3C96.3,92,96.4,92,96.4,91.9L96.4,91.9z M45.7,95.2C45.7,95.2,45.7,95.2,45.7,95.2
		C45.7,95.2,45.7,95.2,45.7,95.2C45.7,95.2,45.7,95.2,45.7,95.2L45.7,95.2z M80.3,95.2C80.3,95.2,80.3,95.2,80.3,95.2
		C80.3,95.2,80.3,95.2,80.3,95.2C80.3,95.2,80.3,95.2,80.3,95.2L80.3,95.2z M55.8,30.9L55.8,30.9c0.1,0.1,0.9,3.5,1.1,3.9h10.9
		c-0.5-2.1-1.5-3.9-3.1-5.5c-1.3-1.4-3.1-2.5-5.2-3.5c-2.9-1.3-5.6-1.8-6.6-2c0,0.1,0,0.1,0,0.2C52.9,28.2,55.8,30.9,55.8,30.9
		L55.8,30.9z M66.5,33.8h-0.8C64.6,28,54.1,25,54.1,25C64.8,27.4,66.5,33.8,66.5,33.8L66.5,33.8z M56.9,29.8l0.9,3.4l4.8,0.6h-5.1
		l-1.1-3.4c0,0-2.5-2.3-2.4-4.1C54.1,26.3,55.6,29.2,56.9,29.8L56.9,29.8z M61.7,26.2c0.2-0.2,0.6-0.6,1.1-1.1
		c-2.2-1.9-4.1-2.7-4.6-2.9c-0.9,0.6-1.5,1.4-1.8,1.8c1.1,0.3,2.3,0.7,3.5,1.3C60.5,25.5,61.1,25.8,61.7,26.2L61.7,26.2z M57.6,22.9
		c0-0.2,0.6-0.4,0.6-0.4c0.8,0.3,2.8,1.8,2.8,1.8l-2.8-1.6C58,22.7,57.6,22.9,57.6,22.9L57.6,22.9z M62.3,26.5
		c0.3,0.2,0.6,0.4,0.9,0.6c2.6-1.8,5-2.8,6.8-3.3c-0.6-1-1.3-1.4-1.6-1.6C65.3,23.3,63,25.7,62.3,26.5L62.3,26.5z M68.3,22.7
		c0,0,0.7,0.2,0.8,0.6c0,0-0.5-0.3-0.8-0.3l-3.8,2.2C64.5,25.1,67.2,23.1,68.3,22.7L68.3,22.7z M65.8,22.7c-1-1.7-2.2-2.4-2.6-2.6
		c-1.2,0.5-2.1,2-2.5,2.5c0.8,0.5,1.6,1.1,2.5,1.9C64,24,64.8,23.3,65.8,22.7L65.8,22.7z M62,21.9c0,0,0.8-0.9,1.3-1.2
		c0,0,0.7,0.3,0.9,0.8c0,0-0.7-0.5-0.9-0.5C63.2,20.9,62.6,21.3,62,21.9L62,21.9z M65.2,28.9c1.7,1.7,2.8,3.7,3.3,6h0.9
		c0.1-0.5,0.9-3.6,0.9-3.6l0.1-0.1c0,0,3.1-3.5,3.1-6.7c0-0.2,0-0.4,0-0.5c-1.1,0-5.1,0.4-9.7,3.6C64.3,28,64.8,28.4,65.2,28.9
		L65.2,28.9z M69.8,30.3L69,32.6l-0.3-0.4l0.5-2.2c0,0,2.5-2.1,2.9-3.8C72.2,26.2,72.1,28,69.8,30.3L69.8,30.3z M72.4,25
		c0,0-4.6,1.4-6.8,3l-0.3-0.3C65.3,27.8,69,25.7,72.4,25L72.4,25z M64.4,88.1c1.4-1.2,4-2.5,9-2.2c5.1,0.4,7.7,0,9.2-1.2
		c0,0,0,0,0.1-0.1c1.3-1.2,1.8-3.3,1.8-7.3c0,0,0-40.9,0-41.6h-43v39.1c0,1.6,0,2.6,0,2.6c0,0.2,0,0.3,0,0.5c0,0.3,0,0.6,0,0.9
		c0.1,3.1,0.7,4.8,1.8,5.8c0,0,0,0,0.1,0.1c1.5,1.3,4,1.6,9.2,1.2c4.9-0.4,7.6,1,9,2.2c0.8,0.7,1.2,1.4,1.5,1.9
		C63.2,89.5,63.7,88.8,64.4,88.1L64.4,88.1z M62.9,88.6c-0.3-0.3-0.6-0.7-1-1c-2.1-1.9-5.3-2.7-9.5-2.4c-3.9,0.3-6.3,0.2-7.7-0.5
		c-0.4-0.2-0.7-0.4-1-0.6c-1.1-1-1.5-2.8-1.6-6.2h18.9c-0.1,0.7-0.2,1.3-0.3,2l0.7,0.1c0.1-0.7,0.2-1.4,0.3-2.1h0.8v4.2h0.7v-4.2
		h0.7c0.1,0.7,0.2,1.4,0.3,2.1l0.7-0.1c-0.1-0.6-0.2-1.3-0.3-2h18.8c0,3.4-0.5,5.2-1.6,6.2c-0.3,0.2-0.6,0.4-1,0.6
		c-1.4,0.7-3.8,0.8-7.7,0.5c-4.2-0.3-7.4,0.5-9.5,2.4C63.5,87.9,63.2,88.2,62.9,88.6L62.9,88.6z M32.9,82.3c0-0.3,0-1.3,0-2.1
		c0-0.6,0-1.1,0-1.1c0-0.1-0.1-0.2-0.1-0.2c-0.1,0-0.2,0-0.2,0.1c0,0-0.3,0.4-0.7,0.6c-0.2,0.1-0.3,0.1-0.5,0.1
		c-0.3,0-0.7-0.3-1-0.7l0.2,0.8c0.2,0.2,0.5,0.3,0.8,0.3c0.4,0,0.7-0.1,0.9-0.3c0.1-0.1,0.2-0.1,0.3-0.2c0,0.1,0,0.2,0,0.4
		c0,1,0,2.8,0,2.8c0,0.1,0,0.1,0.1,0.2c0.1,0,0.1,0,0.2,0c0.8-0.5,1.4-1.1,1.7-1.7c0.1-0.1,0.1-0.2,0.2-0.2c0,0,0-0.1,0.1-0.1
		c0-0.1,0-0.3,0-0.4c0-0.3,0.1-0.6,0.1-0.8c0,0,0-0.1,0-0.1c0,0,0-0.1,0-0.1c-0.1,0-0.3,0-0.4,0c-0.1-0.5-0.4-2.9-1.6-3.1
		c-0.6-0.1-1.2-0.1-1.5,0.2c-0.3,0.2-0.5,0.6-0.5,1.1c0,0.1,0.1,0.1,0.1,0.1c0.1,0,0.1-0.1,0.1-0.1c0-0.4,0.1-0.7,0.4-0.9
		c0.3-0.2,0.7-0.3,1.3-0.2c1.2,0.2,1.5,3,1.5,3c0,0.1,0.1,0.1,0.1,0.1l0.5,0c-0.1,0.4-0.4,0.8-0.7,1.3
		C33.9,81.4,33.4,81.9,32.9,82.3L32.9,82.3z M30.8,90.4C30.8,90.4,30.8,90.4,30.8,90.4L34,89c-0.1,0-0.1,0-0.2-0.1
		c-0.1-0.1-0.1-0.1-0.1-0.2c-1.2,0.5-3.1,1.4-3.1,1.4c-0.1,0-0.4,0.1-0.8,0.3c0.2-1,0.8-3.9-0.6-4.3c-0.8-0.2-2.3-0.2-2.9,0.6
		c-0.3,0.4-0.3,1.1,0.6,2.3c-0.5,0.4-1,0.5-1.5,0.4c-0.6-0.2-1.1-1-1.3-1.6c0.1,0.5,0.2,0.9,0.3,1.4c0.2,0.3,0.5,0.5,0.9,0.6
		c0.6,0.2,1.3,0,2-0.5c0.1,0.7,0.7,8.7,0.7,8.9c-0.2,0.3-0.7,0.8-1.2,0.7c-0.3-0.1-0.5-0.4-0.7-0.8c0,0.2,0,0.3,0,0.5
		c0,0.1,0,0.1,0,0.2c0,0.1,0,0.1,0.1,0.2c0.2,0.2,0.3,0.3,0.5,0.3c0.8,0.2,1.6-0.8,1.6-0.9c0,0,0,0,0,0c0,0.2,0,0.4,0,0.5
		c0,0,0.1,0,0.1,0c0.1,0,0.3,0.2,0.3,0.3c0,0,0,0,0,0c0-1,0-5.9,0-7C28.8,91.3,30.2,90.6,30.8,90.4L30.8,90.4z M28.4,92.1
		C28.4,92.1,28.4,92.1,28.4,92.1c0,0.4,0,1.4,0,2.4c0,1.2,0,2.5,0,3.4l-0.7-9.1c0-0.1-0.1-0.1-0.1-0.2c-0.1,0-0.1,0-0.2,0
		c0,0-0.1,0.1-0.1,0.1c-0.6-0.8-0.8-1.4-0.6-1.8c0.4-0.6,1.6-0.7,2.4-0.4c1,0.3,0.6,3.1,0.3,4.1c0,0,0,0,0,0
		C28.9,91,28.4,91.5,28.4,92.1L28.4,92.1z M28.8,83.8c3.9,1.3,5.2-1,5.3-1c0-0.1,0-0.1,0-0.2c-0.1,0-0.1,0-0.2,0
		c-0.1,0.1-1.3,2.1-5,0.9c-1.5-0.5-2.8-0.2-3.6,0.9c-0.9,1.3-0.8,3.3,0.3,4.7c0,0.1,0.1,0.1,0.2,0c0.1,0,0.1-0.1,0-0.2
		c-1-1.3-1.1-3.2-0.3-4.4C26.2,83.6,27.4,83.3,28.8,83.8L28.8,83.8z M28.5,86.6c-0.6,0-0.9,0.1-1.2,0.4c-0.2,0.3-0.2,0.7-0.2,0.9
		l0,0c0,0.1,0.1,0.1,0.1,0.1c0.1,0,0.1-0.1,0.1-0.1l0,0c0-0.2-0.1-0.5,0.1-0.7c0.2-0.2,0.5-0.3,1-0.3c0.2,0,0.3,0.1,0.4,0.2
		c0.4,0.6,0,2.2-0.2,2.8c0,0.1,0,0.1,0.1,0.1c0.1,0,0.1,0,0.1-0.1c0-0.1,0.7-2.2,0.1-3C29,86.7,28.8,86.6,28.5,86.6L28.5,86.6z
		 M100.3,89.1c0.1,0,0.1,0,0.2,0c1.1-1.4,1.2-3.4,0.3-4.7c-0.8-1.1-2.1-1.4-3.6-0.9c-3.7,1.3-4.9-0.8-5-0.9c0-0.1-0.1-0.1-0.2,0
		c-0.1,0-0.1,0.1,0,0.2c0,0,1.4,2.3,5.3,1c1.4-0.5,2.6-0.2,3.3,0.8c0.9,1.2,0.7,3.1-0.3,4.4C100.2,89,100.2,89.1,100.3,89.1
		L100.3,89.1z M72,101c-4.3-1.8-8.5-2-8.5-2l-0.9,0c0,0-4.2,0.2-8.5,2c-0.1,0-0.1,0.1-0.1,0.2c0,0.1,0.1,0.1,0.2,0.1
		c4.3-1.8,8.4-2,8.4-2l0.9,0c0,0,4.1,0.2,8.4,2c0.1,0,0.1,0,0.2-0.1C72,101.1,72,101,72,101L72,101z M96.5,99.7
		c-0.1,0-0.1,0-0.2,0.1c0,0-0.3,0.6-1.1,0.8c-1.1,0.3-2.5-0.1-4.2-1.1l-1.7-1C85,95.7,79,92,72.9,91.6c0,0,0,0-0.1-0.1
		c-4-2.3-7.1-2.6-8.3-2.6c-0.1,0.1-0.2,0.3-0.4,0.4c0.7,0,4,0.1,8.4,2.5c0.1,0.5,0.5,3,0.5,5.7c0,1.5-0.1,3.1-0.5,4.3
		c-0.1,0-0.2,0-0.3,0c0.1,0.1,0.1,0.2,0.1,0.3c0,0,0,0.1,0,0.1c0.3,0,0.4,0,0.4,0c0.1,0,0.1-0.1,0.1-0.1c0.5-1.3,0.6-3,0.6-4.6
		c0.6,0,1.6-0.2,2.1-0.9c0.1,0.4,0.1,0.8,0.1,1c0,0,0.1,6.2,0.1,6.3c-0.5,0.8-1.2,1.2-1.8,1.3c-0.6,0.1-1.1-0.1-1.4-0.2
		c0.1,0.2,0.1,0.4,0.2,0.5c0.3,0.1,0.8,0.2,1.3,0.1c0.7-0.1,1.3-0.5,1.9-1.2c0-0.3-0.1-0.5-0.1-0.5c0-0.1,0-0.2,0.1-0.3
		c0.1-0.1,0.2-0.1,0.3-0.1c0,0,0,0,0,0l0-0.7c1.5,0.2,2.6-0.6,3.1-1.2c0-0.2,0-0.4-0.1-0.5c-0.2,0.3-1.2,1.6-3,1.3l-0.1-4.8
		c0-0.1-0.1-1.2-0.3-1.7c-0.2-0.4-0.3-1.6-0.1-1.7c0.3-0.2,0.9-0.2,1.4-0.1c0.1,0,0.4,0.1,0.7,0.3c0.9,0.3,1.4,0.6,1.8,0.7
		c0-0.2,0.1-0.3,0.1-0.4c-0.5-0.2-1.4-0.5-1.8-0.6c-0.3-0.1-0.6-0.2-0.7-0.3c-0.5-0.2-1.3-0.2-1.7,0.1c-0.2,0.1-0.3,0.5-0.3,0.9
		c0,0.5,0.1,1,0.2,1.3c-0.3,1-1.5,1-1.9,1c0-1.5-0.2-2.9-0.3-3.9c0.2-0.1,1-0.4,2.1-0.4c1.6,0,3.1,0.6,4.4,1.8c0,0,0,0,0,0
		c0-0.1,0.1-0.2,0.2-0.2c0,0,0.1,0,0.1,0c-1.7-1.6-3.5-1.9-4.7-1.9c-1.1,0-1.9,0.3-2.2,0.4c-0.1-0.4-0.1-0.8-0.2-1
		c6.1,0.4,12,4.1,16.3,6.7l1.7,1c1.8,1.1,3.3,1.5,4.4,1.1c0.9-0.3,1.3-0.9,1.3-0.9C96.6,99.8,96.6,99.7,96.5,99.7L96.5,99.7z
		 M95.3,44.3c0.1,0.2,0.2,0.3,0.5,0.4c0,0,0.1,0,0.1,0c0,0,0.1,0,0.1,0c0.8-0.4,1.3-1.1,1.5-1.4c-0.3-0.6-1.3-1.1-1.9-1.3
		c0,0.1-0.1,0.2-0.1,0.3C95.3,42.9,95,43.7,95.3,44.3L95.3,44.3z M64.7,100.1l-1.4-0.1l0,0c0,0,0,0,0,0c0,0.1-0.1,0.2-0.1,0.2
		c0,0-0.1,0-0.1,0.1c-1,0.7-6.5,4.9-6.6,4.9c-0.1,0.1-0.5,0.5-0.5,1.3c0,0.3,0.1,0.6,0.3,1c0.5-0.4,6.4-5.6,8.3-7.2
		C64.5,100.3,64.6,100.2,64.7,100.1L64.7,100.1z M69.6,105.4c-1.2-0.9-4.8-3.6-5.3-4c0,0-0.1,0-0.1-0.1c0,0,0,0-0.1-0.1l-0.8,0.6
		c0,0,0.1,0.1,0.1,0.1c0.9,0.8,5.6,5.1,6.2,5.6c0.1-0.3,0.3-0.8,0.3-1.3C70,106,69.9,105.7,69.6,105.4L69.6,105.4z M56.5,98.8
		l1.3-0.1l-0.1-1l-0.3,0l-0.6-5.5l-0.5,0.1l-0.7,0.6l0.1,0.7l0.6-0.1l0.4,4.3l-0.3,0L56.5,98.8L56.5,98.8z M60.8,97
		c-0.3,0-0.4-0.2-0.5-0.6L59.6,97c0.3,0.6,0.7,1.1,1.2,1.1c0.8,0,1.4-1.2,1.3-3.5c-0.1-2.4-0.9-3.3-1.6-3.2c-0.5,0-1.1,0.7-1.1,2.1
		c0,0.1,0,0.2,0,0.2c0,0.8,0.3,1.3,0.5,1.6c0.2,0.3,0.5,0.4,0.7,0.4c0.3,0,0.5-0.2,0.7-0.4C61.4,96,61.2,96.9,60.8,97L60.8,97z
		 M60.7,94.6c-0.2,0-0.3-0.1-0.4-0.3c-0.1-0.2-0.2-0.5-0.2-0.7c0,0,0-0.1,0-0.1c0-0.6,0.1-1.1,0.5-1.1c0.5,0,0.6,1,0.6,1.7
		C61.1,94.4,61,94.6,60.7,94.6L60.7,94.6z M64.5,91.4l-0.4,0l-0.5,4l0,0.9l1.5,0.1L64.9,98l0.7,0l0.1-1.5l0.2,0l0.1-1l-0.2,0
		l0.1-1.9l-0.7,0l-0.1,1.9l-0.7,0l0.5-3.9L64.5,91.4L64.5,91.4z M68.7,97.8c-0.4,0-0.5-0.5-0.5-1l-0.7,0.2c0,1.1,0.5,1.8,1.1,1.9
		c0.7,0.1,1.3-0.6,1.5-1.9c0.1-0.7-0.1-1.3-0.5-1.6c0.4-0.3,0.6-0.6,0.7-1.3c0.1-1.1-0.4-1.8-1-1.9c-0.5-0.1-1,0.4-1.4,1.2l0.6,0.5
		c0.1-0.4,0.4-0.8,0.6-0.7c0.3,0,0.4,0.4,0.4,0.9c-0.1,0.8-0.7,0.8-1,0.7l-0.1,0.9c0.4,0,1,0.2,0.9,1.2C69.3,97.5,69,97.8,68.7,97.8
		L68.7,97.8z"/>
	<path class="st5" d="M64.8,77.9c0.1,0.7,0.2,1.3,0.3,2L64.4,80c-0.1-0.7-0.2-1.4-0.3-2.1h-0.7v4.2h-0.7v-4.2h-0.8
		c-0.1,0.7-0.2,1.4-0.3,2.1l-0.7-0.1c0.1-0.6,0.2-1.3,0.3-2H42.2c0,3.4,0.5,5.2,1.6,6.2c0.3,0.2,0.6,0.4,1,0.6
		c1.4,0.7,3.8,0.8,7.7,0.5c4.2-0.3,7.4,0.5,9.5,2.4c0.4,0.3,0.7,0.7,1,1c0.3-0.3,0.6-0.7,1-1c2.1-1.9,5.3-2.7,9.5-2.4
		c3.9,0.3,6.3,0.2,7.7-0.5c0.4-0.2,0.7-0.4,1-0.6c1.1-1,1.5-2.8,1.6-6.2H64.8L64.8,77.9z"/>
	<polygon class="st3" points="83.7,36.5 64.3,36.5 83.7,62.9 83.7,36.5 	"/>
	<polygon class="st3" points="42.2,36.5 42.2,63.4 61.8,36.5 42.2,36.5 	"/>
	<path class="st3" d="M91.5,79.4c0.1-0.5,0.4-2.9,1.6-3.1c0.6-0.1,1.2-0.1,1.5,0.2c0.3,0.2,0.5,0.6,0.5,1.1c0,0.1-0.1,0.1-0.1,0.1
		c-0.1,0-0.1-0.1-0.1-0.1c0-0.4-0.1-0.7-0.4-0.9c-0.3-0.2-0.7-0.3-1.3-0.2c-1.2,0.2-1.5,3-1.5,3c0,0.1-0.1,0.1-0.1,0.1l-0.5,0
		c0.1,0.4,0.4,0.8,0.7,1.3c0.3,0.4,0.7,0.9,1.3,1.3c0-0.3,0-1.3,0-2.1c0-0.6,0-1.1,0-1.1c0-0.1,0.1-0.2,0.1-0.2c0.1,0,0.2,0,0.2,0.1
		c0,0,0.3,0.4,0.7,0.6c0.2,0.1,0.3,0.1,0.5,0.1c0.3,0,0.7-0.3,1-0.7l0-0.1c0-0.1,0.1-0.1,0.1-0.2l0,0c0,0,0-0.1,0.1-0.1
		c0,0,0,0,0-0.1c0-0.1,0.1-0.2,0.1-0.4c0-0.3,0-0.7-0.1-1.1c-0.2-0.8-0.8-1.4-1.8-1.8c-0.5-0.2-0.9-0.2-1.3,0.1
		c-1.3,0.7-1.8,3.4-1.9,3.7c0,0,0,0.2,0.1,0.4C91.2,79.4,91.4,79.4,91.5,79.4L91.5,79.4z"/>
	<path class="st3" d="M30.1,78.5C30.1,78.5,30.1,78.5,30.1,78.5c0,0.1,0.1,0.2,0.1,0.2l0,0c0,0,0.1,0.1,0.1,0.2l0,0.1
		c0.3,0.4,0.6,0.7,1,0.7c0.2,0,0.4,0,0.5-0.1c0.4-0.2,0.7-0.6,0.7-0.6c0.1-0.1,0.1-0.1,0.2-0.1c0.1,0,0.1,0.1,0.1,0.2
		c0,0,0,0.5,0,1.1c0,0.8,0,1.8,0,2.1c0.6-0.4,1-0.9,1.3-1.3c0.3-0.5,0.6-0.9,0.7-1.3l-0.5,0c-0.1,0-0.1,0-0.1-0.1c0,0-0.3-2.8-1.5-3
		c-0.6-0.1-1-0.1-1.3,0.2c-0.2,0.2-0.4,0.5-0.4,0.9c0,0.1-0.1,0.1-0.1,0.1c-0.1,0-0.1-0.1-0.1-0.1c0-0.5,0.2-0.8,0.5-1.1
		c0.4-0.3,0.9-0.4,1.5-0.2c1.2,0.3,1.6,2.6,1.6,3.1c0.1,0,0.3,0,0.4,0c0-0.2,0-0.4,0.1-0.4c-0.1-0.4-0.6-3-1.9-3.7
		c-0.4-0.2-0.8-0.2-1.3-0.1c-1,0.4-1.6,1-1.8,1.8c-0.1,0.4-0.1,0.8-0.1,1.1C30,78.3,30,78.4,30.1,78.5L30.1,78.5z"/>
	<path class="st3" d="M52.9,92.8c0.1-0.4,0.1-0.8,0.2-0.9c-6.1,0.4-12,4.1-16.3,6.7l-1.7,1c-1.8,1.1-3.3,1.5-4.4,1.1
		c-0.9-0.3-1.3-0.9-1.3-0.9c0-0.1,0-0.1,0.1-0.2c0.1,0,0.1,0,0.2,0.1c0,0,0.3,0.6,1.1,0.8c1.1,0.3,2.5-0.1,4.2-1.1l1.7-1
		C41,95.7,47,92,53.1,91.6c0,0,0,0,0.1-0.1c3.9-2.2,6.9-2.6,8.1-2.6c-0.1-0.1-0.2-0.2-0.4-0.3c-1.8-1.6-4.7-2.2-8.4-2
		c-4,0.3-7,0.3-8.9-0.8L29.8,92c-0.1,0-0.1,0-0.2-0.1c0-0.1,0-0.1,0.1-0.2l13.7-6.1c-0.2-0.1-0.4-0.3-0.6-0.5c0,0-0.1-0.1-0.1-0.1
		L34.2,89c-0.1,0-0.1,0-0.2,0l-3.2,1.4c0,0,0,0,0,0c-0.6,0.2-2,0.8-2,1.7c0,1.1,0,6,0,7c0,0.1,0,0.5,0,0.5c0.1,0.2,0.6,1.3,1.8,1.7
		c1.1,0.4,2.5,0,4.1-1c4.7-3,9.2-5.5,11.1-6c0.1,0,0.1,0,0.2,0c1.7-1.6,3.5-1.9,4.7-1.9C51.8,92.4,52.6,92.7,52.9,92.8L52.9,92.8z"
		/>
	<path class="st3" d="M73.9,105.3c0.7-0.1,1.3-0.6,1.8-1.3c0-0.1-0.1-6.3-0.1-6.3c0-0.2,0-0.7-0.1-1c-0.5,0.7-1.5,0.9-2.1,0.9
		c0,1.6-0.2,3.2-0.6,4.6c0,0.1-0.1,0.1-0.1,0.1c0,0-0.1,0-0.4,0c-0.1,1.3,0,2.2,0.2,2.8C72.8,105.2,73.3,105.4,73.9,105.3
		L73.9,105.3z"/>
	<path class="st3" d="M53.3,102.2c-0.1,0-0.1-0.1-0.1-0.1c-0.5-1.3-0.6-3-0.6-4.5c-0.6,0-1.6-0.2-2.1-0.9c-0.1,0.4-0.1,0.8-0.1,1
		c0,0-0.1,6.2-0.1,6.3c0.5,0.8,1.2,1.2,1.8,1.3c0.6,0.1,1.1-0.1,1.4-0.2c0.2-0.6,0.2-1.5,0.2-2.8C53.4,102.3,53.3,102.2,53.3,102.2
		L53.3,102.2z"/>
	<path class="st3" d="M74,105.7c-0.5,0.1-1,0-1.3-0.1c0.1,0.3,0.3,0.4,0.4,0.5c0.5,0.4,1.3,0,1.9-0.2l0.2-0.1
		c0.6-0.2,0.7-0.8,0.7-1.3C75.3,105.2,74.7,105.6,74,105.7L74,105.7z"/>
	<path class="st3" d="M46.8,101.7c0,0.4,0,0.8,0.3,1.1c0.4,0.5,1.3,0.8,2.8,0.8l0-0.7C48.3,103.1,47.3,102.2,46.8,101.7L46.8,101.7z
		"/>
	<path class="st3" d="M50.3,94.3c-0.3-0.2-0.9-0.2-1.4-0.1c-0.1,0-0.4,0.1-0.7,0.3c-0.9,0.3-1.4,0.6-1.8,0.7c0.2,1,0.7,3.2,0.6,4.5
		c0,0.4-0.1,0.7-0.1,1.1c0,0.1,0,0.3-0.1,0.4c0.2,0.3,1.2,1.6,3,1.3l0.1-4.8c0-0.1,0.1-1.2,0.3-1.6C50.5,95.6,50.6,94.4,50.3,94.3
		L50.3,94.3z"/>
	<path class="st3" d="M52,105.7c-0.7-0.1-1.3-0.5-1.9-1.2c0,0.4,0.1,1,0.7,1.3l0.2,0.1c0.6,0.3,1.4,0.6,1.9,0.2
		c0.1-0.1,0.3-0.2,0.4-0.5C53,105.7,52.5,105.8,52,105.7L52,105.7z"/>
	<path class="st3" d="M100.6,89.7c-0.6,0.2-1.3,0-2-0.5c-0.1,0.7-0.7,8.7-0.7,8.9c0.2,0.3,0.7,0.8,1.2,0.7c0.3-0.1,0.5-0.4,0.7-0.8
		c0.1-3.2,0.7-5.5,1.3-7.5c0.1-0.5,0.3-0.9,0.4-1.4C101.3,89.4,101,89.6,100.6,89.7L100.6,89.7z"/>
	<path class="st3" d="M77.1,94.2c-0.5-0.2-1.1-0.1-1.4,0.1c-0.2,0.2-0.1,1.3,0.1,1.7c0.2,0.4,0.3,1.5,0.3,1.7l0.1,4.8
		c1.8,0.3,2.8-1,3-1.3c0-0.1,0-0.3-0.1-0.4C79,100.4,79,100,79,99.7c0-1.4,0.4-3.6,0.6-4.5c-0.4-0.1-1-0.3-1.8-0.7
		C77.4,94.3,77.2,94.2,77.1,94.2L77.1,94.2z"/>
	<path class="st3" d="M76.2,102.9l0,0.7c1.4-0.1,2.4-0.4,2.8-0.8c0.2-0.3,0.3-0.7,0.3-1.1C78.7,102.2,77.7,103.1,76.2,102.9
		L76.2,102.9z"/>
	<path class="st3" d="M26.9,98.8c0.4,0.1,1-0.4,1.2-0.7c0-0.1-0.6-8.2-0.7-8.9c-0.7,0.6-1.4,0.7-2,0.5c-0.4-0.1-0.6-0.4-0.9-0.6
		c0.1,0.5,0.3,0.9,0.4,1.4c0.6,2,1.2,4.3,1.3,7.5C26.4,98.3,26.6,98.7,26.9,98.8L26.9,98.8z"/>
	<path class="st3" d="M73.2,93.2c0.1,1,0.3,2.4,0.3,3.9c0.4,0,1.6-0.1,1.9-1c-0.1-0.3-0.2-0.8-0.2-1.3c0-0.4,0.1-0.7,0.3-0.9
		c0.4-0.3,1.2-0.3,1.7-0.1c0.1,0,0.4,0.1,0.7,0.3c0.4,0.2,1.3,0.5,1.8,0.6c0,0,0-0.1,0-0.1c-1.3-1.2-2.8-1.8-4.4-1.8
		C74.2,92.8,73.3,93.1,73.2,93.2L73.2,93.2z"/>
	<path class="st3" d="M97.6,98.3C97.6,98.2,97.6,98.2,97.6,98.3c0,0.2,0,0.3,0,0.5c0.1,0,0.2,0.1,0.3,0.2c0.6,1,1,1.1,1.1,1.1
		c0.3-0.1,0.6-0.6,0.8-1.1c-0.2,0.2-0.3,0.3-0.5,0.3C98.4,99.3,97.6,98.3,97.6,98.3L97.6,98.3z"/>
	<path class="st3" d="M95.2,90.4C95.2,90.4,95.2,90.4,95.2,90.4L92,89c-0.1,0-0.1,0-0.2,0l-8.6-4c0,0,0,0,0,0c0,0-0.1,0.1-0.1,0.1
		c-0.2,0.2-0.4,0.3-0.6,0.5l13.8,6.2c0.1,0,0.1,0.1,0.1,0.2c0,0.1-0.1,0.1-0.2,0.1l-14-6.3c-1.9,1.1-4.9,1.2-9,0.9
		c-3.7-0.3-6.6,0.4-8.4,2c-0.1,0.1-0.2,0.2-0.4,0.3c1.2,0,4.2,0.4,8.3,2.6c0,0,0,0,0.1,0.1C79,92,85,95.7,89.4,98.4l1.7,1
		c1.7,1,3.2,1.4,4.2,1.1c0.8-0.2,1.1-0.8,1.1-0.8c0-0.1,0.1-0.1,0.2-0.1c0.1,0,0.1,0.1,0.1,0.2c0,0-0.3,0.7-1.3,0.9
		c-1.1,0.3-2.6-0.1-4.4-1.1l-1.7-1C84.9,95.9,79,92.3,73,91.9c0,0.2,0.1,0.5,0.2,1c0.3-0.1,1.1-0.4,2.2-0.4c1.2,0,3,0.3,4.7,1.9
		c0.1,0,0.1,0,0.2,0c1.9,0.5,6.4,3,11.1,6c1.6,1,3,1.4,4.1,1c1.2-0.4,1.7-1.5,1.8-1.7c0-0.1,0-0.4,0-0.5c0-1,0-5.9,0-7
		C97.2,91.3,95.8,90.6,95.2,90.4L95.2,90.4z"/>
	<path class="st3" d="M48.8,93.8c0.5-0.2,1.3-0.2,1.7,0.1c0.2,0.1,0.3,0.5,0.3,0.9c0,0.5-0.1,1-0.2,1.3c0.4,1,1.6,1.1,1.9,1.1
		c0-1.5,0.2-3,0.3-4c-0.2-0.1-1-0.4-2.1-0.4c-1.6,0-3.1,0.6-4.4,1.8c0,0,0,0.1,0,0.1c0.5-0.2,1.4-0.5,1.8-0.6
		C48.5,94,48.7,93.9,48.8,93.8L48.8,93.8z"/>
	<path class="st3" d="M26.8,99.1c-0.2,0-0.4-0.1-0.5-0.3c0.2,0.5,0.5,1.1,0.8,1.1c0.1,0,0.5,0,1.1-1.1c0.1-0.1,0.2-0.2,0.3-0.2
		c0-0.1,0-0.3,0-0.5c0,0,0,0,0,0C28.4,98.3,27.6,99.3,26.8,99.1L26.8,99.1z"/>
	<path class="st2" d="M42.2,65l20.7-28.5h0.2l20.5,28v12.2c-33.1,0-9.9,0-41.5,0V65L42.2,65z"/>
	<path class="st4" d="M64.7,76.7c-0.2-1.7-0.2-3.5-0.2-5.2l4.8,4c0.4,0.3,1,0.3,1.3-0.2l0.2-0.3c0.3-0.4,0.3-1-0.2-1.3l-6.1-5
		c0,0,0-0.1,0-0.1l9.4-7.1l3,3.9l3-2.1l-4-5.1c0,0-2.9-2.1-6.1-2.9l-0.7,0.2l3.7,4.7L64.6,66c0.3-5.4,1-9.7,1-9.7L65,56.1
		c0,0.1-0.7,4.7-1.1,10.4l-0.5,0.4V51.7h-0.7v15.6l-0.6-0.5C61.8,60.9,61,56.2,61,56.1l-0.7,0.1c0,0.1,0.7,4.4,1,9.9l-9.1-7.4
		c3.1-2.9,6.5-3.7,6.5-3.7s-5.6-2.8-9.7,2.5c-4.1,5.3-1.1,10.1-1.1,10.1c0.4-3.3,1.6-5.7,3.1-7.6c0,0,0,0,0,0l10,8.4l-6.6,4.8
		c-0.4,0.3-0.5,0.9-0.2,1.3l0.2,0.3c0.3,0.4,0.9,0.5,1.3,0.2l5.7-4.3c0,1.9,0,3.9-0.2,5.8H62c0.2-2.1,0.2-4.2,0.2-6.3l0.5-0.4v6.7
		h0.7v-6.2l0.4,0.3c0,1.9,0,3.9,0.2,5.8H64.7L64.7,76.7z M61.1,77.9c-0.1,0.7-0.2,1.3-0.3,2l0.7,0.1c0.1-0.7,0.2-1.4,0.3-2.1H61.1
		L61.1,77.9z M62.7,77.9v4.2h0.7v-4.2H62.7L62.7,77.9z M64.1,77.9c0.1,0.7,0.2,1.4,0.3,2.1l0.7-0.1c-0.1-0.6-0.2-1.3-0.3-2H64.1
		L64.1,77.9z M61.6,48.3c0,0-0.2,0.7,0,1.3c0.3,0.6,1,0.8,1,0.8l0.2,0.1l0.1-0.2c0,0,0.1-0.2,0.1-0.5c0,0.3,0.1,0.5,0.1,0.5l0.1,0.2
		l0.2-0.1c0,0,0.7-0.2,1-0.8c0.3-0.6,0-1.3,0-1.3l-0.1-0.2l0,0c0,0,0-0.1,0.1-0.1c0.3-0.6,0-1.3,0-1.3l-0.1-0.2l0,0
		c0,0,0-0.1,0.1-0.1c0.3-0.6,0-1.3,0-1.3L64.3,45l0,0c0,0,0-0.1,0.1-0.1c0.3-0.6,0-1.3,0-1.3l-0.1-0.2l0,0c0,0,0-0.1,0.1-0.1
		c0.3-0.6,0-1.3,0-1.3l-0.1-0.2L64.1,42c0,0-0.2,0.1-0.5,0.2c0-0.1,0-0.1,0-0.2c0-0.6-0.5-1.2-0.5-1.2L63,40.7l-0.1,0.1
		c0,0-0.5,0.5-0.5,1.2c0,0.1,0,0.1,0,0.2C62.1,42,61.9,42,61.9,42l-0.2-0.1l-0.1,0.2c0,0-0.2,0.7,0,1.3c0,0,0,0.1,0.1,0.1l0,0
		l-0.1,0.2c0,0-0.2,0.7,0,1.3c0,0,0,0.1,0.1,0.1l0,0l-0.1,0.2c0,0-0.2,0.7,0,1.3c0,0,0,0.1,0.1,0.1l0,0l-0.1,0.2c0,0-0.2,0.7,0,1.3
		c0,0,0,0.1,0.1,0.1l0,0L61.6,48.3L61.6,48.3z M64,49.4c-0.1,0.3-0.4,0.4-0.6,0.5c0-0.1,0-0.2,0-0.3c0-0.2,0-0.3,0.1-0.5
		c0.1-0.3,0.4-0.4,0.6-0.5c0,0.1,0,0.2,0,0.3C64.1,49.1,64,49.3,64,49.4L64,49.4z M64,47.9c-0.1,0.3-0.4,0.4-0.6,0.5
		c0-0.1,0-0.2,0-0.3c0-0.2,0-0.3,0.1-0.5c0.1-0.3,0.4-0.4,0.6-0.5c0,0.1,0,0.2,0,0.3C64.1,47.6,64,47.7,64,47.9L64,47.9z M63.5,43
		c0.1-0.3,0.4-0.4,0.6-0.5c0,0.1,0,0.2,0,0.3c0,0.2,0,0.3-0.1,0.5c-0.1,0.3-0.4,0.4-0.6,0.5c0-0.1,0-0.2,0-0.3
		C63.4,43.3,63.4,43.1,63.5,43L63.5,43z M63.5,44.5c0.1-0.3,0.4-0.4,0.6-0.5c0,0.1,0,0.2,0,0.3c0,0.2,0,0.3-0.1,0.5
		c-0.1,0.3-0.4,0.4-0.6,0.5c0-0.1,0-0.2,0-0.3C63.4,44.8,63.4,44.7,63.5,44.5L63.5,44.5z M63.5,46.1c0.1-0.3,0.4-0.4,0.6-0.5
		c0,0.1,0,0.2,0,0.3c0,0.2,0,0.3-0.1,0.5c-0.1,0.3-0.4,0.4-0.6,0.5c0-0.1,0-0.2,0-0.3C63.4,46.4,63.4,46.2,63.5,46.1L63.5,46.1z
		 M63.1,49L63.1,49C63,49.2,63,49.4,63,49.6c0-0.2,0-0.3-0.1-0.5c0,0,0-0.1-0.1-0.1l0,0l0.1-0.2c0,0,0.1-0.2,0.1-0.5
		c0,0.3,0.1,0.5,0.1,0.5L63.1,49L63.1,49C63.1,49,63.1,49,63.1,49L63.1,49z M63.1,47.5C63,47.6,63,47.8,63,48c0-0.2,0-0.3-0.1-0.5
		c0,0,0-0.1-0.1-0.1l0,0l0.1-0.2c0,0,0.1-0.2,0.1-0.5c0,0.3,0.1,0.5,0.1,0.5L63.1,47.5L63.1,47.5C63.1,47.4,63.1,47.4,63.1,47.5
		L63.1,47.5z M63.1,45.9C63,46.1,63,46.3,63,46.4c0-0.2,0-0.3-0.1-0.5c0,0,0-0.1-0.1-0.1l0,0l0.1-0.2c0,0,0.1-0.2,0.1-0.5
		c0,0.3,0.1,0.5,0.1,0.5L63.1,45.9L63.1,45.9C63.1,45.9,63.1,45.9,63.1,45.9L63.1,45.9z M62.8,44.3L62.8,44.3l0.1-0.2
		c0,0,0.1-0.2,0.1-0.5c0,0.3,0.1,0.5,0.1,0.5l0.1,0.2l0,0c0,0,0,0.1-0.1,0.1v0C63,44.5,63,44.7,63,44.9C63,44.7,62.9,44.5,62.8,44.3
		C62.8,44.3,62.8,44.3,62.8,44.3L62.8,44.3z M63,41.3c0.1,0.2,0.3,0.4,0.3,0.7c0,0.3-0.2,0.6-0.3,0.7c-0.1-0.2-0.3-0.4-0.3-0.7
		C62.7,41.7,62.9,41.4,63,41.3L63,41.3z M61.9,42.4c0.2,0.1,0.4,0.3,0.6,0.5c0.1,0.2,0.1,0.3,0.1,0.5c0,0.1,0,0.2,0,0.3
		c-0.2-0.1-0.4-0.3-0.6-0.5c-0.1-0.2-0.1-0.3-0.1-0.5C61.9,42.6,61.9,42.5,61.9,42.4L61.9,42.4z M61.9,44c0.2,0.1,0.4,0.3,0.6,0.5
		c0.1,0.2,0.1,0.3,0.1,0.5c0,0.1,0,0.2,0,0.3c-0.2-0.1-0.4-0.3-0.6-0.5c-0.1-0.2-0.1-0.3-0.1-0.5C61.9,44.2,61.9,44.1,61.9,44
		L61.9,44z M61.9,45.5c0.2,0.1,0.4,0.3,0.6,0.5c0.1,0.2,0.1,0.3,0.1,0.5c0,0.1,0,0.2,0,0.3c-0.2-0.1-0.4-0.3-0.6-0.5
		c-0.1-0.2-0.1-0.3-0.1-0.5C61.9,45.7,61.9,45.6,61.9,45.5L61.9,45.5z M61.9,47.1c0.2,0.1,0.4,0.3,0.6,0.5c0.1,0.2,0.1,0.3,0.1,0.5
		c0,0.1,0,0.2,0,0.3c-0.2-0.1-0.4-0.3-0.6-0.5c-0.1-0.2-0.1-0.3-0.1-0.5C61.9,47.3,61.9,47.2,61.9,47.1L61.9,47.1z M61.9,48.7
		c0.2,0.1,0.4,0.3,0.6,0.5c0.1,0.2,0.1,0.3,0.1,0.5c0,0.1,0,0.2,0,0.3c-0.2-0.1-0.4-0.3-0.6-0.5c-0.1-0.2-0.1-0.3-0.1-0.5
		C61.9,48.9,61.9,48.7,61.9,48.7L61.9,48.7z M57.2,49.2L57.2,49.2l0,0.2c0,0,0,0.7,0.5,1.2c0,0,0.1,0,0.1,0.1h0l0,0.2
		c0,0,0,0.7,0.5,1.2c0,0,0.1,0,0.1,0.1h0l0,0.2c0,0,0,0.7,0.5,1.2c0,0,0.1,0,0.1,0.1h0l0,0.2c0,0,0,0.7,0.5,1.2
		c0.5,0.5,1.2,0.5,1.2,0.5l0.2,0l0-0.2c0,0,0-0.2-0.1-0.5c0.1,0.3,0.2,0.4,0.3,0.4l0.1,0.2l0.2-0.1c0,0,0.6-0.5,0.7-1.1
		c0.1-0.6-0.4-1.2-0.4-1.2l-0.1-0.2l0,0c0,0,0-0.1,0-0.1c0.1-0.6-0.4-1.2-0.4-1.2l-0.1-0.2l0,0c0,0,0-0.1,0-0.1
		c0.1-0.6-0.4-1.2-0.4-1.2l-0.1-0.2l0,0c0,0,0-0.1,0-0.1c0.1-0.6-0.4-1.2-0.4-1.2l-0.1-0.2l0,0c0,0,0-0.1,0-0.1l0,0
		c0.1-0.6-0.4-1.2-0.4-1.2l-0.1-0.2L59,47c0,0-0.2,0.2-0.4,0.4c0-0.1,0-0.1,0-0.2c-0.2-0.6-0.9-0.9-0.9-0.9l-0.2-0.1l-0.1,0.2
		c0,0-0.3,0.7-0.1,1.3c0,0.1,0,0.1,0.1,0.2c-0.3-0.1-0.5-0.1-0.5-0.1l-0.2,0l0,0.2C56.7,48,56.7,48.7,57.2,49.2
		C57.2,49.2,57.2,49.2,57.2,49.2L57.2,49.2z M58.1,51.1c0.2,0,0.5,0.1,0.7,0.3c0.2,0.2,0.3,0.5,0.3,0.7c-0.2,0-0.5-0.1-0.7-0.3
		C58.2,51.6,58.2,51.3,58.1,51.1L58.1,51.1z M59.4,51.6c-0.1-0.2-0.2-0.3-0.3-0.4c0,0-0.1,0-0.1-0.1h0l0-0.2c0,0,0-0.2-0.1-0.5
		c0.1,0.3,0.2,0.4,0.3,0.4l0.1,0.2l0,0c0,0,0,0.1,0,0.1C59.3,51.2,59.4,51.4,59.4,51.6L59.4,51.6z M58.6,52.6c0.2,0,0.5,0.1,0.7,0.3
		c0.2,0.2,0.3,0.5,0.3,0.7c-0.2,0-0.5-0.1-0.7-0.3C58.7,53.1,58.7,52.8,58.6,52.6L58.6,52.6z M59.9,53.1c-0.1-0.2-0.2-0.3-0.3-0.4
		c0,0-0.1,0-0.1-0.1h0l0-0.2c0,0,0-0.2-0.1-0.5c0.1,0.3,0.2,0.4,0.3,0.4l0.1,0.2l0,0c0,0,0,0.1,0,0.1v0
		C59.8,52.7,59.9,52.9,59.9,53.1L59.9,53.1z M59.5,54.7c-0.2-0.2-0.3-0.5-0.3-0.7c0.2,0,0.5,0.1,0.7,0.3c0.2,0.2,0.3,0.5,0.3,0.7
		C60,55,59.7,55,59.5,54.7L59.5,54.7z M60.1,54.1C60.1,54.1,60.1,54,60.1,54.1L60.1,54.1l-0.1-0.3c0,0,0-0.2-0.1-0.5
		c0.1,0.3,0.2,0.4,0.3,0.4l0.1,0.2l0,0c0,0,0,0.1,0,0.1v0c0,0.2,0,0.4,0,0.5C60.4,54.4,60.3,54.2,60.1,54.1L60.1,54.1z M61.3,54
		C61.3,54,61.3,54.1,61.3,54c0,0.4-0.2,0.6-0.4,0.8c-0.1-0.2-0.2-0.4-0.2-0.7c0,0,0-0.1,0-0.1c0-0.3,0.2-0.5,0.4-0.7
		C61.2,53.5,61.3,53.7,61.3,54L61.3,54z M60.8,52.5C60.8,52.6,60.8,52.6,60.8,52.5c0,0.4-0.2,0.6-0.4,0.8c-0.1-0.2-0.2-0.4-0.2-0.7
		c0,0,0-0.1,0-0.1c0-0.3,0.2-0.5,0.4-0.7C60.7,52,60.8,52.3,60.8,52.5L60.8,52.5z M60.3,51.1C60.3,51.1,60.3,51.1,60.3,51.1
		c0,0.4-0.2,0.6-0.4,0.8c-0.1-0.2-0.2-0.4-0.2-0.7c0,0,0-0.1,0-0.1c0-0.3,0.2-0.5,0.4-0.7C60.2,50.6,60.3,50.8,60.3,51.1L60.3,51.1z
		 M59.8,49.6C59.8,49.6,59.8,49.6,59.8,49.6c0,0.4-0.2,0.6-0.4,0.8c-0.1-0.2-0.2-0.4-0.2-0.7c0,0,0-0.1,0-0.1c0-0.3,0.2-0.5,0.4-0.7
		C59.7,49.1,59.8,49.3,59.8,49.6L59.8,49.6z M58.7,48.1c0-0.3,0.2-0.5,0.4-0.7c0.1,0.2,0.2,0.4,0.2,0.7c0,0,0,0.1,0,0.1
		c0,0.3-0.2,0.5-0.4,0.7C58.8,48.7,58.7,48.5,58.7,48.1C58.7,48.2,58.7,48.2,58.7,48.1L58.7,48.1z M58.7,49.3l0.1,0.2l0,0
		c0,0,0,0.1,0,0.1c0,0.2,0,0.4,0,0.5c-0.1-0.2-0.2-0.3-0.3-0.4c0,0-0.1,0-0.1-0.1l0,0l0-0.2c0,0,0-0.2-0.1-0.5
		C58.6,49.1,58.7,49.3,58.7,49.3L58.7,49.3z M58.6,50.6c-0.2,0-0.5-0.1-0.7-0.3c-0.2-0.2-0.3-0.5-0.3-0.7c0.2,0,0.5,0.1,0.7,0.3
		C58.5,50.1,58.6,50.4,58.6,50.6L58.6,50.6z M57.7,46.7c0.2,0.1,0.4,0.3,0.5,0.6c0,0.1,0.1,0.2,0.1,0.3c0,0.2,0,0.3-0.1,0.4
		c-0.2-0.1-0.4-0.3-0.5-0.6c0-0.1-0.1-0.2-0.1-0.3C57.6,47,57.7,46.8,57.7,46.7L57.7,46.7z M57.8,48.5c0.2,0.2,0.3,0.5,0.3,0.7
		c-0.2,0-0.5-0.1-0.7-0.3c-0.2-0.2-0.3-0.5-0.3-0.7C57.3,48.2,57.6,48.3,57.8,48.5L57.8,48.5z M64.7,52.9c0,0-0.5,0.6-0.4,1.2
		c0.1,0.6,0.6,1.1,0.7,1.1l0.2,0.1l0.1-0.2c0,0,0.1-0.2,0.3-0.4c-0.1,0.3-0.1,0.5-0.1,0.5l0,0.2l0.2,0c0,0,0.7,0,1.2-0.5
		c0.5-0.5,0.5-1.2,0.5-1.2l0-0.2h0c0,0,0.1,0,0.1-0.1c0.5-0.5,0.5-1.2,0.5-1.2l0-0.2h0c0,0,0.1,0,0.1-0.1c0.5-0.5,0.5-1.2,0.5-1.2
		l0-0.2h0c0,0,0.1,0,0.1-0.1c0.5-0.5,0.5-1.2,0.5-1.2l0-0.2h0c0,0,0.1,0,0.1-0.1c0.5-0.5,0.5-1.2,0.5-1.2l0-0.2l-0.2,0
		c0,0-0.2,0-0.5,0.1c0-0.1,0.1-0.1,0.1-0.2c0.2-0.6-0.1-1.3-0.1-1.3l-0.1-0.2l-0.2,0.1c0,0-0.7,0.3-0.9,0.9c0,0.1,0,0.1,0,0.2
		C67.2,47.1,67,47,67,47l-0.2-0.1L66.7,47c0,0-0.5,0.6-0.4,1.2l0,0c0,0,0,0.1,0,0.1l0,0l-0.1,0.2c0,0-0.5,0.6-0.4,1.2
		c0,0,0,0.1,0,0.1l0,0L65.7,50c0,0-0.5,0.6-0.4,1.2c0,0,0,0.1,0,0.1l0,0l-0.1,0.2c0,0-0.5,0.6-0.4,1.2c0,0,0,0.1,0,0.1l0,0
		L64.7,52.9L64.7,52.9z M65.5,54.5c0-0.2,0.1-0.3,0-0.5v0c0,0,0-0.1,0-0.1l0,0l0.1-0.2c0,0,0.1-0.2,0.3-0.4
		c-0.1,0.3-0.1,0.5-0.1,0.5l0,0.2h0c0,0-0.1,0-0.1,0.1C65.7,54.2,65.6,54.4,65.5,54.5L65.5,54.5z M66.5,54.7
		C66.3,55,66,55,65.8,55.1c0-0.2,0.1-0.5,0.3-0.7c0.2-0.2,0.5-0.3,0.7-0.3C66.8,54.2,66.7,54.5,66.5,54.7L66.5,54.7z M66.1,52.5
		L66.1,52.5c0,0,0-0.1,0-0.1L66.1,52.5l0.1-0.2c0,0,0.1-0.2,0.3-0.4c-0.1,0.3-0.1,0.5-0.1,0.5l0,0.2h0c0,0-0.1,0-0.1,0.1
		c-0.1,0.1-0.2,0.3-0.3,0.4C66.1,52.9,66.1,52.7,66.1,52.5L66.1,52.5z M67,53.3c-0.2,0.2-0.5,0.3-0.7,0.3c0-0.2,0.1-0.5,0.3-0.7
		c0.2-0.2,0.5-0.3,0.7-0.3C67.3,52.8,67.2,53.1,67,53.3L67,53.3z M66.6,51c0,0,0-0.1,0-0.1L66.6,51l0.1-0.2c0,0,0.1-0.2,0.3-0.4
		c-0.1,0.3-0.1,0.5-0.1,0.5l0,0.2h0c0,0-0.1,0-0.1,0.1c-0.1,0.1-0.2,0.3-0.3,0.4C66.6,51.4,66.6,51.2,66.6,51L66.6,51z M67.5,51.8
		c-0.2,0.2-0.5,0.3-0.7,0.3c0-0.2,0.1-0.5,0.3-0.7c0.2-0.2,0.5-0.3,0.7-0.3C67.8,51.3,67.7,51.6,67.5,51.8L67.5,51.8z M68.9,48.1
		c0,0.2-0.1,0.5-0.3,0.7c-0.2,0.2-0.5,0.3-0.7,0.3c0-0.2,0.1-0.5,0.3-0.7C68.4,48.3,68.7,48.2,68.9,48.1L68.9,48.1z M67.8,47.3
		c0.1-0.3,0.3-0.5,0.5-0.6c0,0.1,0.1,0.3,0.1,0.4c0,0.1,0,0.2-0.1,0.3c-0.1,0.3-0.3,0.5-0.5,0.6c0-0.1-0.1-0.3-0.1-0.4
		C67.7,47.5,67.7,47.4,67.8,47.3L67.8,47.3z M68.4,49.6c0,0.2-0.1,0.5-0.3,0.7c-0.2,0.2-0.5,0.3-0.7,0.3c0-0.2,0.1-0.5,0.3-0.7
		C67.9,49.7,68.2,49.6,68.4,49.6L68.4,49.6z M67.5,48.9c-0.1,0.3-0.1,0.5-0.1,0.5l0,0.2l0,0c0,0-0.1,0-0.1,0.1
		c-0.1,0.1-0.2,0.3-0.3,0.4c0-0.2,0.1-0.3,0-0.5c0,0,0-0.1,0-0.1l0,0l0.1-0.2C67.3,49.3,67.4,49.1,67.5,48.9L67.5,48.9z M66.9,47.5
		c0.1,0.2,0.3,0.4,0.4,0.7c0,0,0,0.1,0,0.1c0,0.3-0.1,0.5-0.2,0.7c-0.1-0.2-0.3-0.4-0.4-0.7c0,0,0-0.1,0-0.1
		C66.7,47.8,66.8,47.6,66.9,47.5L66.9,47.5z M66.4,48.9c0.1,0.2,0.3,0.4,0.4,0.7c0,0,0,0.1,0,0.1c0,0.3-0.1,0.5-0.2,0.7
		c-0.1-0.2-0.3-0.4-0.4-0.7c0,0,0-0.1,0-0.1C66.2,49.3,66.3,49.1,66.4,48.9L66.4,48.9z M65.9,50.4c0.1,0.2,0.3,0.4,0.4,0.7
		c0,0,0,0.1,0,0.1c0,0.3-0.1,0.5-0.2,0.7c-0.1-0.2-0.3-0.4-0.4-0.7c0,0,0-0.1,0-0.1C65.7,50.8,65.8,50.6,65.9,50.4L65.9,50.4z
		 M65.4,51.9c0.1,0.2,0.3,0.4,0.4,0.7c0,0,0,0.1,0,0.1c0,0.3-0.1,0.5-0.2,0.7c-0.1-0.2-0.3-0.4-0.4-0.7c0,0,0-0.1,0-0.1
		C65.2,52.3,65.3,52,65.4,51.9L65.4,51.9z M64.8,53.3c0.1,0.2,0.3,0.4,0.4,0.7c0,0,0,0.1,0,0.1c0,0.3-0.1,0.5-0.2,0.7
		c-0.1-0.2-0.3-0.4-0.4-0.7c0,0,0-0.1,0-0.1C64.6,53.7,64.8,53.5,64.8,53.3L64.8,53.3z"/>
</g>
</svg>
