<?xml version="1.0" encoding="utf-8"?>
<!-- Generator: Adobe Illustrator 22.0.1, SVG Export Plug-In . SVG Version: 6.00 Build 0)  -->
<svg version="1.1" id="Слой_1" xmlns="http://www.w3.org/2000/svg" xmlns:xlink="http://www.w3.org/1999/xlink" x="0px" y="0px"
	 viewBox="0 0 127.3 127" style="enable-background:new 0 0 127.3 127;" xml:space="preserve">
<style type="text/css">
	.st0{fill:url(#SVGID_1_);}
	.st1{fill:#FFFFFF;}
	.st2{fill:#0033A1;}
	.st3{fill:#1C3481;}
	.st4{fill:#FFC629;}
	.st5{fill:#FFFFFF;stroke:#0033A1;stroke-width:0.4164;stroke-linecap:round;stroke-linejoin:round;stroke-miterlimit:22.9256;}
	.st6{fill:none;stroke:#0033A1;stroke-width:0.3123;stroke-miterlimit:22.9256;}
	.st7{fill:#00953B;}
</style>
<radialGradient id="SVGID_1_" cx="64.8" cy="2586.7468" r="62.6" gradientTransform="matrix(1 0 0 1 0 -2522.3469)" gradientUnits="userSpaceOnUse">
	<stop  offset="0.9487" style="stop-color:#212121"/>
	<stop  offset="1" style="stop-color:#606060;stop-opacity:0"/>
</radialGradient>
<circle class="st0" cx="64.8" cy="64.4" r="62.6"/>
<circle class="st1" cx="62.6" cy="62.6" r="62.6"/>
<g>
	<path class="st2" d="M63.5,17.7c24.8,0,44.9,20.1,44.9,44.9s-20.1,44.9-44.9,44.9S18.6,87.4,18.6,62.6S38.7,17.7,63.5,17.7
		L63.5,17.7z"/>
	<path class="st1" d="M63.5,18.4c24.5,0,44.3,19.8,44.3,44.3S88,107,63.5,107S19.2,87.1,19.2,62.7C19.2,38.2,39,18.4,63.5,18.4
		L63.5,18.4z"/>
	<path class="st3" d="M63.5,18.9c24.2,0,43.8,19.6,43.8,43.8s-19.6,43.8-43.8,43.8S19.7,86.9,19.7,62.7
		C19.7,38.5,39.3,18.9,63.5,18.9L63.5,18.9z"/>
	<path class="st2" d="M63,16.2c4.6,0,8.3,3.7,8.3,8.3s-3.7,8.3-8.3,8.3s-8.3-3.7-8.3-8.3C54.7,19.9,58.4,16.2,63,16.2L63,16.2z"/>
	<path class="st4" d="M52.1,94.8c1.4,4.3,3.2,9.2,4.6,13.5c5,1.9,9.3,1.8,14.9,0c1.5-4.2,3.3-9.3,4.8-13.5
		C68.2,97.6,60.3,97.8,52.1,94.8L52.1,94.8z"/>
	<path class="st4" d="M63,18.1c3.5,0,6.4,2.9,6.4,6.4s-2.9,6.4-6.4,6.4s-6.4-2.9-6.4-6.4S59.5,18.1,63,18.1L63,18.1z"/>
	<path class="st4" d="M63.1,30.9c17.5,0,31.7,14.2,31.7,31.7S80.6,94.3,63.1,94.3S31.4,80.1,31.4,62.6
		C31.5,45.1,45.7,30.9,63.1,30.9L63.1,30.9z"/>
	<path class="st2" d="M63.1,41.3c11.8,0,21.3,9.5,21.3,21.3s-9.5,21.3-21.3,21.3s-21.3-9.5-21.3-21.3C41.8,50.8,51.4,41.3,63.1,41.3
		L63.1,41.3z"/>
	<path class="st2" d="M53.6,96.2c1.2,3.7,2.7,8,3.9,11.6c4.5,1.4,8.9,1.3,13.2-0.2c1.3-3.6,2.8-7.9,4.1-11.4
		C66.8,98.4,60.9,98.4,53.6,96.2L53.6,96.2z"/>
	<path class="st5" d="M35.3,72.9h10.1l2.5-1.4h31.4l2.7,1.4h8.5c-7.3-6.5-13.9-12.6-21.2-19.1c-1.6-1-3.8-0.4-5.6,1.5
		c0.3,0.4,0.6,0.6,0.9,1c-0.3-0.3-0.6-0.6-0.9-1c-2.5-2.7-4.6-4.3-7-2L35.3,72.9L35.3,72.9z"/>
	<path class="st4" d="M54.9,97.5c1.1,3.3,2.2,6.5,3.2,9.8c4,0.9,8,0.9,11.9-0.2c1.2-3.2,2.3-6.4,3.5-9.7
		C67.3,99.1,61.1,99.4,54.9,97.5L54.9,97.5z"/>
	<path class="st6" d="M63,19.5c2.8,0,5,2.2,5,5s-2.2,5-5,5c-2.8,0-5-2.2-5-5S60.2,19.5,63,19.5L63,19.5z"/>
	<path class="st1" d="M93.2,88.9c-1.7,1.9-3.5,3.7-5.5,5.4c-1.2,1-2.9,2-4.5,2.8c-0.7-0.3-1.2-0.3-1.9-0.7c-0.2-0.9,0-2,0-2.9
		c1.3-1,2.5-1.9,3.8-2.9c0-1.3,0-2.5,0-3.8c7.6-8,11.4-16.5,10.4-25.6c-0.1-2.7-0.5-5.4-1.4-8.1c-1-3.1-2.1-6-4.1-9
		c-1.5-1.5-3.2-3.3-4.2-5c-0.7-1.3-0.5-2.6,0-3.6c-2.2-1.1-3.6-2.6-4.1-4.6c-0.2-0.7-0.1-0.8,0.5-1.1c1.8-0.8,2.3-1.3,3.8-0.3
		c2.9,2.1,5.3,4.5,7.4,7.1c0.6,0.1,1.4,0.3,2.2,0.4c2.1,0.5,3.3,1,4.5,2.8c0.4,0.7,0.8,1.4,1.2,2.2c1.3,2.9,2.8,6.1,3.9,9.5
		c2.3,8.1,2.5,15.6-0.3,23.6c-1.7,4.9-3.8,9.4-6.9,13.4C95.6,89,94.1,89.2,93.2,88.9L93.2,88.9z"/>
	<path class="st7" d="M94.3,39.3C93.8,38,93.2,36.8,92,36c-3.8-2.5-5.2-1.8-8.5-4.8c1.8,3.4,3.8,4.9,6.6,6.2
		C92,38.3,91.7,37.5,94.3,39.3L94.3,39.3z"/>
	<path class="st7" d="M88,37.4c2.9,2,5.2,2.9,7,4.2c1.4,1.4,1.9,3.1,2.7,6.7C94.1,44.9,90.6,41.4,88,37.4L88,37.4z"/>
	<path class="st7" d="M95.9,37.9c1.5,3.1,2.5,6.6,2.8,10.5c0.1,1.6,1,2.9,1.5,4.1c0.6-3.9,0.7-6.6,0.2-8.9
		C99.9,41.4,98,40.4,95.9,37.9L95.9,37.9z"/>
	<path class="st7" d="M102.8,72c-1.5,1.5-2,3.1-1.9,4.8c1.6-1.5,2.9-2.8,4.5-4.3c0.5-1.8,0.9-4,1.1-5.8c-0.2-0.9-0.2-1.7-0.8-2.1
		c-0.1-0.1-0.3-0.2-0.4-0.1c-0.2,0.2-0.6,0.2-0.9,0.3c1-1.6,1.2-3.3,1.2-4.9c0-1.5-0.4-3.4-0.7-4.9c-0.4-2-1.3-3.9-2.2-5.7
		c-0.1,2.5-0.3,5.2-0.9,8.4c-1-5.4-4.3-8.6-7.9-11.4c-0.1,2.6,0.7,5.8,6,11.8c-0.3,0.3-0.3,0.3-0.5,0.7c-1.7-1.6-3.2-3.5-4.2-5.1
		c0.1,3.5,0.8,7.2,2.4,10.2c-0.2,0.2-0.4,0.7-0.7,1c-0.2,0.2-0.3,0.3-0.6,0.3c-0.3,0-0.4,0-0.6,0c-0.1,1.8,0.1,4.3-0.2,5.4
		c-0.1,2.5-0.3,5.1-0.4,7.6c0.8-1.4,1.7-2.6,2.4-4c0.2-1,0.1-2.1,0-3c-1.5-0.7-0.8-2.1-0.7-3.6c-0.1-1.3-0.7-1.1-1.1-1.5
		c0.9-0.1,1.3,0.2,1.5,0.4c0.4-0.1,0.2-1.1,0.6-1.4c0.4,0,0.4,1.2,0.7,1.4c0.5-0.1,1.3-1,1.6-0.9c-0.4-0.7-0.6-1.3-0.4-2.1
		c0.1-0.4,0.2-0.9,0-1.4c-0.3-1-1-1-1.5-1.8c1-0.1,2,0.9,2,0.6c0-0.6,0-1.4,0.2-1.7c0.4,0.3,0.5,0.7,0.7,1.5
		c0.1,0.1,0.2,0.2,0.3,0.2c0.1,0,0.3-0.1,0.3-0.2c0.3-0.5,1-0.9,1.5-0.2c-0.7-0.1-1,0.1-1.1,1c0.1,1.3,0.7,3.7-1,4.5
		c0.6,0.1,1,0.3,1.6,0.9c0.7-0.4,0.7-0.9,0.9-1.3c0.1,0,0.2,0,0.2,0c0.1,0.1,0.2,0.1,0.2,0.2c-0.1,0.4-0.2,0.9,0,1.4
		c0.7-0.3,1.3-0.3,1.9-0.3c-0.5,0.5-1,0.9-1.5,1.5c-0.5,0.7-0.2,1.6-0.3,2.4C104,71.5,103.4,71.7,102.8,72L102.8,72z"/>
	<path class="st7" d="M97.9,76.2c1.8-1.2,3.3-2.8,4.3-4.5c-0.3-0.5-0.6-0.5-0.7-1.2c-0.1-0.8,0-1.4,0.1-2.1c0.1-0.4,0.2-0.8,0.1-1.3
		c-0.2-0.8-0.6-1.2-1-1.4c-0.1,0-0.2-0.1-0.3-0.1c-0.5,0-0.9,0.7-1.1,1.2c-0.1,0.2-0.1,0.4-0.1,0.7c0,0.9-0.1,1.9-0.6,2.7
		c-0.2,0.3-0.5,0.6-0.9,0.8C97.7,72.8,97.9,74.6,97.9,76.2L97.9,76.2z"/>
	<path class="st7" d="M100.4,75.5c-1.2,3.5-3.8,6.4-7.3,9.3c0.3-0.8,0.5-1.6,0.6-2.2c0-0.2,0-0.5,0.1-0.7c0.2-0.8,0.4-1.5,0.7-2.1
		c0.6-0.7,1.2-1.5,2.1-2C98.2,77,99.3,76.1,100.4,75.5L100.4,75.5z"/>
	<path class="st7" d="M103.8,74.6c0.2,2.1-2.1,4.9-5.7,8.1c0-1.4,0.6-2.8,1.9-4C101.6,77.3,102.9,76,103.8,74.6L103.8,74.6z"/>
	<path class="st7" d="M93.5,75.9c-1.1,1-2.1,2.3-2.2,3.8c-0.3,3.1-0.9,4.4-0.8,7c1.1-1.3,2.1-2.9,2.5-5.6
		C93.1,79.3,93.3,77.6,93.5,75.9L93.5,75.9z"/>
	<path class="st7" d="M89.8,81.9c-2.5,2.6-3.7,6-3.7,10.3c0.5-0.5,0.9-1.1,1.4-1.6c0.1,0.3,0.3,0.4,0.5,0.6c0.5-1.1,1.3-1.9,2.4-2.3
		c2.2-0.7,4.4-1.4,6.6-2.1c1.2-1,2.8-3,3.5-4.4c-1.1,0.8-2.3,1.6-4,2.2c-1.3,0.5-2.5,1.2-3.8,1.7c-1.8,1-3.2,2.3-4.4,3.9
		c0.2-1,0.7-2,0.6-3C88.6,85.1,89.1,83.5,89.8,81.9L89.8,81.9z"/>
	<path class="st7" d="M85.7,92.7c-1.1,0.9-2.9,2-3.4,3.3c0.5-0.2,0.9-0.3,1.3-0.3C85.3,94.4,85.5,93.6,85.7,92.7L85.7,92.7z"/>
	<path class="st1" d="M33.5,88.9c1.7,1.9,3.5,3.7,5.5,5.4c1.2,1,2.9,2,4.5,2.8c0.7-0.3,1.2-0.3,1.9-0.7c0.2-0.9,0-2,0-2.9
		c-1.3-1-2.5-1.9-3.8-2.9c0-1.3,0-2.5,0-3.8c-7.6-8-11.4-16.5-10.4-25.6c0.1-2.7,0.5-5.4,1.4-8.1c1-3.1,2.1-6,4.1-9
		c1.5-1.5,3.2-3.3,4.2-5c0.7-1.3,0.5-2.6,0-3.6c2.2-1.1,3.6-2.6,4.1-4.6c0.2-0.7,0.1-0.8-0.5-1.1c-1.8-0.8-2.3-1.3-3.8-0.3
		c-2.9,2.1-5.3,4.5-7.4,7.1c-0.6,0.1-1.4,0.3-2.2,0.4c-2.1,0.5-3.3,1-4.5,2.8c-0.4,0.7-0.8,1.4-1.2,2.2c-1.3,2.9-2.8,6.1-3.9,9.5
		c-2.3,8.1-2.5,15.6,0.3,23.6c1.7,4.9,3.8,9.4,6.9,13.4C31.1,89,32.6,89.2,33.5,88.9L33.5,88.9z"/>
	<path class="st7" d="M32.3,39.3c0.5-1.3,1.2-2.5,2.3-3.3c3.8-2.5,5.2-1.8,8.5-4.8c-1.8,3.4-3.8,4.9-6.6,6.2
		C34.6,38.3,35,37.5,32.3,39.3L32.3,39.3z"/>
	<path class="st7" d="M38.6,37.4c-2.9,2-5.2,2.9-7,4.2c-1.4,1.4-1.9,3.1-2.7,6.7C32.5,44.9,36,41.4,38.6,37.4L38.6,37.4z"/>
	<path class="st7" d="M30.7,37.9c-1.5,3.1-2.5,6.6-2.8,10.5c-0.1,1.6-1,2.9-1.5,4.1c-0.6-3.9-0.7-6.6-0.2-8.9
		C26.7,41.4,28.6,40.4,30.7,37.9L30.7,37.9z"/>
	<path class="st7" d="M23.9,71.9c1.5,1.5,1.9,3.2,1.8,4.9c-1.6-1.5-2.9-2.8-4.5-4.3c-0.5-1.8-0.9-4-1.1-5.8c0.2-0.9,0.2-1.7,0.8-2.1
		c0.1-0.1,0.3-0.2,0.4-0.1c0.2,0.2,0.6,0.2,0.9,0.3c-1-1.6-1.2-3.3-1.2-4.9c0-1.5,0.4-3.4,0.7-4.9c0.4-2,1.3-3.9,2.2-5.7
		c0.1,2.5,0.3,5.2,0.9,8.4c1-5.4,4.3-8.6,7.9-11.4c0.1,2.6-0.7,5.8-6,11.8c0.3,0.3,0.3,0.3,0.5,0.7c1.7-1.6,3.2-3.5,4.2-5.1
		c-0.1,3.5-0.8,7.2-2.4,10.2c0.2,0.2,0.4,0.7,0.7,1c0.2,0.2,0.3,0.3,0.6,0.3c0.3,0,0.4,0,0.6,0c0.1,1.8-0.1,4.3,0.2,5.4
		c0.1,2.5,0.3,5.1,0.4,7.6c-0.8-1.4-1.7-2.6-2.4-4c-0.2-1-0.1-2.1,0-3c1.5-0.7,0.8-2.1,0.7-3.6c0.1-1.3,0.7-1.1,1.1-1.5
		c-0.9-0.1-1.4,0.4-1.6,0.7c-0.4-0.1-0.1-1.2-0.5-1.7c-0.3,0.2-0.3,1.4-0.7,1.6c-0.5-0.1-1-1-1.7-1.1c0.4-0.7,0.6-1.3,0.4-2.1
		c-0.1-0.4-0.2-0.9,0-1.4c0.1-0.4,0.3-0.7,0.5-0.9c0.3-0.3,0.6-0.5,1-0.8c-1-0.1-2.1,0.9-2.1,0.7c0-0.6,0.1-1.4-0.1-1.8
		c-0.4,0.3-0.5,0.7-0.7,1.4c0,0.1-0.2,0.4-0.3,0.4c-0.2,0-0.3-0.3-0.4-0.3c-0.3-0.5-1-0.9-1.5-0.2c0.6-0.1,1,0.1,1.1,0.7
		c0,0.2,0,0.3,0,0.4c-0.1,1.4-0.6,3.6,1,4.3c-0.6,0.1-1,0.3-1.6,0.9C23,66.5,23,66,22.8,65.6c-0.1,0-0.1,0-0.2-0.1
		c-0.1,0.1-0.1,0.1-0.2,0.2c0.1,0.4,0.2,0.9,0,1.3c-0.7-0.3-1.3-0.3-1.9-0.3c0.5,0.5,1,0.9,1.5,1.5c0.5,0.7,0.2,1.6,0.3,2.4
		C22.6,71.5,23.3,71.6,23.9,71.9L23.9,71.9z"/>
	<path class="st7" d="M28.7,76.2c-1.8-1.2-3.3-2.8-4.3-4.5c0.3-0.5,0.6-0.5,0.7-1.2c0.1-0.8,0-1.4-0.1-2.1c-0.1-0.4-0.2-0.8-0.1-1.3
		c0.2-0.8,0.6-1.2,1-1.4c0.1,0,0.2-0.1,0.3-0.1c0.5,0,0.9,0.7,1.1,1.2c0.1,0.2,0.1,0.4,0.1,0.7c0,0.9,0.1,1.9,0.6,2.7
		c0.2,0.3,0.5,0.6,0.9,0.8C28.9,72.8,28.7,74.6,28.7,76.2L28.7,76.2z"/>
	<path class="st7" d="M26.3,75.5c1.2,3.5,3.8,6.4,7.3,9.3C33.2,84,33,83.3,33,82.6c0-0.2,0-0.5-0.1-0.7c-0.2-0.8-0.4-1.5-0.7-2.1
		c-0.6-0.7-1.2-1.5-2.1-2C28.5,77,27.3,76.1,26.3,75.5L26.3,75.5z"/>
	<path class="st7" d="M22.8,74.6c-0.2,2.1,2.1,4.9,5.7,8.1c0-1.4-0.6-2.8-1.9-4C25.1,77.3,23.7,76,22.8,74.6L22.8,74.6z"/>
	<path class="st7" d="M33.1,75.9c1.1,1,2.1,2.3,2.2,3.8c0.3,3.1,0.9,4.4,0.8,7c-1.1-1.3-2.1-2.9-2.5-5.6
		C33.6,79.3,33.3,77.6,33.1,75.9L33.1,75.9z"/>
	<path class="st7" d="M36.9,81.9c2.5,2.6,3.7,6,3.7,10.3c-0.5-0.5-0.9-1.1-1.4-1.6c-0.1,0.3-0.3,0.4-0.5,0.6
		c-0.5-1.1-1.3-1.9-2.4-2.3c-2.2-0.7-4.4-1.4-6.6-2.1c-1.2-1-2.8-3-3.5-4.4c1.1,0.8,2.3,1.6,4,2.2c1.3,0.5,2.5,1.2,3.8,1.7
		c1.8,1,3.2,2.3,4.4,3.9c-0.2-1-0.7-2-0.6-3C38,85.1,37.6,83.5,36.9,81.9L36.9,81.9z"/>
	<path class="st7" d="M40.9,92.7c1.1,0.9,2.9,2,3.4,3.3c-0.5-0.2-0.9-0.3-1.3-0.3C41.4,94.4,41.2,93.6,40.9,92.7L40.9,92.7z"/>
</g>
</svg>
