<?xml version="1.0" encoding="utf-8"?>
<!-- Generator: Adobe Illustrator 22.0.1, SVG Export Plug-In . SVG Version: 6.00 Build 0)  -->
<svg version="1.1" id="Слой_1" xmlns="http://www.w3.org/2000/svg" xmlns:xlink="http://www.w3.org/1999/xlink" x="0px" y="0px"
	 viewBox="0 0 127.3 127" style="enable-background:new 0 0 127.3 127;" xml:space="preserve">
<style type="text/css">
	.st0{fill:url(#SVGID_1_);}
	.st1{fill:#FFFFFF;}
	.st2{fill:#FFD700;}
	.st3{fill:#FF0000;}
	.st4{fill:#8B0000;}
	.st5{fill:#008000;}
	.st6{fill:#C0C0C0;}
</style>
<radialGradient id="SVGID_1_" cx="64.8" cy="682.747" r="62.6" gradientTransform="matrix(1 0 0 1 0 -618.347)" gradientUnits="userSpaceOnUse">
	<stop  offset="0.9487" style="stop-color:#212121"/>
	<stop  offset="1" style="stop-color:#606060;stop-opacity:0"/>
</radialGradient>
<circle class="st0" cx="64.8" cy="64.4" r="62.6"/>
<circle class="st1" cx="62.6" cy="62.6" r="62.6"/>
<g transform="translate(6,-1202.4221)">
	<g transform="matrix(1.00286,0,0,1.00286,.01719,-6.02959)">
		<g>
			<path class="st2" d="M22.5,1228.6v64.5c0,4.7,3.8,8.5,8.5,8.5h17.1c4.7,0,8.5,3.8,8.5,8.5c0-4.7,3.8-8.5,8.5-8.5h17.1
				c4.7,0,8.5-3.8,8.5-8.5v-64.5L22.5,1228.6L22.5,1228.6z"/>
		</g>
		<g>
			<path d="M56.9,1310.2h-0.5c0-4.6-3.7-8.3-8.3-8.3H31.1c-4.8,0-8.8-3.9-8.8-8.8v-64.7h68.8v64.7c0,4.8-3.9,8.8-8.8,8.8H65.2
				C60.7,1301.9,56.9,1305.6,56.9,1310.2z M22.8,1228.9v64.3c0,4.6,3.7,8.3,8.3,8.3h17.1c4.1,0,7.6,2.9,8.5,6.8
				c0.9-3.9,4.4-6.8,8.5-6.8h17.1c4.6,0,8.3-3.7,8.3-8.3v-64.3H22.8z"/>
		</g>
		<g>
			<path d="M84.9,1275H27.3c-0.1,0-0.2-0.1-0.2-0.2s0.1-0.2,0.2-0.2h57.7c0.1,0,0.2,0.1,0.2,0.2S85,1275,84.9,1275z"/>
		</g>
		<g>
			<path class="st3" d="M38.7,1286c-0.7,0-1,0.3-1.1,0.6l-3,4.6c0.2-0.2,0.5-0.3,0.9-0.3h3.8H43c0.6,0,1-0.2,1.3-0.5
				s0.4-0.7,0.3-1.1l-1.2-3.4h-0.9H38.7L38.7,1286z M30.6,1292.7l-3.3,5h4.1h4.1c0.3,0,0.6-0.3,0.8-0.6c0.2-0.3,0.3-0.7,0.2-0.9
				l-1-1.7l-1-1.7H30.6z M44.8,1270.7c-0.3,0-0.6,0.2-0.8,0.6l-3.2,4.9c0.2-0.3,0.6-0.6,0.9-0.5l7.5,2l7.5,2v-5.8l-4.3-1.1l-7.5-2
				C44.8,1270.7,44.8,1270.7,44.8,1270.7L44.8,1270.7z"/>
			<path d="M35.6,1297.8h-8.2c0,0-0.1,0-0.1-0.1c0,0,0-0.1,0-0.1l3.3-5c0,0,0.1-0.1,0.1-0.1h3.8c0,0,0.1,0,0.1,0.1l2,3.5
				c0.2,0.3,0,0.8-0.2,1.1C36.2,1297.5,35.9,1297.8,35.6,1297.8z M27.6,1297.6h7.9c0.2,0,0.4-0.2,0.6-0.5c0.2-0.3,0.2-0.6,0.2-0.8
				l-2-3.4h-3.7L27.6,1297.6z M34.6,1291.4C34.5,1291.4,34.5,1291.4,34.6,1291.4c-0.1-0.1-0.2-0.2-0.1-0.2l3-4.6
				c0.1-0.3,0.4-0.7,1.3-0.7l4.7,0c0.1,0,0.1,0,0.1,0.1l1.2,3.4c0.1,0.4,0,0.8-0.3,1.2c-0.3,0.4-0.8,0.6-1.4,0.6h-7.6
				C35.1,1291.1,34.8,1291.2,34.6,1291.4C34.6,1291.4,34.6,1291.4,34.6,1291.4z M38.7,1286.1L38.7,1286.1c-0.5,0-0.9,0.2-1,0.6
				c0,0,0,0,0,0l-2.7,4.2c0.1,0,0.3-0.1,0.5-0.1H43c0.5,0,0.9-0.2,1.2-0.5c0.3-0.3,0.4-0.6,0.2-0.9l-1.1-3.3H38.7z M56.7,1279.8
				C56.7,1279.8,56.7,1279.8,56.7,1279.8l-15.1-4c-0.2-0.1-0.5,0.1-0.7,0.4c0,0.1-0.1,0.1-0.2,0c-0.1,0-0.1-0.1,0-0.2l3.2-4.9
				c0.3-0.4,0.6-0.6,0.9-0.6c0,0,0,0,0,0c0.1,0,0.1,0,0.2,0l11.8,3.1c0.1,0,0.1,0.1,0.1,0.1v5.8
				C56.8,1279.7,56.8,1279.7,56.7,1279.8C56.8,1279.8,56.7,1279.8,56.7,1279.8z M41.5,1275.5c0.1,0,0.1,0,0.2,0l14.9,3.9v-5.6
				l-11.7-3.1c0,0-0.1,0-0.1,0c0,0,0,0,0,0c-0.2,0-0.5,0.2-0.7,0.5l-2.8,4.2C41.4,1275.6,41.4,1275.5,41.5,1275.5z"/>
		</g>
		<g>
			<path class="st4" d="M35.5,1291c-1-0.1-1.5,1-1,1.8c0.7,1.1,1.3,2.3,2,3.4c0.2,0.5-0.4,1.3,0.1,0.5c1-1.6,2.1-3.1,3.1-4.7
				c0.3-0.4,0.2-1.2-0.4-1C38,1291,36.7,1291,35.5,1291z M41.5,1275.7c-0.8,0.1-1.3,1.3-1,2c1.4,3.9,2.7,7.8,4.1,11.7
				c0.1,0.5-0.1,0.9,0.2,0.3c1-1.5,2-3,3-4.5c0.3-0.7-0.2-1.3-0.4-2c-0.8-2.2-1.5-4.4-2.3-6.6C43.9,1276.3,42.7,1276,41.5,1275.7
				L41.5,1275.7z"/>
			<path d="M36.4,1297.1C36.4,1297.1,36.3,1297.1,36.4,1297.1c-0.1-0.1-0.2-0.1-0.1-0.2c0.1-0.3,0.1-0.5,0.1-0.7
				c-0.7-1.1-1.3-2.3-2-3.4c-0.3-0.4-0.3-1-0.1-1.4c0.3-0.4,0.7-0.6,1.2-0.6h3.7c0.2-0.1,0.4,0,0.6,0.2c0.2,0.3,0.2,0.8,0,1.1
				c-0.6,1-1.3,1.9-1.9,2.9c-0.4,0.6-0.8,1.2-1.2,1.8c-0.1,0.1-0.1,0.2-0.2,0.3C36.5,1297.1,36.5,1297.1,36.4,1297.1z M35.3,1291.1
				c-0.3,0-0.6,0.2-0.8,0.4c-0.2,0.4-0.2,0.8,0.1,1.1l0,0c0.7,1.1,1.3,2.3,2,3.4l0,0c0,0.1,0.1,0.1,0.1,0.2c0.3-0.5,0.7-1,1-1.5
				c0.6-0.9,1.3-1.9,1.9-2.9c0.1-0.2,0.2-0.6,0-0.8c0-0.1-0.1-0.1-0.3-0.1l0,0l-3.8,0C35.4,1291.1,35.4,1291.1,35.3,1291.1z
				 M44.6,1290.1C44.6,1290.1,44.6,1290.1,44.6,1290.1c-0.2,0-0.2-0.2-0.2-0.3c0-0.1,0-0.3,0-0.4l-4.1-11.7c-0.2-0.4-0.2-1,0.1-1.4
				c0.2-0.4,0.6-0.7,1-0.8l0,0l0,0c0.8,0.2,1.5,0.4,2.3,0.6c0.5,0.1,0.9,0.2,1.4,0.4l0.1,0l2.3,6.7c0,0.2,0.1,0.4,0.2,0.6
				c0.2,0.5,0.4,1,0.2,1.5l0,0c-0.6,0.9-1.2,1.9-1.9,2.8c-0.4,0.6-0.8,1.1-1.1,1.7C44.8,1290,44.7,1290.1,44.6,1290.1z M41.5,1275.8
				c-0.3,0.1-0.6,0.3-0.8,0.6c-0.2,0.4-0.2,0.8-0.1,1.2l0,0l4.1,11.7l0,0c0,0.1,0,0.1,0,0.2c0.4-0.6,0.7-1.1,1.1-1.6
				c0.6-0.9,1.2-1.9,1.8-2.8c0.2-0.4,0-0.8-0.2-1.3c-0.1-0.2-0.2-0.4-0.2-0.6l-2.3-6.5c-0.4-0.1-0.9-0.2-1.3-0.3
				C43,1276.2,42.2,1276,41.5,1275.8z"/>
		</g>
		<g>
			<path class="st3" d="M74.7,1286c0.7,0,1,0.3,1.1,0.6l3,4.6c-0.2-0.2-0.5-0.3-0.9-0.3h-3.8h-3.8c-0.6,0-1-0.2-1.3-0.5
				s-0.4-0.7-0.3-1.1l1.2-3.4h0.9H74.7L74.7,1286z M82.8,1292.7l3.3,5h-4.1h-4.1c-0.3,0-0.6-0.3-0.8-0.6c-0.2-0.3-0.3-0.7-0.2-0.9
				l1-1.7l1-1.7H82.8z M68.7,1270.7c0.3,0,0.6,0.2,0.8,0.6l3.2,4.9c-0.2-0.3-0.6-0.6-0.9-0.5l-7.5,2l-7.5,2v-5.8l4.3-1.1l7.5-2
				C68.6,1270.7,68.6,1270.7,68.7,1270.7L68.7,1270.7z"/>
			<path d="M86,1297.8h-8.2c-0.4,0-0.7-0.3-0.9-0.6c-0.2-0.3-0.3-0.8-0.2-1.1l2-3.5c0,0,0.1-0.1,0.1-0.1h3.8c0,0,0.1,0,0.1,0.1
				l3.3,5c0,0,0,0.1,0,0.1C86.1,1297.8,86.1,1297.8,86,1297.8z M79,1292.9l-2,3.4c-0.1,0.2,0,0.5,0.2,0.8c0.2,0.3,0.4,0.5,0.6,0.5
				h7.9l-3.1-4.7H79z M78.8,1291.4C78.8,1291.4,78.8,1291.4,78.8,1291.4c-0.3-0.2-0.5-0.3-0.9-0.3h-7.6c-0.6,0-1.1-0.2-1.4-0.6
				c-0.3-0.4-0.4-0.8-0.3-1.2l1.2-3.4c0-0.1,0.1-0.1,0.1-0.1l4.7,0c0.9,0,1.2,0.4,1.3,0.7l3,4.6C79,1291.2,79,1291.3,78.8,1291.4
				C78.9,1291.4,78.9,1291.4,78.8,1291.4z M70.1,1286.1l-1.1,3.3c-0.1,0.3,0,0.6,0.2,0.9c0.3,0.3,0.7,0.5,1.2,0.5h7.6
				c0.2,0,0.4,0,0.5,0.1l-2.7-4.2c0,0,0,0,0,0c-0.1-0.4-0.5-0.6-1-0.6l0,0L70.1,1286.1z M56.7,1279.8
				C56.7,1279.8,56.6,1279.8,56.7,1279.8c-0.1-0.1-0.1-0.1-0.1-0.1v-5.8c0-0.1,0-0.1,0.1-0.1l11.8-3.1c0.1,0,0.1,0,0.2,0h0
				c0,0,0,0,0,0c0.3,0,0.7,0.2,0.9,0.6l3.2,4.9c0,0.1,0,0.1,0,0.2c-0.1,0-0.1,0-0.2,0c-0.2-0.3-0.5-0.5-0.7-0.4L56.7,1279.8
				C56.7,1279.8,56.7,1279.8,56.7,1279.8z M56.8,1273.9v5.6l14.9-3.9c0.1,0,0.2,0,0.3,0l-2.8-4.2c-0.2-0.3-0.5-0.5-0.7-0.5
				c0,0,0,0,0,0l0,0c0,0-0.1,0-0.1,0L56.8,1273.9z"/>
		</g>
		<g>
			<path class="st4" d="M77.9,1291c1-0.1,1.5,1,1,1.8c-0.7,1.1-1.3,2.3-2,3.4c-0.2,0.5,0.4,1.3-0.1,0.5c-1-1.6-2.1-3.1-3.1-4.7
				c-0.3-0.4-0.2-1.2,0.4-1C75.4,1291,76.7,1291,77.9,1291z M71.9,1275.7c0.8,0.1,1.3,1.3,1,2c-1.4,3.9-2.7,7.8-4.1,11.7
				c-0.1,0.5,0.1,0.9-0.2,0.3c-1-1.5-2-3-3-4.5c-0.3-0.7,0.2-1.3,0.4-2c0.8-2.2,1.5-4.4,2.3-6.6C69.5,1276.3,70.7,1276,71.9,1275.7
				L71.9,1275.7z"/>
			<path d="M77,1297.1c-0.1,0-0.1-0.1-0.2-0.1c0-0.1-0.1-0.1-0.2-0.3c-0.4-0.6-0.8-1.2-1.2-1.8c-0.6-0.9-1.3-1.9-1.9-2.9
				c-0.2-0.3-0.2-0.8,0-1.1c0.1-0.2,0.3-0.2,0.6-0.2h3.7c0.5-0.1,0.9,0.1,1.2,0.6c0.3,0.5,0.2,1-0.1,1.4c-0.7,1.1-1.3,2.3-2,3.4
				c-0.1,0.2,0,0.4,0.1,0.7C77.2,1297,77.2,1297.1,77,1297.1C77.1,1297.1,77,1297.1,77,1297.1z M74,1291.1c-0.1,0-0.1,0-0.2,0.1
				c-0.1,0.2-0.1,0.6,0,0.7c0.6,1,1.3,2,1.9,2.9c0.3,0.5,0.7,1,1,1.5c0-0.1,0-0.2,0.1-0.2l0,0c0.7-1.1,1.3-2.3,2-3.4l0,0
				c0.2-0.3,0.3-0.8,0.1-1.1c-0.2-0.3-0.5-0.5-0.9-0.4l0,0h-3.8l0,0C74.1,1291.1,74,1291.1,74,1291.1z M68.8,1290.1
				c-0.1,0-0.1-0.1-0.3-0.4c-0.4-0.6-0.8-1.1-1.1-1.7c-0.6-0.9-1.2-1.9-1.9-2.8l0,0c-0.2-0.5,0-1,0.2-1.5c0.1-0.2,0.2-0.4,0.2-0.6
				l0,0l2.3-6.7l0.1,0c0.5-0.1,0.9-0.2,1.4-0.4c0.7-0.2,1.5-0.4,2.3-0.6l0,0l0,0c0.4,0.1,0.8,0.4,1,0.8c0.2,0.5,0.3,1,0.1,1.4
				l-4.1,11.7c0,0.2,0,0.3,0,0.4C68.9,1290,68.9,1290.1,68.8,1290.1C68.8,1290.1,68.8,1290.1,68.8,1290.1z M65.7,1285.1
				c0.6,0.9,1.2,1.9,1.8,2.8c0.4,0.6,0.7,1.1,1.1,1.7c0-0.1,0-0.1,0-0.2l0,0l4.1-11.7l0,0c0.2-0.3,0.1-0.8-0.1-1.2
				c-0.2-0.3-0.5-0.6-0.8-0.6c-0.7,0.2-1.5,0.4-2.2,0.6c-0.4,0.1-0.9,0.2-1.3,0.3l-2.3,6.5c-0.1,0.2-0.1,0.4-0.2,0.6
				C65.7,1284.3,65.6,1284.7,65.7,1285.1z"/>
		</g>
		<g>
			<path class="st3" d="M84.3,1233.7C84.3,1233.8,84.3,1233.8,84.3,1233.7C84.3,1233.8,84.3,1233.8,84.3,1233.7z"/>
		</g>
		<g>
			<path d="M27.3,1274.2c0.1,0,0.2,0,0.2,0.1c0,0,0,0,0,0l0.1,0.3v0.2c0,0,0,0-0.1,0.1s-0.1,0.1-0.3,0.1c-0.2,0-0.4-0.2-0.4-0.4
				c0-0.1,0-0.2,0.1-0.3C27.1,1274.3,27.2,1274.2,27.3,1274.2L27.3,1274.2z"/>
		</g>
		<g>
			<path d="M85.4,1274.2c0.1,0,0.2,0,0.2,0.1c0.1,0.1,0.1,0.2,0.1,0.3c0,0.2-0.1,0.4-0.4,0.4c-0.1,0-0.2,0-0.3-0.1s-0.1-0.1-0.1-0.1
				v-0.2l0.1-0.3c0,0,0,0,0,0C85.2,1274.2,85.3,1274.2,85.4,1274.2L85.4,1274.2z"/>
		</g>
		<g>
			<path d="M44.8,1264.8c-5.6,3.1-11.3,6.3-16.9,9.5c0-0.2-0.3-0.3-0.6-0.3c-0.3,0-0.7,0.3-0.7,0.7c0,0.4,0.3,0.7,0.7,0.7
				s0.7-0.3,0.7-0.5c0,0,14.9-7.4,17.5-8.5c1.5-0.6,4.3,0.8,3.8,3.9h14.1c-0.5-3.1,2.4-4.5,3.8-3.9c2.6,1.1,17.5,8.5,17.5,8.5
				c0,0.2,0.3,0.5,0.7,0.5c0.4,0,0.7-0.3,0.7-0.7c0-0.4-0.4-0.7-0.7-0.7c-0.3,0-0.6,0.2-0.6,0.3c-5.6-3.2-11.2-6.4-16.9-9.5
				c-2.9-1.6-6.7,1.6-6.7,4.3h-9.6C51.5,1266.4,47.7,1263.2,44.8,1264.8z"/>
			<path d="M85.4,1275.4c-0.4,0-0.7-0.3-0.8-0.5c-1.1-0.6-14.9-7.4-17.4-8.5c-0.7-0.3-1.7-0.1-2.5,0.5c-0.6,0.4-1.5,1.4-1.2,3.2
				l0,0.2H49.1l0-0.2c0.3-1.8-0.6-2.8-1.2-3.2c-0.8-0.6-1.8-0.8-2.5-0.5c-2.5,1.1-16.3,7.9-17.4,8.5c-0.1,0.3-0.4,0.5-0.8,0.5
				c-0.5,0-0.9-0.4-0.9-0.9c0-0.5,0.5-0.9,0.9-0.9c0.3,0,0.5,0.1,0.7,0.3c1.9-1.1,3.8-2.1,5.7-3.2c3.6-2,7.4-4.1,11-6.2l0.1,0.1
				l-0.1-0.1c1.2-0.7,2.7-0.6,4.2,0.3c1.6,0.9,2.7,2.6,2.8,4H61c0.1-1.5,1.1-3,2.7-4c1.4-0.9,3-1,4.3-0.3c3.8,2,7.6,4.2,11.2,6.3
				c1.8,1,3.7,2.1,5.5,3.1c0.1-0.2,0.4-0.3,0.7-0.3c0.4,0,0.9,0.4,0.9,0.9C86.2,1275.1,85.9,1275.4,85.4,1275.4z M66.5,1266
				c0.3,0,0.6,0.1,0.8,0.2c2.6,1.1,17.3,8.5,17.5,8.5l0.1,0v0.1c0,0.1,0.2,0.3,0.5,0.3c0.3,0,0.5-0.2,0.5-0.5c0-0.3-0.3-0.5-0.5-0.5
				c-0.3,0-0.4,0.1-0.5,0.2l0,0.2l-0.2-0.1c-1.9-1.1-3.8-2.1-5.7-3.2c-3.7-2.1-7.4-4.2-11.2-6.3c-1.2-0.6-2.6-0.5-3.9,0.3
				c-1.5,0.9-2.6,2.5-2.6,3.9v0.2h-9.9v-0.2c0-1.4-1.1-3-2.7-3.9c-1.3-0.8-2.7-0.9-3.9-0.3l0,0c-3.7,2-7.4,4.1-11,6.2
				c-2,1.1-3.9,2.2-5.9,3.3l-0.2,0.1l0-0.2c0-0.1-0.2-0.2-0.5-0.2c-0.2,0-0.5,0.3-0.5,0.5c0,0.3,0.2,0.5,0.5,0.5
				c0.3,0,0.5-0.2,0.5-0.3v-0.1l0.1,0c0.1-0.1,14.9-7.4,17.5-8.5c0.8-0.3,1.9-0.1,2.8,0.5c1,0.8,1.5,2,1.3,3.4h13.7
				c-0.2-1.4,0.3-2.6,1.3-3.4C65.1,1266.2,65.8,1266,66.5,1266z"/>
		</g>
		<g>
			<path class="st3" d="M44.8,1264.8c-5.6,3.1-11.3,6.3-16.9,9.5c0-0.2-0.3-0.3-0.6-0.3c-0.3,0-0.7,0.3-0.7,0.7
				c0,0.4,0.3,0.7,0.7,0.7s0.7-0.3,0.7-0.5c0,0,14.6-8,17.3-9.2c1.5-0.6,5.3,1.1,4.9,4.2h12.5c-0.5-3.1,3.3-4.8,4.8-4.2
				c2.6,1.1,17.3,9.2,17.3,9.2c0,0.2,0.3,0.5,0.7,0.5c0.4,0,0.7-0.3,0.7-0.7c0-0.4-0.4-0.7-0.7-0.7c-0.3,0-0.6,0.2-0.6,0.3
				c-5.6-3.2-11.2-6.4-16.9-9.5c-2.9-1.6-6.7,1.6-6.7,4.3h-9.6C51.5,1266.4,47.7,1263.2,44.8,1264.8z"/>
		</g>
		<g>
			<path class="st1" d="M33.2,1270.8l-1.2,1.2h-5.5l1.2-1.2H33.2z M33.2,1270.3l-1.2-1.2h-5.5l1.2,1.2H33.2z"/>
			<path d="M32.1,1272.1h-5.7l1.3-1.3h5.7L32.1,1272.1z M26.8,1271.9h5.3l1-1h-5.3L26.8,1271.9z M33.4,1270.4h-5.7l-1.3-1.3h5.7
				L33.4,1270.4z M27.8,1270.2h5.3l-1-1h-5.3L27.8,1270.2z"/>
		</g>
		<g>
			<rect x="27.6" y="1270.3" class="st3" width="53.1" height="0.5"/>
			<path d="M80.8,1270.9H27.5v-0.7h53.3V1270.9z M27.6,1270.7h52.9v-0.4H27.6V1270.7z"/>
		</g>
		<g>
			<path class="st3" d="M55,1266c0.2-1,1.6-0.1,2.4,0.4L55,1266z"/>
		</g>
		<g>
			<path class="st3" d="M55.6,1266.9l0.5-0.5l1.8,0.6L55.6,1266.9z"/>
		</g>
		<g>
			<path d="M26.1,1230.7c-0.1,0-0.1,0-0.2,0c-1.4,0.7,2.3,4.2,2.3,4.2c-0.4-0.1-1.1-0.6-1.3-0.1c-0.5,1.2,2.3,3.4,3.5,4.1
				c0,0-1.7-0.8-2-0.2c-0.5,0.9,3.2,3.3,3.2,3.3c-0.7,0-0.9,0.3-0.8,0.5c0.1,1.3,2.5,2.2,4,3.3c-1.8,0.7,1.8,2.8,2.8,3
				c-1.7,0.8,2.5,2.8,4.1,3.1c-1.5,1.2,4.7,3.7,9.3,3.2c0.1,0.3,0.3,0.5,0.3,0.8l-21,0.3c0,0.8,0,1.5,0.7,1.9l5.6-0.4l-5.4,0.6
				c-0.1,0.7,0.2,1.2,0.6,1.6l5.5-1l-5.3,1.2c0.1,0.6,0.2,1.2,0.8,1.4l3.9-1l-3.8,1.2c0.1,0.4,0,0.9,0.6,1.2l4.5-1.5l-4.3,1.7
				c0,0.4,0.2,0.9,0.7,1.2l4.1-1.7l-4,1.9c0.1,0.4,0.3,0.7,1,1l3.5-1.8l-3.5,2c0.2,0.5,0.3,1.1,1,1.3l9.5-6.2l1.7,0.7l0.7-0.9
				c-0.3,0.6-0.7,1.3-1,1.9l1.3,0.1l-0.4,0.2l-0.7,1.1c0,0,0.2,0.2,0.3,0.2c0.8-0.2,1.7-0.1,1.6-0.1c-0.9,0.5-1.1-0.3-1.4,1.2
				c0.6,0,1.1-0.1,1.6-0.1c0,0.4-0.1,0.7-0.4,1.1c0.5,0,1,0,1.6-0.1l-0.7,1.1l0.8-0.2c0.2,0.1,0.5,0.1,0.8,0.2
				c0.2,0.3,0.4,0.7,0.9,0.7l0.1,0.4c-0.5,0.1-0.7,0.2-0.7,0.5c0.2-0.1,0.7,0.6,0.7,1.1c0,0.4-0.5,0.9-0.6,0.8
				c0.1,0.1,0.3,0.4,0.4,0.4c0.1,0.4,0.6,0.8,1,0.8c0.3,0,0.8-0.3,0.7-0.6c0.3,0,0.6,0,0.9-0.3c0.7,0.3,1.3-0.3,1.4-0.8
				c0-1.1,0.4-2.2-1.1-2.1c-0.2-0.2-0.4-0.5-0.9-0.4l-1.1-2.7l1.2,0l-0.5,0.9l1.1,0.1l-0.4,0.7l1.2,0.4l0.5,0.7l0.3,0l0.2,0.5
				c-0.1,0.1-0.3,0-0.4,0.3c0.4-0.1,0.6,0.6,0.6,1.1c0,0.3-0.3,0.7-0.6,0.9c0,0.2,0.4,0.5,0.6,0.7c0.3,0.7,0.8,0.4,1.2,0.3
				c0.6-0.1,0.7-0.2,0.9-0.4c0.8,0.3,1.3,0.1,1.7-1.1c0.3-1-0.1-2.2-1.3-2l-1.1-0.2l-1.5-4c6.7,0.2,8.1-1.3,10.5-2.3
				c3.7-0.5,5.1-1.7,7.3-2.1c1.7-0.3,2.4,1.1,4,0.5c-0.4-0.4-1.2-0.8-1.6-1.2c0.4,0,1.4,0.2,1.4,0.2c-0.2-0.4-0.7-0.8-1.2-1.1
				c0.6-0.2,1.7-0.3,2.6-0.5c0.4-0.1,1.3,0.5,1.3,0.5c-0.4-0.8,0.4-2.1-2.3-2.1c-0.1-0.2-0.5-0.3-1.1-0.3c-0.5-0.2-1-0.7-1.5-0.7
				c-2.1-0.1-5.2,0.8-5.8-0.3l0.1,0.5l-0.9-0.5l0.6,1.1l-7.2,0c-0.3,0-1.6-1.1,1-2.4c2.3-1.1,3.7,0,4.5,0.4c2.4,1.3,5-0.4,7.1-2.5
				c0.3-0.2,1.3,0.1,1.4-0.4c0.1-0.4-0.3-0.3-0.5-0.9c2.1-3.2,4.5-5.8,6.7-8.6c0.2-0.2-0.1-0.7-0.5-0.6c0,0,4.7-8.6,2.9-10.1
				c-0.8-0.7-1.6,2.9-1.8,2.9c0-0.8,0.2-2.4-0.1-3c-0.5-0.8-1,1.3-2.3,3.9c0-1.1,0.1-2.4-0.5-2.5c-0.5,0-1.4,2.3-2.1,3.4
				c0,0,0.2-1.5-0.4-1.9c-0.5-0.4-2.6,4.1-2.8,4.2c0.2-0.8,0.2-1.8-0.1-2.1c-0.6-0.7-2.4,3.5-2.7,3.8c0,0,0.2-1.3-0.2-1.7
				c-0.6-0.5-1.6,2-2.9,3.5c0.1-0.4,0.2-1.4-0.2-1.5c-0.8-0.2-1.6,2.5-7.3,7.4c-0.2-0.4-2.3,2.1-3.5,3.1l0-1.3c2.1-2.1,2-4,1.1-5.3
				c-2-2.8-4.5-2.4-5.6-2.7c-0.2-0.3-1-1-1-0.6c0,0.2,0,0.5-0.1,0.7c-4.7-0.7-8.5-1.5-13.6-4.6c-0.5-0.3-0.6,0.7,0,1.4
				C28.8,1234,27.2,1230.7,26.1,1230.7z M53.1,1263.3h0.6l-0.4,0.6L53.1,1263.3z M53.3,1264.2h0.9l-0.5,0.9L53.3,1264.2z"/>
		</g>
		<g>
			<path class="st1" d="M81.7,1268.4l0.8,1.6h-1.9v1.1h1.9l-0.8,1.6l3.6-2.1L81.7,1268.4L81.7,1268.4z"/>
			<path d="M81.7,1272.7C81.7,1272.7,81.7,1272.7,81.7,1272.7C81.7,1272.7,81.7,1272.6,81.7,1272.7l0.7-1.6h-1.8c0,0-0.1,0-0.1-0.1
				v-1.1c0,0,0-0.1,0.1-0.1h1.8l-0.7-1.5c0,0,0-0.1,0-0.1s0.1,0,0.1,0l3.6,2.1c0,0,0,0,0,0.1s0,0,0,0.1L81.7,1272.7
				C81.8,1272.7,81.8,1272.7,81.7,1272.7z M80.7,1271h1.8c0,0,0,0,0.1,0c0,0,0,0,0,0.1l-0.7,1.4l3.3-1.9l-3.3-1.9l0.7,1.4
				c0,0,0,0,0,0.1s0,0-0.1,0h-1.8V1271z"/>
		</g>
		<g>
			<path class="st2" d="M45,1274.2v23.3c0,1.6,1.3,2.9,2.9,2.9h5.8c1.6,0,2.9,1.3,2.9,2.9c0-1.6,1.3-2.9,2.9-2.9h5.8
				c1.6,0,2.9-1.3,2.9-2.9v-23.3H45L45,1274.2z"/>
			<path d="M56.7,1303.2L56.7,1303.2c0-1.6-1.3-2.9-2.9-2.9h-5.8c-1.6,0-2.9-1.3-2.9-2.9v-23.3h23.3v23.3c0,1.6-1.3,2.9-2.9,2.9
				h-5.8C58,1300.3,56.7,1301.6,56.7,1303.2z M45,1274.2v23.2c0,1.6,1.3,2.9,2.9,2.9h5.8c1.5,0,2.8,1.2,2.9,2.6
				c0.1-1.5,1.4-2.6,2.9-2.6h5.8c1.6,0,2.9-1.3,2.9-2.9v-23.2H45z"/>
		</g>
		<g>
			<path class="st3" d="M46.5,1287.2l-1.5,2.5v7.7c0,1.6,1.3,2.9,2.9,2.9v-10.6L46.5,1287.2z"/>
		</g>
		<g>
			<path class="st5" d="M49.4,1287.2l-1.5,2.5v10.6h2.9v-10.6L49.4,1287.2z"/>
		</g>
		<g>
			<path class="st3" d="M52.3,1287.2l-1.5,2.5v10.6h2.9c0,0,0,0,0,0v-10.6L52.3,1287.2L52.3,1287.2z"/>
		</g>
		<g>
			<path class="st5" d="M55.2,1287.2l-1.5,2.5v10.6c1.6,0,2.9,1.3,2.9,2.9c0-0.1,0-0.1,0-0.1v-13.3L55.2,1287.2L55.2,1287.2z"/>
		</g>
		<g>
			<path class="st3" d="M58.1,1287.2l-1.5,2.5v13.3c0.1-1.5,1.3-2.8,2.9-2.8h0v-10.6L58.1,1287.2L58.1,1287.2z"/>
		</g>
		<g>
			<path class="st5" d="M61,1287.2l-1.5,2.5v10.6h2.9v-10.6L61,1287.2z"/>
		</g>
		<g>
			<path class="st3" d="M63.9,1287.2l-1.5,2.5v10.6h2.9c0,0,0,0,0,0v-10.6L63.9,1287.2L63.9,1287.2z"/>
		</g>
		<g>
			<path class="st5" d="M66.8,1287.2l-1.5,2.5v10.6c1.6,0,2.9-1.3,2.9-2.9v-7.7L66.8,1287.2z"/>
		</g>
		<g transform="matrix(.95963,0,0,.99901,1330.6097,1566.0274)">
			<g>
				<path class="st3" d="M-1323-288c-0.6,0-1.2,0.2-1.8,0.2l0,0.3c0.1,0.3,0.2,0.5,0.3,0.8c0.6,0,1.2,0.1,1.8-0.1
					c0.5-0.3,1-0.6,1.4-1C-1322-288-1322.5-288-1323-288z"/>
				<path d="M-1323.7-286.6c-0.2,0-0.4,0-0.5,0c-0.1,0-0.3,0-0.4,0c0,0,0,0,0,0c0-0.1-0.1-0.3-0.1-0.4c0-0.1-0.1-0.2-0.1-0.4
					c0,0,0,0,0,0l0-0.3c0,0,0,0,0,0c0.2,0,0.4-0.1,0.7-0.1c0.4-0.1,0.8-0.1,1.2-0.1l0,0c0.6,0,1.1,0.1,1.6,0.3c0,0,0,0,0,0
					c0,0,0,0,0,0c-0.4,0.4-0.9,0.7-1.4,1c0,0,0,0,0,0C-1323.1-286.6-1323.4-286.6-1323.7-286.6z M-1324.5-286.7c0.1,0,0.2,0,0.4,0
					c0.5,0,0.9,0,1.4-0.1c0.5-0.3,1-0.6,1.4-1c-0.5-0.2-1-0.3-1.5-0.2l0,0c-0.4,0-0.8,0.1-1.2,0.1c-0.2,0-0.4,0.1-0.6,0.1l0,0.3
					c0,0.1,0.1,0.2,0.1,0.3C-1324.6-287-1324.6-286.9-1324.5-286.7z M-1323-288L-1323-288L-1323-288z"/>
			</g>
			<g>
				<path d="M-1323.6-286.9c-0.4,0-0.8-0.1-1-0.3l0,0l0.1,0c0.3-0.1,0.5-0.1,0.7-0.1c0.2,0,0.3,0,0.6-0.1l0,0c0.1,0,0.3-0.1,0.4-0.1
					c0.3-0.1,0.6-0.2,0.8-0.1l0.1,0l-0.1,0c-0.2,0.2-0.4,0.4-0.7,0.6C-1323-286.9-1323.3-286.9-1323.6-286.9z M-1324.5-287.2
					c0.4,0.3,1.3,0.3,1.6,0.1c0.3-0.2,0.4-0.3,0.6-0.5c-0.2,0-0.4,0-0.6,0.1c-0.1,0-0.3,0.1-0.4,0.1l0,0c-0.2,0.1-0.4,0.1-0.6,0.1
					C-1324.1-287.3-1324.2-287.3-1324.5-287.2z M-1323.3-287.4L-1323.3-287.4L-1323.3-287.4z"/>
			</g>
			<g>
				<path class="st3" d="M-1329-289.3c-0.5,0-0.9,0.1-1.4,0.4l0.1,1.4c-0.2,0.5-0.4,1-0.4,1.4c0.2,0.7,0.5,1.3,1,1.7
					c-0.1,0.6,0.1,1.1,0.4,1.6c-0.2,0.1-0.2,0.3-0.3,0.4c0.1,0.4,0.3,0.7,0.7,1c-0.2,0.7,0.6,0.7,1.4,0.7c0.7,0,1.6,0,1.4-0.7
					c0.4-0.3,0.6-0.6,0.7-1c-0.1-0.2-0.1-0.3-0.3-0.4c0.3-0.5,0.5-1,0.4-1.6c0.5-0.4,0.8-1,1-1.7c0-0.5-0.3-1-0.4-1.4l0.1-1.4
					c-0.9-0.6-1.9-0.4-2.8-0.3C-1328-289.3-1328.5-289.3-1329-289.3z"/>
				<path d="M-1327.6-280.5c-0.6,0-1.2,0-1.4-0.3c-0.1-0.1-0.1-0.3,0-0.5c-0.3-0.2-0.5-0.6-0.7-1l0,0l0,0c0,0,0-0.1,0-0.1
					c0-0.1,0.1-0.2,0.2-0.3c-0.2-0.4-0.4-1-0.4-1.6c-0.4-0.4-0.8-0.9-1-1.7l0,0l0,0c0-0.4,0.2-0.7,0.3-1.1c0-0.1,0.1-0.2,0.1-0.3
					l-0.1-1.4l0,0c0.4-0.3,0.9-0.4,1.4-0.4l0,0c0.3,0,0.7,0,1,0.1c0.1,0,0.3,0,0.4,0c0.1,0,0.3,0,0.4,0c0.8-0.1,1.6-0.2,2.4,0.4l0,0
					l-0.1,1.4c0,0.1,0.1,0.2,0.1,0.3c0.1,0.4,0.3,0.7,0.3,1.1l0,0l0,0c-0.2,0.8-0.5,1.4-1,1.7c0.1,0.6-0.2,1.2-0.4,1.6
					c0.2,0.1,0.2,0.2,0.2,0.3c0,0,0,0.1,0,0.1l0,0l0,0c-0.1,0.4-0.4,0.8-0.7,1c0.1,0.2,0,0.3,0,0.5
					C-1326.4-280.5-1327-280.5-1327.6-280.5z M-1329.6-282.2c0.1,0.4,0.4,0.7,0.7,1l0,0l0,0c-0.1,0.2-0.1,0.3,0,0.4
					c0.2,0.3,0.8,0.3,1.3,0.3c0.5,0,1.1,0,1.3-0.3c0.1-0.1,0.1-0.2,0-0.4l0,0l0,0c0.3-0.2,0.5-0.5,0.7-1c0,0,0-0.1,0-0.1
					c0-0.1-0.1-0.2-0.2-0.3l0,0l0,0c0.2-0.4,0.5-1,0.4-1.6l0,0l0,0c0.4-0.4,0.7-0.9,1-1.7c0-0.4-0.2-0.7-0.3-1.1
					c0-0.1-0.1-0.2-0.1-0.4l0,0l0,0l0.1-1.4c-0.8-0.5-1.5-0.4-2.4-0.3c-0.1,0-0.3,0-0.4,0c-0.1,0-0.3,0-0.4,0c-0.3,0-0.7-0.1-1-0.1
					l0,0c-0.5,0-1,0.1-1.4,0.4l0.1,1.4l0,0c0,0.1-0.1,0.2-0.1,0.4c-0.1,0.3-0.3,0.7-0.3,1.1c0.2,0.8,0.5,1.3,1,1.7l0,0l0,0
					c-0.1,0.6,0.1,1.2,0.4,1.6l0,0l0,0C-1329.4-282.6-1329.5-282.4-1329.6-282.2C-1329.6-282.3-1329.6-282.3-1329.6-282.2z"/>
			</g>
		</g>
		<g transform="matrix(.95963,0,0,.99901,1330.6097,1566.0274)">
			<g>
				<path class="st6" d="M-1326.2-285.5c0,0,0.1-0.4,0.3-0.3c0.2,0.1,0.5,0,0.9-0.1C-1325.2-285.6-1326.1-285.3-1326.2-285.5z"/>
				<path d="M-1326-285.4c-0.1,0-0.2,0-0.3-0.1l0,0l0,0c0,0,0.1-0.3,0.2-0.3c0,0,0.1,0,0.1,0c0.2,0.1,0.5,0,0.9-0.1l0.1,0l0,0.1
					C-1325.1-285.6-1325.6-285.4-1326-285.4C-1326-285.4-1326-285.4-1326-285.4z M-1326.2-285.5c0,0,0.1,0.1,0.2,0
					c0.3,0,0.6-0.2,0.8-0.4c-0.3,0.1-0.6,0.1-0.8,0.1c0,0,0,0-0.1,0C-1326.1-285.8-1326.2-285.6-1326.2-285.5z"/>
			</g>
			<g>
				<path d="M-1325.5-285.8c-0.1,0-0.2,0-0.3,0c0,0,0,0.1,0,0.1c0,0.1,0.1,0.2,0.2,0.2c0,0,0,0,0,0c0,0,0,0,0,0c0,0,0,0,0,0
					c0,0,0.1,0,0.1,0c0,0,0,0,0,0c0,0,0.1-0.1,0.1-0.2C-1325.5-285.8-1325.5-285.8-1325.5-285.8L-1325.5-285.8z"/>
				<path d="M-1325.7-285.5L-1325.7-285.5c-0.1,0-0.3-0.1-0.3-0.3c0-0.1,0-0.1,0-0.1l0,0l0,0c0.1,0,0.2,0,0.3,0l0,0l0,0
					c0,0,0.1,0.1,0.1,0.2c0,0.1,0,0.1-0.1,0.2l0,0l0,0C-1325.6-285.5-1325.6-285.5-1325.7-285.5
					C-1325.7-285.5-1325.7-285.5-1325.7-285.5C-1325.7-285.5-1325.7-285.5-1325.7-285.5L-1325.7-285.5z M-1325.8-285.8
					C-1325.9-285.8-1325.9-285.7-1325.8-285.8c0,0.2,0.1,0.2,0.1,0.2c0,0,0,0,0,0l0,0c0,0,0.1,0,0.1,0l0,0c0,0,0.1-0.1,0.1-0.1
					c0,0,0-0.1,0-0.1C-1325.7-285.8-1325.8-285.8-1325.8-285.8z"/>
			</g>
			<g>
				<path class="st6" d="M-1325.7-285.8C-1325.7-285.8-1325.7-285.8-1325.7-285.8C-1325.7-285.7-1325.8-285.7-1325.7-285.8
					c-0.1,0.1-0.1,0.2,0,0.2S-1325.6-285.6-1325.7-285.8C-1325.6-285.7-1325.6-285.8-1325.7-285.8L-1325.7-285.8z"/>
			</g>
		</g>
		<g>
			<path d="M56.6,1285.8c-0.6,0-1.1,0-1.3-0.3c-0.1-0.1-0.1-0.3,0-0.5c-0.3-0.2-0.5-0.6-0.7-1c0,0,0,0,0,0c0,0,0-0.1,0-0.1
				c0-0.1,0.1-0.3,0.3-0.3c0,0,0-0.1,0-0.1c0.1-0.2,0.1-0.4,0.4-0.5c0-0.1,0-0.2,0-0.2c0-0.4,0-0.8,0.3-1c-0.3-1-0.4-1.7-0.1-2.1
				c0,0,0,0,0,0c0,0,0,0,0,0c0,0,0.1,0.1,0.1,0.1c0.3,0.3,0.6,0.5,1,0.5c0.4,0,0.7-0.3,1-0.5c0,0,0.1-0.1,0.1-0.1c0,0,0,0,0,0
				c0,0,0,0,0,0c0.2,0.3,0.2,1-0.1,2.1c0.3,0.2,0.3,0.6,0.3,1c0,0.1,0,0.2,0,0.3c0,0,0.1,0,0.1,0.1c0.1,0.1,0.3,0.2,0.3,0.5
				c0.2,0.1,0.2,0.2,0.3,0.3c0,0,0,0.1,0,0.1c0,0,0,0,0,0c-0.1,0.4-0.4,0.8-0.7,1c0.1,0.2,0,0.3,0,0.5
				C57.8,1285.8,57.2,1285.8,56.6,1285.8z M54.7,1284.1c0.1,0.4,0.3,0.7,0.7,1c0,0,0,0,0,0.1c-0.1,0.2-0.1,0.3,0,0.4
				c0.2,0.3,0.7,0.3,1.3,0.3s1.1,0,1.3-0.3c0.1-0.1,0.1-0.2,0-0.4c0,0,0,0,0-0.1c0.3-0.2,0.5-0.5,0.7-1c0,0,0-0.1,0-0.1
				c0-0.1-0.1-0.2-0.2-0.3c0,0,0,0,0,0c0-0.2-0.2-0.3-0.3-0.4c0,0-0.1-0.1-0.1-0.1c0,0,0,0,0,0c0-0.1,0-0.2,0-0.3c0-0.4,0-0.8-0.3-1
				c0,0,0,0,0,0c0.4-1.2,0.3-1.7,0.2-2c0,0-0.1,0.1-0.1,0.1c-0.3,0.3-0.6,0.5-1,0.5c-0.4,0-0.7-0.3-1-0.5c0,0-0.1-0.1-0.1-0.1
				c-0.1,0.2-0.2,0.8,0.2,2c0,0,0,0,0,0c-0.3,0.2-0.3,0.6-0.3,1c0,0.1,0,0.2,0,0.3c0,0,0,0,0,0c-0.2,0-0.3,0.2-0.3,0.4
				c0,0,0,0.1,0,0.1c0,0,0,0,0,0C54.8,1283.7,54.8,1283.9,54.7,1284.1C54.7,1284,54.7,1284,54.7,1284.1z"/>
		</g>
		<g>
			<path d="M55.8,1283.2C55.7,1283.2,55.7,1283.2,55.8,1283.2C55.7,1283.2,55.7,1283.1,55.8,1283.2c0-0.1,0.3-0.2,0.9-0.2
				c0.5,0,0.9,0.1,0.9,0.2c0,0,0,0,0,0.1c0,0,0,0-0.1,0c0,0-0.4-0.1-0.9-0.1C56.1,1283.1,55.8,1283.2,55.8,1283.2
				C55.8,1283.2,55.8,1283.2,55.8,1283.2z"/>
		</g>
		<g>
			<path d="M57.9,1283.7c0.4,0.6,0,0.9-0.6,0.9C57.4,1284.3,57.8,1284.2,57.9,1283.7z"/>
		</g>
		<g>
			<path d="M55.4,1283.7c-0.4,0.6,0,0.9,0.6,0.9C55.9,1284.3,55.5,1284.2,55.4,1283.7z"/>
		</g>
		<g>
			<path d="M57.6,1285.2c0,0-0.1,0-0.1,0c-0.1-0.1-0.5-0.2-0.7-0.2c-0.3,0-0.8,0.1-0.9,0.2c-0.2,0.1-0.5-0.1-0.5-0.1c0,0,0,0,0,0
				c-0.3-0.2-0.5-0.6-0.7-1c0,0,0,0,0,0c0,0,0-0.1,0-0.1c0-0.1,0.1-0.3,0.3-0.3c0,0,0-0.1,0-0.1c0.1-0.2,0.1-0.4,0.4-0.5
				c0-0.1,0-0.2,0-0.2c0-0.4,0-0.8,0.3-1c-0.3-1-0.4-1.7-0.1-2.1c0,0,0,0,0,0c0,0,0,0,0,0c0,0,0.1,0.1,0.1,0.1
				c0.3,0.3,0.6,0.5,1,0.5c0.4,0,0.7-0.3,1-0.5c0,0,0.1-0.1,0.1-0.1c0,0,0,0,0,0c0,0,0,0,0,0c0.2,0.3,0.2,1-0.1,2.1
				c0.3,0.2,0.3,0.6,0.3,1c0,0.1,0,0.2,0,0.2c0,0,0.1,0,0.1,0.1c0.1,0.1,0.3,0.2,0.3,0.5c0.2,0.1,0.2,0.2,0.3,0.3c0,0,0,0.1,0,0.1
				c0,0,0,0,0,0c-0.1,0.5-0.4,0.8-0.7,1c0,0,0,0,0,0C58,1285.1,57.8,1285.2,57.6,1285.2z M56.7,1284.9
				C56.7,1284.9,56.8,1284.9,56.7,1284.9c0.3,0,0.7,0.1,0.8,0.2c0.1,0,0.3,0,0.4-0.1c0.3-0.2,0.5-0.5,0.6-1c0,0,0-0.1,0-0.1
				c0-0.1-0.1-0.2-0.2-0.3c0,0,0,0,0,0c0-0.2-0.2-0.3-0.3-0.4c0,0-0.1-0.1-0.1-0.1c0,0,0,0,0,0c0-0.1,0-0.2,0-0.3c0-0.4,0-0.8-0.3-1
				c0,0,0,0,0,0c0.4-1.2,0.3-1.7,0.2-2c0,0-0.1,0.1-0.1,0.1c-0.3,0.3-0.6,0.5-1.1,0.5c-0.4,0-0.7-0.3-1-0.5c0,0-0.1-0.1-0.1-0.1
				c-0.1,0.2-0.2,0.8,0.2,2c0,0,0,0,0,0c-0.3,0.2-0.3,0.6-0.3,1c0,0.1,0,0.2,0,0.3c0,0,0,0,0,0c-0.2,0-0.3,0.2-0.3,0.4
				c0,0,0,0.1,0,0.1c0,0,0,0,0,0c-0.1,0.1-0.2,0.2-0.2,0.3c0,0,0,0.1,0,0.1c0.1,0.4,0.3,0.7,0.6,1c0.1,0,0.3,0.1,0.5,0.1
				C56,1285,56.4,1284.9,56.7,1284.9z"/>
		</g>
		<g transform="matrix(-.95963,0,0,.99901,-589.32691,1566.0274)">
			<g>
				<path class="st6" d="M-671.8-285.5c0,0,0.1-0.4,0.3-0.3c0.2,0.1,0.5,0,0.9-0.1C-670.8-285.6-671.7-285.3-671.8-285.5z"/>
				<path d="M-671.6-285.4C-671.6-285.4-671.6-285.4-671.6-285.4c0.4,0,0.9-0.2,1-0.5l0-0.1l-0.1,0c-0.3,0.1-0.7,0.1-0.9,0.1
					c0,0-0.1,0-0.1,0c-0.1,0.1-0.2,0.3-0.2,0.3l0,0l0,0C-671.8-285.4-671.7-285.4-671.6-285.4z M-670.8-285.9
					c-0.1,0.2-0.5,0.3-0.8,0.4c-0.1,0-0.2,0-0.2,0c0-0.1,0.1-0.2,0.1-0.3c0,0,0,0,0.1,0C-671.4-285.8-671.1-285.8-670.8-285.9z"/>
			</g>
			<g>
				<path d="M-671.1-285.8c-0.1,0-0.2,0-0.3,0c0,0,0,0.1,0,0.1c0,0.1,0.1,0.2,0.2,0.2c0,0,0,0,0,0c0,0,0,0,0,0c0,0,0,0,0,0
					c0,0,0.1,0,0.1,0c0,0,0,0,0,0c0,0,0.1-0.1,0.1-0.2C-671.1-285.8-671.1-285.8-671.1-285.8L-671.1-285.8z"/>
				<path d="M-671.3-285.5L-671.3-285.5C-671.3-285.5-671.3-285.5-671.3-285.5C-671.3-285.5-671.2-285.5-671.3-285.5
					c0.1,0,0.1,0,0.1,0l0,0l0,0c0.1-0.1,0.1-0.1,0.1-0.2c0-0.1,0-0.1-0.1-0.2l0,0l0,0c-0.1,0-0.2,0-0.3,0l0,0l0,0c0,0,0,0.1,0,0.1
					C-671.5-285.6-671.4-285.5-671.3-285.5L-671.3-285.5z M-671.2-285.6C-671.2-285.6-671.2-285.6-671.2-285.6L-671.2-285.6
					c-0.1,0-0.1,0-0.1,0l0,0c-0.1,0-0.2-0.1-0.2-0.2c0,0,0,0,0-0.1c0.1,0,0.2,0,0.3,0c0,0,0,0.1,0,0.1
					C-671.1-285.7-671.1-285.6-671.2-285.6L-671.2-285.6z"/>
			</g>
			<g>
				<path class="st6" d="M-671.2-285.8C-671.3-285.8-671.3-285.8-671.2-285.8C-671.3-285.7-671.3-285.7-671.2-285.8
					c-0.1,0.1-0.1,0.2,0,0.2C-671.3-285.6-671.2-285.6-671.2-285.8C-671.2-285.7-671.2-285.8-671.2-285.8L-671.2-285.8z"/>
			</g>
		</g>
		<g>
			<path class="st3" d="M59.4,1277.4c1.2-0.2,2.4-0.2,3.6-2.6c-0.3,1.6-0.2,3.3-3.7,3.7L59.4,1277.4z"/>
			<path d="M59.3,1278.6C59.3,1278.6,59.2,1278.6,59.3,1278.6C59.2,1278.5,59.2,1278.5,59.3,1278.6l0-1.2c0,0,0,0,0,0
				c0.1,0,0.2,0,0.4-0.1c1.1-0.2,2.1-0.3,3.2-2.5c0,0,0,0,0.1,0c0,0,0,0,0,0c0,0.1,0,0.3-0.1,0.4
				C62.7,1276.8,62.5,1278.2,59.3,1278.6C59.3,1278.6,59.3,1278.6,59.3,1278.6z M59.4,1277.5l-0.1,1c3.1-0.4,3.3-1.7,3.5-3.2
				c0,0,0-0.1,0-0.1c-1,1.9-2.1,2.1-3.1,2.3C59.6,1277.4,59.5,1277.4,59.4,1277.5z"/>
		</g>
		<g>
			<path class="st3" d="M53.9,1277.4c-1.2-0.2-2.4-0.2-3.6-2.6c0.3,1.6,0.2,3.3,3.7,3.7L53.9,1277.4z"/>
			<path d="M54,1278.6C54,1278.6,54,1278.6,54,1278.6c-3.3-0.4-3.5-1.8-3.7-3.3c0-0.1,0-0.3-0.1-0.4c0,0,0,0,0,0c0,0,0,0,0.1,0
				c1.1,2.1,2.1,2.3,3.2,2.5c0.1,0,0.2,0,0.4,0.1c0,0,0,0,0,0L54,1278.6C54.1,1278.5,54.1,1278.5,54,1278.6
				C54,1278.6,54,1278.6,54,1278.6z M50.4,1275.1c0,0,0,0.1,0,0.1c0.2,1.5,0.4,2.8,3.5,3.2l-0.1-1c-0.1,0-0.2,0-0.3-0.1
				C52.5,1277.2,51.5,1277.1,50.4,1275.1z"/>
		</g>
		<g>
			<path class="st3" d="M55.3,1277c-0.5,0-0.9,0.1-1.3,0.4l0.1,1.4l1,0.9c0,0.2,0.1,0.3,0.2,0.4c0.1-0.2,0.2-0.3,0.3-0.4
				c0,0.2-0.1,0.4,0.2,0.8c0-0.2,0.1-0.4,0.2-0.5c0,0.2,0,0.4,0.2,0.5c0.1-0.2,0.1-0.3,0.2-0.3c0.1,0,0.2,0.2,0.3,0.3
				c0.1-0.1,0.2-0.3,0.3-0.3c0.1,0,0.1,0.1,0.2,0.3c0.2-0.1,0.2-0.3,0.2-0.5c0.1,0.1,0.2,0.2,0.2,0.5c0.2-0.4,0.1-0.6,0.2-0.8
				c0.1,0.1,0.2,0.2,0.3,0.4c0.1-0.1,0.1-0.3,0.2-0.4l1-0.9l0.1-1.4c-0.9-0.6-1.8-0.4-2.7-0.3C56.2,1277.1,55.7,1277,55.3,1277
				L55.3,1277z"/>
			<path d="M56.6,1280.7C56.6,1280.7,56.6,1280.7,56.6,1280.7C56.6,1280.7,56.6,1280.7,56.6,1280.7c-0.2-0.2-0.2-0.3-0.3-0.3
				c0,0-0.1,0.1-0.2,0.2c0,0,0,0-0.1,0c-0.2-0.1-0.2-0.3-0.2-0.4c0,0,0,0,0,0c-0.1,0.1-0.1,0.2-0.2,0.4c0,0,0,0,0,0c0,0,0,0,0,0
				c-0.2-0.3-0.2-0.5-0.2-0.6c0,0,0-0.1,0-0.1c-0.1,0.1-0.2,0.2-0.2,0.3c0,0,0,0,0,0c0,0,0,0,0,0l0,0c-0.1-0.1-0.1-0.3-0.2-0.4
				l-1-0.9c0,0,0,0,0,0l-0.1-1.4c0,0,0,0,0,0c0.4-0.3,0.8-0.4,1.4-0.4l0,0c0.3,0,0.7,0,1,0.1c0.1,0,0.3,0,0.4,0c0.1,0,0.3,0,0.4,0
				c0.8-0.1,1.6-0.2,2.3,0.4c0,0,0,0,0,0l-0.1,1.4c0,0,0,0,0,0l-1,0.9c0,0.1-0.1,0.3-0.2,0.4l0,0c0,0,0,0,0,0c0,0,0,0,0,0
				c0-0.2-0.1-0.2-0.2-0.3c0,0,0,0.1,0,0.1c0,0.2,0,0.4-0.2,0.6c0,0,0,0,0,0c0,0,0,0,0,0c0-0.2-0.1-0.3-0.2-0.4c0,0,0,0,0,0
				c0,0.2,0,0.3-0.2,0.4c0,0,0,0-0.1,0c-0.1-0.2-0.1-0.2-0.2-0.2C56.9,1280.5,56.8,1280.6,56.6,1280.7
				C56.7,1280.7,56.7,1280.7,56.6,1280.7C56.7,1280.7,56.7,1280.7,56.6,1280.7z M56.3,1280.3C56.3,1280.3,56.3,1280.3,56.3,1280.3
				c0.1,0,0.2,0.2,0.3,0.3c0,0,0,0,0,0c0,0,0,0,0,0c0.1-0.1,0.2-0.3,0.3-0.3c0,0,0,0,0,0c0.1,0,0.2,0.1,0.2,0.2
				c0.1-0.1,0.1-0.2,0.1-0.3c0,0,0-0.1,0-0.1c0,0,0,0,0,0c0,0,0,0,0,0c0.1,0.1,0.2,0.2,0.2,0.4c0.1-0.2,0.1-0.3,0.1-0.5
				c0-0.1,0-0.1,0-0.2c0,0,0,0,0,0c0,0,0,0,0,0c0.1,0.1,0.2,0.2,0.3,0.3c0.1-0.1,0.1-0.2,0.1-0.3c0,0,0,0,0,0l1-0.9l0.1-1.4
				c-0.7-0.5-1.5-0.4-2.3-0.3c-0.1,0-0.3,0-0.4,0c-0.1,0-0.3,0-0.4,0c-0.3,0-0.6-0.1-1-0.1l0,0c-0.5,0-0.9,0.1-1.3,0.4l0.1,1.4
				l1,0.9c0,0,0,0,0,0c0,0.1,0.1,0.2,0.1,0.3c0.1-0.2,0.2-0.2,0.3-0.3c0,0,0,0,0,0c0,0,0,0,0,0c0,0.1,0,0.1,0,0.2
				c0,0.1,0,0.3,0.1,0.5c0-0.2,0.1-0.3,0.2-0.4c0,0,0,0,0,0c0,0,0,0,0,0c0,0,0,0.1,0,0.1c0,0.1,0,0.3,0.1,0.3
				C56.2,1280.4,56.2,1280.3,56.3,1280.3C56.3,1280.3,56.3,1280.3,56.3,1280.3z M55.3,1277L55.3,1277L55.3,1277z"/>
		</g>
		<g transform="matrix(-.95963,0,0,.99901,-589.32499,1566.0236)">
			<g>
				<path class="st3" d="M-668.6-288c-0.6,0-1.2,0.2-1.8,0.2l0,0.3c0.1,0.3,0.2,0.5,0.3,0.8c0.6,0,1.2,0.1,1.8-0.1
					c0.5-0.3,1-0.6,1.4-1C-667.6-288-668.1-288-668.6-288z"/>
				<path d="M-669.3-286.6c0.3,0,0.6,0,0.9-0.1c0,0,0,0,0,0c0.5-0.3,1-0.6,1.4-1c0,0,0,0,0,0s0,0,0,0c-0.5-0.2-1-0.3-1.6-0.3
					c-0.4,0-0.8,0.1-1.2,0.1c-0.2,0-0.4,0.1-0.7,0.1c0,0,0,0,0,0l0,0.3c0,0,0,0,0,0c0,0.1,0.1,0.2,0.1,0.4c0.1,0.1,0.1,0.3,0.1,0.4
					c0,0,0,0,0,0c0.1,0,0.3,0,0.4,0C-669.6-286.6-669.4-286.6-669.3-286.6z M-668.4-286.8c-0.4,0.1-0.9,0.1-1.4,0.1
					c-0.1,0-0.2,0-0.4,0c0-0.1-0.1-0.3-0.1-0.4c0-0.1-0.1-0.2-0.1-0.3l0-0.3c0.2,0,0.4-0.1,0.6-0.1c0.4-0.1,0.8-0.1,1.2-0.1l0,0
					c0.5,0,1,0.1,1.5,0.2C-667.5-287.4-667.9-287-668.4-286.8z"/>
			</g>
			<g>
				<path d="M-669.2-286.9c0.3,0,0.6-0.1,0.8-0.2c0.3-0.2,0.5-0.4,0.7-0.6l0.1,0l-0.1,0c-0.2-0.1-0.5,0-0.8,0.1
					c-0.1,0-0.3,0.1-0.4,0.1c-0.2,0.1-0.4,0.1-0.6,0.1c-0.2,0-0.4,0-0.7,0.1l-0.1,0l0,0C-670-287-669.6-286.9-669.2-286.9z
					 M-667.8-287.6c-0.2,0.2-0.4,0.3-0.6,0.5c-0.3,0.2-1.2,0.3-1.6-0.1c0.2-0.1,0.4-0.1,0.6-0.1c0.2,0,0.3,0,0.6-0.1l0,0
					c0.1,0,0.3-0.1,0.4-0.1C-668.2-287.6-668-287.7-667.8-287.6z"/>
			</g>
		</g>
		<g>
			<path class="st6" d="M55.8,1285.1c0.6,1.2,1.2,1.1,1.7,0C56.9,1284.9,56.4,1285,55.8,1285.1z"/>
			<path d="M56.7,1286c-0.3,0-0.6-0.3-0.9-0.9l0,0l0,0c0.7-0.2,1.2-0.2,1.7,0l0,0l0,0C57.3,1285.8,57,1286,56.7,1286
				C56.7,1286,56.7,1286,56.7,1286z M55.9,1285.2c0.3,0.5,0.6,0.8,0.8,0.8c0,0,0,0,0,0c0.3,0,0.5-0.3,0.8-0.8
				C57,1285,56.5,1285,55.9,1285.2z"/>
		</g>
		<g>
			<path class="st3" d="M56.7,1285v0.4"/>
			<path d="M56.7,1285.4C56.6,1285.4,56.6,1285.4,56.7,1285.4l0-0.4c0,0,0,0,0,0c0,0,0,0,0,0L56.7,1285.4
				C56.7,1285.4,56.7,1285.4,56.7,1285.4z"/>
		</g>
		<g>
			<path d="M56.6,1279.5c-0.9,0-1.6-0.7-1.6-1.6c0-0.2,0-0.4,0.1-0.6c0,0,0,0,0.1,0c0,0,0,0,0,0.1c-0.1,0.2-0.1,0.3-0.1,0.5
				C55.2,1278.8,55.8,1279.4,56.6,1279.5c0.8-0.1,1.5-0.7,1.5-1.6c0-0.2,0-0.4-0.1-0.5c0,0,0,0,0-0.1c0,0,0,0,0.1,0
				c0.1,0.2,0.1,0.4,0.1,0.6C58.2,1278.8,57.5,1279.5,56.6,1279.5z"/>
		</g>
		<g>
			<path d="M56.8,1303.2h-0.3c0-1.5-1.2-2.8-2.8-2.8h-5.8c-1.7,0-3.1-1.4-3.1-3.1V1274h23.6v23.4c0,1.7-1.4,3.1-3.1,3.1h-5.8
				C58,1300.5,56.8,1301.7,56.8,1303.2z M45.2,1274.3v23.1c0,1.5,1.2,2.8,2.8,2.8h5.8c1.4,0,2.5,0.9,2.9,2.1
				c0.4-1.2,1.6-2.1,2.9-2.1h5.8c1.5,0,2.8-1.2,2.8-2.8v-23.1H45.2z"/>
		</g>
		<g>
			<path class="st3" d="M66.3,1245.9c-2.5,2.4-3.6,5.1-3.7,5.8c0.9-1.3,1.6-2.8,2.6-3.9c-0.2,0.7-1.1,1.9-1.4,2.5
				c0.4-0.2,1.1-1.5,1.4-1.9c-0.2,0.6-0.5,1.2-0.7,1.8c1.1-1.5,2.1-3.3,3.1-4.4c0.1-0.2,0.6-0.7,0.1-0.8
				C67.3,1245,66.6,1245.5,66.3,1245.9z"/>
		</g>
		<g>
			<path class="st3" d="M76.4,1242.1c-0.6,0.1-1,0.5-1.4,0.8c-1.5,1.2-2.8,2.7-3.9,4.2c-0.3,0.5-0.8,1-1,1.6
				c0.1,0.1,0.2-0.1,0.2-0.1c0.7-0.8,1.3-1.6,2-2.3c-0.3,0.5-0.6,1-0.8,1.5c0.1,0.1,0.2-0.1,0.2-0.2c0.7-0.9,1.4-1.7,2.1-2.6
				c-0.6,0.8-1.1,1.6-1.5,2.5c0.1,0.1,0.1-0.1,0.2-0.2c0.6-0.8,1.1-1.6,1.6-2.4c-0.5,0.8-1,1.7-1.4,2.6c0,0.1,0.1-0.1,0.2-0.1
				c0.6-0.9,1.1-1.8,1.8-2.6c-0.6,0.9-1.1,1.8-1.5,2.8c0.1,0.1,0.1-0.2,0.2-0.2c1.1-1.5,2.3-2.9,3.4-4.4c0.1-0.2,0.2-0.5,0-0.7
				C76.7,1242.1,76.6,1242.1,76.4,1242.1z"/>
		</g>
		<g>
			<path class="st3" d="M79.7,1241.8c-0.7,0.1-1.2,0.6-1.7,0.9c-1.7,1.4-3.2,3-4.6,4.8c-0.5,0.7-1,1.3-1.2,2.1
				c0,0.1,0.1-0.1,0.2-0.1c0.4-0.6,0.8-1.1,1.3-1.7c-0.1,0.3-0.3,0.5-0.4,0.8c0.1,0.1,0.1-0.2,0.2-0.2c0.6-0.8,1.3-1.7,2-2.4
				c-0.5,0.7-1.1,1.4-1.6,2.1c0,0.1,0.2-0.1,0.2-0.2c1-1.1,2-2.3,3-3.4c-0.7,1-1.5,1.9-2.1,3c0,0.1,0.1-0.1,0.2-0.1
				c0.8-0.9,1.6-1.9,2.4-2.9c-0.7,1.1-1.3,2.1-2,3.2c0,0.1,0.2-0.1,0.2-0.1c0.7-0.8,1.2-1.7,1.8-2.6c0.1-0.1,0.4-0.5,0.2-0.2
				c-0.5,0.8-1,1.6-1.4,2.4c0.1,0.1,0.2-0.1,0.2-0.2c1.1-1.4,2.4-2.8,3.4-4.3c0.1-0.3,0.4-0.6,0.2-0.9
				C80,1241.8,79.8,1241.8,79.7,1241.8L79.7,1241.8z"/>
		</g>
		<g>
			<path class="st3" d="M83.4,1241.4c-1.3,0.2-2.3,1.2-3.2,2c-1.4,1.3-2.8,2.6-3.9,4.2c-0.3,0.5-0.7,0.9-0.8,1.4
				c0.1,0.1,0.2-0.1,0.3-0.2c0.5-0.6,1.1-1.2,1.6-1.8c-0.1,0.3-0.4,0.6-0.5,0.9c0.1,0,0.2-0.2,0.2-0.2c0.3-0.5,0.7-1,1.1-1.4
				c-0.2,0.4-0.5,0.7-0.8,1.1c1.5-1.5,3-3.2,4.3-4.5c-1.1,1.2-3.3,3.5-4.2,4.7c-0.1,0.1-0.3,0.3-0.2,0.5c0.5-0.4,1-0.9,1.5-1.3
				c-0.1,0.2-0.2,0.4-0.3,0.5c1.8-1.6,3.7-3.8,5-5.5C83.5,1241.7,83.7,1241.4,83.4,1241.4L83.4,1241.4z"/>
		</g>
		<g>
			<path class="st3" d="M73.3,1242.9c-0.8,0.1-1.3,0.7-1.8,1.2c-1.3,1.3-2.4,2.7-3.3,4.3c-0.2,0.4-0.4,0.7-0.5,1.1
				c0.1,0,0.2-0.2,0.3-0.2c1-1.3,1.9-2.7,3-4c-0.7,0.9-1.3,1.9-1.8,2.9c0,0.1,0.1-0.1,0.2-0.1c0.4-0.5,0.7-1.1,1.1-1.7
				c-0.3,0.6-0.6,1.2-0.8,1.8c0.1,0.1,0.1-0.1,0.2-0.1c0.5-0.9,1.1-1.7,1.7-2.5c-0.5,0.9-1.1,1.8-1.5,2.7c0.1,0.1,0.1-0.1,0.2-0.2
				c0.9-1.5,2-2.8,3-4.3c0.1-0.2,0.4-0.5,0.3-0.8C73.5,1242.9,73.4,1242.9,73.3,1242.9L73.3,1242.9z"/>
		</g>
		<g>
			<path class="st3" d="M70.5,1243.6c-0.6,0.1-1.1,0.6-1.6,1c-1.4,1.3-2.5,2.9-3.5,4.5c-0.2,0.4-0.4,0.7-0.6,1.1
				c0.1,0.1,0.1-0.1,0.2-0.2c1-1.4,2-2.8,3.2-4.1c-0.7,0.9-1.4,1.9-2,2.9c0.4-0.5,1-1.4,1.3-1.8c-0.3,0.5-0.6,1.1-0.8,1.6
				c0.7-0.7,1.3-1.8,2-2.5c-0.6,0.9-1.1,1.8-1.4,2.8c0.9-1.5,2.2-3.4,3.1-4.6c0.1-0.2,0.3-0.5,0.2-0.7
				C70.7,1243.6,70.6,1243.6,70.5,1243.6L70.5,1243.6z"/>
		</g>
		<g>
			<path class="st3" d="M63.7,1247.5c-1.2,1.3-2.3,2.7-3.1,4.3c0,0.1,0.1,0.1,0.1,0c0.9-1.2,1.8-2.4,2.8-3.5c-0.7,1-1.5,2-2.1,3
				c0,0-0.1,0.2,0,0.1c0.4-0.4,0.7-0.8,1-1.2c-0.1,0.3-0.2,0.6-0.2,0.9c0.1,0,0.2-0.3,0.3-0.4c0.7-1.3,1.6-2.5,2.6-3.7
				c0.2-0.2,0.6-0.8,0.2-0.9C65,1246.2,64.2,1247,63.7,1247.5L63.7,1247.5z"/>
		</g>
		<g>
			<path class="st3" d="M62.5,1247.7c-0.9,0.5-2.1,1.8-2.5,2.6c0.4-0.3,0.8-0.7,1-0.9c-0.4,0.6-1,1.1-1.3,1.8c0,0,1.1-1.1,1.2-1.2
				c-0.3,0.5-0.7,0.9-0.9,1.4c1-0.7,2.3-2.4,2.7-3.3C62.7,1248,62.8,1247.7,62.5,1247.7L62.5,1247.7z"/>
		</g>
		<g>
			<path class="st3" d="M70,1240.2c-0.4,0.1-0.5,0.6-0.8,0.8c-0.9,1.2-1.8,2.3-2.9,3.3c-0.5,0.5-1,0.9-1.5,1.4c0,0.1,0.2,0,0.2,0
				c0.2-0.1,0.4-0.3,0.6-0.4c-0.1,0-0.1,0.2,0,0.1c0.6-0.4,1.1-0.9,1.5-1.5c0.2-0.2,0.4-0.5,0.6-0.7c-0.3,0.4-0.6,0.9-0.9,1.3
				c0,0.1,0.2-0.1,0.2-0.1c0.7-0.8,1.4-1.7,2.1-2.6c-0.5,0.7-1,1.4-1.5,2c-0.2,0.3-0.4,0.5-0.6,0.8c0.1,0.1,0.2-0.2,0.2-0.2
				c0.3-0.4,0.7-0.8,1-1.1c-0.1,0.2-0.3,0.4-0.3,0.6c0.1,0,0.2-0.2,0.3-0.2c0.2-0.2,0.4-0.4,0.6-0.6c-0.1,0-0.1,0.2,0,0.1
				c0.7-0.4,1-1.2,1.2-1.9c0.1-0.4,0.2-0.8,0-1.1C70.1,1240.2,70.1,1240.2,70,1240.2L70,1240.2z"/>
		</g>
		<g>
			<path class="st3" d="M73,1238.2c-0.3,0.1-0.5,0.5-0.7,0.8c-0.9,1.6-2,3-3,4.6c-0.1,0.1,0,0.2,0.1,0.1c0.4-0.4,0.8-0.9,1.1-1.3
				c-0.2,0.4-0.5,0.8-0.7,1.2c0.1,0.1,0.2-0.1,0.2-0.2c0.7-0.8,1.3-1.7,1.9-2.6c0.2-0.3,0.4-0.6,0.6-0.9c-0.5,1.1-1.4,2-1.9,3.1
				c0.1,0.1,0.1-0.2,0.2-0.2c0.3-0.3,0.5-0.7,0.8-1.1c-0.1,0.3-0.3,0.5-0.4,0.8c0.1,0,0.2-0.2,0.3-0.3c0.3-0.4,0.5-0.8,0.8-1.1
				c-0.2,0.4-0.4,0.8-0.6,1.2c0.1,0,0.2-0.2,0.3-0.2c0.6-0.7,1.1-1.5,1.2-2.5c0-0.4,0.1-0.8,0-1.2
				C73.2,1238.2,73.1,1238.1,73,1238.2L73,1238.2z"/>
		</g>
		<g>
			<path class="st3" d="M75.9,1236.1c-0.4,0.1-0.5,0.6-0.7,0.9c-0.7,1.4-1.6,2.7-2.4,3.9c0.3-0.6,0.6-1.2,0.5-1.9
				c0-0.3,0.1-0.7-0.2-0.9c-0.2-0.1-0.4,0.2-0.5,0.3c-0.6,0.9-1.1,1.8-1.7,2.7c-0.5,0.8-1.1,1.6-1.6,2.4c0,0.2,0.2,0,0.2-0.1
				c0.3-0.3,0.5-0.6,0.8-0.9c-0.2,0.3-0.4,0.6-0.5,0.9c0.1,0,0.2-0.2,0.3-0.3c0.8-1,1.5-2.1,2.3-3.1c-0.5,0.9-1.2,1.7-1.7,2.7
				c-0.1,0.1,0,0.1,0.1,0c0.3-0.3,0.5-0.6,0.7-1c-0.1,0.2-0.2,0.4-0.2,0.6c0.2-0.1,0.2-0.3,0.4-0.4c0.1-0.2,0.3-0.5,0.4-0.6
				c-0.1,0.3-0.3,0.5-0.3,0.8c0.1,0,0.2-0.2,0.3-0.2c0.1-0.1,0.3-0.4,0.3-0.3c-0.4,0.6-0.7,1.2-1,1.8c0.1,0.1,0.1-0.1,0.2-0.2
				c0.4-0.6,0.8-1.1,1.2-1.7c-0.3,0.5-0.6,1-0.8,1.5c0.1,0,0.1-0.2,0.2-0.2c0.3-0.4,0.5-0.8,0.8-1.2c-0.2,0.4-0.4,0.9-0.6,1.3
				c0.1,0.1,0.1-0.2,0.2-0.2c1-1.6,2-3.2,3.1-4.9c-0.6,1.4-1.6,2.5-2.1,3.9c0,0.1,0.1,0,0.1,0c0.4-0.6,0.8-1.2,1.2-1.7
				c-0.2,0.4-0.4,0.7-0.5,1.1c0.1-0.1,0.2-0.3,0.3-0.4c0.2-0.3,0.4-0.5,0.5-0.8c0,0.1-0.2,0.3-0.1,0.3c0.4-0.3,0.6-0.8,0.8-1.2
				c0.4-0.8,0.5-1.7,0.4-2.6C76.2,1236.3,76.1,1236.1,75.9,1236.1L75.9,1236.1z M71.5,1241.9C71.5,1241.9,71.5,1242,71.5,1241.9z
				 M71.5,1241.9L71.5,1241.9L71.5,1241.9z"/>
		</g>
		<g>
			<path class="st3" d="M78.3,1234.9c-1.1,2-2.3,3.9-3.3,6c-0.2,0.4-0.4,0.8-0.6,1.2c0.3-0.3,0.4-0.7,0.7-1c0.2-0.3,0.3-0.6,0.6-0.8
				c-0.1,0.4-0.4,0.8-0.5,1.2c0.1,0,0.1-0.2,0.2-0.3c0.2-0.3,0.4-0.7,0.6-1c-0.1,0.4-0.3,0.8-0.4,1.2c0.1-0.1,0.2-0.4,0.3-0.6
				c0.8-1.5,1.5-3,2.3-4.5c-0.6,1.6-1.4,2.9-2,4.4c0.4-0.4,0.9-1.4,1.3-1.8c-0.1,0.4-0.3,0.7-0.4,1.1c0.7-0.9,1.3-1.9,1.9-2.9
				c0.4-0.8,0.5-2.3,0.2-2.8C78.7,1233.7,78.4,1234.6,78.3,1234.9L78.3,1234.9z"/>
		</g>
		<g>
			<path class="st3" d="M80.9,1233.4c-1.3,2.5-2.7,5-3.9,7.5c-0.1,0.2,0,0.1,0.1,0c0.5-0.7,0.9-1.4,1.3-2c-0.2,0.4-0.4,0.8-0.6,1.2
				c0.3-0.4,0.6-1,0.9-1.4c0,0.1-0.2,0.3-0.1,0.4c0.6-1.1,1.1-2.2,1.7-3.3c-0.6,1.5-1.3,2.9-2,4.3c0,0,0.2-0.2,0.2-0.2
				c0.3-0.5,0.6-1,1-1.5c-0.2,0.5-0.5,1-0.7,1.4c0.3-0.3,0.5-0.6,0.7-0.9c-0.2,0.5-0.4,1-0.6,1.5c0.7-1.1,1.4-2.3,2.1-3.5
				c0.6-1,1-2.2,0.8-3.4c0-0.3,0-0.8-0.3-0.9C81.2,1232.5,81,1233.1,80.9,1233.4L80.9,1233.4z"/>
		</g>
		<g>
			<path class="st3" d="M83.5,1232c-1.2,3-3.1,5.7-4.6,9.4c0.4-0.5,0.8-1.2,1.1-1.7c0.4-0.7,0.8-1.5,1.2-2.2c-0.2,0.7-0.8,1.9-1,2.6
				c0.5-0.9,0.9-1.9,1.3-2.6c-0.2,0.5-0.6,1.5-0.8,2.1c0.2-0.4,0.6-1.4,0.8-1.8c0,0.2-0.3,0.9-0.3,1.2c0.6-1.3,1.2-3.1,1.8-4.4
				c-0.5,1.5-1.2,3.1-1.7,4.6c0.4-0.7,0.8-1.5,1.1-2.1c-0.2,0.6-0.7,1.6-0.9,2.2c0.5-0.9,0.9-2,1.4-2.8c-0.1,0.5-0.5,1.4-0.6,1.9
				c0.3-0.5,0.6-1.4,0.8-1.9c-0.1,0.3-0.4,1.1-0.4,1.4c0.4-0.6,0.7-1.5,1-2.2c0.4-1.2,0.8-2.4,0.6-3.6c0-0.3-0.1-0.8-0.4-0.7
				C83.7,1231.1,83.6,1231.7,83.5,1232L83.5,1232z"/>
		</g>
		<g>
			<path class="st3" d="M85.5,1232.1c-1.3,3.1-2.7,6.1-4.2,9.1c0,0.1-0.2,0.3,0,0.2c0.5-0.5,0.7-1.3,1-1.9c0.2-0.5,0.7-1.7,1-2.1
				c-0.1,0.5-0.7,1.6-0.8,2.1c0.3-0.3,0.4-0.8,0.6-1.1c0.2-0.3,0.3-0.6,0.5-1c-0.2,0.5-0.4,1.1-0.6,1.6c-0.1,0.1,0.1,0.1,0.1,0
				c0.2-0.4,0.4-0.8,0.6-1.2c0,0.3-0.2,0.6-0.2,0.9c0.3-0.4,0.4-0.9,0.6-1.3c0.5-1.1,0.9-2.2,1.3-3.3c-0.2,1-0.6,1.9-0.9,2.9
				c-0.1,0.2-0.5,1.3-0.5,1.3s0.5-1.2,0.7-1.5c0,0.3-0.2,0.7-0.1,1c0,0,0.3-1,0.6-1.4c0,0.3-0.2,0.8-0.2,1.1c0.2-0.4,0.3-1,0.5-1.4
				c0,0.3-0.1,0.6-0.1,0.8c0.3-0.7,0.5-1.5,0.7-2.2c0.2-0.9,0.5-1.9,0.4-2.8c0-0.3-0.1-0.8-0.4-0.7S85.6,1231.8,85.5,1232.1
				L85.5,1232.1z"/>
		</g>
		<g>
			<path class="st3" d="M69.6,1249.3c-0.6,0-1.3,0.7-1.6,1.2c-0.5,0.1-1.3,0-1.7,0.2c0-0.5,1.1-0.6,1.4-0.8c-1.1-0.3-2,0.5-2.3,1.4
				c-0.6,0.2-1.1,0.4-1.7,0.6c0.1-0.6,0.8-0.8,1.3-1c-0.6,0-1.4,0.2-1.7,0.8c-0.2,0.4-0.2,0.9-0.2,1.3c-0.3,0.1-0.6,0.4-0.9,0.3
				c-0.1,0,0.2-0.5,0.3-0.8c-0.3,0.3-1,0.8-0.9,1.3c0.1,0.5,0.4,1,0.9,1.3c0.2,0.2,0.2-0.1,0.3-0.2c0.5-1,1.4-1.8,2.5-2
				c0.8-0.2,1.7-0.2,2.5-0.3c1.1,0.8,2.5,1.3,3.9,1.1c1.5-0.2,2.7-1,3.8-2c-0.3-1.1-1.8-1.4-2.7-1.2c-0.5,0.1-1,0.3-1.5,0.5
				c-0.5-0.3-0.9-0.8-1.5-0.8c-0.3,0-0.5,0.1-0.8,0.1c0.4-0.5,1-0.8,1.6-0.8c0.1-0.1-0.2-0.1-0.2-0.1
				C70.1,1249.4,69.9,1249.3,69.6,1249.3L69.6,1249.3z M69.7,1252.3c1.4,1,3.8,0.1,4.8-0.6c-0.4,0.4-1.1,1.1-1.8,1.4
				c-1.9,0.8-3.2,0.2-4.4-0.9c-2-0.2-4,0.7-4.9,1.4c0.5-0.7,1.4-1.5,2.2-1.8C67.2,1251.4,68.7,1250.8,69.7,1252.3L69.7,1252.3z"/>
		</g>
		<g>
			<path class="st3" d="M72.1,1250.3c1.3-0.1,2.8-0.4,3.8-0.1c0.5,0.2,0.8,0.6,1.1,1.1c0.1-0.1,0.2-0.1,0.3-0.3
				c-0.4-0.5-1.3-1.2-2.3-1.3C74,1249.7,73.1,1249.9,72.1,1250.3z"/>
		</g>
		<g>
			<path class="st3" d="M55.8,1241.8c0.8,0.4,1.6,0.7,2.2,1.2c0.4,0.3,0.8,0.7,1.3,1.6s0.3,2-0.2,2.9c-0.2,0.5-0.6,0.8-0.8,1.3
				c-0.3,0.8-0.1,1.4-0.1,1.8c0.1,1.1,1.2,3,1.5,3.7c-0.7-1.1-1.4-2.3-1.8-3.4c-0.2-0.6-0.3-1.3-0.3-2c0.8-0.7,1.7-2.1,0.6-3.6
				c-0.6-0.9-1.9-3.6-3.1-3.4c0.1,0.7,1.6,2.4,1.5,3.8c-0.4,0.4-0.8,1.1-0.9,1.7c0,0.9,0.4,1.3,0.9,1.8c-0.1,1.1,0.3,2,0.8,2.4
				c0.1,1,0.3,1.6,1.2,1.9c0,1.8,2.7,3.2,4.9,2.7c-1.7-0.7-2.7-0.7-3.6-2.2c-0.9-1.5-1.6-3.8-0.9-5.4c0.4-0.8,0.9-1.6,1.1-2.4
				c0.3-1.4-0.1-2.8-1.3-3.5C58,1242.3,56.7,1241.8,55.8,1241.8L55.8,1241.8z"/>
		</g>
		<g>
			<path class="st3" d="M53.9,1240.9c-0.4,2,0.3,4.2,1.8,4.9c-1.1-1.1-1.8-3.3-1.6-4.8L53.9,1240.9z"/>
		</g>
		<g>
			<path class="st3" d="M55.1,1246.1c-0.5,0.8-1.3,2.3,0.7,3C54.8,1248.3,54.8,1247.3,55.1,1246.1z"/>
		</g>
		<g>
			<path class="st3" d="M55.6,1249.6c0,0.8,0.3,1.5,1.1,1.9C55.1,1251.3,55.4,1250.4,55.6,1249.6z"/>
		</g>
		<g>
			<path class="st3" d="M56.8,1251.9c-0.3,0.9,0,1.4,1.1,1.5C56.9,1253,57.1,1252.1,56.8,1251.9z"/>
		</g>
		<g>
			<path class="st3" d="M31.1,1242.7c0.2,0.5,0.7,0.8,1.1,1.2c3,2.4,6.7,3.6,10.5,4c0.3,0,1.3,0.2,1.6,0.2c-2-0.4-4.1-0.8-5.8-1.4
				c0.8,0.1,2.3,0.4,3,0.5c-1.6-0.5-4.1-1.2-5.5-1.7c0.8,0.2,1.7,0.5,2.5,0.6c-0.2-0.2-0.5-0.2-0.7-0.3c-1.3-0.4-2.6-0.9-3.7-1.6
				c-0.2-0.1,0.3,0.1,0.2,0.1c1.9,0.9,3.9,1.6,6,2.1c0.1-0.1-0.2-0.1-0.2-0.1c-1.2-0.5-2.5-0.9-3.7-1.4c1,0.3,2,0.6,2.9,0.8
				c0-0.1-0.3-0.1-0.4-0.2c-1.3-0.5-2.5-0.9-3.8-1.5c1.5,0.5,3.5,1.3,5.1,1.6c-2.6-1-5.8-2.2-8.1-3.1
				C31.7,1242.2,30.8,1242.2,31.1,1242.7z"/>
		</g>
		<g>
			<path class="st3" d="M28.9,1238.7c-0.3,0-0.2,0.4-0.1,0.6c0.4,0.6,1.6,1.4,2.2,1.9c2.6,1.8,5.8,3,9,3.8c-1.4-0.6-3.1-1.1-4.3-1.7
				c0.9,0.2,2.4,0.8,3.3,1c-3.1-1.1-6.6-2.9-9-4.3c2.3,1,8.3,3.9,9.8,4.1c-1.1-0.6-3.9-1.8-5.1-2.3c1,0.4,3.6,1.4,4.6,1.7
				c-3-1.2-6.7-3-9.5-4.4C29.6,1239,29.3,1238.7,28.9,1238.7L28.9,1238.7z"/>
		</g>
		<g>
			<path class="st3" d="M27.4,1234.8c-0.3,0.1-0.3,0.5-0.1,0.7c0.6,1.1,1.5,1.9,2.4,2.6c2.4,1.8,5.1,3.2,7.9,4.3
				c0.7,0.3,2.6,0.9,3.3,1.1c-2.2-0.8-4.7-1.8-6.6-2.7c1.2,0.4,3.6,1.5,5,1.8c-1.8-0.7-4.8-1.9-6.3-2.7c0.8,0.3,3.3,1.4,4.1,1.7
				c-3-1.4-6.1-3.1-8.3-4.9c2.7,1.8,5.7,3.6,8.7,4.8c-0.7-0.5-3.2-1.7-4-2.2c0.9,0.3,2.1,1,3,1.3c-0.8-0.5-2.2-1.3-3-1.8
				c0.3,0.1,2.4,1.2,2.7,1.2c-0.2-0.2-2.1-1.1-2.3-1.2c-1.6-0.9-3.1-1.9-4.6-2.9c-0.6-0.4-1.2-0.8-1.8-1
				C27.5,1234.9,27.4,1234.8,27.4,1234.8L27.4,1234.8z"/>
		</g>
		<g>
			<path class="st3" d="M26.2,1230.9c-0.4,0-0.4,0.5-0.3,0.8c0.2,0.6,0.6,1.1,1,1.5c1.3,1.5,2.8,2.8,4.5,3.9
				c2.2,1.4,5.4,2.6,7.8,3.5c-3.8-1.7-6.1-2.9-7.5-4c0.6,0.3,2.2,1.2,2.7,1.3c-2-1.1-3.8-2.1-6.7-4.9c3.5,3,6.4,4.8,10.2,6.1
				c-1.9-0.9-4.6-1.9-6.1-3.3c1.5,0.9,3.9,2.2,5.5,2.7c-1.7-1-4.7-2.2-5.1-3c1.3,0.8,2.6,1.4,3.9,1.9c-0.6-0.5-1.7-0.9-2.3-1.3
				c0.4,0.1,0.9,0.3,1.3,0.3c-1-0.6-2.1-1.1-3.2-1.6c-1.7-0.9-3.4-1.8-4.8-3.2C27,1231.4,26.7,1230.8,26.2,1230.9L26.2,1230.9z"/>
		</g>
		<g>
			<path class="st3" d="M37.5,1249.5c0.2,0.5,0.7,0.7,1.2,1c2.2,1.3,4.7,1.8,7.1,2.1c0.2,0,0-0.1-0.1-0.1c-1.3-0.4-2.6-0.7-3.8-1
				c0.4,0,2.5,0.4,2.5,0.4c-0.9-0.3-2.9-0.7-3.8-1c0.5,0.1,5.2,1.2,5.2,1.2s-5.2-1.3-5.9-1.8c1.9,0.6,4.6,1.2,6.6,1.5
				c0,0-3.6-0.9-4.4-1.2c-0.1,0-0.3-0.1-0.3-0.2c1.4,0.3,3.1,0.7,4.5,0.8c0,0-2.5-0.6-3.5-0.9c0.8,0.1,3.2,0.5,4,0.6
				c-2.9-0.5-6.1-1.2-8.7-1.7C37.8,1249.1,37.4,1249.2,37.5,1249.5L37.5,1249.5z"/>
		</g>
		<g>
			<path class="st3" d="M34.6,1246.5c0.8,1.6,3.6,2.4,5,2.8c1.8,0.5,4.1,0.9,6,1.1c-1.3-0.4-3.2-0.8-4.6-1.2
				c0.8,0.1,2.7,0.4,3.4,0.5c-2.5-0.5-5.6-1.3-7.7-2c2.2,0.6,4.9,1.3,7.2,1.6c-1.5-0.4-3.5-0.8-4.8-1.3c1.6,0.3,3.4,0.7,5.1,0.7
				c-1.5-0.3-3.2-0.5-4.4-0.9c0.9,0,3.4,0.4,4.3,0.5c-2.9-0.5-5.9-1.1-8.2-2C35.5,1246.2,34.3,1246,34.6,1246.5z"/>
		</g>
		<g>
			<path class="st3" d="M42,1252.7c0.2,0.4,0.6,0.5,1,0.7c1.2,0.7,3,1.3,4.4,1.4c-1.2-0.4-2.4-0.7-3.1-1.2c0.6,0.1,3,0.6,3.7,0.7
				c0-0.1-1.4-0.3-1.5-0.4c-1.3-0.3-2.5-0.7-3.7-1.3c1.7,0.6,3.4,1.2,5.3,1.3c-1.1-0.4-2.8-0.6-3.9-1.1c1.5,0.4,3,0.6,4.3,0.7
				c-1.8-0.6-4.4-1.1-6.3-1.4C41.9,1252.1,41.8,1252.4,42,1252.7L42,1252.7z"/>
		</g>
		<g>
			<path class="st3" d="M39.9,1237.3c-0.2,0,0.1,0.3,0.1,0.4c0.6,1.1,1.6,2.1,2.6,2.9c1.7,1.4,3.6,2.2,5.5,2.8
				c1.7,0.5,3.8,0.6,5.4,0.5c0.2-0.1-0.4-0.1-0.3-0.1c-1.1-0.2-3.5-0.4-3.8-0.8c0.3,0.1,2.7,0.4,3.7,0.2c-3-0.4-8.2-1.2-10.7-3.8
				c2.9,1.8,6.2,3.2,9.3,3.2c-1.9-0.7-3.6-0.6-5-1.5c0.8,0.4,2.4,0.8,4.4,0.8c-1.2-0.3-3.1-0.5-4.1-1.1c1.2,0.5,2.6,0.6,3.7,0.5
				c-2.4-0.6-5-1.2-7.1-2.1c-1.1-0.4-2.1-1.1-3-1.7C40.5,1237.4,40.2,1237.2,39.9,1237.3L39.9,1237.3z M41.1,1240.7
				c-0.7,0-0.4,0.6-0.1,0.9c1.4,1.7,3.3,3,5.3,3.8c2.4,1,5.4,1.4,8.1,1.3c-1.4-0.4-3.7-0.2-4.7-0.8c1.1,0.2,2.5,0.3,3.6,0.2
				c-2.4-0.1-7.9-1.6-10.5-3.8c3.1,1.6,6,3.1,9.2,3.1c-1.4-0.5-3.5-0.7-4.6-1.5c1.3,0.5,2.8,0.9,4,0.9c-0.9-0.4-3-0.6-3.8-1.3
				c1,0.4,2.7,0.7,3.6,0.7c-1.5-0.5-3-0.8-4.2-1.2c-1.4-0.5-2.8-0.9-4.1-1.7C42.4,1241.2,41.8,1240.7,41.1,1240.7L41.1,1240.7z"/>
		</g>
		<g>
			<path class="st3" d="M42.8,1244.6c-0.5,0.1-0.2,0.7,0,0.9c1.9,1.7,4.2,3,6.6,3.6c1.7,0.4,3.5,0.6,5.2,0.7c-1.9-0.4-4.3-0.8-6-1.3
				c1,0.1,2.4,0.4,3.5,0.5c-1.4-0.4-3.3-0.7-4.6-1.2c1.3,0.3,2.7,0.5,4,0.8c-1.1-0.5-5-1.2-6-2.1c1.5,0.8,5.7,1.8,5.7,1.6
				c-1.1-0.4-2.8-0.8-3.9-1.2c0.9,0.2,4.2,1,3.7,0.7c-1.3-0.4-3.6-1-5-1.7c1.6,0.5,3,1,4.7,1.2c-2.4-1-5.1-1.7-7.3-2.6
				C43.3,1244.6,43,1244.6,42.8,1244.6L42.8,1244.6z"/>
		</g>
		<g>
			<path class="st3" d="M45.6,1248.5c-0.1,0-0.3,0.1-0.2,0.2c0,0.2,0.1,0.4,0.2,0.5c0.2,0.2,0.4,0.3,0.6,0.4
				c0.2,0.1,0.3,0.2,0.5,0.3c0,0.1,0.1,0,0.2,0.1c0.1,0,0.1,0.1,0.2,0.1c0.1,0.1,0.2,0.1,0.3,0.1c0.1,0,0.2,0.1,0.3,0.1
				c0.1,0,0.2,0.1,0.4,0.1c0.3,0.1,0.5,0.2,0.8,0.3c0.1,0,0.2,0.1,0.3,0.1c0.2,0.1,0.3,0.1,0.5,0.2c0.3,0.1,0.6,0.2,1,0.2
				c0.3,0.1,0.6,0.1,0.9,0.2c0.2,0.1,0.4,0.1,0.5,0.1c0.5,0.1,0.9,0.1,1.4,0.2c0.4,0,0.9,0.1,1.3,0.1c0-0.1-0.1-0.1-0.2-0.1
				c-0.2-0.1-0.5-0.1-0.7-0.1c-0.4-0.1-0.9-0.2-1.3-0.3c-0.3-0.1-0.6-0.2-0.9-0.2c-0.6-0.1-1.1-0.3-1.7-0.4c-0.1,0-0.2-0.1-0.3-0.1
				c-0.3-0.1-0.6-0.2-0.9-0.3c-0.2-0.1-0.5-0.2-0.7-0.3c0,0-0.2-0.1-0.1-0.1c0.2,0.1,0.4,0.1,0.6,0.2c0.5,0.1,0.9,0.2,1.4,0.3
				c0.2,0,0.4,0.1,0.7,0.1c0.3,0.1,0.6,0.1,0.9,0.2c0.4,0,0.7,0.1,1.1,0.1c-0.1-0.1-0.3,0-0.4-0.1c-0.5-0.1-1-0.1-1.4-0.3
				c-0.2,0-0.4-0.1-0.7-0.1c-0.2,0-0.4-0.1-0.6-0.2c-0.3-0.1-0.7-0.2-1-0.3c-0.1,0-0.1-0.1-0.2-0.1c-0.2-0.1-0.4-0.2-0.5-0.2
				c0.2,0,0.4,0.1,0.6,0.1c0.1,0.1,0.2,0.1,0.3,0.1c0.4,0.1,0.8,0.2,1.2,0.3c0.4,0.1,0.7,0.2,1.1,0.2c0.7,0.1,1.4,0.2,2.2,0.2
				c0.1,0,0-0.1-0.1-0.1c-0.4-0.1-0.7-0.2-1.1-0.2c-0.3-0.1-0.5-0.1-0.8-0.2c-0.6-0.1-1.3-0.3-1.9-0.4c-0.1-0.1-0.4-0.1-0.1-0.1
				c0.2,0,0.4,0.1,0.6,0.1c0.4,0.1,0.8,0.1,1.2,0.2c0.4,0,0.8,0.1,1.2,0.1c0,0,0.2,0,0.1-0.1c-0.3-0.1-0.6-0.3-1-0.4
				c-0.1,0-0.3-0.1-0.4-0.1c-0.4-0.1-0.9-0.1-1.3-0.3c-0.2-0.1-0.5-0.1-0.8-0.2c-0.3-0.1-0.7-0.2-1-0.2c-0.5-0.1-1.1-0.2-1.6-0.3
				C46.1,1248.5,45.8,1248.5,45.6,1248.5L45.6,1248.5z M48.8,1249.5C48.9,1249.5,48.7,1249.5,48.8,1249.5L48.8,1249.5z M48.9,1249.5
				C49,1249.6,48.8,1249.6,48.9,1249.5L48.9,1249.5z M49.1,1249.6C49.2,1249.6,49,1249.6,49.1,1249.6L49.1,1249.6L49.1,1249.6
				L49.1,1249.6z"/>
		</g>
		<g>
			<path class="st3" d="M47.9,1251.1c-0.1,0-0.3,0.1-0.3,0.3c0.1,0.2,0.1,0.5,0.3,0.6c0.4,0.3,0.9,0.5,1.3,0.7
				c0.2,0,0.3,0.1,0.5,0.2c0.1,0,0.2,0,0.2,0.1c1.1,0.4,2.2,0.6,3.3,0.8c1,0.2,2,0.3,3,0.2c0,0,0.1,0,0-0.1c-0.5-0.1-1-0.2-1.5-0.2
				c-1-0.2-2-0.3-3-0.5c-0.4-0.1-0.8-0.2-1.1-0.3c-0.1,0-0.1,0-0.2-0.1c-0.2-0.1-0.4-0.1-0.5-0.2c0.2,0,0.3,0.1,0.5,0.1
				c0.6,0.1,1.2,0.3,1.7,0.4c0.6,0.1,1.3,0.2,1.9,0.3c0,0,0.1,0,0.1,0c-0.5-0.1-1-0.2-1.5-0.3c-0.3-0.1-0.5-0.1-0.7-0.2
				c-0.2-0.1-0.4-0.1-0.6-0.2c-0.1,0-0.1,0-0.2-0.1c-0.1,0-0.1,0-0.2-0.1c-0.3-0.1-0.6-0.2-0.8-0.3c0.1,0,0.1,0,0.2,0
				c0.1,0.1,0.2,0,0.3,0.1c0.1,0,0.2,0.1,0.3,0.1c1.2,0.3,2.5,0.5,3.8,0.6c0,0,0.1,0,0.1,0c0,0-0.1,0-0.1-0.1
				c-0.2,0-0.3-0.1-0.5-0.1c-0.5-0.1-1-0.2-1.6-0.3c-0.4-0.1-0.9-0.2-1.3-0.3c-0.1,0-0.2-0.1-0.3-0.1c0,0-0.1,0-0.1,0
				c0.1,0,0.2,0.1,0.4,0.1c1,0.2,2.1,0.2,3.1,0.3c0,0,0-0.1-0.1-0.1c-0.3-0.1-0.6-0.2-1-0.3c-1.1-0.2-2.2-0.4-3.4-0.7
				c-0.1,0-0.2-0.1-0.3-0.1c-0.2-0.1-0.5-0.1-0.7-0.1C48.6,1251.2,48.3,1251.1,47.9,1251.1L47.9,1251.1z M50.9,1252.1
				C51,1252.1,50.8,1252.1,50.9,1252.1L50.9,1252.1L50.9,1252.1L50.9,1252.1z M50.1,1252.2C50.2,1252.2,50.1,1252.2,50.1,1252.2
				L50.1,1252.2z"/>
		</g>
		<g>
			<path class="st3" d="M49.8,1253.4c-0.3,0.1-0.1,0.6,0.1,0.7c0.3,0.3,1,0.7,1.4,0.9c0.7,0.3,2.8,1.1,4.5,0.9
				c-0.6-0.3-2.9-0.7-3.7-1c0.3-0.1,2,0.7,3.6,0.6c-1.2-0.1-3.1-0.7-3.7-1.1c1.2,0.4,2.9,0.8,4.1,0.8c-1.4-0.4-2.8-0.6-4.1-1.2
				c0.6,0.1,2.9,0.7,4.5,0.6c0.1,0,0-0.1-0.1-0.1c-0.4-0.2-0.8-0.2-1.1-0.3c-1.5-0.3-3-0.6-4.5-0.9
				C50.4,1253.5,50.1,1253.4,49.8,1253.4L49.8,1253.4z"/>
		</g>
		<g>
			<path class="st3" d="M30.8,1256.6l10.9,0l-5.2,0.3l5.1,0.1l-5,0.3l4.8-0.1l-10.2,0.7C30.7,1257.4,30.8,1257,30.8,1256.6
				L30.8,1256.6z"/>
		</g>
		<g>
			<path class="st3" d="M31.7,1258.6l9.9-1l-4.5,0.7l4.7-0.5l-4.9,0.8l5.2-0.7l-9.9,1.7C31.9,1259.3,31.6,1259,31.7,1258.6z"/>
		</g>
		<g>
			<path class="st3" d="M32.6,1260.3l9.5-2.1l-5,1.3l4.5-0.9l-5.5,1.4l3.4-0.7l-3.1,0.9l2.6-0.6l-6,1.5
				C32.6,1260.9,32.6,1260.6,32.6,1260.3z"/>
		</g>
		<g>
			<path class="st3" d="M33.4,1261.7l7.5-2.1l-3.6,1.3l4.1-1.1l-4.7,1.4l3.7-0.9l-3.7,1.2l4.4-1.3l-7.2,2.4
				C33.5,1262.5,33.3,1262.3,33.4,1261.7L33.4,1261.7z"/>
		</g>
		<g>
			<path class="st3" d="M34.3,1263.2l7.3-2.6L38,1262l4.2-1.3l-4.5,1.7l3.7-1.3l-3.8,1.6l4.6-1.7l-7.3,3
				C34.5,1264,34.2,1263.9,34.3,1263.2L34.3,1263.2z"/>
		</g>
		<g>
			<path class="st3" d="M35.1,1264.5c0.1,0,7.4-3.3,7.4-3.3l-4.1,2.1l4.5-2l-4.6,2.4l4.8-2.3l-7.4,3.8
				C35.5,1265.1,35.2,1265.2,35.1,1264.5L35.1,1264.5z"/>
		</g>
		<g>
			<path class="st3" d="M36.1,1265.8l6.7-3.6l-3.1,2.2l3.4-2.1l-3.8,2.7l3.9-2.5c-2.1,1.5-4.2,3-6.4,4.2
				C36.3,1266.5,36.1,1266.3,36.1,1265.8L36.1,1265.8z"/>
		</g>
		<g>
			<path class="st3" d="M50.1,1263.1c-0.3,0-0.7,0.1-1,0.2c-0.2,0-0.4,0.1-0.5,0.2c-0.1,0.1-0.2,0.1-0.2,0.3c0,0.1,0,0.2,0.1,0.2
				c1.1,0,2.2,0,3.4,0c0.1-0.1-0.1-0.1-0.1-0.1c-0.5,0-1-0.1-1.5-0.1c-0.3,0-0.2,0,0-0.1c0.3,0,0.5-0.1,0.8-0.1c0.1,0,0.2,0,0.3-0.1
				c-0.4,0-0.8,0.1-1.3,0c0.2-0.1,0.4-0.1,0.6-0.1c0.1,0,0.3,0,0.4-0.1C50.7,1263.1,50.4,1263.1,50.1,1263.1L50.1,1263.1z"/>
		</g>
		<g>
			<path class="st3" d="M48.8,1264.9c-0.1,0.1,0,0.2,0.1,0.2c1.1,0,2.2,0,3.3,0c-0.6-0.1-1.2-0.1-1.7-0.2c0.3-0.1,0.6-0.1,1.3-0.3
				c-0.9,0-1.1,0.1-1.4,0c0.4-0.1,0.8-0.1,1.2-0.2C50.8,1264.2,49.4,1264.3,48.8,1264.9L48.8,1264.9z"/>
		</g>
		<g>
			<path class="st3" d="M50.2,1265.8c-0.1,0.3,0.7,0.2,2.8,0.3c-0.3-0.2-0.7-0.2-1.4-0.3c0.4-0.1,0.9-0.1,1.2-0.2
				C52.2,1265.5,50.4,1265.3,50.2,1265.8L50.2,1265.8z"/>
		</g>
		<g>
			<path class="st3" d="M51.2,1266.6c-0.2,0.1-0.1,0.3,0.2,0.3c0.5,0,1.3,0,2,0.1c-0.5-0.2-1.2-0.2-1.5-0.3c0.4-0.2,0.8-0.1,1.2-0.2
				C52.8,1266.3,51.5,1266.4,51.2,1266.6L51.2,1266.6z"/>
		</g>
		<g>
			<path class="st3" d="M73.5,1259.3c0.5-0.2,1-0.2,1.5-0.3l-0.6-0.2l0.4-0.3c-0.5-0.4-0.9-0.2-1.3-0.1c0.3-0.6,1-0.8,1.9-0.9
				c-1.5-0.5-2.9-0.8-4.5-1.7c0.8,0.9,2.2,1.2,3.5,1.7c-1.1,0.4-1.5,0.9-1.7,1.5l1.1-0.3C74.1,1258.7,73.8,1259,73.5,1259.3z"/>
		</g>
		<g>
			<path class="st3" d="M76.5,1255.5c-0.3,0-0.6,0-0.9,0.1l1.1,0.4c0,0-0.7-0.1-1.1-0.1c-0.4,0-0.5,0.2-0.8,0.1
				c-0.5,0-0.6,0.1-0.7,0.2c-0.1,0.2,0.8,0.5,1.3,0.9c-0.4-0.1-0.9-0.4-1.3-0.3c0.6,0.3,1.1,0.7,2.2,0.6c0,0,0.1,0.1,0.1,0.2
				c-0.6,0.2-1.6,0.5-1.6,0.6c0.7-0.1,1.3-0.3,2-0.4c0.1-0.1,0.3-0.2,0.4-0.3c0,0,0.1,0.1,0.1,0.2c0.1,0,0.2-0.2,0.2-0.3
				c0.1,0,0.1,0.1,0.1,0.2c0.3-0.7,0.6-0.5,0.6-1.2C78,1256.1,77.9,1255.5,76.5,1255.5L76.5,1255.5z M76.2,1256c0.3,0,0.5,0,0.8,0.1
				c0.5,0,0.9,0.2,0.9,0.4c0,0.2-0.4,0-0.6,0c-0.3,0-0.4,0.2-0.5,0.3c-0.4,0.2-1.3,0.2-1.7-0.2c-0.2-0.2-0.9-0.2-0.8-0.4
				c0.3-0.1,0.8,0,1.2,0C75.7,1256.1,76,1256,76.2,1256L76.2,1256z"/>
		</g>
		<g>
			<path class="st1" d="M75.7,1256.2c0,0.2,0,0.3,0,0.4c-0.3-0.1-0.5-0.2-0.6-0.3C75.1,1256.3,75.2,1256.4,75.7,1256.2z"/>
		</g>
		<g>
			<path class="st1" d="M76.1,1256.3c-0.2,0-0.3,0.1-0.3,0.3c0,0.2,0.1,0.3,0.3,0.3c0.2,0,0.3-0.1,0.3-0.3S76.3,1256.3,76.1,1256.3z
				 M76.2,1256.4c0.1,0,0.1,0.1,0.1,0.2c0,0.1,0,0.2-0.1,0.2s-0.1-0.1-0.1-0.2C76.1,1256.5,76.1,1256.4,76.2,1256.4z"/>
		</g>
		<g>
			<path class="st3" d="M78.7,1259c-0.2-0.3-1.2-1-1.3-0.5C77.2,1259.1,78,1258.9,78.7,1259z"/>
		</g>
		<g>
			<path class="st1" d="M80,1256.9c0.7,0,1.2,0.3,1.6,0.6c-0.2-1.1-1.2-1-2.1-1.1c-0.4,0.4-0.3,0.8-2.2,1.5l-0.8,0.5
				c-0.4,0.1-0.9,0.2-1.2,0.6c0.4,0.1,0.9,0.4,1.4,0.6c0.6,0.7,1.1,0.7,1.6,0.8c-0.3-0.2-0.7-0.3-0.9-0.7c0.5,0.1,0.9,0.4,1.3,0.7
				c-0.1-0.4-1.8-0.9-1.7-1.7c0.1-0.7,2.3-0.4,3.5-1.1L80,1256.9z"/>
		</g>
		<g>
			<path class="st1" d="M78.8,1256.1c-0.4,0-0.5,0.9-1.3,1.5c0.6-0.1,1.4-0.5,1.8-1.3C79.2,1256.1,79.1,1256.1,78.8,1256.1
				C78.9,1256.1,78.8,1256.1,78.8,1256.1L78.8,1256.1z M78.9,1256.3c0.1,0,0.2,0,0.2,0.1c-0.3,0.4-0.6,0.6-0.8,0.7
				C78.7,1256.7,78.6,1256.3,78.9,1256.3C78.8,1256.3,78.8,1256.3,78.9,1256.3L78.9,1256.3z"/>
		</g>
		<g>
			<path class="st3" d="M67.9,1258.9l0.5,0l0.5,0l-0.5-0.2l0.2-0.3l-0.3,0.2L67.9,1258.9L67.9,1258.9z"/>
		</g>
		<g>
			<path class="st3" d="M66.3,1260.8l0.3,0l0.3,0l-0.3-0.1l0.1-0.2l-0.2,0.1L66.3,1260.8z"/>
		</g>
		<g>
			<path class="st3" d="M66.7,1261.3l0.2,0l0.2,0l-0.2-0.1l0.1-0.2l-0.1,0.1L66.7,1261.3L66.7,1261.3z"/>
		</g>
		<g>
			<path class="st3" d="M65.5,1260.6l0.3,0l0.3,0l-0.3-0.2l0.2-0.3l-0.2,0.2L65.5,1260.6L65.5,1260.6z"/>
		</g>
		<g>
			<path class="st3" d="M65.7,1261.1l0.3,0l0.3,0l-0.3-0.1l0.1-0.2l-0.2,0.1L65.7,1261.1z"/>
		</g>
		<g>
			<path class="st3" d="M66.1,1261.6l0.2,0l0.2,0l-0.2-0.1l0.1-0.2l-0.1,0.1L66.1,1261.6L66.1,1261.6z"/>
		</g>
		<g>
			<path class="st3" d="M64.7,1261.1l0.4,0l0.4,0l-0.4-0.1l0.1-0.3l-0.2,0.2L64.7,1261.1z"/>
		</g>
		<g>
			<path class="st3" d="M65,1261.6l0.3,0l0.3,0l-0.3-0.1l0.1-0.2l-0.2,0.1L65,1261.6L65,1261.6z"/>
		</g>
		<g>
			<path class="st3" d="M65.5,1262l0.2,0l0.2,0l-0.3-0.1l0.1-0.2l-0.2,0.1L65.5,1262L65.5,1262z"/>
		</g>
		<g>
			<path class="st3" d="M68.2,1259.5l0.4,0l0.4,0l-0.4-0.1l0.2-0.3l-0.3,0.2L68.2,1259.5L68.2,1259.5z"/>
		</g>
		<g>
			<path class="st3" d="M68.6,1260.2l0.3,0l0.2,0l-0.3-0.1l0.1-0.2l-0.2,0.1L68.6,1260.2z"/>
		</g>
		<g>
			<path class="st3" d="M68.9,1260.6l0.2,0l0.2,0l-0.2-0.1l0.1-0.2l-0.1,0.1L68.9,1260.6L68.9,1260.6z"/>
		</g>
		<g>
			<path class="st3" d="M67.3,1260.9l0.2,0l0.2,0l-0.2-0.1l0.1-0.2l-0.1,0.1L67.3,1260.9L67.3,1260.9z"/>
		</g>
		<g>
			<path class="st3" d="M67,1260.4l0.3,0l0.3,0l-0.3-0.1l0.1-0.2l-0.2,0.1L67,1260.4z"/>
		</g>
		<g>
			<path class="st3" d="M67.6,1260l0.3,0l0.3,0l-0.3-0.1l0.1-0.2l-0.2,0.1L67.6,1260z"/>
		</g>
		<g>
			<path class="st3" d="M68,1260.6l0.2,0l0.2,0l-0.2-0.1l0.1-0.2l-0.1,0.1L68,1260.6L68,1260.6z"/>
		</g>
		<g>
			<path class="st3" d="M68.9,1259.1l0.4,0l0.4,0l-0.4-0.1l0.2-0.3l-0.3,0.2L68.9,1259.1L68.9,1259.1z"/>
		</g>
		<g>
			<path class="st3" d="M69.7,1259.2l0.4,0l0.4,0l-0.4-0.1l0.2-0.3L70,1259L69.7,1259.2L69.7,1259.2z"/>
		</g>
		<g>
			<path class="st3" d="M70.6,1259.3l0.3,0l0.3,0l-0.4-0.2l0.2-0.3l-0.2,0.2L70.6,1259.3L70.6,1259.3z"/>
		</g>
		<g>
			<path class="st3" d="M71.4,1259.4l0.3,0l0.3,0l-0.4-0.2l0.2-0.3l-0.2,0.2L71.4,1259.4L71.4,1259.4z"/>
		</g>
		<g>
			<path class="st3" d="M69.1,1259.7l0.3,0l0.2,0l-0.3-0.1l0.1-0.2l-0.2,0.1L69.1,1259.7z"/>
		</g>
		<g>
			<path class="st3" d="M69.4,1260.3l0.2,0l0.2,0l-0.2-0.1l0.1-0.2l-0.1,0.1L69.4,1260.3L69.4,1260.3z"/>
		</g>
		<g>
			<path class="st3" d="M70,1260.4l0.2,0l0.2,0l-0.2-0.1l0.1-0.2l-0.1,0.1L70,1260.4L70,1260.4z"/>
		</g>
		<g>
			<path class="st3" d="M70.9,1260.4l0.2,0l0.2,0l-0.3-0.1l0.1-0.2l-0.2,0.1L70.9,1260.4L70.9,1260.4z"/>
		</g>
		<g>
			<path class="st3" d="M70,1259.8l0.2,0l0.2,0l-0.2-0.1l0.1-0.2l-0.1,0.1L70,1259.8L70,1259.8z"/>
		</g>
		<g>
			<path class="st3" d="M70.7,1259.9l0.2,0l0.2,0l-0.2-0.1l0.1-0.2l-0.1,0.1L70.7,1259.9L70.7,1259.9z"/>
		</g>
		<g>
			<path class="st3" d="M67.4,1259.3l0.3,0l0.3,0l-0.3-0.1l0.1-0.2l-0.2,0.1L67.4,1259.3z"/>
		</g>
		<g>
			<path class="st3" d="M66.8,1259.8l0.3,0l0.3,0l-0.3-0.1l0.1-0.2l-0.2,0.1L66.8,1259.8L66.8,1259.8z"/>
		</g>
		<g>
			<path class="st3" d="M66.2,1260.2l0.3,0l0.3,0l-0.3-0.1l0.1-0.2l-0.2,0.1L66.2,1260.2L66.2,1260.2z"/>
		</g>
		<g>
			<path class="st3" d="M65.2,1260.1l0.3,0l0.3,0l-0.3-0.1l0.1-0.2l-0.2,0.1L65.2,1260.1z"/>
		</g>
		<g>
			<path class="st3" d="M64.5,1260.5l0.3,0l0.3,0l-0.3-0.1l0.1-0.2l-0.2,0.1L64.5,1260.5z"/>
		</g>
		<g>
			<path class="st3" d="M65.8,1259.6l0.3,0l0.3,0l-0.3-0.1l0.1-0.2l-0.2,0.1L65.8,1259.6L65.8,1259.6z"/>
		</g>
		<g>
			<path class="st3" d="M66.6,1259.2l0.3,0l0.3,0l-0.3-0.1l0.1-0.2l-0.2,0.1L66.6,1259.2z"/>
		</g>
		<g>
			<path class="st3" d="M65.9,1259l0.3,0l0.3,0l-0.3-0.1l0.1-0.2l-0.2,0.1L65.9,1259L65.9,1259z"/>
		</g>
		<g>
			<path class="st3" d="M66.6,1258.6l0.3,0l0.3,0l-0.3-0.1l0.1-0.2l-0.2,0.1L66.6,1258.6z"/>
		</g>
		<g>
			<path class="st3" d="M67.2,1258.7l0.3,0l0.3,0l-0.3-0.1l0.1-0.2l-0.2,0.1L67.2,1258.7z"/>
		</g>
		<g>
			<path class="st3" d="M65.9,1258.4l0.3,0l0.3,0l-0.3-0.1l0.1-0.2l-0.2,0.1L65.9,1258.4z"/>
		</g>
		<g>
			<path class="st3" d="M65.3,1258.2l0.3,0l0.3,0l-0.3-0.1l0.1-0.2l-0.2,0.1L65.3,1258.2z"/>
		</g>
		<g>
			<path class="st3" d="M66,1257.7l0.3,0l0.3,0l-0.3-0.1l0.1-0.2l-0.2,0.1L66,1257.7z"/>
		</g>
		<g>
			<path class="st3" d="M65.1,1257.4l0.3,0l0.3,0l-0.3-0.1l0.1-0.2l-0.2,0.1L65.1,1257.4L65.1,1257.4z"/>
		</g>
		<g>
			<path class="st3" d="M65.9,1257l0.3,0l0.3,0l-0.3-0.1l0.1-0.2l-0.2,0.1L65.9,1257z"/>
		</g>
		<g>
			<path class="st3" d="M65.4,1256.7l0.3,0l0.3,0l-0.3-0.1l0.1-0.2l-0.2,0.2L65.4,1256.7L65.4,1256.7z"/>
		</g>
		<g>
			<path class="st3" d="M66.6,1256.6l0.3,0l0.3,0l-0.3-0.1l0.1-0.2l-0.2,0.2L66.6,1256.6L66.6,1256.6z"/>
		</g>
		<g>
			<path class="st3" d="M67.4,1256.7l0.3,0l0.3,0l-0.3-0.1l0.1-0.2l-0.2,0.2L67.4,1256.7L67.4,1256.7z"/>
		</g>
		<g>
			<path class="st3" d="M68.1,1256.9h0.3h0.3l-0.3-0.1l0.1-0.2l-0.2,0.2L68.1,1256.9L68.1,1256.9z"/>
		</g>
		<g>
			<path class="st3" d="M68.8,1257.1H69h0.3L69,1257l0.1-0.2l-0.2,0.2L68.8,1257.1L68.8,1257.1z"/>
		</g>
		<g>
			<path class="st3" d="M69.4,1257.2h0.3H70l-0.3-0.1l0.1-0.2l-0.2,0.2L69.4,1257.2L69.4,1257.2z"/>
		</g>
		<g>
			<path class="st3" d="M70.1,1257.4h0.3h0.3l-0.3-0.1l0.1-0.2l-0.2,0.2L70.1,1257.4L70.1,1257.4z"/>
		</g>
		<g>
			<path class="st3" d="M66.6,1257.2l0.3,0l0.3,0l-0.3-0.1l0.1-0.2l-0.2,0.1L66.6,1257.2z"/>
		</g>
		<g>
			<path class="st3" d="M67.4,1257.4l0.3,0l0.3,0l-0.3-0.1l0.1-0.2l-0.2,0.1L67.4,1257.4z"/>
		</g>
		<g>
			<path class="st3" d="M67.4,1257.4l0.3,0l0.3,0l-0.3-0.1l0.1-0.2l-0.2,0.1L67.4,1257.4z"/>
		</g>
		<g>
			<path class="st3" d="M68,1257.6l0.3,0l0.3,0l-0.3-0.1l0.1-0.2l-0.2,0.1L68,1257.6z"/>
		</g>
		<g>
			<path class="st3" d="M68.6,1257.7l0.3,0l0.3,0l-0.3-0.1l0.1-0.2l-0.2,0.1L68.6,1257.7L68.6,1257.7z"/>
		</g>
		<g>
			<path class="st3" d="M69.3,1257.9l0.3,0l0.3,0l-0.3-0.1l0.1-0.2l-0.2,0.1L69.3,1257.9L69.3,1257.9z"/>
		</g>
		<g>
			<path class="st3" d="M66.6,1257.8l0.3,0l0.3,0l-0.3-0.1l0.1-0.2l-0.2,0.1L66.6,1257.8L66.6,1257.8z"/>
		</g>
		<g>
			<path class="st3" d="M67.3,1258l0.3,0l0.3,0l-0.3-0.1l0.1-0.2l-0.2,0.1L67.3,1258z"/>
		</g>
		<g>
			<path class="st3" d="M68,1258.2l0.3,0l0.3,0l-0.3-0.1l0.1-0.2l-0.2,0.1L68,1258.2z"/>
		</g>
		<g>
			<path class="st3" d="M68.7,1258.4l0.4,0l0.4,0l-0.4-0.1l0.2-0.3l-0.3,0.2L68.7,1258.4L68.7,1258.4z"/>
		</g>
		<g>
			<path class="st3" d="M69.6,1258.5l0.3,0l0.2,0l-0.3-0.1l0.1-0.2l-0.2,0.1L69.6,1258.5L69.6,1258.5z"/>
		</g>
		<g>
			<path class="st3" d="M70.4,1258.6l0.3,0l0.2,0l-0.3-0.1l0.1-0.2l-0.2,0.1L70.4,1258.6L70.4,1258.6z"/>
		</g>
		<g>
			<path class="st3" d="M70,1258.1l0.3,0l0.2,0l-0.3-0.1l0.1-0.2l-0.2,0.1L70,1258.1z"/>
		</g>
		<g>
			<path class="st3" d="M71,1258.2l0.3,0l0.2,0l-0.3-0.1l0.1-0.2l-0.2,0.1L71,1258.2L71,1258.2z"/>
		</g>
		<g>
			<path class="st3" d="M71.2,1258.7l0.3,0l0.3,0l-0.3-0.1l0.1-0.2l-0.2,0.2L71.2,1258.7z"/>
		</g>
		<g>
			<path class="st3" d="M72,1258.9l0.3,0l0.3,0l-0.3-0.1l0.1-0.2l-0.2,0.2L72,1258.9L72,1258.9z"/>
		</g>
		<g>
			<path class="st3" d="M71.8,1258.3l0.2,0l0.2,0l-0.2-0.1l0.1-0.2l-0.1,0.1L71.8,1258.3L71.8,1258.3z"/>
		</g>
		<g>
			<path class="st3" d="M72.3,1257.9l0.2,0l0.2,0l-0.2-0.1l0.1-0.2l-0.1,0.1L72.3,1257.9z"/>
		</g>
		<g>
			<path class="st3" d="M72.9,1257.9l0.2,0l0.2,0l-0.2-0.1l0.1-0.2l-0.1,0.1L72.9,1257.9L72.9,1257.9z"/>
		</g>
		<g>
			<path class="st3" d="M70.8,1257.5l0.3,0l0.2,0l-0.3-0.1l0.1-0.2l-0.2,0.1L70.8,1257.5L70.8,1257.5z"/>
		</g>
		<g>
			<path class="st3" d="M71.6,1257.6l0.3,0l0.2,0l-0.3-0.1l0.1-0.2l-0.2,0.1L71.6,1257.6L71.6,1257.6z"/>
		</g>
		<g>
			<path class="st3" d="M72.1,1257.2l0.3,0l0.2,0l-0.3-0.1l0.1-0.2l-0.2,0.1L72.1,1257.2L72.1,1257.2z"/>
		</g>
		<g>
			<path class="st3" d="M71.2,1257l0.3,0l0.2,0l-0.3-0.1l0.1-0.2l-0.2,0.1L71.2,1257L71.2,1257z"/>
		</g>
		<g>
			<path class="st3" d="M70.5,1256.9l0.3,0l0.2,0l-0.3-0.1l0.1-0.2l-0.2,0.1L70.5,1256.9L70.5,1256.9z"/>
		</g>
		<g>
			<path class="st3" d="M69.8,1256.8l0.3,0l0.2,0l-0.3-0.1l0.1-0.2l-0.2,0.1L69.8,1256.8L69.8,1256.8z"/>
		</g>
		<g>
			<path class="st3" d="M69.3,1256.5l0.3,0l0.2,0l-0.3-0.1l0.1-0.2l-0.2,0.1L69.3,1256.5L69.3,1256.5z"/>
		</g>
		<g>
			<path class="st3" d="M58,1253.6c-0.3,1.1,0.1,1.5,1,1.5C58.1,1254.7,58.1,1254.2,58,1253.6z"/>
		</g>
		<g>
			<path class="st3" d="M59.3,1255.4c-0.2,0.8,0.1,1.2,1.2,1.1C59.8,1256.2,59.4,1255.8,59.3,1255.4z"/>
		</g>
		<g>
			<path class="st3" d="M55.4,1258.2l0.8,0.3l0.8,0.3l-0.8-0.6l0.6-0.6l-0.7,0.3L55.4,1258.2L55.4,1258.2z"/>
		</g>
		<g>
			<path class="st3" d="M53.9,1258.8l0.8,0.3l0.8,0.3l-0.8-0.6l0.6-0.6l-0.7,0.3L53.9,1258.8L53.9,1258.8z"/>
		</g>
		<g>
			<path class="st3" d="M53.6,1260.2l0.9,0.2l0.9,0.2l-0.9-0.5l0.7-0.4l-0.8,0.2L53.6,1260.2z"/>
		</g>
		<g>
			<path class="st3" d="M55.3,1260.9l0.9,0.2l0.9,0.2l-0.9-0.5l0.7-0.4l-0.8,0.2L55.3,1260.9L55.3,1260.9z"/>
		</g>
		<g>
			<path class="st3" d="M56.8,1262.4l0.9,0.2l0.9,0.2l-0.9-0.5l0.7-0.4l-0.8,0.2L56.8,1262.4L56.8,1262.4z"/>
		</g>
		<g>
			<path class="st3" d="M58.7,1262.9l0.8,0.2l0.8,0.2l-0.7-0.4l0.6-0.4l-0.7,0.2L58.7,1262.9z"/>
		</g>
		<g>
			<path class="st3" d="M61.1,1263.1l0.7,0.2l0.7,0.2l-0.7-0.4l0.5-0.3l-0.6,0.2L61.1,1263.1z"/>
		</g>
		<g>
			<path class="st3" d="M57.2,1261.5l0.8,0.1l0.8,0.1l-0.8-0.3l0.6-0.5l-0.7,0.3L57.2,1261.5L57.2,1261.5z"/>
		</g>
		<g>
			<path class="st3" d="M58.9,1261.9l0.8,0.1l0.8,0.1l-0.8-0.3l0.6-0.5l-0.7,0.3L58.9,1261.9L58.9,1261.9z"/>
		</g>
		<g>
			<path class="st3" d="M60.8,1262.2l0.8,0.1l0.8,0.1l-0.8-0.3l0.6-0.5l-0.7,0.3L60.8,1262.2L60.8,1262.2z"/>
		</g>
		<g>
			<path class="st3" d="M62.9,1262.5l0.9,0l0.9,0l-0.9-0.2l0.5-0.4l-0.7,0.3L62.9,1262.5L62.9,1262.5z"/>
		</g>
		<g>
			<path class="st3" d="M57.3,1260.2l0.8,0.3l0.8,0.3l-0.9-0.5l0.5-0.5l-0.6,0.2L57.3,1260.2z"/>
		</g>
		<g>
			<path class="st3" d="M58.9,1260.7l0.8,0.3l0.8,0.3l-0.9-0.5l0.5-0.5l-0.6,0.2L58.9,1260.7L58.9,1260.7z"/>
		</g>
		<g>
			<path class="st3" d="M55.5,1259.7l0.8,0.3l0.8,0.3l-0.9-0.5l0.5-0.5l-0.6,0.2L55.5,1259.7L55.5,1259.7z"/>
		</g>
		<g>
			<path class="st3" d="M57.1,1259l0.7,0.2l0.7,0.2l-0.6-0.5l0.8-0.6l-0.8,0.3L57.1,1259L57.1,1259z"/>
		</g>
		<g>
			<path class="st3" d="M58.8,1258.2l0.8,0.2l0.8,0.2l-0.7-0.5l0.8-0.6l-0.9,0.3L58.8,1258.2L58.8,1258.2z"/>
		</g>
		<g>
			<path class="st3" d="M60.7,1257.4l0.8,0.2l0.8,0.2l-0.7-0.5l0.8-0.7l-0.8,0.4L60.7,1257.4L60.7,1257.4z"/>
		</g>
		<g>
			<path class="st3" d="M58.9,1259.6l0.7,0.2l0.7,0.2l-0.6-0.5l0.7-0.7l-0.8,0.4L58.9,1259.6L58.9,1259.6z"/>
		</g>
		<g>
			<path class="st3" d="M60.5,1258.8l0.8,0.2l1.3,0.4c-0.3-0.3-1.2-0.5-1.6-0.7c0.4-0.3,0.9-0.6,1.2-0.9l-0.8,0.4L60.5,1258.8z"/>
		</g>
		<g>
			<path class="st3" d="M62.1,1257.9l0.9,0.3l0.9,0.3l-0.8-0.7l0.9-1l-1,0.6L62.1,1257.9z"/>
		</g>
		<g>
			<path class="st3" d="M60.3,1260.1l1.1,0.3l1.1,0.3l-1.4-0.6l1.6-1l-1.2,0.5L60.3,1260.1z"/>
		</g>
		<g>
			<path class="st3" d="M62.1,1260.5l1.1,0.3l1.1,0.3l-1-0.7l1.1-0.9l-1.2,0.5L62.1,1260.5L62.1,1260.5z"/>
		</g>
		<g>
			<path class="st3" d="M62,1259.2l1.1,0.3l1.1,0.3l-1-0.7l1.1-0.9l-1.2,0.5L62,1259.2L62,1259.2z"/>
		</g>
		<g>
			<path class="st3" d="M63.5,1258.4l1,0.3l1,0.3l-0.9-0.7l1-0.9l-1.1,0.5L63.5,1258.4L63.5,1258.4z"/>
		</g>
		<g>
			<path class="st3" d="M63.7,1257l0.5-0.4l0.5-0.3l-0.3,0.6l0.8,0.4l-0.7-0.2L63.7,1257L63.7,1257z"/>
		</g>
		<g>
			<path class="st3" d="M60.8,1261.2l0.8,0.1l0.8,0.1l-0.8-0.4l0.4-0.5l-0.6,0.3L60.8,1261.2z"/>
		</g>
		<g>
			<path class="st3" d="M62.4,1261.4l0.9,0.3l0.9,0.3l-0.9-0.5l0.6-0.5l-0.7,0.2L62.4,1261.4L62.4,1261.4z"/>
		</g>
		<g>
			<path class="st3" d="M63.5,1259.6l1.1,0.3l1.1,0.3l-1-0.7l1.1-0.9l-1.2,0.5L63.5,1259.6L63.5,1259.6z"/>
		</g>
		<g>
			<path class="st1" d="M57.9,1267.3c-0.3,0-0.9,0.3-0.6,0.6c0.2,0.3,0.5,0.5,0.9,0.4c0.2,0.1,0.8,0.1,0.5-0.2c-0.2,0-0.8,0-0.3-0.2
				c0.4,0,0.3-0.6-0.1-0.4c-0.2,0-0.6,0.3-0.6,0C57.8,1267.4,58.4,1267.2,57.9,1267.3L57.9,1267.3L57.9,1267.3L57.9,1267.3z
				 M58.3,1271.5c-0.5-0.1,0,0.5,0.2,0.2C58.5,1271.5,58.5,1271.4,58.3,1271.5z M60.9,1268.9c-0.1,0.3-0.4,0.1-0.5,0
				c0,0.6,0,1.2-0.1,1.7c0.2-0.1,0.1-0.4,0.4-0.2c0.4,0.1,0.6-0.4,0.4-0.7c-0.1-0.3-0.1-0.6-0.2-1
				C60.9,1268.8,60.9,1268.9,60.9,1268.9L60.9,1268.9z M59.9,1268.5c0,0.4-0.6,0.5-0.9,0.3c-0.3-0.3,0,0.3,0.1,0.4
				c0.2,0.5,0.2,1.1-0.1,1.6c-0.3,0.2,0.2,0.5,0.3,0.3c-0.3-0.4,0.4-0.4,0.7-0.4c0.4,0,0.3-0.6,0.3-0.9
				C60.3,1269.3,60.2,1268.9,59.9,1268.5L59.9,1268.5L59.9,1268.5L59.9,1268.5L59.9,1268.5z M57.8,1268.6c-0.5,0-0.2,0.5,0,0.7
				c0.2,0.2,0.2,0.5,0.2,0.8c0,0.4-0.2,0.7-0.4,1c-0.2,0.1-0.2,0.3,0.1,0.3c0.3,0.2,0.4-0.1,0.4-0.4c0-0.4,0.5-0.3,0.7-0.1
				c0.3,0.1,0.4-0.4,0.5-0.6c0.1-0.4-0.1-0.9-0.2-1.3C58.6,1268.6,58.1,1268.6,57.8,1268.6L57.8,1268.6L57.8,1268.6z M58.2,1268.7
				c0.2,0,0.6,0.5,0.2,0.3c-0.2,0-0.3,0.4-0.5,0.1C57.8,1268.9,58.1,1268.7,58.2,1268.7z M53.6,1271.4c-0.3,0.1,0.1,0.4,0.3,0.3
				c0.2,0,0.5-0.1,0.2-0.2C53.9,1271.4,53.7,1271.4,53.6,1271.4L53.6,1271.4z M55.9,1270.7c-0.3-0.1-0.4,0.4,0,0.3
				c0.1-0.1,0.8-0.1,0.4-0.3C56.2,1270.7,56,1270.7,55.9,1270.7L55.9,1270.7z M54.6,1270.8c-0.3,0.1-0.2,0.5,0.1,0.3
				c0.2,0,0.8-0.1,0.4-0.2C54.9,1270.9,54.7,1270.8,54.6,1270.8L54.6,1270.8z M54.7,1268.2c-0.4-0.1-0.3,0.5,0.1,0.3
				c0.2-0.1,0.6,0,0.6-0.2C55.2,1268.2,54.9,1268.2,54.7,1268.2L54.7,1268.2z M53.4,1268.5c-0.2-0.1-0.5,0.2-0.1,0.2
				c0.2,0,0.1,0.3,0.4,0.2c-0.1,0.2-0.5,0.3-0.7,0.1c0.1,0.3,0.4,0.6,0.3,0.9c0.1,0.4,0,0.8-0.2,1.1c0.1,0.1,0.5,0.2,0.6,0.2
				c-0.2-0.2-0.6-0.4-0.2-0.6c0.3-0.2,0.7,0.2,0.9-0.2c0.1-0.3,0-0.7,0-1c-0.1-0.4-0.3-0.8-0.8-0.9
				C53.6,1268.5,53.5,1268.5,53.4,1268.5z M55.9,1268.4c-0.1,0.2,0.6,0.3,0.5,0.5c-0.2,0-0.6,0-0.4,0.3c0,0.3-0.1,0.8,0.1,1.1
				c0.2,0,0.7,0.3,0.7-0.1c0-0.5,0-0.9-0.1-1.4C56.6,1268.5,56.2,1268.4,55.9,1268.4L55.9,1268.4z M55.5,1268.5
				c-0.1,0.4-0.5,0.1-0.7,0.2c-0.1,0.2-0.5-0.1-0.3,0.2c0.2,0.5,0.2,1.1,0.2,1.6c0.2,0.2,0.2-0.4,0.5-0.2c0.2,0.1,0.7,0.2,0.6-0.2
				c-0.2-0.1,0.3-0.2,0.1-0.4c-0.1-0.4,0.1-0.9-0.2-1.2C55.6,1268.6,55.6,1268.6,55.5,1268.5L55.5,1268.5z M53.7,1267.1
				c-0.3,0-0.7,0.3-0.7,0.6c0.3,0.1,0,0.7,0.5,0.6c0.1-0.1,0.6,0,0.6-0.2c-0.3-0.1,0-0.4,0.2-0.3c0.1,0,0.5-0.1,0.2-0.2
				c-0.3-0.1-0.6-0.2-0.9-0.1c-0.1-0.3,0.7-0.3,0.4-0.4C53.9,1267.1,53.8,1267.1,53.7,1267.1z"/>
		</g>
	</g>
</g>
</svg>
