<?xml version="1.0" encoding="utf-8"?>
<!-- Generator: Adobe Illustrator 22.0.1, SVG Export Plug-In . SVG Version: 6.00 Build 0)  -->
<svg version="1.1" id="Слой_1" xmlns="http://www.w3.org/2000/svg" xmlns:xlink="http://www.w3.org/1999/xlink" x="0px" y="0px"
	 viewBox="0 0 127.3 127" style="enable-background:new 0 0 127.3 127;" xml:space="preserve">
<style type="text/css">
	.st0{fill:url(#SVGID_1_);}
	.st1{fill:#FFFFFF;}
	.st2{fill-rule:evenodd;clip-rule:evenodd;fill:#D5231A;}
	.st3{fill-rule:evenodd;clip-rule:evenodd;fill:#2D5797;}
	.st4{fill-rule:evenodd;clip-rule:evenodd;fill:#EEBB24;}
	.st5{fill-rule:evenodd;clip-rule:evenodd;fill:#E6B100;}
	.st6{fill-rule:evenodd;clip-rule:evenodd;fill:#EAD561;}
	.st7{fill-rule:evenodd;clip-rule:evenodd;fill:#EEBB24;stroke:#717171;stroke-width:0.107;stroke-miterlimit:22.9256;}
	.st8{fill-rule:evenodd;clip-rule:evenodd;fill:none;stroke:#717171;stroke-width:0.107;stroke-miterlimit:22.9256;}
	.st9{fill-rule:evenodd;clip-rule:evenodd;fill:#F6ED7C;}
	.st10{fill-rule:evenodd;clip-rule:evenodd;fill:#7F7271;stroke:#717171;stroke-width:0.107;stroke-miterlimit:22.9256;}
	.st11{fill-rule:evenodd;clip-rule:evenodd;fill:#CFC7C5;stroke:#717171;stroke-width:0.107;stroke-miterlimit:22.9256;}
	.st12{fill-rule:evenodd;clip-rule:evenodd;fill:#BCC6C7;stroke:#717171;stroke-width:0.1182;stroke-miterlimit:22.9256;}
	.st13{fill-rule:evenodd;clip-rule:evenodd;fill:#000003;stroke:#000003;stroke-width:0.107;stroke-miterlimit:22.9256;}
	.st14{fill-rule:evenodd;clip-rule:evenodd;fill:#F1BC23;}
	.st15{fill-rule:evenodd;clip-rule:evenodd;fill:#000003;}
	.st16{fill-rule:evenodd;clip-rule:evenodd;fill:none;stroke:#717270;stroke-width:8.585165e-02;stroke-miterlimit:22.9256;}
</style>
<radialGradient id="SVGID_1_" cx="64.8" cy="-554.747" r="62.6" gradientTransform="matrix(1 0 0 -1 0 -490.347)" gradientUnits="userSpaceOnUse">
	<stop  offset="0.9487" style="stop-color:#212121"/>
	<stop  offset="1" style="stop-color:#606060;stop-opacity:0"/>
</radialGradient>
<circle class="st0" cx="64.8" cy="64.4" r="62.6"/>
<circle class="st1" cx="62.6" cy="62.6" r="62.6"/>
<g>
	<g>
		<g>
			<g>
				<g>
					<path class="st2" d="M32,22l32.7-0.2L64,107c-1.1-2.8-3.9-5.1-5.9-5.1H39.9c-7.9,0-7.9-7.2-7.9-7.2V22z"/>
					<path class="st2" d="M95.9,22l-32.7-0.2L64,107c1.1-2.8,3.9-5.1,5.9-5.1H88c7.9,0,7.9-7.2,7.9-7.2V22z"/>
				</g>
			</g>
			<rect x="32" y="21.1" class="st3" width="63.9" height="27.7"/>
		</g>
		<path class="st4" d="M47.7,47.6l-4.8-9.9l5.3,7.8l-3.6-9.9l5.2,8.7l-3.6-9.9l5,9.2l-2.9-10.4l4.5,10.1l-2.1-10.4l3.9,9.8
			l-2.3-10.6l3,8.9l-1.7-10.6l3,9.4l-1.5-10.9l2.6,9.8l-0.8-11.2l2.3,9.9l-0.4-11.1l1.9,10.2l0.3-11.1l1.3,10.9l0.7-11.6L64,36
			l0.8-11.5v12.9c-4.3,0.1-7.1,2.1-9.5,6.6C49.1,43.4,47.7,47.6,47.7,47.6z"/>
		<g>
			<path class="st5" d="M83.1,84L79.9,84l0.3-1.2l-3.5,1.5l1.7-2.6l4-0.8c0.3,0.5,0.6,1.3,0.8,2.5L83.1,84z"/>
			<path class="st6" d="M79.1,82.1c-1.1,9.1-9,14.5-12.5,5.2l-0.7-24.5L65.5,63l-0.6,29.7l-0.2,0.8l0,0.7
				c7.1,6.1,15.7-0.4,16.6-11.8l0.3-1L79.1,82.1z"/>
			<g>
				<g>
					<path class="st5" d="M46.3,84l3.2,0.1l-0.3-1.2l3.5,1.5L51,81.8L47,81c-0.3,0.5-0.6,1.3-0.8,2.5L46.3,84z"/>
					<path class="st6" d="M50.4,82.1c1.1,9.1,9,14.5,12.5,5.2l0.7-24.5l0.3,0.2l0.6,29.7l0.2,0.8l0,0.7c-7.1,6.1-15.7-0.4-16.6-11.8
						l-0.3-1L50.4,82.1z"/>
					<path class="st4" d="M63.6,60.4l0,0.8l-4.1,0l-1.9,0.4c0,0-1.5,0.1-2.4,0.1c-0.3-0.5-0.9-1-1.4-1c-0.6,0-1.5,0.5-1.5,1.5
						s0.9,1.4,1.4,1.4c0.6,0,1.1-0.3,1.4-0.9c0.9,0,2.6,0.1,2.6,0.1l1.9,0.5l4,0l-0.3,24.3c-0.5,2.8-2.6,5.2-5.4,5
						c-2.8-0.1-7.5-3.7-8-9.8l-0.6-0.5l-0.4,0.4c0.1,9.8,8.4,17.3,15.8,10.8l0.1-36.3c-1.9,0.1-2.5-1.2-2.5-2.1
						c0-0.9,0.7-2.2,2.5-2.4l0-2.1c-1.4,0.1-3.9,0.5-4.7,4.1C59.8,57.2,61.6,58.7,63.6,60.4L63.6,60.4z"/>
					<path class="st7" d="M46,84.6c0.2-3.5,1.7-6.3,3.6-8.8c1.3,2.7,2.3,5.6,3.2,8.4C50.2,81.9,49.1,81.1,46,84.6z"/>
					<path class="st8" d="M49.6,75.9c-0.2,2.1-0.4,4.2-0.2,6.3"/>
				</g>
				<path class="st4" d="M65.8,60.4l0,0.8l4.1,0l1.9,0.4c0,0,1.5,0.1,2.4,0.1c0.3-0.5,0.9-1,1.4-1c0.6,0,1.5,0.5,1.5,1.5
					c0,1-0.9,1.4-1.4,1.4c-0.6,0-1.1-0.3-1.4-0.9c-0.9,0-2.6,0.1-2.6,0.1l-1.9,0.5l-4,0l0.3,24.3c0.5,2.8,2.6,5.2,5.4,5
					c2.8-0.1,7.5-3.7,8-9.8l0.6-0.5l0.4,0.4c-0.1,9.8-8.4,17.3-15.8,10.8l-0.1-36.3c1.9,0.1,2.5-1.2,2.5-2.1c0-0.9-0.7-2.2-2.5-2.4
					l0-2.1c1.4,0.1,3.9,0.5,4.7,4.1C69.7,57.2,67.8,58.7,65.8,60.4L65.8,60.4z"/>
			</g>
			<path class="st7" d="M83.4,84.6c-0.2-3.5-1.7-6.3-3.6-8.8c-1.3,2.7-2.3,5.6-3.2,8.4C79.3,81.9,80.4,81.1,83.4,84.6z"/>
			<path class="st8" d="M79.8,75.9c0.2,2.1,0.4,4.2,0.2,6.3"/>
		</g>
		<path class="st4" d="M81.8,47.6l4.8-9.9l-5.3,7.8l3.6-9.9l-5.2,8.7l3.6-9.9l-5,9.2l2.9-10.4l-4.5,10.1l2.1-10.4l-3.9,9.8l2.3-10.6
			l-3,8.9l1.7-10.6l-3,9.4l1.5-10.9l-2.6,9.8l0.8-11.2l-2.3,9.9l0.4-11.1l-1.9,10.2l-0.3-11.1l-1.3,10.9l-0.7-11.6L65.5,36
			l-0.8-11.5v12.9c4.3,0.1,7.1,2.1,9.5,6.6C80.4,43.4,81.8,47.6,81.8,47.6L81.8,47.6z"/>
		<g>
			<circle class="st7" cx="64.8" cy="58" r="2.5"/>
			<path class="st9" d="M64.6,57.1c0,0.4-0.3,0.6-0.6,0.6c-0.4,0-0.6-0.3-0.6-0.6c0-0.4,0.3-0.6,0.6-0.6
				C64.3,56.5,64.6,56.7,64.6,57.1z"/>
		</g>
		<g>
			<path class="st10" d="M42.1,80.4c2.7-7.6,6.5-14.9,11.5-21.6C43.1,63.9,41,71.6,42.1,80.4z"/>
			<path class="st11" d="M45.7,68.8c-0.3-0.7,0.1-2.3,1.5-2l38.4,21.1l-1.4,1.9L45.7,68.8z"/>
			<path class="st12" d="M85.8,89.2c-0.4,0.5-1,0.8-1.3,0.6c-0.4-0.2-0.3-0.8,0.1-1.4c0.4-0.5,1-0.8,1.3-0.6S86.1,88.7,85.8,89.2z"
				/>
			<path class="st11" d="M43.8,67.9l-0.9-0.5c-0.1-1.3,0.5-2,1.6-2.3l0.8,0.5l-1,2.7L43.8,67.9z"/>
			<path class="st11" d="M42,80.4C42,73,43.5,65.8,53.5,58.8C42.9,64.1,41.2,71.9,42,80.4z"/>
		</g>
		<g>
			<path class="st11" d="M81,67c0.2-0.4,0.5-0.5,1-0.5c0.1-0.4,0.3-0.7,1.1-0.5c0.1-0.4,0.3-0.7,1-0.5c0.2-0.6,0.6-0.5,0.9-0.5
				c0.1-0.4,0.5-0.4,0.9-0.3c-0.1-0.8-0.2-1.6,0.5-1.6c0.6-0.1,1.2,0.7,1.7,1.6c0.5,0.9,1,1.9,0.4,2.5c-0.5,0.3-0.9-0.1-1.3-0.4
				c-0.2,0.4-0.4,0.6-0.9,0.5c0,0.4-0.2,0.7-0.9,0.6c-0.1,0.3-0.1,0.7-0.9,0.5c-0.1,0.7-0.5,0.7-1,0.6c-0.1,0.6-0.4,0.8-1,0.6L81,67
				z"/>
			<polygon class="st11" points="80,67.2 43.8,88.7 42.7,91 44.9,91.2 81.8,70.2 			"/>
			<polygon class="st13" points="80,69 43,90.8 80.1,69.6 			"/>
			<polygon class="st11" points="78.5,62.7 84.9,73.6 82.8,75.1 81.8,70.3 79.9,69.5 80,67.2 76.6,64 			"/>
		</g>
		<polygon class="st6" points="63.6,63.3 62.9,87.4 66.5,87.3 65.8,63.3 64.2,63.9 		"/>
		<polygon class="st4" points="63.6,63.3 63.2,91.4 64.7,93.6 64.7,93.6 66.2,87.6 65.8,63.3 		"/>
	</g>
	<path class="st14" d="M64,36l0.8-11.6L65.5,36C64.8,38.5,64.4,37.1,64,36L64,36z"/>
	<g>
		<path class="st15" d="M81.9,66.5l1.5,2.4L81.9,66.5z M81.9,66.5L81.9,66.5L81.9,66.5z"/>
		<path class="st16" d="M81.9,66.5l1.5,2.4 M81.9,66.5L81.9,66.5L81.9,66.5z"/>
	</g>
	<g>
		<path class="st15" d="M83,66.1l1.4,2.3L83,66.1z M83,66.1L83,66.1L83,66.1z"/>
		<path class="st16" d="M83,66.1l1.4,2.3 M83,66.1L83,66.1L83,66.1z"/>
	</g>
	<g>
		<path class="st15" d="M84,65.5l1.4,2.3L84,65.5z M84,65.5L84,65.5L84,65.5z"/>
		<path class="st16" d="M84,65.5l1.4,2.3 M84,65.5L84,65.5L84,65.5z"/>
	</g>
	<g>
		<path class="st15" d="M84.9,65.1l1.3,2.1L84.9,65.1z M84.9,65.1L84.9,65.1L84.9,65.1z"/>
		<path class="st16" d="M84.9,65.1l1.3,2.1 M84.9,65.1L84.9,65.1L84.9,65.1z"/>
	</g>
	<g>
		<path class="st15" d="M85.8,64.7l1.4,2L85.8,64.7z M85.8,64.7L85.8,64.7L85.8,64.7z"/>
		<path class="st16" d="M85.8,64.7l1.4,2 M85.8,64.7L85.8,64.7L85.8,64.7z"/>
	</g>
</g>
</svg>
