<?xml version="1.0" encoding="utf-8"?>
<!-- Generator: Adobe Illustrator 22.0.1, SVG Export Plug-In . SVG Version: 6.00 Build 0)  -->
<svg version="1.1" id="Слой_1" xmlns="http://www.w3.org/2000/svg" xmlns:xlink="http://www.w3.org/1999/xlink" x="0px" y="0px"
	 viewBox="0 0 127.3 127" style="enable-background:new 0 0 127.3 127;" xml:space="preserve">
<style type="text/css">
	.st0{fill:url(#SVGID_1_);}
	.st1{fill:#FFFFFF;}
	.st2{fill:#6B462A;}
	.st3{fill:#0094D9;}
	.st4{fill:#FFE080;}
	.st5{fill:#231F20;}
	.st6{fill:#EE4023;}
	.st7{fill:#008142;}
</style>
<radialGradient id="SVGID_1_" cx="64.8" cy="-554.747" r="62.6" gradientTransform="matrix(1 0 0 -1 0 -490.347)" gradientUnits="userSpaceOnUse">
	<stop  offset="0.9487" style="stop-color:#212121"/>
	<stop  offset="1" style="stop-color:#606060;stop-opacity:0"/>
</radialGradient>
<circle class="st0" cx="64.8" cy="64.4" r="62.6"/>
<circle class="st1" cx="62.6" cy="62.6" r="62.6"/>
<g>
	<path class="st2" d="M71.9,93.3c-1.4-0.1-2.8,0.4-3.8,0.8c-0.3,0.1-0.6,0.2-0.8,0.3c-0.6,0.2-1.2,0.4-1.9,0.5
		c-0.7,0.1-1.4,0.2-2.1,0.2c-0.7,0-1.4,0-2.1-0.2c-0.6-0.1-1.2-0.3-1.9-0.5c-0.3-0.1-0.5-0.2-0.8-0.3c-1-0.4-2.4-0.9-3.8-0.8l0,0
		l-0.3-0.4l-0.4,0.3l-0.2,0.1l-0.4,0.3l0.3,0.4l0.1,0.1l-1-1.2l0-0.3l0-0.5l-0.5,0h-0.1l-0.2-0.2l-0.2,0.2c-0.3-0.3-0.6-0.5-0.9-0.6
		l-0.1-0.6l0-0.5l-0.5,0l-0.2,0l-0.5,0l0,0.5V91l-0.3,0.4c-0.2,0-0.3,0-0.4,0.1l-0.6-2.2l-0.1-0.5L47.9,89l-0.2,0l-0.4,0.1l0.1,0.5
		l0.5,1.9l-0.4-0.3l-1.2-3.4l-0.2-0.4l-0.4,0.2l-0.2,0.1l-0.4,0.2l0.2,0.4l0.6,1.6l-0.1-0.1l-1.5-3.3L44,86l-0.4,0.2l-0.2,0.1
		L43,86.5l0.2,0.4l0.1,0.2l-1.2-2l-0.2-0.4l-0.4,0.2L41.3,85l-0.2,0.1c0,0-0.1,0-0.2,0l-0.9-1.3l-0.3-0.4l-0.4,0.3l-0.2,0.1L38.9,84
		l0.3,0.4l0.3,0.5c-0.3,0-0.7,0-1.1,0L39,83l0-0.4l-0.6-1.3l1.2-3.3l0.2-0.4l-0.4-0.2l-0.2-0.1l-0.4-0.2l-0.2,0.4l-0.8,2.2l-0.4-0.9
		l1.2-3.3l0.2-0.4l-0.4-0.2l-0.2-0.1L37.7,75l-0.2,0.4l-0.8,2.2l-0.4-0.8l0.6-3.5l0.1-0.5l-0.5-0.1l-0.2,0L36,72.7l-0.1,0.5
		l-0.3,1.9l-0.2-0.4l0.3-3.6l0-0.5l-0.5,0l-0.2,0l-0.5,0l0,0.5l-0.1,1.6l-0.1-0.2v-3.6v-0.5h-0.5h-0.2h-0.5V69L33,66.8l0-0.5l-0.5,0
		l-0.2,0l-0.3,0l-0.3-1.7l-0.1-0.5l-0.2,0c0.2-0.3,0.3-0.5,0.5-0.8c0.5-0.8,0.9-1.7,1.4-2.6l2.1-0.9l0.4-0.2l-0.2-0.4l-0.1-0.2
		l-0.2-0.4l-0.4,0.2l-0.9,0.4l0.5-1.2l1.5-1.1l0.4-0.3l-0.3-0.4L36,56.3l-0.3-0.4l-0.3,0.2l-0.3,0.2l0.3-0.8l1.2-1l0.4-0.3l-0.3-0.4
		l-0.1-0.1l-0.3-0.3l0.3-0.6l0.7-0.7l0.3-0.3l-0.3-0.3l-0.1-0.1l-0.3-0.3l-0.4,0.4l1.5-1.8l0.3-0.3l-0.3-0.3l-0.1-0.1l-0.2-0.2
		l1-1.4l0.3-0.4l-0.4-0.3l-0.2-0.1l-0.4-0.3l0-0.1h0l0.7-2l0.2-0.4l-0.4-0.2L38,43.5l-0.4-0.2l-0.2,0.4l-0.9,2.3v0l-0.2-1.9l0.6-1.7
		l1.1,0.2l0.5,0.1l0.1-0.5l0-0.2l0.1-0.5l-0.5-0.1l-0.9-0.2l0.2-0.6l0.1-0.2h3.1v-1.1h-0.5h-2l0.4-0.3l3.6-0.3l0.5,0l0-0.5l0-0.2
		l0-0.5l-0.5,0L40.5,38l0.2-0.1l3.5-0.6l0.5-0.1l-0.1-0.5l0-0.2l-0.1-0.5L44,36.2l-0.2,0l2.2-0.6l0.4-0.1l-0.1-0.4l-0.1-0.2
		l-0.1-0.3l0.3-0.1l1.8,0.8l0.4,0.2l0.2-0.4l0.1-0.2l0.2-0.4l-0.4-0.2L48,33.9l0.3-0.1l-0.2-0.4l-0.1-0.2l0-0.1l2.8,0.8l0.4,0.1
		l0.1-0.4l0-0.2l0.1-0.4l-0.4-0.1l-1.9-0.5l0.5-0.2l3.5,0.6l0.5,0.1l0.1-0.5l0-0.2l0.1-0.4l-0.5-0.1l-1.6-0.3l0.2,0l3.6,0.3l0.5,0
		l0-0.5l0-0.2l0-0.5l-0.5,0l-0.1,0h2.3h0.5v-0.5v-0.2v-0.3l1.7-0.2l0.5,0l0-0.5l0-0.2l0-0.4l0.1,0l2-0.7l0.4-0.2L62.7,27l-0.1-0.2
		l-0.2-0.4L62,26.5l-2.4,0.9l0.1-0.1l1.3-1.4l2.3-0.9l2.3,0.9l1.3,1.4l0.1,0.1l-2.4-0.9l-0.4-0.2l-0.2,0.4L64,27l-0.2,0.4l0.4,0.2
		l2,0.7h0l0.1,0l0,0.4l0,0.2l0,0.5l0.5,0l1.7,0.2v0.3v0.2v0.5h0.5h2.3l-0.1,0l-0.5,0l0,0.5l0,0.2l0,0.5l0.5,0l3.6-0.3l0.2,0
		l-1.6,0.3l-0.5,0.1l0.1,0.4l0,0.2l0.1,0.5l0.5-0.1l3.5-0.6l0.4,0.2l-1.9,0.5L75.1,33l0.1,0.4l0.1,0.2l0.1,0.4l0.5-0.1l2.8-0.8
		l0,0.1l-0.1,0.2l-0.2,0.4l0.3,0.1l-0.7,0.3l-0.4,0.2l0.2,0.4l0.1,0.2l0.2,0.4l0.4-0.2l1.7-0.8l0.3,0.1l-0.1,0.3l0,0.2l-0.1,0.4
		l0.5,0.1l2.2,0.6l-0.2,0l-0.5-0.1l-0.1,0.5l0,0.2L82,37.2l0.5,0.1l3.5,0.6l0.1,0.1l-1.6-0.1l-0.5,0l0,0.5l0,0.2l0,0.5l0.5,0
		l3.6,0.3l0.4,0.3h-2H86v1.1H89l0.1,0.2l0.2,0.6l-0.9,0.2l-0.5,0.1l0.1,0.5l0,0.2l0.1,0.5l0.4-0.1l1.1-0.2l0.6,1.7L90.1,46v0
		l-0.9-2.3l-0.2-0.4l-0.4,0.2l-0.2,0.1l-0.4,0.2l0.2,0.4l0.7,2l0,0.1l-0.4,0.3l-0.2,0.1l-0.4,0.3l0.3,0.4l1,1.4l-0.2,0.2l-0.1,0.1
		l-0.4,0.3l0.3,0.3l1.5,1.8l-0.4-0.4l-0.3,0.3l-0.1,0.1l-0.3,0.3l0.3,0.3l0.7,0.7l0.3,0.6l-0.3,0.3L90,53.9l-0.3,0.4l0.3,0.3l1.2,1
		l0.3,0.8l-0.3-0.2L91,55.9l-0.3,0.4l-0.1,0.2l-0.3,0.4l0.4,0.3l1.5,1.1l0.5,1.2l-0.9-0.4l-0.4-0.2l-0.2,0.4l-0.1,0.2l-0.2,0.4
		l0.4,0.2l2.1,0.9c0.4,0.9,0.9,1.8,1.4,2.6c0.2,0.3,0.3,0.5,0.5,0.8l-0.2,0L95,64.7l-0.3,1.7l-0.3,0l-0.2,0l-0.5,0l0,0.5L93.5,69
		v-0.6H93h-0.2h-0.5v0.5v3.6l-0.1,0.2L92.1,71l0-0.5l-0.5,0l-0.2,0l-0.5,0l0,0.5l0.3,3.6l-0.2,0.4l-0.3-1.9l-0.1-0.5l-0.5,0.1
		l-0.2,0l-0.5,0.1l0.1,0.5l0.6,3.5L90,77.6l-0.8-2.2L89,75l-0.4,0.2l-0.2,0.1L88,75.4l0.2,0.4l1.2,3.3l-0.4,0.9l-0.8-2.2L88,77.3
		l-0.4,0.2l-0.2,0.1l-0.4,0.2l0.2,0.4l1.2,3.3l-0.6,1.3l0,0.4l0.7,1.9c-0.4,0-0.8,0-1.1,0l0.3-0.5l0.3-0.4l-0.4-0.3l-0.2-0.1
		l-0.4-0.3l-0.3,0.4L85.7,85c0,0-0.1,0-0.2,0L85.4,85l-0.2-0.1l-0.4-0.2L84.6,85l-1.2,2l0.1-0.2l0.2-0.4l-0.4-0.2l-0.2-0.1L82.7,86
		l-0.2,0.4L81,89.7l-0.1,0.1l0.6-1.6l0.2-0.4l-0.4-0.2L81,87.6l-0.4-0.2l-0.2,0.4l-1.2,3.4l-0.4,0.3l0.5-1.9l0.1-0.5L79,89.1l-0.2,0
		l-0.4-0.1l-0.1,0.5l-0.6,2.2c-0.2,0-0.3-0.1-0.4-0.1L76.8,91l0-0.1l0-0.5l-0.5,0l-0.2,0l-0.5,0l0,0.5l-0.1,0.6
		c-0.3,0.1-0.6,0.3-0.9,0.6l-0.2-0.2l-0.1,0.2h-0.1l-0.5,0l0,0.5l0,0.3l-1,1.2l0.1-0.1l0.3-0.4l-0.4-0.3l-0.2-0.1l-0.4-0.3
		L71.9,93.3L71.9,93.3L71.9,93.3L71.9,93.3z M69.7,16.3h-0.2l-0.2,0.2l-0.1,0.1L68.8,17l-0.1,0l-1.5-0.7h-1.1l0,0l-0.1,0.2l-0.2,0.4
		l0.4,0.2l2.2,1h0l-1.9,0l-2.8-1.3l-0.2-0.4l-0.3,0.2L63,16.5l-0.2,0.4L60,18.2l-1.9,0h0l2.2-1l0.4-0.2l-0.2-0.4l-0.1-0.2l0,0h-1.1
		L58,17l-0.1,0l-0.3-0.3l-0.1-0.1l-0.2-0.2H57l-0.2,0.2l-1.3,1.1l-0.2-0.2l-0.1-0.1l-0.3-0.3l-0.3,0.3l-1.6,1.6l0.1-0.1l0.3-0.3
		L52.9,18l-0.1-0.1l-0.3-0.3L52.1,18l-2.3,2.8l-0.2,0.1l0.9-1.3l0.3-0.4l-0.4-0.3l-0.2-0.1L50,18.5l-0.3,0.4l-1.2,1.7l-0.2,0.1
		l-0.2-0.2l-0.1,0l0.2-0.3l0.2-0.4L48,19.6l-0.2-0.1l-0.4-0.2l-0.2,0.4l-1,1.8c-0.5,0.2-0.9,0.3-1.2,0.6l0.1-0.2l0.3-0.2l-0.1-0.2
		l0.2-0.5l0.2-0.4l-0.4-0.2L45,20.3l-0.4-0.2l-0.2,0.4l-0.2,0.6l-1.6,1.3l-0.4-0.3l-0.2-0.1l-0.4-0.3l-0.3,0.4l-1,1.4l-0.3-0.2
		l-0.2-0.1l-0.4-0.2l-0.2,0.4l-1,1.7L38,25.8c-0.2,0.2-0.5,0.4-0.7,0.6c-0.2,0.2-0.5,0.3-0.8,0.5c-1.3,0.7-1.8,1.5-1.9,2.4l-0.2,0.2
		l-0.2,0.2c0.2-0.4,0.3-0.9,0.5-1.3c0.7-1.9,1.4-4,2.1-6.4l0.5-2.2L36,21.6c-1.3,2-2.5,3.9-3.5,5.7c-0.3,0.6-0.7,1.2-1,1.8l-0.3,0
		l-0.2,0l-0.5,0l0,0.5l-0.2,1.8c-0.2,0.4-0.4,0.8-0.6,1.3c-0.2,0.4-0.4,0.8-0.5,1.2l-0.1,0.1L29,34.1l0,0.2
		c-0.2,0.4-0.3,0.8-0.5,1.2c-0.1,0.2-0.3,0.3-0.4,0.5c-1,1.2-1.3,2.2-1.1,3.2v0.1l-0.1,0.4c-0.2,0.5-0.3,1-0.5,1.5L26,39.9l0.6-3.5
		l0.1-0.5l-0.5-0.1l-0.2,0l-0.5-0.1l-0.1,0.5l-0.6,3.5l-1.1,1.5l-0.1,0.1l0.5-2.6l0.1-0.5l-0.5-0.1l-0.2,0l-0.5-0.1l-0.1,0.5
		l-0.4,2.1l0,0.1l-0.4,0l-0.2,0l-0.5,0l0,0.5l0.1,1.7l-0.3,0l-0.2,0l-0.5,0.1l0.1,0.5l0.4,2.3l0-0.2l-0.1-0.5l-0.4,0.1l-0.2,0
		l-0.5,0.1l0.1,0.5l0.9,3.2c0,0.1,0,0.1-0.1,0.2l-0.5-1.3l-0.2-0.4L20,47.9L19.8,48l-0.4,0.2l0.2,0.4l1.2,3.4l-0.1,0.5l-0.8-1.8
		l-0.2-0.4l-0.4,0.2L19,50.4l-0.4,0.2l0.2,0.4l1.5,3.2l-0.2,0.8l-1.4-1.9l-0.3-0.4l-0.4,0.3L18,53.2l-0.4,0.3l0.3,0.4l2,2.8
		l-0.2,1.4l0.1,0.3l0.5,0.7L20,59.2l-0.2,0l-0.4,0.1l0.1,0.4l0.5,1.8l-1.7-4l-0.4-0.9l-0.5-0.9l0,1l0,1l1,7.6l-0.1,0l-0.4,0.2
		l0.2,0.4l0.4,0.7l0.1,0.9l-0.1,0.1l-0.4,0.3l0.3,0.4l0.4,0.5l0.2,1.2l-0.1,0.1l-0.3,0.3l0.3,0.4l0.9,1l1.7,4c0,0.1,0,0.1,0,0.2
		c0.1,1.3,0.4,2.2,1,2.9l-1.8-1l-0.4-0.2L20,78.2l-0.1,0.2l-0.2,0.4l0.4,0.2l3,1.7l0.2,0.9l-2-1.2l-0.4-0.2l-0.2,0.4l-0.1,0.2
		l-0.2,0.4l0.4,0.2l3,1.7l0.3,1.4l0.1,0.2l0.2,0.1l2.1,1.2c0.2,0.3,0.4,0.7,0.6,1c0.1,0.2,0.2,0.4,0.2,0.6c-1.4-0.8-2.8-1.5-4.4-2.3
		l-1.5-0.8l1,1.5c2.9,2.6,5.3,4.7,7.8,6.6l0,0.1L30,93.2l0.4,0.2l2.1,1l-0.2,0l-0.4-0.2l-0.2,0.4l-0.1,0.2l-0.2,0.4l0.4,0.2l3.4,1.2
		l0.9,0.9l0.1,0.1l0.3,0.3l0.3,0.3l1.2,1.2h0l0.3,0.3l0.2,0.2l0,0l0.5,0.5c-1-0.1-2-0.1-3-0.2l-0.9,0l-1.1,0l0.9,0.5l0.9,0.4
		c3.3,1,6,1.8,8.7,2.4l0,0v0.2l-4.3,2.1l-0.9,0.4l0.9,0.4l1.3,0.6l0.2,0.1l0.4,0.2l1.2,0.6l0.2,0.1l0.3,0.1l0.9,0.4l0.3,0.1l0.4,0.2
		l0.9,0.4l0.3,0.1l0.3,0.1l0.1,0l0.8,0.4l0.3,0.1l0.1,0l0.2,0.1l0.7,0.3l0.3,0.2l0.2,0.1l0.1,0l0.9,0.4l0.3,0.2l0.2-0.3l4.3-6.1
		c0.1,0,0.3,0,0.4,0c-0.1,0.1-0.1,0.1-0.1,0.2l-0.1,0.2l0,0.2l0,0.1l0.1,0.1l0.1,0.1l0.2,0l0.2,0l0.2,0c0.8-0.2,1.6-0.4,2.2-0.6
		c1.6-0.5,2.8-0.8,4.6-0.9c0.1,0,0.1,0,0.2,0l0,0c1.8,0,3,0.4,4.6,0.9c0.7,0.2,1.4,0.4,2.2,0.6l0.2,0l0.2,0l0.2,0l0.1-0.1l0.1-0.1
		l0-0.1l0-0.2l-0.1-0.2c0-0.1-0.1-0.1-0.1-0.2c0.1,0,0.3,0,0.4,0l4.3,6.1l0.2,0.3l0.3-0.2l0.9-0.4l0.1,0l0.2-0.1l0.3-0.2l0.7-0.3
		l0.2-0.1l0.1,0l0.3-0.1l0.8-0.4l0.1,0l0.3-0.1l0.3-0.1l0.9-0.4l0.4-0.2l0.3-0.1l0.9-0.4l0.3-0.1l0.2-0.1l1.2-0.6l0.4-0.2l0.2-0.1
		l1.3-0.6l0.9-0.4l-0.9-0.4l-4.3-2.1v-0.2l0,0c2.7-0.6,5.5-1.4,8.7-2.4l0.9-0.4l0.9-0.5l-1.1,0l-0.9,0c-1.1,0-2.1,0.1-3,0.2l0.5-0.5
		v0l0.2-0.2l0.3-0.3h0l1.2-1.2l0.3-0.3l0.3-0.3l0.1-0.1l0.9-0.9l3.4-1.2l0.4-0.2L95,94.7l-0.1-0.2l-0.2-0.4l-0.4,0.2l-0.2,0l2.1-1
		l0.4-0.2l-0.2-0.4l0-0.1c2.5-1.9,4.9-4,7.8-6.6l1-1.5l-1.5,0.8c-1.6,0.8-3,1.6-4.4,2.3c0.1-0.2,0.2-0.4,0.2-0.6
		c0.2-0.3,0.3-0.7,0.6-1l2.1-1.2l0.2-0.1l0-0.2l0.4-1.4l3-1.7l0.4-0.2l-0.2-0.4l-0.1-0.2l-0.2-0.4l-0.4,0.2l-2,1.2l0.2-0.9l3-1.7
		l0.4-0.2l-0.2-0.4l-0.1-0.2l-0.2-0.4l-0.4,0.2l-1.8,1c0.5-0.6,0.9-1.5,1-2.9c0-0.1,0-0.1,0-0.2l1.7-4l0.8-1l0.3-0.4l-0.3-0.3
		l-0.1-0.1l0.2-1.2l0.4-0.5l0.3-0.4l-0.4-0.3l-0.1-0.1l0.1-0.9l0.4-0.7l0.2-0.4l-0.4-0.2l-0.1,0l1-7.6v-1l0-1l-0.5,0.9l-0.4,0.9
		l-1.7,4l0.5-1.8l0.1-0.4l-0.5-0.1l-0.2,0l-0.2-0.1l0.5-0.7l0.1-0.3l-0.2-1.4l2-2.8l0.3-0.4l-0.4-0.3l-0.2-0.1l-0.4-0.3l-0.3,0.4
		l-1.4,1.9l-0.2-0.8l1.5-3.2l0.2-0.4l-0.4-0.2l-0.2-0.1l-0.4-0.2l-0.2,0.4l-0.8,1.8l-0.1-0.5l1.2-3.4l0.2-0.4l-0.4-0.2l-0.2-0.1
		l-0.4-0.2l-0.2,0.4l-0.5,1.3c0-0.1,0-0.1,0-0.2l0.9-3.2l0.1-0.5l-0.4-0.1l-0.2,0l-0.4-0.1l-0.1,0.5l0,0.2l0.4-2.3l0.1-0.5l-0.5-0.1
		l-0.2,0l-0.3,0l0.2-1.7l0-0.5l-0.5,0l-0.2,0l-0.4,0l0-0.1l-0.4-2.1l-0.1-0.5l-0.4,0.1l-0.2,0l-0.5,0.1l0.1,0.5l0.4,2.6l-0.1-0.1
		l-1.1-1.5l-0.6-3.5l-0.1-0.5l-0.5,0.1l-0.2,0l-0.5,0.1l0.1,0.5l0.6,3.5l-0.4,1.3c-0.2-0.5-0.3-1-0.5-1.5l-0.1-0.4l0-0.1
		c0.2-1,0-1.9-1.1-3.2c-0.2-0.2-0.3-0.3-0.4-0.5c-0.2-0.4-0.3-0.8-0.5-1.2l0-0.2l-0.2-0.3l-0.1-0.1c-0.2-0.4-0.3-0.8-0.5-1.2
		c-0.2-0.4-0.4-0.8-0.6-1.3l-0.2-1.8l0-0.5l-0.5,0l-0.2,0l-0.3,0c-0.3-0.6-0.6-1.2-1-1.8c-1-1.8-2.2-3.7-3.5-5.7l-1.3-1.8l0.4,2.2
		c0.7,2.3,1.4,4.4,2.2,6.4c0.2,0.4,0.3,0.9,0.5,1.3l-0.2-0.2l-0.2-0.2c-0.1-0.9-0.6-1.7-1.9-2.4c-0.3-0.2-0.5-0.3-0.8-0.5
		c-0.2-0.2-0.5-0.4-0.7-0.6l-0.4-0.5l-1-1.7L87,23.2l-0.4,0.2l-0.2,0.1l-0.3,0.2l-1-1.4L85,21.9l-0.4,0.3l-0.2,0.1l-0.4,0.3
		l-1.6-1.3l-0.2-0.6l-0.2-0.4l-0.4,0.2l-0.2,0.1L81,20.5l0.2,0.4l0.2,0.5l-0.1,0.2l0.3,0.2l0.1,0.2c-0.3-0.2-0.7-0.4-1.1-0.6l-1-1.8
		l-0.2-0.4l-0.4,0.2l-0.2,0.1l-0.4,0.2l0.2,0.4l0.2,0.3l-0.1,0l-0.2,0.2l-0.2-0.1L77,18.8l-0.3-0.4l-0.4,0.3l-0.2,0.1l-0.4,0.3
		l0.3,0.4l0.9,1.3l-0.2-0.1L74.6,18l-0.3-0.3l-0.3,0.3L73.8,18l-0.3,0.3l0.3,0.3l0.1,0.1l-1.6-1.6l-0.3-0.3l-0.3,0.3l-0.1,0.1
		l-0.2,0.2l-1.3-1.1L69.7,16.3L69.7,16.3z M63.3,17.8l2.9,1.3l1.2,1.5l0.1,0.1l-2.3-1.1l-0.4-0.2l-0.2,0.4l-0.1,0.2l-0.2,0.4
		l0.4,0.2l1.9,0.9l0.1,0l-0.1,0.4l0,0.2l-0.1,0.5l0.5,0.1l1.5,0.3l-0.1,0.1l-0.3,0.4l-0.1,0l0,0l-2-0.7l-0.4-0.2L65.4,23l-0.1,0.2
		l-0.2,0.4l0.4,0.2l2.3,0.9h0l-1.9,0.2l-1.3-0.5l-0.1-0.3l-0.1-0.2l-0.2-0.4L64,23.7l-0.6,0.2l-0.6-0.2l-0.4-0.2l-0.2,0.4l-0.1,0.2
		L62,24.4l-1.4,0.5l-1.9-0.2h0l2.3-0.9l0.4-0.2l-0.2-0.4L61.3,23l-0.2-0.4l-0.4,0.2l-2,0.7v0l-0.1,0l-0.3-0.4L58.2,23l1.5-0.3
		l0.5-0.1l-0.1-0.5l0-0.2L60,21.6l0.1,0l1.9-0.9l0.4-0.2l-0.2-0.4l-0.1-0.2L62,19.5l-0.4,0.2l-2.3,1.1l0.1-0.1l1.2-1.5L63.3,17.8
		L63.3,17.8z"/>
	<path class="st3" d="M55.1,93.8c1.6,0,3.2,0.8,4.2,1.1c3,0.9,5.2,0.9,8.1,0c1-0.3,2.5-1.1,4.2-1.1l-0.4,0.6
		c-2.2,1.8-2.8,3.3-3.2,5.7c-0.2,1.4-0.2,3.5,2.5,5.4l0.1,0.1l-0.2,0c-7.8-2-6.4-2-14.2,0l-0.2,0l0.1-0.1c2.6-1.8,2.6-3.9,2.5-5.4
		c-0.4-2.5-1-3.9-3.2-5.7L55.1,93.8L55.1,93.8L55.1,93.8z M88.3,98.8c0.6-0.7,1.3-1.2,1.8-1.9c-1.8-0.9-4.1-1.4-6-2.1l-1.7,0.3
		l-0.4,0.3l2-0.2l0.5,0l0,0.5l0,0.2l0,0.5l-0.5,0l-3.5,0.3l-0.7,0.5l2.3,0.2l0.5,0l0,0.5l0,0.2l0,0.5l-0.5,0l-2.6-0.2
		C83.5,100.2,85.6,101.7,88.3,98.8L88.3,98.8L88.3,98.8z M77.5,92c-0.3-0.1-0.5-0.1-0.7-0.1l-0.1,1.5l0.7-0.5L77.5,92L77.5,92
		L77.5,92z M75.6,92c-0.2,0.1-0.5,0.3-0.7,0.5v0l-0.2,2.3l0.7-0.6L75.6,92L75.6,92L75.6,92z M73.7,93.9c-0.2,0.2-0.5,0.4-0.7,0.6
		c0.2,0.1,0.4,0.2,0.6,0.3L73.7,93.9L73.7,93.9L73.7,93.9z M98.8,88.1c0.3-0.8,0.6-1.6,1.1-2.4c-2.5-0.2-5,0.2-7.5,0
		c-2.4-0.2-4.2-0.5-5.5-0.4l-1,1.4l-0.2,2.4l2.3,0.2l2.6-1.2l0.4-0.2l0.2,0.4l0.1,0.2l0.2,0.4l-0.4,0.2l-1.5,0.7l0.1,0.3l0.1,0.2
		l0.1,0.3c0.3,0,0.5,0.1,0.8,0.1C95,91,97.5,91.8,98.8,88.1L98.8,88.1L98.8,88.1z M104.8,76.2c0.1-0.9,0.1-1.7,0.5-2.6
		c-2.5,0.4-4.8,1.5-7.3,2c-0.1,0-0.2,0-0.2,0L96,76.8l-0.2,0.4l1.7-1l0.4-0.2l0.2,0.4l0.1,0.2l0.2,0.4L98,77.2L95,79l-0.4,0.8
		l2.2-0.8l0.4-0.2l0.2,0.4l0.1,0.2l0.2,0.4L97.2,80L94.6,81c1-0.1,2-0.1,2.9-0.3C101.9,79.9,104.5,80.1,104.8,76.2L104.8,76.2
		L104.8,76.2z M106.1,62.5c-0.2-0.8-0.5-1.7-0.5-2.6c-2.2,1.3-4,3.1-6.2,4.3c-1.5,0.9-2.7,1.5-3.7,2.1l-0.2,1.5l0.8,2.2l2.2-0.8
		l1.8-2.2l0.3-0.4l0.3,0.3l0.1,0.1l0.4,0.3l-0.3,0.4l-1.1,1.3l0.2,0.2l0.1,0.1l0,0c0.1,0,0.2-0.1,0.3-0.2
		C104.7,67,107.2,66.3,106.1,62.5L106.1,62.5L106.1,62.5z M104.5,47.9c-0.4-0.7-0.9-1.5-1.1-2.4c-0.9,0.9-1.6,1.9-2.4,2.9l0,0.1
		l-0.9,3.5l0,0.2l0.6-1.6l0.2-0.4l0.4,0.2l0.2,0.1l0.4,0.2l-0.2,0.4l-1.2,3.4l0.1,0.5l0.8-1.8l0.2-0.4l0.4,0.2l0.2,0.1l0.4,0.2
		l-0.2,0.4l-0.9,2C104.4,52.6,106.5,51.2,104.5,47.9L104.5,47.9L104.5,47.9z M95.1,54.8C95,54.9,94.9,55,94.9,55l0.7,0.7l-0.1-0.5
		L95.1,54.8L95.1,54.8L95.1,54.8z M94.3,56c0,0.1-0.1,0.2-0.1,0.3l1.5,1.9l0.4,0.3l-0.2-0.9L94.3,56L94.3,56L94.3,56z M98.3,36.3
		c-0.5-0.5-0.9-1.1-1.3-1.8c-0.8,1.2-1.4,2.5-2.1,3.8l0.1,0l0.2,0l0.5-0.1l0.1,0.5l0.6,3.5l0.4,0.5l-0.5-2L96,40.3l0.5-0.1l0.2,0
		l0.5-0.1l0.1,0.4l0.1,0.3l0.1,0l0.2,0l0.5-0.1l0.1,0.5l0,0.2c0.2-0.3,0.4-0.6,0.6-0.9l-0.1-0.8L98.5,39l0.5-0.1l0.2,0l0.1,0
		C99.4,38.1,99.1,37.3,98.3,36.3L98.3,36.3L98.3,36.3z M94.5,38.8c-0.2,0.4-0.4,0.8-0.7,1.1c-2.3,3.2-3.8,4.7-2.6,6.3
		c0.4,0.6,0.9,1.1,1.3,1.9c0.1-0.2,0.2-0.3,0.4-0.5l-0.1-0.2L92.6,47l0.4-0.2l0.2-0.1l0.3-0.2L92.7,45l-0.2-0.4l0.4-0.2l0.2-0.1
		l0.4-0.2l-0.4-2.2L93,41.5l0.5-0.1l0.2,0l0.5-0.1l0.1,0.5l0.4,2.4l0,0l0.5-1.8L94.5,38.8L94.5,38.8L94.5,38.8z M95.1,45.2
		C95.1,45.2,95.1,45.1,95.1,45.2l-0.4-0.6l0,0l0.1,0.4L95.1,45.2L95.1,45.2L95.1,45.2z M90,27.2c-0.6-0.3-1.1-0.6-1.6-1.2
		c-0.5,1.8-0.5,3.7-1,5.5c-0.9,3.4-1.7,5-0.2,6c0.5,0.3,1.1,0.6,1.6,1.2c0.5-1.8,1.4-3.5,1.9-5.2C91.6,30.3,92.5,28.7,90,27.2
		L90,27.2L90,27.2z M80,21.8c-0.5-0.2-1.1-0.3-1.6-0.6c0,1.6,0.4,3.3,0.4,4.9c0,3.1-0.3,4.7,1.2,5.2c0.5,0.2,1.1,0.3,1.6,0.6
		c0-1.6,0.4-3.3,0.4-4.9C82.1,24.1,82.5,22.4,80,21.8L80,21.8L80,21.8z M38.5,98.8c-0.6-0.7-1.2-1.2-1.9-1.8
		c1.8-0.9,4.1-1.4,6.1-2.1l1.7,0.3l0.4,0.3l-2-0.2l-0.5,0l0,0.5l0,0.2l0,0.5l0.5,0l3.6,0.3l0.7,0.5l-2.3,0.2l-0.5,0l0,0.5l0,0.2
		l0,0.5l0.5,0l2.6-0.2C43.2,100.2,41,101.7,38.5,98.8L38.5,98.8L38.5,98.8z M49.2,92c0.3-0.1,0.5-0.1,0.7-0.1l0.1,1.5l-0.7-0.5
		L49.2,92L49.2,92L49.2,92z M51.1,92c0.2,0.1,0.5,0.3,0.7,0.5v0l0.2,2.3l-0.7-0.6L51.1,92L51.1,92L51.1,92z M53,93.9
		c0.2,0.2,0.5,0.4,0.7,0.6c-0.2,0.1-0.4,0.2-0.6,0.3L53,93.9L53,93.9L53,93.9z M27.9,88.1c-0.3-0.8-0.6-1.6-1.2-2.4
		c2.5-0.2,5,0.2,7.5,0c2.4-0.2,4.2-0.5,5.5-0.4l1,1.4l0.2,2.4l-2.4,0.2L36,88.1l-0.4-0.2l-0.2,0.4l-0.1,0.2l-0.2,0.4l0.4,0.2
		l1.5,0.7L37,90.1l-0.1,0.2l-0.1,0.3c-0.2,0-0.5,0.1-0.8,0.1C31.7,91,29.2,91.8,27.9,88.1L27.9,88.1L27.9,88.1z M21.9,76.2
		c-0.1-0.9-0.1-1.7-0.5-2.6c2.5,0.4,4.8,1.5,7.3,2c0.1,0,0.2,0,0.2,0l1.8,1.3l0.2,0.4l-1.7-1L28.8,76l-0.2,0.4l-0.1,0.2L28.3,77
		l0.4,0.2l3.1,1.8l0.4,0.8L29.9,79l-0.4-0.2l-0.2,0.4l-0.1,0.2l-0.2,0.4l0.4,0.2L32,81c-1-0.1-2-0.1-2.9-0.3
		C24.8,79.9,22.2,80.1,21.9,76.2L21.9,76.2L21.9,76.2z M20.6,62.5c0.2-0.8,0.5-1.7,0.4-2.6c2.2,1.3,4,3.1,6.2,4.3
		c1.5,0.9,2.7,1.5,3.7,2.1l0.3,1.5L30.3,70l-2.2-0.8L26.2,67L26,66.6l-0.3,0.3L25.5,67l-0.3,0.3l0.3,0.4l1.1,1.3l-0.2,0.2l-0.1,0.1
		l0,0c-0.1,0-0.2-0.1-0.3-0.2C22,67,19.5,66.3,20.6,62.5L20.6,62.5L20.6,62.5z M22.2,47.9c0.4-0.7,0.9-1.5,1.1-2.4
		c0.9,0.9,1.6,1.9,2.4,2.9l0,0.1l0.9,3.5l0,0.2L26,50.6l-0.2-0.4l-0.4,0.2l-0.2,0.1l-0.4,0.2L25,51l1.2,3.4l-0.1,0.5L25.3,53
		l-0.2-0.4l-0.4,0.2l-0.2,0.1l-0.4,0.2l0.2,0.4l0.9,2C22.2,52.6,20.2,51.2,22.2,47.9L22.2,47.9L22.2,47.9z M31.6,54.8
		c0.1,0.1,0.1,0.2,0.2,0.2l-0.7,0.7l0.1-0.5L31.6,54.8L31.6,54.8L31.6,54.8z M32.4,56c0,0.1,0.1,0.2,0.1,0.3l-1.5,1.9l-0.4,0.3
		l0.2-0.9L32.4,56L32.4,56L32.4,56z M28.4,36.3c0.5-0.5,0.9-1.1,1.3-1.8c0.8,1.2,1.4,2.5,2.1,3.8l-0.1,0l-0.2,0l-0.4-0.1L31,38.6
		l-0.6,3.5L30,42.7l0.5-2l0.1-0.4l-0.4-0.1l-0.2,0L29.6,40l-0.1,0.4l-0.1,0.3l-0.1,0l-0.2,0l-0.5-0.1L28.6,41l0,0.2
		c-0.2-0.3-0.4-0.6-0.6-0.9l0.1-0.8l0.1-0.5l-0.5-0.1l-0.2,0l-0.1,0C27.3,38.1,27.6,37.3,28.4,36.3L28.4,36.3L28.4,36.3z M32.1,38.8
		c0.2,0.4,0.5,0.8,0.7,1.1c2.2,3.2,3.8,4.7,2.5,6.3c-0.4,0.6-0.9,1.1-1.3,1.9c-0.1-0.2-0.2-0.3-0.4-0.5l0.1-0.2l0.2-0.4l-0.4-0.2
		l-0.2-0.1l-0.3-0.2L34,45l0.2-0.4l-0.4-0.2l-0.2-0.1l-0.4-0.2l0.4-2.2l0.1-0.5l-0.5-0.1l-0.2,0l-0.5-0.1l-0.1,0.5l-0.4,2.4v0
		l-0.5-1.8L32.1,38.8L32.1,38.8L32.1,38.8z M31.6,45.2C31.6,45.2,31.6,45.1,31.6,45.2l0.4-0.6l0,0l-0.1,0.4L31.6,45.2L31.6,45.2
		L31.6,45.2z M36.7,27.2c0.5-0.3,1.1-0.6,1.6-1.2c0.5,1.8,0.5,3.7,1,5.5c0.9,3.4,1.7,5,0.2,6c-0.5,0.3-1.1,0.6-1.6,1.2
		c-0.5-1.8-1.4-3.5-1.9-5.2C35.1,30.3,34.2,28.7,36.7,27.2L36.7,27.2L36.7,27.2z M46.7,21.8c0.5-0.2,1.1-0.3,1.6-0.6
		c0,1.6-0.4,3.3-0.4,4.9c0,3.1,0.3,4.7-1.2,5.2c-0.5,0.2-1.1,0.3-1.6,0.6c0-1.6-0.4-3.3-0.4-4.9C44.6,24.1,44.2,22.4,46.7,21.8
		L46.7,21.8L46.7,21.8z"/>
	<path class="st4" d="M60.7,25.5L59.4,27l-2.2-0.3l1.5-1.6l2,0.2l3.5-1.2l0.1,0.2L60.7,25.5L60.7,25.5z M60.2,18.8L59,20.3l-2.2,0
		l1.4-1.7l2,0.1l2.4-1.1l0.2,0.1L60.2,18.8L60.2,18.8z M57.2,17.8L57.2,17.8l2.9-1.4l0.1,0.2l-3.1,1.5l-0.8,2.2l-1.7,0.8l0.9-2.5
		L57.2,17.8L57.2,17.8z M54.9,18.9L54,21.3l-1.7,0.8l0.9-2.5l1-0.5l2.8-2.4l0.1,0.2L54.9,18.9L54.9,18.9z M52.7,19.9l-0.9,2.5
		l-1.7,0.8l0.9-2.5l1.2-0.6l2.6-2.6l0.1,0.1L52.7,19.9L52.7,19.9z M50.5,20.9l-0.9,2.5l-1,0.5c0-0.1,0-0.1,0-0.2
		c0.1-0.6,0.2-1.3,0.2-1.9l0-0.1l1.3-0.6l2.4-2.8l0.2,0.1L50.5,20.9L50.5,20.9z M48.8,20.9l1.2-1.8l0.2,0.1l-1.4,2c0,0,0,0,0,0V20.9
		L48.8,20.9z M46.9,21.3l0.8-1.4l0.2,0.1l-0.7,1.2C47,21.2,46.9,21.3,46.9,21.3L46.9,21.3L46.9,21.3z M43.9,23.3l0.2-0.7l0.3-0.2
		l-0.3,0.8L43.9,23.3L43.9,23.3z M44.8,20.9l0.1-0.2l0.2,0.1l-0.1,0.3L44.8,20.9L44.8,20.9z M58.9,21.6L58.9,21.6l2.9-1.4l-0.1-0.2
		l-3.1,1.4l-2.2-0.8l-1.7,0.8l2.5,0.9L58.9,21.6L58.9,21.6z M56.7,22.7l-2.5-0.9l-1.7,0.8l2.5,0.9l1-0.5l3.6-0.6l0-0.2L56.7,22.7
		L56.7,22.7z M54.5,23.7L52,22.8l-1.7,0.8l2.5,0.9l1.2-0.6l3.7-0.3l0-0.2L54.5,23.7L54.5,23.7z M52.3,24.7l-2.4-0.9l-1.3,0.6
		c0,0.1,0,0.2,0,0.3l2.1,0.8l1.3-0.6h3.7v-0.2H52.3L52.3,24.7z M50.1,25.8l-1.6-0.6c0,0.3,0,0.6,0,0.9c0,0.2,0,0.3,0,0.4l1.3-0.6
		l3.7,0.3l0-0.2L50.1,25.8L50.1,25.8z M48.4,27.1l1.8,0.3l0,0l0.2-0.1l-2-0.4C48.4,26.9,48.4,27,48.4,27.1L48.4,27.1L48.4,27.1z
		 M50.9,27.5l0.3,0l0-0.2l-0.5-0.1L50.9,27.5L50.9,27.5L50.9,27.5z M57.8,24.3L57.8,24.3l3-1.1l0.1,0.2l-3.2,1.2l-1,2.1l-1.7,0.6
		l0.9-1.9H56v-0.4L57.8,24.3L57.8,24.3z M55.4,25.4l-1,2.1l-1.7,0.6l0.7-1.5h0l0.5,0l0-0.5l0-0.2l0-0.4l0.9-0.3l0,0H55.4L55.4,25.4z
		 M56,24.5l0.5-0.4l0.4,0L56,24.8v0V24.5L56,24.5z M52.9,26.7l-0.8,1.7L50.3,29l0.2-0.5l0.3-0.2l0.3-0.2l0.3,0.1l0.1-0.5l0-0.2
		l0.1-0.5l-0.5-0.1h0l0.2-0.3l0.2-0.1L52.9,26.7L52.9,26.7z M53.4,25.6l0.2-0.2h0.3l-0.3,0.2L53.4,25.6L53.4,25.6L53.4,25.6z
		 M50.9,26.8L50.9,26.8l-0.2,0l0.3-0.3l0.2,0L50.9,26.8L50.9,26.8z M49.9,29l-0.1,0.2l-0.4,0.2L49.9,29L49.9,29z M48.7,28.4
		L48.7,28.4l0.3-0.8l0.6,0.1L48.7,28.4L48.7,28.4z M52,25.5L52,25.5l0.3-0.1l-0.1,0.1L52,25.5L52,25.5z M48.6,27.7l-0.2,0.4
		c0-0.2,0-0.3,0-0.5l0-0.1L48.6,27.7L48.6,27.7L48.6,27.7z M49.6,26.5l-0.1,0.1l-0.1,0L49.6,26.5L49.6,26.5z M59.2,28.2L59.2,28.2
		l3.1-1.1l-0.1-0.2L59,28.1l-2.1-1l-1.7,0.6l2.4,1.1L59.2,28.2L59.2,28.2z M56.9,29.1L54.5,28l-1.7,0.6l2.4,1.1l1.1-0.4l3.7-0.3
		l0-0.2L56.9,29.1L56.9,29.1z M54.6,29.9l-2.4-1.1l-1.7,0.6l2.4,1.1l1.2-0.4h3.7v-0.2H54.6L54.6,29.9z M52.3,30.7l-2.4-1.1l-1.7,0.6
		c0,0,0,0,0,0l0.8,0.4l0.1,0l0.4-0.3l0.3,0.4l0.1,0.2l0.2,0.2l0.6,0.2l1.3-0.5l3.7,0.3l0-0.2L52.3,30.7L52.3,30.7z M50,31.6
		l-0.2-0.1l-0.1,0l-0.4,0.3l0.3-0.1l3.6,0.6l0-0.2L50,31.6L50,31.6z M48.7,30.9l-0.6-0.3c-0.2,0.3-0.4,0.6-0.8,0.8l-0.1,0.2l0.2,0.1
		L48.7,30.9L48.7,30.9z M48.1,32.7l2.9,0.8l0-0.2l-2.8-0.7L48.1,32.7L48.1,32.7z M47.2,34.3l1.3,0.6l0.1-0.2l-1.2-0.5L47.2,34.3
		L47.2,34.3z M44.2,25.6L42.4,26l0.9-2l0.9-0.2C44.1,24.3,44.1,24.9,44.2,25.6L44.2,25.6L44.2,25.6z M42.1,23.5L42.1,23.5l2.5-2.1
		l0.1,0.1l-2.6,2.2l-0.2,2.3l-1.4,1.2l0.2-2.6L42.1,23.5L42.1,23.5z M40.3,25.1l-0.2,2.6l-0.8,0.7c-0.1-0.7-0.2-1.4-0.4-2.1l0-0.1
		l0.9-0.7l2.1-3l0.2,0.1L40.3,25.1L40.3,25.1z M38.7,25.8l1.1-2l0.2,0.1L38.8,26c0,0,0,0,0,0L38.7,25.8L38.7,25.8z M35,31.9L34.9,32
		l0-0.5C35,31.7,35,31.8,35,31.9L35,31.9L35,31.9z M34.6,30.2l-0.2,2.2L33,33.6l0.1-1.5c0.2-0.5,0.4-1,0.7-1.6l0.8-0.7
		C34.6,30,34.6,30.1,34.6,30.2L34.6,30.2L34.6,30.2z M32.6,33.3L32.6,34l0,0h0v0l-0.3,0.3c0.1-0.2,0.2-0.4,0.3-0.6
		C32.5,33.6,32.6,33.4,32.6,33.3L32.6,33.3L32.6,33.3z M31,30.1l0.1-0.7l0.2,0l0,0.2C31.1,29.9,31.1,30,31,30.1L31,30.1L31,30.1z
		 M44.2,26.7l-2-0.2l-1.4,1.2l2.6,0.2l0.8-0.6c0-0.1,0-0.2,0-0.3C44.2,26.9,44.2,26.8,44.2,26.7L44.2,26.7L44.2,26.7z M43,28.3
		l-2.6-0.2l-1.1,0.9c0,0.1,0,0.2,0,0.3l2.2,0.2l0.4-0.3L42,29l0,0l0.4-0.3l1.8-0.8c0-0.1,0-0.1,0-0.2L43,28.3L43,28.3z M41.1,29.9
		l-1.7-0.2c0,0.3,0.1,0.6,0.2,0.9l0.2-0.4l0.4,0.2l0.1,0.1l0.4-0.3l0.7-0.2l0.2-0.3L41.1,29.9L41.1,29.9z M42.6,29.5l0.3-0.1
		l0.2-0.3l-0.7,0.3l0.1,0L42.6,29.5L42.6,29.5z M40.4,31.3L40.4,31.3l0.2-0.2h0l-0.1,0.1L40.4,31.3L40.4,31.3z M35.1,32.8l-0.4,0
		L33.3,34l1.3,0.1l0.3-0.9L35.1,32.8L35.1,32.8z M34.5,34.5l-1-0.1l0,0.3l-0.2,1l0.7,0.1L34.5,34.5L34.5,34.5z M32.3,34.8l-0.7,0.6
		c0,0.1,0,0.1-0.1,0.2l0.7,0L32.3,34.8L32.3,34.8z M35.6,34.7l0.3,0c0-0.1,0-0.1-0.1-0.2h-0.1L35.6,34.7L35.6,34.7z M31.8,37.3
		L31.8,37.3l0.3-1.3l-0.8-0.1c0,0.1-0.1,0.1-0.1,0.2c0.2,0.3,0.3,0.6,0.5,0.9C31.7,37.1,31.8,37.2,31.8,37.3L31.8,37.3L31.8,37.3z
		 M33.2,36.5l0.2-0.2l0.4,0l0.1-0.2l-0.7-0.1L33.2,36.5L33.2,36.5z M44.6,32.1l-0.1,0l0.1-0.2c0,0,0,0,0,0V32.1L44.6,32.1z
		 M48.4,29.2l2.1-1.5l0.1,0.2l-2.2,1.6C48.4,29.4,48.4,29.3,48.4,29.2L48.4,29.2L48.4,29.2z M44.4,29.8L44.4,29.8L44,32.2l-1.5,1.1
		l0.5-2.6l1.5-1C44.4,29.7,44.4,29.8,44.4,29.8L44.4,29.8L44.4,29.8z M42.4,31L42,33.6l-1.4,1c0-0.1,0-0.2-0.1-0.2l0.4-2.3l0.9-0.7
		l2.4-2.8l0.1,0.1c0,0,0,0.1,0,0.1L42.4,31L42.4,31z M40.4,32.4l-0.2,1c0-0.2-0.1-0.3-0.1-0.5c0-0.1,0-0.2-0.1-0.3l2.1-2.9l0.2,0.1
		L40.4,32.4L40.4,32.4z M36.8,37.2l-0.4,0.3l0.1-0.8C36.7,36.8,36.8,37,36.8,37.2L36.8,37.2L36.8,37.2z M39.7,31.3l0.3-0.4l0.2,0.1
		l-0.3,0.6c0,0,0,0,0-0.1C39.7,31.4,39.7,31.3,39.7,31.3L39.7,31.3L39.7,31.3z M36.3,35.9L36,37.8l-1.5,1.1l0.5-2.6l1.2-0.9
		C36.2,35.6,36.2,35.7,36.3,35.9L36.3,35.9L36.3,35.9z M34.4,36.6L34,39.2l-0.7,0.5c0,0,0,0,0,0c-0.2-0.3-0.4-0.5-0.5-0.8l0.2-1.2
		l1.3-0.9l1.3-3.5c0,0.1,0,0.2,0.1,0.3c0,0,0,0,0,0L34.4,36.6L34.4,36.6z M32.2,38.1l0.6-3.5l0.2,0l-0.7,3.7
		C32.3,38.2,32.3,38.1,32.2,38.1L32.2,38.1L32.2,38.1z M46.8,33L46.8,33l2.7-1.9L49.4,31l-2.8,2l-1.9-0.3l-0.1,0v-0.1l-0.4-0.1
		l-1.5,1.1l2.6,0.5L46.8,33L46.8,33z M44.8,34.4L42.3,34L40.7,35l2.6,0.5l0.9-0.7l3.5-1.3l-0.1-0.2L44.8,34.4L44.8,34.4z M42.8,35.8
		l-2.1-0.4c0.1,0.5,0.1,0.9,0,1.3l0.6,0.1l1.1-0.7l3.6-1l0-0.2L42.8,35.8L42.8,35.8z M40.8,37.2l-0.3,0c-0.1,0.2-0.3,0.4-0.5,0.6
		l0.4-0.3l3.6-0.7l0-0.2L40.8,37.2L40.8,37.2z M37,37.6l-0.3,0.2l0.4,0.1C37.1,37.8,37.1,37.7,37,37.6L37,37.6L37,37.6z M38.8,38.6
		L38.8,38.6c-0.2,0.1-0.4,0.2-0.5,0.4l0.2-0.2l3.7-0.3l0-0.2L38.8,38.6L38.8,38.6z M37.3,38.4l-1-0.2l-1.5,1.1l2.6,0.5l0.3-0.2
		l-0.2-0.6C37.4,38.7,37.3,38.5,37.3,38.4L37.3,38.4L37.3,38.4z M36.8,40l-2.6-0.5l-0.7,0.5c0.2,0.3,0.4,0.5,0.6,0.8l1.2,0.2
		l1.2-0.9h0.1l0.1-0.2l0.4,0.2l0.1,0h3V40H36.8L36.8,40z M34.6,41.6L34.6,41.6l1.5,0.2l0.1-0.2l-1.7-0.3
		C34.5,41.4,34.5,41.5,34.6,41.6L34.6,41.6L34.6,41.6z M37.1,42l1,0.2l0-0.2l-1-0.2L37.1,42L37.1,42z M25.4,39.9l-1.2,1.6l0.6,2.1
		l1.3-1.8l-0.6-1.9l0.6-3.6l-0.2,0L25.4,39.9L25.4,39.9z M27.1,42.2l0.5-2.8l-0.2,0l-0.5,2.8L27.1,42.2L27.1,42.2z M26.7,42.8
		l-1.8,1.3l-0.3,1.8l0.5-0.4v-0.8h0.5h0.2h0.4L26.7,42.8L26.7,42.8z M25.1,46.1l-0.4,0.3c0.1,0.2,0.3,0.4,0.4,0.5l0,0V46.1
		L25.1,46.1z M26.5,47.3l0.1-0.2l0-0.1L26.5,47.3L26.5,47.3z M23,54.7l-0.1,0.7l0,0.1l0.3-0.2L23,54.7L23,54.7z M23.3,55.8l-0.2,0.1
		l0.1,0.2l0-0.1l-0.1-0.1L23.3,55.8L23.3,55.8L23.3,55.8z M22.5,57.6L22.5,58l0.1-0.1L22.5,57.6L22.5,57.6z M22.4,58.5l0,0.1
		l0.1,0.2l0.1-0.4L22.4,58.5L22.4,58.5z M23,41.9L23,41.9l0.6-3.2l0.2,0l-0.6,3.4l1.4,1.9l-0.3,1.8c-0.1-0.1-0.2-0.2-0.3-0.3
		l-1.3-1.8L23,41.9L23,41.9z M22.5,44.3l0.4,0.6l-0.1,0.5c-0.1,0.4-0.2,0.7-0.4,1l-0.2-0.3l0.2-1.1l-0.3-3.7l0.2,0L22.5,44.3
		L22.5,44.3z M22.1,46.7l0.1,0.2c-0.1,0.2-0.2,0.3-0.2,0.4l0-0.1l-0.7-3.6l0.2,0L22.1,46.7L22.1,46.7z M21.3,48.5l-0.7-2.6l0.2,0
		l0.6,2.4C21.4,48.3,21.4,48.4,21.3,48.5L21.3,48.5L21.3,48.5z M22.8,53.7l-0.2,0.8l-0.1-0.3l-0.2-0.4L21.9,54l-0.2,0.1l-0.2,0.1
		l-0.6-0.8l0.3-1.5l-1.3-3.5l0.2-0.1l0.8,2.2C21,51.7,21.7,52.6,22.8,53.7L22.8,53.7L22.8,53.7z M20.8,53.9l0.7,1l0.7,1.8L22,57.9
		l-0.7-1l0-0.1L21,56.4l0,0l-0.5-0.7l0.3-1.5l-1.6-3.4l0.2-0.1L20.8,53.9L20.8,53.9z M20.9,59.2l-0.8-1.1l0.2-0.9l0.1,0.1l1.4,2.4
		c-0.1-0.1-0.3-0.2-0.4-0.3L20.9,59.2L20.9,59.2z M20.3,56.8l0-0.2l-2.1-3l0.2-0.1l2.2,3.2l-0.2,0.1L20.3,56.8L20.3,56.8z
		 M36.4,21.8c-1.5,4.7-2.8,8.3-4.4,11.8c-0.3,0.7-0.7,1.4-1,2.1c-0.2-0.3-0.3-0.6-0.5-0.9l1.9-4.4l-2.1,4.1c0,0-0.1-0.1-0.1-0.2
		l-0.3-0.5c0.2-0.3,0.3-0.7,0.5-1C31.8,29.3,33.8,25.9,36.4,21.8L36.4,21.8L36.4,21.8z M30.9,42.3L29.7,44l0.6,2.1l1.3-1.8L31,42.4
		l0.6-3.6l-0.2,0L30.9,42.3L30.9,42.3z M29.2,44.6l-0.1-0.5l0,0.3L29.2,44.6L29.2,44.6z M29.2,44.1l0-0.2l0,0L29.2,44.1L29.2,44.1z
		 M29.3,43.7l0.8-3.1l-0.2,0L29.5,42L29.3,43.7L29.3,43.7L29.3,43.7z M25.3,59l-0.1,0.5l0.2-0.1l0-0.3L25.3,59L25.3,59z M25.2,59.9
		L25,60.1l-0.5,1.7c0,0,0,0,0,0l0,0h0l0.9-0.5l-0.3-0.4l-0.1-0.3L25.2,59.9L25.2,59.9z M26.1,62.9L26.1,62.9l0.2-0.5l-0.5-0.8
		l-0.8,0.5l0,0C25.3,62.4,25.7,62.7,26.1,62.9L26.1,62.9L26.1,62.9z M26.5,45.6l0.6-2.3l0,0.5v0.1l-0.5,1.7L26.5,45.6L26.5,45.6z
		 M27.1,43.3l0.2-0.6l0.2,0l-0.2,0.5L27.1,43.3L27.1,43.3z M26.1,47.9l-0.2-0.3l0.5-1.7l0,0.2l0.4,2.3l0-0.2l-0.1-0.4l-0.5,0.1
		L26.1,47.9L26.1,47.9z M25.6,47.5v-2.3h0.2v2.5C25.7,47.7,25.6,47.6,25.6,47.5L25.6,47.5L25.6,47.5z M25.5,56.4L25.3,57l-1-1.8
		c0.3,0.3,0.6,0.6,0.9,0.9l0,0C25.3,56.2,25.4,56.3,25.5,56.4L25.5,56.4L25.5,56.4z M23.9,55.3L23.9,55.3l-0.2,0.2l-0.3-1.1
		c0.1,0.1,0.2,0.2,0.3,0.3L23.9,55.3L23.9,55.3z M24.9,58.5l-0.2,0.9l-1.3-2.3l0.2-0.6L24.9,58.5L24.9,58.5z M23.2,57.7l1.3,2.3
		l-0.4,1.5l0,0c0,0,0,0,0,0c0,0,0,0,0,0l0,0c0,0,0,0,0,0c-0.1-0.1-0.2-0.2-0.3-0.3l-1-1.7l0.4-1.5l-1.3-3.5l0.2-0.1L23.2,57.7
		L23.2,57.7z M22.5,60.3l-1.8-3.2l0.2-0.1l2,3.5C22.8,60.5,22.7,60.4,22.5,60.3L22.5,60.3L22.5,60.3z M32.6,45L32.6,45l0.5-3.2
		l-0.2,0l-0.6,3.4l-1.9,1.4l-0.3,1.8l2.1-1.5L32.6,45L32.6,45z M32.1,47.4L30,49l-0.3,1.8l2.2-1.5l0.2-1.1l1.6-3.3l-0.2-0.1
		L32.1,47.4L32.1,47.4z M31.7,49.9l-2.1,1.5l-0.3,1.8l2.2-1.5l0.2-1.3l1.9-3.2l-0.2-0.1L31.7,49.9L31.7,49.9z M31.3,52.3l-2.1,1.5
		l-0.3,1.8l2.2-1.5l0.2-1.4l2.1-3l-0.2-0.1L31.3,52.3L31.3,52.3z M30.9,54.7l-2.1,1.5L28.4,58l2.1-1.5l0.3-1.5l2.4-2.8L33,52.1
		L30.9,54.7L30.9,54.7z M30.4,57.1l-2.1,1.5L28,60.4l2.1-1.5l0.3-1.5l2.6-2.6l-0.1-0.1L30.4,57.1L30.4,57.1z M27.9,61l-0.3,1.8
		l2.1-1.5l0.3-1.6l3-2.1l-0.1-0.2L27.9,61L27.9,61z M28.5,44.3L28.5,44.3l0.6-3.2l0.2,0l-0.6,3.4l1.3,1.9l-0.3,1.8l-1.5-2.1
		L28.5,44.3L28.5,44.3z M28,46.7l1.5,2.1l-0.3,1.8l-1.5-2.1l0.2-1.1l-0.3-3.7l0.2,0L28,46.7L28,46.7z M27.6,49.1l1.5,2.1l-0.3,1.8
		L27.3,51l0.2-1.3L26.9,46l0.2,0L27.6,49.1L27.6,49.1z M27.2,51.6l1.5,2.1l-0.3,1.8l-1.5-2.1l0.3-1.4l-1-3.6l0.2,0L27.2,51.6
		L27.2,51.6z M26.8,54l1.5,2.1l-0.3,1.8l-1.5-2.1l0.2-1.5l-1.3-3.5l0.2-0.1L26.8,54L26.8,54z M26.3,56.4l1.5,2.1l-0.3,1.8L26,58.2
		l0.3-1.5l-1.6-3.4l0.2-0.1L26.3,56.4L26.3,56.4z M27.4,60.9l-0.3,1.8l-1.5-2.1l0.3-1.6l-2.1-3l0.2-0.1L27.4,60.9L27.4,60.9z
		 M36,43.8l1.2-3.2L37,40.6l-1.1,3C35.9,43.7,36,43.8,36,43.8L36,43.8L36,43.8z M36.9,47L36.9,47L38,44l-0.2-0.1l-1.2,3.2l-2,1
		c0,0.1-0.1,0.2-0.1,0.2l-0.3,0.6l-0.3,0.9l2.4-1.1L36.9,47L36.9,47z M36.1,49.3l-2.4,1.1l-0.5,1.2l0.1,0.1l0.1,0.1l0.1,0.1l1.9-0.9
		l0.4-1.1l2.1-3l-0.2-0.1L36.1,49.3L36.1,49.3z M35.3,51.6l-1.6,0.7l-0.1,0.2l-1,1.2l-0.3,0.7l0.3-0.1l0.3-0.3l0.1,0.1l1.6-0.7
		l0.1-0.1l0.4-1.1l2.4-2.8l-0.1-0.1L35.3,51.6L35.3,51.6z M34,54.1l-0.7,0.3l0.2,0.3L34,54.1L34,54.1z M32.8,55.7
		C32.8,55.7,32.8,55.7,32.8,55.7l0.1-0.1L32.8,55.7L32.8,55.7L32.8,55.7z M35.7,54.6l0.6-0.5L36.2,54l-0.3,0.2L35.7,54.6L35.7,54.6z
		 M34.6,57.5l1.1-0.8l-0.1-0.2l-0.9,0.6L34.6,57.5L34.6,57.5z M33.4,60.3l1.7-0.8l-0.1-0.2l-1.6,0.7L33.4,60.3L33.4,60.3z
		 M33.5,48.1C33.5,48.1,33.5,48.1,33.5,48.1L33.5,48.1c0.1,0.1,0.2,0.2,0.2,0.3l0.2,0.2l-0.3,0.7l0,0l-0.2-0.1l-0.3-0.2l-0.1-0.1
		L33.5,48.1L33.5,48.1L33.5,48.1z M32.8,49.3L32.8,49.3L32.8,49.3l-0.1,0.2L32.8,49.3L32.8,49.3z M33.1,50.9l-0.3,0.8l-0.1,0.1
		l-0.1,0.1l-0.1-0.2L33.1,50.9L33.1,50.9z M32.2,52.1l0.1,0.2l-0.7,0.8l0-0.2L32.2,52.1L32.2,52.1z M31.9,57.6l4.6-5.9
		c-2.1,5.1-2.9,9.2-6.3,13.7l-1-0.5l1.9-3.6l-2.4,3.4c-0.3-0.2-0.6-0.3-0.9-0.5l0.1-0.6l2-1.2l0.5-2.3l2.8-2l0.4-0.3l-0.3-0.4
		l-0.1-0.2L33,56.9l-0.4,0.3L31.9,57.6L31.9,57.6z M18.5,62.5l-0.6-4.7l2.1,5.1c-0.1,0.6-0.2,1.1-0.2,1.6l-0.5-1.7l-0.1-0.4
		l-0.4,0.1l-0.2,0L18.5,62.5L18.5,62.5z M31.1,84.3l0.3,1c-0.3,0-0.6,0-0.9,0c-0.1,0-0.2,0-0.4,0l-0.8-0.5l-0.4-1.5l-3.2-1.8
		l0.1-0.2L31.1,84.3L31.1,84.3z M31.6,84.1l0.3,1.2c0.2,0,0.4,0,0.5,0l1-1.6l-0.1-0.4l-1-0.4L31.6,84.1L31.6,84.1z M33,82L33,82
		l0-0.3L32.8,82L33,82L33,82z M26,69.8l0.1,0.1l1.6,1.6l-0.1-0.1l-0.3-0.3l-0.2,0.2l-1.6-0.9l-0.3-1.1l0-0.1
		c0.1,0.1,0.3,0.2,0.4,0.2l0,0C25.7,69.7,25.9,69.7,26,69.8L26,69.8L26,69.8z M25.7,71.1l1.1,0.7L26.6,72l0.3,0.3l1.3,1.1l0.1,0.4
		L28,73.6l-0.2,0.3l-1.7-1l-0.3-1.3l-2.1-3l0.2-0.1L25.7,71.1L25.7,71.1z M26.3,73.5l1.3,0.8l-0.2,0.3l0.4,0.3l0.2,0.1
		c-0.4-0.1-0.9-0.2-1.3-0.4l-0.2-0.7L24,71l0.2-0.1L26.3,73.5L26.3,73.5z M24.9,74l-0.4-0.4l0.1-0.1l0.7,0.7c0,0-0.1,0-0.1,0
		C25.1,74.1,25,74,24.9,74L24.9,74L24.9,74z M30.6,82.3l0.4,1.3l-2.3-1.3L28.3,81c0.2,0,0.4,0.1,0.7,0.1c0.1,0,0.2,0,0.3,0l1,0.5
		l-0.1,0.4L30.6,82.3L30.6,82.3L30.6,82.3z M28.8,73.9l0,0.1L28.8,73.9L28.8,73.9L28.8,73.9z M29.3,74.3l-0.1,0.1l0.6,0.4l-0.1-0.2
		L29.3,74.3L29.3,74.3z M31.1,82.5l0.3,1l0.4-0.7L31.1,82.5L31.1,82.5z M32.4,81.8l0.2-0.3c-0.5,0-0.9,0-1.3-0.1L32.4,81.8
		L32.4,81.8z M26.4,82.3l0.2,0.9l0.3-0.6L26.4,82.3L26.4,82.3z M27.5,81.6l0.3-0.6l-0.3-0.2c0,0-0.1,0-0.1,0c-0.3,0-0.6-0.1-0.9-0.1
		L26.4,81L27.5,81.6L27.5,81.6z M25.9,80.6l0,0.1l0,0l0.1-0.1C26,80.6,26,80.6,25.9,80.6L25.9,80.6L25.9,80.6z M25,72.9l-0.1,0.2
		l1,1l0-0.1L25,72.9L25,72.9z M23.8,71.5l-0.3,0.4l0.4,1.4l0.1-0.1l0.1-0.1l0.3-0.3l0,0l0.1-0.2L23.8,71.5L23.8,71.5z M23.4,68.9
		l-0.4,0.7l0.5,1.8l0.1-0.2L23.4,71l0.3-0.3l0.1-0.1l0,0l0.3-0.5L23.4,68.9L23.4,68.9z M22.5,67.8l0.3,1.2l0.3-0.5l0,0l0.1-0.1
		l0.1-0.1C23,68.1,22.7,68,22.5,67.8L22.5,67.8L22.5,67.8z M25.8,81.9l0.4,1.4L23.9,82l-0.4-1.5l-3.2-1.8l0.1-0.2l4.9,2.8l-0.2,0.3
		l0.4,0.2L25.8,81.9L25.8,81.9z M25.4,80.5l0.1,0.4v0l-1.2-0.7C24.7,80.3,25,80.4,25.4,80.5L25.4,80.5L25.4,80.5z M21.2,73l-2-2.4
		l0.1-0.1l2.1,2.5c0,0,0,0,0,0L21.2,73L21.2,73z M20.9,70.8l2.3,1.3l0.4,1.5c-0.2-0.1-0.5-0.1-0.7-0.2l-1.5-0.9L21,71.3l-2.1-3
		l0.2-0.1L20.9,70.8L20.9,70.8z M20.2,68.4l2.3,1.3l0.5,1.8l-2.3-1.3l-0.3-1.1l-1.8-3.2l0.2-0.1L20.2,68.4L20.2,68.4z M19.6,66
		L19.6,66l-0.8-3.1l0.2,0l0.9,3.3l1.5,0.9c0.2,0.2,0.4,0.3,0.6,0.4l0.5,1.7l-2.3-1.3L19.6,66L19.6,66z M20.4,61.3l-0.4-1.6l0.2-0.1
		l0.3,1.3c0,0.1,0,0.2,0,0.2C20.4,61.2,20.4,61.3,20.4,61.3L20.4,61.3L20.4,61.3z M26.8,83.8l0.4,1.4c0.1,0,0.2,0,0.3,0l1-1.7
		l-1.1-0.7L26.8,83.8L26.8,83.8z M28,81.6l-0.1,0.2l0.2,0.1L28,81.6L28,81.6z M26.3,83.9l0.3,1.3l-0.6,0l-1.6-0.9l-0.4-1.5L21,81
		l0.1-0.2L26.3,83.9L26.3,83.9z M36.5,83.8l0.6,1.2c-0.3,0-0.5,0.1-0.8,0.1c0,0,0,0-0.1,0l-1.4-0.5l-0.7-1.4l-3.4-1.2l0.1-0.2
		L36.5,83.8L36.5,83.8z M36.9,83.6l0.6,1.4c0.1,0,0.2,0,0.3,0l0.8-2.1l-0.7-1.4l1.2-3.4L39,77.9L36.9,83.6L36.9,83.6z M27.8,69.5
		l2.5,0.9l0.8,1.7l-2.5-0.9l-0.5-1l-2.4-2.8l0.1-0.1L27.8,69.5L27.8,69.5z M28.9,71.8l2.5,0.9l0.8,1.7l-2.5-0.9l-0.5-1.2l-2.6-2.6
		l0.1-0.1L28.9,71.8L28.9,71.8z M29.9,74l2.5,0.9l0.8,1.7l-2.5-0.9l-0.6-1.3L27.2,72l0.1-0.1L29.9,74L29.9,74z M30.9,76.2l2.5,0.9
		l0.8,1.7l-2.5-0.9l-0.6-1.3l-3-2.1l0.1-0.2L30.9,76.2L30.9,76.2z M32,78.4l2.5,0.9l0.8,1.7l-2.5-0.9l-0.6-1.4l-3.2-1.9l0.1-0.2
		L32,78.4L32,78.4z M35.5,81.5l0.8,1.7l-2.5-0.9l-0.7-1.4l-3.4-1.3l0.1-0.2L35.5,81.5L35.5,81.5z M31.6,67.8l-0.9,2.5l0.8,1.7
		l0.9-2.5l-0.5-1l-0.6-3.6l-0.2,0L31.6,67.8L31.6,67.8z M32.6,70l-0.9,2.5l0.8,1.7l0.9-2.5l-0.5-1.2l-0.3-3.7l-0.2,0L32.6,70
		L32.6,70z M33.7,72.2l-0.9,2.5l0.8,1.7l0.9-2.5l-0.6-1.3v-3.7h-0.2V72.2L33.7,72.2z M34.7,74.4l-0.9,2.5l0.8,1.7l0.9-2.5l-0.6-1.3
		l0.3-3.7l-0.2,0L34.7,74.4L34.7,74.4z M35.7,76.7l-0.9,2.4l0.8,1.7l0.9-2.5l-0.7-1.4l0.7-3.6l-0.2,0L35.7,76.7L35.7,76.7z
		 M35.9,81.3l0.8,1.7l0.9-2.5l-0.7-1.4l1.2-3.4L38,75.6L35.9,81.3L35.9,81.3z M22.7,85.7c1.7,0.9,3.3,1.7,4.8,2.6
		c0.4,1.1,0.8,1.8,1.4,2.3l-0.1,0.1l-0.1,0.2l0,0.1C26.8,89.4,24.9,87.7,22.7,85.7L22.7,85.7L22.7,85.7z M31,91.4c0.4,0,0.9,0,1.5,0
		c0.3,0.2,0.5,0.3,0.8,0.5H32L31,91.4L31,91.4L31,91.4z M56.1,96.4l0.7,2.5l1.4,0.8c-0.2-0.9-0.5-1.8-0.9-2.6l-0.8-0.5l-2.1-3
		l-0.2,0.1L56.1,96.4L56.1,96.4z M54,95.1l0.7,2.5l1.6,0.9l-0.7-2.5l-1.1-0.7L54,94.9l-0.1,0c0,0-0.1,0-0.1,0L54,95.1L54,95.1z
		 M53.9,96.6l-0.4-1.5c-0.1,0.1-0.3,0.1-0.4,0.2l0.1,0.6L53.9,96.6L53.9,96.6z M54.6,99.8l1.9-0.5l1.6,0.9l-2.5,0.7l-0.9-0.7
		L54.6,99.8L54.6,99.8z M54.5,98.1L56,99l-1.4,0.4L54.5,98.1L54.5,98.1z M39.9,94.7h1.6c-0.4,0.1-0.9,0.3-1.3,0.4l-3-1.7l0.1-0.2
		L39.9,94.7L39.9,94.7z M39.2,95.5l-0.5-0.2l0.1-0.2l0.7,0.3C39.3,95.4,39.2,95.4,39.2,95.5L39.2,95.5L39.2,95.5z M45.1,99.9h0.8
		l0,0.3l0.5,0l1.4-0.1l1.2,1.2h-1.7c-0.4-0.1-0.7-0.1-1.1-0.2l-0.9-0.9l-0.7-0.2c0.1,0,0.2-0.1,0.3-0.1L45.1,99.9L45.1,99.9z
		 M50.8,104.7h-0.9l-0.2-0.2C50.1,104.6,50.4,104.6,50.8,104.7L50.8,104.7L50.8,104.7z M47.3,98.8l0.2,0.2l0.2,0v-0.4
		c-0.1,0-0.2,0.1-0.3,0.1C47.3,98.7,47.3,98.7,47.3,98.8L47.3,98.8L47.3,98.8z M48.1,98.4v0.5l0.6,0L48.1,98.4
		C48.1,98.4,48.1,98.4,48.1,98.4L48.1,98.4L48.1,98.4z M48.5,100l0.9,0.9v-1L48.5,100L48.5,100z M49.8,99.9v1.4l0.4,0.4
		c0.3,0.1,0.6,0.1,0.9,0.2v-1.1l-0.1,0L49.8,99.9L49.8,99.9L49.8,99.9z M52.8,102.3v-0.6l-0.9-0.9l-0.4,0v1.1
		C52,102.1,52.4,102.2,52.8,102.3L52.8,102.3L52.8,102.3z M52.5,99l1.4,1.2l-2.6,0.2l-1.2-1l-3.6,0.3l0-0.2L52.5,99L52.5,99z
		 M52.7,98.6l1.4,1.2l-0.2-2.6l-1.2-1l-0.3-3.6l-0.2,0L52.7,98.6L52.7,98.6z M38.6,89.7l2.6-0.2l1.4,1.2L40,90.9l-0.9-0.7l-3.3-1.6
		l0.1-0.2L38.6,89.7L38.6,89.7z M40.4,91.3l2.6-0.2l1.4,1.2l-2.6,0.2l-1-0.8l-3.5-1.3l0.1-0.2L40.4,91.3L40.4,91.3z M42.3,92.9
		l2.6-0.2l1.4,1.2l-2.6,0.2l-1.1-0.9l-3.6-1l0-0.2L42.3,92.9L42.3,92.9z M44.2,94.5l2.6-0.2l1.4,1.2l-2.6,0.2l-1.1-1l-3.6-0.6l0-0.2
		L44.2,94.5L44.2,94.5z M46.1,96l2.6-0.2l1.4,1.2l-2.6,0.2l-1.2-1l-3.7-0.3l0-0.2L46.1,96L46.1,96z M50.5,97.4l1.4,1.2l-2.6,0.2
		l-1.2-1l-3.6,0.3l0-0.2L50.5,97.4L50.5,97.4z M41.2,86.5l0.2,2.6l1.4,1.2l-0.2-2.6L41.8,87l-2.1-3l-0.2,0.1L41.2,86.5L41.2,86.5z
		 M43.1,88.1l0.2,2.6l1.4,1.2l-0.2-2.6l-1-0.9l-1.9-3.2l-0.2,0.1L43.1,88.1L43.1,88.1z M45,89.7l0.2,2.6l1.4,1.2l-0.2-2.6L45.3,90
		l-1.6-3.4l-0.2,0.1L45,89.7L45,89.7z M46.9,91.3l0.2,2.6l1.4,1.2l-0.2-2.6l-1.1-1L45.9,88l-0.2,0.1L46.9,91.3L46.9,91.3z
		 M48.7,92.8l0.2,2.6l1.4,1.2L50.2,94L49,93l-1-3.6l-0.2,0.1L48.7,92.8L48.7,92.8z M50.8,97l1.4,1.2L52,95.6l-1.2-1l-0.3-3.6l-0.2,0
		L50.8,97L50.8,97z M56.3,104.8c-7.3-0.5-12.4-1.6-20.3-4.1c8.5,0.4,13.8,1.1,21.1,3.3l-0.3,0.3l-7.4-1.5l-4.4-0.7h0l0,0l4.7,0.9
		l6.8,1.5C56.6,104.6,56.5,104.7,56.3,104.8L56.3,104.8L56.3,104.8z M50.7,111l-1-0.5l1.5-2.1l-1.7,2l-1-0.5l2-2.4l-2.3,2.3
		l-1.1-0.5l2.7-2.6l-3,2.5l-1.1-0.5l3.4-2.8l-3.8,2.6l-1.2-0.5l4.2-3l-4.7,2.7l-1.2-0.6l5.2-3c0.2,0,0.4,0.1,0.6,0.1
		c0.3,0,0.5,0.1,0.8,0.1l0.7,0.7c2.4,0,3.6-0.2,5.2,0L50.7,111L50.7,111z M47.5,104.1l-5.7,2.7l-1.3-0.6l4.7-2.2h1.6
		C47.1,104,47.3,104.1,47.5,104.1L47.5,104.1L47.5,104.1z M52.9,101.1l1.4-0.4l1.1,0.7l0.7,0.4l0.7-0.4l1.3,0.8l-0.8-0.9l0.3-0.2
		l0.2-0.1l0.2-0.2l-0.2,0.4l0.6,0.6l-0.1,0.5l-1-0.4l-0.4,0.3l1.1,1l-3.9-2.1l3.7,2.4l-0.2,0.3l-2.8-1.1l-1.2-0.9L52.9,101.1
		L52.9,101.1z M31.8,92.4h2.6l1.3,1.3h-2.6l-0.8-0.8l-3.2-1.8l0.1-0.2L31.8,92.4L31.8,92.4z M33.6,94.1h2.6l1.3,1.3h-2.6l-0.9-0.9
		l-3.4-1.6l0.1-0.2L33.6,94.1L33.6,94.1z M35.3,95.9h2.6l0,0c-0.5,0.2-0.9,0.3-1.4,0.6l-0.5,0.2l-0.5-0.5l-3.5-1.3l0.1-0.2
		L35.3,95.9L35.3,95.9z M34.8,91.2v0.9l1.3,1.3V91c0,0,0,0,0,0h0h0c0,0,0,0,0,0h0c0,0,0,0,0,0c0,0,0,0,0,0c0,0,0,0,0,0l0,0
		c0,0,0,0,0,0l0,0c-0.1,0-0.2,0-0.2,0l0,0c0,0,0,0,0,0h0h0l0,0c0,0,0,0,0,0l0,0h0c0,0-0.1,0-0.1,0l0,0l0,0c0,0,0,0-0.1,0l0,0
		c0,0,0,0,0,0c0,0,0,0,0,0s0,0,0,0v0c0,0,0,0,0,0h0c0,0,0,0,0,0c0,0,0,0,0,0l0,0c0,0,0,0,0,0l0,0C35.2,91.1,35,91.2,34.8,91.2
		L34.8,91.2C34.9,91.2,34.8,91.2,34.8,91.2L34.8,91.2L34.8,91.2z M36.5,91.2v2.6l1.3,1.3v-0.9L37,93.8l-0.4-0.2l0.2-0.4l0.1-0.2
		l0.2-0.4l0.4,0.2l0.3,0.1v-0.5l-0.9-0.9L36.6,91c-0.1,0-0.1,0-0.2,0l0,0L36.5,91.2L36.5,91.2z M38.2,92.9v0.3l0.7,0.4l-0.4-0.4
		L37.8,91L37.5,91L38.2,92.9L38.2,92.9z M38.2,94.5v0.6l0,0l0.1-0.2l0.1-0.3L38.2,94.5L38.2,94.5z M38.3,95.6l0.1,0.1
		c0,0,0.1,0,0.1,0l0,0L38.3,95.6L38.3,95.6z M40.1,94.2l-0.4-1.4l-0.2-0.1l0.4,1.3L40.1,94.2L40.1,94.2z M44.7,100.8v-0.3l-0.7-0.2
		c-0.2,0.1-0.4,0.2-0.6,0.3v0l0.1,0L44.7,100.8L44.7,100.8z"/>
	<path class="st4" d="M66,25.5l1.4,1.4l2.2-0.3L68,25.1l-2,0.2l-1.7-0.6L64,24.8L66,25.5L66,25.5z M62.7,24.1L62.7,24.1l-0.1,0
		L62.7,24.1L62.7,24.1z M66.5,18.8l1.2,1.6l2.2,0l-1.4-1.7l-2,0.1l-3.3-1.6l-0.1,0.2L66.5,18.8L66.5,18.8z M69.5,17.8L69.5,17.8
		l-2.9-1.4l-0.1,0.2l3.1,1.5l0.8,2.2l1.7,0.8l-0.9-2.5L69.5,17.8L69.5,17.8z M71.8,18.9l0.9,2.5l1.7,0.8l-0.9-2.5l-1-0.5l-2.8-2.4
		L69.5,17L71.8,18.9L71.8,18.9z M74,19.9l0.9,2.5l1.7,0.8l-0.9-2.5l-1.2-0.6l-2.6-2.6l-0.1,0.1L74,19.9L74,19.9z M76.2,20.9l0.9,2.5
		l1,0.5c0-0.1,0-0.1,0-0.2c-0.1-0.6-0.2-1.3-0.2-1.9l0-0.1l-1.3-0.6l-2.4-2.8l-0.1,0.1L76.2,20.9L76.2,20.9z M77.9,20.9l-1.3-1.8
		l-0.2,0.1l1.4,2c0,0,0,0,0,0V20.9L77.9,20.9z M79.8,21.3l-0.8-1.4L78.9,20l0.7,1.2C79.7,21.2,79.7,21.3,79.8,21.3L79.8,21.3
		L79.8,21.3z M82.8,23.3l-0.2-0.7l-0.3-0.2l0.3,0.8L82.8,23.3L82.8,23.3z M81.9,20.9l-0.1-0.2l-0.2,0.1l0.1,0.3L81.9,20.9L81.9,20.9
		z M67.8,21.6L67.8,21.6l-2.9-1.4l0.1-0.2l3.1,1.4l2.2-0.8l1.7,0.8l-2.5,0.9L67.8,21.6L67.8,21.6z M70,22.7l2.5-0.9l1.7,0.8
		l-2.5,0.9l-1-0.5L67,22.3l0-0.2L70,22.7L70,22.7z M72.2,23.7l2.5-0.9l1.7,0.8l-2.5,0.9l-1.2-0.6L69,23.6l0-0.2L72.2,23.7L72.2,23.7
		z M74.4,24.7l2.5-0.9l1.3,0.6c0,0.1,0,0.2,0,0.3l-2.1,0.8l-1.3-0.6h-3.7v-0.2H74.4L74.4,24.7z M76.6,25.8l1.6-0.6
		c0,0.3,0,0.6,0,0.9c0,0.2,0,0.3,0,0.4L77,25.9l-3.7,0.3l0-0.2L76.6,25.8L76.6,25.8z M78.3,27.1l-1.8,0.3l0,0l-0.2-0.1l2-0.4
		C78.3,26.9,78.3,27,78.3,27.1L78.3,27.1L78.3,27.1z M75.8,27.5l-0.3,0l0-0.2l0.5-0.1L75.8,27.5L75.8,27.5L75.8,27.5z M68.9,24.3
		L68.9,24.3l-3.1-1.1l-0.1,0.2l3.2,1.2l1,2.1l1.7,0.6l-0.9-1.9h-0.2v-0.4L68.9,24.3L68.9,24.3z M71.3,25.4l1,2.1l1.7,0.6l-0.7-1.5h0
		l-0.5,0l0-0.5l0-0.2l0-0.4l-0.9-0.3l0,0H71.3L71.3,25.4z M70.7,24.5l-0.5-0.4l-0.4,0l0.9,0.6v0V24.5L70.7,24.5z M73.8,26.7l0.8,1.7
		l1.7,0.6l-0.2-0.5l-0.3-0.2L75.5,28l-0.3,0.1L75,27.6l0-0.2L74.9,27l0.5-0.1l-0.1-0.3L75,26.5L73.8,26.7L73.8,26.7z M73.3,25.6
		l-0.3-0.2h-0.3l0.3,0.2L73.3,25.6L73.3,25.6L73.3,25.6z M75.8,26.8L75.8,26.8l0.2,0l-0.3-0.3l-0.2,0L75.8,26.8L75.8,26.8z M76.8,29
		l0.1,0.2l0.4,0.2L76.8,29L76.8,29z M78,28.4L78,28.4l-0.4-0.8L77,27.8L78,28.4L78,28.4z M74.7,25.5L74.7,25.5l-0.3-0.1l0.1,0.1
		L74.7,25.5L74.7,25.5z M78.1,27.7l0.2,0.4c0-0.2,0-0.3,0-0.5l0-0.1L78.1,27.7L78.1,27.7L78.1,27.7z M77.1,26.5l0.1,0.1l0.1,0
		L77.1,26.5L77.1,26.5z M67.5,28.2L67.5,28.2l-3-1.1l0.1-0.2l3.2,1.2l2.1-1l1.7,0.6l-2.4,1.1L67.5,28.2L67.5,28.2z M69.8,29.1
		l2.4-1.1l1.7,0.6l-2.4,1.1l-1.1-0.4L66.8,29l0-0.2L69.8,29.1L69.8,29.1z M72.1,29.9l2.4-1.1l1.7,0.6l-2.4,1.1l-1.2-0.4h-3.7v-0.2
		H72.1L72.1,29.9z M74.4,30.7l2.4-1.1l1.7,0.6c0,0,0,0,0,0l-0.8,0.4l-0.1,0l-0.4-0.3l-0.3,0.4l-0.1,0.2l-0.2,0.2l-0.5,0.2l-1.3-0.5
		l-3.7,0.3l0-0.2L74.4,30.7L74.4,30.7z M76.7,31.6l0.2-0.1l0.1,0l0.4,0.3L77,31.7l-3.6,0.6l0-0.2L76.7,31.6L76.7,31.6z M78,30.9
		l0.6-0.3c0.2,0.3,0.4,0.6,0.8,0.8l0.1,0.2l-0.2,0.1L78,30.9L78,30.9z M78.6,32.7l-2.9,0.8l0-0.2l2.8-0.7L78.6,32.7L78.6,32.7z
		 M79.5,34.3l-1.3,0.6l-0.1-0.2l1.2-0.5L79.5,34.3L79.5,34.3z M82.5,25.6l1.7,0.4l-0.9-2l-0.9-0.2C82.5,24.3,82.5,24.9,82.5,25.6
		L82.5,25.6L82.5,25.6z M84.5,23.5L84.5,23.5l-2.5-2.1l-0.1,0.1l2.6,2.2l0.2,2.3l1.4,1.2L86,24.7L84.5,23.5L84.5,23.5z M86.4,25.1
		l0.2,2.6l0.8,0.7c0.1-0.7,0.2-1.4,0.3-2.1v-0.1L87,25.5l-2.1-3l-0.2,0.1L86.4,25.1L86.4,25.1z M88,25.8l-1.1-2l-0.2,0.1l1.2,2.1
		c0,0,0,0,0,0L88,25.8L88,25.8z M91.7,31.9l0.1,0.1l0-0.5C91.7,31.7,91.7,31.8,91.7,31.9L91.7,31.9L91.7,31.9z M92.1,30.2l0.2,2.2
		l1.4,1.2l-0.1-1.5c-0.2-0.5-0.5-1-0.7-1.6l-0.8-0.7C92.1,30,92.1,30.1,92.1,30.2L92.1,30.2L92.1,30.2z M94.1,33.3l0.1,0.7l0.1,0h0
		l0,0l0.3,0.3c-0.1-0.2-0.2-0.4-0.3-0.6C94.2,33.6,94.1,33.4,94.1,33.3L94.1,33.3L94.1,33.3z M95.7,30.1l-0.1-0.7l-0.2,0l0,0.2
		C95.6,29.9,95.6,30,95.7,30.1L95.7,30.1L95.7,30.1z M82.5,26.7l2-0.2l1.4,1.2l-2.6,0.2l-0.8-0.6c0-0.1,0-0.2,0-0.3
		C82.5,26.9,82.5,26.8,82.5,26.7L82.5,26.7L82.5,26.7z M83.7,28.3l2.6-0.2l1.1,0.9c0,0.1,0,0.2,0,0.3l-2.2,0.2l-0.4-0.3L84.7,29l0,0
		l-0.4-0.3l-1.8-0.8c0-0.1,0-0.1,0-0.2L83.7,28.3L83.7,28.3z M85.6,29.9l1.7-0.2c0,0.3-0.1,0.6-0.2,0.9l-0.2-0.4l-0.4,0.2l-0.1,0.1
		L86,30.2L85.3,30l-0.2-0.3L85.6,29.9L85.6,29.9z M84,29.5l-0.3-0.1l-0.2-0.3l0.7,0.3l-0.1,0L84,29.5L84,29.5z M86.3,31.3L86.3,31.3
		l-0.2-0.2h0l0.1,0.1L86.3,31.3L86.3,31.3z M91.6,32.8l0.4,0l1.4,1.2L92,34.1l-0.3-0.9L91.6,32.8L91.6,32.8z M92.2,34.5l1-0.1
		l0.1,0.3l0.2,1l-0.7,0.1L92.2,34.5L92.2,34.5z M94.4,34.8l0.7,0.6c0,0.1,0,0.1,0.1,0.2l-0.7,0L94.4,34.8L94.4,34.8z M91.1,34.7
		l-0.2,0c0-0.1,0-0.1,0.1-0.2H91L91.1,34.7L91.1,34.7z M94.9,37.3L94.9,37.3L94.6,36l0.8-0.1c0,0.1,0.1,0.1,0.1,0.2
		c-0.2,0.3-0.3,0.6-0.5,0.9C95,37.1,94.9,37.2,94.9,37.3L94.9,37.3L94.9,37.3z M93.5,36.5l-0.2-0.2l-0.4,0l-0.1-0.2l0.7-0.1
		L93.5,36.5L93.5,36.5z M82.1,32.1l0.1,0l-0.1-0.2c0,0,0,0,0,0V32.1L82.1,32.1z M78.3,29.2l-2.1-1.5l-0.1,0.2l2.2,1.6
		C78.3,29.4,78.3,29.3,78.3,29.2L78.3,29.2L78.3,29.2z M82.2,29.8L82.2,29.8l0.5,2.4l1.5,1.1l-0.5-2.6l-1.5-1
		C82.3,29.7,82.3,29.8,82.2,29.8L82.2,29.8L82.2,29.8z M84.3,31l0.5,2.6l1.4,1c0-0.1,0-0.2,0.1-0.2l-0.4-2.3l-0.9-0.7l-2.4-2.8
		l-0.1,0.1c0,0,0,0.1,0,0.1L84.3,31L84.3,31z M86.2,32.4l0.2,1c0-0.2,0.1-0.3,0.1-0.5c0-0.1,0.1-0.2,0.1-0.3l-2.1-2.9l-0.2,0.1
		L86.2,32.4L86.2,32.4z M89.9,37.2l0.4,0.3l-0.2-0.8C90,36.8,89.9,37,89.9,37.2L89.9,37.2L89.9,37.2z M87,31.3l-0.2-0.4l-0.2,0.1
		l0.3,0.6c0,0,0,0,0-0.1C87,31.4,87,31.3,87,31.3L87,31.3L87,31.3z M90.4,35.9l0.3,1.9l1.5,1.1l-0.5-2.6l-1.2-0.9
		C90.5,35.6,90.4,35.7,90.4,35.9L90.4,35.9L90.4,35.9z M92.3,36.6l0.4,2.6l0.7,0.5c0,0,0,0,0,0c0.2-0.3,0.4-0.5,0.5-0.8l-0.2-1.2
		l-1.2-0.9l-1.3-3.5c0,0.1-0.1,0.2-0.1,0.3c0,0,0,0,0,0L92.3,36.6L92.3,36.6z M94.5,38.1l-0.6-3.5l-0.2,0l0.7,3.7
		C94.4,38.2,94.4,38.1,94.5,38.1L94.5,38.1L94.5,38.1z M79.9,33L79.9,33l-2.7-1.9l0.1-0.2l2.8,2l1.9-0.3l0.1,0v-0.1l0.4-0.1l1.5,1.1
		l-2.6,0.5L79.9,33L79.9,33z M81.9,34.4l2.6-0.5L86,35l-2.6,0.5l-0.9-0.7L79,33.6l0.1-0.2L81.9,34.4L81.9,34.4z M83.9,35.8l2.1-0.4
		c-0.1,0.5-0.1,0.9,0,1.3l-0.6,0.1l-1.1-0.7l-3.6-1l0-0.2L83.9,35.8L83.9,35.8z M85.9,37.2l0.3,0c0.1,0.2,0.3,0.4,0.5,0.6l-0.4-0.3
		l-3.6-0.7l0-0.2L85.9,37.2L85.9,37.2z M89.7,37.6l0.3,0.2l-0.4,0.1C89.6,37.8,89.6,37.7,89.7,37.6L89.7,37.6L89.7,37.6z M87.9,38.6
		L87.9,38.6c0.2,0.1,0.4,0.2,0.5,0.4l-0.2-0.2l-3.7-0.3l0-0.2L87.9,38.6L87.9,38.6z M89.4,38.4l1-0.2l1.5,1.1l-2.6,0.5l-0.3-0.2
		l0.2-0.6C89.3,38.7,89.4,38.5,89.4,38.4L89.4,38.4L89.4,38.4z M89.9,40l2.6-0.5l0.7,0.5c-0.2,0.3-0.4,0.5-0.6,0.8l-1.2,0.2
		l-1.3-0.9h-0.1L90,40l-0.4,0.2l-0.1,0h-3V40H89.9L89.9,40z M92.1,41.6L92.1,41.6l-1.4,0.2l-0.1-0.2l1.7-0.3
		C92.2,41.4,92.2,41.5,92.1,41.6L92.1,41.6L92.1,41.6z M89.5,42l-1.1,0.2l0-0.2l1-0.2L89.5,42L89.5,42z M101.3,39.9l1.2,1.6
		l-0.6,2.1l-1.3-1.8l0.6-1.9l-0.6-3.6l0.2,0L101.3,39.9L101.3,39.9z M99.6,42.2l-0.5-2.8l0.2,0l0.5,2.8L99.6,42.2L99.6,42.2z
		 M99.9,42.8l1.8,1.3l0.3,1.8l-0.5-0.4v-0.8h-0.5h-0.2h-0.5L99.9,42.8L99.9,42.8z M101.6,46.1l0.4,0.3c-0.2,0.2-0.3,0.4-0.4,0.5l0,0
		V46.1L101.6,46.1z M100.2,47.3l-0.1-0.2l0-0.1L100.2,47.3L100.2,47.3z M103.6,54.7l0.1,0.7l0,0.1l-0.3-0.2L103.6,54.7L103.6,54.7z
		 M103.4,55.8l0.2,0.1l-0.1,0.2l0-0.1l0.1-0.1L103.4,55.8L103.4,55.8L103.4,55.8z M104.2,57.6l0.1,0.3l-0.2-0.1L104.2,57.6
		L104.2,57.6z M104.3,58.5l0,0.1l-0.1,0.2l-0.1-0.4L104.3,58.5L104.3,58.5z M103.7,41.9L103.7,41.9l-0.6-3.2l-0.2,0l0.6,3.4
		l-1.4,1.9l0.3,1.8c0.1-0.1,0.2-0.2,0.3-0.3l1.2-1.8L103.7,41.9L103.7,41.9z M104.2,44.3l-0.4,0.6l0.1,0.5c0.1,0.4,0.2,0.7,0.4,1
		l0.2-0.3l-0.2-1.1l0.3-3.7l-0.2,0L104.2,44.3L104.2,44.3z M104.6,46.7l-0.1,0.2c0.1,0.2,0.2,0.3,0.2,0.4l0-0.1l0.6-3.6l-0.2,0
		L104.6,46.7L104.6,46.7z M105.4,48.5l0.7-2.6l-0.2,0l-0.6,2.4C105.3,48.3,105.3,48.4,105.4,48.5L105.4,48.5L105.4,48.5z
		 M103.9,53.7l0.2,0.8l0.1-0.3l0.2-0.4l0.4,0.2l0.2,0.1l0.2,0.1l0.6-0.8l-0.3-1.5l1.3-3.5l-0.2-0.1l-0.8,2.2
		C105.7,51.7,105,52.6,103.9,53.7L103.9,53.7L103.9,53.7z M105.8,53.9l-0.7,1l-0.7,1.8l0.2,1.1l0.7-1l0-0.1l0.2-0.4l0,0l0.5-0.7
		l-0.3-1.5l1.6-3.4l-0.2-0.1L105.8,53.9L105.8,53.9z M105.8,59.2l0.8-1.1l-0.2-0.9l-0.1,0.1l-1.4,2.4c0.2-0.1,0.3-0.2,0.4-0.3
		L105.8,59.2L105.8,59.2z M106.4,56.8l0-0.2l2.1-3l-0.2-0.1l-2.2,3.2l0.2,0.1L106.4,56.8L106.4,56.8z M90.3,21.8
		c1.5,4.7,2.8,8.3,4.4,11.8c0.3,0.7,0.7,1.4,1,2.1c0.2-0.3,0.3-0.6,0.5-0.9l-1.9-4.4l2.1,4.1c0,0,0.1-0.1,0.1-0.2l0.3-0.5
		c-0.2-0.3-0.3-0.7-0.5-1C94.9,29.3,92.9,25.9,90.3,21.8L90.3,21.8L90.3,21.8z M95.8,42.3L97,44L96.4,46l-1.3-1.8l0.6-1.9L95,38.8
		l0.2,0L95.8,42.3L95.8,42.3z M97.5,44.6l0.1-0.5l0,0.3L97.5,44.6L97.5,44.6z M97.5,44.1l0-0.2v0L97.5,44.1L97.5,44.1z M97.4,43.7
		l-0.8-3.1l0.2,0l0.4,1.5L97.4,43.7L97.4,43.7L97.4,43.7z M101.4,59l0.1,0.5l-0.2-0.1l0-0.3L101.4,59L101.4,59z M101.4,59.9l0.2,0.1
		l0.5,1.7c0,0,0,0,0,0l0,0l-0.9-0.5l0.3-0.4l0.1-0.3L101.4,59.9L101.4,59.9z M100.6,62.9L100.6,62.9l-0.2-0.5l0.5-0.8l0.8,0.5h0
		C101.4,62.4,101,62.7,100.6,62.9L100.6,62.9L100.6,62.9z M100.2,45.6l-0.6-2.3l0,0.5v0.1l0.5,1.7L100.2,45.6L100.2,45.6z
		 M99.6,43.3l-0.2-0.6l-0.2,0l0.2,0.5L99.6,43.3L99.6,43.3z M100.6,47.9l0.2-0.3l-0.5-1.7l0,0.2l-0.4,2.3l0-0.2l0.1-0.4l0.4,0.1
		L100.6,47.9L100.6,47.9z M101.1,47.5v-2.3h-0.2v2.5C101,47.7,101,47.6,101.1,47.5L101.1,47.5L101.1,47.5z M101.2,56.4l0.2,0.6
		l1-1.8c-0.3,0.3-0.6,0.6-0.9,0.9l0,0C101.4,56.2,101.3,56.3,101.2,56.4L101.2,56.4L101.2,56.4z M102.8,55.3L102.8,55.3l0.1,0.2
		l0.3-1.1c-0.1,0.1-0.2,0.2-0.3,0.3L102.8,55.3L102.8,55.3z M101.8,58.5l0.2,0.9l1.3-2.3l-0.2-0.6L101.8,58.5L101.8,58.5z
		 M103.4,57.7l-1.3,2.3l0.4,1.5h0l0,0c0,0,0,0,0,0l0,0c0,0,0,0,0,0s0,0,0,0c0.1-0.1,0.2-0.2,0.4-0.3l1-1.7l-0.4-1.5l1.3-3.5
		l-0.2-0.1L103.4,57.7L103.4,57.7z M104.2,60.3l1.8-3.2l-0.2-0.1l-2,3.5C103.9,60.5,104,60.4,104.2,60.3L104.2,60.3L104.2,60.3z
		 M94.1,45L94.1,45l-0.6-3.2l0.2,0l0.6,3.4l1.9,1.4l0.3,1.8l-2.1-1.5L94.1,45L94.1,45z M94.5,47.4l2.1,1.5l0.3,1.8l-2.1-1.5
		l-0.2-1.1l-1.6-3.3l0.2-0.1L94.5,47.4L94.5,47.4z M95,49.9l2.1,1.5l0.3,1.8l-2.1-1.5l-0.2-1.3l-1.9-3.2l0.2-0.1L95,49.9L95,49.9z
		 M95.4,52.3l2.1,1.5l0.3,1.8l-2.1-1.5l-0.2-1.4l-2.1-3l0.2-0.1L95.4,52.3L95.4,52.3z M95.8,54.7l2.1,1.5l0.3,1.8l-2.1-1.5L95.9,55
		l-2.4-2.8l0.1-0.1L95.8,54.7L95.8,54.7z M96.3,57.1l2.1,1.5l0.3,1.8l-2.1-1.5l-0.3-1.5l-2.6-2.6l0.1-0.1L96.3,57.1L96.3,57.1z
		 M98.8,61l0.3,1.8L97,61.3l-0.3-1.6l-3-2.1l0.1-0.2L98.8,61L98.8,61z M98.2,44.3L98.2,44.3l-0.6-3.2l-0.2,0l0.6,3.4l-1.4,1.9
		l0.3,1.8l1.5-2.1L98.2,44.3L98.2,44.3z M98.7,46.7l-1.5,2.1l0.3,1.8l1.5-2.1l-0.2-1.1l0.3-3.7l-0.2,0L98.7,46.7L98.7,46.7z
		 M99.1,49.1l-1.5,2.1l0.3,1.8l1.5-2.2l-0.2-1.3l0.7-3.6l-0.2,0L99.1,49.1L99.1,49.1z M99.5,51.6L98,53.7l0.3,1.8l1.5-2.1L99.6,52
		l1-3.6l-0.2,0L99.5,51.6L99.5,51.6z M99.9,54l-1.5,2.1l0.3,1.8l1.5-2.1l-0.3-1.5l1.3-3.5l-0.2-0.1L99.9,54L99.9,54z M100.4,56.4
		l-1.5,2.1l0.3,1.8l1.5-2.2l-0.3-1.5l1.6-3.4l-0.2-0.1L100.4,56.4L100.4,56.4z M99.3,60.9l0.3,1.8l1.5-2.1l-0.3-1.6l2.1-3l-0.2-0.1
		L99.3,60.9L99.3,60.9z M90.7,43.8l-1.1-3.2l0.2-0.1l1.1,3C90.8,43.7,90.7,43.8,90.7,43.8L90.7,43.8L90.7,43.8z M89.8,47L89.8,47
		L88.7,44l0.2-0.1l1.2,3.2l2,1c0,0.1,0.1,0.2,0.1,0.2l0.3,0.6l0.3,0.9l-2.4-1.1L89.8,47L89.8,47z M90.6,49.3l2.4,1.1l0.5,1.2
		l-0.1,0.1l-0.2,0.1l-0.1,0.1l-1.9-0.9L90.8,50l-2.1-3l0.2-0.1L90.6,49.3L90.6,49.3z M91.4,51.6l1.6,0.7l0.1,0.2l1,1.2l0.3,0.7
		l-0.3-0.1L93.8,54l-0.1,0.1l-1.6-0.7L92,53.3l-0.4-1.1l-2.4-2.8l0.2-0.1L91.4,51.6L91.4,51.6z M92.7,54.1l0.7,0.3l-0.3,0.3
		L92.7,54.1L92.7,54.1z M93.9,55.7C93.9,55.7,93.9,55.7,93.9,55.7l-0.1-0.1L93.9,55.7L93.9,55.7L93.9,55.7z M90.9,54.6l-0.5-0.5
		l0.1-0.2l0.3,0.2L90.9,54.6L90.9,54.6z M92.1,57.5L91,56.7l0.1-0.2l0.9,0.6L92.1,57.5L92.1,57.5z M93.3,60.3l-1.7-0.8l0.1-0.2
		l1.6,0.7L93.3,60.3L93.3,60.3z M93.2,48.1C93.2,48.1,93.1,48.1,93.2,48.1L93.2,48.1c-0.1,0.1-0.1,0.2-0.2,0.3l-0.2,0.2l0.3,0.7l0,0
		l0.2-0.1l0.3-0.2l0.1-0.1L93.2,48.1L93.2,48.1L93.2,48.1z M93.9,49.3L93.9,49.3L93.9,49.3l0.1,0.2L93.9,49.3L93.9,49.3z M93.6,50.9
		l0.3,0.8l0.1,0.1l0.1,0.1l0.1-0.2L93.6,50.9L93.6,50.9z M94.5,52.1l-0.1,0.2l0.7,0.8l0-0.2L94.5,52.1L94.5,52.1z M94.8,57.6
		l-4.6-5.9c2.1,5.1,2.9,9.2,6.3,13.7l1-0.5l-1.9-3.6l2.4,3.4c0.3-0.2,0.6-0.3,0.9-0.5l-0.1-0.5l-2.1-1.2l-0.2-0.9L96.3,60l-2.8-2
		l-0.4-0.3l0.3-0.4l0.1-0.2l0.3-0.4l0.4,0.3L94.8,57.6L94.8,57.6z M108.2,62.5l0.6-4.7l-2.1,5.1c0.1,0.6,0.2,1.1,0.1,1.6l0.5-1.7
		l0.1-0.4l0.5,0.1l0.2,0L108.2,62.5L108.2,62.5z M95.6,84.3l-0.3,1c0.3,0,0.6,0,0.9,0c0.1,0,0.3,0,0.4,0l0.8-0.5l0.4-1.5l3.2-1.8
		l-0.1-0.2L95.6,84.3L95.6,84.3z M95.1,84.1l-0.3,1.2c-0.2,0-0.3,0-0.5,0l-0.9-1.6l0.1-0.4l1-0.4L95.1,84.1L95.1,84.1z M93.7,82
		L93.7,82l0-0.3l0.1,0.2L93.7,82L93.7,82z M100.7,69.8l-0.1,0.1L99,71.5l0.1-0.1l0.4-0.3l0.2,0.2l1.6-0.9l0.3-1.1l0-0.1
		c-0.1,0.1-0.3,0.2-0.4,0.2l0,0C101,69.7,100.8,69.7,100.7,69.8L100.7,69.8L100.7,69.8z M101,71.1l-1.1,0.7l0.2,0.3l-0.4,0.3
		l-1.3,1.1l-0.1,0.4l0.3-0.2l0.2,0.3l1.7-1l0.3-1.3l2.1-3l-0.2-0.1L101,71.1L101,71.1z M100.4,73.5l-1.3,0.8l0.2,0.3l-0.4,0.3
		l-0.2,0.1c0.5-0.1,0.9-0.2,1.4-0.4l0.2-0.7l2.4-2.8l-0.1-0.1L100.4,73.5L100.4,73.5z M101.8,74l0.4-0.4l-0.1-0.1l-0.7,0.7
		c0,0,0.1,0,0.1,0C101.6,74.1,101.7,74,101.8,74L101.8,74L101.8,74z M96.1,82.3l-0.3,1.3l2.3-1.3l0.4-1.3c-0.2,0-0.5,0.1-0.7,0.1
		c-0.1,0-0.2,0-0.3,0l-1,0.5l0.2,0.4L96.1,82.3L96.1,82.3L96.1,82.3z M97.8,73.9l0,0.1L97.8,73.9L97.8,73.9L97.8,73.9z M97.4,74.3
		l0.1,0.1l-0.6,0.4l0.1-0.2L97.4,74.3L97.4,74.3z M95.5,82.5l-0.3,1l-0.4-0.7L95.5,82.5L95.5,82.5z M94.3,81.8l-0.2-0.3
		c0.4,0,0.9,0,1.3-0.1L94.3,81.8L94.3,81.8z M100.3,82.3l-0.2,0.9l-0.3-0.6L100.3,82.3L100.3,82.3z M99.2,81.6l-0.3-0.6l0.3-0.2
		c0,0,0.1,0,0.1,0c0.3,0,0.6-0.1,0.9-0.1l0.2,0.3L99.2,81.6L99.2,81.6z M100.8,80.6l0,0.1l-0.1,0l-0.1-0.1
		C100.7,80.6,100.7,80.6,100.8,80.6L100.8,80.6L100.8,80.6z M101.7,72.9l0.1,0.2l-1,1l-0.1-0.1L101.7,72.9L101.7,72.9z M102.8,71.5
		l0.3,0.4l-0.4,1.4l-0.1-0.1l-0.1-0.1l-0.3-0.3l0,0l-0.1-0.2L102.8,71.5L102.8,71.5z M103.3,68.9l0.4,0.7l-0.5,1.8l-0.1-0.2l0.2-0.2
		l-0.3-0.3l-0.2-0.1v0l-0.3-0.5L103.3,68.9L103.3,68.9z M104.2,67.8l-0.3,1.2l-0.3-0.5l0,0l-0.1-0.1l-0.1-0.1
		C103.7,68.1,104,68,104.2,67.8L104.2,67.8L104.2,67.8z M100.9,81.9l-0.4,1.4l2.3-1.3l0.4-1.5l3.2-1.8l-0.1-0.2l-4.9,2.8l0.2,0.3
		l-0.4,0.2L100.9,81.9L100.9,81.9z M101.3,80.5l-0.1,0.4l0,0l1.2-0.7C102,80.3,101.7,80.4,101.3,80.5L101.3,80.5L101.3,80.5z
		 M105.5,73l2-2.4l-0.1-0.1l-2.1,2.5c0,0,0,0,0,0L105.5,73L105.5,73z M105.8,70.8l-2.3,1.3l-0.4,1.5c0.2-0.1,0.5-0.1,0.7-0.2
		l1.5-0.9l0.3-1.3l2.1-3l-0.2-0.1L105.8,70.8L105.8,70.8z M106.5,68.4l-2.3,1.3l-0.5,1.8l2.3-1.3l0.3-1.1l1.8-3.2l-0.2-0.1
		L106.5,68.4L106.5,68.4z M107.1,66L107.1,66l0.8-3.1l-0.2,0l-0.9,3.3l-1.4,0.9c-0.2,0.2-0.4,0.3-0.6,0.4l-0.4,1.7l2.3-1.3L107.1,66
		L107.1,66z M106.3,61.3l0.4-1.6l-0.2-0.1l-0.3,1.3c0,0.1,0,0.2,0,0.2C106.3,61.2,106.3,61.3,106.3,61.3L106.3,61.3L106.3,61.3z
		 M99.9,83.8l-0.4,1.4c-0.1,0-0.2,0-0.3,0l-1-1.7l1.1-0.7L99.9,83.8L99.9,83.8z M98.7,81.6l0.1,0.2L98.6,82L98.7,81.6L98.7,81.6z
		 M100.4,83.9l-0.3,1.3l0.6,0l1.6-0.9l0.4-1.5l3.2-1.8l-0.1-0.2L100.4,83.9L100.4,83.9z M90.2,83.8L89.6,85c0.2,0,0.5,0.1,0.8,0.1
		c0,0,0,0,0.1,0l1.4-0.5l0.7-1.4l3.4-1.2l-0.1-0.2L90.2,83.8L90.2,83.8z M89.8,83.6l-0.6,1.4c-0.1,0-0.2,0-0.3,0l-0.8-2.1l0.7-1.4
		l-1.2-3.4l0.2-0.1L89.8,83.6L89.8,83.6z M98.9,69.5l-2.5,0.9l-0.8,1.7l2.5-0.9l0.5-1l2.4-2.8l-0.1-0.1L98.9,69.5L98.9,69.5z
		 M97.8,71.8l-2.5,0.9l-0.8,1.7l2.5-0.9l0.6-1.2l2.6-2.6l-0.1-0.1L97.8,71.8L97.8,71.8z M96.8,74l-2.5,0.9l-0.8,1.7l2.5-0.9l0.6-1.3
		l2.8-2.4l-0.1-0.1L96.8,74L96.8,74z M95.8,76.2l-2.5,0.9l-0.8,1.7l2.5-0.9l0.6-1.3l3-2.1l-0.1-0.2L95.8,76.2L95.8,76.2z M94.7,78.4
		l-2.5,0.9L91.5,81l2.5-0.9l0.6-1.4l3.2-1.9l-0.1-0.2L94.7,78.4L94.7,78.4z M91.2,81.5l-0.8,1.7l2.5-0.9l0.7-1.4l3.4-1.3L97,79.4
		L91.2,81.5L91.2,81.5z M95.1,67.8l0.9,2.5l-0.8,1.7l-0.9-2.5l0.5-1l0.6-3.6l0.2,0L95.1,67.8L95.1,67.8z M94,70l0.9,2.5l-0.8,1.7
		l-0.9-2.5l0.5-1.2l0.3-3.7l0.2,0L94,70L94,70z M93,72.2l0.9,2.5l-0.8,1.7l-0.9-2.5l0.6-1.3v-3.7H93V72.2L93,72.2z M92,74.4l0.9,2.5
		l-0.8,1.7l-0.9-2.5l0.6-1.3l-0.3-3.7l0.2,0L92,74.4L92,74.4z M90.9,76.7l0.9,2.4l-0.8,1.7l-0.9-2.5l0.6-1.4l-0.6-3.6l0.2,0
		L90.9,76.7L90.9,76.7z M90.8,81.3L90,83l-0.9-2.5l0.7-1.4l-1.2-3.4l0.2-0.1L90.8,81.3L90.8,81.3z M104,85.7
		c-1.7,0.9-3.3,1.7-4.8,2.6c-0.4,1.1-0.8,1.8-1.4,2.3l0,0.1l0.1,0.2l0,0.1C99.9,89.4,101.8,87.7,104,85.7L104,85.7L104,85.7z
		 M95.7,91.4c-0.5,0-0.9,0-1.5,0c-0.3,0.2-0.5,0.3-0.8,0.5h1.3L95.7,91.4L95.7,91.4L95.7,91.4z M70.6,96.4l-0.7,2.5l-1.4,0.8
		c0.2-0.9,0.5-1.8,0.9-2.6l0.8-0.5l2.1-3l0.2,0.1L70.6,96.4L70.6,96.4z M72.7,95.1L72,97.7l-1.6,0.9l0.7-2.5l1.1-0.7l0.5-0.5l0.1,0
		c0,0,0,0,0.1,0L72.7,95.1L72.7,95.1z M72.7,96.6l0.4-1.5c0.2,0.1,0.3,0.1,0.4,0.2l0,0.6L72.7,96.6L72.7,96.6z M72.1,99.8l-1.9-0.5
		l-1.6,0.9l2.5,0.7l0.6-0.3l0,0l0.4-0.3L72.1,99.8L72.1,99.8z M72.2,98.1L70.7,99l1.4,0.4L72.2,98.1L72.2,98.1z M86.8,94.7h-1.6
		c0.4,0.1,0.9,0.3,1.3,0.4l3-1.7l-0.1-0.2L86.8,94.7L86.8,94.7z M87.5,95.5l0.5-0.2l-0.1-0.2l-0.7,0.3
		C87.4,95.4,87.4,95.4,87.5,95.5L87.5,95.5L87.5,95.5z M81.6,99.9h-0.8l0,0.3l-0.5,0l-1.4-0.1l-1.2,1.2h1.7c0.3-0.1,0.7-0.1,1.1-0.2
		l0.9-0.9L82,100c-0.1,0-0.2-0.1-0.3-0.1L81.6,99.9L81.6,99.9z M75.9,104.7h0.9l0.2-0.2C76.6,104.6,76.2,104.6,75.9,104.7
		L75.9,104.7L75.9,104.7z M79.4,98.8L79.2,99l-0.2,0v-0.4c0.1,0,0.2,0.1,0.2,0.1C79.3,98.7,79.4,98.7,79.4,98.8L79.4,98.8L79.4,98.8
		z M78.6,98.4v0.5l-0.6,0L78.6,98.4C78.6,98.4,78.6,98.4,78.6,98.4L78.6,98.4L78.6,98.4z M78.2,100l-0.9,0.9v-1L78.2,100L78.2,100z
		 M76.9,99.9v1.4l-0.4,0.4c-0.3,0.1-0.6,0.1-0.9,0.2v-1.1l0.2,0L76.9,99.9L76.9,99.9L76.9,99.9z M73.9,102.3v-0.6l0.9-0.9l0.4,0v1.1
		C74.7,102.1,74.3,102.2,73.9,102.3L73.9,102.3L73.9,102.3z M74.2,99l-1.4,1.2l2.6,0.2l1.2-1l3.6,0.3l0-0.2L74.2,99L74.2,99z
		 M73.9,98.6l-1.4,1.2l0.2-2.6l1.2-1l0.3-3.6l0.2,0L73.9,98.6L73.9,98.6z M88.1,89.7l-2.6-0.2l-1.4,1.2l2.6,0.2l0.9-0.7l3.3-1.6
		l-0.1-0.2L88.1,89.7L88.1,89.7z M86.3,91.3l-2.6-0.2l-1.4,1.2l2.6,0.2l1-0.8l3.5-1.3l-0.1-0.2L86.3,91.3L86.3,91.3z M84.4,92.9
		l-2.6-0.2l-1.4,1.2l2.6,0.2l1.1-0.9l3.6-1l0-0.2L84.4,92.9L84.4,92.9z M82.5,94.5l-2.6-0.2l-1.4,1.2l2.6,0.2l1.1-1l3.6-0.6l0-0.2
		L82.5,94.5L82.5,94.5z M80.6,96L78,95.8L76.6,97l2.6,0.2l1.2-1l3.7-0.3l0-0.2L80.6,96L80.6,96z M76.2,97.4l-1.4,1.2l2.6,0.2l1.2-1
		l3.6,0.3l0-0.2L76.2,97.4L76.2,97.4z M85.4,86.5l-0.2,2.6l-1.4,1.2l0.2-2.6l0.9-0.7l2.1-3l0.2,0.1L85.4,86.5L85.4,86.5z M83.6,88.1
		l-0.2,2.6l-1.4,1.2l0.2-2.6l1-0.9l1.9-3.2l0.2,0.1L83.6,88.1L83.6,88.1z M81.7,89.7l-0.2,2.6L80,93.5l0.2-2.6l1.1-0.9l1.6-3.4
		l0.2,0.1L81.7,89.7L81.7,89.7z M79.8,91.3l-0.2,2.6l-1.4,1.2l0.2-2.6l1.1-1l1.3-3.5l0.2,0.1L79.8,91.3L79.8,91.3z M78,92.8
		l-0.2,2.6l-1.4,1.2l0.2-2.6l1.2-1l1-3.6l0.2,0.1L78,92.8L78,92.8z M75.9,97l-1.4,1.2l0.2-2.6l1.2-1l0.3-3.6l0.2,0L75.9,97L75.9,97z
		 M70.3,104.8c7.3-0.5,12.4-1.6,20.3-4.1c-8.5,0.4-13.8,1.1-21.1,3.3l0.3,0.3l7.4-1.5l4.4-0.7h0l0,0l-4.7,0.9l-6.8,1.5
		C70.1,104.6,70.2,104.7,70.3,104.8L70.3,104.8L70.3,104.8z M76,111l1-0.5l-1.5-2.1l1.7,2l1-0.5l-2-2.4l2.3,2.3l1.1-0.5l-2.6-2.6
		l3,2.5l1.1-0.5l-3.4-2.8l3.8,2.6l1.2-0.5l-4.2-3l4.7,2.7l1.2-0.6l-5.2-3c-0.2,0-0.4,0.1-0.6,0.1c-0.3,0-0.5,0.1-0.8,0.1l-0.7,0.7
		c-2.4,0-3.6-0.2-5.2,0L76,111L76,111z M79.2,104.1l5.7,2.7l1.3-0.6l-4.7-2.2h-1.6C79.6,104,79.4,104.1,79.2,104.1L79.2,104.1
		L79.2,104.1z M73.8,101.2l-1.4-0.5l-1.6,0.9l-0.9-0.3l-1.3,0.7l0.9-0.9l-0.9-0.3l0.3,0.4l-0.6,0.8l0.2,0.4l1.1-0.4l0.3,0.3l-1,0.9
		l3.4-1.8l-3.3,2.1l0.2,0.3l3-1.1l1.1-0.8L73.8,101.2L73.8,101.2z M94.9,92.4h-2.6l-1.3,1.3h2.6l0.8-0.8l3.2-1.8l-0.1-0.2L94.9,92.4
		L94.9,92.4z M93.1,94.1h-2.6l-1.3,1.3h2.6l0.9-0.9l3.4-1.6L96,92.8L93.1,94.1L93.1,94.1z M91.4,95.9h-2.6l0,0
		c0.5,0.2,0.9,0.3,1.4,0.6l0.5,0.2l0.5-0.5l3.5-1.3l-0.1-0.2L91.4,95.9L91.4,95.9z M91.9,91.2v0.9l-1.3,1.3V91c0,0,0,0,0,0
		c0,0,0,0,0,0h0l0,0c0,0,0,0,0,0l0,0c0,0,0,0,0,0c0,0,0,0,0,0c0,0,0,0,0,0c0,0,0,0,0,0c0,0,0,0,0,0c0.1,0,0.2,0,0.2,0l0,0
		c0,0,0,0,0,0c0,0,0,0,0,0c0,0,0,0,0,0l0,0c0,0,0,0,0,0l0,0c0,0,0,0,0,0c0,0,0.1,0,0.1,0h0l0,0c0,0,0,0,0.1,0l0,0h0l0,0c0,0,0,0,0,0
		c0,0,0,0,0,0h0c0,0,0,0,0,0l0,0c0,0,0,0,0,0l0,0l0,0c0,0,0,0,0,0c0.2,0,0.3,0,0.4,0L91.9,91.2C91.8,91.2,91.9,91.2,91.9,91.2
		L91.9,91.2L91.9,91.2z M90.2,91.2v2.6l-1.3,1.3v-0.9l0.8-0.5l0.4-0.2l-0.2-0.4L89.7,93l-0.2-0.4l-0.4,0.2l-0.3,0.1v-0.5l0.9-0.9
		L90,91c0.1,0,0.1,0,0.2,0l0,0L90.2,91.2L90.2,91.2z M88.5,92.9v0.3l-0.7,0.4l0.4-0.4l0.8-2.2l0.2-0.1L88.5,92.9L88.5,92.9z
		 M88.5,94.5v0.6l0,0l-0.1-0.2l-0.1-0.3L88.5,94.5L88.5,94.5z M88.4,95.6l-0.1,0.1c0,0-0.1,0-0.1,0l0,0L88.4,95.6L88.4,95.6z
		 M86.6,94.2l0.4-1.4l0.2-0.1l-0.3,1.3L86.6,94.2L86.6,94.2z M81.9,100.8v-0.3l0.7-0.2c0.2,0.1,0.4,0.2,0.6,0.3v0l-0.1,0L81.9,100.8
		L81.9,100.8z"/>
	<path class="st5" d="M39.6,34.3h47.2v46.2c0,9.5-10.2,8.1-15,8.1c-3.7,0-5.3,0.1-8.6,2.9c-3.3-2.8-4.8-2.9-8.6-2.9
		c-4.9,0-15,1.4-15-8.1V34.3L39.6,34.3z"/>
	<path class="st6" d="M85.5,83.2l-0.2,0.5L85,84.3l-0.3,0.4l-0.3,0.4l-0.3,0.4l-0.4,0.3l-0.4,0.3l-0.4,0.3L82,86.8l-1,0.3
		c-0.6,0.1-1.1,0.2-1.7,0.3c-0.8,0.1-1.6,0.2-2.4,0.2c-1.5,0-3,0-4.5-0.1c-1.6,0-3.1,0-4.7,0.3C67,88,66.5,88.2,66,88.4
		c-0.6,0.3-1.1,0.6-1.6,0.9c-0.4,0.3-0.8,0.5-1.1,0.9c-0.5-0.4-1.1-0.8-1.7-1.2c-0.6-0.4-1.2-0.7-1.9-0.9c-0.5-0.2-1.1-0.3-1.6-0.4
		c-1.3-0.2-2.6-0.2-3.9-0.2c-1.5,0-3,0.1-4.5,0.1c-0.8,0-1.6-0.1-2.4-0.2c-0.6-0.1-1.1-0.2-1.7-0.3l-1-0.3l-0.9-0.4l-0.4-0.3
		l-0.4-0.3l-0.4-0.3L42,85.1l-0.3-0.4l-0.3-0.4l-0.2-0.5L41,83.2l-0.2-0.6L40.7,82l-0.1-0.7l0-0.8V62.6h45.3v17.9l0,0.8L85.8,82
		l-0.1,0.7L85.5,83.2L85.5,83.2z"/>
	<path class="st1" d="M48.9,58.5c-1.2-0.1-2.5-0.1-3.7-0.1c-1.6,0-3.1,0-4.6,0.2v-4.5c1.1,0,2.3,0.2,3.6,0.6
		C46.5,55.6,48.3,57.1,48.9,58.5L48.9,58.5L48.9,58.5z M50.3,56L50.3,56c0.3,0.1,0.5,0.3,0.7,0.4c0.5,0.3,0.9,0.5,1.2,0.9
		c0.2,0.1,0.3,0.3,0.4,0.5c0.2,0.4,0.4,0.7,0.5,1.2c-1.3-0.1-2.5-0.2-3.8-0.3v-0.1c-0.1-0.2-0.2-0.4-0.3-0.6l-0.3-0.4
		c-0.2-0.2-0.3-0.4-0.5-0.6c-0.2-0.2-0.4-0.4-0.6-0.6c-0.2-0.2-0.4-0.4-0.7-0.5c-0.3-0.2-0.7-0.5-1-0.7c0,0,0,0,0,0
		c0.4,0,0.9,0,1.3,0.1C48.5,55.3,49.4,55.6,50.3,56L50.3,56L50.3,56z M47.1,54.6c-0.2,0-0.4,0-0.7-0.1c-0.3,0-0.7,0-1,0
		c-0.1,0-0.3,0-0.4,0c-0.3-0.1-0.5-0.2-0.8-0.3L43.6,54c-0.4-0.1-0.8-0.2-1.3-0.3c-0.3,0-0.6-0.1-0.9-0.1c-0.3,0-0.6,0-0.9,0v-1.5
		c0.4,0,0.9,0,1.4,0.1C44.2,52.5,46.1,53.5,47.1,54.6L47.1,54.6L47.1,54.6z M47.7,53.1C47.7,53.1,47.7,53.1,47.7,53.1l0.5,0.3
		c0.2,0.1,0.4,0.2,0.5,0.3c0.2,0.2,0.4,0.3,0.5,0.5c0.2,0.2,0.3,0.4,0.5,0.6l0.2,0.4l0.1,0.2c-0.2-0.1-0.5-0.2-0.7-0.2
		c-0.3-0.1-0.6-0.2-1-0.3c-0.2,0-0.4-0.1-0.6-0.1c-0.1-0.2-0.2-0.3-0.3-0.4l-0.3-0.4c-0.2-0.2-0.4-0.3-0.6-0.5
		c-0.2-0.2-0.5-0.3-0.7-0.5c-0.3-0.1-0.5-0.3-0.8-0.4c-0.1,0-0.2-0.1-0.2-0.1C45.9,52.5,46.9,52.7,47.7,53.1L47.7,53.1L47.7,53.1z
		 M43.6,51.9h-0.3c0,0,0,0-0.1,0c-0.1,0-0.2-0.1-0.3-0.1c-0.3-0.1-0.7-0.1-1-0.2l-0.3,0c-0.4,0-0.7-0.1-1.1-0.1V50
		c0.4,0.1,0.9,0.3,1.3,0.5C42.6,50.8,43.2,51.3,43.6,51.9L43.6,51.9L43.6,51.9z M45,50.9L45,50.9c0.2,0.1,0.4,0.1,0.6,0.2
		c0.4,0.2,0.8,0.4,1.1,0.6c0.2,0.1,0.3,0.3,0.5,0.4c0.1,0,0.1,0.1,0.2,0.2c0,0,0,0.1,0.1,0.1c-0.2,0-0.3-0.1-0.5-0.1
		c-0.4-0.1-0.8-0.2-1.2-0.2c-0.3,0-0.7-0.1-1-0.1c-0.2,0-0.3,0-0.5,0L44,51.6l-0.3-0.4c-0.2-0.2-0.3-0.3-0.5-0.5l-0.3-0.3
		C43.6,50.5,44.3,50.7,45,50.9L45,50.9L45,50.9z M43.5,49.6c0.2,0.1,0.4,0.3,0.7,0.4c0.1,0.1,0.1,0.1,0.2,0.2
		c-0.3-0.1-0.7-0.1-1-0.2c-0.3,0-0.6-0.1-1-0.1c-0.2,0-0.3,0-0.5,0c-0.2-0.1-0.3-0.1-0.5-0.2c-0.3-0.1-0.6-0.2-0.8-0.3c0,0,0,0,0,0
		v-0.4c0.7,0,1.4,0,2,0.2C42.9,49.4,43.2,49.5,43.5,49.6L43.5,49.6L43.5,49.6z"/>
	<path class="st3" d="M40.5,61.6V59c2.2-0.2,4.3-0.3,6.4-0.2c2.2,0.1,4.4,0.3,6.6,0.5c-0.2-0.8-0.4-1.5-1-2.3
		c-0.6-0.7-1.4-1.1-2-1.4c-0.2-1.3-1.6-2.5-2.5-2.9c-0.3-0.6-0.5-0.8-1-1.3c-0.6-0.5-1-0.6-1.6-0.9c-1-1.4-3-2.1-5-1.9V35.2h45.3
		v26.4H40.5L40.5,61.6z"/>
	<path class="st1" d="M66.7,39.2c0.3-0.4,0.7-0.3,1,0c0.3,0.4,0.4,1.2,1,1.7c0.8,0.7,1.7,0.6,2.3,0.5c0.2,0,0.8-0.2,1.1-0.5
		c0.3-0.2,0.4-0.7,0-0.9C72,40,71.9,40,71.9,39.8c0.1-0.2,0.3-0.1,0.4,0c0,0,0.1,0.1,0.2,0.3c0,0.2,0,0.3,0,0.5
		c0,0.1-0.1,0.3-0.2,0.4c-0.1,0.1-0.2,0.4,0.1,0.6c0.3,0.2,1-0.1,1.4-0.6c0.4-0.4,0.6-0.9,0.3-1.1c0.2-0.5,0.6-0.5,1-0.6
		c-0.2,0-0.4,0.1-0.5,0.4c-0.4,0.9,0.6,1.4,1.2,1c1,0.5,2.7-0.4,3.3-1.2c0.4-0.6,0.2-1.4-0.3-1.6c-1-0.3-0.8-1.1-0.5-1.3
		c0.3-0.2,0.6-0.3,0.8-0.3c-0.2,0-0.4,0.1-0.6,0.3c-0.2,0.3-0.1,0.9,0.3,1.1c0.3,0.2,0.9,0,1.3-0.1c0.4-0.1,1-0.5,1.2-0.8
		c0.2-0.4,0.3-0.8,0.3-1c0-0.2-0.3-0.2-0.4-0.2c-0.2,0-0.3,0-0.3-0.2c0-0.1,0.1-0.2,0.3-0.2c0.4,0,0.5,0.3,0.5,0.6
		c0,0.3-0.2,0.7-0.3,1c0.1-0.1,0.4-0.5,0.5-0.9c0.1-0.2,0.1-0.5,0.1-0.7h-7.4c-0.4,0.1-0.5,0.3-0.5,0.3s0.5-0.2,0.9,0
		c0.2,0,0.3,0.2,0.4,0.3c0.2,0.3,0.2,0.7,0.1,0.7c-0.1,0.1-0.2,0-0.3-0.4c-0.1-0.8-0.9-0.6-1.2-0.5c-0.3,0.1-0.7,0.5-0.8,0.7
		c-0.1,0.1-0.5,1.1,0.1,1.5c0.6,0.4,1.4-0.4,1.4-0.4s-0.1,0.4-0.6,0.6c-0.5,0.2-1.3-0.4-1.6-0.8c-0.3-0.4,0.3,0-0.6-0.8
		c-0.9-0.9-2.1-0.7-2.1-0.7c0.1,0,0.3,0.1,0.6,0.3c0.5,0.3,0.5,0.9,0.5,0.9c-0.1-0.3-0.2-0.6-0.4-0.7c-0.6-0.5-1.5-0.6-2.4-0.5
		c-0.9,0.1-1.6,0.9-1.9,1.2c-0.1,0.1-0.5,0.5-0.9,0.6c-0.3,0.1-0.9,0.1-0.7-0.2c0.1-0.3,0.4,0.1,0.8,0c0.2,0,0.6-0.2,0.8-0.5
		c-0.8-0.2-1.8-0.5-2.4-0.5c-1.7,0-2.8,0.5-3.3,1.9h0.2h5L66.7,39.2L66.7,39.2L66.7,39.2z"/>
	<path class="st5" d="M58.9,38.1v1.3h0.7v2.9c-0.9,0.5-1.7,1.4-2.2,2.4c-0.4,0.8-0.7,1.8-0.7,2.8h-1.2V49h-1.1v10.4h18.5V49h-1.1
		v-1.5h-1.3c-0.1-2.6-1.7-4.8-3.9-5.6v-1.4h0.4v-1.3l-1.5-1.1h-5H58.9L58.9,38.1z"/>
	<path class="st1" d="M59.2,38.5h5.7v0.6h-5.7V38.5L59.2,38.5z M64.1,42c-0.2-0.1-0.3-0.1-0.5-0.2v-2.3h0.6v2.5L64.1,42L64.1,42
		L64.1,42z M63.1,41.7c-0.2,0-0.3,0-0.4-0.1c-0.1,0-0.2,0-0.4,0c-0.1,0-0.3,0-0.4,0l-0.2,0c-0.2,0-0.5,0.1-0.7,0.1v-2.2h2.2v2.2
		L63.1,41.7L63.1,41.7L63.1,41.7z M60.5,41.9c-0.1,0-0.2,0.1-0.3,0.1c-0.1,0-0.2,0.1-0.3,0.1v-2.6h0.6L60.5,41.9L60.5,41.9
		L60.5,41.9L60.5,41.9z M56.9,47.7c0-0.1,0-0.3,0-0.4l0-0.2l0-0.2l0-0.2l0-0.2l0-0.2l0.1-0.2l0.1-0.2l0.1-0.2l0.1-0.2l0.1-0.2
		l0.1-0.2l0.1-0.2l0.1-0.2l0.1-0.2l0.1-0.2l0.1-0.2l0.1-0.2l0.1-0.2l0.1-0.2l0.1-0.2l0.2-0.1l0.2-0.1l0.2-0.1l0.2-0.1l0.2-0.1
		l0.2-0.1l0.2-0.1l0.2-0.1l0.2-0.1l0.2-0.1l0.2-0.1l0.2-0.1c0.1,0,0.2-0.1,0.3-0.1c0.1,0,0.2,0,0.3-0.1l0.1,0v0.6
		c-0.2,0-0.3,0.1-0.5,0.1l-0.2,0.1L60.4,43l-0.2,0.1l-0.2,0.1l-0.2,0.1l-0.1,0.1l-0.1,0.1l-0.1,0.1l-0.1,0.1l-0.1,0.1l-0.1,0.1
		L58.9,44l-0.1,0.1l-0.1,0.1l-0.1,0.1l-0.1,0.1l-0.1,0.1l-0.1,0.1l-0.1,0.1l-0.1,0.1L58.2,45l-0.1,0.1L58,45.3L58,45.4l-0.1,0.1
		l-0.1,0.1l-0.1,0.1l0,0.1l0,0.2l0,0.1l0,0.1l-0.1,0.3L57.5,47l0,0.3c0,0.4-0.1,0.8-0.1,1.2h-1.2V50h-1.1v9.1h-0.5v-9.7h1.1v-1.5
		h1.2L56.9,47.7L56.9,47.7L56.9,47.7z M63.3,42.2l0.3,0.1l0.2,0.1l0.2,0.1l0.2,0.1l0.2,0.1l0.2,0.1l0.2,0.1l0.2,0.1L65,43l0.2,0.1
		l0.2,0.1l0.2,0.1l0.1,0.2l0.1,0.1l0.1,0.2L66,44l0.1,0.2l0.1,0.2l0.1,0.2l0.1,0.2l0.1,0.2l0.1,0.2l0.1,0.2l0.1,0.2l0.1,0.2l0.1,0.2
		L67,46l0,0.2l0.1,0.2l0,0.2l0,0.2l0,0.2c0,0.1,0,0.2,0,0.3c0,0.2,0,0.4,0,0.6h1.2v1.5h1.1v9.7h-0.6V50H68v-1.5h-1.2
		c0-0.4,0-0.8-0.1-1.2l0-0.2l0-0.2l0-0.2l0-0.2l0-0.2l0-0.2l0-0.2l-0.1-0.2l-0.1-0.2l-0.1-0.2l-0.1-0.2l-0.1-0.2L66,45.1L66,44.9
		l-0.1-0.2l-0.1-0.1l-0.1-0.2l-0.2-0.2l-0.2-0.2l-0.2-0.2L65,43.8l-0.2-0.2l-0.2-0.2l-0.2-0.1l-0.2-0.1l-0.2-0.1L63.9,43l-0.2-0.1
		l-0.2-0.1l-0.2-0.1L63,42.7l-0.1,0v-0.6C63,42.1,63.1,42.2,63.3,42.2L63.3,42.2L63.3,42.2z M61.8,42.1c0.1,0,0.1,0,0.2,0
		c0.1,0,0.3,0,0.4,0v17h-0.6V42.1L61.8,42.1L61.8,42.1z M66.3,48.9h1.1v1.5h1.1v8.7h-1.7v-8V51l0-0.2l0-0.2l-0.1-0.2l-0.1-0.2
		l-0.1-0.1L66.5,50l-0.1-0.1l-0.1-0.1l-0.1-0.1L66,49.6l-0.2-0.1l-0.2-0.1l-0.2,0l-0.2,0l-0.2,0l-0.2,0l-0.2,0l-0.2,0l-0.2,0.1
		l-0.2,0.1l-0.1,0.1L64,49.8l-0.1,0.1L63.8,50l-0.1,0.1l-0.1,0.1l-0.1,0.2l-0.1,0.2l0,0.2l0,0.2v0.2v8h-0.5V43.1
		c0.2,0,0.3,0.1,0.5,0.1l0.1,0l0.1,0.1l0.1,0.1l0.1,0.1l0.1,0.1l0.1,0.1l0.1,0.1l0.1,0.1l0.1,0.1l0.1,0.1l0.1,0.1l0.1,0.1l0.2,0.2
		c0.1,0.1,0.2,0.2,0.2,0.3c0.1,0.1,0.1,0.2,0.2,0.3c0.1,0.1,0.1,0.2,0.2,0.3c0,0.1,0.1,0.2,0.2,0.3c0,0.1,0.1,0.2,0.1,0.3
		c0,0.1,0.1,0.2,0.1,0.3c0,0.1,0.1,0.2,0.1,0.3c0,0.1,0.1,0.2,0.1,0.3c0,0.1,0,0.2,0.1,0.3c0,0.1,0,0.2,0,0.3
		C66.3,47.9,66.3,48.4,66.3,48.9L66.3,48.9L66.3,48.9z M61.3,43.1v15.9h-0.5v-8l0-0.2l0-0.2l0-0.2l-0.1-0.2l-0.1-0.2l-0.1-0.1
		L60.4,50l-0.1-0.1l-0.1-0.1L60,49.7l-0.2-0.1l-0.2-0.1l-0.2-0.1l-0.2,0l-0.2,0l-0.2,0l-0.2,0l-0.2,0l-0.2,0l-0.2,0.1l-0.2,0.1
		l-0.1,0.1l-0.1,0.1l-0.1,0.1L57.7,50l-0.1,0.1l-0.1,0.1l-0.1,0.2l-0.1,0.2l0,0.2l0,0.2v0.2v8h-1.7v-8.7h1.1v-1.5h1.1
		c0-0.3,0-0.7,0.1-1c0-0.1,0-0.2,0-0.3c0-0.1,0-0.2,0-0.3c0-0.1,0-0.3,0.1-0.4l0.1-0.3l0.1-0.2l0.1-0.3l0.1-0.2l0-0.1l0-0.1l0.1-0.2
		l0.1-0.2l0.1-0.2l0.1-0.2l0.2-0.2l0.2-0.2l0.2-0.2l0.2-0.2l0.2-0.2l0.1-0.1l0.2-0.1l0.2-0.1l0.1-0.1l0.1,0l0.1-0.1l0.1,0l0.1,0
		C61,43.2,61.2,43.2,61.3,43.1L61.3,43.1L61.3,43.1z"/>
	<path class="st1" d="M72.7,58.9c4.4,0,8.7-3.4,13.1-3.5V57c-4.4,0.1-8.7,2.5-13.1,2.5V58.9L72.7,58.9L72.7,58.9z M85.8,48.9v1.6
		c-4.4,0.2-8.7,6.5-13.1,6.6v-0.6C77.1,56.4,81.4,49.1,85.8,48.9L85.8,48.9L85.8,48.9z M85.8,51.1v1.6c-4.4,0.1-8.7,5.1-13.1,5.1
		v-0.6C77.1,57.2,81.4,51.3,85.8,51.1L85.8,51.1L85.8,51.1z M85.8,53.3v1.6c-4.4,0.1-8.7,3.7-13.1,3.8V58
		C77.1,58,81.4,53.5,85.8,53.3L85.8,53.3L85.8,53.3z"/>
	<path class="st5" d="M70.6,84.3V82h-1c-0.1-0.2-0.3-0.3-0.4-0.4c-0.1-0.1-0.1-0.1-0.2-0.2c-0.1,0-0.1-0.1-0.2-0.1
		c-0.1,0-0.2-0.1-0.2-0.1c-0.1,0-0.2-0.1-0.3-0.1C68,81,67.8,81,67.6,80.9c-0.2,0-0.5-0.1-0.8-0.1c-0.3,0-0.6-0.1-0.9-0.3
		c-0.2-0.1-0.6-0.4-0.7-0.6c-0.2-0.3-0.1-0.7,0.2-0.9c0.2-0.1,0.5-0.2,0.7-0.2c0.3,0,0.6-0.1,0.8-0.1c0-0.2-0.1-0.3-0.1-0.5
		c-0.1-0.2-0.3-0.5-0.5-0.7c0.9,0,2-0.1,3-0.3c1.2-0.2,2.2-0.6,3.4-1c0.9-0.4,1.7-0.8,2.5-1.2c0.5-0.3,1.1-0.7,1.6-1.1
		c0.1-0.1,0.6-0.5,1.1-0.8c0.3-0.2,0.5-0.4,0.6-0.6c0-0.1-0.1-0.3-0.2-0.5c-0.2-0.3-0.3-0.5-0.6-0.7c-0.1,0-0.2-0.1-0.3-0.1
		c-0.1,0-0.2-0.1-0.4-0.1v-0.6h1.8c-0.1-0.2-0.2-0.5-0.3-0.7c-0.1-0.2-0.3-0.4-0.4-0.6c-0.3-0.3-0.5-0.4-0.9-0.6v-0.7H63.3h0H49.4
		v0.7c-0.3,0.1-0.6,0.3-0.9,0.6c-0.2,0.2-0.3,0.4-0.5,0.6c-0.1,0.2-0.2,0.5-0.3,0.7h1.8V71c-0.1,0-0.3,0.1-0.4,0.1
		c-0.1,0-0.2,0.1-0.3,0.1c-0.3,0.2-0.5,0.3-0.7,0.7c0,0.1-0.2,0.3-0.2,0.5c0,0.2,0.2,0.3,0.5,0.6c0.4,0.3,0.9,0.7,1.1,0.8
		c0.5,0.4,1,0.7,1.6,1.1c0.8,0.5,1.6,0.9,2.5,1.2c1.1,0.4,2.2,0.8,3.4,1c1,0.2,2,0.3,3,0.3c-0.2,0.1-0.4,0.5-0.5,0.7
		c-0.1,0.2-0.1,0.3-0.2,0.5c0.3,0,0.6,0.1,0.9,0.1c0.2,0,0.5,0.1,0.7,0.2c0.3,0.2,0.3,0.6,0.2,0.9c-0.1,0.2-0.5,0.5-0.7,0.6
		c-0.3,0.2-0.6,0.2-0.9,0.3c-0.2,0-0.5,0.1-0.8,0.1c-0.2,0-0.4,0.1-0.6,0.2c-0.1,0-0.2,0.1-0.3,0.1c-0.1,0-0.2,0.1-0.3,0.1
		c-0.1,0-0.2,0.1-0.2,0.1c-0.1,0-0.1,0.1-0.2,0.2c-0.2,0.1-0.3,0.3-0.4,0.4h-1v2.4H70.6L70.6,84.3z"/>
	<path class="st7" d="M60.8,80.8c0.2-0.1,0.4-0.3,0.6-0.4c0.2-0.2,0.3-0.4,0.3-0.6c0.1-0.3,0-0.6-0.1-0.8c-0.1-0.1-0.2-0.2-0.3-0.2
		c1.3,0,2.6,0,3.9,0c-0.1,0.1-0.2,0.1-0.3,0.2c-0.2,0.3-0.2,0.5-0.1,0.8c0.1,0.2,0.2,0.4,0.3,0.6c0.2,0.2,0.4,0.3,0.6,0.4
		C64.1,80.8,62.4,80.8,60.8,80.8L60.8,80.8L60.8,80.8z M76.6,70.4v0.6H49.9v-0.6H76.6L76.6,70.4z M76.7,68.9c0.4,0,0.7,0.2,1,0.5
		c0.2,0.2,0.3,0.5,0.5,0.7H48.3c0.1-0.3,0.3-0.5,0.5-0.7c0.3-0.3,0.6-0.5,1-0.5H76.7L76.7,68.9L76.7,68.9z M76.7,68.2v0.3H49.8v-0.3
		H76.7L76.7,68.2z M65.7,77.1c2.3,0,3.6-0.3,5.2-0.7c1.7-0.6,3.2-1.3,4.7-2.2c0.9-0.6,1.6-1.2,2.4-1.9v0c0-0.1-0.1-0.2-0.2-0.3
		c-0.2-0.2-0.4-0.4-0.7-0.5c-0.6-0.2-0.7-0.2-1.4,0.1c-0.8,0.3-1.7,1.2-2.5,2.1c-0.5,0.6-1.2,1.2-2,1.7
		C69.7,76.3,68.1,76.7,65.7,77.1L65.7,77.1L65.7,77.1z M65.2,76.9c0,0,0.1,0,0.2,0c1.4-0.2,1.7-0.1,3.2-0.5c2.7-0.9,3.2-1.5,4.1-2.4
		c0.5-0.6,1-1.1,1.5-1.7c0.8-0.9-1.3-1.1-1.9-0.4c-0.7,0.8-0.7,1-1.4,1.7c-0.7,0.8-1.6,2-2.9,2.6c-0.7,0.3-1.7,0.5-2.6,0.8
		C65.3,76.8,65.2,76.9,65.2,76.9L65.2,76.9L65.2,76.9z M64.6,76.8c0,0,0.1,0,0.2,0c1.1-0.2,1.6-0.2,2.6-0.7c2-0.8,2.2-1.4,3-2.3
		c0.4-0.5,0.9-1.1,1.3-1.7c0.6-0.9-1.3-1-1.7-0.4c-0.8,1.3-0.9,1.8-2,2.9c-0.7,0.7-1.9,1.4-3.3,1.9C64.8,76.7,64.6,76.7,64.6,76.8
		L64.6,76.8L64.6,76.8z M64,76.7c0,0,0.1,0,0.2,0c0.9-0.2,1.3-0.3,2-0.7c1.3-0.7,2.1-1.4,2.5-2.2c0.3-0.5,0.6-1,1-1.6
		c0.5-0.9-1.4-1.1-1.8-0.3c-0.5,1.1-0.6,1.5-1.4,2.6c-0.6,0.8-1.3,1.6-2.4,2C64.1,76.5,63.9,76.6,64,76.7L64,76.7L64,76.7z
		 M63.5,76.7c0,0,0.1,0,0.1,0c0.6-0.3,0.6-0.3,1.1-0.7c1-0.7,1.5-1.4,2-2.2c0.3-0.5,0.5-1,0.7-1.6c0.4-0.9-1.6-1.2-2,0
		c-0.3,1-0.3,1.4-0.8,2.4c-0.4,0.9-0.5,1.3-1.1,2C63.6,76.5,63.4,76.6,63.5,76.7L63.5,76.7L63.5,76.7z M63.3,76.6
		C63.4,76.6,63.4,76.6,63.3,76.6c0.9-1.4,1.4-2.3,1.9-4.4c0.3-1.1-1.7-1.3-1.8,0l-0.2,4.3C63.3,76.5,63.3,76.6,63.3,76.6L63.3,76.6
		L63.3,76.6z M59.9,78.3h6.6c0-0.2-0.1-0.3-0.2-0.4c-0.5-0.6-1.1-0.8-1.7-1c-0.4-0.1-0.9-0.1-1.4-0.2h-0.1c-0.2,0-0.5,0-0.7,0
		c-0.2,0-0.4,0-0.7,0.1c-0.6,0.1-1.2,0.4-1.7,1C60.1,78,60,78.2,59.9,78.3L59.9,78.3L59.9,78.3z M67.4,81.3c0.5,0.1,1,0.2,1.5,0.5
		c0.1,0,0.2,0.1,0.2,0.2H57.4c0.1-0.1,0.1-0.1,0.2-0.2c0.4-0.3,1-0.4,1.5-0.5c0.2,0,0.3-0.1,0.5-0.1c2.4,0,4.9,0,7.3,0
		C67.1,81.2,67.2,81.2,67.4,81.3L67.4,81.3L67.4,81.3z M70.2,82.3v0.4h-14v-0.4H70.2L70.2,82.3z M70.2,83.1v0.9h-4.5
		c-1.7,0-3.3,0-5,0h-4.5v-0.9H70.2L70.2,83.1z M60.8,77.1c-2.3,0-3.6-0.3-5.2-0.7c-1.7-0.6-3.2-1.3-4.8-2.2
		c-0.9-0.6-1.6-1.2-2.4-1.9l0,0c0.1-0.1,0.1-0.2,0.2-0.3c0.2-0.2,0.4-0.4,0.7-0.5c0.7-0.2,0.8-0.2,1.4,0.1c0.8,0.3,1.7,1.2,2.5,2.1
		c0.5,0.6,1.2,1.2,2,1.7C56.8,76.3,58.4,76.7,60.8,77.1L60.8,77.1L60.8,77.1z M61.3,76.9c0,0-0.2,0-0.2,0c-1.4-0.2-1.7-0.1-3.2-0.5
		c-2.7-0.9-3.2-1.5-4.1-2.4c-0.5-0.6-1-1.1-1.6-1.7c-0.8-0.9,1.3-1.1,1.9-0.4c0.7,0.8,0.7,1,1.4,1.7c0.7,0.8,1.6,2,2.9,2.6
		c0.7,0.3,1.7,0.5,2.6,0.8C61.1,76.8,61.3,76.9,61.3,76.9L61.3,76.9L61.3,76.9z M61.8,76.8c0,0-0.1,0-0.2,0
		c-1.1-0.2-1.6-0.2-2.7-0.7c-2-0.8-2.2-1.4-3-2.3c-0.5-0.5-0.9-1.1-1.3-1.7c-0.6-0.9,1.3-1,1.7-0.4c0.8,1.3,0.9,1.8,2,2.9
		c0.7,0.7,1.9,1.4,3.3,1.9C61.7,76.7,61.9,76.7,61.8,76.8L61.8,76.8L61.8,76.8z M62.5,76.7c0,0-0.1,0-0.2,0c-0.9-0.2-1.3-0.3-2-0.7
		c-1.3-0.7-2-1.4-2.5-2.2c-0.3-0.5-0.6-1-1-1.6c-0.5-0.9,1.4-1.1,1.8-0.3c0.5,1.1,0.6,1.5,1.4,2.6c0.6,0.8,1.3,1.6,2.4,2
		C62.4,76.5,62.6,76.6,62.5,76.7L62.5,76.7L62.5,76.7z M63,76.7c0,0-0.1,0-0.1,0c-0.6-0.3-0.6-0.3-1.1-0.7c-1-0.7-1.5-1.4-2-2.2
		c-0.3-0.5-0.5-1-0.7-1.6c-0.4-0.9,1.6-1.2,2,0c0.4,1,0.3,1.4,0.8,2.4c0.4,0.9,0.5,1.3,1.2,2C62.9,76.5,63,76.6,63,76.7L63,76.7
		L63,76.7z M63.2,76.6C63.1,76.6,63.1,76.6,63.2,76.6c-0.9-1.4-1.4-2.3-1.9-4.4c-0.3-1.1,1.7-1.3,1.8,0l0.2,4.3
		C63.2,76.5,63.2,76.6,63.2,76.6L63.2,76.6L63.2,76.6z"/>
</g>
</svg>
