<?xml version="1.0" encoding="utf-8"?>
<!-- Generator: Adobe Illustrator 22.0.1, SVG Export Plug-In . SVG Version: 6.00 Build 0)  -->
<svg version="1.1" id="Слой_1" xmlns="http://www.w3.org/2000/svg" xmlns:xlink="http://www.w3.org/1999/xlink" x="0px" y="0px"
	 viewBox="0 0 127.3 127" style="enable-background:new 0 0 127.3 127;" xml:space="preserve">
<style type="text/css">
	.st0{fill:url(#SVGID_1_);}
	.st1{fill:#FFFFFF;}
	.st2{fill:#FE0000;}
	.st3{fill-rule:evenodd;clip-rule:evenodd;fill:#1F1A17;}
	.st4{fill-rule:evenodd;clip-rule:evenodd;fill:#FCEF01;}
	.st5{fill-rule:evenodd;clip-rule:evenodd;fill:#007225;}
	.st6{fill-rule:evenodd;clip-rule:evenodd;fill:#008FC9;}
	.st7{fill-rule:evenodd;clip-rule:evenodd;fill:#FFFFFF;}
	.st8{fill-rule:evenodd;clip-rule:evenodd;fill:#F0BE33;}
</style>
<radialGradient id="SVGID_1_" cx="64.8" cy="682.747" r="62.6" gradientTransform="matrix(1 0 0 1 0 -618.347)" gradientUnits="userSpaceOnUse">
	<stop  offset="0.9487" style="stop-color:#212121"/>
	<stop  offset="1" style="stop-color:#606060;stop-opacity:0"/>
</radialGradient>
<circle class="st0" cx="64.8" cy="64.4" r="62.6"/>
<circle class="st1" cx="62.6" cy="62.6" r="62.6"/>
<g>
	<path class="st2" d="M96.6,94.5v-0.2v-0.1h0c0-11.7,0-23.5,0.1-35.4c0-11.5,0.1-23.1,0.1-35.2H29.3c0,11.6,0,23.3,0,35
		c0,11.7,0,23.5,0,35.1h0v0.2c0,1.4,0.1,2.6,0.4,3.6c0.3,1,0.7,1.8,1.3,2.4c0.6,0.6,1.3,1.1,2.2,1.4c0.9,0.3,2.1,0.5,3.4,0.5h18.5
		l0,0h0c0,0,0.1,0,0.1,0c0,0,0.1,0,0.1,0c0.2,0,0.4,0,0.5,0l0,0c0.3,0,0.6,0,0.8,0.1c0.3,0,0.5,0.1,0.8,0.2c1.4,0.4,2.7,1.2,3.7,2.1
		l0,0l0,0c0.1,0.1,0.2,0.2,0.4,0.3c0.1,0.1,0.2,0.2,0.3,0.3c0.4,0.4,0.8,0.9,1.1,1.4c0-0.1,0.1-0.1,0.1-0.2c0.1-0.2,0.3-0.4,0.5-0.6
		c0.9-1.1,2.1-2.1,3.5-2.7c0.4-0.2,0.8-0.3,1.2-0.4c0.4-0.1,0.8-0.2,1.2-0.3c0.1,0,0.2,0,0.3,0c0.2,0,0.4,0,0.6-0.1v0h0.3h0h17.8H89
		v0l0.1,0l0,0c0.3,0,0.7,0,1-0.1c0.3,0,0.6-0.1,0.9-0.1c1.5-0.3,2.7-0.8,3.6-1.7l0,0l0,0l0,0c0.2-0.2,0.3-0.3,0.5-0.5
		c0.1-0.2,0.3-0.4,0.4-0.6C96.2,97.6,96.6,96.2,96.6,94.5L96.6,94.5L96.6,94.5z"/>
	<path class="st3" d="M68.4,29.9c-2.2-0.2-4.5,0-6.6,0c-0.4,0.6-0.5,0.7-0.9,1.3c-3.2,0-2.9,2.4-1.6,4.2c0.6-0.8,0.7-1.7,1.3-1.6
		c-0.8,4.6-3.1,7-5.7,7.8c-0.2-0.7-0.1-1-0.2-1.7c-0.7,0.6-1.4,0.9-2.2,1.4c-2.9-2.4-0.2-4.6,0-7.3c0.1-2.3-2.3-3-4.2-2.7
		c-8.2,2-12.8,12-12.9,21.3c0,3.7-0.1,7.8,0,11.8c0.2,6.4,0.2,12.4-1.7,16.6c0.9-0.1,1.4-0.4,2.1-0.9c0.2,1.8,0.1,4.2,0.2,6.5
		c0.1,1.5,0.2,3,0.6,4.2c1,2,2.2,2.9,5.3,2.7c-0.9-1.4-2.6-2.6-2.4-4.6c0.7,0.8,2.7,1.8,4.1,1.7c-2.4-2.8-1.7-5.4-1.7-8.4
		c4.1-4.9,7.8-11,12.1-14.7c0.9,0.4,0.7,5,0.4,6.4c-1.2,0.3-2.4,0.1-3.6,0.4c-1.6,0.3-1.7,1.8-1.3,3.5c0.5-0.5,1.1-0.9,1.6-1
		c-1.2,1.3-1.9,3.3-0.2,4.6c0.3-1.6,0.7-2,1.4-1.6c-1.2,1.5-1.2,2.9,1.4,3.7c0-1.9,0.7-2.3,1.4-2.7c0.5-0.3,1-0.7,1.2-2
		c0.8-0.5,1.5-0.6,2,0.1c-0.2,1.5-0.1,2.7-0.3,4c-0.2,1.6-0.4,3-1.6,4.2c0.9,0,2,0,2.9,0c0.2,1-0.6,1.8-1.3,2.8
		c1.4,0.2,3-0.2,3.7-0.7c1.4,2.2,2.4,2.3,4,0.1c1.7,0.6,2.7,0.2,4,0.2c-0.5-0.8-1.1-1.5-1.6-2.3c1.1,0.1,1.5,0.1,3,0
		C68.5,85,69.2,82,69,78.8c0.7-0.7,1.2-0.7,1.9,0c0.6,2.1,2.9,1.8,2.3,4.2c1.3-0.3,1.8-0.8,2.1-1.3c0.2-0.5,0.1-1-0.1-1.5
		c-0.2-0.3-0.3-0.6,0.1-0.9c0.3,0,0.8,0.9,1,1.8c1.6-1.1,1.5-2.5,0.2-3.5c-0.4-0.3-0.6-0.6-0.3-0.8c0.7,0,1.1,0.3,1.7,0.9
		c0.7-1.6,0.5-2.8-1.7-3.6c-1.1-0.4-2.3-0.2-3.5-0.3c-0.1-2,0.1-4.2,0-6.2c1.2,0.6,2.9,2.1,6,6.2c1.7,2.2,3.7,5,6,8.4
		c0.6,3.8,0.2,6.7-1.5,8.5c1.8-0.3,3.4-0.9,4.6-2c0.2,1.9-0.7,3.6-2.5,5.1c4.1-0.1,5.1-1.9,5.8-4.6c0.3-1.2,0.1-2.7,0.2-4.2
		s0-3.8,0.2-5c0.7,0,0.7,0.1,1.5,0.2c-1.8-3.9-1.2-8.3-1.4-12.8c0.1-2.9,0-7.6,0-11.9c0-5.3,0.1-9.4-2.3-14.4
		c-1.8-3.7-3.7-5.8-5.5-7.2c-1.1-0.8-2-1.4-3.3-1.9c-1.6-0.7-2.6-0.9-4.1-0.6c-1.8,0.7-2.5,2.5-1.7,4.2c0.8,1.8,2.1,3.9-0.5,5.8
		c-0.7-0.9-0.9-1.4-1.7-2.3c-0.1,1,0,2-0.5,2.3c-1,0.1-1.7-0.4-2.2-0.9c-1.9-1.6-2.9-5.2-2.8-8.9C67.6,30.9,67.8,30.7,68.4,29.9
		L68.4,29.9L68.4,29.9z"/>
	<path class="st4" d="M59.2,34.2c0.2-0.9,1.2-1.6,2.1-1.2C61,31.5,58.5,31.8,59.2,34.2L59.2,34.2z"/>
	<path class="st4" d="M54.3,45.1c-1.4-1-1.9-2.1-2.1-3.1c-1.8-1.3-2.1-2.5-1.8-3.8c0.4-1.8,1.9-3.6,1.4-4.7c-1.2-1.9-4-1.1-5.3-0.6
		c-2.4,0.9-4.1,2.5-5.9,4.8c-2.7,3.5-4.5,8.1-4.6,13.4c2.2-5.7,4.7-9.9,9.1-10.6c-3,3.2-6,7.4-5.6,12.3c1.8-3.5,3.6-6.9,6.4-8
		c-1.7,2.5-2.5,5.6-2.9,9c1.2-2.7,2.7-4.9,4.7-5.9c-0.9,2-1.5,4-1.5,6c0.9-1.7,2.1-2.9,3.5-3.8c-0.6,1.5-0.8,3.1-0.9,4.7
		c0.8-1.3,1.9-2.8,2.7-3.4c0.4,1.4,0.6,2.2,1.3,3.5c0.2-1.3,0.6-1.8,1.2-2.4C53.9,50,54,47.3,54.3,45.1L54.3,45.1L54.3,45.1z"/>
	<polygon class="st3" points="55.1,53.6 71.8,53.6 71.8,65.8 55.1,65.8 55.1,53.6 	"/>
	<path class="st5" d="M55.1,66.1c5.6,0,11.1,0,16.7,0c0,2.4,0,4.8,0,7.2c-3.6,8.7-13.5,8.6-16.7,0C55.1,70.9,55.1,68.5,55.1,66.1
		L55.1,66.1z"/>
	<path class="st6" d="M55.1,53.5h16.7c0,3,0,5.8,0,8.8c-2.1-2.1-4-3.9-5.3-4.7c-1-0.6-2.2-0.4-3.1,0.4c-0.9-0.7-2-0.9-3-0.4
		c-0.7,0.3-1.3,1-2.3,1.9c-0.8,0.8-2,1.9-3,2.9V53.5L55.1,53.5L55.1,53.5z"/>
	<path class="st7" d="M55.1,62.8c1.7-1.4,3.2-3,4.4-4c2.2-1.9,3-1,3.7-0.4c0.1,0.1,0.3,0.2,0.4,0.3c0.5,0.5,1.1,1,1.2,1.1
		c-0.6-0.6-0.9-0.9-1.3-1.3c0.2-0.4,1-0.8,1.3-0.9c0.6-0.1,1.2,0.1,1.6,0.4c0.9,0.6,1.8,1.4,2.1,1.8c0.9,0.9,2,1.9,3.2,2.9v2.9H55.1
		C55.1,64.8,55.1,63.8,55.1,62.8L55.1,62.8L55.1,62.8z"/>
	<path class="st3" d="M64.8,69.3l0,0.1l0,0.1c0.1,0.3,0.1,0.6,0.1,0.9l0,0.1l0,0.1c0,0.3,0,0.6-0.1,0.9l0,0.1l0,0.1
		c-0.1,0.5-0.4,1-0.5,1.6c0,0.3,0,0.7,0.1,1c0.2,0.3,0.8-0.2,0.9-0.4c0.1-0.1,0.3-0.2,0.4-0.3c0.3-0.3,0.7-0.6,1.1-0.8
		c0.6-0.2,1.1-0.4,1.7-0.5l0.1,0c0.6,0,1.1,0,1.6,0.3l0.1,0l0.3,0.2l0,0.3l0,0.1c-0.1,0.5-0.4,0.9-0.7,1.2c-0.5,0.5-1.1,0.8-1.7,1.1
		l-0.1,0l-0.1,0c-0.5,0.2-1,0.3-1.6,0.3c-0.3,0-0.6,0-0.9,0c-0.1,0-0.2,0-0.4,0c-0.3,0.1-0.2,0.3-0.2,0.5v2.1h-2.8v-2.2l0-0.1
		c0,0,0-0.1,0-0.1c0-0.1,0-0.1-0.1-0.2c-0.1-0.1-0.2-0.1-0.4-0.1l0,0c-0.4,0-0.9,0-1.3,0l-0.1,0c-0.3,0-0.6,0-0.8-0.1l-0.1,0
		c-0.5-0.1-0.9-0.3-1.4-0.5c-0.5-0.3-1-0.6-1.3-1.1l-0.1-0.1c-0.1-0.3-0.2-0.5-0.3-0.8l0-0.1l0-0.3l0.3-0.2c0.5-0.2,1.1-0.3,1.6-0.2
		c0.2,0,0.4,0.1,0.6,0.1c0.7,0.2,1.3,0.4,1.8,0.9c0.3,0.2,0.6,0.5,0.9,0.7c0.2,0.1,0.4,0.3,0.6,0.3c0.2,0,0.3,0,0.4-0.1
		c0.1-0.1,0.1-0.3,0.1-0.4c0-0.4-0.1-0.7-0.2-1.1c0-0.1-0.1-0.3-0.1-0.4c-0.2-0.6-0.3-1.2-0.3-1.8l0-0.2c0-0.4,0.1-0.7,0.1-1.1
		l0-0.1l0-0.1l0-0.1c0.2-0.4,0.4-0.8,0.8-1.1l0.1-0.1l0.1-0.1l0.1,0l0.1,0l0.3-0.2l0.3,0.2C64.3,68.2,64.6,68.7,64.8,69.3L64.8,69.3
		L64.8,69.3z M63.5,68.1c0.6,0.4,1.1,1.2,1.1,2.8c0,1.2-0.6,1.8-0.6,2.6c0,0.4,0.1,1.4,0.5,1.5c0.8,0.1,1.6-1.2,2.5-1.6
		c1.5-0.7,2.6-0.6,3.2-0.2c-0.1,0.7-0.8,1.5-2.2,2.1c-1,0.5-1.8,0.3-2.4,0.3c-0.7,0-1.3,0.1-1.2,0.9c0,0.7,0,1.1,0,1.8
		c-0.7,0-1.1,0-1.8,0c0-0.6,0-1.2,0-1.9c0-0.3-0.2-0.5-0.3-0.6c-0.2-0.2-0.4-0.3-0.7-0.3c-1.1,0-1.9,0.1-2.9-0.3
		c-1.4-0.6-2-1.3-2.1-2.2c0.7-0.4,2.2-0.2,3.2,0.4c0.6,0.3,1.7,1.6,2.5,1.5c0.6-0.1,0.7-0.9,0.6-1.4c-0.1-0.7-0.6-1.5-0.6-2.6
		C62.4,69.2,62.9,68.5,63.5,68.1L63.5,68.1L63.5,68.1z"/>
	<path class="st4" d="M63.5,68c0.6,0.4,1.1,1.3,1.1,2.9c0,1.2-0.5,1.9-0.5,2.6c0,0.4,0,1.3,0.5,1.4c0.8,0.1,1.6-1.1,2.5-1.5
		c1.5-0.7,2.7-0.6,3.3-0.2c-0.1,0.7-0.8,1.5-2.3,2.1c-1,0.5-1.8,0.3-2.4,0.3c-0.7,0-1.3,0.1-1.2,0.9c0,0.7,0,1.1,0,1.8
		c-0.7,0-1.2,0-1.8,0c0-0.6,0-1.2,0-1.9c0-0.3-0.2-0.5-0.3-0.6c-0.2-0.2-0.4-0.3-0.7-0.3c-1.1,0-1.9,0.1-2.9-0.3
		c-1.4-0.6-2.1-1.3-2.1-2.2c0.7-0.4,2.2-0.2,3.2,0.4c0.9,0.4,1.7,1.6,2.5,1.5c0.6-0.1,0.6-0.9,0.6-1.4c-0.1-0.7-0.6-1.5-0.6-2.6
		C62.4,69.2,62.9,68.4,63.5,68L63.5,68z"/>
	<path class="st8" d="M54.2,53.1c0.1,3,0,6,0.1,9c-0.6,0.7-1.2,1.1-1.9,1.8C53.4,59.3,52.2,55.2,54.2,53.1L54.2,53.1z"/>
	<path class="st4" d="M51.5,52.8c0.1,1.1,0.6,1.4,0.8,2.5c0,1-0.3,6.7-0.3,8.8c-0.2,0.6-0.8,1.1-1.8,1.9c0.4-2,0.2-4.1,0.1-6.4
		C50.3,56.6,50.3,53.7,51.5,52.8L51.5,52.8L51.5,52.8z"/>
	<path class="st4" d="M50.1,54.1c-1.9,2.1-2,4.8-1.8,7.5c-0.1,2.4,0.3,4.4-0.3,6.5c0.6-0.4,1.3-1,1.8-1.7
		C49.9,62.2,49.9,58.4,50.1,54.1L50.1,54.1L50.1,54.1z"/>
	<path class="st4" d="M48.4,52.1c-2.5,2.1-3.1,6.8-2.9,10.2c-0.1,2.9,0.1,5.8-0.6,8.3c0.6-0.7,1.7-1.4,2.3-2.1
		C47.4,63.3,47.3,56.9,48.4,52.1L48.4,52.1L48.4,52.1z"/>
	<path class="st4" d="M46.2,49.9c-3.1,3.3-3.9,9-3.8,12.4c-0.1,2.9,0.3,8.2-0.3,10.7c0.5-0.6,1.3-1.2,2-1.8c0.4-0.4,0.3-0.6,0.3-1.2
		c0.1-2.1,0.3-4.8,0.3-7.6C44.9,57.5,45.2,52.5,46.2,49.9L46.2,49.9L46.2,49.9z"/>
	<path class="st4" d="M43.8,47.5c-1.8,1.9-3.1,4.2-3.8,6.7c-0.8,2.8-0.8,5.7-0.7,7.5c-0.1,2.9,0.5,11.6-0.6,14.1
		c0.5-0.6,1.6-1.4,2.3-2c0.1-0.2,0.3-0.8,0.3-1.5c0.1-2.7,0.2-7.8,0.3-10.6C41.8,57,42.5,50,43.8,47.5L43.8,47.5L43.8,47.5z"/>
	<path class="st4" d="M43.1,42.1c-2.8,1.1-6.4,7.2-6.6,10.1c-0.8,2.8-0.6,8.1-0.5,9.9c-0.1,2.9,0.6,14.3-0.7,16.8
		c0.6-0.7,1.9-1.7,2.5-2.4c0.3-0.4,0.5-1.2,0.6-1.9c0.1-3.3,0.2-9.8,0.3-12.4c0-2.5-0.1-6.5,0.1-10c0.1-1,0.2-2,0.5-3.1
		C40,45.6,41.6,43,43.1,42.1L43.1,42.1L43.1,42.1z"/>
	<path class="st4" d="M54,63.9c0,0.7,0,1.6,0,2.3c-0.6,0.6-1.6,2-2,2c0,0,0.1-2.4,0-2.5C52.2,65.4,54,63.9,54,63.9L54,63.9z"/>
	<path class="st4" d="M51.2,66.9c0,0.6,0.1,1.3,0.1,1.9c-0.5,0.5-1.4,1.7-1.7,1.7c0,0,0.1-2,0-2.1C49.8,68.2,51.2,66.9,51.2,66.9
		L51.2,66.9z"/>
	<path class="st4" d="M48.8,69c0,0.7,0,2,0,2.7c-0.5,0.6-1.4,1.9-1.7,1.9c0,0,0.1-2.9,0-3C47.4,70.3,48.8,69,48.8,69L48.8,69
		L48.8,69z"/>
	<path class="st4" d="M46.5,71c0,0.8,0,3.1,0,3.9c-0.5,0.7-1.1,2-1.7,2.1c0,0,0-4.4,0-4.5C45,72.2,46.5,71,46.5,71L46.5,71z"/>
	<path class="st4" d="M43.8,72.7c0,1.1,0,4.7,0,5.7c-0.6,1-1.4,2.3-2.1,2.4c0,0,0-5.9,0-6.1C42,74.4,43.8,72.7,43.8,72.7L43.8,72.7z
		"/>
	<path class="st4" d="M39,77.1c0,1.6,0,7.7,0,9.4c0.1,1.2,1.4,3,2.9,3c0,0-0.8-1.2-0.8-2.2c0-3.9,0-11.8,0-11.9
		C40.7,75.6,39,77.1,39,77.1L39,77.1L39,77.1z"/>
	<path class="st4" d="M36.3,79.3c0,1.7,0.4,8.1,0.4,9.7c0.1,1.3,1.6,3.8,3.3,3.9c0,0-1.6-1.5-1.6-3.6c0-1.2,0-2.5-0.1-4.1
		c-0.1-3.7-0.1-7.5-0.1-7.6C38,77.9,36.3,79.3,36.3,79.3L36.3,79.3z"/>
	<path class="st4" d="M61,45c0.4,0,1.7,1.9,2,2.7c0.1,0.2,0.1,0.5,0.1,0.7c0.1,1.4,0.1,2.8,0,4c-0.7,1.2-3.4,0.8-3.5-0.5
		c0-0.9-0.1-1.8-0.1-2.6c0-0.5,0-1.1,0-1.6C59.6,46.4,59.9,45.5,61,45L61,45L61,45z"/>
	<path class="st4" d="M58.5,44c0.6,0.1,0.7,1.7,0.7,2.1c0.1,0.7-0.5,0.8-0.6,1.8c-0.1,0.6-0.1,1.7,0,2.3c0.1,0.6,0.4,0.7,0.5,1
		c0.2,0.5,0.2,1.8,0,1.8c-1.2,0.2-1.8-0.2-2-0.8c-0.2-0.5-0.2-2.7-0.2-4.2c0-0.8,0.1-1.3,0.4-2C57.6,45,58.1,44.1,58.5,44L58.5,44
		L58.5,44z"/>
	<path class="st4" d="M56,45.2c0.4,0.1,0.6,0.7,0.4,1.2C56.2,47,56.1,47,56,47.3c-0.1,0.5-0.1,1.1-0.1,1.7c0,0.6,0,1.3,0.1,1.7
		c0.1,0.4,0.1,0.4,0.3,1c0.2,0.4,0.2,1.1,0,1.3C56.2,53,56,53,55.9,53c-0.4-0.1-0.9-0.6-1-1.6c0-0.8-0.1-1.6-0.1-2.3
		c0-0.9,0-2.1,0.1-3C55,45.5,55.4,45.2,56,45.2L56,45.2L56,45.2z"/>
	<path class="st4" d="M61.1,40.4c0.4,0.4,0.6,1.8,0.4,2.9c-0.5,1-1.2,1.5-1.9,1.8c-0.1-0.9,0-1.9-0.1-2.8
		C59.5,42.1,60.8,40.5,61.1,40.4L61.1,40.4L61.1,40.4z"/>
	<path class="st4" d="M63.6,46.8c1,0,1.4-1.2,1.4-2.7c0-1.7-0.6-3.7-1.4-4.5c-0.9,0.8-1.4,2.8-1.4,4.5
		C62.2,45.6,62.6,46.8,63.6,46.8L63.6,46.8z"/>
	<path class="st4" d="M66.1,45.1c-0.4,0-1.7,1.9-2.1,2.6c-0.1,0.2-0.1,0.4-0.1,0.6c-0.1,1.4-0.1,3,0,4.2c0.7,1.2,3.4,0.8,3.5-0.5
		c0-0.9,0.1-1.8,0.1-2.6c0-0.5,0-1.1,0-1.6C67.5,46.5,67.1,45.6,66.1,45.1L66.1,45.1z"/>
	<path class="st4" d="M68.6,44c-0.6,0.1-0.7,1.7-0.7,2.1c-0.1,0.7,0.5,0.8,0.6,1.8c0.1,0.6,0.1,1.7,0,2.3c-0.1,0.6-0.4,0.7-0.5,1
		c-0.2,0.5-0.2,1.8,0,1.8c1.2,0.2,1.8-0.2,2-0.8c0.2-0.5,0.2-2.6,0.2-4.1c0-0.9-0.1-1.4-0.5-2.2C69.4,45,69,44.2,68.6,44L68.6,44
		L68.6,44z"/>
	<path class="st4" d="M71.1,45.3c-0.4,0.1-0.6,0.7-0.4,1.2c0.2,0.5,0.3,0.5,0.4,0.8c0.1,0.5,0.1,1.1,0.1,1.7c0,0.6,0,1.3-0.1,1.7
		c-0.1,0.4-0.1,0.4-0.3,1c-0.2,0.4-0.2,1.1,0,1.3c0.1,0.1,0.3,0.1,0.5,0c0.4-0.1,0.9-0.6,1-1.6c0-0.8,0.1-1.6,0.1-2.3
		c0-0.9,0-2.1-0.1-3C72.1,45.5,71.7,45.3,71.1,45.3L71.1,45.3L71.1,45.3z"/>
	<path class="st4" d="M66,40.5c-0.4,0.4-0.6,1.8-0.4,2.9c0.5,1,1.2,1.5,1.9,1.8c0.1-0.9,0-1.9,0.1-2.8C67.5,42.2,66.3,40.6,66,40.5
		L66,40.5L66,40.5z"/>
	<path class="st4" d="M72.7,45.2c1.4-1,1.9-2.1,2.1-3.1c1.8-1.3,2.1-2.5,1.8-3.8c-0.4-1.8-1.8-3.7-1.3-4.8c1.2-1.9,3.8-1.2,5.2-0.4
		c2.4,0.9,4.1,2.5,5.9,4.8c2.7,3.5,4.5,8.1,4.6,13.4c-2.2-5.7-4.7-9.9-9.1-10.6c3,3.2,6,7.4,5.6,12.3c-1.8-3.5-3.6-6.9-6.4-8
		c1.7,2.5,2.5,5.6,2.9,9c-1.2-2.7-2.7-4.9-4.7-5.9c0.9,2,1.5,4,1.5,6c-0.9-1.7-2.1-2.9-3.5-3.8c0.6,1.5,0.8,3.1,0.9,4.7
		c-0.8-1.3-1.9-2.8-2.7-3.4c-0.4,1.4-0.6,2.2-1.3,3.5c-0.2-1.3-0.6-1.8-1.2-2.4C73.2,50.1,73.1,47.4,72.7,45.2L72.7,45.2L72.7,45.2z
		"/>
	<path class="st4" d="M72.8,53.2c-0.1,3,0,6-0.1,9c0.6,0.7,1.2,1.1,1.9,1.8C73.7,59.4,74.9,55.3,72.8,53.2L72.8,53.2z"/>
	<path class="st4" d="M75.6,52.9c-0.1,1.1-0.6,1.4-0.8,2.5c0,1,0.3,6.7,0.3,8.8c0.6,0.7,1.2,1.2,1.8,1.9c-0.4-2-0.2-4.1-0.1-6.4
		C76.8,56.8,76.7,53.9,75.6,52.9L75.6,52.9z"/>
	<path class="st4" d="M77,54.3c1.9,2.1,2,4.8,1.8,7.5c0.1,2.4-0.3,4.2,0.3,6.2c-0.6-0.5-1.2-1.1-1.8-1.7
		C77.2,62.1,77.2,58.5,77,54.3L77,54.3L77,54.3z"/>
	<path class="st4" d="M78.6,52.2c2.5,2.1,3.1,6.8,2.9,10.2c0.1,2.9-0.1,5.8,0.6,8.3c-0.6-0.7-1.7-1.4-2.3-2.1
		C79.7,63.4,79.7,57.1,78.6,52.2L78.6,52.2L78.6,52.2z"/>
	<path class="st4" d="M80.8,50c3.1,3.3,3.9,9,3.8,12.4c0.1,2.9-0.3,8.2,0.3,10.7c-0.5-0.6-1.3-1.2-2-1.8c-0.4-0.4-0.3-0.6-0.3-1.2
		c-0.1-2.1-0.3-4.8-0.3-7.6C82.2,57.7,81.8,52.6,80.8,50L80.8,50z"/>
	<path class="st4" d="M83.2,47.6c1.8,1.9,3.1,4.2,3.8,6.7c0.8,2.8,0.8,5.7,0.7,7.5c0.1,2.9-0.7,11.6,0.6,14.1
		c-0.5-0.6-1.6-1.4-2.3-2c-0.3-0.2-0.3-0.8-0.3-1.5c-0.1-2.7-0.2-7.8-0.3-10.6C85.3,57.1,84.6,50.2,83.2,47.6L83.2,47.6L83.2,47.6z"
		/>
	<path class="st4" d="M84,42.3c2.8,1.1,6.4,7.2,6.6,10.1c0.8,2.8,0.6,8.1,0.5,9.9c0.1,2.9-0.6,14.3,0.7,16.8
		c-0.6-0.7-1.9-1.7-2.5-2.4c-0.3-0.4-0.5-1.2-0.6-1.9c-0.1-3.3-0.2-9.8-0.3-12.4c0-2.5,0.1-6.5-0.1-10c-0.1-1-0.2-2-0.5-3.1
		C87.1,45.7,85.5,43.1,84,42.3L84,42.3L84,42.3z"/>
	<path class="st4" d="M73,64c0,0.7,0,1.6,0,2.3c0.6,0.6,1.6,2,2,2c0,0-0.1-2.4,0-2.5C74.8,65.5,73,64,73,64L73,64z"/>
	<path class="st4" d="M75.9,67c0,0.6-0.1,1.3-0.1,1.9c0.5,0.5,1.4,1.7,1.7,1.7c0,0-0.1-2,0-2.1C77.3,68.3,75.9,67,75.9,67L75.9,67z"
		/>
	<path class="st4" d="M78.2,69.1c0,0.7,0,2,0,2.7c0.5,0.6,1.4,1.9,1.7,1.9c0,0-0.1-2.9,0-3C79.7,70.5,78.2,69.1,78.2,69.1L78.2,69.1
		L78.2,69.1z"/>
	<path class="st4" d="M80.6,71.1c0,0.8,0,3.1,0,3.9c0.5,0.7,1.1,2,1.7,2.1c0,0,0-4.4,0-4.5C82.1,72.3,80.6,71.1,80.6,71.1L80.6,71.1
		L80.6,71.1z"/>
	<path class="st4" d="M83.2,72.9c0,1.1,0,4.7,0,5.7c0.6,1,1.4,2.3,2.1,2.4c0,0,0-5.9,0-6.1C85.1,74.5,83.2,72.9,83.2,72.9L83.2,72.9
		z"/>
	<path class="st4" d="M88,77.2c0,1.6,0,7.7,0,9.4c-0.1,1.2-1.4,3-2.9,3c0,0,0.8-1.2,0.8-2.2c0-3.9,0-11.8,0-11.9
		C86.4,75.8,88,77.2,88,77.2L88,77.2z"/>
	<path class="st4" d="M90.7,79.4c0,1.7-0.4,8.1-0.4,9.7C90.3,90.4,88.8,93,87,93c0,0,1.6-1.5,1.6-3.6c0-1.2,0-2.5,0.1-4.1
		c0.1-3.7,0.1-7.5,0.1-7.6C89.1,78,90.7,79.4,90.7,79.4L90.7,79.4L90.7,79.4z"/>
	<path class="st4" d="M59.8,79.4c0,1,0,3.6,0,4.6c0,1-0.5,2.5-2.1,2.4c0,0,0.8-0.7,0.9-2.1c0-2.3,0.1-5.6,0.1-5.7
		C59,78.8,59.8,79.4,59.8,79.4L59.8,79.4z"/>
	<path class="st4" d="M61.8,80.4c0,1.1,0,5.1,0,6.2c-0.1,0.8-0.8,2.2-2.3,2.2c0,0,0.8-1.4,0.9-2.5c0.2-2.5,0.1-6.4,0.1-6.6
		C60.8,80,61.8,80.4,61.8,80.4L61.8,80.4L61.8,80.4z"/>
	<path class="st4" d="M67.3,79.4c0,1,0,3.7,0,4.7c0,1,0.5,2.5,2.1,2.4c0,0-0.8-0.7-0.9-2.1c0-2.3-0.1-5.7-0.1-5.8
		C68.1,78.9,67.3,79.4,67.3,79.4L67.3,79.4z"/>
	<path class="st4" d="M65.3,80.4c0,1.1,0,5.1,0,6.2c0.1,0.8,0.8,2.2,2.3,2.2c0,0-0.8-1.4-0.9-2.5c-0.2-2.5-0.1-6.5-0.1-6.6
		C66.3,80,65.3,80.4,65.3,80.4L65.3,80.4L65.3,80.4z"/>
	<path class="st4" d="M62.6,80.4c0.5,0.1,1.5,0,2,0c0,1.8,0,3.1,0,4.9c0,0.7,0.3,1.8,0.3,2.5c0,0.4-0.1,0.7-0.2,1.1
		c-0.3,0.8-0.6,1-1.1,1.2c-0.5-0.2-0.7-0.5-1.1-1.2c-0.2-0.4-0.2-0.7-0.2-1.1c0-0.7,0.3-1.8,0.3-2.6C62.6,83.5,62.6,82.3,62.6,80.4
		L62.6,80.4L62.6,80.4z"/>
	<path class="st4" d="M53,82.5c-1.3-0.5-1.4-1.6-0.4-2.4c0.4,0.2,0.6,0.4,0.8,0.7C52.7,81.2,52.6,81.8,53,82.5L53,82.5z"/>
	<path class="st4" d="M52,78.7c-0.1-0.6-0.1-1,0-1.3c0,0,0.6-0.6,0.9-0.7c0.6,0,1,0.7,0.9,1.3c-0.2,0.3-0.3,0.5-0.7,0.7
		C52.9,78.7,52.5,78.8,52,78.7L52,78.7z"/>
	<path class="st4" d="M53.2,74.7c-0.5,0.2-1.6,0.1-1.8,0.3c0,0.1,0,1.3,0,1.3c0.1,0.2,0.3,0.2,1,0.3C53,76.1,53.3,75.4,53.2,74.7
		L53.2,74.7z"/>
	<path class="st4" d="M49.7,76.8c-0.5-0.8,0.2-1.7,1.2-1.9c0.2,0.3,0,0.8,0,1C50.3,76,49.7,76.2,49.7,76.8L49.7,76.8L49.7,76.8z"/>
	<path class="st4" d="M50.5,80.1c-0.8-0.7-0.1-1.9,0.8-2.1c0.2,0,0.3,0.6,0.3,0.8C51.1,79.3,50.5,79.1,50.5,80.1L50.5,80.1z"/>
	<path class="st4" d="M53.4,80.3c-0.2-0.6-0.1-0.8-0.1-1.2c0,0,0.8-0.7,1.2-0.7c0.4,0.2,0.8,0.7,0.8,1.2c-0.2,0.3-0.3,0.5-0.7,0.7
		C54.3,80.3,53.9,80.4,53.4,80.3L53.4,80.3z"/>
	<path class="st4" d="M54.4,78c-0.1-0.6,0.4-1.3,1.4-1.7c0.4,0.2,0.9,0.8,0.9,1.2C56.6,78.3,55.2,77.9,54.4,78L54.4,78L54.4,78z"/>
	<path class="st4" d="M55,74.7c-0.3-0.1-0.6-0.1-0.9,0c-0.1,0.1-0.3,0.2-0.4,0.4c-0.1,0.5-0.4,0.6-0.4,0.9c0,0.2,0.3,0.6,0.3,0.6
		c0.1,0.2,0.5,0,1.1,0c0.1-0.3,0.7-0.5,0.7-1C55.4,75.1,55.1,75,55,74.7L55,74.7L55,74.7z"/>
	<path class="st4" d="M74,82.5c1.3-0.5,1.4-1.6,0.4-2.4c-0.4,0.2-0.5,0.3-0.7,0.9C74.4,81.4,74.4,81.8,74,82.5L74,82.5L74,82.5z"/>
	<path class="st4" d="M75.1,78.6c0.1-0.6,0.1-1,0-1.3c0,0-0.6-0.6-0.9-0.7c-0.6,0-1,0.7-0.9,1.3c0.2,0.3,0.3,0.5,0.7,0.7
		C74.2,78.7,74.6,78.8,75.1,78.6L75.1,78.6z"/>
	<path class="st4" d="M73.9,74.9c0.6-0.2,1.6-0.1,1.9,0.1c0,0.1,0,1.3,0,1.3c-0.1,0.2-0.5,0.5-1,0.3C74.1,76,73.8,75.5,73.9,74.9
		L73.9,74.9z"/>
	<path class="st4" d="M77.7,76.9c0.5-0.8-0.2-1.7-1.2-1.9c-0.2,0.3,0,0.8,0,1C77,76,77.6,76.2,77.7,76.9L77.7,76.9L77.7,76.9z"/>
	<path class="st4" d="M76.5,80c1-0.8,0.4-1.8-0.8-2c-0.2,0-0.1,0.5-0.1,0.7C76.1,79.4,76.4,79,76.5,80L76.5,80L76.5,80z"/>
	<path class="st4" d="M73.6,80.3c0.2-0.6,0.4-0.7,0.3-1.1c0,0-0.9-0.8-1.2-0.8c-0.4,0.2-0.8,0.4-0.8,1.2c0.2,0.3,0.3,0.5,0.7,0.7
		C72.8,80.3,73.1,80.4,73.6,80.3L73.6,80.3L73.6,80.3z"/>
	<path class="st4" d="M72.7,78c0.1-0.6-0.4-1.3-1.4-1.7c-0.4,0.2-0.9,0.8-0.9,1.2C70.5,78.3,71.9,77.9,72.7,78L72.7,78z"/>
	<path class="st4" d="M72.9,74.6c0.3,0.3,0.8,0.8,0.8,1.3c0,0.2-0.3,0.6-0.3,0.6c-0.1,0.2-0.5,0-1.1,0c-0.1-0.3-0.7-0.5-0.7-1
		C71.7,74.9,72.2,74.3,72.9,74.6L72.9,74.6z"/>
	<path class="st4" d="M62.3,30.4c0.5,0.1,1,0.2,1.5,0.2c1.2,0.1,2.1,0,2.9,0.1c-0.3,0.6-0.6,0.9-1,1.2c0.5,0.4,0.7,0.7,0.8,1.3
		c0.1,6,4.5,11.8,6.6,8.2c1.1,0.8,0.6,2.6-1.1,3.3c-0.7,0.3-1.9,0.4-2.5-0.2c-1.5-1.6-1.9-3.2-3.6-5.2c-0.3,0.5-0.7,1.1-1,1.5
		c-0.7-0.9-0.9-1.8-1.3-2.6C63.1,39,62.6,40,62,40.8c-0.4-0.4-0.6-1-1-1.6c-0.7,1-1.3,2-2,3c-0.6,0.8-1.1,1.5-1.8,2.2
		c-0.5,0.5-1.2,0.6-1.9,0.4c-0.8-0.2-1.4-0.8-1.9-1.5c-0.7-0.9-0.4-1.8,0.2-2.2c0.3,1,1,1.3,1.8,1.2c2.2-0.4,5.6-4.1,5.6-8
		c0.4-0.3,0.8-0.5,1.1-0.6c-0.1-0.3-0.1-0.3-0.1-0.6c-0.7-0.4-0.7-1-0.6-1.5c0.2,0,0.4,0.1,0.6,0c0.1,0.4,0.4,0.7,0.9,0.9
		c0.7-0.3,1.1-0.8,1.2-1.3c-0.8,0.1-1.8,0.2-2.1-0.3C62.3,30.8,62.3,30.6,62.3,30.4L62.3,30.4z"/>
	<path class="st6" d="M63.1,31.6c0.2,0,0.3,0.1,0.3,0.3c0,0.2-0.1,0.3-0.3,0.3c-0.2,0-0.3-0.1-0.3-0.3C62.8,31.8,63,31.6,63.1,31.6
		L63.1,31.6z"/>
</g>
</svg>
