<svg version="1.1" id="Слой_1" xmlns="http://www.w3.org/2000/svg" x="0" y="0" viewBox="0 0 127.3 127" xml:space="preserve"><style>.st1{fill:#fff}.st2{fill:#c89429}.st6{fill:#da251d}.st7{fill-rule:evenodd;clip-rule:evenodd;fill:#00793f}.st8{fill:#d23026}.st11,.st9{fill-rule:evenodd;clip-rule:evenodd;fill:#c89429}.st11{fill:#fff}</style><radialGradient id="SVGID_1_" cx="64.8" cy="-2458.747" r="62.6" gradientTransform="matrix(1 0 0 -1 0 -2394.347)" gradientUnits="userSpaceOnUse"><stop offset=".949" stop-color="#212121"/><stop offset="1" stop-color="#606060" stop-opacity="0"/></radialGradient><circle cx="64.8" cy="64.4" r="62.6" fill="url(#SVGID_1_)"/><circle class="st1" cx="62.6" cy="62.6" r="62.6"/><path class="st2" d="M20.2 64.6v1.1l.1 1.1.1 1.1.1 1.1.2 1.1.2 1 .2 1 .2 1 .2 1 .3 1 .3 1 .3 1 .4 1 .4 1 .4 1 .4 1 .4.9.5.9.5.9.5.9.5.9.5.9.6.9.6.8.6.8.6.8.6.8.7.8.7.8.7.8.7.7.7.7.7.7.8.7.8.7.8.6.8.6.8.6.8.6.8.6.9.5.9.5.9.5.9.5.9.5.9.4 1 .4 1 .4 1 .4 1 .4 1 .3 1 .3 1 .3 1 .2 1 .2 1 .2 1.1.2 1.1.2 1.1.1 1.1.1 1.1.1H65l1.1-.1 1.1-.1 1.1-.1 1.1-.2 1-.2 1-.2 1-.2 1-.2 1-.3 1-.3 1-.3 1-.4 1-.4 1-.4 1-.4.9-.4.9-.5.9-.5.9-.5.9-.5.9-.5.9-.6.8-.6.8-.6.7-.7.8-.6.8-.7.8-.7.8-.7 1.4-1.4.7-.8.7-.8.7-.8.6-.8.6-.8.6-.8.6-.8.6-.9.5-.9.5-.9.5-.9.5-.9.5-.9.4-.9.4-1 .4-1 .4-1 .4-1 .3-1 .3-1 .3-1 .2-1 .2-1 .2-1 .2-1 .2-1.1.1-1.1.1-1.1.1-1.1v-4.4l-.1-1.1-.1-1.1-.1-1.1-.2-1.1-.2-1.1-.2-1-.2-1-.2-1-.3-1-.3-1-.3-1-.4-1-.4-1-.4-1-.4-1-.4-.9-.5-.9-.5-.9-.5-.9-.5-.9-.5-.9-.7-.6-.6-.8-.6-.8-.6-.8-.6-.8-.7-.8-.7-.8-.7-.7-.7-.7-.7-.7-.8-.8-.8-.7-.8-.7-.7-.5-.8-.6-.8-.6-.8-.6-.9-.6-.9-.5-.9-.5-.9-.6-.9-.5-.9-.5-.9-.4-1-.4-1-.4-1-.4-1-.4-1-.3-1-.3-1-.3-1-.2-1-.2-1-.2-1-.2-1.1-.2-1.1-.1H66l-1.1-.1h-4.4l-1.1.1-1.1.1-1.1.1-1.1.2-1.1.2-1 .2-1 .2-1 .2-1 .3-1 .3-1 .3-1 .4-1 .4-1 .4-1 .4-.9.4-.9.5-.9.5-.9.5-.9.5-.9.5-.6.6-.8.6-.8.6-.8.6-.8.6-.8.7-.9.6-1.5 1.4-.7.7-.7.7-.7.8-.7.8-.6.8-.6.8-.6.9-.6.8-.6.8-.5.9-.5.9-.5.9-.5.9-.5.9-.3 1-.4 1-.4 1-.4 1-.4 1-.3 1-.3 1-.3 1-.2 1-.2 1-.2 1-.2 1-.2 1.1-.1 1.1-.1 1.1-.1 1.1v3.2zm0 0"/><path class="st1" d="M21.1 64.6V61.3l.1-1.1.1-1.1.1-1 .1-1 .2-1 .2-1 .2-1 .2-1 .3-1 .3-1 .3-1 .3-1 .4-1 .4-.9.4-.9.4-.9.4-.9.5-.9.5-.9.5-.9.5-.8.6-.8.6-.8.6-.8.6-.8.6-.8.6-.8.7-.8.7-.7 1.4-1.4.7-.7.8-.7.8-.6.8-.6.8-.6.8-.6.8-.6.8-.6.8-.5.9-.5.9-.5.9-.5.9-.4.9-.4.9-.4.9-.4 1-.4 1-.3 1-.3 1-.3 1-.3 1-.2 1-.2 1-.2 1-.2 1-.1 1-.1 1.1-.1 1.1-.1h4.4l1.1.1 1 .1 1 .1 1 .1 1 .2 1 .2 1 .2 1 .2 1 .3 1 .3 1 .3 1 .3 1 .4.9.4.9.4.9.4.9.4.9.5.9.5.9.5.9.5.8.7.8.6.8.6.8.6.8.6.8.6.7.7.7.7.7.7.7.7.7.7.7.8.6.8.6.8.6.8.6.8.6.8.6.8.5.8.5.9.5.9.5.9.5.9.4.9.4.9.4.9.4 1 .4 1 .3 1 .3 1 .3 1 .2 1 .2 1 .2 1 .2 1 .1 1 .1 1 .1 1.1.1 1.1v4.4l-.1 1.1-.1 1-.1 1-.1 1-.2 1-.2 1-.2 1-.2 1-.3 1-.3 1-.3 1-.4 1-.4 1-.4.9-.4.9-.4.9-.5.9-.5.9-.5.9-.5.9-.5.8-.6.8-.6.8-.6.8-.6.8-.5.8-.6.8-.7.7-.7.7-.7.8-.7.7-.7.7-.8.6-.8.6-.8.6-.8.6-.8.6-.8.7-.8.6-.9.5-.9.5-.9.5-.9.5-.9.5-.9.4-.9.4-.9.4-1 .4-1 .4-1 .3-1 .3-1 .3-1 .2-1 .2-1 .2-1 .2-1 .1-1 .1-1 .1-1.1.1h-4.4l-1.1-.1-1.1-.1-1-.1-1-.1-1-.2-1-.2-1-.2-1-.2-1-.3-1-.3-1-.3-1-.4-1-.4-.9-.4-.9-.4-.9-.4-.9-.5-.9-.5-.8-.5-.9-.5-.8-.5-.8-.6-.8-.6-.8-.6-.9-.6-.8-.6-.7-.7-.8-.7-.7-.6-.7-.7-.7-.7-.7-.7-.7-.7-.6-.9-.6-.8-.6-.8-.6-.8-.6-.8-.6-.8-.5-.8-.5-.9-.5-.9-.5-.9-.4-.9-.4-.9-.4-.9-.4-.9-.4-1-.3-1-.3-1-.3-1-.3-1-.2-1-.2-1-.2-1-.2-1-.1-1-.1-1-.1-1-.1-1.1-.1-1.2zm0 0"/><path d="M44.8 47.4h.7l.2.1.2.1.2.1.2.1.2.1.2.1.4.3.4.3.4.3.4.3.4.4.4.4.4.4.4.4.4.4.4.4.5.4.5.5.5.4.5.4.6.4.6.4.3.2.3.2.3.2.3.2.3.2.3.2.3.2.4.2.4.2.4.1.4.1.4.1.4.1.4.1.5.1.5.1.5.1.5.1h4l.5-.1.5-.1.5-.1.4-.1.4-.1.4-.1.4-.1.4-.1.4-.1.4-.2.4-.2.4-.2.3-.2.3-.2.7-.4.6-.4.6-.4.6-.4.5-.4.5-.4.5-.4.5-.5.5-.5.5-.5.4-.4.4-.4.4-.4.4-.4.4-.4.4-.3.4-.3.4-.3.2-.1.2-.1.2-.1.2-.1.2-.1.2-.1h1.5l.3.1.3.1.3.1.3.2.6.4.3.2.3.3.3.3.3.3.2.3.9.6.2.3.2.4.2.4.2.4.2.4.2.4.2.5.3.9.1.5.1.5.1.5.1.5.1.5.1.5.1.5.1.6.1.6.1 1.2v3l-.1 1.2-.1.6-.1.6-.1.6-.1.6-.1.6-.1.6-.1.6-.2.6-.2.6-.2.6-.2.6c-6.7 18.1-31.8 21.2-44.5 6.1l-.4-.5-.4-.5-.3-.5-.3-.5-.3-.5-.3-.6-.3-.6-.3-.6-.2-.6-.2-.6-.2-.6-.4-1.2-.2-.6-.3-.6-.3-1.2-.1-.6-.1-.6v-.7l-.1-.6-.1-.6V58.3l.1-.6.1-.6.1-.5.1-.6.1-.5.1-.5.1-.5.1-.5.2-.5.2-.5.2-.5.2-.5.2-.4.2-.4.2-.4.2-.4.2-.4.2-.3.3-.3.3-.3.3-.3.3-.3.3-.2.3-.2.3-.2.3-.2.3-.1.3-.1.3-.1H44.8zm0 0" fill-rule="evenodd" clip-rule="evenodd" fill="#da251d"/><path d="M44.8 47.7l-.3-.3h.6l-.3.3zm-.3-.3h.6-.6zm.3.3v-.6.6zm0 0l.1-.6-.1.6zm.3-.6l-.1.6h-.2v-.6h.3zm-.1.6v-.6.6zm.3-.5l-.1.6H45l.1-.6h.2zm0 .5l.1-.6-.1.6zm.3-.5l-.1.6h-.2l.1-.6h.2zm-.1.6l.1-.6-.1.6zm.3-.5l-.2.5-.2-.1.1-.6.3.2zm-.1.5l.1-.6-.1.6zm.4-.4l-.2.5-.2-.1.2-.5.2.1zm-.2.5l.2-.5-.2.5zm.4-.5l-.2.6-.2-.1.2-.5h.2zm-.2.6l.2-.5-.2.5zm.4-.5l-.2.5h-.2l.2-.5h.2zm-.2.5l.2-.5-.2.5zm.2.1l-.2-.1.3-.5.2.1-.3.5zm0 0l.3-.5-.3.5zm.5-.3l-.3.5-.2-.1.3-.5.2.1zm-.3.5l.3-.5-.3.5zm.7-.3l-.3.5-.4-.3.3-.5.4.3zm-.3.5l.3-.5-.3.5zm.7-.2l-.3.5-.4-.3.3-.5.4.3zm-.3.5l.3-.5-.3.5zm.7-.2l-.4.4-.4-.3.4-.4.4.3zm-.3.5l.4-.4-.4.4zm.7-.1l-.4.4-.4-.3.4-.4.4.3zm-.3.4l.4-.4-.4.4zm.7 0l-.4.4-.4-.4.4-.4.4.4zm-.4.4l.4-.4-.4.4zm.8 0l-.4.4-.4-.4.4-.4.4.4zm-.4.4l.4-.4-.4.4zm.9 0l-.4.4-.5-.4.4-.4.5.4zm-.5.4l.4-.4-.4.4zm.5.4l-.4-.4.4-.4.4.4-.4.4zm0 0l.4-.4-.4.4zm.8 0l-.4.4-.4-.4.4-.4.4.4zm-.4.4l.4-.4-.4.4zm.4.5l-.4-.4.4-.4.4.4-.4.4zm0 0l.4-.4-.4.4zm.5.4l-.5-.4.4-.4.5.4-.4.4zm0 0l.4-.4-.4.4zm.5.5l-.5-.5.4-.4.5.5-.4.4zm0 0l.4-.4-.4.4zm.5.4l-.5-.4.4-.4.5.4-.4.4zm0 0l.4-.4-.4.4zm.5.5l-.5-.4.4-.4.5.4-.4.4zm0 0l.4-.4-.4.4zm.6.4l-.6-.4.3-.5.6.4-.3.5zm0 0l.3-.5-.3.5zm.6.4l-.6-.4.3-.5.6.4-.3.5zm0 0l.3-.5-.3.5zm.3.2l-.3-.2.3-.5.3.2-.3.5zm0 0l.3-.5-.3.5zm.3.2l-.3-.2.3-.5.3.2-.3.5zm0 0l.3-.5-.3.5zm.3.2l-.3-.2.3-.5.3.2-.3.5zm0 0l.3-.5-.3.5zm.4.2l-.3-.2.3-.5.3.2-.3.5zm0 0l.3-.5-.3.5zm.3.2l-.4-.2.3-.5.3.2-.2.5zm0 0l.3-.5-.3.5zm.4.1l-.3-.2.2-.5.3.2-.2.5zm0 0l.2-.5-.2.5zm.3.2l-.4-.2.2-.5.3.2-.1.5zm0 0l.2-.5-.2.5zm.6-.4l-.2.6-.4-.2.2-.5.4.1zm-.2.6l.2-.5-.2.5zm.4.1l-.4-.1.2-.5.4.2-.2.4zm0 0l.2-.5-.2.5zm.6-.4l-.2.5-.4-.1.2-.5.4.1zm-.2.6l.2-.5-.2.5zm.4.1l-.4-.1.2-.5.4.1-.2.5zm0 0l.2-.5-.2.5zm.4.1l-.4-.1.2-.5.4.1-.2.5zm0 0l.2-.5-.2.5zm.5.1l-.5-.1.2-.5.4.1-.1.5zm0 0l.2-.5-.2.5zm.4.1l-.4-.1.1-.6.4.1-.1.6zm0 0l.1-.6-.1.6zm.5.1l-.5-.1.1-.6.5.1-.1.6zm0 0l.1-.6h-.1v.6zm.5.1l-.5-.1.1-.6.5.1-.1.6zm-.1 0l.1-.6-.1.6zm.5.1l-.5-.1.1-.6.5.1-.1.6zm0 0l.1-.6-.1.6zm.5 0h-.5l.1-.6.5.1-.1.5zm0 0l.1-.6-.1.6zm.5.1L61 57l.1-.6h.5l-.1.7zm0 0l.1-.6-.1.6zm.6 0h-.5v-.6h.5v.6zm0 0v-.6.6zm.5 0h-.5v-.6h.5v.6zm0 0v-.6.6zm.9-.2l-.3.3h-.5v-.6h.5l.3.3zm-.3.3v-.6.6zm0-.6l.3.3h-.6l.3-.3zm.3.3h-.6.6zm.2.2h-.5v-.6h.5v.6zm0 0v-.6.6zm.5 0h-.5v-.6h.5v.6zm0 0v-.6.6zm.5 0h-.5v-.6h.5v.6zm0 0v-.6.6zm.5 0h-.5l-.1-.6h.5l.1.6zm0 0l-.1-.6.1.6zm.4-.7l.1.6-.5.1-.1-.6.5-.1zm.1.6l-.1-.6.1.6zm.5-.1l-.5.1-.1-.6.5-.1.1.6zm0 0l-.1-.6.1.6zm.4 0l-.5.1-.1-.6.5-.1.1.6zm0 0l-.1-.6.1.6zm.5-.1l-.5.1-.1-.6.4-.1.2.6zm0 0l-.1-.6.1.6zm.4-.1l-.4.1-.1-.6.4-.1.1.6zm0 0l-.1-.6.1.6zm.5-.2l-.4.1-.1-.6.4-.1.1.6zm-.1 0l-.1-.5.1.5zm.5-.1l-.4.1-.2-.5.4-.1.2.5zm0 0l-.2-.5.2.5zm.4-.1l-.4.1-.2-.5.4-.1.2.5zm0 0l-.2-.5.2.5zm.4-.1l-.4.1-.2-.5.4-.1.2.5zm0 0l-.2-.6.2.6zm.4-.2l-.4.2-.2-.6.4-.2.2.6zm0 0l-.2-.5.2.5zm.3-.2l-.3.2-.2-.5.4-.2.1.5zm0 .1l-.2-.5.2.5zm.4-.2l-.4.2-.2-.5.4-.2.2.5zm0 0l-.2-.5.2.5zm.4-.2l-.4.2-.2-.5.3-.2.3.5zm0 0l-.3-.5.3.5zm.3-.2l-.4.2-.2-.5.3-.2.3.5zm0 0l-.3-.5.3.5zm.7-.3l-.7.3-.3-.5.7-.4.3.6zm0 0l-.3-.5.3.5zm.7-.4l-.7.4-.3-.5.6-.4.4.5zm0 0l-.3-.5.3.5zm.6-.4l-.6.4-.3-.5.6-.4.3.5zm0 0l-.3-.5.3.5zm.6-.5l-.6.5-.3-.5.6-.4.3.4zm0 .1l-.3-.5.3.5zm.5-.5l-.5.4-.3-.4.5-.4.3.4zm0 0l-.3-.4.3.4zm.6-.4l-.5.4-.4-.4.5-.4.4.4zm-.1 0l-.4-.4.4.4zm.6-.5l-.5.4-.4-.4.5-.4.4.4zm0 0l-.4-.4.4.4zm.5-.4l-.5.5-.4-.5.5-.5.4.5zm0 0l-.4-.4.4.4zm.5-.5l-.5.5-.4-.4.5-.5.4.4zm0 0l-.4-.4.4.4zm0-.8l.4.4-.5.5-.4-.4.5-.5zm.4.4l-.4-.4.4.4zm.5-.5l-.4.4-.4-.4.4-.4.4.4zm0 0l-.4-.4.4.4zm0-.8l.4.4-.4.4-.4-.4.4-.4zm.4.4l-.4-.4.4.4zm.1-.8l.4.4-.4.4-.4-.4.4-.4zm.3.4l-.4-.4.4.4zm.1-.8l.4.4-.4.4-.4-.4.4-.4zm.3.5L78 49l.3.5zm.1-.8l.4.4-.4.4-.4-.5.4-.3zm.4.4l-.4-.4.4.4zm0-.8l.3.5-.4.3-.4-.4.5-.4zm.3.5l-.4-.4.4.4zm.1-.8l.3.5-.4.3-.3-.5.4-.3zm.3.5l-.3-.5.3.5zm.1-.7l.3.5-.4.3-.3-.6.4-.2zm.3.5l-.3-.5.3.5zm-.1-.7l.3.5-.2.1-.3-.5.2-.1zm.3.5l-.3-.5.3.5zm-.1-.6l.3.5-.2.1-.3-.5.2-.1zm.3.5l-.3-.5.3.5zm-.1-.6l.2.5-.1.1-.3-.5.2-.1zm.3.6l-.2-.5.2.5zm-.1-.6l.2.5-.2.1-.2-.5.2-.1zm.2.5l-.2-.5.2.5zm.1-.6l.2.5-.2.1-.2-.5.2-.1zm.1.5l-.2-.5.2.5zm.1-.6l.1.6-.2.1-.2-.5.3-.2zm.1.6l-.2-.5.2.5zm.1-.6l.1.6H81l-.1-.6h.2zm.1.5l-.1-.6.1.6zm.1-.6l.1.6h-.2l-.1-.6h.2zm.1.6l-.1-.6.1.6zm.1-.6v.6h-.2v-.6h.2zm.1.6v-.6.6zm.5-.3l-.3.3h-.2v-.6h.2l.3.3zm-.3.3v-.6.6zm0-.6l.3.3h-.6l.3-.3zm.3.3h-.6.6zm-.1.3h-.2v-.6h.2v.6zm-.1 0v-.6.6zm.4-.3l-.3.3v-.6l.3.3zm-.3.3v-.6.6zm-.1 0l-.3-.3h.6l-.3.3zm-.2-.3h.6-.6zm.5-.3l-.1.6h-.2v-.6h.3zm-.1.6v-.6.6zm.5-.5l-.1.6h-.3l.1-.6h.3zm-.1.5l.1-.6-.1.6zm.4-.5l-.1.5-.3-.1.1-.6.3.2zm-.1.6l.1-.6-.1.6zm.5-.4l-.2.5-.3-.1.2-.5.3.1zm-.2.5l.2-.5-.2.5zm.6-.4l-.3.5-.3-.1.2-.5.4.1zm-.3.5l.2-.5-.2.5zm.6-.3l-.3.5-.3-.2.2-.5.4.2zm-.3.5l.2-.5-.2.5zm.6-.3l-.3.4-.3-.2.3-.5.3.3zm-.3.4l.3-.5-.3.5zm.6-.2l-.3.5-.3-.3.3-.5.3.3zm-.3.4l.3-.5-.3.5zm.6-.2l-.4.4-.3-.2.4-.4.3.2zm-.3.5l.4-.4-.4.4zm.6-.2l-.4.4-.3-.3.4-.4.3.3zm-.4.4l.4-.4-.4.4zm.7-.1l-.4.4-.3-.3.4-.4.3.3zm-.4.4l.4-.4-.4.4zm.7-.1l-.4.4-.3-.3.4-.4.3.3zm-.5.4l.4-.4-.4.4zm.7-.1l-.5.3-.2-.3.5-.3.2.3zm-.4.4l.5-.3-.5.3zm.7 0l-.5.3-.2-.3.5-.3.2.3zm-.5.3l.5-.3-.5.3zm.7 0l-.5.3-.2-.3.5-.3.2.3zm-.5.3l.5-.3-.5.3zm.7.1l-.5.3-.2-.4.5-.3.2.4zm-.5.3l.5-.3-.5.3zm.8.1l-.5.3-.2-.4.5-.3.2.4zm-.5.3l.5-.3-.5.3zm.7.1l-.5.2-.2-.4.5-.2.2.4zm-.6.3l.5-.2-.5.2zm.7.2l-.5.2-.2-.4.5-.2.2.4zm-.5.2l.5-.2-.5.2zm.7.2l-.5.2-.2-.4.5-.2.2.4zm-.5.2l.5-.2-.5.2zm.7.3l-.5.2-.2-.5.5-.2.2.5zm-.5.2l.5-.2-.5.2zm.1.4l-.2-.5.5-.2.2.5-.5.2zm0 0l.5-.2-.5.2zm.7.3l-.5.2-.2-.5.5-.2.2.5zm-.5.2l.5-.2-.5.2zm.6.3l-.5.1-.1-.5.5-.1.1.5zm-.5.2l.5-.1-.5.1zm.7.3l-.6.1-.1-.5.6-.1.1.5zm-.6.2l.6-.1-.6.1zm.7.4l-.6.1-.1-.5.6-.1.1.5zm-.6.1l.6-.1-.6.1zm.7.4l-.6.1-.1-.5.6-.1.1.5zm-.6.1l.6-.1-.6.1zm.7.4l-.6.1-.1-.5.6-.1.1.5zm-.6.1l.6-.1-.6.1zm.7.5l-.6.1-.1-.6.6-.1.1.6zm-.6.1l.6-.1-.6.1zm.6.4l-.6.1V57l.6-.1v.5zm-.5.1l.6-.1-.6.1zm0 .6l-.1-.6.6-.1.1.6-.6.1zm0 0l.6-.1-.6.1zm.7.5h-.6l-.1-.6.6-.1.1.7zm-.6 0l.6-.1-.6.1zm0 .6v-.6h.6v.6h-.6zm0 0h.6-.6zm.6.5h-.6v-.6h.6v.6zm-.5.1h.6-.6zm.5.5h-.6v-.6h.6v.6zm-.5 0h.6-.6zm.6.6h-.6v-.6h.6v.6zm-.6 0h.6-.6zm0 .6v-.6h.6v.6h-.6zm0 0h.6-.6zm.5.6h-.6v-.6h.6v.6zm-.5 0h.6-.6zm.5.6h-.6v-.6h.6v.6zm-.6 0h.6-.6zm.6.6h-.6v-.6h.6v.6zm-.6 0h.6-.6zm.5.7l-.6-.1v-.6h.6v.7zm-.6-.1h.6-.6zm0 .6l.1-.6.6.1-.1.6-.6-.1zm0 0l.6.1-.6-.1zm.5.7l-.6-.1.1-.6.6.1-.1.6zm-.6-.1l.6.1-.6-.1zm.5.7l-.6-.1.1-.6.6.1-.1.6zm-.6-.1l.6.1-.6-.1zm-.1.6l.1-.6.6.1-.1.6-.6-.1zm0 0l.6.1-.6-.1zm.4.7l-.6-.1.1-.6.6.1-.1.6zm-.5-.1l.6.1-.6-.1zm.4.7l-.6-.1.1-.6.6.1-.1.6zm-.5-.1l.6.1-.6-.1zm.4.7l-.6-.1.1-.6.6.1-.1.6zm-.6-.1l.6.1-.6-.1zm.4.7l-.5-.1.2-.6.6.1-.3.6zm-.5-.1l.5.1-.5-.1zm.3.7l-.5-.2.2-.6.5.2-.2.6zm-.5-.2l.5.2-.5-.2zm.4.8l-.6-.2.2-.6.5.2-.1.6zm-.6-.2l.5.2-.5-.2zm.4.8l-.5-.2.2-.6.5.2-.2.6zm-.6-.2l.5.2-.5-.2zm-44.5 6.4l.5-.3 1.2 1.3 1.3 1.2 1.3 1.1 1.4 1 1.4.9 1.5.8 1.5.7 1.6.6 1.6.5 1.6.4 1.6.3 1.6.2 1.6.1h1.6l1.6-.1 1.6-.2 1.6-.3 1.6-.4 1.6-.5 1.5-.5 1.5-.6 1.4-.7 1.4-.8 1.3-.9 1.3-1 1.2-1.1 1.1-1.2 1-1.3 1-1.4.9-1.5.8-1.5.7-1.6.5.2-.7 1.7-.8 1.6-.7 1.8-1 1.4-1.1 1.3-1.2 1.2-1.2 1.1-1.3 1-1.4.9-1.4.8-1.4 1-1.5.7-1.5.5-1.6.5-1.6.3-1.6.3-1.7.2-1.7.1h-1.7l-1.7-.1-1.7-.2L57 86l-1.6-.4-1.6-.5-1.6-.6-1.6-.7-1.5-.8-1.5-.9-1.4-1.1-1.4-1.2-1.3-1.3-1.2-1.7zm.5-.4l-.4.4.4-.4zm-.9-.2l.5-.3.4.5-.5.3-.4-.5zm.5-.3l-.4.4.4-.4zm-.8-.2l.5-.3.4.5-.5.3-.4-.5zm.5-.3l-.5.3.5-.3zm-.9-.2l.5-.3.3.5-.5.3-.3-.5zm.5-.3l-.5.3.5-.3zm-.8-.3l.5-.3.3.5-.5.3-.3-.5zm.5-.3l-.5.3.5-.3zm-.8-.2l.5-.3.3.5-.5.3-.3-.5zm.5-.3l-.5.3.5-.3zm-.8-.3l.5-.3.3.6-.5.3-.3-.6zm.5-.2l-.5.3.5-.3zm-.8-.4l.5-.3.3.6-.5.3-.3-.6zm.5-.2l-.5.3.5-.3zm-.8-.3l.5-.2.3.6-.5.1-.3-.5zm.5-.3l-.5.2.5-.2zm-.7-.3l.5-.2.2.6-.5.2-.2-.6zm.5-.3l-.5.2.5-.2zm-.8-.3l.5-.2.2.6-.5.2-.2-.6zm.5-.2l-.5.2.5-.2zm-.7-.4l.5-.2.2.6-.5.2-.2-.6zm.5-.2l-.5.2.5-.2zm-.2-.6l.2.6-.5.2-.2-.6.5-.2zm0 0l-.5.2.5-.2zm-.7-.5l.5-.2.2.6-.5.3-.2-.7zm.5-.1l-.5.2.5-.2zm-.7-.5l.5-.1.2.6-.5.1-.2-.6zm.6-.1l-.5.1.5-.1zm-.7-.5l.6-.1.2.6-.5.1-.3-.6zm.5-.1l-.6.1.6-.1zm-.7-.5l.6-.1.1.6-.6.1-.1-.6zm.6-.2l-.6.1.6-.1zm-.7-.5l.6-.1.1.6-.6.1-.1-.6zm.5-.1l-.5.1.5-.1zm-.6-.5l.6-.1.1.6-.6.1-.1-.6zm.5-.1l-.6.1.6-.1zm-.6-.5l.6-.1.1.6-.6.1-.1-.6zm.5-.1l-.6.1.6-.1zm-.6-.5l.6-.1.1.6-.6.1-.1-.6zm.5-.1l-.5.1.5-.1zm-.6-.6l.6-.1.1.6-.6.2-.1-.7zm.6 0l-.6.1.6-.1zm-.7-.6h.6l.1.6-.6.1-.1-.7zm.6-.1l-.6.1.6-.1zm0-.6v.6h-.6V63h.6zm0 0h-.6.6zm-.6-.5h.6v.6h-.6v-.6zm.5-.1h-.6.6zm0-.6v.6h-.6v-.6h.6zm0 0h-.6.6zm-.6-.6h.6v.6h-.6v-.6zm.6 0h-.6.6zm-.6-.6h.6v.6h-.6v-.6zm.6 0h-.6.6zm0-.6v.6h-.6V60h.6zm0 0h-.6.6zm-.5-.6h.6v.6h-.6v-.6zm.5 0h-.6.6zm.1-.5v.6h-.6v-.6h.6zm0 0h-.6.6zm-.5-.7l.6.1v.6h-.6v-.7zm.5.1h-.6.6zm-.5-.7l.6.1-.1.6-.6-.1.1-.6zm.6.1l-.6-.1.6.1zm-.5-.6l.6.1-.1.6-.6-.1.1-.6zm.6 0l-.6-.1.6.1zm0-.5l-.1.5-.6-.1.1-.5.6.1zm0 0l-.6-.1.6.1zm-.4-.7l.6.1-.1.6-.6-.1.1-.6zm.5.1h-.5.5zm-.4-.6l.6.1-.1.5-.6-.1.1-.5zm.5.1l-.5-.1v.1h.5zm-.4-.6l.6.1-.1.5-.6-.1.1-.5zm.6.1l-.6-.1.6.1zm-.4-.7l.5.1-.1.6-.6-.1.2-.6zm.5.2l-.6-.1.6.1zm-.4-.7l.5.2-.1.5-.5-.1.1-.6zm.5.2l-.5-.1.5.1zm-.4-.7l.5.2-.1.5-.5-.2.1-.5zm.6.2l-.5-.2.5.2zm-.4-.7l.5.2-.2.5-.5-.2.2-.5zm.5.2l-.5-.2.5.2zm-.3-.6l.5.2-.2.4-.5-.2.2-.4zm.5.2l-.5-.2.5.2zm-.3-.7l.5.2-.2.5-.5-.2.2-.5zm.5.2l-.5-.2.5.2zm-.3-.6l.5.2-.2.4-.5-.2.2-.4zm.5.2l-.5-.2.5.2zm-.3-.7l.5.3-.2.4-.5-.2.2-.5zm.5.3l-.5-.2.5.2zm-.3-.7l.5.3-.2.4-.5-.3.2-.4zm.5.3l-.5-.3.5.3zm-.3-.7l.5.3-.2.4-.5-.3.2-.4zm.5.3l-.5-.3.5.3zm-.2-.6l.5.3-.2.4-.5-.3.2-.4zm.4.3l-.5-.3.5.3zm-.2-.7l.5.3-.2.3-.5-.3.2-.3zm.5.3l-.5-.3.5.3zm-.2-.6l.4.4-.3.3-.4-.4.3-.3zm.4.3l-.4-.4.4.4zm-.2-.6l.4.4-.3.3-.4-.4.3-.3zm.5.3l-.4-.4.4.4zm-.2-.6l.4.4-.3.3-.4-.4.3-.3zm.4.4l-.4-.4.4.4zm-.1-.7l.4.4-.3.3-.4-.4.3-.3zm.4.4l-.4-.4.4.4zm-.1-.6l.3.5-.3.2-.4-.4.4-.3zm.4.4l-.4-.4.4.4zm-.1-.7l.3.5-.3.2-.3-.5.3-.2zm.3.5l-.3-.5.3.5zm0-.6l.3.5-.3.2-.3-.5.3-.2zm.3.5l-.3-.5.3.5zm.1-.7l.2.5-.3.2-.3-.5.4-.2zm.2.5l-.3-.5.3.5zm.1-.6l.2.5-.3.1-.2-.5.3-.1zm.2.5l-.2-.5.2.5zm.2-.7l.1.5-.3.1-.2-.5.4-.1zm.1.6l-.2-.5.2.5zm.2-.6l.1.6-.3.1-.1-.6.3-.1zm.1.5l-.1-.6.1.6zm.3-.6v.6h-.3l-.1-.6h.4zm.1.6l-.1-.6.1.6zm.8-.3l-.3.3h-.6v-.6h.6l.3.3zm-.3.3v-.6.6zm0 0" fill="#00793f"/><path d="M63.2 57.7h-2.1l-.5-.1-.6-.1-.5-.1-.5-.1-.5-.1-.4-.1-.3-.1-.4-.1-.4-.2-.4-.1-.4-.2-.4-.2-.4-.2-.3-.2-.3-.2-.3-.2-.6-.4-.6-.4-.6-.4-.5-.4-.5-.4-.6-.4-.5-.5-.4-.4-.4-.4-.4-.4-.8-.8-.4-.4-.4-.3-.4-.3-.4-.4-.4-.3-.2-.1-.2-.1-.2-.1-.2-.1-.2-.1-.2-.1H44l-.3.1-.3.1-.3.1-.3.1-.3.2-.3.2-.2.2-.2.2-.2.2-.1.4-.2.3-.3.3-.2.4-.2.3-.2.4-.2.4-.2.4-.2.4-.2.4-.2.5-.1.5-.1.5-.1.5-.1.5v.4l-.1.5-.1.5-.1.5-.1.6-.1 1.2v2.4l.1 1.2v.6l.1.6.2 1.2.2 1.2.1.6.1.6.2.6.2.6.2.6.2.6.2.6.2.6.2.6.3.6.3.5.3.5.3.5.3.5.3.5C52.1 89 77 89.5 85.2 73l.3-.5.2-.5.2-.5.2-.5.2-.6.2-.5.2-.6.2-.6.2-.6.3-1.2.1-.6.1-.6.1-.6.1-.6.1-.6V58.5l-.1-1.1-.1-.5-.1-.5-.1-.5-.1-.5-.1-.5-.1-.5-.2-.3-.1-.5-.2-.4-.2-.4-.2-.4-.1-.4-.2-.4-.2-.4-.2-.3-.2-.3-.2-.3-.2-.3-.2-.3-.2-.2-.2-.2-.4-.2-.3-.2-.3-.2-.3-.1-.1-.1-.3-.1-.3-.1H81l-.3.1-.3.2-.2.1-.2.1-.2.1-.2.1-.2.1-.2.1-.2.2v.3l-.4.3-.4.4-.4.4-.4.4-.4.4-.5.4-.5.5-.5.5-.5.4-.5.4-.6.5-.6.4-.6.4-.7.4-.3.2-.4.2-.3.2-.4.2-.4.2-.4.2-.4.2-.8.1-.4.1-.4.1-.5.1-.5.1-.5.1-.5.1-.5.1h-2.1zm0 0" fill-rule="evenodd" clip-rule="evenodd" fill="#d23026"/><path class="st2" d="M62.6 57.9v-.3h.6v.3h-.6zm0-.3v.3-.3zm-.5.3v-.3h.5v.3h-.5zm0-.3v.3-.3zm-.5.2v-.3h.5v.3h-.5zm0-.2v.3-.3zm-.6.2v-.3h.5v.3H61zm.1-.3v.3-.3zm-.6.2v-.3l.5.1v.3l-.5-.1zm.1-.3v.3-.3zm-.6.3v-.3l.5.1v.3l-.5-.1zm.1-.3v.3-.3zm-.6.2l.1-.3.5.1v.3l-.6-.1zm.1-.3v.3-.3zm-.5.2l.1-.3.5.1-.1.3-.5-.1zm0-.3l-.1.3.1-.3zm-.5.2l.1-.3.5.1-.1.3-.5-.1zm.1-.3l-.1.3.1-.3zm-.5.2l.1-.3.4.1-.1.3-.4-.1zm.1-.3l-.1.3.1-.3zm-.5.1l.1-.3.4.1-.1.3-.4-.1zm0-.2l-.1.3.1-.3zm-.5.1l.1-.3.4.1-.1.3-.4-.1zm.1-.3v.3-.3zm-.4-.1l.4.2-.1.2-.4-.2.1-.2zm0 0l-.1.3.1-.3zm-.5.1l.1-.3.4.1-.1.3-.4-.1zm.1-.2l-.1.3.1-.3zm-.3-.2l.4.2-.1.3-.4-.2.1-.3zm0 0l-.1.3.1-.3zm-.5.1l.1-.3.4.2-.1.3-.4-.2zm.1-.3l-.1.3h.1v-.3zm-.4-.1l.4.2-.1.3-.4-.2.1-.3zm0 0l-.1.3.1-.3zm-.4 0l.1-.3.3.2-.1.3-.3-.2zm.1-.2l-.1.2.1-.2zm-.5.1l.1-.2.3.2v.1l-.4-.1zm.2-.3l-.1.2.1-.2zm-.5.1l.1-.2.3.2-.1.2-.3-.2zm.1-.3l-.1.2.1-.2zm-.3-.2l.3.2-.1.2-.3-.2.1-.2zm0 0l-.1.2.1-.2zm-.5.1l.2-.2.3.2-.1.2-.4-.2zm.2-.3l-.1.2.1-.2zm-.8-.2l.2-.2.6.4-.2.2-.6-.4zm.2-.2l-.2.2.2-.2zm-.7-.2l.2-.2.6.4-.2.2-.6-.4zm.1-.2l-.2.2.2-.2zM52 54l.2-.2.5.4-.2.2-.5-.4zm.2-.2l-.2.2.2-.2zm-.7-.2l.2-.2.5.4-.2.2-.5-.4zm.2-.3l-.2.2.2-.2zm-.7-.2l.2-.2.5.4-.2.2-.5-.4zm.2-.2l-.2.2.2-.2zm-.7-.2l.2-.2.5.5-.2.1-.5-.4zm.2-.3l-.2.2.2-.2zm-.4-.4l.4.4-.2.2-.4-.4.2-.2zm0 0l-.2.2.2-.2zm-.6-.2l.2-.2.4.4-.2.2-.4-.4zm.2-.2l-.2.2.2-.2zm-.5-.4l.4.4-.2.2-.4-.4.2-.2zm0 0l-.2.2.2-.2zm-.6-.2l.2-.2.4.4-.2.2-.4-.4zm.2-.2l-.2.2.2-.2zm-.4-.4l.4.4-.2.2-.4-.4.2-.2zm0 0l-.2.2.2-.2zm-.3-.4l.4.4-.2.2-.4-.4.2-.2zm0 0l-.2.2.2-.2zm-.4-.4l.4.4-.2.2-.4-.3.2-.3zm0 0l-.2.2.2-.2zm-.4-.3l.4.3-.2.2-.4-.3.2-.2zm0 0l-.2.2.2-.2zm-.4-.3l.4.3-.2.2-.4-.3.2-.2zm0 0l-.2.2.2-.2zm-.4-.2l.4.3-.2.2-.3-.3.1-.2zm0 0l-.1.2.1-.2zm-.2-.2l.2.1-.1.3-.2-.1.1-.3zm0 0l-.1.2.1-.2zm-.2-.1l.2.1-.1.3-.2-.1.1-.3zm0 0l-.1.3.1-.3zm-.2-.1l.2.1-.1.3-.2-.1.1-.3zm0 0l-.1.3.1-.3zm-.2 0l.2.1-.1.2-.2-.1.1-.2zm0 0l-.1.3.1-.3zm-.2-.1l.2.1-.1.3-.2-.1.1-.3zm0 0l-.1.3h.1v-.3zm-.2-.1l.2.1-.1.3-.2-.1.1-.3zm0 0l-.1.3.1-.3zm-.2 0h.2l-.1.3h-.2l.1-.3zm0 0l-.1.3.1-.3zm-.3-.1h.2v.3H45v-.3zm.1 0v.3-.3zm-.6.2l.2-.1h.4v.3h-.4l-.2-.2zm.1-.2v.3-.3zm0 0l.1.1h-.3l.2-.1zm.2.2h-.3.3zm-.5-.2h.3v.3h-.3v-.3zm0 0v.3-.3zm-.3.1h.3v.3H44v-.3zm0 0v.3-.3zm-.3 0l.3-.1.1.3-.3.1-.1-.3zm0 0l.1.3-.1-.3zm-.3.1l.3-.1.1.3-.3.1-.1-.3zm0 0l.1.3-.1-.3zm-.3.2l.3-.1.1.3-.3.1-.1-.3zm0 0l.1.3-.1-.3zm-.2.1l.3-.1.1.3-.3.1-.1-.3zm0 0l.1.3-.1-.3zm-.3.2l.3-.2.2.2-.3.2-.2-.2zm0 0l.2.2-.2-.2zm-.3.2l.3-.2.2.2-.3.2-.2-.2zm0 0l.2.2-.2-.2zm-.2.2l.2-.2.2.2-.2.2-.2-.2zm0 0l.2.2-.2-.2zm-.3.2l.2-.2.2.2-.2.2-.2-.2zm0 0l.2.2-.2-.2zm-.2.3l.3-.3.2.2-.2.2-.3-.1zm0 0l.2.2-.2-.2zm-.2.2l.2-.3.2.2-.2.3-.2-.2zm0 0l.2.2-.2-.2zm-.3.4l.2-.3.2.2-.2.3-.2-.2zm0 0l.2.2-.2-.2zm-.2.3l.2-.3.2.2-.2.3-.2-.2zm0 0l.2.2-.2-.2zm-.2.3l.2-.3.2.2-.2.2-.2-.1zm0 0l.2.2-.2-.2zm-.2.4l.2-.4.2.1-.2.3h-.2zm0 0l.2.1-.2-.1zm.1.4l-.3-.1.2-.4.3.1-.2.4zm-.3-.1l.3.1-.3-.1zm-.2.4l.2-.4.3.1-.2.4-.3-.1zm0 0l.3.1-.3-.1zm-.2.4l.2-.4.3.1-.2.4-.3-.1zm0 0l.3.1-.3-.1zm.1.6l-.3-.1.2-.4.3.1-.2.4zm-.2-.2l.2.2-.2-.2zm-.2.5l.2-.4.2.1-.2.4-.2-.1zm0 0l.3.1-.3-.1zm-.2.4l.2-.5.3.1-.2.5-.3-.1zm.1 0l.3.1-.3-.1zm-.2.5l.1-.5.3.1-.1.5-.3-.1zm0 0l.3.1-.3-.1zm-.1.5l.1-.5.3.1-.1.5-.3-.1zm0 0l.3.1-.3-.1zm-.1.5l.1-.5.3.1-.1.5-.3-.1zm0 0l.3.1-.3-.1zm-.2.5l.1-.5.3.1-.1.5-.3-.1zm0 0l.3.1-.3-.1zm-.1.5l.1-.5h.3l-.1.5h-.3zm0 0h.3-.3zm-.1.5l.1-.5h.3l-.1.6-.3-.1zm0 0h.3-.3zm0 .6l.1-.6h.3l-.1.5-.3.1zm0 0h.3-.3zm-.1.5l.1-.6h.3l-.1.5-.3.1zm0 0h.3-.3zm-.1.6l.1-.6h.3l-.1.6h-.3zm0 0h.3-.3zm.3.6h-.3v-.6h.3v.6zm-.3 0h.3-.3zm-.1.6V59h.3v.6h-.3zm0-.1h.3-.3zm.3.6h-.3v-.6h.3v.6zm-.3 0h.3-.3zm0 .6v-.6h.3v.6h-.3zm0 0h.3-.3zm0 .6v-.6h.3v.6h-.3zm0 0h.3-.3zm0 .6v-.6h.3v.6h-.3zm0 0h.3-.3zm.3.6h-.3v-.6h.3v.6zm-.3 0h.3-.3zm.1.6v-.6h.3v.6h-.3zm0 0h.3-.3zm0 .6v-.6h.3v.6h-.3zm0 0h.3-.3zm.1.6l-.1-.6h.3l.1.6h-.3zm0 0h.3-.3zm.3.6h-.3l-.1-.6h.3l.1.6zm-.3 0h.3-.3zm.1.6l-.1-.6h.3l.1.6h-.3zm0 0h.3-.3zm.4.6h-.3l-.1-.6h.3l.1.6zm-.3.1h.3-.3zm.1.6l-.1-.6h.3l.1.6h-.3zm0 0h.3-.3zm.4.5l-.3.1-.1-.6.3-.1.1.6zm-.2.1l.3-.1-.3.1zm.1.6l-.1-.6.3-.1.1.6-.3.1zm0 0l.3-.1-.3.1zm.2.6l-.2-.6.3-.1.2.6-.3.1zm0 0l.3-.1-.3.1zm.1.6l-.2-.6.3-.1.2.6-.3.1zm0 0l.3-.1-.3.1zm.2.6l-.2-.6.3-.1.2.6-.3.1zm0 0l.3-.1-.3.1zm.2.5l-.2-.6.3-.1.2.6-.3.1zm0 0l.3-.1-.3.1zm.2.6l-.2-.6.3-.1.2.6-.3.1zm0 0l.3-.1-.3.1zm.3.6l-.2-.6.3-.1.2.6-.3.1zm-.1 0l.3-.1-.3.1zm.3.6l-.2-.6.3-.1.2.6-.3.1zm0 0l.3-.1-.3.1zm.3.5l-.3-.6.3-.1.3.6-.3.1zm0 0l.3-.1-.3.1zm.2.6l-.3-.5.3-.1.3.5-.3.1zm0 0l.3-.1-.3.1zm.3.5l-.3-.6.3-.1.3.5-.3.2zm0 0l.3-.1-.3.1zm.3.5l-.3-.5.2-.1.3.5-.2.1zm0 0l.2-.1-.2.1zm.3.6l-.3-.5.2-.1.3.5-.2.1zm0 0l.2-.1-.2.1zm.4.5l-.4-.5.2-.2.3.5-.1.2zm0 0l.2-.2-.2.2zm42.7-2.4l.3.1-.8 1.5-.9 1.4-1 1.3-1.1 1.2-1.2 1.1-1.2 1-1.3.9-1.3.8-1.4.7-1.4.6-1.5.5-1.5.5-1.5.4-1.6.3-1.7.3-1.6.1h-1.6l-1.6-.1-1.6-.2-1.6-.2-1.5-.4-1.5-.4-1.5-.5-1.5-.7-1.4-.7-1.4-.8-1.3-.9-1.3-.9-1.2-1-1.1-1.1-1-1.2-1-1.3.2-.2.9 1.2 1 1.2 1.1 1.1 1.2 1 1.2.9 1.3.8 1.4.8 1.4.7 1.4.6 1.5.5 1.5.4 1.5.3 1.6.3 1.6.2 1.6.1h1.6l1.6-.1 1.6-.2 1.5-.3 1.5-.4 1.5-.4 1.5-.5 1.4-.6 1.4-.7 1.3-.8 1.3-.9 1.2-1 1.1-1.1 1.1-1.2 1-1.3.9-1.4.9-1.3zm.3.1l-.3-.1.3.1zm.2-.5l-.2.5-.3-.1.3-.5.2.1zm0 0l-.3-.1.3.1zm.3-.5l-.2.5-.3-.1.2-.5.3.1zm0 0l-.3-.1.3.1zm.2-.6l-.2.6-.3-.1.2-.5h.3zm0 0l-.3-.1.3.1zm.2-.5l-.2.5-.3-.1.2-.5.3.1zm0 0l-.3-.1.3.1zm.2-.6l-.2.6-.3-.1.2-.6.3.1zm0 0l-.3-.1.3.1zm.2-.5l-.2.5-.3-.1.2-.5.3.1zm0 0l-.3-.1.3.1zm.2-.6l-.2.6-.3-.1.2-.6.3.1zm0 0l-.3-.1.3.1zm-.1-.6l.3.1-.2.6-.3-.1.2-.6zm.2 0l-.3-.1.3.1zm.2-.5l-.2.5-.3-.1.2-.6.3.2zm0 0l-.3-.1.3.1zm.1-.6l-.1.6-.3-.1.1-.6.3.1zm0 0l-.3-.1.3.1zm.2-.6l-.1.6-.4-.1.1-.6.4.1zm0 0l-.3-.1.3.1zm-.2-.6l.3.1-.1.6-.3-.1.1-.6zm.3 0l-.3-.1.3.1zm.1-.6l-.1.6-.3-.1.1-.6.3.1zm0 0l-.3-.1.3.1zm.1-.6l-.1.6h-.3l.1-.6h.3zm0 0h-.3.3zm-.3-.6h.3l-.1.6h-.3l.1-.6zm.3 0h-.3.3zm.1-.5l-.1.6h-.3l.1-.6h.3zm0 0h-.3.3zm-.2-.7h.3v.6h-.3v-.6zm.3.1h-.3.3zm0-.6v.6h-.3v-.6h.3zm0 0h-.3.3zm0-.6v.6h-.3v-.6h.3zm0 0h-.3.3zm0-.6v.6h-.3v-.6h.3zm0 0h-.3.3zm0-.6v.6h-.3V61h.3zm0 0h-.3.3zm0-.6v.6h-.3v-.6h.3zm0 0h-.3.3zm0-.5v.6h-.3v-.6h.3zm0 0h-.3.3zm-.3-.6h.3v.6h-.3v-.6zm.3 0h-.3.3zm0-.6v.6h-.3v-.6h.3zm0 0h-.3.3zm-.1-.5l.1.5h-.3l-.1-.5h.3zm0 0h-.3.3zm-.1-.6l.1.5h-.3l-.1-.5h.3zm0 0h-.3.3zm0-.5l.1.5h-.3l-.1-.5h.3zm0 0h-.3.3zm-.1-.5l.1.5h-.3l-.1-.5h.3zm0 0h-.3.3zm-.1-.6l.1.5h-.3l-.1-.5h.3zm0 0h-.3.3zm-.1-.5l.1.5-.3.1-.1-.5.3-.1zm0 0l-.3.1.3-.1zm-.1-.4l.1.5-.3.1-.1-.5.3-.1zm0 0l-.3.1.3-.1zm-.1-.5l.1.5-.3.1-.1-.6h.3zm0 0H87h.3zm-.4-.4l.3-.1.1.5H87l-.1-.4zm.2-.1l-.3.1.3-.1zm-.1-.5l.1.5-.3.1-.1-.5.3-.1zm0 0l-.3.1.3-.1zm-.1-.4l.2.4-.3.1-.2-.4.3-.1zm0 0l-.3.1.3-.1zm-.2-.4l.2.4-.3.1-.2-.4.3-.1zm0 0l-.3.1.3-.1zm-.2-.4l.2.4-.3.1-.2-.4.3-.1zm0 0l-.3.1.3-.1zm-.1-.4l.2.4-.3.1-.2-.4.3-.1zm0 0l-.3.1.3-.1zm-.2-.4l.2.4-.3.1-.2-.4.3-.1zm0 0l-.3.1.3-.1zm-.2-.4l.2.4-.3.1-.2-.4.3-.1zm0 0l-.3.1.3-.1zm-.2-.3l.2.3-.2.1-.3-.3.3-.1zm0 0l-.3.1.3-.1zm-.2-.4l.2.3-.3.2-.2-.3.3-.2zm0 0l-.2.2.2-.2zm-.3-.3l.2.3-.2.2-.2-.3.2-.2zm0 0l-.2.2.2-.2zm-.2-.3l.2.3-.2.2-.2-.3.2-.2zm0 0l-.2.2.2-.2zm-.2-.3l.2.3-.2.2-.2-.3.2-.2zm0 .1l-.2.2.2-.2zm-.3-.3l.2.2-.2.2-.2-.2.2-.2zm0 0l-.2.2.2-.2zm-.2-.2l.2.2-.2.2-.2-.2.2-.2zm0 0l-.2.2.2-.2zm-.3-.3l.3.2-.2.2-.2-.1.1-.3zm0 .1l-.1.2.1-.2zm-.2-.2l.3.2-.2.2-.3-.2.2-.2zm0 0l-.2.2.2-.2zm-.3-.2l.3.2-.2.2-.3-.2.2-.2zm0 0l-.1.2.1-.2zm-.3-.1l.3.1-.1.3-.3-.1.1-.3zm0 0l-.1.3.1-.3zm-.3-.2l.3.1-.1.3-.3-.1.1-.3zm0 0l-.1.3.1-.3zm-.3-.1l.3.1-.1.3-.3-.1.1-.3zm0 0l-.1.3.1-.3zm-.3 0l.3.1-.1.3-.3-.1.1-.3zm0 0l-.1.3.1-.3zm-.3-.1h.3v.3h-.3v-.3zm0 0v.3-.3zm-.3 0h.3v.3h-.3v-.3zm0 0v.3-.3zm-.2 0h.2v.3h-.2v-.3zm0 0v.3-.3zm-.2 0h.2v.3h-.2v-.3zm.1 0v.3-.3zm-.2.4l-.1-.3h.2l.1.3h-.2zm0-.3l.1.3-.1-.3zm-.2 0h.2l.1.3h-.2l-.1-.3zm0 0l.1.3-.1-.3zm-.2.1l.2-.1.1.3H81l-.1-.2zm0 0l.1.3-.1-.3zm-.2 0l.2-.1.1.3-.2.1-.1-.3zm0 0l.1.3-.1-.3zm0 .4l-.1-.3.2-.1.1.3-.2.1zm-.1-.3l.1.3-.1-.3zm-.2.1l.2-.1.1.3-.2.1-.1-.3zm0 0l.1.3-.1-.3zm0 .4l-.1-.2.2-.1.2.2-.3.1zm-.2-.3l.2.2-.2-.2zm-.2.1l.2-.1.1.3-.2.1-.1-.3zm0 0l.1.3-.1-.3zm-.2.1l.2-.1.2.2-.2.2-.2-.3zm.1 0l.2.2-.2-.2zm-.2.1l.2-.1.2.2-.2.1-.2-.2zm0 0l.2.2-.2-.2zm0 .4l-.2-.2.2-.1.2.2-.2.1zm-.2-.2l.2.2-.2-.2zm-.2.1l.2-.1.2.2-.2.1-.2-.2zm0 0l.2.2-.2-.2zm-.2.2l.2-.2.2.2-.2.2-.2-.2zm0 0l.2.2-.2-.2zm0 .4l-.2-.2.2-.2.2.2-.2.2zm-.2-.3l.2.2-.2-.2zm-.4.4l.4-.4.2.2-.4.3-.2-.1zm0 0l.2.2-.2-.2zm-.4.4l.4-.4.2.2-.4.4-.2-.2zm0 0l.2.2-.2-.2zm-.2.6l-.2-.2.4-.4.2.2-.4.4zm-.2-.2l.2.2-.2-.2zm-.4.4l.4-.4.2.2-.4.4-.2-.2zm0 0l.2.2-.2-.2zm-.4.4l.4-.4.2.2-.4.4-.2-.2zm0 0l.2.2-.2-.2zm-.3.6l-.2-.2.5-.4.2.2-.5.4zm-.2-.2l.2.2-.2-.2zm-.3.7l-.2-.2.5-.4.2.2-.5.4zm-.2-.2l.2.2-.2-.2zm-.3.6l-.2-.2.5-.5.2.2-.5.5zm-.2-.2l.2.2-.2-.2zm-.3.7l-.2-.2.5-.5.2.2-.5.5zm-.2-.2l.2.2-.2-.2zm-.4.6l-.2-.2.5-.4.2.2-.5.4zm-.1-.2l.2.2-.2-.2zm-.4.7l-.2-.2.6-.5.2.2-.6.5zm-.2-.2l.2.2-.2-.2zm-.4.6l-.2-.2.6-.4.2.2-.6.4zm-.2-.2l.2.2-.2-.2zm-.5.6l-.1-.2.6-.4.2.2-.7.4zm-.1-.2l.2.2-.2-.2zm-.6.6l-.1-.2.7-.4.1.2-.7.4zm-.1-.2l.1.2-.1-.2zm-.2.4l-.1-.2.3-.2.1.2-.3.2zm-.1-.2l.1.2-.1-.2zm-.4.2l.4-.2.1.3-.4.1-.1-.2zm0 0l.1.3-.1-.3zm-.2.4l-.1-.3.3-.2.1.3-.3.2zm-.1-.3l.1.3-.1-.3zm-.4.2l.4-.2.1.3-.4.2-.1-.3zm0 0l.1.3-.1-.3zm-.3.4l-.1-.3.4-.2.1.3-.4.2zm-.1-.2l.1.3-.1-.3zm-.3.4l-.1-.3.4-.2.1.3-.4.2zm-.1-.3l.1.3-.1-.3zm-.3.5l-.1-.3.4-.2.1.3-.4.2zm-.1-.3l.1.3-.1-.3zm-.3.4l-.1-.3.4-.1.1.3-.4.1zm-.1-.3l.1.3-.1-.3zm-.3.4l-.1-.3.4-.1.1.3-.4.1zm-.1-.2l.1.3-.1-.3zm-.4.1l.4-.1.1.3-.4.1-.1-.3zm0 0l.1.3-.1-.3zm-.4.4l-.1-.3.4-.1.1.3-.4.1zm-.1-.3l.1.3-.1-.3zm-.3.4l-.1-.3.5-.1.1.3-.5.1zm-.1-.3l.1.3-.1-.3zm-.4.4l-.1-.3.5-.1.1.3-.5.1zm-.1-.3l.1.3-.1-.3zm-.4.4v-.3l.5-.1v.3l-.5.1zm0-.3v.3-.3zm-.5.3v-.3l.5-.1v.3l-.5.1zm0-.3v.3-.3zm-.5.4v-.3l.5-.1v.3l-.5.1zm0-.3v.3-.3zm-.5.3v-.3h.5v.3h-.5zm0-.2v.3-.3zm-.5.3v-.3h.5v.3h-.5zm0-.3v.3-.3zm-.5.3v-.3h.5v.3h-.5zm-.1-.3v.3-.3zm-.6.2l.1-.1h.5v.3h-.5l-.1-.2zm.1-.2v.3-.3zm0 0l.1.1H63l.2-.1zm.1.1H63h.3zm0 0"/><path class="st6" d="M44.8 38.7h.3l.8-.8v-.2h-.2l-.2-.1-.2-.1H45l-.2-.1-.2-.1-.1-.2-.1-.2-.1-.2-.1-.2-.1-.2-.1-.2v-.8h.1v-.4h.4v-.2l.1-.1v-.1l.1-.1v-.2H45l.1.1.1.1h.1l.1-.1h.5v-.1l.1-.1H46.3v.2h.2l.1-.1.1.1h.1v-.4h.4l.1.1.1.1h.4v-.4h.1l.1.1.1.1h.6v-.1l.1-.1.1.1.2.1h.8v.7l.1.1-.1.1-.1.1-.1.1-.1.1v.2l.1.1v.8h-.1L51 36v.5h-.2l.1.1.1.1.1.1v.7h-.4l-.1.1v.1h-.5v.5l-.1.1v.5H48.3l-.3-.1-.3-.1-.4.4h-.1l-.1-.1-.1-.1-.1-.1-.1-.1-.1-.1-.1-.1V38.1h-.2v.1l-.9.8c.1.1.1.2.1.4s-.1.4-.2.5c-.1.1-.3.2-.5.2h-.1-.1l-.1.1-.3.1-.3.1h-.4l.2.2.2.2.1.1c.2 0 .4.1.5.2.1.1.2.3.2.5v.1l1.4.8h.2v-.8l.1-.2.1-.2.1-.2.1-.2.1-.2.2-.2.2-.2.2-.1.2-.1.2-.1.2-.1.2-.1v.1h.5l.1.1.1.1H50.4v.1l-.1.1H50.6l.1.1V40.7l.1.1h.2v.1h.7v.1l-.8 1h-.1H51.1v.2h.9V42.5l-.2.5-.1.2V43.5l.1.1h.5v.2l-.1.1-.1.1v.2h.4v.7l.1.1.1.1.1.1.1.1-.2.1-.2.1h-.1l-.1.1-.1.1-.1.1h-.5v.2h-.5l-.2.1-.1.1-.1.1h-.2l-.1-.1-.1-.1h-.6l-.2.1-.1-.1h-.2V46.4h-.1v.2l-.1.1h-.4v-.2h-.5v-.2H47.8l-.1.1h-.1v.1H47.3l-.1.1-.1.1-.1.1-.1.1h-.1l-.1-.1-.1-.1-.1-.2-.6-.5-.1-.3-.1-.3-.1-.3-.1-.3V43.6l.1-.1V43h-.1l-1.3-.9c-.1.1-.3.2-.5.2s-.4-.1-.5-.2c-.1-.1-.2-.2-.2-.4l-.3-.2-.4-.3-.3-.4-.3-.3-.3-.3-.2-.1-.2-.1-.2-.1-.2-.1-.2-.1-.1-.1h-.2l-.1-.1h-.3l-.1.1-.1.1v.7h.2v.4l-.1.1-.1.1-.1.1v.5l.2-.1.2-.1.2-.1h.2v.1h.2l.1.1.1.1H41.7v.2h.2l.1.1v.4H42.3v.1h-.1.2v.1h.4v.7h.4l-.1.1-.1.1h.5v.7l.1.1.1.1.1.1.1.1h-.2V46H43.4l-.1.1h-.5v.1h-.4l-.1.1h-.2l-.1-.1-.1-.1h-.7v.4H40.9l-.1-.1H40.5v-.2h-.6l-.1.1h-.1l-.1-.1v-.1l-.1-.2-.1-.2-.1-.2-.1-.2-.1-.2v-1.3H39l-2-.5c0 .2-.1.4-.2.5-.1.1-.3.2-.5.2h-.1-.2l-1 .2-.2.1H34.5l-.1.1-.1.1-.1.1-.1.1v.1l-.1.1-.1.2.1.4v.5l.1.7.1.7.1.5.1-.1.1-.1.1-.1H34.9l.1-.1.2-.1.2-.1.1.1v.1l.1.2.1.1v.1l.1.1.1.1.1.1.1.1.1.1V49.3h.4v.1l-.1.1-.1.1v.6l.1.1h.1l.2.1.2.1h.1l.1.1v.4l-.2-.7-.1.1-.1.1-.1.1v.1h.2V51h.2v.5l-.1.3-.1.1h.1v.2l.1.1.1.1v.5H37.5V53.1l-.1.1-.1.1-.1.1-.2.5-.1.1-.1.1v.5l-.1.1-.1.1-.1.1v.1h.1l-.2.1-.2.1-.2.1-.2.1h-.4.2v.3l-.1.6-.1.3-.1.3-.1.2-.1.4-.2.5-.2.5-.2.5-.1.2-.4.6-.2.3-.2.3-.2.3-.2.3-.3.3-.3.3-.1.1-.2.3-.3.3-.3.2-.3.2-.6.4-.3.2-.2.2-.1.1-.2.2h.1v.4l.1.1H30.5l.1.1V64.7l.1.1h.1l.1-.1.1-.1h.2l.1-.1v-.1l.1-.1v-.5h.5l.1-.1.1-.1.1-.1h.4l.1-.1.1-.1.1-.1.1-.1.1-.1h.4l.1-.1.2-.1.2-.1.1.2V63.2l.1.1v.1l.1.1.1.1.1.1.1.1.1.1V64.8h.4v.1l-.1.1-.1.1v.6l.1.1h.1l.2.1.2.1h.1l.1.1v.2l.3-.6-.1.1-.1.1-.1.1v.1h.2V66.4h.2v.5l-.1.1-.1.1h.1v.2l.1.1.1.1v.2l-.1.1v.2H36.4V68.3l-.1.2-.1.1-.1.1-.1.1-.1.1v.5l-.1.1h-.2l-.1.1v.2h.1l-.2 1.2.1-.1v.2l.1.1.1.1.1.1H36.1l.1-.1.1-.1H36.6l.1.1.1.1H37.8l.1.1.1.1v.6h.1v.1l-.1.1-.1.1v.2H38.2l.1.2.1.1.1.1.1.1H39.6l.1.1v.1l.1.2v.1l.1.1.1.1h.2v.5l.1.1.1.1h.1l.1.1.1.1v.2l.1.1.1.1.1.1.2.2.2.2-.2.1-.1.1-.1.1-.1.1-.5-.1-.1.1-.1.2-.1.1-.1.1v.1h-.1l-.2-.1h-.4l-.1.1v.7l-.1.1-.1-.1v-.1h-.5l-.1.1v.2l-.1.2v.4l-.2-.1h-.4l-.1-.1-.1-.1h-.4v.2H36.8V78.3h-.6l-.1-.1-.1-.2v.1l-.1-.1H35.6l-.1.1-.1.1-.1.1H34.5v.4H34l-.2-.1-.2-.1-.2-.1h-.5l-.1.1-.1-.1-.1-.1h-.2v.2h-.1l-.3-.3-.2-.2-.1-.2-.1-.3-.1-.3-.1-.2-.1-.3V75.8l.1-.3.1-.3.1-.3.1-.2.2-.2.1-.1.1-.1-.1-.1-.1-.1-.2-.1-.2-.1-.2-.1-.1-.1-.1-.1-2.8 4.9.2.1.5.2H29.3l.1.1.1.1.1.1.6.2h.5V79h.5l.1.1.1.1.1.1v-.1l.1.1.1.1h.4l.1-.1.1-.1h.4l.1.1h.2v-.4h.4l.1.1.1.1.1.2.1.2.2-.5.1.1.1.1h.5l.1.1v.2l.1.1h.1l.1-.1v-.1h.1l.1.2.1.2.1.3.1.3.1.3V81.6l.6.3.8.4.4.2.4.2.4.2.4.2.4.3.2.2.1.1.5.4.5.4.5.5.4.5.4.5.2.1.3.2.3.1.3.1.2.1.2.1h1l.1-.1.1-.1.1-.1.1-.1.1-.1v-.4l-.1-.2v-.1l-.1-.1-.1-.1-.1-.1-.1-.1.2-.1-.1-.1-.1-.1-.2-.1.3-.1.3-.1H46.1l.2.1.4.2.2.1.2.1.2.1.1.1.1.1.1.2.2.3.1.2.1.2.1.2V87.8l-.1.2h-.2l-.2.3-.2.2-.2.2-.2.2-.2.1-.2.1-.2.1h-1l-.2-.1-.5-.1-.2-.1-.2-.1-.3-.1-.2-.1-.2-.2-.4-.3-.2-.2.1.3.1.3.1.3.1.3.1.3v.3l.1.7v.7l.2 2.3.3 1.1.5.7.4.7-.2.2-.6-.3c-.8-.4-1.1-.5-1.5-1.6-.2-.8-.2-1.6-.3-2.4v-.6l-.1-.7-.1-.7v-.3l-.1-.3-.1-.3-.1-.3h.1l-.1-.3-.1-.3-.1-.3-.2-.3-.2-.3-.2-.1-.1-.2-.4-.5-.4-.5-.4-.4-.2-.1h-.1l-.2-.1-.4-.1-.3-.1h-1l-.3.1-.2.1-.5.2h-.1c0 .1-.1.2-.2.2-.1.1-.2.1-.3.2-.1 0-.2 0-.2.1l-.1.1-.1.2V86.5h.4l.1-.1.1-.1.1-.1.1-.1.1-.1.1-.1H37.9l.4.1.4.1.4.1.3.1.3.1.3.2.1.1.1.1v.2l-.1.1-.1.1v.2l-.1.1v.6l-.1.1V88.5H40.6v.6h.2v.6l-.1.1-.1.1h-.1v.2H40V90.4l.1.1-.1.2V91.5l.1.1.1.1v.2l-.1.1-.1.1v1.3H39.7V94.3l-.1.1-.1.1-.1.1v.1l-.1.3-.1.3-.2.1-.1-.1-.1-.1-.1-.1H37.8v-.6l-.1-.1h-.4l-.3.3-.1.1H36.6v-.6l-.1-.1H36.2l-.2.1-.2.1h-.4V93.3H35.1l-.1-.1V93h-.5l-.1.1h-.1l-.1-.1h-.1v-.7H34V92h-.6l-.1-.1v-.4h-.1l-.1.1-.1.1H32.7l-.1-.1v-1.2l-.1-.1-.4-.3-.1-.1v-.6h-.1v-.1l.1-.3.1-.3.1-.3.2-.2.2-.2.2-.2.2-.2.2-.2.2-.2.3-.2.3-.1.3-.1.3-.1H35.5v-1.5c-.1-.1-.1-.1-.1-.2-.1-.2-.1-.4 0-.6v-.1l-.1-.2-.1-.1-.1-.1H34.8l-.1.1v.7l-.1.1-.1.1-.5.6-.1.2-.1.2-.2.2-.3.2-.3.2-.3.2-.3.2-.4.1-.3.1-.3.1-.1.1h-.2V86.9l-.1-.1v-.1l-.1-.1-.1-.1-.1-.1v-.5h-.4l-.2.1-.1.1h-.4l-.1-.1H28.7l-.1-.1-.1-.1v-.7l-.1-.1v-.1l.1-.1.1-.1.1-.1v-.2H28.4l-.2-.4-.1-.1-.1-.1-.1-.1-.1-.1H27l-.1-.1v-.2l.1-.3v-.1l-.1-.1-.1-.1-.1-.1-.1-.1v-.6l-.1-.1v.2l-.1-.1-.1-.1-.1-.1v-.5l-.1-.1-.1-.3-.2-.2.2-.1H26.6l.1-.1.1-.1.1-.1.1-.1.1-.1.1-.1.1-.1.1.1.2.1h.6v-.5l-.2-.1-.5-.2-.4-.2-.4-.3-.7-.2-.2-.2-.2-.2-.2-.1-.2-.2-.2-.3-.2-.2-.2-.3-.2-.3-.1-.3-.1-.3-.2-.3-.1-.3-.1-.3-.1-.3-.1-.3V71.5l.1-.7.1-.4.1-.3.1-.4.1-.3.1-.3.1-.3.1-.3.2-.3.1-.3-.1.2h-.4L24 68h-.1v-.5l-.1-.1-.2-.1v-.6l.1-.1.1-.1.1-.1V66.1l.1-.1h.4v-.2l-.1-.1-.1-.1v-.7l-.1-.1-.1-.1v-.2l-.1-.1v-.2l.1-.1.1-.1.1-.2v-.5l.1-.1.1-.1V62.2l.1-.1.1-.1.1-.1v-.1l.1-.3v-.3l.2.1.1.1.3.1H26.3v.5l.1.1.1.1h.4l.1-.1.1-.1.1-.1H27.5v.6l.1.1H27.9l.2-.1.2-.1h.4V63.4h.2l.1-.4v.1l.3-.3.3-.2.1-.1.3-.2.3-.2.3-.2.3-.2.3-.2.2-.2.2-.2.2-.2.3-.3.2-.3.2-.3V59.4l-.1-.3v-.2l-.2.1-.1-.2-.1-.2-.1-.2-.2-.2-.4-.5-.2-.2c-.2 0-.4-.1-.5-.2l-.1-.1-1.7.2H29.1l.1.1.1.1.1.1.1.1.1.1V60H28.3v.2H28V60.5h-.6l-.1-.1v-.2h-.1l-.1.1h-.5v.2h-.2l-.2-.1h-.4v-.1h-.5l-.1-.1h-.7V59.1H24.8l.1-.1v-.2l-.1-.1-.1-.1v-.1h.2l-.9.5v-.5l-.1-.1V58.1h.4V58l.1-.1h.1-.2v-.2h.2v-.5h.1l-.1-.1.6-1.1v-.1h.1l.1-.1h.6V55.5H26.2v-.2H26.8l.2.1.2.1.2.1.2.1.2.1.1.1.1.1.1.2.1.2.1.2.1.2v.4h.4l1.5-.1V57c0-.1 0-.3.1-.4-.6-.4-1.1-.9-1.4-1.5V55h-.5l-.1.1h-1.3l-.1-.3-.3-.1-.3-.1-.3-.1-.1-.1-.2-.1h-.1l-.1-.1v-.1l.1-.1.1-.1V53h-.2v-.4h-.2v-.4l.1-.1h.2V52H26v-.2l-.1-.8v-.6l-.1-.1-.1-.1V50l.1-.1.1-.1.1-.1v-.5h.1v-.5l.1-.1.1-.1.1-.1v-.1l.1-.2v-.2l.1.1.1.1.1.1.1.1h.7v.5h.2l.1-.1.1-.1h.2v.4h.4l.2-.1.2-.1H29.3V49.7h.2V50l.1-.1.1-.1h.1v.6h.1v.2h.4l.1.1v.2l.1.1V50.7l.1-.1.1-.1v-.7l.1-.1H31.6l.1.1.1.1V49.6l.1-.1.1-.1.1-.1.1-.1v-.7h.1l-.2-.7.9-.9-.1-.7-.1-.4-.1-.4-.1-.4-.1-.4-.1-.2V42.8l.1-.2.1-.2.1-.2.1-.2.1-.2.1-.2.3-.3.3-.3.3-.3.3-.3.3-.3V40l-.1-.2v-.2h.4v-.1h.4v-.1l-.1-.1.1-.1.1-.1v-.2l.1-.1h.5l.1.1h.1v-.2l.1-.1.1-.1h.1V38.2h.5l.1-.1h.1l.1-.1v-.1l.1-.1.1-.1h.4l.2-.1.1-.1v-.2h-.4l-.2-.1-.2-.1-.2-.1-.2-.1-.2-.2.3-1.6-.1-.2-.1-.2-.1-.2-.1-.2-.1-.2-.1-.2v-.4h.1V33h.1l.1-.1.1-.1.1-.1v-1l.1-.1.1-.1h.2l.1.1.1.1V31.4h.5v-.1h.1v-.5H38.4v.2h.1v-.1l.1-.1.1-.1.1.1h.2V30.1l.1-.1h.4l.1.1.2.1h.4v-.5h.2l.1.1.1.1h.4V29.6l.1.1.2.1H42.1v.7l.1.1v.1l-.1.1v.5l.1.1v.5l.1.2v.4l-.1.1-.1.1-.1.1V33.4l-.1.1-.1.1v.1h.2l.1.1v.1h.1l.1.1v.7h-.2v.4h-.6v1.2l.1.1v.1h-.2l-.3.1h-2l.9.3-.1-.1-.1-.1-.1-.1-.1-.1-.1-.1-.1-.1v-.2H39.1v.1l-.1.6.1.1.1.1v.4h.4l-.1.1-.1.1v.1l.1.1.1.1h.2l.3.1.3.1h.2l.2.1.2.1.2.1.2.1.2.1.2.2H43.5l.2-.1.2-.1h.1c.1-.1.1-.2.3-.3.3.4.4.4.5.4zm0 0"/><path class="st7" d="M45.3 85.1H46.1l.1.1.2.1.2.2.2.2.1.2.1.2.1.2.1.3V87.2l-.1.2v.1l-.1.1-.1.1.2.3-.1.1-.1.1-.1.1-.1.1H45.4l-.4.1-.3-.1-.4-.1-.3-.1-.1-.1-.2-.1-.1-.1-.1-.1-.1-.1-.1-.1-.1-.1-.1-.1-.1-.2v-.1h1.6l.2-.1.2-.1.2-.1.1-.2.1-.2.1-.2.1-.2v-.7l-.3-.2zm0 0M34.7 90l.1-.1.2-.2.1-.1.1-.1.1-.1.2-.1.2-.1.1-.1.1-.1v-.6l-.1-.1-.2-.3-.1-.1-.1-.1-.1-.1-.1-.1H34l-.2.1-.2.1-.2.1-.3.1-.2.1-.3.3-.1.1h-.1l-.2.1-.1.1-.1.1v.2H32.3V89.6H32.6v1.3h.6v.4H33.5v.2l.1.1.1.2.1.2.1.1.1.1.1.1.1.1.1-.1h.2l.1.1.1.1.1.1v.2h.2l.1.1h.1v.4H35.8l.1.1.1.1.1.1.1.2.1.2H37.3l.1.1v.2H38.2l.1.1v-.5H38.6l-.1-.1v-.5l.1-.2.1-.1.1-.1.1-.1.1-.1V92.4l-.1-.1.5-.3v-.6l.1-.1-.1-.3-.1-.2v-.4l.1-.1.1-.1.1-.1.2-.1h.2V89h-.6l-.1-.1v-.4l.1-.2.1-.2.1-.2v-.6l-.2-.1-.3-.2-.2-.1-.2-.1-.2-.1-.2-.1h-.7l-.3.1-.3.1-.3.1-.1.1h-.3l-.1.1-.1.1-.1.1v.4l.1.1.1.1H37.8 36.4l-.1.1V88.3l.1.1.1.1.1.1.1.1v.2l.1.1H38.3 36.9l-.1.1v.4l.1.1.1.1.1.1V90.1l.1.1h.1l.1.1.2.1h.8l.2.1H37.7l-.1.1v.6l.1.1v.4l-.1-.2-.1-.2-.1-.2-.1-.1V90.7l-.1-.2V90l-.2.8h-.7v.1l-.1.2-.1.2-.1.2v.2l-.2.2v-.5l.1-.2.1-.2.1-.2.1-.2V89.6l-.1-.1-.1-.1V88.8h-.5l.1.2-.1.2-.1.2-.1.1-.1.1-.1.1-.1.1-.1.1-.2.1zm0 0M32.6 81.2l.1.1.1.3v1.2l.1.1.1.1.1.1.1.1h.7l.1-.1.1-.1.2-.2.2-.2.1-.2.1-.2.1-.2.1-.2.1-.2V80.2l.1-.2-.1.1h-.4l.1-.1-.1-.1-.1-.1-.1.1H34.1l-.1-.1-.2-.3-.1-.1-.1-.1-.1-.1h-.2l-.1.1-.1.1h-.5l-.1-.1-.1-.1-.1.1h-.5l-.1-.1-.2-.1h-.6v.2h-.7l-.1.1h-.5l-.1-.1-.1-.1-.1-.1h-.1l-.1.1-.1.1-.1.1v.6H28v.1l-.2.2h-.6l-.1-.1-.1.1v.3l-.2.2-.1.1-.1.1h-.1l-.1.1v.1l.1.1.1.1.1.1v.5H27l.1.1.1.1.1.1v1l.1.1.1.1.1.1h.2l.1.1.1.1.1.1.1.1.1.1.1.1.1.1h.5v.7-.2.1l-.1.1.2.2.2.2.1.1.1.1.1.1.1.1h.2l.1-.1.1-.1.1-.1.1-.1h.4l.1.1v.1l.1.1.1.2v.1l.1.2V86.5l.1.1.1.1h.1l.3-.1.3-.1.3-.1.2-.1.2-.1.2-.1.2-.2.2-.2.1-.1.1-.1.1-.2.1-.2.1-.3v-.6l-.1-.1-.1-.1-.1-.1h-.2l-.2.1H33l-.1.1-.1.1-.2.2-.2.2-.1.1-.1.1v.2h-.1l.1-.1.1-.1.1-.2.2-.2.1-.2.1-.2.1-.1v-.5h-.7l-.2-.2h-.2l-.1.1-.1.2-.1.1-.1.2-.2.2-.2.2-.1.1-.1.1h-.1l.1-.2.2-.2.3-.3.1-.2.1-.1v-.6l-.1-.1H30.8l-.1-.1-.1-.1h-.2l-.1.1-.3.2-.1.1-.2.1-.2.1-.1.1-.2.1.1-.1.1-.2.1-.1v-.1l.1-.1.1-.1V82l-.1-.1h-.1l-.2.1h-.2l-.1-.1-.1-.1h-.1H29.5l.1.1.1.1.2.1.1.1.1.1h.5l.1-.1.1-.1v-.7l-.1-.2-.1-.2h-.1v-.2l.1.1.1.1.1.1v.1l.1.2.1.2v.2l.1.2v.2l.1.2.1.1.1.1.1.1H32.4l.1.1.1.1.1-.1.1-.1V82.1l-.1-.2v-.7h-.1zm0 0M26.5 57.1h.6l.1.1.1.1.1.1h.7l.1-.1.1-.1.1-.1v-.8l-.4.1-.1-.2-.1-.1-.1-.1-.1-.1-.1-.1-.1-.1-.2-.2h-.1v-.1l-.1-.1h-.4v.1H26.3v.2h-.4v.2h-.2v.2l-.1.1-.4.9-.1.1v.4h.1v.1l-.2.2v.1h-.2V58.2h-.2v.6l-.1.1-.1.1v.5h-.1l-.1.1V60.4H24.5v.1l.1-.1H25.7l.1-.1.1-.1.1-.1.1-.1h.6v-.1l.1-.1h.4l.1.1.1.1v.2h.7l.1-.1v-.6H29.2V57.8l-.2.3-.1-.2-.1-.1-.1-.1-.1-.1h-.7v.7l.1.2.1.2v.4-.2l-.1-.1V58.5l.2-.5v-.1H27.9v.1h-.3l-.1.1-.1.1v.6l.1.1.1.1.1.2v.4l-.1-.1-.1-.5-.1-.3-.1-.1v-.1l-.1-.1H27l-.1.1-.1.1-.1.1-.1.1h-.1V59.7v-.6H26.2l-.1.1-.1.1H25.7l.1-.1.1-.1.1-.1.1-.1.1-.1.1-.1.1-.1h.2V58.3h-.7H26.6l.1.1H27.5v-.2h.2l.1-.1v-.2l-.1-.1h-.1l-.1-.1h-.1l-.2-.1-.1-.1-.1-.1-.5-.3zm0 0M34.4 76.2l-.1-.2-.1-.1-.1-.1V74.7l-.1-.1-.1-.1-.1-.1-.1-.1h-.6l-.1.1-.1.1-.1.1-.1.1-.3.3-.1.2-.1.2-.1.2-.1.3V77.6l.1.1v-.2H32.4l.1.1.1.1.1-.1h.5l.1.1.1.1.1.1.1.1h.4l.1-.1.1-.1.1-.1h.6l.1-.1.1-.1H36.3v-.2l.1-.1h.7l.1-.1.1-.1h.4l.1.1.1.1h.1l.1-.2.1-.2.1-.1.1-.1H39.1l.1-.1.1-.2h.5l.1-.1.1-.1.1-.2.1-.1.1-.1.1-.1.1-.1h-.2l-.4-.5V74.7h-.2l-.2-.1-.1-.1V73.6H39l-.1-.1h-.7l-.1-.1-.1-.3-.1-.1h-.5l-.1-.1V72l-.2-.2-.1-.1-.1-.1-.1-.1h-.4l-.2.1-.2.2-.1.1h-.5l-.1-.1-.1-.1-.1-.2-.1-.2-.1-.2V71l.1.2-.2.1H34l-.2.1-.2.2-.1.2-.2.2v.1l-.1.1-.1.3-.1.2-.1.3v.7l.1.1.1.1H33.4l.1-.1.1-.1.1-.1.1-.1.1-.2.2-.3.1-.1.1-.1.1-.1.1-.1v.2l-.1.2-.1.2-.3.1-.1.2v.6l.1.1H34.9l.1-.1V74l.1-.2.1-.1.1-.2.1-.2.1-.2.1-.1.1-.1.1-.1.1-.1-.2.3-.1.2-.2.4-.1.2v.6h1.1l.1-.1.1-.1.1-.1.1-.1.1-.1.1-.1.2-.1-.1.1v.4l-.1.1v.4l.1.1H37.9 37l-.2-.1h-.6l-.1.1-.1.1v.6l.1.2.1.2.1.2.1.2v.2l-.1-.1-.1-.1V76l-.1-.1-.1-.2v-.2l-.1-.2-.1-.2V75l-.1-.1-.1-.1-.1-.1-.1-.1-.1-.1h-1.2l-.1.1v.4l.1.2.1.2v.7l.2.1zm0 0M29.5 66.2l-.1.1-.1.1-.1.1-.1.1-.1.1-.1.1-.2.1-.1.1-.1.1-.1.1v.6l.1.2.1.1.1.1.1.1.1.1H29.8l.3-.1.2-.1.2-.1.2-.1.2-.1.2-.2.3-.3.1-.1.1-.1.2-.1.1-.1.1-.1v-.2h-.1l.1.3V66.4H31.7V65.2h-.5l-.1-.1-.1-.1v-.2H30.7v-.1l-.1-.1-.1-.1-.5-.1-.1-.2-.1-.1V64l-.7.6-.7.6-.6.6V66.8l.1.1.1.1.1.1.1.1v.1l.1.1H28.6l.1-.1.1-.1.1-.2.1-.2.1-.1.1-.1.1-.1.1-.1.1-.1v-.1zm-.9-2.7l-.1-.1h-.1V63H27.8l-.1-.1-.1-.1-.1-.1-.1-.1-.1-.1H26.3l-.1-.1-.1-.1-.1-.4h-1v.6l-.1.1-.1.1-.1.1.1.1v.4l-.1.2v.1l-.1.1-.1.1-.1.1-.1.1v.2l.1.1.1.1.1.1.1.1v.5l-.1.1.1.1.1.1v.5l-.1.1-.1.1-.1.1-.2.1-.1.1h-.1V67.3l.1.1.1.1h.1l.1-.2.2-.4.3-.4.3-.4.3-.4.3-.3.1-.1h-.5l-.2-.1H26.2l.1-.1v-.4l-.1-.1-.1-.1-.1-.1-.1-.1v-.2l.4-.1.1.1.1.1.1.1.1.1.1.1.1.1v.1l.1-.1.3-.3.3-.3.7-.6.3.1zm-3.5 5.9l.2.1.3.1.2.1.2.1H26.9l.3-.1.3-.1.3-.1.1-.1.1-.1.1-.1.1-.1.1-.1v-.4l-.1-.1-.1-.1h-.5l-.3.1h-.7.2l.2-.1h.8l.1-.1.1-.1.1-.1v-.2l-.1-.1-.1-.1-.1-.1-.1-.1-.1-.1v-.2l-.1-.1h-.7l-.2.1H26.3l-.3.5-.2.4-.2.4-.1.2-.2.3-.1.3-.1.1zm1.3-2.2h.4l.2-.1h.1l.1-.1.1-.1.1-.1.1-.1V66.4l-.1-.1-.1-.1-.1.1-.3.3-.4.4-.1.2zm0 0"/><path class="st7" d="M33.9 68.5l-.1.1H32.4l-.1.1-.1.1-.1.1.2.1-.1.2v.5l.1.1.1.1.2.2.2.1.2.1.2.1.2.1.2.1.2.1H35.2l-.1-.1V70.3l.1-.1.1-.1v-.6l.1-.1.1-.1.1-.1.1-.1v-.4l-.2.3-.1-.1v-.5l.1-.1v-.6l.1-.1V67h-.2v-.6l-.1-.1v-.4l.1-.1-.1-.1-.1-.1-.1-.1-.1-.2V64.6l-.1-.1-.2-.1v-.5l-.1-.1-.1-.1-.2-.2-.1-.1-.1-.1-.1-.1.1-.2v.1l-.1.1-.1.1H33.6v.1l-.1.1-.1.2h-.9V64l-.1.1v.1l-.4.5-.1.1V65.7l.1.1.1.1.1.1.1.1v.6h.1v-.2l-.1-.1-.1-.1-.1-.1-.1-.1-.1-.1-.1-.2.1.1.1.1.1.1.1.1h.1l.1.1h.5V65.5v.6l-.1.1v.1l-.1.2.3-.3v.6l.1.1h.7l.2-.1.2-.1h.4l-.1.1-.1.1h-.5l-.2.1h-.4l-.2.1h-.2l-.1.1-.1.1-.1.1-.1.1V68.4l-.1.1-.1.1v.1l.1.1H33l.2-.1h.5l.2-.2zm-3.3.7l.3.1h.6l.1-.1.1-.1v-.5l-.1-.1h-.1l-.3.5-.3.1-.3.1zm1-.6H31.9v-.4l-.2.2-.1.2zm0 0M35.1 52.9l-.1.1H33.6l-.1.1-.1.1-.1.1V54.1l.1.1.1.1.2.2.2.1.2.1.2.1.2.1.2.1H36.3l-.3-.1V54.6l.1-.1.1-.1v-.6l.1-.1.1-.1.1-.1.1-.1V53l-.1-.1-.1-.1v-.5l.1-.1v-.6l.1-.1v-.6h-.2v-.6l-.1-.1v-.4h.2l-.1-.1-.3.3-.1-.1v-.6l-.1-.1-.1-.2h-.1v-.5l-.1-.1-.1-.1-.2-.1-.1-.1.1-.1-.1-.1v-.1.1l-.3.1-.1.1H34.5v.1l-.1.1-.1.1-.1.1h-.9v.5l-.1.1-.1.1-.1.1h-.2v.4h-.5l-.2.3H31.8l-.2.1-.1.1-.1.1-.1.1V51.3l-.1.1H31l-.1.1-.2.1h.3H30.7l-.1.1v.1l.1.2.1.2.1.2.1.2.1.2.1.2.1.1.2.1.1.1.1.1.2.1.2.1.2.1h.6l.1-.1.1-.1V53.2l-.1-.1-.1-.1-.1-.1-.1-.1-.3.2-.2-.2-.1-.1-.1-.1-.1-.1h.1l.1.1.2.1.1.1.1.1.1.1h.7V52l-.1-.1-.1.1-.1-.1-.2-.1-.2-.1-.1-.1-.1-.1v-.2l.2.1.2.1.1.1.1.1.1.1h.6V50.8l-.1-.1-.1-.1-.1-.1-.1-.1-.1-.1-.1-.1.1.1.1.1.1.1.1.1h.1l.1.1h.5v-.5l.1-.2v-.1.5l-.1.1v.1l-.1.2-.1.1v.6l.1.1H34.7l.2-.1.2-.1h.4l-.1.1-.1.1-.1.1h-.1l-.2.1h-.4l-.2.1h-.2l-.1.1v-.2.1l-.1.1V53l-.1.1v.1l.1.1H34.5l.2-.1h.5l-.1-.3zm0 0M38.1 40.4l-.2.1H36.9l.1.1V41.7l.1.1.1.1.1.1.1.1.1.1.1.1h1.2l.1-.1.1-.1v-.2l.1-.1.1-.1.1-.1.1-.1h-.1l-.1-.1V40.4H39V37.6h-.1l-.1-.1-.1-.1V37l-.1-.1-.1-.1-.1-.1-.1-.1v-.2V36.7h-.2v.4h-.4l-.1.1v.4l-.1.1H37.2v.2h-.4l-.8.1h-.2l-.1.1-.1.1v.4l.1.1V39h-.5v.4l.1.2-.3.4.1.1.1.1.1.1.1.1h.1l.1.1.3.2.2.1h.7v-.5l-.1-.1-.1-.1h-.1l-.1-.1-.4.1-.1-.1h-.1v-.1h.2l.1.1.1.1.1.1.1.1h.4V39.5h-.1l-.1-.1-.1-.1-.1-.1V38.9l.1.1.1.1.1.1.1.1.1.1h.4v-.5l.1-.1v-.4l-.1-.1-.1-.1-.2.2v-.2H37.3l.1.1h.2v-.7.6l-.1.1v.7H38.3l-.1.1-.1.1H37.3l-.1.1-.1.1-.1.1v.7H37.8l.3.2zm0 0"/><path class="st7" d="M29.8 51.9v.1l-.1.1-.1.1-.1.1-.1.1-.1.1-.1.1-.1.1-.1.1V53.7l.1.1.1.1.1.1h1.2l.2-.1.2-.1.2-.1h.1l-.1-.2-.4-.5-.2-.3-.1-.3-.1-.2-.1-.2v-.2h.4l.1-.1v-.1h.1V51.3h-.2v-.2l-.1-.1v-.2h-.1l-.4-.6h-.2v-.1l-.4-.1v-.2H29.1v-.2h-.5l-.1-.1-.1-.1-.1-.1-.1-.1H27.9l-.1-.1V48.8H27V49.1h-.2V49.9l-.1.1-.1.1-.1.1-.4-.2V50.3l.1.1V51.2l.1.1v.4l-.1.1-.1.1-.1-.2H25.7V52.5l.1.1h.4l.1.1v.4l-.1.1-.1.1-.1.1v.6l.2.1.2.1.2.1.2.1.2.1h1.2l.2-.1h.2l.1-.1.1-.1v-.6H27.4 28.8v-.4l-.1-.1v-.4H27.1h1l.1-.1v-.2l-.2-.6v-.1l-.1-.1V51.3h-.7l-.1-.1H27.9V50.3l.1.1.1.1.1.1V51.5h.6v-.1l.1-.1.1-.1.1-.1.1-.1.1-.1v.4l-.1.2-.1.1-.1.1-.1.1V52.6l.1.1.1.1v.5H29.4l.1-.1v-.1l.1-.1.1-.1.1-.1.1-.1.1-.1.1-.1.1-.1-.4-.5zm0 0M40.4 43.3l-.2.1H40l-.1.1h-.1l-.1.1-.1.1-.1.1H39l-.2-.1h-.1l.3.1v-1.2l.1-.1.1-.1.1-.1.1-.1.2-.2v-.1l.1-.1h.1v.1H40.1v.1h.5v.2H40.9v.1h.2l.1.1h.2v.1l.1.1v.1h.4V43h.2v.5l.1.1.1.1h.1l.1.1v.4H42.8V45H42.5v.1h-.4l-.1.1-.1.1-.1.1H40.7l.4.6v.5H40.3l-.1-.1V46h-.7l-.1.1-.1.1-.1.1H38.9l-.1-.1-.2-.2-.1-.1-.1-.1-.1-.1v-.6l.1-.3.1-.2V44.3h.5V45.5v-.7h.6v1.3-.7h.6v.6l.1.1v-.6l.1-.1H41.2l-.1-.1.7-.3H41l-.1-.1v-.2l.1-.1.1-.1.1-.1.1-.1h.2-.4l-.1.1-.1.1.1-.2-.1.1H40.1l-.1-.1v-.1H39.7V44l.1-.1.1-.1h.2l.1-.1.2-.4zm0 0M39 33.5v.4l.1.1v.1l.1.1.1.1.1.1v.7l-.1.1-.1.1-.1.1-.1.1h-.7l-.2-.1-.2-.1-.2-.1V35l-.2-.1-.1-.1-.1-.1-.2-.3v-.1l-.1-.1-.1-.1v-.4H37.2v-.4H37.5v-.6l.1-.1h.4V32.3H38.3l.1-.1.1-.1.1-.1h.1l.1-.1h.2v.1l.1.1h.2l.1-.1.1-.1.1-.1v-.1h.4V31.4h.6l.1-.1.1-.1.1-.1.1-.1H42l.1-.1.1-.1H43v.4h.1l.1.1-.1.1v.1l-.1.1v.4l.1.1.1.1.1.1v.2l-.1.1-.1.1H43v.6l-.1.1-.1.1v.5l.1.1.1.1.1.1.1.1h.1v.7L43 35h-.6v.5l.1.2v.7l-.2.1-.2.1-.2.1H40.7l-.2-.1-.2-.1-.2-.1-.1-.1-.1-.1-.2-.2v-.6h.7l.2.1.2.1h.4-.2l-.2-.1h-.4l-.2-.1h-.4V35.1l.1-.1h.1l.1-.1.1-.1.1-.1v-.2h.6l.2.1.2.1.2.1h.4l-.2-.1-.2-.1h-.4l-.1-.1H40.7v-.2l.1-.1.1-.1.1-.1.1-.1.1-.1v-.2h1H41.4v-.5l.1-.1.1-.1.1-.1V32.5l.1-.1-.1.1-.1.1-.1.1-.1.1-.1.1-.1.1-.1.2v.4h-.6v-.1l-.1-.1v-.2l-.1-.2-.1-.2v-.2.4l.1.2.1.2.1.2.1.2V34.6l-.1.1h-.1v.2l-.4-.5v.1l-.1.1H39.6v-.1l-.1-.1-.1-.4-.1-.2-.1-.1-.1-.1-.1-.1zm0 0"/><path class="st8" d="M44.8 39c-.1 0-.2 0-.2.1-.1 0-.1.1-.2.2l-.1.1-.1.1H44l-.2.1h-1.5v.2l-.3-.3-.2-.2-.2-.1-.3-.2-.2-.1-.2-.1h-.1l-.2-.1-.2-.1-.3-.1-.3-.1h-.3l-.1.1h.1v.2h.7l.3.1.2.1.2.1.2.1.2.1.2.1.2.1.2.1.4.3.3.3.3.4.4.3.3.3.1.1c0 .1.1.2.1.2.1.1.2.1.3.1.1 0 .2 0 .3-.1.1-.1.1-.2.1-.3 0-.1 0-.2-.1-.3-.1-.1-.2-.1-.3-.1h-.2l-.1-.1-.2-.2-.6.1-.1-.1.1-.3h.8l.3-.1.3-.1.2-.1H44.9c.1 0 .2 0 .3-.1.1-.1.1-.2.1-.3 0-.1 0-.2-.1-.3-.1-.1-.2-.1-.4-.1zm-10.1 1l-.3.2-.3.3-.3.3-.3.3-.3.3-.1.2-.1.2v.2l-.1.2-.1.2-.1.2V44l.1.2.1.4.1.4.1.4.1.4.1.7.1.7.2.7h.1l.1-.1.1-.1.1-.1h.2l-.1-.6-.1-.7-.1-.5v-.2l-.1-.5-.1-.5v-.2l.1-.1.1-.2.1-.1.1-.1.1-.1.1-.1.2-.1.1-.1.1-.1H35l.1-.1.2-.1.2-.1H35.8c.1 0 .2 0 .3-.1.1-.1.1-.2.1-.3 0-.1 0-.2-.1-.3-.1-.1-.2-.1-.3-.1-.1 0-.2 0-.2.1l-.2.2v.1h-.2l-.2.1-.3.1-.2.1-.5.7-.2.1-.1.1h-.1v.1l-.2.3-.2-.3v-1.5l.1-.2.1-.2.1-.2.2-.3.2-.3.2-.3.3-.3.3-.2.2-.1v-.1l-.1-.2-.1-.1zm0 15.6v.7l-.1.3-.1.2-.2.5-.2.5-.2.4-.2.4-.3.5-.3-.1-.1-.1v-.2l-.1-.3-.1-.3-.2-.3-.2-.3-.4-.3-.2-.2-.1-.1v-.2c0-.1-.1-.3-.1-.3-.1-.1-.2-.1-.3-.1-.1 0-.3.1-.3.1-.1.1-.1.2-.1.3 0 .1.1.3.1.3H31.3v.1l.1.1.2.2.4.5.2.2.2.2.1.2.1.2.1.1v.2l.1.3V60l-.2.3-.2.3-.4.6h-.1l-.2.2-.2.2-.2.2-.4.2-.3.2-.3.2-.3.2-.2.1h-.1l-.3.3-.3.3-.6.7-.7.6-.3.3-.3.3-.3.3-.3.3-.3.3-.3.4-.3.4-.3.4-.4.3-.2.4-.2.3-.2.3v.4l-.1.3-.1.3-.1.4-.1.3-.1.3v.4l-.1.7V74l.1.6.1.3.1.3.1.3.1.3.1.3.1.3.1.3.2.3.2.3.2.2.2.2.2.2.2.2.2.2.2.2.2.1.4.3.4.2.5.2.5.2.5.2.5.2.2.1.1-.1.1-.1h.1l.1.1.1.1.1.1h.5l.1-.1h.7l-.7-.2-1-.3-.5-.2-.5-.2-.4-.1-.2-.1.1-.2 2.9-5.1.1-.1c.1 0 .2-.1.2-.2.1-.1.1-.2.1-.3 0-.1-.1-.3-.1-.3-.1-.1-.2-.1-.3-.1-.1 0-.2.1-.3.1-.1.1-.1.2-.1.3v.4l-2.9 5.1-.1.1-.1-.1-.2-.1-.6-.4-.4-.3-.2-.2-.1-.1-.2-.2-.2-.2-.2-.2-.2-.2-.1-.2V76l-.2-.5-.1-.3-.1-.2-.1-.5-.1-.5-.1-.4v-1.5l.1-.6v-.6l.2-.6.1-.3.1-.3.1-.3.1-.3.1-.3.1-.3.1-.2.1-.2.2-.4.2-.4.3-.3.3-.3.6-.6.3-.3.7-.6.7-.6.7-.6.6-.6.1-.1.1-.1.3-.2.6-.4.3-.2.3-.2.3-.2.3-.3.2-.2.3-.3.2-.3.2-.3.2-.3.2-.3.4-.7.1-.1.2-.3.2-.5.2-.5.2-.9v-.2l.1-.3v-.8H34.8l-.1-.1zM35 82l.3.1.8.4.8.4.4.2.4.2.4.2.4.2-.1.3H38l-.3.1-.3.1-.3.1-.6.2-.3.1H35.6c-.1.1-.3.2-.3.3-.1.1-.1.2 0 .3 0 .1.1.2.2.2h.4c.1 0 .1-.1.2-.1.1-.1.1-.1.1-.2V85l.3-.1.5-.2.2-.1.3-.1.2-.1h.4v.1h.5l.2.1.4.1.2.1h.2l.2.2.4.4.4.5.4.5.2.2.2.3.2.3.2.3.1.3.1.3.1.3.1.3.1.3.1.3.1.3v.3l.1.7.1.7v.6c0 .8 0 1.6.2 2.4.3 1 .6 1.1 1.3 1.4 0 0 .1 0 .2.1l-.1-.3-.5-.7-.3-1.2-.2-2.3v-.7l-.1-.7v-.3l-.1-.3-.1-.4-.1-.3-.1-.3-.1-.2-.1-.1-.1-.3-.1-.3-.2-.3-.2-.3-.2-.3-.2-.3-.4-.5-.4-.5-.5-.5-.5-.4-.3-.3-.1-.1-.4-.3-.4-.3-.4-.2-.4-.2-.4-.2-.4-.2-.8-.4-.8-.4-.4-.2v.1l-.1.2.1.2zm0 0"/><path class="st7" d="M48.5 42.2l-.1.1-.1.1-.1.1-.1.1-.1.1v-.1l-.1.1-.1.1-.1.2H47l-.1-.1-.1-.1-.1-.1-.1-.1V41.5l.1-.2.1-.2.1-.2.1-.1.2-.3v-.2l.1-.1v-.1l.1-.1h.2v.2h.4v.2H48.9V40.7H49.2v.2H49.5l.1.1h.2l.1.1.1.1v.2h.1l.1.1h.2v.2l.1.1h.2v.5l.1.1.1.1.1.1.1.1.1.1V43.1l.1.1H51.6v.7l.1.1H51.4v.2h-.6l.2 1.5-.1.1-.1.1-.1.1h-.4l-.1-.1h-.7l.1.1-.1-.1H49v.1l-.1.1V46.4H48.1l-.1-.1v-.4l-.1-.1h-.4l-.1.1-.4.1-.1.1h-.6l-.1-.2-.1-.2-.1-.2-.1-.2.1-.1V44l.1-.2v-.2l.1-.1.1-.1.1-.1h.5l.1.1v1.3V43.2h.4l.1.1h.4l.1.1V44.9 43.6H48.3l.1.1.1.1.1.1h.4v.1l.1.1.1.1v.4l.1.1V43.8H50.2l-.1-.1-.1-.1-.1-.1H49l-.1-.1v-.6h.1l.1-.1.1-.1.2-.1.1-.1.1-.1h-.4l-.2.1-.1.1-.1.1.2 1H48.2l-.1-.1-.1-.1h-.5V43.1l.1-.1.2-.2.2-.1.1-.1.1-.1.1-.1.1-.1.1-.1zm0 0M46.7 35.9v.6l.1.1.1.1v.7l-.1.1-.1.1-.1.1h-.7l-.2-.1-.2-.1-.2-.1-.2-.1V37l-.1-.2-.1-.1-.1-.1-.2-.3v-.1l-.1-.1-.1-.1v-.4h.2V35.3H44.9v-.4h.5l.1-.1.1-.1h.4l.1-.1.1-.1.1-.1h.4v.1l.1.1h.2l.1-.1.1-.1h.5v-.2h.2l.1.1h.4l.1-.1.1-.1H49.4l.1-.1h.2l.2.1h.4l.7.2v.1l.1.1-.1.2-.1.1V35.8l-.1.1-.1.1-.1.1V36v.6h-.1l-.1.1v.4l.1.1.1.1.1.1h.1v.2l-.1.2-.1.1v.1l-.1.1-.1.1h-.6V39.2h-1.2l-.2-.1-.2-.1H48l-.2-.1-.2-.1-.6-.5-.1-.1v-.6l.1-.1h.7l.2.1.2.1h.4l-.1-.1-.3.4-.1-.1-.2-.1-.2-.1-.1-.1h-.1V37.3H47.7l.1-.1.1-.1h.6l.2.1.2.1.2.1h.4l-.2-.1-.2-.1-.3-.1-.5-.1h-.1V36.7l.1-.1h.1l.1-.1.1-.1.1-.1.1-.1H49.7h-.1l-.1-.1h-.4V35.8h.1l.1-.1.1-.1h.1l.1-.1.1-.1.1-.1-.1.1-.1.1-.1.1-.1.1-.1.1-.3-.2-.1.1v.1l-.1.1h-.7V35.1 36.8h-.4l-.1.1-.1.1H47v-.7l-.1-.1-.2-.3zm0 0"/><path class="st1" d="M35.6 84.3h.4l.3-.1.6-.2.3-.1.3-.1.3-.1-.3-.2-.4-.2-.4-.2-.8-.4-.4-.2-.1.2-.2.2-.2.4-.1.1-.1.1v.2l.1.1.1.1.1.1.1.1.1.1.3.1zm0 0M25 69.9l-.1.3-.1.3-.1.3v2.3l.1.6.1.5.1.5.1.3.1.3.1.2.1.2.1.2.1.2.2.2.2.2.1.2.1.1.1.1.2.2.2.1.4.3.4.2 2.8-4.9v-.1-.2c0-.1 0-.3.1-.4l-1.2-2.7-.1-.1-.1-.1h-.4l-.1.1-.1.1-.3.6-.1.1-.1.1-.1.1-.2.1h-1.4l-.4-.1-.4-.1-.3-.2-.1-.1zm0 0M31.2 72.1c.1 0 .1.1.2.1.1.1.2.3.2.6v.3h.1l.1.1.1.1.1.2.1.1.1.1h.2V72.7l.1-.2.2-.3.1-.2.2-.3.2-.2.1-.1h.1l-.3-.1-.1-.2-.3-.1-.2-.1-.2-.2-.2-.2-.1-.1v-.1l-.1.1-.1.1-.6 1.6zm0 0M29.9 69.3h-.4v.1l1.2 2.7h.2v.1l.5-1.9v-.2H30.6l-.1-.1-.1-.1-.1-.1-.4-.5zm0 0M31.3 53.8l.2.1.1.1.1.1H32.6v.2l-1.1 1.1h-.3c-.1 0-.3 0-.4.1-.5-.4-.9-.9-1.3-1.5v-.1h.8l.2-.1.2-.1.2-.1.4.2zm0 0M31.8 56.1l1.4-1.4h.2l.1.1.1.1.2.2.2.2.2.1.2.1.2.1v.8l-.1.3-.1.2-.4.3-.2.4-.2.4-.2.4-.1.1V58.2l-.1-.1-.2-.1-.2-.3-.2-.3-.4-.4-.2-.2v-.2-.1c0-.1-.1-.3-.2-.4zm0 0M36.2 41.5v-.1h-.7l-.1-.1-.2-.2-.1-.1-.1-.1-.3.2-.3.3-.2.3-.2.2-.2.3-.1.2-.1.1-.1.1V43.5l.1-.1.2-.1.2-.1.2-.1.4-.1.2-.1c.1-.1.1-.2.2-.3.1-.1.3-.2.4-.2h.1l.7-.9zm0 0M36 42.9l2.4.6v-.8l.1-.2.1-.2v-.1h-1l-.2-.1-.2-.1-.2-.1v.1l-.1-.1-.1-.1v-.1l-.1-.1-.7 1.3zm0 0"/><path class="st6" d="M81.2 38.3h-.3l-.8-.7v-.1h.2l.2-.1.2-.1.2-.1.2-.1.2-.1.1-.2.1-.2.1-.2.1-.2.1-.2.1-.2V35h-.1v-.4h-.4v-.2H81v-.1l-.1-.1V34h-.5l-.1.1h-.1L80 34h-.5v-.1l-.1-.1H79.1v.2h-.2l-.1-.1-.1.1h-.1v-.4h-.4l-.1.1-.1.1h-.4l-.1-.1v-.2h-.1l-.1.1-.1.1h-.5v-.1h-.1l-.8-.6-.1.1H74.7v.7l-.1.2.1.1.1.1.1.1.1.1v.2l-.1.1v.8H75.2v.5h.2l-.1.1-.1.1-.1.1.1.1V37.2h.4l.1.1.1.1v.1h.5v.5l.1.1v.6H78.1l.3-.1.3-.1.2-.1.1-.1.1-.1.1-.1.1-.1.1-.1.1-.1.1-.1V37.4H79.9l.7.7c-.1.1-.1.2-.1.4s.1.4.2.5c.1.1.3.2.5.2h.2l.1.1.3.1.3.1h.4l-.2.2-.2.2-.1.1c-.2 0-.4.1-.5.2-.1.1-.2.3-.2.5v.1l-1.4.8h-.2v-.8l.2.2-.1-.2-.1-.2-.1-.2-.1-.2-.2-.2-.2-.2-.1-.1-.2-.1-.2-.1-.2-.1-.2-.1v.1h-.4l-.1.1-.1.1H76.2v.1l.1.1H76l-.1.1V40.2l.1.8h-.2v.1h-.7v.1l.1.1.1.1H75v.2h-.9V41.9l.1.2.1.2V42.6l-.1.4h-.5v.2l.1.1.1.1v.2h-.4v.7l-.1.2-.2.5-.1.1.2.1.2.1h.1l.1.1.1.1.1.1h.5v.2h.5l.2.1.1.1.1.1h.2l.1-.1.1-.1h.5l.2.1.1-.1h.2V46.2h.1v.2l.1.1h.4v-.2h.4v-.2H78l.1.1h.1v.1H78.5l.1.1.1.1.1.1.1.1h.1l.1-.1.1-.1.1-.2.1-.2.1-.3.1-.3.1-.3.1-.3v-1.3l-.1-.1V43h.1l1.3-.9c.1.1.3.2.5.2s.4-.1.5-.2c.1-.1.2-.2.2-.4l.3-.2.4-.3.3-.4.3-.3.3-.3.2-.1.2-.1.2-.1.2-.1.2-.1.1-.1h.2l.3-.1h.3l.1.1.1.1v.7h-.2v.2l.1.1.1.1.1.1.1.1v.5l-.2-.1.5-.4h-.4v.1h-.2l-.1.1-.1.1H84.6v.2h-.2l.1.5v.4H84.2v.1h.1H84v.1h-.4v.7h-.4l.1.1.1.1H83v.7l-.1.1-.1.1-.1.1-.7 1h.2l.2.1H82.7l.1.1h.5v.1h.4l.1.1h.2l.1-.1.1-.1h.7V46h.1v.1h.5v-.2h.6l.1.1h.1l.1-.1v-.1l.1-.2.1-.2.1-.2.1-.2.1-.2.1-.2V43.5h.1l2-.5c0 .2.1.4.2.5.1.1.3.2.5.2H90.1l.2.1.2.1H90.8l.1.1.1.1.1.1.1.1v.1l.1.1.1.2-.1.4v.5l-.1.7.6.7-.1.5v-.1l-.1-.1-.1-.1H91.2L91 47l-.2-.1-.2-.1-.1.1V47.2l-.1.1v.1l-.1.1-.1.1-.2.2-.1.1V48.8h-.5v.1l.1.1.1.1.1.1v.4l-.1.1h-.1l-.2.1-.2.1H89v-.3.4l.1.1.1.1.1.1.1.1v.1h-.2V50.8H89v.5l.1.1.1.1h-.1l.1.1v.2l-.1.1-.1.1v.2l.1.1v.2H88.8V52.8l.1.1.1.1.1.1.1.1.1.1.1.1v.5l.1.1h.2l.1.1v.2h-.1l.2.1.2.1.2.1.2.1h.4-.2V55.6l.1.3.1.3.1.2.1.4.2.5.2.5.2.5.1.2.3.5.2.3.2.3.2.3.2.3.3.3.3.3.1.1.1.1.3.2.3.2.3.2.6.4.3.2.2.2.1.1.3.2H96v.4l-.1.1H95.6l-.1.1V63.6l-.5.7h-.1l-.1-.1-.1-.1h-.2l-.2-.1V63.2h-.5l-.1-.1-.3-.1-.1-.1h-.5l-.1-.1-.1-.1-.1-.1-.1-.1-.1-.1h-.4l.1-.1-.2-.1-.2-.2-.1.2V62.5l-.1.1v.1l-.1.1-.1.1-.2.2-.1.1v.1l.1.2v.6h-.4v.1l.1.1.1.1v.6l-.1.1h-.1l-.2.1-.2.1h-.1L90 65v.4l.1.1.1.1.1.1.1.1v.1h-.2V66.2H90v.5l.1.1.1.1.1.1h-.1v.2l-.1.1-.1.1v.2l.1.1v.2H89.8V68.2l.1.1.1.1v.6l.1.1.1.1.1.1v.5l.1.1h.2l.1.1v.1h-.1l.2.1-.1-.1v.2l-.1.1-.1.1-.1.1H90.1l-.1.2-.1-.1H89.6l-.1.1-.1.1H88.4l-.1.1-.1.1v.6H88v.1l.1.1.1.1v.2H87.9l-.1.2-.1.1-.1.1-.1.1H86.5l-.1.1v.1l-.1.2v.1l-.1.1-.1.1h-.2v.5l-.1.1-.1.1h-.1l-.1.1-.1.1v.2l-.1.1-.1.1-.1.1v.2l-.1.2.2.1.1.1.3.1.1.1.1.1.1.1.1.1.1.2.1.1h.7l.1.1v.8l.1.1.1-.1.1-.1h.5l.1.1v.2l.1.2v.4l.1.1h.5l.1-.1.1-.1h.4v.2H89.5V78.3h.6l.1-.1.1-.1v.1l.1-.1H90.7l.1.1.1.1.1.1.1.1h.5v.4H91.9l.2-.1.2-.1.2-.1.2-.1h.5l.1.1.1-.1.1-.1.1-.1h.2v.2h.1l.2-.2.2-.2.1-.2.1-.3.1-.3.1-.3.1-.3V75.8l-.1-.3-.1-.3-.1-.3-.1-.2-.2-.2-.1-.1-.1-.4v-.2l.1-.1.1-.1.2-.1.2-.1.1-.1.1-.1 2.8 4.9-.2.1-.5.2H96.6l-.1.1-.1.1-.1.1H96l-.1.1h-.4V78.5H95v-.1l-.1.1-.1.1v-.1l-.1.1h-.4l-.1-.1-.1-.1h-.4l-.1.1h-.2v-.4L93 78H92.7l-.1.1-.1.1-.1.2-.1.2-.1.2-.2-.1-.1.1h-.5l-.1.1v.2l-.1.1H91l-.1-.1V79h-.1l-.1.2-.1.2-.1.3-.1.3-.1.3V81.2l-.6.3-.8.4-.5.1-.4.2-.4.2-.4.2-.4.4-.2.2-.1.1-.5.4-.5.4-.5.5-.4.5-.4.5-.2.1-.4.3-.3.1-.3.1-.2.1-.2.1h-1l-.1-.1-.1-.1-.1-.1-.1-.1h.1v-.7l.1-.1.1-.1.1-.1.1-.1.1-.1.1-.1.1-.1.1-.1-.3-.1-.3-.1H80l-.2.1-.4.2-.2.1-.2-.2-.2.1-.1.1-.1.1-.1.2-.1.2-.1.2-.1.2-.1.2-.1.2V87.4l.1.2.1.1.2.3.2.2.2.2.2.2.2.1.2.1.2.1h1l.2-.1.2-.1.2-.1.2-.1.2-.1.2-.1.2-.2.2-.2.2-.2.2-.2.4.2-.1.3-.1.3-.1.3-.1.3v.3l-.1.7v.7l-.2 2.3L82 94l-.5.7-.4.7.2.2.6-.3c.8-.4 1.1-.5 1.5-1.6.2-.8.2-1.6.3-2.4v-.6l.1-.7.1-.7V89l.1-.3.1-.3.1-.3.1-.3.1-.3.1-.2.1-.3.2-.3.2-.3.2-.3.2-.2.4-.5.4-.5.4-.4.2-.1h.1l.2-.1.4-.1.2-.1h.7l.2.1.3.1.2.1.5.2h.1c0 .1.1.2.2.2.1.1.2.1.3.2.1 0 .2 0 .2.1l.1.1.1.2V85.7h-.4l-.2-.1-.2.4-.1-.1-.1-.1-.1-.1H88.2l-.4.1-.4.1-.4.1-.3.1-.3.1-.3.2-.1.1-.1.1v.2l.1.1.1.1.1.1.1.1v.4l.1.1v.1l.1.1V88.2H85.7v.6h-.2v.6l.1.1.1.1h.1V89.9h.5V90.2l-.1.1.1.2V91.3l-.3.4-.1.1v.2l.1.1.1.1.1.2V93H86.5V93.9l.1.1.1.1.1.1v.1l.1.3.1.3.2-.1.1-.1.1-.1.1-.1H88.4v-.6l.1-.1h.4l.3.2h.4v-.6l.1-.1H90l.2.1.2.1h.4v-.7.2-.1H91.1l.1-.1v-.2h.1l.1.1.1.1h.1l.1-.1.1-.1V92h.1V91.7l.1-.1H92.3l.1-.1v-.4h.1l.1.1.1.1H93l.1-.1V90l.1-.1.1-.1.1-.1v-.6h.1V89l-.1-.3-.1-.3-.1-.3-.2-.2 1-.2-.2-.2-.2-.2-.2-.2-.2-.2-.3-.2-.3-.1-.3-.1h-1.2V85c.1-.1.1-.1.1-.2.1-.2.1-.4 0-.6v-.1l.1-.2.1-.1.1-.1H91.8l.1.1v.7l.1.1.1.1.1.2.1.2.1.2.2.2.3.2.3.2.3.2.3.2.3.2.3.1.3.1.1.1h.2V86.5l.1-.1v-.1l.1-.1.1-.1.1-.1v-.5h.4l.1.1.1.1h.4l.1-.1.1-.1H97.4l.1-.1.1-.1v-.7l.1-.1v-.1l-.1-.1-.1-.1-.1-.1v-.2H97.7l.1-.2.1-.1.1-.1.1-.1.1-.1H99l.1-.1V83l.1-.2v-.1l.1-.1.1-.1.1-.1.1-.1v-.6l.1-.1.1-.1.1-.1.1-.1.1-.1v-.5l.1-.1.1-.3.2-.2-.2-.1h-.6l-.1-.1-.1-.2-.1-.1-.1-.1-.1-.1-.1.1H98.3V79l.2-.1.5-.2.4-.2.4-.3.2-.2.2-.2.2-.2.2-.2.2-.2.2-.2.2-.2.2-.3.2-.3.1-.3.1-.3.1-.3.1-.3.1-.3.1-.3.1-.3.1-.6V71l-.1-.7-.1-.4-.1-.3-.1-.4-.1-.3-.1-.3-.1-.3-.1-.3-.2-.3-.1-.3.1.2h.6V67h.2v-.6l-.1-.1-.1-.1-.1-.1V65.8l-.1-.1h-.4v-.2l.1-.1.1-.1V64.4l.1-.1.1-.1.1-.1v-.2l-.1-.1-.1-.1-.1-.2V63l-.1-.1h-.1l-.1-.1V61.9l-.1-.1-.1-.1-.1-.1v-.1l-.1-.3v-.3l-.2.1-.1.1-.3.1H99.4V61.5l-.1.1-.1.1-.1.1h-.4l-.1-.1.4-.5-.1-.1H98.6v.6l-.1.1H98.2l-.2-.1-.2-.1h-.4V62.6h-.2l-.1-.1v.1l.1.1-.3-.3-.3-.2-.1-.1-.3-.2-.3-.2-.3-.2-.3-.2-.3-.2-.2-.1-.2-.2-.2-.2-.3-.3-.2-.3-.2-.3V59.1l.1-.3v-.2l.1-.1.1-.2.1-.2.1-.2.2-.2.4-.5.2-.2c.2 0 .3-.1.5-.2l.1-.1 1.7.2H97l-.1.1-.1.1-.1.1-.1.1-.1.1v2.1H97.5v.2H97.8v.1h.7l.1-.1v-.2h.1l.1.1h.5v.2h.2l.2-.1h.4v-.1l.1-.1h.5l.1-.1h.7V58.3H101.2l-.1-.1V58l.1-.1.1-.1v-.1h-.2l-.1-.1v-.4l.1-.1.1-.1V56.7h-.4v-.1l-.1-.1h-.1.2v-.2h-.2v-.5h-.1l.1-.1.1-.1v-.1H99.8V55.2h-.4v-.1H98.8l.2-.5-.2.1-.2.1-.2.1-.1.1-.2.1-.1.1-.1.2-.1.2-.1.2-.1.2v.4h-.4l-1.5-.1v-.1c0-.1 0-.3-.1-.4.6-.4 1.1-.9 1.4-1.5v-.1h.5l.1.1h1.3l.3-.1.3-.1.3-.1.3-.1.2-.1.2-.1h.1l.1-.1v-.1l-.1-.1-.1-.1V52.4h.2V52h.2v-.4l-.1-.1h-.2v-.1H100.3v-.2l.1-.1v-.7l.1-.1.1-.1V50l-.1-.1-.1-.1-.1-.1v-.5h-.1v-.5l-.1-.1-.3-.6-.1-.1v-.1l-.1-.2v-.2l-.1.1-.1.1-.1.1-.1.1h-.7v.4h-.2l-.4-.2-.1-.1h-.2v.5h-.4l-.2-.1-.2-.1H96.5V49h-.2V49.3l-.1-.1-.1-.1H96v.6h-.1v.2h-.4l-.1.1v.2l-.4.3v-.4l-.1-.1v-.6l-.1-.1H94l-.1.1-.1.1V49.2l-.1-.1-.1-.1-.1-.1-.1-.1v-.7h-.1l.2-.7.1-.7.1-.7.1-.4.1-.4.1-.4.1-.4.1-.2V42.6l-.1-.2-.1-.2-.1-.2-.1-.2-.1-.2-.1-.2-.3-.3-.3-.3-.3-.3-.3-.3-.3-.3v-.1l.1-.2v-.2h-.4v-.1h-.4v-.1l.1-.1-.6-1.1-.1-.1v-.4l-.1-.1H89.9v-.2l-.1-.1-.1-.1h-.1v-.4h-.5l-.1-.1h-.2l-.1-.1v-.1l-.5-.3h-.5l-.2-.1-.1-.1V35.5h.4l.2-.1.2-.1.2-.1.2-.1.2-.2.2-.2.1-.2.1-.2.1-.2.1-.2.1-.2.1-.2v-.4h-.1v-.5h-.1l-.1-.1H89V31.4l-.1-.1-.1-.1h-.2l-.1.1-.1.1V31.1h-.5v-.2h-.1v-.5H87.5v.2h-.1v-.1l-.1-.1-.1-.1-.1.1h-.2v-.9h-.4l-1 .5-.2.1h-.4v-.5h-.2l-.2.2h-.4V29.5l-.1.1H83v.7l-.1.1v.1l.1.1v.5l-.1.1v.5l-.1.2v.4l.1.1.1.1v.8l.1.1.1.1v.1H83l-.1.1v.1h-.1l-.3.2v.7h.2v.4h.6v1.2l-.1.1v.1h.2l.3.1h2l.3-.1.1-.1.1-.1.1-.1.1-.1.1-.1.1-.1v-.1l.1-.1H87v.3l.1.4H87l-.1.1v.4H86.6l.1.1v.1l-.1.1-.1.1h-.2l-.3.1-.5.6h-.2l-.2.1-.2.1-.2.1-.2.1-.2.1-.3.3H82.3l-.2-.1h-.2c-.1-.1-.1-.2-.3-.3-.1-.1-.2-.1-.4-.1zm0 0"/><path class="st7" d="M80.8 84.7H80l-.1.1-.4.2-.2.2-.2.2-.1.2-.1.2-.1.2-.1.3V86.9l.1.2v.1l.1.1.1.1.1.1.1.1.1.1.1.1.1.1h1.4l.3-.1.3-.1.4-.1.3-.1.1-.1.1-.1.1-.1.1-.1.1-.1.1-.1.1-.1.1.2.1-.1v-.1h-1.6l-.2-.1-.2-.1-.1-.1-.1-.2-.1-.2-.1-.1-.1-.2v-.7l.2-.4zm0 0M91.4 89.6l-.1-.1-.1-.1-.1-.1-.1-.1V89l-.1-.1-.2-.1-.2-.1-.1-.1-.1-.1v-.6l.1-.1.1-.1.1-.1.1-.1.1-.1.1-.1H92.1l.2.1.2.1.2.1.2.1.2.1.3.3.1.1h.1l.2.1.1.1.1.1v.2H93.7v.5H93.4v1.3h-.5v.4H92.6v.2l-.1.1-.5.2-.1.2-.1.1-.1.1-.1.1-.1.1-.1-.1H91v.1l-.1.1v.2h-.2l-.1.1h-.1V93H89.9l-.1.1-.1.1-.1.1-.1.2-.1.2H88.4l-.1.1v.2H87.5l-.1.1v-.6H87.1l.1-.1V93l-.1-.2v-.1l-.1-.1-.1-.1-.1-.1-.1-.1V92l.1-.1.1-.1v-.6l-.1-.1.1-.1.1-.1v-.5l-.3-.4h-.1l-.1-.1-.2-.1h-.2V88.8l.1-.1h.4l.1-.1V87.8l-.1-.2-.1-.2-.1-.2v-.6l.2-.1.2-.1.2-.1.2-.1.2-.1.2-.1h.7l.6.1.3.1.1.1.1.1.1.1.1.1.1.1v.4l.3.2-.1.1H88.3 89.7l.1.1v.4l-.1.1-.1.1-.1.1-.1.1v.2l-.1.1H87.7 89.1l.1.1v.4l-.1.1-.1.6-.1.2V90.3l-.1.1h-.1l-.1.1-.2.1h-.8l-.2.1H88.5l.1.1v.6l-.1.1v.4l.1-.2.1-.2.1-.2.1-.1V90.9l.1-.2v-.5l.1-.1h.7v.1l.1.2.1.2.1.2.1.2.1.1.1.1v-.5H90l-.1-.2-.1-.2-.1-.2V89.1l.1-.1.1-.1V88.3h.5l.1.1.1.2.1.2.1.1.1.1.1.1.1.1.1.1.2.3zm0 0M93.4 80.8l-.1.1V82.3l-.1.1-.2.2-.1.1-.1.1-.3.1H92l-.1-.1-.1-.1-.2-.2-.2-.2-.2-.3-.1-.2-.1-.3-.1-.2V79.6l.1.1.1.1h.4l.1-.1.1-.1.1-.1.1.1h.5l.1-.1.1-.1.1-.1.1-.1h.4l.1.1.1.1h.5l.1-.1.1-.1.1.1h.5l.1-.1.2-.1h.6v.2h.7l.1.1h.5l.1-.1.1-.1.1-.1h.1l.1.2.1.1.1.1.1.1H98.6l.1.1.1.1.1.1h.6l.1-.1.1.1.1.1.2.2.1.1.1.1.1.1.1.1v.1l-.1.1-.9.2-.1.1v.5H99l-.1.1-.1.1-.1.1V83l-.1.1-.1.1-.1.1h-.2l-.2-.4-.1.1-.1.1-.1.1-.1.1-.1.1-.1.1h-.5v.7l.1.2v.1l.1.1-.1.2-.1.2-.1.1-.1.1-.1.1-.1.1h-.2l-.1-.1-.1-.1-.1-.1-.3-.1h-.4l-.1.1v.1l-.1.1-.1.2-.1.2-.1.2V86.2l-.1.1-.1.1h-.1l-.3-.1-.3-.1.1-.2-.2-.1-.2-.1-.2-.1-.2-.2-.2-.2-.1-.1-.1-.1-.3-.5-.1-.3v-.6l.1-.1.1-.1.1-.1h.4l.1.1.1.1.1.1.2.2.2.2.1.1.1.1.1.1.1.1H94l-.1-.1-.1-.2-.2-.2-.1-.2-.1-.2-.1-.1v-.6h.5l.1-.1h.1l.1-.1h.2l.1.1.1.1.1.1.1.1.1.2.1.2.2.2.1.1.1.1.1.1h.1l-.1-.2-.1-.2-.3-.1-.1-.2-.1-.2-.1-.1v-.6H95.3l.1-.1h.4l.1.1.2.1.1.1.1.1.2.1.1.1.2.1-.1-.1-.1-.1-.1-.1-.1-.1v-.1l-.1-.1-.1-.1v-.6l.1-.1h.1l.1-.1h.2l.1-.1.1-.1h.1H96.4l-.1.1-.1.1-.1.1-.2.1.1.2-.1.1h-.5l-.1-.1-.1-.1v-.7l.1-.2.1-.2.1-.2v-.2l-.1.1-.1.1-.1.1v.4l-.1.2v.2l-.1.3v.2l-.1.1-.1.1-.1.1-.1.1-.1.1H93.6l-.1.1-.1.1-.1-.1-.1-.1V81.8l.1-.2v-.8h.1zm0 0M99.6 56.7h-.1l-.2.1H99l-.1.2-.1.1-.1.1H98l-.1-.1-.1-.1v-.8l.1-.2.1-.2.1-.1.1-.1.1-.1.1-.1.1-.1.2-.2h.1V55l.1-.1h.4v.1H99.6v.2h.4v.2h.2v.2l.1.1.1.1.1.1v.4h-.1v.1l.1.1.1.1h.1V56.9h.2v.7l.1.1.1.1v.4h.1l.1.1V59.1H101v.1l-.1-.1h-1.2l-.1-.1-.1-.1-.1-.1.5 1.2h-.6v-.1l-.1-.1h-.4l-.1.1.1.1v.2h-.7l-.1-.1v-.6H97V57.8l.1-.2.1-.2.1-.1.1-.1.1-.1h.7v.7l-.1.2h-.4v.4-.2l.1-.1V57.8l.1-.1v-.1h.1v.1l.1.1.1.1.1.1v.5l-.1.1-.1.1-.1.2v.4l.1-.1.1-.1v-.2l.1-.1v-.1h.2l.1.1.1.1.1.1.1.1V60v-.6H99.2l.1.1.1.1H99.7l-.1-.1-.1-.1-.1-.1-.1-.1-.1-.1-.1-.1-.1-.1h-.2V58.6h.7H98.8l-.1.1H97.9v-.2h-.2l-.1-.1v-.2l.2-.1h.4l.1-.1 1.3-1.3zm0 0M91.7 75.8l.1-.1.1-.1.1-.1V74.4l.1-.1.1-.1.1-.1.1-.1h.7l.1.1.1.1.1.1.1.1.1.2.1.2.1.2.1.2.1.2V77.3v-.2H93.7l-.1.1-.1.1-.1-.1h-.5l-.1.1-.1.1-.1.1h-.5l-.1.1-.1-.1-.1-.1h-.6l-.1-.1-.1-.1H89.8l-.1-.1v-.2h-.6l-.1-.1v-.2h-.4l-.1.1-.1.1h-.1l-.1-.2-.1-.2-.1-.1-.1-.1H87.2l-.1-.1-.1-.2v-.1h-.5l-.1-.1-.1-.1-.1-.2-.2-.2-.1-.1-.1-.1-.1-.1h.1l.1-.1.1-.1V74.4h.4l.1-.1V73.4l.1-.1h.7l.1-.1.1-.1.1-.1.1-.1h.5l.1-.1V72l.2-.2.2-.2.1-.1.1-.1h.4l.1.1.1.1.1.1.1.1h.4l.1-.1.1-.1.1-.1.1-.2.1-.2.1-.2v-.1l.2.1.2.1h.8l.2.1.2.2.1.2.1.2v.1l.1.1.1.3.1.3.1.3v.7l.1-.2-.1.1H92.6l-.1-.1-.1-.1-.1-.1-.1-.1h.1l-.1-.2-.2-.3-.1-.1-.1-.1-.1-.1-.1-.1v.1l.1.1.1.2.1.2.1.2.1.2v.6H91.2l-.1-.1-.1-.1v-.1l-.1-.1-.1-.2-.1-.2-.1-.2-.1-.1-.1-.1-.1-.1-.1-.1.1.2.1.2.1.2.1.2.1.2v.7H89.5l-.1-.1-.1-.1-.1-.1-.2-.2-.1-.1-.2-.1.1.1v.4l.1.1v.4l-.1.1H88h.9l.2-.1h.6l.1.1.1.1v.6l-.1.2-.1.2-.1.2-.1.2v.2l.1-.1.1-.1.1-.1.1-.1.1-.2.1-.2.1-.2.1-.2v-.1l.1-.1.1-.1.1-.1.1-.1.1-.1H91.1 91 91.8l.1.1v.5l-.1.2-.1.2v.7-.2zm0 0M96.6 65.8l.1.1.1.1.1.1.1.1.1.1.1.1.2.1.1.1.1.1.1.1v.6l-.1.1-.1.1-.3.4-.1.1-.1.1-.1.1H96l-.3-.1-.2-.1-.3-.1-.2-.1-.2-.1-.2-.2-.3-.3-.1-.1-.1-.1-.1-.1h-.1l-.1-.1v-.2H94.1V66.1H94.4v-1.3h.5l.1-.1.1-.1v-.2H95.4v-.1l.1-.1.1-.1.4-.1.1-.2.1-.1.1-.1.7.6.7.6.6.6V66.4l-.1.1-.1.1H98v.1l-.1.1v.1l-.1.2H97.5V67l-.1-.1-.1-.1-.1-.2-.1-.2-.1-.1-.1-.1-.2-.2-.1-.2zm.9-2.7l.1-.1h.1v-.4H98.3l.1-.1.1-.1.1-.1.1-.1.1-.1H99.8l.1-.1.1-.1.1-.1H100.9l.1-.1v.6l.1.1.1.1.1.1-.1.1v.7l.2.3.1.1.1.1v.2l-.1.1-.1.1-.1.1-.1.1v.5l.1.1-.1.1-.1.1v.5l.1.1.1.1.1.1.2.1.1.1h.1V67.2l-.1.1-.1.1h-.1l-.1-.2-.2-.4-.3-.4-.3-.4-.3-.4-.3-.3-.1-.1h.5l.2-.1H99.7l-.1-.1v-.4l.1-.1.1-.1.1-.1.1-.1V64l.1-.1-.1.1-.1.1-.1.1-.1.1-.1.1-.1.1v.1l-.1-.1-.3-.3-.3-.3-.7-.6-.6-.2zm3.4 5.9l-.2.1-.3.1-.2.1-.2.1H99.1l-.3-.1-.3-.1-.3-.1-.1-.1-.1-.1-.1-.1-.1-.1-.1-.1v-.4l.1-.1.1-.1h.5l.3.1h.7-.2L99 68h-.8l-.1-.1-.1-.1-.1-.1v-.2l.1-.1.1-.1.1-.1.1-.1.1-.1v-.2l.1-.1h.7l.2.1H99.7l.2.3.2.4.2.4.1.2.1.3.1.3.3.3zm-1.2-2.2h-.4l-.2-.1H99l-.1-.1-.1-.1-.1-.1-.1-.1V66l.1-.1.1-.1.2.2.3.3.3.3.1.2zm0 0"/><path class="st7" d="M92.1 68.1H93.6l.1.1.1.1.1.1.1.1v.7l-.1.1-.1.1-.2.2-.2.1-.3.3-.2.1-.2.1-.2.1-.2.1H90.9l.1-.1V70l-.1-.1.1-.2v-.6l-.1-.1-.1-.1-.2.1h-.1v-.4l.1-.1.1-.1v-.5l-.1.1v-.6l-.1-.1v-.6h.2v-.6l.1-.1v-.4l-.1-.1.1-.1.1-.1.1-.3.1-.1.1-.1v-.6l.1-.1.1-.1.1-.1.1-.1v-.5l.1-.1.1-.1.2-.2.1-.1.1-.1.1-.1.1-.1v.1l.1.1.1.1H92.9v.1l.1.1.1.1.1.1H94.1V63.5l.1.1v.1l.1.1.1.1.1.1V64.9l-.1.1-.4.5-.1.1-.1.1v.6h-.1v-.2l.1-.1.1-.1.1-.1.1-.1.1-.1.1-.2-.1.1-.1.1-.1.1-.1.1h-.1l-.1.1h-.5V65.1v.6l.1.1v.1l.1.2.1.1v.6l-.5-.4h-.7l-.2-.1-.2-.1h-.4l.1.1.1.1.1.1h.1l.2.1h.4l.2.1h.2l.1.1.1.1.1.1.1.1v.9l.1.1.1.1v.1l-.1.1H92.8l-.2-.1H92l.1-.2zm3.4.7l-.3.2h-.6l-.1-.1-.1-.1v-.5l.1-.1h.1l.3.2.3.1.3.3zm-1.1-.5H94.1v-.4l.2.2.1.2zm0 0M91 52.6H92.5l.1.1.1.1.1.1.1.1v.7l-.1.1-.4.2-.2.2-.2.1-.2.1-.2.1-.2.1-.2.1H89.6l.1-.1V54.3l-.1-.1-.1-.1v-.6l-.1-.1-.1-.1-.1-.1-.1-.1v-.5l.1-.1.1-.1v-1.2l-.1-.1v-.6h.2v-.6l.1-.1v-.4h-.2l.1-.1.1-.1.1-.1.1-.1v-.6l.1-.1.1-.1.1-.1v-.5l.1-.1.1-.1.2-.1.1-.1.1-.1.1-.1v-.1.1l.1.1.1.1H91.2v.1l.1.1.1.1v.1H92.2v.5l.1.1.1.1.1.1h.2v.4h.5l.1-.1h.2l.2.1.2.1.1.1.1.1.1.1V50.1l.1.1h.2l.2.1.2.1.1.1H95.3l.1.1v.1l-.1.2-.1.2-.1.2-.1.2v1l-.1.2-.1.1-.2.2-.1.1-.2.1-.2.1-.2.1h-.6l-.1-.1-.1-.1v-.5l.1-.1.1-.1.1-.1.2-.1.2-.2.1-.1.1-.1.1-.1.1-.1-.2.4-.1.1-.2.1-.1.1-.1.1-.1.1h-.6V51.6l.1-.1.1-.1.1-.1.2-.1.2-.1.2-.1.1-.1.1-.1v-.2l-.2.1-.2.1-.1.1-.1.1-.1.1h-.6V50.1l.1-.1.1-.1.1-.1.1-.1.1-.1v-.1l-.1.1-.1.1-.1.1-.4.2h-.1l-.1.1h-.5V49.3v.5l.1.1v.1l.1.2v.7l-.1.1h-.7l-.2-.1h.1-.4l.1.1.1.1.1.1h.1l.2.1h.4l.2.1h.2l.1.1.1.1.1.1.1.1V52.7l.1.1.1.1v.1l-.1.1H91.9l-.2-.1H91.1l-.1-.4zm0 0M88 40l.2.1H89.2l.1.1V41.3l-.3-.2-.1.1-.1.1-.1.1-.1.1-.1.1h-1.2l-.1-.1-.1-.1v-.2l-.1-.1v-.4l-.1-.1h.1l.1-.1V39.5h.2V38.7l.1-.1V38h.1l.1-.1.1-.1v-.4l.1-.1.1-.1.1-.1.1-.1v-.2V37.1h.2v.4h.4v.4H89v.2h.7l.1.1.1.1.1.1V39.4h.5v.4l-.1.2-.1.1.7-.3-.1.1-.1.1-.1.1h-.1l-.1.1-.1.1-.1.1-.2.1h-.7V40l.1-.1.1-.1h.1l.1-.1.1-.1.1-.1.1-.1.1-.1v-.1H90v.5l-.1.1-.1.1-.1.1h-.4V39.2h.1l.1-.1.1-.1.1-.1V38.6l-.1.1-.1.1.1.2h-.1l-.1.1H89V38.2l.1-.1.1-.1H89l.1-.1v-.1H88.8l-.1.1h-.2v-.7.6l.1.1v.7H87.8l.1.1.1.1H89l.1.1.1.1v.7h-.7l-.5.3zm0 0"/><path class="st7" d="M96.3 51.5v.1l.1.1.1.1.1.1.1.1.1.1.1.1.1.1.1.1V53.3l-.1.1-.1.1-.1.1h-1.2l-.2-.1-.2-.1-.2-.1.1-.2.2-.3.2-.3.1-.3.1-.2.1-.3v-.2h-.4l-.1-.5v-.1h-.1V50.6h.2v-.2l.1-.1v-.2h.1l.1-.1h.2v-.1l.1-.1v-.2H96.3v-.2h.5l.1-.1.1-.1.1-.1.1-.1H97.5V48.7H98.3v.4h.2v.7l.1.1.1.1.1.1.1.1V50.5l-.1.1V51.4l-.1.1v.4l.1.1.1.1.1.1H99.3V53l-.1.1H99l-.2.1-.1.1v.4l.1.1.1.1.1.1v.6l-.2.1-.2.1-.2.1-.2.1.9-1H98l-.2-.1h-.2l-.1-.1-.1-.1v-.6H98.8 97.4v-.4l.1-.1v-.4H99.1h-1l-.1-.1v-.2l.1-.1.1-.1.1-.1V51.3h.7l.1-.1H98.3V50.3l-.1.1-.1.1-.1.1V51.5h-.6v-.1l-.1-.1-.1-.1-.1-.1-.1-.1-.1-.1-.1-.1v.4l.1.2.1.1.1.1.1.1V52.5l-.1.1-.1.1-.1.1V53.1H96.6V53l-.1-.1.3-.9-.1-.1-.1-.1-.1-.1-.1-.1-.1-.1zm0 0M85.6 42.9l.2.1h.2l.1.1h.1l.1.1.1.1.1.1H87.3l.1-.1.1-.1v-1.1l-.1-.2-.4.2V42l-.1-.1-.2-.2v-.1l-.1-.1h-.1v.1h-.4v.1h-.5v.2H85.3v.1h-.2l-.1.1h-.1v.1l-.1.1v.1h-.4V42.7h-.2v.5l-.9.8-.1.1h-.1l-.1.1V44.5H82.7V45.3H83v.1h.5l.2.2.1.1H85v.5H85.8l.1-.1v-.4l.1-.1h.2l.1.1.1.1.1.1H86.8l.1-.1.1-.1.1-.1.1-.1.1-.1v-1l-.1-.2V43.9h-.4v1.3-.7h-.6v1.3-.6h-.7v.6l-.1.1v-.6H84.5l.1-.1.1-.1h.9v-.2l-.1-.1-.1-.1-.1-.1-.1-.1H85h.4l.1.1.1.1.1.1.1.1H86.6l.1-.1h.4v-.2l-.1-.1-1-1.2h-.2l-.1-.1-.1-.1v-.2zm0 0M87.1 33.1v.4l-.1.1v.1l-.1.1-.1.1-.3.1v.7l.1.1.1.1.1.1.1.1h.7l.2-.1.2-.1.2-.1.2-.1.2-.1.1-.1.1-.1.2-.4v-.1l.1-.1.1-.1v-.4H89v-.4H88.7V32.1h-.4V31.8H88l-.1-.1-.1-.1-.1-.1h-.1l-.6-.2H86.7v.1l-.1.1h-.2l-.1-.1-.1-.1-.1-.1v-.1L86 31h-.2V30.7h-.6l-.2-.2-.1-.1-.1-.1-.1-.1H83.8l-.1-.1-.1-.1H82.8v.4h-.1l-.1.1.4.5v.7-.1l-.1.1-.1.1V32.1l.1.1.1.1.1.1.1.1v.6l.1.1.1.1v.4l-.1.1-.1.1-.2-.1h-.1v.7l.1.1h.6v.5l-.1.2v.7l.2.1.2.1.2.1H85.3l.2-.1.5-.2.2-.1.1-.1.1-.1.1-.1V35h-.7l-.2.1-.2.1H85h.2l.2-.1h.4l.2-.1h.4V34.7l-.1-.1h-.1l-.1-.1-.1-.1-.1-.1v-.2h-.6l-.2.1-.2.1-.2.1h-.4l.2-.1.2-.1h.4l.1-.1H85.5v-.2l-.1-.1-.1-.1-.1-.1-.1-.1-.1-.4v-.2h-1 .1l.2-.1h.5v-.5l-.1-.1-.1-.1-.2-.1V31.7l-.1-.1.1.1.1.1.1.1.1.1.1.1.1.1.1.2v.4h.6l.1-.1v-.1l.1-.1v-.4l.1-.2v-.2.4l-.1.2-.1.2-.1.2-.1.2V33.7l.1.1h.1v.2l.1.1v.1l.1.1H86.2v-.1l.1-.1.1-.2v-.2l.1-.1.1-.1.1-.1.4-.3zm0 0"/><path class="st8" d="M81.2 38.6c.1 0 .2 0 .2.1.1 0 .1.1.2.2l.1.1.1.1.2.1.2.1H83.7v.2l.2-.2.2-.2.2-.1.2-.1.2-.1.2-.1h.1l.2-.1.2-.1.3-.1.3-.1h.3l.1.1h-.1v.2h-.7l-.3.1-.2.1-.2.1.3.1-.2.1-.2.1-.2.1-.2.1-.4.3-.3.3-.3.4-.4.5-.3.3-.1.1c0 .1-.1.2-.1.2-.1.1-.2.1-.3.1-.1 0-.2 0-.3-.1-.1-.1-.1-.2-.1-.3 0-.1 0-.2.1-.3.1-.1.2-.1.3-.1h.2l.1-.1.2-.2.4-.4.1-.1-.2-.2h-.8l-.2-.2-.3-.1-.2-.1h-.1-.1-.1c-.1 0-.2 0-.3-.1-.1-.1-.1-.2-.1-.3 0-.1 0-.2.1-.3.1-.1.2-.1.3-.1zm10.2 1l.3.2.3.3.3.3.3.3.3.3.1.2.1.2.1.2.1.2.1.2.1.2v1.4l-.2.4-.1.4-.1.4-.1.6-.1.4-.1.7-.1.7-.2.7h-.1l-.1-.1-.1-.1-.1-.1h-.2l.1-.6.1-.7.1-.5v-.2l.1-.5.1-.5v-.2l-.1-.1-.1-.2-.1-.1-.1-.1.2.1-.1-.1-.2-.1-.1-.1-.1-.1H91.4l-.1-.1H91l-.1-.1h-.2-.1-.1c-.1 0-.2 0-.3-.1-.1-.1-.1-.2-.1-.3 0-.1 0-.2.1-.3.1-.1.2-.1.3-.1.1 0 .2 0 .2.1l.2.2v.1h.2l.2.1.3.1.2.1.2.1.2.1.1.1h.1l.1.1.2.3.1-.4v-1.5l-.1-.1-.2-.3-.2-.3-.2-.3-.2-.3-.3-.3-.3-.2-.2-.1v-.1l.1-.2.2-.3zm-.1 15.6v.7l.1.3.1.2.2.5.2.5.2.4.2.4.3.5.3-.1.1-.2v-.2l.1-.3.1-.3.2-.3.2-.3.4-.5.2-.2.1-.1V56c0-.1.1-.3.1-.3.1-.1.2-.1.3-.1.1 0 .3.1.3.1.1.1.1.2.1.3 0 .1-.1.3-.1.3-.1.1-.2.1-.3.1h-.1v.1l-.1.1-.2.2-.4.5.1.5-.1.2-.1.2-.1.2-.1.1v.2l-.1.3V59.7l.2.3.2.3.2.2h.1l.2.2.2.2.2.2.3.2.3.2.3.2.3.2.2.1h.1l.3.3.3.3.7.6.7.6.3.3.3.3.3.3.3.3.3.3.3.4.3.4.3.4.2.4.2.4.2.3.2.3.1.3.1.3.1.3.1.3.1.3.1.3.1.4.1.7v2.3l-.1.6-.1.3-.1.3-.1.3-.1.3-.1.3-.1.3-.1.3-.2.3-.2.3-.2.2-.2.2-.2.2-.2.2-.2.2-.2.2-.2.4-.4.3-.4.2-.5.2-.4.2-.5.2-.5.2-.2.1-.1-.1-.1-.1h-.1l-.1.1-.1.1-.1.1h-.5l-.1-.1h-.7l.7-.2 1-.3.5-.2.5-.2.4-.1.2-.1-.1-.2-2.9-5.1-.1-.1c-.1 0-.2-.1-.2-.2-.1-.1-.1-.2-.1-.3 0-.1.1-.3.1-.3.1-.1.2-.1.3-.1.1 0 .2.1.3.1.1.1.1.2.1.3v.4l2.9 5.1.1.1.1-.1.2-.1.4-.2.4-.3.2-.2.1-.1.3-.3.2-.2.2-.2.2-.2.1-.2.1-.2.1-.2.1-.2.1-.3.1-.3.1-.5.1-.5.1-.4V70.6l-.2-.6-.1-.3-.1-.3-.1-.3-.1-.3-.1-.3-.1-.3-.1-.2-.1-.2-.2-.4-.2-.4-.3-.3-.3-.3-.3-.3-.3-.3-.3-.3-.7-.6-.7-.6-.7-.6-.6-.6-.1-.1-.1-.1-.3-.2-.9-.7-.3-.2-.3-.2-.2-.2-.3-.3-.2-.2-.3-.3-.2-.4-.2-.3-.2-.3-.2-.3-.4-.7-.1-.1-.2-.3-.2-.5-.2-.5-.2-.5v-.2l-.1-.3v-.8H91.3v-.2zm-.2 26.4l-.3.1-.8.4-.8.4-.4.2-.4.2-.4.2-.4.2.1.3h.4l.3.1.3.1.3.1.6.2.3.1H90.5c.1.1.3.2.3.3.1.1.1.2 0 .3 0 .1-.1.2-.2.2h-.4c-.1.1-.2 0-.2 0-.1-.1-.1-.1-.1-.2v-.1h-.1l-.2-.1-.6-.1-.2-.1-.3-.1-.2-.1h-.4v.1h-.5l-.2.1-.4.1-.2.1h-.2l-.2.2-.4.4-.4.5-.4.5-.2.2-.2.3-.3.5-.3.3-.1.3-.1.3-.1.3-.1.3-.1.3-.1.3v.3l-.1.7V91.6c0 .8 0 1.6-.2 2.4-.3 1-.6 1.1-1.3 1.4 0 0-.1 0-.2.1l.1-.3.5-.7.3-1.2.2-2.3v-.7l.1-.7v-.3l.1-.3.1-.3.1-.3.1-.3.1-.2.1-.2.1-.3.1-.3.2-.3.2-.3.2-.3.2-.3.4-.5.4-.5.5-.5.5-.4.4-.3.1-.1.3-.3.4-.3.4-.2.4-.2.4-.2.4-.2.8-.4.8-.4.4-.2v.1l.1.2v.1zm0 0"/><path class="st7" d="M77.6 41.9l.1.1.2.1.1.1.1.1.1.1.1.1.1.1.1.1.1.1H79.4l.1-.1.1-.1.1-.1.1-.1V41.3l-.4-.3-.1-.2-.1-.2-.1-.1-.2-.3V40h-.2v-.1l-.1-.1h-.2v.2h-.5v.2h-1v.2H76.6v.2h-.2l-.4.7h-.2l-.1.1-.1.1v.2h-.2l-.1.1h-.2v.2l-.1.1H74.7v.5l-.1.1-.1.1-.1.1-.1.1-.1.1V43.4l-.1.1H73.8V45H74.1V45.3H74.9l.1.1.1.1.1.1.1.1H75.6l.1-.1h.7l.1.1.1-.1h.4l.1.1.1.1.1.1V46.2H78.1l.1-.1v-.2l.1-.2.1-.1h.4l.1.1.1.1.1.1h.6l.1-.2.1-.2.1-.2V45l.1-.2.1-.2v-1l-.2-.2v-.2l-.1-.1-.1-.1h-.6l-.1.1v1.3V42.9h-.4l-.1.1h-.4l-.1.1V44.6v-1.2h-.2l-.1.1-.1.1-.1.1H77.3v.1l-.5.2-.1.1v.4l-.1.1V43.7H75.7l.1-.1.1-.1.1-.1h.7l.1-.1h.1l.1-.1v-.6h-.1l-.1-.1-.3.5-.2-.1-.1-.1-.1-.1-.1-.1h.4l.2.1.1.1.1.1.1.1H77.7l.1-.1.1-.1.1-.1H78.3v-.4l-.1-.1-.1-.1-.1.3-.1-.1-.1-.1-.1-.1-.1-.1v-.1zm0 0M79.4 35.5v.6l-.1.1-.1.1v.7l.1.1.1.1.1.1h.7l.2-.1.2-.1.2-.1.2-.1.1-.1.1-.1.1-.1.1-.1.2-.3v-.1l.1-.1.1-.1v-.4h-.2V35.2H81.3v-.4h-.6l-.1-.1-.1-.1h-.4l-.1-.1-.1-.1-.1-.1h-.2L79 34h-.1v.1l-.1.1h-.2l-.1-.1-.2-.1h-.1l-.1-.1h-.4v-.2l-.2.1-.1.1H77l-.1-.1-.1-.1H76l-.1-.1h-.2l-.2.1h-.4l.1.1.1.1v.2l-.3.2.1.1.1.1v.7l-.1.2v.1l.1.1.1.1.1.1.1.1v.6h.1l.1.1v.4l-.1.1-.1.1-.1.1h-.1v.2l.1.2.1.1v.1l.1.1.1.1h.7V39.1h1.2l.2-.1.2-.1h.2l.2-.1.2-.1.4-.7.1-.1.1-.1v-.6l-.1-.1h-.6l-.2.1-.2.1h-.4l.1-.1.1-.1.2-.1.2-.1.1-.1.1-.1h.1v-.4H78.3l-.1-.1-.1-.1h-.6l-.2.1-.2.1-.2.1H76.6h.4l.2-.1.2-.1.2-.1.1-.1.1-.1h.1v-.2l-.1-.1h-.1l-.1.4-.1-.1-.1-.1H76.5h.7V35.5h-.1l-.1-.1-.3-.4h-.1l-.1-.1-.1-.1-.1-.1.1.1.1.1.1.1.1.1.1.1.1.1.1.1v.1l.1.1H77.9V34.8 35.1 35v1.3h.4l.1.1.1.1.1.1h.2v-.7l.1-.1.5-.3zm0 0"/><path class="st1" d="M90.5 83.9h-.4l-.3-.1-.6-.2-.2-.1-.3-.1-.3-.1.3-.2.3-.1.4-.2.8-.4.4-.2.1.2.2.2.2.2.1.1.1.1v.2l-.1.1-.2.2-.1.1-.1.1-.1.1-.2.1zm0 0M101.1 69.5l.1.3.1.3.1.3v2.3l-.1.6-.1.5-.1.5-.1.3-.1.3-.1.2-.1.2-.1.2-.1.2-.2.2-.2.2-.1.2-.1.1-.1.1-.2.2-.2.1-.4.3-.4.2-2.6-4.6v-.1-.2c0-.1 0-.3-.1-.4l1.2-2.7.1-.1.1-.1h.4l.1.1.1.1.1.1.1.1.1.1.1.1.1.1.2.1h1.4l.4-.1.4-.1.3-.1v-.1zm0 0M94.8 71.7c-.1 0-.1.1-.2.1-.1.1-.2.3-.2.6v.3h-.1l-.1.1-.1.1-.1.2-.1.1h.1-.2V72.2l-.2-.2-.1-.2-.1-.2-.1-.2-.3-.2-.2-.2-.1-.1h-.1l.3-.1.2-.1.2-.1.2-.1.2-.2.2-.2.1-.1.1-.1h.2l.1.1.4 1.7zm0 0M96.2 68.9h.4v.1l-1.2 2.7h-.2v.1l-.5-1.9v-.2H95.5l.1-.1.1-.1.5-.6zm0 0M94.8 53.4l-.2.1-.1.1-.1.1H93.5v.2l1.1 1.1h.3c.1 0 .3 0 .4.1.5-.4.9-.9 1.3-1.5v-.1h-.8l-.2-.1-.2-.1-.4.3-.2-.2zm0 0M94.3 55.7l-1.4-1.4h-.2l-.1.1-.1.1-.2.2-.2.2-.2.1-.2.1v.8l.1.3.1.2.2.5.2.4.2.4.2.4.1.1V57.9l.1-.1.2-.3.2-.3.2-.3.4-.5.2-.2.1-.1V56c-.1 0-.1-.2.1-.3zm0 0M89.9 41.1V41h.7l.1-.1.1-.1.1-.1.1-.1.2.1.3.2.3.3.2.3.2.3.2.3.1.2.1.1.1.1V43.4l-.1-.1-.4-.3-.2-.1-.2-.1-.4-.1-.2-.1c-.1-.1-.1-.2-.2-.3-.1-.1-.3-.2-.4-.2h-.1l-.6-1zm0 0M90.1 42.5l-2.4.6h-.1v-1l-.1-.1v-.1h1.2l.2-.1.2-.1.2-.1.1-.1.1-.1v-.1l.1-.1.5 1.3zm0 0"/><path class="st7" d="M52.8 47.8l1.4-4.7.1-.3.1-.3.1-.3.1-.3v-.3l-.2-.4-.2-.4-.2-.3-.1-.5-.1-.5-.1-.5-.1-.5v-2l.1-.5.1-.5.1-.4.1-.1.1-.4.2-.4.2-.4v-.2l-.1-.3-.1-.3-.1-.3-.1-.3-1.4-4.7 4.7 1.4.3.1.3.1.3.1.3.1h.2l.4-.2.4-.1.4-.2.5-.1.4-.1.5-.1.5-.1h2l.5.1.5.1.5.1.4.1.4.2.4.2.4.2h.3l.3-.1.3-.1.3-.1.3-.1 4.7-1.4-1.4 4.6-.1.3-.1.3-.1.3-.1.3v.3l.2.3.2.4.1.4.1.4.1.4.1.5.1.5v2l-.3.3-.1.5v.4l-.1.4-.1.4-.2.4-.2.3v.3l.1.3.1.3.1.3.1.3 1.4 4.6-4.6-1.4-.5.2-.3-.1-.3-.1-.3-.1-.3-.1-.3.1-.4.2-.4.1-.4.1-.5.1-.5.1h-2.9l-.4.1-.4-.1-.4-.1-.4-.1-.4-.2-.4-.2h-.3l-.3.1-.3.1-.3.1-.3.1-4.7 1.3zm12.1-2.5l.3-.1.3-.1.3-.1.3-.2.3-.2.3-.2 1.2-.2.3-.2.2-1.2.2-.2.2-.2.2-.2.2-.3.4-.6.2-.3.2-.3.1-.3.1-.3.1-.3.1-.3.1-.3.1-.3v-2.1l-.1-.3V36l-.1-.3-.1-.3-.1-.4-.2-.3-.3-1.5-.2-.2-1.1-.3-.2-.3-.2-.2-.2-.2-.3-.2-.2-.2-.3-.3-.3-.2-.3-.2-.3-.2-.3-.1-.3-.1-.3-.1-.3-.1-.7-.2-.3-.1H62l-.3.1-.7.2-.3.1-.3.1-.3.1-.3.1-.3.2-.5.2-.3.2-.3.2-.2.2-.2.2-.2.2-.2.2-.2.3-1 .3-.2.3-.3 1.5-.1.3-.1.3-.1.3-.2.4-.1.3-.1.3v2.1l.1.3.1.3.1.3.1.3.1.3.1.3.2.3.2.3.2.3.2.3.2.3.2 1.2.2.2.2.2 1 .2.3.2.3.2.3.2.3.2.3.2.3.1.3.1.3.1.3.1.3.1.3.1h1.9l.3-.1.3-.1.7.1zm0 0"/><path class="st9" d="M53.4 47.3l1.2-4 .1-.3.2-.6.1-.3.1-.4-.2-.5-.2-.4-.1-.4-.3-.4-.1-.4-.1-.4-.1-.6v-2l.1-.4.1-.4.1-.4.1-.4.1-.4.2-.4.2-.5-.1-.3-.1-.3-.1-.3-.1-.3-.1-.3-1.2-4 4 1.2.3.1.3.1.3.1.3.1h.4l.4-.2.4-.1.4-.2.4-.1.4-.1.4-.1.4-.1h2l.4.1.4.1.4.1.4.1.4.2.4.2.5.2h.4l.3-.1.3-.1.3-.1.3-.1 4-1.2-1.2 4-.1.3-.1.3.3.3-.1.3-.1.4.2.4.2.4.1.4.1.4.1.4.1.4.1.4v2l-.1.4-.1.4v.5l-.1.4-.1.4-.2.4-.2.4.1.4.1.3.1.3.1.3.1.3 1.2 4-4-1.2h-.5l-.3-.1-.3-.1-.3-.1-.4-.1-.4.2-.4.3-.4.1-.4.1-.4.1-.4.1H61.7l-.4-.1-.4-.1-.4-.1-.4-.1-.4-.2-.7-.2-.4.1-.3.1H58l-.3.1-.3.1-4 1.2zm9.5-2.3H64.1l.3-.1.3-.1.3-.1.3-.1.3-.1.3-.1.3-.2.3-.2.3-.2.3-.2.3-.2.3-.2.3-.2.2-.3.2-.3.2-.3.2-.3.2-.3.2-.3.2-.3.1-.3.1-.3.1-.3.1-.3.1-.3.1-.4V36.3l-.1-.3-.1-.3-.1-.3-.1-.3-.1-.3-.2-.3-.2-.5-.2-.3-.2-.3-.2-.3-.2-.3-.3-.2-.3-.2-.3-.2-.3-.2-.3-.2-.3-.2-.3-.2-.2-.2-.3-.2-.3-.1-.4-.1-.3-.1-.3-.1h-2.8l-.3.1-.3.1-.3.1-.3.1-.3.1-.3.2-.3.2-.3.2-.3.2-.3.2-.3.2-.3.1-.3.2-.2.2-.2.3-.2.3-.2.3-.2.3-.3.6-.1.3-.1.3-.2.4-.1.3-.1.3-.1.4v2.3l.1.4.1.3.1.3.1.3.1.3.1.3.2.3.2.3.2.3.2.3.2.3.2.3.2.3.3.2.3.2.3.2.3.2.3.2.3.2.3.2.3.1.3.1.3.1.3.1.3.1.3.1h1.3v.1zm0 0"/><path class="st9" d="M62.9 43.1H62l-.2-.1h-.3l-.3-.1-.2-.1-.2-.1-.2-.1-.2-.1-.2-.1-.2-.1-.2-.2-.4-.3-.2-.2-.2-.2-.2-.2-.2-.2-.2-.2-.1-.2-.1-.2-.2-.3-.1-.2-.1-.3-.1-.2-.1-.3-.1-.3v-1.5l.1-.5v-.3l.1-.3.1-.3.1-.3.2-.5.1-.2.1-.2.1-.2.2-.2.2-.2.2-.2.4-.4.2-.2.2-.2.2-.2.2-.2.2-.1.2-.1.2-.1.2-.1.2-.1.3-.1.3-.1h.3l.5-.1h.5l.5.1h.3l.3.1.3.1.2.1.2.1.2.1.2.1.2.1.2.2.2.2.2.2.2.2.2.2.2.2.2.2.2.2.2.2.1.2.1.2.1.2.1.2.1.2.1.3.1.3.1.3v.3l.1.5V38.9l-.1.3-.1.1v.3l-.1.3-.1.2-.1.2-.1.2-.1.2-.3.3-.3.4-.2.2-.2.2-.4.3-.2.2-.2.1-.2.1-.2.1-.3.1-.2.1-.2.1-.4.1H64l-.3.1h-.8zm0-1.3h1l.2-.1.2-.1.2-.1.2-.1.2-.1.3-.2.3-.2.3-.3.3-.3.2-.3.2-.3.2-.4.1-.2.1-.2v-2.4l-.1-.2-.1-.2-.2-.3-.2-.3-.3-.4-.3-.3-.3-.3-.3-.2-.3-.2-.3-.1-.2-.1-.2-.1-.2-.1H61.9l-.2.1-.2.1-.2.1-.4.2-.3.2-.3.2-.3.2-.3.3-.2.3-.2.3-.1.2-.1.2-.1.2v.4l-.1.4V38.9l.1.2.1.2.2.4.2.3.2.3.3.3.3.3.3.2.3.2.2.1.2.1.2.1.2.1.2.1h1zm0 0"/><path class="st9" d="M62.9 35.1h.6l.3.1.2.1.2.1.2.1.2.2.2.2.2.2.2.2.1.2.1.2.1.2.1.3v1.2l-.1.3-.1.2-.2.1-.1.2-.2.2-.2.2-.2.2-.2.2-.2.1-.2.1-.2.1-.3.1h-1.2l-.3-.1-.2-.1-.2-.1-.2-.1-.2-.2-.1-.2-.2-.2-.2-.2-.1-.2-.1-.2-.1-.2-.1-.3v-1.2l.1-.3.1-.2.1-.2.1-.2.2-.2.2-.2.2-.2.2-.2.2-.1.2-.1.2-.1.3-.1h.3l.3.1zm0 0M64.1 75.2l.2-.1h.1l.1-.1.1-.1.1-.1.1-.1.1-.1.1-.1.1-.1.1-.1.1-.1.1-.1.1-.1.1-.1.1-.1.1-.1.1-.1.1-.1.1-.1.1-.1.1-.1.1-.1.1-.1.1-.1.1-.1.1-.1.1-.1.1-.1.1-.1.1-.1.1-.1v-.4l-.1-.1-.1-.1-.1-.1-.5.5h-1.3V71.7l.1-.1.1-.1.1-.1.1-.1.1-.1.2-.2.1-.1.1-.1.1-.1.1-.1.1-.1.1-.1h.1l.1-.1c.7-1.6-2.2-.3-3 .2H62.1l-.3.1-.3.1-.3.1-.5.2-.2.2-.1.2-.1.2v.2l.1.2.1.2.1.2.2.2.2.2.2.1.2.1.3.1h.6H60.5s-.1 0-.1.1c0 0-.1 0-.1.1 0 0-.1 0-.1.1 0 0-.1 0-.1.1l-.1.1-.1.1-.1.1s0 .1-.1.1V74.9c.1.4.3.6.6.4.1.3.6.7.8.1v-.1.1l.1.1c.1 0 .1 0 .2.1H62c.1 0 .1-.1.2-.1s.1-.1.2-.1c0-.1.1-.1.1-.2V75v-.1-.1-.1-.1-.1h.1v.1c0 .1.1.1.1.2.1 0 .2.1.2.1h.2l.2-.1H63.6l.5.4zm0 0"/><path d="M72 69zm0 0" fill="#1f1a17"/><path class="st9" d="M55.2 58.6c-1.5.3-2.9-.2-4 .1-.2.1-.3.2-.5.3-.3.2-.6.2-.9 0-.2-.1-.3-.2-.5-.3-1.2-.4-2.7.1-3.4-1-.1 1.3.6 2 .8 2.7-.4 1 .8.6.8 1.3-1.1-.6-.9 1.4.4.5.1-.1.1 0 .2 0 .1.1 0 .3-.1.4-.1.7.3 1.2 1.1.7-.8 0-.6-1.2.2-1.1.1 0 .3.1.4.3h.7c.2-.5 1-.4.9.3 0 .3-.3.4-.5.6.8.4 1.4-.5.7-1.2.3 0 .8.2.7.6.2 0 .4-.1.5-.3.1-.2 0-.3-.1-.4-.2-.1-.3 0-.5-.1 0 0-.1 0-.1-.1.7-.2 1-.5 1-1.1 0-.3.3-.6.5-.8.8-.5 1.2-1.3 1.7-1.4zm0 0"/><path class="st9" d="M49.2 65.9h.1l.1.1.1.1.2-.4.3.3.2-.5.1-.1.1-.1.1-.1.1-.1.1-.1v.1l.1-.1.1-.1.1.1.1.1.7.3v-.7H52.1l.7-.6-1-.2-.1.1H50.8v-.4l-.1-.3h-.8l-.1.3V63.9l-.1.1-.1.1-.1.1h-1.2V63.9l-.1-.4-.4.1h-.1l-.1.1-.3-.7-.1.1-.1.1v1.7l.3-.1v2.1l.1.1.1.1.1.1.1.1.1.1.1.1.1.1.1.1 1.3.6-.8-1.1V66.1l.1-.1.1-.1.1-.1.1-.1.1-.1.1-.1.1-.1c-.2.3-.3.6-.2.5zm0 0"/><path class="st11" d="M47.9 63.1c-.7.1-.4.6-.5 1.5 0 0 .6-.3.7-.1-.9.5-1 2.9.1 3.4-.7-.8.8-3 1.5-3.3-.4.5.2.8.2.8.5-.4.9-1.1 1-1.5 0 .2 0 .5.3.7 0-.4.2-.6.7-.9-1 0-1.6-.3-1.8-.9h-.3c-.1.6-.8 1-1.4.9-.2 0-.4-.2-.5-.6zm0 0"/><path class="st9" d="M43.5 63.4l-.2-.1-.2-.1H41.5l-.2.1-.2.1-.2.1-.1.1-.1.1-.1.1.4.1-.1.2v.7l.1.2.1.1.1.1c.5.4 1.1.1-.1 1.8.6.1 1.1 0 1.6-.2h.1l.1-.1.1-.1.1-.1.1-.1.1-.1.1-.1V66.5l.1.1.1.1.1.1.1.1.1.1.1.1.1.1.1.1.1.1.1.1.1.1.1.1.1.1.1.1.1.1.1.1.1.1.1.1.1.1.1.1.1.1.1.1.1.1.1.1.1.1h3.3c-.5-.7-1.1-1.1-1.7-1.6v-1.2l-.3-.3-.2-.2-.2-.2-.2-.2-.2-.2-.2-.2-.2-.2-.1.3-.2-.1-.2-.1-.2-.1-.2-.1-.1-.3-.2-.1-.1-.2-.2-.1-.2-.1-.2-.1-.1-.1-.2-.1-.2-.1h-.1zm0 0"/><path class="st2" d="M53.9 65l-.1.1h.2c-.5 1.6-.9 3.2-1.4 4.9v.1h-.1c-.7 0-1.3-.1-1.7-.1-.5-.1-.9-.2-1.2-.3-.6-.3-1.1-.9-1.3-1.6 0-.1-.1-.3-.1-.4v-.4c0-.5.3-.9.6-1.2l.2-.2.2-.2c.1-.1.2-.2.4-.2.3-.2.5-.3.6-.5.1-.2.2-.6.2-.8.1 0 .3.3.4.7.4-.2.7-.3.9-.6.2-.3.4-.6.4-.9v-.1c.2-.2.4-.2.6 0 .2.2.4.5.6.9.2.2.4.6.6.8zm0 0"/><path class="st11" d="M65.3 69.4c-.1.5-2.1 1.3-3.4 1.6-1.8.3-1.4 1.4-.1 1.9.6.2 1.2 0 1.7.2.9.3-1.3.6-1.4.7-.3.1-1 .3-1.5.6-.3.1-.4.3-.5.6v.7c.2-.5.3-.9.7-.8-.4.3-.3.8 0 1.4 0-.6.2-1 .5-1.3.2-.2.2.6.1.8 0 .3.3.3.5.3.9-.1-.1-1.2.8-1.2h.2c.4.2 0 .5.7.3.7-.3 2-1.1 2.6-1.7.5-.4.6-1-.2-1.1-1-.1-1.5-.5-1.1-1.2.3-.4 1.5-1.3.4-1.8zm0 0"/><path class="st1" d="M53.6 65.2c-.2-.2-.4-.6-.6-1-.2-.3-.4-.6-.5-.8-.1 0-.1-.1-.1 0-.1.4-.2.7-.5 1.1-.3.3-.7.6-1.2.8l-.1.1-.1-.1-.1-.1c-.2.3-.5.5-.8.7-.1.1-.2.1-.3.2-.1 0-.1.1-.2.1l-.2.2c-.3.3-.5.7-.5 1v.4c0 .1 0 .2.1.3.2.6.6 1.1 1.2 1.4.3.1.6.2 1.1.3.4.1.9.1 1.5.1l1.3-4.7zm0 0"/><path class="st11" d="M48.1 68.9c-.9-.5-1.1-1.4-1-2.3-1.9-1.8-3.7-3.3-5-3-.4.1-.7.3-.8.6-.1.4.1 1 .6 1 .1 0 .4-.2.5-.3-.4-.1-.6-.5-.3-.6.5-.3.9.6.3 1 .1.6-.1 1.1-.5 1.5 1.3-.1 1.6-.8 1.4-1.6.4 0 .4.2.4.5 0 .8.2 1.2.9 1.8 1 .9 2.1 1.4 3.5 1.4zm0 0"/><path class="st9" d="M45.4 72.4c2.7.7 5.6.2 7.4-1.2 1.9-1.5.3-1.3-1.4-1.3h-.1-.1-.1-.1c-.7-.1-1.4-.2-2.1-.2H48h-.1-.1c-.5 0-1 .1-1.5.2s-1.1.5-1.5.3c-.1-.1-.3-.1-.4-.2-.3-.1-.6-.2-.9-.2h-.8s-.1 0-.1.1c-.3.1-.4.2-.6.4 0 0 0 .1-.1.1-.1.2-.2.3-.2.5V72c.6-.3.4.2.8.8.5-.4.4-.3.6-.2l.1.1c.8.6 1.4.5 1.7.3-.2-.4 0-.7.5-.6zm0 0"/><path class="st11" d="M52.5 64.9c.2 0 .3.1.3.3 0 .2-.1.3-.3.3-.2 0-.3-.1-.3-.3.1-.2.2-.3.3-.3zm0 0"/><path class="st9" d="M53.7 70.4l-.2-.1-.1-.1v-.1h-.1l-.1-.1H51l-.2-.1-.2-.1-.2-.1-.1-.1-.3-.4-.1-.1-.1-.1-.1-.1-.1-.1-.1-.1-.1-.1-.1-.2-.1-.2V67l.1-.2.1-.2.1-.2.1-.1.1-.1.1-.1.1-.1.1-.1.1-.1.2-.1H51.8l.1.1.1.1.1.1.1.1.1.1.1.1.7.6.1-.1.1-.1.1-.1.1-.1.1-.1.1-.1.1-.1.1-.1.1-.1.1-.1.1-.1.1-.1.1-.1.1-.1.1-.1.1-.1.1-.1.1-.1.1-.1.1-.1.1-.1.1-.1.1-.1.1-.1.1-.1.1-.1.1-.1.1-.1.1-.1.1-.1.1-.1.1-.1.1-.1.1-.1.1-.1.1-.1.1-.1.1-.1.1-.1.1-.1.1-.1.1-.1.1-.1.1-.1.1-.1.1-.1.1-.1.1-.1.1-.1.1-.1-1.1.1.1-.1.1-.1V61l.1-.3.1-.3.1-.2.1-.2.1-.2.1-.1.2-.1.2-.1.2-.1H59l.2.1.1.1.1.1.1.1.1.1.1.1.1.2.1.2v1l-.1.2-.1.2h.5l.1.1.1.1.1.1.1.1V63.3l-.1.1-.1.1-.1.1-.1.1v.3l-.1.1-.1.1-.1.1-.1.1-.2.1-.2.1-.1.1.1.1.1.1.1.1.1.1.1.1v.2l-.1.2-.1.1-.1.1-.1.1-.1.1h-.2l-.1.1-.1.1h-2.6.1l.2.1.2.1.2.1.2.1.2.1.1.2.1.2.1.2.1.2v.8l-.1.2-.1.5-.1.2-.1.1-.1.1-.2.1-.2.1-.2.1H54.7l-.6-.1.4.3-.8.3h-.2l.2.2zm-.9-3.3l-1-.1h-.7l-.1.2-.1.1-.1.1v1.2l.1.1.1.1.1.1h1.3l.1-.1.1-.1.1-.1V67.7l.1-.1v-.5zm1.3 2.5l.9-.5.1-.1.1-.1.1-.1.1-.1.1-.1V67.7l-.1-.1-.1-.1-.1-.1-.1-.1H54.1l-.1.1-.1.1.1.3-.1.1-.1.1-.1.1V69.2l.1.1.1.1h.2v.2zm0 0"/><path class="st11" d="M52 66.7c-2.3-.4-1.9 2.5-.3 2.3.7-.1.9-.6 1.2-1.2 0-.1.1-.2.1-.3.6-1.3 1.1-2.1 2.2-3.1 1.3-1.2 2.3-2.1 2.5-3.4.5-2.9 3.4-.2 1 1.4-1.9 1.3-4.1 2.4-5 4.6 1-2.4 4-2.6 5.9-4.7 1-.9 1.3 1.1 0 1.7-2.1.9-4.4 1.2-5.4 3 .9-.7 1.6-1.2 2.5-1.5.5-.2 1-.3 1.5-.6.4-.2 1-.2 1.1.3-.2 1.2-2.8.3-4 1.4.4 0 .8.1 1.1.2 1 .3 1.5 1.4.8 2.2-.5.6-1.4.7-2.2.5 2.1-1.1.1-3.4-1.3-1.9-.5.5-.6 1.5 0 2 .1.1.3.3.5.4-.5.2-.3.1-.8-.1-.2-.1-.4-.1-.7-.1-.4 0-1.3-.4-1.7-.5-.8-.3-1.4-.8-1.4-1.7 0-.8.6-1.5 1.4-1.5.4 0 .7.3 1 .6zm0 0"/><path class="st9" d="M78.1 69.2H76.2l-.2.1h-1.3l-.7.7H70.7l-.2-.1-.2-.1-.2-.1-.1-.2H67.9v.2l-.1.1-.1.1-.1.1-.1.1-.1.1H65.3l.1.1v.2l-.1.1-.1.1-.2-.3-.1.1h-1.2l-.1-.1-.1-.1h-.1V70.6l-.1.2-.2.2-.1-.2h-.2l-.2-.1-.1-.1-.1-.1-.1-.1-.1-.1-.2-.1c.1.2-.2 1-.7.9l-.2-.1-.1-.1v.4l-.1.2-.1.1-.2.1h-.4l-.2-.1-.1-.1-.2-.3-.1-.1v-.2.2l-.1.2-.5.5-.3-.6-.1-.1V71l-.1-.1-.1-.1-.1-.1-.1-.1V71.5l-.1.2-.5-.1-.2-.1-.2-.1-.1-.1-.1-.2-.1-.2v.4l-.1.4-.8-.2-.2-.1-.2-.1-.1-.2V71l-.1.1-.2.1-.2.1H53.7l-.1-.1-.2-.2h-.1l-1-1c.2-.4.6-.3 1.4.3h.6-.1l-.1-.1-.1-.1v-.2l-.1-.1-.1-.1-.1-.1-.1-.1-.1-.1V69.1l-.1-.2v-1.2l.1-.2.1-.2.1-.1.1-.1.1-.1.2-.1.2-.1H54.9l.2.1.2.1.2.1.1.2.1.2.1.2v.4l-.1.2-.1.2-.1.2-.2.1-.2.1c-.4.1-.4.2 0 .3H56.9l.1-.1.1-.1.1-.1c.3-.2.4-.4.4-.8v-.4l.1-.1v-.4c-.4-.6-.9-.8-1.4-1.4l1.3-.1H62.6l.1-.1H63l.1-.1H63.9l.1-.1H67.6V65l.1-.1.1-.1.1-.1.1-.1.1-.1.1-.1.1-.1.1-.1.1-.1.1-.1.1-.1.1-.1.1-.1.1-.1H81.5v-.1-.1-.1-.1-.1-.1-.1-.1V61.9H75.4L77 61H71.9l-.1-.1-.1-.1-.1-.1-.1-.1-.1-.1-.1-.1-.1-.1.9-.3V59.7l.2-.2H73.2v-.1l-.1-.1v-.5l.1-.2.1-.1.2-.1h.4l.1.1.1.1.1.1.1.1.1.1.1.1.1.1.1.1.1.1.1.1v-.5l.1-.1.1-.1h.4l.1.1.1.1.1.1.1.1.1.1.1.1.1.1.1.1.1.1.1.1-.1-.1-.4-.5v-.2l.2-.2.2-.1h1.2l.1.1.1.1V58.5l.1-.2.2-.2h.5l.1.1.1.1h.1l.1.1.1.1.1.1.1.1.1.1.1.1-.5.1v-.2l.1-.3.2-.2.3-.1h.4l.2.1.1.1.1.1v-.1l.1-.1H81.9l.1.1.1.1.1.1.1-.2.1-.2.2-.1h.2l.2.1.1.1.1.1.1.1.1-.1.2-.1H83.9l.1.1.1.1.1.1v.5h.5l.2.1.1.2v.5l.2.1.2.2v.6l-.4.4-.1.1-.1.1-.1.1-.1.1-.1.1-.1.1h-.1.1c.5.2.7.4.2.7 0 0-.1 0-.1.1 0 0-.1 0-.1.1 0 0-.1 0-.1.1 0 0-.1 0-.1.1 0 0-.1 0-.1.1 0 0-.1 0-.1.1h-.1-.1-.1-.1-.1-.1-.1-.1-.1-.1-.1-.1-.1-.1-.1-.1-.1-.1-.1-.1-.6l-.4.9H77l-.8-.1h-4.5l-.3.8V65l-.1.1V65.4h.7l.1-.1.1-.1.1-.1.3-.2.3.2.1.2v.2l-.1.1-.1.1v.1H73.7l.5-1.3.2 1.5v.6h.6l.1-.1.1-.1.4-.3.2.5v.7H76.8l.1-.1.1-.1.1-.1.1-.1.1-.1.1-.1.1-.1.1-.1H79.4l.2.1.2.1.2.1.2.1.2.1.2.1.2.1.2.1.2.1.2.1.2.1.2.1.2.1.2.1.2.1.2.1.2.1.2.1.2.1.2.1.2.1.2.1.2.1.1.1.1.1.1.2.1.2.1.2.1.2v1c-.3-.1-.3.2-.2.3 0 .2.1.4.1.6v.4c0 .1 0 .1-.1.2l-.1.1-.1.1-.1.1s-.1 0-.1.1h-.8-.1l.1.1.1.1c.4.3.4.6-.1.7h-.4s-.1 0-.1-.1l-.1-.1-.1-.1-.1-.1c-.2.5-.4.5-.7 0 0 0 0-.1-.1-.1V73v-.1-.1-.1-.1-.1-.1-.1-.1-.1-.1-.1-.1-.1s0-.1-.1-.1c0 0 0-.1-.1-.1l-.1-.1-.3-1.5-.1-.1-.1-.1-.1-.1-.1-.1-.1-.1-.1-.1-.1-.1H78.1zm-6-5.6H70.5l-.1.1v.5h.7l.1-.1.1-.1.1-.1.7-.3zm0 0"/><path class="st11" d="M54.2 68.9c.1.8.7 1.1 1.3 1.1.6 0 1.3-.2 1.8-.5 1.1-.8.6-2.7-.4-3h2.7c.7 0 1.3 0 1.9-.1.8-.1 1.5-.4 2.2-.6.2-.1.3-.2.5-.2.3-.2.6-.3.9-.4.6-.2 1.3-.4 2-.4.4 0 .8 0 1.1.2.1-.7.3-1.3.8-1.7.4-.4 1-.5 1.6-.5 1.5-.1 4.6 0 8.4.2 1 .1 2.3.2 3.2-.4.3-.2.6-.8.6-1.3 0-.6-.3-.9-.8-1.1-.9-.3-2-.2-2.9-.1-.4.1-.9.2-1.3.4-.8.3-1.3.4-2.1.5-1.1 0-1.9-.1-2.5-.3-.4-.1-.7-.4-.9-.7-.1-.2-.1-.2.1-.2l.6.3c.4.2.8.3 1.3.3-.7-.3-1.2-.8-1.2-1.3-.1-1 1.7 1.7 2.5 1.1-.4-.3-.8-.6-.9-1-.1-.2 0-.3.1-.3.2 0 .5.2.6.4.3.4.5.8 1.1.9.5-.4-.9-1.2-.1-1.2.3 0 .6.2.9.5.1.1.8.8.8.2 0-.2-.5-.7-.5-1 0-.3.4 0 .5 0 .2.1.3.3.4.5.2.3.2.3.6.3.4 0 .9.1.3-.3-.3-.2-.6-.6 0-.6.3 0 .6.2.8.7.5-.1.4-.3.3-.5-.1-.2 0-.2.2-.1.5.1.6.1.9.5.2.1.4.2.4 0 0-1 .8-.3.9.6 0-.1.1-.2.1-.3 0-.2.1-.6.4-.6.2 0 .2.6 0 1.4l.5-.5c.6-.3.5.3 0 1l.6-.3c.3-.1.2.2.1.4-.3.5-1.3 1.3-1.5 1.1.3.3.8.1 1.2.1-.1.1-.2.1-.4.2-.4.3-.9.5-1.4.7-1.2.5-2 .5-3.5.4-2.7-.2-5.4-.6-8.1-.4-.3 0-.5.1-.8.3-.3.2-.4.4-.3.7 0 .3.1.6.5.6.3 0 .6-.3 1.1-.6-.1.4-.3.7-.4 1.1.7.1 1.2-.3 1.7-.6.3.1-.7 1-.6.9.4.1 1.9-.3 1.9-.5.1.4-.1.7-.5.9.6.1 1.2 0 1.7-.4.2.4 0 .8-.5 1.1.5 0 1.1-.1 1.6-.1.4-.1.4-.2.7-.5.1-.2.3-.4.6-.4.5-.1.9.1 1.3.3 1.8.5 5.3 1.5 5.1 3.1-.4-.1-.6-.1-.8-.1-.6.2-.7 1.3.1 1.4.2 0 .4 0 .6-.1.2.7-.6 1-1.2.3-.6-.4-.2.7.4 1.2-.6.4-1-1.8-1.1.1-.3-.6-.1-1.2-.4-1.8-.4-.8-1.2-1.3-2.2-1.4-1.3-.1-2.6.2-3.8.5-1.7.4-2.7.6-5.1-.1-2.2-.6-4.1-.9-6.5-.5.9.1 3.9-.2 3.5.4-.3.4-.8.3-1.3.3-1.2-.1-2.5-.5-3.2-.5 0 .5 2.5.8 1.7 1.1-.9.4-1.6-.9-2.5-.9.4.4.7.6.8.8.1.3.1.5-.3.3-.5-.3-1.3-1.5-2.1-1.1 1.5.6 1.2 2 .4 1.1-.3-.4-.9-1.2-1.5-.7 1.4.7 1 1.7.5 1.4-.2-.1-.3-.3-.4-.5-.3-.5-.7-.8-1-.7 0 0 .7.8.3 1.3-.2-.5-1.7-1.8-1.7-1.3 0 .2.4.5.4.7.1.4-.1.7-.1.7-.6-.1-.6-.2-.7-.7 0-.2-.1-.4-.3-.2-.1.1-.2.4-.4.9-.7-.1-.5-.4-.7-.6-1.1.5-1.7.4-2.2 0 1.3.1 1.4-.3 1.2-.5-.2-.2-.5-.5-.7-.9-.3-.6 0-1.6.8-1.6.4 0 .8.3.8.7 0 .4-.4.7-.8.7 0 .4-.1.4-.3.3zm0 0"/><path class="st2" d="M68.7 65.4c2.8.4 6.8 2.1 8.9 2 .7 0 .3-.5 0-.8-.1-.1-.1-.2 0-.3.6-.4 4.1 1.2 4 1.4-.4-.1-3.8-1.7-3.3-.8.1.2.1.3.2.4.2 2-7.6-1.7-11-1.7-.6 0-.5-.1 0-.2h1.2zm0 0"/><path class="st9" d="M59.6 66.7c.4 0 .7.3.7.7 0 .4-.3.7-.7.7-.4 0-.7-.3-.7-.7 0-.4.3-.7.7-.7zm0 0M61.9 67.3c.3 0 .6.3.6.6s-.3.6-.6.6-.6-.3-.6-.6c.1-.3.3-.6.6-.6zm0 0M64.4 65.7c.3 0 .5.2.5.6 0 .3-.2.6-.5.6s-.5-.2-.5-.6c0-.4.2-.6.5-.6zm0 0"/><path class="st11" d="M59.6 67c.2 0 .3.1.3.3 0 .2-.1.3-.3.3-.2 0-.3-.1-.3-.3-.1-.1.1-.3.3-.3zm0 0M61.9 67.6c.1 0 .3.1.3.3 0 .1-.1.3-.3.3-.1 0-.3-.1-.3-.3.1-.2.2-.3.3-.3zm0 0M64.4 66c.1 0 .3.1.3.3 0 .1-.1.3-.3.3-.1 0-.3-.1-.3-.3.1-.2.2-.3.3-.3zm0 0"/><path class="st9" d="M60.9 66.8c.2 0 .3.1.3.3 0 .2-.1.3-.3.3-.2 0-.3-.1-.3-.3.1-.2.2-.3.3-.3zm0 0M58.7 67.9c.1 0 .2.1.2.2s-.1.2-.2.2-.2-.1-.2-.2.1-.2.2-.2zm0 0M63.3 66.6c.1 0 .2.1.2.2s-.1.2-.2.2-.2-.1-.2-.2.1-.2.2-.2zm0 0M64.3 67.4c.1 0 .3.1.3.2s-.1.2-.3.2c-.1 0-.3-.1-.3-.2.1-.1.2-.2.3-.2zm0 0M65.8 66.8c.2 0 .3.1.3.3 0 .1-.1.3-.3.3-.2 0-.3-.1-.3-.3 0-.2.1-.3.3-.3zm0 0M68.7 65.9c.3 0 .5.2.5.6 0 .3-.2.6-.5.6s-.5-.2-.5-.6c0-.3.2-.6.5-.6zm0 0"/><path class="st11" d="M68.7 66.2c.1 0 .3.1.3.3 0 .1-.1.3-.3.3-.1 0-.3-.1-.3-.3.1-.2.2-.3.3-.3zm0 0"/><path class="st9" d="M67.1 66.1c.2 0 .3.1.3.3 0 .1-.1.3-.3.3s-.3-.1-.3-.3c0-.2.2-.3.3-.3zm0 0"/><path class="st2" d="M64.9 68.3c2.3-1 4.2-.5 6 0 .6.2 1.2.4 1.9.5.1 0 .1 0 .3.1.6.1 1.6.3 1.9 0 .1-.1.1-.1.1-.2v-.2c-.1-.5-.8-.6-1.1-.5.3-.3.5-.4.7-.4h.1s.1 0 .1.1l.3.3c.1.1.1.3.1.4 0 .1 0 .3-.1.4 0 .1-.1.3-.2.4-.4.4-1.5.2-2.1.1-.1 0-.2 0-.2-.1-.7-.1-1.3-.3-2-.5-1.6-.6-3.2-1.2-5.8-.4zm0 0M64 71.4c-.6 1 .4.7 1 .8.3.1.6.2.5.6-.2.8-1.7 1.2-2.3 1.5.6-.3 1.9-.9 2.1-1.6.1-.4-.9-.3-1.1-.3-1 0-.8-.5-.2-1zm0 0"/><path class="st9" d="M46.8 60l-.1.1-.1.1-.1.1-.1.1-.1.2v.4l.1.2.1.1.1.1.1.1-.1.1-.1.2v.4l.1.2.1.2.2.1.2.1h.6V63.5l.1.1.1.1.1.1.1.1.1.1h.8l.2-.1.7-.8c-1.6-.5-.3 0 .2-.2h.1c-.7.1.5-.5.2.5l.5.3h.4l.2.1.2-.1.2-.1.1-.1.1-.1.1-.2h.5l.1-.1.1-.1.1-.1.1-.1.1-.1.1-.1v-.4l-.1-.1.1-.1.1-.1.1-.1.1-.1v-1.2l.4-.5.1-.1.1-.1.1-.1.1-.1v-.2l.6-.7-1 .2H47.2l-.1-.1-.6-.3.1.7.1.1v.2l.1.1.1.1.1.1.1.1.1.1V60.3l-.4-.3zm0 0"/><path class="st11" d="M54.4 59c-1 .2-2-.3-3.1.1-.2.1-.3.2-.5.3-.3.2-.6.2-.9 0-.2-.1-.3-.2-.5-.3-.4-.1-1.6-.4-2.2-.5-.4 0-.7-.1-.9-.3-.2-.1.8 1.5.7 1.9-.9.9.4.9.7 1.4-1.1-.6-.9 1.4.4.5.1-.1.1 0 .2 0 .1.1 0 .3-.1.4-.1.7.3 1.2 1.1.7-.8 0-.6-1.2.2-1.1.1 0 .3.1.4.3h.7c.2-.5 1-.4.9.3 0 .3-.1.4-.5.6.8.4 1.4-.5.7-1.2.3 0 .8.2.7.6.2 0 .4-.1.5-.3.1-.2 0-.3-.1-.4-.2-.1-.3 0-.5-.1 0 0-.1 0-.1-.1.7-.2 1-.5 1-1.1 0-.3.2-.8.4-.9.6-.5.6-.5.8-.8zm0 0"/><path class="st9" d="M48.6 60c.3 0 .6.3.6.6 0 .4-.3.6-.6.6s-.6-.3-.6-.6.2-.6.6-.6zm0 0"/><path class="st11" d="M50.5 62.6h.5s.1 0 .1.1v.2s0 .1-.1.1h-.5s-.1 0-.1-.1l.1-.3c-.1 0 0 0 0 0zm0 0"/><path class="st9" d="M51.9 60.3c.3 0 .6.3.6.6s-.3.6-.6.6-.6-.3-.6-.6.3-.6.6-.6zm0 0"/><path class="st11" d="M49.1 62.6h.5s.1 0 .1.1v.2s0 .1-.1.1h-.5s-.1 0-.1-.1l.1-.3zm0 0M52.3 69.7c-.3 0-1 .3-1.5.2-.6-.1-1.4.1-2 .1-.9 0-1.9.1-2.7.2.2.4 1.8.3 3.2.4.1.1.1.2-.1.3-3.9.6-4.6-1.1-6.2-.7-.6.2-.8.6-.8 1.1.3-.3.6-.4.8-.4-.4.3-.4.7-.2 1.1.3-.7.6-.9 1-.8-.5 1.1-.2 1.5.9 1.7-.2-.4-.4-.6-.4-.9 0-.1 0-.3.1-.4.1-.1.2-.1.3-.1.2 0 .4.2.6.3 2.4 1 5.8.7 8.2-1.4.7-.7-.7-.7-1.2-.7zm0 0"/><path class="st9" d="M47.4 88.9l1.2.6.9.5.9.4.9.4.9.4.9.3.9.3.9.3.9.2.9.2.9.2.9.1.9.1.9.1H63l.9-.1.9-.1.9-.1.9-.2.9-.2.9-.2.9-.3.9-.3.9-.3.9-.4.9-.4.9-.4.9-.5.9-.5 1.2-.7 3.4 2.4-1.2 5.2-1.3.6-1 .5-1 .4-1 .4-1 .4-1 .3-1 .3-1 .3-1.1.3-1.1.2-1.1.2-1.1.2-1.1.1-1.1.1-1.1.1H59.7l-1.1-.1-1.1-.1-1.1-.1-1.1-.2-1.1-.2-1.1-.2-1.1-.3-1.1-.3h.1l-1.1-.4-1.1-.4-1.1-.4-1.1-.5-1.3-.6-1.1-5 3.2-2.6zm0 0"/><path class="st7" d="M47.5 89.6c10.2 5.4 20.3 5.4 30.1-.5l2.9 2-1.1 4.7c-11 5.4-22 5.8-33.7.4l-1-4.5 2.8-2.1zm0 0"/><path class="st9" d="M54 94.8c1.3.4 2.6.3 3.8.3.9 0 1.7.1 2.6.4.7.2 1.2.5 1.6.9.2.1.3.1.4 0v-.2c0-.7-.9-1-1.5-1.2.7-.3 1.2-.6 1.7-1 .5.4 1 .7 1.7 1-.6.2-1.5.5-1.5 1.2v.2c.1.1.2.1.4 0 .4-.4.9-.7 1.6-.9.9-.3 1.7-.4 2.6-.4 1.2 0 2.5.2 3.8-.3-.9 2-4.7.3-7.7 1.5 1.5-.5 3.3-.7 4.6.1.9.6.6 1.4 0 1.9-.6.4-1.5.4-2-.1-.3-.3-.3-.6.3-.5.2 0 .3-.3.3-.5 0-.3-.3-.7-.7-.7-.4-.1-.9-.1-1.4 0-.6.3-1.2.4-1.4.7-.2.3 0 .5.2.7.5.5 1.2.8 1.9.9 1 .2 2 .1 2.9-.2.5-.2 1-.4 1.5-.7 1.6-.9 3-2.1 4.5-3.2-.5.1-1.3.2-1.6-.3-.2-.4.2-1 1.3-.7-.1-.6.3-.9.6-1 .7-.1.8.9.6 1.4.4-.3.7-.4 1.2-.4.7-.1 1.5 0 2.2.1 1.4.5.7 1.8-.8 2.3-.6.2-1.2.2-1.8.3-.4 0-.8.1-1.1.3-.1.1-.7.3-.5-.1.5-.9 2.5-1 3.1-1 .1 0 .2-.1.3-.1.1-.3-.5-.4-1-.4h-.2c-.3 0-.5-.2-.5-.3 0-.2.2-.3.5-.3s.5.2.5.3c0 .1 0 .1-.1.2.1.2 1.1.2 1.2-.1 0-.5-.2-.7-.7-.8H76c-.5 0-.7.2-1.2.5-1.7 1.1-3.3 2.5-5.1 3.7-.6.4-1.1.7-1.8.8-.7.1-1.6.2-2.4.2-.7 0-1.2-.1-1.8-.4-.4-.2-.7-.5-1-.8-.2-.2-.3-.3-.3-.4 0 .2-.1.2-.3.4-.3.3-.6.6-1 .8-.6.4-1.1.4-1.8.4-.8 0-1.7 0-2.4-.2-.7-.1-1.2-.4-1.8-.8-1.8-1.2-3.4-2.5-5.1-3.7-.4-.3-.7-.5-1.2-.5h-1.4c-.3 0-.6.1-.7.4v.3c.1.4 1.1.3 1.2.1 0 0-.1-.1-.1-.2 0-.2.2-.3.5-.3s.5.2.5.3c0 .2-.2.3-.5.3h-.2c-.5 0-1.1.1-1 .4.1 0 .2.1.3.1.7-.1 2.6.2 3.1 1 .2.4-.3.2-.5.1-.8-.4-1.8-.4-2.8-.6-1.5-.5-2.2-1.8-.8-2.3.7-.1 1.5-.2 2.2-.1.5 0 .8.2 1.2.4-.3-.5-.1-1.5.6-1.4.3 0 .7.3.6 1 1.1-.3 1.5.3 1.3.7-.2.5-1.1.4-1.6.3 1.5 1 2.9 2.2 4.5 3.2.5.3 1 .5 1.5.7.9.3 1.8.4 2.9.2.8-.1 1.5-.4 1.9-.9.2-.2.4-.4.2-.7-.2-.3-.7-.5-1.4-.7-.5-.1-1-.1-1.4 0-.5 0-.7.4-.7.7 0 .3.1.5.3.5.6-.1.6.2.3.5-.5.5-1.4.5-2 .1-.6-.4-.9-1.3 0-1.9 1.3-.8 3.2-.6 4.6-.1-2.6-1.1-6.5.5-7.4-1.4zm0 0"/><path class="st2" d="M41 64.2c0 .3.1.6.2.8.2.2.4.4.7.5h.1v.2c-.7.4-1.2.4-1.5.2-.2-.1-.3-.2-.4-.4s-.1-.3 0-.5c0-.3.3-.7.9-.8zm0 0"/><path class="st2" d="M41 64.2c0 .3.1.6.2.8.2.2.4.4.7.5h.1v.2c-.7.4-1.2.4-1.5.2-.2-.1-.3-.2-.4-.4s-.1-.3 0-.5c0-.3.3-.7.9-.8zm0 0"/><path class="st1" d="M41.1 65.1c-.2-.2-.2-.5-.3-.8-.4.1-.6.4-.7.7v.4l.3.3c.3.1.7.2 1.2-.1-.1-.1-.3-.2-.5-.5zm0 0"/><path class="st1" d="M41.1 65.1c-.2-.2-.2-.5-.3-.8-.4.1-.6.4-.6.7v.4l.3.3c.3.1.7.1 1.2-.1-.2-.1-.4-.2-.6-.5zm0 0"/><path class="st2" d="M40.3 65.7c.3.2.6.2.8.2.3 0 .5-.1.8-.4l.1-.1v.2c0 .8-.2 1.2-.6 1.4-.2.1-.3.1-.5.1s-.3-.1-.5-.2c-.3-.2-.4-.6-.3-1.2h.2zm0 0"/><path class="st1" d="M41.2 66.1c-.3 0-.5 0-.8-.2-.1.4.1.7.3.9.1.1.2.1.4.2.1 0 .3 0 .4-.1.2-.2.4-.5.5-1.1-.3.2-.6.3-.8.3zm0 0"/><path class="st2" d="M50.6 61.5v.2l-.1-.1.1-.1v-.2l.1-.1.1-.1.1-.1.1-.1.1-.1.1-.1.1-.1.1-.1.1-.1H53.6l.1.2H51.5l-.1.1-.1.1H51v.1l-.1.1h-.1l-.1.1-.1.1-.1.1v.2h.1zm-.1.2h-.1v-.1l.1.1zm3.2-1.5l-.1-.2.1.2-.1.2-.1.1-.1.1-.1.1-.1.1-.1.1-.1.1h.1l-.1.1-.1.1-.1.1-.1.1-.1.1-.1.1-.1.1H50.8v-.2H52.5l.1-.1.1-.1.1-.1.1-.1.1-.1.1-.1.1-.1.1-.1.1-.1.1-.1.1-.1.1-.1.1-.1.1-.1.1-.1-.3.2zm-.1-.2l.2-.1-.1.2-.1-.1zm0 0M49.8 61.4l-.1.1v-.7l-.1-.1-.1-.1-.1-.1-.1-.1-.1-.1-.1-.1H48.1L48 60h-.7l-.3-.3-.1-.1.1-.2.1.1.1.1H48.9l.1.1.1.1.1.1.1.1.1.1.1.1.1.1.1.1V60.7l.1.7v.2-.2zm.1.1v.1h-.1l.1-.1zm-3-1.9l.1-.1v.6l.1.1.1.1.1.1.1.1.1.1.1.1.1.1.1.1.1.1h.1l.1.1.1.1h1.3v.2h-1.2l-.1-.1H48l-.1-.1-.1-.1-.1-.1-.1-.1-.1-.1-.1-.1-.1-.1-.1-.1-.1-.1-.1-.1-.1-.1h.1V59.9l-.1-.3.1-.2-.1.2zm-.1 0v-.2l.2.1-.2.1zm0 0"/></svg>