<?xml version="1.0" encoding="utf-8"?>
<!-- Generator: Adobe Illustrator 22.0.1, SVG Export Plug-In . SVG Version: 6.00 Build 0)  -->
<svg version="1.1" xmlns="http://www.w3.org/2000/svg" xmlns:xlink="http://www.w3.org/1999/xlink" x="0px" y="0px"
	 viewBox="0 0 127.3 127" style="enable-background:new 0 0 127.3 127;" xml:space="preserve">
<style type="text/css">
	.st0{fill:url(#SVGID_1_);}
	.st1{fill:#FFFFFF;}
	.st2{fill:#2B2A29;}
	.st3{fill:#E31E24;}
	.st4{fill:#0060AA;}
	.st5{fill:#EBECEC;}
	.st6{fill:#FBCD0E;}
	.st7{fill:#F18A27;}
</style>
<g id="Слой_2">
</g>
<g id="Слой_1">
	
		<radialGradient id="SVGID_1_" cx="64.8" cy="63.6" r="62.6" gradientTransform="matrix(1 0 0 -1 0 128)" gradientUnits="userSpaceOnUse">
		<stop  offset="0.949" style="stop-color:#212121"/>
		<stop  offset="1" style="stop-color:#606060;stop-opacity:0"/>
	</radialGradient>
	<circle class="st0" cx="64.8" cy="64.4" r="62.6"/>
	<circle class="st1" cx="62.6" cy="62.6" r="62.6"/>
	<g id="Layer_x0020_1">
		<g id="_783536512">
			<path class="st2" d="M35.6,37.8H46c0-0.2,0-0.3,0-0.5c-2.3-0.3-4.5-1.8-6.7-3.2c-2.1,1-3.5,2.1-4.2,3.4c-0.5,0.5-1.3,0.7-2.5,0.5
				c-1,0.8-1.2,1.8-0.6,3.1c1.3,2.7,2.6,3.6,3.2,6.8c0.2,0.8,0.3,1.7,0.4,2.5L35.6,37.8L35.6,37.8z M45.1,29.2
				c-0.4-1.3-0.9-2.4-1.5-3.3c-0.7-0.6-1-1.3-0.7-2.1c-0.4-1.9-1.2-3.1-2.2-4.1c-0.9-1.5-0.2-1.8,2-0.7c0.9-1.4,1.8-1,2.7,1
				c1-0.4,1.4,0.1,1.3,1.6c2.1,0.6,2.3,1.6,0.6,3c0.7,2.1-0.1,2.6-1.2,2.7c0.1,0.6,0.2,1.3,0.5,1.9c1.5,1.2,2.1-0.2,2.1-2.9
				c-0.4-0.2-0.7-0.7-0.7-1.1c0-0.7,0.6-1.3,1.3-1.3s1.3,0.6,1.3,1.3c0,0.5-0.3,0.9-0.7,1.2c0.1,1.6,0.4,2.4,1,2.1
				c0.7,0.4,1-1.1,1-3.8c-0.1,0-0.2,0-0.3,0c-0.7,0-1.3-0.6-1.3-1.3c0-0.7,0.6-1.3,1.3-1.3c-0.2-0.2-0.3-0.5-0.3-0.8
				c0-0.7,0.6-1.3,1.3-1.3s1.3,0.6,1.3,1.3c0,0.3-0.1,0.5-0.2,0.7c0.1,0,0.1,0,0.2,0c0.7,0,1.3,0.6,1.3,1.3c0,0.7-0.6,1.3-1.3,1.3
				c-0.1,0-0.2,0-0.3,0c0.1,2,0.4,3.6,1.3,3.5c0.6,0.3,1-0.6,1.2-2.8c-0.5-0.2-0.8-0.7-0.8-1.2c0-0.7,0.6-1.3,1.3-1.3
				c0.7,0,1.3,0.6,1.3,1.3c0,0.5-0.3,1-0.7,1.2c0.4,1.5,0.9,2.6,1.9,2.6c0.8,0.1,1.4-1.4,1.8-4.5c-2.4,1.9-3.2,1.9-2.4,0
				c-1.8-0.6-2-1.4-0.5-2.6c-0.3-0.7-0.4-1.3,0.7-1.6c-0.8-2.8-0.3-3.4,1.4-2.1c0.3-1.9,0.8-2.8,1.4-2.7c0.6,0,1.1,0.9,1.4,2.7
				c1.7-1.4,2.2-0.7,1.4,2.1c1.1,0.3,1,0.9,0.7,1.6c1.5,1.2,1.3,2-0.5,2.6c0.8,1.9,0,1.9-2.4,0c0.4,3.1,1,4.6,1.8,4.5
				c1,0,1.5-1.2,1.9-2.6c-0.4-0.2-0.7-0.7-0.7-1.2c0-0.7,0.6-1.3,1.3-1.3s1.3,0.6,1.3,1.3c0,0.6-0.3,1-0.8,1.2
				c0.2,2.1,0.6,3,1.2,2.8c0.9,0.2,1.2-1.4,1.3-3.5c-0.1,0-0.2,0-0.3,0c-0.7,0-1.3-0.6-1.3-1.3c0-0.7,0.6-1.3,1.3-1.3
				c0.1,0,0.1,0,0.2,0c-0.1-0.2-0.2-0.4-0.2-0.7c0-0.7,0.6-1.3,1.3-1.3c0.7,0,1.3,0.6,1.3,1.3c0,0.3-0.1,0.6-0.3,0.8
				c0.7,0,1.3,0.6,1.3,1.3c0,0.7-0.6,1.3-1.3,1.3c-0.1,0-0.2,0-0.3,0c0.1,2.6,0.3,4.2,1,3.8c0.6,0.2,0.9-0.5,1-2.1
				c-0.4-0.2-0.7-0.7-0.7-1.2c0-0.7,0.6-1.3,1.3-1.3c0.7,0,1.3,0.6,1.3,1.3c0,0.5-0.3,0.9-0.7,1.1c0,2.7,0.6,4,2.1,2.9
				c0.3-0.6,0.4-1.3,0.5-1.9c-1.1-0.2-1.9-0.6-1.2-2.7c-1.7-1.4-1.5-2.4,0.6-3c-0.2-1.5,0.2-2.1,1.3-1.6c0.9-2,1.8-2.3,2.7-1
				c2.2-1,2.9-0.8,2,0.7c-1,0.9-1.8,2.2-2.2,4.1c0.2,0.8,0,1.5-0.7,2.1c-0.6,0.9-1.1,2-1.5,3.3c2.1-0.5,3.9-1.6,5.6-2.9
				c1.9-1.2,3.7-1.2,5.4,0.3c1.2,0.8,2.7,1.6,4.4,2.5c1.1,0.6,0.7,1.8,0,3.3c0.9,0.7,2.2,1.5,3.8,2.2c3.2,1.6,4.7,5.7,1.9,9.6
				c-1.7,2.7-3.3,5.4-3.2,7.7c0.7,0,1.4-0.1,2.1-0.1c3.8,2.6,3.3,7.2,2,12.1c-1.7,6.6-1.6,13.1-0.6,19.5c1.1,6.3,1.4,11.3-0.9,12
				c-0.7-0.1-1.4-0.2-2.1-0.4c-1,2.9-2.3,5.7-5.6,7.9c0.3,0.8-0.2,1.8-1.6,2.6c-8,4-17.5,5.8-27.4,5.7c-10,0-19.4-1.8-27.4-5.7
				c-1.5-0.8-1.9-1.9-1.6-2.6c-3.2-2.2-4.5-5-5.6-7.9c-0.7,0.1-1.4,0.2-2.1,0.4c-2.3-0.7-2-5.7-0.9-12c1-6.4,1.1-12.8-0.6-19.5
				c-1.3-4.8-1.8-9.4,2-12.1c0.7,0,1.4,0.1,2.1,0.1c0.1-2.2-1.5-4.9-3.2-7.7c-2.8-3.9-1.3-8,1.9-9.6c1.6-0.7,2.9-1.5,3.8-2.2
				c-0.7-1.5-1.1-2.6,0-3.3c1.7-0.8,3.2-1.6,4.4-2.5c1.7-1.4,3.5-1.5,5.4-0.3C41.4,27.7,43.1,28.7,45.1,29.2L45.1,29.2z M77,37.4
				c0,0.1,0,0.3,0,0.4h10.4v53c-0.2,4-2.6,5.7-7.5,5.9c-3.8,0-7.6,0-11.4,0c-3.1,0.1-5.4,0.8-7,2.8c-1.7-2-4-2.7-7-2.8
				c-3.8,0-7.6,0-11.4,0c-4.9-0.2-7.3-1.9-7.5-5.9V57.3c-0.2,1.8-0.7,2.9-1.4,2.7c-1.3,0-2.6,0-3.9,0c0.3,1.4,0.7,2.7,1,4.1
				c1.6,7.7,1.7,15.7,0.4,23.9c0.5,0.2,1,0.4,1.6,0.6c0.6,0.4,1.3,0.9,1.2,2.2c0,3.4,2.3,5.1,5.8,6c2.1,0,3,0.7,2.6,2.1
				c-0.3,0.7-0.4,1.4-0.2,2.1c5.8,1.5,12.3,2,18.9,1.9c6.7,0.1,13.2-0.4,18.9-1.9c0.2-0.7,0.1-1.4-0.2-2.1c-0.3-1.4,0.6-2.1,2.6-2.1
				c3.4-0.9,5.8-2.6,5.8-6c-0.1-1.2,0.6-1.8,1.2-2.2c0.5-0.2,1-0.4,1.6-0.6c-1.3-8.2-1.2-16.2,0.4-23.9c0.3-1.4,0.7-2.7,1-4.1
				c-1.3,0-2.6,0-3.9,0c-1.6,0.4-2-6.6-1-12.1c0.6-3.3,2-4.2,3.2-6.8c0.6-1.3,0.4-2.3-0.6-3.1c-1.2,0.2-2,0.1-2.5-0.5
				c-0.7-1.2-2.1-2.4-4.2-3.4C81.6,35.6,79.4,37.1,77,37.4L77,37.4z"/>
			<path class="st3" d="M36,82V38.2h51V82c-0.7-0.1-1.4-0.4-2.1-1c-0.9-0.8-1.8-1.3-2.6-1.3c-0.5,0-1,0.1-1.4,0.4V68.1h0.5v-1.2
				h-0.5v-5.8H80v-5.7l1.9-2.7v-5.6H79v2.9h-1.1v-2.9h-2.5v2.9h-1.1v-2.9h-2.9v5.6l1.9,2.7v5.7h-4.7v3.9h-1.4v-3.9h-5v3.9h-0.7h-0.7
				v-3.9h-5v3.9h-1.4v-3.9h-4.7v-5.7l1.9-2.7v-5.6h-2.9v2.9h-1.1v-2.9h-2.5v2.9H44v-2.9h-2.9v5.6l1.9,2.7v5.7h-0.8v5.8h-0.5v1.2h0.5
				v11.9c-0.9-0.5-1.9-0.5-2.9-0.1c-0.3,0.1-0.5,0.2-0.8,0.4c-0.3,0.2-0.5,0.4-0.8,0.6l0,0l0,0C37.2,81.5,36.6,81.9,36,82L36,82z
				 M65.9,82c-0.5-0.2-1-0.5-1.6-1c-1.3-1.2-2.6-1.6-4-1c-0.3,0.1-0.5,0.2-0.8,0.4c-0.3,0.2-0.5,0.4-0.8,0.6l0,0
				c-0.6,0.5-1.1,0.9-1.6,1.1v-9.4c0-2.5,1.9-4.5,4.3-4.5c2.4,0,4.3,2,4.3,4.5L65.9,82L65.9,82z"/>
			<path class="st4" d="M87,91.2l0,0.3l0,0.3l-0.1,0.3l-0.1,0.3l-0.1,0.3L86.6,93l-0.1,0.3l-0.1,0.2l-0.1,0.2L86.1,94l-0.2,0.2
				l-0.2,0.2l-0.2,0.2l-0.2,0.2l-0.2,0.2L85,95.1l-0.2,0.2l-0.2,0.1l-0.3,0.1l-0.3,0.1l-0.3,0.1l-0.3,0.1L83,95.9L82.7,96l-0.4,0.1
				l-0.4,0.1l-0.4,0.1l-0.4,0l-0.4,0l-0.4,0l-0.4,0H68.5l-0.3,0l-0.3,0l-0.3,0l-0.3,0l-0.3,0l-0.3,0l-0.3,0l-0.3,0l-0.3,0l-0.3,0.1
				l-0.2,0.1l-0.2,0.1l-0.2,0.1l-0.2,0.1L64.6,97l-0.2,0.1l-0.2,0.1l-0.2,0.1l-0.2,0.1l-0.2,0.1l-0.2,0.1l-0.2,0.1l-0.2,0.1L62.7,98
				l-0.2,0.1l-0.2,0.1l-0.2,0.2l-0.2,0.2l-0.2,0.2l-0.2,0.2l-0.1,0.1l-0.1-0.1l-0.2-0.2l-0.2-0.2l-0.2-0.2l-0.2-0.2l-0.2-0.1
				L60.3,98l-0.2-0.1l-0.2-0.1l-0.2-0.1l-0.2-0.1l-0.2-0.1l-0.2-0.1l-0.2-0.1l-0.2-0.1L58.4,97l-0.2-0.1l-0.2-0.1l-0.2-0.1l-0.2-0.1
				l-0.2-0.1l-0.3-0.1l-0.3,0l-0.3,0l-0.3,0l-0.3,0l-0.3,0l-0.3,0l-0.3,0l-0.3,0l-0.3,0H43.1l-0.4,0l-0.4,0l-0.4,0l-0.4,0L41,96.2
				l-0.4-0.1L40.3,96L40,95.9l-0.3-0.1l-0.3-0.1L39,95.6l-0.3-0.1l-0.3-0.1l-0.2-0.1L38,95.1l-0.2-0.2l-0.2-0.2l-0.2-0.2l-0.2-0.2
				L37,94.2L36.9,94l-0.1-0.2l-0.1-0.2l-0.1-0.2L36.4,93l-0.1-0.3l-0.1-0.3l-0.1-0.3l-0.1-0.3l0-0.3l0-0.3l0-0.4v-8.5
				c0.7-0.2,1.3-0.5,2-1.1l0,0l0,0c0.2-0.2,0.5-0.4,0.8-0.6c0.2-0.2,0.5-0.3,0.7-0.4c1.3-0.5,2.6-0.2,3.8,1c0.9,0.9,1.8,1.4,2.7,1.5
				c0.9,0,1.8-0.4,2.7-1.5c0.1-0.1,0.2-0.2,0.2-0.3c0.7-0.8,1.5-1.1,2.3-1.1c0.8,0,1.5,0.4,2.3,1c0.1,0.1,0.2,0.2,0.3,0.3
				c0.9,0.9,1.8,1.3,2.6,1.3c0.9,0,1.7-0.4,2.6-1.3l0,0c0.2-0.2,0.5-0.4,0.7-0.6c0.2-0.2,0.5-0.3,0.7-0.4c1.2-0.5,2.5-0.2,3.7,1
				c0.9,0.8,1.7,1.3,2.6,1.3s1.7-0.4,2.7-1.2c0.9-0.8,1.7-1.1,2.5-1.1s1.5,0.4,2.2,1.1l0,0l0,0l0,0c0.2,0.2,0.5,0.4,0.7,0.6
				c0.2,0.2,0.5,0.3,0.8,0.4c1.4,0.5,2.9,0.3,4.2-1c0.9-0.8,1.6-1.2,2.4-1.2c0.8,0,1.6,0.4,2.5,1.2c0.7,0.7,1.5,1,2.3,1.1v8.6V91.2
				L87,91.2z"/>
			<path class="st5" d="M61.5,68l-0.2,0l-0.2,0l0,0l-0.5-2h1h1L62,68l0,0l-0.2,0L61.5,68z M80.6,80.2c-0.3,0.2-0.6,0.4-0.9,0.8
				c-0.3,0.3-0.7,0.6-1,0.8v-1.6L80.6,80.2L80.6,80.2L80.6,80.2z M78,82c-0.5,0.2-1,0.2-1.5,0.1V82H78z M76.3,82
				c-0.1,0-0.1,0-0.2-0.1L76.3,82L76.3,82z M75.4,81.7c-0.1-0.1-0.3-0.2-0.4-0.2c-0.1-0.1-0.2-0.1-0.3-0.2v-1.1h3.6v1.6L75.4,81.7
				L75.4,81.7z M74.5,81.1c0,0-0.1-0.1-0.1-0.1l0,0l0,0l0,0c-0.4-0.4-0.7-0.6-1.1-0.8h1.2L74.5,81.1L74.5,81.1z M72.6,79.9
				c-0.2-0.1-0.4-0.1-0.6-0.1c-0.3,0-0.6,0-0.8,0.1h-2.2v-1.6h3.6V79.9z M70.5,80.1c-0.4,0.2-0.8,0.5-1.2,0.8
				c-0.3,0.2-0.5,0.4-0.8,0.6v-1.1v-0.1h-0.1H68v-0.2L70.5,80.1L70.5,80.1z M68.2,81.7C68.2,81.7,68.2,81.7,68.2,81.7l-2.1,0v-1.2
				h2.1V81.7z M67.6,82c-0.3,0.1-0.6,0.2-0.9,0.2c-0.2,0-0.4,0-0.6-0.1V82L67.6,82L67.6,82z M57,82.1c-0.2,0-0.4,0.1-0.6,0.1
				c-0.3,0-0.6-0.1-1-0.2H57V82.1z M54.9,81.8C54.9,81.7,54.9,81.7,54.9,81.8l-0.1-1.2H57v1.2H54.9z M54.6,81.5
				c-0.2-0.2-0.4-0.3-0.6-0.6c-0.1-0.1-0.2-0.2-0.3-0.3c-0.2-0.2-0.5-0.4-0.7-0.5h2.1v0.2h-0.3h-0.1v0.1V81.5z M52.5,79.9
				c-0.4-0.2-0.9-0.3-1.3-0.4c-0.2,0-0.4,0-0.6,0.1v-1.3h3.6v1.6H52.5z M50.3,79.7c-0.2,0.1-0.4,0.1-0.5,0.2h-2.9v-1.6h3.5V79.7z
				 M49.3,80.1c-0.2,0.2-0.4,0.3-0.6,0.6c0,0-0.1,0.1-0.1,0.1v-0.6H49.3z M48.4,81.1c-0.2,0.3-0.5,0.5-0.7,0.7h-2.9v-1.6h3.6V81.1z
				 M47.3,82c-0.2,0.1-0.3,0.2-0.5,0.2V82H47.3z M46.6,82.3c-0.2,0-0.4,0.1-0.6,0.1c-0.4,0-0.8-0.1-1.2-0.4h1.8V82.3z M44.4,81.7
				c-0.3-0.2-0.6-0.5-0.9-0.8c-0.3-0.3-0.6-0.6-1-0.8v-0.1h2L44.4,81.7L44.4,81.7L44.4,81.7z M73.9,63.1H75v-1.2h-1.1V63.1z
				 M81.7,50.1v-1.2h-1.5v1.2H81.7z M79.9,48.9h-0.7v1.2h0.7V48.9z M73.9,64.5h1.4v-1.2h-1.4V64.5z M73.6,60.4v0.7h0.3v0.5h1.4v-0.5
				h1.3v-0.7H73.6z M79.7,61.2v-0.7h-2.9v0.7H79.7z M73.6,57.6v1.2h3v-1.2H73.6z M76.8,58.8h2.9v-1.2h-2.9V58.8z M73.6,55.4v0.4h3
				v-1.2h-3.1L73.6,55.4L73.6,55.4L73.6,55.4z M76.8,55.9h2.9v-0.4l0.2-0.3v-0.5h-3.1L76.8,55.9L76.8,55.9z M80.2,54.8l0.1-0.1h-0.1
				V54.8z M73.3,54.7h-0.2l0.2,0.3V54.7z M81.5,53l0.2-0.2v-1h-1.5V53H81.5z M79.9,51.8h-3.1V53h3.1V51.8z M76.6,51.8h-3.1V53h3.1
				V51.8z M73.3,51.8h-1.6v1l0.2,0.2h1.4L73.3,51.8L73.3,51.8z M77.7,50.1v-1.2h-0.8v1.2H77.7z M76.6,48.9h-0.9v1.2h0.9V48.9z
				 M74,50.1v-1.2h-0.5v1.2H74z M73.3,48.9h-1.6v1.2h1.6V48.9z M75.2,63.1L75.2,63.1l0.1-1.2h-0.1V63.1z M75,65.1v-0.3h-1.1v0.3H75z
				 M75.2,64.8L75.2,64.8l-0.1,0.3h0.1V64.8z M74,48.6v-1.2h-2.4v1.2H74z M77.7,48.6v-1.2h-2v1.2H77.7z M81.6,48.6v-1.2h-2.4v1.2
				H81.6z M81.6,51.5v-1.2h-2.4v0h-0.7v1.2H81.6L81.6,51.5z M78.3,50.3h-0.7v0h-2v0h-0.5v1.2h3.1V50.3z M75,50.3H74v0h-2.4v1.2H75
				V50.3z M80.5,54.4l0.8-1.2h-2.7v1.2H80.5L80.5,54.4z M78.3,53.2h-3.1v1.2h3.1V53.2z M75,53.2H72l0.8,1.2H75V53.2z M73.6,56.1v1.2
				H75v-1.2H73.6z M75.2,57.3h3.1v-1.2h-3.1V57.3z M78.6,57.3h1.2v-1.2h-1.2V57.3z M73.6,59v1.2H75V59H73.6z M75.2,60.2h3.1V59h-3.1
				V60.2z M78.6,60.2h1.2V59h-1.2V60.2z M81.1,67.2H66.2l0.2,0.2l-0.3,0.5h15L81.1,67.2L81.1,67.2z M67,65.1v-1.6h-1.6v1.6H67z
				 M65.1,63.5h-2.7v1.6h2.7V63.5z M68.5,78.3v0.8v0.1h-0.1H68v0.7h0.6v-1.6L68.5,78.3L68.5,78.3z M72.8,79.9h3.5v-1.6h-3.5V79.9z
				 M76.5,79.9h4.1v-1.6h-4.1V79.9z M68,74.6V75h0.3h0.1v0.1v1.1h0.2v-1.6H68z M68.9,76.2h3.6v-1.6h-3.6V76.2z M72.8,76.2h3.5v-1.6
				h-3.5V76.2z M76.5,76.2h4.1v-1.6h-4.1V76.2z M67.8,70.9c0.1,0.3,0.2,0.6,0.2,0.9c0,0.1,0,0.2,0,0.2c0,0,0,0.1,0,0.1h0.4h0.1v0.1
				v0.2h0.2v-1.6H67.8L67.8,70.9z M68.9,72.5h3.6v-1.6h-3.6V72.5z M72.8,72.5h3.5v-1.6h-3.5V72.5z M76.5,72.5h4.1v-1.6h-4.1V72.5z
				 M66.2,68.2c0.2,0.2,0.4,0.4,0.5,0.6c0,0,0,0,0.1,0.1h0.3l0,0l0.1-0.1l0.1,0.1c0,0,0,0,0,0h1.4v-0.6H66.2z M68.9,68.8h3.6v-0.6
				h-3.6V68.8z M72.8,68.8h3.5v-0.6h-3.5V68.8z M76.5,68.8h4.1v-0.6h-4.1V68.8z M80.6,65.1v-1.6h-4.1v1.6H80.6z M76.3,63.5h-0.8v1.6
				h0.8V63.5z M73.6,65.1v-1.6h-0.8v1.6H73.6z M72.6,63.5h-3.6v1.6h3.6V63.5z M61.6,65.7h1.2h0.2l0,0.2l-0.1,0.5
				c0.2,0,0.4,0.1,0.6,0.1v-1.2h-1.8h-1.8v1.2c0.2-0.1,0.4-0.1,0.6-0.1l-0.1-0.5l0-0.2h0.2H61.6z M63.6,66.6c0.1,0,0.2,0.1,0.3,0.1
				c0.1,0,0.2,0.1,0.2,0.1c0,0,0.1,0,0.1,0.1l0.2-0.4l0-0.1l0.1,0c0.4,0.2,0.8,0.4,1.2,0.6H67v-1.6h-3.5V66.6z M67.3,67h3.4v-1.6
				h-3.4V67z M70.9,67h3.6v-1.6h-3.6V67z M74.7,67h3.6v-1.6h-3.6V67z M78.6,67h2v-1.6h-2V67z M67.5,69.1c0.1,0.2,0.2,0.4,0.3,0.6
				c0.1,0.3,0.2,0.6,0.3,0.8l0,0.1l-0.1,0l0,0h2.6v-1.6H67.5z M70.9,70.7h3.6v-1.6h-3.6V70.7z M74.7,70.7h3.6v-1.6h-3.6V70.7z
				 M78.6,70.7h2v-1.6h-2V70.7z M68.5,72.8v1v0.1h-0.1H68v0.5h2.6v-1.6H68.5z M70.9,74.4h3.6v-1.6h-3.6V74.4z M74.7,74.4h3.6v-1.6
				h-3.6V74.4z M78.6,74.4h2v-1.6h-2V74.4z M68.5,76.5v0.1v0.1h-0.1H68v0.8h0.3h0.1v0.1v0.4h2.2v-1.6H68.5z M70.9,78.1h3.6v-1.6
				h-3.6V78.1z M74.7,78.1h3.6v-1.6h-3.6V78.1z M78.6,78.1h2v-1.6h-2V78.1z M80.6,63.3v-1.8h-2v1.8H80.6z M78.4,61.5h-2.9v1.8h2.9
				V61.5z M73.6,63.3v-1.8h-2.7v1.8H73.6z M70.7,61.5h-1.8v1.8h1.8V61.5z M67,63.3v-1.8h-3.5v1.8H67z M63.3,61.5h-0.8v1.8h0.8V61.5z
				 M62.3,68l0.2,0l0.2,0.1l0.2,0.1l0.2,0.1l0.2,0.1l0.2,0.1l0.7-1.3c0,0-0.1,0-0.1-0.1C64,67,63.9,67,63.8,67
				c-0.4-0.1-0.8-0.2-1.2-0.3L62.3,68L62.3,68z M63.7,68.6L63.7,68.6l0.2,0.1l0.2,0.1l0.2,0.1l0.2,0.1l0.2,0.2l1.5-1.7
				c-0.4-0.4-0.9-0.7-1.4-0.9L63.7,68.6L63.7,68.6z M64.8,69.4l0.1,0.2l0.1,0.2l0.1,0.2l0.1,0.2l0.1,0.2l0,0l1.2-1.2c0,0,0,0,0-0.1
				c0-0.1-0.1-0.1-0.1-0.2c-0.2-0.3-0.4-0.5-0.7-0.7L64.8,69.4L64.8,69.4z M65.6,70.5l0.1,0.1l0.1,0.2l0.1,0.2l0,0.1l2-0.8
				c-0.1-0.2-0.2-0.4-0.3-0.6c-0.1-0.2-0.2-0.5-0.4-0.7l-0.2,0.2l-0.1,0.1l0,0L65.6,70.5L65.6,70.5z M66,71.5L66,71.5l0.1,0.3l0,0.2
				l0,0.2l0,0.1h1.7c0-0.1,0-0.1,0-0.2c0-0.1,0-0.2,0-0.2c0-0.4-0.1-0.7-0.2-1.1L66,71.5z M66.1,72.5l0,0.2v0.9h2.1v-1.1H66.1z
				 M66.1,73.9V75h1.7v-1.1H66.1z M66.1,75.3v1.1h2.1v-1.1H66.1z M66.1,76.7v0.9h1.7v-0.9H66.1z M66.1,77.8v1.1h2.1v-1.1H66.1z
				 M66.1,79.2v1.2h1.7v-1.2H66.1z M49.2,63.1h-1.1v-1.2h1.1V63.1z M41.4,50.1v-1.2h1.5v1.2H41.4z M43.2,48.9h0.7v1.2h-0.7V48.9z
				 M49.2,64.6h-1.4v-1.2h1.4V64.6z M49.5,60.5v0.7h-0.3v0.5h-1.4v-0.5h-1.3v-0.7H49.5z M43.4,61.2v-0.7h2.9v0.7H43.4z M49.5,57.6
				v1.2h-3v-1.2H49.5z M46.3,58.8h-2.9v-1.2h2.9V58.8z M49.5,55.5v0.4h-3v-1.2h3.1L49.5,55.5L49.5,55.5L49.5,55.5z M46.3,55.9h-2.9
				v-0.4l-0.2-0.3v-0.5h3.1L46.3,55.9L46.3,55.9z M42.9,54.8l-0.1-0.1h0.1V54.8z M49.8,54.7H50L49.8,55V54.7z M41.6,53l-0.2-0.2v-1
				h1.5V53H41.6z M43.2,51.8h3.1V53h-3.1V51.8z M46.5,51.8h3.1V53h-3.1V51.8z M49.8,51.8h1.6v1L51.2,53h-1.4L49.8,51.8L49.8,51.8z
				 M45.4,50.1v-1.2h0.8v1.2H45.4z M46.5,48.9h0.9v1.2h-0.9V48.9z M49.1,50.1v-1.2h0.5v1.2H49.1z M49.8,48.9h1.6v1.2h-1.6V48.9z
				 M47.9,63.1L47.9,63.1l-0.1-1.2h0.1V63.1z M48.1,65.1v-0.3h1.1v0.3H48.1z M47.9,64.8L47.9,64.8l0.1,0.3h-0.1V64.8z M49.1,48.7
				v-1.2h2.4v1.2H49.1z M45.4,48.7v-1.2h2v1.2H45.4z M41.5,48.7v-1.2h2.4v1.2H41.5z M41.5,51.6v-1.2h2.4v0h0.7v1.2H41.5L41.5,51.6z
				 M44.8,50.4h0.7v0h2v0h0.5v1.2h-3.1V50.4z M48.1,50.4h0.9v0h2.4v1.2h-3.3V50.4z M42.6,54.4l-0.8-1.2h2.7v1.2H42.6L42.6,54.4z
				 M44.8,53.3h3.1v1.2h-3.1V53.3z M48.1,53.3h2.9l-0.8,1.2h-2.1V53.3z M49.5,56.1v1.2h-1.4v-1.2H49.5z M47.9,57.3h-3.1v-1.2h3.1
				V57.3z M44.5,57.3h-1.2v-1.2h1.2V57.3z M49.5,59v1.2h-1.4V59H49.5z M47.9,60.2h-3.1V59h3.1V60.2z M44.5,60.2h-1.2V59h1.2V60.2z
				 M42,67.2h14.9l-0.2,0.2l0.3,0.5H42L42,67.2L42,67.2z M56.1,65.1v-1.6h1.6v1.6H56.1z M58,63.5h2.7v1.6H58V63.5z M54.6,78.3v0.8
				v0.1h0.1h0.3v0.7h-0.6v-1.6L54.6,78.3L54.6,78.3z M46.6,79.9h-4.1v-1.6h4.1V79.9z M55.1,74.6V75h-0.3h-0.1v0.1v1.1h-0.2v-1.6
				H55.1z M54.2,76.2h-3.6v-1.6h3.6V76.2z M50.3,76.2h-3.5v-1.6h3.5V76.2z M46.6,76.2h-4.1v-1.6h4.1V76.2z M55.3,70.9
				c-0.1,0.3-0.2,0.6-0.2,0.9c0,0.1,0,0.2,0,0.2c0,0,0,0.1,0,0.1h-0.4h-0.1v0.1v0.2h-0.2v-1.6H55.3L55.3,70.9z M54.2,72.5h-3.6v-1.6
				h3.6V72.5z M50.3,72.5h-3.5v-1.6h3.5V72.5z M46.6,72.5h-4.1v-1.6h4.1V72.5z M56.9,68.2c-0.2,0.2-0.4,0.4-0.5,0.6c0,0,0,0-0.1,0.1
				H56l0,0l-0.1-0.1l-0.1,0.1c0,0,0,0,0,0h-1.4v-0.6H56.9z M54.2,68.8h-3.6v-0.6h3.6V68.8z M50.3,68.8h-3.5v-0.6h3.5V68.8z
				 M46.6,68.8h-4.1v-0.6h4.1V68.8z M42.5,65.1v-1.6h4.1v1.6H42.5z M46.8,63.5h0.8v1.6h-0.8V63.5z M49.5,65.1v-1.6h0.8v1.6H49.5z
				 M50.5,63.5h3.6v1.6h-3.6V63.5z M59.5,66.6c-0.1,0-0.2,0.1-0.3,0.1c-0.1,0-0.2,0.1-0.2,0.1c0,0-0.1,0-0.1,0.1l-0.2-0.4l0-0.1
				l-0.1,0c-0.4,0.2-0.8,0.4-1.2,0.6h-1.2v-1.6h3.5V66.6z M55.8,67h-3.4v-1.6h3.4V67z M52.2,67h-3.6v-1.6h3.6V67z M48.4,67h-3.6
				v-1.6h3.6V67z M44.5,67h-2v-1.6h2V67z M55.6,69.1c-0.1,0.2-0.2,0.4-0.3,0.6c-0.1,0.3-0.2,0.6-0.3,0.8l0,0.1l0.1,0l0,0h-2.6v-1.6
				H55.6z M52.2,70.7h-3.6v-1.6h3.6V70.7z M48.4,70.7h-3.6v-1.6h3.6V70.7z M44.5,70.7h-2v-1.6h2V70.7z M54.6,72.8v1v0.1h0.1h0.3v0.5
				h-2.6v-1.6H54.6z M52.2,74.4h-3.6v-1.6h3.6V74.4z M48.4,74.4h-3.6v-1.6h3.6V74.4z M44.5,74.4h-2v-1.6h2V74.4z M54.6,76.5v0.1v0.1
				h0.1h0.3v0.8h-0.3h-0.1v0.1v0.4h-2.2v-1.6H54.6z M52.2,78.1h-3.6v-1.6h3.6V78.1z M48.4,78.1h-3.6v-1.6h3.6V78.1z M44.5,78.1h-2
				v-1.6h2V78.1z M42.5,63.3v-1.8h2v1.8H42.5z M44.7,61.5h2.9v1.8h-2.9V61.5z M49.5,63.3v-1.8h2.7v1.8H49.5z M52.4,61.5h1.8v1.8
				h-1.8V61.5z M56.1,63.3v-1.8h3.5v1.8H56.1z M59.8,61.5h0.8v1.8h-0.8V61.5z M60.8,68.1l-0.2,0l-0.2,0.1l-0.2,0.1L60,68.3l-0.2,0.1
				l-0.2,0.1l-0.7-1.3c0,0,0.1,0,0.1-0.1c0.1,0,0.2-0.1,0.2-0.1c0.4-0.1,0.8-0.2,1.2-0.3L60.8,68.1L60.8,68.1z M59.4,68.6L59.4,68.6
				l-0.2,0.1L59,68.8L58.8,69l-0.2,0.1l-0.2,0.2L57,67.6c0.4-0.4,0.9-0.7,1.4-0.9L59.4,68.6L59.4,68.6z M58.3,69.4l-0.1,0.2L58,69.7
				l-0.1,0.2l-0.1,0.2l-0.1,0.2l0,0l-1.2-1.2c0,0,0,0,0-0.1c0-0.1,0.1-0.1,0.1-0.2c0.2-0.3,0.4-0.5,0.7-0.7L58.3,69.4L58.3,69.4z
				 M57.5,70.6l-0.1,0.1l-0.1,0.2l-0.1,0.2l0,0.1l-2-0.8c0.1-0.2,0.2-0.4,0.3-0.6c0.1-0.2,0.2-0.5,0.4-0.7l0.2,0.2l0.1,0.1l0,0
				L57.5,70.6L57.5,70.6z M57.1,71.5L57.1,71.5l-0.1,0.3l0,0.2l0,0.2l0,0.1h-1.7c0-0.1,0-0.1,0-0.2c0-0.1,0-0.2,0-0.2
				c0-0.4,0.1-0.7,0.2-1.1L57.1,71.5z M57,72.6l0,0.2v0.9h-2.1v-1.1H57z M57,73.9v1.1h-1.7v-1.1H57z M57,75.3v1.1h-2.1v-1.1H57z
				 M57,76.7v0.9h-1.7v-0.9H57z M57,77.8V79h-2.1v-1.1H57z M57,79.2v1.2h-1.7v-1.2H57z"/>
			<path class="st2" d="M64.6,50.6c-0.7-0.3-1.2-0.2-1.6,0.3c-0.2,0.4-0.1,0.7,0.4,1c0.2,0,0.5,0.2,0.3-0.5c1.8,0.9,0.6,3.8-0.8,4.1
				c0.1-0.2,0.2-0.5,0-0.7c-0.3,0.1-0.6,0.2-0.9,0.3v-4.4c0.8-0.1,1.2-0.5,1.3-0.9c0-0.5-0.3-1-1.3-1v-3.2c0.3,0.1,0.5,0.2,0.8,0.5
				c0.4,0.5,0.2,1-0.4,1.2c0.3,0,0.6-0.1,0.9-0.1c0.1,0.5-0.2,0.9-0.6,1.2c1-0.2,1.7-0.5,1.8-1.4c0.1-1-0.4-1.7-1.2-2.1
				c-0.3-0.1-0.5-0.2-0.8-0.3l0.5-0.9c0.7-0.5,0.7-1.4-0.1-1.9c-0.4-0.2-0.8-0.2-1.1,0c0,0,0-0.1,0-0.1c0-0.1-0.1-0.3-0.2-0.3v-0.2
				h0.3v-0.3h-0.3v-0.3h-0.3v0.3h-0.3v0.3h0.3v0.2c-0.1,0.1-0.2,0.2-0.2,0.3c0,0,0,0.1,0,0.1c-0.3-0.2-0.7-0.3-1.1,0
				c-0.8,0.5-0.8,1.4-0.1,1.9c0.2,0.3,0.4,0.6,0.6,1h0.2c-0.3,0.1-0.6,0.3-0.8,0.5c0-0.2,0-0.4,0-0.7c-1.4,1.3-1.8,2.9-1,5
				c-1.4,1.1-2,2.9-0.9,5c0.1,0.1,0.2,0.3,0.2,0.4c-0.4,0-0.7-0.4-1-0.7c0,0.5,0,1.1,0.4,1.3c0.4,0.2,0.7,0.3,1.1,0.1
				c0.3,0.3,0.6,0.5,1,0.7c0.9,0.5,2.1,0.6,3.3,0.3c1.2-0.3,2-0.7,2.4-1.9C66,53.3,65.9,51.3,64.6,50.6z M61.9,49.5
				c0.3,0,0.5,0.1,0.4,0.3c0,0.2-0.2,0.3-0.4,0.3V49.5z M60.8,55.2c-0.4,0-0.7-0.1-1-0.3c0.3-0.4,0.6-0.8,1-1.5V55.2z M60.8,52.5
				c-0.5,0.8-1,1.5-1.5,1.9c-0.2-0.2-0.3-0.5-0.4-0.7c-0.4-1.2-0.2-2.5,0.6-3.6c0.5,0.3,0.9,0.4,1.4,0.5V52.5z M60.8,49.8
				c-0.2,0-0.3-0.1-0.5-0.2c0.2,0,0.4-0.1,0.5-0.1V49.8z M60.8,48.8c-0.4,0-0.8,0.1-1.3,0.2c-0.2-1.1-0.1-1.8,0.9-2.3
				c-0.2-0.2-0.4-0.3-0.6-0.5c0.3-0.4,0.7-0.6,1-0.7V48.8z"/>
			<path class="st6" d="M61.5,50.6h0.1l0.1,0l0.1,0l0.1,0l0.1,0c0.2,0,0.3-0.1,0.5-0.2l0.1,0l0.1-0.1l0.1-0.1l0.1-0.1l0-0.1l0-0.1
				l0-0.1l0-0.1l0-0.1l0-0.1v-0.1l0-0.1l0-0.1l0-0.1l0-0.1l0-0.1l0-0.1c-0.1-0.1-0.2-0.2-0.4-0.3l-0.1,0l-0.1,0l-0.1,0l-0.1,0L62,49
				l-0.1,0h0v0.4h0l0.1,0l0.1,0l0.1,0l0.1,0l0.1,0l0,0l0,0l0,0l0,0l0,0l0,0l0,0.1l0,0.1l0,0.1l0,0l0,0l0,0.1l0,0.1l0,0.1l0,0l0,0
				l0,0l-0.1,0l-0.1,0l-0.1,0l-0.1,0l-0.1,0l-0.1,0h-0.1h-0.1l-0.1,0l-0.1,0l-0.1,0l-0.1,0l-0.1,0l-0.1,0l-0.1,0l-0.1,0L61,50
				l-0.1,0l-0.1,0l-0.1,0l-0.1,0c-0.4-0.1-1-0.2-1.2-0.7c-0.2-0.3-0.2-0.7-0.2-1.1l0-0.1l0-0.1l0-0.1c0.1-0.3,0.2-0.6,0.4-0.9
				l0.1-0.1l0.1-0.1l0.1-0.1l0.1-0.1l0.1-0.1l0,0l-0.1,0l0,0l-0.1,0l0,0l0,0l0,0l0,0l-0.2-0.1l-0.2-0.2l0.2-0.2l0.1-0.1l0.1-0.1
				c0.2-0.1,0.3-0.3,0.6-0.4l0.1,0l0.1,0l0.1,0l0,0v-0.6h0l-0.1,0l-0.1,0l-0.1,0l-0.1,0c-0.3,0.2-0.5,0.4-0.8,0.7l0-0.4v0v0v0v0v0v0
				v0v0v0v0v0v0l0,0L59.5,45l-0.1,0.1l-0.1,0.1l-0.1,0.1l-0.1,0.1c-0.1,0.2-0.2,0.3-0.3,0.5l-0.1,0.1l-0.1,0.1l0,0.1l0,0.1l0,0.1
				l0,0.2c-0.1,0.4-0.1,0.7,0,1.1l0,0.2l0,0.2l0,0.2l0,0.2l0.1,0.2c0.1,0.3,0.1,0.4,0.3,0.6c0.3,0.4,0.6,0.5,1,0.7l0.2,0.1l0.2,0.1
				l0.2,0.1l0.2,0l0.2,0l0.2,0l0.2,0l0.1,0L61.5,50.6L61.5,50.6z M60.4,44.5L60.4,44.5l-0.1-0.1l0,0l-0.1-0.2l0,0l-0.1-0.1l0,0
				L60,43.9l0,0l-0.1-0.2h1.5h1.5l-0.1,0.2l0,0L62.6,44l0,0l-0.1,0.1l0,0l-0.1,0.2l0,0l-0.1,0.1l0,0l0,0.1h-0.9L60.4,44.5L60.4,44.5
				z M61.3,40.7L61.3,40.7l0.1,0.3h0.3v0.1h-0.3v0.3h-0.1v-0.3H61V41h0.3V40.7z M61.3,42c0.1,0,0.3-0.1,0.3-0.3
				c0-0.1-0.1-0.3-0.3-0.3s-0.3,0.1-0.3,0.3C61.1,41.9,61.2,42,61.3,42z M62.9,43.6L62.9,43.6L62.9,43.6l0.1-0.1l0,0l0-0.1l0-0.1
				l0-0.1l0-0.1l0-0.1l0-0.1l0-0.1l0-0.1l0-0.1l0-0.1v-0.1l0-0.1l0-0.1l0-0.1l0-0.1l0-0.1l0-0.1l0-0.1l0-0.1l0-0.1l0-0.1l0-0.1
				L63,42.1l-0.1-0.1L62.9,42L62.8,42l-0.1,0l-0.1,0l-0.1,0l-0.1,0l-0.1,0l-0.1,0l-0.1,0l-0.1,0l-0.1,0h-0.1h-0.1l0,0l0,0l0,0l0,0
				l0,0l0,0l0,0l0,0l0,0l0,0c-0.1,0.2-0.1,0.5-0.2,0.8c-0.1,0.3-0.1,0.6-0.2,0.9L62.9,43.6L62.9,43.6z M61.6,42.1L61.6,42.1
				L61.6,42.1L61.6,42.1l-0.1,0.1l0,0l0,0.1l0,0.1l0,0l0,0l0-0.1l0-0.1l0,0l0,0l0,0l0,0l0,0l0,0h0c0.1,0.2,0.1,0.4,0.2,0.7
				c0,0.2,0.1,0.4,0.1,0.6c0-0.2,0.1-0.4,0.1-0.6C61.5,42.5,61.5,42.3,61.6,42.1L61.6,42.1z M60.9,41.9L60.9,41.9L60.9,41.9
				l-0.1-0.1l0,0l0,0l0,0l0,0l0,0l0,0h-0.1h-0.1l-0.1,0l-0.1,0l-0.1,0l-0.1,0l-0.1,0l-0.1,0l-0.1,0l-0.1,0l-0.1,0L59.8,42l-0.1,0.1
				l-0.1,0.1l-0.1,0.1l0,0.1l0,0.1l0,0.1l0,0.1l0,0.1l0,0.1l0,0.1l0,0.1l0,0.1l0,0.1l0,0.1v0.1l0,0.1l0,0.1l0,0.1l0,0.1l0,0.1l0,0.1
				l0,0.1l0,0.1l0,0.1l0,0.1l0,0l0,0l0,0l0,0h1.5c-0.1-0.3-0.1-0.6-0.2-0.9C61,42.4,60.9,42.2,60.9,41.9L60.9,41.9z M57.4,54.7
				L57.4,54.7L57.4,54.7L57.4,54.7l0.1,0.1l0,0l0,0l0,0l0.1,0l0.1,0c0.1,0.1,0.2,0.1,0.4,0.1l0.1,0h0.1h0.1l0.1,0l0.1,0l0.1,0l0.1,0
				c0.1,0,0.2-0.1,0.2-0.1l0.1,0l0.1,0l0.1,0l0.1-0.1l0.1-0.1l0.1-0.1l0.1-0.1l0.1-0.1l0.1-0.1l0.1-0.1l0.1-0.1l0.1-0.1l0.1-0.1
				c0.2-0.2,0.4-0.5,0.6-0.8l0.1-0.1l0.1-0.1l0.1-0.1l0.1-0.1l0.1-0.1l0.1-0.1v0v0V53v0v0.1v0v0v0l-0.1,0.2l-0.1,0.2l-0.1,0.2
				c-0.2,0.3-0.4,0.6-0.6,0.8l-0.1,0.1l-0.1,0.1l-0.1,0.1L59.5,55l-0.1,0.1c-0.2,0.1-0.3,0.2-0.5,0.3l-0.1,0l-0.1,0l-0.1,0
				c-0.1,0-0.2,0-0.3,0l-0.1,0l-0.1,0l-0.1,0c-0.3-0.1-0.5-0.2-0.6-0.6l0,0l0,0l0,0l0,0V54.7L57.4,54.7L57.4,54.7L57.4,54.7z
				 M61.8,44.7V50c-0.2,0-0.5-0.1-0.8-0.2v-5.1h0.4H61.8z M61.8,50.7v4.4c-0.3,0.1-0.6,0.1-0.8,0.1v-4.5
				C61.2,50.7,61.5,50.8,61.8,50.7z M61.9,45.4L61.9,45.4l0.2,0.1l0.1,0l0.1,0.1c0.2,0.1,0.5,0.2,0.6,0.4l0,0.1l0,0.1l0,0.1l0,0.1
				l0,0.1l0,0.1l0,0.1l0,0.1l0,0.1l0,0.1v0.1v0.1l0,0.1l0,0.1l0,0.1l0,0.1l0,0l0,0l0,0l0,0v0h0l0,0l0,0h0h0c0.3,0,0.6-0.3,0.4-1.3
				c0.2,0.3,0.2,0.5,0.2,0.8c0,0.4-0.2,0.9-0.4,1.3l0,0l0,0l0,0l0,0l0,0l0,0l0,0l0,0l0,0l0,0l0.1,0l0.1,0l0.1,0l0.1,0l0.1,0l0.1,0
				l0.1,0l0.1,0c0.2-0.1,0.3-0.2,0.4-0.4l0-0.1l0-0.1l0-0.1l0-0.1l0-0.1l0-0.1l0-0.1c0-0.3,0-0.6-0.1-0.9l0-0.1l0-0.1l0-0.1l0-0.1
				l0-0.1l0-0.1l0-0.1l0-0.1l0-0.1l0-0.1l0-0.1l-0.1-0.1l-0.1-0.1l-0.1-0.1l-0.1,0l-0.1,0l-0.1,0l-0.1,0l-0.1,0
				c-0.2-0.1-0.5-0.2-0.8-0.3l-0.1,0l-0.1,0l-0.1,0l-0.1,0l-0.1,0l-0.1,0h0L61.9,45.4L61.9,45.4z M60.8,49L60.8,49
				c-0.5,0.1-0.8,0.1-1.2,0.2c0,0,0,0,0,0.1c0.1,0.1,0.2,0.3,0.4,0.3c0.2-0.1,0.4-0.1,0.6-0.1l0.1,0l0,0L60.8,49L60.8,49z M59,49.6
				l-0.1,0.1l-0.1,0.1c-0.3,0.3-0.6,0.7-0.8,1.1l-0.1,0.1l-0.1,0.1l-0.1,0.1l0,0.1c-0.1,0.3-0.1,0.6-0.1,0.9l0,0.2l0,0.2
				c0.1,0.5,0.2,1,0.4,1.4l0.1,0.2l0,0.1l0,0.1l0,0.1l0,0.1l0,0.1l0,0.1l0,0.1l0,0c0.1,0,0.3-0.1,0.4-0.1c0.1-0.1,0.3-0.2,0.4-0.3
				l-0.1-0.1l-0.1-0.1L59,54.2c-0.3-0.5-0.4-0.9-0.4-1.4l0-0.1l0-0.1v-0.1c0-0.3,0-0.6,0.1-0.8l0-0.1l0-0.1l0-0.1l0-0.1l0-0.1l0-0.1
				l0-0.1l0.1-0.1l0.1-0.1l0.1-0.1l0.1-0.1l0.1-0.1l0.1-0.1l0.1-0.1C59.2,49.9,59.1,49.8,59,49.6C58.9,49.7,58.9,49.7,59,49.6
				L59,49.6z M58.9,55.6L58.9,55.6l0.1,0.1l0.1,0.1l0.1,0.1l0.1,0.1c0.3,0.2,0.6,0.4,0.9,0.6l0.1,0l0.1,0l0.1,0l0.1,0
				c0.2,0.1,0.4,0.1,0.7,0.1l0.1,0l0.1,0l0.1,0l0.1,0h0.1h0.1h0.1l0.1,0l0.1,0l0.1,0l0.1,0l0.1,0l0.1,0l0.1,0l0.1,0l0.1,0
				c0.2-0.1,0.5-0.1,0.7-0.2l0.1,0c0.4-0.2,0.8-0.4,1.1-0.7l0.1-0.1l0.1-0.1l0.1-0.1l0.1-0.1l0.1-0.1l0.1-0.1l0-0.1l0-0.1l0-0.1
				l0-0.1l0.1-0.1l0-0.1l0-0.1l0-0.1c0.1-0.6,0.2-1.2,0.1-1.9l0-0.1l0-0.1l0-0.1c-0.1-0.2-0.2-0.4-0.3-0.6l-0.1-0.1L65,51.2
				l-0.1-0.1c-0.2-0.2-0.4-0.3-0.6-0.4l-0.1,0l-0.1,0l-0.1,0l-0.1,0l-0.1,0l-0.1,0l0,0l0,0h0h0l0,0l0,0l0,0l0,0l0,0l0,0l0,0l0,0l0,0
				l0,0l0,0l0,0l0,0l0,0l0,0l0,0l0,0l0,0c-0.1,0.2-0.1,0.4,0,0.5l0,0l0,0l0,0l0,0l0,0l0,0l0,0l0,0l0,0l0,0l0,0l0,0l0,0l0,0l0,0l0,0
				l0,0l0,0h0v0v0v0l0,0l0,0l0,0l0-0.1l0-0.1l-0.1-0.4l0.5,0.3l0.2,0.1c0.2,0.2,0.4,0.4,0.5,0.7l0.1,0.2c0.1,0.4,0.1,0.8,0,1.2
				l0,0.2l-0.1,0.2l-0.1,0.2l-0.1,0.2l-0.1,0.2c-0.2,0.4-0.4,0.7-0.8,0.9l-0.1,0.1l-0.1,0.1l-0.1,0.1L63,55.7l-0.4,0.1l0.1-0.3l0,0
				l0,0l0,0l0,0l0,0l0,0l0,0l0,0l0,0l0,0l0,0l0,0l0,0l0,0v0v0v0v0v0v0v0v0v0l0,0v0l-0.1,0l-0.2,0.1l-0.2,0.1L62,55.3l-0.2,0l-0.2,0
				l-0.2,0l-0.2,0l-0.2,0H61l-0.2,0l-0.1,0c-0.2,0-0.4-0.1-0.7-0.2l-0.1-0.1l-0.1-0.1l-0.1,0C59.5,55.3,59.2,55.5,58.9,55.6
				L58.9,55.6z"/>
			<path class="st2" d="M40.8,85.4c1.5,0,2.8,1.3,2.8,2.8S42.4,91,40.8,91c-1.5,0-2.8-1.3-2.8-2.8S39.3,85.4,40.8,85.4z M82.3,85.4
				c1.5,0,2.8,1.3,2.8,2.8S83.8,91,82.3,91c-1.5,0-2.8-1.3-2.8-2.8S80.7,85.4,82.3,85.4z M71.9,85.4c1.5,0,2.8,1.3,2.8,2.8
				S73.5,91,71.9,91s-2.8-1.3-2.8-2.8S70.4,85.4,71.9,85.4z M61.6,85.4c1.5,0,2.8,1.3,2.8,2.8S63.1,91,61.6,91
				c-1.5,0-2.8-1.3-2.8-2.8S60,85.4,61.6,85.4z M51.2,85.4c1.5,0,2.8,1.3,2.8,2.8S52.7,91,51.2,91c-1.5,0-2.8-1.3-2.8-2.8
				S49.6,85.4,51.2,85.4z"/>
			<path class="st6" d="M40.8,85.6l0.1,0l0.1,0l0.1,0l0.1,0l0.1,0l0.1,0l0.1,0l0.1,0l0.1,0.1l0.1,0.1l0.1,0.1l0.1,0.1l0.1,0.1
				l0.1,0.1l0.1,0.1l0.1,0.1l0.1,0.1l0.1,0.1l0.1,0.1l0.1,0.1l0.1,0.1l0.1,0.1l0.1,0.1l0.1,0.1l0,0.1l0,0.1l0,0.1l0,0.1l0,0.1l0,0.1
				l0,0.1l0,0.1l0,0.1l0,0.1l0,0.1l0,0.1l0,0.1l0,0.1l0,0.1l0,0.1l-0.1,0.1l-0.1,0.1L43,89.5L43,89.6l-0.1,0.1l-0.1,0.1l-0.1,0.1
				L42.7,90l-0.1,0.1l-0.1,0.1l-0.1,0.1l-0.1,0.1l-0.1,0.1l-0.1,0.1l-0.1,0.1l-0.1,0.1l-0.1,0l-0.1,0l-0.1,0l-0.1,0l-0.1,0l-0.1,0
				l-0.1,0l-0.1,0l-0.1,0l-0.1,0l-0.1,0l-0.1,0l-0.1,0l-0.1,0l-0.1,0l-0.1,0l-0.1-0.1l-0.1-0.1l-0.1-0.1l-0.1-0.1l-0.1-0.1l-0.1-0.1
				l-0.1-0.1L39,90l-0.1-0.1l-0.1-0.1l-0.1-0.1l-0.1-0.1l-0.1-0.1l-0.1-0.1l-0.1-0.1l-0.1-0.1l0-0.1l0-0.1l0-0.1l0-0.1l0-0.1l0-0.1
				l0-0.1l0-0.1l0-0.1l0-0.1l0-0.1l0-0.1l0-0.1l0-0.1l0-0.1l0-0.1l0.1-0.1l0.1-0.1l0.1-0.1l0.1-0.1l0.1-0.1l0.1-0.1l0.1-0.1l0.1-0.1
				l0.1-0.1l0.1-0.1l0.1-0.1l0.1-0.1l0.1-0.1l0.1-0.1l0.1-0.1l0.1-0.1l0.1,0l0.1,0l0.1,0l0.1,0l0.1,0l0.1,0l0.1,0L40.8,85.6z
				 M82.3,85.6l0.1,0l0.1,0l0.1,0l0.1,0l0.1,0l0.1,0l0.1,0l0.1,0l0.1,0.1l0.1,0.1l0.1,0.1l0.1,0.1l0.1,0.1l0.1,0.1l0.1,0.1l0.1,0.1
				l0.1,0.1l0.1,0.1l0.1,0.1l0.1,0.1l0.1,0.1l0.1,0.1l0.1,0.1l0.1,0.1l0,0.1l0,0.1l0,0.1l0,0.1l0,0.1l0,0.1l0,0.1l0,0.1l0,0.1l0,0.1
				l0,0.1l0,0.1l0,0.1l0,0.1l0,0.1l0,0.1l-0.1,0.1l-0.1,0.1l-0.1,0.1l-0.1,0.1l-0.1,0.1l-0.1,0.1l-0.1,0.1L84.1,90L84,90.1l-0.1,0.1
				l-0.1,0.1l-0.1,0.1l-0.1,0.1l-0.1,0.1l-0.1,0.1l-0.1,0.1l-0.1,0l-0.1,0l-0.1,0l-0.1,0l-0.1,0l-0.1,0l-0.1,0l-0.1,0l-0.1,0l-0.1,0
				l-0.1,0l-0.1,0l-0.1,0l-0.1,0l-0.1,0l-0.1,0l-0.1-0.1l-0.1-0.1l-0.1-0.1l-0.1-0.1l-0.1-0.1l-0.1-0.1l-0.1-0.1L80.5,90l-0.1-0.1
				l-0.1-0.1l-0.1-0.1l-0.1-0.1l-0.1-0.1L80,89.4l-0.1-0.1l-0.1-0.1l0-0.1l0-0.1l0-0.1l0-0.1l0-0.1l0-0.1l0-0.1l0-0.1l0-0.1l0-0.1
				l0-0.1l0-0.1l0-0.1l0-0.1l0-0.1l0-0.1l0.1-0.1l0.1-0.1l0.1-0.1l0.1-0.1l0.1-0.1l0.1-0.1l0.1-0.1l0.1-0.1l0.1-0.1l0.1-0.1l0.1-0.1
				l0.1-0.1l0.1-0.1l0.1-0.1l0.1-0.1l0.1-0.1l0.1,0l0.1,0l0.1,0l0.1,0l0.1,0l0.1,0l0.1,0L82.3,85.6z M71.9,85.6l0.1,0l0.1,0l0.1,0
				l0.1,0l0.1,0l0.1,0l0.1,0l0.1,0l0.1,0.1l0.1,0.1l0.1,0.1l0.1,0.1l0.1,0.1l0.1,0.1l0.1,0.1l0.1,0.1l0.1,0.1l0.1,0.1l0.1,0.1
				l0.1,0.1l0.1,0.1l0.1,0.1l0.1,0.1l0.1,0.1l0,0.1l0,0.1l0,0.1l0,0.1l0,0.1l0,0.1l0,0.1l0,0.1l0,0.1l0,0.1l0,0.1l0,0.1l0,0.1l0,0.1
				l0,0.1l0,0.1l-0.1,0.1l-0.1,0.1l-0.1,0.1l-0.1,0.1L74,89.7l-0.1,0.1l-0.1,0.1L73.8,90l-0.1,0.1l-0.1,0.1l-0.1,0.1l-0.1,0.1
				l-0.1,0.1l-0.1,0.1L73,90.5l-0.1,0.1l-0.1,0l-0.1,0l-0.1,0l-0.1,0l-0.1,0l-0.1,0l-0.1,0l-0.1,0l-0.1,0l-0.1,0l-0.1,0l-0.1,0
				l-0.1,0l-0.1,0l-0.1,0l-0.1,0l-0.1-0.1l-0.1-0.1l-0.1-0.1l-0.1-0.1l-0.1-0.1l-0.1-0.1l-0.1-0.1L70.1,90L70,89.9l-0.1-0.1
				l-0.1-0.1l-0.1-0.1l-0.1-0.1l-0.1-0.1l-0.1-0.1l-0.1-0.1l0-0.1l0-0.1l0-0.1l0-0.1l0-0.1l0-0.1l0-0.1l0-0.1l0-0.1l0-0.1l0-0.1
				l0-0.1l0-0.1l0-0.1l0-0.1l0-0.1l0.1-0.1l0.1-0.1l0.1-0.1l0.1-0.1l0.1-0.1l0.1-0.1l0.1-0.1l0.1-0.1l0.1-0.1l0.1-0.1l0.1-0.1
				l0.1-0.1l0.1-0.1l0.1-0.1l0.1-0.1l0.1-0.1l0.1,0l0.1,0l0.1,0l0.1,0l0.1,0l0.1,0l0.1,0L71.9,85.6z M61.6,85.6l0.1,0l0.1,0l0.1,0
				l0.1,0l0.1,0l0.1,0l0.1,0l0.1,0l0.1,0.1l0.1,0.1l0.1,0.1L63,86l0.1,0.1l0.1,0.1l0.1,0.1l0.1,0.1l0.1,0.1l0.1,0.1l0.1,0.1l0.1,0.1
				l0.1,0.1l0.1,0.1l0.1,0.1l0.1,0.1l0,0.1l0,0.1l0,0.1l0,0.1l0,0.1l0,0.1l0,0.1l0,0.1l0,0.1l0,0.1l0,0.1l0,0.1l0,0.1l0,0.1l0,0.1
				l0,0.1l-0.1,0.1l-0.1,0.1l-0.1,0.1l-0.1,0.1l-0.1,0.1l-0.1,0.1l-0.1,0.1L63.4,90l-0.1,0.1l-0.1,0.1l-0.1,0.1L63,90.3l-0.1,0.1
				l-0.1,0.1l-0.1,0.1l-0.1,0.1l-0.1,0l-0.1,0l-0.1,0l-0.1,0l-0.1,0l-0.1,0l-0.1,0l-0.1,0l-0.1,0l-0.1,0l-0.1,0l-0.1,0l-0.1,0
				l-0.1,0l-0.1,0l-0.1,0l-0.1-0.1l-0.1-0.1l-0.1-0.1l-0.1-0.1L60,90.3l-0.1-0.1l-0.1-0.1L59.7,90l-0.1-0.1l-0.1-0.1l-0.1-0.1
				l-0.1-0.1l-0.1-0.1l-0.1-0.1l-0.1-0.1l-0.1-0.1l0-0.1l0-0.1l0-0.1l0-0.1l0-0.1l0-0.1l0-0.1l0-0.1l0-0.1l0-0.1l0-0.1l0-0.1l0-0.1
				l0-0.1l0-0.1l0-0.1l0.1-0.1l0.1-0.1l0.1-0.1l0.1-0.1l0.1-0.1l0.1-0.1l0.1-0.1l0.1-0.1l0.1-0.1l0.1-0.1l0.1-0.1l0.1-0.1l0.1-0.1
				l0.1-0.1l0.1-0.1l0.1-0.1l0.1,0l0.1,0l0.1,0l0.1,0l0.1,0l0.1,0l0.1,0L61.6,85.6z M51.2,85.6l0.1,0l0.1,0l0.1,0l0.1,0l0.1,0l0.1,0
				l0.1,0l0.1,0l0.1,0.1l0.1,0.1l0.1,0.1l0.1,0.1l0.1,0.1l0.1,0.1l0.1,0.1l0.1,0.1l0.1,0.1l0.1,0.1l0.1,0.1l0.1,0.1l0.1,0.1l0.1,0.1
				l0.1,0.1l0.1,0.1l0,0.1l0,0.1l0,0.1l0,0.1l0,0.1l0,0.1l0,0.1l0,0.1l0,0.1l0,0.1l0,0.1l0,0.1l0,0.1l0,0.1l0,0.1l0,0.1l-0.1,0.1
				l-0.1,0.1l-0.1,0.1l-0.1,0.1l-0.1,0.1l-0.1,0.1l-0.1,0.1L53,90l-0.1,0.1l-0.1,0.1l-0.1,0.1l-0.1,0.1l-0.1,0.1l-0.1,0.1l-0.1,0.1
				l-0.1,0.1l-0.1,0l-0.1,0l-0.1,0l-0.1,0l-0.1,0l-0.1,0l-0.1,0l-0.1,0l-0.1,0l-0.1,0l-0.1,0l-0.1,0l-0.1,0l-0.1,0l-0.1,0l-0.1,0
				l-0.1-0.1L50,90.5l-0.1-0.1l-0.1-0.1l-0.1-0.1l-0.1-0.1l-0.1-0.1L49.3,90l-0.1-0.1l-0.1-0.1l-0.1-0.1L49,89.6L49,89.5l-0.1-0.1
				l-0.1-0.1l-0.1-0.1l0-0.1l0-0.1l0-0.1l0-0.1l0-0.1l0-0.1l0-0.1l0-0.1l0-0.1l0-0.1l0-0.1l0-0.1l0-0.1l0-0.1l0-0.1l0-0.1l0.1-0.1
				l0.1-0.1l0.1-0.1l0.1-0.1l0.1-0.1l0.1-0.1l0.1-0.1l0.1-0.1l0.1-0.1l0.1-0.1l0.1-0.1l0.1-0.1l0.1-0.1l0.1-0.1l0.1-0.1l0.1-0.1
				l0.1,0l0.1,0l0.1,0l0.1,0l0.1,0l0.1,0l0.1,0L51.2,85.6z"/>
			<path class="st7" d="M61.5,34.8L58.7,33l2.8-1.5l2.8,1.5L61.5,34.8z M70.4,20.4c-0.6,0-1,0.5-1,1s0.5,1,1,1c0.6,0,1-0.5,1-1
				S71,20.4,70.4,20.4z M71.4,22.5c-0.6,0-1,0.5-1,1s0.5,1,1,1c0.6,0,1-0.5,1-1S72,22.5,71.4,22.5z M69.1,22.4c-0.6,0-1,0.5-1,1
				s0.5,1,1,1c0.6,0,1-0.5,1-1S69.7,22.4,69.1,22.4z M66.4,23.2L66.4,23.2l-0.1,0l-0.1,0l-0.1,0l-0.1,0l0,0l0,0l0,0l0,0l0,0l0,0l0,0
				l0,0l0,0l0,0l0,0l0,0l0,0l0,0l0,0l0,0l0,0l0,0l0,0l0,0l0,0l0,0l0,0.1l0,0.1l0,0.1l0,0.1v0.1v0.1l0,0.1l0,0.1l0,0.1l0,0.1l0,0l0,0
				l0,0l0,0l0,0l0,0l0,0l0,0l0,0l0,0l0,0l0,0l0,0l0,0l0,0l0,0l0,0l0,0l0,0l0,0l0,0l0,0l0.1,0l0.1,0l0.1,0l0.1,0h0.1h0.1l0.1,0l0.1,0
				l0.1,0l0.1,0l0,0l0,0l0,0l0,0l0,0l0,0l0,0l0,0l0,0l0,0l0,0l0,0l0,0l0,0l0,0l0,0l0,0l0,0l0,0l0,0l0,0l0,0l0-0.1l0-0.1l0-0.1l0-0.1
				v-0.1v-0.1l0-0.1l0-0.1l0-0.1l0-0.1l0,0l0,0l0,0l0,0l0,0l0,0l0,0l0,0l0,0l0,0l0,0l0,0l0,0l0,0l0,0l0,0l0,0l0,0l0,0l0,0l0,0l0,0
				l-0.1,0l-0.1,0l-0.1,0L66.4,23.2L66.4,23.2z M73.8,24.3L73.8,24.3l-0.1,0l-0.1,0l-0.1,0l-0.1,0l0,0l0,0l0,0l0,0l0,0l0,0l0,0l0,0
				l0,0l0,0l0,0l0,0l0,0l0,0l0,0l0,0l0,0l0,0l0,0l0,0l0,0l0,0l0,0.1l0,0.1l0,0.1l0,0.1v0.1v0.1l0,0.1l0,0.1l0,0.1l0,0.1l0,0l0,0l0,0
				l0,0l0,0l0,0l0,0l0,0l0,0l0,0l0,0l0,0l0,0l0,0l0,0l0,0l0,0l0,0l0,0l0,0l0,0l0,0l0.1,0l0.1,0l0.1,0l0.1,0h0.1h0.1l0.1,0l0.1,0
				l0.1,0l0.1,0l0,0l0,0l0,0l0,0l0,0l0,0l0,0l0,0l0,0l0,0l0,0l0,0l0,0l0,0l0,0l0,0l0,0l0,0l0,0l0,0l0,0l0,0l0-0.1l0-0.1l0-0.1l0-0.1
				v-0.1v-0.1l0-0.1l0-0.1l0-0.1l0-0.1l0,0l0,0l0,0l0,0l0,0l0,0l0,0l0,0l0,0l0,0l0,0l0,0l0,0l0,0l0,0l0,0l0,0l0,0l0,0l0,0l0,0l0,0
				l-0.1,0l-0.1,0l-0.1,0L73.8,24.3L73.8,24.3z M61.5,20.3C61.5,20.3,61.5,20.3,61.5,20.3C61.5,20.3,61.5,20.3,61.5,20.3
				c-0.5,0-0.9,0.6-0.9,1.3c0,0.7,0.4,1.3,0.9,1.3c0,0,0,0,0,0c0,0,0,0,0,0c0.5,0,0.9-0.6,0.9-1.3C62.4,20.9,62,20.3,61.5,20.3z
				 M69.2,32.1l-0.1,0l-0.1,0l-0.1,0h-0.1h-0.1l-0.1,0l-0.1,0l-0.1,0l-0.1,0l-0.1,0l-0.1,0l-0.1,0l-0.1,0l-0.1,0l-0.1,0l-0.1,0
				l-0.1,0l-0.1,0l-0.1,0l-0.1,0l-0.1,0l-0.1,0l-0.1,0l0,0l0,0l0,0l0,0l0,0l0,0l0,0l0,0l0,0.1l0,0.1v0.1l0,0.1l0,0.1l0,0.1l0,0.1
				l0,0.1l0,0.1l0,0.1l0,0.1l0,0.1l0,0.1l0.1,0.1l0.1,0.1l0.1,0.1l0.1,0.1l0.1,0.1l0.1,0.1l0.1,0l0.1,0l0.1,0l0.1,0l0.1,0l0.1,0
				l0.1,0l0.1,0l0.1,0l0.1,0l0.1,0l0.1,0l0.1,0l0.1,0l0.1,0l0.1,0l0.1,0h0.1h0.1l0.1,0l0.1,0l0.1,0l0.1,0l0.1,0l0.1,0l0.1,0l0.1,0
				l0.1,0l0.1,0l0.1,0l0.1,0l0.1,0l0.1,0l0.1,0l0.1,0l0.1,0l0.1,0l0,0l0,0l0,0l0,0l0,0l0,0l0,0l0,0l0-0.1l0-0.1v-0.1l0-0.1l0-0.1
				l0-0.1l0-0.1l0-0.1l0-0.1l0-0.1l0-0.1l0-0.1l0-0.1L71,32.9l-0.1-0.1l-0.1-0.1l-0.1-0.1l-0.1-0.1l-0.1-0.1l-0.1,0l-0.1,0l-0.1,0
				l-0.1,0l-0.1,0l-0.1,0l-0.1,0l-0.1,0l-0.1,0l-0.1,0l-0.1,0l-0.1,0l-0.1,0L69.2,32.1z M79,25.9L79,25.9l0.1-0.2l0.1-0.1l0.1-0.1
				l0.1-0.1l0.1-0.1l0.1-0.1l0-0.1l0-0.1l0-0.1l0-0.1l0-0.1l0-0.1l0-0.1l0-0.1l0-0.1l0-0.1l0-0.1l0-0.1l0-0.1l0-0.1l0-0.1l0-0.1
				l0-0.1l0-0.1v-0.1v-0.1l0-0.1l0-0.1l0-0.1l0-0.1l0-0.1l0-0.1l0-0.1l0-0.1c-0.4,0.3-0.7,0.6-0.8,0.9S78.9,25.5,79,25.9L79,25.9z
				 M76.8,36.1L76.8,36.1l0.2-0.2l0.1-0.1l0.1-0.1l0.1-0.1l0.1-0.1l0.1-0.1l0.1-0.1l0.1-0.1l0.1-0.1l0.1-0.1l0-0.1l0-0.1l0-0.1
				l0-0.1l0-0.1l0-0.1v-0.1l0-0.1l0-0.1l0-0.1l0-0.1l0-0.1l0-0.1l-0.1-0.1l-0.1-0.1l-0.1-0.1l-0.1-0.1L77.4,33l-0.1-0.1l-0.1-0.1
				l0-0.1l-3,1.3L76.8,36.1L76.8,36.1z M52.6,20.4c0.6,0,1,0.5,1,1s-0.5,1-1,1s-1-0.5-1-1S52,20.4,52.6,20.4z M51.6,22.5
				c0.6,0,1,0.5,1,1s-0.5,1-1,1s-1-0.5-1-1S51,22.5,51.6,22.5z M53.9,22.4c0.6,0,1,0.5,1,1s-0.5,1-1,1s-1-0.5-1-1
				S53.3,22.4,53.9,22.4z M56.5,23.2L56.5,23.2l0.1,0l0.1,0l0.1,0l0.1,0l0,0l0,0l0,0l0,0l0,0l0,0l0,0l0,0l0,0l0,0l0,0l0,0l0,0l0,0
				l0,0l0,0l0,0l0,0l0,0l0,0l0,0l0,0l0,0.1l0,0.1l0,0.1l0,0.1v0.1v0.1l0,0.1l0,0.1l0,0.1l0,0.1l0,0l0,0l0,0l0,0l0,0l0,0l0,0l0,0l0,0
				l0,0l0,0l0,0l0,0l0,0l0,0l0,0l0,0l0,0l0,0l0,0l0,0l0,0l-0.1,0l-0.1,0l-0.1,0l-0.1,0h-0.1h-0.1l-0.1,0l-0.1,0l-0.1,0l-0.1,0l0,0
				l0,0l0,0l0,0l0,0l0,0l0,0l0,0l0,0l0,0l0,0l0,0l0,0l0,0l0,0l0,0l0,0l0,0l0,0l0,0l0,0l0,0l0-0.1l0-0.1l0-0.1l0-0.1v-0.1v-0.1l0-0.1
				l0-0.1l0-0.1l0-0.1l0,0l0,0l0,0l0,0l0,0l0,0l0,0l0,0l0,0l0,0l0,0l0,0l0,0l0,0l0,0l0,0l0,0l0,0l0,0l0,0l0,0l0,0l0.1,0l0.1,0l0.1,0
				L56.5,23.2L56.5,23.2z M49.2,24.3L49.2,24.3l0.1,0l0.1,0l0.1,0l0.1,0l0,0l0,0l0,0l0,0l0,0l0,0l0,0l0,0l0,0l0,0l0,0l0,0l0,0l0,0
				l0,0l0,0l0,0l0,0l0,0l0,0l0,0l0,0l0,0.1l0,0.1l0,0.1l0,0.1v0.1v0.1l0,0.1l0,0.1l0,0.1l0,0.1l0,0l0,0l0,0l0,0l0,0l0,0l0,0l0,0l0,0
				l0,0l0,0l0,0l0,0l0,0l0,0l0,0l0,0l0,0l0,0l0,0l0,0l0,0l-0.1,0l-0.1,0l-0.1,0l-0.1,0h-0.1h-0.1l-0.1,0l-0.1,0l-0.1,0l-0.1,0l0,0
				l0,0l0,0l0,0l0,0l0,0l0,0l0,0l0,0l0,0l0,0l0,0l0,0l0,0l0,0l0,0l0,0l0,0l0,0l0,0l0,0l0,0l0-0.1l0-0.1l0-0.1l0-0.1v-0.1v-0.1l0-0.1
				l0-0.1l0-0.1l0-0.1l0,0l0,0l0,0l0,0l0,0l0,0l0,0l0,0l0,0l0,0l0,0l0,0l0,0l0,0l0,0l0,0l0,0l0,0l0,0l0,0l0,0l0,0l0.1,0l0.1,0l0.1,0
				L49.2,24.3L49.2,24.3z M53.8,32.1l0.1,0l0.1,0l0.1,0h0.1h0.1l0.1,0l0.1,0l0.1,0l0.1,0l0.1,0l0.1,0l0.1,0l0.1,0l0.1,0l0.1,0l0.1,0
				l0.1,0l0.1,0l0.1,0l0.1,0l0.1,0l0.1,0l0.1,0l0,0l0,0l0,0l0,0l0,0l0,0l0,0l0,0l0,0.1l0,0.1v0.1l0,0.1l0,0.1l0,0.1l0,0.1l0,0.1
				l0,0.1l0,0.1l0,0.1l0,0.1l0,0.1l-0.1,0.1l-0.1,0.1l-0.1,0.1l-0.1,0.1l-0.1,0.1l-0.1,0.1l-0.1,0l-0.1,0l-0.1,0l-0.1,0l-0.1,0
				l-0.1,0l-0.1,0l-0.1,0l-0.1,0l-0.1,0l-0.1,0l-0.1,0l-0.1,0l-0.1,0l-0.1,0l-0.1,0l-0.1,0h-0.1h-0.1l-0.1,0l-0.1,0l-0.1,0l-0.1,0
				l-0.1,0l-0.1,0l-0.1,0l-0.1,0l-0.1,0l-0.1,0l-0.1,0l-0.1,0l-0.1,0l-0.1,0l-0.1,0l-0.1,0L52,34l-0.1,0l0,0l0,0l0,0l0,0l0,0l0,0
				l0,0l0,0l0-0.1l0-0.1v-0.1l0-0.1l0-0.1l0-0.1l0-0.1l0-0.1l0-0.1l0-0.1l0-0.1l0-0.1l0-0.1l0.1-0.1l0.1-0.1l0.1-0.1l0.1-0.1
				l0.1-0.1l0.1-0.1l0.1,0l0.1,0l0.1,0l0.1,0l0.1,0l0.1,0l0.1,0l0.1,0l0.1,0l0.1,0l0.1,0l0.1,0l0.1,0L53.8,32.1z M44,25.9L44,25.9
				l-0.1-0.2l-0.1-0.1l-0.1-0.1l-0.1-0.1l-0.1-0.1l-0.1-0.1l0-0.1l0-0.1l0-0.1l0-0.1l0-0.1l0-0.1l0-0.1l0-0.1l0-0.1l0-0.1l0-0.1
				l0-0.1l0-0.1l0-0.1l0-0.1l0-0.1l0-0.1l0-0.1v-0.1v-0.1l0-0.1l0-0.1l0-0.1l0-0.1l0-0.1l0-0.1l0-0.1l0-0.1c0.4,0.3,0.7,0.6,0.8,0.9
				C44.1,25.1,44.1,25.5,44,25.9L44,25.9z M46.2,36.1L46.2,36.1L46,35.9l-0.1-0.1l-0.1-0.1l-0.1-0.1l-0.1-0.1l-0.1-0.1l-0.1-0.1
				l-0.1-0.1l-0.1-0.1L45.3,35l0-0.1l0-0.1l0-0.1l0-0.1l0-0.1l0-0.1v-0.1l0-0.1l0-0.1l0-0.1l0-0.1l0-0.1l0-0.1l0.1-0.1l0.1-0.1
				l0.1-0.1l0.1-0.1l0.1-0.1l0.1-0.1l0.1-0.1l0-0.1l3,1.3L46.2,36.1L46.2,36.1z"/>
			<path class="st6" d="M45.8,32.1L45.8,32.1L45.8,32.1L45.8,32.1L45.8,32.1l0-0.1l0,0l0,0v0v0v0v0v0v0l0,0l0,0v0
				c2.4-0.7,5.2-1.2,8.3-1.4c2.3-0.2,4.8-0.3,7.4-0.3c2.6,0,5.1,0.1,7.4,0.3c3.1,0.3,5.9,0.8,8.3,1.4v0l0,0l0,0v0v0v0v0v0v0l0,0l0,0
				l0,0l0,0l0,0l0,0l0,0l0,0l0,0l0,0l0,0l0,0l0,0l0,0L77,32.4c-2.3-0.6-4.9-1-7.8-1.3c-2.4-0.2-5-0.3-7.7-0.3
				c-2.7,0-5.3,0.1-7.7,0.3c-2.9,0.3-5.5,0.7-7.8,1.3l-0.1-0.1l0,0l0,0L45.8,32.1L45.8,32.1L45.8,32.1L45.8,32.1L45.8,32.1
				L45.8,32.1z M77.1,31.4L77.1,31.4l0-0.4l0-0.2l0-0.2l0-0.2l0.1-0.2l0.1-0.2l0.1-0.2l0.1-0.2l0.1-0.2l0.1-0.2l0.1-0.2l0.1-0.2
				l0.1-0.2l0.1-0.2l0.1-0.2l0.1-0.2L78,28l0.1-0.2l0.1-0.2l0.1-0.2l0.1-0.2l0.1-0.2l0.1-0.2l0.1-0.2l0.1-0.1l0.1-0.1l0.1-0.1
				l0.1-0.1l0.1-0.1c-0.1-0.3-0.2-0.6-0.2-0.9l-2.1,0.9l2.1-1.2c0-0.1,0-0.3,0.1-0.4l-1.9-1.1l2,0.9c0.1-0.1,0.1-0.2,0.2-0.3
				l-1.3-2.8l1.5,2.5c0.1-0.1,0.2-0.2,0.4-0.3l-0.1-2.9L80,23l0,0l0.1-0.2l0.1-0.2l0.1-0.2l0.1-0.2l0.1-0.2l0.1-0.1l0.1-0.1l0.1-0.1
				l0.1-0.1l0.1-0.1l0.1-0.1l0.1-0.1l0.1-0.1L81,21l0.1-0.1l0.1-0.1l0.1-0.1l0.1-0.1l0.1-0.1l0.1-0.1l0.1-0.1l0.1-0.1l0.1-0.1
				l0.1-0.1l0.1-0.1l0.1-0.1l0.1-0.1l0.1-0.1l0.1-0.1l0.1-0.1l0-0.1l0-0.1l0-0.1l0-0.1l0-0.1l0-0.1v0l0,0l0,0l0,0l0,0l0,0l0,0l0,0
				l0,0l-0.1,0h-0.1l-0.1,0l-0.1,0l-0.1,0l-0.1,0l-0.1,0l-0.1,0L81.3,19L81.2,19L81,19.1l-0.2,0.1l-0.2,0.1l-0.4,0.2L80,19.1
				L79.9,19l-0.1-0.1l-0.1-0.1l-0.1-0.1l-0.1-0.1l-0.1-0.1l-0.1,0l-0.1,0l-0.1,0l-0.1,0l-0.1,0h-0.1l-0.1,0l-0.1,0l-0.1,0l-0.1,0
				l-0.1,0l-0.1,0l-0.1,0.1l-0.1,0.1l-0.1,0.1L78.6,19l-0.1,0.1l-0.1,0.1l-0.1,0.1l-0.1,0.1l-0.1,0.1l-0.1,0.1L78,19.8L78,20
				l-0.2,0.4l-0.3-0.1l-0.1,0l-0.1,0l-0.1,0l-0.1,0l-0.1,0H77h0l0,0l0,0l0,0l0,0l0,0l0,0l0,0l0,0l0,0l0,0l0,0l0,0.1l0,0.1l0,0.1
				l0,0.1l0,0.1l0,0.1l0,0.1v0.1v0.1l0,0.1l0,0.1l0,0.1l0,0.4L76.3,22l-0.2,0.1l-0.2,0.1l-0.1,0.1l-0.1,0.1l-0.1,0.1l-0.1,0.1
				l-0.1,0.1l-0.1,0.1l-0.1,0.1l-0.1,0.1L75,22.7l0,0.1l0,0.1l0,0.1l0,0.1l0,0.1v0.1l0,0.1l0,0.1l0,0.1l0,0.1l0,0.1l0.1,0.1l0.1,0.1
				l0.1,0.1l0.1,0.1l0.1,0.1l0.1,0.1l0.1,0.1l0.1,0.1l0.3,0.2L76,25l-0.1,0.2l0,0.2l0,0.2l0,0.1l0,0.1l0,0.1l0,0.1v0.1l0,0.1l0,0.1
				l0,0.1l0,0.1l0,0.1l0,0.1l0,0.1l0,0.1l0,0l0,0l0,0l0.1,0l0.1,0l0.1,0l0.1,0l0.1,0l0.1,0l0.1,0l0.1,0l0.1,0l0.1,0l0.1,0l0.3,0
				c0,0,0-0.1,0-0.1c0.2-0.4,0.6-0.9,1-1c-0.3,0.3-0.6,0.7-0.8,1.1c-0.3,0.4-0.3,0.7-0.4,1.1l0,0.1l0,0.1l0,0.1l0,0.1l0,0.1l0,0.1
				l0,0.1l0,0.1l0,0.1l0,0.1l0,0.1l0,0.1l0,0.1l0,0.1l0,0.1l0,0.1l-0.1,0.1l-0.2,0.2l-0.2,0.1l-0.2,0.1L75.9,30L75.8,30l-0.2,0
				l-0.2,0l-0.2,0l-0.1,0L75.1,30l-0.1-0.1l-0.1-0.1l-0.1-0.1l-0.1-0.1l-0.1-0.1l-0.1-0.1l-0.1-0.2L74.3,29l-0.1-0.2l0-0.2l0-0.2
				l0-0.2l0-0.2l0-0.2l0-0.2l0-0.2l0-0.3l0-0.3v-0.2c-0.1,0-0.2,0.1-0.4,0.1c-0.1,0-0.2,0-0.3,0l0,0.2l0,0.2l0,0.2l0,0.2l0,0.2
				l0,0.1l0,0.1l0,0.1l0,0.1l0,0.1l0,0.1l0,0.1l0,0.1l0,0.1l-0.1,0.1l-0.1,0.1l-0.1,0.1l-0.1,0.1l-0.1,0.1l-0.1,0l-0.1,0l-0.1,0
				l-0.1,0l-0.1,0l-0.1,0L72,29l-0.1,0l-0.1,0l-0.1,0l-0.1-0.1l-0.1-0.1l-0.1-0.1l-0.1-0.1l-0.1-0.1l-0.1-0.1l0-0.1l0-0.1l0-0.2
				l0-0.2l0-0.2l0-0.2l0-0.2l0-0.2l0-0.2l0-0.2l0-0.2l0-0.2l0-0.3l0-0.3l0-0.3l0-0.3l0-0.3v0c-0.3-0.1-0.5-0.4-0.6-0.6
				c-0.1,0.2-0.3,0.4-0.5,0.5l0,0.1l0,0.2l0,0.2l0,0.2l0,0.2l0,0.2l0,0.2l0,0.2l0,0.2l0,0.2l0,0.2l0,0.2l0,0.2l0,0.2l0,0.2l-0.1,0.1
				l-0.1,0.1l-0.1,0.1L69,28l-0.1,0.1l-0.1,0.1l-0.1,0.1l-0.1,0.1l-0.1,0.1l-0.1,0l-0.1,0l-0.1,0l-0.1,0l0,0l-0.1,0l-0.1,0l-0.1,0
				l-0.1,0l-0.1,0l-0.1,0l-0.1-0.1l-0.1-0.1l-0.1-0.1l-0.1-0.1L67.1,28l-0.1-0.1L67,27.8l0-0.1l0-0.1l0-0.1l0-0.1l0-0.2l0-0.2l0-0.2
				l0-0.2l0-0.2l0-0.2l0-0.2l0-0.2l0-0.2l0-0.2c-0.1,0-0.2,0-0.2,0c-0.1,0-0.2,0-0.3,0l0,0.1L66,25.8L65.9,26l-0.1,0.2l-0.1,0.2
				l-0.1,0.2l-0.1,0.2l-0.1,0.2l-0.1,0.1L65.5,27l-0.1,0.1l-0.1,0.1l-0.1,0.1l-0.1,0.1l-0.1,0.1L65,27.7l-0.1,0.1l-0.1,0.1L64.7,28
				l-0.1,0.1l-0.1,0.1l-0.1,0.1l-0.1,0l-0.1,0l-0.1,0l-0.1,0l-0.1,0l-0.1,0l-0.1,0l-0.1,0l-0.1,0l-0.1-0.1l-0.1-0.1L63.1,28L63,27.9
				l-0.1-0.1l-0.1-0.1l-0.1-0.1l-0.1-0.1l-0.1-0.1l-0.1-0.1l-0.1-0.1l-0.1-0.2l-0.1-0.2l-0.1-0.2l-0.1-0.2l-0.1-0.2L62.2,26
				l-0.1-0.2l-0.1-0.2l0-0.2l0-0.2l0-0.2l0-0.2l0-0.3l0-0.3l0-0.3l-0.1-0.7c-0.1,0-0.2,0-0.2,0c0,0,0,0,0,0c0,0,0,0,0,0
				c-0.1,0-0.2,0-0.2,0L61,23.9l0,0.3l0,0.3l0,0.3l0,0.2l0,0.2l0,0.2l0,0.2l-0.1,0.2L60.6,26l-0.1,0.2l-0.1,0.2l-0.1,0.2l-0.1,0.2
				l-0.1,0.2l-0.1,0.2l-0.1,0.1l-0.1,0.1l-0.1,0.1L60,27.6L60,27.7l-0.1,0.1l-0.1,0.1L59.7,28l-0.1,0.1l-0.1,0.1l-0.1,0.1l-0.1,0
				l-0.1,0l-0.1,0l-0.1,0l-0.1,0l-0.1,0l-0.1,0l-0.1,0l-0.1,0l-0.1-0.1l-0.1-0.1L58.1,28L58,27.9l-0.1-0.1l-0.1-0.1l-0.1-0.1
				l-0.1-0.1l-0.1-0.1l-0.1-0.1l-0.1-0.1L57.3,27l-0.1-0.1l-0.1-0.1l-0.1-0.2l-0.1-0.2L57,26.3l-0.1-0.2L56.9,26l-0.1-0.2l-0.1-0.2
				l0-0.1c-0.1,0-0.2,0-0.3,0c-0.1,0-0.2,0-0.2,0l0,0.2l0,0.2l0,0.2l0,0.2l0,0.2l0,0.2l0,0.2l0,0.2l0,0.2l0,0.2l0,0.1l0,0.1l0,0.1
				l0,0.1l-0.1,0.1L55.7,28l-0.1,0.1l-0.1,0.1l-0.1,0.1l-0.1,0.1l-0.1,0.1l-0.1,0l-0.1,0l-0.1,0l-0.1,0l-0.1,0l-0.1,0l0,0l-0.1,0
				l-0.1,0l-0.1,0l-0.1,0l-0.1-0.1L54,28.3L54,28.2l-0.1-0.1L53.8,28l-0.1-0.1l-0.1-0.1l-0.1-0.1l-0.1-0.1l0-0.2l0-0.2l0-0.2l0-0.2
				l0-0.2l0-0.2l0-0.2l0-0.2l0-0.2l0-0.2l0-0.2l0-0.2l0-0.2l0-0.2l0-0.1c-0.2-0.1-0.4-0.3-0.5-0.5c-0.1,0.3-0.3,0.5-0.6,0.6v0l0,0.3
				l0,0.3l0,0.3l0,0.3l0,0.3l0,0.2l0,0.2l0,0.2l0,0.2l0,0.2l0,0.2l0,0.2l0,0.2l0,0.2l0,0.2l0,0.1l0,0.1l-0.1,0.1l-0.1,0.1l-0.1,0.1
				l-0.1,0.1l-0.1,0.1L51.2,29l-0.1,0l-0.1,0l-0.1,0l-0.1,0l-0.1,0l-0.1,0l-0.1,0l-0.1,0l-0.1,0l-0.1,0l-0.1-0.1L50,28.7l-0.1-0.1
				l-0.1-0.1l-0.1-0.1l0-0.1l0-0.1l0-0.1l0-0.1l0-0.1l0-0.1l0-0.1l0-0.1l0-0.1l0-0.2l0-0.2l0-0.2l0-0.2l0-0.2c-0.1,0-0.2,0-0.3,0
				c-0.1,0-0.2,0-0.4-0.1v0.2l0,0.3l0,0.3l0,0.2l0,0.2l0,0.2l0,0.2l0,0.2l0,0.2l0,0.2L48.5,29l-0.1,0.2l-0.1,0.2l-0.1,0.1l-0.1,0.1
				l-0.1,0.1L48,29.8l-0.1,0.1L47.7,30L47.6,30l-0.1,0l-0.2,0l-0.2,0L47,30L46.9,30l-0.2-0.1l-0.2-0.1l-0.2-0.1l-0.2-0.2l-0.1-0.1
				l0-0.1l0-0.1l0-0.1l0-0.1l0-0.1l0-0.1l0-0.1l0-0.1l0-0.1l0-0.1l0-0.1l0-0.1l0-0.1l0-0.1l0-0.1l0-0.1c-0.1-0.5-0.1-0.7-0.4-1.1
				c-0.2-0.4-0.5-0.8-0.8-1.1c0.5,0.1,0.8,0.6,1,1c0,0,0,0.1,0,0.1l0.3,0l0.1,0l0.1,0l0.1,0l0.1,0l0.1,0l0.1,0l0.1,0l0.1,0l0.1,0
				l0.1,0l0.1,0l0,0l0,0l0,0l0-0.1l0-0.1l0-0.1l0-0.1l0-0.1l0-0.1l0-0.1l0-0.1V26l0-0.1l0-0.1l0-0.1l0-0.1l0-0.2l0-0.2L46.8,25
				l-0.1-0.4l0.3-0.2l0.1-0.1l0.1-0.1l0.1-0.1l0.1-0.1l0.1-0.1l0.1-0.1l0.1-0.1l0.1-0.1l0-0.1l0-0.1l0-0.1l0-0.1l0-0.1V23l0-0.1
				l0-0.1l0-0.1l0-0.1l0-0.1l-0.1-0.1l-0.1-0.1l-0.1-0.1l-0.1-0.1l-0.1-0.1l-0.1-0.1l-0.1-0.1L47,22.2l-0.1-0.1l-0.2-0.1L46.5,22
				l-0.4-0.1l0-0.4l0-0.1l0-0.1l0-0.1v-0.1V21l0-0.1l0-0.1l0-0.1l0-0.1l0-0.1l0-0.1l0-0.1l0,0l0,0l0,0l0,0l0,0l0,0l0,0l0,0l0,0l0,0
				l0,0h0h-0.1l-0.1,0l-0.1,0l-0.1,0l-0.1,0l-0.1,0L45,20.4L44.8,20l-0.1-0.2l-0.1-0.2l-0.1-0.1l-0.1-0.1l-0.1-0.1l-0.1-0.1
				l-0.1-0.1L44.2,19l-0.1-0.1l-0.1-0.1L44,18.7l-0.1-0.1l-0.1,0l-0.1,0l-0.1,0l-0.1,0l-0.1,0l-0.1,0h-0.1l-0.1,0l-0.1,0l-0.1,0
				l-0.1,0l-0.1,0l-0.1,0.1l-0.1,0.1L43,18.9L43,18.9L42.9,19l-0.1,0.1l-0.2,0.3l-0.4-0.2L42,19.2l-0.2-0.1L41.7,19L41.5,19
				l-0.2-0.1l-0.1,0l-0.1,0l-0.1,0l-0.1,0l-0.1,0l-0.1,0h-0.1l-0.1,0l0,0l0,0l0,0l0,0l0,0l0,0l0,0l0,0v0l0,0.1l0,0.1l0,0.1l0,0.1
				l0,0.1l0,0.1l0.1,0.1l0.1,0.1l0.1,0.1l0.1,0.1l0.1,0.1l0.1,0.1l0.1,0.1l0.1,0.1l0.1,0.1l0.1,0.1l0.1,0.1l0.1,0.1l0.1,0.1l0.1,0.1
				l0.1,0.1l0.1,0.1l0.1,0.1l0.1,0.1l0.1,0.1l0.1,0.1l0.1,0.1l0.1,0.1l0.1,0.1l0.1,0.1l0.1,0.1l0.1,0.2l0.1,0.2l0.1,0.2l0.1,0.2
				l0.1,0.2l0,0l0.4-2.3l-0.1,2.9c0.1,0.1,0.3,0.2,0.4,0.3l1.5-2.5l-1.3,2.8c0.1,0.1,0.2,0.2,0.2,0.3l2-0.9l-1.9,1.1
				c0,0.1,0.1,0.2,0.1,0.4l2.1,1.2l-2.1-0.9c0,0.3-0.1,0.6-0.2,0.9l0.1,0.1l0.1,0.1l0.1,0.1l0.1,0.1l0.1,0.1l0.1,0.2l0.1,0.2
				l0.1,0.2l0.1,0.2l0.1,0.2l0.1,0.2l0.1,0.2l0.1,0.2l0.1,0.2l0.1,0.2l0.1,0.2l0.1,0.2l0.1,0.2l0.1,0.2l0.1,0.2l0.1,0.2l0.1,0.2
				l0.1,0.2l0.1,0.2l0.1,0.2l0,0.2l0,0.2l0,0.2l0.1,0.3l0,0.1c2.4-0.7,5.1-1.1,8.2-1.4c2.3-0.2,4.8-0.3,7.4-0.3
				c2.6,0,5.1,0.1,7.4,0.3c3.1,0.3,5.8,0.7,8.2,1.4H77.1z M61.5,16.2l0.2,3.8c0.1,0,0.2,0.1,0.3,0.1l1.6-2.1l-1.4,2.3
				c0.1,0.1,0.2,0.3,0.3,0.5l1.5-0.6l-1.4,0.8c0,0.2,0.1,0.3,0.1,0.5l2.2,0.6l-2.2-0.4c0,0.2-0.1,0.4-0.1,0.5l1,1.3l-1.1-1.1
				c-0.1,0.2-0.3,0.3-0.5,0.4l0.5,0.4l0.2,0.2l0.2,0.1l0.2,0.1l0.2,0.1l0.2,0.1l0.2,0.1l0.1,0.1l0.1,0.1l0.1,0.1l0.1,0.1l0.1,0
				l0.1,0l0.1,0l0.1,0l0,0h0l0,0v0l0-0.1l0-0.1l0-0.1l0-0.1l0-0.1l0-0.1l-0.1-0.2l-0.2-0.4l0.4-0.1l0.2-0.1l0.1-0.1l0.1-0.1l0.1-0.1
				l0.1-0.1l0.1-0.1l0.1-0.1l0.1-0.1l0.1-0.1l0.1-0.1l0-0.1l0-0.1l0-0.1l0,0l0,0l0,0v-0.1l0-0.1l0-0.1l0-0.1l0-0.1l0-0.1l0-0.1
				l-0.1-0.1l-0.1-0.1l-0.1-0.1l-0.1-0.1l-0.1-0.1L65,21.3l-0.1-0.1L64.6,21l0.1-0.3l0-0.1l0-0.1l0-0.1l0-0.1l0-0.1l0-0.1l0-0.1
				l0-0.1l0,0l0,0v0v0v0l0,0l0,0l0,0l0,0l0,0l0,0l0,0l0,0l0,0l0,0l0,0l0,0l-0.1,0l-0.1,0l-0.1,0l-0.1,0l-0.1,0l-0.4-0.1l0.1-0.5
				l0.1-0.2l0.1-0.2l0-0.2l0-0.2l0-0.2l0-0.2l0-0.2l0-0.1l0-0.1v-0.1l0-0.1l0-0.1l0-0.1l0-0.1l0,0l0,0l0,0l0,0l0,0l0,0h0l-0.1,0
				l-0.1,0l-0.1,0l-0.1,0L63.7,17L63.6,17l-0.1,0.1l-0.1,0.1l-0.1,0.1l-0.5,0.4L62.6,17l0-0.2l0-0.2l0-0.2l0-0.2L62.3,16l-0.1-0.2
				l-0.1-0.2l-0.1-0.1l-0.1-0.1l-0.1-0.1L62,15.2L62,15.1L61.9,15L61.8,15l-0.1-0.1l-0.1,0l0,0l0,0l0,0l0,0l0,0h0h0h0h0l0,0l0,0l0,0
				l0,0l0,0l-0.1,0L61.1,15L61,15L61,15.1l-0.1,0.1l-0.1,0.1l-0.1,0.1l-0.1,0.1l-0.1,0.1l-0.1,0.2L60.6,16l-0.1,0.2l0,0.2l0,0.2
				l0,0.2l0,0.2l-0.1,0.7l-0.5-0.4l-0.1-0.1l-0.1-0.1L59.3,17L59.2,17l-0.1-0.1l-0.1,0l-0.1,0l-0.1,0l-0.1,0h0l0,0l0,0l0,0l0,0l0,0
				l0,0l0,0.1l0,0.1l0,0.1l0,0.1v0.1l0,0.1l0,0.1l0,0.2l0,0.2l0,0.2l0,0.2l0,0.2l0.1,0.2l0.1,0.2l0.1,0.5l-0.4,0.1l-0.1,0l-0.1,0
				l-0.1,0l-0.1,0l-0.1,0l0,0l0,0l0,0l0,0l0,0l0,0l0,0l0,0l0,0l0,0l0,0l0,0v0v0v0l0,0l0,0l0,0.1l0,0.1l0,0.1l0,0.1l0,0.1l0,0.1
				l0,0.1l0,0.1l0.1,0.3L58,21.2l-0.1,0.1l-0.1,0.1l-0.1,0.1l-0.1,0.1l-0.1,0.1l-0.1,0.1l-0.1,0.1l0,0.1l0,0.1l0,0.1l0,0.1l0,0.1
				l0,0.1v0.1l0,0l0,0l0,0l0,0.1l0,0.1l0,0.1l0.1,0.1l0.1,0.1l0.1,0.1l0.1,0.1l0.1,0.1l0.1,0.1L58,23l0.1,0.1l0.1,0.1l0.2,0.1
				l0.4,0.1l-0.2,0.4l-0.1,0.2l0,0.1l0,0.1l0,0.1l0,0.1l0,0.1l0,0.1v0l0,0h0l0,0l0.1,0l0.1,0l0.1,0l0.1,0l0.1-0.1l0.1-0.1l0.1-0.1
				l0.1-0.1l0.2-0.1l0.2-0.1l0.2-0.1l0.2-0.1l0.2-0.1l0.2-0.2L61,23c-0.2-0.1-0.3-0.2-0.5-0.4l-1.1,1.1l1-1.3
				c-0.1-0.2-0.1-0.3-0.1-0.5l-2.2,0.4l2.2-0.6c0-0.2,0-0.4,0.1-0.5l-1.4-0.8l1.5,0.6c0.1-0.2,0.2-0.4,0.3-0.5L59.3,18l1.6,2.1
				c0.1-0.1,0.2-0.1,0.3-0.1L61.5,16.2L61.5,16.2z M61.5,31.2l3.1,1.7l0.2,0.1l-0.2,0.1L61.7,35c2.7,0,5.3,0.1,7.7,0.3
				c2.7,0.2,5.1,0.6,7.2,1.1l0-0.1L73.8,34l-0.2-0.1l0.2-0.1l2.9-1.2c-2.2-0.6-4.7-1-7.5-1.2c-2.4-0.2-5-0.3-7.7-0.3
				c-2.7,0-5.3,0.1-7.7,0.3c-2.8,0.2-5.3,0.6-7.5,1.2l2.9,1.2l0.2,0.1L49.2,34l-2.8,2.3l0,0.1c2.2-0.5,4.6-0.9,7.2-1.1
				c2.4-0.2,5-0.3,7.7-0.3l-2.9-1.9L58.1,33l0.2-0.1L61.5,31.2L61.5,31.2z M61.5,36.3c2.8,0,5.5,0.1,7.9,0.3
				c2.7,0.2,5.1,0.6,7.3,1.2l0-0.1l0-0.1v-0.1v-0.1v-0.1v-0.1v-0.1V37l0-0.1l0-0.1l0-0.1v0c-2.2-0.5-4.6-0.9-7.3-1.2
				c-2.4-0.2-5.1-0.3-7.9-0.3c-2.8,0-5.5,0.1-7.9,0.3c-2.7,0.2-5.1,0.6-7.3,1.2v0l0,0.1l0,0.1l0,0.1v0.1v0.1v0.1v0.1v0.1v0.1l0,0.1
				l0,0.1c2.2-0.5,4.6-0.9,7.3-1.2C56,36.4,58.7,36.3,61.5,36.3z M75.7,37.8c-1.9-0.4-4-0.7-6.3-0.9c-2.4-0.2-5.1-0.3-7.9-0.3
				c-2.8,0-5.5,0.1-7.9,0.3c-2.3,0.2-4.4,0.5-6.3,0.9h14.2H75.7z M53.7,31.8c1.4-0.2,2.5,0.3,2.6,1.1c0.1,0.8-0.9,1.6-2.3,1.7
				c-1.4,0.2-2.5-0.3-2.6-1.1S52.4,32,53.7,31.8z"/>
			<path class="st6" d="M44.9,29.4l-0.2-0.1l-0.2-0.1l-0.2-0.1L44,29.1l-0.2-0.1L43.6,29l-0.2-0.1l-0.2-0.1L43,28.7l-0.2-0.1
				l-0.2-0.1l-0.2-0.1l-0.2-0.1L42,28.2l-0.2-0.1L41.6,28l-0.2-0.1l-0.2-0.1l-0.2-0.1l-0.2-0.1l-0.2-0.1l-0.2-0.1l-0.2-0.1L40.1,27
				L40,26.9l-0.2-0.1l-0.2-0.1l-0.2-0.1l-0.2-0.1l-0.2-0.1l-0.2-0.1l-0.2-0.1l-0.2-0.1L38.4,26L38.3,26l-0.2,0l-0.2,0l-0.2,0l-0.2,0
				l-0.2,0l-0.2,0l-0.2,0l-0.2,0l-0.2,0l-0.2,0l-0.2,0l-0.2,0l-0.2,0L36,26L35.9,26l-0.2,0.1l-0.2,0.1l-0.2,0.1l-0.2,0.1l-0.2,0.1
				L35,26.5l-0.2,0.1l-0.2,0.1l-0.2,0.1L34.4,27l-0.1,0.1l-0.1,0.1L34,27.2l-0.1,0.1l-0.1,0.1l-0.1,0.1l-0.1,0.1l-0.1,0.1l-0.1,0.1
				l-0.1,0.1L33,27.8l-0.1,0.1L32.8,28L32.6,28l-0.1,0.1l-0.1,0.1l-0.1,0.1l-0.1,0.1l-0.1,0.1l-0.1,0.1l-0.1,0.1l-0.1,0.1l-0.2,0.1
				l-0.2,0.1L31,28.9l-0.2,0.1L30.7,29l-0.2,0.1l-0.2,0.1l-0.2,0.1l-0.1,0.1L30,29.4L30,29.4l-0.1,0.1l-0.1,0.1l-0.1,0.1l0,0.1
				l0,0.1l0,0.1l0,0.1l0,0.1l0,0.1l0,0.1l0,0.1l0,0.1v0.1l0,0.1l0,0.1l0,0.1l0,0.1l0,0.1l0,0.1l0,0.1l0,0.1l0,0.1l0,0.1l0,0.1
				l0.1,0.1l0.1,0.1l0.1,0.1l0.1,0.1l0.1,0.1l0.2,0.3l-0.2,0.2L30,32.7l-0.1,0.1l-0.1,0.1l-0.1,0.1L29.6,33l-0.1,0.1l-0.1,0.1
				l-0.1,0.1l-0.1,0.1l-0.1,0.1L29,33.4l-0.1,0.1l-0.1,0.1l-0.1,0.1l-0.1,0.1l-0.1,0.1l-0.1,0.1l-0.1,0.1L28,34L27.8,34l-0.1,0.1
				l-0.1,0.1l-0.1,0.1l-0.1,0.1l-0.1,0.1L27,34.5l-0.1,0.1l-0.2,0.1l-0.2,0.1l-0.2,0.1l-0.1,0.1L26,35l-0.3,0.2l-0.3,0.2l-0.3,0.2
				L25,35.7l-0.2,0.2l-0.2,0.2l-0.2,0.2l-0.2,0.2l-0.2,0.3l-0.2,0.3l-0.2,0.3l-0.1,0.3L23.4,38l-0.1,0.3l-0.1,0.3l-0.1,0.3l-0.1,0.3
				l0,0.3l0,0.3l0,0.3l0,0.3l0,0.3l0.1,0.3l0.1,0.3l0.1,0.3l0.1,0.4l0.2,0.4l0.2,0.4l0.2,0.4l0.2,0.4l0.2,0.4l0.2,0.3l0.2,0.3
				l0.2,0.3l0.2,0.3l0.2,0.3l0.2,0.3l0.2,0.3l0.1,0.3l0.1,0.3l0.1,0.3l0.1,0.2l0.1,0.2l0.1,0.2l0.1,0.2l0.1,0.2l0.1,0.2l0.1,0.2
				l0.1,0.2l0.1,0.2l0.1,0.2l0.1,0.2l0.1,0.2l0.1,0.2l0.1,0.2l0.1,0.2l0.1,0.2l0,0.2l0,0.2l0,0.2l0,0.2l0,0.2v0.5l-0.3,0h-0.1h-0.1
				l-0.1,0h-0.1H27H27l-0.1,0h-0.1h-0.1l-0.1,0h-0.1h-0.1h-0.1l-0.1,0h-0.1h-0.1h-0.1l-0.1,0h-0.1h-0.1H26l-0.1,0h-0.1h-0.1h-0.1
				l-0.1,0h-0.1h-0.1h-0.1h-0.1l-0.3,0.2l-0.3,0.3l-0.3,0.3L24.3,53L24,53.3l-0.2,0.3l-0.2,0.3l-0.2,0.3l-0.2,0.3l-0.1,0.3L23,55.2
				l-0.1,0.3l-0.1,0.4l-0.1,0.4l-0.1,0.4l0,0.4l0,0.4l0,0.4v0.4l0,0.4l0,0.4l0,0.4l0,0.4l0.1,0.4l0.1,0.4l0.1,0.4l0.1,0.4l0.1,0.4
				l0.1,0.4l0.1,0.4l0.1,0.4l0.1,0.5l0.2,0.6l0.1,0.6l0.1,0.6l0.1,0.6l0.1,0.6l0.1,0.6l0.1,0.6l0.1,0.6l0.1,0.6l0.1,0.6l0.1,0.6
				l0.1,0.6l0,0.6l0,0.6l0,0.6l0,0.6l0,0.6v0.6l0,0.6l0,0.6l0,0.6l0,0.6l0,0.6l0,0.6l0,0.6l-0.1,0.6l-0.1,0.6l-0.1,0.6l-0.1,0.6
				l-0.1,0.6l-0.1,0.6l-0.1,0.6l-0.1,0.6L24,84.5L24,85.1l-0.1,0.6l-0.1,0.5l-0.1,0.5l-0.1,0.5l-0.1,0.5l-0.1,0.5l0,0.5l0,0.5l0,0.5
				l0,0.4l0,0.4V91l0,0.4l0,0.4l0,0.4l0,0.3l0,0.3l0.1,0.3l0.1,0.3l0.1,0.3l0.1,0.2l0.1,0.2l0.1,0.2l0.1,0.2l0.1,0.2l0.1,0.1
				l0.2,0.1l0.2,0.1l0.1,0l0.1,0l0.1,0l0.2,0l0.1,0l0.2,0l0.1,0l0.2,0l0.1,0l0.2,0l0.1,0l0.2,0l0.1,0l0.2,0l0.1,0l0.2,0l0.3,0
				l0.2,0.5l0.1,0.3l0.1,0.3l0.1,0.3l0.1,0.3l0.1,0.3l0.1,0.3l0.1,0.3l0.1,0.3l0.1,0.3l0.1,0.3l0.1,0.3l0.1,0.3l0.1,0.2l0.2,0.2
				l0.2,0.2l0.2,0.2l0.2,0.2l0.2,0.2l0.2,0.2l0.2,0.2l0.2,0.2l0.2,0.2l0.2,0.2l0.2,0.2l0.2,0.2l0.2,0.2l0.2,0.2l0.3,0.2l0.3,0.2
				l0.3,0.2l0.5,0.3l-0.1,0.2l0,0.1l0,0.1l0,0.1l0,0.1v0.1v0.1l0,0.1l0,0.1l0,0.1l0,0.1l0,0.1l0,0.1l0,0.1l0,0.1l0,0.1l0,0.1
				l0.1,0.1l0.1,0.1l0.1,0.1l0.1,0.1l0.1,0.1l0.1,0.1l0.1,0.1l0.1,0.1l0.1,0.1l0.1,0.1l0.1,0.1L34,105l0.1,0.1l0.1,0.1l0.1,0.1
				l0.9,0.4l0.9,0.4l0.9,0.4l0.9,0.4l0.9,0.4l0.9,0.3l0.9,0.3l0.9,0.3l1,0.3l1,0.3l1,0.3l1,0.2l1,0.2l1,0.2l1,0.2l1,0.2l1,0.2l1,0.1
				l1,0.1l1,0.1l1.1,0.1l1.1,0.1l1.1,0.1l1.1,0.1l1.1,0l1.1,0l1.1,0h0.4h0.4l1.1,0l1.1,0l1.1,0l1.1-0.1l1.1-0.1l1.1-0.1l1.1-0.1
				l1-0.1l1-0.1l1-0.1l1-0.2l1-0.2l1-0.2l1-0.2l1-0.2l1-0.2l1-0.3l1-0.3l1-0.3l0.9-0.3l0.9-0.3l0.9-0.3l0.9-0.4l0.9-0.4l0.9-0.4
				l0.9-0.4l0.9-0.4l0.1-0.1l0.1-0.1l0.1-0.1l0.1-0.1l0.1-0.1l0.1-0.1l0.1-0.1l0.1-0.1l0.1-0.1l0.1-0.1l0.1-0.1l0.1-0.1l0.1-0.1
				l0.1-0.1l0.1-0.1l0-0.1l0-0.1l0-0.1l0-0.1l0-0.1l0-0.1l0-0.1l0-0.1l0-0.1l0-0.1v-0.1v-0.1l0-0.1l0-0.1l0-0.1l0-0.1l-0.1-0.2
				l0.5-0.3l0.3-0.2l0.3-0.2l0.3-0.2l0.2-0.2l0.2-0.2l0.2-0.2l0.2-0.2l0.2-0.2l0.2-0.2l0.2-0.2l0.2-0.2l0.2-0.2l0.2-0.2l0.2-0.2
				l0.2-0.2l0.2-0.2l0.2-0.2l0.1-0.2l0.1-0.3l0.1-0.3l0.1-0.3l0.1-0.3l0.1-0.3l0.1-0.3l0.1-0.3l0.1-0.3l0.1-0.3l0.1-0.3l0.1-0.3
				l0.1-0.3l0.2-0.5l0.3,0l0.2,0l0.1,0l0.2,0l0.1,0l0.2,0l0.1,0l0.2,0l0.1,0l0.2,0l0.1,0l0.2,0l0.1,0l0.2,0l0.1,0l0.1,0l0.1,0
				l0.2-0.1l0.2-0.1l0.1-0.1l0.1-0.2l0.1-0.2l0.1-0.2l0.1-0.2l0.1-0.2l0.1-0.3l0.1-0.3l0.1-0.3l0-0.3l0-0.3l0-0.4l0-0.4l0-0.4v-0.4
				l0-0.4l0-0.4l0-0.5l0-0.5l0-0.5l-0.1-0.5l-0.1-0.5l-0.1-0.5l-0.1-0.5l-0.1-0.5l-0.1-0.6l-0.1-0.6l-0.1-0.6l-0.1-0.6L99,82.7
				l-0.1-0.6l-0.1-0.6l-0.1-0.6l-0.1-0.6l-0.1-0.6l-0.1-0.6l0-0.6l0-0.6l0-0.6l0-0.6l0-0.6l0-0.6l0-0.6v-0.6l0-0.6l0-0.6l0-0.6
				l0-0.6l0-0.6l0.1-0.6l0.1-0.6l0.1-0.6l0.1-0.6l0.1-0.6l0.1-0.6l0.1-0.6l0.1-0.6l0.1-0.6l0.1-0.6l0.1-0.6l0.2-0.6l0.1-0.5l0.1-0.4
				l0.1-0.4l0.1-0.4l0.1-0.4l0.1-0.4l0.1-0.4l0.1-0.4l0.1-0.4l0-0.4l0-0.4l0-0.4l0-0.4v-0.4l0-0.4l0-0.4l0-0.4l-0.1-0.4l-0.1-0.4
				l-0.1-0.4l-0.1-0.3l-0.1-0.3l-0.1-0.3l-0.2-0.3l-0.2-0.3l-0.2-0.3l-0.2-0.3L99,53l-0.3-0.3l-0.3-0.3l-0.3-0.3L97.9,52h-0.1h-0.1
				h-0.1h-0.1l-0.1,0h-0.1h-0.1h-0.1l-0.1,0h-0.1h-0.1h-0.1l-0.1,0H97h-0.1h-0.1l-0.1,0h-0.1h-0.1h-0.1l-0.1,0h-0.1h-0.1l-0.1,0
				h-0.1h-0.1h-0.1l-0.1,0H96H96l-0.3,0v-0.5l0-0.2l0-0.2l0-0.2l0-0.2l0-0.2l0.1-0.2l0.1-0.2l0.1-0.2l0.1-0.2l0.1-0.2l0.1-0.2
				l0.1-0.2l0.1-0.2l0.1-0.2l0.1-0.2l0.1-0.2l0.1-0.2l0.1-0.2l0.1-0.2l0.1-0.2l0.1-0.2l0.1-0.3l0.1-0.3l0.1-0.3l0.2-0.3l0.2-0.3
				l0.2-0.3l0.2-0.3l0.2-0.3l0.2-0.3l0.2-0.3l0.2-0.4l0.2-0.4l0.2-0.4l0.2-0.4l0.2-0.4l0.1-0.4l0.1-0.3l0.1-0.3l0.1-0.3l0-0.3l0-0.3
				l0-0.3l0-0.3l0-0.3l-0.1-0.3l-0.1-0.3l-0.1-0.3L99.9,38l-0.1-0.3l-0.1-0.3l-0.2-0.3l-0.2-0.3l-0.2-0.3L99,36.4l-0.2-0.2l-0.2-0.2
				l-0.2-0.2l-0.2-0.2l-0.3-0.2l-0.3-0.2L97.3,35L97,34.8l-0.1-0.1l-0.2-0.1l-0.2-0.1l-0.2-0.1l-0.1-0.1l-0.1-0.1L96,34.3l-0.1-0.1
				l-0.1-0.1l-0.1-0.1L95.5,34L95.3,34l-0.1-0.1l-0.1-0.1L95,33.8l-0.1-0.1l-0.1-0.1l-0.1-0.1l-0.1-0.1l-0.1-0.1l-0.1-0.1l-0.1-0.1
				L94,33.2l-0.1-0.1l-0.1-0.1L93.7,33l-0.1-0.1l-0.1-0.1l-0.1-0.1l-0.1-0.1l-0.1-0.1L93,32.5l0.2-0.3l0.1-0.1l0.1-0.1l0.1-0.1
				l0.1-0.1l0.1-0.1l0-0.1l0-0.1l0-0.1l0-0.1l0-0.1l0-0.1l0-0.1l0-0.1l0-0.1l0-0.1l0-0.1v-0.1l0-0.1l0-0.1l0-0.1l0-0.1l0-0.1l0-0.1
				l0-0.1l0-0.1l0-0.1l-0.1-0.1l-0.1-0.1l-0.1-0.1l-0.1-0.1l-0.1-0.1l-0.1-0.1l-0.2-0.1l-0.2-0.1L92.6,29l-0.2-0.1l-0.2-0.1
				l-0.2-0.1L92,28.7l-0.2-0.1l-0.1-0.1l-0.1-0.1l-0.1-0.1l-0.1-0.1l-0.1-0.1L91,28.2l-0.1-0.1L90.7,28L90.6,28l-0.1-0.1l-0.1-0.1
				l-0.1-0.1L90,27.7l-0.1-0.1l-0.1-0.1l-0.1-0.1l-0.1-0.1l-0.1-0.1l-0.1-0.1l-0.1-0.1L89,27.1L88.9,27l-0.1-0.1l-0.2-0.1l-0.2-0.1
				l-0.2-0.1l-0.2-0.1L88,26.3l-0.2-0.1l-0.2-0.1l-0.2-0.1L87.4,26L87.3,26l-0.2,0l-0.2,0l-0.2,0l-0.2,0l-0.2,0l-0.2,0l-0.2,0
				l-0.2,0l-0.2,0l-0.2,0l-0.2,0l-0.2,0l-0.2,0l-0.2,0L84.9,26l-0.2,0.1l-0.2,0.1l-0.2,0.1l-0.2,0.1L84,26.4l-0.2,0.1l-0.2,0.1
				l-0.2,0.1l-0.2,0.1L83.2,27L83,27.1l-0.2,0.1l-0.2,0.1l-0.2,0.1l-0.2,0.1l-0.2,0.1l-0.2,0.1L81.7,28l-0.2,0.1l-0.2,0.1l-0.2,0.1
				l-0.2,0.1l-0.2,0.1l-0.2,0.1l-0.2,0.1l-0.2,0.1l-0.2,0.1L79.7,29l-0.2,0.1l-0.2,0.1l-0.2,0.1l-0.2,0.1l-0.2,0.1l-0.2,0.1
				l-0.2,0.1L78,29.5l-0.1,0c-0.2,0.5-0.3,1.1-0.4,1.7c0.2,0.5,0.1,0.9-0.1,1.2c1.3,1.4,1.1,2.7-0.4,3.9c0,0.3,0.1,0.5,0.1,0.8
				l0.2,0l0.3,0l0.3-0.1l0.3-0.1l0.3-0.1l0.3-0.1l0.3-0.1l0.3-0.1l0.3-0.1l0.3-0.1l0.3-0.1l0.3-0.1l0.3-0.1l0.3-0.1l0.3-0.1l0.2-0.1
				l0.2-0.1l0.2-0.1l0.2-0.2l0.2-0.2l0.2-0.2l0.2-0.2l0.2-0.2l0.2-0.2l0.3-0.2l0.3-0.2l0.4-0.2l0.3,0.2l0.2,0.1l0.2,0.1l0.2,0.1
				l0.2,0.1l0.2,0.1l0.2,0.1l0.2,0.1l0.2,0.1l0.2,0.1l0.2,0.1l0.2,0.1l0.2,0.1l0.1,0.1l0.1,0.1l0.1,0.1l0.1,0.1l0.1,0.1l0.1,0.1
				l0.1,0.1l0.1,0.1l0.1,0.1l0.1,0.1l0.1,0.1l0.1,0.1l0.1,0.1l0.1,0.1l0.1,0.1l0.1,0.1l0.1,0.1l0.1,0.1l0.1,0.1l0,0l0,0l0,0l0,0l0,0
				l0,0l0,0l0.1,0l0.1,0l0.1,0l0.1,0l0.1,0l0.1,0l0.1,0l0.1,0l0.1,0l0.1,0l0.1,0l0.1,0l0.1,0l0.1,0h0.1h0.1h0.1l0.1,0l0.1,0l0.1,0
				l0.1,0l0.1,0l0.1,0l0.1,0l0.2,0l0.2,0.2L91,38l0.1,0.1l0.1,0.1l0.1,0.1l0.1,0.1l0.1,0.1l0.1,0.1l0.1,0.1l0.1,0.1l0.1,0.1l0,0.1
				l0,0.1l0,0.1l0,0.1l0,0.1l0,0.1l0,0.1l0,0.1v0.1l0,0.1l0,0.1l0,0.1l0,0.1l0,0.1l0,0.1l0,0.1l0,0.1l0,0.1l0,0.1l-0.1,0.1l-0.1,0.1
				l-0.1,0.2l-0.1,0.2L91.1,42L91,42.2l-0.1,0.2l-0.1,0.2l-0.1,0.2L90.5,43l-0.1,0.2l-0.1,0.2l-0.1,0.2l-0.1,0.2l-0.1,0.2l-0.1,0.2
				l-0.1,0.2l-0.1,0.2l-0.1,0.2l-0.1,0.2L89.3,45l-0.1,0.2l-0.1,0.2L89,45.6l-0.1,0.2L88.9,46l-0.1,0.2l-0.1,0.2l-0.1,0.2l-0.1,0.2
				l-0.1,0.3l-0.1,0.3l-0.1,0.3L88.3,48l-0.1,0.5l-0.1,0.5L88,49.6L88,50.1l-0.1,0.5l0,0.5l0,0.5l0,0.5l0,0.5l0,0.5l0,0.5v0.5l0,0.5
				l0,0.5l0,0.5l0,0.4l0,0.4l0,0.4l0.1,0.4l0.1,0.4l0.1,0.3l0.1,0.3l0.1,0.3l0.1,0.3l0.1,0.2l0.1,0.2l0.1,0.2l0.1,0.1l0.1,0.1l0.1,0
				l0.1,0l0.1,0h4.3l-0.1,0.4l-0.1,0.3l0,0.1l0,0.1L93,61l0,0.1l0,0.1l-0.1,0.3l0,0.1l0,0.1L92.8,62l0,0.1l0,0.1l-0.1,0.3l0,0.1
				l0,0.1l-0.1,0.3l0,0.1l0,0.1l-0.1,0.3l0,0.1l0,0.1l-0.1,0.3l0,0.1l-0.1,0.7L92,65.6l-0.1,0.7l-0.1,0.7l-0.1,0.7l-0.1,0.7
				l-0.1,0.7L91.3,70l-0.1,0.7l-0.1,0.7l-0.1,0.7l-0.1,0.7l0,0.7l0,0.7l0,0.7l0,0.7l0,0.7v0.7l0,0.7l0,0.7l0,0.8l0,0.8l0,0.8
				l0.1,0.8l0.1,0.8l0.1,0.8l0.1,0.8l0.1,0.8l0.1,0.8l0.1,0.8l0.1,0.8l0.2,1l-0.2,0.1l-0.1,0.1l0,0l-0.1,0.1l0,0l-0.1,0.1l0,0
				L91,88.6l0,0l-0.1,0.1l0,0l-0.1,0.1l0,0l-0.1,0.1l0,0l-0.1,0.1l0,0l-0.1,0l-0.1,0L90,89l-0.1,0l-0.1,0l-0.1,0l-0.1,0l-0.1,0l0,0
				l0,0l0,0l0,0.1l0,0.1l0,0.1l0,0.1l0,0.1l0,0.1l0,0.1l0,0.1l0,0.1l0,0.1l0,0.1l0,0.1l0,0.1l0,0.1l0,0.1l0,0.1l0,0.1v0.1v0.1l0,0.1
				l0,0.3l0,0.3l0,0.3l0,0.3L89,92.4l-0.1,0.3l-0.1,0.3l-0.1,0.3l-0.1,0.2l-0.1,0.2l-0.1,0.2l-0.2,0.2L88,94.3l-0.2,0.2l-0.2,0.2
				L87.5,95l-0.2,0.2l-0.2,0.2l-0.2,0.2l-0.2,0.2l-0.2,0.2L86.1,96l-0.3,0.1l-0.3,0.1l-0.3,0.1l-0.3,0.1l-0.3,0.1l-0.3,0.1l-0.3,0.1
				l-0.3,0.1L83.5,97l-0.4,0.1H83l-0.2,0l-0.2,0l-0.2,0l-0.2,0l-0.2,0l-0.1,0l-0.1,0l-0.1,0l-0.1,0l-0.1,0l-0.1,0l-0.1,0l-0.1,0
				l-0.1,0.1l-0.1,0.1L81,97.6L81,97.7l-0.1,0.1l0,0.1l0,0.1l0,0.1l0,0.1l0,0.1l0,0.1l0,0.1l0,0.1v0.1l0,0.1l0,0.1l0,0.1l0,0.1l0,0
				l0,0.1l0,0.1l0,0.1l0,0.1l0,0.1l0,0.1l0,0.1l0,0.1l0,0.1l0,0.1l0,0.1l0,0.1l0,0.1l0,0.1l0,0.1l0,0.1l0,0.1v0.1v0.1v0.1v0.1l0,0.1
				l0,0.1l0,0.1l0,0.1l0,0.1l0,0.1l0,0.1l0,0.1l0,0.1l-0.1,0.2l-0.9,0.2l-0.7,0.2l-0.7,0.2l-0.7,0.2l-0.7,0.1l-0.7,0.1l-0.8,0.1
				l-0.8,0.1l-0.8,0.1l-0.8,0.1l-0.8,0.1l-0.8,0.1l-0.8,0.1l-0.8,0.1l-0.8,0.1l-0.8,0l-0.8,0l-0.8,0l-0.8,0l-0.8,0l-0.8,0l-0.8,0H63
				l-0.8,0l-0.4,0l-0.4,0l-0.8,0h-0.8l-0.8,0l-0.8,0l-0.8,0l-0.8,0l-0.8,0l-0.8,0l-0.8,0l-0.8-0.1l-0.8-0.1l-0.8-0.1l-0.8-0.1
				l-0.8-0.1l-0.8-0.1l-0.8-0.1l-0.8-0.1l-0.8-0.1l-0.7-0.1l-0.7-0.1l-0.7-0.2l-0.7-0.2l-0.7-0.2l-0.9-0.2l-0.1-0.2l0-0.1l0-0.1
				l0-0.1l0-0.1l0-0.1l0-0.1l0-0.1l0-0.1l0-0.1v-0.1v-0.1v-0.1v-0.1l0-0.1l0-0.1l0-0.1l0-0.1l0-0.1l0-0.1l0-0.1l0-0.1l0-0.1l0-0.1
				l0-0.1l0-0.1l0-0.1l0-0.1l0-0.1l0-0.1l0-0.1l0,0l0-0.1l0-0.1l0-0.1l0-0.1v-0.1l0-0.1l0-0.1l0-0.1l0-0.1l0-0.1l0-0.1l0-0.1l0-0.1
				l-0.1-0.1l-0.1-0.1l-0.1-0.1l-0.1-0.1l-0.1-0.1l-0.1,0l-0.1,0l-0.1,0l-0.1,0l-0.1,0l-0.1,0l-0.1,0l-0.1,0l-0.2,0l-0.2,0l-0.2,0
				l-0.2,0l-0.2,0h-0.2L40,97l-0.3-0.1l-0.3-0.1L39,96.7l-0.3-0.1l-0.3-0.1l-0.3-0.1l-0.3-0.1l-0.3-0.1L37.4,96l-0.2-0.2l-0.2-0.2
				l-0.2-0.2l-0.2-0.2l-0.2-0.2L36,95l-0.2-0.2l-0.2-0.2l-0.2-0.2l-0.2-0.2l-0.2-0.2L35,93.7l-0.1-0.2l-0.1-0.2l-0.1-0.3l-0.1-0.3
				l-0.1-0.3l-0.1-0.3l0-0.3l0-0.3l0-0.3l0-0.3l0-0.1v-0.1v-0.1l0-0.1l0-0.1l0-0.1l0-0.1l0-0.1l0-0.1l0-0.1l0-0.1l0-0.1l0-0.1l0-0.1
				l0-0.1l0-0.1l0-0.1l0-0.1l0-0.1l0-0.1l0,0l0,0l0,0l-0.1,0l-0.1,0l-0.1,0l-0.1,0l-0.1,0l-0.1,0l-0.1,0l-0.1,0l0,0l-0.1-0.1l0,0
				L33,88.7l0,0l-0.1-0.1l0,0l-0.1-0.1l0,0l-0.1-0.1l0,0l-0.1-0.1l0,0L32,88.4l0,0l-0.1-0.1l-0.2-0.1l0.2-1l0.1-0.8l0.1-0.8l0.1-0.8
				l0.1-0.8l0.1-0.8l0.1-0.8l0.1-0.8l0.1-0.8l0-0.8l0-0.8l0-0.8l0-0.7l0-0.7v-0.7l0-0.7l0-0.7l0-0.7l0-0.7l0-0.7l-0.1-0.7l-0.1-0.7
				l-0.1-0.7L32.2,70l-0.1-0.7L32,68.5l-0.1-0.7l-0.1-0.7l-0.1-0.7l-0.1-0.7l-0.1-0.7l-0.1-0.7l0-0.1l-0.1-0.3l0-0.1l0-0.1l-0.1-0.3
				l0-0.1l0-0.1l-0.1-0.3l0-0.1l0-0.1l-0.1-0.3l0-0.1l0-0.1l-0.1-0.3l0-0.1l0-0.1l-0.1-0.3l0-0.1l0-0.1l-0.1-0.3l0-0.1l0-0.1
				l-0.1-0.3l-0.1-0.4h4.3l0.1,0l0.1,0l0.1,0l0.1-0.1l0.1-0.1l0.1-0.2l0.1-0.2l0.1-0.2l0.1-0.3l0.1-0.3l0.1-0.3l0.1-0.3l0.1-0.4
				l0.1-0.4l0-0.4l0-0.4l0-0.4l0-0.5l0-0.5l0-0.5v-0.5l0-0.5l0-0.5l0-0.5l0-0.5l0-0.5l0-0.5l-0.1-0.5l-0.1-0.5l-0.1-0.5l-0.1-0.5
				L35.2,48l-0.1-0.3l-0.1-0.3L35,47.2L35,46.9l-0.1-0.2l-0.1-0.2l-0.1-0.2L34.7,46l-0.1-0.2l-0.1-0.2l-0.1-0.2l-0.1-0.2L34.2,45
				l-0.1-0.2L34,44.7l-0.1-0.2l-0.1-0.2l-0.1-0.2l-0.1-0.2l-0.1-0.2l-0.1-0.2l-0.1-0.2l-0.1-0.2L33,43l-0.1-0.2l-0.1-0.2l-0.1-0.2
				l-0.1-0.2L32.4,42l-0.1-0.2l-0.1-0.2L32,41.3l-0.1-0.1L31.9,41l0-0.1l0-0.1l0-0.1l0-0.1l0-0.1l0-0.1l0-0.1l0-0.1l0-0.1l0-0.1
				v-0.1l0-0.1l0-0.1l0-0.1l0-0.1l0-0.1l0-0.1l0-0.1l0-0.1l0.1-0.1l0.1-0.1l0.1-0.1l0.1-0.1l0.1-0.1l0.1-0.1l0.1-0.1l0.1-0.1
				l0.1-0.1l0.1-0.1l0.2-0.2l0.2,0l0.1,0l0.1,0l0.1,0l0.1,0l0.1,0l0.1,0l0.1,0h0.1h0.1h0.1l0.1,0l0.1,0l0.1,0l0.1,0l0.1,0l0.1,0
				l0.1,0l0.1,0l0.1,0l0.1,0l0.1,0l0.1,0l0.1,0l0.1,0l0,0l0,0l0,0l0,0l0,0l0,0l0,0l0.1-0.1l0.1-0.1l0.1-0.1l0.1-0.1l0.1-0.1l0.1-0.1
				l0.1-0.1l0.1-0.1l0.1-0.1l0.1-0.1l0.1-0.1l0.1-0.1l0.1-0.1l0.1-0.1l0.1-0.1l0.1-0.1l0.1-0.1l0.1-0.1l0.1-0.1l0.2-0.1l0.2-0.1
				l0.2-0.1l0.2-0.1l0.2-0.1l0.2-0.1l0.2-0.1l0.2-0.1l0.2-0.1l0.2-0.1l0.2-0.1l0.2-0.1l0.3-0.2l0.4,0.2l0.3,0.2l0.3,0.2l0.2,0.2
				l0.2,0.2l0.2,0.2l0.2,0.2l0.2,0.2l0.2,0.2l0.2,0.1l0.2,0.1l0.2,0.1l0.3,0.1l0.3,0.1l0.3,0.1l0.3,0.1l0.3,0.1l0.3,0.1l0.3,0.1
				l0.3,0.1l0.3,0.1l0.3,0.1l0.3,0.1l0.3,0.1l0.3,0.1l0.3,0h0c0-0.2,0-0.5,0.1-0.7c-1.5-1.2-1.6-2.5-0.4-3.9
				c-0.2-0.3-0.2-0.7-0.1-1.2c-0.1-0.6-0.3-1.2-0.4-1.8l-0.1,0l-0.2-0.1H44.9z"/>
			<path class="st3" d="M36.2,26.2c0.3,0,0.6,0,0.8,0.1c1.3,0.2,2.4,0.7,3.5,1.7c1.1,0.7,2.2,1.4,3.3,1.8c0.5,0.2,1,0.3,1.5,0.5
				c0-0.1,0-0.2-0.1-0.3c-0.3-0.1-0.6-0.1-0.9-0.2c-1.8-0.6-3.5-1.6-5-2.7l0,0c-0.7-0.5-1.5-0.8-2.4-0.8
				C36.8,26.1,36.5,26.2,36.2,26.2L36.2,26.2z M87,26.2c-0.3,0-0.6,0-0.8,0.1c-1.3,0.2-2.4,0.7-3.5,1.7c-1.1,0.7-2.2,1.4-3.3,1.8
				c-0.6,0.2-1.1,0.4-1.7,0.5c0-0.1,0.1-0.2,0.1-0.3h0c0.4-0.1,0.7-0.2,1.1-0.3c1.8-0.6,3.5-1.6,5-2.7l0,0c0.7-0.5,1.5-0.8,2.4-0.8
				C86.4,26.1,86.7,26.2,87,26.2L87,26.2z M87.2,99.2l0.3,0.3c-1.8,1.7-5,2.9-9.4,3.8c-4.3,0.8-9.9,1.3-16.4,1.5
				c-6.5-0.2-12.1-0.6-16.4-1.5c-4.5-0.9-7.7-2.1-9.4-3.8l0.3-0.3c1.7,1.6,4.8,2.8,9.2,3.7c4.3,0.8,9.8,1.3,16.3,1.5
				c6.5-0.2,12-0.6,16.3-1.5C82.3,102,85.5,100.8,87.2,99.2z M61.6,109.5c5.1,0,9.8-0.4,14-1.3c4.9-1,9.2-2.6,12.9-4.7
				c0.4-0.3,0.7-0.6,0.8-0.9c0.1-0.2,0.1-0.4,0.1-0.6l0-0.1l0.1-0.1c1.6-1.2,2.7-2.4,3.5-3.7c0.7-1.1,1.2-2.3,1.6-3.5H95
				c-0.4,1.3-0.9,2.5-1.7,3.7c-0.8,1.3-1.9,2.6-3.5,3.8c0,0.2,0,0.5-0.1,0.7c-0.1,0.3-0.4,0.6-0.9,1l0,0l0,0
				c-3.8,2.1-8.1,3.7-13,4.8c-4.2,0.9-8.9,1.3-14.1,1.3c-5.2,0-9.9-0.4-14.1-1.3c-4.9-1-9.3-2.6-13-4.8l0,0l0,0
				c-0.5-0.4-0.8-0.7-0.9-1c-0.1-0.3-0.1-0.5-0.1-0.7c-1.6-1.2-2.7-2.5-3.5-3.8c-0.8-1.2-1.3-2.5-1.7-3.7h0.4
				c0.4,1.2,0.9,2.4,1.6,3.5c0.8,1.3,1.9,2.6,3.5,3.7l0.1,0.1l0,0.1c0,0.2,0,0.4,0.1,0.6c0.1,0.2,0.3,0.5,0.8,0.9
				c3.7,2.1,8,3.7,12.9,4.7C51.8,109.1,56.5,109.5,61.6,109.5L61.6,109.5z M61.6,110.5c4.9,0,9.5-0.4,13.8-1.2
				c4.9-1,9.4-2.5,13.7-4.6c0.5-0.3,0.8-0.7,1-1c0.2-0.3,0.2-0.7,0-1.1l-0.1-0.2l0.1-0.1c1.3-0.9,2.5-2,3.4-3.2
				c0.9-1.3,1.5-2.8,2.1-4.4l0.4,0l0.3,0l0.2,0l0.1,0l0.2,0l0.1,0l0.1,0c2.7-1.4,1.6-6.9,0.8-10.6c-0.2-1-0.4-1.9-0.5-2.5
				c-0.3-2.4-0.4-4.9-0.4-7.4c0.1-2.5,0.3-5,0.7-7.6l0,0c0.2-1.2,0.5-2.4,0.8-3.6c0.6-2.4,1.3-4.7,0.6-7.1c-0.3-0.9-0.6-1.7-1.1-2.4
				c-0.4-0.5-0.8-1-1.4-1.4h0l-0.1,0h-0.1h-0.1l-0.1,0h-0.1h-0.1h-0.1l-0.1,0h-0.1h-0.1l-0.3,0l-0.2,0c0-1.1,0.1-2.1,0.4-3
				c0.3-0.9,0.7-1.6,1.1-2.4l0,0l0,0c1.1-1.6,2.2-3.4,2.8-5.2c0.1-0.2,0.1-0.4,0.1-0.5c0.1-0.8,0-1.5-0.1-2.1
				c-0.2-1.3-0.9-2.2-1.6-2.7c-0.4-0.3-0.8-0.5-1.2-0.6c0.4,0.3,0.7,0.7,1.1,1.1c0.7,1,1.1,2.2,1.2,3.5v0c0,0.8-0.1,1.6-0.5,2.5
				c-0.3,0.9-0.9,1.9-1.7,3.1l0,0c-0.6,0.9-1.2,1.8-1.6,2.8c-0.4,1-0.6,2.2-0.5,3.5l-0.4,0c-0.1-1.4,0.1-2.6,0.5-3.7
				c0.4-1.1,1-2,1.6-2.9l0,0c0.8-1.1,1.3-2.1,1.7-3c0.3-0.9,0.5-1.7,0.5-2.4c-0.1-1.2-0.5-2.4-1.1-3.3c-0.3-0.5-0.7-0.9-1.1-1.1
				c-0.4-0.3-0.9-0.4-1.3-0.4c-0.4,0-0.9,0.2-1.3,0.5l0,0l0,0c-0.5,0.2-1,0.6-1.5,0.9c-0.1,0.1-0.2,0.1-0.3,0.2
				c0.9,0.8,1.5,1.6,1.6,2.6c0.1,1.1-0.3,2.3-1.4,3.7v0c-0.7,0.9-1.4,1.9-1.9,3c-0.5,1.1-0.9,2.5-1.1,4.1l0,0
				c-0.2,3.1-0.2,5.3,0,6.8c0.2,1.1,0.4,1.8,0.8,2.3c0.2,0,0.3-0.1,0.4-0.1c0.4-0.2,0.7-0.5,0.8-0.9c0,0,0,0,0,0
				c0.1-0.4,0-0.8-0.1-1.3c-0.1-0.5-0.4-1-0.7-1.6l0,0l0,0c-0.4-0.9-0.6-1.8-0.5-2.4c0-0.2,0.1-0.5,0.3-0.6c0.1-0.2,0.3-0.3,0.5-0.4
				c0.3-0.1,0.7-0.2,1.1-0.1l0,0l0,0c0.9,0.4,1.6,1.2,2,2.5c0.3,1.3,0.3,3.1-0.3,5.8v0c-0.4,1.4-0.7,2.9-1,4.4
				c-0.3,1.5-0.5,3-0.7,4.5c-0.2,1.3-0.3,2.5-0.4,3.8c-0.1,1.3-0.2,2.5-0.2,3.8c0,1.2,0,2.4,0.1,3.6c0.1,1.2,0.2,2.4,0.4,3.7v0
				c0.1,0.9,0.2,1.8,0.3,2.7c0.2,1.8,0.5,3.6,0.5,5.4v0c0,0.1,0,0.2,0,0.3c0,1.2-0.1,2-1.4,3l0,0l0,0c-0.5,0.2-0.9,0.3-1.2,0.2
				c-0.3,0-0.5-0.1-0.7-0.3C89.1,95.2,89,95,89,94.7c0-0.1,0-0.1,0-0.2c-0.6,0.9-1.4,1.7-2.4,2.4l0,0c-0.5,0.4-1.2,0.7-2,0.9
				c-0.8,0.2-1.6,0.4-2.5,0.5h0c-0.6,0.1-0.9,0.2-1,0.3c-0.1,0.1-0.1,0.3,0,0.6c0,0,0.1,0.1,0.1,0.1c0.1,0,0.1,0.1,0.2,0.1
				c0.5,0.1,1.3-0.2,2.3-0.8c0.1-0.1,0.3-0.2,0.4-0.3c0.1-0.1,0.3-0.2,0.4-0.2c0.7-0.3,1.2-0.2,1.6,0l0,0c1.1,0.6,0.8,1.3-0.9,2
				c-0.9,0.5-1.9,0.9-3,1.2c-1.1,0.4-2.3,0.7-3.5,0.9c-4.8,1-10.6,1.4-17,1.4c-6.4,0-12.2-0.4-17-1.4c-1.2-0.3-2.4-0.6-3.5-0.9
				s-2.1-0.8-3-1.2c-1.7-0.7-2-1.4-0.9-2l0,0c0.4-0.2,0.9-0.3,1.6,0c0.1,0.1,0.2,0.1,0.4,0.2c0.1,0.1,0.2,0.2,0.4,0.3
				c1,0.7,1.8,0.9,2.3,0.8c0.1,0,0.2,0,0.2-0.1c0,0,0.1,0,0.1-0.1c0.1-0.3,0.1-0.4,0-0.6c-0.2-0.2-0.5-0.3-1-0.3h0
				c-0.9-0.1-1.8-0.2-2.5-0.5c-0.8-0.2-1.5-0.5-2-0.9l0,0c-1-0.8-1.8-1.6-2.4-2.4c0,0.1,0,0.2,0,0.2c0,0.3-0.1,0.5-0.3,0.7
				c-0.2,0.2-0.4,0.3-0.7,0.3c-0.3,0-0.7-0.1-1.2-0.2l0,0l0,0c-1.3-0.9-1.4-1.7-1.4-3c0-0.1,0-0.2,0-0.3v0c0-1.8,0.3-3.6,0.5-5.4
				c0.1-0.9,0.2-1.8,0.3-2.7v0c0.2-1.2,0.3-2.5,0.4-3.7c0.1-1.2,0.1-2.4,0.1-3.6c0-1.3-0.1-2.5-0.2-3.8c-0.1-1.3-0.2-2.5-0.4-3.8
				c-0.2-1.5-0.4-3-0.7-4.5c-0.3-1.5-0.6-2.9-1-4.4v0c-0.6-2.7-0.6-4.5-0.3-5.8c0.3-1.3,1-2.1,2-2.5l0,0l0,0c0.4-0.1,0.8,0,1.1,0.1
				c0.2,0.1,0.4,0.2,0.5,0.4c0.1,0.2,0.2,0.4,0.3,0.6c0.1,0.6,0,1.4-0.5,2.4l0,0l0,0c-0.4,0.6-0.6,1.2-0.7,1.6
				c-0.1,0.5-0.1,0.9-0.1,1.3c0,0,0,0,0,0c0.1,0.4,0.4,0.7,0.8,0.9c0.1,0.1,0.3,0.1,0.4,0.1c0.3-0.5,0.6-1.2,0.8-2.3
				c0.2-1.5,0.3-3.7,0-6.8l0,0c-0.2-1.7-0.6-3-1.1-4.1c-0.5-1.1-1.1-2.1-1.9-3v0c-1.1-1.4-1.5-2.6-1.4-3.7c0.1-1,0.6-1.9,1.6-2.6
				c-0.1-0.1-0.2-0.1-0.3-0.2c-0.5-0.3-1-0.7-1.5-0.9l0,0l0,0c-0.5-0.3-0.9-0.5-1.3-0.5c-0.5,0-0.9,0.1-1.3,0.4
				c-0.4,0.3-0.8,0.7-1.1,1.1c-0.6,0.9-1,2.1-1.1,3.3c0,0.7,0.1,1.5,0.5,2.4c0.3,0.9,0.9,1.9,1.7,3l0,0c0.6,0.9,1.2,1.9,1.6,2.9
				c0.4,1.1,0.6,2.3,0.5,3.7l-0.4,0c0.1-1.3-0.1-2.5-0.5-3.5s-1-1.9-1.6-2.8l0,0c-0.8-1.1-1.4-2.1-1.7-3.1c-0.3-0.9-0.5-1.8-0.5-2.5
				v0c0.1-1.3,0.5-2.5,1.2-3.5c0.3-0.4,0.7-0.8,1.1-1.1c-0.4,0.1-0.8,0.3-1.2,0.6c-0.7,0.5-1.4,1.4-1.6,2.7
				c-0.1,0.6-0.1,1.3-0.1,2.1c0,0.2,0.1,0.3,0.1,0.5c0.6,1.8,1.7,3.6,2.8,5.2l0,0l0,0c0.4,0.8,0.8,1.6,1.1,2.4
				c0.3,0.9,0.5,1.9,0.4,3l-0.2,0l-0.3,0h-0.1h-0.1l-0.1,0h-0.1H27h-0.1l-0.1,0h-0.1h-0.1l-0.1,0h0c-0.6,0.4-1,0.9-1.4,1.4
				c-0.5,0.7-0.9,1.5-1.1,2.4c-0.6,2.4,0,4.8,0.6,7.1c0.3,1.2,0.6,2.4,0.8,3.6l0,0c0.4,2.6,0.7,5.1,0.7,7.6c0.1,2.5-0.1,4.9-0.4,7.4
				c-0.1,0.7-0.3,1.6-0.5,2.5c-0.8,3.8-1.9,9.2,0.8,10.6l0.1,0l0.1,0l0.2,0l0.1,0l0.2,0l0.3,0l0.4,0c0.5,1.6,1.2,3.2,2.1,4.4
				c0.9,1.3,2,2.4,3.4,3.2l0.1,0.1l-0.1,0.2c-0.2,0.4-0.2,0.8,0,1.1c0.2,0.4,0.5,0.7,1,1c4.2,2.1,8.8,3.6,13.7,4.6
				C52.1,110.2,56.7,110.6,61.6,110.5L61.6,110.5z M92.9,94.5h-0.5c1.1-1.4,1.2-3.5,0.4-6.4v0c-0.3-1.3-0.5-2.5-0.7-3.8
				c-0.2-1.2-0.3-2.5-0.4-3.7l0,0c-0.2-2.9-0.2-5.9,0.1-9.1c0.3-3.2,0.8-6.6,1.6-10.2l0,0c1-4.7,0.7-7.8-0.9-9.1h0.6
				c1.4,1.6,1.7,4.6,0.7,9.2v0c-0.8,3.6-1.3,6.9-1.6,10.1c-0.3,3.2-0.3,6.2-0.1,9.1l0,0c0.1,1.2,0.2,2.4,0.4,3.6
				c0.2,1.2,0.4,2.5,0.7,3.7C94,90.9,93.9,93.1,92.9,94.5z M90.9,90.9l-1.1,1.5c0.1-0.7,0.1-1.4,0-2.1v0l0,0
				c-0.1-0.4-0.1-0.7,0.1-0.9c0.1-0.1,0.3-0.2,0.5-0.2c0.2,0,0.4,0.1,0.6,0.3C91.2,89.8,91.3,90.3,90.9,90.9L90.9,90.9z M88.6,26.8
				L88.6,26.8l0.2,0.2l0.1,0.1l0.1,0.1l0.1,0.1l0.1,0.1l0.1,0.1l0.1,0.1l0.1,0.1l0.1,0.1l0.1,0.1l0.1,0.1l0.1,0.1l0.1,0.1l0.1,0.1
				l0.1,0.1l0.1,0.1l0.1,0.1l0.1,0.1l0.1,0.1l0.1,0.1l0.1,0.1l0.1,0.1l0.1,0.1l0.1,0.1c-1.2-0.2-2.6,0.3-4,1
				c-0.4,0.2-0.8,0.4-1.2,0.7c-0.4,0.2-0.8,0.5-1.1,0.7l0,0l0,0l0,0l0,0c-0.4,0.2-0.8,0.5-1.2,0.8c-2.3,1.5-4.6,3-6.8,3.8
				c0.8-1,0.8-2.1-0.3-3.3c0.2-0.3,0.2-0.7,0.1-1.2c0-0.2,0.1-0.4,0.1-0.6c0.7-0.1,1.3-0.3,2-0.6c1.2-0.5,2.3-1.1,3.4-1.9l0,0l0,0
				c1.1-0.9,2.2-1.4,3.3-1.6C87,26.5,87.8,26.6,88.6,26.8L88.6,26.8z M76.9,36.4c2.5-0.8,5.1-2.5,7.7-4.1c0.4-0.2,0.7-0.5,1.2-0.8h0
				l0,0l0,0c0.4-0.2,0.7-0.5,1.1-0.7c0.4-0.2,0.8-0.5,1.2-0.7c2-1,4.1-1.5,5.2-0.2c0,0.1,0.1,0.2,0.1,0.3c0,0.2,0,0.3-0.1,0.5
				c-0.2,1-1,2.2-2.3,3.1l0,0c-1.3,0.8-2.3,1.6-2.7,2.3c-0.1,0.3-0.2,0.5-0.2,0.7l0,0l-0.1-0.1l-0.1-0.1l-0.1-0.1l-0.1-0.1l-0.1-0.1
				c0.4-0.8,1.4-1.7,2.5-2.5c1.5-1.2,3-2.4,2.6-3.6l0,0l0,0c0-0.1-0.1-0.1-0.1-0.2c-0.2-0.3-0.7-0.5-1.2-0.4c-0.5,0-1.1,0.2-1.8,0.5
				c-1.6,0.7-3.7,2-5.8,3.5l0,0c-1.7,1.1-3.3,2-4.8,2.6c-0.7,0.3-1.4,0.5-2.1,0.6C76.9,36.7,76.9,36.6,76.9,36.4z M87.3,36.1
				L87.3,36.1l-0.2-0.2L87,35.8l-0.1-0.1l-0.1-0.1l-0.1-0.1l-0.1-0.1l-0.1-0.1l-0.2-0.1L86,35.1L85.8,35l-0.2-0.1l-0.2-0.1l-0.2-0.1
				l-0.2-0.1L85,34.5l-0.2-0.1l-0.2-0.1l-0.2-0.1l-0.2-0.1L84,34c2.1-1.5,4.2-2.8,5.8-3.5c0.6-0.3,1.2-0.5,1.7-0.5
				c0.4,0,0.7,0.1,0.8,0.3c0,0,0,0.1,0.1,0.1c0.3,1-1.1,2.1-2.5,3.2C88.8,34.4,87.7,35.2,87.3,36.1L87.3,36.1z M92.9,32.6l0.2,0.2
				l0.1,0.1l0.1,0.1l0.1,0.1l0.1,0.1l0.1,0.1l0.1,0.1l0.1,0.1l0.1,0.1l0.1,0.1l0.1,0.1l0.1,0.1l0.1,0.1l0.1,0.1l0.1,0.1l0.1,0.1
				l0.1,0.1l0.1,0.1l0.1,0.1c-0.2,0-0.4,0-0.6,0.1c-1.5,0.2-2.8,1.1-4,2.2l0,0c-0.8,0.7-1.4,1-1.8,1.1c0,0-0.1,0-0.1,0
				c-0.1-0.3-0.1-0.6,0.1-0.9c0.4-0.7,1.3-1.4,2.5-2.2l0,0C91.9,33.8,92.5,33.2,92.9,32.6L92.9,32.6z M96,34.4L96,34.4l0.2,0.1
				l0.1,0.1l0.2,0.1l0.2,0.1l0.2,0.1l0.1,0.1l0.3,0.2l0.3,0.2l0.3,0.2l0.3,0.2l0.2,0.2l0.2,0.2l0.2,0.2l0.1,0.1
				c-0.2-0.2-0.3-0.3-0.5-0.4c-0.8-0.6-1.7-0.8-2.5-0.9c-0.9-0.1-1.5,0.1-2.3,0.6c-0.5,0.2-1,0.6-1.5,0.9c-1,0.6-1.9,1.3-2.9,1.2
				c0.5-0.2,1-0.5,1.7-1.1l0,0c1.2-1.1,2.4-1.9,3.8-2.1C95,34.4,95.5,34.4,96,34.4L96,34.4z M97.2,52.1L97.2,52.1l0.1,0h0.1h0.1h0
				c2.7,2.3,3.2,5.7,2.5,9c-0.6,2-1.1,3.9-1.4,5.9c-0.3,1.9-0.5,3.8-0.5,5.7l0,0c-0.1,2.1,0,4.2,0.2,6.2c0.2,2,0.4,4,0.7,6v0
				c0.5,2.8,0.7,5.2,0.5,6.9c-0.2,1.6-0.6,2.7-1.4,3.1l-0.1,0l-0.1,0l-0.2,0l-0.1,0l0,0c2.5-1.9,1.4-7.1,0.6-10.8
				c-0.2-1-0.4-1.9-0.5-2.5c-0.3-2.4-0.4-4.8-0.4-7.3s0.3-5,0.7-7.6v0c0.2-1.2,0.5-2.4,0.8-3.6c0.6-2.4,1.3-4.8,0.6-7.3v0
				c-0.3-0.9-0.7-1.7-1.2-2.5C98,52.9,97.6,52.5,97.2,52.1L97.2,52.1z M80.7,101.3l0-0.2l0-0.1l0-0.1l0-0.1l0-0.1l0-0.1l0-0.1l0-0.1
				l0-0.1l0-0.1v-0.1v-0.1v-0.1v-0.1l0-0.1l0-0.1l0-0.1l0-0.1l0-0.1l0-0.1l0-0.1l0-0.1v0c0,0,0.1,0,0.1,0.1c0.1,0,0.2,0.1,0.3,0.1
				c0.6,0.1,1.5-0.2,2.6-0.9l0,0l0,0l0,0c0.1-0.1,0.2-0.2,0.3-0.3c0.1-0.1,0.2-0.1,0.3-0.2c0.5-0.2,0.9-0.2,1.2,0l0,0
				c0.6,0.3,0.3,0.8-0.8,1.3l0,0l0,0c-0.9,0.4-1.9,0.8-3,1.2C81.6,101.1,81.2,101.2,80.7,101.3L80.7,101.3z M89.2,89.7L89.2,89.7
				L89.2,89.7l0.1-0.1l0-0.1l0,0c-0.1,0.2-0.1,0.5,0.1,0.9c0.3,1.1,0.1,2.2-0.4,3.2c-0.5,1-1.5,2-2.7,3l0,0
				c-0.5,0.4-1.1,0.7-1.9,0.9c-0.7,0.2-1.6,0.4-2.5,0.5l0,0c-0.6,0.1-1,0.2-1.2,0.4c0.1-0.2,0.2-0.3,0.4-0.4
				c0.4-0.2,0.9-0.3,1.4-0.4h0c2.1-0.3,3.6-1,4.6-2c1-1,1.7-2.3,2-3.7v0c0.1-0.4,0.1-0.8,0.1-1.1C89.3,90.3,89.3,90,89.2,89.7
				L89.2,89.7z M90.4,88.8L90.4,88.8l0.2-0.1l0,0l0.1-0.1l0,0l0.1-0.1l0,0l0.1-0.1l0,0l0.1-0.1l0,0l0.1-0.1c0.6-0.2,0.6,3.3,0.6,3.9
				c0,0.1,0,0.2,0,0.3c0,1.1-0.1,1.8-1.2,2.6c-0.4,0.2-0.7,0.2-1,0.2c-0.2,0-0.3-0.1-0.4-0.2c-0.1-0.1-0.1-0.3-0.2-0.5
				c0-0.3,0.1-0.7,0.3-1.2l1.6-2.3l0,0l0,0c0.4-0.8,0.3-1.4,0-1.8C91.1,89,90.8,88.9,90.4,88.8C90.4,88.8,90.4,88.8,90.4,88.8
				L90.4,88.8z M93.1,59.8h-1.4c0.5-0.4,0.8-0.9,0.9-1.5c0.1-0.8-0.2-1.7-0.8-2.7l0,0c-0.8-1.1-1-1.8-0.8-2.1
				c0.1-0.3,0.6-0.5,1.1-0.6c0.5,0.4,0.9,1,1.1,1.9C93.6,55.9,93.5,57.5,93.1,59.8L93.1,59.8z M91,59.8h-0.3
				c0.4-0.2,0.7-0.6,0.9-1.1c0,0,0,0,0-0.1v0c0.1-0.4,0-0.9-0.1-1.4c-0.1-0.5-0.4-1.1-0.8-1.7c-0.4-0.9-0.5-1.6-0.4-2.1
				c0-0.2,0.1-0.3,0.2-0.5c0.1-0.1,0.2-0.2,0.3-0.3c0.2-0.1,0.5-0.1,0.8-0.1c0,0,0.1,0,0.1,0.1c-0.5,0.1-0.9,0.4-1,0.8
				c-0.2,0.5,0,1.3,0.9,2.5l0,0c0.5,0.9,0.8,1.7,0.7,2.4C92.1,58.8,91.7,59.3,91,59.8L91,59.8z M88.8,59.6c-0.2-0.4-0.4-1-0.6-1.8
				c-0.2-1.3-0.3-3.2-0.2-5.5l0,0c0.2-2.3,0.6-4.2,1-5.7c0.6-2,2.9-4.4,3.1-6.4c0.1-0.9-0.3-1.8-1.2-2.6c0.2-0.1,0.4-0.2,0.6-0.3
				c0.9,0.7,1.4,1.5,1.5,2.5c0.1,1-0.3,2.1-1.3,3.5c-0.8,1-1.4,1.9-1.9,3.1c-0.5,1.2-0.9,2.5-1.1,4.3v0c-0.3,3.1-0.2,5.3,0,6.9
				c0.2,1,0.4,1.7,0.7,2.3C89.2,59.6,89,59.6,88.8,59.6L88.8,59.6z M90.5,37.8L90.5,37.8l-0.2,0C90.4,37.8,90.4,37.8,90.5,37.8
				C90.5,37.8,90.5,37.8,90.5,37.8L90.5,37.8z M30.3,94.5h0.5c-1.1-1.4-1.2-3.5-0.4-6.4v0c0.3-1.3,0.5-2.5,0.7-3.8
				c0.2-1.2,0.3-2.5,0.4-3.7l0,0c0.2-2.9,0.2-5.9-0.1-9.1c-0.3-3.2-0.8-6.6-1.6-10.2l0,0c-1-4.7-0.7-7.8,0.9-9.1H30
				c-1.4,1.6-1.7,4.6-0.7,9.2v0c0.8,3.6,1.3,6.9,1.6,10.1c0.3,3.2,0.3,6.2,0.1,9.1l0,0c-0.1,1.2-0.2,2.4-0.4,3.6
				c-0.2,1.2-0.4,2.5-0.7,3.7C29.2,90.9,29.3,93.1,30.3,94.5z M32.3,90.9l1.1,1.5c-0.1-0.7-0.1-1.4,0-2.1v0l0,0
				c0.1-0.4,0.1-0.7-0.1-0.9c-0.1-0.1-0.3-0.2-0.5-0.2c-0.2,0-0.4,0.1-0.6,0.3C32,89.8,31.9,90.3,32.3,90.9L32.3,90.9z M34.6,26.8
				L34.6,26.8L34.4,27l-0.1,0.1l-0.1,0.1L34,27.2l-0.1,0.1l-0.1,0.1l-0.1,0.1l-0.1,0.1l-0.1,0.1l-0.1,0.1l-0.1,0.1L33,27.8l-0.1,0.1
				L32.7,28l-0.1,0.1l-0.1,0.1l-0.1,0.1l-0.1,0.1L32,28.4l-0.1,0.1l-0.1,0.1l-0.1,0.1l-0.1,0.1l-0.1,0.1c1.2-0.2,2.6,0.3,4,1
				c0.4,0.2,0.8,0.4,1.2,0.7c0.4,0.2,0.8,0.5,1.1,0.7l0,0l0,0l0,0l0,0c0.4,0.2,0.8,0.5,1.2,0.8c2.2,1.4,4.3,2.8,6.4,3.7
				c-0.7-1-0.6-2,0.4-3.1c-0.2-0.3-0.2-0.7-0.1-1.2c0-0.2-0.1-0.4-0.1-0.6c-0.6-0.1-1.2-0.3-1.7-0.5c-1.2-0.5-2.3-1.1-3.4-1.9l0,0
				l0,0c-1.1-0.9-2.2-1.4-3.3-1.6C36.2,26.5,35.4,26.6,34.6,26.8L34.6,26.8z M46,36.3c-2.4-0.8-4.9-2.4-7.3-4
				c-0.4-0.2-0.7-0.5-1.2-0.8h0l0,0l0,0c-0.4-0.2-0.7-0.5-1.1-0.7c-0.4-0.2-0.8-0.5-1.2-0.7c-2-1-4.1-1.5-5.2-0.2
				c0,0.1-0.1,0.2-0.1,0.3c0,0.2,0,0.3,0.1,0.5c0.2,1,1,2.2,2.3,3.1l0,0c1.3,0.8,2.3,1.6,2.7,2.3c0.1,0.3,0.2,0.5,0.2,0.7l0,0
				l0.1-0.1l0.1-0.1l0.1-0.1l0.1-0.1l0.1-0.1c-0.4-0.8-1.4-1.7-2.5-2.5c-1.5-1.2-3-2.4-2.6-3.6l0,0l0,0c0-0.1,0.1-0.1,0.1-0.2
				c0.2-0.3,0.7-0.5,1.2-0.4c0.5,0,1.1,0.2,1.8,0.5c1.6,0.7,3.7,2,5.8,3.5l0,0c1.7,1.1,3.3,2,4.8,2.6c0.7,0.3,1.3,0.5,1.9,0.6
				c0-0.2,0-0.3,0-0.5C46,36.4,46,36.3,46,36.3L46,36.3z M35.9,36.1L35.9,36.1l0.2-0.2l0.1-0.1l0.1-0.1l0.1-0.1l0.1-0.1l0.1-0.1
				l0.1-0.1l0.2-0.1l0.2-0.1l0.2-0.1l0.2-0.1l0.2-0.1l0.2-0.1l0.2-0.1l0.2-0.1l0.2-0.1l0.2-0.1l0.2-0.1l0.2-0.1l0.2-0.1
				c-2.1-1.5-4.2-2.8-5.8-3.5c-0.6-0.3-1.2-0.5-1.7-0.5c-0.4,0-0.7,0.1-0.8,0.3c0,0,0,0.1-0.1,0.1c-0.3,1,1.1,2.1,2.5,3.2
				C34.4,34.4,35.5,35.2,35.9,36.1L35.9,36.1z M30.3,32.6L30,32.7l-0.1,0.1l-0.1,0.1l-0.1,0.1L29.7,33l-0.1,0.1l-0.1,0.1l-0.1,0.1
				l-0.1,0.1l-0.1,0.1L29,33.4l-0.1,0.1l-0.1,0.1l-0.1,0.1l-0.1,0.1l-0.1,0.1l-0.1,0.1l-0.1,0.1L28.1,34c0.2,0,0.4,0,0.6,0.1
				c1.5,0.2,2.8,1.1,4,2.2l0,0c0.8,0.7,1.4,1,1.8,1.1c0,0,0.1,0,0.1,0c0.1-0.3,0.1-0.6-0.1-0.9c-0.4-0.7-1.3-1.4-2.5-2.2l0,0
				C31.3,33.8,30.7,33.2,30.3,32.6L30.3,32.6z M27.2,34.5L27.2,34.5L27,34.5l-0.1,0.1l-0.2,0.1l-0.2,0.1l-0.2,0.1l-0.1,0.1L26,35
				l-0.3,0.2l-0.3,0.2l-0.3,0.2l-0.2,0.2L24.7,36l-0.2,0.2l-0.1,0.1c0.2-0.2,0.3-0.3,0.5-0.4c0.8-0.6,1.7-0.8,2.5-0.9
				c0.9-0.1,1.5,0.1,2.3,0.6c0.5,0.2,1,0.6,1.5,0.9c1,0.6,1.9,1.3,2.9,1.2c-0.5-0.2-1-0.5-1.7-1.1l0,0c-1.2-1.1-2.4-1.9-3.8-2.1
				C28.2,34.4,27.7,34.4,27.2,34.5L27.2,34.5z M26,52.1L26,52.1l-0.1,0h-0.1h-0.1h0c-2.7,2.3-3.2,5.7-2.5,9c0.6,2,1.1,3.9,1.4,5.9
				c0.3,1.9,0.5,3.8,0.5,5.7l0,0c0.1,2.1,0,4.2-0.2,6.2c-0.2,2-0.4,4-0.7,6v0c-0.5,2.8-0.7,5.2-0.5,6.9c0.2,1.6,0.6,2.7,1.4,3.1
				l0.1,0l0.1,0l0.2,0l0.1,0l0,0c-2.5-1.9-1.4-7.1-0.6-10.8c0.2-1,0.4-1.9,0.5-2.5c0.3-2.4,0.4-4.8,0.4-7.3s-0.3-5-0.7-7.6v0
				c-0.2-1.2-0.5-2.4-0.8-3.6c-0.6-2.4-1.3-4.8-0.6-7.3v0c0.3-0.9,0.7-1.7,1.2-2.5C25.2,52.9,25.6,52.5,26,52.1L26,52.1z
				 M42.4,101.3l0-0.2l0-0.1l0-0.1l0-0.1l0-0.1l0-0.1l0-0.1l0-0.1l0-0.1l0-0.1v-0.1v-0.1v-0.1v-0.1l0-0.1l0-0.1l0-0.1l0-0.1l0-0.1
				l0-0.1l0-0.1l0-0.1v0c0,0-0.1,0-0.1,0.1c-0.1,0-0.2,0.1-0.3,0.1c-0.6,0.1-1.5-0.2-2.6-0.9l0,0l0,0l0,0c-0.1-0.1-0.2-0.2-0.3-0.3
				c-0.1-0.1-0.2-0.1-0.3-0.2c-0.5-0.2-0.9-0.2-1.2,0l0,0c-0.6,0.3-0.3,0.8,0.8,1.3l0,0l0,0c0.9,0.4,1.9,0.8,3,1.2
				C41.6,101.1,42,101.2,42.4,101.3L42.4,101.3z M34,89.7L34,89.7L34,89.7l-0.1-0.1l0-0.1l0,0c0.1,0.2,0.1,0.5-0.1,0.9
				c-0.3,1.1-0.1,2.2,0.4,3.2c0.5,1,1.5,2,2.7,3l0,0c0.5,0.4,1.1,0.7,1.9,0.9c0.7,0.2,1.6,0.4,2.5,0.5l0,0c0.6,0.1,1,0.2,1.2,0.4
				c-0.1-0.2-0.2-0.3-0.4-0.4c-0.4-0.2-0.9-0.3-1.4-0.4h0c-2.1-0.3-3.6-1-4.6-2c-1-1-1.7-2.3-2-3.7v0c-0.1-0.4-0.1-0.8-0.1-1.1
				C33.9,90.3,33.9,90,34,89.7L34,89.7z M32.8,88.8L32.8,88.8l-0.2-0.1l0,0l-0.1-0.1l0,0l-0.1-0.1l0,0l-0.1-0.1l0,0l-0.1-0.1l0,0
				l-0.1-0.1c-0.6-0.2-0.6,3.3-0.6,3.9c0,0.1,0,0.2,0,0.3c0,1.1,0.1,1.8,1.2,2.6c0.4,0.2,0.7,0.2,1,0.2c0.2,0,0.3-0.1,0.4-0.2
				c0.1-0.1,0.1-0.3,0.2-0.5c0-0.3-0.1-0.7-0.3-1.2l-1.6-2.3l0,0l0,0c-0.4-0.8-0.3-1.4,0-1.8C32.1,89,32.4,88.9,32.8,88.8
				C32.8,88.8,32.8,88.8,32.8,88.8L32.8,88.8z M30.1,59.8h1.4c-0.5-0.4-0.8-0.9-0.9-1.5c-0.1-0.8,0.2-1.7,0.8-2.7l0,0
				c0.8-1.1,1-1.8,0.8-2.1c-0.1-0.3-0.6-0.5-1.1-0.6c-0.5,0.4-0.9,1-1.1,1.9C29.6,55.9,29.7,57.5,30.1,59.8L30.1,59.8z M32.2,59.8
				h0.3c-0.4-0.2-0.7-0.6-0.9-1.1c0,0,0,0,0-0.1v0c-0.1-0.4,0-0.9,0.1-1.4c0.1-0.5,0.4-1.1,0.8-1.7c0.4-0.9,0.5-1.6,0.4-2.1
				c0-0.2-0.1-0.3-0.2-0.5c-0.1-0.1-0.2-0.2-0.3-0.3c-0.2-0.1-0.5-0.1-0.8-0.1c0,0-0.1,0-0.1,0.1c0.5,0.1,0.9,0.4,1,0.8
				c0.2,0.5,0,1.3-0.9,2.5l0,0c-0.5,0.9-0.8,1.7-0.7,2.4C31.1,58.8,31.5,59.3,32.2,59.8L32.2,59.8z M34.4,59.6
				c0.2-0.4,0.4-1,0.6-1.8c0.2-1.3,0.3-3.2,0.2-5.5l0,0c-0.2-2.3-0.6-4.2-1-5.7c-0.6-2-2.9-4.4-3.1-6.4c-0.1-0.9,0.3-1.8,1.2-2.6
				c-0.2-0.1-0.4-0.2-0.6-0.3c-0.9,0.7-1.4,1.5-1.5,2.5c-0.1,1,0.3,2.1,1.3,3.5c0.8,1,1.4,1.9,1.9,3.1c0.5,1.2,0.9,2.5,1.1,4.3v0
				c0.3,3.1,0.2,5.3,0,6.9c-0.2,1-0.4,1.7-0.7,2.3C33.9,59.7,34.2,59.6,34.4,59.6L34.4,59.6z M32.7,37.8L32.7,37.8l0.2,0
				C32.8,37.8,32.8,37.8,32.7,37.8C32.7,37.8,32.7,37.8,32.7,37.8L32.7,37.8z"/>
		</g>
	</g>
	<path class="st7" d="M69.2,32.8c-1.4-0.2-2.5,0.3-2.6,1.1c-0.1,0.8,0.9,1.6,2.3,1.7c1.4,0.2,2.5-0.3,2.6-1.1S70.6,33,69.2,32.8z"/>
	<path class="st2" d="M69.2,32.8c-1.4-0.2-2.5,0.3-2.6,1.1c-0.1,0.8,0.9,1.6,2.3,1.7c1.4,0.2,2.5-0.3,2.6-1.1S70.6,33,69.2,32.8z"/>
	<polygon class="st7" points="69.2,33.1 69.1,33.1 69,33.1 68.9,33.1 68.7,33.1 68.6,33.1 68.5,33.1 68.4,33.1 68.3,33.1 68.2,33.1 
		68.1,33.1 68,33.2 67.9,33.2 67.8,33.2 67.7,33.2 67.6,33.3 67.6,33.3 67.5,33.3 67.4,33.4 67.3,33.4 67.3,33.5 67.2,33.5 
		67.2,33.5 67.1,33.6 67.1,33.6 67,33.7 67,33.7 67,33.8 66.9,33.8 66.9,33.9 66.9,33.9 66.9,34 66.9,34 66.9,34.1 66.9,34.1 
		66.9,34.2 66.9,34.2 66.9,34.3 66.9,34.3 66.9,34.4 67,34.4 67,34.5 67.1,34.5 67.1,34.6 67.1,34.6 67.2,34.7 67.2,34.7 67.3,34.8 
		67.4,34.8 67.5,34.9 67.5,34.9 67.6,35 67.7,35 67.8,35.1 67.9,35.1 68,35.2 68.1,35.2 68.2,35.2 68.3,35.3 68.4,35.3 68.5,35.3 
		68.6,35.4 68.7,35.4 68.8,35.4 68.9,35.4 69.1,35.4 69.2,35.4 69.3,35.4 69.4,35.4 69.5,35.4 69.6,35.4 69.7,35.4 69.8,35.4 
		70,35.4 70.1,35.4 70.2,35.4 70.2,35.3 70.3,35.3 70.4,35.3 70.5,35.3 70.6,35.2 70.7,35.2 70.7,35.2 70.8,35.1 70.9,35.1 70.9,35 
		71,35 71,35 71.1,34.9 71.1,34.9 71.2,34.8 71.2,34.8 71.2,34.7 71.2,34.7 71.3,34.6 71.3,34.6 71.3,34.5 71.3,34.5 71.3,34.4 
		71.3,34.4 71.3,34.3 71.2,34.3 71.2,34.2 71.2,34.2 71.2,34.1 71.1,34.1 71.1,34 71.1,34 71,33.9 71,33.9 70.9,33.8 70.8,33.8 
		70.8,33.7 70.7,33.6 70.6,33.6 70.5,33.5 70.5,33.5 70.4,33.5 70.3,33.4 70.2,33.4 70.1,33.3 70,33.3 69.9,33.3 69.8,33.2 
		69.7,33.2 69.6,33.2 69.5,33.2 69.3,33.1 	"/>
</g>
</svg>
