<?xml version="1.0" encoding="utf-8"?>
<!-- Generator: Adobe Illustrator 22.0.1, SVG Export Plug-In . SVG Version: 6.00 Build 0)  -->
<svg version="1.1" id="Слой_1" xmlns="http://www.w3.org/2000/svg" xmlns:xlink="http://www.w3.org/1999/xlink" x="0px" y="0px"
	 viewBox="0 0 127.3 127" style="enable-background:new 0 0 127.3 127;" xml:space="preserve">
<style type="text/css">
	.st0{fill:url(#SVGID_1_);}
	.st1{fill:#FFFFFF;}
	.st2{fill:#694B32;}
	.st3{fill:#DC231E;}
	.st4{fill:#E1E1E1;}
	.st5{fill:#C8A064;}
	.st6{clip-path:url(#SVGID_3_);}
	.st7{fill:#786441;}
	.st8{fill:#96C8C8;}
</style>
<radialGradient id="SVGID_1_" cx="64.8" cy="2586.7468" r="62.6" gradientTransform="matrix(1 0 0 1 0 -2522.3469)" gradientUnits="userSpaceOnUse">
	<stop  offset="0.9487" style="stop-color:#212121"/>
	<stop  offset="1" style="stop-color:#606060;stop-opacity:0"/>
</radialGradient>
<circle class="st0" cx="64.8" cy="64.4" r="62.6"/>
<circle class="st1" cx="62.6" cy="62.6" r="62.6"/>
<g>
	<path class="st2" d="M88.3,47.6H37.7v49c0,3.2,1.3,6.2,4.3,7.6c1,0.4,2.1,0.7,3.2,0.7h0c2.1,0,4.2-0.3,6.2-0.5
		c1.2-0.1,2.4-0.2,3.6-0.3c0.7,0,1.3,0.1,2,0.2c1.4,0.3,2.7,0.8,3.9,1.6c0.9,0.6,1.8,1.5,2.1,2.6l0.2,0.8l0.2-0.8
		c0.5-1.6,2.3-2.9,3.7-3.6c1.1-0.5,2.5-0.9,3.7-0.9h0c3.3,0,6.7,0.5,10,0.8c1,0.1,2.1-0.1,3-0.5c1.3-0.6,2.4-1.6,3.2-2.9
		c0.9-1.5,1.2-3.3,1.2-5L88.3,47.6z M53.3,75.3c-0.1,0.2-0.3,0.5-0.4,0.5c-0.3,0-0.4-0.2-0.4-0.5c0-0.2-0.1-0.4,0.1-0.7
		c0.1-0.1,0.3-0.2,0.3,0.1c0,0.2,0.3,0,0.4,0C53.4,74.9,53.4,75.1,53.3,75.3L53.3,75.3z M53.3,75.3"/>
	<path class="st3" d="M88.1,47.8H37.9v48.7c0.1,5.6,3.6,7.9,7.3,8c3.1,0,6.6-0.7,9.8-0.8c3.6,0,7.4,2.1,8.2,4.6
		c0.8-2.4,4.7-4.8,7.7-4.6c3.3,0,6.7,0.5,10,0.8c3.9,0.3,7.1-2.9,7.1-8.1L88.1,47.8z M53.3,74.8c0.1,0.1,0.1,0.3,0,0.5
		c-0.1,0.2-0.3,0.5-0.4,0.5c-0.3,0-0.4-0.2-0.4-0.5c0-0.2-0.1-0.4,0.1-0.7c0.1-0.1,0.3-0.2,0.3,0.1C52.9,74.9,53.2,74.7,53.3,74.8
		L53.3,74.8z M53.3,74.8"/>
	<path d="M78.6,84.5l0.4,0l-0.1-0.4c-0.2-0.9-0.4-2.4-0.9-3.2l0,0l0,0c-0.7-0.6-1.5-1.4-1.9-2.3l0,0l0,0c-0.3-0.4-0.7-0.5-1.2-0.5h0
		c0.2-0.1,0.2-0.4,0.3-0.6h-0.4l0-0.1l-1.2,0c0-0.1,0-0.1,0-0.2v-0.2L73.4,77c-0.4-0.2-1.2-0.1-1.9,0c0.1-0.1,0.1-0.2,0.1-0.4
		l-0.1-0.2l-0.2,0c-0.4,0-0.8,0.2-1.1,0.4c-0.1,0-0.3,0.2-0.5,0.2c0,0,0.1-0.1,0.1-0.1l0.1-0.1c0.1-0.1,0.2-0.3,0.1-0.4
		c-0.1-0.1-0.3-0.2-0.4-0.1c-0.3,0.1-0.6,0.2-0.9,0.2c-0.2,0-0.5,0.1-0.7,0.2c-0.1,0-0.2,0-0.3,0l-0.2,0c-0.3-0.1-0.8-0.2-0.9-0.2
		c-0.4-0.1-0.8-0.2-1.2-0.3c-0.2,0-0.4-0.1-0.6-0.2l-0.8-0.2c-0.6-0.2-1.2-0.3-1.8-0.5c-0.1,0-0.3-0.1-0.4-0.1h0
		c-0.3-0.1-0.5-0.1-0.8-0.2l-0.2,0c-0.1,0-0.2,0-0.3-0.1l-0.1,0l-0.2,0l-0.2,0c0,0-0.1,0-0.1,0c-0.1,0-0.2,0-0.3,0c0,0-0.1,0-0.1,0
		c-0.1,0-0.2,0-0.2,0c-0.1,0-0.1,0-0.2,0c-0.4,0.1-0.7,0.3-1,0.5c-0.3,0.2-0.6,0.3-0.9,0.4c-0.1,0-0.2,0.1-0.3,0.1
		c0.1-0.1,0.1-0.3,0-0.4c-0.2-0.2-0.5-0.2-0.7-0.2c-0.1,0-0.2,0-0.4,0c0,0,0,0,0-0.1c0,0,0-0.1,0-0.1V75l-0.4,0.1
		c-0.4,0.1-0.7,0.1-1.1,0.3c-0.1,0.1-0.2,0.1-0.2,0.2c0.2-0.5,0.2-1.3-0.2-1.6c-0.5-0.4-1-0.3-1.4,0c0-0.2-0.2-0.3-0.4-0.4
		c-0.2-0.1-0.5-0.3-0.6-0.3l0,0h0c-0.4,0-0.7,0.4-0.9,0.7c-0.2,0.3-0.3,0.8,0,1.2c0,0,0,0,0.1,0.1c-0.5,0.2-0.9,0.5-1.2,0.7l0,0
		c-0.2,0.1-0.4,0.6-0.5,0.8c-0.1,0.2-0.2,0.3-0.3,0.5l-0.1,0l-0.1,0.1c-0.5,0.6-1.4,0.8-2.1,1.1l-0.1,0.1l0,0.2c0,0.1,0,0.2,0,0.3
		c0,0.1,0,0.1,0,0.2v0.2l0.2,0.1c0,0,0,0,0,0c0.1,0.1,0,0.7,0.2,1.2l0.2,0.3c0.3,0.4,0.6,0.7,1.3,0.8c0.3,0.1,0.7,0.1,1,0.2
		c0.3,0.1,1,0.2,1.1,0.4c0,0,0,0.1,0,0.1l0.1,0.2h0.2c0.2,0,0.3-0.1,0.4-0.2c0,0.1,0.1,0.3,0.2,0.4l0.1,0.2l0.2-0.1
		c0.2,0,0.3-0.2,0.3-0.3c0,0.1,0.1,0.1,0.1,0.2c0.2,0.1,0.4,0,0.5-0.1c0,0,0.1-0.1,0.1-0.1c0.1,0.2,0.1,0.5,0.3,0.6
		c0.2,0.1,0.5,0,0.7-0.1c0,0.1,0,0.3,0,0.4c0,0.2,0,0.4,0,0.6l0.1,0.4l-0.2,0.2c-0.2,0.2-0.6,0.3-0.9,0.5l0,0l0,0
		c-0.2,0.2-0.5,0.3-0.8,0.4c-0.3,0.1-0.6,0.3-0.8,0.5c-0.6,0.3-0.8,0.8-1.1,1.4c-0.1,0.2-0.2,0.4-0.3,0.6l-0.1,0.1l0,0.1
		c0,0.1,0,0.1,0,0.2c-0.1,0.1-0.2,0.3-0.3,0.4l0,0v0c-0.1,0.4-0.4,0.7-0.5,1c-0.1,0.2-0.2,0.4-0.2,0.6c0,0.1-0.1,0.3-0.1,0.4
		L48,91.1l0,0.1c-0.1,0.3,0,0.6,0.1,0.8c0.5,0.9,0.6,1,1.6,0.8c0.2,0,0.4-0.1,0.5-0.3c0.1-0.1,0.2-0.3,0.2-0.4l0-0.1l0-0.1
		c0.1-0.7,0.9-0.9,1.1-1.7l0-0.1c0,0.1,0.1,0.1,0.1,0.1c0.1,0.1,0.2,0,0.3,0l0.8-0.7c-0.5,0.8,0.8,0.4,1.2,0.1c0,0,0,0.1,0.1,0.1
		c0.2,0.2,0.4,0,0.6-0.1c0.1-0.1,0.2-0.2,0.3-0.4c0.2-0.2,0.3-0.5,0.3-0.8l0.1,0.1c0,0.1,0.1,0.1,0.1,0.2c0.1,0.3,0.2,0.6,0.3,0.9
		l0,0.1l0.1,0.1c0.1,0.1,0.3,0.3,0.5,0.1c0,0,0,0,0,0c0,0.1,0,0.2,0,0.3c0,0.2,0,0.4,0,0.5c0,0.1,0,0.3,0.1,0.4l0.1,0.2l0.2,0
		c0,0,0,0,0,0c0.1,0.1-0.1,0.7,0.2,1.1l0.1,0.1l0.1,0c0.1,0.2,0.1,0.3,0.1,0.5h-0.1v0.3c0,0.6-0.5,0.8-1,0.9c-0.5,0.1-1,0.3-1.3,0.7
		c0,0.1-0.1,0.1-0.1,0.2l-0.1,0.3l0.3,0.1h0c-0.1,0.1-0.1,0.3,0,0.5c0.1,0.1,0.3,0.1,0.5,0.1c0,0,0,0,0,0.1c0.1,0.1,0.2,0.2,0.4,0.2
		c1.3-0.5,2.6-0.7,3.9-0.6c0.5,0,0.7-0.6,0.7-1c0-0.1,0-0.3,0-0.4c0,0,0-0.1,0-0.1h0.1v-0.2c0.1,0,0.2,0,0.2-0.1
		c0.4-0.3,0.4-0.8,0.4-1.2c0-0.2,0-0.3,0.1-0.5l0.4-0.4l0-1.5l0.3,0.2l0-0.7c0-0.1,0-0.3,0-0.4l0.2,0.1l0-0.4c0-0.1,0-0.1,0-0.2h0.1
		l0.2-0.3c0.1-0.1,0.2,0.3,0.4,0.3c0.2,0.1,0.4,0,0.6,0c0.2,0,0.3,0,0.5,0c0.3,0,0.4-0.2,0.5-0.4c0.1,0.1,0.3,0.2,0.4,0.3
		c0.1,0,0.1,0.1,0.2,0c0.2,0,0.3-0.2,0.4-0.4c0.1,0.2,0.2,0.5,0.4,0.6l0,0c0,0.2,0,0.3,0.1,0.4c0.1,0.3,0.2,0.6,0.3,0.9
		c0.1,0.2,0.2,0.4,0.2,0.6c0,0.1,0.1,0.1,0.1,0.2c0.1,0.2,0.2,0.2,0.4,0.2c0,0,0.1,0,0.1-0.1c0,0.2,0,0.3,0,0.4
		c0,0.2,0.1,0.3,0.1,0.4c0,0.1,0.1,0.2,0.1,0.2c0,0,0,0,0,0.1c0,0.1,0,0.1,0,0.2c-0.1,0.3-0.8,0.7-1.1,0.8c-0.6,0.3-1.8,0.7-1.8,1.5
		v0c0.1,0.9,1.9,0.9,2.3,0.9c0.5-0.1,0.9-0.2,1.4-0.3c0.5-0.2,1.3-0.4,1.8-0.7c1-0.7,1-1.9,0.7-3l-0.2-0.7c0-0.1,0.1-0.2,0.1-0.3
		c0-0.2,0.1-0.4,0-0.6c0.3,0,0.3-0.5,0.3-0.8v0c0.1,0.1,0.1,0.2,0.1,0.3c0.1,0.2,0.2,0.4,0.2,0.5c0.2,0.3,0.5,1,0.7,0.2
		c0.1,0.7,0.6,2.1,1.1,2.5l0.4,0.3l0.2-1.2c0.3,0.4,0.5,0.8,0.6,1.3c0,0.1,0,0.2-0.1,0.3c-0.1,0.2-0.7,0.6-1,0.7
		c-0.2,0.1-0.4,0.3-0.6,0.4c-0.4,0.4-0.6,0.8-0.4,1.1c0.5,0.8,2.9,0.5,3.5,0.2c0.9-0.8,1.9-1.4,2.8-2.2l0.1-0.1l0-0.1
		c0.2-0.7-0.4-1.6-0.7-2.2c-0.1-0.3-0.3-0.6-0.4-0.9l0,0l0.4,0.2l0.1-0.4c0.1-0.6,0-1.1-0.2-1.7c-0.1-0.3-0.2-0.5-0.2-0.8
		c0.1,0.1,0.2,0.1,0.4,0.1c0.1,0,0.2-0.1,0.2-0.2c0.1-0.2,0.1-0.4,0.1-0.6c0-0.2-0.1-0.5-0.1-0.7c0-0.3,0.1-0.6,0.2-0.8
		c0.3-0.5,0.1-1-0.2-1.4c0.1,0,0.1,0.1,0.2,0.1C78.3,84.5,78.4,84.5,78.6,84.5L78.6,84.5z M54.5,76.8L54.5,76.8L54.5,76.8z
		 M53.3,74.8c0.1,0.1,0.1,0.3,0,0.5c-0.1,0.2-0.3,0.5-0.4,0.5c-0.3,0-0.4-0.2-0.4-0.5c0-0.2-0.1-0.4,0.1-0.7
		c0.1-0.1,0.3-0.2,0.3,0.1C52.9,74.9,53.2,74.7,53.3,74.8L53.3,74.8z M54.1,76.2L54.1,76.2L54,76.3c0,0,0-0.1,0-0.1l0,0H54.1z
		 M53.6,76.1c0,0-0.1,0-0.1,0c0.1-0.1,0.2-0.1,0.2-0.2l0,0L53.6,76.1z M53.6,76.1"/>
	<path class="st4" d="M70.3,92.1l-0.2-0.8c0-0.1,0.3-0.8,0-0.9c-0.9-0.2-0.1-0.8-1.2-1.1c-0.3-0.1-0.2,0.7-0.5,0.7
		c-0.5,0-0.3-1-0.8-0.9c-0.3,0-0.2,0.5-0.2,0.9c0,0-0.4-0.1-0.7-0.8c-0.3-0.6-0.7-0.1-0.5,0.4c0,0.1,0.6,1.8,0.7,1.7
		c0.5-0.7,0.5,0.1,0.5,0.6c0,0.4,0.2,0.5,0.2,0.7c0.1,0.6-0.5,0.9-1.3,1.3c-0.6,0.3-1.7,0.6-1.6,1.2c0.1,0.4,1-0.7,0.5,0.2
		c0.2,0.1,1.2-0.6,0.8,0.1c-0.5,0.8,2.9-0.2,3.7-0.8C70.6,94.1,70.5,93,70.3,92.1L70.3,92.1z M51.1,73.8c-0.8,0-1.2,1.9,0.2,1.1
		c0-0.4,0.2-0.6,0.4-0.8C52.3,74,51.6,73.9,51.1,73.8L51.1,73.8z M77,90.1c0.3-0.2,0.3,0.3,0.6,0.4c0.2-1.2-0.4-1.8-0.6-2.8
		c0.1-0.6,0.6,0.3,0.7,0.1c0.3-0.7-0.4-1.2,0.2-2.2c0.6-1-1.4-1.6-0.6-2.7c0.4,0.5,0.6,1.4,1.3,1.3c-0.2-0.8-0.4-2.4-0.9-3
		c-0.8-0.7-1.6-1.4-2-2.4c-0.3-0.5-1.2-0.1-1.7-0.5c0.1-0.2,0.5-0.3,0.6-0.4c0,0-0.2,0-0.2-0.1l-1.5,0c-0.1-0.3,0.3-0.2,0.3-0.5
		c-0.5-0.2-1.5,0-2.1,0.1c-0.2-0.2,0.2-0.6,0.2-0.7c-0.6,0-1.7,0.8-2.1,0.6c-0.1-0.3,0.6-0.8,0.4-0.7c-1,0.4-0.9,0.1-1.6,0.4
		c-0.1,0-0.2,0-0.4,0v0.1h-7.5c-0.2,0-0.4,0-0.6-0.1c-0.1,0-0.1-0.1-0.2-0.1c0,0-0.1,0-0.1-0.1c0,0-0.1-0.1-0.1-0.1c0,0,0,0,0-0.1
		l0,0c0,0,0,0,0,0l0,0c0-0.1-0.1-0.1-0.1-0.2c0,0,0,0,0,0c0,0,0,0,0-0.1c0-0.1,0-0.1,0-0.2v-0.8c-0.3,0.1-0.6,0.2-0.8,0.5
		c-0.3,0.2-1.7,0.9-2.1,0.7c0.9-1.1,0.2-0.5-1.1-0.7c0-0.2,0.3-0.3,0.3-0.4c-0.4,0.1-1,0.1-1.2,0.5c0.4,0,0.6,0.1,0.2,0.5l0.6,0.2
		c0.3,0.1-0.7,0.6,0,0.8c-0.2,0.1-0.3,0.6-0.6,0.3c-0.1-0.4,0.2-0.2-0.2-0.4c-0.2-0.1,0.1-0.3,0.1-0.4c-0.7,0.1-0.3-0.4-0.5-0.6
		c-0.9,0.2-0.9-0.2-0.2-0.7c0.2-0.3,0.3-1.2,0-1.4c-0.6-0.4-1.1-0.1-1.6,0.4c-0.3,0.4,0.2,0.7,0.2,1c-0.4,0.1-0.8,0.5-0.9-0.3
		c-0.7-0.1-1.5,0.5-2,0.9c-0.2,0.2-0.8,1.4-1,1.4c-0.6,0.6-1.4,0.8-2.2,1.2c0,0.2,0,0.3,0,0.5c0.5,0.2,0,0.9,0.4,1.3
		c0.5-0.2,1,0.3,1.4-0.1c0.3,0,0.6-0.3,0.8,0c-0.3,0.5-0.8,0.7-1.5,0.6c-0.2,0.8,2.6,0.2,3,1.3c0.3,0,0.2-0.4,0.6-0.4
		c0.2,0.2,0.1,0.5,0.3,0.7c0.3-0.1,0.2-0.5,0.4-0.6c0.7,0.1-0.1,1.1,0.9,0.1c0.5,0.5,0.1,1.2,0.9,0.6c0.6,0.1,0.1,0.9,0.3,1.4
		c0.6-0.5,0.2,0.5,0.6,0.5c0,0.3,0.1,0.6,0,0.9c0.3,0.3,0.1,1.1,0.5,0.4c0.3,0,0.2,1.5,0.3,1.8c0-0.2,0.2-0.2,0.3-0.1
		c0,0.8,0.5,1.3,0.6,2c0.3,0.3,0.2-0.2,0.3-0.3c0.4-0.2,0.4,1.5,0.5,1.8c0.6,0.1,0.2,0.8,0.4,1.2c0.4,0,0.4,1.1,0.2,1.1
		c0,1.5-2.1,1-2.5,1.9c0.2,0.1,0.4-0.2,0.5,0c-0.8,0.8-0.2,0.6,0.4,0.2c0.5,0.3-0.3,0.6-0.2,0.6c1.3-0.5,2.7-0.7,4-0.6
		c0.6,0,0.4-1.5,0.6-1.5c0-0.5,0.1-0.1,0.4-0.2c0.4-0.2,0.1-1.1,0.3-1.6l0.4-0.4l0-1.4c0.1-0.3-0.5-1,0.3-0.4c0-1-0.7-1.6-0.5-2.6
		c0.1,0,0.1,0.4,0.3,0.6c0,0.2,0.2,1.2,0.4,1.3c0-0.1-0.1-0.5,0.1-0.5l0.1-1.2c0.2,0-0.1-1.1,0-1.3c0.7-0.3,1,1.9,0.7,1.8
		c0.1,1.2,0.3,0.7,1.1,0.8c0.2,0,0.1-0.7,0.5-0.4c0.3,0.2,0.2,0.2,0.5,0.4c0.1,0.1,0.2-0.6,0.2-0.6c0.7-0.4,0.3,1.8,1.3,0.3
		c0.2-0.4,0.5,0.4,0.8,0.5c0.2,0,0.4-0.1,0.5-0.1c0.6-0.2,0.6,1.3,0.8-0.3c0.3,0.2,0.5,0.9,0.7,0.5c0.2-0.6-0.4-1.5,0-2
		c0.5-0.1,1.1,4.4,1.1,2.6c0-2,0.9,0.7,1.1,0.9c0-0.8,0.7-0.3,0.6,0.2c0.1,0.7,0.5,1.6,1,2l0.2-1.2c0.6,0.2,1.1,1.3,1.2,1.8
		c0,0.2,0,0.3-0.1,0.5c-0.3,0.6-1.8,0.9-2,1.8c0.1-0.1,0.5-0.3,0.6-0.2c0,0.2-0.1,0.4-0.2,0.5c0.5,0,0.5-0.5,0.5,0.2
		c0.6-0.3,1.3-0.2,2-0.3c0.8-0.7,2-1.6,2.8-2.3C78.4,92.5,76.9,91.2,77,90.1L77,90.1z M48.9,78.4c-0.2,0,0.4-1.3,0.8-0.2
		C49.7,78.7,49.9,78.6,48.9,78.4L48.9,78.4z M52.6,74.7c0.1-0.1,0.3-0.2,0.3,0.1c0,0.2,0.3,0,0.4,0c0.1,0.1,0.1,0.3,0,0.5
		c-0.1,0.2-0.3,0.5-0.4,0.5c-0.3,0-0.4-0.2-0.4-0.5C52.4,75.2,52.4,74.9,52.6,74.7L52.6,74.7z M53.5,81.2c-0.3,0-0.5-0.1-0.5,0.3
		c0,0.7-0.8,0-0.8,0.5c0,0.1-0.1,0.1-0.1,0c-0.1-0.2-0.4-0.2-0.7-0.3c-0.5-0.1-0.4-0.6-0.1-0.4c0.1,0,0.3,0.2,0.3,0.2
		c0.4,0.1,0.4-0.1,0.5-0.3c0-0.2,0.2,0,0.3,0.1c0.1,0.2,0.3,0.2,0.3,0.2c0.1-0.1,0-0.3,0-0.5c0-0.3,0.3-0.2,0.4-0.2
		c0.4,0.1,0.5,0,0.8-0.1C53.9,81.1,53.7,81.2,53.5,81.2L53.5,81.2z M54.5,88.4c-0.2,0,0.1-0.7,0.1-0.7c0.1-0.6,0.2-0.4-0.5-0.3
		c-0.2-0.4,0.1-0.6,0.2-1C53.7,86.6,54,86.2,54,86c0-0.3,0.3-0.9-0.2-1.1c-0.4,0.3-0.8,0.4-1.2,0.7c-0.4,0.4-1.2,0.5-1.6,0.9
		c-0.8,0.3-0.9,1.2-1.4,1.9c0,0.3-0.2,0.5-0.3,0.7c-0.2,0.6-0.6,1-0.7,1.6c-0.1,0.2,0,0.4-0.2,0.5c-0.1,0.5,0.3,0.9,0.3,1.1
		c0.2-0.1,0-0.3,0.2-0.4c0.4-0.2,0.2,0.4,0.4,0.5c0.1-0.2,0-0.6,0.2-0.6c0.1,0.1,0.3,0.4,0.2,0.6c0.3,0,0.3-0.3,0.4-0.5
		c0.1-0.8,1-1,1.1-1.8c1-1.3,0.5,0,0.6-0.1l0.9-0.7l0.3,0c0.2,0-0.1,0.5-0.1,0.5c0.4-0.1,0.9-0.3,1.2-0.6c0.1,0.1,0.1,0.3,0.1,0.4
		C54.2,89.8,55.7,88.4,54.5,88.4L54.5,88.4z M54.5,88.4"/>
	<path d="M53.3,75.3c-0.1,0.2-0.3,0.5-0.4,0.5c-0.3,0-0.4-0.2-0.4-0.5c0-0.2-0.1-0.4,0.1-0.7c0.1-0.1,0.3-0.2,0.3,0.1
		c0,0.2,0.3,0,0.4,0C53.4,74.9,53.4,75.1,53.3,75.3L53.3,75.3z M53.3,75.3"/>
	<path d="M66.9,67.3h0.7v9.9h-7.5c-0.7,0-1.1-0.4-1.2-0.8c0-0.1,0-0.1,0-0.2v-9.7c0-0.4,0.5-0.9,1.3-0.9l6.8,0l-0.2,0.2
		C66.6,66.2,66.6,66.7,66.9,67.3L66.9,67.3L66.9,67.3z M66.9,67.3"/>
	<path class="st5" d="M61.9,75.3V76h0.7L61.9,75.3z M61.9,68.4v0.7l0.7-0.7H61.9z M65.6,71.8v-0.3h-1.2v-0.8h0.6v-0.3h-0.6v-0.5
		h-0.3v0.5h-0.6v0.3h0.6v0.8H63v0.3h1.2v1.3l-0.7-0.4V73l0.7,0.4v1.3h0.3v-1.1l0.7,0.4v-0.3l-0.7-0.4v-1.4L65.6,71.8L65.6,71.8z
		 M65.7,68.4l0.7,0.7v-0.7H65.7z M65.6,71.8v-0.3h-1.2v-0.8h0.6v-0.3h-0.6v-0.5h-0.3v0.5h-0.6v0.3h0.6v0.8H63v0.3h1.2v1.3l-0.7-0.4
		V73l0.7,0.4v1.3h0.3v-1.1l0.7,0.4v-0.3l-0.7-0.4v-1.4L65.6,71.8L65.6,71.8z M65.5,68.4h-2.7l-0.9,0.9v5.8l0.3,0.3l0.7,0.7h2.7
		l0.9-0.9v-5.8L65.5,68.4z M65.8,71.9h-1.2v1.2l0.7,0.4v0.6l-0.7-0.4v1H64v-1.3L63.4,73v-0.6l0.7,0.4v-0.9h-1.2v-0.6H64v-0.5h-0.6
		v-0.6H64v-0.5h0.6v0.5h0.6v0.6h-0.6v0.5h1.2L65.8,71.9L65.8,71.9z M64.5,70.7h0.6v-0.3h-0.6v-0.5h-0.3v0.5h-0.6v0.3h0.6v0.8H63v0.3
		h1.2v1.3l-0.7-0.4V73l0.7,0.4v1.3h0.3v-1.1l0.7,0.4v-0.3l-0.7-0.4v-1.4h1.2v-0.3h-1.2L64.5,70.7L64.5,70.7z M65.7,76h0.7v-0.7
		L65.7,76z M66.5,76v-0.7L65.7,76H66.5z M62.8,68.4l-0.9,0.9v5.8l0.3,0.3l0.7,0.7h2.7l0.9-0.9v-5.8l-0.9-0.9L62.8,68.4L62.8,68.4z
		 M65.8,71.9h-1.2v1.2l0.7,0.4v0.6l-0.7-0.4v1H64v-1.3L63.4,73v-0.6l0.7,0.4v-0.9h-1.2v-0.6H64v-0.5h-0.6v-0.6H64v-0.5h0.6v0.5h0.6
		v0.6h-0.6v0.5h1.2L65.8,71.9L65.8,71.9z M65.7,68.4l0.7,0.7v-0.7H65.7z M64.5,70.7h0.6v-0.3h-0.6v-0.5h-0.3v0.5h-0.6v0.3h0.6v0.8
		H63v0.3h1.2v1.3l-0.7-0.4V73l0.7,0.4v1.3h0.3v-1.1l0.7,0.4v-0.3l-0.7-0.4v-1.4h1.2v-0.3h-1.2L64.5,70.7L64.5,70.7z M61.9,68.4v0.7
		l0.7-0.7H61.9z M61.9,76h0.7l-0.7-0.7V76z M60.9,67.4V77h6.5v-9.6L60.9,67.4L60.9,67.4z M61.7,76.2v-7.9h4.9v7.9L61.7,76.2
		L61.7,76.2z M66.5,76v-0.7L65.7,76H66.5z M62.8,68.4l-0.9,0.9v5.8l0.3,0.3l0.7,0.7h2.7l0.9-0.9v-5.8l-0.9-0.9L62.8,68.4L62.8,68.4z
		 M65.8,71.9h-1.2v1.2l0.7,0.4v0.6l-0.7-0.4v1H64v-1.3L63.4,73v-0.6l0.7,0.4v-0.9h-1.2v-0.6H64v-0.5h-0.6v-0.6H64v-0.5h0.6v0.5h0.6
		v0.6h-0.6v0.5h1.2L65.8,71.9L65.8,71.9z M66.5,69.1v-0.7h-0.7L66.5,69.1z M64.5,70.7h0.6v-0.3h-0.6v-0.5h-0.3v0.5h-0.6v0.3h0.6v0.8
		H63v0.3h1.2v1.3l-0.7-0.4V73l0.7,0.4v1.3h0.3v-1.1l0.7,0.4v-0.3l-0.7-0.4v-1.4h1.2v-0.3h-1.2V70.7z M61.9,68.4v0.7l0.7-0.7H61.9z
		 M61.9,76h0.7l-0.7-0.7V76z M61.9,75.3V76h0.7L61.9,75.3z M61.9,68.4v0.7l0.7-0.7H61.9z M65.6,71.8v-0.3h-1.2v-0.8h0.6v-0.3h-0.6
		v-0.5h-0.3v0.5h-0.6v0.3h0.6v0.8H63v0.3h1.2v1.3l-0.7-0.4V73l0.7,0.4v1.3h0.3v-1.1l0.7,0.4v-0.3l-0.7-0.4v-1.4L65.6,71.8L65.6,71.8
		z M65.7,68.4l0.7,0.7v-0.7H65.7z M65.6,71.8v-0.3h-1.2v-0.8h0.6v-0.3h-0.6v-0.5h-0.3v0.5h-0.6v0.3h0.6v0.8H63v0.3h1.2v1.3l-0.7-0.4
		V73l0.7,0.4v1.3h0.3v-1.1l0.7,0.4v-0.3l-0.7-0.4v-1.4L65.6,71.8L65.6,71.8z M65.5,68.4h-2.7l-0.9,0.9v5.8l0.3,0.3l0.7,0.7h2.7
		l0.9-0.9v-5.8L65.5,68.4z M65.8,71.9h-1.2v1.2l0.7,0.4v0.6l-0.7-0.4v1H64v-1.3L63.4,73v-0.6l0.7,0.4v-0.9h-1.2v-0.6H64v-0.5h-0.6
		v-0.6H64v-0.5h0.6v0.5h0.6v0.6h-0.6v0.5h1.2L65.8,71.9L65.8,71.9z M64.5,70.7h0.6v-0.3h-0.6v-0.5h-0.3v0.5h-0.6v0.3h0.6v0.8H63v0.3
		h1.2v1.3l-0.7-0.4V73l0.7,0.4v1.3h0.3v-1.1l0.7,0.4v-0.3l-0.7-0.4v-1.4h1.2v-0.3h-1.2L64.5,70.7L64.5,70.7z M65.7,76h0.7v-0.7
		L65.7,76z M65.7,76h0.7v-0.7L65.7,76z M65.6,71.8v-0.3h-1.2v-0.8h0.6v-0.3h-0.6v-0.5h-0.3v0.5h-0.6v0.3h0.6v0.8H63v0.3h1.2v1.3
		l-0.7-0.4V73l0.7,0.4v1.3h0.3v-1.1l0.7,0.4v-0.3l-0.7-0.4v-1.4L65.6,71.8L65.6,71.8z M65.6,71.8v-0.3h-1.2v-0.8h0.6v-0.3h-0.6v-0.5
		h-0.3v0.5h-0.6v0.3h0.6v0.8H63v0.3h1.2v1.3l-0.7-0.4V73l0.7,0.4v1.3h0.3v-1.1l0.7,0.4v-0.3l-0.7-0.4v-1.4L65.6,71.8L65.6,71.8z
		 M65.5,68.4h-2.7l-0.9,0.9v5.8l0.3,0.3l0.7,0.7h2.7l0.9-0.9v-5.8L65.5,68.4z M65.8,71.9h-1.2v1.2l0.7,0.4v0.6l-0.7-0.4v1H64v-1.3
		L63.4,73v-0.6l0.7,0.4v-0.9h-1.2v-0.6H64v-0.5h-0.6v-0.6H64v-0.5h0.6v0.5h0.6v0.6h-0.6v0.5h1.2L65.8,71.9L65.8,71.9z M64.5,70.7
		h0.6v-0.3h-0.6v-0.5h-0.3v0.5h-0.6v0.3h0.6v0.8H63v0.3h1.2v1.3l-0.7-0.4V73l0.7,0.4v1.3h0.3v-1.1l0.7,0.4v-0.3l-0.7-0.4v-1.4h1.2
		v-0.3h-1.2L64.5,70.7L64.5,70.7z M65.7,68.4l0.7,0.7v-0.7H65.7z M61.9,68.4v0.7l0.7-0.7H61.9z M61.9,75.3V76h0.7L61.9,75.3z
		 M65.6,71.8v-0.3h-1.2v-0.8h0.6v-0.3h-0.6v-0.5h-0.3v0.5h-0.6v0.3h0.6v0.8H63v0.3h1.2v1.3l-0.7-0.4V73l0.7,0.4v1.3h0.3v-1.1
		l0.7,0.4v-0.3l-0.7-0.4v-1.4L65.6,71.8L65.6,71.8z M65.6,71.8v-0.3h-1.2v-0.8h0.6v-0.3h-0.6v-0.5h-0.3v0.5h-0.6v0.3h0.6v0.8H63v0.3
		h1.2v1.3l-0.7-0.4V73l0.7,0.4v1.3h0.3v-1.1l0.7,0.4v-0.3l-0.7-0.4v-1.4L65.6,71.8L65.6,71.8z M65.7,76h0.7v-0.7L65.7,76z
		 M65.6,71.8v-0.3h-1.2v-0.8h0.6v-0.3h-0.6v-0.5h-0.3v0.5h-0.6v0.3h0.6v0.8H63v0.3h1.2v1.3l-0.7-0.4V73l0.7,0.4v1.3h0.3v-1.1
		l0.7,0.4v-0.3l-0.7-0.4v-1.4L65.6,71.8L65.6,71.8z M65.6,71.8v-0.3h-1.2v-0.8h0.6v-0.3h-0.6v-0.5h-0.3v0.5h-0.6v0.3h0.6v0.8H63v0.3
		h1.2v1.3l-0.7-0.4V73l0.7,0.4v1.3h0.3v-1.1l0.7,0.4v-0.3l-0.7-0.4v-1.4L65.6,71.8L65.6,71.8z M65.5,68.4h-2.7l-0.9,0.9v5.8l0.3,0.3
		l0.7,0.7h2.7l0.9-0.9v-5.8L65.5,68.4z M65.8,71.9h-1.2v1.2l0.7,0.4v0.6l-0.7-0.4v1H64v-1.3L63.4,73v-0.6l0.7,0.4v-0.9h-1.2v-0.6H64
		v-0.5h-0.6v-0.6H64v-0.5h0.6v0.5h0.6v0.6h-0.6v0.5h1.2L65.8,71.9L65.8,71.9z M64.5,70.7h0.6v-0.3h-0.6v-0.5h-0.3v0.5h-0.6v0.3h0.6
		v0.8H63v0.3h1.2v1.3l-0.7-0.4V73l0.7,0.4v1.3h0.3v-1.1l0.7,0.4v-0.3l-0.7-0.4v-1.4h1.2v-0.3h-1.2L64.5,70.7L64.5,70.7z M65.7,68.4
		l0.7,0.7v-0.7H65.7z M61.9,68.4v0.7l0.7-0.7H61.9z M61.9,75.3V76h0.7L61.9,75.3z M61.9,68.4v0.7l0.7-0.7H61.9z M65.6,71.8v-0.3
		h-1.2v-0.8h0.6v-0.3h-0.6v-0.5h-0.3v0.5h-0.6v0.3h0.6v0.8H63v0.3h1.2v1.3l-0.7-0.4V73l0.7,0.4v1.3h0.3v-1.1l0.7,0.4v-0.3l-0.7-0.4
		v-1.4L65.6,71.8L65.6,71.8z M65.6,71.8v-0.3h-1.2v-0.8h0.6v-0.3h-0.6v-0.5h-0.3v0.5h-0.6v0.3h0.6v0.8H63v0.3h1.2v1.3l-0.7-0.4V73
		l0.7,0.4v1.3h0.3v-1.1l0.7,0.4v-0.3l-0.7-0.4v-1.4L65.6,71.8L65.6,71.8z M65.5,68.4h-2.7l-0.9,0.9v5.8l0.3,0.3l0.7,0.7h2.7l0.9-0.9
		v-5.8L65.5,68.4z M65.8,71.9h-1.2v1.2l0.7,0.4v0.6l-0.7-0.4v1H64v-1.3L63.4,73v-0.6l0.7,0.4v-0.9h-1.2v-0.6H64v-0.5h-0.6v-0.6H64
		v-0.5h0.6v0.5h0.6v0.6h-0.6v0.5h1.2L65.8,71.9L65.8,71.9z M64.5,70.7h0.6v-0.3h-0.6v-0.5h-0.3v0.5h-0.6v0.3h0.6v0.8H63v0.3h1.2v1.3
		l-0.7-0.4V73l0.7,0.4v1.3h0.3v-1.1l0.7,0.4v-0.3l-0.7-0.4v-1.4h1.2v-0.3h-1.2L64.5,70.7L64.5,70.7z M65.7,68.4l0.7,0.7v-0.7H65.7z
		 M65.7,76h0.7v-0.7L65.7,76z M61.9,75.3V76h0.7L61.9,75.3z M61.9,75.3"/>
	<path class="st1" d="M60.2,65.7h6.5c-0.1,0.1-0.2,0.3-0.2,0.5h-5.3v0.1h5.3c0,0.2,0,0.3,0,0.5h-4.9v0.1h4.9c0,0.1,0.1,0.3,0.2,0.4
		h-6.5C58.8,67.3,58.8,65.6,60.2,65.7L60.2,65.7z M60.2,65.7"/>
	<path d="M62.4,62.1l-1-2.7l0.3,0.1c1,0.2,2,0.2,2.9,0l0.3-0.1l-1,2.7l2.5-1l-0.1,0.3c-0.2,1-0.2,2,0,2.9l0.1,0.3l-2.4-0.9L65,66
		l-0.3-0.1c-1-0.2-2-0.2-2.9,0L61.4,66l0.9-2.2l-2.4,0.9l0.1-0.3c0.2-1,0.2-2,0-2.9l-0.1-0.3L62.4,62.1z M62.4,62.1"/>
	<path class="st4" d="M60.2,61.4l2.6,1l-1.1-2.7c1,0.2,2,0.2,3,0l-1.1,2.7l2.6-1c-0.2,1-0.2,2,0,3l-2.4-1l0.9,2.3c-1-0.2-2-0.2-3,0
		l0.9-2.3l-2.4,1C60.4,63.4,60.4,62.4,60.2,61.4L60.2,61.4z M60.2,61.4"/>
	<path class="st5" d="M60.2,67.4c-0.6,0-0.9-0.2-1.1-0.5c0,0.1,0,0.2,0,0.3v0c0,0.2,0.2,0.4,0.3,0.5c0.2,0.1,0.4,0.2,0.7,0.2h0.6
		v-0.5H60.2z M60.1,68.1c-0.3,0-0.5-0.1-0.8-0.2c-0.1-0.1-0.2-0.2-0.3-0.3c0,0.1,0,0.2,0,0.3v0c0,0.2,0.2,0.4,0.3,0.5
		c0.2,0.1,0.4,0.2,0.7,0.2h0.6v-0.5L60.1,68.1L60.1,68.1z M60.1,68.8c-0.3,0-0.5-0.1-0.8-0.2c-0.1-0.1-0.2-0.2-0.3-0.3v2.8
		c0,0.1,0,0.1,0,0.2c0,0.2,0.2,0.4,0.3,0.5c0.2,0.1,0.4,0.2,0.7,0.2h0.6v-3.1L60.1,68.8L60.1,68.8z M59.5,71.1h-0.1v-2h0.1V71.1z
		 M59.9,71.2h-0.1v-2h0.1V71.2L59.9,71.2z M60.4,71.4h-0.1v-2h0.1V71.4z M60.1,72c-0.3,0-0.5-0.1-0.8-0.2c-0.1-0.1-0.2-0.2-0.3-0.3
		c0,0.1,0,0.2,0,0.3v0c0,0.2,0.2,0.4,0.3,0.5c0.2,0.1,0.4,0.2,0.7,0.2h0.6V72L60.1,72L60.1,72z M60.1,72.7c-0.3,0-0.5-0.1-0.8-0.2
		c-0.1-0.1-0.2-0.2-0.3-0.3v2.5c0,0.1,0,0.2,0,0.2l0,0.1c0,0.2,0.2,0.4,0.3,0.5c0.2,0.1,0.4,0.2,0.7,0.2h0.6v-3L60.1,72.7L60.1,72.7
		z M59.5,75h-0.1v-2h0.1V75z M59.9,75.2h-0.1v-2h0.1V75.2z M60.4,75.3h-0.1v-2h0.1V75.3z M60.1,75.8c-0.3,0-0.5-0.1-0.8-0.2
		c-0.1-0.1-0.2-0.2-0.3-0.3c0,0.1,0,0.2,0,0.3v0c0,0.2,0.2,0.4,0.3,0.5c0.2,0.1,0.4,0.2,0.7,0.2h0.6v-0.5H60.1L60.1,75.8z
		 M60.1,76.5c-0.3,0-0.5-0.1-0.8-0.2c-0.1-0.1-0.2-0.2-0.3-0.3v0.2c0,0.1,0,0.1,0,0.2c0.1,0.5,0.6,0.7,1,0.7h0.6v-0.5H60.1
		L60.1,76.5z M60.1,76.5"/>
	<g>
		<defs>
			<rect id="SVGID_2_" x="37.7" y="13.9" width="50.8" height="95.3"/>
		</defs>
		<clipPath id="SVGID_3_">
			<use xlink:href="#SVGID_2_"  style="overflow:visible;"/>
		</clipPath>
		<path class="st6" d="M61.8,23.8c0-0.5,0.3-1,0.8-1.2c0.5-0.2,1-0.1,1.4,0.3c0.4,0.4,0.5,0.9,0.3,1.4c-0.2,0.5-0.7,0.8-1.2,0.8
			C62.3,25.1,61.8,24.5,61.8,23.8L61.8,23.8z M61.8,23.8"/>
		<path class="st6" d="M78.4,35.9c-0.1-0.1-0.2-0.2-0.3-0.2c-0.1-0.1-0.2-0.1-0.4-0.1c-0.2-0.1-0.4-0.1-0.6-0.1
			c0.1-0.2,0.2-0.4,0.3-0.6c0.1-0.2,0.2-0.5,0.3-0.7c0.3-0.8,0.5-1.6,0.6-2.4c0-0.2,0.1-0.5,0.1-0.8c0-0.4,0-0.8,0-1.2
			c0-0.4-0.1-0.8-0.2-1.2c-0.1-0.3-0.1-0.6-0.2-0.9c-0.2-0.7-0.6-1.4-1.1-2c-0.2-0.2-0.3-0.4-0.5-0.6l0,0c-0.5-0.6-1.2-1-1.9-1.4
			c-0.2-0.1-0.4-0.2-0.6-0.3c-0.7-0.3-1.5-0.4-2.3-0.5l-0.1,0c-0.3,0-0.6,0-0.9,0c-0.7,0-1.4,0.1-2,0.3c-0.3,0.1-0.6,0.2-0.9,0.3
			c-0.5,0.2-1,0.4-1.4,0.6c0,0,0-0.1,0-0.1c0-1.4-0.9-2.6-2.3-3v-1.4H65l1,1.5h0.8v-4.7H66l-1,1.5h-1.2v-1.7l1.9-1.2v-1h-5.4v1
			l1.9,1.2v1.7h-1.2l-1-1.5h-0.8v4.7h0.8l1-1.5h1.2v1.4c-1.4,0.4-2.3,1.6-2.3,3c0,0,0,0.1,0,0.1c-0.5-0.2-1-0.4-1.4-0.6
			c-0.3-0.1-0.6-0.2-0.9-0.3c-0.7-0.2-1.3-0.3-2-0.3c-0.3,0-0.6,0-0.9,0l-0.1,0c-0.8,0-1.6,0.2-2.3,0.5c-0.2,0.1-0.4,0.2-0.6,0.3
			c-0.7,0.3-1.3,0.8-1.9,1.4l0,0c-0.2,0.2-0.4,0.4-0.5,0.6c-0.5,0.6-0.8,1.3-1.1,2c-0.1,0.3-0.2,0.6-0.3,0.9
			c-0.1,0.4-0.2,0.8-0.2,1.2c0,0.4,0,0.8,0,1.2c0,0.3,0,0.5,0.1,0.7c0.1,0.8,0.3,1.6,0.6,2.4c0.1,0.2,0.2,0.5,0.3,0.7
			c0.1,0.2,0.2,0.4,0.3,0.6c-0.2,0-0.4,0.1-0.6,0.1c-0.2,0.1-0.5,0.2-0.7,0.4c-0.2,0.2-0.3,0.4-0.3,0.6c0,0.3,0.4,0.4,0.6,0.5
			c0.4,0.1,0.9,0.3,1.2,0.6c0.7,0.5,1.2,1.3,1.6,2c0.4,0.8,0.8,1.7,1.1,2.5c0.4,1.1,0.7,2.2,1.2,3.3c0.2,0.6,0.6,1,1.2,1.3
			c0.9,0.5,2,0.6,3,0.6c3.8,0.1,7.7,0.1,11.5,0c1,0,2.1-0.2,3-0.6c0.5-0.3,0.9-0.7,1.2-1.3c0.5-1.1,0.8-2.2,1.2-3.3
			c0.3-0.9,0.6-1.7,1.1-2.5c0.4-0.7,0.9-1.5,1.6-2c0.4-0.3,0.8-0.5,1.2-0.6C78.9,36.7,78.8,36.2,78.4,35.9L78.4,35.9z M61.6,23.8
			c0-0.7,0.5-1.3,1.3-1.4c0.7-0.1,1.4,0.4,1.5,1.1c0.1,0.7-0.3,1.4-1,1.6c-0.7,0.2-1.4-0.1-1.7-0.8c0,0,0,0,0,0
			C61.7,24.2,61.6,24,61.6,23.8L61.6,23.8z M61.6,23.8"/>
	</g>
	<path class="st7" d="M78.3,29.7c-0.1-1.7-0.8-3.4-2-4.6c-1.3-1.3-3-2-4.8-2.1c-1.8-0.1-3.5,0.4-5.2,1.1l-2,7.5
		c0.2,0.1,0.4,0.2,0.6,0.4l1.9-7.5c8.1-3.5,13.7,3.4,9.6,10.9c0.2,0,0.4,0,0.6,0C77.9,33.6,78.4,31.6,78.3,29.7L78.3,29.7z
		 M59.8,24.1c-1.6-0.7-3.4-1.2-5.2-1.1c-1.8,0.1-3.5,0.8-4.8,2.1c-1.2,1.3-1.9,2.9-2,4.6c-0.2,2,0.4,3.9,1.3,5.7c0.2,0,0.4,0,0.6,0
		c-4.1-7.5,1.6-14.4,9.6-10.9l1.9,7.5c0.2-0.1,0.4-0.3,0.6-0.4L59.8,24.1z M59.8,24.1"/>
	<path d="M59.4,22.3c0-0.4-0.3-0.8-0.7-1c-0.4-0.2-0.9-0.1-1.2,0.2c-0.3,0.3-0.4,0.8-0.2,1.2s0.6,0.7,1,0.7
		C58.9,23.4,59.4,22.9,59.4,22.3L59.4,22.3z M59.4,22.3"/>
	<path class="st8" d="M59.2,22.3c0-0.4-0.2-0.7-0.6-0.9c-0.3-0.1-0.8-0.1-1,0.2c-0.3,0.3-0.3,0.7-0.2,1c0.1,0.3,0.5,0.6,0.9,0.6
		C58.8,23.3,59.2,22.8,59.2,22.3L59.2,22.3z M59.2,22.3"/>
	<path d="M56.1,21.9c0-0.4-0.3-0.8-0.7-1c-0.4-0.2-0.9-0.1-1.2,0.2c-0.3,0.3-0.4,0.8-0.2,1.2c0.2,0.4,0.6,0.7,1,0.7
		c0.3,0,0.6-0.1,0.8-0.3C56,22.4,56.1,22.1,56.1,21.9L56.1,21.9z M56.1,21.9"/>
	<path class="st8" d="M56,21.9c0-0.4-0.2-0.7-0.6-0.9c-0.3-0.1-0.8-0.1-1,0.2c-0.3,0.3-0.3,0.7-0.2,1c0.1,0.3,0.5,0.6,0.9,0.6
		c0.2,0,0.5-0.1,0.7-0.3C55.9,22.3,56,22.1,56,21.9L56,21.9z M56,21.9"/>
	<path d="M52.6,22.5c0-0.4-0.3-0.8-0.7-1c-0.4-0.2-0.9-0.1-1.2,0.2c-0.3,0.3-0.4,0.8-0.2,1.2c0.2,0.4,0.6,0.7,1,0.7
		C52.1,23.6,52.6,23.1,52.6,22.5L52.6,22.5z M52.6,22.5"/>
	<path class="st8" d="M52.4,22.5c0-0.4-0.2-0.7-0.6-0.9c-0.3-0.1-0.8-0.1-1,0.2c-0.3,0.3-0.3,0.7-0.2,1c0.1,0.3,0.5,0.6,0.9,0.6
		C52,23.4,52.4,23,52.4,22.5L52.4,22.5z M52.4,22.5"/>
	<path d="M49.7,24.6c0-0.4-0.3-0.8-0.7-1c-0.4-0.2-0.9-0.1-1.2,0.2c-0.3,0.3-0.4,0.8-0.2,1.2c0.2,0.4,0.6,0.7,1,0.7
		c0.3,0,0.6-0.1,0.8-0.3C49.6,25.2,49.7,24.9,49.7,24.6L49.7,24.6z M49.7,24.6"/>
	<path class="st8" d="M49.6,24.6c0-0.4-0.2-0.7-0.6-0.9c-0.3-0.1-0.8-0.1-1,0.2c-0.3,0.3-0.3,0.7-0.2,1c0.1,0.4,0.5,0.6,0.9,0.6
		c0.2,0,0.5-0.1,0.7-0.3C49.5,25.1,49.6,24.9,49.6,24.6L49.6,24.6z M49.6,24.6"/>
	<path d="M48.1,27.8c0-0.4-0.3-0.8-0.7-1c-0.4-0.2-0.9-0.1-1.2,0.2c-0.3,0.3-0.4,0.8-0.2,1.2c0.2,0.4,0.6,0.7,1,0.7
		c0.3,0,0.6-0.1,0.8-0.3C48,28.3,48.1,28,48.1,27.8L48.1,27.8z M48.1,27.8"/>
	<path class="st8" d="M47.9,27.8c0-0.4-0.2-0.7-0.6-0.9c-0.3-0.1-0.8-0.1-1,0.2c-0.3,0.3-0.3,0.7-0.2,1c0.1,0.3,0.5,0.6,0.9,0.6
		c0.2,0,0.5-0.1,0.7-0.3C47.8,28.2,47.9,28,47.9,27.8L47.9,27.8z M47.9,27.8"/>
	<path d="M68.8,22.3c0-0.4-0.3-0.8-0.7-1c-0.4-0.2-0.9-0.1-1.2,0.2c-0.3,0.3-0.4,0.8-0.2,1.2c0.2,0.4,0.6,0.7,1,0.7
		C68.4,23.4,68.8,22.9,68.8,22.3L68.8,22.3z M68.8,22.3"/>
	<path class="st8" d="M68.7,22.3c0-0.4-0.2-0.7-0.6-0.9c-0.3-0.1-0.8-0.1-1,0.2c-0.3,0.3-0.3,0.7-0.2,1c0.1,0.3,0.5,0.6,0.9,0.6
		C68.3,23.3,68.7,22.8,68.7,22.3L68.7,22.3z M68.7,22.3"/>
	<path d="M72.1,21.9c0-0.4-0.3-0.8-0.7-1c-0.4-0.2-0.9-0.1-1.2,0.2c-0.3,0.3-0.4,0.8-0.2,1.2c0.2,0.4,0.6,0.7,1,0.7
		C71.6,22.9,72.1,22.5,72.1,21.9L72.1,21.9z M72.1,21.9"/>
	<path class="st8" d="M72,21.9c0-0.4-0.2-0.7-0.6-0.9c-0.3-0.1-0.8-0.1-1,0.2c-0.3,0.3-0.3,0.7-0.2,1c0.1,0.3,0.5,0.6,0.9,0.6
		c0.2,0,0.5-0.1,0.7-0.3C71.9,22.3,72,22.1,72,21.9L72,21.9z M72,21.9"/>
	<path d="M75.7,22.5c0-0.4-0.3-0.8-0.7-1c-0.4-0.2-0.9-0.1-1.2,0.2c-0.3,0.3-0.4,0.8-0.2,1.2c0.2,0.4,0.6,0.7,1,0.7
		C75.2,23.6,75.7,23.1,75.7,22.5L75.7,22.5z M75.7,22.5"/>
	<path class="st8" d="M75.5,22.5c0-0.4-0.2-0.7-0.6-0.9c-0.3-0.1-0.8-0.1-1,0.2c-0.3,0.3-0.3,0.7-0.2,1c0.1,0.3,0.5,0.6,0.9,0.6
		C75.1,23.4,75.5,23,75.5,22.5L75.5,22.5z M75.5,22.5"/>
	<path d="M78.5,24.6c0-0.4-0.3-0.8-0.7-1c-0.4-0.2-0.9-0.1-1.2,0.2c-0.3,0.3-0.4,0.8-0.2,1.2c0.2,0.4,0.6,0.7,1,0.7
		C78,25.7,78.5,25.2,78.5,24.6L78.5,24.6z M78.5,24.6"/>
	<path class="st8" d="M78.3,24.6c0-0.4-0.2-0.7-0.6-0.9c-0.3-0.1-0.8-0.1-1,0.2c-0.3,0.3-0.3,0.7-0.2,1c0.1,0.4,0.5,0.6,0.9,0.6
		c0.2,0,0.5-0.1,0.7-0.3C78.3,25.1,78.3,24.9,78.3,24.6L78.3,24.6z M78.3,24.6"/>
	<path d="M80.1,27.8c0-0.4-0.3-0.8-0.7-1c-0.4-0.2-0.9-0.1-1.2,0.2c-0.3,0.3-0.4,0.8-0.2,1.2c0.2,0.4,0.6,0.7,1,0.7
		C79.7,28.8,80.1,28.4,80.1,27.8L80.1,27.8z M80.1,27.8"/>
	<path class="st8" d="M80,27.8c0-0.4-0.2-0.7-0.6-0.9c-0.3-0.1-0.8-0.1-1,0.2c-0.3,0.3-0.3,0.7-0.2,1c0.1,0.3,0.5,0.6,0.9,0.6
		c0.2,0,0.5-0.1,0.7-0.3C79.9,28.2,80,28,80,27.8L80,27.8z M80,27.8"/>
	<path class="st3" d="M61.1,32.1l-1.9-7.5c-1.6-0.7-3.4-1.1-5.1-0.8c-1.4,0.2-2.7,0.8-3.7,1.8c-1.1,1.1-1.7,2.6-1.8,4.2
		c-0.1,1.9,0.4,3.8,1.3,5.5l0.1,0.1c0.7,0,1.3,0.2,1.8,0.6c0.5,0.4,0.9,0.9,1.2,1.5c0-1.2,0.2-2.6,0.6-3.7c0.3-0.8,0.9-1.5,1.8-1.7
		c0.9-0.1,1.7,0.4,2.2,1c0.7,0.8,1.3,1.9,1.7,2.9C59.5,34.1,60.2,32.8,61.1,32.1L61.1,32.1z M61.1,32.1"/>
	<path class="st3" d="M65,32.1l1.9-7.5c1.6-0.7,3.4-1.1,5.1-0.8c1.4,0.2,2.7,0.8,3.7,1.8c1.1,1.1,1.7,2.6,1.8,4.2
		c0.1,1.9-0.4,3.8-1.3,5.5l-0.1,0.1c-0.7,0-1.3,0.2-1.8,0.6c-0.5,0.4-0.9,0.9-1.2,1.5c0-1.2-0.2-2.6-0.6-3.7
		c-0.3-0.8-0.9-1.5-1.8-1.7c-0.9-0.1-1.7,0.4-2.2,1c-0.7,0.8-1.3,1.9-1.7,2.9C66.5,34.1,65.8,32.8,65,32.1L65,32.1z M65,32.1"/>
	<path class="st5" d="M63,22.6c-0.5,0-1,0.3-1.2,0.8c-0.2,0.5-0.1,1,0.3,1.4c0.4,0.4,0.9,0.5,1.4,0.3c0.5-0.2,0.8-0.7,0.8-1.2
		C64.3,23.1,63.7,22.6,63,22.6L63,22.6z M63,22.6c-0.5,0-1,0.3-1.2,0.8c-0.2,0.5-0.1,1,0.3,1.4c0.4,0.4,0.9,0.5,1.4,0.3
		c0.5-0.2,0.8-0.7,0.8-1.2C64.3,23.1,63.7,22.6,63,22.6L63,22.6z M66,23.8c0-1.6-1.3-2.9-2.9-2.9c0.4,0,0.7,0.4,0.7,0.8
		c0,0.4-0.4,0.7-0.8,0.7c-0.4,0-0.8-0.3-0.8-0.7c0-0.4,0.3-0.8,0.7-0.8c-1.6,0-2.9,1.3-2.9,2.9c0,0.4,0.1,0.7,0.2,1.1
		c0-0.1-0.1-0.2-0.1-0.3c0-0.4,0.3-0.7,0.6-0.8c0.4-0.1,0.7,0.1,0.9,0.5c-0.3-0.7,0-1.5,0.8-1.8c0.7-0.3,1.5,0,1.8,0.8
		c0.3,0.7,0,1.5-0.7,1.8c-0.7,0.3-1.5,0-1.8-0.7c0.1,0.4-0.1,0.8-0.4,0.9c-0.4,0.2-0.8,0-1-0.4c0.5,1.1,1.5,1.8,2.7,1.8
		c1.2,0,2.3-0.7,2.7-1.8c-0.1,0.4-0.6,0.6-0.9,0.4c-0.4-0.1-0.6-0.5-0.5-0.9c0.1-0.4,0.4-0.7,0.8-0.6c0.4,0,0.7,0.4,0.7,0.8
		c0,0.1,0,0.2-0.1,0.3C65.9,24.6,66,24.2,66,23.8L66,23.8z M66,23.8"/>
	<path d="M63,22.4c-0.5,0-0.9,0.2-1.2,0.6c-0.3,0.4-0.3,0.9-0.1,1.3c0,0,0,0,0,0c0.2,0.5,0.6,0.8,1.2,0.9c0.5,0,1-0.2,1.3-0.6
		c0.3-0.4,0.3-1,0.1-1.4C64,22.7,63.5,22.4,63,22.4L63,22.4z M63,25.1c-0.5,0-1-0.3-1.2-0.8c-0.2-0.5-0.1-1,0.3-1.4
		c0.4-0.4,0.9-0.5,1.4-0.3c0.5,0.2,0.8,0.7,0.8,1.2C64.3,24.5,63.7,25.1,63,25.1L63,25.1z M63,25.1"/>
	<path class="st5" d="M65.8,25.3c-0.5,1-1.6,1.7-2.7,1.7c-1.2,0-2.2-0.6-2.7-1.7l0.6,2.4c0,0,0-0.1,0-0.1c0-0.4,0.3-0.8,0.7-0.8
		c0.4,0,0.8,0.2,0.9,0.7c0.1,0.4-0.2,0.8-0.6,0.9c-0.4,0.1-0.8-0.1-0.9-0.5l1,3.8c0.7-0.3,1.5-0.3,2.2,0l1-3.8
		c-0.1,0.4-0.5,0.6-0.9,0.5c-0.4-0.1-0.7-0.5-0.6-0.9c0.1-0.4,0.4-0.7,0.8-0.7c0.4,0,0.7,0.4,0.7,0.8c0,0,0,0.1,0,0.1L65.8,25.3z
		 M64.6,29.5c0,0.6-0.4,1.2-1,1.5c-0.6,0.2-1.3,0.1-1.7-0.3c-0.5-0.5-0.6-1.1-0.3-1.7c0.2-0.6,0.8-1,1.5-1c0.4,0,0.8,0.2,1.1,0.5
		C64.4,28.7,64.6,29.1,64.6,29.5L64.6,29.5z M64.6,29.5"/>
	<path class="st1" d="M48,36.8c0.7,0.2,1.8,0.6,2.9,2.7c0.9,1.8,1.5,4.2,2.3,5.9c0.4,0.9,1.2,1.7,4,1.8c3.8,0.1,7.7,0.1,11.5,0
		c2.8-0.1,3.6-0.9,4-1.8c0.7-1.7,1.3-4.1,2.3-5.9c1.1-2.1,2.2-2.5,2.9-2.7c1-0.2,0.3-0.9-0.4-1.1c-2.8-0.8-4.1,1.1-4.6,2.3
		c0.1-7.5-4.3-7.6-6.2-1.3c-0.8-7-6.7-7-7.5,0c-1.9-6.3-6.4-6.2-6.2,1.3c-0.6-1.3-1.8-3.2-4.6-2.3C47.8,35.8,47,36.5,48,36.8
		L48,36.8z M48,36.8"/>
	<path d="M63,43c2,0,4.4,0.2,6.3,0.8c0.8,0.3,2.7,0.9,2.7,2c0,0.3-0.1,0.4-0.4,0.5c-0.8,0.4-1.9,0.5-2.8,0.6
		c-3.8,0.1-7.7,0.1-11.5,0c-0.9,0-2-0.1-2.8-0.6c-0.3-0.1-0.4-0.2-0.4-0.5c0-1.1,1.8-1.8,2.7-2C58.7,43.2,61,43,63,43L63,43z M63,43
		"/>
	<path d="M64.8,37.6l0.1-0.1l-1.7-2.9h0.6c0.1,0.4,0.5,0.5,0.8,0.3c0.6-0.6-0.6-1.2-0.8-0.4h-0.7V34c0.4-0.1,0.5-0.5,0.3-0.8
		c-0.6-0.6-1.2,0.6-0.4,0.8v0.6h-0.7c0-0.2-0.2-0.4-0.4-0.4c-0.1,0-0.2,0-0.3,0.1c-0.6,0.6,0.6,1.2,0.8,0.4h0.6l-1.7,2.9l0.1,0.1
		l1.7-2.9v0.9l-1.3,2.3l0.1,0.1l1.2-2v2.3h0.1v-2.4l1.2,2l0.1-0.1l-1.3-2.3v-0.9L64.8,37.6z M64.5,34.4c0.2,0.2,0.1,0.5-0.2,0.5
		C63.7,34.9,64.1,34,64.5,34.4L64.5,34.4z M61.8,34.9c-0.6,0-0.2-1,0.2-0.5C62.2,34.6,62.1,34.9,61.8,34.9L61.8,34.9z M63,33.9
		c-0.6,0-0.2-1,0.2-0.5C63.4,33.5,63.3,33.9,63,33.9L63,33.9z M63,33.9"/>
	<path d="M67.1,39.4c0,0.4,0.5,0.5,0.7,0.3c0.6-0.6-0.6-1.2-0.7-0.4l-0.7-0.1l0-0.6c0.4,0,0.5-0.5,0.3-0.7c-0.6-0.6-1.2,0.6-0.4,0.7
		l0,0.6l-0.7-0.1c0-0.2-0.2-0.4-0.4-0.4c-0.1,0-0.2,0-0.3,0.1c-0.6,0.6,0.6,1.2,0.7,0.4l0.6,0l-1.9,2.8l0.1,0.1l1.9-2.8l-0.1,0.9
		l-1.5,2.2l0.1,0.1l1.3-2L66,42.9l0.1,0l0.2-2.3l1,2.1l0.1-0.1l-1.1-2.3l0.1-0.9l1.5,3l0.1-0.1l-1.5-3L67.1,39.4z M67.8,39.2
		c0.2,0.2,0,0.5-0.3,0.5C66.9,39.7,67.4,38.7,67.8,39.2L67.8,39.2z M65,39.6c-0.6,0-0.1-1,0.3-0.5C65.5,39.2,65.3,39.6,65,39.6
		L65,39.6z M66.4,38.6c-0.6,0-0.1-1,0.3-0.5C66.8,38.3,66.6,38.6,66.4,38.6L66.4,38.6z M66.4,38.6"/>
	<path d="M61.8,42.1l-1.9-2.8l0.6,0c0.2,0.8,1.3,0.1,0.7-0.4c-0.1-0.1-0.2-0.1-0.3-0.1c-0.2,0-0.4,0.2-0.4,0.4l-0.7,0.1l0-0.6
		c0.8-0.2,0.1-1.3-0.4-0.7c-0.2,0.3-0.1,0.7,0.3,0.7l0,0.6l-0.7,0.1c-0.2-0.8-1.4-0.1-0.7,0.4c0.3,0.2,0.7,0.1,0.7-0.3l0.6,0l-1.5,3
		l0.1,0.1l1.5-3l0.1,0.9l-1.1,2.3l0.1,0.1l1-2.1l0.2,2.3l0.1,0l-0.2-2.3l1.3,1.9l0.1-0.1l-1.5-2.2l-0.1-0.9l1.9,2.8L61.8,42.1z
		 M60.7,39c0.4-0.5,0.9,0.5,0.3,0.5C60.7,39.6,60.6,39.2,60.7,39L60.7,39z M58.5,39.7c-0.3,0-0.4-0.3-0.3-0.5
		C58.7,38.7,59.1,39.7,58.5,39.7L58.5,39.7z M59.7,38.6c-0.3,0-0.4-0.3-0.3-0.5C59.8,37.6,60.3,38.5,59.7,38.6L59.7,38.6z
		 M59.7,38.6"/>
	<path d="M72.6,40.6l-0.7-0.2l0.2-0.5c0.4,0.1,0.6-0.4,0.5-0.6c-0.5-0.7-1.2,0.3-0.6,0.6l-0.2,0.5L71.1,40c0-0.2-0.1-0.4-0.3-0.5
		c-0.1,0-0.2,0-0.3,0c-0.7,0.4,0.2,1.3,0.6,0.6l0.6,0.2l-2.5,2.2l0.1,0.1l2.6-2.2l-0.3,0.8l-2,1.7l0.1,0.1l1.8-1.5l-0.8,2.2l0.1,0
		l0.8-2.2l0.5,2.3l0.1,0l-0.5-2.6l0.3-0.8l0.7,3.3l0.1,0L72,40.5l0.6,0.2c-0.1,0.5,0.7,0.8,0.9,0.2C73.6,40.4,72.8,40.1,72.6,40.6
		L72.6,40.6z M72.4,39.2c0.1,0.3-0.1,0.5-0.4,0.4C71.5,39.5,72.2,38.7,72.4,39.2L72.4,39.2z M70.5,40.3c-0.6-0.2,0.1-1,0.4-0.4
		C71,40.1,70.8,40.4,70.5,40.3L70.5,40.3z M72.9,41.1c-0.6-0.2,0.1-1,0.4-0.4C73.4,40.9,73.2,41.2,72.9,41.1L72.9,41.1z M72.9,41.1"
		/>
	<path d="M57,42.6l-2.5-2.2l0.6-0.2c0.4,0.7,1.3-0.3,0.6-0.6c-0.1-0.1-0.2-0.1-0.3,0c-0.2,0.1-0.3,0.3-0.3,0.5l-0.7,0.2l-0.2-0.5
		c0.6-0.3-0.1-1.3-0.6-0.6c-0.2,0.2,0.1,0.7,0.5,0.6l0.2,0.5l-0.7,0.2c-0.3-0.5-1-0.2-0.8,0.4c0.2,0.5,1,0.3,0.9-0.2l0.6-0.2
		l-0.6,3.3l0.1,0l0.7-3.3l0.3,0.8L54,43.9l0.1,0l0.5-2.3l0.8,2.2l0.1,0l-0.8-2.2l1.8,1.5l0.1-0.1l-2-1.7l-0.3-0.8l2.6,2.2L57,42.6z
		 M55.1,39.8c0.3-0.5,1,0.2,0.4,0.4C55.3,40.4,55,40.1,55.1,39.8L55.1,39.8z M53.6,39.2c0.3-0.5,1,0.2,0.4,0.4
		C53.7,39.7,53.5,39.5,53.6,39.2L53.6,39.2z M53.2,41.1c-0.3,0.1-0.5-0.2-0.4-0.4C53,40.1,53.7,40.9,53.2,41.1L53.2,41.1z
		 M53.2,41.1"/>
	<path d="M71.1,35.6l-0.7-0.2l0.1-0.5c0.5,0,0.7-0.8,0.1-0.9c-0.5-0.1-0.8,0.7-0.3,0.9l-0.1,0.5l-0.7-0.2c0-0.2-0.1-0.4-0.3-0.5
		c-0.2-0.1-0.5,0.1-0.5,0.3c-0.1,0.5,0.7,0.8,0.9,0.3l0.6,0.1l-2.3,2.4l0.1,0.1l2.3-2.5L70,36.4l-1.8,1.9l0.1,0.1l1.6-1.7l-0.5,2.3
		l0.1,0l0.5-2.3l0.7,2.3l0.1,0l-0.8-2.5l0.2-0.8l1,3.2l0.1,0l-1-3.2l0.6,0.1c0,0.5,0.8,0.7,0.9,0.1C72.1,35.3,71.3,35.1,71.1,35.6
		L71.1,35.6z M69,35.5c-0.6-0.1,0-1,0.3-0.5C69.5,35.2,69.3,35.5,69,35.5L69,35.5z M70.8,34.2c0.1,0.2-0.1,0.5-0.3,0.5
		C69.9,34.6,70.5,33.7,70.8,34.2L70.8,34.2z M71.4,36c-0.6-0.1,0-1,0.3-0.5C71.9,35.8,71.7,36.1,71.4,36L71.4,36z M71.4,36"/>
	<path d="M58.3,37.9L56,35.5l0.6-0.1c0.3,0.7,1.3,0,0.7-0.5c-0.1-0.1-0.2-0.1-0.3-0.1c-0.2,0.1-0.4,0.3-0.4,0.5l-0.7,0.2l-0.1-0.5
		c0.5-0.2,0.3-1-0.3-0.9c-0.5,0.1-0.4,0.9,0.1,0.9l0.1,0.5L55,35.6c-0.3-0.7-1.3,0-0.7,0.5c0.2,0.2,0.7,0,0.7-0.4l0.6-0.1l-1,3.2
		l0.1,0l1-3.2l0.2,0.8l-0.8,2.5l0.1,0l0.7-2.2l0.5,2.3l0.1,0l-0.5-2.3l1.6,1.7l0.1-0.1l-1.8-1.9l-0.2-0.8L58.3,37.9L58.3,37.9z
		 M56.7,35c0.3-0.5,0.9,0.3,0.3,0.5C56.8,35.5,56.6,35.2,56.7,35L56.7,35z M54.6,36c-0.3,0.1-0.5-0.2-0.3-0.5
		C54.6,35.1,55.2,35.9,54.6,36L54.6,36z M55.6,34.7c-0.3,0.1-0.5-0.2-0.3-0.5C55.6,33.7,56.2,34.6,55.6,34.7L55.6,34.7z M55.6,34.7"
		/>
	<path d="M77.2,36.7c-0.5-0.8-1.2,0.1-0.7,0.5l-0.3,0.5l-0.6-0.3c0.1-0.2,0-0.4-0.2-0.5c-0.1-0.1-0.2-0.1-0.3,0
		c-0.8,0.5,0.1,1.2,0.5,0.7l0.5,0.3l-2.8,1.8l0.1,0.1l2.9-1.8l0.1-0.1l0,0c0,0,0.1-0.1,0.1-0.1c0,0,0.1-0.1,0.1-0.1
		c0.1-0.1,0.1-0.2,0.2-0.3c0.1,0,0.2,0,0.2,0c0.1,0,0.2-0.1,0.3-0.2C77.3,37,77.3,36.9,77.2,36.7L77.2,36.7z M75,37.5
		c-0.5-0.3,0.3-1,0.5-0.4C75.6,37.4,75.3,37.6,75,37.5L75,37.5z M76.6,37.1c-0.5-0.3,0.3-1,0.5-0.4C77.2,37,76.9,37.3,76.6,37.1
		L76.6,37.1z M75.4,38.8L73.5,40l0.1,0.1l1.7-1l0,0l0.1-0.1L75.4,38.8L75.4,38.8L75.4,38.8z M75.4,38.8"/>
	<path d="M50,37.8l0.5-0.3c0.3,0.4,1,0,0.8-0.5c-0.2-0.4-0.6-0.2-0.6-0.2c-0.2,0.1-0.3,0.3-0.2,0.5l-0.6,0.3l-0.3-0.5
		c0.5-0.4-0.2-1.3-0.7-0.5c-0.1,0.1,0,0.3,0.1,0.4c0.1,0.1,0.2,0.1,0.3,0.2c0.1,0,0.1,0,0.2,0c0,0.1,0.1,0.2,0.2,0.3
		c0,0,0.1,0.1,0.1,0.1c0,0,0.1,0.1,0.2,0.2l2.9,1.8l0.1-0.1L50,37.8z M50.6,37.1c0.2-0.6,1,0.1,0.5,0.4
		C50.8,37.6,50.5,37.4,50.6,37.1L50.6,37.1z M49.4,37.1c-0.2,0.1-0.5-0.1-0.5-0.4C49.1,36.2,50,36.9,49.4,37.1L49.4,37.1z
		 M50.6,38.8c0,0.1,0.1,0.2,0.1,0.2l0,0l1.7,1l0.1-0.1L50.6,38.8z M50.6,38.8"/>
	<path class="st3" d="M63,43.1c4.9,0,8.9,1.2,8.9,2.7c0,0.3-0.1,0.3-0.3,0.5c-0.8,0.4-1.9,0.5-2.8,0.6c-3.8,0.1-7.7,0.1-11.5,0
		c-0.9,0-2-0.1-2.8-0.6c-0.2-0.1-0.3-0.2-0.3-0.5C54.1,44.3,58.1,43.1,63,43.1L63,43.1z M63,43.1"/>
	<path d="M47.7,31.4c0-0.4-0.3-0.8-0.7-1c-0.4-0.2-0.9-0.1-1.2,0.2c-0.3,0.3-0.4,0.8-0.2,1.2s0.6,0.7,1,0.7c0.3,0,0.6-0.1,0.8-0.3
		C47.6,31.9,47.7,31.7,47.7,31.4L47.7,31.4z M47.7,31.4"/>
	<path class="st8" d="M47.6,31.4c0-0.4-0.2-0.7-0.6-0.9c-0.3-0.1-0.8-0.1-1,0.2c-0.3,0.3-0.3,0.7-0.2,1c0.1,0.3,0.5,0.6,0.9,0.6
		c0.2,0,0.5-0.1,0.7-0.3C47.5,31.9,47.6,31.6,47.6,31.4L47.6,31.4z M47.6,31.4"/>
	<path d="M48.6,34.8c0-0.4-0.3-0.8-0.7-1c-0.4-0.2-0.9-0.1-1.2,0.2c-0.3,0.3-0.4,0.8-0.2,1.2c0.2,0.4,0.6,0.7,1,0.7
		c0.3,0,0.6-0.1,0.8-0.3C48.5,35.4,48.6,35.1,48.6,34.8L48.6,34.8z M48.6,34.8"/>
	<path class="st8" d="M48.5,34.8c0-0.4-0.2-0.7-0.6-0.9c-0.3-0.1-0.8-0.1-1,0.2c-0.3,0.3-0.3,0.7-0.2,1c0.1,0.3,0.5,0.6,0.9,0.6
		c0.2,0,0.5-0.1,0.7-0.3C48.4,35.3,48.5,35,48.5,34.8L48.5,34.8z M48.5,34.8"/>
	<path d="M80.5,31.4c0-0.4-0.3-0.8-0.7-1c-0.4-0.2-0.9-0.1-1.2,0.2c-0.3,0.3-0.4,0.8-0.2,1.2c0.2,0.4,0.6,0.7,1,0.7
		c0.3,0,0.6-0.1,0.8-0.3C80.4,31.9,80.5,31.7,80.5,31.4L80.5,31.4z M80.5,31.4"/>
	<path class="st8" d="M80.3,31.4c0-0.4-0.2-0.7-0.6-0.9c-0.3-0.1-0.8-0.1-1,0.2c-0.3,0.3-0.3,0.7-0.2,1c0.1,0.3,0.5,0.6,0.9,0.6
		c0.2,0,0.5-0.1,0.7-0.3C80.2,31.9,80.3,31.6,80.3,31.4L80.3,31.4z M80.3,31.4"/>
	<path d="M79.6,34.8c0-0.4-0.3-0.8-0.7-1c-0.4-0.2-0.9-0.1-1.2,0.2c-0.3,0.3-0.4,0.8-0.2,1.2c0.2,0.4,0.6,0.7,1,0.7
		c0.3,0,0.6-0.1,0.8-0.3C79.5,35.4,79.6,35.1,79.6,34.8L79.6,34.8z M79.6,34.8"/>
	<path class="st8" d="M79.4,34.8c0-0.4-0.2-0.7-0.6-0.9c-0.3-0.1-0.8-0.1-1,0.2c-0.3,0.3-0.3,0.7-0.2,1c0.1,0.3,0.5,0.6,0.9,0.6
		c0.2,0,0.5-0.1,0.7-0.3C79.3,35.3,79.4,35,79.4,34.8L79.4,34.8z M79.4,34.8"/>
	<path class="st3" d="M64.3,23.8c0,0.5-0.3,1-0.8,1.2c-0.5,0.2-1,0.1-1.4-0.3c-0.4-0.4-0.5-0.9-0.3-1.4c0.2-0.5,0.7-0.8,1.2-0.8
		c0.3,0,0.7,0.1,0.9,0.4C64.2,23.2,64.3,23.5,64.3,23.8L64.3,23.8z M64.3,23.8"/>
	<path class="st8" d="M63.7,21.7c0-0.3-0.2-0.5-0.4-0.6c-0.2-0.1-0.5,0-0.7,0.1c-0.2,0.2-0.2,0.5-0.1,0.7c0.1,0.2,0.3,0.4,0.6,0.4
		c0.2,0,0.3-0.1,0.5-0.2C63.6,22,63.7,21.8,63.7,21.7L63.7,21.7z M63.7,21.7"/>
	<path class="st8" d="M65.7,24.6c0-0.3-0.2-0.5-0.4-0.6c-0.2-0.1-0.5,0-0.7,0.1c-0.2,0.2-0.2,0.5-0.1,0.7c0.1,0.2,0.3,0.4,0.6,0.4
		c0.2,0,0.3-0.1,0.5-0.2C65.6,25,65.7,24.8,65.7,24.6L65.7,24.6z M65.7,24.6"/>
	<path class="st8" d="M61.7,24.6c0-0.3-0.2-0.5-0.4-0.6c-0.2-0.1-0.5,0-0.7,0.1c-0.2,0.2-0.2,0.5-0.1,0.7c0.1,0.2,0.3,0.4,0.6,0.4
		C61.4,25.3,61.7,25,61.7,24.6L61.7,24.6z M61.7,24.6"/>
	<path class="st3" d="M64.5,29.5c0-0.6-0.4-1.1-0.9-1.3C63,27.9,62.4,28,62,28.4c-0.4,0.4-0.5,1-0.3,1.6c0.2,0.5,0.8,0.9,1.3,0.9
		c0.4,0,0.8-0.2,1-0.4C64.3,30.2,64.5,29.9,64.5,29.5L64.5,29.5z M64.5,29.5"/>
	<path class="st8" d="M65,27.5c0-0.3-0.2-0.5-0.4-0.6c-0.2-0.1-0.5,0-0.7,0.1c-0.2,0.2-0.2,0.5-0.1,0.7c0.1,0.2,0.3,0.4,0.6,0.4
		c0.2,0,0.3-0.1,0.5-0.2C65,27.8,65,27.7,65,27.5L65,27.5z M65,27.5"/>
	<path class="st8" d="M62.3,27.5c0-0.3-0.2-0.5-0.4-0.6c-0.2-0.1-0.5,0-0.7,0.1c-0.2,0.2-0.2,0.5-0.1,0.7c0.1,0.2,0.3,0.4,0.6,0.4
		c0.2,0,0.3-0.1,0.5-0.2C62.3,27.8,62.3,27.7,62.3,27.5L62.3,27.5z M62.3,27.5"/>
	<path class="st5" d="M66.7,16.4h-0.6l-1,1.5h-1.4V16l1.9-1.2v-0.7h-5.1v0.7l1.9,1.2V18H61l-1-1.5h-0.6v4.4H60l1-1.5h1.4v1.5
		c0.4-0.1,0.9-0.1,1.3,0v-1.5h1.4l1,1.5h0.6L66.7,16.4L66.7,16.4z M66.7,16.4"/>
</g>
</svg>
