<?xml version="1.0" encoding="utf-8"?>
<!-- Generator: Adobe Illustrator 22.0.1, SVG Export Plug-In . SVG Version: 6.00 Build 0)  -->
<svg version="1.1" id="Слой_1" xmlns="http://www.w3.org/2000/svg" xmlns:xlink="http://www.w3.org/1999/xlink" x="0px" y="0px"
	 viewBox="0 0 127.3 127" style="enable-background:new 0 0 127.3 127;" xml:space="preserve">
<style type="text/css">
	.st0{fill:url(#SVGID_1_);}
	.st1{fill:#FFFFFF;}
	.st2{fill:#A2793E;}
	.st3{fill:#8DD7F7;}
	.st4{fill:#FFCA05;}
	.st5{fill:#226642;}
	.st6{fill:#00A551;}
	.st7{fill:#EC1C24;}
	.st8{fill:#9E2E31;}
	.st9{fill:#FFF100;}
	.st10{fill:#2E3191;}
	.st11{fill:#2E3192;}
	.st12{fill:#E2B469;}
	.st13{fill:#929497;}
	.st14{fill:#A5C4C7;}
</style>
<radialGradient id="SVGID_1_" cx="64.8" cy="-554.747" r="62.6" gradientTransform="matrix(1 0 0 -1 0 -490.347)" gradientUnits="userSpaceOnUse">
	<stop  offset="0.9487" style="stop-color:#212121"/>
	<stop  offset="1" style="stop-color:#606060;stop-opacity:0"/>
</radialGradient>
<circle class="st0" cx="64.8" cy="64.4" r="62.6"/>
<circle class="st1" cx="62.6" cy="62.6" r="62.6"/>
<g>
	<path class="st2" d="M98.1,40.9c-0.1-0.3,0.2-0.5,0.4-0.6c2-1.1,1-1.5,0.7-2c-0.2-0.4,0.7-0.5,0.9-0.8c0.2-0.2,0.4-0.7,0.1-1
		s-0.9,0-0.5-0.4c0.7-1.4,0.4-2.1,0-2.2c-0.2,0-0.5,0.1-0.5,0c0.3-2.9-1.6-1.9-2-0.7c-0.2,0.3-0.4-0.3-0.9,0
		C96,33.3,95.9,34,95.8,34c-1-0.6,1-3.1-1-2.9c-0.6,0.1,0.6-2.4-1.1-2.4c-0.5,0-0.8,0.6-1,0.1c-0.1-1.2-1.2-2.1-1.6-1
		c-0.1,0.4-0.4,0.4-0.5,0.2c-0.7-0.8-1-1.2-2-1c-0.4,0.2-0.6,0.8,0,1.7c0.2,0.4-0.3,0.4-0.5,0.5c-1.2,0.8,1.4,1.4,0.5,1.8
		c-1.2,0.8,1.3,1.6,1,2.2c-0.4,0.5-0.4,0.9-0.1,1.3c0.4,0.5,1.8,0.9,1.7,1.3c-0.2,1.1,1.2,1.6,1.2,2.6c-0.4,0.4-0.3,0.2-0.8,0.9
		c-0.2,0.4-0.4-0.5-1.1-0.1c-0.4,0.2-0.5,1.3-0.6,1.6c-0.1,0.2-0.9,0.1-1.1,0.8c-0.1,0.6,0.4,1.8,0.2,2.1c-0.3,0.5-0.7-0.1-0.8,1.1
		c-0.1,0.8,0.8,1.3,0.5,1.7c-0.2,0.3-0.6,0.7-0.5,1.3c0.2,0.9,0.8,2.2,1.1,2.9c0.9-1.6,2.4-3.1,4-3.9l0.1-0.1c0-0.3,0.9-0.8,1.7-1.4
		l0,0c0.2-0.2,0.3-0.3,0.4-0.3l0,0c0.6-0.5,1-1,0.8-1.5c-0.2-0.6,0.9-1,1.5-1.4C98.4,41.6,98,40.9,98.1,40.9L98.1,40.9z M102.8,45.7
		c-0.5,0.2-0.6,0.4-1.2,0.7c-0.5,0.1-0.2-0.5-0.8-0.5c-0.8-0.1-1.2,0.8-1.6,1.5c-0.3,0.4-0.1-0.6-1.1-0.5c-0.7,0.1-1.1,1-1.5,1.8
		c-0.2,0.1-0.3-0.2-0.6-0.3l0.3-0.9c0.2,0,0.3-0.1,0.3-0.3l0,0c0.2,0,0.4,0,0.6,0c0.8-0.3,1-0.9,1.3-1.1c0.1,0-0.2-0.1-0.1-0.1
		c0.7-0.6,1.2-1.6,0.7-2.6c-0.4-0.6-1.3-0.5-1.8-0.1c-0.6,0.5-1,1.3-1.2,1.7c-0.1,0-0.2-0.1-0.2-0.1c0.1,0.4-0.3,1.3,0,1.8
		c0.1,0.1,0.1,0.2,0.2,0.3c-0.1,0-0.2,0.1-0.2,0.2c0,0.1,0,0.1,0.1,0.1l-0.2,0.9c-0.2,0-0.4,0-0.7,0.1c-0.7,0.8-0.5,0.9-0.9,2
		c-0.2,0.5-0.2-0.2-1,0.4c-0.1,0.3-0.3,0.8-0.4,1.2c0.9,1.3,2.9,3.7,4.1,5.9l0,0c0.2,0,0.8,0,1-0.2c0.3-0.3,0.1-0.8,0.1-0.8
		c0.4,0.1,1.4-0.2,1.7-0.6c0.3-0.4-0.1-1.1,0.2-1c1.1-0.2,1.5-0.2,2-0.9c0.3-0.9-0.8-0.7-0.1-1.2c0.6-0.4,1-0.4,1.6-1.3
		c0.2-1.3-1.2-1-0.2-1.6c0.5-0.4,1.6-1.6,0.4-2c-0.7-0.2,0.4-1.1,0.2-2C103.8,45.8,103.5,45.5,102.8,45.7L102.8,45.7z M98.6,76.4
		c-0.4-0.2-0.8-0.3-1.2-0.2c-0.5,0.2-0.6,0.8-0.7,0.7c-0.2-0.3-0.1-0.8,0.1-0.9c0.3-0.3,1.1-0.4,1.3-0.6c0.5-0.5,0-0.7,0-1
		c0.1-0.5,1.7-1,1.9-1.3c0.2-0.2,0.3-0.5,0-0.8s0.1-0.6,0.5-1c1.3-1.4,0.3-1.7-0.1-1.8c-0.1,0,1-0.9,1.1-1.7c0.1-0.6-0.7-1-0.7-1.1
		c1.9-2.4-0.7-2.9-1.5-1.5c-0.2,0.3-0.7-0.6-1.2-0.5c-0.2,0.1-0.7,0.5-0.8,0.6l0.4-0.7c0.4,0.1,0.7,0,1.1-0.2c0.8-0.3,1-0.9,1.3-1.1
		c0.1,0-0.2-0.1-0.1-0.1c0.7-0.6,1.2-1.6,0.7-2.6c-0.4-0.6-1.3-0.5-1.8-0.1c-0.6,0.5-1,1.3-1.2,1.7c0,0-0.1,0-0.1-0.1
		c-0.1,0.1-0.1,0.2-0.2,0.3c-0.1,0.5-0.4,1.2-0.2,1.6c0.1,0.1,0.1,0.2,0.2,0.3c-0.1,0-0.3,0.1-0.3,0.2s0,0.1,0.1,0.1l-0.5,1.5
		c-0.3-0.1-0.8-0.4-1.1,0.1c-0.3,0.5-0.3,2-0.6,1.8c-0.2-0.1-0.5-0.4-0.9-0.2l0,0l0,0l0,0l0,0c0.1-0.3,0.1-0.7,0-0.9
		c-0.1-0.2-0.6,0-0.7-0.3c-0.1-0.4,0.4-1.4,0.4-1.8s-0.6-0.3-0.7-0.4l0,0l0,0l0,0l0,0l0,0l0,0l0,0l0,0l0,0l0,0l0,0l0,0l0,0l0,0l0,0
		l0,0l0,0c0-0.1-0.1-0.1-0.1-0.2l0,0c0-0.1,0-0.2,0-0.3l0,0c0-0.3,0-0.7,0-1l0,0c0-0.1,0-0.3-0.1-0.4c-0.3-0.4-1.1,0.3-1.2-0.1
		c-0.1-1.2-0.8-2.1-1.2-1.3c-0.1,0.4-0.3,0-0.4-0.2c-0.7-0.8-0.6-0.9-1.6-1c-0.4,0.2-0.3,1.2,0.2,2.1c0.2,0.4,0,0.4-0.2,0.5
		c-1.2,0.8,0.9,2.4,0.1,2.8c-1.2,0.8,0.8,1.8,0.5,2.4c-0.6,0.2-0.9,0.6-0.6,1c0.4,0.5,1.2,1,1.2,1.4c0,0.6-0.8,1.2,0,1.8
		c0.2,0.1,0.3,0.2,0.3,0.4l0,0c-0.1,0.5,0.8,3.1,3,5.9c2.6,3.2,4.7,7.1,4.6,8.2l0,0l0,0l0,0c0.2-0.1,0.6-0.3,0.8-0.6
		c0.2-0.3,0.1-0.7,0-1c-0.3-0.6,2,0.4,2.1-1.7c0-0.2-0.4-0.6,0.1-0.9c1-0.3,1.7-1.1,1.4-1.8c-0.1-0.2-0.6-0.3-0.5-0.7
		c1.2-0.7,1.5-2,0.7-2.3c-0.9-0.3,0.1-0.8,0.3-1.5c0.1-0.4,0-0.8-0.2-1c-0.3-0.4-1.1-0.3-1.8,0.7c-0.4,0.1-0.3-0.5-0.6-0.6
		C99,74.8,98.9,76.4,98.6,76.4L98.6,76.4z M75.3,97L75.3,97c0.2,0,0.4,0,0.4-0.2l0,0c0.2,0.1,0.4,0.2,0.6,0.2c0.9,0,1.3-0.5,1.6-0.5
		c0.1,0-0.1-0.1-0.1-0.1c0.9-0.3,1.7-1.1,1.6-2.2c-0.1-0.7-1-1-1.6-0.8c-0.8,0.3-1.4,0.9-1.7,1.2c0-0.1-0.1-0.2-0.2-0.2
		c-0.1,0.4-0.8,1.1-0.7,1.7c0,0.1,0.1,0.2,0.1,0.3c-0.1,0-0.2,0.1-0.3,0.2c0,0.1,0,0.1,0,0.2l0,0C75.1,96.8,75.2,96.9,75.3,97
		L75.3,97z M89.7,104c-0.7-0.4-0.9,0-0.9-1.4c0-0.6-1.1-0.4-1.8-0.7c-1-0.6,0.4-0.9-0.6-1.5c-0.1-0.1-1.5-0.3-2.2-0.4
		c-0.3-0.1-0.1-0.5-0.1-0.9c0,0,0,0-0.1,0l0,0c-0.1-0.3-0.3-0.5-0.9-0.4c-0.2,0-1.1,0.3-1.6,0.1c-0.1-0.8-0.4-0.7-0.6-0.8
		c-0.7-0.2-1.1,0.4-1.6,0.3c-0.8-0.4-0.1-0.3-0.9-0.7c-0.7-0.1-1.8,0.4-2.5,0.4c0.6,0.6,1.1,1.4,1.6,2.1c1.3,2,2.2,3.8,3.7,4.1
		c0.1,0,0.2,0,0.4,0.1c0.5,0.1,0.1,1.2,1,1.3c0.9,0.2,0.6-0.6,1-0.4s0.6,1,1.3,1c0.6,0,0.4-0.6,0.8-0.5s0.6,0.8,1.4,0.7
		c0.7,0,0.6-0.8,1-1C89.3,105.6,91,105,89.7,104L89.7,104z M100.1,89.2c-1.5-0.3-1.7,0.9-2.5,0.9c-0.4,0-0.2-0.4-0.6-0.6
		c0.1,0,0.1-0.1,0.1-0.1l0,0c0.2,0.1,0.4,0.2,0.6,0.2c0.9,0,1.3-0.5,1.6-0.5c0.1,0-0.1-0.1-0.1-0.1c0.9-0.3,1.7-1.1,1.6-2.2
		c-0.1-0.7-1-1-1.6-0.8c-0.8,0.3-1.4,0.9-1.7,1.2c0-0.1-0.1-0.2-0.2-0.2c-0.1,0.4-0.8,1.1-0.7,1.7c0,0.1,0.1,0.2,0.1,0.3
		c-0.1,0-0.2,0.1-0.3,0.2c0,0.1,0,0.1,0,0.2l-0.1,0.2c-0.6,0.1-0.7,1-1.2,1c-0.1,0-0.3-0.1-0.4-0.3l0,0c-0.2-0.5-0.7-2.2-1.9-3.9
		c-0.5-0.7-1-1.3-1.5-2c0.1,0.9-1.2,0-1.8,1.1c-0.3,0.5,0,1-0.3,1.5c-0.2,0.3-0.7-0.2-1,0.5c-0.5,1.2-1.2,2.4-1.7,3.6
		c-0.5,1.3-0.1,2.5-0.7,3.4c2.2,1.1,3.8,3.4,8.6,3.5c0.2-0.1,0.3-0.3,0.5-0.2c0.5,0,1.1,0.5,1.5,0.7s0.8-0.3,1.2-0.4
		c0.8-0.2,1.6,1.4,2.7,0.9c0.5-0.2,0.3-0.4,0.6-0.6c0.5-0.2,1.6,1.1,2.3,0.6c0.6-0.4,0.3-0.8,0.5-1c0.3,0,0.9,0.1,1.3-0.1
		c0.3-0.2,0.4-0.4,0.4-0.6c0.2-1.1-0.8-1.1-0.8-1.5s0.9-0.3,0.3-1.4c-0.5-0.7-1.1-0.1-1.5-0.4c-0.2,0,0.5-0.5-0.3-0.9
		c-0.3-0.2-1.3-0.3-1.5-0.3c-0.2-0.3-0.2-0.4-0.4-0.6c0.1-0.4,1-0.6,1.2-1c0.2-0.3,0.2-0.8,0-1.1c-0.7-0.6-1.2-0.4-2,0
		C100.3,89.9,100.7,89.4,100.1,89.2L100.1,89.2z M94.1,98.9L94.1,98.9c0,0.2,0.1,0.3,0.2,0.3l0,0c0,0.2,0,0.4,0,0.5
		c0.3,0.6,0.8,0.8,0.9,1.1c0,0.1,0.1-0.1,0.1-0.1c0.5,0.5,1.3,0.9,2.1,0.6c0.5-0.3,0.4-1.1,0.1-1.5c-0.4-0.5-1.1-0.8-1.4-0.9
		c0-0.1,0.1-0.2,0.1-0.2c-0.3,0.1-1.1-0.2-1.5,0c-0.1,0-0.2,0.1-0.2,0.2c0-0.1-0.1-0.2-0.2-0.2l0,0C94.3,98.7,94.2,98.8,94.1,98.9
		L94.1,98.9z"/>
	<path class="st2" d="M58.4,97.4c0.3,0.1,0.6,0.3,0.8,0.6c0.2,0.3,0.4,0.6,0.7,0.7c0.1,0,0.1,0,0.2,0c0.3,0,0.9,0,1.2,0.2
		c0.5,0.4,0.7,0.9,1.1,1.4c0,0,0,0.1,0.1,0.1c0,0,0,0,0-0.1l0,0c0,0.1,0.7,0.6,0.8,0.7c0.2,0.4-0.1,0.4,0,0.8
		c-1.4,0.5-2.7,2.1-4,3.6c-0.3-0.2-0.6-0.3-0.6-0.9c1-1.1,2.3-2.1,3.7-2.9c-0.9,0.2-1.8,0.1-2.8,0.9c-0.2,0.1-0.8,0.2-0.9,0
		c-0.2-0.2,0-0.5-0.3-0.5c-0.5,0.1-1,0.9-1.6,0.9c-0.2,0-0.4-0.6-0.7-0.5c-0.6,0.1-0.4,1-1.4,0.4c-0.8-0.8-0.7-0.6-1.6,0
		c-1.3,0-0.3-0.6-0.5-0.9s-0.5-0.2-0.8-0.1c-0.4,0.1-1.2,0.2-1.4-0.2c-0.1-0.3,0.2-0.8,0.4-0.9c0.7-0.1,1.2-0.2,0.5-0.8
		c-0.5-0.4,0.6-0.9,1.6-0.7c1.1-0.1-0.5-1.3,0.7-1.4c0.1,0,1.1,0.5,1.8,0.4c0.5-0.1,0-1.6,1.5-0.9c0.2,0.1,0.6,0.6,1,0.6
		C58,97.4,58.2,97.4,58.4,97.4L58.4,97.4z"/>
	<path class="st2" d="M67.7,97.4c-0.3,0.1-0.6,0.3-0.8,0.6c-0.2,0.3-0.4,0.6-0.7,0.7c-0.1,0-0.1,0-0.2,0c-0.3,0-0.9,0-1.2,0.2
		c-0.5,0.4-0.7,0.9-1.1,1.4c0,0,0,0.1-0.1,0.1c0,0,0,0,0-0.1l0,0c0,0.1-0.7,0.6-0.8,0.7c-0.2,0.4,0.1,0.4,0,0.8
		c1.4,0.5,2.7,2.1,4,3.6c0.3-0.2,0.6-0.3,0.6-0.9c-1-1.1-2.3-2.1-3.7-2.9c0.9,0.2,1.8,0.1,2.8,0.9c0.2,0.1,0.8,0.2,0.9,0
		c0.2-0.2,0-0.5,0.3-0.5c0.5,0.1,1,0.9,1.6,0.9c0.2,0,0.4-0.6,0.7-0.5c0.6,0.1,0.4,1,1.4,0.4c0.8-0.8,0.7-0.6,1.6,0
		c1.3,0,0.3-0.6,0.5-0.9s0.5-0.2,0.8-0.1c0.4,0.1,1.2,0.2,1.4-0.2c0.1-0.3-0.2-0.8-0.4-0.9c-0.7-0.1-1.2-0.2-0.5-0.8
		c0.5-0.4-0.6-0.9-1.6-0.7c-1.1-0.1,0.5-1.3-0.7-1.4c-0.1,0-1.1,0.5-1.8,0.4c-0.5-0.1,0-1.6-1.5-0.9c-0.2,0.1-0.6,0.6-1,0.6
		C68.1,97.4,67.9,97.4,67.7,97.4L67.7,97.4z"/>
	<path class="st3" d="M40.2,43h45.7v42.9l0,0l0,0c0,3.1-2.5,5.6-5.6,5.6l0,0h-0.1H68.9l0,0c-0.1,0-0.1,0-0.2,0
		c-1.1,0-5.3,0.4-5.7,3.2c-0.4-2.8-4.9-3.2-5.6-3.2h-0.1l0,0H45.9h-0.1l0,0c-3.1-0.1-5.6-2.5-5.6-5.6l0,0l0,0L40.2,43L40.2,43z"/>
	<path class="st4" d="M79.2,94.3c-0.1-0.6-0.8-0.8-1.4-0.6c-0.8,0.3-1.4,0.9-1.6,1.1c-0.4,0.5,0.2,1.4,0.8,1.5
		C77.9,96.4,79.3,95.5,79.2,94.3L79.2,94.3z M66.9,104.9c-0.2-0.2,0.2-0.4,0.3-0.6c0.1,0.1,0.2,0.2,0.3,0.3
		C67.4,104.8,67.2,105.1,66.9,104.9L66.9,104.9z M67,104.3c-0.1,0.1-0.2,0.3-0.4,0.4c-0.4-0.7-1-1.3-1.5-2
		C65.9,103.2,66.6,103.6,67,104.3L67,104.3z M103.2,93.2c-0.4-0.2-0.8-0.3-1.3-0.2c0.1,0.5-1.3,0.9-1.5,0.9
		c-0.7,0.1,0.1,0.7-0.3,1.2c0,0-0.2,0.3-0.6,0.4c-0.7,0.2-1.3-0.2-1.4,0.3c0,0.2-0.1,0.7-0.7,0.8c-0.9,0.2-1.5-0.5-2.1,0.1
		c-0.2,0.1-0.2,0.6-0.5,0.8c-0.5,0.3-1.1,0.4-0.5,0.4c0.5,0.1,1-0.3,1.2-1c0.1-0.3,1,0.1,1.3,0.2c1,0.1,1.3-0.4,1.5-0.9
		c0-0.3,0.8,0,1.3-0.2c0.4-0.1,0.4-0.3,0.5-0.5s2-1.1,2-1.1c0.1,0-1.8,1.1-1.7,1.1c0.2,0,0.4,0.1,0.6,0.1c0.2,0.1,0.4,0.1,0.6,0.2
		c0.1,0,1.6-0.6,1.7-0.6s-1.4,0.7-1.3,0.8c1.6,0.6,3,1.4,3.1,1.3c0.5,0,0.5-0.9-0.5-1.2c-0.4-0.8,0.6-0.7,0.4-1.3
		c-0.3-0.9-1.2,0-1.7-0.3C102.9,94.2,103.7,93.7,103.2,93.2L103.2,93.2z M93.6,43.9c-0.9,0.2-2.6,0.7-2.6,1.2
		C91.1,45.4,93.1,44.4,93.6,43.9L93.6,43.9z M98.6,73c-0.9-0.1-3.3,0.5-3.5,0.9C95.2,74.3,98.1,73.3,98.6,73L98.6,73z M101,80.7
		c-0.7-0.1-2.8-0.1-2.9,0.3C98.2,81.3,100.6,80.9,101,80.7L101,80.7z M100.8,53.1c-0.9-0.2-3.3-0.3-3.5,0.1
		C97.3,53.6,100.1,53.3,100.8,53.1L100.8,53.1z M98.5,38.3c-0.9,0.2-1.9,0.3-1.9,0.8C96.8,39.4,98,38.8,98.5,38.3L98.5,38.3z
		 M94.1,30.7c-0.5,0.8-1,2.6-0.9,3.8C93.8,33.8,94.1,31.4,94.1,30.7L94.1,30.7z M92.9,45.9c-0.9,0-1.5,0.6-2.5,1.3
		C90.6,47.8,92.3,46.3,92.9,45.9L92.9,45.9z M96.8,75.6c-0.8,0.1-1.9,0.3-2.9,0.5C94.5,76.7,95.4,76.4,96.8,75.6L96.8,75.6z
		 M68.7,101.9c-0.2-0.5-1.2-1.2-1.8-1.6C66.8,101.2,68.3,101.7,68.7,101.9L68.7,101.9z M81.2,102.7c0-0.7-1.5-2-2-2.8
		C78.6,100.8,80.9,102.3,81.2,102.7L81.2,102.7z M71,101.9c-0.2-0.5-1.5-1.3-2.1-1.7C68.7,101,70.7,101.7,71,101.9L71,101.9z
		 M83.6,104.2c0-0.7-1.7-2.4-2.1-3.2C80.8,101.9,83.3,103.8,83.6,104.2L83.6,104.2z M72.5,101.6c-0.2-0.5-1.1-1.1-1.7-1.6
		C70.6,100.9,72.2,101.4,72.5,101.6L72.5,101.6z M85,104.7c0-0.7-0.9-1.6-1.4-2.4C82.9,103.1,84.7,104.3,85,104.7L85,104.7z
		 M92.6,97.3c-0.4-0.6-1-0.7-1.8-1.1C90.7,97.3,92.1,97.1,92.6,97.3L92.6,97.3z M95.4,96.1c-0.4-0.6-1.4-0.7-2.3-1.3
		C92.7,95.6,95,95.9,95.4,96.1L95.4,96.1z M97.4,95.3c-1.2-0.6-1.5-1.3-2.6-1.4C94.5,94.3,96.7,95.4,97.4,95.3L97.4,95.3z
		 M99.5,93.8c-0.5-0.5-1.5-1.2-2.5-1C96.8,93.3,99,93.7,99.5,93.8L99.5,93.8z M102.1,97.4c0-0.5,0-1-0.6-1.4
		C101.2,96.2,101.9,97.1,102.1,97.4L102.1,97.4z M101,97.7c0-0.7,0-1.4-0.9-2C99.7,96,100.7,97.3,101,97.7L101,97.7z M94.2,89.1
		c-0.6-0.2-1.8-0.4-2.7,0.2C91.5,89.8,93.7,89.3,94.2,89.1L94.2,89.1z M92.4,91c-0.6-0.2-1.5,0.1-2.4,0.4C90.1,91.8,92,91.1,92.4,91
		L92.4,91z M99.9,82c-0.6-0.2-2,0.2-2.9,0.4C97,82.9,99.4,82.2,99.9,82L99.9,82z M98.7,55c-0.8-0.4-1.8-0.4-3-0.2
		C95.6,55.5,98,55.2,98.7,55L98.7,55z M97.9,40.5c-0.9,0-1.3,0.1-2.3,0.9C95.9,42,97.4,40.9,97.9,40.5L97.9,40.5z M94.6,33.8
		c-0.6,0.7-1.1,1.7-1.2,2.9C94.2,36.2,94.6,34.5,94.6,33.8L94.6,33.8z M93.8,42.2c-0.9,0.2-2.3,0.4-2.1,0.9
		C92,43.4,93.3,42.7,93.8,42.2L93.8,42.2z M97.3,101c0.4-0.3,0.4-0.9,0.1-1.2C97,99.3,96.2,99,96.1,99c-0.5-0.1-1,0.6-0.9,1.1
		C95.3,100.7,96.4,101.4,97.3,101L97.3,101z M100.6,86.9c-0.1-0.6-0.8-0.8-1.4-0.6c-0.8,0.3-1.4,0.9-1.6,1.1
		c-0.4,0.5,0.2,1.4,0.8,1.5C99.3,89.1,100.6,88.1,100.6,86.9L100.6,86.9z M100.5,60.9c-0.3-0.5-1.1-0.4-1.5-0.1
		c-0.6,0.5-1,1.4-1.1,1.6c-0.2,0.6,0.7,1.2,1.3,1.1C100.1,63.4,101,62,100.5,60.9L100.5,60.9z M99,43.6c-0.3-0.5-1.1-0.4-1.5-0.1
		c-0.6,0.5-1,1.4-1.1,1.6c-0.2,0.6,0.7,1.2,1.3,1.1C98.6,46.1,99.5,44.7,99,43.6L99,43.6z M93,67.8c-0.5,0.7-2,3-1.8,3.2
		C91.6,71,93,68.5,93,67.8L93,67.8z M92.2,65.6c-0.5,0.7-1.3,2.6-1,2.8C91.5,68.4,92.2,66.3,92.2,65.6L92.2,65.6z M91.5,64.1
		c-0.5,0.7-1.1,1.6-0.8,1.8C91,65.8,91.5,64.7,91.5,64.1L91.5,64.1z M100.3,68.8c-0.9-0.1-1.9-0.2-2,0.2
		C98.5,69.3,99.7,69.2,100.3,68.8L100.3,68.8z M99.3,70.7c-0.9-0.1-2.5,0.1-2.5,0.5C97,71.4,98.8,71,99.3,70.7L99.3,70.7z
		 M101.5,78.7c-0.7-0.1-2.1,0.1-2.1,0.4C99.6,79.3,101.1,79,101.5,78.7L101.5,78.7z M102.5,51.2c-0.9-0.2-3.1-0.2-3.2,0.1
		C99.5,51.6,101.9,51.4,102.5,51.2L102.5,51.2z M99.1,36c-0.9,0.2-1.9,0.3-1.8,0.8C97.7,37.1,98.6,36.6,99.1,36L99.1,36z M92.7,29.3
		c-0.4,0.8-0.7,1.9-0.5,3.1C92.8,31.7,92.8,30,92.7,29.3L92.7,29.3z M88.4,60.8c0.2,0.4,0.5,1.1,0.5,1.6c-0.2,0.7-0.2,0.3-0.5,0.7
		c-0.4,0.5,0.6,1.2,0.6,2c-0.1,0.7-0.4,0.2-0.5,1.1c0,0.1,0.7,0.8,0.7,1.5c0,0.4-1.1,0.3-0.7,0.9c0.3,0.3,0.9,0.5,1.2,1.3
		c0.1,0.2-0.3,0.8-0.3,1.3c0.4,0.6,0.8,0.9,0.9,1.1c0.2,0.6-0.2,1,0,1.4c0,0.2,0.1,0.4,0.1,0.6v0.1c0.1,0.3,0.3,0.5,0.7,1.1
		c-0.1-1.3-0.2-2.1-0.1-4.2c0-0.2-1.1-1.9-1.1-2s1,0.9,0.9,0.8c-0.3-1-0.1-1-0.1-1.2c-0.3-0.1-1.5-2-1.5-2.1
		c0.7,0.2,1.4,1.1,1.4,1.1c0-0.4-0.2-1.4-0.3-1.8c-0.2,0-0.9-0.7-1.2-1.5c0.8,0.4,1.1,1.1,1.1,1.1c-0.1-1.9-1.2-4-1.7-5.3
		C88.3,60.2,88.3,60.5,88.4,60.8L88.4,60.8z M91.6,84.6c-0.9,1.2-1,0.2-1.4,0.6c-0.1,0.1-0.5,0.9-0.4,1.6c-0.2,0.7-0.8,0.1-1.1,0.7
		c-0.3,0.6,0.4,1.6-0.1,2.1c-0.5,0.3-0.8,0.5-0.8,0.6c-0.1,0.6,0.1,0.8-0.1,1.2c-0.4,0.6-0.6,0.1-1.1,0.8c-0.2,0.5-0.2,1.6-0.4,2.3
		c0.2,0.1,0.4,0.2,0.6,0.3c0.6-0.7,1.5-1.7,1.6-1.9c0,0-0.3-2.1-0.2-2.2c0,0,0.5,0.9,0.5,2c0.1-0.1,0.5-0.4,1-1.3
		c0.1-0.1-0.4-2.6-0.5-3.4c0,0,0.4,0.8,0.7,1.6c0.2,0.7,0.2,1.5,0.2,1.4c0.6-1,1.1-1.7,1.3-1.8c-0.1-0.3-0.6-2.6-0.6-3.2
		c0.5,0.5,0.8,2.7,0.8,2.7c0.6-1,1-1.7,1.4-2.3c0-0.1-0.1-0.1-0.1-0.2C92.5,85.8,92.1,85.2,91.6,84.6L91.6,84.6z M75,100.7
		c-0.7-0.1-1.1-0.3-0.4-0.9c0.5-0.4-0.8-0.6-1.6-0.6c-1.1-0.1,0.6-1.2-0.6-1.3c-0.1,0-1.1,0.5-1.8,0.4c-0.5-0.1,0.2-1.6-1.3-0.8
		c-0.2,0.1-0.5,0.8-1,0.7c-0.4-0.7-0.3-0.4-0.5-0.4c-0.7,0.1-1,1-1.4,1.2c-0.9-0.1,0,0-0.8-0.1c-0.7,0.2-1.7,2.4-2.3,2.6
		c-0.1,0.3-0.4,0.1,0.3,0.1c0.7-0.7,2.6-1.3,2.9-1.3c0.1,0,1.2-1.7,1.2-1.7c0.1,0-0.7,1.5-0.6,1.5c1.2-0.1,1.3-0.2,1.6-0.1
		c0.1-0.3,1.3-1.6,1.3-1.6c-0.4,0.8-1.1,1.5-1,1.6c0.3,0.2,1.2,0.1,1.6,0.1c0.1-0.2,1-0.7,1.5-1.1c-0.5,0.8-1,1.3-0.9,1.3
		c1.6,0.1,3.2,0.9,4.4,1.2C75.7,100.9,75.2,100.7,75,100.7L75,100.7z M89.3,104.1c-0.7-0.4-0.9,0-0.9-1.4c0-0.6-1.1-0.3-1.8-0.7
		c-0.9-0.6,0.4-0.8-0.6-1.5c-0.1-0.1-1.5-0.3-2.2-0.4c-0.5-0.1,0.6-1.5-1-1.4c-0.2,0-1.1,0.3-1.5,0.1c-0.1-0.8-0.3-0.7-0.6-0.7
		c-0.6-0.2-1.1,0.4-1.5,0.3c-0.7-0.4-0.1-0.3-0.8-0.7C77.8,97.6,77,98,76.3,98c0.3,0.3,0.5,0.6,0.8,1c0.8,0.3,1.7,0.6,1.9,0.6
		c0.1,0,2.1-0.4,2.2-0.3c0.1,0-1.7,0.5-1.6,0.6c1.1,0.4,1.4,0.7,1.6,0.7c0.2-0.2,2.5-0.5,2.6-0.4c-0.7,0.5-2.3,0.4-2.2,0.6
		c0.2,0.3,1.4,0.9,1.8,1.1c0.1-0.1,2.1-0.2,2.7-0.5c-0.7,0.5-2.3,0.7-2.2,0.8c1.4,0.8,4.6,2.3,5.9,2.5
		C89.8,104.5,89.4,104.2,89.3,104.1L89.3,104.1z M101.7,90.1c-0.3-0.1-0.6,0.1-1,0.2c-0.7-0.1-0.3-0.7-0.8-0.9c-0.6-0.3-1.3,0.7-2,1
		c-1,0.3-0.6-0.6-1.5-0.4c-0.1,0-0.6,0.3-1.2,0.8c-0.3,0.2-0.7-0.8-1.4-0.5c-0.3,0.2-0.3,0.1-0.5,0.4c-0.1,0.2-0.5,0.8-1,1
		c-0.6-0.5-0.9-0.3-1-0.2c-0.6,0.4-0.6,1.6-1,1.8c-0.8,0.3-0.7-0.1-1.5,0.2c-0.5,0.4-0.7,1.5-1.2,1.9c0.6,0.4,1.2,0.9,1.9,1.2
		c0.1-0.1,0.2-0.1,0.3-0.2c0.2-0.1,0.4-0.2,0.5-0.3c0,0-0.3-2.2-0.2-2.3c0,0,0.5,0.9,0.4,2.1c0.2,0,1.2-0.9,2.1-1.4
		c0.1,0,0.1-2.6,0.1-2.6c0.1,0,0,2.4,0.1,2.3c1-0.5,1.2-0.6,1.4-0.6c0-0.3,1.1-2.8,1.2-2.8c0.2,0.7-0.9,2.7-0.9,2.7
		c0.4-0.1,1.9-0.9,2.2-1.1c0-0.2,1-1.2,1.2-1.8c-0.1,0.9-0.9,1.6-0.8,1.6c1.3-1,4-1.3,5.1-1.8C102.5,90.1,101.9,90.1,101.7,90.1
		L101.7,90.1z M100.4,65c-0.3,0.1-0.4,0.3-0.8,0.6c-0.6,0.3-0.9-0.6-1.4-0.5c-0.6,0.1-0.5,1.1-1.1,1.7c-0.5,0.4-0.7-0.8-1.3-0.2
		c-0.1,0.1,0,1.3-0.4,1.8c-0.2,0.3-1.1-0.5-1.4,0.2c-0.2,0.3-0.3,0.8-0.3,1.3c0,0.2,0.1,0.7-0.2,1.1c-0.8,0-0.9,0.4-1,0.6
		c-0.3,0.6,0.3,1.4,0.1,1.8c-0.5,0.7-0.4,0-0.9,0.6c-0.2,0.7,0.3,1.4-0.1,2.1c0.7,0.7,1.2,1.7,1.5,1.9c0,0,0.5-1.4,0.6-1.7
		c0,0-0.7-2.5-0.7-2.6c0,0,0.3,0.3,0.9,2c0.1-0.1,0.5-1.1,1-2c0-0.1-0.9-3.4-0.9-3.4c0-0.1,1.1,3.1,1.1,3c0.6-1,1.2-1.9,1.4-2.1
		c-0.1-0.3-0.7-2.7-0.6-2.8c0.5,0.5,0.7,2.5,0.8,2.4c0.2-0.3,1.1-1.4,1.4-1.7c-0.1-0.2-0.1-1.4-0.2-2c0.6,0.7,0.4,1.7,0.4,1.6
		c0.7-1.1,2.2-2.5,2.9-3.5C101,64.8,100.5,64.8,100.4,65L100.4,65z M101.5,75.2c-0.3,0.1-0.5,0.5-0.9,0.7c-0.4,0.1-0.5-0.7-1-0.7
		c-0.6,0-0.3,1-0.8,1.4c-0.4,0.4-0.7-0.6-1.4-0.1c-0.4,0.3-0.2,1-0.5,1.4c-0.6,0.6-0.8-0.1-1.4,0.5c-0.3,0.6,0.1,1.2-0.7,1.8
		c0.6,0.8,1.5,2.1,1.8,2.4c0,0,0.1-0.3,0.2-0.6c0,0-0.7-2.5-0.6-2.6c0,0,0.5,0.7,0.8,2.4c0.3-0.2,0.5-0.9,0.9-1.2
		c-0.1-0.3-0.3-2.6-0.3-2.6c0.5,0.6,0.4,2.3,0.5,2.3c0.3-0.2,0.8-1.2,1.1-1.5c-0.1-0.2,0.1-1.4,0.1-2c0.5,0.8,0.2,1.7,0.2,1.6
		c0.9-1,1.7-2.4,2.5-3.3C101.9,75,101.7,75.1,101.5,75.2L101.5,75.2z M102.7,46c-0.5,0.2-0.4,0.5-1,0.9c-0.5,0.1-0.4-0.7-1.1-0.8
		c-0.8-0.1-1,1.1-1.3,1.7c-0.7,0.6-0.5-1.3-1.5-0.7c-0.6,0.3-0.5,1.2-1.1,1.8c-0.7,0.3-0.6-0.9-1.5-0.2c-0.6,0.9-0.3,0.8-0.7,1.9
		c-0.5,0.6-0.7-0.4-1.1,0.3c-0.1,0.4-0.3,0.9-0.4,1.2c0.1,0.2,0.3,0.4,0.4,0.6c0.5,0.6,1,1.4,1.6,2.2c0,0,0.1-0.1,0.2-0.3
		c0,0-0.7-3-0.6-3c0,0,0.6,0.3,0.9,2.8c0.5-0.3,1-1.1,1.5-1.5c-0.1-0.4-0.6-3.2-0.5-3.2c0.6,0.8,0.8,2.9,0.9,2.9
		c0.4-0.3,1.1-1.1,1.5-1.4c-0.1-0.3-0.4-1.9-0.4-2.8c0.6,1.1,0.6,2.4,0.7,2.3c1.3-1.2,2.8-3.4,4-4.5C103.2,45.8,102.9,45.9,102.7,46
		L102.7,46z M92.7,38.5c-0.4,0.3-0.5,0.5-0.9,1c-0.5,0.4-1-0.3-1.2,0c-0.3,0.3-0.2,0.6-0.3,1.4c-0.4,0.4-1.1,0.3-1.2,0.7
		c-0.2,0.9,0.6,1.2,0.3,2c-0.5,0.6-0.7,0.4-0.9,0.8c-0.2,1.1,0.4,0.9,0.5,2c-0.1,0.5-0.5,0.3-0.6,1c0.3,1.1,0.7,1.9,1.1,2.8
		c0.2-0.5,0.7-2.1,0.7-2.8c0-0.1-1.4-2.5-1.3-2.6c0,0,1.2,0.6,1.4,2.1c0.3-0.4,0.1-1.2,0.4-1.8c-0.3-0.2-1.1-2.2-1-2.2
		c0.8,0.6,1.1,1.8,1.2,1.7c0.3-0.4,0.2-1.2,0.5-1.6c-0.2-0.2-0.7-0.9-0.7-1.8c1,0.8,0.9,1.2,1,1.2c0.6-1.6,0.8-2.1,1.5-3.6
		C93.1,38.3,92.9,38.5,92.7,38.5L92.7,38.5z M97.9,32.2c-0.4,0.3-0.2,0.8-0.6,1.3c-0.4,0.2-0.7-0.4-1,0c-0.2,0.3-0.1,0.4-0.4,1.1
		c-0.4,0.2-1,0-1.2,0.5c-0.3,0.9,0.3,0.9,0,1.6c-0.5,0.4-1.1,0.4-1.2,1c0,0.2,0,0.4,0,0.6c0.3,0.7,0,1.5-0.2,1.9
		c0.1,0.7,1.1-0.2,1.1,0.6c0.1,0.8-0.4,0.7-0.5,1.4c0,0.4,0.5,0.2,0.6,0.8c0,0.9-1.6,1.7-0.3,2.3c0.4-0.3,0.7-3,1.1-3.4
		c0,0-1.1-2.9-1.1-3c0,0,1.1,0.9,1.3,2.4c0.3-0.4,0.5-1.4,0.8-2C96,39.1,95,37,95.1,37c0.8,0.6,1.3,2.1,1.4,2
		c0.3-0.4,0.4-1.5,0.7-1.9c-0.2-0.2-1-1.1-1-2c1,0.8,1.1,1.4,1.1,1.4c0.6-1.6,0.6-2.4,1.2-3.9C98.6,31.9,98.1,32.2,97.9,32.2
		L97.9,32.2z M88.4,27.6c0,0.5,0.3,0.7,0.4,1.4c-0.1,0.4-1,0.4-0.9,0.8s0.7,0.4,1.1,1.1c-0.1,0.4-0.8,0.5-0.4,0.8
		c0.5,0.5,0.9,0.6,1.3,1.3c0,0.6-0.6,0.7-0.3,1.2c0.4,0.6,1.8,1.1,2,1.5c0,0.1,0,0.3-0.1,0.5c0,0.4,1,1.2,1.1,2
		c0.2-0.1,0.3,0,0.8-0.2c0-0.5,0-1.1-0.1-1.6c0-0.1-1.3-0.6-1.3-0.7c0-0.1,1.2,0.4,1.2,0.3c-0.1-0.5-0.2-1.1-0.4-1.6
		c0-0.1-2.2-0.8-2.2-0.9c0.9-0.2,2.1,0.5,2.1,0.5c-0.1-0.5-0.3-1-0.5-1.5c-0.3,0-2.2-0.8-2.9-1.3c1.8,0,2.6,0.8,2.6,0.7
		c-0.8-1.5-2-2.9-2.8-4.4C88.8,27.2,88.5,27.4,88.4,27.6L88.4,27.6z"/>
	<path class="st5" d="M92.8,63L92.8,63c0.5-0.5,0.5-0.7,0.4-1.2c-2-1.9-4.9-5.4-4.9-7.4c-0.3-3.4,3.1-7.2,6.3-8.1
		c0.6-0.3,0.5-0.7,0.4-1c0.2-0.2,0.3-0.3,0.4-0.3c0.9,1.3-1.5,2.9-3,6.4c0.6,1.1,4,5,5.2,7.7c1.2,2.8-0.5,3.8-0.8,4.7
		c-0.4,1.1-1.9,3.9-2.6,3.4V68h-0.1c0.1-0.3,0.1-0.7,0-0.9c-0.1-0.2-0.6,0-0.7-0.3c-0.1-0.4,0.4-1.4,0.4-1.8s-0.6-0.3-0.7-0.4
		C92.6,64.4,92.8,63.6,92.8,63L92.8,63z"/>
	<path class="st6" d="M96.5,63.5c0.8-0.9,1.4-2.5,1.1-3.2c-1.4-4.9-6.9-8.2-6-12.1c-1.3,1.2-2.3,2.9-2.9,4.7c-0.6,2.7,1.5,5,3.5,7.3
		c1.6,1.9,3.4,3.8,2.2,6.6C95.9,65.2,95.6,65.2,96.5,63.5L96.5,63.5z"/>
	<path class="st7" d="M96.6,63.3c-0.6-3.2-2.8-5.2-4.8-7.8c-1.3-1.7-2-4.1-1.7-5.6c-0.1,0.2-0.3,0.5-0.4,0.8c0.1,5,3,5.8,5.4,10
		c0.5,0.9,0.8,2,1.1,3.3C96.3,63.7,96.4,63.6,96.6,63.3L96.6,63.3z"/>
	<path class="st5" d="M97.6,86.5c0.1-1.2-1.8-5.2-4.3-8.5c-2.2-2.8-3.5-5.1-3.3-5.7c-0.4,0-0.1,0.8-0.4,2.1
		c-0.5,1.8-1.2,3.6-1.2,4.1c-0.1,0.7,0.2,2.1,0.9,3.2c1,1.6,2.3,3.3,3.4,4.9c1.2,1.7,1.9,3.1,2.1,3.6c0.3-0.2,0.5-1,0.9-1.5
		C96.5,87.8,97.6,87,97.6,86.5L97.6,86.5z"/>
	<path class="st6" d="M97.2,86.5c0.1-1-1.7-5.1-4.1-8c-2-2.6-3.3-4.3-3.2-4.8c-0.3,0,0,0.2-0.2,1.3c-0.4,1.7-1.1,3.3-1.1,3.7
		c-0.1,0.7,0.5,1.9,1.1,3c0.9,1.4,2,3,3,4.4c1.1,1.5,1.9,2.8,2.1,3.3c0.2-0.2,0.3-0.7,0.7-1.2C96.4,87.4,97.2,87,97.2,86.5
		L97.2,86.5z"/>
	<path class="st7" d="M96.2,87.6c-0.8-2.7-2.4-4.7-4.2-7.1c-1.2-1.6-2.3-3.1-2.6-4.6c-0.1,0.2-0.1,0.7-0.3,0.9
		c1.5,3.7,3.2,4.4,5.5,8.4c0.5,0.8,0.8,1.7,1.1,2.8C95.9,87.8,96,87.8,96.2,87.6L96.2,87.6z"/>
	<path class="st5" d="M94.6,97.8c-5.1-0.5-7.1-3.9-10.8-4c-1.2-0.1-3,0.7-4.4,1.9c-1.5,0.8-2.3,1.3-2.3,1.8l0,0v0.1l0,0
		c0.5-0.1,1-0.3,1.4-0.2c0.7,0.4,0.1,0.3,0.9,0.7c0.4,0.1,0.9-0.5,1.6-0.3c0.2,0.1,0.5,0,0.6,0.8c0.4,0.2,1.3,0,1.6-0.1
		c0.7,0,0.9,0.2,0.9,0.4l0,0l0,0l0,0c1,0.6,2,1.1,2.9,1.6c1.3,0.7,2.4,1.4,3,1.2c1.1-0.2,1.5-1,2.5-1.8c0.5-0.4,1.2-0.6,1.6-0.9
		C94.6,98.5,94.6,98,94.6,97.8L94.6,97.8z"/>
	<path class="st6" d="M94.1,98.1c-0.7,0.1-1.9-0.5-3.8-1.2c-2.9-1.1-4.2-2.9-7-2.7c-0.7,0-1.5,0.1-2.5,0.7c-0.9,0.5-1.7,1.4-2.7,1.7
		c0.5,0,4.3,0.9,6.8,2.4c2,1.2,3.9,2.5,4.8,2.4c1.4,0,1.7-1.4,2.6-1.8C94,99,94.1,98.3,94.1,98.1L94.1,98.1z"/>
	<path class="st7" d="M91.6,100.1c-2.7-0.3-4.2-1.9-6.8-3.2c-1.7-0.8-3.2-1.5-4.7-1.6c0.2-0.2,0.3-0.2,0.5-0.4
		c1.8,0.2,3.7,1.2,5.5,2.2c2.1,1.2,4.1,2.5,5.8,2.5C91.8,99.9,91.8,99.9,91.6,100.1L91.6,100.1z"/>
	<path class="st8" d="M55.5,94.7c0.7-0.2,1.6,0.6,2.8,1.1c1.8,0.7,3.4,0.4,4,4.6c-0.4-0.6-0.9-1.4-1.3-1.6c-0.6-0.2-0.3-0.2-1.2-0.1
		c-0.4-0.1-0.7-0.9-1.2-1.1c-0.2-0.1-0.5-0.4-0.9,0.2c-0.4,0-0.8-0.5-1-0.6c-1.5-0.7-1,0.8-1.5,0.9c-0.7,0.1-1.7-0.4-1.8-0.4
		c-1.2,0.2,0.4,1.3-0.7,1.4c-0.9-0.2-2,0.3-1.6,0.7c0.7,0.6,0.1,0.6-0.5,0.8c-0.2,0-0.5,0.6-0.4,0.9c0.2,0.4,1.1,0.3,1.4,0.2
		c0.2-0.1,0.6-0.2,0.8,0.1c0.2,0.3-0.8,0.9,0.5,0.9c0.1-0.1,0.3-0.2,0.5-0.3c-0.2,0.2-0.4,0.5-0.6,0.7c-2.2,2.6-3.7,1.7-5.7,1.4
		c-1.4-0.2-2.3,0.2-2.6-0.5c1.6-0.1,2.6-2,4-4.1C50.6,96.7,53.4,94.5,55.5,94.7L55.5,94.7z"/>
	<path class="st5" d="M70.6,94.7c-0.7-0.2-1.6,0.6-2.8,1.1c-1.8,0.7-3.4,0.4-4,4.6c0.4-0.6,0.9-1.4,1.3-1.6c0.6-0.2,0.3-0.2,1.2-0.1
		c0.4-0.1,0.7-0.9,1.2-1.1c0.2-0.1,0.5-0.4,0.9,0.2c0.4,0,0.8-0.5,1-0.6c1.5-0.7,1,0.8,1.5,0.9c0.7,0.1,1.7-0.4,1.8-0.4
		c1.2,0.2-0.4,1.3,0.7,1.4c0.9-0.2,2,0.3,1.6,0.7c-0.7,0.6-0.1,0.6,0.5,0.8c0.2,0,0.5,0.6,0.4,0.9c-0.2,0.4-1.1,0.3-1.4,0.2
		c-0.2-0.1-0.6-0.2-0.8,0.1c-0.2,0.3,0.8,0.9-0.5,0.9c-0.1-0.1-0.3-0.2-0.5-0.3c0.2,0.2,0.4,0.5,0.6,0.7c2.2,2.6,3.7,1.7,5.7,1.4
		c1.4-0.2,2.3,0.2,2.6-0.5c-1.6-0.1-2.6-2-4-4.1C75.6,96.7,72.7,94.5,70.6,94.7L70.6,94.7z"/>
	<path class="st6" d="M70.8,94.9c-0.7,0-1.6,0.6-2.7,1.1c-0.3,0.1-0.6,0.2-0.9,0.3l1.6,1.2c0.3-0.1,0.5-0.5,0.7-0.6
		c1.4-0.7,1.1,0.9,1.6,1c0.6,0.1,1.6-0.4,1.7-0.4c1.5,0.4-0.2,1.3,0.8,1.4c0.8-0.2,2.1,0.5,1.6,0.9c-0.6,0.5-0.3,0.5,0.3,0.6
		c0.6,0.1,0.8,0.8,0.7,1.1c-0.2,0.4-0.4,0.7-1.6,0.4c-0.3,0-0.5-0.2-0.7,0c-0.1,0.3,0.9,1.2-0.7,0.9c2,2.4,3.3,1.9,5.2,1.6
		c1.3-0.2,1.3,0,2.1-0.3c-1.6-1.5-2-2.3-3.3-4.3C75.4,96.9,72.7,94.7,70.8,94.9L70.8,94.9z"/>
	<path class="st7" d="M77.5,104.5c-1-0.8-1.6-1.7-2.2-2.6h0.1c0.1,0,0.3,0,0.4-0.1c0.7,1.2,1.3,2.2,2.4,2.6
		C78,104.5,77.7,104.5,77.5,104.5L77.5,104.5z M71.9,97.7c-1-0.9-2-1.7-3.1-2.1c0.2-0.1,0.3-0.2,0.6-0.3c1.1,0.5,2.1,1.3,3.1,2.2
		c-0.1,0-0.1,0-0.1,0c-0.1,0-0.2,0-0.2,0l0,0C72,97.6,71.9,97.7,71.9,97.7L71.9,97.7L71.9,97.7z"/>
	<path class="st8" d="M37.3,41.3c-0.1-0.2-0.1-0.3-0.5-0.3c0.1-0.4,0-1-0.3-1.3c-0.7-1-1.7-1.7-1.7-2.9s1.8-1.3,2.9-2.5
		c-0.2-1.5,0.5-1.9,1.6-2.8c0.7-0.7,1.5-1.7,2-1.8c4.1-0.1,4.4,3.5,6.5,6.2c2.4-1.7,3.1-2.8,4.7-2.6c2.6,0.7,2.9,2.5,5.8,3.7
		c2.4,1,3.5,0.2,4.7,1.7c0,1-0.1,1.5,0,2.6c-0.6-0.8-2.1-0.4-4.9-1c-2.5-0.5-4.6-2.9-7.1-3c-0.1,1.8-1,1.3-2,2
		c-1.1,0.8-1.5,1.8-2.7,1.6c-2.4-0.3-3.9-4.5-4.4-4.9c0-0.3-0.8,0.4-1.5,1.2c-0.4,0.5-0.6,1.1-1.1,1.5c-0.6,0.5-1.1,0.5-1.7,0.4
		C38,40.1,37.5,41.2,37.3,41.3L37.3,41.3z"/>
	<path class="st5" d="M88.8,41.3C89,41.2,89,41,89.3,41c-0.1-0.4,0-1,0.3-1.3c0.7-1,1.7-1.7,1.7-2.9s-1.8-1.3-2.9-2.5
		c0.2-1.5-0.5-1.9-1.6-2.8c-0.7-0.7-1.5-1.7-2-1.8c-4.1-0.1-4.4,3.5-6.5,6.2c-2.4-1.7-3.1-2.8-4.7-2.6C71,34,70.7,35.8,67.8,37
		c-2.4,1-3.5,0.2-4.7,1.7c0,1,0.1,1.5,0,2.6c0.6-0.8,2-0.8,4.9-1c2.6-0.2,4.6-2.9,7.1-3c0.1,1.8,1,1.3,2,2c1.1,0.8,1.5,1.8,2.7,1.6
		c2.4-0.3,3.9-4.5,4.4-4.9c0-0.3,0.8,0.4,1.5,1.2c0.4,0.5,0.6,1.1,1.1,1.5c0.6,0.5,1.1,0.5,1.7,0.4C88.2,40.1,88.7,41.2,88.8,41.3
		L88.8,41.3z"/>
	<path class="st6" d="M90.5,35.9c-0.5,0-2-1.1-2.4-1.4c0,0.6-0.7,1.2-1.2,1.9c-0.5,0.8-0.8,1.6,0,2.1c0.8,0.6,1.6,0.3,2.1-0.4
		c0.3-0.5,0.4-1.2,0.6-1.6C89.9,36.1,90.5,36,90.5,35.9L90.5,35.9z"/>
	<path class="st7" d="M89.2,35.3c-0.1,0-0.2-0.2-0.4-0.2c-0.1,0.1-0.5,0.2-0.8,0.6c-0.2,0.4-0.3,1.1-0.6,1.6c-0.2,0.4-0.6,0.6-1,0.7
		c0,0.1,0,0.1,0,0.2l0,0c0.5,0,1-0.2,1.3-0.7s0.4-1.2,0.6-1.6C88.7,35.3,89.2,35.3,89.2,35.3L89.2,35.3z"/>
	<path class="st6" d="M84.9,30c-0.7-0.2-1.8-0.1-2.8,0.9c-1.3,1.1-2.3,3.6-3.4,5.1c-1.2,1.7-2.4,2.3-2.7,2.3
		c0.1,0.5,0.6,0.4,1.2,0.9c0.7,0.4,1.3,1,1.6,1.3c0.6,0.5,2,0,2.8-1.1c1-1.2,2.7-4.7,3.8-5.9c1.4-1.5,2.2-0.7,2.5-0.7
		C87.3,32.2,85.4,30.5,84.9,30L84.9,30z"/>
	<path class="st7" d="M77.8,39.6c3.1-1,4.5-8.3,8.5-8.4C86,31.1,86,31,85.7,30.8c-4.3,0.7-4.5,6.7-8.4,8.4
		C77.6,39.4,77.5,39.4,77.8,39.6L77.8,39.6z"/>
	<path class="st7" d="M51.4,33.5c2.5-0.4,3.4,2,6.1,3.4c2.9,1.5,4.1,0.6,5.6,2c0,0.5,0,1.6,0,2c-1.8-1-3.2-0.5-5.1-1.1
		c-2.3-0.7-5.5-3.5-6.9-2.9C50.9,36.6,50.4,34.1,51.4,33.5L51.4,33.5z"/>
	<path class="st9" d="M51.1,33.8c2.5-0.4,3.6,1.9,6.3,3.4c0.4,0.2,0.8,0.4,1.1,0.5c2.1,0.8,3.2,0.3,4.4,1.5c0,0.1,0,0.2,0,0.3
		c-0.5-0.9-2.2-1.1-3.6-1.4c-0.8-0.1-2-0.7-2.3-1c-2.3-1.4-4-3.8-6.2-3.1C51,34,51.1,33.9,51.1,33.8L51.1,33.8z"/>
	<path class="st9" d="M50.9,34.2c2.5-0.4,3.9,1.9,6.5,3.4c0.4,0.2,0.8,0.4,1.1,0.5c2.1,0.8,3.2,0.3,4.4,1.5c0,0.1,0,0.2,0,0.3
		c-0.5-0.9-2.2-1.1-3.6-1.4c-0.8-0.1-2-0.7-2.3-1c-2.3-1.4-4.2-3.7-6.3-3.1C50.8,34.4,50.9,34.3,50.9,34.2L50.9,34.2z"/>
	<path class="st9" d="M50.9,36.4c0.3,0,0.5-0.3,2.6,0.6c1.1,0.5,2.6,1.8,5.2,2.5c1.6,0.2,2.4,0,4.4,0.8c0,0.1,0,0.2,0,0.2
		c-1.8-1-3.1-0.6-4.5-0.9C56,39.1,52.4,36,51,36.5L50.9,36.4L50.9,36.4z"/>
	<path class="st9" d="M50.8,36c0.7-0.1,1.3,0,2,0.3s1.9,0.9,2.7,1.4c1.2,0.7,2.3,1.2,3.4,1.5c1.4,0.3,2.3-0.1,4.1,0.9
		c0,0.1,0,0.2,0,0.2c-1.8-1-3.2-0.6-4.5-1c-0.9-0.3-2-0.7-3-1.3c-1.8-1.1-3.8-2.1-4.7-1.7V36L50.8,36z"/>
	<path class="st6" d="M74.7,33.5c-2.5-0.4-3.4,2-6.1,3.4c-2.9,1.5-4.1,0.6-5.6,2c0,0.5,0,1.6,0,2c1.8-1,4.2-0.8,5.2-1
		c1.8-0.3,5.4-3.6,6.9-3C75.2,36.6,75.8,34.1,74.7,33.5L74.7,33.5z"/>
	<path class="st7" d="M75.4,35.2c-1.8-0.3-4.1,1.7-6.8,3c-2.2,1-4.6,0.5-5.5,1.6c0,0.2,0,0.2,0,0.4c1-1.2,3.8-0.7,5.6-1.6
		c2.6-1.2,4.2-3.1,6.7-2.9C75.4,35.5,75.4,35.5,75.4,35.2L75.4,35.2z"/>
	<path class="st2" d="M38.1,40.9h50v46.5l0,0l0,0c0,3.4-2.8,6.2-6.2,6.2l0,0h-0.1H69.5l0,0c-0.1,0-0.1,0-0.2,0
		c-3.2,0-5.8,2.4-6.2,5.4c-0.4-3.1-3-5.4-6.2-5.4h-0.1l0,0H44.3h-0.2l0,0c-3.4-0.1-6.1-2.8-6.1-6.2l0,0l0,0L38.1,40.9L38.1,40.9z"/>
	<path class="st10" d="M40.7,43.5h44.7v32.4L63.1,83l-22.4-7.1L40.7,43.5L40.7,43.5z M85.4,80.7v4.9l0,0l0,0c0,3.1-2.5,5.5-5.5,5.5
		l0,0h-0.1h-11l0,0c-0.1,0-0.1,0-0.2,0c-0.5,0-1.9,0.1-3.2,0.6v-4.8L85.4,80.7L85.4,80.7z M63.6,93c-0.3,0.3-0.4,0.8-0.5,1.2
		c-0.1-0.5-0.3-0.9-0.5-1.3l0.6,0.3L63.6,93L63.6,93z M60.7,91.7c-1.3-0.5-2.8-0.7-3.2-0.7h-0.1l0,0H46.3h-0.1l0,0
		c-3-0.1-5.4-2.5-5.4-5.5l0,0l0,0v-4.9l20,6.3L60.7,91.7L60.7,91.7z"/>
	<path class="st4" d="M39,41.7h48.2v45l0,0l0,0c0,3.3-2.7,5.9-6,6l0,0h-0.1H69.2l0,0c-0.1,0-0.1,0-0.2,0c-2.5,0-5.6,1.2-6,4.2
		c-0.4-2.9-4-4.2-5.9-4.2H57l0,0H45h-0.1l0,0c-3.2-0.1-5.9-2.7-5.9-6l0,0l0,0V41.7L39,41.7z"/>
	<path class="st11" d="M40.2,79.9l21.1,6.6v6c-1.5-0.8-3.4-1-3.9-1h-0.1l0,0H45.9h-0.1l0,0c-3.1-0.1-5.6-2.5-5.6-5.6l0,0l0,0
		L40.2,79.9L40.2,79.9z"/>
	<path class="st11" d="M64.9,92.4v-5.9l21-6.6v6l0,0l0,0c0,3.1-2.5,5.6-5.6,5.6l0,0h-0.1H68.9l0,0c-0.1,0-0.1,0-0.2,0
		C68.1,91.5,66.3,91.7,64.9,92.4L64.9,92.4z"/>
	<polygon class="st11" points="85.9,76.3 63.1,83.5 63.1,83.5 40.2,76.3 40.2,43 85.9,43 85.9,76.3 	"/>
	<path class="st2" d="M55.6,53.4c4-2.7,5.9-5.8,7.5-9.7v-0.1c0,0,0,0,0,0.1l0,0l0,0l0,0v0.1c1.7,3.9,3.5,7,7.5,9.7
		c-0.4,1.7-2.3,2.3-3.2,1.3c-0.2,0.5-0.7,0.7-1.4,0.6c2.6,3.4,6.2,6,10.5,8.2c-0.6,1.4-1.7,2.2-3.5,1.5c-0.5,1.2-1.9,1.4-2.7,0.7
		c0,0.3-0.4,0.6-0.4,0.6c4,3.1,8.3,5.4,13,7.5c-0.5,1.4-2.8,2.6-4.7,2c-0.2,1.3-2.5,2.3-4,1.1c-0.6,1.7-3.4,2-4.2,0.9
		c-1,1.5-3.5,1.4-4.4,0.4c0,1.2-0.3,2.6,1.2,2.6c-0.5,0.5-1.4,0.8-2.2,0.6c-0.4,0.2-0.8,0.6-1.3,0.6l0,0l0,0l0,0l0,0l0,0
		c-0.6,0.1-0.9-0.4-1.3-0.5c-0.8,0.2-1.7-0.1-2.2-0.6c1.5,0,1.2-1.3,1.2-2.6c-1,1-3.4,1.1-4.4-0.4c-0.8,1.1-3.6,0.8-4.2-0.9
		c-1.5,1.3-3.8,0.2-4-1.1c-1.9,0.6-4.1-0.6-4.7-2c4.7-2,9-4.3,13-7.5c-0.1,0-0.4-0.3-0.4-0.6c-0.8,0.7-2.2,0.5-2.7-0.7
		c-1.8,0.7-2.9,0-3.5-1.5c4.3-2.1,8-4.8,10.5-8.2c-0.7,0.2-1.2-0.1-1.4-0.6C57.8,55.6,56,55,55.6,53.4L55.6,53.4z"/>
	<path class="st4" d="M56.1,53.6c3.8-2.6,5.4-5,6.9-8.7c0-0.1,0-0.1,0-0.2v0.1l0,0l0,0v-0.1c0,0.1,0,0.1,0,0.2
		c1.6,3.7,3.2,6.1,6.9,8.7c0,0.2-0.1,0.3-0.1,0.4L69,53.7c0,0.1,0.7,0.5,0.7,0.6c-0.1,0.2-0.2,0.3-0.4,0.3c0,0-0.8-0.7-0.9-0.7
		s0.6,0.8,0.4,0.8c-0.1,0-0.3,0-0.4,0s-0.7-0.6-0.8-0.6c-0.1,0,0.3,0.6,0.2,0.5c-0.3-0.1-0.6-0.3-0.8-0.5c0,0.2-0.1,0.4-0.3,0.5
		c-0.1,0.1-0.5-0.4-0.6-0.4s0.2,0.6,0.1,0.6s-0.2,0-0.3,0c-0.1,0-0.6-0.8-0.6-0.8c-0.1,0,0.2,0.8,0.2,0.8c-0.1,0-0.4-0.4-0.5-0.4
		s0.1,0.3,0,0.3c2.2,3.5,6.8,6.6,10.8,8.6c0,0.1-0.1,0.2-0.1,0.2c0,0.1-1.6-0.8-1.6-0.7s1.4,1,1.4,1c-0.1,0.1-0.2,0.2-0.3,0.3
		c-0.1,0.1-1.5-0.8-1.6-0.8s1.1,1,1,1.1c-0.2,0-0.4,0-0.6,0c-0.1,0-1.1-0.9-1.2-0.9s0.6,0.8,0.5,0.8c-0.3-0.1-0.5-0.2-0.8-0.3
		L72,63.6l0.4,0.6c-0.1,0.2-0.2,0.3-0.3,0.5c-0.1,0.1-0.9-0.7-1-0.7s0.6,0.9,0.6,1c-0.2,0.1-0.3,0.1-0.5,0.1c-0.1,0-0.7-0.8-0.8-0.8
		c-0.1,0,0.2,0.8,0.1,0.7c-0.1-0.1-0.3-0.1-0.4-0.2c0,0.3-1,1.5-1.1,1.4c3.8,2.9,8.3,5.5,12.8,7.4l0,0l-0.6,0.6L80,73.6l1,1.1
		l-0.8,0.2L79,74l0.8,1.1h-0.7L77.7,74l0.8,1.1l-1-0.1l-1.1-0.8l1.1,1.4L77.2,76l-1.1-1.1l0.9,1.3l-0.5,0.3l-1-1.1l0.8,1.2l-0.7,0.1
		l-1-1.2l0.5,1.1l-0.8-0.5L73.4,75l0.5,1.2l-0.4,0.6l-0.8-1l0.5,1.4l-0.6,0.4l-0.7-1l0.3,1.2l-0.8,0.1l-0.6-1l0.1,1L70,77.6
		l-0.5-1.1l0.1,1.1l-0.5,0.5l-0.4-1l-0.1,1.2l-0.6,0l-0.3-1l-0.1,1l-0.8-0.1l-0.2-1L66.3,78l-0.7-0.4l-0.2-1.2l-0.1,1.1L64.9,78
		l-0.2-1.1l-0.1,1.3L64,78.5l0-1.1l-0.2,1.2l-0.5,0.1l-0.1-0.8l0,0L63,78.7l-0.5-0.1l-0.2-1.2l-0.1,1.1l-0.6-0.3l-0.1-1.3L61.3,78
		L61,77.5l-0.1-1.1l-0.2,1.2L59.9,78l-0.1-0.9l-0.2,1l-0.8,0.1l-0.1-1l-0.3,1L57.6,78l-0.1-1.2l-0.4,1l-0.5-0.5l0.1-1.1l-0.5,1.1
		l-0.9,0.3l0.1-1l-0.6,1L54,77.7l0.3-1.2l-0.7,1.1L53,77.2l0.5-1.4l-0.8,1l-0.4-0.6l0.5-1.2L52,76.2l-0.8,0.5l0.5-1.1l-1,1.2
		L50,76.6l0.7-1.2l-1,1.1l-0.5-0.3l0.9-1.3L49,76l-0.3-0.4l1.1-1.4L48.7,75l-1,0.1l0.8-1.1l-1.4,1.1h-0.7l0.8-1.1L46,74.9l-0.8-0.2
		l1-1.1l-1.3,0.9l-0.6-0.6l0,0c4.4-1.9,9-4.5,12.8-7.4c-0.1,0-1.1-1.1-1.1-1.4c-0.1,0.1-0.3,0.2-0.4,0.2c-0.1,0.1,0.2-0.7,0.1-0.7
		c-0.1,0-0.7,0.8-0.8,0.8c-0.2,0-0.3-0.1-0.5-0.1c-0.1,0,0.6-0.9,0.6-1c-0.1-0.1-0.9,0.7-1,0.7c-0.1-0.1-0.2-0.3-0.3-0.5l0.4-0.6
		l-0.5,0.4c-0.3,0.1-0.6,0.2-0.8,0.3c-0.1,0,0.6-0.8,0.5-0.7c-0.1,0-1.1,0.9-1.2,0.9c-0.2,0-0.4,0-0.6,0c-0.1,0,1.1-1,1-1.1
		c-0.1,0-1.5,0.9-1.6,0.8s-0.2-0.2-0.3-0.3l1.4-1c0-0.1-1.6,0.8-1.6,0.7c0-0.1-0.1-0.1-0.1-0.2c4-2,8.7-5.1,10.9-8.6
		c-0.1,0,0.1-0.3,0-0.3s-0.4,0.4-0.5,0.4s0.2-0.8,0.2-0.8c-0.1,0-0.6,0.8-0.6,0.8c-0.1,0-0.2,0-0.3,0s0.2-0.6,0.1-0.6
		c-0.1,0-0.6,0.4-0.6,0.4c-0.2-0.2-0.2-0.4-0.3-0.5c-0.2,0.2-0.5,0.4-0.8,0.5c-0.1,0,0.3-0.5,0.2-0.5s-0.7,0.6-0.8,0.7
		c-0.1,0-0.3,0-0.4,0c-0.1,0,0.6-0.8,0.4-0.8c0,0-0.8,0.7-0.9,0.7c-0.2-0.1-0.3-0.2-0.4-0.3c0-0.1,0.7-0.5,0.7-0.6
		c0,0-0.8,0.4-0.8,0.3C56.2,53.9,56.2,53.8,56.1,53.6L56.1,53.6z"/>
	<path class="st2" d="M57.2,59.2H69V70l0,0l0,0c0,0.8-0.7,1.4-1.4,1.4l0,0l0,0h-2.9l0,0l0,0c-0.7,0-1.4,0.6-1.5,1.3
		c-0.1-0.7-0.7-1.3-1.5-1.3l0,0l0,0h-2.9l0,0l0,0c-0.8,0-1.4-0.7-1.4-1.4l0,0l0,0V59.2H57.2z"/>
	<path class="st12" d="M57.8,59.7h10.7v9.9l0,0l0,0c0,0.7-0.6,1.3-1.3,1.3l0,0l0,0h-2.6l0,0l0,0c-0.5,0-1.2,0.3-1.3,0.9
		c-0.1-0.6-0.9-0.9-1.3-0.9l0,0l0,0h-2.7l0,0l0,0c-0.7,0-1.3-0.6-1.3-1.3l0,0l0,0v-9.9H57.8z"/>
	<path class="st5" d="M68.1,67.8v1.6l0,0l0,0c0,0.7-0.5,1.2-1.2,1.2l0,0l0,0h-2.5l0,0l0,0c-0.6,0-1.1,0.2-1.2,0.8
		c-0.1-0.6-0.6-0.8-1.2-0.8l0,0l0,0h-2.5l0,0l0,0c-0.7,0-1.2-0.6-1.2-1.2l0,0l0,0v-1.6H68.1L68.1,67.8z"/>
	<path class="st6" d="M67.9,68v1.2l0,0l0,0c0,0.6-0.5,1.2-1.2,1.2l0,0l0,0h-2.4l0,0l0,0c-0.5,0-1.1,0-1.2,0.6
		c-0.1-0.6-0.8-0.6-1.2-0.6l0,0l0,0h-2.4l0,0l0,0c-0.6,0-1.2-0.5-1.2-1.2l0,0l0,0V68H67.9L67.9,68z"/>
	<polygon class="st8" points="58.2,60.1 68.1,60.1 68.1,67.4 58.2,67.4 	"/>
	<path class="st7" d="M58.4,60.4h9.5v6.8h-2.5l-0.8-1.3h-0.5c-0.1-0.9-1-0.9-1.6-1.4c-0.2-0.9-0.9-0.7-1.2-0.2
		c-0.1,0.2-0.2,0.4-0.2,0.7c0,0.5,0.2,0.9,0.8,0.7l0.1,0.1h-0.8l-0.5,1.3h-2.3L58.4,60.4L58.4,60.4z"/>
	<polygon class="st5" points="59.5,69 60,69 59.5,68.6 60.2,68.8 60.3,68.2 60.4,68.8 61.2,68.6 60.6,69 61.2,69 61.2,69.3 
		59.5,69.3 	"/>
	<polygon class="st5" points="65.1,69 65.7,69 65.1,68.6 65.8,68.8 65.9,68.2 66.1,68.8 66.8,68.6 66.2,69 66.8,69 66.8,69.3 
		65.1,69.3 	"/>
	<polygon class="st5" points="62.3,69.4 62.8,69.4 62.3,69 62.9,69.2 63.1,68.6 63.2,69.2 63.9,69 63.3,69.4 63.9,69.4 63.9,69.7 
		62.3,69.7 	"/>
	<path class="st8" d="M66.1,66.2c0.1,0,0.2,0.1,0.2,0.2s-0.1,0.2-0.2,0.2s-0.2-0.1-0.2-0.2C65.9,66.3,66,66.2,66.1,66.2L66.1,66.2z"
		/>
	<path class="st8" d="M65.8,66.7c0.1,0,0.2,0.1,0.2,0.2s-0.1,0.2-0.2,0.2s-0.2-0.1-0.2-0.2C65.5,66.8,65.6,66.7,65.8,66.7L65.8,66.7
		z"/>
	<path class="st8" d="M59.5,66.5c0.2,0,0.3,0.1,0.3,0.3c0,0.2-0.1,0.3-0.3,0.3s-0.3-0.1-0.3-0.3S59.3,66.5,59.5,66.5L59.5,66.5z"/>
	<path class="st8" d="M66.7,66.2c0.1,0,0.2,0.1,0.2,0.2s-0.1,0.2-0.2,0.2s-0.2-0.1-0.2-0.2C66.4,66.3,66.6,66.2,66.7,66.2L66.7,66.2
		z"/>
	<path class="st8" d="M66.3,66.7c0.1,0,0.2,0.1,0.2,0.2s-0.1,0.2-0.2,0.2s-0.2-0.1-0.2-0.2C66.1,66.8,66.2,66.7,66.3,66.7L66.3,66.7
		z"/>
	<path class="st8" d="M59.5,65.2c0.2,0,0.3,0.1,0.3,0.3c0,0.2-0.1,0.3-0.3,0.3s-0.3-0.1-0.3-0.3C59.2,65.3,59.3,65.2,59.5,65.2
		L59.5,65.2z"/>
	<path class="st8" d="M66.7,65.2c0.1,0,0.2,0.1,0.2,0.2s-0.1,0.2-0.2,0.2s-0.2-0.1-0.2-0.2C66.4,65.3,66.6,65.2,66.7,65.2L66.7,65.2
		z"/>
	<path class="st8" d="M59.1,65.8c0.2,0,0.3,0.1,0.3,0.3c0,0.2-0.1,0.3-0.3,0.3s-0.3-0.1-0.3-0.3C58.8,66,58.9,65.8,59.1,65.8
		L59.1,65.8z"/>
	<path class="st8" d="M66.3,65.7c0.1,0,0.2,0.1,0.2,0.2s-0.1,0.2-0.2,0.2s-0.2-0.1-0.2-0.2S66.2,65.7,66.3,65.7L66.3,65.7z"/>
	<path class="st8" d="M60.3,66.5c0.2,0,0.3,0.1,0.3,0.3c0,0.2-0.1,0.3-0.3,0.3S60,67,60,66.8S60.2,66.5,60.3,66.5L60.3,66.5z"/>
	<path class="st8" d="M67.3,66.2c0.1,0,0.2,0.1,0.2,0.2s-0.1,0.2-0.2,0.2s-0.2-0.1-0.2-0.2C67.1,66.3,67.2,66.2,67.3,66.2L67.3,66.2
		z"/>
	<path class="st8" d="M67,66.7c0.1,0,0.2,0.1,0.2,0.2s-0.1,0.2-0.2,0.2s-0.2-0.1-0.2-0.2C66.7,66.8,66.8,66.7,67,66.7L67,66.7z"/>
	<path class="st8" d="M67.6,66.7c0.1,0,0.2,0.1,0.2,0.2s-0.1,0.2-0.2,0.2s-0.2-0.1-0.2-0.2C67.4,66.8,67.5,66.7,67.6,66.7L67.6,66.7
		z"/>
	<path class="st8" d="M59.9,65.8c0.2,0,0.3,0.1,0.3,0.3c0,0.2-0.1,0.3-0.3,0.3s-0.3-0.1-0.3-0.3C59.6,66,59.7,65.8,59.9,65.8
		L59.9,65.8z"/>
	<path class="st8" d="M67,65.7c0.1,0,0.2,0.1,0.2,0.2s-0.1,0.2-0.2,0.2s-0.2-0.1-0.2-0.2S66.8,65.7,67,65.7L67,65.7z"/>
	<path class="st13" d="M60.5,17.4c3.6-1,7.1,0,9.7,2.4c3.9,3.9,3.9,10.2,0,14c-3.4,3.4-8.7,3.8-12.6,1.2c-0.3-0.3-0.5-0.5-0.8-0.8
		l0.4-0.5l2.6,1.1l0.6,0.5v-0.5l0.8,0.6v-0.5l0.9,0.5L62,34.9l1.1,0.3L63,34.7l1.1,0.2L64,34.4l1.1,0.1L65,34.2h1.1l-0.4-0.4
		l1.8-0.9L68,32l0.8-0.2l-0.4-0.4l0.9-0.4L69,30.6l0.7-0.3L69.3,30l0.7-0.5l-0.4-0.3l0.7-0.6l-0.4-0.2l0.6-0.7l-0.4-0.1l0.5-0.8
		l-0.5-0.1l0.5-0.8h-0.4l0.4-0.8l-0.4,0.1l0.3-0.9L70,24.4l0.2-1l-0.4,0.1v-1.1l-0.3,0.2l-0.1-1.1L69,22l-0.2-1.1l-0.3,0.3l-0.3-0.9
		L68,20.5l-0.3-0.9l-0.2,0.3l-0.4-0.8l-0.2,0.3l-0.4-0.7L66.3,19l-0.5-0.6l-0.1,0.2l-0.5-0.5l-0.1,0.2l-0.5-0.5L64.5,18L64,17.6
		l-0.1,0.2c-0.3-0.1-0.8-0.2-1.3-0.2l0,0L60.5,17.4L60.5,17.4z"/>
	<path class="st14" d="M64.1,17.3c2.2,0.2,4.1,1.3,5.8,2.8c3.7,3.7,3.7,9.7,0,13.4c-3.3,3.3-8.4,3.7-12,1.2
		c-0.2-0.1-0.4-0.3-0.6-0.4c0,0,0.1-0.1,0.2-0.2l2.2,1l0.9,0.7v-0.5l0.8,0.6v-0.6l0.9,0.5l-0.1-0.6l1.1,0.4l0-0.6l1,0.2l-0.1-0.6
		l1.1,0.1l-0.2-0.5l1.1,0.1l-0.7-0.9l1.7-0.9l0.7-0.5l1.1-0.3l-0.4-0.4l1-0.4l-0.4-0.4l0.8-0.4L69.6,30l0.7-0.5l-0.4-0.3l0.8-0.6
		l-0.5-0.2l0.6-0.8l-0.5-0.1l0.5-0.8h-0.5l0.5-0.8h-0.5l0.4-0.9l-0.4,0.1l0.3-1l-0.4,0.2l0.2-1.1L70,23.4v-1.2l-0.4,0.3l-0.1-1.2
		l-0.3,0.4L69,20.6l-0.3,0.3l-0.3-1L68,20.2l-0.3-0.9l-0.2,0.3l-0.4-0.8l-0.2,0.3l-0.4-0.7l-0.1,0.3l-0.5-0.6l-0.1,0.2l-0.5-0.6
		L65.2,18l-0.5-0.4l-0.1,0.2L64,17.4l-0.1,0.2l0,0l0,0h-0.1c-0.2-0.1-0.5-0.1-0.8-0.1l-1.1-0.2C62.6,17.2,63.4,17.2,64.1,17.3
		L64.1,17.3z"/>
	<path class="st2" d="M57.4,24.6l1.3-1.3c5.1,4.6,10.2,9.2,15.3,13.8c0.7,2.1-0.7,3.5-2.8,2.8L57.4,24.6L57.4,24.6z"/>
	<path class="st4" d="M57.8,24.7l0.9-0.9c3.6,3.3,11.1,10.4,14.7,13.7c0.5,1.5-0.5,2.5-2,2L57.8,24.7L57.8,24.7z"/>
	<polygon class="st13" points="55.2,27.9 60.6,22.5 66.4,22.7 58.2,31 	"/>
	<polygon class="st14" points="55.8,27.9 60.7,23 65.3,23.1 58.2,30.3 	"/>
	<path class="st2" d="M62.3,64.5c0.4,0.5,0.9,0.4,1.4,0.9c0.6,0.6-0.1,1.4-0.7,1.1c-0.7-0.3-0.9-0.9-1.3-1
		C61.9,65.2,62.1,64.9,62.3,64.5L62.3,64.5z"/>
	<path class="st12" d="M62.2,64.6c0.2,0.3,0.4,0.4,0.7,0.5v0.1c0,0.2-0.1,0.5-0.3,0.6c0.3-0.1,0.4-0.3,0.4-0.6
		c0.1,0,0.2,0.1,0.3,0.1h-0.1v0.1c0,0.2-0.1,0.4-0.4,0.6c0.3-0.1,0.5-0.4,0.5-0.6l0.1,0.1c0.5,0.6,0,1.1-0.5,0.9
		c-0.7-0.3-0.8-0.8-1.3-0.9C61.9,65.1,62,65,62.2,64.6L62.2,64.6z"/>
	<polygon class="st2" points="61.3,66.1 64.5,66.1 65.1,67.2 60.9,67.2 	"/>
	<path class="st12" d="M61.5,66.3h1.4l-0.1,0.1c0,0.1,0.1,0.2,0.2,0.2c0.1,0,0.2-0.1,0.2-0.2s0-0.1-0.1-0.1h1.1l0.5,0.8h-0.2
		l-0.4-0.6h-0.5l0.4,0.6h-0.5v-0.6h-0.3V67H62v-0.6h-0.3V67h-0.5L61.5,66.3L61.5,66.3z"/>
	<path class="st2" d="M62.1,64.2c0.3,0.1,0.4,0.6,0.2,1s-0.6,0.7-0.9,0.5c-0.3-0.1-0.4-0.6-0.2-1C61.4,64.3,61.8,64,62.1,64.2
		L62.1,64.2z"/>
	<path class="st12" d="M62.1,64.3c0.2,0.1,0.3,0.5,0.1,0.8c-0.1,0.3-0.5,0.5-0.7,0.4s-0.3-0.5-0.1-0.8c0.1-0.2,0.3-0.4,0.5-0.4
		c0.2,0.1,0.2,0.4,0.1,0.7c-0.1,0.2-0.3,0.4-0.4,0.4c0.2,0,0.4-0.1,0.5-0.4C62.1,64.7,62.1,64.5,62.1,64.3L62.1,64.3z"/>
	<path class="st2" d="M28.1,40.9c0.1-0.3-0.2-0.5-0.4-0.6c-2-1.1-1-1.5-0.7-2c0.2-0.4-0.7-0.5-0.9-0.8c-0.2-0.2-0.4-0.7-0.1-1
		s0.9,0,0.5-0.4c-0.7-1.4-0.4-2.1,0-2.2c0.2,0,0.5,0.1,0.5,0c-0.3-2.9,1.6-1.9,2-0.7c0.2,0.3,0.4-0.3,0.9,0c0.2,0.1,0.3,0.9,0.4,0.9
		c1-0.6-1-3.1,1-2.9c0.6,0.1-0.6-2.4,1.1-2.4c0.5,0,0.8,0.6,1,0.1c0.1-1.2,1.2-2.1,1.6-1c0.1,0.4,0.4,0.4,0.5,0.2c0.7-0.8,1-1.2,2-1
		c0.4,0.2,0.6,0.8,0,1.7c-0.2,0.4,0.3,0.4,0.5,0.5c1.2,0.8-1.4,1.4-0.5,1.8c1.2,0.8-1.3,1.6-1,2.2c0.4,0.5,0.4,0.9,0.1,1.3
		c-0.4,0.5-1.8,0.9-1.7,1.3c0.2,1.1-1.2,1.6-1.2,2.6c0.4,0.4,0.3,0.2,0.8,0.9c0.2,0.4,0.4-0.5,1.1-0.1c0.4,0.2,0.5,1.3,0.6,1.6
		c0.1,0.2,0.9,0.1,1.1,0.8c0.1,0.6-0.4,1.8-0.2,2.1c0.3,0.5,0.7-0.1,0.8,1.1c0.1,0.8-0.8,1.3-0.5,1.7c0.2,0.3,0.6,0.7,0.5,1.3
		c-0.2,0.9-0.8,2.2-1.1,2.9c-0.9-1.6-2.4-3.1-4-3.9l-0.1-0.1c0-0.3-0.9-0.8-1.7-1.4l0,0c-0.2-0.2-0.3-0.3-0.4-0.3l0,0
		c-0.6-0.5-1-1-0.8-1.5c0.2-0.6-0.9-1-1.5-1.4C27.8,41.6,28.1,40.9,28.1,40.9L28.1,40.9z M23.3,45.7c0.5,0.2,0.6,0.4,1.2,0.7
		c0.5,0.1,0.2-0.5,0.8-0.5c0.8-0.1,1.2,0.8,1.6,1.5c0.3,0.4,0.1-0.6,1.1-0.5c0.7,0.1,1.1,1,1.5,1.8c0.2,0.1,0.3-0.2,0.6-0.3
		l-0.3-0.9c-0.2,0-0.3-0.1-0.3-0.3l0,0c-0.2,0-0.4,0-0.6,0c-0.8-0.3-1-0.9-1.3-1.1c-0.1,0,0.2-0.1,0.1-0.1c-0.7-0.6-1.2-1.6-0.7-2.6
		c0.4-0.6,1.3-0.5,1.8-0.1c0.6,0.5,1,1.3,1.2,1.7c0.1,0,0.2-0.1,0.2-0.1c-0.1,0.4,0.3,1.3,0,1.8c-0.1,0.1-0.1,0.2-0.2,0.3
		c0.1,0,0.2,0.1,0.2,0.2c0,0.1,0,0.1-0.1,0.1l0.2,0.9c0.2,0,0.4,0,0.7,0.1c0.7,0.8,0.5,0.9,0.9,2c0.2,0.5,0.2-0.2,1,0.4
		c0.1,0.3,0.3,0.8,0.4,1.2c-0.9,1.3-2.9,3.7-4.1,5.9l0,0c-0.2,0-0.8,0-1-0.2c-0.3-0.3-0.1-0.8-0.1-0.8c-0.4,0.1-1.4-0.2-1.7-0.6
		c-0.3-0.4,0.1-1.1-0.2-1c-1.1-0.2-1.5-0.2-2-0.9c-0.3-0.9,0.8-0.7,0.1-1.2c-0.6-0.4-1-0.4-1.6-1.3c-0.2-1.3,1.2-1,0.2-1.6
		c-0.5-0.4-1.6-1.6-0.4-2c0.7-0.2-0.4-1.1-0.2-2C22.4,45.8,22.6,45.5,23.3,45.7L23.3,45.7z M27.6,76.4c0.4-0.2,0.8-0.3,1.2-0.2
		c0.5,0.2,0.6,0.8,0.7,0.7c0.2-0.3,0.1-0.8-0.1-0.9c-0.3-0.3-1.1-0.4-1.3-0.6c-0.5-0.5,0-0.7,0-1c-0.1-0.5-1.7-1-1.9-1.3
		c-0.2-0.2-0.3-0.5,0-0.8s-0.1-0.6-0.5-1c-1.3-1.4-0.3-1.7,0.1-1.8c0.1,0-1-0.9-1.1-1.7c-0.1-0.6,0.7-1,0.7-1.1
		c-1.9-2.4,0.7-2.9,1.5-1.5c0.2,0.3,0.7-0.6,1.2-0.5c0.2,0.1,0.7,0.5,0.8,0.6l-0.4-0.7c-0.4,0.1-0.7,0-1.1-0.2
		c-0.8-0.3-1-0.9-1.3-1.1c-0.1,0,0.2-0.1,0.1-0.1c-0.7-0.6-1.2-1.6-0.7-2.6c0.4-0.6,1.3-0.5,1.8-0.1c0.6,0.5,1,1.3,1.2,1.7
		c0,0,0.1,0,0.1-0.1c0.1,0.1,0.1,0.2,0.2,0.3c0.1,0.5,0.4,1.2,0.2,1.6c-0.1,0.1-0.1,0.2-0.2,0.3c0.1,0,0.3,0.1,0.3,0.2
		s0,0.1-0.1,0.1l0.5,1.5c0.3-0.1,0.8-0.4,1.1,0.1c0.3,0.5,0.3,2,0.6,1.8c0.2-0.1,0.5-0.4,0.9-0.2l0,0l0,0l0,0l0,0
		c-0.1-0.3-0.1-0.7,0-0.9c0.1-0.2,0.6,0,0.7-0.3c0.1-0.4-0.4-1.4-0.4-1.8s0.6-0.3,0.7-0.4l0,0l0,0l0,0l0,0l0,0l0,0l0,0l0,0l0,0l0,0
		l0,0l0,0l0,0l0,0l0,0l0,0l0,0c0-0.1,0.1-0.1,0.1-0.2l0,0c0-0.1,0-0.2,0-0.3l0,0c0-0.3,0-0.7,0-1l0,0c0-0.1,0-0.3,0.1-0.4
		c0.3-0.4,1.1,0.3,1.2-0.1c0.1-1.2,0.8-2.1,1.2-1.3c0.1,0.4,0.3,0,0.4-0.2c0.7-0.8,0.6-0.9,1.6-1c0.4,0.2,0.3,1.2-0.2,2.1
		c-0.2,0.4,0,0.4,0.2,0.5c1.2,0.8-0.9,2.4-0.1,2.8c1.2,0.8-0.8,1.8-0.5,2.4c0.6,0.2,0.9,0.6,0.6,1c-0.4,0.5-1.2,1-1.2,1.4
		c0,0.6,0.8,1.2,0,1.8c-0.2,0.1-0.3,0.2-0.3,0.4l0,0c0.1,0.5-0.8,3.1-3,5.9c-2.6,3.2-4.7,7.1-4.6,8.2l0,0l0,0l0,0
		c-0.2-0.1-0.6-0.3-0.8-0.6c-0.2-0.3-0.1-0.7,0-1c0.3-0.6-2,0.4-2.1-1.7c0-0.2,0.4-0.6-0.1-0.9c-1-0.3-1.7-1.1-1.4-1.8
		c0.1-0.2,0.6-0.3,0.5-0.7c-1.2-0.7-1.5-2-0.7-2.3c0.9-0.3-0.1-0.8-0.3-1.5c-0.1-0.4,0-0.8,0.2-1c0.3-0.4,1.1-0.3,1.8,0.7
		c0.4,0.1,0.3-0.5,0.6-0.6C27.2,74.8,27.3,76.4,27.6,76.4L27.6,76.4z M50.8,97L50.8,97c-0.2,0-0.4,0-0.4-0.2l0,0
		C50.2,96.9,50,97,49.8,97c-0.9,0-1.3-0.5-1.6-0.5c-0.1,0,0.1-0.1,0.1-0.1c-0.9-0.3-1.7-1.1-1.6-2.2c0.1-0.7,1-1,1.6-0.8
		c0.8,0.3,1.4,0.9,1.7,1.2c0-0.1,0.1-0.2,0.2-0.2c0.1,0.4,0.8,1.1,0.7,1.7c0,0.1-0.1,0.2-0.1,0.3c0.1,0,0.2,0.1,0.3,0.2
		c0,0.1,0,0.1,0,0.2l0,0C51,96.8,50.9,96.9,50.8,97L50.8,97z M36.4,104c0.7-0.4,0.9,0,0.9-1.4c0-0.6,1.1-0.4,1.8-0.7
		c1-0.6-0.4-0.9,0.6-1.5c0.1-0.1,1.5-0.3,2.2-0.4c0.3-0.1,0.1-0.5,0.1-0.9c0,0,0,0,0.1,0l0,0c0.1-0.3,0.3-0.5,0.9-0.4
		c0.2,0,1.1,0.3,1.6,0.1c0.1-0.8,0.4-0.7,0.6-0.8c0.7-0.2,1.1,0.4,1.6,0.3c0.8-0.4,0.1-0.3,0.9-0.7c0.7-0.1,1.8,0.4,2.5,0.4
		c-0.6,0.6-1.1,1.4-1.6,2.1c-1.3,2-2.2,3.8-3.7,4.1c-0.1,0-0.2,0-0.4,0.1c-0.5,0.1-0.1,1.2-1,1.3c-0.9,0.2-0.6-0.6-1-0.4
		s-0.6,1-1.3,1c-0.6,0-0.4-0.6-0.8-0.5c-0.4,0.1-0.6,0.8-1.4,0.7c-0.7,0-0.6-0.8-1-1C36.8,105.6,35.2,105,36.4,104L36.4,104z
		 M26,89.2c1.5-0.3,1.7,0.9,2.5,0.9c0.4,0,0.2-0.4,0.6-0.6c-0.1,0-0.1-0.1-0.1-0.1l0,0c-0.2,0.1-0.4,0.2-0.6,0.2
		c-0.9,0-1.3-0.5-1.6-0.5c-0.1,0,0.1-0.1,0.1-0.1c-0.9-0.3-1.7-1.1-1.6-2.2c0.1-0.7,1-1,1.6-0.8c0.8,0.3,1.4,0.9,1.7,1.2
		c0-0.1,0.1-0.2,0.2-0.2c0.1,0.4,0.8,1.1,0.7,1.7c0,0.1-0.1,0.2-0.1,0.3c0.1,0,0.2,0.1,0.3,0.2c0,0.1,0,0.1,0,0.2l0.1,0.2
		c0.6,0.1,0.7,1,1.2,1c0.1,0,0.3-0.1,0.4-0.3l0,0c0.2-0.5,0.7-2.2,1.9-3.9c0.5-0.7,1-1.3,1.5-2c-0.1,0.9,1.2,0,1.8,1.1
		c0.3,0.5,0,1,0.3,1.5c0.2,0.3,0.7-0.2,1,0.5c0.5,1.2,1.2,2.4,1.7,3.6c0.5,1.3,0.1,2.5,0.7,3.4c-2.2,1.1-3.8,3.4-8.6,3.5
		c-0.2-0.1-0.3-0.3-0.5-0.2c-0.5,0-1.1,0.5-1.5,0.7s-0.8-0.3-1.2-0.4c-0.8-0.2-1.6,1.4-2.7,0.9c-0.5-0.2-0.3-0.4-0.6-0.6
		c-0.5-0.2-1.6,1.1-2.3,0.6c-0.6-0.4-0.3-0.8-0.5-1c-0.3,0-0.9,0.1-1.3-0.1c-0.3-0.2-0.4-0.4-0.4-0.6c-0.2-1.1,0.8-1.1,0.8-1.5
		s-0.9-0.3-0.3-1.4c0.5-0.7,1.1-0.1,1.5-0.4c0.2,0-0.5-0.5,0.3-0.9c0.3-0.2,1.3-0.3,1.5-0.3c0.2-0.3,0.2-0.4,0.4-0.6
		c-0.1-0.4-1-0.6-1.2-1c-0.2-0.3-0.2-0.8,0-1.1c0.7-0.6,1.2-0.4,2,0C25.9,89.9,25.5,89.4,26,89.2L26,89.2z M32,98.9L32,98.9
		c0,0.2-0.1,0.3-0.2,0.3l0,0c0,0.2,0,0.4,0,0.5c-0.3,0.6-0.8,0.8-0.9,1.1c0,0.1-0.1-0.1-0.1-0.1c-0.5,0.5-1.3,0.9-2.1,0.6
		c-0.5-0.3-0.4-1.1-0.1-1.5c0.4-0.5,1.1-0.8,1.4-0.9c0-0.1-0.1-0.2-0.1-0.2c0.3,0.1,1.1-0.2,1.5,0c0.1,0,0.2,0.1,0.2,0.2
		c0-0.1,0.1-0.2,0.2-0.2l0,0C31.9,98.7,31.9,98.8,32,98.9L32,98.9z"/>
	<path class="st4" d="M47,94.3c0.1-0.6,0.8-0.8,1.4-0.6c0.8,0.3,1.4,0.9,1.6,1.1c0.4,0.5-0.2,1.4-0.8,1.5
		C48.2,96.4,46.9,95.5,47,94.3L47,94.3z M59.2,104.9c0.2-0.2-0.2-0.4-0.3-0.6c-0.1,0.1-0.2,0.2-0.3,0.3
		C58.8,104.8,59,105.1,59.2,104.9L59.2,104.9z M59.1,104.3c0.1,0.1,0.2,0.3,0.4,0.4c0.4-0.7,1-1.3,1.5-2
		C60.2,103.2,59.6,103.6,59.1,104.3L59.1,104.3z M22.9,93.2c0.4-0.2,0.8-0.3,1.3-0.2c-0.1,0.5,1.3,0.9,1.5,0.9
		c0.7,0.1-0.1,0.7,0.3,1.2c0,0,0.2,0.3,0.6,0.4c0.7,0.2,1.3-0.2,1.4,0.3c0,0.2,0.1,0.7,0.7,0.8c0.9,0.2,1.5-0.5,2.1,0.1
		c0.2,0.1,0.2,0.6,0.5,0.8c0.5,0.3,1.1,0.4,0.5,0.4c-0.5,0.1-1-0.3-1.2-1c-0.1-0.3-1,0.1-1.3,0.2c-1,0.1-1.3-0.4-1.5-0.9
		c0-0.3-0.8,0-1.3-0.2c-0.4-0.1-0.4-0.3-0.5-0.5s-2-1.1-2-1.1c-0.1,0,1.8,1.1,1.7,1.1c-0.2,0-0.4,0.1-0.6,0.1
		c-0.2,0.1-0.4,0.1-0.6,0.2c-0.1,0-1.6-0.6-1.7-0.6s1.4,0.7,1.3,0.8c-1.6,0.6-3,1.4-3.1,1.3c-0.5,0-0.5-0.9,0.5-1.2
		c0.4-0.8-0.6-0.7-0.4-1.3c0.3-0.9,1.2,0,1.7-0.3C23.2,94.2,22.5,93.7,22.9,93.2L22.9,93.2z M32.6,43.9c0.9,0.2,2.6,0.7,2.6,1.2
		C35,45.4,33.1,44.4,32.6,43.9L32.6,43.9z M27.5,73c0.9-0.1,3.3,0.5,3.5,0.9C30.9,74.3,28.1,73.3,27.5,73L27.5,73z M25.1,80.7
		c0.7-0.1,2.8-0.1,2.9,0.3C28,81.3,25.6,80.9,25.1,80.7L25.1,80.7z M25.4,53.1c0.9-0.2,3.3-0.3,3.5,0.1C28.8,53.6,26,53.3,25.4,53.1
		L25.4,53.1z M27.6,38.3c0.9,0.2,1.9,0.3,1.9,0.8C29.4,39.4,28.1,38.8,27.6,38.3L27.6,38.3z M32.1,30.7c0.5,0.8,1,2.6,0.9,3.8
		C32.3,33.8,32,31.4,32.1,30.7L32.1,30.7z M33.3,45.9c0.9,0,1.5,0.6,2.5,1.3C35.5,47.8,33.8,46.3,33.3,45.9L33.3,45.9z M29.4,75.6
		c0.8,0.1,1.9,0.3,2.9,0.5C31.7,76.7,30.8,76.4,29.4,75.6L29.4,75.6z M57.5,101.9c0.2-0.5,1.2-1.2,1.8-1.6
		C59.4,101.1,57.8,101.7,57.5,101.9L57.5,101.9z M44.9,102.7c0-0.7,1.5-2,2-2.8C47.5,100.8,45.2,102.3,44.9,102.7L44.9,102.7z
		 M55.1,101.9c0.2-0.5,1.5-1.3,2.1-1.7C57.4,101,55.5,101.7,55.1,101.9L55.1,101.9z M42.5,104.2c0-0.7,1.7-2.4,2.1-3.2
		C45.3,101.9,42.8,103.8,42.5,104.2L42.5,104.2z M53.6,101.6c0.2-0.5,1.1-1.1,1.7-1.6C55.5,100.9,54,101.4,53.6,101.6L53.6,101.6z
		 M41.2,104.7c0-0.7,0.9-1.6,1.4-2.4C43.2,103.1,41.5,104.3,41.2,104.7L41.2,104.7z M33.6,97.3c0.4-0.6,1-0.7,1.8-1.1
		C35.4,97.3,34,97.1,33.6,97.3L33.6,97.3z M30.7,96.1c0.4-0.6,1.4-0.7,2.3-1.3C33.5,95.6,31.2,95.9,30.7,96.1L30.7,96.1z M28.7,95.3
		c1.2-0.6,1.5-1.3,2.6-1.4C31.6,94.3,29.4,95.4,28.7,95.3L28.7,95.3z M26.7,93.8c0.5-0.5,1.5-1.2,2.5-1
		C29.4,93.3,27.2,93.7,26.7,93.8L26.7,93.8z M24,97.4c0-0.5,0-1,0.6-1.4C25,96.2,24.2,97.1,24,97.4L24,97.4z M25.1,97.7
		c0-0.7,0-1.4,0.9-2C26.5,96,25.4,97.3,25.1,97.7L25.1,97.7z M32,89.1c0.6-0.2,1.8-0.4,2.7,0.2C34.6,89.8,32.4,89.3,32,89.1L32,89.1
		z M33.7,91c0.6-0.2,1.5,0.1,2.4,0.4C36.1,91.8,34.2,91.1,33.7,91L33.7,91z M26.3,82c0.6-0.2,2,0.2,2.9,0.4
		C29.1,82.9,26.8,82.2,26.3,82L26.3,82z M27.5,55c0.8-0.4,1.8-0.4,3-0.2C30.5,55.5,28.1,55.2,27.5,55L27.5,55z M28.2,40.5
		c0.9,0,1.3,0.1,2.3,0.9C30.2,42,28.8,40.9,28.2,40.5L28.2,40.5z M31.5,33.8c0.6,0.7,1.1,1.7,1.2,2.9C32,36.2,31.6,34.5,31.5,33.8
		L31.5,33.8z M32.4,42.2c0.9,0.2,2.3,0.4,2.1,0.9C34.2,43.4,32.8,42.7,32.4,42.2L32.4,42.2z M28.8,101c-0.4-0.3-0.4-0.9-0.1-1.2
		c0.4-0.5,1.2-0.8,1.3-0.8c0.5-0.1,1,0.6,0.9,1.1C30.8,100.7,29.7,101.4,28.8,101L28.8,101z M25.6,86.9c0.1-0.6,0.8-0.8,1.4-0.6
		c0.8,0.3,1.4,0.9,1.6,1.1c0.4,0.5-0.2,1.4-0.8,1.5C26.9,89.1,25.5,88.1,25.6,86.9L25.6,86.9z M25.7,60.9c0.3-0.5,1.1-0.4,1.5-0.1
		c0.6,0.5,1,1.4,1.1,1.6c0.2,0.6-0.7,1.2-1.3,1.1C26.1,63.4,25.2,62,25.7,60.9L25.7,60.9z M27.2,43.6c0.3-0.5,1.1-0.4,1.5-0.1
		c0.6,0.5,1,1.4,1.1,1.6c0.2,0.6-0.7,1.2-1.3,1.1C27.6,46.1,26.7,44.7,27.2,43.6L27.2,43.6z M33.1,67.8c0.5,0.7,2,3,1.8,3.2
		C34.5,71,33.1,68.5,33.1,67.8L33.1,67.8z M34,65.6c0.5,0.7,1.3,2.6,1,2.8C34.6,68.4,34,66.3,34,65.6L34,65.6z M34.7,64.1
		c0.5,0.7,1.1,1.6,0.8,1.8C35.1,65.8,34.7,64.7,34.7,64.1L34.7,64.1z M25.9,68.8c0.9-0.1,1.9-0.2,2,0.2
		C27.6,69.3,26.4,69.2,25.9,68.8L25.9,68.8z M26.8,70.7c0.9-0.1,2.5,0.1,2.5,0.5C29.1,71.4,27.4,71,26.8,70.7L26.8,70.7z M24.6,78.7
		c0.7-0.1,2.1,0.1,2.1,0.4C26.6,79.3,25,79,24.6,78.7L24.6,78.7z M23.6,51.2c0.9-0.2,3.1-0.2,3.2,0.1C26.7,51.6,24.3,51.4,23.6,51.2
		L23.6,51.2z M27,36c0.9,0.2,1.9,0.3,1.8,0.8C28.5,37.1,27.5,36.6,27,36L27,36z M33.4,29.3c0.4,0.8,0.7,1.9,0.5,3.1
		C33.4,31.7,33.3,30,33.4,29.3L33.4,29.3z M37.8,60.8c-0.2,0.4-0.5,1.1-0.5,1.6c0.2,0.7,0.2,0.3,0.5,0.7c0.4,0.5-0.6,1.1-0.6,1.9
		c0.1,0.7,0.4,0.2,0.5,1.1c0,0.1-0.7,0.8-0.7,1.5c0,0.4,1.1,0.3,0.7,0.9c-0.3,0.3-0.9,0.5-1.2,1.3c-0.1,0.2,0.3,0.8,0.3,1.3
		c-0.4,0.6-0.8,0.9-0.9,1.1c-0.2,0.6,0.2,1,0,1.4c0,0.2-0.1,0.4-0.1,0.6v0.1c-0.1,0.3-0.3,0.5-0.7,1.1c0.1-1.3,0.2-2.1,0.1-4.2
		c0-0.2,1.1-1.9,1.1-2s-1,0.9-0.9,0.8c0.3-1,0.1-1,0.1-1.2c0.3-0.1,1.5-2,1.5-2.1c-0.7,0.2-1.4,1.1-1.4,1.1c0-0.4,0.2-1.4,0.3-1.8
		c0.2,0,0.9-0.7,1.2-1.5c-0.8,0.4-1.1,1.1-1.1,1.1c0.1-1.9,1.2-4,1.7-5.3C37.8,60.2,37.9,60.5,37.8,60.8L37.8,60.8z M34.5,84.6
		c0.9,1.2,1,0.2,1.4,0.6c0.1,0.1,0.5,0.9,0.4,1.6c0.2,0.7,0.8,0.1,1.1,0.7s-0.4,1.6,0.1,2.1c0.5,0.3,0.8,0.5,0.8,0.6
		c0.1,0.6-0.1,0.8,0.1,1.2c0.4,0.6,0.6,0.1,1.1,0.8c0.2,0.5,0.2,1.6,0.4,2.3c-0.2,0.1-0.4,0.2-0.6,0.3c-0.6-0.7-1.5-1.7-1.6-1.9
		c0,0,0.3-2.1,0.2-2.2c0,0-0.5,0.9-0.5,2c-0.1-0.1-0.5-0.4-1-1.3c-0.1-0.1,0.4-2.6,0.5-3.4c0,0-0.4,0.8-0.7,1.6
		C36,90.3,36,91.1,36,91c-0.6-1-1.1-1.7-1.3-1.8c0.1-0.3,0.6-2.6,0.6-3.2c-0.5,0.5-0.8,2.7-0.8,2.7c-0.6-1-1-1.7-1.4-2.3
		c0-0.1,0.1-0.1,0.1-0.2C33.7,85.8,34.1,85.2,34.5,84.6L34.5,84.6z M51.1,100.7c0.7-0.1,1.1-0.3,0.4-0.9c-0.5-0.4,0.8-0.6,1.6-0.6
		c1.1-0.1-0.6-1.2,0.6-1.3c0.1,0,1.1,0.5,1.8,0.4c0.5-0.1-0.2-1.6,1.3-0.8c0.2,0.1,0.5,0.8,1,0.7c0.4-0.7,0.3-0.4,0.5-0.4
		c0.7,0.1,1,1,1.4,1.2c0.9-0.1,0,0,0.8-0.1c0.7,0.2,1.7,2.4,2.3,2.6c0.1,0.3,0.4,0.1-0.3,0.1c-0.7-0.7-2.6-1.3-2.9-1.3
		c-0.1,0-1.2-1.7-1.2-1.7c-0.1,0,0.7,1.5,0.6,1.5c-1.2-0.1-1.3-0.2-1.6-0.1c-0.1-0.3-1.3-1.6-1.3-1.6c0.4,0.8,1.1,1.5,1,1.6
		c-0.3,0.2-1.2,0.1-1.6,0.1c-0.1-0.2-1-0.7-1.5-1.1c0.5,0.8,1,1.3,0.9,1.3c-1.6,0.1-3.2,0.9-4.4,1.2
		C50.4,100.9,50.9,100.7,51.1,100.7L51.1,100.7z M36.9,104.1c0.7-0.4,0.9,0,0.9-1.4c0-0.6,1.1-0.3,1.8-0.7c0.9-0.6-0.4-0.8,0.6-1.5
		c0.1-0.1,1.5-0.3,2.2-0.4c0.5-0.1-0.6-1.5,1-1.4c0.2,0,1.1,0.3,1.5,0.1c0.1-0.8,0.3-0.7,0.6-0.7c0.6-0.2,1.1,0.4,1.5,0.3
		c0.7-0.4,0.1-0.3,0.8-0.7c0.6-0.1,1.4,0.3,2.1,0.3c-0.3,0.3-0.5,0.6-0.8,1c-0.8,0.3-1.7,0.6-1.9,0.6c-0.1,0-2.1-0.4-2.2-0.3
		c-0.1,0,1.7,0.5,1.6,0.6c-1.1,0.4-1.4,0.7-1.6,0.7c-0.2-0.2-2.5-0.5-2.6-0.4c0.7,0.5,2.3,0.4,2.2,0.6c-0.2,0.3-1.4,0.9-1.8,1.1
		c-0.1-0.1-2.1-0.2-2.7-0.5c0.7,0.5,2.3,0.7,2.2,0.8c-1.4,0.8-4.6,2.3-5.9,2.5C36.3,104.5,36.7,104.2,36.9,104.1L36.9,104.1z
		 M24.4,90.1c0.3-0.1,0.6,0.1,1,0.2c0.7-0.1,0.3-0.7,0.8-0.9c0.6-0.3,1.3,0.7,2,1c1,0.3,0.6-0.6,1.5-0.4c0.1,0,0.6,0.3,1.2,0.8
		c0.3,0.2,0.7-0.8,1.4-0.5c0.3,0.2,0.3,0.1,0.5,0.4c0.1,0.2,0.5,0.8,1,1c0.6-0.5,0.9-0.3,1-0.2c0.6,0.4,0.6,1.6,1,1.8
		c0.8,0.3,0.7-0.1,1.5,0.2c0.5,0.4,0.7,1.5,1.2,1.9c-0.6,0.4-1.2,0.9-1.9,1.2c-0.1-0.1-0.2-0.1-0.3-0.2c-0.2-0.1-0.4-0.2-0.5-0.3
		c0,0,0.3-2.2,0.2-2.3c0,0-0.5,0.9-0.4,2.1c-0.2,0-1.2-0.9-2.1-1.4c-0.1,0-0.1-2.6-0.1-2.6c-0.1,0,0,2.4-0.1,2.3
		c-1-0.5-1.2-0.6-1.4-0.6c0-0.3-1.1-2.8-1.2-2.8c-0.2,0.7,0.9,2.7,0.9,2.7c-0.4-0.1-1.9-0.9-2.2-1.1c0-0.2-1-1.2-1.2-1.8
		c0.1,0.9,0.9,1.6,0.8,1.6c-1.3-1-4-1.3-5.1-1.8C23.6,90.1,24.2,90.1,24.4,90.1L24.4,90.1z M25.8,65c0.3,0.1,0.4,0.3,0.8,0.6
		c0.6,0.3,0.9-0.6,1.4-0.5c0.6,0.1,0.5,1.1,1.1,1.7c0.5,0.4,0.7-0.8,1.3-0.2c0.1,0.1,0,1.3,0.4,1.8c0.2,0.3,1.1-0.5,1.4,0.2
		c0.2,0.3,0.3,0.8,0.3,1.3c0,0.2-0.1,0.7,0.2,1.1c0.8,0,0.9,0.4,1,0.6c0.3,0.6-0.3,1.4-0.1,1.8c0.5,0.7,0.4,0,0.9,0.6
		c0.2,0.7-0.3,1.4,0.1,2.1c-0.7,0.7-1.2,1.7-1.5,1.9c0,0-0.5-1.4-0.6-1.7c0,0,0.7-2.5,0.7-2.6c0,0-0.3,0.3-0.9,2
		c-0.1-0.1-0.5-1.1-1-2c0-0.1,0.9-3.4,0.9-3.4c0-0.1-1.1,3.1-1.1,3c-0.6-1-1.2-1.9-1.4-2.1c0.1-0.3,0.7-2.7,0.6-2.8
		c-0.5,0.5-0.7,2.5-0.8,2.4c-0.2-0.3-1.1-1.4-1.4-1.7c0.1-0.2,0.1-1.4,0.2-2c-0.6,0.7-0.4,1.7-0.4,1.6c-0.7-1.1-2.2-2.5-2.9-3.5
		C25.1,64.8,25.6,64.8,25.8,65L25.8,65z M24.6,75.2c0.3,0.1,0.5,0.5,0.9,0.7c0.4,0.1,0.5-0.7,1-0.7c0.6,0,0.3,1,0.8,1.4
		c0.4,0.4,0.7-0.6,1.4-0.1c0.4,0.3,0.2,1,0.5,1.4c0.6,0.6,0.8-0.1,1.4,0.5c0.3,0.6-0.1,1.2,0.7,1.8c-0.6,0.8-1.5,2.1-1.8,2.4
		c0,0-0.1-0.3-0.2-0.6c0,0,0.7-2.5,0.6-2.6c0,0-0.5,0.7-0.8,2.4c-0.3-0.2-0.5-0.9-0.9-1.2c0.1-0.3,0.3-2.6,0.3-2.6
		c-0.5,0.6-0.4,2.3-0.5,2.3c-0.3-0.2-0.8-1.2-1.1-1.5c0.1-0.2-0.1-1.4-0.1-2c-0.5,0.8-0.2,1.7-0.2,1.6c-0.9-1-1.7-2.4-2.5-3.3
		C24.3,75,24.5,75.1,24.6,75.2L24.6,75.2z M23.5,46c0.5,0.2,0.4,0.5,1,0.9c0.5,0.1,0.4-0.7,1.1-0.8c0.8-0.1,1,1.1,1.3,1.7
		c0.7,0.6,0.5-1.3,1.5-0.7c0.6,0.3,0.5,1.2,1.1,1.8c0.7,0.3,0.6-0.9,1.5-0.2c0.6,0.9,0.3,0.8,0.7,1.9c0.5,0.6,0.7-0.4,1.1,0.3
		c0.1,0.4,0.3,0.9,0.4,1.2c-0.1,0.2-0.3,0.4-0.4,0.6c-0.5,0.6-1,1.4-1.6,2.2c0,0-0.1-0.1-0.2-0.3c0,0,0.7-3,0.6-3
		c0,0-0.6,0.3-0.9,2.8c-0.5-0.3-1-1.1-1.5-1.5c0.1-0.4,0.6-3.2,0.5-3.2c-0.6,0.8-0.8,2.9-0.9,2.9c-0.4-0.3-1.1-1.1-1.5-1.4
		c0.1-0.3,0.4-1.9,0.4-2.8c-0.6,1.1-0.6,2.4-0.7,2.3c-1.3-1.2-2.8-3.4-4-4.5C22.9,45.8,23.2,45.9,23.5,46L23.5,46z M33.5,38.5
		c0.4,0.3,0.5,0.5,0.9,1c0.5,0.4,1-0.3,1.2,0c0.3,0.3,0.2,0.6,0.3,1.4c0.4,0.4,1.1,0.3,1.2,0.7c0.2,0.9-0.6,1.2-0.3,2
		c0.5,0.6,0.7,0.4,0.9,0.8c0.2,1.1-0.4,0.9-0.5,2c0.1,0.5,0.5,0.3,0.6,1c-0.3,1.1-0.7,1.9-1.1,2.8c-0.2-0.5-0.7-2.1-0.7-2.8
		c0-0.1,1.4-2.5,1.3-2.6c0,0-1.2,0.6-1.4,2.1c-0.3-0.4-0.1-1.2-0.4-1.8c0.3-0.2,1.1-2.2,1-2.2c-0.8,0.6-1.1,1.8-1.2,1.7
		c-0.3-0.4-0.2-1.2-0.5-1.6c0.2-0.2,0.7-0.9,0.7-1.8c-1,0.8-0.9,1.2-1,1.2c-0.6-1.6-0.8-2.1-1.5-3.6C33,38.3,33.2,38.5,33.5,38.5
		L33.5,38.5z M28.3,32.2c0.4,0.3,0.2,0.8,0.6,1.3c0.4,0.2,0.7-0.4,1,0c0.2,0.3,0.1,0.4,0.4,1.1c0.4,0.2,1,0,1.2,0.5
		c0.3,0.9-0.3,0.9,0,1.6c0.5,0.4,1.1,0.4,1.2,1c0,0.2,0,0.4,0,0.6c-0.3,0.7,0,1.5,0.2,1.9c-0.1,0.7-1.1-0.2-1.1,0.6
		c-0.1,0.8,0.4,0.7,0.5,1.4c0,0.4-0.5,0.2-0.6,0.8c0,0.9,1.6,1.7,0.3,2.3c-0.4-0.3-0.7-3-1.1-3.4c0,0,1.1-2.9,1.1-3
		c0,0-1.1,0.9-1.3,2.4c-0.3-0.4-0.5-1.4-0.8-2c0.3-0.2,1.3-2.3,1.2-2.3c-0.8,0.6-1.3,2.1-1.4,2c-0.3-0.4-0.4-1.5-0.7-1.9
		c0.2-0.2,1-1.1,1-2c-1,0.8-1.1,1.4-1.1,1.4c-0.6-1.6-0.6-2.4-1.2-3.9C27.6,31.9,28,32.2,28.3,32.2L28.3,32.2z M37.7,27.6
		c0,0.5-0.3,0.7-0.4,1.4c0.1,0.4,1,0.4,0.9,0.8s-0.7,0.4-1.1,1.1c0.1,0.4,0.8,0.5,0.4,0.8c-0.5,0.5-0.9,0.6-1.3,1.3
		c0,0.6,0.6,0.7,0.3,1.2c-0.4,0.6-1.8,1.1-2,1.5c0,0.1,0,0.3,0.1,0.5c0,0.4-1,1.2-1.1,2c-0.2-0.1-0.3,0-0.8-0.2c0-0.5,0-1.1,0.1-1.6
		c0-0.1,1.3-0.6,1.3-0.7c0-0.1-1.2,0.4-1.2,0.3c0.1-0.5,0.2-1.1,0.4-1.6c0-0.1,2.2-0.8,2.2-0.9c-0.9-0.2-2.1,0.5-2.1,0.5
		c0.1-0.5,0.3-1,0.5-1.5c0.3,0,2.2-0.8,2.9-1.3c-1.8,0-2.6,0.8-2.6,0.7c0.8-1.5,2-2.9,2.8-4.4C37.3,27.2,37.6,27.4,37.7,27.6
		L37.7,27.6z"/>
	<path class="st8" d="M33.4,63L33.4,63c-0.5-0.5-0.5-0.7-0.4-1.2c2-1.9,4.9-5.4,4.9-7.4c0.3-3.4-3.1-7.2-6.3-8.1
		c-0.6-0.3-0.5-0.7-0.4-1C31,45.1,30.9,45,30.8,45c-0.9,1.3,1.5,2.9,3,6.4c-0.6,1.1-4,5-5.2,7.7c-1.2,2.8,0.5,3.8,0.8,4.7
		c0.4,1.1,1.9,3.9,2.6,3.4V68h0.1c-0.1-0.3-0.1-0.7,0-0.9c0.1-0.2,0.6,0,0.7-0.3c0.1-0.4-0.4-1.4-0.4-1.8s0.6-0.3,0.7-0.4
		C33.6,64.4,33.3,63.6,33.4,63L33.4,63z"/>
	<path class="st7" d="M29.7,63.5c-0.8-0.9-1.4-2.5-1.1-3.2c1.4-4.9,6.9-8.2,6-12.1c1.3,1.2,2.3,2.9,2.9,4.7c0.6,2.7-1.5,5-3.5,7.3
		c-1.6,1.9-3.4,3.8-2.2,6.6C30.3,65.2,30.6,65.2,29.7,63.5L29.7,63.5z"/>
	<path class="st9" d="M37.3,52.2c0.6,2.7-1.6,5.4-3.6,7.7c-1.6,1.9-3.2,3.8-2.3,6.4c-0.2-0.3-0.2-0.2-0.5-0.5
		c-0.4-2.6,0.9-4.2,2.4-5.9c1.6-1.8,4.3-4.5,3.8-8C37.2,52.1,37.2,52,37.3,52.2L37.3,52.2z"/>
	<path class="st9" d="M36.9,51.4c0.6,2.7-1.4,5.6-3.5,7.8c-1.7,1.8-3.2,3.9-2.8,6.2c-0.2-0.3-0.2-0.3-0.3-0.6
		c-0.2-1.9,1.4-4,2.9-5.7c1.6-1.8,4.1-4.6,3.5-8.1C36.8,51.3,36.8,51.2,36.9,51.4L36.9,51.4z"/>
	<path class="st9" d="M28.6,61.3c0.5-2.3,1.8-4.2,3.2-6c1.8-2.4,3.6-4.6,3-6.8c0.2,0.2,0.1,0.1,0.3,0.3c0.3,2.3-1.5,4.4-3.2,6.7
		c-1.4,1.9-2.8,3.8-3.2,6.5C28.7,61.8,28.6,61.4,28.6,61.3L28.6,61.3z"/>
	<path class="st9" d="M28.9,62.1c0.5-2.5,1.9-4.7,3.4-6.7c1.7-2.3,3.4-4.4,3-6.5c0.2,0.2,0.1,0.2,0.3,0.3c0.1,2.3-1.5,4.2-3.2,6.5
		c-1.4,2-2.8,4.1-3.3,6.9C29,62.5,28.9,62.3,28.9,62.1L28.9,62.1z"/>
	<path class="st8" d="M28.6,86.5c-0.1-1.2,1.5-5.3,4.1-8.5c2.2-2.8,3.7-5.1,3.6-5.6c0.4,0,0.1,0.8,0.4,2.1c0.5,1.8,1.2,3.6,1.2,4.1
		c0.1,0.7-0.2,2.1-0.9,3.2c-1,1.6-2.2,3.2-3.4,4.8c-1.2,1.7-2,3.1-2.2,3.6c-0.3-0.2-0.5-1-0.9-1.5C29.6,87.8,28.6,87,28.6,86.5
		L28.6,86.5z"/>
	<path class="st7" d="M28.9,86.5c-0.1-1,1.7-5.3,4-8.3c2-2.6,3.4-4,3.2-4.5c0.3,0,0,0.2,0.2,1.3c0.4,1.7,1.1,3.3,1.1,3.7
		c0.1,0.7-0.5,1.9-1.1,3c-0.9,1.4-2.1,3.1-3.1,4.5c-1.1,1.5-1.7,2.8-1.9,3.3c-0.2-0.2-0.4-0.8-0.8-1.3C29.8,87.4,28.9,87,28.9,86.5
		L28.9,86.5z"/>
	<path class="st9" d="M37.3,78c0.1,0.1,0,0.1,0.1,0.2c0.1,0.7-0.5,2.1-1.1,3.1c-0.9,1.4-2.1,3.1-3.1,4.5c-1.1,1.5-1.8,2.9-2,3.4
		l-0.1-0.3c0.5-1.1,1.1-2,1.7-2.9c0.9-1.5,2.3-3.1,3.2-4.7C36.7,80.2,37.1,79.2,37.3,78L37.3,78z"/>
	<path class="st9" d="M37.2,77.4c0.1,0.1,0,0.1,0.1,0.3c0.1,0.7-0.5,2.1-1.1,3.1c-0.9,1.4-2.1,3.1-3.1,4.6c-1.1,1.5-1.8,2.9-2,3.4
		l-0.2-0.3c0.5-1.1,1.2-2,1.8-3c0.9-1.5,2.3-3.2,3.2-4.7C36.5,79.7,36.9,78.7,37.2,77.4L37.2,77.4z"/>
	<path class="st9" d="M29,86.8c-0.1-1.3,1.7-5.4,4.1-8.4c2.1-2.6,3.3-3.9,3.2-4.4c0.1,0.3,0,0.3,0.1,0.6c-1.1,1.8-3.3,4-4.4,5.8
		c-1.4,2.3-2.5,4.4-2.7,6.5C29.1,86.9,29.2,87,29,86.8L29,86.8z"/>
	<path class="st9" d="M29.4,87.2c-0.1-1.2,1.7-5.3,3.9-8.1c2-2.5,3.2-3.8,3.1-4.3c0.1,0.3,0,0.3,0.1,0.6c-1.1,1.8-3.2,3.8-4.2,5.5
		c-1.3,2.2-2.5,4.2-2.7,6.4C29.5,87.3,29.6,87.3,29.4,87.2L29.4,87.2z"/>
	<path class="st8" d="M31.5,97.8c5.5-0.8,7.1-3.9,10.8-4c1.2-0.1,3,0.7,4.4,1.9c1.5,0.8,2.3,1.3,2.3,1.8l0,0v0.1l0,0
		c-0.5-0.1-1-0.3-1.4-0.2c-0.7,0.4-0.1,0.3-0.9,0.7c-0.4,0.1-0.9-0.5-1.6-0.3c-0.2,0.1-0.5,0-0.6,0.8c-0.4,0.2-1.3,0-1.6-0.1
		c-0.7,0-0.9,0.2-0.9,0.4l0,0l0,0l0,0c-1,0.6-2,1.1-2.9,1.6c-1.3,0.7-2.4,1.4-3,1.2c-1.1-0.2-1.5-1-2.5-1.8
		c-0.5-0.4-1.2-0.6-1.6-0.9C31.6,98.5,31.5,98,31.5,97.8L31.5,97.8z"/>
	<path class="st7" d="M32,98.1c0.7,0.1,2.2-0.7,4.1-1.4c2.9-1.1,3.9-2.6,6.7-2.5c0.7,0,1.5,0.1,2.5,0.7c0.9,0.5,1.7,1.4,2.7,1.7
		c-0.5,0-4.3,0.9-6.8,2.4c-2,1.2-3.9,2.5-4.8,2.4c-1.4,0-1.7-1.4-2.6-1.8C32.1,99,32,98.3,32,98.1L32,98.1z"/>
	<path class="st9" d="M32.1,98.4c0.7,0.1,2.4-0.8,4.3-1.5c3.1-1.2,4-2.9,8-2.4l0.3,0.1c-1.2,0-2.5-0.1-3.5,0.2
		c-1.6,0.6-3,1.6-4.6,2.2c-1.4,0.5-2.9,1.4-4.3,1.6C32.1,98.5,32.2,98.6,32.1,98.4L32.1,98.4z"/>
	<path class="st9" d="M32.4,98.8c0.7,0.1,2.4-0.8,4.3-1.5c3.1-1.2,3.5-2.7,8.3-2.5l0.3,0.2c-1.2,0-3.2,0-4.2,0.4
		c-1.6,0.6-2.7,1.5-4.3,2.1c-1.4,0.5-2.9,1.4-4.2,1.6C32.4,98.8,32.5,99,32.4,98.8L32.4,98.8z"/>
	<path class="st9" d="M47.4,96.4c-0.5,0-4.3,0.9-6.8,2.4c-2,1.2-4.1,2.5-5,2.4c-0.1-0.1-0.1-0.1-0.2-0.1c2.2-0.3,4.6-2.4,7-3.4
		c1.4-0.5,3.2-1.1,4.6-1.4C47.3,96.3,47.2,96.4,47.4,96.4L47.4,96.4z"/>
	<path class="st9" d="M47,96.1c-0.5,0-4.3,0.9-6.8,2.4c-2,1.2-4.1,2.5-5,2.4c-0.1-0.1-0.1,0-0.1-0.1c2.2-0.3,4.5-2.4,7-3.4
		c1.4-0.5,3.2-1.1,4.6-1.4C46.9,96,46.8,96,47,96.1L47,96.1z"/>
	<path class="st7" d="M55.3,94.9c0.7,0,1.6,0.6,2.7,1.1c0.3,0.1,0.6,0.2,0.9,0.3l-1.6,1.2c-0.3-0.1-0.5-0.5-0.7-0.6
		c-1.4-0.7-1.1,0.9-1.6,1c-0.6,0.1-1.6-0.4-1.7-0.4c-1.5,0.4,0.2,1.3-0.8,1.4c-0.8-0.2-2.1,0.5-1.6,0.9c0.6,0.5,0.3,0.5-0.3,0.6
		s-0.8,0.8-0.7,1.1c0.2,0.4,0.4,0.7,1.6,0.4c0.3,0,0.5-0.2,0.7,0c0.1,0.3-0.9,1.2,0.7,0.9c-2,2.4-3.3,1.9-5.2,1.6
		c-1.3-0.2-1.3,0-2.1-0.3c1.6-1.5,2-2.3,3.3-4.3C50.8,96.9,53.4,94.7,55.3,94.9L55.3,94.9z"/>
	<path class="st9" d="M55.7,94.9c0.1,0.1,0.3,0.1,0.4,0.2c-1.1,0-2.6,0.5-3.6,1.4c-0.6,0.6-1.3,1.2-1.9,2c-0.5,0.6-1,1.3-1.3,1.8
		c-0.9,1.3-1.7,2.8-3,3.9c-0.1,0-0.2,0-0.3,0c1.6-1.5,2.1-2.4,3.3-4.3C51.1,96.9,53.8,94.7,55.7,94.9L55.7,94.9z"/>
	<path class="st9" d="M56.4,95.2c0.1,0.1,0.3,0.1,0.4,0.2c-1.1,0-2.7,0.5-3.6,1.2c-0.6,0.5-1.3,1.2-2,1.9c-0.5,0.6-1,1.3-1.3,1.8
		c-0.9,1.3-1.7,2.8-3,3.9c-0.1,0-0.2,0-0.3,0c1.6-1.5,2.1-2.4,3.3-4.3C52.1,96.6,54.5,95,56.4,95.2L56.4,95.2z"/>
	<path class="st9" d="M52.4,102.9c-0.3,0.4-0.5,0.7-0.7,0.9c-0.2,0.2-0.3,0.4-0.6,0.6c-0.1,0.1-0.2,0.1-0.3,0.1
		c0.5-0.5,1-1.1,1.4-1.7C52.2,102.9,52.3,102.9,52.4,102.9L52.4,102.9z"/>
	<path class="st9" d="M58.7,96.2c-0.6,0.4-1.1,0.7-1.5,1.1l-0.1-0.1c0.4-0.4,0.9-0.7,1.4-1.1C58.6,96.1,58.6,96.2,58.7,96.2
		L58.7,96.2z"/>
	<path class="st9" d="M58.2,96c-0.6,0.4-0.9,0.5-1.3,1l-0.1-0.1C57.2,96.5,57.5,96.3,58.2,96C58.1,96,58.1,96,58.2,96L58.2,96z"/>
	<path class="st9" d="M52,102.6c-0.2,0.3-0.4,0.6-0.6,0.8c-0.3,0.4-0.7,0.8-1.1,1.1c-0.1,0-0.1,0-0.3,0c0.4-0.4,0.9-0.9,1.3-1.4
		c0.4-0.5,0.7-0.9,1-1.4C52.1,102.2,52,102.4,52,102.6L52,102.6z"/>
	<path class="st7" d="M35.6,35.9c0.5,0,2-1.1,2.4-1.4c0,0.6,0.7,1.2,1.2,1.9c0.5,0.8,0.8,1.6,0,2.1c-0.8,0.6-1.6,0.3-2.1-0.4
		c-0.3-0.5-0.4-1.2-0.6-1.6C36.3,36.1,35.6,36,35.6,35.9L35.6,35.9z"/>
	<path class="st9" d="M36,35.8l0.2-0.1c0.4,0.2,0.4,0.3,0.7,0.6c0.3,0.4,0.5,1.4,0.8,1.8c0.4,0.4,0.9,0.5,1.4,0.5
		c-0.2,0.1-0.1,0-0.2,0.1c-0.6,0-1.2-0.4-1.4-0.7c-0.3-0.5-0.4-1.1-0.7-1.5C36.6,36,36,35.8,36,35.8L36,35.8z"/>
	<path class="st9" d="M36.4,35.6l0.2-0.1c0.4,0.2,0.4,0.3,0.7,0.6c0.3,0.4,0.5,1.4,0.8,1.7c0.4,0.4,0.9,0.5,1.4,0.5
		c-0.1,0.1-0.1,0.1-0.2,0.2c-0.6,0-1.3-0.3-1.5-0.6c-0.3-0.5-0.4-1.1-0.7-1.5C36.9,35.8,36.4,35.7,36.4,35.6L36.4,35.6z"/>
	<path class="st7" d="M41.3,30c0.7-0.2,1.8-0.1,2.8,0.9c1.3,1.1,2.3,3.6,3.4,5.1c1.2,1.7,2.4,2.3,2.7,2.3c-0.1,0.5-0.6,0.4-1.2,0.9
		c-0.7,0.4-1.3,1-1.6,1.3c-0.6,0.5-2,0-2.8-1.1c-1-1.2-2.7-4.7-3.8-5.9c-1.4-1.5-2.2-0.7-2.5-0.7C38.9,32.2,40.7,30.5,41.3,30
		L41.3,30z"/>
	<path class="st9" d="M38.8,32.3l0.2-0.2c0.2,0,1.2-0.5,2.6,1.4c0.6,0.8,1,1.5,1.5,2.3c0.4,0.6,0.9,1.4,1.5,2.3c1.3,1.9,2,2,3,2.1
		c-0.1,0.1-0.1,0.1-0.2,0.2c-0.7,0-1.7-0.3-2.6-1.6c-0.7-1-1.4-2-1.9-3c-0.8-1.2-1.4-2.1-1.6-2.4C39.9,31.8,38.8,32.4,38.8,32.3
		L38.8,32.3z"/>
	<path class="st9" d="M39.1,32l0.2-0.2c0.2,0,1.2-0.5,2.6,1.4c0.6,0.8,1,1.5,1.5,2.3c0.4,0.6,0.9,1.4,1.5,2.3c1.3,1.9,2,2,3,2.1
		c-0.1,0.1-0.1,0.1-0.2,0.2c-0.7,0-1.7-0.3-2.6-1.6c-0.7-1-1.4-2-1.9-3c-0.8-1.2-1.4-2.1-1.6-2.4C40.2,31.5,39.1,32.1,39.1,32
		L39.1,32z"/>
	<path class="st9" d="M40.9,30.3l0.2-0.1c1.3-0.2,2.6,0.6,3.3,1.7c0.4,0.6,1.8,3,2.4,3.9c1.3,1.9,2.1,2.5,3.2,2.8
		c-0.1,0.1-0.1,0.1-0.2,0.2c-0.8-0.3-1.6-0.7-2.6-2.1c-0.7-1-2.4-3.7-3-4.6C43.3,30.6,41.8,30.3,40.9,30.3L40.9,30.3z"/>
	<path class="st9" d="M40.7,30.6l0.2-0.1c1.3-0.2,2.6,0.6,3.3,1.7c0.4,0.6,1.8,3,2.4,3.9c1.3,1.9,2.1,2.4,3.1,2.7
		c-0.1,0.1-0.2,0.1-0.3,0.1c-0.8-0.3-1.5-0.7-2.5-2c-0.7-1-2.4-3.7-3-4.6C43,30.8,41.6,30.5,40.7,30.6L40.7,30.6z"/>
	<path class="st8" d="M58.7,66.5c0.2,0,0.3,0.1,0.3,0.3c0,0.2-0.1,0.3-0.3,0.3s-0.3-0.1-0.3-0.3C58.5,66.6,58.6,66.5,58.7,66.5
		L58.7,66.5z"/>
	<path class="st2" d="M52.5,37C52.5,37,52.5,36.9,52.5,37C52.5,36.9,52.5,36.9,52.5,37c0.5-0.5,1.6-0.9,2.1-1.4
		c0.7-0.7,0.8-1.5,1.4-2.2c0.7,0.7,1.5,1.5,2.2,2.2c-0.6,0.6-1.6,0.8-2.2,1.4c-0.6,0.6-0.8,1.5-1.4,2.1l0,0l0,0
		c-0.6,0.6-1.6,0.6-2.2,0C51.8,38.6,51.8,37.6,52.5,37L52.5,37z"/>
	<path class="st4" d="M52.9,37.2C52.9,37.2,52.9,37.1,52.9,37.2C52.9,37.1,52.9,37.1,52.9,37.2c0.5-0.5,1.4-0.8,1.8-1.3
		c0.6-0.6,0.7-1.3,1.3-1.9c0.5,0.5,1,1,1.6,1.6c-0.5,0.5-1.3,0.8-1.9,1.3c-0.5,0.5-0.8,1.3-1.3,1.8l0,0l0,0
		c-0.5,0.5-1.3,0.6-1.8,0.2C52.3,38.5,52.4,37.7,52.9,37.2L52.9,37.2z"/>
</g>
</svg>
