<?xml version="1.0" encoding="utf-8"?>
<!-- Generator: Adobe Illustrator 22.0.1, SVG Export Plug-In . SVG Version: 6.00 Build 0)  -->
<svg version="1.1" id="Слой_1" xmlns="http://www.w3.org/2000/svg" xmlns:xlink="http://www.w3.org/1999/xlink" x="0px" y="0px"
	 viewBox="0 0 127.3 127" style="enable-background:new 0 0 127.3 127;" xml:space="preserve">
<style type="text/css">
	.st0{fill:url(#SVGID_1_);}
	.st1{fill:#FFFFFF;}
	.st2{fill-rule:evenodd;clip-rule:evenodd;fill:#9000CC;}
	.st3{fill-rule:evenodd;clip-rule:evenodd;fill:#FF0000;}
	.st4{clip-path:url(#SVGID_3_);fill-rule:evenodd;clip-rule:evenodd;fill:#9000CC;}
	.st5{clip-path:url(#SVGID_3_);}
	.st6{fill:#D61A0C;}
	.st7{clip-path:url(#SVGID_5_);fill:#FFF500;}
	.st8{clip-path:url(#SVGID_5_);}
	.st9{fill:#FFF500;}
	.st10{fill:#FECC00;}
	.st11{fill:#C1C1C1;}
	.st12{fill:#E08600;}
	.st13{fill-rule:evenodd;clip-rule:evenodd;fill:#C1C1C1;}
</style>
<radialGradient id="SVGID_1_" cx="64.8" cy="2586.7468" r="62.6" gradientTransform="matrix(1 0 0 1 0 -2522.3469)" gradientUnits="userSpaceOnUse">
	<stop  offset="0.9487" style="stop-color:#212121"/>
	<stop  offset="1" style="stop-color:#606060;stop-opacity:0"/>
</radialGradient>
<circle class="st0" cx="64.8" cy="64.4" r="62.6"/>
<circle class="st1" cx="62.6" cy="62.6" r="62.6"/>
<g>
	<path class="st2" d="M40.6,67.4V72h2.7v-0.9h-1.8v-3.7H40.6z M40.6,67.4"/>
	<path class="st2" d="M44.3,67.4V72H47v-0.9h-1.8v-0.9H47v-0.9h-1.8v-0.9H47v-0.9H44.3z M44.3,67.4"/>
	<path class="st2" d="M50.2,68.3v0.9h0.9c0.3,0,0.5,0.2,0.5,0.5s-0.2,0.5-0.5,0.5h-0.9v0.9h0.9c0.8,0,1.4-0.6,1.4-1.4
		c0-0.8-0.6-1.4-1.4-1.4H50.2z M51.1,66.5c-1.8,0-3.2,1.4-3.2,3.2c0,1.8,1.4,3.2,3.2,3.2c1.8,0,3.2-1.4,3.2-3.2
		C54.4,67.9,52.9,66.5,51.1,66.5L51.1,66.5z M51.1,67.4c1.3,0,2.3,1,2.3,2.3c0,1.3-1,2.3-2.3,2.3c-1.3,0-2.3-1-2.3-2.3
		C48.9,68.4,49.9,67.4,51.1,67.4L51.1,67.4z M51.1,67.4"/>
	<path class="st3" d="M55.3,67.4V72h0.9v-2.9L58,72h0.9v-4.6H58v2.9l-1.8-2.9H55.3z M55.3,67.4"/>
	<rect x="59.8" y="67.4" class="st2" width="0.9" height="4.6"/>
	<path class="st2" d="M61.7,67.4V72H64c0.8,0,1.4-0.6,1.4-1.4v-1.8c0-0.8-0.6-1.4-1.4-1.4H61.7z M62.6,68.3H64
		c0.3,0,0.5,0.2,0.5,0.5v1.8c0,0.3-0.2,0.5-0.5,0.5h-1.4V68.3z M62.6,68.3"/>
	<path class="st2" d="M70.8,67.4l-0.9,0.9h1.4c0.3,0,0.5,0.2,0.5,0.5c0,0.3-0.2,0.5-0.5,0.5c-0.8,0-1.4,0.6-1.4,1.4V72h2.8v-0.9
		h-1.8v-0.5c0-0.3,0.2-0.5,0.5-0.5c0.8,0,1.4-0.6,1.4-1.4s-0.6-1.4-1.4-1.4H70.8z M70.8,67.4"/>
	<path class="st2" d="M76.8,66.5c-1.8,0-3.2,1.4-3.2,3.2c0,1.8,1.4,3.2,3.2,3.2c1.8,0,3.2-1.4,3.2-3.2C80,67.9,78.6,66.5,76.8,66.5
		L76.8,66.5z M76.8,67.4c1.3,0,2.3,1,2.3,2.3c0,1.3-1,2.3-2.3,2.3c-1.3,0-2.3-1-2.3-2.3C74.5,68.4,75.5,67.4,76.8,67.4L76.8,67.4z
		 M76.8,67.4"/>
	<path class="st2" d="M80.9,68.3V72h0.9v-4.6L80.9,68.3z M80.9,68.3"/>
	<g>
		<defs>
			<rect id="SVGID_2_" x="25.8" y="13.9" width="74.7" height="96.4"/>
		</defs>
		<clipPath id="SVGID_3_">
			<use xlink:href="#SVGID_2_"  style="overflow:visible;"/>
		</clipPath>
		<path class="st4" d="M82.8,67.4v2.7h1.4c0.3,0,0.5,0.2,0.5,0.5c0,0.3-0.2,0.5-0.5,0.5h-1.4l0.9,0.9h0.5c0.8,0,1.4-0.6,1.4-1.4
			c0-0.8-0.6-1.4-1.4-1.4h-0.5v-0.9h1.8v-0.9H82.8z M82.8,67.4"/>
		<path class="st5" d="M44.4,39.5c-1-0.4-2.1-1.3-3.3-2.4c-0.6,0.4-1.3,1-1.9,1.6c-1,0.9-2.1,1.8-2.7,2c-0.3,0.1-0.6,0.1-0.8,0l0,0
			c-0.2-0.1-0.3-0.1-0.5-0.2c-0.2,0.8,0.8,2.1,1.8,3.5c0.4,0.5,0.8,1,1.1,1.5v10.7c-0.1,0.2-0.3,0.4-0.3,0.7c-0.1,0.4,0,0.9,0.3,1.5
			l0,0l0,0l0,0c0,0.1,0,0.2,0,0.4c0,0.1,0,0.2,0,0.3c0,0.6-0.2,1-0.4,1.4c-0.2,0.4-0.6,0.6-0.9,0.7c-0.1,0-0.3,0-0.4,0.1
			c-0.7,0.1-1.3,0-1.7-0.2c-0.3-0.1-0.5-0.3-0.7-0.5c0.2,0.8,0.5,1.8,0.9,2.9c0.7,1.8,1.3,3.7,1.7,5.5c0.4,1.9,0.6,3.8,0.5,5.8
			c0,2-0.4,3.9-0.7,5.8c-0.1,0.6-0.2,1.2-0.3,1.7c-0.3,1.9-0.7,4.5-0.6,7.1c0,2.6,0.5,5.1,1.8,6.8c0.3,0.4,0.6,0.7,1,0.9
			c0.4,0.3,0.7,0.5,1.1,0.7c0.8,0.5,1.5,0.9,2.1,1.4c0.6,0.5,1.2,1.1,1.8,1.9c0.2,0.3,0.5,0.6,0.7,0.9l-0.1-1.3
			c-0.1-0.6,0.1-1.2,0.4-1.7c0.5-0.8,1.3-1.3,2.3-1.6c1-0.3,2.2-0.3,3.5,0c1.2,0.3,2.6,0.8,4,1.7h0v0h0c0.5,0.2,0.9,0.5,1.4,0.7
			c0.4,0.2,0.9,0.4,1.3,0.6c0.8,0.3,1.6,0.6,2.3,0.7v-2.7c0.9,0,1.7,0.1,2.5,0.5c0.4,0.2,1,0.6,1.2,1c0,0.1,0.1,0.3,0.1,0.5v7.3
			c0,0.4-0.1,0.5-0.4,0.7c-0.9,0.6-2.7,0.9-4.8,0.6c-0.5-0.1-0.9-0.2-1.4-0.3c-0.5-0.2-1-0.3-1.5-0.6l0,0h0
			c-1.4-0.6-3.1-1.4-4.5-1.7c-1.1-0.3-2.1-0.3-2.7,0.1l0,0.3c0,0.2,0,0.5-0.1,0.6l0,0l0,0c-0.1,0.2-0.1,0.4-0.2,0.5
			c-0.6,1.3-1.5,2-2.5,2.3c-1.1,0.3-2.3,0.1-3.5-0.2c-0.3-0.1-0.6-0.2-0.9-0.4l0,0c-1.2-0.5-2.2-1.6-3.2-2.7
			c-0.2-0.2-0.4-0.4-0.6-0.6h0l0,0l0,0c-0.9-1-2.1-1.9-3.2-2.7c-2-1.5-4-3-5-5.4c-0.6-1.3-1-2.7-1.3-4.1c-0.3-1.4-0.4-2.9-0.4-4.4
			c-0.1-2.7,0.4-5.3,0.9-7.8c0.4-2.3,0.9-4.7,0.9-7c0-1.4-0.2-2.7-0.5-4.1c-0.3-1.3-0.8-2.6-1.3-3.9v0l0,0c-0.2-0.4-0.3-0.8-0.4-1.3
			c-0.1-0.5-0.3-1-0.3-1.6c-0.5-2.8-0.4-6.2,1.1-8c0.9-1.2,1.6-1.1,2.8-1l0.3,0h0c0.5,0,1,0.1,1.5,0.2l0.2,0
			c0.2-1.4,0.2-2.5,0.1-3.5c-0.1-1-0.5-1.8-0.9-2.5c-0.5-0.7-1-1.3-1.6-1.8c-0.8-0.9-1.7-1.8-2.3-3c-0.6-1.2-0.8-2.3-0.7-3.3
			c0-0.4,0.1-0.7,0.3-1.1l0,0v0c0.2-0.4,0.6-0.9,0.9-1.2c0.7-0.6,1.8-1.2,3-1.8c0.7-0.3,1.3-0.6,1.9-1c-0.1-0.1-0.2-0.2-0.3-0.2
			c-0.4-0.4-0.7-0.9-0.9-1.4c-0.4-1.2,0.2-1.9,0.9-2.7c0.6-0.6,2-1,3.7-1.3c1.5-0.3,3.1-0.7,4.6-1.4l0,0l0,0h0
			c1.2-0.1,2.9,1.5,4.7,3.2c1.7,1.5,3.4,3.1,4.6,3.4v4.2H44.4z M44.4,39.5"/>
	</g>
	<path class="st6" d="M39.3,34.9c2.4,2.4,4.4,4.4,6.2,4.6h4.4v-3.9c-1.3-0.2-3.1-1.9-4.8-3.4c-1.7-1.6-3.4-3.2-4.5-3.1
		c-1.5,0.7-3.1,1.1-4.6,1.4c-1.3,0.3-2.5,0.6-3.2,1c0.5-0.1,1.1,0,1.8,0.2c1.2,0.4,2.5,1.3,3.9,2.7c0.1,0.1,0.2,0.2,0.3,0.3
		L39.3,34.9z M40.9,36.9c-0.6-0.5-1.2-1.1-1.8-1.8l-0.4-0.4c-0.1-0.1-0.2-0.2-0.3-0.2c-1.4-1.3-2.7-2.2-3.8-2.6
		c-0.9-0.3-1.6-0.3-2.2,0c-0.8,0.4-1.1,1.4-0.8,2.2c0.4,1.2,1.7,2,2.8,2.4c0.1,0,0.2,0.1,0.4,0.1c0.8,0.3,1.5,0.8,1.9,1.3
		c0.4,0.6,0.6,1.2,0.4,1.9c0,0.1-0.1,0.2-0.1,0.2c0.5-0.4,1.2-1,1.9-1.6C39.6,37.9,40.3,37.3,40.9,36.9L40.9,36.9z M34.4,36.7
		c-0.6-0.2-1.2-0.5-1.6-0.8c-0.6,0.4-1.3,0.7-2,1c-0.9,0.4-1.8,0.9-2.4,1.3c0.7-0.2,1.5-0.3,2.3-0.1c0.3,0,0.6,0.1,0.9,0.2
		c0.3,0.1,0.5,0.2,0.8,0.3l0,0c0.6,0.3,1.2,0.7,1.8,1c0.5,0.3,1.1,0.8,1.7,0.9c0.5,0.1,0.8-0.2,1-0.6l0,0c0,0,0-0.1,0-0.1
		c0.2-0.6,0-1.2-0.4-1.7c-0.4-0.5-1-0.9-1.8-1.2C34.6,36.8,34.5,36.8,34.4,36.7L34.4,36.7z M36.7,55.5c0.8,0.6,0.6,1.5-0.4,2.6l0,0
		c-0.3,0.3-0.6,0.6-0.7,0.8c-0.2,0.3-0.2,0.5-0.2,0.7c0,0.4,0.1,0.7,0.3,0.9c0.1,0.2,0.3,0.3,0.5,0.3c0.2,0.1,0.4,0.1,0.6,0
		c0.3-0.1,0.5-0.3,0.7-0.6c0.2-0.3,0.3-0.7,0.3-1.2c0-0.1,0-0.2,0-0.3c0-0.1,0-0.2,0-0.3c-0.3-0.6-0.4-1.2-0.3-1.7
		c0.1-0.4,0.3-0.7,0.6-1v-9.8c-0.4-0.6-0.8-1.2-1.3-1.8c-1.1-1.5-2.2-2.8-1.9-3.8c-0.3-0.2-0.6-0.3-0.9-0.5c-0.6-0.4-1.2-0.7-1.8-1
		l0,0h0c-0.2-0.1-0.5-0.2-0.7-0.3c-0.3-0.1-0.5-0.1-0.8-0.2c-1.4-0.2-3,0-3.6,1.4v0l0,0c-0.1,0.3-0.2,0.6-0.3,1
		c-0.1,0.9,0.1,2,0.7,3.1c0.6,1.2,1.4,2,2.2,2.9c0.6,0.6,1.1,1.2,1.6,1.9c0.5,0.7,0.8,1.6,1,2.6c0.1,1,0.1,2.2-0.1,3.6
		c0.8,0.1,1.6,0.2,2.5,0.2C35.5,55.1,36.1,55,36.7,55.5L36.7,55.5z M35.6,60.9c-0.1-0.1-0.1-0.1-0.2-0.2c-0.2-0.3-0.4-0.6-0.4-1.1
		c0-0.3,0.1-0.6,0.3-0.8c0.2-0.3,0.4-0.6,0.8-0.9c0.8-0.9,1-1.6,0.4-2.1c-0.7-0.7-1.5-0.2-2,0.5c-0.3,0.4-0.6,0.9-0.7,1.5
		c-0.1,0.5-0.1,1.1,0,1.8c0.2,0.6,0.5,0.9,0.9,1.1C35,60.8,35.3,60.8,35.6,60.9L35.6,60.9z M47.8,102.4c-0.4,0.4-0.9,0.8-1.4,0.8
		c-0.2,0-0.3,0-0.5,0h0c-0.6-0.1-1.1-0.4-1.5-0.8c-0.5-0.4-0.8-0.8-1.2-1.3c-0.6-0.8-1.1-1.3-1.7-1.9c-0.6-0.5-1.3-0.9-2.1-1.4
		c-0.4-0.2-0.8-0.5-1.2-0.7c-0.4-0.3-0.7-0.6-1-1c-1.4-1.7-1.8-4.3-1.9-6.9c0-2.6,0.3-5.3,0.6-7.2c0.1-0.6,0.2-1.2,0.3-1.8
		c0.3-1.9,0.7-3.8,0.7-5.7c0-2-0.2-3.9-0.5-5.7c-0.4-1.9-0.9-3.7-1.7-5.5c-1-2.5-1.3-4.3-1.1-5.7c0.2-1.1,0.8-1.9,1.6-2.4
		c-1.1,0-2.3-0.1-3.5-0.2c-0.5-0.1-1-0.1-1.5-0.2l0,0l-0.3,0c-1.1-0.1-1.8-0.2-2.6,0.9c-1.4,1.8-1.5,5.1-1,7.8
		c0.1,0.5,0.2,1.1,0.3,1.5c0.1,0.5,0.3,0.9,0.4,1.3v0l0,0c0.5,1.3,1,2.6,1.3,3.9c0.3,1.3,0.5,2.7,0.5,4.1c0,2.4-0.5,4.7-0.9,7.1
		c-0.5,2.6-1,5.1-0.9,7.8c0,1.5,0.2,3,0.4,4.4c0.3,1.4,0.7,2.8,1.2,4c1,2.3,3,3.8,4.9,5.3c1.1,0.9,2.3,1.7,3.2,2.8l0,0l0,0l0,0
		c0.2,0.2,0.4,0.4,0.6,0.6c0.9,1,1.9,2.1,3.1,2.6l0,0c0.3,0.1,0.6,0.2,0.9,0.3c1.1,0.4,2.3,0.5,3.3,0.2c1-0.3,1.8-0.9,2.4-2.1
		c0.1-0.2,0.1-0.3,0.2-0.5c0-0.2,0-0.4,0-0.6C47.4,105.4,47.5,103.9,47.8,102.4L47.8,102.4z M59.5,100.9c1,0.2,1.9,0.1,2.5-0.2
		c0.2-0.1,0.4-0.2,0.5-0.3c0.1-0.1,0.2-0.2,0.2-0.3c0-0.1,0-0.2-0.1-0.3c-0.1-0.1-0.2-0.3-0.3-0.4l0,0v0c-0.1-0.1-0.2-0.2-0.3-0.3
		c-0.1-0.1-0.2-0.2-0.4-0.2c-0.6-0.3-1.4-0.4-2.1-0.4V100.9z M62.7,100.6L62.7,100.6L62.7,100.6c-0.1,0.1-0.3,0.3-0.6,0.4
		c-1.2,0.6-3.1,0.3-5.3-0.6c-0.4-0.2-0.9-0.4-1.3-0.6c-0.4-0.2-0.9-0.4-1.4-0.7h0l0,0l0,0c-1.3-0.8-2.7-1.4-3.9-1.6
		c-1.3-0.3-2.5-0.3-3.4,0c-0.9,0.3-1.7,0.7-2.1,1.4c-0.2,0.3-0.3,0.6-0.4,0.9c-0.1,0.3-0.1,0.6,0,0.8c0,0.1,0.1,0.3,0.2,0.4
		c0.1,0.1,0.2,0.2,0.3,0.2c0.2,0,0.3,0,0.6,0c0.2,0,0.4-0.1,0.6-0.3c0.5-0.3,1.1-0.8,1.7-0.6c0.6,0.3,0.5,1.2,0.4,1.7
		c-0.3,1.4-0.4,2.7-0.5,3.8c0.7-0.3,1.6-0.3,2.7,0c1.5,0.3,3.2,1.1,4.6,1.7l0,0l0,0c0.5,0.2,1,0.4,1.4,0.6c0.5,0.1,0.9,0.3,1.4,0.3
		c2.2,0.4,4.1,0,4.8-0.7c0.1-0.1,0.1-0.1,0.1-0.2V100.6z M44.4,102.1c0.4,0.4,0.9,0.7,1.5,0.8h0c0.5,0.1,1-0.1,1.4-0.4
		c0.4-0.3,0.6-0.7,0.7-1.2c0-0.3-0.1-0.7-0.3-0.8c-0.5-0.2-1.1,0.3-1.5,0.6c-0.5,0.3-1.3,0.6-1.8,0.1L44.4,102.1z M44.4,102.1"/>
	<g>
		<defs>
			<rect id="SVGID_4_" x="25.8" y="13.9" width="74.7" height="96.4"/>
		</defs>
		<clipPath id="SVGID_5_">
			<use xlink:href="#SVGID_4_"  style="overflow:visible;"/>
		</clipPath>
		<path class="st7" d="M49.9,36c-1.5-0.2-3.3-1.9-5.1-3.6c-1.2-1.1-2.3-2.1-3.2-2.7c-0.4-0.2-0.8-0.5-1.3-0.7c0.1,0,0.2-0.1,0.3-0.1
			c1-0.1,2.7,1.5,4.5,3.1c1.7,1.6,3.5,3.2,4.8,3.4V36z M49.9,36.9c-1.8-0.2-3.8-2-5.7-3.8c-1.1-1-2.1-1.9-2.8-2.4
			c-0.6-0.4-1.3-0.8-2-1.2c0.2-0.1,0.4-0.1,0.5-0.2c0.6,0.3,1.2,0.7,1.7,1.1c0.8,0.6,1.8,1.5,2.9,2.4c1.8,1.7,3.7,3.5,5.4,3.7V36.9z
			 M35.6,30.5c1.2,0.5,2.6,1.4,3.9,2.8c0.2,0.2,0.5,0.4,0.7,0.7c1.3,1.3,2.4,2.4,3.4,3.2c1.6,1.3,2.6,1.8,4.7,2.3H48l-0.6,0
			c-1.8-0.3-2.7-0.9-4-1.9c-1-0.8-2.2-2-3.5-3.2c-0.2-0.2-0.4-0.4-0.7-0.7c-1.5-1.5-3-2.4-4.3-2.9c0,0-0.1,0-0.1,0
			C35.1,30.6,35.4,30.6,35.6,30.5L35.6,30.5z M34,30.9c0.3,0,0.6,0.1,0.9,0.2c1.2,0.4,2.6,1.3,4.1,2.8c0.2,0.2,0.4,0.4,0.7,0.7
			c1.3,1.3,2.5,2.5,3.5,3.3c1.2,0.9,2.3,1.6,3.8,1.6l-0.5,0h-1c-1.8-0.2-3.8-2.2-6.2-4.6c-0.2-0.2-0.4-0.4-0.7-0.7
			c-1.4-1.4-2.8-2.3-3.9-2.7c-0.7-0.2-1.3-0.3-1.8-0.2C33.2,31.2,33.5,31.1,34,30.9L34,30.9z M34.9,31.9c-1.9,0.2-2.1,1.3-1.9,1.7
			c0.3,0.8,1.3,1.3,2,1.6c0.2,0.1,0.3,0.1,0.4,0.2c1,0.4,1.9,1,2.4,1.7c0.4,0.5,0.7,1.3,0.6,1.9c-0.1,0.1-0.2,0.2-0.4,0.3
			c0.1-0.7-0.2-1.4-0.6-1.9c-0.5-0.7-1.3-1.2-2.3-1.6c-0.1,0-0.3-0.1-0.4-0.1c-0.9-0.3-2-0.9-2.3-1.8c-0.2-0.6,0.1-1.7,1.5-2.1
			c0.2,0,0.4,0.1,0.6,0.2C34.7,31.9,34.8,31.9,34.9,31.9L34.9,31.9z M33.2,31.6c-0.9,0.4-1.4,1.3-1.1,2.3c0.3,1.1,1.5,1.8,2.6,2.1
			c0.1,0,0.3,0.1,0.4,0.1c0.8,0.3,1.6,0.8,2.1,1.5c0.5,0.6,0.7,1.3,0.5,2c-0.2,0.2-0.4,0.3-0.5,0.4h0c0-0.1,0.1-0.2,0.1-0.2
			c0.2-0.7,0-1.4-0.4-1.9c-0.4-0.6-1.1-1-1.9-1.3c-0.1,0-0.2-0.1-0.4-0.1c-1.2-0.4-2.4-1.2-2.8-2.4c-0.1-0.4-0.1-0.8,0-1.2
			C31.9,32.1,32.4,31.7,33.2,31.6L33.2,31.6z M29.5,37.6c0.4,0,0.8,0,1.3,0.1h0c0.3,0,0.6,0.1,0.9,0.2c0.3,0.1,0.6,0.2,0.8,0.3v0
			l0,0l0,0c0.7,0.3,1.3,0.7,1.9,1c0.5,0.3,1,0.6,1.3,0.8c0.5,0.2,0.9,0.3,1.2-0.2c0,0,0,0.1,0,0.1l0,0c0,0.1-0.1,0.1-0.1,0.2
			c0,0.1-0.1,0.1-0.1,0.1c-0.2,0.2-0.5,0.4-0.9,0.2h0c-0.5-0.1-1-0.5-1.6-0.9c-0.6-0.4-1.2-0.7-1.8-1v0l0,0
			c-0.2-0.1-0.5-0.2-0.8-0.3c-0.3-0.1-0.6-0.1-0.9-0.2c-0.8-0.1-1.6-0.1-2.3,0.1C28.7,38,29.1,37.8,29.5,37.6L29.5,37.6z M31,36.8
			c0.6,0.1,1.2,0.3,1.8,0.5h0v0c0.7,0.3,1.4,0.7,2,1.1c1.1,0.6,1.7,1,2.1,0.6c0,0.1,0,0.2,0,0.4c-0.5,0.4-1,0.3-2.4-0.5
			c-0.6-0.4-1.2-0.8-1.9-1.1v0l0,0h0c-0.7-0.3-1.5-0.5-2.3-0.6c0.2-0.1,0.3-0.1,0.5-0.2L31,36.8z M38,46.9c-0.4-0.8-1.1-1.7-1.7-2.5
			c-1.2-1.6-2.4-3.1-1.9-4.3c0.1,0.1,0.3,0.2,0.4,0.2c-0.3,0.9,0.8,2.3,1.9,3.8c0.5,0.6,0.9,1.2,1.3,1.8V46.9z M38,49.1L38,49.1
			c-0.1-0.9-1.5-3-2.4-4.2c-1.4-1.9-2.8-3.7-2-5.3l0.3,0.2l0.1,0.1c-0.6,1.4,0.6,3,1.9,4.8c0.6,0.9,1.5,2,2,3.2V49.1z M30.5,38.4
			c-1.1,0.4-2.2,1.5-2.3,2.5c-0.1,0.7,0.1,1.5,0.6,2.4c0.5,1,1.3,1.8,2,2.6c0.6,0.6,1.2,1.2,1.8,2c0.6,0.9,1,1.9,1.2,3.2
			c0.2,1.1,0.1,2.4-0.1,3.9c-0.1,0-0.3,0-0.4,0c0.2-1.5,0.2-2.7,0.1-3.8c-0.2-1.2-0.5-2.2-1.1-3c-0.5-0.7-1.1-1.4-1.7-2
			c-0.8-0.8-1.6-1.6-2.1-2.7c-0.5-1-0.7-1.9-0.6-2.6c0.1-1,0.9-2,1.9-2.5C29.8,38.3,30.1,38.3,30.5,38.4L30.5,38.4z M28.6,38.5
			c-0.8,0.6-1.3,1.4-1.4,2.3c-0.1,0.8,0.1,1.8,0.7,2.9c0.6,1.1,1.4,2,2.2,2.8c0.6,0.6,1.2,1.2,1.7,1.9c0.5,0.8,0.9,1.7,1,2.8
			c0.1,1.1,0.1,2.3-0.1,3.7c-0.1,0-0.3,0-0.4,0c0.2-1.4,0.2-2.6,0.1-3.6c-0.1-1.1-0.5-1.9-1-2.6c-0.5-0.7-1.1-1.3-1.6-1.9
			c-0.8-0.9-1.7-1.7-2.2-2.9c-0.6-1.1-0.8-2.2-0.7-3.1c0.1-0.5,0.2-1,0.5-1.5C27.6,38.9,28.1,38.6,28.6,38.5L28.6,38.5z M35.3,59.7
			c0.6,0.2,1.1,0,1.1-0.9v0c-0.1-0.2-0.1-0.4-0.2-0.5c0.1-0.1,0.2-0.2,0.4-0.4c0.1,0.3,0.1,0.5,0.3,0.8c0.1,1.6-0.8,1.7-1.5,1.3
			C35.4,59.8,35.3,59.7,35.3,59.7L35.3,59.7z M36.6,55.4c0.2-0.4,0.5-0.7,0.8-1c0.2-0.2,0.4-0.4,0.6-0.5v0.6
			c-0.1,0.1-0.2,0.2-0.3,0.3v0c-0.3,0.3-0.6,0.6-0.8,1C36.8,55.6,36.7,55.5,36.6,55.4L36.6,55.4z M35.4,60c0.5,0.6,1.2,0.8,1.7,0
			c0.3-0.4,0.3-1,0.3-1.5c-0.2-0.4-0.3-0.8-0.3-1.2c0.2-0.4,0.3-0.7,0.2-1.1c0.2-0.4,0.5-0.8,0.8-1.1l0,0l0,0v0.6
			c-0.3,0.3-0.5,0.6-0.6,1c-0.1,0.5-0.1,1,0.3,1.7c0,0.1,0,0.2,0,0.3v0c0,0.1,0,0.2,0,0.3c0,0.5-0.1,0.9-0.3,1.2
			c-0.2,0.3-0.4,0.4-0.6,0.5c-0.2,0.1-0.3,0.1-0.5,0.1c-0.2,0-0.3-0.1-0.5-0.1v0c-0.2-0.1-0.3-0.3-0.4-0.5h0v0
			C35.4,60.2,35.4,60.1,35.4,60L35.4,60z M31.2,55c-1.6,0.1-2.4,0.8-3.1,2.1c-0.8,1.5-0.8,4.1-0.4,6.3c0.1,0.5,0.2,1,0.3,1.4
			c0.1,0.4,0.2,0.8,0.4,1.2l0,0l0,0c0.5,1.4,1,2.7,1.4,4.1c0.3,1.4,0.5,2.9,0.5,4.4c0,2.5-0.5,4.9-0.9,7.3c-0.5,2.5-0.9,5-0.9,7.5
			c0,1.4,0.1,2.8,0.4,4.2c0.2,1.3,0.6,2.6,1.1,3.7c0.9,2,2.7,3.4,4.5,4.8c1.1,0.9,2.3,1.8,3.3,2.9l0,0h0l0,0
			c0.2,0.3,0.4,0.5,0.6,0.7c0.8,0.9,1.7,1.9,2.6,2.3h0c0.2,0.1,0.5,0.2,0.8,0.3c0.9,0.3,1.8,0.4,2.6,0.2c0.6-0.2,1.9-0.7,3-2.6
			c0,0.2,0,0.5-0.1,0.7l0,0.1c-0.7,1.4-2.1,2.1-2.8,2.3c-0.8,0.2-1.8,0.1-2.8-0.2c-0.3-0.1-0.6-0.2-0.8-0.3h0
			c-1-0.4-1.9-1.4-2.8-2.4c-0.2-0.2-0.4-0.4-0.6-0.7l0,0l0,0l0,0c-1-1.1-2.2-2-3.3-2.8c-1.9-1.4-3.7-2.9-4.7-5
			c-0.5-1.2-0.9-2.5-1.2-3.8c-0.3-1.4-0.4-2.8-0.4-4.2c0-2.6,0.4-5.1,0.9-7.6c0.4-2.4,0.9-4.8,0.9-7.2c0-1.5-0.2-2.9-0.5-4.3
			c-0.3-1.4-0.8-2.7-1.3-4.1l0,0h0c-0.2-0.4-0.3-0.8-0.4-1.2c-0.1-0.4-0.2-0.9-0.3-1.4c-0.4-2.3-0.4-4.9,0.4-6.5
			c0.6-1.1,1.3-1.9,2.7-2C30.7,55,30.9,55,31.2,55L31.2,55z M34.2,55.3c-0.7,0.5-1.3,1.3-1.5,2.2c-0.3,1.5,0,3.5,1.1,6.2
			c0.7,1.8,1.3,3.5,1.6,5.3c0.4,1.8,0.5,3.6,0.5,5.5c0,1.9-0.3,3.7-0.7,5.6c-0.1,0.5-0.2,1-0.3,1.8c-0.3,1.9-0.7,4.6-0.6,7.3
			c0.1,2.8,0.6,5.6,2.1,7.5c0.3,0.4,0.7,0.8,1.2,1.1c0.4,0.3,0.8,0.6,1.3,0.8c0.8,0.4,1.4,0.8,1.9,1.3c0.5,0.5,1.1,1,1.6,1.7
			c0.4,0.5,0.8,1,1.3,1.4c1.1,1,2.7,1.4,3.9,0.5c0,0.2,0,0.3-0.1,0.5c-1.3,0.8-2.7,0.5-4.1-0.7c-0.5-0.5-1-1-1.4-1.5
			c-0.5-0.7-1-1.2-1.5-1.6c-0.5-0.4-1.1-0.8-1.9-1.2c-0.4-0.2-0.9-0.5-1.3-0.9c-0.5-0.3-0.9-0.7-1.2-1.2c-1.6-2-2.1-4.9-2.2-7.8
			c-0.1-2.7,0.3-5.5,0.6-7.4c0.1-0.8,0.2-1.3,0.3-1.8c0.3-1.9,0.6-3.7,0.7-5.5c0-1.9-0.2-3.7-0.5-5.4c-0.4-1.8-0.9-3.5-1.6-5.2
			c-1.1-2.8-1.4-4.8-1.1-6.4c0.2-1,0.7-1.7,1.4-2.2C33.9,55.3,34,55.3,34.2,55.3L34.2,55.3z M29.6,54.9c-0.3,0-0.6,0-0.8,0h0l0,0h0
			l0,0c-0.7,0.1-1.1,0.5-1.5,1.1c-1.3,1.8-1.3,5-0.9,7.7c0.1,0.5,0.2,1.1,0.3,1.5c0.1,0.5,0.3,0.9,0.4,1.3v0h0
			c0.5,1.3,1,2.6,1.3,3.9c0.3,1.3,0.5,2.7,0.5,4.1c0,2.4-0.5,4.7-0.9,7.1c-0.5,2.6-1,5.1-0.9,7.8c0,1.5,0.2,3,0.4,4.4
			c0.3,1.4,0.7,2.8,1.2,4c1,2.3,3,3.8,4.9,5.3c1.1,0.9,2.3,1.7,3.2,2.8h0l0,0c0.2,0.2,0.4,0.4,0.6,0.6c0.9,1,1.9,2.1,3.1,2.6h0
			c0.3,0.1,0.6,0.2,0.9,0.3c1.1,0.4,2.3,0.5,3.3,0.2c1.3-0.3,2.1-1.4,2.5-2.6c-0.5,1.1-1.8,1.9-2.6,2.2c-0.9,0.2-2,0.1-3.1-0.2
			c-0.3-0.1-0.6-0.2-0.9-0.3h0c-1.1-0.5-2-1.5-2.9-2.5c-0.2-0.2-0.4-0.4-0.6-0.7l0,0l0,0l0,0c-1-1.1-2.1-1.9-3.3-2.8
			c-1.9-1.5-3.8-2.9-4.8-5.1c-0.6-1.2-0.9-2.6-1.2-3.9c-0.3-1.4-0.4-2.8-0.4-4.3c0-2.6,0.4-5.2,0.9-7.7c0.4-2.4,0.9-4.7,0.9-7.1
			c0-1.4-0.2-2.9-0.5-4.2c-0.3-1.4-0.8-2.7-1.3-4l0,0l0,0c-0.2-0.4-0.3-0.8-0.4-1.3c-0.1-0.5-0.2-1-0.3-1.5
			c-0.5-2.7-0.4-5.8,0.9-7.5C28.4,55.2,28.8,54.9,29.6,54.9L29.6,54.9z M34.7,55.3c-0.8,0.5-1.4,1.3-1.6,2.3c-0.3,1.4,0,3.3,1.1,5.9
			c0.7,1.8,1.3,3.6,1.7,5.4c0.4,1.8,0.6,3.7,0.5,5.6c0,1.9-0.3,3.8-0.7,5.7c-0.1,0.5-0.2,1.1-0.3,1.8c-0.3,1.9-0.7,4.6-0.6,7.3
			c0.1,2.7,0.5,5.4,2,7.2c0.3,0.4,0.7,0.7,1.1,1c0.4,0.3,0.8,0.6,1.2,0.8c0.8,0.4,1.4,0.9,2,1.3c0.6,0.5,1.1,1.1,1.7,1.8
			c0.3,0.4,0.8,0.9,1.2,1.3c1,0.9,2.6,1.4,3.6,0.4c0-0.2,0.1-0.5,0.1-0.7v0c0,0,0,0-0.1,0.1l0,0h0c-0.4,0.5-1,0.8-1.6,0.7
			c-0.7,0-1.3-0.4-1.8-0.8c-0.5-0.4-0.8-0.8-1.2-1.3c-0.6-0.8-1.1-1.3-1.7-1.9c-0.6-0.5-1.3-0.9-2.1-1.4c-0.4-0.2-0.8-0.5-1.2-0.7
			c-0.4-0.3-0.7-0.6-1-1c-1.4-1.7-1.8-4.3-1.9-6.9c0-2.6,0.3-5.3,0.6-7.2c0.1-0.6,0.2-1.2,0.3-1.8c0.3-1.9,0.7-3.8,0.7-5.7
			c0-2-0.2-3.9-0.5-5.7c-0.4-1.9-0.9-3.7-1.7-5.5c-1-2.5-1.3-4.3-1.1-5.7c0.2-1.1,0.8-1.8,1.6-2.4l0,0C35,55.3,34.9,55.3,34.7,55.3
			L34.7,55.3z M62.7,101.7c-0.1,0-0.1,0.1-0.2,0.1c-1.5,0.7-3.6,0.4-6-0.6c-0.5-0.2-0.9-0.4-1.4-0.6c-0.4-0.2-0.9-0.4-1.4-0.7l0,0
			l0,0l-0.1,0c-1.2-0.8-2.5-1.3-3.6-1.5c-1.1-0.3-2.2-0.2-3,0c-1.2,0.3-2.5,1.5-1.8,2.9c0.1,0,0.2,0,0.3-0.1
			c-0.5-1.1,0.7-2.1,1.6-2.3c0.8-0.2,1.7-0.2,2.8,0c1.1,0.2,2.3,0.7,3.5,1.5l0.1,0h0l0,0c0.5,0.3,1,0.5,1.4,0.7
			c0.5,0.2,0.9,0.4,1.4,0.6c2.5,1,4.8,1.3,6.4,0.5l0,0V101.7L62.7,101.7z M62.7,101.2c-0.1,0.1-0.2,0.2-0.4,0.2
			c-1.4,0.6-3.3,0.3-5.7-0.6c-0.4-0.2-0.9-0.4-1.3-0.6c-0.4-0.2-0.9-0.4-1.4-0.7l0,0l0,0l0,0c-1.3-0.8-2.6-1.3-3.8-1.6
			c-1.2-0.3-2.3-0.3-3.2,0c-1.4,0.4-2.9,1.8-2,3.3c-0.7-0.1-0.6-0.9-0.5-1.4c0.1-0.3,0.2-0.6,0.4-0.9c0.4-0.7,1.2-1.2,2.1-1.4
			c1-0.3,2.1-0.3,3.4,0c1.2,0.3,2.5,0.8,3.9,1.6l0,0h0l0,0c0.5,0.2,0.9,0.5,1.4,0.7c0.4,0.2,0.9,0.4,1.3,0.6
			c2.2,0.9,4.1,1.1,5.3,0.6c0.3-0.1,0.4-0.3,0.6-0.4l0,0l0,0V101.2L62.7,101.2z M47.7,105.3c0.7-0.3,1.7-0.2,2.8,0
			c1.5,0.4,3.2,1.1,4.7,1.7l0,0l0,0c0.5,0.2,0.9,0.4,1.4,0.5c0.4,0.1,0.9,0.2,1.3,0.3c2.1,0.4,3.5,0.2,4.8-0.8v0.2
			c0,0.1,0,0.2-0.1,0.3c-0.2,0.2-0.4,0.3-0.7,0.4h0c-1.1,0.5-2.5,0.6-4.2,0.3c-0.5-0.1-0.9-0.2-1.4-0.3c-0.5-0.1-0.9-0.3-1.4-0.6
			l0,0l0,0c-1.4-0.7-3.1-1.4-4.6-1.7c-1.1-0.3-2.1-0.3-2.7,0C47.7,105.7,47.7,105.5,47.7,105.3L47.7,105.3z M47.8,104.3
			c0.8-0.2,1.8-0.1,2.9,0.1c1.6,0.4,3.4,1.1,4.8,1.8l0,0l0,0c0.4,0.2,0.8,0.4,1.2,0.5c0.4,0.1,0.8,0.2,1.2,0.3
			c2.3,0.4,3.4,0.2,4.7-1.2v0.6c-1.3,1.2-2.5,1.4-4.8,1c-0.4-0.1-0.9-0.2-1.3-0.3c-0.4-0.1-0.9-0.3-1.3-0.5l0,0l0,0
			c-1.4-0.7-3.2-1.4-4.7-1.8c-1.1-0.2-2-0.3-2.8-0.1C47.8,104.7,47.8,104.5,47.8,104.3L47.8,104.3z M61.8,98.9L61.8,98.9L61.8,98.9
			c0.3,0.2,0.6,0.5,0.8,0.8c0.1,0.1,0.1,0.2,0.1,0.3c0,0.1,0,0.2-0.1,0.2c-0.6-1.1-1.8-1.5-3-1.5h-0.1v-0.4
			C60.3,98.4,61.1,98.5,61.8,98.9L61.8,98.9z M61.9,100.8c0,0,0.1,0,0.1-0.1c0.1,0,0.2-0.1,0.3-0.2c-0.6-0.9-1.7-1.3-2.8-1.3l0,0.4
			C60.4,99.7,61.3,100.1,61.9,100.8L61.9,100.8z M44.4,102.1c0.6,0.4,1.6,0.1,2.2-0.3c0.6-0.4,1-0.4,1.2-0.2
			c0.1-0.6-0.3-0.8-0.9-0.4c-0.1,0-0.1,0.1-0.2,0.1h0l0,0c-0.6,0.4-1.5,0.8-2.3,0.4l0-0.5c0,0,0,0,0,0c0.5,0.4,1.3,0.2,1.8-0.1
			c0.4-0.2,1-0.8,1.5-0.6c0.3,0.1,0.3,0.5,0.3,0.8c0,0.3-0.2,0.6-0.4,0.9c0.2-0.6-0.6-0.2-0.8,0c-0.4,0.3-1,0.5-1.5,0.6
			C45,102.6,44.7,102.4,44.4,102.1L44.4,102.1z M36.1,55.5c0.2,0.1,0.3,0.2,0.4,0.3c0.6,0.5,0.4,1.2-0.4,2.1
			c-0.3,0.3-0.6,0.6-0.8,0.9c-0.3,0.4-0.4,0.9-0.2,1.4c0.1,0.3,0.2,0.5,0.5,0.7v0c0,0,0,0,0,0c-0.3,0-0.5-0.1-0.7-0.2
			c-0.2-0.4-0.3-0.8-0.3-1.2c0-0.5,0.3-1,0.7-1.4c0,0,0.1-0.1,0.1-0.1l0,0c0.4-0.4,0.8-0.8,1-1.2c0.3-0.5-0.1-0.8-0.5-1
			c0.2,0.3,0.2,0.6,0,1c-0.2,0.4-0.7,0.9-1.1,1.2c-0.5,0.6-0.7,1.6-0.4,2.3c-0.2-0.2-0.3-0.5-0.5-0.8c0-0.2,0-0.4-0.1-0.6
			c0.1-0.5,0.4-1,0.7-1.3c0.4-0.4,0.8-0.8,0.9-1.1c0.2-0.4,0-0.7-0.3-0.8C35.4,55.5,35.8,55.3,36.1,55.5L36.1,55.5z M36.1,55.5"/>
		<path class="st8" d="M81.7,39.5c1-0.4,2.1-1.3,3.3-2.4c0.6,0.4,1.3,1,1.9,1.6c1,0.9,2.1,1.8,2.7,2c0.3,0.1,0.6,0.1,0.8,0l0,0
			c0.2-0.1,0.3-0.1,0.5-0.2c0.2,0.8-0.8,2.1-1.8,3.5c-0.4,0.5-0.8,1-1.1,1.5v10.7c0.1,0.2,0.3,0.4,0.3,0.7c0.1,0.4,0,0.9-0.3,1.5
			l0,0l0,0l0,0c0,0.1,0,0.2,0,0.4c0,0.1,0,0.2,0,0.3c0,0.6,0.2,1,0.4,1.4c0.2,0.4,0.6,0.6,0.9,0.7c0.1,0,0.3,0,0.4,0.1
			c0.7,0.1,1.2,0,1.7-0.2c0.3-0.1,0.5-0.3,0.7-0.5c-0.2,0.8-0.5,1.8-0.9,2.9c-0.7,1.8-1.3,3.7-1.7,5.5c-0.4,1.9-0.6,3.8-0.5,5.8
			c0,2,0.4,3.9,0.7,5.8c0.1,0.6,0.2,1.2,0.3,1.7c0.3,1.9,0.7,4.5,0.6,7.1c0,2.6-0.5,5.1-1.8,6.8c-0.3,0.4-0.6,0.7-1,0.9
			c-0.4,0.3-0.7,0.5-1.1,0.7c-0.8,0.5-1.5,0.9-2.1,1.4c-0.6,0.5-1.2,1.1-1.8,1.9c-0.2,0.3-0.5,0.6-0.7,0.9l0.1-1.3
			c0.1-0.6-0.1-1.2-0.4-1.7c-0.5-0.8-1.3-1.3-2.3-1.6c-1-0.3-2.2-0.3-3.5,0c-1.2,0.3-2.6,0.8-4,1.7h0v0h0c-0.5,0.2-0.9,0.5-1.4,0.7
			c-0.4,0.2-0.9,0.4-1.3,0.6c-0.8,0.3-1.6,0.6-2.3,0.7v-2.7c-0.9,0-1.7,0.1-2.5,0.5c-0.4,0.2-1,0.6-1.2,1c0,0.1-0.1,0.3-0.1,0.5v7.3
			c0,0.4,0.1,0.5,0.4,0.7c0.9,0.6,2.7,0.9,4.8,0.6c0.5-0.1,0.9-0.2,1.4-0.3c0.5-0.2,1-0.3,1.5-0.6l0,0c1.4-0.6,3.1-1.4,4.5-1.7
			c1.1-0.3,2.1-0.3,2.7,0.1l0,0.3c0,0.2,0,0.5,0,0.6l0,0l0,0c0.1,0.2,0.1,0.4,0.2,0.5c0.6,1.3,1.5,2,2.5,2.3
			c1.1,0.3,2.3,0.1,3.5-0.2c0.3-0.1,0.6-0.2,0.9-0.4l0,0c1.2-0.5,2.2-1.6,3.2-2.7c0.2-0.2,0.4-0.4,0.6-0.6l0,0
			c0.9-1,2.1-1.9,3.2-2.7c2-1.5,4-3,5-5.4c0.6-1.3,1-2.7,1.3-4.1c0.3-1.4,0.4-2.9,0.4-4.4c0.1-2.7-0.4-5.3-0.9-7.8
			c-0.4-2.3-0.9-4.7-0.9-7c0-1.4,0.2-2.7,0.5-4.1c0.3-1.3,0.8-2.6,1.3-3.9l0,0v0c0.2-0.4,0.3-0.8,0.4-1.3c0.1-0.5,0.3-1,0.3-1.6
			c0.5-2.8,0.4-6.2-1.1-8c-0.9-1.2-1.6-1.1-2.8-1l-0.3,0h0c-0.5,0-1,0.1-1.5,0.2l-0.2,0c-0.2-1.4-0.2-2.5-0.1-3.5
			c0.1-1,0.5-1.8,0.9-2.5c0.5-0.7,1-1.3,1.6-1.8c0.8-0.9,1.7-1.8,2.3-3c0.6-1.2,0.8-2.3,0.7-3.3c0-0.4-0.1-0.7-0.3-1.1l0,0v0
			c-0.2-0.4-0.6-0.9-0.9-1.2c-0.7-0.6-1.8-1.2-3-1.8c-0.7-0.3-1.3-0.6-1.9-1c0.1-0.1,0.2-0.2,0.3-0.2c0.4-0.4,0.7-0.9,0.9-1.4
			c0.4-1.2-0.2-1.9-0.9-2.7c-0.6-0.6-2-1-3.7-1.3c-1.5-0.3-3.1-0.7-4.6-1.4l0,0l0,0h0c-1.2-0.1-2.9,1.5-4.7,3.2
			c-1.7,1.5-3.4,3.1-4.6,3.4v4.2H81.7z M81.7,39.5"/>
	</g>
	<path class="st6" d="M86.8,34.9c-2.4,2.4-4.4,4.4-6.2,4.6h-4.4v-3.9c1.3-0.2,3.1-1.9,4.8-3.4c1.7-1.6,3.4-3.2,4.5-3.1
		c1.5,0.7,3.1,1.1,4.6,1.4c1.3,0.3,2.5,0.6,3.2,1c-0.5-0.1-1.1,0-1.8,0.2c-1.2,0.4-2.5,1.3-3.9,2.7c-0.1,0.1-0.2,0.2-0.3,0.3
		L86.8,34.9z M85.2,36.9c0.6-0.5,1.2-1.1,1.8-1.8l0.4-0.4c0.1-0.1,0.2-0.2,0.3-0.2c1.4-1.3,2.7-2.2,3.8-2.6c0.9-0.3,1.6-0.3,2.2,0
		c0.8,0.4,1.1,1.4,0.8,2.2c-0.4,1.2-1.7,2-2.8,2.4c-0.1,0-0.2,0.1-0.4,0.1c-0.8,0.3-1.5,0.8-1.9,1.3c-0.4,0.6-0.6,1.2-0.4,1.9
		c0,0.1,0.1,0.2,0.1,0.2c-0.5-0.4-1.2-1-1.9-1.6C86.5,37.9,85.8,37.3,85.2,36.9L85.2,36.9z M91.7,36.7c0.6-0.2,1.2-0.5,1.6-0.8
		c0.6,0.4,1.3,0.7,2,1c0.9,0.4,1.8,0.9,2.4,1.3c-0.7-0.2-1.5-0.3-2.3-0.1h0c-0.3,0-0.6,0.1-0.9,0.2c-0.3,0.1-0.5,0.2-0.8,0.3l0,0h0
		c-0.6,0.3-1.2,0.7-1.8,1c-0.5,0.3-1.1,0.8-1.7,0.9c-0.5,0.1-0.8-0.2-1-0.6v0c0,0,0-0.1,0-0.1c-0.2-0.6,0-1.2,0.4-1.7
		c0.4-0.5,1-0.9,1.8-1.2C91.5,36.8,91.6,36.8,91.7,36.7L91.7,36.7z M89.4,55.5c-0.8,0.6-0.6,1.5,0.4,2.6l0,0
		c0.3,0.3,0.6,0.6,0.7,0.8c0.2,0.3,0.2,0.5,0.3,0.7c0,0.4-0.1,0.7-0.3,0.9c-0.1,0.2-0.3,0.3-0.5,0.3c-0.2,0.1-0.4,0.1-0.6,0
		c-0.3-0.1-0.5-0.3-0.7-0.6c-0.2-0.3-0.3-0.7-0.3-1.2c0-0.1,0-0.2,0-0.3c0-0.1,0-0.2,0-0.3c0.3-0.6,0.4-1.2,0.3-1.7
		c-0.1-0.4-0.3-0.7-0.6-1v-9.8c0.4-0.6,0.8-1.2,1.3-1.8c1.1-1.5,2.2-2.8,1.9-3.8c0.3-0.2,0.6-0.3,0.9-0.5c0.6-0.4,1.2-0.7,1.8-1l0,0
		h0c0.2-0.1,0.5-0.2,0.7-0.3c0.3-0.1,0.5-0.1,0.8-0.2c1.4-0.2,3,0,3.6,1.4v0l0,0c0.1,0.3,0.2,0.6,0.3,1c0.1,0.9-0.1,2-0.7,3.1
		c-0.6,1.2-1.4,2-2.2,2.9c-0.6,0.6-1.1,1.2-1.6,1.9c-0.5,0.7-0.8,1.6-1,2.6c-0.1,1-0.1,2.2,0.1,3.6c-0.8,0.1-1.6,0.2-2.5,0.2
		C90.6,55.1,90,55,89.4,55.5L89.4,55.5z M90.5,60.9c0.1-0.1,0.1-0.1,0.2-0.2c0.2-0.3,0.4-0.6,0.4-1.1c0-0.3-0.1-0.6-0.3-0.8
		c-0.2-0.3-0.4-0.6-0.8-0.9c-0.8-0.9-1-1.6-0.4-2.1c0.7-0.7,1.5-0.2,2,0.5c0.3,0.4,0.6,0.9,0.7,1.5c0.1,0.5,0.1,1.1,0,1.8
		c-0.2,0.6-0.5,0.9-0.9,1.1C91.1,60.8,90.8,60.8,90.5,60.9L90.5,60.9z M78.3,102.4c0.4,0.4,0.9,0.8,1.4,0.8c0.2,0,0.3,0,0.5,0h0
		c0.6-0.1,1.1-0.4,1.5-0.8c0.5-0.4,0.8-0.8,1.2-1.3c0.6-0.8,1.1-1.3,1.7-1.9c0.6-0.5,1.3-0.9,2.1-1.4c0.4-0.2,0.8-0.5,1.2-0.7
		c0.4-0.3,0.7-0.6,1-1c1.4-1.7,1.8-4.3,1.9-6.9c0-2.6-0.3-5.3-0.6-7.2c-0.1-0.6-0.2-1.2-0.3-1.8c-0.3-1.9-0.7-3.8-0.7-5.7
		c0-2,0.2-3.9,0.5-5.7c0.4-1.9,0.9-3.7,1.7-5.5c1-2.5,1.3-4.3,1.1-5.7c-0.2-1.1-0.8-1.9-1.6-2.4c1.1,0,2.3-0.1,3.5-0.2
		c0.5-0.1,1-0.1,1.5-0.2l0,0h0l0.3,0c1.1-0.1,1.8-0.2,2.6,0.9c1.4,1.8,1.5,5.1,1,7.8c-0.1,0.5-0.2,1.1-0.3,1.5
		c-0.1,0.5-0.3,0.9-0.4,1.3l0,0v0c-0.5,1.3-1,2.6-1.3,3.9c-0.3,1.3-0.5,2.7-0.5,4.1c0,2.4,0.5,4.7,0.9,7.1c0.5,2.6,1,5.1,0.9,7.8
		c0,1.5-0.2,3-0.4,4.4c-0.3,1.4-0.7,2.8-1.2,4c-1,2.3-3,3.8-4.9,5.3c-1.1,0.9-2.3,1.7-3.2,2.8v0l0,0c-0.2,0.2-0.4,0.4-0.6,0.6
		c-0.9,1-1.9,2.1-3.1,2.6l0,0c-0.3,0.1-0.6,0.2-0.9,0.3c-1.1,0.4-2.3,0.5-3.3,0.2c-1-0.3-1.8-0.9-2.4-2.1c-0.1-0.2-0.1-0.3-0.2-0.5
		c0-0.2,0-0.4,0-0.6C78.7,105.4,78.6,103.9,78.3,102.4L78.3,102.4z M66.6,100.9c-1,0.2-1.9,0.1-2.5-0.2h0c-0.2-0.1-0.4-0.2-0.5-0.3
		h0c-0.1-0.1-0.2-0.2-0.2-0.3c0-0.1,0-0.2,0.1-0.3h0c0.1-0.1,0.2-0.3,0.3-0.4l0,0c0.1-0.1,0.2-0.2,0.3-0.3s0.2-0.2,0.4-0.2
		c0.6-0.3,1.4-0.4,2.1-0.4V100.9z M63.4,100.6L63.4,100.6c0.1,0.1,0.3,0.3,0.6,0.4c1.2,0.6,3.1,0.3,5.3-0.6c0.4-0.2,0.9-0.4,1.3-0.6
		c0.4-0.2,0.9-0.4,1.4-0.7h0l0,0l0,0c1.3-0.8,2.7-1.4,3.9-1.6c1.3-0.3,2.5-0.3,3.4,0c0.9,0.3,1.7,0.7,2.1,1.4
		c0.2,0.3,0.3,0.6,0.4,0.9c0.1,0.3,0.1,0.6,0,0.8c0,0.1-0.1,0.3-0.2,0.4c-0.1,0.1-0.2,0.2-0.3,0.2c-0.2,0-0.3,0-0.6,0
		c-0.2,0-0.4-0.1-0.6-0.3c-0.5-0.3-1.1-0.8-1.7-0.6c-0.6,0.3-0.5,1.2-0.4,1.7c0.3,1.4,0.4,2.7,0.5,3.8c-0.7-0.3-1.6-0.3-2.7,0
		c-1.5,0.3-3.2,1.1-4.6,1.7l0,0l0,0c-0.5,0.2-1,0.4-1.4,0.6c-0.5,0.1-0.9,0.3-1.4,0.3c-2.2,0.4-4.1,0-4.8-0.7
		c-0.1-0.1-0.1-0.1-0.1-0.2L63.4,100.6z M81.7,102.1c-0.4,0.4-0.9,0.7-1.5,0.8h0c-0.5,0.1-1-0.1-1.4-0.4c-0.4-0.3-0.6-0.7-0.7-1.2
		c0-0.3,0.1-0.7,0.3-0.8c0.5-0.2,1.1,0.3,1.5,0.6c0.5,0.3,1.3,0.6,1.8,0.1L81.7,102.1z M81.7,102.1"/>
	<path class="st9" d="M76.2,36c1.5-0.2,3.3-1.9,5.1-3.6c1.2-1.1,2.3-2.1,3.2-2.7c0.4-0.2,0.8-0.5,1.3-0.7c-0.1,0-0.2-0.1-0.3-0.1
		c-1-0.1-2.7,1.5-4.5,3.1c-1.7,1.6-3.5,3.2-4.8,3.4V36z M76.2,36.9c1.8-0.2,3.8-2,5.7-3.8c1.1-1,2.1-1.9,2.8-2.4
		c0.6-0.4,1.3-0.8,2-1.2c-0.2-0.1-0.4-0.1-0.5-0.2c-0.6,0.3-1.2,0.7-1.7,1.1c-0.8,0.6-1.8,1.5-2.9,2.4c-1.8,1.7-3.7,3.5-5.4,3.7
		V36.9z M90.5,30.5c-1.2,0.5-2.6,1.4-3.9,2.8c-0.2,0.2-0.5,0.4-0.7,0.7c-1.3,1.3-2.4,2.4-3.4,3.2c-1.6,1.3-2.6,1.8-4.7,2.3h0.4
		l0.6,0c1.8-0.3,2.7-0.9,4-1.9c1-0.8,2.2-2,3.5-3.2c0.2-0.2,0.4-0.4,0.7-0.7c1.5-1.5,3-2.4,4.3-2.9c0,0,0.1,0,0.1,0
		C91,30.6,90.7,30.6,90.5,30.5L90.5,30.5z M92.1,30.9c-0.3,0-0.6,0.1-0.9,0.2c-1.2,0.4-2.6,1.3-4.1,2.8c-0.2,0.2-0.4,0.4-0.7,0.7
		c-1.3,1.3-2.5,2.5-3.5,3.3c-1.2,0.9-2.3,1.6-3.8,1.6l0.5,0h1c1.8-0.2,3.8-2.2,6.2-4.6c0.2-0.2,0.4-0.4,0.7-0.7
		c1.4-1.4,2.8-2.3,3.9-2.7c0.7-0.2,1.3-0.3,1.8-0.2C92.9,31.2,92.6,31.1,92.1,30.9L92.1,30.9z M91.3,31.9c1.9,0.2,2.1,1.3,1.9,1.7
		c-0.3,0.8-1.3,1.3-2,1.6c-0.2,0.1-0.3,0.1-0.4,0.2c-1,0.4-1.9,1-2.4,1.7c-0.4,0.5-0.7,1.3-0.6,1.9c0.1,0.1,0.2,0.2,0.4,0.3
		c-0.1-0.7,0.2-1.4,0.6-1.9c0.5-0.7,1.3-1.2,2.3-1.6c0.1,0,0.3-0.1,0.4-0.1c0.9-0.3,2-0.9,2.3-1.8c0.2-0.6-0.1-1.7-1.5-2.1
		c-0.2,0-0.4,0.1-0.6,0.2C91.4,31.9,91.3,31.9,91.3,31.9L91.3,31.9z M92.9,31.6c0.9,0.4,1.4,1.3,1.1,2.3c-0.3,1.1-1.5,1.8-2.6,2.1
		c-0.1,0-0.3,0.1-0.4,0.1c-0.8,0.3-1.6,0.8-2.1,1.5c-0.5,0.6-0.7,1.3-0.5,2c0.2,0.2,0.4,0.3,0.5,0.4h0c0-0.1-0.1-0.2-0.1-0.2
		c-0.2-0.7,0-1.4,0.4-1.9c0.4-0.6,1.1-1,1.9-1.3c0.1,0,0.2-0.1,0.4-0.1c1.2-0.4,2.4-1.2,2.8-2.4c0.1-0.4,0.1-0.8,0-1.2
		C94.2,32.1,93.7,31.7,92.9,31.6L92.9,31.6z M96.6,37.6c-0.4,0-0.8,0-1.3,0.1h0c-0.3,0-0.6,0.1-0.9,0.2c-0.3,0.1-0.6,0.2-0.8,0.3v0
		l0,0c-0.7,0.3-1.3,0.7-1.9,1c-0.5,0.3-1,0.6-1.3,0.8c-0.5,0.2-0.9,0.3-1.2-0.2c0,0,0,0.1,0,0.1v0c0,0.1,0.1,0.1,0.1,0.2
		c0,0.1,0.1,0.1,0.1,0.1c0.2,0.2,0.5,0.4,0.9,0.2h0c0.5-0.1,1-0.5,1.6-0.9c0.6-0.4,1.2-0.7,1.8-1l0,0l0,0c0.2-0.1,0.5-0.2,0.8-0.3
		c0.3-0.1,0.6-0.1,0.9-0.2h0c0.8-0.1,1.6-0.1,2.3,0.1C97.4,38,97.1,37.8,96.6,37.6L96.6,37.6z M95.1,36.8c-0.6,0.1-1.2,0.3-1.8,0.5
		h0l0,0c-0.7,0.3-1.4,0.7-2,1.1c-1.1,0.6-1.7,1-2.1,0.6c0,0.1,0,0.2,0,0.4c0.5,0.4,1,0.3,2.4-0.5c0.6-0.4,1.2-0.8,1.9-1.1v0l0,0h0
		c0.7-0.3,1.5-0.5,2.3-0.6c-0.2-0.1-0.3-0.1-0.5-0.2L95.1,36.8z M88.1,46.9c0.4-0.8,1.1-1.7,1.7-2.5c1.2-1.6,2.4-3.1,1.9-4.3
		c-0.1,0.1-0.3,0.2-0.4,0.2h0c0.3,0.9-0.8,2.3-1.9,3.8c-0.5,0.6-0.9,1.2-1.3,1.8V46.9z M88.1,49.1L88.1,49.1c0.1-0.9,1.5-3,2.4-4.2
		c1.4-1.9,2.8-3.7,2-5.3l-0.3,0.2L92,39.9c0.6,1.4-0.6,3-1.9,4.8c-0.6,0.9-1.5,2-2,3.2V49.1z M95.7,38.4c1.1,0.4,2.2,1.5,2.3,2.5
		c0.1,0.7-0.1,1.5-0.6,2.4c-0.5,1-1.3,1.8-2,2.6c-0.6,0.6-1.2,1.2-1.8,2c-0.6,0.9-1,1.9-1.2,3.2c-0.2,1.1-0.1,2.4,0.1,3.9
		c0.1,0,0.3,0,0.4,0c-0.2-1.5-0.2-2.7-0.1-3.8c0.2-1.2,0.5-2.2,1.1-3c0.5-0.7,1.1-1.4,1.7-2c0.8-0.8,1.6-1.6,2.1-2.7
		c0.5-1,0.7-1.9,0.6-2.6c-0.1-1-0.9-2-1.9-2.5C96.3,38.3,96,38.3,95.7,38.4L95.7,38.4z M97.5,38.5c0.8,0.6,1.3,1.4,1.4,2.3
		c0.1,0.8-0.1,1.8-0.7,2.9c-0.6,1.1-1.4,2-2.2,2.8c-0.6,0.6-1.2,1.2-1.7,1.9c-0.5,0.8-0.9,1.7-1,2.8c-0.1,1.1-0.1,2.3,0.1,3.7
		c0.1,0,0.3,0,0.4,0c-0.2-1.4-0.2-2.6-0.1-3.6c0.1-1.1,0.5-1.9,1-2.6c0.5-0.7,1.1-1.3,1.6-1.9c0.8-0.9,1.7-1.7,2.2-2.9
		c0.6-1.1,0.8-2.2,0.7-3.1c-0.1-0.5-0.2-1-0.5-1.5C98.5,38.9,98,38.6,97.5,38.5L97.5,38.5z M90.8,59.7c-0.6,0.2-1.1,0-1.1-0.9v0
		c0.1-0.2,0.1-0.4,0.2-0.5c-0.1-0.1-0.2-0.2-0.4-0.4c-0.1,0.3-0.1,0.5-0.3,0.8c-0.1,1.6,0.8,1.7,1.5,1.3
		C90.8,59.8,90.8,59.7,90.8,59.7L90.8,59.7z M89.5,55.4c-0.2-0.4-0.5-0.7-0.8-1h0c-0.2-0.2-0.4-0.4-0.6-0.5v0.6
		c0.1,0.1,0.2,0.2,0.3,0.3l0,0c0.3,0.3,0.6,0.6,0.8,1C89.3,55.6,89.4,55.5,89.5,55.4L89.5,55.4z M90.7,60c-0.5,0.6-1.2,0.8-1.7,0
		c-0.3-0.4-0.3-1-0.3-1.5c0.2-0.4,0.3-0.8,0.3-1.2c-0.2-0.4-0.3-0.7-0.2-1.1c-0.2-0.4-0.5-0.8-0.8-1.1v0l0,0v0.6
		c0.3,0.3,0.5,0.6,0.6,1c0.1,0.5,0.1,1-0.3,1.7c0,0.1,0,0.2,0,0.3v0c0,0.1,0,0.2,0,0.3c0,0.5,0.1,0.9,0.3,1.2
		c0.2,0.3,0.4,0.4,0.6,0.5c0.2,0.1,0.3,0.1,0.5,0.1c0.2,0,0.3-0.1,0.5-0.1v0c0.2-0.1,0.3-0.3,0.4-0.5l0,0
		C90.7,60.2,90.7,60.1,90.7,60L90.7,60z M94.9,55c1.6,0.1,2.4,0.8,3.1,2.1c0.8,1.5,0.8,4.1,0.4,6.3c-0.1,0.5-0.2,1-0.3,1.4
		c-0.1,0.4-0.2,0.8-0.4,1.2l0,0l0,0c-0.6,1.4-1,2.7-1.4,4.1c-0.3,1.4-0.5,2.9-0.5,4.4c0,2.5,0.5,4.9,0.9,7.3c0.5,2.5,0.9,5,0.9,7.5
		c0,1.4-0.1,2.8-0.4,4.2c-0.2,1.3-0.6,2.6-1.1,3.7c-0.9,2-2.7,3.4-4.5,4.8c-1.2,0.9-2.3,1.8-3.3,2.9l0,0h0l0,0
		c-0.2,0.3-0.4,0.5-0.6,0.7c-0.8,0.9-1.7,1.9-2.6,2.3h0c-0.2,0.1-0.5,0.2-0.8,0.3c-0.9,0.3-1.8,0.4-2.6,0.2c-0.6-0.2-1.9-0.7-3-2.6
		c0,0.2,0,0.5,0.1,0.7l0,0.1c0.7,1.4,2.1,2.1,2.8,2.3c0.8,0.2,1.8,0.1,2.8-0.2c0.3-0.1,0.6-0.2,0.8-0.3c1-0.4,1.9-1.4,2.8-2.4
		c0.2-0.2,0.4-0.4,0.6-0.7l0,0v0l0,0c1-1.1,2.2-2,3.3-2.8c1.9-1.4,3.7-2.9,4.7-5c0.5-1.2,0.9-2.5,1.2-3.8c0.3-1.4,0.4-2.8,0.4-4.2
		c0-2.6-0.4-5.1-0.9-7.6c-0.4-2.4-0.9-4.8-0.9-7.2c0-1.5,0.2-2.9,0.5-4.3c0.3-1.4,0.8-2.7,1.3-4.1l0,0l0,0c0.2-0.4,0.3-0.8,0.4-1.2
		c0.1-0.4,0.2-0.9,0.3-1.4c0.4-2.3,0.4-4.9-0.4-6.5c-0.6-1.1-1.3-1.9-2.7-2C95.5,55,95.2,55,94.9,55L94.9,55z M91.9,55.3
		c0.7,0.5,1.3,1.3,1.5,2.2c0.3,1.5,0,3.5-1.1,6.2c-0.7,1.8-1.3,3.5-1.6,5.3c-0.4,1.8-0.5,3.6-0.5,5.5c0,1.9,0.3,3.7,0.7,5.6
		c0.1,0.5,0.2,1,0.3,1.8c0.3,1.9,0.7,4.6,0.6,7.3c-0.1,2.8-0.6,5.6-2.1,7.5c-0.3,0.4-0.7,0.8-1.2,1.1c-0.4,0.3-0.8,0.6-1.3,0.8
		c-0.8,0.4-1.4,0.8-1.9,1.3c-0.5,0.5-1.1,1-1.6,1.7c-0.4,0.5-0.8,1-1.3,1.4c-1.1,1-2.7,1.4-3.9,0.5c0,0.2,0,0.3,0.1,0.5
		c1.3,0.8,2.7,0.5,4.1-0.7c0.5-0.5,1-1,1.4-1.5c0.5-0.7,1-1.2,1.5-1.6c0.5-0.4,1.1-0.8,1.9-1.2c0.4-0.2,0.9-0.5,1.3-0.9
		c0.5-0.3,0.9-0.7,1.2-1.2c1.6-2,2.1-4.9,2.2-7.8c0.1-2.7-0.3-5.5-0.6-7.4c-0.1-0.8-0.2-1.3-0.3-1.8c-0.3-1.9-0.6-3.7-0.7-5.5
		c0-1.9,0.2-3.7,0.5-5.4c0.4-1.8,0.9-3.5,1.6-5.2c1.1-2.8,1.4-4.8,1.1-6.4c-0.2-1-0.7-1.7-1.4-2.2C92.2,55.3,92.1,55.3,91.9,55.3
		L91.9,55.3z M96.5,54.9c0.3,0,0.6,0,0.8,0h0l0,0h0l0,0c0.7,0.1,1.1,0.5,1.5,1.1c1.3,1.8,1.3,5,0.9,7.7c-0.1,0.5-0.2,1.1-0.3,1.5
		c-0.1,0.5-0.3,0.9-0.4,1.3h0l0,0h0c-0.5,1.3-1,2.6-1.3,3.9c-0.3,1.3-0.5,2.7-0.5,4.1c0,2.4,0.5,4.7,0.9,7.1c0.5,2.6,1,5.1,0.9,7.8
		c0,1.5-0.2,3-0.4,4.4c-0.3,1.4-0.7,2.8-1.2,4c-1,2.3-3,3.8-4.9,5.3c-1.1,0.9-2.3,1.7-3.2,2.8h0l0,0c-0.2,0.2-0.4,0.4-0.6,0.6
		c-0.9,1-1.9,2.1-3.1,2.6h0c-0.3,0.1-0.6,0.2-0.9,0.3c-1.1,0.4-2.3,0.5-3.3,0.2c-1.3-0.3-2.1-1.4-2.5-2.6c0.5,1.1,1.8,1.9,2.6,2.2
		c0.9,0.2,2,0.1,3.1-0.2c0.3-0.1,0.6-0.2,0.9-0.3h0c1.1-0.5,2-1.5,2.9-2.5c0.2-0.2,0.4-0.4,0.6-0.7l0,0l0,0l0,0
		c1-1.1,2.1-1.9,3.3-2.8c1.9-1.5,3.8-2.9,4.8-5.1c0.6-1.2,0.9-2.6,1.2-3.9c0.3-1.4,0.4-2.8,0.4-4.3c0-2.6-0.4-5.2-0.9-7.7
		c-0.4-2.4-0.9-4.7-0.9-7.1c0-1.4,0.2-2.9,0.5-4.2c0.3-1.4,0.8-2.7,1.3-4l0,0l0,0c0.2-0.4,0.3-0.8,0.4-1.3c0.1-0.5,0.2-1,0.3-1.5
		c0.5-2.7,0.4-5.8-0.9-7.5C97.8,55.2,97.3,54.9,96.5,54.9L96.5,54.9z M91.4,55.3c0.8,0.5,1.4,1.3,1.6,2.3c0.3,1.4,0,3.3-1.1,5.9
		c-0.7,1.8-1.3,3.6-1.7,5.4c-0.4,1.8-0.6,3.7-0.5,5.6c0,1.9,0.3,3.8,0.7,5.7c0.1,0.5,0.2,1.1,0.3,1.8c0.3,1.9,0.7,4.6,0.6,7.3
		c-0.1,2.7-0.5,5.4-2,7.2c-0.3,0.4-0.7,0.7-1.1,1c-0.4,0.3-0.8,0.6-1.2,0.8c-0.8,0.4-1.4,0.9-2,1.3c-0.6,0.5-1.1,1.1-1.7,1.8
		c-0.3,0.4-0.8,0.9-1.2,1.3c-1,0.9-2.6,1.4-3.6,0.4c0-0.2-0.1-0.5-0.1-0.7l0,0c0,0,0,0,0.1,0.1l0,0c0.4,0.5,1,0.8,1.6,0.7
		c0.7,0,1.3-0.4,1.8-0.8c0.5-0.4,0.8-0.8,1.2-1.3c0.6-0.8,1.1-1.3,1.7-1.9c0.6-0.5,1.3-0.9,2.1-1.4c0.4-0.2,0.8-0.5,1.2-0.7
		c0.4-0.3,0.7-0.6,1-1c1.4-1.7,1.8-4.3,1.9-6.9c0-2.6-0.3-5.3-0.6-7.2c-0.1-0.6-0.2-1.2-0.3-1.8c-0.3-1.9-0.7-3.8-0.7-5.7
		c0-2,0.2-3.9,0.5-5.7c0.4-1.9,0.9-3.7,1.7-5.5c1-2.5,1.3-4.3,1.1-5.7c-0.2-1.1-0.8-1.8-1.6-2.4l0,0C91.1,55.3,91.2,55.3,91.4,55.3
		L91.4,55.3z M63.4,101.7c0.1,0,0.1,0.1,0.2,0.1c1.5,0.7,3.6,0.4,6-0.6c0.5-0.2,0.9-0.4,1.4-0.6c0.4-0.2,0.9-0.4,1.4-0.7l0,0l0,0
		l0.1,0c1.2-0.8,2.5-1.3,3.6-1.5c1.1-0.3,2.2-0.2,3,0c1.2,0.3,2.5,1.5,1.8,2.9c-0.1,0-0.2,0-0.3-0.1c0.5-1.1-0.7-2.1-1.6-2.3
		c-0.8-0.2-1.7-0.2-2.8,0c-1.1,0.2-2.3,0.7-3.5,1.5l-0.1,0h0l0,0c-0.5,0.3-1,0.5-1.4,0.7c-0.5,0.2-0.9,0.4-1.4,0.6
		c-2.5,1-4.8,1.3-6.4,0.5l0,0V101.7L63.4,101.7z M63.4,101.2c0.1,0.1,0.2,0.2,0.4,0.2c1.4,0.6,3.3,0.3,5.7-0.6
		c0.4-0.2,0.9-0.4,1.3-0.6c0.4-0.2,0.9-0.4,1.4-0.7l0,0l0,0l0,0c1.3-0.8,2.6-1.3,3.8-1.6c1.2-0.3,2.3-0.3,3.2,0
		c1.4,0.4,2.9,1.8,2,3.3c0.7-0.1,0.6-0.9,0.5-1.4c-0.1-0.3-0.2-0.6-0.4-0.9c-0.4-0.7-1.2-1.2-2.1-1.4c-1-0.3-2.1-0.3-3.4,0
		c-1.2,0.3-2.5,0.8-3.9,1.6l0,0h0l0,0c-0.5,0.2-0.9,0.5-1.4,0.7c-0.4,0.2-0.9,0.4-1.3,0.6c-2.2,0.9-4.1,1.1-5.3,0.6
		c-0.3-0.1-0.4-0.3-0.6-0.4l0,0l0,0L63.4,101.2L63.4,101.2z M78.4,105.3c-0.7-0.3-1.7-0.2-2.8,0c-1.5,0.4-3.2,1.1-4.7,1.7l0,0l0,0
		c-0.5,0.2-0.9,0.4-1.4,0.5c-0.4,0.1-0.9,0.2-1.3,0.3c-2.1,0.4-3.5,0.2-4.8-0.8v0.2c0,0.1,0,0.2,0.1,0.3c0.2,0.2,0.4,0.3,0.7,0.4h0
		c1.1,0.5,2.5,0.6,4.2,0.3c0.5-0.1,0.9-0.2,1.4-0.3c0.5-0.1,0.9-0.3,1.4-0.6l0,0l0,0c1.4-0.7,3.1-1.4,4.6-1.7c1.1-0.3,2.1-0.3,2.7,0
		C78.4,105.7,78.4,105.5,78.4,105.3L78.4,105.3z M78.3,104.3c-0.8-0.2-1.8-0.1-2.9,0.1c-1.6,0.4-3.4,1.1-4.8,1.8l0,0l0,0
		c-0.4,0.2-0.8,0.4-1.2,0.5c-0.4,0.1-0.8,0.2-1.2,0.3c-2.3,0.4-3.4,0.2-4.7-1.2v0.6c1.3,1.2,2.5,1.4,4.8,1c0.4-0.1,0.9-0.2,1.3-0.3
		c0.4-0.1,0.9-0.3,1.3-0.5l0,0l0,0h0c1.4-0.7,3.2-1.4,4.7-1.8c1.1-0.2,2-0.3,2.8-0.1C78.3,104.7,78.3,104.5,78.3,104.3L78.3,104.3z
		 M64.3,98.9L64.3,98.9L64.3,98.9c-0.3,0.2-0.6,0.5-0.8,0.8h0c-0.1,0.1-0.1,0.2-0.1,0.3c0,0.1,0.1,0.2,0.1,0.2
		c0.6-1.1,1.8-1.5,3-1.5h0.1v-0.4C65.8,98.4,65,98.5,64.3,98.9L64.3,98.9z M64.2,100.8c0,0-0.1,0-0.1-0.1h0c-0.1,0-0.2-0.1-0.3-0.2
		c0.6-0.9,1.7-1.3,2.8-1.3l0,0.4C65.7,99.7,64.8,100.1,64.2,100.8L64.2,100.8z M81.7,102.1c-0.6,0.4-1.6,0.1-2.2-0.3
		c-0.6-0.4-1-0.4-1.2-0.2c-0.1-0.6,0.3-0.8,0.9-0.4c0.1,0,0.1,0.1,0.2,0.1l0,0c0.6,0.4,1.5,0.8,2.3,0.4l0-0.5c0,0,0,0,0,0
		c-0.5,0.4-1.3,0.2-1.8-0.1c-0.4-0.2-1-0.8-1.5-0.6c-0.3,0.1-0.3,0.5-0.3,0.8c0,0.3,0.2,0.6,0.4,0.9c-0.2-0.6,0.6-0.2,0.8,0
		c0.4,0.3,1,0.5,1.5,0.6C81.1,102.6,81.4,102.4,81.7,102.1L81.7,102.1z M90,55.5c-0.2,0.1-0.3,0.2-0.4,0.3C89,56.3,89.1,57,90,57.9
		c0.3,0.3,0.6,0.6,0.8,0.9c0.3,0.4,0.4,0.9,0.2,1.4c-0.1,0.3-0.2,0.5-0.5,0.7l0,0c0,0,0,0,0,0c0.3,0,0.5-0.1,0.7-0.2
		c0.2-0.4,0.3-0.8,0.3-1.2c0-0.5-0.3-1-0.7-1.4c0,0-0.1-0.1-0.1-0.1l0,0c-0.4-0.4-0.8-0.8-1-1.2c-0.3-0.5,0.1-0.8,0.5-1
		c-0.2,0.3-0.2,0.6,0,1c0.2,0.4,0.7,0.9,1.1,1.2c0.5,0.6,0.7,1.6,0.4,2.3c0.2-0.2,0.3-0.5,0.5-0.8c0-0.2,0-0.4,0.1-0.6
		c-0.1-0.5-0.4-1-0.7-1.3c-0.4-0.4-0.8-0.8-0.9-1.1c-0.2-0.4,0-0.7,0.3-0.8C90.7,55.5,90.3,55.3,90,55.5L90,55.5z M90,55.5"/>
	<path d="M39.7,20.9l11.5,8.8l-2.4-12.9l6.3,7.7l-0.6-8.3l6.1,8.6l0.5-1.9c-0.9-0.2-1.5-1.1-1.5-2c0-0.8,0.4-1.4,1-1.8
		c-0.4-0.4-0.7-1-0.7-1.6c0-1,0.7-1.9,1.7-2.1c0.1-1,0.8-1.7,1.6-1.7c0.8,0,1.5,0.8,1.6,1.7c1,0.2,1.7,1,1.7,2.1
		c0,0.6-0.3,1.2-0.7,1.6c0.6,0.4,1,1,1,1.8c0,1-0.6,1.8-1.5,2l0.5,1.9l6.1-8.6l-0.6,8.3l6.3-7.7L75,29.7l11.5-8.8L76.3,39.6H49.8
		L39.7,20.9z M39.7,20.9"/>
	<path class="st9" d="M40.5,21.9L50,39.3h26.1l9.5-17.4l-11,8.5L77,17.9L66.9,30.3l-3.8-13.7l-3.8,13.7L49.2,17.9l2.3,12.5
		L40.5,21.9z M70.9,25l0.5-7.7l-5.6,8l1.2,4.4L70.9,25z M60.3,25.3l-5.6-8l0.5,7.7l3.9,4.8L60.3,25.3z M64.4,15.9
		c0.9,0.1,1.7,0.9,1.7,1.8c0,0.7-0.4,1.3-1,1.6c0.7,0.2,1.3,0.9,1.3,1.7c0,0.8-0.6,1.5-1.3,1.8l-2-7.2l-2,7.2
		c-0.8-0.2-1.3-0.9-1.3-1.8c0-0.8,0.5-1.5,1.3-1.7c-0.6-0.3-1-0.9-1-1.6c0-1,0.7-1.8,1.7-1.8c0-1,0.6-1.7,1.4-1.7
		C63.8,14.2,64.4,14.9,64.4,15.9L64.4,15.9z M64.4,15.9"/>
	<path class="st6" d="M48.3,36.3l1,1.8c2-0.8,4.5-1.3,7.2-1.6c1.2-0.1,2.5-0.3,3.8-0.3c1.3-0.1,2.6-0.1,3.9-0.1
		c4.7,0.1,9.3,0.8,12.6,2l1-1.8c-2.9-1.2-6.5-1.9-10.3-2.2c-2.5-0.2-5.1-0.2-7.7-0.1C55.5,34.3,51.5,35,48.3,36.3L48.3,36.3z
		 M47.9,35.6c2.3-1,5.1-1.6,8.1-2.1c1.3-0.2,2.7-0.3,4.1-0.4c1.4-0.1,2.8-0.1,4.2-0.1c5.1,0.1,10.1,1,13.9,2.5l5.5-10.2l-10.8,8.3
		l-0.1,0l2-10.6l-7.9,9.8c-0.3,0-0.6,0-0.9-0.1l-2.9-10.2l-2.9,10.2c-0.3,0-0.6,0-0.9,0.1l-7.9-9.8l2,10.6l-0.1,0l-10.8-8.3
		L47.9,35.6z M76.1,38.5c-6.8-2.3-19-2.2-26,0H76.1z M66.3,27.4l3-4.2L69,27.2l-2,2.5L66.3,27.4z M59.8,27.4l-3-4.2l0.3,4.1l2,2.5
		L59.8,27.4z M59.8,27.4"/>
	<path class="st10" d="M48.5,36.5l0.7,1.3c2.1-0.8,4.6-1.3,7.3-1.6c1.2-0.1,2.5-0.3,3.8-0.3c1.3-0.1,2.6-0.1,3.9-0.1
		c4.7,0.1,9.4,0.8,12.7,2l0.7-1.3c-2.8-1.1-6.4-1.9-10.2-2.2c-2.5-0.2-5.1-0.2-7.6-0.1C55.6,34.5,51.6,35.3,48.5,36.5L48.5,36.5z
		 M67.2,32.9c1.8,0.1,3.7,0.4,5.4,0.7l1.8-9.5L67.2,32.9z M53.6,33.7c1.8-0.4,3.6-0.6,5.4-0.7l-7.2-8.8L53.6,33.7z M60.5,32.8
		c1.7-0.1,3.4-0.1,5.2,0l-2.6-9.2L60.5,32.8z M83.4,26l-5.1,9.3c-1.5-0.6-3.2-1.1-5.1-1.5L83.4,26z M47.8,35.4L42.7,26l10.1,7.8
		C51,34.2,49.3,34.7,47.8,35.4L47.8,35.4z M47.8,35.4"/>
	<path d="M63.1,100.1c-0.4-1-0.7-1.7-1.3-2.3c-0.7-0.7-1.7-1.2-2.9-1.2H42.2c-1.2,0-2.3-0.5-3.1-1.3c-0.8-0.8-1.3-1.9-1.3-3.1l0-53
		h50.3v53c0,1.2-0.5,2.3-1.3,3.1c-0.8,0.8-1.9,1.3-3.1,1.3H67.3c-1.1,0-2.1,0.5-2.9,1.2C63.7,98.5,63.4,99.1,63.1,100.1L63.1,100.1z
		 M63.1,100.1"/>
	<path class="st6" d="M64.3,97.4c0.7-0.7,1.7-1.1,2.9-1.1h16.6c1.1,0,2.1-0.5,2.9-1.2c0.7-0.7,1.2-1.7,1.2-2.9l0-52.7H38.2l0,52.7
		c0,1.1,0.5,2.1,1.2,2.9c0.7,0.7,1.7,1.2,2.9,1.2h16.6c1.2,0,2.3,0.5,2.9,1.1c0.7,0.7,1,1.3,1.2,2C63.3,98.7,63.7,98.1,64.3,97.4
		L64.3,97.4z M64.3,97.4"/>
	<path d="M66.9,47.9c0,0,0.1-0.1,0.2-0.1c0.1,0,0.2,0,0.2,0.1c0.6-0.2,1.1-0.4,1.7-0.4c0.9,0,2.3,0.1,3.1,0.7
		c0.6,0.5,0.8,1.3,0.6,2.3c0.1,0,0.2,0.2,0.2,0.3c0,0-0.1,0.1-0.1,0.1c0.3,0.5,0.4,1,0.4,1.6c0.4,0.1,2.2,0.7,2.2,1.2
		c0.3,0.3,0.6,0.7,0.7,1.4c0.2,0.3,0.2,0.7,0.4,1.1c0,0.1,0.1,0.2,0.1,0.4c0.2,0.3,0.2,0.7,0,0.9c0.2,0.3,0.4,0.6,0.4,1
		c0,0.1,0.1,0.2,0.1,0.3c0.2,0.2,0.4,0.5,0.6,0.7c0.3,0.4,0.7,0.7,1,1.1c0.6,0.8,1.2,1.9,1.8,2.7c0.4,0.7,0.9,0.9,1.5,1.7
		c1.1,1.4,1.8,2.9,2.3,4.7c0.2,0.6,0.4,1.2,0.5,1.8c0.1,0.4,0.3,0.9,0.3,1.4c0,0.1,0,0.3,0,0.5c0,0.6,0.2,1.2,0.5,1.7
		c-1.3-0.8-1.4-1.7-1.8-3.1l-0.2,0.4c-0.3-0.4-0.4-0.8-0.5-1.4l-0.1,0.1c-0.3-0.4-0.3-0.7-0.4-1.2c0,0.1,0,0.2-0.1,0.3
		c-0.6-0.6-0.7-1.8-0.8-2.7c-0.1-0.7-0.3-1.6-0.7-2.1c0.5,1.3,0.7,2.5,0.6,3.9l-0.2-0.1c0.1,0.5,0.2,1,0,1.4
		c0.2,0.6,0.3,1.3,0.1,1.9c0.5,0.9,0.9,1.8,1.2,2.8c0.2,0.5,0.3,0.9,0.6,1.2c0.2,0.2,0.4,0.3,0.7,0.4c0,1.1,0,1.8-0.1,2.7
		c-0.1,1-0.3,2.1-0.3,3.1c0,0.3,0,0.6,0.1,0.9c0.1,0.7,0.1,1.4-0.1,2.1c-0.9,0.2-1.5,0.8-1.8,1.6h-4.3c0.3-1.1,1.2-1.7,2.5-1.8
		c0.1-0.3,0.2-0.6,0.4-0.9c0.6-0.6,1.2-1.5,1.2-2.4c0.1-0.8,0.1-1.7-0.1-2.5c-0.1-0.7-0.4-1.4-0.8-2c-0.4-0.6-0.6-1.3-0.9-1.9
		c-0.3-0.7-0.8-1.3-1.4-1.7c0.2,0.8,0.2,1.4,0.1,2.1c0,0.6,0,1.1,0.2,1.7c0.1,0.2,0.2,0.4,0.1,0.7c-0.2,0.5-0.5,1-0.8,1.5
		c-0.4,0.6-0.7,1.3-1.1,1.9c-0.6,1.2-1.2,2.5-1.5,3.8c-0.9,0.3-1.9,0.7-2.4,1.4h-4c0.3-1.1,1-1.6,2-1.8c0.3,0,0.6-0.1,0.8-0.1
		c0.6-0.2,0.5-0.4,0.7-0.7c0.1-0.3,0.5-0.5,0.7-0.8c0.4-0.4,0.7-0.7,0.9-1.1c0.6-0.8,1.3-2.2,1.6-3.2c0-0.8-0.1-2.2-0.3-3.1
		c-0.2-0.8-1.1-2-1.5-3.8c-0.5-0.5-1-1.2-1.4-1.8c-0.7,0.4-1.9,0.8-3,0.7l0.1,0.3c-0.3,0-0.7,0.1-1,0l0.1,0.1
		c-0.5,0.2-1.3,0.4-2.3,0.1c0.1,0.1,0.2,0.2,0.4,0.3c-0.7,0-1.4,0.1-2.1,0c0.6,1.8,0.8,3.8,0.2,5.1c0.3,1.5,0.2,3,0.3,4.5
		c0,0.3,0.3,0.9,0.4,1.6c0.1,0.6,0,1.3-0.2,2l0,0.2c-0.9-0.3-2,1.3-2.3,1.5h-3.8c0.2-0.6,0.4-1,0.9-1.4c0.4-0.3,0.9-0.5,1.4-0.5
		c0.2,0,0.3-0.3,0.4-0.4c0.2-0.4,0.7-0.8,1.1-1c0.2-0.1,0.3-0.2,0.4-0.3c0.2-0.7-0.1-2.1-0.3-2.8c-0.1-0.6-0.3-1.7-0.6-2.3
		c-0.2-0.2-0.5-0.4-0.5-0.8c-0.2-0.9-0.8-2.3-1.1-3.1c-0.2,0.6-0.4,1.2-0.9,1.6c-0.2,1.3-0.6,1.8-1,2.5c-0.2,0.4-0.2,0.7-0.3,1
		c-0.1,0.9-0.2,1.9-0.2,2.8c0,0.4,0,0.8,0,1.2c0,0.3,0,0.6,0,1c0,0.1,0,0.3,0,0.4c0,0.1-0.1,0.2-0.3,0.3c-0.9,0.4-1.4,1-1.9,1.8
		h-4.1c0.1-0.6,0.4-1.2,1-1.6c0.4-0.2,0.9-0.3,1.3-0.4l0.2,0c0.2-0.1,0.5-0.3,0.5-0.6c0-0.3,0.2-0.5,0.4-0.7
		c0.2-0.2,0.4-0.4,0.6-0.5c0.2-0.2,0.4-0.4,0.5-0.6c0.1-0.7,0.2-1.9,0.2-2.4c0.1-1.2,0.1-1.7-0.5-2.7c0.2-1,0.2-1.8,0-2.8
		c-0.1,0.1-0.3,0.2-0.4,0.2c0.1-0.2,0-0.7,0-0.9c-0.2,0.2-0.5,0.3-0.8,0.4c0.2-0.3,0.3-0.8,0.3-1.2c-0.3,0.2-0.6,0.4-0.9,0.5
		c0.5-0.5,0.6-1,0.5-1.7c-0.1-0.4-0.2-0.8-0.4-1.2c-0.4,0.9-0.9,1.5-1.3,2.3c-0.4,0.8-0.8,1.7-0.7,2.6c-0.2-0.3-0.5-0.7-0.5-1.1
		c-0.1,0.3-0.1,0.9-0.1,1.1c-0.2-0.2-0.4-0.4-0.5-0.7c-0.2,0.8-0.7,1.3-1.4,1.5c0.3-0.5,0.6-1.1,0.5-1.7c-0.1,0.6-0.2,1-0.7,1.3
		c-0.1-0.6-0.4-0.9-0.9-1.4c-1-0.8-2.1-2-2.4-3.1c0,0.6,0,1,0.2,1.6c-0.8-0.8-1.5-2-1.5-3.2c-0.1,0.4-0.1,0.8-0.1,1.2
		c-0.4-0.5-0.7-1.8-0.5-2.6c-0.2,0.3-0.4,0.4-0.8,0.6c0.4-0.8,0.5-1.4,0.5-2.3c-0.2,0.3-0.4,0.5-0.7,0.7c0.2-0.9,0.3-1.9,0.3-2.8
		c0-0.7,0.1-1.4,0.4-2.1c-0.1,0.1-0.2,0.2-0.4,0.2v-0.1c-0.2,0.2-0.4,0.4-0.7,0.5c0.1-0.2,0.1-0.4,0.2-0.5c-0.2,0.3-0.5,0.4-0.9,0.5
		c0.4-0.5,0.5-1,0.5-1.6c0-1-0.3-2.2,0.3-3c-0.3,0.1-0.7,0.3-1,0.5c-0.3,0.2-0.6,0.2-0.9-0.1c-0.1-0.1-0.3-0.4-0.3-0.4
		c-0.4,0-0.7,0-0.9-0.4c-0.2-0.5,0-1,0.3-1.4c0.3-1,1.1-1.3,2.1-1.8c0.5-0.2,0.9-0.4,1.4-0.7c0.6-0.4,1.3-1,1.5-1.8
		c0.1-0.4,0-0.8-0.3-1.1c0.3,0.1,0.5,0.2,0.8,0.4c0.1-0.2-0.1-0.6-0.1-0.8c0.3,0.1,0.7,0.4,0.9,0.8c0.1-0.2,0.1-0.6,0.1-0.8
		c0.3,0.4,0.6,0.9,0.7,1.4c0.2-0.3,0.2-0.8,0.3-1.2c0.4,0.3,0.6,0.8,0.6,1.3c0.2-0.3,0.3-0.6,0.3-0.9c0.2,0.2,0.4,0.6,0.4,0.9
		c0.2-0.2,0.2-0.5,0.3-0.7c0.2,0.3,0.3,0.7,0.3,1.1c0.2-0.1,0.4-0.3,0.5-0.4v0.6l0.3-0.4c0.1,0.3,0.1,0.6,0.1,0.9l0.2-0.1
		c0.1,0.3,0,0.5,0,0.7l0.1,0c0,0.2,0,0.5,0,0.7c0.6,0.1,1,0.7,1.3,1.2c0.2,0.4,0.5,1.1,0.5,1.6c0.2,0.5,0.2,1.3,0.2,1.7
		c0.1,0.6,0.2,1.3,0.1,1.8l-0.3-0.1c0,0.3,0,0.6,0,1c0.7-1.8,1.4-3.2,2.8-4.7c0.7-0.7,1.6-1.5,2.6-1.9c0.3-1,0.8-2.3,1.7-2.9
		c0.1-0.7,0.2-1.3,0.4-1.8c-0.2-0.1-0.2-0.2,0-0.4c-0.2-0.5-0.3-0.9-0.2-1.4c0.4-1.6,2.3-2.1,3.7-2.1C65.1,47.5,66,47.6,66.9,47.9
		L66.9,47.9z M66.9,47.9"/>
	<path class="st11" d="M51.3,55c-0.1,0.2-0.3,0.5-0.6,0.8c-0.4,0.3-1,0.2-1,0.2c0.9-0.1,1.5-0.8,1.5-1.7l-0.1,0.1
		c-0.1,0.4-0.5,0.7-0.9,0.8c0.7-0.4,1-1,0.9-1.5l-0.4,0.4v-0.7c-0.1,0.1-0.2,0.2-0.4,0.3c-0.1,0.4-0.2,0.7-0.2,0.9
		c0.2,0,0.3,0,0.4,0c0.1,0.1-0.1,0.3-0.3,0.5c-0.1,0.1-0.6,0.8-1,0.9c-0.4,0.2-0.9,0.1-1.2,0c0.6,0,1-0.5,1.4-0.9
		c-0.5,0-1.1,0.1-1.6,0.4c0.5-0.5,1.2-0.6,1.9-0.5c-0.2,0.6-0.7,0.8-1,1c0,0,0.4,0,0.8-0.4c0.4-0.3,0.5-0.7,0.8-0.9c0,0-0.3,0-0.6,0
		c-0.3,0-1,0-1.3,0.1c-0.4,0.1-0.7,0.4-0.7,0.4c0.1-0.5,0.6-0.6,1-0.6c0.3-0.7,0.5-1.7,0-2.3c-0.1,0.5-0.1,0.7-0.4,0.9
		c0.1,0.7-0.2,1.4-0.8,1.9c0.6-0.8,0.9-1.8,0.2-2.9c0,0.4-0.2,0.7-0.2,0.7c0,0-0.3-0.6-0.6-0.9c0,0.2,0,0.4-0.1,0.6
		c0.1,0.1,0.4,0.5,0.5,1c0.2,0.8-0.4,1.3-0.4,1.3c0.2-0.4,0.3-0.8,0.3-1.2c0-0.3-0.3-0.8-0.4-0.9c-0.1-0.1-0.2-0.2-0.4-0.3
		c0.4,1.1-0.7,2.2-1.6,2.7c-0.4,0.3-0.9,0.5-1.4,0.7c-0.4,0.1-0.7,0.3-1,0.5c-0.6,0.3-0.8,0.8-0.9,1c0.1-0.1,0.3-0.3,0.4-0.3
		c0.3-0.1,0.6-0.3,0.8-0.2c0.2,0,0.2,0.3,0,0.4c-0.1,0.1-0.5,0-0.8,0.2c-0.3,0.1-0.5,0.4-0.7,0.5c-0.1,0.3-0.3,0.6-0.1,0.9
		c0.1,0.4,0.5,0.4,0.6,0.3c0.2-0.1,0.8-0.5,1.1-0.7c0.4-0.3,1-0.6,1.1-0.6c0,0,0.1,0.1,0.1,0.2c0,0.1,0.2,0.2,0.1,0.3
		c-0.1,0.1-0.3,0-0.5,0s-0.3,0-0.5,0.1c-0.1,0.1-0.5,0.3-0.8,0.5c-0.4,0.2-0.7,0.3-0.3,0.8c0.1,0.1,0.3,0.3,0.6,0
		c0.7-0.5,1.4-0.7,1.8-0.8c-1,1-0.9,2.1-0.9,3.5c0,0.5-0.1,1-0.2,1.2C43.6,63.4,44,63,44,62c0-1,0.3-2.7,0.9-3.2
		c-0.8,1.2-0.6,2.6-0.7,3.4c-0.1,0.8-0.3,1.1-0.3,1.2c0.3-0.3,0.5-0.7,0.7-1c0.5-1.2,0.3-1.9,0.9-2.9c-0.5,1.4,0.1,1.8-1,3.7
		c1-0.9,1.5-2.4,1.5-3.8c0.2,0.6,0,1.4,0,1.4c0.3-0.4,0.5-1.1,0.6-1.4l-0.2-0.3c0.4,0.3,1.1,0.3,1.4,0.2c0,0-0.3-0.1-0.6-0.3
		c0.6,0.1,1-0.1,1.2-0.2c0,0-0.6,0-1-0.3c0.9,0.3,1.1-0.1,1.2-0.2c0,0-0.6,0-0.9-0.4c0,0,0.6,0.3,1.1,0.3c0.5-0.1,0.8-0.4,0.8-0.4
		s-0.5,0.2-1.3-0.2c0.8,0.3,1.8,0,2.2-0.8c-0.4,0-0.9-0.1-1.3-0.3C50.4,56.9,51.4,56.4,51.3,55L51.3,55z M48.7,54.7
		c0.3,0,0.5,0,0.7,0c0.2-0.6,0.3-1.3,0-1.9c-0.1,0.3-0.2,0.5-0.4,0.7C48.9,53.8,48.9,54.4,48.7,54.7L48.7,54.7z M49.5,54.7
		c0.1,0,0.2,0,0.3,0c0.2-0.4,0.3-1.2,0.1-1.7c-0.1,0.2-0.1,0.3-0.3,0.5C49.8,53.8,49.7,54.4,49.5,54.7L49.5,54.7z M60.5,55
		c-0.1-0.5-0.1-1.1-0.1-1.6c-0.8,0.7-1.2,1.8-1.5,2.8c-1,0.5-1.9,1.2-2.6,2c-0.9,0.9-1.4,1.8-1.8,2.6c-0.6,1.1-1.3,3.3-1.5,5.1
		l-0.4-0.1c0.7-1.4,0.7-4.4,0.7-4.4l0.3,0.2c0-1.4-0.4-2.1-0.4-2.1c0.1,0.1,0.2,0.2,0.3,0.3c0-0.7-0.1-1.3-0.5-2
		c0.1,0,0.2,0.2,0.3,0.3c0-0.4-0.3-1-0.5-1.4c-0.3-0.4-0.6-1-1.1-1.1c-0.2,0.6-0.5,1.1-1.3,1.2l0.3,0.1c0,0-0.3,0.8-0.8,0.9
		c0,0-0.3,0.5-0.9,0.6c0,0-0.2,0.2-0.4,0.3c0,0,0.2,0,0.4,0c0,0-0.2,0.5-0.9,0.5l0.3,0.1c0,0-0.6,0.5-1.4,0.2c0,0-0.3,1.3-0.8,1.7
		c0,0-0.3,1-0.9,1.7c-0.2,0.6-0.5,1.5-0.5,2.6c0,1-0.1,1.8-0.2,2.2c0.2-0.2,0.3-0.4,0.4-0.6c0.3,0.8,0.2,1.5-0.1,2.3
		c0.4-0.4,0.7-1.1,0.8-2.1c0.1,0.9-0.2,1.4-0.3,2c-0.1,0.7,0,1.4,0.2,1.8c0.1-0.5,0.3-1.2,0.6-1.7c-0.3,1.4,0,2.7,0.8,3.9
		c-0.1-0.8,0.1-1.8,0.4-2.2c-0.4,1.7,1,3,2.2,4.2c0.4,0.3,0.8,0.7,0.9,1.2c0.2-0.3,0.3-0.7,0.4-1.1c0.1-0.4-0.2-1.1,0.2-1.5
		c0,0-0.2,0.8,0.1,1.3c0.3,0.6,0.1,1-0.1,1.5c0.8-0.6,0.9-1.4,0.8-2.3c0.2,0.4,0.1,1,0.5,1.4c0-0.5,0.4-1.1,0.5-1.6
		c0,0.5-0.1,1,0.2,1.4c0.1-0.6,0.5-1.4,0.8-1.9c1-1.7,2-2.8,1.6-4.8c0.5,1.2,0,2.4,0,2.4s0.3,0.4,0.5,1.3c0.1,0.5,0,0.9-0.1,1.2
		c0.1-0.1,1-0.9,0.8-3.5c0.4,2.4-0.3,3.2-0.3,3.2c0,0.3,0,0.8-0.1,1c0,0,0.8-0.4,0.9-1.2c0,0.5-0.4,1-0.4,1c0,0.3,0.1,0.5,0.1,0.7
		c0.1-0.1,0.5-0.5,0.8-1.6c-0.1,1.1-0.4,1.5-0.4,1.5c0.4,0.9,0.1,2.7,0.1,3c0.7,0.9,0.7,1.7,0.6,2.8c0,0.4-0.1,0.8-0.1,1.2
		c-0.1,0.8-0.2,1.5-0.2,1.6c-0.1,0.1-0.3,0.3-0.5,0.5c-0.2,0.1-0.4,0.3-0.6,0.5c-0.3,0.3-0.3,0.4-0.3,0.6c-0.1,0.3-0.3,0.6-0.6,0.8
		c-0.4,0.2-1,0.5-1.2,0.8c-0.2,0.3-0.3,0.7-0.3,0.8h3c0.3-0.4,0.7-0.9,1-1.2c0.3-0.3,0.5-0.4,0.7-0.5c0.1-0.1,0.3-0.1,0.3-0.2
		c0-0.1,0-0.6,0-1.2c0-0.4,0-0.9,0-1.4c0-1.4,0.3-3,0.3-3.4c0-0.3,0.2-0.6,0.4-1c0.4-0.6,0.7-1.4,0.8-2.1c0.5-0.5,0.9-1.4,1-2
		c1.1-1.2,1-3.5,0.5-4.9c0.3,0.5,0.5,1.2,0.6,1.9c0.2-0.9,0.3-2,0-2.8c0.1,0.1,0.2,0.3,0.2,0.5c0.5-1.7-0.3-3.2-0.5-3.7
		c0.6,0.9,1.2,2.1,0.6,4c0.1,0.8,0,1.7-0.3,2.6c1.3,0.6,3.4,0.5,4.1,0.5c-0.1-0.1-0.2-0.3-0.3-0.4c0.8,0.2,1.7,0.3,2.5,0.1l-0.5-0.5
		c0.5,0.2,1,0.3,1.6,0.2l-0.1-0.4c1,0.2,2.3-0.2,3.2-0.6c-1.5-2.5-1.7-5.5-1.2-8.4c-0.9,0.4-1.9,0.4-2.9,0.2
		c-1.4-0.3-2.8-0.1-4.1,0.3c-2.1,0.6-4.2-0.2-4.7-2.3C59.4,59,59.9,56.8,60.5,55L60.5,55z M65.2,82.3c0-1.4,0-2.9-0.3-4.4
		c-0.2-0.9-0.5-1.9-0.9-2.7c0,0,0.7,1.1,1,2.3c0.2-0.6,0.2-1.2,0.2-1.5c-0.1-0.4-0.3-1-0.7-1.6c0.3,0.2,0.5,0.4,0.7,0.8
		c-0.1-1-0.4-1.9-0.5-2.4c-0.9,0-1.7-0.2-2.5-0.5c0,0,0,1.3-0.9,2.4c0.2,0.4,0.4,1,0.7,1.6c0.3,0.8,0.4,1.3,0.5,1.7
		c0,0.3,0.3,0.5,0.5,0.7c0.2,0.3,0.5,1.2,0.8,2.8c0.3,1.4,0.3,2.3,0.1,2.6c-0.1,0.2-0.3,0.3-0.5,0.4c-0.4,0.3-0.8,0.6-1,1.1
		c-0.1,0.1-0.3,0.4-0.5,0.4c-0.9,0.5-1.3,1.2-1.4,1.6h2.7c0.5-0.5,1.2-1.5,2.2-1.6c0.2-0.7,0.2-1.4,0.2-1.9
		C65.5,83.4,65.3,83,65.2,82.3L65.2,82.3z M84.1,77.4c-0.1,0-0.4-0.1-0.6-0.3c-0.3-0.2-0.4-0.7-0.7-1.4c-0.2-1-0.7-2-1.2-2.9
		c0.2-1.1-0.1-2.1-0.6-2.8c0.4,0.2,0.6,0.5,0.6,0.5c0-0.8-0.2-1.6-0.7-2.1c0.3,0.2,0.5,0.4,0.8,0.7c0.1-2.1-0.5-3.5-0.7-4
		c-0.2-0.2-0.3-0.3-0.5-0.4c0.4,0.9,0.6,2.3,0.1,3.3l-0.1-0.1c0.1,1.1-0.1,1.8-0.1,1.8l-0.1-0.2c0.1,0.7-0.3,1.3-0.3,1.3L79.8,71
		c0.1,0.6-0.2,1.2-0.2,1.2L79.5,72c-0.1,0.8-0.6,1.9-0.8,2.2c1,0.7,1.4,1.4,1.7,1.9c0.3,0.7,0.4,1.3,0.9,1.9c0.3,0.4,0.7,1.2,0.8,2
		c0.1,0.7,0.1,1.4,0,2.6c0,1-0.9,2.1-1.3,2.5c-0.2,0.3-0.3,0.5-0.4,0.9c-0.8,0.2-1.5,0.6-1.9,1.4h3.3c0.5-1.2,1.4-1.5,1.8-1.5
		c0.1-0.6,0.1-1.3,0-1.9c0-0.3-0.1-0.6-0.1-0.9c0-0.8,0.2-2.2,0.3-3.1C84,79.1,84.1,78.2,84.1,77.4L84.1,77.4z M73.3,52.8
		c0,0.3,0,0.6-0.1,0.9c1.2,2.2,1.1,5.7-0.4,7.9c-0.3,0.4-0.6,0.7-1,1c-0.7,3.6-0.2,7.4,2.4,10.1c-0.4-1.5-1-3.7-1-3.7
		c0.8,1.9,1.2,4.3,1.9,6c0.3,0.6,0.8,1.7,0.9,1.9c0,0,0.4,2.5,0.3,3.2c-0.1,0.7-0.9,2.4-1.6,3.3c-0.6,0.8-1.2,1.3-1.5,1.6
		c-0.3,0.4-0.2,0.9-1,1c-0.1,0-0.2,0-0.3,0c-1.1,0.3-1.5,1.2-1.6,1.5h2.9c0.2-0.3,0.8-0.9,2.4-1.4c0.1-0.4,0.5-2.1,1.5-3.8
		c0.4-0.8,0.8-1.4,1.1-1.9c0.5-0.8,0.8-1.3,0.8-1.5c0-0.1,0-0.3-0.1-0.5c-0.1-0.4-0.3-0.9-0.2-1.7c0.1-0.9,0-1.5-0.1-2.3
		c0.4-0.7,0.9-2.4,0.8-3.1l0.2,0.5c0.1-0.5,0.1-0.9,0-1.4l0.3,0.5c0.2-0.3,0.3-1.3,0.2-1.9l0.2,0.6c0.1-0.4,0.1-1.5-0.2-2.1
		c0.2,0.2,0.3,0.4,0.4,0.5c0.4-1.2,0.1-2.3-0.5-3.6l1.3,1c0.5,0.5,0.8,1.3,1,2.5c0.1,0.7,0.1,1.6,0.5,2.2c0-0.1,0.3-0.8,0.3-0.8
		c0,0.2,0.1,1.4,0.3,1.8l0.3-0.5v0.6c0,0.2,0.1,0.8,0.3,1.2c0.1-0.2,0.2-0.4,0.3-0.6c0.2,1.1,0.4,2.3,1.3,3.1
		c-0.1-0.4-0.3-1-0.3-1.6c0-0.1-0.2-1.2-0.8-3.2c-0.7-2.1-1.5-3.6-2.4-4.7c-0.5-0.5-1.1-1-1.4-1.6c-0.2-0.4-1.1-1.9-1.7-2.6
		c-0.5-0.6-1.1-1.2-1.6-1.8c-0.1-0.2-0.2-0.4-0.2-0.6c0-0.2-0.3-0.9-0.6-1.2c0.1-0.1,0.3,0.1,0.4,0.1c0.1-0.4-0.2-0.9-0.6-1
		c0,0,0-0.1,0.3,0c-0.2-0.6-0.2-1.2-0.9-1.5c0,0,0.2-0.1,0.4,0.1c-0.1-0.5-0.5-1-1-1.2c0,0,0.1,0,0.3,0
		C75.2,53.6,74.7,53.3,73.3,52.8L73.3,52.8z M73.3,52.8"/>
	<path class="st1" d="M73.9,71.6c-0.3-1.3-0.7-2.7-0.7-2.7l-0.1-0.7c0,0,1.4,3.2,2.2,5.2c0.7,2,1.4,3.1,1.4,3.1
		c-0.3,0.9-0.1,2.4-0.1,2.4c0.5-0.9,1.6-1.7,1.6-1.7c0-0.6,0.1-1,0.1-1.6c0-0.6-0.1-1.4-0.1-1.6c0.5-1.2,0.8-2.5,0.7-4
		c0.2,0.2,0.4,0.5,0.5,0.9c0-0.7-0.3-1.6-0.3-1.6c0.1,0.1,0.2,0.1,0.3,0.3c0.4-1.8-0.2-3-0.2-3c0.4,0.2,0.6,0.5,0.6,0.5
		c0.3-2.2-0.9-4.1-0.9-4.1l0.4,0.1c-0.2-0.5-1-1.6-1.3-2.1c-0.4-0.5-1-1.3-1.4-1.9c-0.4-0.7-0.3-1.6-0.9-2.2c0.1,0,0.3,0,0.4,0.1
		c0-0.6-0.6-1.2-0.6-1.2c0.1,0,0.3,0,0.4,0.1c-0.1-0.6-0.3-1.1-0.7-1.3l0.4,0c-0.2-0.6-1-1-1-1l0.3-0.1c-0.3-0.1-0.8-0.2-1.1-0.3
		c0.5,1.1,1.2,2.8,1.2,4.5c0,1.8-0.9,3.7-1.5,4.2c-0.5,0.5-1.1,0.9-1.3,1.2c-0.2,0.2-0.3,1.6-0.3,1.6l0.3-1c0,0-0.1,1.4-0.2,2.2
		l0.2-0.5c0.1,0.8,0,1.9,0.1,2.5l0.1-0.7c0,0,0.2,0.4,0.2,0.7c0,0.3,0.2,1.5,0.5,2.5l0-0.8C73,69.6,73.2,70.5,73.9,71.6L73.9,71.6z
		 M51.5,55.6L51.5,55.6L51.5,55.6L51.5,55.6z M50.7,75.5c0,0,0-0.1,0-0.1c0-0.2,0-0.5,0-0.7c0-0.6,0.2-0.8,0.3-1.1c0,0,0,0.8,0,1
		c0.1,0.3,0.2,0.7,0.2,0.7c0.3-0.5,0.4-1.5,0.7-2.2c0.3-0.6,0.9-1.2,0.9-1.2C52,73.3,52.2,75,52.2,75c0.1-0.4,0.5-1,0.5-1
		c0.1-1.1,1.4-2.9,1.7-3.5c0.3-0.7,0.5-1.8,0.5-1.8l0.4,0.4c0,0.4,0.1,0.8,0,1.3l0.1,0.4c-0.1,0.2-0.1,0.4,0,0.6l0.1-0.4l0.2,0.4
		c-0.1,0.5,0,0.7,0,0.7c0-0.3,0.1-0.4,0.1-0.4l0.1,0.5c-0.1,0.3-0.1,0.9-0.1,0.9c0.3-0.3,0.5-1.3,0.5-1.6c0,0.1,0,0.1,0,0.2
		c0-0.4,0-0.8,0-1.3c0.1,0.6,0.1,1.1,0.1,1.5c0.1,1-0.1,2.2-0.1,2.2c0.2-0.1,0.4-0.4,0.5-0.6c0,0,0,0,0,0v0c0-0.1,0.1-0.1,0.1-0.2
		c0,0.6-0.3,1.3-0.3,1.3c0.2-0.2,0.4-0.7,0.5-1v0l0,0l0,0l0.1,0.2l-0.3,1.1l0.2-0.3l0,0.4c-0.1,0.3-0.2,0.7-0.2,0.7l0.3-0.5l0,0.3
		l-0.2,0.6l0.2-0.3c0.2,1.8,0,2.2,0,2.2s0.4,0.4,0.4,1.1c0.1,0.6-0.2,2.9-0.3,3.9c-0.1,1-0.7,1.1-1.3,1.6c-0.6,0.5-0.7,1-0.7,1h0.3
		c0.3-0.9,1.1-1.2,1.1-1.2c-0.6,0.4-0.9,1.2-0.9,1.2l0.4,0c0.3-0.8,1-0.9,1-0.9c-0.6,0.3-0.8,0.9-0.8,0.9c0.4,0.2,0.7,0.1,1.2-0.2
		c0.4-0.3,0.3-1,0.3-1.9c0-1,0-2.8,0.1-3.4c0.1-0.6-0.1-0.7-0.1-0.8c0-0.1,0.1-0.3,0.4-0.9c0.3-0.7,0.4-2.3,0.4-2.3
		c0.4,1.6-0.2,2.6-0.2,2.6c1-1.2,0.6-2.6,0.6-2.6c1.5-1.5,0.9-3.1,0.9-3.1c0.1,1.4-0.4,2-0.4,2c-0.1-1.7-1.2-2.8-1.2-2.8
		c0.8,1.7,0,3.2,0,3.2s0.1-1.2-0.6-2.1c-0.7-0.9-1.1-2.1-1.2-2.7c-0.1-0.6,0-1.3,0-1.3c-1.4-0.3-1.3-2.3-1.3-2.3
		c-0.3,0.3-0.6,0.8-0.6,0.8c-0.5-1.2,0-3.5,0-3.5l-0.3,0.2c0-1.2,0.7-3.1,0.7-3.1c-0.3,0.2-0.6,0.4-0.6,0.4c0.3-1.5,1.8-3.6,1.8-3.6
		c-1.4,1.4-2.2,3.2-2.6,4.3c-0.3,0.9-0.5,1.8-0.8,2.7c-0.4,1.1-1.4,1-1.8-0.1c-0.2-0.5-0.2-1.1-0.2-1.7c0.1,0,0.3,0.2,0.3,0.2
		c-0.1-0.2-0.3-0.7-0.3-0.7c0.1,0,0.3,0.1,0.3,0.1c-0.1-0.3-0.3-0.7-0.3-0.7c0.3,0.1,0.4,0.1,0.4,0.1c-0.1-0.4-0.3-0.6-0.3-0.6
		c0.2,0,0.4,0.1,0.4,0.1c-0.1-0.3-0.4-0.8-0.4-0.8c0.1,0,0.4,0.3,0.4,0.3c-0.2-1-0.9-1.8-0.9-1.8c0.4,0.2,0.8,0.6,0.8,0.6
		c0-0.2,0-0.6,0-0.6c0.1,0.1,0.4,0.3,0.4,0.3c-0.1-0.3-0.7-1-0.7-1c0.2,0.1,0.6,0.3,0.6,0.3c-0.1-0.3-0.4-0.4-0.4-0.4
		c0.1-0.8-0.5-1.3-0.5-1.3c0.5,0.1,0.9,0.4,0.9,0.4c-0.1-0.2-0.4-0.5-0.4-0.5c0-0.8-0.6-1-0.6-1c0.6,0,1,0.3,1,0.3
		c-0.4-0.4-0.8-0.6-0.8-0.6l-0.6,0.4L50.6,57c-0.5,0.7-1.9,1.9-3.1,3c-1.2,1.2-1.8,2.7-2.2,4c-0.4,1.3-0.1,3.3-0.1,3.3l0.3-0.9
		c0.3,0.9,0.1,1.7,0,2.2c-0.1,0.5,0,1.3,0,1.3c0.3-1,0.9-1.8,0.9-1.8c0,0.5-0.2,0.8-0.3,1.9c0,1.2,0.4,2.1,0.4,2.1
		c0.2-1.4,0.9-2.2,0.9-2.2c-0.6,2.4,0.9,3.8,1.9,4.7c1,0.9,1,1.3,1,1.3C50.6,75.8,50.6,75.7,50.7,75.5L50.7,75.5z M56.6,74
		c0.1-0.1,0.1-0.2,0.2-0.3l0,0C56.7,73.8,56.7,73.9,56.6,74L56.6,74z M54.1,87.1h2.2c0.1-0.2,0.5-0.7,0.7-0.8c0,0-1.2-0.2-1.8-0.1
		C54.6,86.4,54.2,86.7,54.1,87.1L54.1,87.1z M64.7,74.3c0,0-0.1-0.6-0.2-0.9c0,0-1.5-0.1-1.8-0.2c0,0-0.1,1-0.3,1.6
		c0,0,0.3,1.3,0.4,1.9c0.2,0.5,0.9,2.1,1.2,2.7c0.3,0.6,0.6,2.2,0.6,3.4c0,1.1,0,1.6,0,1.6l0.1,0.3c0,0-0.6,0.1-1.1,0.4
		c-0.5,0.4-0.7,0.8-0.7,0.8l0.4,0c0,0,0.7-0.8,1.2-1c0,0-0.7,0.6-0.9,1l0.6,0.1c0,0,0.2-0.2,0.3-0.3c0.1-0.1,0.4-0.1,0.5-0.2
		c0.1,0,0.3-0.7,0.3-1.3c0-0.6-0.4-1.3-0.5-1.6c-0.1-0.3,0-1.3-0.1-2.1c-0.1-0.8-0.2-1.7-0.2-2.3c0-0.5,0-1.5-0.3-2.1
		c-0.2-0.6-0.8-1.3-0.8-1.3l0.2-0.1c0,0,0.7,0.5,1,1.1c0,0,0-1.2-1.1-2.3h0.3C63.9,73.6,64.4,73.8,64.7,74.3L64.7,74.3z M61.1,87.1
		h1.8c0.2-0.3,0.9-0.9,0.9-0.9c0,0-0.5-0.1-1.1-0.1C62.1,86.3,61.5,86.4,61.1,87.1L61.1,87.1z M71.4,69.7c-0.6,0.5-1.8,0.6-1.8,0.6
		l0,0.2c-0.5,0.3-1.3,0.1-1.3,0.1l0,0.1C68,71.1,66.6,71,66.6,71c-0.5,0.4-1.5,0.1-1.5,0.1l0,0.2c-1.1,0.5-2.3-0.2-2.6-0.5
		c0,0.2-0.1,0.3-0.1,0.5c0.8,0.3,1.7,0.3,1.7,0.3l1.7,0.6l-0.7-0.6l1.2-0.1L68,72l-0.7-0.5l0.8-0.1l1.3,0.3l-0.5-0.4l0.6-0.1l1,0.2
		l-0.6-0.4l0.6-0.1l0.9,0.2l-0.5-0.3c0.6-0.2,1.1-0.3,1.1-0.3L71.4,69.7z M61.9,66.7c0,0,0.4,0.7,0.3,1.5c0,0-0.4-0.6-0.5-0.9
		C61.7,67.4,61.8,66.9,61.9,66.7L61.9,66.7z M61.6,67.7c0,0,0.6,0.8,0.5,1.4c0,0-0.3-0.5-0.5-0.8c0,0,0.2,0.7,0.3,1.1
		c0,0-0.5-0.8-0.9-0.9c0.1,0,0.5,0.9,0.5,1.5c-0.2-0.6-0.5-1.3-0.8-1.8C60.9,68.4,61.4,68.3,61.6,67.7L61.6,67.7z M61.3,71.7
		c0,0-0.6-1.9-1.5-2.3c0,0,1.1,2.4,0.9,3.8c0,0-0.6-1.4-1.2-1.7c0,0,0.8,1.4,0.5,2.7c0,0-0.8-2.1-1.9-2.8c0,0,0.4,0.8,0.6,1.5
		c0.2,0.7,0.3,1.4,0.2,1.7c0,0-0.4-1.1-0.9-1.8c-0.5-0.8-1-2.1-0.7-3.2c0,0,1-0.1,1.3-1.2c0,0.2,0.3,0.8,0.9,0.6
		c0.5-0.2,0.6-0.5,0.7-0.8C60.2,68.2,61.4,69.3,61.3,71.7L61.3,71.7z M79.3,87.1h2.3c0.1-0.4,0.3-0.6,0.6-0.9
		C81.1,86,80,86.3,79.3,87.1L79.3,87.1z M83,77.2c0,0,0.5,0.5,0.6,0.7c0,0.1-0.2,1.6-0.2,1.9l-0.8-0.6c0,0,0.4,1,0.4,2
		c0.1,1,0.1,2.2,0.1,2.8c0,0.6,0.1,1.6-0.4,1.8c-0.5,0.2-1.4,0-1.4,0s1-1.4,1-2.8c0.1-1.4-0.1-3.3-0.4-4.3c0,0,0.5,0.1,0.8,0.4
		C83,79,83.2,78.2,83,77.2L83,77.2z M80.7,70.8c0,0,0.2,0.6,0.3,0.9c0.1,0.3,0.2,1,0.5,1.8c0.3,0.8,1,2.5,0.9,3C82.4,77,82,78,82,78
		s-0.5-0.6-0.8-1.3c-0.3-0.7-0.8-1.6-1-1.9c-0.2-0.3-0.2-1.2,0-1.9C80.3,72.3,80.7,70.8,80.7,70.8L80.7,70.8z M70.8,63.5
		c-0.7-0.1-1.5-0.1-2.2-0.1c-1.4,0-3.6,0.9-5.6,0.6c-2.1-0.3-3.6-1.8-3.5-3.6c0-1.1,0.2-1.8,0.3-2.4c0.1-1,0.4-2.1,0.7-3
		c0-0.1,0-0.3-0.1-0.4c-0.2,0.1-0.3,0.2-0.5,0.4c-0.7,0.9-0.6,1.4-0.6,1.4S59,56.7,59,57.2c0,0-0.9,0-2,1.6
		c-1.1,1.5-1.3,2.6-1.3,2.6l0.7-0.3c0,0-0.9,1.5-1,2.8l0.6-0.3c0,0-0.6,1.9-0.5,3.4c0,0,0.5-0.6,0.7-0.7c0,0-0.3,2.4,0.8,2.5
		c1.2,0.1,1.5-1,1.6-1.4c0.1,0.3,0.3,1.3,0.8,1c0.6-0.3,0.6-1,0.6-1s0.3,0.6,0.8,0.5c0.5-0.2,1-1.3,0.8-3.3c0.4,0.5,0.8,1.2,1,2
		c0.3,0.7,0.3,1.7,0,2.8c0,0.2,0,0.5,0,0.7c0.2,0.3,0.8,0.9,1.8,0.9c0,0-0.5-0.2-0.7-0.5c0,0,0.6,0,0.9,0c0,0,0.6,0.3,1.3,0.3
		l-0.8-0.3l0.6-0.1c0,0,1.1,0.5,1.8,0.3l-1.3-0.4l1-0.3c0,0,0.9,0.5,1.7,0.4c0,0-1-0.4-1.4-0.6l0.8-0.2c0,0,1.1,0.4,1.8,0.1
		l-1.4-0.3l0.5-0.3c0,0,1.1,0.1,1.6-0.1l-1.2-0.1l0.3-0.3c0,0,0.6,0,1.1-0.3l-0.9,0c0,0,0.2-0.3,0.2-0.5c0,0,0.4,0,0.7-0.1l-0.6-0.1
		C70.7,66.2,70.8,64.8,70.8,63.5L70.8,63.5z M83.8,71.6c-0.1-0.6-0.1-1.2,0-1.9c-0.3,0.2-0.4,0.5-0.5,0.7c-0.1-0.7-0.2-1.4-0.2-2.1
		c-0.2,0.2-0.4,0.6-0.4,0.9c0,0-0.1-0.9-0.3-1.5c-0.1-0.6-0.3-1.3-0.8-2.3c0,0,2.1,3.1,2.6,5.4C84.2,70.8,83.9,71.2,83.8,71.6
		L83.8,71.6z M76.7,81.8c-1.2,1.8-2.1,3.3-2.1,3.3s0.7-0.7,1-1.1c0,0-0.3,0.8-0.3,1c-0.1,0.2,0.1,0.7-0.3,0.8
		c-0.4,0.1-1-0.1-1.3-0.5c0,0,1-0.9,1.6-2c0.5-1.1,1.4-2.8,1.4-2.8v0.7c0,0,0.7-1.1,0.8-1.5c0.1-0.4,0-0.8-0.4-0.5
		c-0.4,0.3-0.3-0.3-0.1-0.5c0.5-0.5,1.2-0.6,1.2-0.6s0.2,0.5,0.3,0.6C78.6,78.6,77.9,79.9,76.7,81.8L76.7,81.8z M72.8,87.1H71
		c0,0,0.1-0.6,1.1-0.8c0.9-0.2,1.5-0.1,1.8,0C73.5,86.4,72.9,86.9,72.8,87.1L72.8,87.1z M84.4,71.6c0,0,0.3,0.8,0.3,1.5
		C84.7,73.1,84.4,72.6,84.4,71.6L84.4,71.6z M50.8,55.5c0.3-0.3,0.5-0.7,0.5-1.1l-0.1,0.1c0,0.2-0.2,0.3-0.3,0.5c0,0,0,0,0,0l0,0
		l0,0c-0.3,0.3-0.6,0.4-0.6,0.4c0.4,0.1,0.6-0.1,0.6-0.1c-0.4,0.4-0.9,0.4-0.9,0.4c-0.1,0.1-0.2,0.2-0.3,0.3
		C50,56,50.5,55.8,50.8,55.5L50.8,55.5z M51,53.9L51,53.9l-0.1,0.1c-0.1,0.4-0.2,0.8-0.5,1.1C50.9,54.8,51,54.3,51,53.9L51,53.9z
		 M50.6,54.1v-0.6c-0.1,0-0.1,0.1-0.1,0.1c0,0.5-0.1,0.8-0.1,0.8C50.5,54.4,50.6,54.3,50.6,54.1L50.6,54.1z M48,56.1
		c0.2,0,0.5-0.1,0.6-0.2c-0.3,0.1-0.6,0.2-1,0.2c0,0,0.4-0.1,0.6-0.3c0.3-0.1,0.5-0.4,0.7-0.4c0,0-0.2-0.1-0.8,0.2
		c-0.6,0.3-0.6,0.4-0.6,0.4c-0.1-0.1-0.2-0.2-0.2-0.2c0.2-0.2,0.5-0.3,0.8-0.4c0.4-0.2,1-0.3,1.5-0.2c-0.2,0.6-0.7,0.8-1,1
		c0,0,0.4,0,0.8-0.4c0.4-0.3,0.5-0.7,0.8-0.9c0,0-0.3,0-0.6,0c-0.3,0-1,0-1.3,0.1c-0.4,0.1-0.7,0.4-0.7,0.4c0-0.2,0.1-0.3,0.2-0.4
		c0-0.1,0.1-0.2,0.3-0.3c0.3-0.2,0.7-0.5,0.5-1.6c0,0-0.2,0.5-0.4,0.8c-0.1,0.5-0.4,1.1-0.8,1.4c-0.1,0.1-0.2,0.1-0.3,0.1l-0.1-0.2
		c0.5-0.6,0.6-1.7,0.2-2.4c-0.1-0.1-0.1-0.2-0.2-0.4c0,0.2,0,0.4,0,0.6c0.1,0.2,0.2,0.4,0.2,0.6c0.1,0.6-0.2,1-0.3,1.2c0,0,0,0,0,0
		c-0.1,0.2-0.2,0.3-0.3,0.4c0,0-0.1,0.8-0.8,1c-0.6,0.2-1.3,0-1.8,0.3c-0.5,0.2-2.6,1.3-2.7,1.7c-0.1,0.4,0.3,0.4,0.4,0.4
		c0.2-0.1,0.6-0.4,1-0.6c0.3-0.2,0.8-0.4,1.1-0.4l0.1,0c0,0,0.1,0.1,0.1,0.2c0,0.1,0.2,0.2,0.1,0.3c-0.1,0.1-0.3,0-0.4,0
		c-0.1,0-0.2,0-0.3,0.1c-0.3,0.2-1,0.6-1.1,0.8c0,0.1,0,0.2,0,0.2c0,0.1,0.1,0.2,0.1,0.2c0.1,0,0.3-0.1,0.5-0.2
		c0.2-0.1,0.7-0.3,0.9-0.4c0.2-0.1,0.7-0.1,0.7,0c0,0,0,0,0,0c0,0.1-0.2,0.2-0.2,0.5c-0.1,0.3-0.3,1.2-0.3,2.1c0,0,0.2-1,0.4-1.7
		c0.2-0.6,0.3-1,0.8-1.1c0,0-0.3,0.6-0.4,1c-0.1,0.4-0.1,1-0.1,1s0.5-1.5,0.7-2.1l0.3-0.1c0,0-0.4,0.7-0.6,1.4
		c-0.2,0.8-0.2,1-0.3,1.7c0,0,0.3-0.9,0.5-1.8c0.2-0.9,0.6-1.4,0.6-1.4l0,0.1c0,0-0.1,0.2-0.2,0.8c-0.1,0.7-0.2,1.4-0.4,2.3
		c0,0,0.4-0.8,0.5-1.5c0.1-0.7,0.2-1.6,0.2-1.6s0.1,0.1,0.2,0.2c0.1,0.1,0.1,0.4,0.1,0.6c0,0.3,0,0.6-0.2,1c0,0.1,0,0.2,0,0.2
		c0.2-0.2,0.5-0.7,0.2-1.8c0.3,0.2,0.8,0.4,1.3,0.5l0,0c0.1,0,0.2,0,0.3-0.1c-0.7-0.1-1.3-0.5-2-1l0.4-0.1c0,0,1,1,1.9,0.6
		c0,0-0.5,0.2-1.8-0.7c0,0,0.3-0.1,0.5-0.3c0,0,0.9,0.6,1.6,0.5c0.1,0,0.1,0,0.2,0c0,0-0.2,0-0.5-0.1c-0.3,0-0.7-0.2-1.2-0.4
		c0,0,0.2-0.1,0.3-0.3c0.6,0.3,1.2,0.5,1.9,0.5c0.2-0.1,0.4-0.2,0.4-0.2s-0.3,0.1-0.8,0c-0.5,0-1-0.2-1.4-0.4l0.2-0.2
		c0,0,2.2,0.8,2.8-0.4c-0.2,0-0.5-0.1-0.7-0.1c-0.3,0-1.2-0.2-1.8,0c0.1-0.3,0.1-0.6,0.1-0.6C47.8,56.1,47.9,56.1,48,56.1L48,56.1z
		 M49.7,56.7c1,0,1.6-0.5,1.7-1.5c0,0.1-0.1,0.3-0.2,0.4c-0.7,1.2-2.5,0.9-2.5,0.9C49.1,56.6,49.4,56.7,49.7,56.7L49.7,56.7z
		 M41.7,57c0.2-0.1,0.4-0.2,0.6-0.2c0.1-0.1,0.4-0.2,0.8-0.3c0.3-0.1,0.8-0.2,1.4-0.5c0.5-0.2,1.2-0.4,1.6-0.7
		c0.7-0.6,0.9-1.6,0.3-2.4c0,0,0.1,0.7-0.3,1.3c-0.2,0.3-0.4,0.5-0.7,0.8c-0.4,0.3-1,0.7-1.5,0.9c-0.9,0.4-1.4,0.5-2.2,1
		C41.8,56.9,41.8,56.9,41.7,57L41.7,57z M50,53c-0.1,0.1-0.1,0.2-0.1,0.3c0,0.9-0.1,1.3-0.1,1.3C50.1,54.1,50.1,53.5,50,53L50,53z
		 M49.5,53.2c0-0.1-0.1-0.3-0.1-0.4c0,0,0,0.1,0,0.1c0.1,0.9-0.2,1.7-0.3,1.7C49.5,54.1,49.5,53.6,49.5,53.2L49.5,53.2z M49.5,53.2"
		/>
	<path class="st12" d="M66.6,49.8c-0.1-0.2,0.1-0.4,0.3-0.3c0-0.5-0.1-0.9-0.1-1.4c-0.9-0.3-1.8-0.4-2.6-0.4c-1.2,0-3.1,0.5-3.5,1.9
		c-0.1,0.4,0,0.8,0.2,1.2C62.7,50.2,64.7,49.9,66.6,49.8L66.6,49.8z M67.5,57.1c-0.1,0.1-0.2,0.1-0.3,0.1c-0.1,0-0.2-0.1-0.2-0.1
		c-0.9,0.5-1.9,0.8-3,0.8c-1.5,0-2.6-0.6-3.2-1.9c-0.1-0.2-0.2-0.4-0.2-0.6c-0.6,1.7-0.9,3.7-0.5,5.4c0.5,2,2.4,2.8,4.4,2.2
		c1.4-0.4,2.8-0.6,4.2-0.3c1.5,0.3,3,0.1,4-1.3c1.4-2,1.5-5.4,0.5-7.4c0,0.1-0.1,0.3-0.1,0.4c-0.5,1.8-1.5,2.9-3.7,2.9
		C68.8,57.4,68.2,57.3,67.5,57.1L67.5,57.1z M67,50.6c-0.2,0.1-0.4-0.1-0.4-0.3c-1.9,0.1-3.8,0.3-5.6,1c-0.5,1.3-0.6,3.1,0,4.5
		c0.6,1.3,1.7,1.8,3,1.8c1,0,2-0.3,2.9-0.8v0C67.1,54.8,67.1,52.7,67,50.6L67,50.6z M67.9,50.3c0.1,0.2-0.1,0.4-0.3,0.3
		c0.1,2.1,0,4.1-0.1,6.2c0.7,0.2,1.3,0.3,1.9,0.3c1.1,0,2.2-0.4,2.8-1.4v0l0,0c0.2-0.4,0.5-0.9,0.6-1.4c0.3-1.1,0.3-2.3-0.2-3.3
		c-0.5-0.2-0.9-0.3-1.4-0.4C70.1,50.4,69,50.3,67.9,50.3L67.9,50.3z M67.5,49.5c0.2-0.1,0.4,0.1,0.4,0.3c1.2,0,2.3,0.1,3.5,0.3
		c0.4,0.1,0.8,0.2,1.2,0.3c0.1-0.9,0-1.6-0.6-2.1c-0.7-0.6-2.2-0.7-3-0.7c-0.6,0-1.1,0.1-1.6,0.4C67.5,48.5,67.5,49,67.5,49.5
		L67.5,49.5z M67.5,49.5"/>
	<path class="st10" d="M61,51.2c0.5-0.2,1-0.4,1.5-0.5c1.4-0.4,2.8-0.5,4.2-0.6l0.1-0.1L66.8,50c-1.4,0-2.9,0.2-4.3,0.6
		c-0.5,0.1-1.1,0.3-1.5,0.4c0,0-0.1,0.1-0.1,0.1C60.9,51.2,61,51.2,61,51.2L61,51.2z M67.8,50.2c1.2,0,2.3,0.1,3.5,0.3
		c0.4,0.1,1,0.2,1.4,0.4c0.1,0,0.1,0,0.1-0.1s0-0.1-0.1-0.1c-0.4-0.2-1-0.3-1.4-0.4C70.2,50,69,50,67.8,50l-0.1,0.1L67.8,50.2z
		 M67.4,57L67.4,57L67.4,57c0.1-2.2,0.1-4.3,0.1-6.4l-0.1-0.1l-0.1,0.1c0.1,2.1,0,4.3-0.1,6.4v0c0,0.1,0.1,0.1,0.1,0.1
		C67.3,57.1,67.3,57,67.4,57L67.4,57z M67.4,49.6c0-0.5-0.1-1-0.1-1.5c0-0.2-0.2-0.1-0.2,0c0,0.5,0.1,1,0.1,1.5L67.4,49.6L67.4,49.6
		z M66.9,50.5l0.2-0.2L67,50.2l-0.2,0.2C66.7,50.4,66.9,50.6,66.9,50.5L66.9,50.5z M67.5,49.9l0.2-0.2c0.1-0.1,0-0.2-0.1-0.1
		l-0.2,0.2L67.5,49.9z M67.7,50.3L67,49.7c-0.1-0.1-0.2,0-0.1,0.1l0,0l0.7,0.7C67.7,50.6,67.8,50.4,67.7,50.3L67.7,50.3z M67.6,48.5
		c0,0.3,0,0.6,0,0.9l0,0c0.1,0,0.2,0.1,0.2,0.2c1.2,0,2.5,0.2,3.8,0.4c0.8,0.1,0.7-0.5,0.6-1c0-0.1-0.1-0.2-0.2-0.2
		C71.1,47.8,68.4,48.2,67.6,48.5L67.6,48.5z M67.8,51.4c0,1.2,0,2.5,0.3,3.7c0.2,0.8,0.1,1.3,1.1,1.3c2.6,0.1,3.9-1.9,3.5-4.5
		c-0.2-0.4-0.5-0.8-0.9-0.9c-0.9-0.3-1.8-0.5-2.7-0.6C68,50.5,67.8,50.4,67.8,51.4L67.8,51.4z M61.3,50.6c-0.8-2.1,2.5-3.1,5.4-2.2
		c0,0.4,0.1,0.7,0.1,1.1c-0.1,0-0.2,0.1-0.2,0.2C64.7,49.7,63,50.1,61.3,50.6L61.3,50.6z M66.9,50.7c0.1,1.5,0.1,3.1-0.1,4.6
		c-0.1,0.6,0,1.2-0.7,1.4c-1.2,0.4-3.3,0.4-4-0.4c-0.6-0.7-0.8-1.9-0.8-3.4c0-0.6,0-1.2,0.7-1.4c1.5-0.5,3-0.9,4.6-0.9
		C66.7,50.6,66.8,50.7,66.9,50.7L66.9,50.7z M60.7,56.4c1,1.7,2.9,2.1,5.4,1.6c1-0.2,2.1-0.2,3.3-0.1c1.5,0.1,2.7-0.6,3.7-1.8
		c0.2,4.7-1.7,6.7-5.6,5.7c-0.7-0.2-1.2-0.2-1.8,0.1c-2,1.1-3.9,1.8-4.9-0.6C60.2,59.6,60.4,58,60.7,56.4L60.7,56.4z M60.7,56.4"/>
	<path class="st13" d="M45.9,55.1l-0.1,0.1l-0.3-0.1c1.2-0.9,1.1-1.7,1.1-1.7C46.8,54.2,46.3,54.8,45.9,55.1L45.9,55.1z M47.4,57.2
		l0.1-0.3c0.7-0.2,1.4,0.3,2.1,0.3C49.1,57.6,48,57.1,47.4,57.2L47.4,57.2z M50.6,57l0-0.2l0.2,0c0,1.4-1.1,2.4-1.1,2.4
		c0.6-0.1,0.9,0.1,0.9,0.1c-1.4,0.8-1.9,2.2-1.9,2.2c1.4-0.4,1.4,0,1.4,0c-0.9,0.3-1.3,1.2-1.3,1.2c0.7-0.1,1.2,0.2,1.2,0.2
		c-1.3,0.6-1.5,1.9-1.5,1.9c0.7-0.4,1.5-0.6,1.5-0.6c-2.5,2.4-0.8,4.4-0.8,4.4c-1.8-1.3-0.5-3.6-0.5-3.6c-0.4,0.2-1,0.7-1,0.7
		c0.1-1.8,1.4-2.8,1.4-2.8c-0.6,0-1.3,0.6-1.3,0.6c0.3-1.1,1.3-1.9,1.3-1.9c-0.9,0.2-1.4,0.8-1.4,0.8c0.5-1.9,2-3,2-3
		c-0.8,0-1.8,0.9-1.8,0.9c0.4-0.9,1.3-1.7,1.9-2.2C50.7,57.6,50.6,57,50.6,57L50.6,57z M53.7,64.4l0.2-0.5c0,0,0.8,2,0.8,3.6
		c0,1.6-0.7,2.9-0.7,2.9c0-0.5-0.3-1.2-0.3-1.2c-0.2,0.9-0.5,1.5-0.5,1.5L53,70.4c0,1.3-0.9,2.4-0.9,2.4l-0.1-0.3l-0.4,0.7l-0.3-0.6
		c0,0.9-0.7,1.1-0.8,1.8c-0.1-0.8,0.4-1.1,0.5-1.8c0.1-0.7-0.2-1.6-0.2-1.6c0.4,0.5,0.8,1.5,0.8,1.5c0.4-0.6,0-1.7,0-1.7
		c0.4,0.4,0.6,1.1,0.6,1.1c0.8-1,0.6-2.8,0.6-2.8c0.2,0.3,0.3,0.5,0.4,0.7c0.5-0.7,0.3-2.3,0.3-2.3c0.2,0.7,0.5,1.2,0.5,1.2
		C54.5,67,53.7,64.4,53.7,64.4L53.7,64.4z M71.3,86.1c-0.7,0.1-1.2,0.4-1.7,1.4h0.4C70.5,86.6,70.9,86.2,71.3,86.1L71.3,86.1z
		 M61.5,86c-0.7,0.1-1.5,0.7-1.7,1.4h0.6C60.6,86.7,61.1,86.3,61.5,86L61.5,86z M54.1,86.2c0.2-0.1,0.5-0.2,0.7-0.3
		c-1.1,0.1-1.8,0.7-2,1.6h0.6C53.4,87,53.7,86.5,54.1,86.2L54.1,86.2z M79.8,86.1c-1.1,0.3-1.5,0.9-1.7,1.4h0.3
		C78.5,87.2,78.9,86.5,79.8,86.1L79.8,86.1z M78.1,77.3c0.2,0.1,0.4-0.1,0.2-0.3c-0.1-0.1-0.3-0.2-0.3-0.4c-0.1-0.5-0.3-0.6-0.3-1
		c0-0.5,0.1-1.2-0.4-1.9c0,0,0.9-0.9,0.8-2.9l0.6,0.3c0,0,0-0.9-0.1-1.4c0,0,0.3,0.1,0.5,0.4c0,0,0-0.6-0.2-1.3l0.3,0.3
		c0-0.2,0-1-0.3-1.9l0.4,0.2c0,0-0.2-1.3-0.5-2.1c0,0,0.5,0.3,0.6,0.4c0,0,0.1-1.2-0.7-2.7c-0.8-1.6-2.1-2.1-2.1-2.1
		s1.6,0.9,2.2,3.9c0,0-0.5-0.4-1.5-0.7c0,0,1.1,0.5,1.2,2.2c0,0-0.6-0.5-1.2-0.9c0,0,1.2,0.9,1.2,2.6c0,0-0.5-0.5-1-0.9
		c0,0,0.9,0.9,0.9,2.1c0,0-0.5-0.5-0.9-0.9c0,0,0.6,1.2,0.7,2.2c0,0-0.4-0.4-0.8-0.9l0.1,0.6c0.6,0.8,0.1,2.5-0.4,3.3l-0.6-0.3
		c0,0,0.5,0.5,0.7,0.9c0.3,0.4,0.4,1,0.5,1.5c0,0.5,0,0.9,0.1,1.1c0.1,0.2,0.2,0.5-0.3,0.9c-0.4,0.4-0.7,0.8-0.7,1.2
		C77,77.8,77.4,77.3,78.1,77.3L78.1,77.3z M70.6,63.4l0.7,0.2c-0.6,0.6-1.3,1.2-2.1,1.4c-0.8,0.2-0.7-0.1-0.6-0.6
		c0,0-0.4,0.5-1.1,0.9c-0.8,0.4-0.9,0.4-0.9,0.2c0.1-0.2,0.1-0.5,0.1-0.5s-1.7,1.5-3.7,0.4c0,0,2.2,0.6,3.8-1c0,0,0.5,0,0.9-0.4
		c0,0-0.4,0.7-0.6,1.1c0.5-0.1,1.5-1,1.9-1.3c-0.1,0.2-0.2,0.5-0.2,0.7c0,0.2,0.2,0.3,0.7,0C70.4,63.8,70.6,63.4,70.6,63.4
		L70.6,63.4z M70.6,63.4"/>
	<path d="M46,55.5c0.1,0.1,0.1,0.2,0.1,0.3c0,0.3-0.2,0.5-0.5,0.5c-0.3,0-0.5-0.2-0.5-0.5c-0.2,0.1-0.3,0.1-0.5,0.2
		c0-0.2,0-0.4,0.2-0.5c0-0.1,0.1-0.2,0.2-0.3c0.1-0.1,0.2-0.2,0.3-0.2c0.1-0.1,0.2-0.1,0.4,0c0.1,0,0.2,0,0.3,0v0c0,0,0,0,0.1,0
		c0,0,0,0,0,0c0.1,0,0.2,0,0.2,0.1v0c0,0,0,0,0,0v0c0,0,0.1,0.1,0.1,0.1C46.2,55.4,46.1,55.5,46,55.5L46,55.5z M46,55.5"/>
	<path class="st1" d="M45.4,55.7C45.4,55.7,45.4,55.7,45.4,55.7c0,0.1,0,0.2-0.1,0.2c0,0-0.1,0-0.1-0.1v0l-0.1,0
		c0,0.1,0.1,0.2,0.2,0.2c0.1,0,0.2-0.1,0.2-0.2c0,0,0-0.1,0-0.1L45.4,55.7z M45.4,55.7"/>
	<path class="st11" d="M44.7,55.8c0.5-0.2,0.9-0.4,1.4-0.5c0,0-0.1,0-0.1,0c-0.1-0.1-0.2-0.1-0.3-0.1c-0.1-0.1-0.2-0.1-0.3,0
		c-0.1,0-0.2,0-0.3,0.1c-0.1,0-0.2,0.1-0.2,0.2C44.8,55.7,44.7,55.7,44.7,55.8L44.7,55.8z M44.7,55.8"/>
</g>
</svg>
