<?xml version="1.0" encoding="utf-8"?>
<!-- Generator: Adobe Illustrator 22.0.1, SVG Export Plug-In . SVG Version: 6.00 Build 0)  -->
<svg version="1.1" id="Слой_1" xmlns="http://www.w3.org/2000/svg" xmlns:xlink="http://www.w3.org/1999/xlink" x="0px" y="0px"
	 viewBox="0 0 127.3 127" style="enable-background:new 0 0 127.3 127;" xml:space="preserve">
<style type="text/css">
	.st0{fill:url(#SVGID_1_);}
	.st1{fill:#FFFFFF;}
	.st2{fill:#FF0000;}
	.st3{fill:#FFD700;stroke:#000000;stroke-width:0.2257;}
	.st4{fill:#FFD700;stroke:#000000;stroke-width:0.1198;stroke-linecap:square;}
	.st5{fill:#FFD700;stroke:#000000;stroke-width:0.2222;stroke-linecap:square;}
	.st6{fill:#FFD700;stroke:#000000;stroke-width:0.123;stroke-linecap:square;stroke-linejoin:round;}
	.st7{fill:#FFD700;stroke:#000000;stroke-width:0.3029;stroke-linecap:square;stroke-linejoin:round;}
	.st8{fill:#FFD700;stroke:#000000;stroke-width:0.1788;stroke-linecap:square;stroke-linejoin:round;}
	.st9{fill:#FFD700;}
	.st10{fill:#FFD700;stroke:#000000;stroke-width:0.1688;stroke-linecap:square;stroke-linejoin:round;}
	.st11{fill:#FFD700;stroke:#000000;stroke-width:0.1911;stroke-linecap:square;}
	.st12{fill:#FFD700;stroke:#000000;stroke-width:0.1709;stroke-linecap:square;}
	.st13{fill:none;stroke:#000000;stroke-width:0.1911;stroke-linecap:square;}
	.st14{fill:#C0C0C0;stroke:#000000;stroke-width:0.2149;stroke-linecap:square;}
	.st15{fill:#C0C0C0;stroke:#000000;stroke-width:0.1428;stroke-linecap:square;}
	.st16{fill:#FFD700;stroke:#000000;stroke-width:0.2257;stroke-linecap:square;}
	.st17{fill:#FFD700;stroke:#000000;stroke-width:0.2019;stroke-linecap:square;}
	.st18{fill:none;stroke:#000000;stroke-width:0.2257;stroke-linecap:square;}
	.st19{opacity:0.5;enable-background:new    ;}
	.st20{fill:#FBE403;stroke:#000000;stroke-width:0.2798;}
	.st21{fill:#FFD700;stroke:#000000;stroke-width:0.2528;stroke-linecap:square;stroke-linejoin:round;}
	.st22{stroke:#000000;stroke-width:6.230259e-02;}
	.st23{stroke:#000000;stroke-width:4.899992e-02;}
	.st24{stroke:#000000;stroke-width:5.015667e-02;}
	.st25{opacity:0.98;fill:#FFD700;stroke:#000000;stroke-width:9.727236e-02;stroke-linecap:square;enable-background:new    ;}
	.st26{fill:#FFD700;stroke:#000000;stroke-width:0.1459;}
	.st27{fill:#FFD700;stroke:#000000;stroke-width:0.1459;stroke-linecap:square;}
	.st28{fill:none;stroke:#000000;stroke-width:9.727236e-02;stroke-linecap:square;}
	.st29{fill:#FFD700;stroke:#000000;stroke-width:6.534140e-02;stroke-linecap:square;}
	.st30{fill:#FFD700;stroke:#000000;stroke-width:9.727236e-02;}
	.st31{fill:#FFD700;stroke:#000000;stroke-width:7.781788e-02;stroke-linecap:square;}
	.st32{fill:#FFD700;stroke:#000000;stroke-width:7.379533e-02;stroke-linecap:square;}
	.st33{fill:#FFD700;stroke:#000000;stroke-width:9.103213e-02;}
	.st34{stroke:#000000;stroke-width:7.781788e-02;stroke-linecap:square;}
	.st35{fill:#6495ED;stroke:#000000;stroke-width:4.863618e-02;}
	.st36{fill:#0000FF;stroke:#000000;stroke-width:4.863618e-02;}
	.st37{fill:#6495ED;stroke:#000000;stroke-width:4.863618e-02;stroke-linecap:square;}
	.st38{fill:#0000FF;stroke:#000000;stroke-width:4.863618e-02;stroke-linecap:square;}
	.st39{fill:#7F6B00;}
	.st40{fill:none;stroke:#000000;stroke-width:0.4864;}
</style>
<radialGradient id="SVGID_1_" cx="64.8" cy="682.747" r="62.6" gradientTransform="matrix(1 0 0 1 0 -618.347)" gradientUnits="userSpaceOnUse">
	<stop  offset="0.9487" style="stop-color:#212121"/>
	<stop  offset="1" style="stop-color:#606060;stop-opacity:0"/>
</radialGradient>
<circle class="st0" cx="64.8" cy="64.4" r="62.6"/>
<circle class="st1" cx="62.6" cy="62.6" r="62.6"/>
<g transform="translate(-31.623,-829.9207)">
	<g transform="matrix(.94831,0,0,.94831,1.69199,89.46986)">
		<path class="st2" d="M64,806.1L64,806.1l0,74c0,3.7,3,6.6,6.6,6.6h21.3c3.7,0,6.6,3,6.6,6.6c0-3.7,3-6.6,6.6-6.6h21.3
			c3.7,0,6.6-3,6.6-6.6v-73.9l0,0h0H64L64,806.1z"/>
		<path class="st1" d="M133,813.5c-1,0.1-2,0.3-2.9,0.8c-0.6,0.3-1,0.9-1.3,1.6c0,0.1-0.1,0.3,0,0.3l-0.2,0.2c0-0.1-0.2,0-0.3,0
			c-0.8,0.1-1.6,0.5-2.2,1.1c-0.7,0.8-0.9,1.9-0.8,2.9c0,0.6,0.2,1.3,0.4,1.9c-0.1,0-0.2-0.1-0.2,0c0.1,0,0.1,0,0.1,0
			c-0.1,0-0.1,0-0.2,0c-0.7,0-1.4,0.1-2,0.4c-0.3,0.2-0.6,0.5-0.8,0.8c-0.2,0.2-0.2,0.5-0.3,0.8c-0.1,0.2-0.1,0.5-0.2,0.6
			c-0.1,0,0-0.1,0-0.2c0-0.2,0-0.4-0.2-0.4c-0.2,0-0.3,0.1-0.5,0.1c-0.7,0.2-1.2,0.8-1.3,1.4c-0.1,0.2-0.1,0.5-0.1,0.7
			c-0.1,0.4-0.5,0.5-0.8,0.8c-0.3,0.3-0.5,0.7-0.5,1.1c0,0.6,0.3,1.2,0.6,1.7c0.1,0.1,0.1,0.2,0.2,0.2c-0.1,0.1-0.2,0-0.2-0.1
			c-0.1-0.2-0.3-0.4-0.5-0.3c-0.3,0.1-0.4,0.4-0.6,0.6c-0.3,0.4-0.6,0.9-0.7,1.4c-0.2,0.7-0.2,1.6,0.1,2.3c0.1,0.5,0.4,0.9,0.7,1.3
			c0.1,0.4,0.5,0.5,0.7,0.8c0,0,0,0.1,0,0.1c-0.2-0.2-0.5-0.4-0.7-0.6c-0.1,0,0,0.3-0.1,0.4c0,1,0.2,2,0.9,2.8c0.6,0.7,1.6,1,2.5,1
			c0.1,0,0.1,0,0.1,0c-0.2,0-0.5,0-0.7,0l0,0c-0.4,0.8-0.7,1.7-0.5,2.6c0.2,0.8,0.6,1.6,1,2.2c0.1,0.1,0.3,0.1,0.4,0.1
			c0.1-0.1,0-0.2,0.1-0.2c0.3-0.3,0.7-0.4,1-0.5c0.4-0.2,0.8-0.3,1.2-0.4c0,0,0-0.1,0-0.1c0.1,0.2,0.2,0.4,0.3,0.7
			c0,0.1,0.1,0.2,0.2,0.3c-0.1,0.1-0.2,0.2-0.3,0.3c-0.1,0.2-0.1,0.5-0.1,0.8c0.1,0.5,0.4,1,0.7,1.5c0.2,0.3,0.5,0.6,0.7,1
			c0,0,0.1,0.1,0.1,0.1c-0.1-0.1-0.2-0.2-0.3-0.3c-0.2,0.1-0.4,0.3-0.4,0.6c-0.1,0.1,0,0.3,0,0.4c0.1,1,0.5,2,1.2,2.9
			c0.2,0.2,0.4,0.5,0.7,0.6c0.1,0,0.2,0,0.2,0.1c0.4,0.5,0.7,1,1.2,1.4c0.1,0.1,0.3,0.2,0.5,0.2c0.1,0,0.1,0.1,0.2,0.1
			c0.1,0.2,0.1,0.5,0.1,0.7c-0.2,0.1-0.2,0.4-0.3,0.5c-0.2,0.4-0.5,0.7-0.8,1.1c-0.1,0.1-0.1,0.2-0.2,0.4c-0.2-0.1-0.4,0-0.6,0
			c-0.7,0-1.2,0.5-1.8,0.7c-0.5,0.2-1.1,0.1-1.6,0.1c-0.7-0.1-1.4-0.1-2.1-0.1c-0.5,0.4-1,0.8-1.6,1c-0.2,0.1-0.4,0.1-0.5,0.1
			c0,0.1,0.1,0.3,0.2,0.4c0.2,0.5,0.5,1,0.9,1.5c0.2,0.2,0.5,0.3,0.7,0.5c0.2,0.2,0.5,0.3,0.7,0.5c-0.1,0.1-0.2,0-0.3,0
			c-0.2-0.1-0.4-0.3-0.6-0.3c-0.2,0-0.1,0.2-0.1,0.4c0,0.6,0.1,1.2,0.4,1.7c0.3,0.6,0.9,1,1.5,1.4c0.1,0.1,0.2,0.1,0.2,0.2
			c-0.1,0-0.2,0-0.2,0.1c0,0.2,0.1,0.4,0.2,0.5c0.3,0.5,0.6,0.9,1.1,1.1c0.5,0.2,0.9,0.3,1.4,0.4c-0.1,0-0.2,0.1-0.3,0.1
			c-0.1,0-0.1,0-0.2,0l0,0c0,0.3-0.1,0.6-0.1,0.9c-0.1,0.6-0.2,1.3-0.1,1.9c0.2,0.9,0.8,1.6,1.5,2.1c0.2,0.2,0.4,0.3,0.6,0.5
			c0,0,0,0.1-0.1,0c-0.2-0.1-0.3-0.3-0.5-0.3c-0.1,0-0.1,0.2,0,0.3c0.2,1,0.7,2,1.3,2.9c0.5,0.6,1.2,1.2,1.9,1.6
			c1,0.7,2.3,1.2,3.5,1.4c0.1-0.1,0-0.2,0-0.3C133.1,856.5,133.1,832.1,133,813.5C133,813.6,133,813.5,133,813.5L133,813.5z"/>
		<path class="st3" d="M96,823.6c0.5,1.3,0.9,2.6,1.4,3.8c-1.1-0.4-2.1-0.8-3.2-1.2c0,1.7,0,3.4,0,5.2c1.1-0.4,2.1-0.8,3.2-1.2
			c-0.5,1.3-0.9,2.6-1.4,3.8c1.7,0,3.4,0,5.2,0c-0.5-1.3-0.9-2.6-1.4-3.8c1.1,0.4,2.1,0.8,3.2,1.2c0-1.7,0-3.4,0-5.2
			c-1.1,0.4-2.1,0.8-3.2,1.2c0.5-1.3,0.9-2.6,1.4-3.8C99.4,823.6,97.7,823.6,96,823.6L96,823.6z"/>
		<path class="st4" d="M100.5,828.8c0,1.1-0.9,1.9-1.9,1.9c-1.1,0-1.9-0.9-1.9-1.9c0-1.1,0.9-1.9,1.9-1.9
			C99.6,826.9,100.5,827.8,100.5,828.8z"/>
		<path class="st5" d="M99.6,828.8c0,0.6-0.5,1-1,1s-1-0.5-1-1s0.5-1,1-1S99.6,828.3,99.6,828.8z"/>
		<path class="st6" d="M104.4,855.7l2.6-3.2c0.5,0.2,0.8,0.5,0.9,1.1l-2.6,3.2C104.8,856.6,104.5,856.3,104.4,855.7z"/>
		<path class="st7" d="M110.2,845.5c0,6.5-5.2,11.8-11.6,11.8c-6.4,0-11.6-5.3-11.6-11.8c0,0,0,0,0,0c0-6.5,5.2-11.8,11.6-11.8
			S110.2,839,110.2,845.5C110.2,845.5,110.2,845.5,110.2,845.5z"/>
		<path d="M102.9,835.3l0,0.3c3.8,1.7,6.4,5.5,6.4,9.9c0,6-4.8,10.8-10.7,10.8c-4.1,0-7.6-2.3-9.4-5.7l-0.3,0
			c1.8,3.5,5.5,5.9,9.7,5.9c6,0,10.9-5,10.9-11.1C109.5,841,106.8,837,102.9,835.3L102.9,835.3z M102.9,836.2l0,0.3
			c3.4,1.6,5.7,5.1,5.7,9.1c0,5.6-4.5,10.1-10,10.1c-3.7,0-6.9-2-8.6-5l-0.3,0c1.8,3.1,5.1,5.2,8.9,5.2c5.6,0,10.2-4.6,10.2-10.3
			C108.8,841.4,106.4,837.8,102.9,836.2L102.9,836.2z M102.8,836.6l0,0.3c3.2,1.6,5.3,4.9,5.3,8.7c0,5.4-4.3,9.7-9.6,9.7
			c-3.5,0-6.5-1.9-8.2-4.7l-0.3,0c1.7,2.9,4.9,4.9,8.5,4.9c5.4,0,9.8-4.5,9.8-9.9C108.4,841.6,106.1,838.2,102.8,836.6L102.8,836.6z
			 M102.8,837.2l0,0.2c2.8,1.5,4.8,4.6,4.8,8.1c0,5-4,9.1-9,9.1c-3.2,0-6-1.7-7.6-4.2l-0.2,0c1.6,2.6,4.5,4.4,7.8,4.4
			c5.1,0,9.2-4.2,9.2-9.4C107.8,841.9,105.8,838.8,102.8,837.2L102.8,837.2z M102.8,837.8l0,0.2c2.6,1.5,4.3,4.3,4.3,7.5
			c0,4.8-3.8,8.6-8.5,8.6c-2.9,0-5.5-1.5-7.1-3.8l-0.2,0c1.6,2.4,4.2,4,7.3,4c4.8,0,8.7-4,8.7-8.9
			C107.3,842.2,105.5,839.3,102.8,837.8L102.8,837.8z M102.8,838.5l0,0.2c2.2,1.4,3.7,3.9,3.7,6.8c0,4.4-3.5,8-7.9,8
			c-2.6,0-4.9-1.3-6.4-3.2l-0.2,0c1.5,2.1,3.9,3.4,6.6,3.4c4.5,0,8.1-3.7,8.1-8.2C106.7,842.6,105.1,840,102.8,838.5z M102.8,839.5
			l0,0.2c1.8,1.3,2.9,3.4,2.9,5.8c0,4-3.2,7.2-7.1,7.2c-2.2,0-4.1-1-5.4-2.6l-0.2,0c1.3,1.7,3.4,2.7,5.6,2.7c4,0,7.3-3.3,7.3-7.4
			C105.9,843,104.6,840.8,102.8,839.5L102.8,839.5z M102.7,840.6l0,0.2c1.3,1.2,2.1,2.9,2.1,4.8c0,3.5-2.8,6.4-6.3,6.4
			c-1.7,0-3.3-0.7-4.4-1.9l-0.2,0c1.2,1.2,2.8,2,4.6,2c3.6,0,6.4-2.9,6.4-6.5C105,843.5,104.1,841.8,102.7,840.6L102.7,840.6z
			 M102.7,841.5l0,0.2c0.9,1,1.5,2.4,1.5,3.8c0,3.1-2.5,5.7-5.6,5.7c-1.3,0-2.6-0.5-3.5-1.3l-0.2,0c1,0.9,2.3,1.4,3.7,1.4
			c3.2,0,5.7-2.6,5.7-5.8C104.3,844,103.7,842.6,102.7,841.5z M102.7,842.7l0,0.2c0.5,0.8,0.7,1.7,0.7,2.6c0,2.7-2.2,4.9-4.8,4.9
			c-0.9,0-1.7-0.2-2.4-0.7l-0.2,0c0.8,0.5,1.6,0.8,2.6,0.8c2.7,0,4.9-2.2,4.9-5C103.5,844.5,103.2,843.5,102.7,842.7z"/>
		<path class="st8" d="M98.6,833.8c-0.7,0-1.4,0.1-2.1,0.2l-0.2,7.1c-4.2,0.2-7.7,1.2-9.2,2.3c-0.1,0.7-0.2,1.4-0.2,2.1
			c0,1.2,0.2,2.3,0.5,3.3c1.5-1.5,5.9-2.6,11.1-2.6c5.2,0,9.6,1.1,11.1,2.6c0.3-1.1,0.5-2.2,0.5-3.3c0-0.7-0.1-1.4-0.2-2.1
			c0,0,0,0,0,0c-1.5-1.2-4.9-2.1-9.2-2.3l-0.2-7.1C100,833.8,99.3,833.8,98.6,833.8L98.6,833.8z"/>
		<path class="st9" d="M107.2,859.6c-0.6,0.2-1.3,0.4-1.9,0.6c-0.1,0.1-0.3,0-0.3,0.2c0.4,1,0.8,1.9,1.6,2.7
			c0.3,0.3,0.7,0.6,1.1,0.4c0.8-0.2,1.4-0.6,2.1-1c0-0.2-0.1-0.4-0.3-0.5c-0.4-0.2-0.6-0.5-0.7-0.9c-0.1-0.2-0.4-0.2-0.5-0.4
			c-0.2-0.2-0.3-0.5-0.4-0.7c-0.2-0.1-0.4-0.2-0.6-0.4C107.3,859.6,107.2,859.5,107.2,859.6L107.2,859.6z M115.9,846.9
			c-0.6,0-1.2,0.1-1.6,0.5c-1.4,1.2-3.1,2-4.7,2.8c-0.1,0.1-0.3,0.2-0.2,0.3c0.4,0.1,0.9,0.3,1.3,0.4c0.2,0,0.4,0,0.6-0.1
			c0-0.2-0.1-0.5-0.1-0.7c0.2,0.1,0.4,0.2,0.6,0.3c0.1-0.3,0.2-0.5,0.4-0.8c0.1,0.1,0.3,0.4,0.4,0.3c0.3-0.4,0.7-0.7,1.1-1
			c-0.3,0.5-0.8,1-0.8,1.7c0,0.1,0,0.3,0.1,0.4c0.4,0,0.6,0.2,0.9,0.4c-0.3,0.3-0.6,0.7-0.7,1.2c-0.1,0.8,0.2,1.6,0.3,2.4
			c-0.7,0.8-1.4,1.5-2.1,2.2c0.1,0.2,0.2,0.4,0.2,0.5c0.2,0.2,0.4,0.3,0.6,0.5c0.2,0.2,0.2,0.4,0.3,0.6c0.1,0.1,0.2,0.2,0.3,0.2
			c0.4-0.5,0.6-1.1,0.9-1.6c1-2.1,1.7-4.3,2.2-6.5c0-0.2-0.2-0.1-0.2,0c-0.2,0.1-0.4,0.2-0.6,0.2c-0.1-0.1,0.1-0.3,0.2-0.4
			c0.6-0.7,1.2-1.5,1.4-2.4c0-0.4,0.1-0.9-0.3-1.2C116.2,846.9,116.1,846.8,115.9,846.9L115.9,846.9z"/>
		<path d="M107.3,859.6c-0.2,0.3-0.7,0.6-0.6,1.1c0.2-0.1,0.3-0.2,0.5-0.2c0,0.3,0,0.6-0.1,0.9c0.1,0.1,0.5-0.3,0.8-0.7l0.2-0.1
			c-0.2-0.2-0.3-0.4-0.3-0.7C107.7,859.9,107.5,859.7,107.3,859.6L107.3,859.6z"/>
		<path class="st9" d="M124.2,844c-0.6,0.3-1.5,0.5-2.1,0.8c-0.1,0-0.2,0.2-0.1,0.2c0,0.1,0,0.2-0.2,0.2c-0.5,0-1.1-0.1-1.6,0.2
			c-0.4,0.2-0.7,0.5-0.9,0.9c0,0.1-0.1,0.2-0.2,0.3c-0.1,0-0.2-0.1-0.3-0.1c-0.6,0.1-1.1,0.5-1.6,0.8c-0.2,0.1-0.1,0.4-0.2,0.6
			c-0.2,0.9-0.7,1.8-1.3,2.5c-0.1,0.1,0.1,0.1,0.1,0c0.1,0,0.2-0.1,0.3-0.1c-0.6,2.8-1.4,5.5-2.8,7.9c-0.1,0.3-0.4,0.6-0.5,0.9
			c0.1,0.1,0.3-0.1,0.4-0.1c0.5-0.2,1-0.5,1.6-0.7c1.3,0,2.6,0.1,3.8,0.3c0.8,0.1,1.7-0.1,2.4-0.6c0.2-0.2,0.5-0.3,0.7-0.5
			c0.1-0.4,0.4-0.1,0.4,0c0.1,0.1,0.3,0,0.4,0.1c0.8,0,1.6,0.2,2.4,0.1c0.5-0.1,0.9-0.4,1.4-0.6c0.4-0.2,0.9-0.2,1.4-0.2
			c0.1-0.2,0.2-0.4,0.4-0.7c0.3-0.3,0.7-0.9,0.8-1.6c0-0.2-0.4,0-0.5-0.2c-0.7-0.5-1.2-1.2-1.5-2c-0.2-0.1-0.5-0.2-0.7-0.5
			c-0.7-0.8-1.2-1.9-1.4-3c0-0.3-0.1-0.7,0.2-0.9c0.1-0.1,0.2,0,0.3-0.1c-0.4-0.7-1-1.3-1.2-2.1c-0.1-0.4,0-0.8,0.3-1.1
			c0.2-0.1,0-0.3,0-0.5C124.3,844.3,124.4,844,124.2,844L124.2,844z"/>
		<path class="st6" d="M111.5,864.2l2.6-3.2c0.5,0.2,0.8,0.5,0.9,1.1l-2.6,3.2C111.8,865.1,111.6,864.7,111.5,864.2z"/>
		<path class="st10" d="M115.1,866.6c0,1.3-1,2.3-2.3,2.3s-2.3-1-2.3-2.3s1-2.3,2.3-2.3S115.1,865.3,115.1,866.6z"/>
		<path d="M112.8,864.8c-0.1,0-0.1,0-0.1,0c0.8,0.1,1.5,0.8,1.5,1.8c0,0.9-0.6,1.7-1.5,1.8c0,0,0.1,0,0.1,0c0.9,0,1.6-0.8,1.6-1.8
			C114.4,865.6,113.7,864.8,112.8,864.8L112.8,864.8z"/>
		<path class="st10" d="M119,867.4c0,1.3-1,2.3-2.3,2.3c-1.3,0-2.3-1-2.3-2.3s1-2.3,2.3-2.3C118,865.1,119,866.2,119,867.4z"/>
		<path d="M116.7,865.7c-0.1,0-0.1,0-0.1,0c0.8,0.1,1.5,0.8,1.5,1.8c0,0.9-0.6,1.7-1.5,1.8c0,0,0.1,0,0.1,0c0.9,0,1.6-0.8,1.6-1.8
			C118.3,866.5,117.6,865.7,116.7,865.7L116.7,865.7z"/>
		<path class="st10" d="M118.7,862.8c0,1.3-1,2.3-2.3,2.3s-2.3-1-2.3-2.3s1-2.3,2.3-2.3S118.7,861.6,118.7,862.8z"/>
		<path d="M116.4,861.1c-0.1,0-0.1,0-0.1,0c0.8,0.1,1.5,0.8,1.5,1.8s-0.6,1.7-1.5,1.8c0,0,0.1,0,0.1,0c0.9,0,1.6-0.8,1.6-1.8
			C118,861.8,117.3,861.1,116.4,861.1L116.4,861.1z"/>
		<path class="st10" d="M117,864.6c0,1.4-1.1,2.4-2.4,2.4s-2.4-1.1-2.4-2.4c0-1.4,1.1-2.4,2.4-2.4S117,863.3,117,864.6z"/>
		<path d="M114.6,862.7c-0.1,0-0.1,0-0.2,0c0.9,0.1,1.6,0.9,1.6,1.9c0,1-0.7,1.8-1.6,1.9c0.1,0,0.1,0,0.2,0c1,0,1.7-0.8,1.7-1.9
			C116.3,863.6,115.5,862.7,114.6,862.7L114.6,862.7z"/>
		<path class="st11" d="M94.9,858.2c-0.3,0-0.7,0.2-1,0.6c-0.1,0.1-0.1,0.2-0.2,0.3c-0.8,1.4,1.2,3.7,2.8,2.6l2.5-1.6
			c-0.1,0-0.3,0-0.4,0c-0.4,0-0.8,0-1.1-0.3c-0.2-0.1-0.3-0.3-0.5-0.4l-1.2,0.8C96.6,859.7,95.9,858.2,94.9,858.2L94.9,858.2z"/>
		<path class="st12" d="M94.9,858.2c-0.3,0-0.7,0.2-1,0.6c0,0-0.1,0.1-0.1,0.1c-0.4,1.4,1.1,3.1,2.7,2.1l1.6-0.9
			c-0.2,0-0.4-0.1-0.5-0.2c-0.2-0.1-0.3-0.3-0.5-0.4l-1.2,0.8C96.6,859.7,95.9,858.2,94.9,858.2L94.9,858.2z"/>
		<path class="st13" d="M94.2,859.9c-0.4-1.2,0.6-1.1,1-1"/>
		<path class="st1" d="M96.4,849.5C96.3,849.5,96.3,849.5,96.4,849.5c-0.2,0-0.5,0.1-0.4,0.3c0.3,0.4,0.5,0.9,0.3,1.4
			c-0.1,0.3-0.5,0.4-0.8,0.4c-0.2,0,0,0.3,0,0.4c0.2,1.3,0.5,2.6,1,3.8c0.3,0.6,0.7,1.2,1.2,1.7c0,0.1,0.1,0.1,0.1,0.2
			c0.7,0.8,1.4,1.6,2.2,2.3c0.2,0.1,0.4,0.3,0.6,0.3c1.2,0.1,2.3,0.2,3.5,0.3c0.3,0,0.5-0.2,0.8-0.2c0.7-0.3,1.5-0.6,2.2-0.8
			c0.1-0.1,0-0.2,0-0.2c-0.1-0.1,0-0.2-0.1-0.3c-0.2-0.1-0.4-0.2-0.5-0.4c-0.2-0.2-0.2-0.4-0.3-0.7c-0.1-0.1-0.2-0.1-0.2-0.1
			c-0.2-0.1-0.4-0.3-0.5-0.6c-0.1-0.1-0.1-0.3-0.1-0.4c-0.1-0.1-0.3-0.1-0.4-0.2c-0.2-0.2-0.4-0.4-0.4-0.7c0,0,0,0-0.1,0
			c-0.2,0.1-0.4,0.2-0.5,0.3c-0.1,0.1-0.2,0.1-0.3,0.2c0,0.1,0.1,0.2,0.2,0.4c0.1,0.2,0.2,0.4,0.3,0.6c0.1,0.1,0.2,0.1,0.3,0.1
			c-0.3,0-0.6-0.1-0.6-0.4c0-0.2-0.1-0.4-0.2-0.6c0,0,0,0,0,0c0-0.1-0.1-0.1-0.1-0.2c-0.2-0.4-0.6-0.8-1-0.9c-0.1,0-0.2-0.1-0.3-0.1
			c0.3-0.3,0.4-0.8,0.4-1.2c0-0.4-0.1-0.8-0.2-1.2c-0.1-0.2-0.3-0.4-0.4-0.6c0.1-0.5,0.2-1,0-1.4c-0.1-0.3-0.4-0.6-0.7-0.8
			c-0.2-0.1-0.5-0.1-0.8-0.1c-0.2,0-0.4,0-0.5,0.1c-0.1,0.1,0.1,0.1,0.1,0.1c0.1,0,0.1,0,0.2,0l-0.1,0.1c-0.1,0-0.2,0-0.3,0.1
			c0,0.3,0,0.7,0,1c0,0.1,0,0.3,0,0.4c0.1,0.1,0.3,0.1,0.4,0c0.2-0.2,0.4-0.6,0.4-0.9c0-0.2-0.1-0.4-0.3-0.5c0,0,0,0,0-0.1
			c0.1,0,0.2,0.1,0.3,0.2c0.1,0.2,0.1,0.5,0,0.7c-0.1,0.3-0.4,0.7-0.7,0.7c-0.1,0-0.1,0.1-0.1,0.2c0,1.2,0.1,2.5,0.5,3.6
			c0.2,0.5,0.4,1.1,0.6,1.5c0,0,0,0,0,0c0,0.1,0.1,0.1,0.1,0.2c0.2,0.3,0.4,0.5,0.6,0.8c-0.3-0.2-0.5-0.5-0.6-0.8
			c0-0.1-0.1-0.2-0.1-0.2c0-0.2-0.2-0.3-0.2-0.5c-0.3-0.5-0.7-1-1.3-1.1c-0.1-0.1-0.1-0.3-0.1-0.5c-0.1-0.8-0.3-1.6-0.6-2.4
			c-0.1-0.3-0.2-0.5-0.5-0.7c-0.2-0.2-0.4-0.3-0.5-0.5c0-0.2,0.2-0.3,0.1-0.5c-0.1-0.7-0.6-1.2-1.2-1.5
			C96.5,849.6,96.5,849.5,96.4,849.5L96.4,849.5z M95.7,849.7c-0.2,0.1-0.3,0.3-0.4,0.5c-0.1,0.3-0.1,0.6,0,0.9c0,0.1,0,0.3,0.2,0.3
			c0.2,0.1,0.5,0.1,0.6-0.1c0.3-0.3,0.2-0.7,0.1-1C96.2,850,96,849.8,95.7,849.7C95.8,849.7,95.8,849.7,95.7,849.7L95.7,849.7z
			 M92.6,850.1C92.6,850.2,92.6,850.2,92.6,850.1c-0.1,0.1,0,0.2,0,0.2c0.2,0.4,0.3,0.9,0.2,1.4c-0.1,0.3-0.3,0.5-0.6,0.6
			c-0.1,0-0.2,0-0.2,0.1c0.4,1.6,1.3,3.2,2.3,4.5c0.9,1.1,1.9,2,3,2.9c0.3,0.2,0.7,0.3,1.1,0.3c0.4,0,0.8-0.1,1.3-0.1
			c0.1-0.1-0.1-0.1-0.1-0.2c-0.8-0.8-1.5-1.6-2.2-2.4c-0.4-0.5-0.6-1.1-1-1.5c-0.1-0.1-0.2-0.2-0.4-0.3c-0.1-0.4-0.2-0.8-0.3-1.2
			c-0.2-0.8-0.6-1.5-1.2-2.1c-0.1-0.1-0.2-0.1-0.3-0.3c-0.2-0.5-0.4-1-0.8-1.4C93.4,850.3,93,850.1,92.6,850.1
			C92.6,850.1,92.6,850.1,92.6,850.1L92.6,850.1z M92.3,850.2c-0.4,0.1-0.6,0.4-0.8,0.8c0.2,0.4,0.3,0.8,0.5,1.2
			c0.3,0.1,0.6-0.1,0.7-0.4c0.2-0.5,0.1-1.2-0.3-1.5C92.4,850.2,92.3,850.2,92.3,850.2L92.3,850.2z M109.3,850.6
			c-0.2,0.1-0.2,0.3-0.3,0.5c-0.3,0.7-0.7,1.3-1.2,1.9c0,0.2,0.2,0.4,0.2,0.6c0.2,0.2,0.4,0.2,0.5,0.4c0.2,0.2,0.3,0.4,0.4,0.7
			c0.2,0.2,0.4,0.3,0.6,0.5c0.2,0.2,0.2,0.4,0.3,0.6c0.2,0.2,0.4,0.2,0.6,0.4c0.2,0.2,0.2,0.4,0.3,0.6c0.2,0.1,0.4,0.2,0.5,0.4
			c0.4-0.4,0.8-0.8,1.2-1.2c0.3-0.3,0.7-0.6,0.9-1c-0.1-0.8-0.4-1.7-0.2-2.5c0.1-0.4,0.3-0.7,0.5-0.9c0-0.1-0.2-0.1-0.3-0.2
			c-0.2-0.1-0.5-0.3-0.7-0.2c-0.4,0-0.8,0-1.1,0.1c0,0,0,0,0,0C110.8,851,109.7,850.7,109.3,850.6L109.3,850.6z M89.3,852.4
			c-0.2,0-0.5,0.2-0.6,0.4c0,0.2,0.3,0.3,0.4,0.4c0.3,0.2,0.7,0.4,0.8,0.8c0.1,0.2,0,0.4-0.1,0.6c0.9,0.7,1.7,1.5,2.5,2.3
			c0.6,0.6,1.5,0.8,2.3,0.7c0.1-0.1-0.1-0.2-0.1-0.4c-0.5-0.8-1-1.6-1.5-2.4c-0.3-0.5-0.6-1.1-1.2-1.2c-0.2-0.1-0.4,0-0.6-0.1
			c-0.6-0.5-1-1.1-1.8-1.3C89.4,852.4,89.3,852.4,89.3,852.4L89.3,852.4z M88.5,853.1c-0.2,0.1-0.1,0.3-0.1,0.5
			c0.2,0.4,0.7,0.5,1,0.8c0.1,0.1,0.2,0.2,0.3,0.1c0.2-0.2,0-0.6-0.2-0.8C89.3,853.4,88.9,853.1,88.5,853.1z"/>
		<path d="M113.7,848.8c-0.5,0.3-1,0.6-1.3,1.1l-0.4-0.4l-0.4,0.9l-0.6-0.3l0.2,0.8l-0.6,0.1c0,0,0,0,0,0c-0.5-0.1-1.1-0.3-1.6-0.4
			c0,0.3,0.6,0.2,0.8,0.4c0.3,0.1,0.6,0.2,0.8,0.2c0.8,1,0.5,3.2,0.2,4.8c0.5-1.7,0.7-2.7,0.5-4.6c0.1,0,0.3,0,0.4,0l1-0.1l0.8,0.3
			c-0.5,0.5-0.6,1-0.6,1.6c0,0.6,0.2,1.2,0.3,1.9l-2.2,2.2l0.2,0.1c0.9-0.6,1.6-1.6,2.2-2.3c-0.1-0.7-0.3-1.3-0.3-1.9
			c0.1-0.8,0.2-1.2,0.7-1.7c-0.2,0-0.3-0.2-0.4-0.3c-0.1-0.1-0.2-0.2-0.3-0.1c-0.1,0-0.2,0-0.2,0
			C112.6,850.1,113.4,849.5,113.7,848.8L113.7,848.8z M96.2,849.4c-0.8,0-1.2,0.9-1,1.6c0.3,0.8,0.3,1.7,0.5,2.5
			c-0.3-0.9-1.2-1.4-1.5-2.2c-0.3-0.9-1.3-1.7-2.2-1.1c-0.3,0.2-0.8,0.6-0.5,1c0.3,0.7,0.6,1.5,0.8,2.3c0.4,0.6-0.9,0-1.2,0
			c-0.6-0.6-1.6-1.7-2.5-0.9c-0.3,0.4-0.9,1-0.1,1.2c1.3,1.1,2.7,2.1,3.8,3.4c0.9,0.5,1.9,0.7,2.9,0.7c0.8,0.8,1.6,1.7,2.6,2.2
			c0.8,0.3,1.9-0.4,2.5,0.3c1.3,0,2.6,0.1,4,0.2c0.9-0.3,1.7-0.7,2.6-1v0l0.4-0.1l-0.1-0.2c-1,0.3-2.1,0.8-3,1.1
			c-1.3-0.1-2.5-0.2-3.8-0.3c-0.5-0.2-3.1-2.8-4-4.7c-0.5-1.3-0.7-2.6-1-4c1.2,0.1,1.2-1.2,0.5-1.8c0.5-0.7,1.9,0.7,1.8,1.6
			c-0.5,0.6,0.7,0.7,0.8,1.5c0.4,0.9,0.7,1.9,0.7,3c1,0,1.4,1.1,1.8,1.8c0.1,0.4,1.1,1.3,0.5,0.5c-1.4-1.7-1.7-4-1.6-6.1
			c0.9,0,1.4-1.8,0.3-1.8c-0.9,0,0.5-0.4,1.1,0.1c0.8,0.7,0.6,1.6,0.5,2.1c0.3,0.3,0.5,0.6,0.5,0.8c0.1,0.7,0.3,1.7-0.3,2.2
			c0.9,0.1,1.4,0.9,1.7,1.7c0,0.7,1.5,0.6,0.4,0.3c-0.4-0.8-1-1.9-1.7-2.2c0.3-1,0.2-2.2-0.4-3c0.3-1,0-2.3-1.3-2.3
			c-0.7,0-0.9,0.1-0.9,0.4c0,0.9,0.1,1.3,0,1.7c0,0.9,0.3,3.4,0.6,4.3c-0.6-0.5-1.2-0.6-1.1-1.5c-0.2-1-0.5-2.2-1.3-2.9
			c-0.1-0.7-0.3-1.9-1.2-2.2C96.6,849.4,96.5,849.4,96.2,849.4C96.3,849.4,96.2,849.4,96.2,849.4L96.2,849.4z M95.7,849.7
			c0.9,0.5,0.6,2.1-0.4,1.6C95.2,850.8,95.2,850,95.7,849.7z M100.2,850.1c1,0,0.1,1.9-0.3,1.4c0-0.4,0-0.9,0-1.3l0.2,0L100.2,850.1
			z M92.6,850.2c1.1,0,1.5,1.3,1.8,2c1.1,0.8,1.4,2.2,1.7,3.5c0.6,0.2,0.9,1.2,1.4,1.8c0.8,0.8,1.5,1.8,2.4,2.6
			c-0.9,0-1.9,0.3-2.6-0.3c-2.3-1.9-4.4-4.3-5.2-7.2C93.4,852.2,92.9,850.6,92.6,850.2L92.6,850.2z M92.4,850.2
			c0.8,0.5,0.6,2.2-0.3,1.9c-0.2-0.4-0.3-0.8-0.5-1.2C91.7,850.6,92,850.3,92.4,850.2L92.4,850.2z M89.3,852.4
			c0.8,0.1,1.4,0.9,2,1.3c1.3-0.2,1.6,1,2.1,1.9c0.4,0.7,1.1,1.6,1.2,2.1c-0.9,0-1.6-0.1-2.3-0.7c-0.7-0.9-1.6-1.7-2.5-2.4
			c0.7-1.1-1.1-1.4-1.2-1.9C88.8,852.6,89,852.5,89.3,852.4L89.3,852.4z M88.5,853.1c0.7,0,1.7,1,1.2,1.4
			C89.3,854.1,88.1,853.7,88.5,853.1z"/>
		<path class="st14" d="M65.9,807.6c0,0,0.9,3.8,1.6,4.7l21.7,26.3c0.9-1.3,2.1-2.4,3.5-3.2L70.3,810
			C69.6,809.1,65.9,807.6,65.9,807.6L65.9,807.6z"/>
		<path class="st15" d="M67.8,809.8c0,0,0.1,1.6,0.6,2.2L90,837.7c0.6-0.6,1.2-1.2,1.9-1.7l-22-25.3
			C69.4,810.2,67.8,809.8,67.8,809.8z"/>
		<path d="M116,846.6c-0.7,0-1.4,0.1-1.9,0.7c-1.6,0.9-3.2,1.8-4.7,2.7c-0.1,0.1-0.1,0.2-0.2,0.4c0.1,0,0.1,0,0.2,0.1l0.1-0.3
			c2.2-1,3.8-1.9,4.8-2.8c0.4-0.5,1.1-0.5,1.6-0.5c0.8-0.1,0.7,1.1,0.5,1.7c-0.2,0.9-0.9,1.6-1.5,2.2c0.1,0.4,0.3,0,0.6,0
			c0.6-0.4,0.2,0.4,0.1,0.7c-0.6,2.6-1.5,5.2-3,7.5c0.1,0,0.1,0.1,0.2,0.1c0.4-0.7,0.8-1.4,1.2-2.1c1-2.2,1.7-4.5,2.2-6.8
			c-0.3,0.1-0.8,0.5-0.3,0c0.6-0.8,1.2-1.7,1.2-2.7C117,846.9,116.5,846.6,116,846.6L116,846.6z M105,860.3c-0.1,0-0.1,0-0.2,0.1
			c0.4,1.1,1,2.2,1.9,3c0.7,0.6,1.7,0,2.4-0.3c0.3-0.2,0.6-0.4,0.8-0.6c0-0.1-0.1-0.1-0.1-0.2c-0.7,0.5-1.5,0.9-2.3,1.1
			c-0.8,0-1.2-0.8-1.6-1.4C105.5,861.5,105.2,861,105,860.3z"/>
		<path d="M124.2,843.8c-0.1,0.1-0.5,0.2-0.6,0.2c-0.6,0.2-1.1,0.4-1.4,0.6c-0.2,0.1-0.3,0.2-0.3,0.3c0,0,0,0.1,0,0.1
			c-0.6-0.1-1.1,0-1.6,0.2c-0.5,0.2-0.8,0.6-1.1,1c-0.9,0.1-1.7,0.6-2.3,1l-0.1,0l0,0.1c0.1,0.4-0.1,1-0.4,1.5
			c-0.3,0.6-0.7,1.1-1,1.5l0,0l0,0l-0.1,0.2l-0.1,0.2l0.2-0.1l0.4-0.2c-0.8,3.8-2.1,6.7-3.4,8.7l0,0l0,0l0,0.1l-0.1,0.2l0.2-0.1
			l2.3-1.1c1.7,0,2.6,0.1,3.2,0.2c0.6,0.1,1.1,0.2,1.8,0c0.5-0.1,0.9-0.4,1.3-0.6c0.3-0.2,0.5-0.4,0.6-0.4c0.5,0,1.2,0,1.8,0.1
			c0.6,0,1.1,0.1,1.4,0.1c0.4,0,0.7-0.3,1-0.4c0.3-0.2,0.7-0.4,1.1-0.4c0.2,0,0.4,0,0.7,0c0-0.1,0-0.1,0-0.2c-0.3,0-0.5-0.1-0.7,0
			c-0.4,0-0.8,0.2-1.2,0.4s-0.7,0.4-0.9,0.4c-0.2,0-0.8,0-1.4-0.1c-0.4,0-0.9-0.1-1.4-0.1c0.5-1.9,1.5-3.6,0.1-6.5l0.4-0.7l-0.2-0.1
			l-0.7,0.7c1.4,2.3,0.8,4.5-0.1,6.6c0,0-0.1,0-0.1,0c0,0-0.2,0.2-0.6,0.4c-0.3,0.2-0.8,0.5-1.2,0.6c-0.7,0.1-1.1,0.1-1.8,0
			c-0.6-0.1-1.5-0.2-3.3-0.2h0l0,0l-1.6,0.7c1.3-2.1,2.1-4.8,2.9-8.6l0-0.2l-0.2,0.1l-0.4,0.2c0.3-0.4,0.7-0.9,1-1.5
			c0.3-0.6,0.5-1.1,0.4-1.6c0.5-0.4,1-0.8,1.8-0.9c0.6,0.2,1.5,0.6,1.9,1.1c0.3,0.3,0.5,0.7,0.6,1.1c0.1,0,0.1-0.1,0.2-0.1
			c-0.2-0.7-0.7-1.4-1.3-1.8c-0.3-0.2-0.6-0.4-0.9-0.5c0.2-0.4,0.6-0.7,1-0.9c0.4-0.2,1-0.2,1.7-0.1v0l1.4,0.5l-1.3-0.7l0,0
			c-0.1,0-0.1-0.1-0.1-0.1c0,0,0,0,0,0c0,0,0.1-0.1,0.2-0.2c0.3-0.2,0.8-0.4,1.4-0.6c0.1,0,0.5-0.2,0.6-0.2
			C124.2,844,124.2,843.9,124.2,843.8L124.2,843.8z M118.4,848.9c-0.1,0-0.1,0-0.1,0.1c0,0-0.3,3.2-0.2,4.3c0,0.3,0.9,1.2,0.9,1.2
			c0.1,0.2,0.2,0,0.1-0.1c0,0-0.5-0.7-0.7-1.1c-0.4-1.4,0-4.2,0-4.2C118.5,849,118.5,848.9,118.4,848.9z"/>
		<path class="st16" d="M112.9,843.1c-0.1,0-0.3,0-0.4,0.1c-2.4,0.6-0.9,3.5,0.5,2.8l-2.9,1.5c-0.2,1-0.4,1.9-0.8,2.8l4.8-2.8
			C116.1,846.3,114.8,843,112.9,843.1L112.9,843.1z"/>
		<path class="st17" d="M112.6,843.1c-0.1,0-0.1,0-0.2,0c-2.4,0.6-0.9,3.5,0.5,2.8l-2.9,1.5c-0.1,0.6-0.3,1.3-0.5,1.8l3.8-2.3
			C115,846.1,114.2,843.4,112.6,843.1L112.6,843.1z"/>
		<path class="st18" d="M112,844.1c-0.4,0.6-0.1,1.4,0.9,1.2"/>
		<path class="st19" d="M122.4,851.1c1.3,2.9,0.4,4.5-0.1,6.4c0.5,0,0.9,0,1.4,0.1c0.6,0,1.2,0.1,1.4,0.1c0.3,0,0.6-0.2,0.9-0.4
			c0.3-0.2,0.7-0.4,1.2-0.4c0.2,0,0.5,0,0.7,0c0.1-0.2,0.2-0.5,0.3-0.7c0-0.1,0.1-0.2,0.1-0.2c-1.3,0-2.7,0-4,0.6
			C124.1,853.9,123.7,851.8,122.4,851.1L122.4,851.1z"/>
		<path class="st19" d="M118.5,849C118.5,849,118.5,849,118.5,849c0,0.1-0.4,3,0,4.3c0.1,0.4,0.7,1.1,0.7,1.1c0,0,0,0.1,0,0.1
			c0.4-0.2,0.7-0.5,0.9-0.9c-1.7-1.4-0.9-3.1-1.2-4.7L118.5,849z"/>
		<path class="st19" d="M116.2,850.5c-0.8,3.6-1.9,6.4-3.2,8.5c0,0,0,0.1,0,0.1c0,0,0,0,0.1,0l1.8-0.8l0,0h0c1.7,0,2.6,0.1,3.3,0.2
			c0.6,0.1,1,0.2,1.8,0c0.4-0.1,0.9-0.3,1.2-0.6c0.3-0.2,0.6-0.5,0.6-0.5c0,0,0.1,0,0.1,0c0,0,0,0,0,0c0,0,0,0,0,0
			c0.1-0.3,0.2-0.6,0.3-0.8c-1.8,0.4-1.6,1.2-6.7,0.5C116.5,855,116.3,852.8,116.2,850.5L116.2,850.5z"/>
		<path class="st6" d="M110.6,863.1l2.6-3.2c0.5,0.2,0.8,0.5,0.9,1.1l-2.6,3.2C111,864,110.7,863.6,110.6,863.1z"/>
		<path class="st6" d="M109.7,862.1l2.6-3.2c0.5,0.2,0.8,0.5,0.9,1.1l-2.6,3.2C110.1,863,109.8,862.6,109.7,862.1L109.7,862.1z"/>
		<path class="st6" d="M108.8,861l2.6-3.2c0.5,0.2,0.8,0.5,0.9,1.1l-2.6,3.2C109.2,861.9,108.9,861.5,108.8,861z"/>
		<path class="st6" d="M107.9,859.9l2.6-3.2c0.5,0.2,0.8,0.5,0.9,1.1l-2.6,3.2C108.3,860.8,108,860.5,107.9,859.9L107.9,859.9z"/>
		<path class="st6" d="M107.1,858.9l2.6-3.2c0.5,0.2,0.8,0.5,0.9,1.1l-2.6,3.2C107.4,859.8,107.2,859.4,107.1,858.9L107.1,858.9z"/>
		<path class="st6" d="M106.2,857.8l2.6-3.2c0.5,0.2,0.8,0.5,0.9,1.1l-2.6,3.2C106.5,858.7,106.3,858.4,106.2,857.8L106.2,857.8z"/>
		<path class="st6" d="M105.3,856.8l2.6-3.2c0.5,0.2,0.8,0.5,0.9,1.1l-2.6,3.2C105.7,857.7,105.4,857.3,105.3,856.8L105.3,856.8z"/>
		<path class="st6" d="M109.7,862.1l2.6-3.2c0.5,0.2,0.8,0.5,0.9,1.1l-2.6,3.2C110.1,863,109.8,862.6,109.7,862.1L109.7,862.1z"/>
		<path class="st6" d="M109.7,862.1l2.6-3.2c0.5,0.2,0.8,0.5,0.9,1.1l-2.6,3.2C110.1,863,109.8,862.6,109.7,862.1L109.7,862.1z"/>
		<path d="M133.1,813.4c-2.4,0.2-3.5,0.8-4,1.7c-0.2,0.3-0.3,0.7-0.4,1.1c-1.1,0.1-1.9,0.5-2.4,1c-0.6,0.6-0.8,1.3-1,2.1
			c-0.2,1.1,0.1,2.3,0.4,3.2l-0.1,0.1c-1.6,2.4-1.8,4.2-1.2,5.7c0.4,1,1.2,1.9,2.2,2.7l0,0.2c-0.1,2,0.6,3.1,1.5,4.1l0,0.1l-0.3,0.8
			c-0.9,0.1-1.4,0.4-1.8,0.6c-0.4,0.3-0.5,0.7-0.6,1.1c-0.1,0.5,0,1,0.1,1.5c-0.6,0.7-1.3,1.1-1.5,1.8c-0.3,0.7-0.2,1.8,0.5,3.6
			c-0.4,0.3-0.5,0.8-0.3,1.4c0.1,0.5,0.5,1.2,1.1,1.9c-0.3,0.1-0.4,0.4-0.5,0.6c-0.1,0.3-0.2,0.7-0.1,1.1c0.3,0.8,0.7,2.4,2.1,2.8
			c0.3,0.4,0.8,1.1,1.1,1.4c0.3,0.4,0.5,0.7,0.9,0.7c0.2,0.1,0,0.2-0.3,0.8c-0.2,0.5-0.4,0.9-0.5,1.2c-0.2,0.3-0.2,0.9-0.1,1.4
			c0,0,0,0.1,0,0.1c-0.2,0.2-0.4,0.5-0.4,0.7c0,0.3,0,0.5,0.2,0.8c0.1,0.2,0.2,0.4,0.3,0.6l0,0.1c0,0.3-0.2,0.6-0.2,1.1
			c0,0.5,0.1,1.2,0.7,2.3c-0.1,1.8,0.3,3.1,0.9,3.9c0.5,0.6,1.1,1,1.8,1.2c-0.1,0-0.2,0.1-0.2,0.2c0,0.1,0,0.2,0,0.3
			c0.1,0.2,0.4,0.5,0.6,0.9c0.4,0.8,1,1.7,1.7,2.4l0.2-0.1c-0.5-0.7-1.3-1.7-1.7-2.4c-0.2-0.4-0.5-0.7-0.6-0.9
			c-0.1-0.1-0.1-0.3,0.1-0.3c0.3,0,0.5,0,0.7-0.1c-0.8-0.1-1.8-0.6-2.4-1.4c-0.7-1.4-0.9-2.6-0.9-3.8c-0.3-0.7-0.7-1.5-0.7-2.3
			c0-0.4,0.1-0.6,0.2-0.9l0.6,0.7c0.2,0.3,0.4,0.2,0.2-0.1c-0.3-0.5-0.8-1.1-1-1.6c-0.1-0.3-0.2-0.5-0.1-0.7c0-0.2,0.1-0.3,0.2-0.4
			l0.2,0.5l0,0l0.2-0.1c0,0,0,0,0,0c0,0-0.1-0.4-0.2-0.8c-0.1-0.5-0.1-1,0.1-1.2c0.2-0.3,0.4-0.6,0.7-1.1c0.1-0.2,0.3-0.4,0.4-0.6
			c0-0.1,0-0.3,0-0.4c0.4,0.8,1.2,1.2,2,1.5l0,0l0,0l0.1-0.1l0,0l0,0c-0.6-0.4-1.4-0.6-1.7-1.5c-0.1-0.4-0.3-0.2-0.6-0.3
			c-0.1,0-0.2-0.2-0.2-0.2c-0.3,0-0.5-0.1-0.8-0.5c-0.3-0.4-0.6-0.9-1-1.2c-0.5,0.3-2.2-1.8-2.1-3.7c0.1-0.2,0.2-0.4,0.4-0.5
			l0.2,0.2c0.3,0.3,0.2,0,0.1-0.1c-0.7-0.9-1.2-1.6-1.3-2.2c-0.2-0.6-0.1-1,0.3-1.3l0.1,0l-0.1-0.1c-0.8-1.8-0.8-2.7-0.5-3.4
			c0.2-0.6,0.9-1.2,1.4-1.6l0.1,0.8l0.2,0c0-0.8-0.4-1.7-0.3-2.5c0-0.4,0.2-0.7,0.5-1c0.3-0.3,0.9-0.5,1.8-0.6l0,0l0,0l0.3-0.7
			l0.8,0.7l0,0l0,0l0.1-0.1c-1.2-1.2-2.4-2.3-2.3-4.8l1.1,0.6l0,0l0.1-0.1c0,0,0,0,0,0c-1.4-1.1-2.8-2.3-3.4-3.7
			c-0.6-1.4-0.4-3.1,1.1-5.4l0.3,0.5l0,0l0.1-0.1c0,0,0,0,0,0c-0.4-0.8-0.9-2.4-0.7-3.9c0.1-0.7,0.4-1.4,0.9-2
			c0.5-0.5,1.2-0.8,2.2-1c-0.1,0.5-0.2,1.1-0.4,1.6c0,0.2,0,0.1,0.2,0l0.5-1.7c0-0.1,0.1-0.1-0.1-0.1c0.1-0.3,0.2-0.7,0.4-0.9
			c0.5-0.8,1.6-1.5,3.9-1.6L133.1,813.4z"/>
		<path d="M125.5,822.1c-1,0-2.1,0.1-2.7,1c-0.4,0.5-0.3,1.4-1.2,1.2c-1,0.1-1.6,1.1-1.7,2.1c-0.1,0.7-1,0.9-1.2,1.6
			c-0.5,0.6,0.2,1.4,0.1,1.9c-1.2,1.1-1.8,2.8-1.3,4.4c0.1,0.6,0.8,1.2,0.6,1.5c-0.1,1.4,0.2,3.1,1.5,3.9c0.8,0.5,1.9,0.6,2.9,0.5
			c0.2,0.5,1.6,1.2,1.7,0.8c-0.6,0-1.3-0.6-1.6-1c-1.3,0.1-2.8-0.1-3.6-1.3c-0.5-0.8-0.6-1.8-0.6-2.8c0.3,0.2,0.5,0.5,0.8,0.7
			c0.3-0.3-0.6-0.7-0.7-1.1c-0.9-1.2-1.2-3-0.4-4.3c0.3-0.4,0.7-1.5,1.2-1.2c0.2,0.1,0.3,0.5,0.5,0.3c-0.5-0.7-1.1-1.7-0.6-2.5
			c0.2-0.7,1.2-0.8,1.2-1.5c0.1-0.9,0.6-1.8,1.6-1.9c0.6-0.3,0.6,0.2,0.5,0.6c0.5-0.1,0.3-1.1,0.7-1.5c0.4-0.9,1.4-1.2,2.3-1.2
			C125.2,822.3,125.7,822.5,125.5,822.1L125.5,822.1z"/>
		<path d="M120.7,840.2c-0.3,0.6-0.6,1.3-0.6,2c0,0.8,0.3,1.7,1.1,2.8c0.1,0,0.1,0,0.2,0c-0.8-1.1-1.1-2-1.1-2.8
			c0-0.7,0.2-1.4,0.6-2C120.9,840.2,120.8,840.2,120.7,840.2L120.7,840.2z"/>
		<path d="M119.6,858.9c-0.1,0-0.1,0-0.2,0c0.1,0.3,0.3,0.6,0.4,0.8c0.3,0.6,0.7,1.1,1.1,1.6c-0.2,1.1,0.1,2.4,1,3.1
			c0.6,0.3,0.7,0.8,0.9,1.4c0.5,1,1.5,1.6,2.6,1.6c0.6,0,1.2,0,1.4,0.7c0.9,1.2,2.3,1.8,3.7,1.7c0.1,0,0.2,0,0.3,0
			c0,0-0.1-0.1-0.1-0.1c-1.2,0.1-2.4-0.2-3.2-1c-0.5-0.4-0.8-0.9-1.1-1.3c-1.1,0-2.4-0.1-3.2-1.1c-0.2-0.2-0.7-1.1-0.4-1
			c0.6,0.1-0.4-0.5-0.6-0.7c-0.9-0.6-1.4-1.7-1.3-2.7c-0.2-0.8,0.9,0.5,1,0c-0.4-0.3-0.7-0.6-1.1-0.8c-0.3-0.1-0.8-1-1.1-1.5
			C119.9,859.3,119.7,859.1,119.6,858.9L119.6,858.9z"/>
		<path d="M125,867.2c0,1.1-0.5,2.2-0.1,3.3c0.2,0.7,0.7,1.2,1.2,1.7c0.4,1.9,1.2,3.6,2.8,4.8c1,0.8,2.2,1.4,3.5,1.7
			c0.2,0,1,0.3,0.7-0.1c-1.3-0.2-2.5-0.7-3.6-1.5c-1.6-0.9-2.6-2.3-3-4c0-0.2-0.3-0.9,0-0.5c0.1,0.1,0.3,0.2,0.4,0.3
			c0.3-0.3-0.5-0.5-0.6-0.7c-0.8-0.7-1.5-1.7-1.4-2.8c0-0.7,0.3-1.4,0.3-2.2C125.1,867.2,125,867.2,125,867.2z"/>
		<path class="st20" d="M98.6,833.8c-0.4,0-0.7,0-1.1,0l-0.3,8.2c-2,0.1-7.7,0.8-10.2,2.5c0,0.4,0,0.7,0,1.1c0,0.7,0.1,1.5,0.2,2.2
			c3.3-1.6,7.1-2.5,11.4-2.6c4.3,0.1,8.2,0.9,11.4,2.6c0.1-0.7,0.2-1.4,0.2-2.1c0-0.4,0-0.7-0.1-1.1c-2.6-1.7-8.2-2.3-10.2-2.5
			l-0.3-8.2C99.3,833.8,98.9,833.8,98.6,833.8L98.6,833.8z"/>
		<path class="st21" d="M100,843.4c0,0.9-0.8,1.7-1.7,1.7s-1.7-0.8-1.7-1.7s0.8-1.7,1.7-1.7S100,842.5,100,843.4z"/>
		<path class="st22" d="M98.3,842.1c0,0-0.1,0-0.1,0c0.6,0.1,1.1,0.6,1.1,1.3c0,0.7-0.5,1.2-1.1,1.3c0,0,0.1,0,0.1,0
			c0.7,0,1.2-0.6,1.2-1.3C99.5,842.7,99,842.1,98.3,842.1L98.3,842.1z"/>
		<path class="st21" d="M102.9,843.8c0,0.7-0.6,1.3-1.3,1.3s-1.3-0.6-1.3-1.3c0-0.7,0.6-1.3,1.3-1.3S102.9,843,102.9,843.8z"/>
		<path class="st23" d="M101.5,842.7C101.5,842.7,101.5,842.7,101.5,842.7c0.4,0.1,0.8,0.5,0.8,1s-0.4,1-0.9,1c0,0,0.1,0,0.1,0
			c0.5,0,0.9-0.5,0.9-1S102.1,842.7,101.5,842.7L101.5,842.7z"/>
		<path class="st21" d="M105.7,844.1c0,0.7-0.6,1.3-1.3,1.3s-1.3-0.6-1.3-1.3c0-0.7,0.6-1.3,1.3-1.3S105.7,843.3,105.7,844.1z"/>
		<path class="st23" d="M104.3,843C104.3,843,104.3,843,104.3,843c0.4,0.1,0.8,0.5,0.8,1c0,0.5-0.4,1-0.9,1c0,0,0.1,0,0.1,0
			c0.5,0,0.9-0.5,0.9-1C105.3,843.5,104.8,843,104.3,843L104.3,843z"/>
		<path class="st21" d="M108.1,844.9c0,0.7-0.6,1.3-1.3,1.3s-1.3-0.6-1.3-1.3s0.6-1.3,1.3-1.3S108.1,844.1,108.1,844.9z"/>
		<path class="st23" d="M106.8,843.8C106.8,843.8,106.8,843.8,106.8,843.8c0.4,0.1,0.8,0.5,0.8,1s-0.4,1-0.9,1c0,0,0.1,0,0.1,0
			c0.5,0,0.9-0.5,0.9-1S107.3,843.8,106.8,843.8L106.8,843.8z"/>
		<path class="st21" d="M110.6,845.7c0,0.7-0.6,1.3-1.3,1.3c-0.7,0-1.3-0.6-1.3-1.3c0-0.7,0.6-1.3,1.3-1.3S110.6,845,110.6,845.7z"
			/>
		<path class="st23" d="M109.3,844.7C109.2,844.7,109.2,844.7,109.3,844.7c0.4,0.1,0.8,0.5,0.8,1s-0.4,1-0.9,1c0,0,0.1,0,0.1,0
			c0.5,0,0.9-0.5,0.9-1S109.8,844.7,109.3,844.7L109.3,844.7z"/>
		<path class="st21" d="M96.7,843.7c0,0.8-0.6,1.4-1.4,1.4c-0.8,0-1.4-0.6-1.4-1.4c0-0.8,0.6-1.4,1.4-1.4
			C96.1,842.4,96.7,843,96.7,843.7z"/>
		<path class="st24" d="M95.3,842.7C95.3,842.7,95.3,842.7,95.3,842.7c0.4,0.1,0.8,0.5,0.8,1.1c0,0.5-0.4,1-0.9,1c0,0,0.1,0,0.1,0
			c0.5,0,1-0.5,1-1.1C96.3,843.1,95.8,842.7,95.3,842.7L95.3,842.7z"/>
		<path class="st21" d="M93.9,844.2c0,0.8-0.6,1.4-1.4,1.4c-0.8,0-1.4-0.6-1.4-1.4c0-0.8,0.6-1.4,1.4-1.4
			C93.3,842.8,93.9,843.4,93.9,844.2z"/>
		<path class="st24" d="M92.6,843.1C92.6,843.1,92.5,843.1,92.6,843.1c0.4,0.1,0.8,0.5,0.8,1.1c0,0.5-0.4,1-0.9,1c0,0,0.1,0,0.1,0
			c0.5,0,1-0.5,1-1.1C93.6,843.6,93.1,843.1,92.6,843.1L92.6,843.1z"/>
		<path class="st21" d="M91.4,844.9c0,0.8-0.6,1.4-1.4,1.4c-0.8,0-1.4-0.6-1.4-1.4s0.6-1.4,1.4-1.4
			C90.8,843.6,91.4,844.2,91.4,844.9z"/>
		<path class="st24" d="M90,843.9C90,843.9,89.9,843.9,90,843.9c0.4,0.1,0.8,0.5,0.8,1.1c0,0.5-0.4,1-0.9,1c0,0,0.1,0,0.1,0
			c0.5,0,1-0.5,1-1.1C91,844.3,90.5,843.9,90,843.9L90,843.9z"/>
		<path class="st21" d="M88.8,845.8c0,0.8-0.6,1.4-1.4,1.4c-0.8,0-1.4-0.6-1.4-1.4s0.6-1.4,1.4-1.4
			C88.2,844.5,88.8,845.1,88.8,845.8z"/>
		<path d="M87.4,844.8C87.4,844.8,87.4,844.8,87.4,844.8c0.4,0.1,0.8,0.5,0.8,1.1c0,0.5-0.4,1-0.9,1c0,0,0.1,0,0.1,0
			c0.5,0,1-0.5,1-1.1C88.4,845.2,87.9,844.8,87.4,844.8L87.4,844.8z"/>
		<path class="st21" d="M99.9,840.2c0,0.7-0.6,1.3-1.3,1.3c-0.7,0-1.3-0.6-1.3-1.3s0.6-1.3,1.3-1.3
			C99.3,838.9,99.9,839.5,99.9,840.2z"/>
		<path class="st23" d="M98.5,839.2C98.5,839.2,98.5,839.2,98.5,839.2c0.4,0.1,0.8,0.5,0.8,1c0,0.5-0.4,1-0.9,1c0,0,0.1,0,0.1,0
			c0.5,0,0.9-0.5,0.9-1C99.5,839.7,99.1,839.2,98.5,839.2L98.5,839.2z"/>
		<path class="st21" d="M99.9,837.6c0,0.7-0.6,1.3-1.3,1.3c-0.7,0-1.3-0.6-1.3-1.3s0.6-1.3,1.3-1.3
			C99.3,836.3,99.9,836.9,99.9,837.6z"/>
		<path class="st23" d="M98.6,836.6C98.5,836.6,98.5,836.6,98.6,836.6c0.4,0.1,0.8,0.5,0.8,1s-0.4,1-0.9,1c0,0,0.1,0,0.1,0
			c0.5,0,0.9-0.5,0.9-1S99.1,836.6,98.6,836.6L98.6,836.6z"/>
		<path class="st21" d="M99.9,835.3c-0.2,0.7-1,1.1-1.7,0.9s-1.1-1-0.9-1.7c0.2-0.7,1-1.1,1.7-0.9
			C99.7,833.9,100.1,834.6,99.9,835.3z"/>
		<path class="st23" d="M98.9,833.9C98.9,833.9,98.9,833.9,98.9,833.9c0.4,0.2,0.6,0.7,0.4,1.2c-0.2,0.5-0.6,0.8-1.1,0.7
			c0,0,0.1,0,0.1,0c0.5,0.1,1-0.2,1.2-0.7S99.4,834.1,98.9,833.9L98.9,833.9z"/>
		<path class="st25" d="M96.3,818.5c-1.3,0-2.5,0-3.7,0.3c0,0,0,0-0.1,0c0.5,0.5,3.1,1,6.1,1c3,0,5.6-0.4,6.1-1c0,0,0,0-0.1,0
			c-1.9-0.4-3.9-0.3-6-0.3C97.8,818.5,97,818.5,96.3,818.5L96.3,818.5z"/>
		<path class="st26" d="M94.9,809.9c-1.1,0-3.1,1.6-3.4,2.6c-0.4,1.3-0.2,2.7,0.9,4.1l0,0c0,0,0,0,0,0c1.8-0.3,4.1-0.4,6.2-0.4
			c2.1,0,4,0,6.2,0.4c0,0,0,0,0,0l0,0c1.1-1.4,1.3-2.8,0.9-4.1c-0.3-1-2.4-2.6-3.4-2.6l-1.7,0c-0.8,0.3-1.4,0.7-1.9,1.2
			c-0.6-0.5-1.2-0.9-1.9-1.2L94.9,809.9z"/>
		<path class="st27" d="M98.6,809.6c-0.6,0.3-1,0.5-1.2,0.7c0.4,0.3,0.8,0.6,1.2,0.9c0.4-0.3,0.8-0.6,1.2-0.9
			C99.6,810.1,99.2,809.9,98.6,809.6z"/>
		<path d="M102.2,809.9l-0.2,0c-0.1,0.2-0.1,0.3-0.2,0.5c-0.1-0.1-0.3-0.1-0.4-0.2l-0.1,0v0.3c0.1,0,0.3,0.1,0.4,0.1
			c-0.1,0.3-0.2,0.5-0.3,0.7c0,0,0,0-0.1,0v0.6c0.1-0.1,0.1-0.1,0.2-0.2c0.3,0.1,0.5,0.3,0.7,0.4c-0.1,0.3-0.2,0.5-0.4,0.8
			c-0.2-0.1-0.3-0.2-0.5-0.3v0.3c0.1,0.1,0.3,0.1,0.4,0.2c-0.1,0.3-0.3,0.5-0.4,0.6c0,0.1,0,0.2,0,0.3l0.1-0.1
			c0.2-0.2,0.3-0.4,0.5-0.7c0.3,0.2,0.5,0.4,0.8,0.6c-0.2,0.3-0.3,0.6-0.5,0.9c-0.3-0.2-0.6-0.4-0.9-0.6v0.3
			c0.3,0.2,0.5,0.3,0.8,0.5c-0.1,0.2-0.2,0.3-0.3,0.5c-0.2,0.3-0.4,0.5-0.5,0.7v0.2c0,0,0.1,0,0.1,0c0.2-0.2,0.4-0.4,0.6-0.8
			c0.1-0.1,0.2-0.3,0.3-0.4c0.2,0.1,0.4,0.3,0.6,0.5c-0.3,0.3-0.5,0.6-0.8,0.8c0.1,0,0.3,0,0.4,0c0.2-0.2,0.4-0.4,0.6-0.6
			c0.2,0.1,0.3,0.3,0.5,0.4c-0.1,0.1-0.2,0.2-0.3,0.3c0.1,0,0.2,0,0.3,0c0,0,0.1-0.1,0.1-0.2c0.1,0.1,0.1,0.1,0.2,0.2
			c0.2,0,0.3,0,0.5,0.1c-0.2-0.2-0.3-0.3-0.5-0.5c0.1-0.2,0.2-0.3,0.4-0.5c0.2,0.3,0.4,0.5,0.7,0.8c0.1-0.1,0.1-0.2,0.2-0.2
			c-0.2-0.3-0.4-0.5-0.7-0.8c0.1-0.2,0.3-0.5,0.4-0.8c0.2,0.3,0.4,0.5,0.7,0.8c0-0.1,0.1-0.2,0.1-0.3c-0.2-0.3-0.5-0.5-0.7-0.8
			c0,0,0-0.1,0.1-0.1c0.1-0.2,0.2-0.4,0.2-0.7c0.2,0.2,0.4,0.4,0.6,0.7c0-0.1,0-0.2,0-0.4c-0.2-0.2-0.3-0.4-0.5-0.6
			c0.1-0.3,0.2-0.6,0.2-0.9c0-0.1-0.1-0.2-0.2-0.4c-0.1,0.3-0.1,0.6-0.2,1c-0.2-0.2-0.4-0.4-0.5-0.6c0.1-0.4,0.2-0.8,0.2-1.1
			c-0.1-0.1-0.2-0.2-0.3-0.2c0,0.3-0.1,0.7-0.2,1.1c-0.2-0.2-0.4-0.4-0.6-0.5c0.1-0.4,0.2-0.7,0.2-1c-0.1-0.1-0.2-0.1-0.3-0.2l0,0.1
			c0,0.2,0,0.5-0.1,0.9c-0.2-0.2-0.4-0.4-0.7-0.5c0.1-0.3,0.2-0.6,0.3-0.8c-0.1,0-0.2-0.1-0.2-0.1c-0.1,0.2-0.1,0.5-0.2,0.8
			c-0.2-0.1-0.4-0.2-0.6-0.3C102.2,810.3,102.2,810.1,102.2,809.9C102.3,809.9,102.3,809.9,102.2,809.9L102.2,809.9z M102,810.8
			c0.2,0.1,0.4,0.2,0.6,0.3c-0.1,0.2-0.2,0.5-0.3,0.8c-0.2-0.1-0.5-0.3-0.7-0.4C101.8,811.3,101.9,811,102,810.8z M102.9,811.3
			c0.2,0.2,0.5,0.3,0.7,0.5c0,0,0,0.1,0,0.1c-0.1,0.2-0.1,0.4-0.2,0.7c-0.2-0.2-0.5-0.4-0.7-0.6
			C102.7,811.8,102.8,811.5,102.9,811.3L102.9,811.3z M103.8,812c0.2,0.2,0.4,0.4,0.6,0.6c-0.1,0.3-0.2,0.5-0.3,0.8
			c-0.2-0.2-0.4-0.4-0.6-0.6C103.6,812.5,103.7,812.2,103.8,812C103.8,812,103.8,812,103.8,812L103.8,812z M102.5,812.3
			c0.3,0.2,0.5,0.4,0.7,0.6c-0.1,0.3-0.2,0.5-0.3,0.8c-0.2-0.2-0.5-0.4-0.7-0.6C102.2,812.8,102.3,812.5,102.5,812.3L102.5,812.3z
			 M104.6,812.8c0.2,0.2,0.4,0.4,0.5,0.6c-0.1,0.3-0.2,0.5-0.3,0.8c-0.2-0.2-0.3-0.4-0.5-0.6C104.4,813.3,104.5,813,104.6,812.8z
			 M103.4,813c0.2,0.2,0.4,0.4,0.6,0.6c0,0.1-0.1,0.1-0.1,0.2c-0.1,0.2-0.2,0.4-0.3,0.6c-0.2-0.2-0.4-0.4-0.6-0.6
			C103.2,813.6,103.3,813.3,103.4,813L103.4,813z M104.2,813.8c0.2,0.2,0.3,0.4,0.5,0.6c-0.1,0.3-0.3,0.5-0.4,0.8
			c-0.2-0.2-0.3-0.4-0.5-0.6c0.1-0.2,0.2-0.5,0.3-0.7C104.1,813.9,104.2,813.9,104.2,813.8L104.2,813.8z M102.9,814.1
			c0.2,0.2,0.4,0.4,0.6,0.6c-0.1,0.3-0.3,0.5-0.4,0.7c-0.2-0.2-0.4-0.3-0.6-0.5C102.6,814.7,102.8,814.4,102.9,814.1z M103.7,814.9
			c0.2,0.2,0.3,0.4,0.5,0.5c-0.1,0.2-0.3,0.4-0.4,0.6c-0.2-0.1-0.3-0.3-0.5-0.4C103.4,815.4,103.6,815.1,103.7,814.9L103.7,814.9z"
			/>
		<path class="st28" d="M100.3,810.1c-0.3,0.2-0.7,0.3-0.9,0.6v5.6h0.9V810.1L100.3,810.1z"/>
		<path d="M100.3,810.1c-0.3,0.2-0.7,0.3-0.9,0.6v0.2L100.3,810.1L100.3,810.1z"/>
		<path d="M99.3,811.2l0.9-0.7v0.2l-0.9,0.7V811.2z"/>
		<path d="M99.3,811.8l0.9-0.7v0.2l-0.9,0.7V811.8z"/>
		<path d="M99.3,812.4l0.9-0.7v0.2l-0.9,0.7V812.4z"/>
		<path d="M99.3,813l0.9-0.7v0.2l-0.9,0.7V813z"/>
		<path d="M99.3,813.6l0.9-0.7v0.2l-0.9,0.7V813.6z"/>
		<path d="M99.3,814.2l0.9-0.7v0.2l-0.9,0.7V814.2z"/>
		<path d="M99.3,814.8l0.9-0.7v0.2l-0.9,0.7V814.8z"/>
		<path d="M99.4,815.4l0.9-0.7v0.2l-0.9,0.7V815.4z"/>
		<path d="M99.4,816l0.9-0.7v0.2l-0.9,0.7V816z"/>
		<path class="st29" d="M99.3,810.6c-0.1,0-0.1,0.1-0.2,0.1v0.3h0.2V810.6z"/>
		<rect x="99.1" y="811.1" class="st29" width="0.2" height="0.4"/>
		<rect x="99.1" y="811.5" class="st29" width="0.2" height="0.4"/>
		<rect x="99.1" y="811.9" class="st29" width="0.2" height="0.4"/>
		<rect x="99.1" y="812.4" class="st29" width="0.2" height="0.4"/>
		<rect x="99.1" y="812.8" class="st29" width="0.2" height="0.4"/>
		<rect x="99.1" y="813.2" class="st29" width="0.2" height="0.4"/>
		<rect x="99.1" y="813.7" class="st29" width="0.2" height="0.4"/>
		<rect x="99.1" y="814.1" class="st29" width="0.2" height="0.4"/>
		<rect x="99.1" y="814.5" class="st29" width="0.2" height="0.4"/>
		<rect x="99.1" y="815" class="st29" width="0.2" height="0.4"/>
		<rect x="99.1" y="815.4" class="st29" width="0.2" height="0.4"/>
		<rect x="99.1" y="815.8" class="st29" width="0.2" height="0.4"/>
		<path class="st30" d="M92.5,818.3c-0.2,0.3-0.1,0.4,0.1,0.5c1.9-0.4,3.9-0.3,6-0.3s4.1-0.1,6,0.3c0.2-0.1,0.2-0.2,0.1-0.5
			c-2-0.2-4-0.2-6.1-0.2C96.5,818.1,94.3,818.1,92.5,818.3z"/>
		<path d="M98.6,816.7c-2.1,0-4.1-0.1-6.1,0.5l0,1.1c2-0.2,4-0.3,6.1-0.2c2.1,0,4.1,0,6.1,0.2l0-1.1
			C102.7,816.7,100.7,816.8,98.6,816.7z"/>
		<path d="M94.9,809.9l0.2,0c0.1,0.2,0.1,0.3,0.2,0.5c0.1-0.1,0.3-0.1,0.4-0.2l0.1,0v0.3c-0.1,0-0.3,0.1-0.4,0.1
			c0.1,0.3,0.2,0.5,0.3,0.7c0,0,0,0,0.1,0v0.6c-0.1-0.1-0.1-0.1-0.2-0.2c-0.3,0.1-0.5,0.3-0.7,0.4c0.1,0.3,0.2,0.5,0.4,0.8
			c0.2-0.1,0.3-0.2,0.5-0.3v0.3c-0.1,0.1-0.3,0.1-0.4,0.2c0.1,0.3,0.3,0.5,0.4,0.6c0,0.1,0,0.2,0,0.3l-0.1-0.1
			c-0.2-0.2-0.3-0.4-0.5-0.7c-0.3,0.2-0.5,0.4-0.8,0.6c0.2,0.3,0.3,0.6,0.5,0.9c0.3-0.2,0.6-0.4,0.9-0.6v0.3
			c-0.3,0.2-0.5,0.3-0.8,0.5c0.1,0.2,0.2,0.3,0.3,0.5c0.2,0.3,0.4,0.5,0.5,0.7v0.2c0,0-0.1,0-0.1,0c-0.2-0.2-0.4-0.4-0.6-0.8
			c-0.1-0.1-0.2-0.3-0.3-0.4c-0.2,0.1-0.4,0.3-0.6,0.5c0.3,0.3,0.5,0.6,0.8,0.8c-0.1,0-0.3,0-0.4,0c-0.2-0.2-0.4-0.4-0.6-0.6
			c-0.2,0.1-0.3,0.3-0.5,0.4c0.1,0.1,0.2,0.2,0.3,0.3c-0.1,0-0.2,0-0.3,0c0,0-0.1-0.1-0.1-0.2c-0.1,0.1-0.1,0.1-0.2,0.2
			c-0.2,0-0.3,0-0.5,0.1c0.2-0.2,0.3-0.3,0.5-0.5c-0.1-0.2-0.2-0.3-0.4-0.5c-0.2,0.3-0.4,0.5-0.7,0.8c-0.1-0.1-0.1-0.2-0.2-0.2
			c0.2-0.3,0.4-0.5,0.7-0.8c-0.1-0.2-0.3-0.5-0.4-0.8c-0.2,0.3-0.4,0.5-0.7,0.8c0-0.1-0.1-0.2-0.1-0.3c0.2-0.3,0.5-0.5,0.7-0.8
			c0,0,0-0.1-0.1-0.1c-0.1-0.2-0.2-0.4-0.2-0.7c-0.2,0.2-0.4,0.4-0.6,0.7c0-0.1,0-0.2,0-0.4c0.2-0.2,0.3-0.4,0.5-0.6
			c-0.1-0.3-0.2-0.6-0.2-0.9c0-0.1,0.1-0.2,0.2-0.4c0.1,0.3,0.1,0.6,0.2,1c0.2-0.2,0.4-0.4,0.5-0.6c-0.1-0.4-0.2-0.8-0.2-1.1
			c0.1-0.1,0.2-0.2,0.3-0.2c0,0.3,0.1,0.7,0.2,1.1c0.2-0.2,0.4-0.4,0.6-0.5c-0.1-0.4-0.2-0.7-0.2-1c0.1-0.1,0.2-0.1,0.3-0.2l0,0.1
			c0,0.2,0,0.5,0.1,0.9c0.2-0.2,0.4-0.4,0.7-0.5c-0.1-0.3-0.2-0.6-0.3-0.8c0.1,0,0.2-0.1,0.2-0.1c0.1,0.2,0.1,0.5,0.2,0.8
			c0.2-0.1,0.4-0.2,0.6-0.3C95,810.3,95,810.1,94.9,809.9C94.9,809.9,94.9,809.9,94.9,809.9L94.9,809.9z M95.2,810.8
			c-0.2,0.1-0.4,0.2-0.6,0.3c0.1,0.2,0.2,0.5,0.3,0.8c0.2-0.1,0.5-0.3,0.7-0.4C95.4,811.3,95.3,811,95.2,810.8z M94.3,811.3
			c-0.2,0.2-0.5,0.3-0.7,0.5c0,0,0,0.1,0,0.1c0.1,0.2,0.1,0.4,0.2,0.7c0.2-0.2,0.5-0.4,0.7-0.6C94.5,811.8,94.4,811.5,94.3,811.3
			L94.3,811.3z M93.4,812c-0.2,0.2-0.4,0.4-0.6,0.6c0.1,0.3,0.2,0.5,0.3,0.8c0.2-0.2,0.4-0.4,0.6-0.6
			C93.6,812.5,93.5,812.2,93.4,812C93.4,812,93.4,812,93.4,812L93.4,812z M94.7,812.3c-0.3,0.2-0.5,0.4-0.7,0.6
			c0.1,0.3,0.2,0.5,0.3,0.8c0.2-0.2,0.5-0.4,0.7-0.6C95,812.8,94.8,812.5,94.7,812.3L94.7,812.3z M92.6,812.8
			c-0.2,0.2-0.4,0.4-0.5,0.6c0.1,0.3,0.2,0.5,0.3,0.8c0.2-0.2,0.3-0.4,0.5-0.6C92.8,813.3,92.7,813,92.6,812.8z M93.8,813
			c-0.2,0.2-0.4,0.4-0.6,0.6c0,0.1,0.1,0.1,0.1,0.2c0.1,0.2,0.2,0.4,0.3,0.6c0.2-0.2,0.4-0.4,0.6-0.6C94,813.6,93.9,813.3,93.8,813
			L93.8,813z M93,813.8c-0.2,0.2-0.3,0.4-0.5,0.6c0.1,0.3,0.3,0.5,0.4,0.8c0.2-0.2,0.3-0.4,0.5-0.6c-0.1-0.2-0.2-0.5-0.3-0.7
			C93,813.9,93,813.9,93,813.8L93,813.8z M94.3,814.1c-0.2,0.2-0.4,0.4-0.6,0.6c0.1,0.3,0.3,0.5,0.4,0.7c0.2-0.2,0.4-0.3,0.6-0.5
			C94.5,814.7,94.4,814.4,94.3,814.1z M93.5,814.9c-0.2,0.2-0.3,0.4-0.5,0.5c0.1,0.2,0.3,0.4,0.4,0.6c0.2-0.1,0.3-0.3,0.5-0.4
			C93.8,815.4,93.6,815.1,93.5,814.9L93.5,814.9z"/>
		<path class="st28" d="M96.9,810.1c0.3,0.2,0.7,0.3,0.9,0.6v5.6h-0.9V810.1L96.9,810.1z"/>
		<path d="M96.9,810.1c0.3,0.2,0.7,0.3,0.9,0.6v0.2L96.9,810.1L96.9,810.1z"/>
		<path d="M97.9,811.2l-0.9-0.7v0.2l0.9,0.7V811.2z"/>
		<path d="M97.9,811.8l-0.9-0.7v0.2l0.9,0.7V811.8z"/>
		<path d="M97.9,812.4l-0.9-0.7v0.2l0.9,0.7V812.4z"/>
		<path d="M97.9,813l-0.9-0.7v0.2l0.9,0.7V813z"/>
		<path d="M97.9,813.6l-0.9-0.7v0.2l0.9,0.7V813.6z"/>
		<path d="M97.9,814.2l-0.9-0.7v0.2l0.9,0.7V814.2z"/>
		<path d="M97.9,814.8l-0.9-0.7v0.2l0.9,0.7V814.8z"/>
		<path d="M97.8,815.4l-0.9-0.7v0.2l0.9,0.7V815.4z"/>
		<path d="M97.8,816l-0.9-0.7v0.2l0.9,0.7V816z"/>
		<path class="st29" d="M97.9,810.6c0.1,0,0.1,0.1,0.2,0.1v0.3h-0.2V810.6z"/>
		<rect x="97.9" y="811.1" class="st29" width="0.2" height="0.4"/>
		<rect x="97.9" y="811.5" class="st29" width="0.2" height="0.4"/>
		<rect x="97.9" y="811.9" class="st29" width="0.2" height="0.4"/>
		<rect x="97.9" y="812.4" class="st29" width="0.2" height="0.4"/>
		<rect x="97.9" y="812.8" class="st29" width="0.2" height="0.4"/>
		<rect x="97.9" y="813.2" class="st29" width="0.2" height="0.4"/>
		<rect x="97.9" y="813.7" class="st29" width="0.2" height="0.4"/>
		<rect x="97.9" y="814.1" class="st29" width="0.2" height="0.4"/>
		<rect x="97.9" y="814.5" class="st29" width="0.2" height="0.4"/>
		<rect x="97.9" y="815" class="st29" width="0.2" height="0.4"/>
		<rect x="97.9" y="815.4" class="st29" width="0.2" height="0.4"/>
		<rect x="97.9" y="815.8" class="st29" width="0.2" height="0.4"/>
		<rect x="100.5" y="809.9" width="0.5" height="6.1"/>
		<rect x="101.1" y="809.9" class="st31" width="0.3" height="0.4"/>
		<rect x="101.1" y="810.4" class="st31" width="0.3" height="0.4"/>
		<rect x="101.1" y="810.8" class="st31" width="0.3" height="0.4"/>
		<rect x="101.1" y="811.2" class="st31" width="0.3" height="0.4"/>
		<rect x="101.1" y="811.7" class="st31" width="0.3" height="0.4"/>
		<rect x="101.1" y="812.1" class="st31" width="0.3" height="0.4"/>
		<rect x="101.1" y="812.5" class="st31" width="0.3" height="0.4"/>
		<rect x="101.1" y="813" class="st31" width="0.3" height="0.4"/>
		<rect x="101.1" y="813.4" class="st31" width="0.3" height="0.4"/>
		<rect x="101.1" y="813.8" class="st31" width="0.3" height="0.4"/>
		<rect x="101.1" y="814.3" class="st31" width="0.3" height="0.4"/>
		<rect x="101.1" y="814.7" class="st31" width="0.3" height="0.4"/>
		<rect x="101.1" y="815.1" class="st31" width="0.3" height="0.4"/>
		<rect x="101.1" y="815.6" class="st31" width="0.3" height="0.4"/>
		<path class="st31" d="M100.5,810c-0.1,0-0.2,0.1-0.3,0.1v0.3h0.3V810z"/>
		<rect x="100.2" y="810.4" class="st31" width="0.3" height="0.4"/>
		<rect x="100.2" y="810.8" class="st31" width="0.3" height="0.4"/>
		<rect x="100.2" y="811.3" class="st31" width="0.3" height="0.4"/>
		<rect x="100.2" y="811.7" class="st31" width="0.3" height="0.4"/>
		<rect x="100.2" y="812.1" class="st31" width="0.3" height="0.4"/>
		<rect x="100.2" y="812.6" class="st31" width="0.3" height="0.4"/>
		<rect x="100.2" y="813" class="st31" width="0.3" height="0.4"/>
		<rect x="100.2" y="813.4" class="st31" width="0.3" height="0.4"/>
		<rect x="100.2" y="813.9" class="st31" width="0.3" height="0.4"/>
		<rect x="100.2" y="814.3" class="st31" width="0.3" height="0.4"/>
		<rect x="100.2" y="814.7" class="st31" width="0.3" height="0.4"/>
		<rect x="100.2" y="815.2" class="st31" width="0.3" height="0.4"/>
		<rect x="100.2" y="815.6" class="st31" width="0.3" height="0.4"/>
		<path class="st32" d="M101.1,810.2c0,0.1-0.1,0.3-0.3,0.3s-0.3-0.1-0.3-0.3s0.1-0.3,0.3-0.3S101.1,810.1,101.1,810.2z"/>
		<path class="st32" d="M101.1,810.8c0,0.1-0.1,0.3-0.3,0.3s-0.3-0.1-0.3-0.3s0.1-0.3,0.3-0.3S101.1,810.7,101.1,810.8z"/>
		<path class="st32" d="M101.1,811.4c0,0.1-0.1,0.3-0.3,0.3s-0.3-0.1-0.3-0.3s0.1-0.3,0.3-0.3S101.1,811.3,101.1,811.4z"/>
		<path class="st32" d="M101.1,812c0,0.1-0.1,0.3-0.3,0.3s-0.3-0.1-0.3-0.3s0.1-0.3,0.3-0.3S101.1,811.9,101.1,812z"/>
		<path class="st32" d="M101.1,812.6c0,0.1-0.1,0.3-0.3,0.3s-0.3-0.1-0.3-0.3s0.1-0.3,0.3-0.3S101.1,812.5,101.1,812.6z"/>
		<path class="st32" d="M101.1,813.2c0,0.1-0.1,0.3-0.3,0.3s-0.3-0.1-0.3-0.3c0-0.1,0.1-0.3,0.3-0.3S101.1,813.1,101.1,813.2z"/>
		<path class="st32" d="M101.1,813.8c0,0.1-0.1,0.3-0.3,0.3s-0.3-0.1-0.3-0.3s0.1-0.3,0.3-0.3S101.1,813.7,101.1,813.8z"/>
		<path class="st32" d="M101.1,814.4c0,0.1-0.1,0.3-0.3,0.3s-0.3-0.1-0.3-0.3s0.1-0.3,0.3-0.3S101.1,814.3,101.1,814.4z"/>
		<path class="st32" d="M101.1,815.1c0,0.1-0.1,0.3-0.3,0.3s-0.3-0.1-0.3-0.3s0.1-0.3,0.3-0.3S101.1,814.9,101.1,815.1z"/>
		<path class="st32" d="M101.1,815.7c0,0.1-0.1,0.3-0.3,0.3s-0.3-0.1-0.3-0.3s0.1-0.3,0.3-0.3S101.1,815.5,101.1,815.7z"/>
		<rect x="96.1" y="809.9" width="0.5" height="6.1"/>
		<rect x="95.8" y="809.9" class="st31" width="0.3" height="0.4"/>
		<rect x="95.8" y="810.4" class="st31" width="0.3" height="0.4"/>
		<rect x="95.8" y="810.8" class="st31" width="0.3" height="0.4"/>
		<rect x="95.8" y="811.2" class="st31" width="0.3" height="0.4"/>
		<rect x="95.8" y="811.7" class="st31" width="0.3" height="0.4"/>
		<rect x="95.8" y="812.1" class="st31" width="0.3" height="0.4"/>
		<rect x="95.8" y="812.5" class="st31" width="0.3" height="0.4"/>
		<rect x="95.8" y="813" class="st31" width="0.3" height="0.4"/>
		<rect x="95.8" y="813.4" class="st31" width="0.3" height="0.4"/>
		<rect x="95.8" y="813.8" class="st31" width="0.3" height="0.4"/>
		<rect x="95.8" y="814.3" class="st31" width="0.3" height="0.4"/>
		<rect x="95.8" y="814.7" class="st31" width="0.3" height="0.4"/>
		<rect x="95.8" y="815.1" class="st31" width="0.3" height="0.4"/>
		<rect x="95.8" y="815.6" class="st31" width="0.3" height="0.4"/>
		<path class="st31" d="M96.7,810c0.1,0,0.2,0.1,0.3,0.1v0.3h-0.3V810z"/>
		<rect x="96.7" y="810.4" class="st31" width="0.3" height="0.4"/>
		<rect x="96.7" y="810.8" class="st31" width="0.3" height="0.4"/>
		<rect x="96.7" y="811.3" class="st31" width="0.3" height="0.4"/>
		<rect x="96.7" y="811.7" class="st31" width="0.3" height="0.4"/>
		<rect x="96.7" y="812.1" class="st31" width="0.3" height="0.4"/>
		<rect x="96.7" y="812.6" class="st31" width="0.3" height="0.4"/>
		<rect x="96.7" y="813" class="st31" width="0.3" height="0.4"/>
		<rect x="96.7" y="813.4" class="st31" width="0.3" height="0.4"/>
		<rect x="96.7" y="813.9" class="st31" width="0.3" height="0.4"/>
		<rect x="96.7" y="814.3" class="st31" width="0.3" height="0.4"/>
		<rect x="96.7" y="814.7" class="st31" width="0.3" height="0.4"/>
		<rect x="96.7" y="815.2" class="st31" width="0.3" height="0.4"/>
		<rect x="96.7" y="815.6" class="st31" width="0.3" height="0.4"/>
		<path class="st32" d="M96.1,810.2c0,0.1,0.1,0.3,0.3,0.3c0.1,0,0.3-0.1,0.3-0.3s-0.1-0.3-0.3-0.3C96.2,810,96.1,810.1,96.1,810.2z
			"/>
		<path class="st32" d="M96.1,810.8c0,0.1,0.1,0.3,0.3,0.3c0.1,0,0.3-0.1,0.3-0.3s-0.1-0.3-0.3-0.3
			C96.2,810.6,96.1,810.7,96.1,810.8z"/>
		<path class="st32" d="M96.1,811.4c0,0.1,0.1,0.3,0.3,0.3c0.1,0,0.3-0.1,0.3-0.3s-0.1-0.3-0.3-0.3
			C96.2,811.2,96.1,811.3,96.1,811.4z"/>
		<path class="st32" d="M96.1,812c0,0.1,0.1,0.3,0.3,0.3c0.1,0,0.3-0.1,0.3-0.3s-0.1-0.3-0.3-0.3C96.2,811.8,96.1,811.9,96.1,812z"
			/>
		<path class="st32" d="M96.1,812.6c0,0.1,0.1,0.3,0.3,0.3c0.1,0,0.3-0.1,0.3-0.3s-0.1-0.3-0.3-0.3
			C96.2,812.4,96.1,812.5,96.1,812.6z"/>
		<path class="st32" d="M96.1,813.2c0,0.1,0.1,0.3,0.3,0.3c0.1,0,0.3-0.1,0.3-0.3c0-0.1-0.1-0.3-0.3-0.3
			C96.2,813,96.1,813.1,96.1,813.2z"/>
		<path class="st32" d="M96.1,813.8c0,0.1,0.1,0.3,0.3,0.3c0.1,0,0.3-0.1,0.3-0.3s-0.1-0.3-0.3-0.3
			C96.2,813.6,96.1,813.7,96.1,813.8z"/>
		<path class="st32" d="M96.1,814.4c0,0.1,0.1,0.3,0.3,0.3c0.1,0,0.3-0.1,0.3-0.3s-0.1-0.3-0.3-0.3
			C96.2,814.2,96.1,814.3,96.1,814.4z"/>
		<path class="st32" d="M96.1,815.1c0,0.1,0.1,0.3,0.3,0.3c0.1,0,0.3-0.1,0.3-0.3s-0.1-0.3-0.3-0.3
			C96.2,814.8,96.1,814.9,96.1,815.1z"/>
		<path class="st32" d="M96.1,815.7c0,0.1,0.1,0.3,0.3,0.3c0.1,0,0.3-0.1,0.3-0.3s-0.1-0.3-0.3-0.3
			C96.2,815.4,96.1,815.5,96.1,815.7z"/>
		<path class="st33" d="M98.3,808v0.6h-0.7v0.7h0.7v1.9h0.6v-1.9h0.7v-0.7h-0.7V808H98.3z"/>
		<path class="st34" d="M98.1,810.8v5.6c0.2,0,0.5,0,0.5,0s0.4,0,0.5,0v-5.6c-0.2,0.1-0.4,0.3-0.5,0.4
			C98.4,811.1,98.2,810.9,98.1,810.8z"/>
		<path class="st30" d="M98.6,813.7c-0.2,0-0.4,0.2-0.4,0.4v0.3c-0.2,0-0.4,0-0.7,0.1c-0.1,0.1-0.2,0.2-0.2,0.3
			c0,0.1,0.1,0.3,0.2,0.3c0.1,0.1,0.4,0.1,0.6,0.1c-0.3,0.4-0.7,0.7-1.2,0.7c-0.5,0-0.9-0.3-1.2-0.7c0.2,0,0.4,0,0.6-0.1
			c0.1-0.1,0.2-0.2,0.2-0.3s-0.1-0.3-0.2-0.3c-0.2-0.1-0.4-0.1-0.7-0.1v-0.3c0-0.2-0.2-0.4-0.4-0.4s-0.4,0.2-0.4,0.4v0.3
			c-0.2,0-0.5,0-0.7,0.1c-0.1,0.1-0.2,0.2-0.2,0.3s0.1,0.3,0.2,0.3c0.1,0.1,0.4,0.1,0.6,0.1c-0.2,0.4-0.7,0.8-1.1,0.8
			c-0.5,0-0.7-0.1-1-0.5c0.2-0.1,0.4-0.1,0.5-0.3c0.1-0.1,0.1-0.2,0.1-0.4c0-0.1-0.2-0.2-0.3-0.3c-0.2-0.1-0.5,0-0.7,0.1l-0.1-0.3
			c-0.1-0.2-0.3-0.4-0.6-0.3c-0.1,0-0.1,0.1-0.2,0.1c0.1,0.8,0.4,1.6,1.1,2.4h0c2.1-0.4,4.1-0.4,6.2-0.4c2.1,0,4,0,6.2,0.4h0
			c0.7-0.8,1-1.6,1.1-2.4c-0.1-0.1-0.1-0.1-0.2-0.1c-0.2-0.1-0.5,0.1-0.6,0.3l-0.1,0.3c-0.2-0.1-0.5-0.2-0.7-0.1
			c-0.1,0-0.2,0.1-0.3,0.3c0,0.1,0,0.3,0.1,0.4c0.1,0.2,0.3,0.2,0.5,0.3c-0.3,0.4-0.6,0.5-1,0.5c-0.4,0-0.9-0.3-1.1-0.8
			c0.2,0,0.4,0,0.6-0.1c0.1-0.1,0.2-0.2,0.2-0.3s-0.1-0.3-0.2-0.3c-0.2-0.1-0.4-0.1-0.7-0.1v-0.3c0-0.2-0.2-0.4-0.4-0.4
			c-0.2,0-0.4,0.2-0.4,0.4v0.3c-0.2,0-0.5,0-0.7,0.1c-0.1,0.1-0.2,0.2-0.2,0.3s0.1,0.3,0.2,0.3c0.2,0.1,0.3,0.1,0.6,0.1
			c-0.3,0.4-0.7,0.7-1.2,0.7c-0.5,0-0.9-0.3-1.2-0.7c0.2,0,0.4,0,0.6-0.1c0.1-0.1,0.2-0.2,0.2-0.3c0-0.1-0.1-0.3-0.2-0.3
			c-0.2-0.1-0.4-0.1-0.7-0.1v-0.3C99,813.9,98.8,813.7,98.6,813.7L98.6,813.7z"/>
		<path d="M98.6,813.9c-0.1,0-0.2,0.1-0.2,0.2v0.6h-0.6c-0.1,0-0.3,0.1-0.3,0.2s0.1,0.2,0.3,0.2h0.6v0.1c-0.2,0.6-1,1-1.5,1.1
			c-0.6-0.2-1.3-0.5-1.5-1.1v-0.1h0.6c0.1,0,0.3-0.1,0.3-0.2s-0.1-0.2-0.3-0.2h-0.6v-0.6c0-0.1-0.1-0.2-0.2-0.2
			c-0.1,0-0.2,0.1-0.2,0.2v0.6h-0.6c-0.1,0-0.3,0.1-0.3,0.2s0.1,0.2,0.3,0.2h0.6v0.1c-0.2,0.6-0.8,1-1.4,1.1c-0.6,0-1-0.2-1.3-0.8
			l0-0.1l0.5-0.2c0.1,0,0.2-0.2,0.2-0.3s-0.2-0.2-0.3-0.1L92,815l-0.2-0.6c0-0.1-0.1-0.2-0.2-0.1c-0.1,0-0.2,0.2-0.1,0.3l0.2,0.6
			l-0.1,0c0,0.1,0,0.1,0.1,0.2c0,0.1,0.1,0.1,0.1,0.2c0.2,0.4,0.4,0.7,0.7,1.1h0c2.1-0.4,4.1-0.4,6.2-0.4c2.1,0,4,0,6.2,0.4h0
			c0.3-0.4,0.5-0.8,0.7-1.1c0-0.1,0.1-0.1,0.1-0.2c0-0.1,0-0.1,0.1-0.2l-0.1,0l0.2-0.6c0-0.1,0-0.2-0.1-0.3c-0.1,0-0.2,0-0.2,0.1
			l-0.2,0.6l-0.5-0.2c-0.1,0-0.3,0-0.3,0.1c0,0.1,0.1,0.2,0.2,0.3l0.5,0.2l0,0.1c-0.4,0.6-0.8,0.9-1.3,0.8c-0.6-0.2-1.2-0.5-1.4-1.1
			v-0.1h0.6c0.1,0,0.3-0.1,0.3-0.2s-0.1-0.2-0.3-0.2h-0.6v-0.6c0-0.1-0.1-0.2-0.2-0.2s-0.2,0.1-0.2,0.2v0.6h-0.6
			c-0.1,0-0.3,0.1-0.3,0.2s0.1,0.2,0.3,0.2h0.6v0.1c-0.2,0.6-1,1-1.5,1.1c-0.6-0.2-1.3-0.5-1.5-1.1v-0.1h0.6c0.1,0,0.3-0.1,0.3-0.2
			s-0.1-0.2-0.3-0.2h-0.6v-0.6C98.8,814,98.7,813.9,98.6,813.9L98.6,813.9z"/>
		<path class="st30" d="M92.4,816.7c-0.2,0.3-0.1,0.4,0.1,0.5c1.9-0.5,4-0.5,6.1-0.5s4.1-0.1,6.1,0.5c0.2-0.1,0.2-0.2,0.1-0.5
			c-2.1-0.4-4.1-0.4-6.2-0.4C96.5,816.3,94.2,816.4,92.4,816.7z"/>
		<path d="M98.6,816.3c0.1,0.1,0.2,0.3,0.3,0.4c0.1,0,0.1,0,0.2,0c-0.1-0.1-0.2-0.3-0.2-0.4C98.8,816.3,98.7,816.3,98.6,816.3z
			 M99.3,816.3c0.1,0.1,0.2,0.3,0.2,0.4c0.1,0,0.1,0,0.2,0c-0.1-0.1-0.2-0.3-0.2-0.4C99.4,816.3,99.3,816.3,99.3,816.3L99.3,816.3z
			 M98,816.3c0.1,0.1,0.2,0.3,0.3,0.4c0.1,0,0.1,0,0.2,0c-0.1-0.1-0.2-0.3-0.3-0.4C98.1,816.3,98.1,816.3,98,816.3z M99.9,816.3
			c0.1,0.1,0.2,0.3,0.2,0.4c0.1,0,0.1,0,0.2,0c-0.1-0.1-0.2-0.3-0.2-0.4C100,816.3,100,816.3,99.9,816.3L99.9,816.3z M97.5,816.4
			c-0.1,0-0.1,0-0.2,0c0.1,0.1,0.2,0.3,0.3,0.4c0.1,0,0.1,0,0.2,0C97.7,816.6,97.6,816.5,97.5,816.4L97.5,816.4z M100.5,816.4
			c0.1,0.1,0.2,0.3,0.2,0.4c0.1,0,0.1,0,0.2,0c-0.1-0.1-0.2-0.3-0.2-0.4C100.7,816.4,100.6,816.4,100.5,816.4z M96.9,816.4
			c-0.1,0-0.1,0-0.2,0c0.1,0.1,0.2,0.3,0.3,0.4c0.1,0,0.1,0,0.2,0C97.1,816.6,97,816.5,96.9,816.4L96.9,816.4z M101.2,816.4
			c0.1,0.1,0.2,0.3,0.2,0.4c0.1,0,0.1,0,0.2,0c-0.1-0.1-0.1-0.3-0.2-0.4C101.3,816.4,101.2,816.4,101.2,816.4L101.2,816.4z
			 M96.2,816.4c0,0-0.1,0-0.1,0c0.1,0.1,0.2,0.3,0.3,0.4c0.1,0,0.1,0,0.2,0C96.4,816.6,96.3,816.5,96.2,816.4
			C96.2,816.4,96.2,816.4,96.2,816.4L96.2,816.4z M101.8,816.4c0.1,0.1,0.1,0.3,0.2,0.4c0.1,0,0.1,0,0.2,0c-0.1-0.1-0.1-0.3-0.2-0.4
			C101.9,816.4,101.9,816.4,101.8,816.4L101.8,816.4z M95.6,816.4c-0.1,0-0.1,0-0.2,0c0.1,0.1,0.2,0.2,0.3,0.4c0.1,0,0.1,0,0.2,0
			C95.8,816.6,95.7,816.5,95.6,816.4z M102.4,816.4c0.1,0.1,0.1,0.2,0.2,0.3c0,0,0,0.1,0.1,0.1c0.1,0,0.1,0,0.2,0
			c-0.1-0.1-0.1-0.3-0.2-0.4c0,0,0,0,0,0C102.5,816.4,102.5,816.4,102.4,816.4L102.4,816.4z M95,816.4c-0.1,0-0.1,0-0.2,0
			c0.1,0.1,0.2,0.2,0.3,0.4c0.1,0,0.1,0,0.2,0C95.1,816.7,95.1,816.6,95,816.4L95,816.4z M94.3,816.5c-0.1,0-0.1,0-0.2,0
			c0.1,0.1,0.2,0.3,0.3,0.4c0.1,0,0.1,0,0.2,0c0-0.1-0.1-0.1-0.1-0.2C94.4,816.6,94.4,816.5,94.3,816.5L94.3,816.5z M103.1,816.5
			c0.1,0.2,0.1,0.3,0.2,0.5c0.1,0,0.1,0,0.2,0c-0.1-0.2-0.1-0.3-0.2-0.5C103.2,816.5,103.1,816.5,103.1,816.5z M93.7,816.5
			c-0.1,0-0.1,0-0.2,0c0.1,0.1,0.2,0.3,0.3,0.4c0.1,0,0.1,0,0.2,0C93.9,816.8,93.8,816.7,93.7,816.5z M103.7,816.5
			c0.1,0.2,0.1,0.3,0.2,0.5c0.1,0,0.1,0,0.2,0c0,0,0-0.1,0-0.1c-0.1-0.1-0.1-0.3-0.2-0.4C103.8,816.6,103.8,816.6,103.7,816.5z
			 M93,816.6c-0.1,0-0.1,0-0.2,0c0.1,0.1,0.1,0.1,0.2,0.2c0.1,0.1,0.1,0.1,0.2,0.2c0.1,0,0.1,0,0.2,0
			C93.3,816.9,93.1,816.7,93,816.6L93,816.6z M104.3,816.6c0.1,0.2,0.1,0.3,0.2,0.5c0,0,0,0,0,0.1c0,0,0.1,0,0.1,0
			c0-0.1,0-0.2-0.1-0.4c0-0.1,0-0.1-0.1-0.2C104.4,816.7,104.4,816.6,104.3,816.6L104.3,816.6z M92.4,816.8c0,0.1,0,0.1-0.1,0.2
			c0.1,0.1,0.2,0.1,0.3,0.2c0,0,0,0,0,0c0.1,0,0.1,0,0.2,0c-0.1-0.1-0.2-0.2-0.2-0.2C92.5,816.9,92.4,816.8,92.4,816.8L92.4,816.8z"
			/>
		<path d="M98.3,818.1c-0.1,0-0.1,0-0.2,0c0.1,0.2,0.2,0.3,0.3,0.5c0.1,0,0.1,0,0.2,0C98.5,818.4,98.4,818.2,98.3,818.1L98.3,818.1z
			 M98.7,818.1c0.1,0.2,0.2,0.3,0.3,0.5c0.1,0,0.1,0,0.2,0c-0.1-0.2-0.2-0.3-0.3-0.5C98.9,818.1,98.8,818.1,98.7,818.1L98.7,818.1z
			 M99.4,818.1c0.1,0.2,0.2,0.3,0.3,0.5c0.1,0,0.1,0,0.2,0c-0.1-0.2-0.2-0.3-0.3-0.5C99.5,818.1,99.4,818.1,99.4,818.1L99.4,818.1z
			 M97.5,818.1c0.1,0.2,0.2,0.3,0.3,0.5c0.1,0,0.1,0,0.2,0c-0.1-0.2-0.2-0.3-0.3-0.5C97.6,818.1,97.5,818.1,97.5,818.1z M100,818.1
			c0.1,0.2,0.2,0.3,0.3,0.5c0.1,0,0.1,0,0.2,0c-0.1-0.2-0.2-0.3-0.3-0.5C100.1,818.1,100,818.1,100,818.1L100,818.1z M97,818.1
			c-0.1,0-0.1,0-0.2,0c0.1,0.2,0.2,0.3,0.3,0.5c0.1,0,0.1,0,0.2,0C97.2,818.4,97.1,818.2,97,818.1L97,818.1z M100.6,818.1
			c0.1,0.2,0.2,0.3,0.3,0.4c0.1,0,0.1,0,0.2,0c-0.1-0.1-0.2-0.3-0.2-0.4C100.7,818.1,100.7,818.1,100.6,818.1L100.6,818.1z
			 M96.4,818.1c-0.1,0-0.1,0-0.2,0c0.1,0.1,0.2,0.3,0.3,0.4c0.1,0,0.1,0,0.2,0C96.6,818.4,96.5,818.2,96.4,818.1L96.4,818.1z
			 M101.2,818.1c0.1,0.1,0.2,0.3,0.2,0.4c0.1,0,0.1,0,0.2,0c-0.1-0.1-0.2-0.3-0.2-0.4C101.3,818.1,101.3,818.1,101.2,818.1
			L101.2,818.1z M95.8,818.1c-0.1,0-0.1,0-0.2,0c0.1,0.1,0.2,0.3,0.3,0.4c0.1,0,0.1,0,0.2,0C95.9,818.4,95.9,818.2,95.8,818.1z
			 M101.8,818.1c0.1,0.1,0.2,0.3,0.2,0.4c0.1,0,0.1,0,0.2,0c-0.1-0.1-0.2-0.3-0.2-0.4C101.9,818.1,101.9,818.1,101.8,818.1z
			 M95.1,818.1c-0.1,0-0.1,0-0.2,0c0.1,0.1,0.2,0.3,0.3,0.4c0.1,0,0.1,0,0.2,0C95.3,818.4,95.2,818.3,95.1,818.1L95.1,818.1z
			 M102.4,818.1c0.1,0.1,0.2,0.3,0.2,0.4c0.1,0,0.1,0,0.2,0c-0.1-0.1-0.1-0.3-0.2-0.4C102.6,818.1,102.5,818.1,102.4,818.1
			L102.4,818.1z M94.5,818.1c-0.1,0-0.1,0-0.2,0c0.1,0.1,0.2,0.3,0.3,0.4c0.1,0,0.1,0,0.2,0C94.7,818.4,94.6,818.3,94.5,818.1
			L94.5,818.1z M103.1,818.1c0.1,0.2,0.2,0.3,0.2,0.5c0.1,0,0.1,0,0.2,0c-0.1-0.2-0.2-0.3-0.2-0.5
			C103.2,818.2,103.1,818.2,103.1,818.1L103.1,818.1z M93.8,818.2c-0.1,0-0.1,0-0.2,0c0.1,0.1,0.2,0.3,0.3,0.4c0.1,0,0.1,0,0.2,0
			C94,818.4,93.9,818.3,93.8,818.2z M103.7,818.2c0.1,0.2,0.2,0.3,0.2,0.5c0,0,0,0,0,0c0.1,0,0.1,0,0.2,0c-0.1-0.2-0.2-0.3-0.2-0.5
			C103.8,818.2,103.7,818.2,103.7,818.2L103.7,818.2z M93.2,818.2c-0.1,0-0.1,0-0.2,0c0.1,0.1,0.2,0.3,0.3,0.4c0.1,0,0.1,0,0.2,0
			C93.4,818.5,93.3,818.4,93.2,818.2L93.2,818.2z M104.3,818.2c0.1,0.2,0.2,0.4,0.2,0.5c0,0,0.1,0,0.1,0c0,0,0,0,0.1,0
			c-0.1-0.2-0.2-0.3-0.2-0.5C104.4,818.3,104.3,818.3,104.3,818.2z M92.6,818.3c0,0-0.1,0-0.1,0c0,0,0,0,0,0
			c0.1,0.1,0.2,0.3,0.3,0.4c0.1,0,0.1,0,0.2,0C92.8,818.6,92.7,818.4,92.6,818.3L92.6,818.3z"/>
		<path class="st9" d="M98.5,816.8v0.2c0.1,0.1,0.3,0.2,0.4,0.3c-0.1,0.1-0.3,0.2-0.4,0.3v0.2c0.2-0.2,0.4-0.3,0.6-0.5
			C98.9,817.2,98.7,817,98.5,816.8L98.5,816.8z M99.2,816.8l0,0.2c0.1,0.1,0.3,0.2,0.4,0.3c-0.1,0.1-0.3,0.2-0.4,0.3l0,0.2
			c0.2-0.2,0.4-0.3,0.6-0.5C99.6,817.2,99.4,817,99.2,816.8L99.2,816.8z M97.9,816.8l0,0.2c0.1,0.1,0.3,0.2,0.4,0.3
			c-0.1,0.1-0.3,0.2-0.4,0.3l0,0.2c0.2-0.2,0.4-0.3,0.6-0.5C98.3,817.2,98.1,817,97.9,816.8L97.9,816.8z M99.8,816.9l0,0.2
			c0.1,0.1,0.3,0.2,0.4,0.3c-0.1,0.1-0.3,0.2-0.4,0.3l0,0.2c0.2-0.2,0.4-0.3,0.6-0.5C100.2,817.2,100,817,99.8,816.9L99.8,816.9z
			 M97.3,816.9l0,0.2c0.1,0.1,0.3,0.2,0.4,0.3c-0.1,0.1-0.3,0.2-0.4,0.3l0,0.2c0.2-0.2,0.4-0.4,0.6-0.5
			C97.7,817.2,97.5,817,97.3,816.9L97.3,816.9z M100.4,816.9l0,0.2c0.1,0.1,0.3,0.2,0.4,0.3c-0.1,0.1-0.3,0.2-0.4,0.3l0,0.2
			c0.2-0.2,0.4-0.3,0.6-0.5C100.8,817.2,100.6,817,100.4,816.9L100.4,816.9z M96.7,816.9l0,0.2c0.1,0.1,0.3,0.2,0.4,0.3
			c-0.1,0.1-0.3,0.2-0.4,0.3l0,0.2c0.2-0.2,0.4-0.4,0.6-0.5C97.1,817.2,96.9,817,96.7,816.9L96.7,816.9z M101,816.9l0,0.2
			c0.1,0.1,0.3,0.2,0.4,0.4c-0.1,0.1-0.3,0.2-0.4,0.3l0,0.2c0.2-0.2,0.4-0.3,0.6-0.5C101.4,817.3,101.2,817.1,101,816.9L101,816.9z
			 M96,816.9l0,0.2c0.1,0.1,0.3,0.2,0.4,0.3c-0.1,0.1-0.3,0.2-0.4,0.4l0,0.2c0.2-0.2,0.4-0.4,0.6-0.5
			C96.5,817.2,96.3,817.1,96,816.9z M101.6,816.9l0,0.2c0.1,0.1,0.3,0.2,0.4,0.4c-0.1,0.1-0.3,0.2-0.4,0.3l0,0.2
			c0.2-0.2,0.4-0.3,0.6-0.5C102,817.3,101.8,817.1,101.6,816.9L101.6,816.9z M95.4,816.9l0,0.2c0.1,0.1,0.3,0.2,0.4,0.3
			c-0.1,0.1-0.3,0.2-0.4,0.4l0,0.2c0.2-0.2,0.4-0.4,0.6-0.6C95.9,817.3,95.6,817.1,95.4,816.9z M102.3,817l0,0.2
			c0.1,0.1,0.3,0.2,0.4,0.4c-0.1,0.1-0.3,0.2-0.4,0.3l0,0.2c0.2-0.2,0.4-0.3,0.6-0.5C102.6,817.3,102.4,817.2,102.3,817L102.3,817z
			 M94.8,817l0,0.2c0.1,0.1,0.3,0.2,0.4,0.3c-0.1,0.1-0.3,0.2-0.4,0.4l0,0.2c0.2-0.2,0.4-0.4,0.6-0.6C95.2,817.3,95,817.1,94.8,817
			L94.8,817z M102.9,817l0,0.2c0.1,0.1,0.2,0.2,0.4,0.4c-0.1,0.1-0.3,0.2-0.4,0.3l0,0.2c0.2-0.2,0.4-0.3,0.7-0.5
			C103.3,817.4,103.1,817.2,102.9,817L102.9,817z M94.2,817l0,0.2c0.1,0.1,0.3,0.2,0.4,0.3c-0.1,0.1-0.2,0.2-0.4,0.4l0,0.2
			c0.2-0.2,0.4-0.4,0.6-0.6C94.6,817.3,94.4,817.2,94.2,817L94.2,817z M103.5,817.1l0,0.2c0.1,0.1,0.2,0.2,0.4,0.4
			c-0.1,0.1-0.3,0.2-0.4,0.3l0,0.2c0.2-0.2,0.4-0.3,0.7-0.4C103.9,817.5,103.7,817.3,103.5,817.1L103.5,817.1z M93.6,817.1l0,0.2
			c0.1,0.1,0.3,0.2,0.4,0.3c-0.1,0.1-0.2,0.2-0.4,0.4l0,0.2c0.2-0.2,0.4-0.4,0.6-0.6C94,817.4,93.8,817.3,93.6,817.1L93.6,817.1z
			 M104.1,817.1l0,0.2c0.1,0.1,0.2,0.3,0.4,0.4c-0.1,0.1-0.3,0.2-0.4,0.3l0,0.2c0.2-0.1,0.4-0.3,0.7-0.4
			C104.5,817.5,104.3,817.3,104.1,817.1L104.1,817.1z M93,817.2l0,0.2c0.1,0.1,0.3,0.2,0.4,0.3c-0.1,0.1-0.2,0.3-0.4,0.4l0,0.2
			c0.2-0.2,0.4-0.4,0.6-0.6C93.4,817.5,93.2,817.3,93,817.2L93,817.2z M92.5,817.4v0.2c0.1,0.1,0.2,0.1,0.3,0.2
			c-0.1,0.1-0.2,0.2-0.3,0.3l0,0.2c0.2-0.2,0.4-0.4,0.5-0.6C92.8,817.6,92.7,817.5,92.5,817.4L92.5,817.4z"/>
		<path class="st35" d="M102.3,818.5c1.3,1.6,2.7,2,4.1,1.6c-0.8-0.4-1.6-0.8-2.1-1.4C103.7,818.6,103,818.6,102.3,818.5
			L102.3,818.5z"/>
		<path class="st36" d="M108,816.2c-0.1,0-0.2,0-0.2,0c-0.9,0.2-1.3,2.3-1.6,2.6c-0.3,0.3-0.5,0.6-0.9,0.7c0.4,0.2,0.8,0.5,1.2,0.7
			c0.7-0.3,1.2-1.5,1.3-1.8c0.5-1.8,1.2-1.7,1.8-1.8C109.5,816.6,108.6,816.2,108,816.2L108,816.2z"/>
		<path class="st37" d="M109.5,816.6c-0.4,0-0.9,0-1.3,0.6c0.1-0.1,0.7,0.6,0.7,1.3c0,0.7,0.6,0.6,0.7,1.8c0.4,0.2,0.9,0,1.4-0.1
			c0.2,0,0.4-0.9,0.1-1.3c-0.3-0.4-0.6-0.7-0.9-1.1C109.8,817.5,109.5,816.6,109.5,816.6C109.5,816.6,109.5,816.6,109.5,816.6
			L109.5,816.6z"/>
		<path class="st38" d="M110.9,819.6c-0.5,0-0.9,0.2-1.6,0.2c-0.2,0.2,0.1,0.4,0.2,0.5c0.5,0.2,0.9,0,1.3-0.1
			C110.7,819.9,110.7,819.6,110.9,819.6z"/>
		<path class="st35" d="M94.8,818.5c-1.3,1.6-2.7,2-4.1,1.6c0.8-0.4,1.6-0.8,2.1-1.4C93.5,818.6,94.1,818.6,94.8,818.5L94.8,818.5z"
			/>
		<path class="st36" d="M89.2,816.3c0.1,0,0.2,0,0.2,0c0.9,0.2,1.3,2.3,1.6,2.6c0.3,0.3,0.5,0.6,0.9,0.7c-0.4,0.2-0.8,0.5-1.2,0.7
			c-0.7-0.3-1.2-1.5-1.3-1.8c-0.5-1.8-1.2-1.7-1.8-1.8C87.7,816.6,88.6,816.2,89.2,816.3L89.2,816.3z"/>
		<path class="st37" d="M87.7,816.6c0.4,0,0.9,0,1.3,0.6c-0.1-0.1-0.7,0.6-0.7,1.3c0,0.7-0.6,0.6-0.7,1.8c-0.4,0.2-0.9,0-1.4-0.1
			c-0.2,0-0.4-0.9-0.1-1.3c0.3-0.4,0.6-0.7,0.9-1.1C87.3,817.5,87.7,816.6,87.7,816.6C87.7,816.6,87.7,816.6,87.7,816.6L87.7,816.6z
			"/>
		<path class="st38" d="M86.2,819.6c0.5,0,0.9,0.2,1.6,0.2c0.2,0.2-0.1,0.4-0.2,0.5c-0.5,0.2-0.9,0-1.3-0.1
			C86.5,819.9,86.5,819.6,86.2,819.6z"/>
		<path class="st39" d="M122.6,847.1c0.1,0.6,0.2,1.1,0.2,1.7l0.5,0.3l0,0l1.3,0.6c0-0.2,0-0.4,0-0.6c-0.5-0.3-1-0.4-1.6-0.4
			L122.6,847.1L122.6,847.1z"/>
		<path d="M122.6,847.1l0.1,1.8l2.3,1.2l-0.1-0.3c-0.7-0.4-1.3-0.8-2.1-1C122.9,848.2,122.8,847.6,122.6,847.1L122.6,847.1z"/>
		<path d="M122.6,847.1l0.1,1.8l2.1,1.1c0-0.1,0-0.1-0.1-0.2c0-0.1,0-0.1,0-0.2c-0.6-0.3-1.1-0.7-1.8-0.9
			C122.9,848.2,122.8,847.6,122.6,847.1z"/>
		<path class="st40" d="M64,806.1L64,806.1l0,74c0,3.7,3,6.6,6.6,6.6h21.3c3.7,0,6.6,3,6.6,6.6c0-3.7,3-6.6,6.6-6.6h21.3
			c3.7,0,6.6-3,6.6-6.6v-73.9l0,0h0H64L64,806.1z"/>
	</g>
</g>
</svg>
