<?xml version="1.0" encoding="utf-8"?>
<!-- Generator: Adobe Illustrator 22.0.1, SVG Export Plug-In . SVG Version: 6.00 Build 0)  -->
<svg version="1.1" id="Слой_1" xmlns="http://www.w3.org/2000/svg" xmlns:xlink="http://www.w3.org/1999/xlink" x="0px" y="0px"
	 viewBox="0 0 127.3 127" style="enable-background:new 0 0 127.3 127;" xml:space="preserve">
<style type="text/css">
	.st0{fill:url(#SVGID_1_);}
	.st1{fill:#FFFFFF;}
	.st2{fill-rule:evenodd;clip-rule:evenodd;fill:#00A551;}
	.st3{fill-rule:evenodd;clip-rule:evenodd;fill:#FFFFFF;}
	.st4{fill-rule:evenodd;clip-rule:evenodd;}
	.st5{fill-rule:evenodd;clip-rule:evenodd;fill:#FFCA05;}
	.st6{fill-rule:evenodd;clip-rule:evenodd;fill:#0094D9;}
	.st7{fill:none;stroke:#231F20;stroke-width:2.678186e-02;stroke-miterlimit:22.9256;}
</style>
<radialGradient id="SVGID_1_" cx="64.8" cy="-1506.7469" r="62.6" gradientTransform="matrix(1 0 0 -1 0 -1442.3469)" gradientUnits="userSpaceOnUse">
	<stop  offset="0.9487" style="stop-color:#212121"/>
	<stop  offset="1" style="stop-color:#606060;stop-opacity:0"/>
</radialGradient>
<circle class="st0" cx="64.8" cy="64.4" r="62.6"/>
<circle class="st1" cx="62.6" cy="62.6" r="62.6"/>
<g>
	<polygon class="st2" points="99.8,21.9 99.8,32.3 26.4,32.3 26.4,21.9 99.8,21.9 	"/>
	<polygon class="st3" points="99.8,32.3 99.8,34 26.4,34 26.4,32.3 99.8,32.3 	"/>
	<polygon class="st3" points="99.8,36.1 99.8,37.7 26.4,37.7 26.4,36.1 99.8,36.1 	"/>
	<polygon class="st2" points="99.8,37.7 99.8,86 26.4,86 26.4,37.7 99.8,37.7 	"/>
	<polygon class="st3" points="99.8,86 99.8,87.8 26.4,87.8 26.4,86 99.8,86 	"/>
	<polygon class="st3" points="99.8,90.4 99.8,92.1 26.4,92.1 26.4,90.4 99.8,90.4 	"/>
	<path class="st2" d="M99.8,92.1v5.4c0,3.8-2.9,4.3-5.6,4.3L66.2,102c-1.9-0.1-2.9,1.6-3.6,2.8c-1.7-1.9-2-2.9-4.5-2.9L32.8,102
		c-3,0-6.3-2.5-6.3-4.7c0-5.8,0-5.2,0-5.2H99.8L99.8,92.1z"/>
	<path class="st4" d="M80.5,44.1c-1.1,2.7,1.4,4.8,0.3,7.6c-1.8,2,1,4.1-0.7,6.1c0.3,2-2,4.4,0.2,6.1c1.8,3.2,4.8,5.7,7.9,7.2
		c0.1,0.3,0.5,0.5,0.3,0.9c-0.7,0.9-2,0.6-2.9,0.5c-3-1.6-4.4-5-8.1-4.8h-1.3c-0.5-0.6,0.3-1.2,0-1.7c-2.5,1.9-3.5,4.5-2.8,7.6
		c0.9,1.8,2.4,2.2,3.6,3.2c-0.2,1.4-2.4,0.7-3.1,0.7l-2.5-0.2c-1.4-2.5-1.1-5.5-1.7-8.2c-3.9-1.4-7.4-0.9-11.2-2.8
		c-1.8,2.3-0.1,5.7,0.9,8.1c0.7,1.7,3.4,0.8,2.9,3.1c-2.3-0.5-5.5,1.4-6.1-2.2c-0.3-0.8-2.7-1.5-0.9-2.5c0.5-2-0.8-3.6-1.9-5
		c-2.7-0.3-5.1,1.5-7.6,1.8c-0.8,1.5-1.8,3.4-0.8,5.1c1.3,0.2,2.1,1.4,1.5,2.8c-0.8,0.8-2.2,0.4-3.1,0.3c-3.2-1.9-1.7-6.3-1.5-9
		c-0.1-1.1,0.6-2,1.2-2.6c1.2,0.3,2,0.2,2.9-0.5c1.6-1.5,1.1-4.2,2.3-6l-0.3-0.3c-4.2,0.6-7.8,4.8-12.3,2.6
		c-0.4-0.5-0.9-1.1-0.5-1.7c1.7-0.9,4,0.5,5.9-0.6c7-3.5,15-5.6,22.9-3.5c2.9,0.3,6.1-0.7,7.6-3.4c-0.8-2.6,0.2-5.8-0.2-8.6
		c2,0.8,3.7,0.1,5.5,0.2c0.7,0.7,1.5,0,2.3,0C79.9,44.2,80.3,44.2,80.5,44.1L80.5,44.1z"/>
	<path class="st4" d="M72.5,64.1c-0.1-2.9-4.4-4.1-2.9-7.3C70,59.8,73.9,61,72.5,64.1L72.5,64.1z"/>
	<path class="st5" d="M74.2,46.2c-0.4,0.5-0.5,1-0.3,1.5c0.5,0.9,1.6,1.4,0.8,2.5c-0.6,0.4-0.2,1.1-0.3,1.7c0.2,0.2,0.3,0.4,0.6,0.4
		c0.3-0.6-0.6-1.4,0.3-1.9c0.1,0.1,1,0.9,0.5,1.5l-1.2,0.7l0.2,0.2c-1.5,0.7-0.1-0.9-1-1.3c-0.3-0.4-0.1-0.9-0.2-1.4l0.7-0.5
		c-0.8-0.6-1-1.6-0.7-2.5c0.1-0.2-0.2-0.3-0.3-0.5c-0.7,0.2-0.5,0.9-0.8,1.4c0.1-0.9-0.1-2.1,0-3.1C73.2,45.2,74.2,45.4,74.2,46.2
		L74.2,46.2z"/>
	<path class="st5" d="M77.9,46.1c-0.3-0.1-0.4,0.3-0.6,0.5c0.3,0.3,0.6,0.7,0.9,0.3l-0.9,0.6c-0.3-0.5-0.2-1.2-0.8-1.5
		c-0.8,0.3-0.9,1-1.1,1.8l0.2,0.2l0.6-1.1c0.9,0.9,0.3,2.1,0.5,3.4c-0.8,0.3-0.7-0.7-0.9-1.1l0.2-0.2l-1.1-2
		c0.2,0.1,0.3-0.2,0.5-0.3c-0.7-1.1,1-0.8,1.1-1.7C76.5,45.6,77.4,45.7,77.9,46.1L77.9,46.1z"/>
	<path class="st5" d="M79.9,45.3c0.2,0.7-0.3,1.2-0.2,1.9c-0.1-0.2-0.1-0.5-0.3-0.6c-1,0.5,0.1,2.1-0.9,2.8c0.6,0.8,0.9,2.2,0.3,3.2
		c-0.3,0.2-0.7,0.2-1.1,0.3c0.8-0.7-1.7-0.7-1-1.9c0.3,0.1,0.4-0.2,0.5-0.3c0.2,0,0.7,0.9,0.2,1.4c0.1,0.2,0.4,0.2,0.5,0
		c1.6-1.4-1.9-3.1,0.6-4c0.2-0.3,0.4-0.6,0.3-1.1c0.3-0.3-1.2-0.9-0.3-1.4C78.9,45.3,79.5,45.6,79.9,45.3L79.9,45.3z"/>
	<path class="st5" d="M79.9,52.4l-0.5,0.5c0.4-1.1,1.3-2.8,0.5-4.2l0.2-0.5C80.8,49.4,80.6,51.3,79.9,52.4L79.9,52.4z"/>
	<polygon class="st5" points="72.5,48.5 72.7,48.5 72.7,49.9 72.5,49.9 72.5,48.5 	"/>
	<path class="st5" d="M73.4,52.8c-1-0.5-1.2-1.5-1.1-2.5C72.6,51.1,73.1,52,73.4,52.8L73.4,52.8z"/>
	<polygon class="st5" points="76.8,53.1 76,52.8 76.8,52.8 76.8,53.1 	"/>
	<path class="st5" d="M79.3,53.1c-1,0.9-2,1.6-2.5,2.8c-0.3-0.7-0.6-1.5-0.8-2h0.9c-0.1,0.3-1,0.6-0.5,1.1
		C77.8,54.7,77.8,52.9,79.3,53.1L79.3,53.1z"/>
	<path class="st5" d="M76.9,58.1c0.6-0.4,0.2-1.2,0.7-1.7c0.3-1,1.2-1.5,1.8-2c0.3,2-2.1,3-2.8,4.9c-0.7-2-2.8-3.4-3.5-5.4
		C75,54.9,76.2,56.4,76.9,58.1L76.9,58.1z"/>
	<path class="st5" d="M76.2,62.5l0.3,0.3c1.1-0.6,0.5-2.2,1.1-3.1c0.9-0.9,1.3-2.1,2.3-2.8c0.2,1.4-1.9,2.6-2.1,4.1
		c-0.3,0.9-0.7,1.9-0.6,2.6c0.9-0.1,0.9-1.1,1.4-1.7c-0.2,2.1-2.5,3.2-3.7,4.7c-0.1-0.3,0.1-0.7-0.2-0.9c-1.1,1-2.8,1.1-3.5,2.3
		c0.6,0.4,1.5-0.1,2.3-0.2c0.1,1.3-0.9,2-1.5,3.2c1.6-0.1,0.7,2.1,1.4,3.4c0.8,0.7,1.9,1.5,2.9,2c-0.4,0.3-1.2-0.1-1.5,0.5
		c-0.9,0.2-2.1,0.5-2.8,0L71,72.1c0.5,0.1,0.8-0.2,1.2-0.3l-1.4-1.6c0.5,0,1.1,0.4,1.5,0c-0.6-1-2.3-1.4-2.3-2.9
		c-0.2-0.1-0.2-0.4-0.5-0.3c-0.6,0.3-0.2,0.9-0.3,1.3c-0.8-1.5-0.4-3.5-0.8-4.8c-0.2-0.1-0.2,0.1-0.3,0.2L68,59.2
		c0.8-1.2,0.8-2.8,2.3-3.5c0,3.2,3,3.7,4.2,6.3c0-1.8-1.7-3.3-2.5-4.9l-0.2-2C74,57.4,76,59.3,76.2,62.5L76.2,62.5z"/>
	<path class="st5" d="M59.4,56.2c-1.8,2.1-1.5,4.7-2.6,7.2l0.2,0.2c2.2-1.8,1.9-5.1,4.5-6.7c-1,2,0.1,5-1,7.3
		c-0.1,1.4,1.4,1.5,1.1,2.6c-1.5-0.1-2.5-1.1-3.9-1.4c0.5-0.3,0.6-0.9,1.1-1.3c0.3,0.6,0.1,1.5,0.8,1.7c0.4-0.8,0-2.3,0.3-3.2
		c0.5-1.4,1-2.9,0.8-4.3c-0.7,0.4-0.5,1.5-0.8,2.2c-0.9,2.6-2.6,4.9-5.2,6.1c0.2-0.6,0.2-1.7,0.8-2.3c0.1-0.3-0.2,0.5,0.2,0.7
		c1.3-1.7,1.9-4.4,1.8-6.1c-1.4,3.1-3.1,5.7-4.7,8.7c-0.4,0.1-0.8,0.5-1.3,0.3c0.1-2.2,1.7-4,1.6-6.1c-0.1-0.1-0.2-0.2-0.3-0.2
		c-0.9,2.5-1.9,4.9-3.7,7c-0.4-0.9,0.1-2.3,0.2-3.1l-0.8,1.1c0.2-3.6,1.2-7.2,3.8-9.9h1.1c-2,3-3.6,6.6-4,10.2
		c1.3-0.7,1.4-2.4,2.1-3.5c0.3-3,2.3-5.2,4.3-7.2h0.6c-1.1,1.1-1.5,2.6-2.2,4c0.2,2.2-1.1,3.9-1.8,5.7c1.3,0.3,1.6-1.3,2.3-2.2
		c1-2.9,1.5-5.9,4.3-7.6C59,56.2,59.2,56.2,59.4,56.2L59.4,56.2z"/>
	<path class="st5" d="M63.6,58.5c-0.1,1.1-0.4,2.1-0.3,3.4c-0.2-0.1-0.3,0.2-0.5,0.3c-0.1,1.9-0.9,3.8,0.9,5c0.7-0.5,0-1.1,0-1.7
		l-0.2-3.1c1.2,0,0.3-1.7,1-2.3c1.1-1,0.8-3.2,2.6-3.4c-1.4,1.9,0,4.8,0.2,6.9c-0.1,1.1-0.6,2.4-0.2,3.2l0.7-0.6L67.7,68
		c-0.4,0.3-1.3,0.2-1.6-0.5c-0.4-2.4,0.2-5.7-0.5-7.9c-0.7,0.8-0.3,1.7-0.5,2.9c-0.6,1.5-0.8,3.4-0.5,5l-2.3-0.3
		c-0.7-1.8,0.7-3.9,0-5.6c-0.7,0.5-0.5,1.3-0.8,2c0.6-2.4,0.6-5.1,2.4-6.7C64.2,57.6,64,57.7,63.6,58.5L63.6,58.5z"/>
	<path class="st5" d="M50.2,57.2c-0.5,0.8-0.8,2.1-2.2,2C48.5,58.3,48.9,57.1,50.2,57.2L50.2,57.2z"/>
	<polygon class="st5" points="46.5,59.4 47,58.1 47.3,58.3 46.5,59.4 	"/>
	<path class="st5" d="M45.3,60c-0.7-0.4,0.1-0.9,0.3-1.4C45.7,59.2,45.4,59.6,45.3,60L45.3,60z"/>
	<path class="st5" d="M43.7,60.6h-0.3c0.3-0.4,0.1-1,0.6-1.2C44,59.5,44.2,60.4,43.7,60.6L43.7,60.6z"/>
	<path class="st5" d="M42.1,61.4c-0.4-0.5-0.1-1.1,0.5-1.4L42.1,61.4L42.1,61.4z"/>
	<path class="st5" d="M40.7,62h-0.3l0.5-1.6C41.2,60.9,40.7,61.5,40.7,62L40.7,62z"/>
	<path class="st5" d="M38.1,60.6c0.1,0.6-0.1,1.1-0.5,1.6c-0.1-0.3-0.4-0.1-0.3-0.5C37.3,61.2,37.5,60.5,38.1,60.6L38.1,60.6z"/>
	<path class="st5" d="M39.2,62.2c-0.4-0.3,0.1-0.9,0.2-1.3L39.2,62.2L39.2,62.2z"/>
	<path class="st5" d="M78.5,65.2c0.8,0.2,0.8-0.9,1.4-1c1.2,0.7-0.2,1.8-0.6,2.5c0.4,0.3,0.9,0.5,1.3,0.2c0.3-0.3,0.5-0.6,0.9-0.5
		l1.2,1.4l0.2-0.2c1.1,1.8,3,3.1,4.8,3.9c0,0.4-0.6,0.6-1,0.6c-2.5-0.6-3.3-2.5-5.3-3.8c0.1-0.6,1.2-0.7,0.3-1.3
		c-1-0.1-1.8,0.9-2.8,0.3c-0.2-0.7,1-1.2,0.2-1.8l-1.7,1.4c-0.6-0.5,0.7-1.2,0.8-1.8c-0.6-1.2,0.9-1.1,0.9-2
		C78.9,63.5,77.8,64.7,78.5,65.2L78.5,65.2z"/>
	<path class="st5" d="M46.8,68.9c-1-0.3-1.5,1.8-2.5,0.6c0.1,0.1,0.2,0.2,0.3,0.2c0.8-0.7-0.2-2.1,0.8-2.8c0.3,0.5-0.1,1.3,0.5,2
		c0.8-1,0.8-2.2,1.4-3.2l0.2-0.9C48.1,66.4,46.1,67.5,46.8,68.9L46.8,68.9z"/>
	<polygon class="st5" points="56,66.9 56.7,66.3 57.1,66.3 56,66.9 	"/>
	<path class="st5" d="M43.9,66.9c-0.1,0.7,0.5,1.9-0.2,2.6C43.3,68.8,43.1,67.2,43.9,66.9L43.9,66.9z"/>
	<path class="st5" d="M55.5,67.8c0.4-0.2,1.1-0.2,1.4-0.2c0.3,0.7-1.2,1.4-1.4,2c3.5-1.1,1.3,4.1,3.7,5.4c0.7,0.7,1.5,1.2,2.5,1.4
		c-0.5,0.4-1.3-0.3-1.6,0.8l-1.7,0.2c0-2.1-4.1-2.9-2.2-4.9c0-1-0.1-1.2,0.6-1.7c-0.8-0.2-1.4-0.8-1.7-1.5l0.8-0.9
		c-0.4-0.3-1-0.3-1.6-0.5l1-0.8C55.6,67.1,54.9,67.6,55.5,67.8L55.5,67.8z"/>
	<polygon class="st5" points="47.4,68.4 48,67.3 47.6,68.4 47.4,68.4 	"/>
	<path class="st5" d="M43.7,70c0.2,0.5,0.4,1,0.9,1.3c-0.8,1.2,0.5,3.3-1.1,4.3v0.3c0.8,0.2,2.1-0.4,2.8,0.5v0.5
		c-1.1-0.7-1.6,1.5-2.9,0.3c-0.8-1.1-1.2-2.8-0.8-4c0.2,0.1,0.5,0.1,0.6,0.3l0.5-0.5c-0.4-0.5-1.1-0.8-1.1-1.4
		c0.3,0.3,0.7,0.1,1.1,0.2c0.2-0.7-0.9-1.1-0.8-1.9C43.2,69.9,43.5,70.4,43.7,70L43.7,70z"/>
	<path class="st4" d="M76.5,64.4c-2.1-1.1-1.2-4-2.4-5.6C76.2,59.9,75.2,62.8,76.5,64.4L76.5,64.4z"/>
	<path class="st4" d="M70.1,62.2c0.3,1.6,0.6,3.9,1,5.5h-0.4c-1.5-2.6-1.6-4.6-1.7-7.8C70,60,69.6,61.5,70.1,62.2L70.1,62.2z"/>
	<path class="st4" d="M75.4,65.4c-0.7,0.2-1.6-0.8-1.7-1.6c0-1-0.5-1.7-0.8-2.6C74.6,62,74.4,64.1,75.4,65.4L75.4,65.4z"/>
	<polygon class="st6" points="26.4,34 99.8,34 99.8,36.1 26.4,36.1 26.4,34 	"/>
	<polygon class="st6" points="26.4,87.8 99.8,87.8 99.8,90.4 26.4,90.4 26.4,87.8 	"/>
	<path class="st7" d="M99.8,21.9l-73.4,0c-0.1,25.2,0,50.4,0,75.6c0,2.2,3.3,4.5,6.3,4.5l25.4-0.2c2.5,0.1,2.8,1,4.5,2.9
		c0.8-1.2,1.7-2.9,3.6-2.8l27.9-0.2c2.8,0,5.6-0.5,5.6-4.3V21.9L99.8,21.9z"/>
</g>
</svg>
