<?xml version="1.0" encoding="utf-8"?>
<!-- Generator: Adobe Illustrator 22.0.1, SVG Export Plug-In . SVG Version: 6.00 Build 0)  -->
<svg version="1.1" id="Слой_1" xmlns="http://www.w3.org/2000/svg" xmlns:xlink="http://www.w3.org/1999/xlink" x="0px" y="0px"
	 viewBox="0 0 127.3 127" style="enable-background:new 0 0 127.3 127;" xml:space="preserve">
<style type="text/css">
	.st0{fill:url(#SVGID_1_);}
	.st1{fill:#FFFFFF;}
	.st2{fill-rule:evenodd;clip-rule:evenodd;fill:#2B2A29;}
	.st3{fill-rule:evenodd;clip-rule:evenodd;fill:#EE062C;}
	.st4{fill-rule:evenodd;clip-rule:evenodd;fill:#1B4E9B;}
	.st5{fill-rule:evenodd;clip-rule:evenodd;fill:#FFC33C;}
	.st6{fill-rule:evenodd;clip-rule:evenodd;fill:#00DAEE;}
	.st7{fill-rule:evenodd;clip-rule:evenodd;fill:#FEFEFE;}
</style>
<radialGradient id="SVGID_1_" cx="64.8" cy="-1506.7469" r="62.6" gradientTransform="matrix(1 0 0 -1 0 -1442.3469)" gradientUnits="userSpaceOnUse">
	<stop  offset="0.9487" style="stop-color:#212121"/>
	<stop  offset="1" style="stop-color:#606060;stop-opacity:0"/>
</radialGradient>
<circle class="st0" cx="64.8" cy="64.4" r="62.6"/>
<circle class="st1" cx="62.6" cy="62.6" r="62.6"/>
<g>
	<path class="st2" d="M68,28c0-0.6-0.1-0.9-0.1-1c0-1,0.4-2.6,0.4-2.6l-1,0c0-0.1-0.1-0.5-0.1-0.6c0.6,0.1,1.6,0,2.1-0.5L68,28
		L68,28z M44.2,45.4l-0.1,0.3v0.2v0.1l0.2,0.3L44.2,45.4L44.2,45.4z M44.3,48.3l-0.5,0l-0.3,0.1l-0.2,0.1l0,0.2l0.3,0.3l-0.3,0.7
		l-0.4,0.4c-0.7,0.3-1.1,0.2-1.7,0.2c0.1,0.1,0.2,0.3,0.2,0.3l0.1,0.3c0.6,0,1.1,0.8,1.1,0.8c0.6-0.5,1-0.8,1.2-1
		c0.2-0.1,0.6-0.1,0.6-0.1L44.3,48.3L44.3,48.3z M43.3,60.4c0.4,0,0.9,0.4,0.9,0.4V60C44,60.1,43.4,60.4,43.3,60.4L43.3,60.4
		L43.3,60.4z M44.3,61.4c-0.1,0.3-1.3,1-1.4,1.4c0,0,1,1.5,1,1.5l0.3,0.6V61.4L44.3,61.4z M44.3,67L44,67.4l-0.1,0.2l-0.1,0.1
		L43.7,68l-0.3,0.5l0,0.1v0.1l0,0.1l0.4,0.4l0.3,0.1l0.3,0.2V67L44.3,67z M74.9,102.6L74.9,102.6c0.1-0.1,0.1-0.1,0.2-0.2
		c0.1-0.2,0.5-0.7,0.7-0.8c0.5,1.2,2.1,4.8,2.1,5c0.3,0.1,0.4,0.1,0.6,0c0.2,0,0.7-0.5,0.9-0.5c0.1,0,0.4,0.7,0.6,0.6
		c0,0,1.1-0.1,1.5-0.3c0.2-0.1,0.5,0,0.7,0c0.2,0,0.5-0.3,0.7-0.3c0.6,1.3,4.1,0.8,4.1,0.8c0.1-0.2,0.3-0.5,0.5-0.5
		c0.2,0,1.6,0.1,1.8-0.3c0.1-0.1,0.2-0.1,0.3-0.3l0.1-0.3c0.1,0.2,0.5,0.4,0.5,0.4c0,0,0.6,0.1,0.8-0.1c0-0.1,0.1-0.1,0.1-0.2
		c0,0,0.1-0.3,0.2-0.3c0.1-0.1,0.7-0.4,0.8-0.5c0.1,0,0.4-0.4,0.5-0.4c0.4-0.1,1.2-0.9,1.2-0.9c0-0.1,0-0.3,0.1-0.4
		c0-0.1,0.1-0.1,0.1-0.3c0-0.3,0-0.7,0.1-0.8c0.1-0.1,0.3-0.2,0.5-0.4c0.1-0.1,0.4-0.3,0.5-0.4c0.6-0.7,0.6-1.2,0.6-1.2
		c-0.1-0.4-0.3-0.5-0.6-0.7c-0.1-0.1-0.3-0.1-0.4-0.2c0.3,0,0.9,0.2,0.9,0.2c0.6-0.3,0.6-1.7,0.6-1.9c0.8-1,0.7-2.5,0.3-3.5
		c-0.1-0.4-0.3-1.2-0.3-1.5c0.5,0.1,1.6-0.3,1.6-0.3s0.1-0.5,0.2-0.8c0-0.3,0-0.5,0.1-0.9c0-0.1,0.1-0.3,0.2-0.5
		c0.1-0.2,0.2-0.4,0.3-0.6c0.2-0.4,0.7-1.2,0.6-1.4c-0.1-0.2-0.2-0.8-0.3-1.1c-0.2-0.5-0.5-1.2-0.6-1.9c0.1-1.1,0.2-1.9,0.2-2.6
		c0-0.3,0-0.6,0-0.8c0-0.3,0.1-0.3,0.2-0.4v0c0.1-1.2,0-2.4,0-3.2c0-0.8,0-1.4-0.3-1.9c-0.1-0.1-0.2-0.3-0.3-0.4
		c-0.1-0.1-0.2-0.3-0.4-0.4c-0.3-0.3-0.7-0.5-1.2-0.4h0c0,0-1.1,2.2-1.1,2.3c-0.1-0.1-0.3-0.2-0.4-0.3c-0.1-0.1-0.4-0.2-0.4-0.2
		c0.6-1.7,0.6-4,0.6-6.1c0.1-0.1,0.3-0.3,0.5-0.4c0.2-0.2,0.5-0.3,0.7-0.5c0.5-0.4,0.9-0.8,0.8-1.6c0-0.5,0-1.2-0.1-1.8
		c0-0.6,0-1.4,0.1-1.9c2-4.1-0.5-5.8-2-6.6c-0.1-0.1-0.1-0.1-0.2-0.1c-0.1,0-0.4-0.1-0.5-0.1c-0.1-0.1-0.4-4.1-0.3-4.1
		c0.6-0.4,1.4-1.1,1.7-1.5c0.1-0.2,0.2-0.5,0.3-0.7c0.1-0.3,0.2-0.5,0.3-0.8c0.2-0.7,0.2-1,0.3-1.4c0.1-0.5,0.1-1.3,0-1.8
		c-0.1-1.1-1-2.2-1.4-4.4c0-2.1-0.1-4-0.7-5.4c0-0.3-0.3-1.1-0.4-1.4c0,0-0.4-0.8-0.7-1.1c-0.3-0.3-0.6-0.4-1-0.7
		c-0.1-0.6-0.6-0.8-0.9-1.1c-0.2-0.1-0.5-0.4-0.7-0.5c-0.2-0.1-0.3-0.4-0.5-0.5c0-0.2-0.2-0.4-0.2-0.6c-0.1-0.2-0.9-0.8-1.3-1.3
		c-0.1-0.3-0.5-0.4-0.7-0.7c-0.3-0.2-0.7-0.4-1.1-0.4c-0.3,0-0.4-0.4-0.7-0.6c-0.1-0.1-0.1-0.1-0.2-0.1c-0.1,0-0.1-0.1-0.2-0.1
		C86.2,28,85,28.2,85,28.9l0.5,4.3c-0.3,0.1-1.7,1.6-1.7,1.7c-0.6-0.5-1.6-1.2-2.8-1.1c-0.6-0.1-2.2,0.2-2.6,0.6
		c-0.1,0.1-0.1,0.1-0.1,0.2c0,0.1-0.1,0.1-0.1,0.3c-0.1,0.2-0.1,0.4-0.2,0.6c-0.1,0.4-0.3,0.7-0.3,1c-0.3,0.1-1.1,0.3-1.4,0.2
		c0-0.7-0.3-2.3-2.2-1.9l-0.2,0l0.1-0.6h-1.2c0,0,0-0.1,0-0.2c2.4-0.8,3.3-1.5,3.8-5.3c0.4-1.5,0.8-2.3,1.1-2.8l0.2-0.4l-0.4-0.1
		c0,0-1.8-0.5-1.7-2.1v-0.2l-0.2-0.1c-0.2-0.1-0.6-0.3-0.8-0.4c0-0.4-0.1-1.5-0.1-2.1l0-0.3l-0.3,0c-0.1,0-1.7-0.3-2.2-0.6l0,0
		c0-0.1,0-0.2,0.1-0.2c0-0.1,0-0.2,0-0.3v-0.2L72.1,19c-0.6-0.4-1.3-0.7-2-1c-0.6-0.1-1.4-0.3-1.8,0.3l0,0.1l-0.1,1.2
		c-0.4,0.1-0.7,0-1,0c0.1-0.2,0.1-0.4,0.1-0.6l0-0.2l-0.1-0.1c0,0-1-0.8-2.5-1.2c-1.5-0.4-3.6-0.4-5.7,1.1l-0.2,0.1l0,0.2
		c0,0.1,0.1,0.3,0.1,0.4c-0.3,0-0.8,0-1.2-0.1c0-1.1-1-1.2-1.8-1.1c-0.9,0.1-1.9,0.6-2.3,1l-0.1,0.1l0,0.2c0,0.1,0.1,0.3,0.2,0.4
		l0,0.1c-0.3,0.1-0.6,0.1-0.9,0.2c-0.4,0.1-0.8,0.1-1.2,0.1l-0.2,0l0,0.2c-0.1,0.2-0.1,0.4-0.1,0.6c0,0.2,0,0.4,0,0.6
		c0,0.3,0,0.6,0,0.8c-0.1,0-0.2,0-0.3,0c-0.2,0-0.4,0.1-0.6,0.1L50.1,23l0.3,0.3c0,0,0.1,0.2,0.1,0.3c0,0.1,0.1,0.2,0.1,0.3
		c0,0.3,0,0.7-0.2,0.9c-0.4,0.7-1.2,0.9-1.4,0.9l-0.4,0.1l0.3,0.4c0.4,0.7,1.2,2.8,1.4,4.3c0.3,2,1.5,3.1,2.7,3.7c0,0,0,0,0,0.1
		h-0.7l0.3,0.6l0,0c-0.4-0.1-0.9-0.2-1.2-0.1c-0.6,0-1.1,0.6-1.3,1.6c-0.6,0.1-1.6-0.1-1.9-0.4c0-0.1,0-0.4,0-0.7
		c0-0.3,0-0.7-0.1-0.8v-0.1c-0.1-0.2-0.7-1.6-2.8-0.5c0,0-0.1,0-0.2,0.1l-0.4,0.2c-0.1,0-0.3,0.1-0.4,0.1c-0.1,0-0.1,0.1-0.1,0.1
		c0,0-0.1,0-0.1,0.1c-0.1,0-0.2,0.1-0.3,0.2c-0.1,0.1-0.2,0.1-0.3,0.2l-0.1,0.1c-0.7-0.5-1,0-1.9,0.6c-0.1-0.1,0.1-0.4,0.1-0.6
		c0.4-0.4,0.6-0.8,0.7-1.4c0-0.5-0.5-0.6-0.8-0.8c0.2-0.7,1.1-0.7,1.1-1.5c0.2-0.4-0.1-0.7-0.3-1c-0.3-0.3-0.6,0.1-0.9,0
		c0.1-0.4,0.1-0.7,0.1-1.1c-0.1-0.4-0.3-0.7-0.6-0.9c-0.6-0.6-1,0.3-1.6,0c-0.2-0.5-0.7-0.7-1.1-1c-0.3-0.1-0.8-0.2-1.1,0.1
		c-0.7,0.2-0.6,1.1-0.4,1.8c-0.2,0.2-0.5-0.1-0.8,0.1c-0.7,0.2-0.8,0.8-0.6,1.2c0.1,0.5,0.2,1,0.6,1.2L34.9,32l-0.7-0.4
		c-0.3-0.3-0.5-0.3-0.8-0.3c-0.7,0.4-0.8,0.8-0.8,1.5l-0.1,0.5c-1.2-0.4-1.5,0.6-1.4,0.9c-0.1,0.7,0.8,1.1,1.2,1.6
		c-0.4,0.3-1,0-1.5,0.3c-0.4,0.2-0.6,0.5-0.7,0.8c0.1,0.3,0.4,0.9,0.6,1.2c-0.1,0.2-1.2-0.5-1.2,0.9c0,0.6,0.1,1.2,0.7,1.6
		c0.3,0.1,0.7,0.1,0.5,0.4c-0.7,0.3-1.3,1.1-0.6,3c0,0.3-0.1,0.5-0.2,0.8c-0.3,0.3-0.7,0.7-1,1c-0.3,0.7,0.2,1.1,0.1,1.8
		c-0.4,0.4-0.8-0.1-1.3,0c-0.2,0-1.1,0.7-1,1.7c0,0.9,1,1.3,1.7,1.5c0.4,0.6-0.5,1.7,0.4,2.2c0.3,0.2,0.7,0.3,1.2,0.2
		c0.5,0,0.7-0.7,1.1-0.9c0,0.1,0.1,0.3-0.1,0.3c0,0.4,0,0.4,0,0.8c-0.4,0.9-0.3,2.5,0.1,3.3c-0.1,0.2,0,0.3-0.2,0.4
		c-0.2-0.6-0.7-1.2-1.3-1.4c-0.4,0-0.8,0.2-1.1,0.6c-0.3,0.5-0.5,1-0.5,1.7c-0.1,0.4-0.8,0.2-1,0.7c-0.3,0.3-0.3,1.2,0.1,1.7
		c0.3,0.4,0.8,0.3,1.1,0.6c-0.6,0.3-0.3,1-0.3,1.4c-0.4,0.4-0.6,1-0.5,1.7c0.1,0.3,0.6,0.4,0.6,0.8c-0.2,0.3-0.6,0.2-0.9,0.3
		c-0.3,0.1-0.3,0.1-0.3,0.5c0,0.5,0.2,1.1,0.7,1.3c1,0.1-0.1,1.3,0.8,1.7c0.4,0.5,1.3-0.1,1.3,0.7c-0.1,0.5,0,0.9,0.2,1.3
		c-0.3,0.7-0.3,1.7-0.1,2.5c-0.2,0.3-0.3,0.6-0.4,0.8c-0.2,0-0.3-0.1-0.4-0.3c-0.2-0.4-0.9-0.7-1.2-0.6c-0.6,0.1-1.5,0.3-0.8,2.1
		c-0.3,0.2-0.6,0.5-0.8,0.8c-0.3,0.8,0.7,1.2,1.2,1.6l0,0.2c-0.3,0.3-0.2,0.7-0.3,1c0.2,0.8,1,1.2,1.7,1.6c0,0.3-0.3,0.4-0.4,0.6
		c-0.2,0-0.4,0-0.6,0.1c-0.1,0.1-0.4,0.2-0.4,0.4c-0.5,0.6-0.1,1.2,0,1.7c-0.3,0.5-0.7,0.9-0.6,1.5c0.1,0.3,0.4,0.6,0.7,0.8
		c0.3,0.2,1-0.3,0.9,0.3c-0.4,0.1-2.2,0.6-1.1,1.9c0.2,0.4,1,0,0.9,0.6c-0.2,0.3-0.7,0.6-0.7,1.1c0.1,0.6,0.1,1.3,0.6,1.6
		c0.7,0.3,1.5,0.1,2.1-0.4c0.2-0.1,0.2-0.4,0.5-0.4c0.2,0.5,0.4,1.1,0.1,1.7c-0.7,0.1-1.8,0.2-1.8,1.2c0,0.6,0.4,1,0.8,1.2
		c-0.3,0.6-0.6,1.9-0.2,2.4c0.3,0.4,0.7,0.7,1.2,0.6c-0.4,0.4-0.3,1.4,0,1.6c0.4,0.3,1.1,0.1,1.5,0.1c0.1,0.5,0.4,0.8,0.6,1.2
		c0,0-1.2,0.5-1.6,0.9c-0.1,0.3-0.3,0.8-0.2,1.3c0.1,0.3,0.5,0.6,0.8,0.6c0.5,0.2,0.9,0,1.4,0c0.3,0.5-0.4,1.5,0.5,1.8
		c0.3,0.1,0.8,0,1-0.1c0.8-0.3,1-1.1,1.4-1.8c0.1-0.1,0.1,0,0.2,0c0.1,0.6,0.6,0.7,0.9,1.1c0.3,0.1,0.6,0.4,1,0.3
		c0.5,0.1-0.1,0.7-0.1,1.1c0.2,0.4,0.3,0.8,1,0.9c0.7,0.1,1.2-0.5,1.7-1c0.4,0.1,0.8,0.2,1.3,0.1c0.6-0.2,0.7-0.6,0.9-0.9
		c0.2,0.3,0.2,0.8,0.6,0.9c0.7,0.2,1.2-0.4,1.7-0.8c0.4-0.1,0.5,0.3,0.8,0.2c0.4,0.2,0.8-0.4,1.1-0.7c0.5,0,0.3,0.7,0.8,0.9
		c0.6,0.1,1-0.7,1.5-1.1c0.2,0,0.5,0.4,0.9,0.4c0.5-0.4,0.4-1.2,0.4-1.8c0.1,0,0.3,0,0.3,0.1c0.2,0,0.4-0.1,0.6-0.2
		c0.3-0.3,0.4-0.7,0.2-1c-0.1-0.3,0-0.8,0.3-0.8c0.7-0.5,1.5-0.4,2.2-0.8c0.2-0.1,0.4,0.1,0.4,0.4c0,0.7-0.9,0.3-1.2,0.6
		c-0.4,0-0.8,0.4-0.7,1c0.1,0.3,0.4,0.4,0.6,0.7c1.1,0.7-0.5,1.1-0.1,1.9c0.3,0.6,0.9,0.6,1.4,0.5c0.3-0.2,0.8-0.4,1.3-0.4
		c0.4,0.1,0.5,0.5,0.7,0.8c0.5,0.3,1-0.1,1.4-0.3l0.7,0.4c0.5,0.1,0.8-0.3,1.2-0.6c0.5-0.6,1.1,0.2,1.6,0c0.3-0.1,0.5-0.4,0.6-0.6
		c0-1.6,1.1-0.9,1.1-2.2c0.2-0.4-0.1-0.8-0.1-1.1l0.5-0.1c0.3-0.3,0.7-0.6,0.8-1c0.2,0.3,0.5,0.4,0.8,0.4c-0.1,0.6-0.1,1.1-0.1,1.8
		c0,0.6-0.1,1.5-0.1,1.4l1.6,0.1c0.1,0.2,0,1.1,0.3,1.6c0.1,0.3,1.1,0.1,1.7,0.2l0.1,0.6c0,0,1.1,0,1.5-0.1c0.4,0,0.7-0.1,1.1-0.3
		c0.6-0.2,1-0.5,1.7-1.2l0,0c0.2,0,0.4-0.1,0.6-0.2c0.1-0.1,0.2-0.2,0.3-0.3c0.1-0.1,0.2-0.2,0.3-0.3
		C74.4,103.3,74.7,103,74.9,102.6L74.9,102.6z M82,40.3L82,40.3l0.1,0.3c0.4,0.8,1,1.7,2.1,2.2c0.3,0.3,0.5,0.5,0.7,0.8
		c0.1,0.1,0.7,0.5,0.8,0.7c0,0-0.8,0.1-0.9,0.1c-0.1,0-1.1,0.1-1.1,0.1c-0.6,0.1-1.5,1.4-1.6,1.5v-3.3h-8.5l0-0.4
		c1,0.4,2.6,0,3.8-0.6c0.7-0.4,1.1-0.9,1.4-1.4c0.3-0.5,0.5-1,0.8-1.5c0,0,0,0,0.1,0c0.4,0.2,0.8,0.3,1.1,0.5
		c0.4,0.2,0.6,0.4,0.7,0.5l0,0C81.7,40,81.8,40.1,82,40.3L82,40.3z M52.4,42.8h-8.1v1.6c-0.9-1.3-2.2-0.1-2.2-0.1h-0.3l-0.2-0.2
		l-0.2-0.2L41,43.8c-0.1,0-0.2,0-0.3-0.1c-0.4,0.1-1,0.2-1.2,0.7c-0.3,0.4-0.1,0.8-0.2,1.4c-0.2,0-0.4-0.2-0.7-0.1
		c0-0.8,0.8-1.5,1.2-2.1c0.2-0.1,0.4-0.1,0.6-0.1l1.3-0.4l0.6-0.6c0-0.1-0.1-0.3-0.1-0.3c1.8-0.5,1.9-2.3,1.9-2.3
		c-0.1-0.2,1.7-1,2-1.2v0.1l0.8,1.8c0.3,1.2,1.4,1.7,2.2,1.8c1.1,0.2,2.2,0.3,3.2-0.2c0,0.3,0,0.5,0,0.5L52.4,42.8L52.4,42.8z
		 M44.3,71.1v9.3c0,0.3,0,0.7,0,1c-0.4-0.8-0.8-1.5-1.3-2.1c-1.2-1.4-2.7-2.3-4-3.4c0.7-0.2,1.4-0.2,1.9-0.8
		c0.6-0.6,0.4-0.7,0.3-1.1l-0.4-0.3l0.6,0.1c0,0,0.4,0,0.5,0c0.1,0,0.2,0,0.3,0c1.2,0,1.6-1,0.7-1.9c-0.1-0.2-0.1-0.3-0.1-0.3
		C43,71.8,44,71.2,44.3,71.1L44.3,71.1z M44.8,84.1L44.8,84.1c1,2.9,3.1,3.9,4.4,4.2c-0.1,0.1-0.3,0.1-0.3,0.2
		c-0.4,0.2-0.4,0.6-0.6,0.9c-0.3-0.1-0.6-0.2-0.8,0c-0.4,0.3-0.5,0.7-0.6,1.1c0,0-0.4-0.1-0.3-0.3c0.4-0.4,0.6-1,0.5-1.6
		c-0.2-0.3-0.6-0.6-0.9-0.6c0.1-0.3,0.3-0.7,0.2-1c-0.1-0.3-0.3-0.5-0.6-0.7c-0.6-0.2-1.2,0.1-1.7,0.3c0.1-0.7,0.4-1.1,0.6-1.7
		C44.7,84.7,44.8,84.4,44.8,84.1L44.8,84.1z M50.5,88.5h1c-0.2,0.1-0.4,0.2-0.5,0.4C50.8,88.8,50.6,88.6,50.5,88.5L50.5,88.5z
		 M63.3,90.7L63.3,90.7c-0.2,0-0.6-0.1-0.7-0.1c-1.4-0.1-3.1-0.4-5-0.8c-1.3-0.4-2.5-0.3-3-0.2c-0.3,0-0.4,0.1-0.6,0.2
		c-0.1-0.1-0.3-0.3-0.4-0.5L53.2,89c-0.1-0.2-0.3-0.3-0.6-0.5h6.9c1.3,0.1,2.3,0.7,3,1.2c0.4,0.3,0.7,0.6,0.8,0.7
		c0.1,0.1,0.1,0.1,0.2,0.2l0,0c0.3,0.2,0.4,0.1,0.5,0c0,0,0,0,0.1-0.1c0,0,0.1-0.1,0.2-0.2c0.1-0.2,0.4-0.5,0.8-0.7
		c0.7-0.6,1.7-1.1,3-1.1h9c-0.5,0.4-1,0.9-1.1,1.5c-1.2-0.2-2.5,0.4-3.4,1.2c0-0.2-0.1-0.4-0.2-0.6c-0.1-0.5-1.1-0.9-1.7-1
		c-0.3-0.1-2.8,0.2-3.4,0.3c-0.7,0.1-1.4,0.3-2.1,0.5c-0.4,0.1-0.7,0.1-1.1,0.2c0,0,0,0.1-0.1,0.1c-0.1,0.1-0.3,0.2-0.5,0l0,0
		C63.5,90.6,63.4,90.7,63.3,90.7L63.3,90.7z M80.4,87L80.4,87c0.4-0.5,0.8-1.1,1.1-1.9c0.1,0.3,0.3,0.5,0.4,0.8
		c0.2,0.4,0.4,0.7,0.7,1.1c-0.5,0-1.1,0-1.6,0C80.8,86.9,80.6,86.9,80.4,87L80.4,87z M82.2,79.8l0-8.7c0.3,0.5,0.7,1,1.1,1.4
		l2.1,3.7c-0.5,0.5-1.2,1.2-1.7,1.8C83.1,78.6,82.6,79.2,82.2,79.8L82.2,79.8z M75.2,24.8c0.4,0.6,1,1,1.4,1.1
		c-0.6,1.2-0.9,2.5-1.1,3.9c-0.4,2.5-1.8,3-2.7,3.3L75.2,24.8z"/>
	<polygon class="st3" points="65.5,22.9 65.5,33.4 65.2,33.6 65.2,22.9 	"/>
	<polygon class="st3" points="60.7,22.8 60.7,33.3 61,33.5 61,22.8 	"/>
	<path class="st3" d="M64.3,22.8V34l-1.1,0.5l-1.2-0.6c0,0,0-10.3,0-11.2H64.3z"/>
	<path class="st3" d="M54.4,34L54,33.9l-2.6-10.1c0.2,0,0.1,0,0.3,0L54.4,34z"/>
	<path class="st3" d="M54.8,22.9c1,3.6,2.8,10.8,2.8,10.8c-0.3,0.3-1,0.8-1,0.8l-1.3-0.4l-2.8-10.6c0.7-0.1,1.5-0.3,2.2-0.5
		L54.8,22.9z"/>
	<polygon class="st3" points="58.7,32.8 58.5,33 55.7,22.7 56,22.6 	"/>
	<polygon class="st3" points="71.4,22.8 68.3,33.6 67.8,33.1 67.4,32.7 67.7,31.9 67.9,31.1 68,30.1 68,29.4 69.9,22.4 70.5,22.5 
		70.8,22.6 	"/>
	<path class="st3" d="M75,24.4l-2.5,8.9l-1.3,0.6c0,0-0.6,0.3-0.6,0.3l3-10.8l0.6,0.2l0.6,0.3L75,24.4z"/>
	<polygon class="st4" points="73.3,23.4 70.2,34.2 69.4,34.6 68.6,33.8 71.7,22.9 	"/>
	<path class="st5" d="M69.1,20.8c0,0.2,0.1,0.2,0.4,0.4c0.3-0.1,0.2-0.3,0.4-0.5C69.8,20.6,69.2,20.5,69.1,20.8L69.1,20.8L69.1,20.8
		z M58.2,33.3l-0.3,0.2c0,0-2.4-9.1-2.8-10.6l0.3-0.1C55.9,24.5,58.1,32.8,58.2,33.3L58.2,33.3L58.2,33.3z M60.1,24.1
		c0.1-0.1,0.2-0.4,0.3-0.7c0,0.1,0,9.6,0,9.6c-0.1,0-0.2-0.1-0.3-0.1V24.1L60.1,24.1z M58.6,24.8c0,0,0.7,0.1,1.2-0.3v8.3
		c-1.2-1-1.2-3-1.1-5.4C58.7,26.3,58.8,25.5,58.6,24.8L58.6,24.8L58.6,24.8z M64.9,33.8L64.6,34l0-11.1h0.3V33.8L64.9,33.8z
		 M61.3,33.7l0.3,0.1l0.1-11l-0.3,0L61.3,33.7L61.3,33.7z M65.1,22.3c0.4,0,0.8,0.6,1.8,0.7c1,0,1.9-0.1,2.7-0.8L69.4,22
		C68.8,22.2,67.7,22.8,65.1,22.3L65.1,22.3L65.1,22.3z M71.5,20.5c0.6,0.3,1.4,0.4,2.2,0.6c0,0,0,0.2,0,0.4l-1.6-0.1
		c0.4,0.2,1.1,0.4,1.6,0.5c0,0.1,0,0.2,0,0.3l-1.5-0.1c0.4,0.2,1,0.3,1.5,0.4c0,0.2,0,0.4,0.1,0.5c-0.7-0.1-1.1-0.4-1.7-0.5
		c-0.7-0.2-1.2-0.1-1.3-0.8c0-0.2,0.3,0.1,0.3,0C71.4,21.2,71.4,20.8,71.5,20.5L71.5,20.5L71.5,20.5z M68.8,18.9
		c0.1-0.4,1.5-0.1,2.7,0.7c0,0.2-0.4,1.1-0.6,1.4c0,0-1.1-1.2-2.2-0.6c0-0.1,0-0.3,0-0.4c0.4-0.1,0.8,0,1.1-0.1
		c-0.5-0.1-0.9-0.2-1.1-0.3c0-0.1,0-0.2,0-0.2c0.4-0.1,0.8-0.1,1.2-0.1C69.4,19,69,19,68.8,18.9L68.8,18.9L68.8,18.9z M55.5,21.1
		c-0.1,0.2-0.2,0.6-0.3,0.7C55.2,21.6,54.8,21.4,55.5,21.1L55.5,21.1L55.5,21.1z M56.5,21c0,0.3-0.1,0.2-0.4,0.4
		c-0.3-0.2-0.2-0.3-0.4-0.5C55.9,20.8,56.5,20.8,56.5,21L56.5,21L56.5,21z M54.2,20.8L54.2,20.8c-0.6,0.3-1.4,0.3-2.2,0.4
		c0,0,0,0.2,0,0.5l1.6-0.1c-0.3,0.2-1.1,0.4-1.6,0.4c0,0.1,0,0.2,0,0.3l1.5-0.1c-0.3,0.2-1,0.4-1.5,0.4c0,0.2,0,0.4-0.1,0.6
		c0.7-0.1,1.1-0.3,1.7-0.4c0.7-0.2,1.3-0.2,1.3-0.9c0-0.2-0.3,0-0.3,0C54.4,21.5,54.3,21.1,54.2,20.8L54.2,20.8z M56.8,19L56.8,19
		c-0.3,0-1.4,0-2.6,0.8c0,0.2,0.4,1.2,0.6,1.4c0,0,1.1-1.2,2.1-0.6c0-0.1,0-0.3,0.1-0.5c-0.4,0-0.9,0.1-1.2,0c0.6-0.2,1-0.4,1.3-0.4
		c0-0.1,0-0.2,0-0.3c-0.5,0-1,0.1-1.5,0.1c0.6-0.3,1-0.4,1.3-0.5C56.8,19,56.8,19,56.8,19L56.8,19z M53,33.5
		c-0.8-0.4-1.9-1.3-2.3-3.4c-0.2-1.4-0.7-2.6-1.2-3.8c0.4-0.1,1-0.6,1.3-1.1L53,33.5L53,33.5z M53.7,33.7L53.7,33.7
		c-0.1-0.7-2.3-8.7-2.4-9.1c0,0.1-0.1,0.2-0.2,0.3l2.3,8.7C53.5,33.7,53.6,33.7,53.7,33.7L53.7,33.7z M66.2,33.1
		c-0.1,0.1-0.2,0.1-0.3,0.1c0,0,0-9.5,0-9.8c0,0.3,0.1,0.6,0.3,0.8V33.1L66.2,33.1z M67.7,25c-0.2,0.9-0.2,1.5-0.1,2.5
		c0,2.4,0.1,4.4-1.1,5.4v-8.3C67.1,25.1,67.7,25,67.7,25L67.7,25L67.7,25z M55,34.2l-2.8-10.6c-0.1,0-0.2,0-0.3,0
		c0,0,2.1,7.6,2.8,10.4L55,34.2L55,34.2z M58.3,29.1l-1.5-5.9c-0.1-0.1-0.3-0.3-0.5-0.5c0.6,2.3,1.5,5.5,2.1,7.9
		C58.3,30,58.3,29.5,58.3,29.1L58.3,29.1z M58.8,23.8L58.8,23.8c0,0-0.7,0.3-1.7-0.4l1.1,4.4c0-0.5,0-0.9,0-1.2
		c0.1-0.7,0-1.7-0.2-2.3c0.3,0,0.8,0,0.8,0L58.8,23.8L58.8,23.8z M60.7,22.2L60.7,22.2c-2.1,0.1-3.6-0.2-4.2-0.4L56.3,22
		c0.8,0.6,1.9,0.8,2.9,0.8C60.2,22.8,60.3,22.3,60.7,22.2L60.7,22.2z M68.4,20.4c0,0.4,0,0,0,0.4c0.1,0.2,0.9,0.8,1.1,0.8
		c-0.8,0.8-4.3,0.7-4.8,0.1c-0.1-0.1-0.1-0.3,0-0.3c0.4-0.1,0.6,0.4,1.1,0.3c0.1,0,0.6-0.8,0.7-1.3C67,20.6,68.2,20.5,68.4,20.4
		L68.4,20.4L68.4,20.4z M64.6,20.5c-0.1,0.4-0.3,0.7-0.2,1.3c-0.4-0.3-0.9-0.9-0.8-1.3c-0.4,0.1-0.8,0-1.2,0
		c-0.1,0.1,0.1,0.7-0.5,1.2l-0.4,0.2c0.3-0.3,0.2-0.6,0.2-0.7c-0.1-0.1-0.2-0.6-0.2-0.7C63.1,19.9,64.4,20.4,64.6,20.5L64.6,20.5
		L64.6,20.5z M59.4,20L59.4,20c-0.1,0.1-1.5,0.2-2,0c0,0.2-0.1,0.3-0.1,0.5c0,0.1,0,0.3-0.1,0.4c0,0.3-0.2,0.4-0.7,0.6
		c0.1,0,2.3,0.7,4.5,0.2c0.1-0.1,0.4,0,0.4-0.3c-0.2-0.2-1,0.6-1.5,0C59.9,21.4,59.6,20.5,59.4,20L59.4,20z M60.1,20.7L60.1,20.7
		c0.1,0,0.8-0.5,1.7-0.7c2.5-0.4,3.2,0.1,4.3,0.7c0,0,0.1-0.1,0.1-0.3c-0.4-0.4-1.1-0.7-1.4-1c0.7,0.2,1.2,0.4,1.5,0.6l0.1-0.3
		c-0.4-0.3-1-0.6-1.4-0.9c0.7,0.2,1.2,0.4,1.5,0.5l0.1-0.3c-1.1-0.6-2.5-1.1-3.6-1c0,0-2.6,0.1-3.5,1.1c0,0.1,0.1,0.2,0.1,0.3
		c0.3-0.1,0.8-0.3,1.5-0.5c-0.4,0.3-1,0.6-1.4,0.9l0.1,0.2c0.3-0.1,0.8-0.4,1.6-0.6c-0.4,0.3-1,0.6-1.5,1
		C60,20.5,60.1,20.6,60.1,20.7L60.1,20.7z M71.7,37.2c0,0-0.7,0.6-0.3,2.4c0,0-15.2,0-16.9,0c0.4-1.5,0-2.4,0-2.4H71.7L71.7,37.2z
		 M70.8,37.6L70.8,37.6c0,0-15.2,0-15.3,0l-0.3-0.1c0.1,0.6,0.1,1.1,0.1,1.7l15.6-0.1c-0.1-0.4-0.3-1,0-1.3l0.2-0.3H70.8L70.8,37.6z
		 M70.3,38.9c-0.1-0.3-0.1-0.7,0-1c-1.1,0-4.1,0-7.2,0c-3.2,0-6.4,0-7.4,0c0,0.1,0.1,0.3,0.1,0.4c0,0.1,0,0.4-0.1,0.6L70.3,38.9
		L70.3,38.9z M63.3,35.1c0.5,0,2.9-0.8,3.5-1.4c1,1,2.3,1.2,2.3,1.2c-0.6-0.4-1.9-1.8-2-1.9C66.8,33.5,63.3,35.1,63.3,35.1
		L63.3,35.1L63.3,35.1z M72.3,41.1l0.4,0.4l0.1,1H53.3v-1c0.2-0.1,0.3-0.2,0.4-0.4C53.7,41.1,71.7,41.1,72.3,41.1L72.3,41.1
		L72.3,41.1z M71.9,40.3l0.3,0.4l-18.5,0l0.3-0.4H71.9L71.9,40.3z M72.4,36.1c-0.1,0.2-0.5,0.4-0.5,0.4H54.1l-0.3-0.4L72.4,36.1
		L72.4,36.1z M72.8,35.2c0,0.2-0.1,0.6-0.1,0.6l-19.1,0l-0.3-0.6C53.3,35.2,72.8,35.2,72.8,35.2L72.8,35.2L72.8,35.2z M63,35.1
		c0,0-3.6-1.8-3.9-2.2c-0.3,0.1-1.8,1.8-2.3,2.2c0,0,1.5-0.3,2.5-1.3C60,34.3,62.5,35.1,63,35.1z"/>
	<path class="st6" d="M77,37.4c-0.2,0.8-0.8,1.9-0.2,2.6c0.3,0.1,0.6,0.1,0.8,0.4c0,0.9-1.9,1.2-2.9,1.2c-0.2,0-0.4,0-0.5,0
		c-0.1-0.1-0.4-0.2-0.4-0.3c0.1-0.2,1.1-0.9,1.1-1.2c0.3-0.9,0.6-2,0.8-2.9C75.7,37.2,76.4,37.6,77,37.4L77,37.4L77,37.4z M73,41.1
		c-0.1-0.1-0.4-0.3-0.3-0.4l1-0.4C73.7,40.4,73,40.8,73,41.1L73,41.1L73,41.1z M78.6,38.7L78.6,38.7c-0.6-0.2-1.4,0-1.5,0.5
		c0,0.5,0.7,0.3,0.9,0.6C78.2,39.5,78.5,39.2,78.6,38.7L78.6,38.7z M75.3,36.2L75.3,36.2c0,0,0-0.4-0.4-0.6C74.3,35.3,73,36,72.2,37
		c0,0.1-0.2,0.7-0.2,0.7v1.5l0.1,0.5c0,0,0.3,0.5,0.3,0.6c0.5-0.3,1.2-0.9,1.9-0.7l0-0.1c-0.4-0.3-1.1-0.6-1.5-0.6
		c0.3-0.1,0.5-0.1,0.8-0.1c0.4,0,0.6,0.2,0.7,0.4l0.1-0.4c-0.5-0.3-1.1-0.5-1.6-0.4l0.5-0.1c0.3,0,1,0,1.2,0.3l0.1-0.4
		c-0.5-0.3-1-0.4-1.5-0.4l0,0c0.4,0,1.1-0.1,1.5,0.2l0.1-0.4c-0.4-0.3-1-0.6-1.3-0.5c0.3-0.1,0.5-0.1,0.8-0.1c0.3,0,0.5,0.1,0.6,0.2
		l0.1-0.4c-0.3-0.3-1.1-0.5-1.3-0.5c0.2,0,0.7-0.1,0.9,0C75,36.1,75.2,36.1,75.3,36.2L75.3,36.2z M82.3,39.4
		c-0.3-0.2-0.8-0.6-1.2-0.7c-0.4-0.2-0.9-0.5-1.3-0.5l-0.3-0.1c-0.6-0.2-1.2-0.2-1.8-0.1c0-0.1,0.1-0.3,0.1-0.5
		c0.6,0.1,1.3-0.3,2.2,0c-0.6-0.4-1.2-0.4-1.8-0.4c0,0-0.2,0.1-0.3,0.2c0.1-0.2,0.1-0.4,0.2-0.6c0.6,0,1.2-0.3,2.1,0
		c-0.6-0.4-1.2-0.4-1.9-0.4c0,0-0.1,0-0.1,0.1l0.2-0.4c0.6-0.1,1.4-0.2,2,0c-0.4-0.3-0.8-0.3-1.3-0.4c-0.2,0-0.4,0-0.6,0.1
		c0-0.1,0.1-0.3,0.1-0.4c0.3,0.1,1.6,0,2,0.1c-0.3-0.1-0.6-0.4-0.9-0.4c-0.3,0-0.6,0-0.8,0.2c-0.1,0-0.1,0-0.2,0l0,0
		c0.1-0.3,0.3-0.4,0.4-0.4h0.1c0.8-0.3,2.6-0.6,4.3,0.8c0,0-0.1,0.1-0.1,0.2c-0.1,0.1-0.2,0.3-0.3,0.4c-0.7,1.1-0.8,2.1-0.8,2.8
		C82.3,39.1,82.3,39.3,82.3,39.4L82.3,39.4L82.3,39.4z M50.1,36.9c0.2,1.1,0.4,2.4,0.8,3.5c0.3,0.6,1.6,0.8,1.6,0.8
		c-0.3,0.2-0.6,0.3-0.9,0.4c-1.8,0.3-2.6-0.2-3.3-0.5c-0.2-0.2-0.6-0.4-0.6-0.7c0.1-0.4,0.9-0.2,0.8-0.7c-0.1-0.8-0.5-3.2-0.5-3.2
		C48.1,36.6,49.3,37.4,50.1,36.9L50.1,36.9L50.1,36.9z M47.7,38.7L47.7,38.7c-0.2-0.2-0.9-0.1-0.8-0.1c0.1,0.3,0.4,1,0.5,1.3
		c0.2-0.1,0.6-0.2,0.5-0.3L47.7,38.7L47.7,38.7z M53.2,36.1L53.2,36.1c-2.2-1.9-2.6,0.4-2.6,0.4l0,0.2c0.1-0.1,0.3-0.2,0.5-0.3
		c0.2-0.1,0.7,0,1,0c-0.2,0-1.1,0.3-1.4,0.6l0.1,0.4c0.1-0.1,0.3-0.3,0.7-0.3c0.3,0,0.6,0,0.8,0.1c-0.4-0.1-1,0.1-1.4,0.5l0.1,0.4
		c0.4-0.3,1.2-0.3,1.6-0.2l0,0c-0.6,0-1.1,0.2-1.6,0.5l0.1,0.3c0.3-0.1,0.8-0.1,1.1-0.1l0.5,0.1c-0.5-0.1-1,0-1.5,0.3l0.1,0.3
		c0.9-0.6,2.3,0.6,2.3,0.6l0.5-1.4C54,38.6,54.1,36.5,53.2,36.1L53.2,36.1z M43.6,39.1l0.9-1.2l-0.1-1.3l-0.3-0.4
		c-0.1,0-0.3,0-0.4-0.1c0.1-0.2-0.1-0.1-0.1-0.4c0-0.1-0.1-0.2-0.2-0.4c0.3-0.2,1.4-0.8,1.8-1c0.3-0.1,0.7-0.3,1-0.3
		c0.3,0,0.5,0.1,0.7,0.4l0,0.3c-0.2-0.2-0.6-0.2-0.8-0.2c-0.3,0-0.7,0.3-1,0.4c0.3-0.1,1.3,0,1.8-0.1l0.1,0.7
		c-0.1-0.1-0.3-0.1-0.6-0.1c-0.4,0.1-0.8,0.1-1.3,0.4c0.6-0.1,1.3-0.1,1.9,0l0,0.3v0.1c-0.6,0-1.2,0-1.7,0.4c0.7-0.2,1.3,0,1.8,0
		l0,0.4c-0.6,0-1.1,0-1.7,0.4c0.7-0.2,1.2,0,1.7,0v0.2c-0.3,0-0.7,0-1.2,0.3C45.8,37.9,44.2,38.7,43.6,39.1L43.6,39.1L43.6,39.1z
		 M52.2,39.9L52.2,39.9c-0.1-0.1-1.3-0.3-0.8,0.4c0.3,0.1,0.7,0.3,1,0.4L52.2,39.9L52.2,39.9z M84.2,85.3C84,85.8,84,86.4,83.9,87
		h-0.1c-0.1-0.1-0.1-0.1-0.2-0.3C83.7,86.2,84,85.8,84.2,85.3L84.2,85.3L84.2,85.3z M94.1,76c-0.4-0.1-0.8-0.1-1.2-0.1l1.6-1
		C94.4,75.3,94.2,75.7,94.1,76L94.1,76L94.1,76z M83.1,86.1c0.3-1,0.8-1.9,1.2-2.9c-0.6,0.8-1.1,1.5-1.5,2.5L83.1,86.1L83.1,86.1z
		 M94.5,74.3L94.5,74.3c0-0.2,0.1-0.4,0.1-0.6l-1.7,1.1c0.5-0.6,1.1-1.1,1.8-1.7c0-0.1,0-0.2,0-0.4L93,73.9c0.5-0.6,1.1-1.1,1.7-1.6
		v-0.4L92.9,73c0.5-0.6,1.2-1.2,1.8-1.7v-0.4c-1.9,1.5-4,2.8-6,4.1c-2.4,2-5.5,3.8-6.6,6.9V82c0.3-0.5,0.7-0.9,1.1-1.3
		c-0.5,0.5-0.8,1.4-1.1,2.2c0,0.3,0,0.6,0.1,0.8c0.2-0.9,0.7-1.8,1.4-2.4c-0.7,0.7-1,2.1-1.3,3.1c0,0.1,0.1,0.2,0.1,0.3
		c0.4-1,0.9-1.9,1.8-2.7c-0.7,1-1.1,2.2-1.5,3.3l-0.1-0.1c0.2,0.4,0.4,0.8,0.7,1.2c0.3-0.7,0.7-1.2,1.1-1.8c0-0.1,0.1-0.3,0.1-0.4
		c0.4-0.4,0.9-0.4,1.4-0.5l0.6-0.9c0.4-0.5,1-0.6,1.6-0.6c0.4,0.3,0.6,0.7,0.8,1c0.1,0.1,0.4,0,0.4-0.1c-0.5-0.9-0.7-1.9-0.9-2.9
		c0.4-1.3,0.6-2.7,1.8-3.6c0.7-0.6,1.7-0.7,2.6-0.6C93.4,75.3,94,74.8,94.5,74.3L94.5,74.3z M82.4,67.4c0-0.2,0-0.4,0-0.6
		c0.4-1,0.9-2.1,1.7-2.8c-0.6,0.4-1,0.9-1.4,1.5c1.1-3,5.1-4.5,7.3-6.9c1.2-1.2,2.8-2.5,2.9-4.3c0.2-0.3,0.8-0.5,1.1-0.7
		c0,0.3,0.1,0.6,0.1,1c-0.6,0.5-1.2,1-1.8,1.7l1.8-1.2v0.4c-0.6,0.5-1.2,1-1.7,1.6l1.8-1.1l0,0.3c-0.7,0.5-1.3,1.1-1.9,1.7l1.9-1.2
		c0,0.1,0,0.3,0,0.5c-0.7,0.5-1.4,1.1-1.9,1.8l1.9-1.2c0,0.1,0,0.3,0,0.4c-0.7,0.5-1.3,1.1-1.9,1.8l1.8-1.2c0,0.2,0,0.4,0,0.6
		c-0.6,0.5-1.3,1.1-1.8,1.7l1.8-1.1c0,0.1,0,0.3-0.1,0.4c-1.3,2.3-2.3,1.7-6.5,6.3c-1-0.3-2-0.9-3-0.3c0.1-0.1-0.1,0.1-0.1,0
		c-0.2,0.2-0.4,0.4-0.5,0.6c-0.4,0.4-0.8,1-1.3,1.2l0-0.1c0.4-0.9,1.2-1.8,1.6-2.6C83.3,65.9,82.8,66.5,82.4,67.4L82.4,67.4
		L82.4,67.4z M35.6,86.2c0.1,0.7,0.5,1.3,0.6,2l-1.5,0c-0.2-0.7,0.2-1.2,0.7-1.6C35.4,86.5,35.4,86.2,35.6,86.2L35.6,86.2L35.6,86.2
		z M44.1,84.8l-0.2,0.3c-0.6-0.6-1.1-1.4-1.7-1.9l1.5,2.4l0,0.1c-0.2-0.1-0.1-0.1-0.6-0.3c-0.4-0.6-0.9-1.1-1.4-1.5l1,1.5
		c-0.1,0-0.3,0-0.4,0.1c-0.3-0.4-0.7-0.7-1.1-1l0.8,1.2c-0.2,0-0.4,0.2-0.6,0.3c-0.7-2.1-2.8-3.8-4.6-4.9c-0.1-0.8,0.3-1.5-0.3-2.2
		c-0.5-0.3,0-0.8,0-1.3c0-0.5-0.3-1-0.7-1.3c-0.3-0.1-0.5,0.1-0.7,0.1c0.2-0.8-0.4-1.5-0.8-2.1c-0.6-0.4-1,0.4-1.5,0.6
		c-0.1-0.4-0.4-0.7-0.7-0.9c-0.3-0.1-0.7-0.1-1-0.1c-0.3-0.3-0.5-0.7-0.8-1c0-0.1,0-0.3-0.1-0.4c0.4,0.4,0.9,0.8,1.4,1.1l-1.4-1.7
		c0-0.1,0-0.3,0-0.4c0.4,0.5,1.1,1.2,1.6,1.4c-0.4-0.5-1.1-1.4-1.5-1.9c0-0.1,0.1-0.2,0.1-0.2c0.4,0.5,1.2,1.2,1.7,1.6
		c-0.4-0.5-0.9-1.2-1.3-1.7c0.2,0,0.4,0,0.6,0c0.4,0.4,0.9,1,1.4,1.2c-0.3-0.3-0.6-0.7-0.9-1.1c1,0.2,1.8,0.8,2.5,1.8
		c0.5,0.6,4.1,3.8,4.6,4c2.3,1.5,2.8,2,4.3,3.9c0.5,0.7,0.8,1.3,1.1,2.1c-0.4-0.4-0.8-0.9-1.3-1.3l1.4,2.6c0,0.1,0,0.2-0.1,0.3
		c-0.6-0.6-1.1-1.4-1.7-1.9L44.1,84.8L44.1,84.8z M30.9,73.8L30.9,73.8c-0.1-0.1-0.3-0.3-0.5-0.4c0.1,0.2,0.1,0.4,0.2,0.6
		C30.7,73.9,30.8,73.9,30.9,73.8L30.9,73.8z M41.4,66.7c-0.1,0.1-0.2,0.1-0.3,0.2c-0.4-0.3-0.7-0.4-1.2-0.8l0.5,0.7
		c-0.1-0.1-0.3-0.3-0.5-0.3l-0.6-0.1c-1.4-1.7-2.6-3.4-4.3-5c0-0.2-0.1-0.4-0.3-0.5c-0.1-0.1-0.7,0-0.5-0.4c0.2-0.4,0.4-1,0-1.4
		c-0.3-0.2-0.4-0.5-0.8-0.6c-0.3,0-0.4,0.3-0.7,0.3c0.1-0.6,0.2-1.1,0-1.7c-0.1-0.1-0.3-0.3-0.4-0.4c-0.4-0.4-0.7-1-1.2-1.3
		c0-0.2,0-0.4,0-0.5c0.4,0.6,1.1,1,1.7,1.5l-1.6-1.9c0-0.1,0-0.1,0-0.2c0.1,0.1,0.2,0.1,0.3,0.1c0.4,0.5,1.1,1.2,1.7,1.5
		c-0.4-0.4-0.8-1.1-1.2-1.6c0.1,0,0.2-0.1,0.3-0.2c0.4,0.5,1.1,1.1,1.5,1.4c-0.4-0.5-0.9-1.2-1.2-1.6c0.1-0.1,0.2-0.3,0.3-0.4
		c0.4,0.5,1.1,1.2,1.6,1.5c-0.5-0.5-1-1.2-1.4-1.7h0c0.1-0.1,0.2-0.3,0.3-0.3c0.2,0.3,0.4,0.5,0.7,0.7l0.7,0.1
		c-0.1,0.8,0,0.9,0.3,1.5c1.5,1.8,3.6,4.4,5.4,5.8c0,0,2.2,2.4,3.2,4.2c-0.5-0.6-1-1.2-1.5-1.6l1.8,2.8c0,0.1-0.1,0.2-0.2,0.3
		c-0.6-0.7-1.7-2.2-2.3-2.7l1,1.9c-0.1,0-0.2,0.1-0.3,0.1c-0.4-0.4-0.7-0.8-1.2-1.2l0.9,1.4c-0.1,0.1-0.2,0.1-0.3,0.3
		c-0.3-0.3-0.6-0.6-1.1-0.9L41.4,66.7L41.4,66.7z M32,56.4L32,56.4c-0.2-0.2-0.4-0.3-0.6-0.6c0,0.2,0.1,0.3,0.1,0.5
		C31.7,56.3,31.9,56.3,32,56.4L32,56.4z M36.7,92.8c0.1,0,0.3,0,0.5,0c0.4,0.6,1.1,1.2,1.7,1.7l-1.3-1.9c0.1-0.2-0.1-0.4,0.1-0.5
		c0.6,0.9,1.4,1.7,2.1,2.5c-0.3,0.4-0.5,1-0.3,1.6c0,0.4,0.8,0.5,0.4,0.9c-0.1,0.4-0.7,0.8-0.4,1.3c0.2,0.4,0.7,0.8,1.1,0.9
		c0.4,0.1,0.6-0.3,0.9-0.3c0.1-0.3,0.4-0.3,0.5-0.4c0.1,0.4,0.1,0.9,0.6,1.1c0.4,0,0.8,0,1.1-0.2c0.5-0.3,0.5-0.8,0.6-1.2
		c0.3,0,0.3,0.3,0.5,0.4c0.7,0,1.3-0.6,1.6-1.2c-0.1-0.7,0.6-0.3,0.9-0.6c0.9-1,0-2.2,1.4-3c0.8-0.3,1.4-0.5,2.2-0.5
		c0.1,0.9-0.1,3-0.1,3L50.4,98c-0.5,0.2-0.7,0-1.2,0.2c-1.5,0.7-4,2-7.5,1.7c-1.6-0.4-2.9-0.6-4-2.1c-0.7-0.6-1.2-1.1-1.4-1.9l0-0.1
		c0.3,0.4,0.6,0.5,1.1,0.9l-0.8-1.2c0.1-0.1,0.1-0.3,0.1-0.4c0.3,0.3,0.6,0.6,1.1,0.9l-1-1.5c0-0.3,0-0.6-0.1-0.9
		c0.4,0.6,1,1.1,1.5,1.5L36.7,92.8L36.7,92.8z M51.6,93.3c0.3-0.4,0.8-0.5,1.3-0.6l0,0.6c-0.5-0.1-1-0.1-1.4,0V93.3L51.6,93.3z
		 M52.9,94.3c-0.5-0.1-1-0.1-1.4,0c0-0.2,0-0.4,0-0.6c0.4,0,0.9-0.1,1.4-0.1v0.2C53,93.8,52.9,94,52.9,94.3L52.9,94.3L52.9,94.3z
		 M52.8,95.3c-0.5,0-1,0-1.5,0.1l0.1-0.6c0.5-0.1,1-0.2,1.5-0.3c0,0.1,0,0.2,0,0.3C52.8,94.9,52.8,95.1,52.8,95.3L52.8,95.3
		L52.8,95.3z M53,96.3c-0.6-0.1-1.2-0.1-1.7,0.1c0-0.2,0-0.4,0.1-0.6c0.5-0.1,1-0.2,1.6-0.2C52.9,95.7,52.9,96,53,96.3L53,96.3
		L53,96.3z M53.4,97.2c-0.7-0.1-1.6-0.2-2.2,0.1c0-0.1,0-0.3,0-0.5c0.6-0.3,1.2-0.3,1.9-0.3c0,0.2,0.1,0.4,0.2,0.6v0l0,0
		C53.3,97.2,53.3,97.1,53.4,97.2L53.4,97.2L53.4,97.2z M57.5,97.7l-2.1,0c-1.1-0.1-1.7-0.4-2-0.6c-0.8,0-1.6,0.4-2.4,0.6
		c0,0.1,0,0.2,0,0.3c1.8-0.7,3.8,0.3,5.6,0.1C57,98,57.4,98,57.5,97.7L57.5,97.7z M55.3,98.9c-1,0.7-2.2,1.4-3.6,1.1
		c-0.3-0.2-0.4-0.4-0.3-0.7c0.1-0.2,0.1-0.6,0.5-0.6C52.6,98.3,55,98.8,55.3,98.9L55.3,98.9L55.3,98.9z M57.8,96.4L57.7,97
		c-0.9-0.2-3.2,0.3-3.8-0.8c-0.2-0.3,0.2-0.4,0.3-0.5C55.1,95.7,56.5,95.8,57.8,96.4L57.8,96.4L57.8,96.4z M91.3,92.3
		c0,0.1,0,0.3,0,0.4c-0.7,0.6-1.5,1.2-2.1,1.6c0.6-0.3,1.5-0.6,2.2-1v0.3c-0.7,0.7-1.6,1.4-2.2,1.8c0.6-0.3,1.5-0.6,2.3-1.1
		c0,0.1,0,0.2,0,0.4c-0.7,0.6-1.6,1.2-2.3,1.7c0.6-0.3,1.5-0.5,2.2-1c0,0.1,0,0.3,0,0.4c-0.7,0.7-1.7,1.3-2.4,1.8
		c0.5-0.3,1.2-0.4,1.8-0.7L90,98c-2.6,2.5-7,1.4-10.3,1.1l-2.5-0.4c-0.4-1.5-0.8-3-1.1-4.7c1.9-1,3.6,0.4,5.4,0.5l3.3,3.2
		c1.2,0,2.2-0.6,2.9-1.6c0.1-0.2,0-0.5-0.1-0.6c-0.6-0.5-1.4-0.6-2.1-1c1.4-0.1,2.7-1,3.6-2.2h1.3c-0.3,0.3-0.7,0.6-1,0.8
		c0.3-0.3,1.3-0.6,1.6-0.8H91.3L91.3,92.3z M75.3,94.2L75.3,94.2c-0.6-0.1-1.4-0.2-2.1-0.1c0.6-0.1,1.2-0.3,1.8-0.3
		c-0.6-0.4-1.5-0.7-2.2-0.8c0,1.1,0.3,2.5,0.4,3.7c-0.6,1.5-1.7,0.8-2.7,1.7c-0.3,0.3,0.1,0.6,0,0.4c1.8,1.5,3.5-1,5.7-0.4l0-0.2
		c-0.8-0.2-1.8-0.5-2.6-0.4c0.8-0.1,1.8-0.3,2.6,0l-0.1-0.6c-0.7-0.3-1.6-0.2-2.4-0.4c0.7-0.1,1.6-0.3,2.3-0.1l-0.1-0.6
		C75,96.1,74.2,96,73.4,96c0.7-0.2,1.5-0.3,2.2-0.1l-0.1-0.6c-0.7-0.1-1.4-0.3-2.1-0.3c0.6-0.1,1.4-0.3,2-0.2L75.3,94.2L75.3,94.2z
		 M72,96c0.7,0.1,0.4,0.7,0.2,0.9c-0.7,0.1-1.4,0.6-2.1,0.8c-0.1-0.4,0-1.1-0.1-1.6C70.8,95.9,71.4,95.7,72,96L72,96L72,96z
		 M75.7,100L75.7,100c0.3-0.1,0.7-0.3,0.8-0.7l0.1-0.1L75.3,99c-0.1,0-0.2,0-0.3,0.1c-0.1,0-0.3,0-0.5,0.1c-0.3,0.1-0.6,0.2-0.7,0.4
		l0,0.1l0.1,0c0.1,0.1,0.3,0.2,0.4,0.3c0.1,0,0.3,0,0.4,0.1c0.2,0,0.4,0,0.5,0C75.4,100.1,75.6,100.1,75.7,100L75.7,100z M53.8,91.5
		L53.8,91.5c0.7-0.2,1.7,0,2.3,0.1c-0.8-0.1-1.6,0.2-2.3,0.3c0,0.2,0,0.4,0,0.6c0.8-0.1,1.7-0.1,2.4,0.1c-0.8,0-1.7,0.1-2.4,0.3
		l0,0.6c0.7-0.1,1.6,0,2.2,0.1c-0.7,0.1-1.5,0.1-2.2,0.3l0,0.5c0.7-0.1,1.6,0,2.3,0.1c-0.7,0-1.5,0.1-2.3,0.4l1.1-0.1
		c2.9,0.7,4.5,1.4,7.5,1.7c4.2,0.4,6.6-1.5,9.7-1.2v-0.1c-0.8-0.2-1.7-0.4-2.6-0.4c0.8-0.1,1.8-0.3,2.6,0l0-0.6
		c-0.8-0.3-1.7-0.2-2.5-0.4c0.7-0.2,1.7-0.3,2.4,0L72,93.2c-0.8-0.2-1.7-0.3-2.5-0.3c0.8-0.2,1.7-0.3,2.5-0.1l0-0.6
		c-0.8-0.1-1.5-0.4-2.3-0.3c0.7-0.1,1.7-0.3,2.3-0.2c0-0.2-0.1-0.4-0.2-0.6c-0.7-0.1-1.5-0.3-2.3-0.2c0.6-0.1,1.3-0.3,1.9-0.2
		c-0.2-0.2-0.6-0.3-0.8-0.3c-2.8,0-4.8,1.3-7.7,1c-1.9-0.1-3.9-0.5-5.7-1c-0.8,0-1.9-0.3-2.7,0.1c0.6-0.1,1.4,0.1,2,0.2
		c-0.8-0.1-1.8,0.1-2.5,0.2C53.8,91.1,53.8,91.3,53.8,91.5L53.8,91.5z M66.7,93.4l0.1-0.1L66.7,93.4L66.7,93.4z"/>
	<path class="st3" d="M52.1,88.2V43.1h-7.6l0,37.3c0,3.9,1.5,5.9,3,6.9c0.7,0.5,1.5,0.7,2,0.8c0.6,0.1,0.9,0.1,0.9,0.1H52.1
		L52.1,88.2z M63.6,90.2l0.3,0.3l0.3-0.4c0.2-0.2,0.4-0.5,0.8-0.8c0.7-0.6,1.8-1.2,3.2-1.2h9.1c0,0,0.3,0,0.7-0.1
		c0.4-0.1,1-0.3,1.5-0.8c1.1-0.9,2.2-2.8,2.2-6.8V43H59.2v45.1h0.3c1.4,0.1,2.5,0.8,3.2,1.3C63.1,89.8,63.4,90.1,63.6,90.2z"/>
	<rect x="53.1" y="43" class="st4" width="5.1" height="45.1"/>
	<rect x="58.4" y="43" class="st7" width="0.6" height="45.1"/>
	<rect x="52.3" y="43" class="st7" width="0.6" height="45.1"/>
	<path class="st2" d="M72.4,81c0,0.3-0.8,1-0.7,0.4c-0.1-0.1-0.2-0.2-0.4-0.4c0.3-0.1,0.6-0.3,1-0.3C72.3,80.7,72.4,80.9,72.4,81
		L72.4,81L72.4,81z M74.6,55.3c0,0,0.2,0,0.3,0c0.3,0.2,0.3,0.5,0.2,0.7c-0.1,0.2-0.4,0.2-0.7,0c-0.1-0.1-0.2-0.3-0.3-0.4
		c0-0.2,0-0.2-0.1-0.3C74,55.5,74.3,55.3,74.6,55.3L74.6,55.3L74.6,55.3z M71.6,68.3c0.4,0.8,1,1.9,0.4,2.9
		c-0.1,0.2-0.6,0.4-0.8,0.2c-0.5-0.2-0.3-1.1-0.8-2.3c0,0-0.3-0.7-0.7-1.5c-0.4-1.4-0.8-2.9-1-4.3c0.5,0.1,0.9-0.3,1.3-0.7
		c-0.4-0.3-0.5-0.7-0.8-1.1c0.4-0.1,0.9-0.2,1-0.7C69.8,63.6,70.5,66.1,71.6,68.3L71.6,68.3L71.6,68.3z M63.5,45.5L63.5,45.5
		c-0.1-0.8-0.1-1-0.9-1.2c-0.7-0.2-1.3-0.1-2.3,0.4c0,0-1.4,1.2-2,1.9c0.2,0.3,0.7,0.7,0.9,1c-1.1,1-1.9,1.9-3,2.9
		c-0.2-0.1-0.6-0.4-0.9-0.3c-0.5,0.2-0.5,0.4-0.6,0.7l-0.2-0.1c-0.4,0.1-1,0.7-1,1.1c-0.6-0.1-1.1,1.4-1,2.2c-0.9,1-1.8,1.8-2.7,2.7
		l1.1,1.4l2.5-2.4c0.2,0.1,0.2,0.1,0.5,0.1l0.5,0.6c0.1,0.2,0.4,0.2,0.6,0.2c0.9,1.9,2.2,3.6,3.3,5.4c-0.2,0.6-0.4,1.2-0.3,1.9
		c-1,0.9-1.9,2.1-3,2.9c-0.3-0.2-0.6-0.4-0.8-0.7c0.1-0.3,0.3-0.5,0.1-0.8c0.5-0.2,3-1.8,2-4.5c-0.5-1.3-1.9-1.9-2.8-2.1
		c-0.9-0.2-2.8,0-3.9,1.1l0.8,1.2c0.8-0.8,2.3-0.7,2.3-0.7c1,0.1,1.5,0.3,1.5,1.4c0.1,1.1-1.8,1.7-2.8,2.1l0.4,1.3
		c0,0-0.7,0.3-0.7,0.6c0,0,0,0.9,0.1,1.3c-0.4,0.6,0.2,1.5,0.2,1.5S51,68.9,51,69.1l0.3,1.1l0.3,0.3c0.3,0.4,0.4-0.1,0.7-0.3
		c0.6,1.1,1.2,0.4,1.4,0.1c0.4,0.3,0.2,0.7,1,0.5c1-0.3,1.8-0.7,2.7-1.1l3.8-2.3c0.5-0.3,2.9,1.4,2.9,1.4c0.1,0.1,0.3,1.3,0.3,1.3
		s-4.4,0.4-6.5,2.2c-0.6,0.1-1.1,0.2-1.5,0.7c-0.3,0.3-0.3,1-0.3,1.4c-0.4,1.7-0.3,3.5-0.4,5.3c-0.4,0.3-0.7,0.4-1.1,0.6l-0.3-0.6
		c-0.3-0.5-1.1-0.6-1.7-0.4c-0.3,0.2-0.6,0.7-1,0.6c-0.6,0.1-0.6,0.8-0.8,1.2c0,0,0,0.2,0.2,0.3c0.7,0.2-0.1,0.8-0.1,1.2
		c0.1,0.3,0.2,0.7,0.6,0.9c0,0.4,0,0.8,0.2,1.2c0.4,0.3,0.8,0,1.1-0.1l0.3,0.3c0.3,0.3,0.5-0.2,0.8,0.1c0.3,0.4,0.8,0.2,1.2,0.1
		c0.5-0.1,0.7-0.8,1.2-0.9c0.6-0.1,1-0.9,1.3-1.4c0.6,0,1-0.1,1.5-0.6c0.1-0.8,0-1.1-0.1-1.6c0.5-1,1.2-2,1.4-3.2
		c1.4,0,2.8-0.2,4.1-0.4c0.2,1.2,0.6,2.7,1.3,3.6c0,0.4,0.2,0.6,0.3,1c0.3,0.4,0.7,0.5,1.2,0.5c0.3,0,1.2-0.5,1.5-0.6
		c-0.2,0.3-0.7,0.8-0.7,1.1c0.1,0.3,0.1,0.8,0.6,1l0,0.7c0.1,0.2,0.3,0.3,0.6,0.3v0.6c0.1,0.3,0.3,0.4,0.5,0.6
		c0.3,0.3,0.5-0.3,0.8-0.2c0.6,0.5,1-0.2,1.4-0.4c0.4-0.2,0.8,0.4,1.2,0c0.6-0.4,1-1.2,1.6-1.6c0.4,0,0.8-0.2,1.1-0.6
		c0.4-0.4,0-1.1-0.1-1.5c-0.3-1-0.1-2.2-0.6-3.1c0,0,0.1-0.4,0.1-0.7c-0.1-0.3-0.3-0.5-0.6-0.8c-0.3-0.3-0.7-0.2-1.1-0.1
		c-1.1,0.7-2.2,1.2-3.6,1.1c0.2-1,0.5-2.2,0.7-3.2c1.5,0.7,2.6,0,3.4-1.1c0.9-1.3,0.5-3.7-0.1-5.1c-1.2-2.9-2.8-5.7-1.8-9.1
		c0.2-0.8,0.4-1.3,0.7-1.8c0.8,0.8,2.6,0.6,3.2,0.2c0.6-0.4,0.9-1.2,0.9-1.9c-0.1-2.4-2.7-2.1-3.3-1.7c-1.5-1.3-3,0.3-2.6,1.6
		c0,0,0.8-0.5,0.8,0.2c-1,1.4-1.5,2.9-1.7,4.6c-0.2-0.1-0.3-0.4-0.4-0.6c-0.2-0.7,0.1-1.3-0.1-1.9c0.4-0.2,0.7-0.6,0.8-1
		c-0.1-0.1-0.4-0.1-0.5-0.3c0.3-0.7,0.4-1.5,0.4-2.2l0.4,0.2c0.1-0.7,0.4-1.8,0-2.3c0,0,0.7-0.4,0.7-0.8c0,0-0.4-0.1-0.6-0.2
		c0.2-0.2,0.4-0.4,0.4-0.6l-0.7-0.2c-0.4-0.2-0.6-0.7-1.1-1c-0.7-0.5-1.9-0.4-2.6-0.3c-0.9-0.3-2-0.4-2.8-0.1c-0.1,0-0.4,0-0.6,0.1
		c0,0-1.7,0-2.2,0.2l1.4-1.6C62.8,47.8,63.6,47,63.5,45.5L63.5,45.5z M61,49.5c-0.3,0.1-0.6,0-0.9,0.3c-0.3,0.3-0.3,0.5,0,1.3
		c0,0.1,0.1,0.2,0.1,0.3c0,0.1-0.1,0.6,0.3,1.2c0,0-0.1,0.3-0.1,0.6c0,0,0,1.5,0.4,1.2c0.5-0.2,2.1-0.3,2.1-0.3l0.3,0
		c-0.1,0.8-0.3,1.5-1.1,1.8c-0.1,0-1.2,0.6-1.4,0.6C59.6,56,57.8,54,57.8,54s-0.3-1.4-0.6-2c1-1,2.1-2,3.2-3L61,49.5z"/>
	<path class="st5" d="M73,78.5c-1.1,0.6-2.4,0.8-3.6,0.6c-0.1,0-0.1-0.1,0-0.2c1.4,0.3,2.8,0,4-0.8C73.5,77.9,73.3,78.4,73,78.5
		L73,78.5L73,78.5z M69.4,52.3c0.3,0.2,0.7-0.2,0.9,0.5c0.1,0.2,0,0.9,0,1.1c-0.3-0.7-0.3-0.8-1.3-1c-0.2-0.1-0.2-0.2-0.2-0.4
		c0,0,0.3-0.4,0.3-0.5C69.2,52.1,69.3,52.1,69.4,52.3L69.4,52.3L69.4,52.3z M66.9,62.1c0-0.1-0.6-1.2-0.7-1.5
		c-0.2-0.4-0.6-0.9-0.6-1.9c0-0.7,0.1-2.9,0.1-2.9l-0.4,1.5c-0.2,0.9-0.3,1.5-0.2,1.8c-0.1,0.8,0.4,2.1,0.4,2.1
		C65.9,61.7,66.6,62,66.9,62.1L66.9,62.1L66.9,62.1z M67.5,57.5l0.3,1.6c0.2,0.7,0.5,1.1,1,1.3c0,0-0.3-0.5-0.3-0.8
		c0,0,0-0.7-0.1-1.2C68.2,57.9,67.5,57.5,67.5,57.5L67.5,57.5L67.5,57.5z M67.1,52.7L67.1,52.7c-0.2,0-0.3-0.1-0.4-0.1
		c0.3,1.2,0.3,2.3,0.1,3.3c-0.1,0.5-0.1,0.9-0.1,1.4c0,0.5,0.4,2.1,0.8,2.8c0.1,0.1-0.6-0.5-0.9-1c-0.2-0.4-0.4-1.2-0.4-1.2
		c-0.3-1.7,0.2-3.2,0.4-5.3c-0.1-0.1-0.2-0.1-0.3-0.2c-0.2,0.1-0.4,0.2-0.6,0.3l-0.1,0.5c0,0.1,0,0.3-0.1,0.5
		c0.1-0.1,0.2-0.3,0.4-0.4c-0.7,1.3-1,2.7-1.4,3.9c-0.3,1.1-0.5,2.2-0.3,3.2l0.4,0.9l0.9,1.5l-0.5-0.4c0,0-0.6-0.7-0.7-0.8
		c-0.1-0.1-0.8-1-0.8-1.7c0,0-0.3-0.9,0.2-2.2c0.3-0.8,0.9-2.5,1.7-3.7c0-0.3,0-0.6,0-1.2c-0.1,0-0.3,0-0.4,0c0,0,0,0.1,0,0.1
		c0.1,0.2,0,0.5-0.1,0.8c-0.1,0.4-0.6,1.2-0.9,1.7c0.3-0.7,0.4-1.2,0.5-1.7c-0.3,0.3-0.6,0.5-0.8,0.6c-0.1,0.7-0.1,1.2-0.6,1.8
		c-0.9,1.2-1.8,0.8-2.6,1.8c-0.8,0.7-0.4,1.9-1.4,2.5l0.2,0.3c0.3,0.2,0.8,0.2,1.1,0l0,0c-0.3,0.4-0.6,0.8-1,1.2
		c0.6-0.1,1.2-0.6,1.5-1.2c0.2-1,0.6-1.9,1.2-2.7l0,0c-0.4,0.7-0.5,1.6-0.6,2.4c-0.1,0.6-0.7,1.1-1.1,1.4c0.4-0.1,0.8-0.2,1.2-0.4
		c0.4-0.2,0.7-0.6,0.7-1.1c-0.2-1.3,0.4-2.3,0.9-3.4c-0.1,0.4-0.3,2-0.3,2.5c0.4,2.2,1.1,3.9,3.8,4.4c0,0-0.8-1-0.9-1.5
		c0.6,0.5,1.4,0.8,2.1,0.8c-0.1-0.1-0.7-0.9-0.8-1.8l-0.3-0.7c0.1,0.1,0.2,0.2,0.2,0.2c0.5,0.5,0.6,1.2,1.1,1.7
		c0.3,0.3,0.7,0.5,1,0.2c-0.7-0.5-1.5-2.6-1.5-2.6s0.5,1,1.1,1.1c0.3,0,0.6,0,0.8-0.3c-0.2-0.2-0.3-0.4-0.4-0.7
		c-0.2-0.6,0-1.2-0.1-1.9c0-0.3-0.3-0.5-0.5-0.6c0.4,0,0.9,0.1,1.1-0.4c-0.4-0.1-0.7-0.4-0.8-0.8c0-0.2-0.1-0.4,0-0.5
		c0.1,0.1,0.3,0.6,0.6,0.7l0.2-0.7c0.2-0.7,0.4-1.9-0.3-2.4c-0.3-0.2-0.9-0.2-1.1-0.8c-0.1,0.1-0.3,0.1-0.5,0.1l0.3,0.7
		c0.4,0.5,1.3,0.5,1.3,1.4c0,0.3-0.1,0.6-0.3,0.8v-0.1l0,0.1c0-0.4-0.1-1-0.5-1.2c-0.3-0.1-0.5-0.1-0.7-0.5
		c-0.1-0.2-0.1-0.4-0.1-0.6c0-0.2-0.1-0.4-0.2-0.7c0,0-0.1,0-0.2,0c0,0.7,0.2,2.6,0.6,3.2c0,0.1,0.7,1.2,0.7,1.2s-1.1-0.5-1.3-1
		c-0.3-1.1-0.2-2.2-0.1-3.4C67.2,52.7,67.1,52.7,67.1,52.7L67.1,52.7z M65.4,64.1c-0.3,0-0.8-0.1-0.7-0.3c-0.1,0.3-0.2,0.8-0.7,1
		c0.2-0.6,0-0.8-0.2-1.2c0,0.5-0.4,1.6-0.8,1.8l0.2-1c0.1-1.5-0.1-1.7-0.1-3.2C63.3,63,65.1,63.8,65.4,64.1L65.4,64.1L65.4,64.1z
		 M65.9,50.6L65.9,50.6c-0.4,0.1-0.6-0.4-0.9-0.4c-0.2,0.1,0,0.2,0,0.3c0.1,0.1,0.2,0.1,0.3,0.3c-0.3,0-0.5,0.1-0.9,0
		c-0.3-0.4-0.3-0.4-0.3-0.4c-0.2,0.1-0.3,0.2-0.6,0.2c0.4-0.4,1-0.8,1.7-0.6C65.5,50,65.7,50.4,65.9,50.6L65.9,50.6L65.9,50.6z
		 M66.8,49.8L66.8,49.8c-0.6-0.3-1.2-0.4-1.8-0.4c-1.4,0.6-3.2,0-4.5,0.7c0,0.1,0.1,0.3,0.1,0.4c0.2,0.2,0.6-0.1,0.9-0.2l0,0.3
		c0.4,0,0.8,0,1.2,0.1c0.2,0.1,0.5,0.1,0.6,0.3c-0.8,0-1.9-0.2-2.7,0.3c-0.1,0.3,0,0.5,0,0.8c0.8-0.1,1.7-0.4,2.6-0.2
		c0.3,0.1,0.5,0.4,0.4,0.8c-0.6,0.7-1.8,0.3-2.6,0.5c-0.3,0-0.5,0.4-0.4,0.7c1.1-0.6,2.4,0.1,3.3-0.7c0.3-0.3,0.4-0.8,0.4-1.2h1.1
		c0.7-0.1,1.4-0.9,1.7-1.6c0.2,0.1,0.5,0.1,0.7,0.3c0.2,0.2,0.3,0.5,0.2,0.8c-0.1,0.2-0.4,0.4-0.7,0.3c0.3-0.1,0.3-0.3,0.4-0.6
		c-0.1-0.2-0.3-0.4-0.5-0.3c-0.1,0.4-0.5,0.7-0.7,1l0.3,0.1c0.6,0.1,1.2,0.2,1.7-0.2c0.2-0.3,0.3-0.6,0.2-1c-0.1-0.6-0.6-1-1.1-1.1
		c0.3-0.1,0.6,0,0.8,0.1c0.5,0.3,0.8,0.8,0.9,1.4c0.1,0.2,0.3,0.6,0.7,0.5c0.2,0,0.3-0.1,0.6-0.3c-0.2-0.1-0.4-0.1-0.6-0.3
		c0.1-0.1,0.3-0.2,0.5-0.4c-0.3-0.1-0.5-0.2-0.7-0.4C69.3,49.4,67.9,49.8,66.8,49.8L66.8,49.8z M63.2,52.7c-0.6,0.4-1.3-0.3-1.9,0
		c-0.1,0.1-0.3,0.2-0.4,0.3c-0.2-0.4,0.2-0.6,0.4-0.6C62,52.2,62.6,52.7,63.2,52.7L63.2,52.7L63.2,52.7z M55.7,62.4
		c-0.1,1.1-1.1,2.2-2,2.5l-0.5-0.3l-1,0.4l-0.2-0.7c0.4-0.1,2.3-1,2.5-2.1c0.2-1.7-0.7-2.3-1.9-2.4c-0.5,0-1.1,0-2.3,0.5L50.2,60
		c1.2-0.7,2.5-0.9,3.7-0.5C55.1,59.9,55.9,61,55.7,62.4L55.7,62.4L55.7,62.4z M53.5,67c0,0.2,0,0.4-0.1,0.6c-0.2,0-0.6-0.3-1-0.1
		c0,0-0.6,0.3-0.8,0.7c-0.1,0-0.1-0.1-0.1-0.2c0-0.3,0.1-0.6,0.4-0.8c0,0,0,0,0,0c0,0,0.8-0.6,1.2-0.5C53.4,66.9,53.5,66.9,53.5,67
		L53.5,67L53.5,67z M51.5,66.7c0.2-0.2,0.4-0.3,0.8-0.4c0.4-0.2,0.8-0.2,1.2-0.1c0.1-0.2,0.1-0.3,0.1-0.4c-0.2-0.3-0.4-0.4-0.6-0.4
		c-0.4,0.1-0.8,0.3-1.3,0.6C51.5,66.1,51.5,66.4,51.5,66.7L51.5,66.7L51.5,66.7z M72.9,54.3c0.1,0.1,0.2,0.2,0.2,0.4
		c0.3,0.7,0.5,1.9,1.3,2.1c0.6,0.2,1.1-0.2,1.2-0.6c0.3-0.9-0.6-1.4-0.8-1.4c-0.3,0-0.5,0-1,0.1c0-0.1-0.1-0.3-0.2-0.4
		c0.5-0.1,1-0.2,1.4-0.2c0.3,0,1.8,0.9,0.8,2.5c-0.4,0.7-1.6,0.7-1.9,0.6c-1.1-0.2-1.5-1.1-1.8-2C72,54.6,71.3,55,71.3,55
		C71.6,54,72.7,54,72.9,54.3L72.9,54.3L72.9,54.3z M72.2,56.9L72,56.5l-0.3,0.4c-1.8,3.3-1.2,8.1,0.5,11.2c0.4,1,0.9,2.2,0.4,3.3
		c-0.3,0.7-0.8,1-1.5,0.9c-0.3-0.1-0.6-0.3-0.8-0.7c0-1.7-0.7-3-1.2-3.4c-0.5-1.6-0.8-2.9-1-4.6c-0.2,0-0.5,0-0.7-0.1l0.5,0.5
		c-0.4,0.2-1.4,0.4-2-0.1l0.4,0.7c-0.8,0.4-1,0.5-1.4,0.2c-0.5,0.8-1,1-1.2,0.5c-0.1,0.4-0.7,1-1.1,1c-0.1,0.6,0,0-0.3,0.5
		c0,0.1,0.1,0.2,0.4,0.4c1.1,0.2,2.7-1.5,2.7-1.5l0.2,0c0,0-1.4,1.4-2.3,1.9c0.7,0.4,1.8-0.7,2.7-1.6c0,0,0.1,0,0.2,0
		c-0.6,0.6-1.5,1.5-2.1,2c0,0,1,0.2,1.9-1h0.1c-0.3,0.4-1.3,1.4-1.3,1.4s0.5,1.5,0.4,1.7c0,0.4,0,0.4-0.1,1
		c-0.2,2.7-0.3,7.3,1.5,9.3c0,0.2,0,0.2,0,0.3c0,0,0,0.1,0,0.3c0.3,0.9,1.3,0.5,1.5,0c0.2,0,2.9-0.4,4-0.8c0.5-0.1,0.9-0.6,1.4-0.6
		c0.3,0.3,0.3,0.6,0.3,0.6c0,0.1,0.3,0.6-0.3,0.5c0,0-0.1-0.3-0.3-0.5c-0.1-0.1-0.4,0-0.5,0.1c0.3,0.4,0.2,0.9,0,1.2
		c-0.2,0.4-0.4,0.5-0.8,0.7c0.1,0.1,0.1,0.3,0.1,0.4c0.1,0.3,0.4-0.1,0.6-0.1l0.3,0.3c-0.3,0.2-0.6,0.4-0.9,0.6
		c-0.1-0.1-0.1-0.3-0.3-0.4c-0.1-0.1-0.3-0.1-0.5-0.1c-0.3,0.1-0.5,0.4-0.6,0.6c-0.3-0.1-0.6,0.1-0.8,0.4c-0.1,0.3-0.1,0.7,0.1,1
		l0.3-0.4c0.1,0,0.1,0.2,0.3,0.2c0.3,0.1,0.7,0,0.9-0.2l-0.1-0.1c0.4-0.6,0.9,0,1.3,0c0.8,0,0.9-1,1.5-1.5c0.3-0.2,0.7-0.1,1-0.2
		c0.3-0.2,0.3-0.4,0.2-0.7c-0.3-0.5-0.4-0.7-0.4-1.1c0-1-0.2-1.9-0.6-2.7l0.1-0.1c0.1-0.2,0-0.4-0.1-0.6c-0.2-0.1-0.5-0.2-0.7,0
		c-1,0.6-1.4,0.7-2.5,0.9c-0.5,0.1-1.6,0.4-1.9-0.1c0.2-1,1-3.9,1.1-4.4c0.3,0.3,0.8,0.4,1.3,0.4c0.8,0,1.8-0.6,2.1-1.4
		c1.2-3.2-1.4-5.5-2-8.3C70.8,61.8,71,59.1,72.2,56.9L72.2,56.9z M67.7,69.6l0.1,0.1c-1.2,1-1.3,2.9-1.5,4.3
		c-0.2,1.8,0.1,5.2,1.4,5.4c0.4,0,0.6-0.1,0.7-0.3c0.1,0.1-0.4,0.8-0.7,0.9c-0.4,0-1-0.4-1.2-0.8c-1.1-2.4-0.6-5.9,0.1-8
		c0-0.1,0,0,0-0.1L66.4,70l0.1,0l0.4,0.8C67.2,70.2,67.5,69.9,67.7,69.6L67.7,69.6L67.7,69.6z M71.4,82.5c-0.3,0-0.6,0.1-0.7,0.3
		c-0.1,0-0.1-0.3-0.2-0.1l-0.3,0.2c0,0,0.1,0.1,0.1,0.2c-0.4,0-0.7,0.4-0.9,0.8c-0.1,0-0.2,0-0.2-0.1c0-0.4,0.2-0.7,0.3-1
		c0.3-0.2,0.7,0,0.9-0.5c0.2-0.1,0.4-0.1,0.7-0.1L71.4,82.5L71.4,82.5z M70.9,81.5c-0.3,0.2-0.7,0-0.8,0.4c0,0-0.1-0.1-0.1-0.1
		L69.6,82l0.1,0.1c-0.3,0-0.5,0.2-0.7,0.5c0,0.1,0,0.2-0.1,0.2c-0.2,0-0.1-0.2-0.2-0.3c0.2-0.5,1.1-1.4,1.6-1.4
		C70.5,81.1,70.7,81.3,70.9,81.5L70.9,81.5L70.9,81.5z M53.8,80.3l0.2,0.3c-0.3-0.1-0.8-0.1-1.1,0.1l-0.2-0.3
		c-0.1,0.1-0.3,0.1-0.4,0.3c0.1,0.1,0.2,0.3,0,0.4c-0.2,0.1-0.4-0.1-0.6,0c-0.1,0-0.1,0-0.2-0.1c0-0.2,0.1-0.3,0.2-0.4
		c0.1-0.1,0.4,0,0.6-0.1c0.2-0.2,0.4-0.4,0.7-0.5C53.1,80,53.7,79.9,53.8,80.3L53.8,80.3L53.8,80.3z M64.4,70.9
		c-0.2,1.2-0.1,2.1-0.1,3.4c-0.7,0.4-2.4,1.1-4.5,1.3c-0.6,0.1-0.8-0.3-0.9-0.5c0-0.2,0-0.6,0.4-0.8c-0.1,0-0.6,0.2-0.5,1
		c0.3,0.5,0.9,0.6,1.5,0.6c1.5-0.2,2.6-0.4,3.9-0.8l0.1,1c-1.9,0.4-3.6,0.7-5.6,0.4c0,0.8-0.1,1.5-0.1,2.4c0.3-0.6,0.4-1.1,0.6-1.8
		l0.6,0c-0.1,1.2-0.8,2.2-1.4,3.2l0.1,1.1c0,0.3-0.4,0.4-0.6,0.5c-0.3,0-0.6-0.1-0.8,0.3c-0.4,0.6-0.7,1.2-1.4,1.4
		c-0.3,0.6-0.8,0.7-1.4,0.7c-0.2-0.1-0.3-0.4-0.4-0.6c-0.1,0-0.3,0-0.4,0.1c0,0,0,0.1,0,0.2c-0.4,0.2-0.6-0.6-0.8-0.2l-0.5,0.1v-0.7
		c0.4-0.6,0.9-0.8,1.5-0.9c0.1,0,0.3,0.1,0.4,0.3c0,0.1,0,0.2,0.1,0.3c0.3-0.1,0.6-0.3,1-0.5c0-0.1-0.1-0.3-0.2-0.5l-0.6,0.3
		c-0.1-0.2-0.3-0.4-0.5-0.5l-0.4,0c-0.1-0.1-0.1-0.2-0.2-0.3c-0.1,0.1-0.3,0.1-0.4,0.3c0.4,0.4-0.3,0.3-0.4,0.6
		c-0.1,0.1-0.2,0.3-0.3,0.4c-0.1,0-0.3-0.1-0.4-0.3c0-0.3,0.1-0.7,0.4-0.8c0.4,0.1,0.6-0.4,1-0.5c0.3-0.1,0.8-0.3,1.2,0
		c0.1,0.1,0.1,0.4,0.3,0.5c0.1,0,0.3-0.1,0.5-0.2l-0.2-0.5c0.6-0.3,1.2-0.5,1.7-1c0.1-1.6,0-3.3,0.3-4.8c0.1-0.1,0.1-0.3,0.2-0.3
		c0.3-0.1-0.1-0.4-0.1-0.5c-0.3-1.2,0.7-1.4,1.1-1.4c0.1,0,0.4,0.1,0.4,0.1c-0.1-0.3,0.1-0.4,0.3-0.5C60.6,71.4,62.1,71.2,64.4,70.9
		L64.4,70.9L64.4,70.9z M61.4,65.5L61.4,65.5c0,0,0.2-0.4,0.1-0.8c0,0.1-2.9,3.5-5.5,3.7c-0.1,0.3-0.3,0.6-0.6,0.7
		c-0.1,0.1-0.3,0.1-0.4,0.2c0.6,0,0.8-0.4,1.1-0.7C59.1,67.8,61.4,65.5,61.4,65.5L61.4,65.5z M53.5,68.3c0,0.1,0.1,0.2,0.1,0.3
		l0.6,0l0,0c0.1-0.4-0.5-0.6-0.1-1c0.1-0.1-0.1-0.3-0.1-0.4c0.3,0.3,0.7,0.7,1.1,0.5l0.5-0.4l3.2-3c1.1-0.7,2.6-0.4,3.5-1.6
		c0.2,1.4,0,2.9-1,3.9c-0.4,0.4-0.9,0.4-1.3,0.8c-1.3,1.1-2.8,1.9-4.3,2.6c-0.5,0.2-1.1,0.6-1.7,0.2c-0.7-0.7-0.8-0.8-1.2-0.8
		c-0.2,0-0.3,0.3-0.5,0.1c0-0.1-0.1,0-0.2,0c-0.2,0.1-0.2,0.3-0.4,0.4c0-0.2-0.1-0.3,0-0.5c0-0.1,0.3-0.2,0.2-0.4
		c-0.1-0.3,0.2-0.5,0.4-0.7C52.7,68.1,53.2,68,53.5,68.3L53.5,68.3L53.5,68.3z M52.6,70.1L52.6,70.1c0,0.2,0.1,0.3,0.3,0.3
		c0.2,0,0.4-0.1,0.4-0.3c0-0.1-0.2-0.3-0.4-0.3C52.8,69.8,52.6,69.9,52.6,70.1L52.6,70.1z M54.5,53.2c0,0.2,0.3,0.4,0.3,0.4
		c0,0.2,0,0.4,0.1,0.6c-0.3,0-0.7-0.2-0.8-0.4c0-0.2,0.1-0.5-0.1-0.6v-0.8c0.1-0.4,0.3-0.7,0.6-0.7C54.6,52.1,54.5,52.7,54.5,53.2
		L54.5,53.2L54.5,53.2z M53.5,54.2L53.5,54.2c0-0.6,0.1-1.1,0-1.4c-0.6,0.6-0.6,0.5-0.4,1.9c0.2,0.3,0.5,0.5,0.7,0.5
		c0.2-0.2,0.1-0.5,0.1-0.8C53.8,54.3,53.6,54.3,53.5,54.2L53.5,54.2z M60,57.2c-0.8,0.7-0.7,1.7-1.4,2.5c-0.1,0.1-0.3,0.2-0.4,0.2
		c0.1,0.5,0.5,1,0.9,1.2l-0.4,0.5l-0.1-0.1l-2.5-3.9c-0.2-0.4-0.4-0.7-0.6-1.1c0.2,0,0.5-0.7,0.5-0.7L58,59l0-0.1l-1.8-3.4l0.1-0.3
		c0.3-0.1,0.6,0,0.8-0.1l0.4-0.6C57.5,54.6,59.2,56.3,60,57.2L60,57.2L60,57.2z M51.1,57.3l-0.3-0.4l1.9-1.9c0,0.1,0,0.3,0.3,0.6
		L51.1,57.3L51.1,57.3z M56.3,51.4l4.1-4.1c0,0,0.4-0.5,0.6-0.3c0.3,0.2,0.1,0.6,0.1,0.6s0.7-0.7,0.1-1.1c-0.4-0.4-0.8,0-0.8,0
		l-0.9,0.9l-0.6-0.6l1.7-1.5c0.6-0.4,1-0.4,1.3-0.4c0.8,0,0.9,0.3,0.9,1.1c0,0.5-0.1,1-0.3,1.4L61.1,49l-0.7-0.8l-3.9,3.9L56.3,51.4
		L56.3,51.4z M55.8,51.1L55.8,51.1c-0.4-0.1-0.8-0.6-0.8,1.2c0.3,0.3-0.1,0.5,0,0.8c0.2,0,0.3,0.3,0.5,0.5c0.2,0.1,0.4,0,0.6-0.1
		c0-0.3-0.4-0.5-0.1-0.8C56.3,52.3,55.9,51.6,55.8,51.1L55.8,51.1z M56.9,54.6L56.9,54.6c0.5-0.5,0.2-1.4,0-1.9
		c-0.5,0.5-0.3,0.5-0.3,0.9c-0.1,0.4-0.4,0.5-0.7,0.6c-0.2,0-0.4-0.1-0.6-0.1c0,0.3,0,0.5,0,0.8c-0.3,0.2-0.6,0-0.8,0
		c0,0.9-0.4,0.5,0.3,1.1c0.2,0.1,0.4,0.1,0.6,0c0.3-0.2,0.3-0.5,0.4-0.8C55.9,54.6,56.5,54.8,56.9,54.6L56.9,54.6z M61.9,62.3
		c-0.9,0.8-2.2,0.6-3.1,1.4c0.1-0.6,0.8-0.8,1.2-1.1c0.1,0,0.3-0.1,0.4-0.2l-1.6,0.4c0.1-0.3,0.4-0.6,0.6-0.7c1.2,0,2.3-0.2,3.1-1.1
		C62.6,61.6,62.2,62,61.9,62.3L61.9,62.3L61.9,62.3z M61.4,57.7c-0.7,0.5-0.3,1.8-1.2,2.2c-0.3,0.1-0.5,0.2-0.8,0.2
		C60.6,59.6,60.2,58,61.4,57.7L61.4,57.7z"/>
	<path class="st5" d="M82.2,56.7c0.5,0.1,0.6,0.2,1,0.6c0.1,0.4,0.3,0.8,0.7,1.3l-1.7-0.5l0-0.2V56.7L82.2,56.7z M82.2,55
		c0.5,0.2,0.7,0,0.7,0.8l0.1,0.7L82.2,56V55L82.2,55z M82.2,53.2c0.3,0.3,0.7,0.1,0.8,0.6c-0.1,0.3-0.1,0.7-0.1,0.7L82.2,54V53.2
		L82.2,53.2z M82.2,51.7c0.5,0.4,0.8,0.5,0.7,1.1c-0.2-0.3-0.4-0.3-0.7-0.4V51.7L82.2,51.7z M82.2,49.4v1.4l1.2,1.1
		C83.8,51.4,82.9,50,82.2,49.4L82.2,49.4z M94,39.1c-0.3,0-0.6,0-0.8,0H93l0.1-0.2c0.3-0.4,0.7-1,1.3-1.2l0.1,0l0.4,1.2L94.8,39
		C94.6,39.1,94.3,39.1,94,39.1L94,39.1L94,39.1z M95,39.9c0,0,0,0.1,0,0.1v0v0.1h-0.1c-0.8,0-1.8,0-2.6-0.1l-0.4,0l0.3-0.2
		c0.4-0.2,0.8-0.2,1.2-0.2c0.4,0,0.9,0,1.3,0l0,0C94.9,39.7,95,39.8,95,39.9L95,39.9L95,39.9z M90.8,41.3l0.6-0.7l3.8,0.1v0.6
		L90.8,41.3L90.8,41.3z M89.5,42.6l0.6-0.7h0c1.6,0,3.3-0.1,4.8,0h0.1v0.5L89.5,42.6L89.5,42.6z M92.4,44c-1,0-1.9-0.1-2.9-0.1
		l-1,0.5l0-0.1c-0.3-0.2-0.2-0.4,0-0.6c0-0.1,0.1-0.2,0.2-0.3c0.1-0.1,0.1-0.1,0.2-0.2v0l0.5-0.2l5.7,0l0.4,0.7h-0.1
		C94.4,44,93.4,44,92.4,44L92.4,44L92.4,44z M92.8,47.2l-0.2,0.1l0.2-2.8l2.6,0l0.3,1l-0.1,0.1C95.3,45.7,93.2,46.9,92.8,47.2
		L92.8,47.2L92.8,47.2z M91.8,47.8l0-0.1c-0.1-1-0.2-2.1-0.1-3.1v0l0.1,0c0.1-0.1,0.2-0.1,0.3-0.1c0.1,0,0.2,0,0.3,0h0.1v3
		L91.8,47.8L91.8,47.8z M91.2,48.2v0.1h-0.3l-0.8-3.8h0.1c0.1,0,0.3,0,0.4,0c0.1,0,0.3,0,0.4,0l0.1,0v0.1
		C91.1,45.8,91.2,47.1,91.2,48.2L91.2,48.2L91.2,48.2z M90.5,48.7L90.5,48.7c-0.3-1.3-0.8-2.5-1-3.8l0-0.1H89V45
		c0.3,1.3,0.6,2.7,1.1,3.9l0,0h0c0.1,0.1,0.2,0,0.3,0c0,0,0,0,0-0.1c0,0,0,0,0.1,0L90.5,48.7L90.5,48.7L90.5,48.7z M88.3,48.8
		c-0.7-1.2-1.4-2.5-1.9-3.8l0-0.1h-0.1c-0.1,0-0.2,0-0.3,0c-0.1,0-0.2,0-0.3,0.1l-0.1,0l0.8,2c0.7,1.5,1.7,3,2.6,4.6
		c0.9,1.5,1.8,3,2.3,4.6l0.1,0.4l0.3-1.1c-0.2-0.5-0.4-1-0.7-1.5c-0.3-0.5-0.5-1-0.8-1.4C89.6,51.3,88.9,50,88.3,48.8L88.3,48.8z
		 M89.5,49.2l-0.2,0.1c-0.3-0.6-0.7-1.2-1-1.8c-0.3-0.7-0.6-1.3-0.6-2.1l0-0.1h0.6l0,0.1C88.8,46.5,89.2,47.9,89.5,49.2L89.5,49.2
		L89.5,49.2z M84.1,51L84,51.2L83.9,51c-0.3-0.4-0.5-1-0.7-1.5c-0.3-0.5-0.6-1-0.9-1.3l0-0.1c-0.1-0.4,0.7-1.9,1-2.2l0.1-0.1
		l0.1,0.1c0.5,0.6,0.9,1.4,1.3,2.2c0.4,0.8,0.8,1.7,1.2,2.3l0.2,0.3l-0.3-0.2C85.5,50.5,84.3,50.6,84.1,51L84.1,51L84.1,51z
		 M90.9,52.9c0,0,0-0.1,0-0.1c0,0,0,0,0-0.1l0-0.1l0.1,0c1.8-1,3.4-2.1,5.2-2.9l0.3-0.1l-0.3,1l-4.9,2.6C91,53.1,90.9,53,90.9,52.9
		L90.9,52.9L90.9,52.9z M91.5,54l-0.3-0.2l0.1-0.1c1.3-0.8,2.6-1.6,4-2.3l0.2-0.1l-0.1,0.3c-0.1,0.3-0.3,0.6-0.6,0.7
		c-0.2,0.1-0.5,0.3-0.7,0.4L91.5,54L91.5,54z M86.2,48c0.5,1,1,1.9,1.4,2.8l0.1,0.3l-0.3-0.1c-0.1,0-0.3-0.1-0.5-0.2
		c-0.1,0-0.1-0.1-0.2-0.1c-0.1,0-0.1,0-0.1,0h-0.1l0-0.1c-0.3-0.9-0.8-1.7-1.3-2.6c-0.2-0.4-0.5-0.8-0.7-1.2
		c-0.3-0.4-0.4-0.9-0.6-1.3l0-0.1l0.1,0c0.2-0.1,0.5-0.1,0.7,0l0,0.1C85.1,46.1,85.7,47,86.2,48L86.2,48L86.2,48z M96.5,48.1
		l0.1-0.1l0-0.1c0-0.1-0.1-0.6-0.2-1c-0.1-0.4-0.2-0.8-0.3-1l0-0.1l-0.1,0c-2.1,1.2-4.1,2.5-6.1,4.2l0,0v0.1c0,0.1,0,0.2,0.1,0.3
		c0,0.1,0.1,0.2,0.2,0.3l0.1,0l3-1.9l0.4,0.4c-1.1,0.7-2.2,1.5-3.3,2.2l-0.1,0.1l0.3,0.7l0.1-0.1c1.9-1.2,3.9-2,5.8-3.2l0.1,0
		L96.5,48.1L96.5,48.1z M88.4,32.9c-0.1,0-0.2-0.1-0.3-0.1l0,0l0.1-2.9l0.1,0.1c0.7,0.3,0.8,0.7,0.7,1.2c0,0.3-0.1,0.5-0.1,0.8
		c0,0.3-0.1,0.6-0.1,0.8v0.1l0,0C88.6,32.9,88.5,32.9,88.4,32.9L88.4,32.9L88.4,32.9z M89.9,32.5c-0.1,0.3-0.2,0.6-0.3,0.8l0,0.1
		h-0.1c-0.3,0-0.4-0.1-0.4-0.4c0-0.1,0-0.2,0-0.3c0-0.1,0-0.1,0.1-0.2l0.2-1.5l0.1,0.1c0,0,0.1,0,0.1,0.1c0.1,0,0.1,0,0.2,0.1
		c0.1,0,0.3,0.1,0.3,0.4C90.1,32,90,32.3,89.9,32.5L89.9,32.5L89.9,32.5z M90.7,34.4L90.7,34.4c0.3-0.3,0.5-0.7,0.7-1l0-0.1
		l-0.1-0.1c-0.1-0.1-0.3-0.2-0.4-0.3c-0.1-0.1-0.2-0.2-0.4-0.3l-0.1,0v0.1c0,0.1,0,0.2-0.1,0.4c-0.1,0.1-0.1,0.3-0.1,0.4
		c-0.1,0.3-0.1,0.6,0.4,0.8L90.7,34.4L90.7,34.4L90.7,34.4z M92,35.3c-0.1,0.1-0.2,0.1-0.3,0.3c-0.1,0.1-0.1,0.1-0.2,0.3l-0.1,0.1
		l-0.1-0.1c-0.5-0.5-0.5-0.9-0.3-1.3c0-0.1,0.1-0.2,0.1-0.3c0.1-0.1,0.1-0.1,0.2-0.2c0.1-0.1,0.2-0.3,0.3-0.4v-0.1h0.1
		c0.1,0,0.2,0.1,0.3,0.1c0.1,0.1,0.1,0.2,0.1,0.3c0.1,0.1,0.1,0.2,0.1,0.3l0,0.1c0,0,0,0,0,0v0.1C92.4,34.9,92.2,35.1,92,35.3
		L92,35.3L92,35.3z M93.3,35.9L93.3,35.9c0.1-0.1,0.1-0.3,0.3-0.4l0,0v0c0-0.2-0.1-0.3-0.3-0.4c-0.1-0.1-0.2-0.1-0.3-0.2l-0.1,0
		l-1.1,1.6l0.3,0.4h0c0.4,0,0.7-0.3,0.8-0.5C93.1,36.1,93.2,36,93.3,35.9L93.3,35.9z M93,38.2l1.3-1.2l0-0.1c0-0.1,0-0.1,0-0.2
		c0-0.1-0.1-0.2-0.1-0.3c-0.1-0.2-0.1-0.4-0.3-0.5l-0.1,0l-1,1c-0.1,0.2,0,0.4,0,0.6c0,0.2,0.1,0.3,0.2,0.4L93,38.2L93,38.2z
		 M86.3,32.6L86.3,32.6l-0.1-0.1c-0.2-0.6-0.3-1.1-0.4-1.7c-0.1-0.6-0.1-1.2-0.1-1.8V29c0.1-0.3,0.4-0.4,0.6-0.3
		c0.2,0,0.4,0.2,0.4,0.4l1.1,0.5l0,3c-0.1,0.1-1.2,0.5-1.3,0.5l-0.1,0V32.6L86.3,32.6z M88.8,35.3L88.8,35.3
		c0.3-0.5,0.5-1.1,0.5-1.4v-0.1l-0.1,0c-0.3-0.1-1-0.3-1.2-0.3l-0.1,0l0,3.2l0.2,0C88.3,36.4,88.6,35.8,88.8,35.3L88.8,35.3z
		 M87.1,44.4L87.1,44.4h-0.1c-0.7-0.7-1.5-1.3-2.2-2c-0.8-0.7-1.5-1.4-2.1-2.2l0,0l0.4-1l0.1,0.1c0.4,0.3,0.7,0.7,1,1.1
		c0.3,0.4,0.6,0.8,0.9,1.2c0.6,0.8,1.3,1.5,2.2,1.9l0,0v0C87.4,43.8,87.3,44.2,87.1,44.4L87.1,44.4L87.1,44.4z M86.1,42.1l0.7,0.3
		l-0.1-0.3c-0.9-1.9-1.6-4-2.7-5.8l-0.1-0.1l-0.1,0.1c-0.4,0.5-0.6,1.1-0.6,1.8v0.1C84.1,39.5,85,40.8,86.1,42.1L86.1,42.1z
		 M87.4,42.7L87.4,42.7c0.3-0.5,0.4-1.2,0.1-1.8c-0.7-0.8-1.1-1.8-1.5-2.8c-0.1-0.5-0.3-1-0.5-1.5c-0.2-0.5-0.4-1-0.6-1.4l-0.1-0.1
		l-0.4,0.4v0.1c0.3,0.8,0.6,1.6,1,2.3c0.7,1.6,1.3,3.2,1.9,4.8l0.1,0.3L87.4,42.7L87.4,42.7z M85.1,34.8L85.1,34.8c0,0-0.1,0-0.1,0
		c0,0,0,0,0.1,0.1c0,0.1,0.1,0.3,0.2,0.4c0.1,0.4,0.3,0.9,0.6,1.5c0.4,1.2,1,2.6,1.6,3.4l0.2,0.2l0-0.3c0.2-1.2-0.1-2.4-0.4-3.6
		c-0.4-1.1-0.8-2.1-1-2.8l0-0.1L86,33.8c-0.3,0.2-0.8,0.6-1,0.8L85.1,34.8L85.1,34.8z M86.9,35.2c-0.1-0.5-0.2-1-0.4-1.5v0
		c0.1-0.3,0.3-0.3,0.5-0.3s0.4,0,0.5,0.1h0.1l0.1,3.5l-0.2-0.3C87.2,36.2,87.1,35.7,86.9,35.2L86.9,35.2L86.9,35.2z M90,39.4
		L90,39.4c0.3-1.1,1.8-2.5,0.6-3.6l-1.9,5.2c-0.7,0.6-0.3,1.5-0.6,2.2c1.5-1.5,2.8-3.1,4.3-4.6v-0.3c-0.3-0.3-0.3-1.4-0.9-1.4
		c-0.7,0.8-0.9,1.8-1.5,2.8C89.8,39.7,90.1,39.7,90,39.4L90,39.4z M88.1,37.9c0-0.2,0.3-0.9,0.6-1.6c0.3-0.7,0.7-1.4,0.8-1.8
		l0.1-0.1l0.6,0.6l-1.9,5.5l-0.2,0L88.1,37.9L88.1,37.9z M85.6,55.1c-0.3,0.4-0.6,1-1.2,0.7c0.1-0.2,0.1-0.4,0.3-0.6
		C85,55.2,85.3,55.1,85.6,55.1L85.6,55.1L85.6,55.1z M87.2,54.9c-0.4,0.4-0.7,1-1.3,0.8l0.3-0.7C86.5,55,86.9,54.9,87.2,54.9
		L87.2,54.9L87.2,54.9z M84.2,55.3L83.7,56c-0.1-0.3-0.1-0.4-0.1-0.6C83.7,55.4,83.9,55.3,84.2,55.3L84.2,55.3L84.2,55.3z
		 M86.1,57.2l-0.9,0.1c0-0.3,0.1-0.6,0.3-0.9c0.4-0.1,0.8-0.2,1.4-0.3L86.1,57.2L86.1,57.2z M88.6,56l-1,1.2l-0.7,0l0.6-1.1
		C87.7,56,88.2,55.9,88.6,56L88.6,56L88.6,56z M85,56.5L85,56.5c-0.6,0.1-0.9,0.2-1.1,0.3c0.1,0.2,0.2,0.4,0.3,0.6
		C84.5,57.3,84.8,56.9,85,56.5L85,56.5z M87.5,59.7c0-0.2,0.1-0.5,0.2-0.6l0.6-0.2l0.2,0L87.5,59.7L87.5,59.7z M86.4,60.3
		c-0.3-0.1-0.5-0.3-0.7-0.5c0.4-0.1,0.9-0.3,1.5-0.5L86.4,60.3L86.4,60.3z M87.7,58.6l-0.7,0.1l0.4-1c0.4-0.1,0.8-0.1,1.1-0.2h0.1
		L87.7,58.6L87.7,58.6z M86.1,58.9C86,58.9,85.8,59,85.6,59c0-0.3,0.1-0.7,0.2-1c0.4-0.1,0.8-0.1,1.2-0.2L86.1,58.9L86.1,58.9z
		 M85.3,58.1l-0.5,0.6c-0.1-0.1-0.2-0.3-0.3-0.4C84.8,58.2,85,58.2,85.3,58.1L85.3,58.1L85.3,58.1z M84.2,62.2c-0.3,0.3-0.7,0.6-1,1
		c0.3-0.7,0.2-1.4,0.8-2.1C84.1,61.5,84.1,61.9,84.2,62.2L84.2,62.2L84.2,62.2z M85.7,61c-0.3,0.4-0.8,0.5-1.1,0.9
		c0.1-0.5,0.3-1.1,0.5-1.6C85.4,60.4,85.6,60.7,85.7,61L85.7,61L85.7,61z M83.2,61.4l-0.3-1.2c-0.1,0.1-0.6,0.4-0.7,0.6
		c0,0.5,0.1,0.9,0.1,1.4C82.8,61.9,82.9,61.6,83.2,61.4L83.2,61.4z M84.7,60L84.7,60c0.1-0.4-0.4-0.4-0.7-0.6
		c-0.5,0.3-0.3,1-0.4,1.4L84.7,60L84.7,60z M83.4,59.3c-0.3,0.3-0.8,0.5-1.1,0.8c0.1-0.1-0.1-0.7,0.1-1
		C82.7,59.3,83.1,59.2,83.4,59.3L83.4,59.3L83.4,59.3z M87.8,53.6c-0.4,0.4-0.8,1-1.5,0.7c0-0.3,0.3-0.5,0.4-0.8
		C87.1,53.6,87.3,53.5,87.8,53.6L87.8,53.6z M85.5,54.4l-0.8,0c0.1-0.3,0.3-0.6,0.5-0.8l0.9,0L85.5,54.4L85.5,54.4z M84.8,53.6
		l-1.2,0.1c0,0.3-0.1,0.5,0,0.8c0,0,0.3-0.1,0.3,0.1C84,54.2,84.6,54.1,84.8,53.6L84.8,53.6z M87.3,51.4L87.3,51.4
		c-0.6-0.3-1.4-0.6-1.9-0.5c-0.8,0.2-1.6,1.1-1.8,2.2l0.3,0l1.2-1.1c-0.2,0.3-0.2,0.7-0.4,1.1c0.5,0,0.1,0,0.7,0l1-0.8
		c-0.1,0.2-0.1,0.6-0.3,0.8l0.3,0.1c0.4-0.2,1-0.4,1.2-0.6c-0.1,0.3-0.2,0.4-0.3,0.7c0.4,0.3,0.7-0.3,1-0.3c0,0.1-0.2,0.3-0.3,0.5
		l0.2,0.2c-0.1,0-0.3,0-0.3,0.1c-0.1,0.1-0.2,0.5-0.4,0.7c0.1-0.1,0.2,0,0.3,0c0.3-0.1,0.7-0.5,1-0.6l-0.5,0.7l0.3,0.1
		c0,0-0.4,0-1,0.1c-0.1,0.2-0.3,0.5-0.4,0.8c0.6,0.1,1-0.4,1.4-0.6c-0.1,0.2-0.1,0.4-0.2,0.6c0.1,0,0.3,0,0.5,0.1
		c0.2-0.1,0.5-0.3,0.6-0.4L89.4,56l-0.6-0.1c-0.1,0.4-0.3,0.9-0.3,1.3h0.3l1-1c-0.1,0.3-0.3,0.7-0.4,1l0.7,0.2c0,0-1,0-1.1,0.1
		c-0.2,0.3-0.2,0.8-0.4,1.1c0.9-0.2,1.5-1.1,2-1.9C90.2,54.7,89,52.4,87.3,51.4L87.3,51.4z M82.9,63.4c-0.1,0.1-0.2,0.2-0.3,0.3
		c-0.5,0.1-0.3-0.6-0.3-1l0.4-0.4L82.9,63.4L82.9,63.4z M34.5,35.3c-0.6-0.1-0.4-0.6-1.6-0.8c0.9,0.8,1.8,1.7,2.5,2.6l0,0.2
		c-0.6-0.2-1.1-0.7-1.8-0.6c0.7,0.5,1.4,1,2.1,1.6c0.3,0.1,0.3,0.8,0.4,1.3c-0.6-0.3-0.9-0.7-1.6-0.7c0.1,0.2,0.3,0.2,0.4,0.4
		c0.6,0.6,1.3,1.1,1.7,1.8v1.8c-0.1-0.4-0.5-0.7-0.8-0.9c-0.4-0.1-0.7,0.1-1.1,0.3c-0.1-0.5,0-0.9-0.2-1.3c-0.3-0.3-0.6-0.4-1-0.5
		c0.4-0.9-1-1.1-0.7-1.9c0.3-0.1,0.3-0.4,0.4-0.6c-0.1-0.3-0.3-0.4-0.6-0.5c-0.2,0.1-0.6,0.1-0.8,0c-0.3-0.1-0.3-0.4-0.3-0.6
		c0-0.2,0.1-0.3,0.3-0.3c0.3,0.1,0.6-0.1,0.8-0.4c0.2-1.1-1.7-1-1.1-2.2c0.5-0.3,0.9,0.4,1.3-0.1c0.1-0.2,0.3-0.5,0.3-0.8
		C33.8,33.7,34.1,34.5,34.5,35.3L34.5,35.3L34.5,35.3z M39.8,29.5c-0.3,0.7-0.7,1.2-0.9,2.2c-0.2,0-0.3-0.1-0.3-0.2
		C38.6,30.6,39.1,29.9,39.8,29.5L39.8,29.5L39.8,29.5z M38.4,28.6L38.4,28.6c-0.3-0.6-0.9-1.2-1.6-1c-0.7,0.6-0.1,1.4-0.3,2.1
		c-0.3,0.6-0.8-0.2-1.2,0.1c-0.1,0.3-0.2,0.6-0.1,0.8c0.1,0.7,1,0.1,1.2,0.8c0.1,0.7-0.8,0.4-1,0.8c-0.4,0.8,0.4,1,0.8,1.5
		c0.3,0.4-0.2,0.7,0,1.2c0.1,0.5,0.7,0.7,1,0.9c0.6,0,0.7,0.7,1,1c0-0.3,0-0.5,0.1-0.8c-0.4-0.6-1-1-1.7-1.4c0.6-0.2,1,0.3,1.6,0.4
		c0-0.4,0-0.7-0.1-1c0,0-1.4-1.3-1.9-1.3l0-0.1c0.7,0,1.3,0.5,1.9,0.7l-0.2-1.2c0-0.3-0.7-0.9-1.9-1.8l0.1,0c0.6,0.1,1,0.4,1.5,0.7
		c-0.1-0.7-0.3-1.5-0.5-2.2l0-0.3c0.3,0.4,0.4,0.8,0.6,1.2c0.5,1.3,1.3,4.7,1.2,5.3c0.3-0.4,0.8-0.4,0.8-0.4H40
		c0.3-0.1,0.5-0.4,0.7-0.7c0.8-0.9-0.8-0.5-0.7-1.3c0.2-0.5,0.7-1,1.2-1.3c0.1-0.2,0.1-0.5,0-0.7c-0.2-0.2-0.5,0-0.7,0
		c-1.1-0.4,0.4-1.5-0.5-2.2c-0.3-0.1-0.7-0.1-0.9,0.2C38.8,28.9,38.6,28.8,38.4,28.6L38.4,28.6z M37.3,45L37.3,45
		c-0.3-0.1-0.4-0.2-0.4-0.3c0-0.1,0-0.3,0-0.3v-0.1c0,0,0-0.1,0-0.2c0-0.1,0-0.2,0-0.3c0-0.1,0-0.3,0.1-0.5v-0.8l0.2,0.2
		c0.2,0.2,0.2,0.5,0.3,0.8c0,0.3,0,0.6,0,0.8L37.3,45L37.3,45z M35.6,49.8c-0.1-0.1-0.1-0.3-0.1-0.4c0-0.1,0-0.3,0.1-0.3l0.1-0.1
		l0.1,0.1c0.1,0.2,0.2,0.4,0.3,0.7c0.1,0.2,0.2,0.5,0.3,0.7l-0.2,0.1C36,50.3,35.7,50.1,35.6,49.8L35.6,49.8L35.6,49.8z M35.5,53.7
		c0-0.3,0.1-0.5,0.1-0.7l0.2,0c0,0.2,0.1,0.5,0.1,0.8c0,0.3,0,0.6-0.1,0.8l-0.1,0.1l-0.1-0.1C35.4,54.3,35.4,54,35.5,53.7L35.5,53.7
		L35.5,53.7z M43.1,35.8l-0.2-0.4c-0.9-0.5-1.2,0.8-1.9,0.7c-0.7,0-0.4-0.9-1.1-0.7c-0.2,0.1-0.6,0.4-0.7,0.6
		c-0.5,0.5-0.1,1.4-0.7,1.8c-0.2,0.1-0.4,0-0.6,0c-0.1-0.1-0.2-0.2-0.3-0.1c-0.8,1,0.6,1.6,0.4,2.5c-0.2,0.2-0.4,0.3-0.7,0.4
		c-0.1,0.1-0.2,0.2-0.2,0.3c-0.3,1,0.5,1.3,0.7,1.9c0.1-0.5-0.1-1.1,0-1.7c0.3,0.2,0.2,0.6,0.3,0.8c0.5-0.7,0.3-1.7,0.1-2.5
		c-0.1-0.4-0.6-0.8-0.3-1.3c0.8,0.5,0.8,1.5,1.1,2.3c0.4-0.6,0.7-1.4,0.6-2.1c0-0.7-0.4-1.5,0-2.1c0.8,0.4,0.5,1.7,0.6,2.4
		c0.6-0.8,1-1.7,1.7-2.4l0.1,0c-0.3,0.7-0.8,1.2-1.1,1.9c-1.1,1.8-1.9,3.7-3,5.5c-0.1,0.6-0.2,1.2-0.6,1.7c-0.4,1.5-0.4,3.1-0.4,4.8
		l-0.2,0.2c-0.7-1-0.2-2.3-0.2-3.4c0.3-0.5,0.2-1.2,0-1.7c-0.2,0-0.5,0-0.6-0.3c-0.2-0.8,0.5-1.8-0.2-2.4c-0.2-0.4-0.8-0.1-0.8,0
		c-0.3,0.3-0.2,0.6-0.6,0.6c-0.7-0.5,0.2-1.6-0.7-2c-1.1-0.5-0.6,0.9-1.4,1.1c-0.5,0.4-0.7-0.4-1.1-0.6c-0.3-0.2-0.7-0.1-0.9,0.2
		c-0.3,0.9,0.3,1.7,0.3,2.5c0,0.3-0.3,0.4-0.4,0.6c0.2,0.4,0.7,0.8,0.8,1.2c0.1-0.3,0.2-0.7,0.4-0.9c0.2-0.3,0.6-0.4,0.8-0.3
		c0.9,0.2,1.1,1.1,1.4,1.8c0,0.5,0.3,0.3,0.6,0.3c-0.1-0.4-0.9-1.8-1.2-2.1c-1-1-1.5-1.2-2.5-2.3c0.1-0.1,0.3,0.1,0.5,0.1
		c1.1,1,2.3,1.9,3.2,3.2c0.9,1.7,2.2,3.2,2.6,5c0.3,1.5-0.6,2.7-0.7,4.1l0.1,0.2c0.8-1,1.1-2.3,2.1-3.3c0.3-0.3,0.6-0.6,1-0.6
		c0.4-0.4,1.3-0.3,1.5-1c-0.1-0.2-0.3-0.1-0.4-0.3c-0.1-0.1,0-0.4,0.1-0.5c0.3,0,0.5-0.3,0.9-0.1c0.2,0.1,0.9-0.1,0.9-0.1
		c0,0,0.4-0.1,0.5-0.4c0.2-0.4-0.3-0.6-0.3-1c0.3-0.7,1.2-0.4,1.7-0.7c0.2-0.1,0.1-0.1,0.2-0.3c0-0.5-0.6-0.5-0.7-0.9
		c-0.3-0.5,0.3-0.8,0.2-1.4c-0.8,0.7-1.8,1.5-2.4,2.3c0.6-0.1,1.2-0.4,1.7-0.1l-0.2,0.3c-0.7,0.2-1.4,0.5-2.1,0.8
		c-0.4,0.1-0.7,0.4-0.9,0.8c0.3-0.1,0.5,0,0.7-0.2c0.4-0.1,1-0.2,1.3-0.1c-0.9,0.4-1.8,0.8-2.8,1.2c-0.5,0.7-0.8,1.5-1.3,2.2
		c-0.4,0.7-0.6,1.5-1.2,2.2c-0.1-0.3,0.1-0.7,0.3-1c0.6-1.5,1.6-2.9,1.8-4.7c0.1-0.4-0.1-0.8,0.1-1.2c0-0.1,0-0.1,0-0.1
		c0.1,0,0.1,0,0.1,0.1c0.2,0.6,0.3,1.2,0.2,1.8c0.5-0.5,0.9-1.1,1-1.8c0.2-0.7,0.3-1.4,0.5-2.1l0,0c0,0,0.1,0,0.1-0.1
		c0.2,0.7,0.1,1.5-0.2,2.2c1-1.1,1.9-2.1,2.9-3c-0.7-0.6-1.1,0.4-1.8,0.4c-0.3-0.1-0.7-0.3-0.8-0.6h-0.7c-0.8,0.4-0.2,1.4-0.4,2.1
		c-0.1,0.4-0.4,0.4-0.7,0.5c-0.1-0.2-0.2-0.4-0.3-0.7c-0.1-0.1-0.3,0-0.3,0.1c-0.4,0.4-0.5,1.2-0.3,1.8c-0.1,0.2-0.1,0.6-0.3,0.6
		c-0.3-0.5-0.3-1.1-0.3-1.7c0-0.3,0.5-0.6,0.1-0.8c-0.1-1.3,1-2.3,1.9-3.2c0.4-0.6,1.4,0,1.7-0.8c0.1-0.3-0.1-0.5-0.3-0.7
		c-0.2-0.2-0.1-0.2,0-0.4c0.3,0,0.5-0.1,0.7,0.2c0.3,0,0.9-0.4,1.1-0.6c0.6-0.6-0.4-1.1-0.6-1.6c0.2-0.1,0-0.2,0.4-0.4
		c0.3,0,0.6-0.9,0.9-1c0-0.2,0-1-0.2-1.1c-0.4-0.1-0.5,0.5-0.8,0C42.9,36.3,43.2,36.3,43.1,35.8L43.1,35.8z M33.7,42.7L33.7,42.7
		c-0.1-0.2,0-0.6-0.4-0.3c0,0.6,0.1,1.1,0.1,1.9C33.5,43.8,33.8,43.2,33.7,42.7L33.7,42.7z M35.1,44.3c0.1,0.5-0.1,1.2-0.3,1.6
		c-0.1-0.8-0.2-1.4-0.1-1.9C35.1,43.7,35,44.1,35.1,44.3L35.1,44.3L35.1,44.3z M36.2,46c0.1,0.4-0.1,1.1-0.3,1.6
		c-0.1-0.8-0.2-1.4-0.1-1.9C36.2,45.4,36.1,45.8,36.2,46L36.2,46L36.2,46z M42.8,40.1c-0.2,0.6-2.7,1-3.2,1.7
		c0.1-0.6,0.8-1.1,1.3-1.4C41.5,40.1,42.2,39.8,42.8,40.1L42.8,40.1L42.8,40.1z M43.5,37.6c-0.9,0.9-2.1,1.1-2.9,2.1
		c0-0.4,2-2,2.6-2.3C43.3,37.5,43.4,37.5,43.5,37.6L43.5,37.6L43.5,37.6z M32.9,46l-0.4-0.3c-1-0.3-0.6,1-1,1.5
		c-1.1,0.4-0.5-1.1-1.4-1.4c-1.1,0.2-0.3,1.4-0.6,2.1c-0.4,0.9-1.1,0.2-1.7,0.2c-0.4,0.3-0.6,0.7-0.6,1.1c0,0.9,1.1,0.7,1.5,1.2
		c0.7,0.6-0.3,1.3,0.3,2c0.3,0.2,0.6,0.3,1,0.2c0.3-0.1,0.5-0.4,0.6-0.7c0.2-0.2,0.5-0.2,0.7-0.1c0.7,0.5,0,1.2,0.4,1.8
		c1.2,0.2,1.1-1.4,2.1-1.8c0.2,0.2,0.2,0.5,0.2,0.8c0.6,0.9,1.1-0.3,1.7-0.4c-0.1-0.4-0.4-0.3-0.6-0.6c-0.6-0.8-2.3-1.4-3,0.1
		c-0.1-0.6,0.5-1.1,0.8-1.6c-0.5-0.1-1.2-0.4-1.8-0.3c-0.8,0.6-1.1,1.3-1.6,2c-0.1-1,0.6-1.5,1.1-2.2c-0.6-0.2-1.4-0.2-2.1-0.4
		c0.7-0.2,1.5-0.1,2.2-0.1c-0.4-0.7-0.7-1.5-1-2.2l0.1-0.1c0.3,0.1,0.2,0.5,0.4,0.7c0.7,0.8,1.5,1.9,2.6,2c-0.2-0.8-0.6-1.7-0.6-2.7
		c0.6,1,0.9,2.1,1.8,3c0.6,1,1.8,1.4,2.1,2.5v-0.1c0.3-1.4-1.6-2.1-1.3-3.4c-0.2-0.4-0.3-0.9-0.7-1.1c-0.3-0.3-0.6,0.2-0.8,0.1
		c-0.2-0.1-0.2-0.4-0.3-0.6C33.3,46.8,33,46.4,32.9,46L32.9,46z M40.3,58.8c0,0.3,0,0.6-0.1,1c-0.2-0.1-0.5-0.5-0.6-0.8
		C39.8,58.8,40.1,58.8,40.3,58.8L40.3,58.8L40.3,58.8z M41.7,59.6l-0.7,1c-0.3-0.1-0.3-0.5-0.2-0.7v-1c0.4,0,0.8-0.2,1-0.6V58
		C41.8,58.5,41.9,59.1,41.7,59.6L41.7,59.6L41.7,59.6z M37.6,54.7L37.6,54.7l-0.1-0.1v-0.1v-0.1c0,0,0-0.1,0-0.1
		c0-0.1,0-0.1,0.1-0.2l0.1-0.1l0.1,0.1c0.1,0.1,0.1,0.3,0.1,0.3c0,0.1,0,0.1,0,0.1c0,0,0,0.1,0,0.1l0,0.1l-0.1,0
		C37.7,54.9,37.7,54.8,37.6,54.7L37.6,54.7L37.6,54.7z M44.3,52.7c0,0.7-0.7,1.2-0.4,1.9c0.3,0.3,0.3,0.7,0.1,1.1c0,0-0.2,0-0.1,0.1
		c-0.4,0.1-0.7-0.5-1,0c0.1,0.3,0.2,0.7,0.2,1.1c-0.8,0.6-1.6-0.3-2.5-0.1c-0.2,0.1-0.1,0.3-0.1,0.5c0.2,0.3,0.6,0.4,0.7,0.8
		L41,58.3c-0.7,0-1.4-0.2-1.9,0.3c-0.1-0.1-0.3-0.2-0.4-0.4c0.4-0.2,0.8-0.3,1.2-0.3l0.1-0.1c-0.4-0.2-1-0.1-1.4-0.2
		c0.3-0.6,2.9-1.2,3.2-1.2c-0.6-0.3-1.3-0.3-1.9-0.1c-0.2,0-0.4,0.2-0.6,0.2c0.4-0.7,1-0.8,1.6-1.1c0.6-0.1,1.2-0.2,1.7-0.3L43,55
		c-0.5-0.3-1.4-0.4-1.9-0.2c0.4-0.6,1-1,1.6-1.4C43.1,52.9,43.7,52.8,44.3,52.7L44.3,52.7L44.3,52.7z M39.7,53
		c-0.3-0.2-0.1-0.6-0.6-0.7c0.2-0.2,0.5-0.4,0.8-0.4L39.7,53L39.7,53z M44.3,52.4c-0.1,0-0.3,0-0.4,0c-1,0.3-1.8,1-2.7,1.6
		c0-0.6,0.3-1.4-0.1-1.9c-0.2,0.5-0.2,1.1-0.4,1.7c-0.1,0.5-0.2,0.5-0.3,1c-0.2,0.1-1,1.1-1.2,1.1c-0.2-0.7,0.1-1.7-0.4-2.3
		l-0.1,0.1c0,1.3,0.1,2.7-0.7,3.7h-0.1c-0.3-0.7,0-1.7-0.7-2.1c-0.1,0.4,0,1,0,1.4C37,56.7,37,56.3,36.8,56
		c-0.1-0.5,0.3-0.8,0.4-1.2l0.2,0l0.6,0.6c0.1-0.1,0.3,0,0.4-0.2c0.2-0.8-0.6-2.2,0.5-2.5H39c0.2,0.4,0.1,1,0.7,1.1
		c0.3,0,0.4-0.3,0.7-0.6c-0.1-0.8,0-1.5,0.8-1.9c0.3,0,0.6,0.1,0.7,0.4c0.1,0.2,0.1,0.6,0.4,0.6c0.8-0.2,1.2-1.2,2-1.1V52.4
		L44.3,52.4z M44.2,59.4v-3.2c-0.1,0.1-0.1,0.1-0.3,0.1c0,0.5-0.3,1-0.7,1.2c-0.3,0.1-0.6,0.4-1,0.3l0.1,1c0.6-0.2,1-0.9,1.6-1
		c-0.6,0.4-1.1,1-1.5,1.4c-0.3,0.6-0.7,1.4-0.8,2.1c0.4,0.4,0.5,0.6,0.9,0.9c0.3-0.4,1-0.6,1.1-1.1c-0.1-0.5-0.5,0-0.8-0.3
		c-0.1,0-0.3-0.3-0.3-0.5C42.8,59.7,43.6,59.8,44.2,59.4L44.2,59.4z M35.6,34L35.6,34c-0.3-0.3-1.3-1.9-1.8-2
		c-0.1-0.1-0.3,0-0.4,0.1c0.1,0.4,0.4,0.7,0.6,1c1.2,2.3,2.4,4.6,2.8,7.3c0.3-0.1,0.6-0.3,0.7-0.6c-0.5-0.5-0.6-1.1-0.6-1.7
		c-0.1-0.6,0.8-0.8,0.5-1.4c-0.6-0.3-1.1-0.7-1.6-1.1C35.5,35.1,35.6,34.6,35.6,34L35.6,34z M30.1,56.8c0,0.4,0.1,1,0.6,1.1
		c0.6,0.2,0.8-0.8,1.2-1.1c0.2-0.1,0.3,0.1,0.4,0.1c0.7,0.9-0.7,1.8,0.1,2.6c0.6,0,1-0.8,1.5-0.3c0.4,0.9-0.7,1.2-0.7,1.9
		c0.2,0.3,0.5,0.1,0.7,0c0.1-0.2,0.3-0.1,0.6-0.1c0.6,1.3-1,2.1-1,3.4c-0.1,0-0.1,0.1-0.2,0.1c-0.8-1.3-2-3.6-1.9-3.8
		c0.1-1,0.3-2.4,0.7-3.2l-0.1-0.1c-0.5,0.9-1,1.8-1,2.8c-0.5-1-1.1-1.9-1.4-3.1c0,0.8,0.4,1.7,0.6,2.5c-0.6-0.2-1.2-0.5-1.9-0.4
		l-0.1,0.1c0.2,0.2,0.6,0.2,0.8,0.3c0.8,0.6,2.1,0.9,2.1,2.1c-0.5-0.3-1.1-0.1-1.7-0.4c-0.1,0-0.2,0.1-0.3,0.2
		c0.1,0.3,0.6,0.2,0.8,0.4c0.7,0.5,1.9,0.8,2.1,1.9c-0.4,0-0.8-0.1-1.3-0.3l-0.3,0.2c0.7,0.4,1.5,0.4,2.1,0.9
		c0.1,0.1,0.1,0.2,0.2,0.3c-0.8-0.3-1.5-0.6-2.3-0.8c-0.3-0.2-0.3-0.6-0.2-0.9c0.1-0.3,0.2-0.5,0.2-0.8c-0.3-0.3-0.7-0.3-1.1-0.4
		c-0.2-0.3-0.7-0.1-0.7-0.5c-0.4-0.8,1.1-0.7,0.6-1.5c-0.4-0.5-1.1-0.2-1.5-0.7c-0.1-0.2-0.3-0.6-0.1-0.8c0.4-0.2,0.9-0.1,1.1-0.6
		c0.3-0.7-0.3-1.9,0.8-2.1C29.8,56.3,30,56.5,30.1,56.8L30.1,56.8L30.1,56.8z M32.3,62.6L32.3,62.6c0.4-0.8,0.7-1.7,1-2.5
		c-0.7,0.7-1,1.5-1.1,2.3C32.2,62.5,32.3,62.6,32.3,62.6L32.3,62.6z M33.4,64.1L33.4,64.1c0.2-0.8,0.5-1.6,0.6-2.3
		c-0.4,0.4-0.6,0.7-0.8,1.1c-0.1,0.4-0.5,1.1,0.1,1.3L33.4,64.1L33.4,64.1z M43.3,66.9c0.1,0.6-0.1,1-0.5,1.5
		c-0.1,0.3-0.1,0.8,0.1,0.9c0.4,0.3,0.9,0.4,1,0.9c-0.1,1.4-2,0.1-2,1.6c0.2,0.4,1.1,0.4,0.8,1.1c-0.9,0.7-1.9-0.5-2.8,0.3
		c0,0.2-0.2,0.3-0.1,0.6c0.3,0.4,1,0,0.7,0.7c-0.8,0.4-1.7,0.1-2.4,0.8c-0.1,0-0.4-0.1-0.3-0.4c0.4-0.6,0.6-0.8,0.9-1.4
		c0.4-0.3,1-0.7,1.4-1c-0.3,0.1-0.7,0.1-1.1,0.2c0.4-1.2,1.9-1.3,2.7-2l-0.1-0.1c-0.6,0-1,0.1-1.5,0.3c0.5-0.8,1-1.8,1.6-2.5
		c0.2-0.3,0.4-0.6,0.6-0.8c0,0,0,0,0-0.1c0-0.1-0.1,0-0.1,0c-1,0.8-1.2,1.9-2.2,2.6c-0.1-0.8-0.1-1.8-0.5-2.5l-0.1,0.1
		c0,1.1,0,2.3-0.1,3.4c-0.1,0.3-0.6,1-0.6,1c-0.3-1-0.4-2-1.1-2.7c-0.1,0.4,0.2,0.8,0.2,1.2c0.1,0.7,0.2,1.4,0.2,2.2
		c-0.1,0.2,0,0.6-0.3,0.7c-0.3-0.6-0.3-1.3-1-1.7c-0.2,0.3,0.1,0.6,0.1,0.8c0.3,0.7,0.7,1.4,0.4,2.1c-0.6-0.1-0.1-0.7-0.3-1
		c-0.1-0.9-1.6-1.8-0.2-2.5c0.5-0.5-0.1-1,0-1.6c0-0.4,0.4-0.8,0.7-1c0.5-0.2,0.9,0.7,1.3,0c0.3-0.4-0.2-1.1,0.3-1.5
		c0.3-0.1,0.6-0.3,0.9-0.3c0.4,0.2,0.6,0.8,1,0.7c0.5-0.1,1-0.4,1.3-0.9C42.6,66.6,43.2,66.3,43.3,66.9L43.3,66.9L43.3,66.9z
		 M33.7,67.8L33.7,67.8c-0.4-1.3-1.5-2.4-2.9-2.5c0.1,0.3,0.2,0.7,0.5,1c0.6,1.2,1.1,2.5,1.9,3.7c-0.2-0.4-0.4-1-0.4-1.5
		C32.8,68.1,33.3,67.8,33.7,67.8L33.7,67.8z M38.7,66.6L38.7,66.6c-0.4-0.6-0.8-1.2-1.3-1.7c-1.4,2.1-1.6,5-2.1,7.8
		c0.3,0.4,0.5,0.7,0.9,1.1c-0.1-0.6-0.4-1.1-0.6-1.6c-0.2-0.6,0.3-1.1,0.6-1.5c0.1-0.4-0.1-0.7-0.1-1.1c0-0.5,0.4-0.8,0.7-1.2
		c0.4-0.1,0.9-0.4,1.4-0.2c0-0.1,0-0.2-0.1-0.3C38.3,67.2,38.5,67,38.7,66.6L38.7,66.6z M34.4,64.5L34.4,64.5c0-0.3,0-0.7,0-1
		c-0.1,0.3-0.3,0.6-0.3,1L34.4,64.5L34.4,64.5z M37,64.4L37,64.4c-0.5-0.6-0.8-1.7-1.7-1.5c-0.5,0.4-0.5,1-0.4,1.5
		c0.1,0.3,0.1,0.8,0.3,1.1c-0.4,0.6-0.6-0.3-1-0.2c-0.3,0-0.7-0.1-0.9,0.2c-0.1,1.1,1.4,1.6,1,2.8c-0.2,0.5-1,0.1-0.9,0.7
		c0.5,1,0.9,2.1,1.2,3.2h0.1c0-1-0.3-2.2-0.8-3.1c0-0.1,0.1-0.1,0.2-0.1c0.4,0.4,0.7,0.8,0.9,1.3c0.1-0.1,0.2-0.4,0.2-0.6
		c-0.3-1.1-0.7-2.1-1.2-3.1c-0.1-0.1,0-0.4,0-0.6c0.7,0.7,1,1.7,1.5,2.5h0.1c0.4-1.4,0.1-3-0.2-4.3c0-0.1,0.1-0.1,0.2-0.1
		c0.4,0.5,0.5,1.1,0.8,1.6C36.7,65.2,36.8,65,37,64.4L37,64.4z M29.7,63.2L29.7,63.2c-0.4-0.1-0.8-0.4-1.2-0.4
		c-0.2,0.1-0.1,0.4-0.2,0.7c-0.2,0.6,0.4,0.9,0.4,1.4c0,0.9-0.9,0.4-1.3,1c0.1,0.4,0.5,0.6,0.8,0.7c0.6,0.3,0.2,0.8,0.2,1.3
		c0.1,0.1,0.1,0.3,0.3,0.4c0.5,0.3,0.6,0.2,0.9,0.2c0.5,0.4,0.8,1,0.6,1.7c0.2,0.4,0.1-0.1,0.2,0.3c0.8-0.1,1.9,0.3,2.1,0.3
		c-0.2-0.7-0.4-1.5-0.8-1.9c-0.8-0.4-1.9-0.6-2.7-1l0.2-0.1c0.8-0.1,1.5,0,2.2,0.2c-0.1-0.2-0.1-0.5-0.4-0.6
		c-0.8-0.4-1.6-0.9-2.6-0.9l-0.1-0.2c0.7-0.3,1.5,0.1,2.2,0.1c-0.3-0.5-0.3-1.2-0.8-1.5C29.5,64.1,29.4,63.6,29.7,63.2L29.7,63.2z
		 M91.3,63.8c-0.1,0.2-0.2,0.5-0.4,0.7c-0.2,0-0.4,0-0.6,0.1C90.5,64.3,90.9,64,91.3,63.8L91.3,63.8L91.3,63.8z M92.3,64.8
		c-0.1,0.2-0.4,0.7-0.6,0.9h-1.1c0.4-0.3,0.6-0.9,1.1-0.8L92.3,64.8L92.3,64.8z M90.4,65c-0.1,0.3-0.3,0.6-0.6,0.7l-0.8,0
		C89.3,65.4,89.7,64.8,90.4,65L90.4,65L90.4,65z M91.2,66.2l0.3,0C91.4,66.2,91.3,66.2,91.2,66.2L91.2,66.2L91.2,66.2z M92,66.1
		c-0.1,0.2-0.1,0.8-0.4,0.8h-0.8l0.4-0.7c0,0,0,0,0.1,0c0.1,0,0.2,0,0.3,0C91.7,66.1,91.9,66.2,92,66.1L92,66.1z M89.5,66.9
		c-0.1,0-0.9-0.3-1-0.4c0.1,0,0.9-0.1,1.7-0.2c0.1,0,0.2,0,0.3,0c0,0.1-0.2,0.5-0.4,0.6C89.9,66.9,89.7,67.2,89.5,66.9L89.5,66.9
		L89.5,66.9z M92.5,67.3c-0.3,0.1-0.5,0.8-0.9,0.6l-0.9-0.4C91.3,67.3,92.2,67.3,92.5,67.3L92.5,67.3L92.5,67.3z M87.1,75.3
		L87.1,75.3l-0.9,0.8l-0.1-0.1c-0.4-1.1-1.1-2.1-1.8-3.1c-0.4-0.5-0.7-1-1-1.5c-0.3-0.6-0.6-1.1-0.9-1.6v0c0-0.5,0.7-1.2,1-1.4
		l0.1-0.1l0.1,0.1C84.7,70.6,86.1,72.9,87.1,75.3L87.1,75.3L87.1,75.3z M93,71.1l-0.2,0.1l0.1-0.8c1.2-1.1,2.5-1.8,3.7-2.8l0.2-0.1
		v0.8C95.7,69.4,94.4,70.3,93,71.1L93,71.1L93,71.1z M92.8,69.4L92.8,69.4c0-0.1,0-0.1,0-0.1l0-0.1l-0.1,0c-0.1-0.1-0.4-0.3-0.7-0.4
		l-0.1,0l-0.3,1l-0.1,0l0-1.1l-0.1,0c-0.4-0.2-0.8-0.4-1.2-0.6l-0.1-0.1l0.1,2.9l-0.1-0.1l-0.6-3l-0.1,0c-0.3-0.1-0.5-0.1-0.6-0.1
		h-0.1l0,0.1c0,0.7,1.1,4.7,1.4,5.3l0.1,0.2l0.1-0.2c0,0,0.1-0.1,0.2-0.1c0.1-0.1,0.3-0.1,0.4-0.3c0.4-0.2,0.8-0.5,1.3-1
		c0.3-0.4,0.4-0.9,0.5-1.3c0-0.2,0-0.4,0-0.6C92.8,69.5,92.8,69.4,92.8,69.4L92.8,69.4z M88.8,73.8l0.9-0.4L88,67.3l-0.5-0.1l0,0.1
		c0.1,1.9,0.7,3.8,1.1,5.7L88.8,73.8L88.8,73.8z M88,74.5L88,74.5c-1-2.5-2.1-4.9-3.3-7.3l0,0l-0.1,0c-0.2,0-0.3,0.1-0.4,0.3
		c0,0-0.1,0.1-0.1,0.2c0,0.1-0.1,0.1-0.1,0.2v0.1l3.4,7l0.1,0c0.1,0,0.1,0,0.2,0c0,0,0.1,0,0.2-0.1l0.1,0L88,74.5L88,74.5z
		 M88.4,73.9L88.4,73.9c-0.4-2.4-1.2-4.7-2-7l0,0l-1-0.1v0.5c0.7,1,1.1,2.2,1.5,3.3c0.2,0.6,0.4,1.1,0.6,1.7
		c0.2,0.6,0.5,1.1,0.8,1.7L88.4,73.9L88.4,73.9z M93.1,69.7l3.8-2.9v0c0-0.2,0-0.4-0.1-0.6l-0.1-0.1l-3,2.2
		c-0.1,0.1-0.1,0.2-0.2,0.3c0,0.1-0.1,0.1-0.2,0.2c-0.1,0.2-0.2,0.4-0.2,0.6L93.1,69.7L93.1,69.7z M94.4,66.2l-0.3,1.2l0.3-0.2
		c0.2-0.2,0.5-0.4,0.8-0.6c0.3-0.2,0.6-0.4,0.8-0.6c0.5-0.4,1-0.9,1-1.6v-0.2L94.4,66.2L94.4,66.2z M96.2,63.4
		c0.4-0.5,0.9-1,1.4-1.5l0.3-0.2l0,0.3c-0.1,0.8-0.6,1.3-1.2,1.8c-0.3,0.2-0.6,0.4-0.9,0.6c-0.3,0.2-0.6,0.4-0.8,0.7L94.8,65
		C95.3,64.4,95.7,63.9,96.2,63.4L96.2,63.4L96.2,63.4z M94.3,64.7l-0.1-0.1c-0.1-0.1-0.2-0.4-0.2-0.6c-0.1-0.2-0.1-0.4-0.1-0.6v0
		l2.8-4l0.1,0.1c0.3,0.1,0.5,0.4,0.6,0.6c0.1,0.3,0.2,0.6,0.3,0.8l0,0.1L94.3,64.7L94.3,64.7z M95.1,60.9L95.1,60.9
		c0.4-0.6,0.8-1.2,1.1-1.9l0.1-0.1l-0.1-0.1c0,0,0,0,0-0.1c0,0,0-0.1,0-0.1c0-0.1-0.1-0.3-0.3-0.2h-0.1v0c-0.9,1.2-1.7,2.6-2.4,3.9
		l0,0.1l0.4,0.4l0.1-0.1C94.2,62.1,94.6,61.5,95.1,60.9L95.1,60.9z M94.7,58l-0.3,1.4l0.2,0.1l0.7-1.2L94.7,58L94.7,58z M92.9,63.2
		L92.9,63.2c-0.2-0.1-0.2-0.4-0.5-0.5c-0.4,0-0.5,0.4-0.7,0.7c0.9,0.2,0.8-0.1,1.1,0c0,0.2-0.6,0.2-0.8,0.3
		c-0.2,0.3-0.2,0.4-0.4,0.8c0.5-0.1,1-0.1,1.4-0.2c-0.3,0.7-0.5,0.8-0.7,1.3l0.9,0.1c0.1,0.1,0.2,0,0.2,0.1c0,0-0.8,0.4-0.9,0.3
		c-0.1,0.3-0.1,0.3-0.3,0.7c0.4,0,0.9-0.3,1.1,0.2l-1.2,1.1c0.6,0,0.9-0.4,1.1-0.9C94,66,93.7,64.4,92.9,63.2L92.9,63.2z M97.9,89.6
		C97.9,89.6,97.9,89.6,97.9,89.6c-0.1,0.1-0.1,0.2-0.2,0.2c-0.1,0-0.2,0-0.3,0.1l-0.6,0.2c-0.1,0-0.3,0-0.6,0
		c-0.3,0-0.6,0.1-0.9,0.1c-0.6,0-1.2,0.1-1.4,0.1c-0.1,0.2-0.1,0.3-0.2,0.5c1.3-0.1,2.6-0.1,3.9-0.1h0.1v0.1
		c0.2,0.6-0.1,0.7-0.4,0.8c-0.1,0-0.3,0-0.5,0c-0.2,0-0.3,0-0.4,0h-0.1c-1.1-0.3-2.1-0.1-3.2,0c-0.6,0.1-1.1,0.1-1.7,0.2
		c-0.6,0-1.1,0-1.7-0.1c-0.7,0-0.6-0.4-0.5-0.6c0-0.1,0.1-0.1,0.1-0.2c0,0,0-0.1,0-0.1c0,0,0,0,0,0c0,0-0.1,0-0.2,0l0,0l0,0
		c-0.1-0.1-0.1-0.3-0.1-0.4c0-0.1,0-0.3,0-0.4l0-0.1H89c2.9-0.3,6-0.5,8.8-0.5H98L97.9,89.6L97.9,89.6L97.9,89.6z M95.3,86.7
		c0.9-0.2,1.8-0.4,2.7-0.6h0.1l0,0.1c0,0.1,0.1,0.3,0.1,0.4c0,0.1,0.1,0.3,0.1,0.4V87l-0.1,0c-2.5,0.4-5.1,0.7-7.7,1l-0.2,0l0.2-1
		l0.2-0.6h0.1c2.3-0.8,4.7-1.2,7-1.9l0.1,0l0.1,0.5v0.2l-0.1,0c-0.7,0.2-1.4,0.5-2.4,0.9c0,0-0.1,0-0.1,0.1c0,0.1-0.1,0.1-0.1,0.2
		L95.3,86.7L95.3,86.7L95.3,86.7z M95,80.4L95,80.4c0.8-1.4,1.7-2.8,2.5-4.2v0c0-0.1,0-0.3,0-0.4c0-0.1-0.1-0.3-0.3-0.3l-0.1,0
		l-0.1,0.1c-0.8,1.5-1.8,3-2.6,4.6c-0.8,1.5-1.6,3.1-2,4.8l0,0.1l0.1,0c0.1,0,0.2,0,0.3-0.1c0,0,0,0,0.1-0.1c0,0,0,0,0.1-0.1l0,0
		C93.5,83.3,94.2,81.8,95,80.4L95,80.4z M96.1,80.7c-0.6,1-1,2.1-1.5,3.2l0,0.1c-0.1,0-0.2,0.1-0.3,0.1c-0.1,0-0.1,0.1-0.2,0.1
		l-0.3,0.2l0.1-0.3c0.3-0.9,0.7-1.7,1.1-2.6c0.4-0.8,0.9-1.7,1.4-2.5l1.8-2.8l0.1,0.3c0,0.2,0.1,0.4,0.1,0.6
		c0.1,0.2,0.1,0.4,0.1,0.7l0,0C97.3,78.7,96.6,79.7,96.1,80.7L96.1,80.7L96.1,80.7z M93.6,80.9l-0.8,1.4v-0.4
		c-0.2-1.8-0.4-3.6-0.4-5.3v-0.1l0.1,0c0.1,0,0.3,0,0.4,0.1c0.1,0,0.3,0,0.5,0l0.1,0L93.6,80.9L93.6,80.9z M91.9,85l0.5-1.8
		l-0.7-6.6l-0.1,0c-0.6,0.1-1.5,1.1-1.8,1.5v0v0.1c0.6,2.3,1.2,4.2,2,6.4L91.9,85L91.9,85z M94.4,79.3l-0.2-0.1
		c0-0.6,0.1-1.5,0.3-2.2V77h0.1c0.2,0,0.3,0.2,0.4,0.3c0,0,0.1,0.1,0.1,0.1c0,0,0.1,0.1,0.1,0.1l0.1,0.1L94.4,79.3L94.4,79.3z
		 M97.5,81.1c-0.3,0.3-0.5,0.6-0.7,0.9c-0.2,0.3-0.4,0.6-0.6,0.9c0,0.3-0.1,0.4-0.3,0.4c-0.1,0-0.1,0-0.2,0c-0.1,0-0.1,0-0.1,0
		l-0.3,0.1l0.1-0.3c0.7-1.5,1.5-3,2.6-4.3l0.3,0V79C98.4,79.8,98,80.5,97.5,81.1L97.5,81.1L97.5,81.1z M91.4,85.3L91.4,85.3
		c-0.1-0.2-0.1-0.4-0.2-0.6c-0.5-1.9-1-3.5-1.7-5.3l-0.1-0.2l-0.1,0.2c-0.5,0.8-0.4,1.5-0.1,2.2c0.1,0.3,0.3,0.7,0.5,1
		c0.2,0.3,0.3,0.7,0.4,1l0,0.1h0.3c0.3,0.3,0.4,0.6,0.5,1c0.1,0.4,0.2,0.8,0.3,1.2V86h0.3l0-0.1C91.5,85.7,91.4,85.5,91.4,85.3
		L91.4,85.3z M97,82.9v-0.1c0-0.3,0.1-0.6,0.3-0.8c0.2-0.2,0.4-0.5,0.6-0.7l0.1-0.1l0.1,0.1c0,0.2,0,0.4,0,0.6
		c-0.1,0.2-0.2,0.4-0.3,0.6v0L97,82.9L97,82.9z M87.8,84.5c-0.2,0.3-0.3,0.7-0.4,1c-0.3,0.7-0.6,1.4-1.3,1.9l-0.2,0.1l0-0.3
		c0.1-1.4,0.7-2.8,1-4.1l0-0.1l0,0c0.4-0.2,1.1-0.4,1.5,0.3l0,0.1l-0.1,0.1C88.2,83.8,87.9,84.1,87.8,84.5L87.8,84.5L87.8,84.5z
		 M93.4,85.3L93.4,85.3c1.5-0.6,3.2-0.8,4.8-1.3l0.1,0v-0.9l-0.1,0c-0.2,0.1-0.4,0.1-0.7,0.1c-0.2,0-0.5,0.1-0.7,0.1
		c-0.6,0.3-1.2,0.5-1.8,0.7c-0.6,0.3-1.2,0.6-1.6,1L93.4,85.3L93.4,85.3z M87.9,87.3c-0.1,0.1-0.2,0.3-0.3,0.4
		c-0.1,0.1-0.1,0.3-0.1,0.4l0,0.1h-0.1c-0.1,0-0.2-0.1-0.3-0.1c0,0,0-0.1-0.1-0.1c0,0,0-0.1-0.1-0.1l-0.1-0.1l0.1-0.1
		c0.3-0.6,0.6-1.2,0.9-1.8c0.3-0.6,0.6-1.3,1-1.9l0.1,0c0,0,0.1,0,0.1,0c0,0,0,0,0.1,0l0.3-0.1l-0.2,0.3
		C88.6,85,88.2,86.2,87.9,87.3L87.9,87.3L87.9,87.3z M85.3,87L85.3,87l-0.6,0.1l0.4-2.5l0,0c0,0,0.1-0.1,0.2-0.1c0,0,0.1,0,0.1,0
		c0,0,0.1,0,0.1,0s0,0,0.1,0l0.2-0.2v0.3C85.8,85.4,85.6,86.2,85.3,87L85.3,87L85.3,87z M90,86.9L90,86.9c0.1-0.1,0.2-0.3,0.3-0.3
		h0.1v-0.1c0.1-0.3,0.1-0.7,0-1c-0.1-0.3-0.2-0.6-0.3-0.8L90,84.5l-0.1,0.1c-0.7,0.7-1.1,1.5-1.2,2.4c-0.1,0.1-0.2,0.3-0.3,0.4
		c-0.1,0.1-0.2,0.3-0.3,0.4c-0.2,0.3-0.4,0.6-0.4,1v0l0,0c0.1,0,0.1,0.1,0.2,0.2c0.1,0,0.1,0.1,0.2,0.1c0.4,0.1,0.6-0.1,0.7-0.4
		c0-0.1,0.1-0.3,0.1-0.4c0-0.1,0-0.2,0.1-0.3c0.6-0.1,0.7-0.5,0.8-0.9c0-0.1,0-0.1,0.1-0.3C89.9,87,90,86.9,90,86.9L90,86.9z
		 M84,90.1l-0.2,0.4v-0.4c0-0.4,0-0.8,0.1-1.2c0.1-0.4,0.2-0.7,0.3-1.1v-0.1h0.1c0.1,0,0.3,0.1,0.4,0.1c0.1,0,0.3,0,0.4,0h0.2
		l-0.1,0.2C84.8,88.7,84.4,89.4,84,90.1L84,90.1L84,90.1z M82.5,93.9h-0.4l0-0.1c0.1-0.7,0.1-1.5,0.2-2.3c0.1-0.8,0.2-1.5,0.4-2.2
		c0-0.1,0-0.3,0-0.4c0-0.2,0-0.4,0-0.5c0-0.3,0.1-0.7,0.6-0.6h0.1v0.1c0,0.3,0,0.6,0,0.8c0,0.3-0.1,0.6-0.1,0.8
		c-0.1,0.6-0.2,1.1-0.1,1.7L82.5,93.9L82.5,93.9z M81.7,93.9L81.7,93.9c0.3-1.4,0.5-4.7,0.5-6.1v-0.1h-0.1c-0.3,0-1.3,0-1.6,0.1
		l-0.1,0l1.1,6.1H81.7L81.7,93.9z M98.3,88.5L98.3,88.5c0.1-0.1,0.4-0.3,0.3-0.6l0-0.1h-0.1c-3.1,0-5.9,0.5-9,0.8h-0.1v0.4h0.1
		C92.4,89.1,95.4,88.7,98.3,88.5L98.3,88.5L98.3,88.5z M87.4,89.8L87.4,89.8c-0.1-0.1-0.2-0.1-0.3-0.2l-0.1,0l-1,1l-0.9,1.2l0-0.3
		l1.8-2.6l0-0.1C86.7,88.5,86.4,88,86,88h-0.1l0,0c-0.4,0.8-1.1,1.7-1.6,2.6c-0.6,0.9-1,1.9-1.1,2.9v0.1l0.1,0c0.1,0,0.2,0,0.4,0
		c0.1,0,0.3,0.1,0.4,0.1c0.3,0.1,0.6,0.1,0.9-0.3c0.2-0.2,2.3-2.6,2.6-2.9c0.2-0.3,0.2-0.5,0-0.7C87.5,89.9,87.5,89.9,87.4,89.8
		L87.4,89.8z M80.9,93.7v0.1h-0.4v-0.1c0-0.5-0.2-0.9-0.3-1.3c-0.1-0.5-0.3-0.9-0.5-1.3c-0.3-0.9-0.6-1.8-0.5-2.7
		c0-0.1,0.1-0.1,0.1-0.2c0,0,0.1,0,0.1-0.1c0,0,0.1,0,0.1,0c0.1,0,0.1,0,0.1,0l0.1-0.1l0,0.1C80.4,89.9,80.7,91.8,80.9,93.7
		L80.9,93.7L80.9,93.7z M79.8,93.5L79.8,93.5c-0.1-1.5-0.7-2.7-0.9-4.1l0-0.1l0,0c-0.2-0.1-0.4-0.1-0.5,0c-0.1,0-0.1,0-0.2,0
		c-0.1,0-0.1,0-0.2,0h-0.1c-0.5,0.2-0.6,0.8-0.7,1.2v0l1.3,2.1c0.3,0.4,0.7,0.9,1.2,1l0.1,0L79.8,93.5L79.8,93.5z M75.3,91.1
		l-0.1,0.1c-0.1,0-0.1,0.1-0.1,0.1c-0.2,0.2-0.5,0.3-0.8,0.1l0-0.1v-0.1c0.1-0.2,0.3-0.3,0.6-0.4c0.2-0.1,0.5-0.1,0.7-0.1l0.1,0.2
		C75.4,91,75.3,91,75.3,91.1L75.3,91.1L75.3,91.1z M87.5,93c-0.5,0.3-1,0.5-1.5,0.7l-0.3,0.1l0.1-0.3c0.3-0.6,0.7-1,1.1-1.5
		c0.4-0.4,0.9-0.8,1.3-1.2l0.1,0l0.1,0c0.2,0.1,0.3,0.3,0.3,0.4c0,0.1,0,0.3,0.1,0.5l0,0l0,0C88.5,92.4,88,92.8,87.5,93L87.5,93
		L87.5,93z M76.6,91.6L76.6,91.6c0.1,0,0.2-0.1,0.2-0.3l0,0c-0.2-0.4-0.5-0.4-0.7-0.2c-0.1,0-0.1,0.1-0.2,0.1c0,0-0.1,0.1-0.1,0.1
		c-0.1,0.1-0.1,0.2-0.2,0.2l-0.3,0.1l0.3,0c0.1,0,0.3,0,0.4,0c0.1,0,0.2,0,0.3,0l0.1,0l0,0c0,0,0.1,0,0.1-0.1
		C76.4,91.7,76.5,91.6,76.6,91.6L76.6,91.6z M77.5,92.3l-0.8-0.1l0-0.1c0-0.2,0.2-0.4,0.4-0.4c0.2-0.1,0.4,0,0.5,0.4V92.3L77.5,92.3
		z M73.4,92.4l-0.1,0l0-0.1c0.1-0.4,0.4-0.4,0.6-0.4c0.1,0,0.3,0,0.4,0.1c0.1,0,0.2,0,0.3,0l0.2,0l-0.1,0.2
		C74.4,92.7,73.8,92.5,73.4,92.4L73.4,92.4L73.4,92.4z M75.5,93.1L75.5,93.1c0.3-0.2,0.6-0.5,0.8-0.7l0.1-0.1l-0.1,0
		c-0.5-0.2-1.1,0-1.4,0.5l-0.1,0.1L75.5,93.1L75.5,93.1L75.5,93.1z M95.8,93c0.1,0.2,0.1,0.4,0.1,0.7l0,0.1L92,93.9l0-1.7l3.7,0v0.1
		C95.7,92.5,95.7,92.8,95.8,93L95.8,93L95.8,93z M77.8,92.9L76,93.3l0.2-0.3c0.4-0.4,1-0.8,1.5-0.4l0,0V92.9L77.8,92.9z M96,96.6
		c-0.2,0.3-0.4,0.5-0.4,0.6l-0.1,0l-3.9-0.8l0.3-1.7l0.1,0c0.6-0.1,1.3-0.2,2-0.2c0.7,0,1.4,0,2-0.1h0.1l0.2,0.8
		C96.5,95.8,96.3,96.3,96,96.6L96,96.6L96,96.6z M86.4,96.5c-0.2,0.1-0.5,0.1-0.6-0.2l-1.9-1.6l0.3-0.2l0,0c0.9,0.4,1.8,0.8,2.7,1.3
		l0.1,0l0,0.1C86.8,96.2,86.6,96.4,86.4,96.5L86.4,96.5L86.4,96.5z M84.3,95.6L84.3,95.6c-0.4-0.3-0.8-0.6-1.1-1l0,0h-0.8l0.1,0.2
		c0.3,0.4,0.7,0.8,1.1,1.1c0.4,0.3,0.8,0.6,1.1,1l0,0l0.7-0.1l-0.1-0.2c-0.1-0.2-0.3-0.4-0.5-0.5C84.7,95.9,84.4,95.8,84.3,95.6
		L84.3,95.6z M95.6,98.5v-0.9h-0.1c-0.3-0.1-0.6-0.1-1-0.2c-0.3-0.1-0.7-0.1-1-0.1c-0.7-0.1-1.3-0.1-1.9-0.3l-0.1,0l-0.3,0.7l0.1,0
		c0.6,0.2,1.3,0.4,1.9,0.6c0.7,0.1,1.4,0.3,2.1,0.3H95.6L95.6,98.5z M95.2,100.3l-1.3,1.2l-3.2-3l0.2-0.5l0.1,0
		c1.6,0.3,2.9,1.1,4.1,2.1l0,0V100.3L95.2,100.3z M92.9,103.6L92.9,103.6c0.3-0.2,0.6-0.6,0.7-1.3v-0.1c-0.7-1.4-2-2.5-3.2-3.4
		l-0.1-0.1l-0.1,0.1c0,0-0.1,0.1-0.1,0.1C90,99,90,99,89.9,99c-0.1,0.1-0.3,0.3-0.2,0.5c0.2,0.3,1.7,3.2,2.5,4.3l0,0
		c0,0,0.1,0,0.3,0C92.6,103.8,92.7,103.7,92.9,103.6L92.9,103.6z M80.9,105.9c-0.1,0-0.2,0.1-0.3,0.1c-0.2,0-0.4,0-0.6-0.2
		c-1-2.1-1.9-4.1-2.7-6.2l-0.1-0.2l0.6,0.1l3.5,6.2l-0.1,0C81.1,105.8,81,105.8,80.9,105.9L80.9,105.9L80.9,105.9z M83,105.2
		L83,105.2c-1-1.3-1.8-2.6-2.7-4c-0.1-0.1-0.3-0.3-0.4-0.5c-0.1-0.2-0.2-0.4-0.3-0.6c-0.3-0.4-0.6-0.7-1.2-0.6l-0.1,0l0.1,0.1
		c1,2,2.3,3.9,3.5,5.9l0,0H82c0.3,0,0.6-0.1,0.9-0.3L83,105.2L83,105.2L83,105.2z M87.5,100.1l1.1-0.5l0,0c0.2,0.1,0.3,0.3,0.3,0.5
		c0,0.1,0,0.2,0.1,0.3c0,0.1,0,0.2,0.1,0.3l0.1,0.3L87.5,100.1L87.5,100.1z M78.8,105.7L78.8,105.7c0,0,0.1,0,0.1-0.1l0,0v-0.1
		c-0.6-1.9-1.3-3.7-2.1-5.5l0-0.1l-0.7,0.7v0.1c0.2,0.9,0.6,1.8,1,2.6c0.4,0.8,0.8,1.7,1.2,2.5l0,0.1l0.1-0.1c0,0,0,0,0.1,0
		c0,0,0.1,0,0.1,0C78.7,105.7,78.8,105.7,78.8,105.7L78.8,105.7z M88.9,105.6L88.9,105.6c0,0,0.1-0.1,0-0.3l0-0.1
		c-2.8-1.9-5.6-3.7-8.5-5.2L80,99.9l0.2,0.3c0.3,0.7,0.8,1.3,1.3,1.8l5.8,3.7h1.4l0,0C88.8,105.6,88.8,105.6,88.9,105.6L88.9,105.6z
		 M89.6,104.5c-0.1,0.1-0.1,0.2-0.2,0.3l-0.1,0l-0.1,0c-1.1-0.7-2.3-1.4-3.4-2.2c-1.1-0.8-2.2-1.5-3.3-2.4l-0.3-0.2l1.7,0.1l5.8,3.9
		l-0.1,0.1C89.7,104.3,89.6,104.4,89.6,104.5L89.6,104.5L89.6,104.5z M87.6,100.8c0.4,0.1,0.7,0.3,1,0.4c0.7,0.3,1.2,0.8,1.1,1.8
		l0,0.1l-0.1-0.1c-0.7-0.4-1.4-0.8-2.1-1.3c-0.7-0.5-1.4-1-2.1-1.4l-0.2-0.1l0.2-0.1c0.4-0.2,1-0.1,1.5,0h0
		C87,100.5,87.3,100.7,87.6,100.8L87.6,100.8L87.6,100.8z M91.9,104.4L91.9,104.4C91.8,104.4,91.8,104.4,91.9,104.4
		c-0.1,0.1-0.2,0.1-0.3,0.1h0c-0.4-0.3-0.7-0.7-0.9-1.1c-0.2-0.4-0.3-0.8-0.5-1.2l0.2-0.1c0.3,0.3,0.5,0.7,0.8,1
		c0.3,0.4,0.5,0.7,0.7,1.1l0,0.1l0,0C91.9,104.3,91.9,104.3,91.9,104.4L91.9,104.4L91.9,104.4z M83.7,105.9L83.7,105.9l0-0.1
		c0.1-0.4,0-0.8-0.3-1.1c-0.2-0.3-0.5-0.7-0.7-1l-0.2-0.4l0.4,0.2c1.4,0.7,2.7,1.7,4,2.5l0.3,0.2h-0.3
		C85.7,106.3,84.6,106.4,83.7,105.9L83.7,105.9L83.7,105.9z M90.5,105.2L90.5,105.2c0.1,0,0.5-0.3,0.4-0.6c0-0.1-0.1-0.2-0.1-0.3
		c-0.1-0.1-0.2-0.1-0.3-0.1h-0.1l0,1L90.5,105.2L90.5,105.2z M64.1,99l-0.6-0.3c0.1-0.2,0.3,0,0.6,0V99L64.1,99z M58.3,97.5
		c0-0.3,0-0.5,0.1-0.8l1.2,0.3c-0.1,0-0.1,0-0.2,0.1c-0.4,0.2-0.7,0.7-0.7,1.1l0.1,0.5c-0.5,0-1,0.3-1.2,0.8
		c-0.7,0.1-1.4,0.3-2.1,0.4l-0.1,0.1c0.1,0.2,0.2,0.2,0.4,0.3c0.5,0.1,1,0,1.4,0c-0.1,0.4-0.4,0.7-0.7,1c-0.9,0.3-1.9,0.3-2.7,0.6
		c0.6,0.3,1.4,0.4,2.1,0.2c-0.5,0.6-1,1.3-1.2,2l0.1,0.1c0.5-0.8,1.9-2.2,1.9-2.2c0,0.4,0.1,0.8,0.2,1.2h0c0.1-0.8,0.3-1.6,0.7-2.3
		c0.9,0.4-0.3,1.4,0.4,2c0.4,0.3,0.1,0.8,0.1,1.1c-0.2,0.3-0.4,0.8-0.8,0.9c-0.4,0.1-0.5-0.3-0.7-0.4c-0.3-0.1-0.4-0.4-0.6-0.4
		c-0.7,0.1-1.4,0.9-2.1,0.2c-0.1-0.7,0.9-1.1,0.3-1.7c-0.3-0.3-0.8-0.4-0.7-0.9c0.1-0.1,0.3-0.4,0.5-0.4c0.4,0,0.8,0,1.1-0.2
		c0.3-0.2,0.4-0.6,0.2-0.9c-0.1-0.1-0.1-0.3-0.1-0.5c0.2-0.3,0.6-0.4,0.8-0.7c0.7-0.1,1.5-0.1,2-0.9C58.1,97.8,58.2,97.8,58.3,97.5
		L58.3,97.5L58.3,97.5z M61.8,97.4l-0.8,0l-0.3,0c0,0.1-0.1,0.1-0.1,0.2c-0.2,0.3-0.5,0.1-0.8,0.1c-0.2,0.1-0.4,0.1-0.6,0.3
		c-0.1,0.4,0.1,0.6,0.3,0.8c0.1,0.8-1,0.2-1.4,0.8c-0.3,0.2-0.3,0.6-0.2,0.9c0.1,0.1,0.2,0.3,0.4,0.3c0.2,0,0.4,0.3,0.3,0.4
		c-0.4,0.4-0.4,1-0.4,1.5c0.1,0.2,0.4,0.1,0.5,0.4c0.9,0.3,1-1,1.8-1c0.4,0,0.7,0.3,0.8,0.6c0.4,0.2,0.9,0,1.1-0.3
		c0.4-0.6-0.1-1.2-0.1-1.8c0.2-0.6,0.8,0,1.2-0.3c0.7-0.9-0.9-1-0.7-1.9c0-0.1,0.1-0.2,0.3-0.2c0,0,0.6,0,0.8,0
		c0.2-0.1,0.2-0.3,0.2-0.4c0-0.1-0.1-0.2-0.1-0.3h-1.5h-0.1c-0.1,0.1-0.1,0.2-0.3,0.3c-0.1,0.4,0.2,1.8,0.1,2
		c-0.6-0.3-0.4-0.9-0.6-1.4c-0.3,0.1-0.6,0.4-0.6,3.2l-0.2-0.1c-0.2-0.6-0.3-1.1-0.5-1.6l-0.5,0.7c-0.2,0.3-0.3,0.6-0.6,0.9
		c-0.1-0.3,0.1-0.6,0.1-1c0,0-1-0.1-1.2-0.4c0.3-0.4,0.8,0.1,1.2-0.1c0.5-0.1,0.8-0.4,1.1-0.8c-0.1-0.3-0.6-0.6-0.9-0.9
		c0.4-0.2,0.9,0.1,1.5,0.1c0.2-0.2,0.4-0.4,0.6-0.7C61.9,97.5,61.9,97.4,61.8,97.4L61.8,97.4z M61.7,103.4l-0.9-0.7
		c-0.6,0-0.8,0.8-1.4,1c-0.3,0.1-0.4-0.1-0.7-0.1c0,0.4-0.3,0.8-0.3,1.1c0.3,0.1,0.5,0.1,0.8,0.1c0.3-0.1,0.3-0.4,0.6-0.6
		c0.5-0.6,0.9,0.4,1.5,0C61.6,104.1,61.7,103.7,61.7,103.4L61.7,103.4z M68.2,103c-0.6,0-1.2,0.1-1.6,0c-0.2-0.3-0.1-1.7-0.3-2.1
		c0.2,0,0.6,0.2,0.6,0.4c0.1,0.6,0.1,1.1,0.2,1.4c0.1-0.1,0.2,0,0.4-0.1c0-0.4-0.1-0.7-0.1-1.1l0.7,1L68.2,103L68.2,103z
		 M67.5,104.8l-0.2-1.2l0.1,0c0.1,0,0.3,0,0.4,0c0.1,0,0.3,0,0.4,0h0.1l0.2,1.4L67.5,104.8L67.5,104.8z M69.4,105.2L69.4,105.2
		c0.7,0,1.3,0,1.9-0.4l0.1-0.1l-3.8-4.5l-0.2,0.5l0.6,0.8l0.4,0.6l0.3,1.2c0.3,0.3,0.3,0.6,0.4,0.8c0,0.1,0,0.3,0.1,0.5
		C69.2,104.8,69.3,105,69.4,105.2L69.4,105.2L69.4,105.2L69.4,105.2z M72.4,100.9L72.4,100.9c-0.5-0.6-1-1.1-1.8-1.2
		c-0.7-0.3-0.9-0.8-1-1.5c0-0.3-0.1-0.7-0.1-1c0-0.3-0.1-0.7-0.2-1l-0.2,0c0,0.3-0.1,0.4-0.2,0.4c0,0-0.1,0.1-0.1,0.1
		c-0.1,0.1-0.1,0.1-0.3,0.3l0.1,1.3c1.4,1.7,2.6,3.3,4.1,4.9l0,0h0.1c0.3-0.1,0.8-0.3,1-0.7v-0.1l0,0c-0.3-0.3-0.5-0.6-0.7-0.9
		C72.9,101.5,72.7,101.2,72.4,100.9L72.4,100.9z M65.9,99.7c0,0.3-0.2,0.7,0.1,1c0,0.7,0,1.4,0.1,2.1c0,0.1-0.4,0.1-0.6,0.1
		c0.2-0.6,0-1.6,0.2-2.3C65.9,100.3,65.6,99.8,65.9,99.7L65.9,99.7L65.9,99.7z M74.4,102.3l-0.1-0.1c-0.7-0.6-1.4-1.3-1.8-2
		l-0.1-0.2l0.2,0c0.3,0,0.6,0.2,0.8,0.2c0.3,0.1,0.5,0.1,0.7,0.2c0.4,0.1,0.8,0.1,1.4,0.1h0.2L74.4,102.3L74.4,102.3z M67.5,98.2
		c-0.1-0.1-0.2-0.2-0.3-0.3c-0.1-0.1-0.3-0.3-0.5-0.6v0c0-0.1,0-0.2,0-0.3l0.1,0l1.8-0.5l0.2,0c0,0-0.1,0.1-0.1,0.1
		c-0.1,0.1-0.1,0.1-0.2,0.2c-0.1,0.1-0.2,0.1-0.2,0.3c0.1,0.3,0.2,0.7,0.1,1c-0.1,0.3-0.3,0.6-0.4,1c0,0-0.1,0-0.1,0c0,0,0,0-0.1,0
		c0,0,0,0.1,0.1,0.1v0v0.1c-0.1,0.1-0.1,0.3-0.2,0.4l-0.3,0.6c-0.2,0.2-0.5,0.2-0.9,0l0-0.1c-0.1-0.1-0.1-0.3-0.1-0.4
		c0-0.1,0-0.2,0-0.3c0-0.1,0-0.2-0.2-0.3c-0.1,0-0.1,0-0.2,0.1c-0.1,0-0.2,0.1-0.3,0.1c-0.2,0.1-0.4,0.2-0.7,0.1h-0.1l0-0.1
		c-0.2-0.4-0.3-0.7-0.3-1.2v0l0-0.1c0.2-0.3,0.2-0.6,0.1-0.9l1.7-0.3c0.1,0.3,0,0.6-0.1,0.8c-0.1,0.1-0.2,0.2-0.3,0.4
		c-0.1,0.1-0.1,0.2-0.3,0.3v0c0.1,0,0.1-0.1,0.2-0.1c0.2-0.1,0.4-0.3,0.5-0.5l0.1-0.3l0.2,0.2c0.2,0.3,0.2,0.6,0.3,0.8
		c0,0.1,0,0.3,0,0.4l0,0.1l0-0.2c0-0.3,0.1-0.6,0-0.9l0-0.3l0.3,0.1c0.1,0,0.1,0.1,0.2,0.1C67.4,98.2,67.5,98.2,67.5,98.2L67.5,98.2
		L67.5,98.2z M70.5,101.5L70.5,101.5c-0.6-0.8-1.2-1.6-2-2.5h0c-0.2,0-0.3,0.1-0.4,0.2c0,0-0.1,0.1-0.1,0.1c0,0.1,0,0.1-0.1,0.2
		l0,0.1l4,4.7c0.2,0.1,0.5,0,0.6-0.3l0-0.1l0,0C71.7,103.1,71.2,102.3,70.5,101.5L70.5,101.5z M35.2,77.7c-0.6,0.8-0.3,2-0.7,2.9
		c-0.2-0.2-0.5-0.5-0.3-0.9c-0.1,0-0.1-0.1-0.1-0.2c0.2-0.5,0.3-1,0.6-1.4C35,78,34.9,77.5,35.2,77.7L35.2,77.7L35.2,77.7z
		 M29.4,74.4c0.4-0.1,0.2-0.6,0.5-0.8c0.6,0.8,0.4,1.8,0.5,2.8c-0.2,0.2-0.6,0.2-0.7,0.5c-0.3-0.7-0.8-1.4-1.2-2.1
		c-0.3,0-0.3-0.5-0.6-0.3c0.1,0.6,0.5,1,0.7,1.5c-0.4,0-0.9-0.4-1.3-0.1c0.7,0.7,2,0.5,2.2,1.7c-0.1,0.6,0.4,1,0.7,1.4
		c-0.5-0.1-1.1-0.1-1.5-0.3l-0.1,0.1c0.4,0.6,1.2,0.7,1.8,1c-0.2,0.3-0.1,0.8,0,1.1c0.3,0.4,0.9,0.7,1.4,0.4c0,0.5,0.1,0.9,0.4,1.2
		h-1.1c-0.4-0.8-1.3-0.6-2-0.7c-0.2-0.2-0.2-0.4-0.2-0.7c0.2-0.3,0.8-0.6,0.5-1.1c-0.4-0.6-1.2-0.5-1.5-1.2c-0.6-0.6,0.4-1,0.3-1.6
		c-0.4-0.5-1.5-0.5-1.4-1.4c0.3-0.5,1.3-0.4,0.8-1.2c-0.3-0.3-0.3-0.8-0.1-1.1c0.8-0.5,1.2,0.7,1.8,1L29.4,74.4L29.4,74.4z
		 M28.3,81.8L28.3,81.8c0-0.2-0.2-0.4-0.4-0.4c-0.8,0.3,0,1.1,0,1.6c0.4,0.7-0.7,0.8-0.5,1.4c0,0.3,0.3,0.3,0.5,0.5
		c0.3-0.1,0.5-0.8,0.9-0.7c0.4-0.3,1.1-0.3,1.6-0.2c0.2,0,0.3-0.1,0.4-0.3c-0.3-0.3-0.3-0.6-0.2-1c-0.4-0.6-1.2-0.2-1.8-0.6
		C28.5,82.2,28.3,82,28.3,81.8L28.3,81.8z M37.2,82.2c-0.3,1.4,0.5,2.4,0.1,3.8l-0.1,0.4c-0.1-0.2-0.3-0.5-0.2-0.8
		c-0.3-1.2-0.6-2.5-0.4-3.9C36.8,81.7,37.1,81.8,37.2,82.2L37.2,82.2L37.2,82.2z M38,82.7L38,82.7c-0.1-0.2-0.3-0.2-0.4-0.3l0.1,1.1
		C37.8,83.4,38,82.9,38,82.7L38,82.7z M34.4,83.3l-1.1-0.4l0.6,0.1L34.4,83.3L34.4,83.3z M31.7,83.1c0.9-0.1,1.6,0.5,2.5,0.6
		c0.3,0.1,0.5,0,0.8,0.1c-0.3,0.2-0.8,0.4-1.1,0.6c-0.6-0.1-1.1-0.4-1.7-0.5l0,0c0.5,0.3,0.8,0.6,1.4,0.7L33,85.1
		c-1,0.1-2,0.2-2.9,0.3l-0.1,0c0.6,0.6,1.4,0.4,2.2,0.5C32,86.1,30.4,86.7,29,87c0.5,0.2,1.1,0.1,1.7,0.2c-0.8,1-1.7,2-2.2,3.1
		c0.7-0.9,1.5-1.9,2.3-2.8c0.1,0.6-0.2,1.4,0.3,1.9c0.2-0.1,0.1-0.4,0.2-0.7c0.1-0.6,0-1.3,0.2-1.8c0.3-0.2,0.6-0.6,0.9-0.7
		c0.3,0.3,0.3,0.8,0.5,1.2l0.1-0.1c0-0.6-0.1-1.1,0-1.6c0.4-0.2,0.8-0.5,1.2-0.6c0.1,0.3-0.1,0.8,0.3,0.9c0.4-0.4-0.1-1.5,0.7-1.5
		c-0.1,0.6,0,1.3-0.4,1.8c-0.3,0.1-0.8-0.5-1,0.1c0.1,0.5,0.1,0.9,0.2,1.4c0,0.3,0,0.6-0.3,0.7c-0.6,0.1-1-1.3-1.5-0.3
		c-0.1,0.8,0.3,2-0.8,2.3c-0.2,0.1-0.4,0.1-0.5-0.1c0-0.4,0.1-0.7-0.2-1c-0.7-0.2-0.9,0.7-1.4,1c-0.3,0.1-0.7,0.3-1,0.2
		c-0.6-0.2-0.4-0.8-0.5-1.2c0.1-0.7,1.5-1.1,0.6-1.9c-0.3-0.1-0.8,0-0.9-0.3c-0.1-0.4,0.3-0.5,0.5-0.7c0.4,0,0.8-0.3,1-0.6
		c-0.2-0.3-0.5-0.5-0.3-0.9c0.4-0.6,1.3-0.1,1.9-0.3c0.3,0,0.6-0.3,0.7-0.6c0.2-0.3-0.3-0.6-0.1-0.8C31.3,83.1,31.6,82.9,31.7,83.1
		L31.7,83.1L31.7,83.1z M38.7,83.3L38.7,83.3c-0.2-0.3-0.6-0.2-0.6,0.1c-0.3,0.4-0.4,2-0.4,3l0.6,0.1c-0.1-0.4-0.2-0.9-0.1-1.3
		C38.2,84.5,38,83.7,38.7,83.3L38.7,83.3z M40.4,85.1l0,1.3c-0.5,0.1-1,0.1-1.5,0.1c-0.4-0.7,0-1.5-0.1-2.3l0.1-0.7
		C39.4,83.8,39.9,84.5,40.4,85.1L40.4,85.1L40.4,85.1z M41.2,87.2l-0.3,0.1c0.1-0.5-0.2-0.9-0.1-1.4C41,86.3,41.3,86.6,41.2,87.2
		L41.2,87.2L41.2,87.2z M42.8,89L42.8,89c-0.2-1-0.4-1.9-0.3-3l-0.3,0.1c-0.2,0.4-0.6,0.9-0.5,1.4c-0.3,0.2-0.6,0.1-0.7,0.4
		c-0.4,0.7,0.2,1.3,0.4,1.9c-0.1,0.3-0.4,0.6-0.6,0.9c-0.2,1.1,1.3,0.5,1.5,1.2c0.1,0.3-0.1,0.6-0.2,0.8c0,0.2,0,0.4,0.2,0.5
		c0.5,0.1,1,0.1,1.5,0.1l0-0.2c-0.4-0.3-1,0.2-1.2-0.3c0.3-0.4,1-0.3,1.5-0.4c-0.1-0.3-0.2-0.6-0.4-0.8c-0.7-0.4-1.5-0.5-2.2-0.9
		c0.6-0.3,1.4,0,1.9,0.1c-0.2-1.1-1.1-1.8-1.9-2.5l0.1-0.1l1,0.4C42.5,88.9,42.6,89,42.8,89L42.8,89z M43.4,86.5L43.4,86.5
		C43.3,86.1,43,86,42.6,86c0.1,0.1,0,0.2,0,0.4c0.1,1.2,0.3,2.3,0.6,3.5l0.3,0.4c0-0.2,0-0.5,0.2-0.7c0.1-0.7,0.7-1.1,1.1-1.4
		c-0.4,1-0.8,2.1-0.8,3.2l0.5,0.7c0.1-0.8,0-1.7,0.9-2l0.1,0.1c-0.3,0.4-0.2,0.8-0.3,1.4c0.2,0.8-0.5,1.6,0.3,2.1c0,0.1-0.1,0-0.2,0
		c-0.3,0.1-0.5-0.6-0.9-0.3c-0.1,0.3,0.2,0.7,0,0.9c-0.9,0.5-1.4-0.8-2.3-0.4c-0.4,0.1-0.3,0.7-0.3,1c-0.3,0.8-1.2,0.1-1.8,0.4
		c-0.1,0.2-0.2,0.4-0.2,0.7c0.2,0.2,0.4,0.5,0.6,0.6c0.6,0.8-0.9,0.9-0.6,1.7c0,0.3,0.3,0.4,0.5,0.5c0.8,0.3,1-1,1.8-1
		c0.3,0.3,0.1,0.8,0.4,1.1c0.3,0,0.5,0.3,0.8,0.1c0.3-0.4,0.4-1,0.5-1.5c0.1-0.1,0.2-0.4,0.4-0.4c0.3,0.3,0.4,0.9,1,0.8
		c0.4-0.3,0.6-0.6,0.6-1c-0.1-0.5-0.6-1-0.1-1.5c0.6-0.3,0.5,0.6,0.8,0.8c0.1,0,0.3,0,0.3,0c0.7-0.6,0.1-1.9,0.8-2.5
		c-0.3,0.1-0.6,0.2-0.9,0.4c-0.2,0.4-0.2,0.9-0.4,1.2C46,95.3,46,94.9,46,94.6c-0.3,0.1-1.2,1.5-1.4,2c0,0.1,0.2,0.4,0,0.5
		c-0.4-0.4-0.3-1-0.5-1.4c-1.1,0.1-0.8,1.4-1.2,2c-0.1,0.1-0.1,0.4-0.3,0.4c-0.3-0.4,0.1-0.9,0-1.4c-0.6,0.3-1,0.8-1.5,1.2
		c-0.1,0-0.3,0.1-0.4-0.1c0.4-0.5,1-0.9,1.5-1.3l-1.4-0.6l0.1-0.1c0.7,0,1.4,0.2,2.1,0.1c0.3-0.1,0.6-0.3,0.7-0.5l-1.1-0.7
		c-0.1-0.1-0.3-0.3-0.1-0.4l0.4,0.3c0.6,0.1,1.4,0.5,2.1,0.1c-0.1-0.1-0.1-0.3-0.3-0.4c0-0.1,0.1-0.2,0.2-0.4
		c0.3,0.2,0.6,0.1,0.8,0.3c0.6-0.1,1.2-0.5,1.8-0.7h0.2c-0.1-0.6-0.5-0.9-0.6-1.5c0.1-0.1,0.2,0,0.3,0c0.2,0.1,0.5,0.3,0.4,0.5
		c0.3,0,0.2,0.4,0.4,0.4c0.6-0.9-0.2-1.7-0.3-2.6l0.1-0.1c0.4,0.3,0.5,0.7,0.7,1.1c0.1-0.2,0.2-0.4,0.3-0.7c0.2-0.2,0.2-0.8,0.6-0.6
		c-0.3,0.8-0.7,1.7-0.8,2.6c0.7-0.2,1.3-0.4,2-0.5c0.1-0.3-0.4-0.5-0.4-0.8c-0.4-0.5,0-1.4,0-2.1c-0.2-0.2-0.1-0.3-0.4-0.5
		c-0.2,0-0.2-0.3-0.4-0.1c-0.7,0.1-0.7,1-1.1,1.3c-0.4,0.4-0.4-0.2-0.9,0c-0.5,0.5-0.1,1-0.1,1.6c-0.3,0.3-0.6,0.5-1,0.6
		c0,0.4,0.4,0.8,0.3,1.2c-0.1,0.2-0.4,0.8-0.8,0.4c-0.1-0.5,0.5-1-0.1-1.3c-0.1-0.5,0.3-0.8,0.6-1.1c0.4-0.7-0.7-0.4-0.9-1
		c0-0.5,0.4-0.8,0.6-1.3c0.2-0.9-0.7-0.3-1.1-0.7c-0.2-0.3,0.1-0.5,0.2-0.8c0.1-0.3,0.1-0.4-0.1-0.6c-0.6-0.3-0.9,0.3-1.5,0.3
		C43.6,87.3,43.5,86.7,43.4,86.5L43.4,86.5z M40.3,88.4c0,0.5,0.1,1,0.4,1.3c0,0.3-0.3,0.6-0.4,0.8c-0.2-0.1-0.4-0.4-0.5-0.7
		c-0.1-0.3-0.1-0.7-0.1-1.1C39.9,88.7,40,88.5,40.3,88.4L40.3,88.4L40.3,88.4z M53.4,90.2c0,0.2,0.1,0.4,0.1,0.6
		c-0.4,0.4-1,0.4-1.4,0.6c-0.2-0.8-0.6-1.5-0.3-2.3c0.2-0.1,0.5-0.2,0.8-0.2C52.9,89.3,53.2,89.7,53.4,90.2L53.4,90.2L53.4,90.2z
		 M39.3,89.9c0.2,1,1.1,1.7,1.8,2.3l0.4,0l-0.1,1c-1.6-1-2.5-2.5-2.7-4.3C39.4,88.7,39.1,89.6,39.3,89.9L39.3,89.9L39.3,89.9z
		 M51.3,89.3c-0.1,0.9,0,1.6,0.2,2.4c-0.1,0-0.3,0.1-0.4,0.1C50.5,90.4,50.9,89.8,51.3,89.3L51.3,89.3L51.3,89.3z M53.1,91.9l0-0.4
		c-0.6,0.3-1.1,0.6-1.7,0.8l0,0.2C52,92.2,52.6,92,53.1,91.9L53.1,91.9z M36.3,97.2c-0.5-0.1-1-0.4-1.5-0.4c0-0.3,0.1-0.7,0.1-1
		C35.7,95.8,35.9,96.7,36.3,97.2L36.3,97.2L36.3,97.2z M32.8,97.6l-0.6,0.7c-0.4,0-1,0.4-1.3-0.1c0-0.4,0.1-0.7,0.1-1l0.6-0.5
		C32.1,97,32.3,97.5,32.8,97.6L32.8,97.6L32.8,97.6z M35.9,97.7c0.4,0.4,1.1-0.1,1.3,0.6c0.3,0.1,0.6,0.4,0.7,0.7
		c-0.7,0-1.5-0.3-2.2-0.3l-0.1,0.1c0.4,0.5,1.2,0.4,1.5,0.8c-0.2,0.2-1.8,0.4-3.3-0.1c-0.1,0.1-0.4,0-0.3,0.2c0.6,0.3,1,0.8,1.7,0.8
		c-0.8,0.6-1.9,0.7-2.6,1.5c0.5,0,0.9-0.4,1.4-0.6l1-0.3c0,0.5-1,1.5-0.8,2c0.6-1.2,2.3-2.8,2.6-2.8c0,0.4-0.2,0.9-0.1,1.3
		c0.1,0.1-0.1,0.2,0.1,0.3l0.1-0.1l0.6-1.7l1-0.3l1,0.4c-0.1,0.6,0.1,1.6-0.6,1.8c-0.3,0.2-0.6-0.4-0.9-0.1c-0.3,0.4-0.3,1-0.7,1.3
		c-0.2-0.1-0.6,0-0.6-0.3c0-0.3,0-0.5-0.3-0.7c-1.4,0.2-0.9,2.4-2.5,2.2c-0.2-0.6,0.4-1.9-0.7-1.9c-0.4,0.1-1,0.1-1.4,0
		c-0.2-0.2-0.3-0.5-0.2-0.7c0.2-0.4,0.8-0.4,1.1-0.7c0.4-0.1,0.5-0.4,0.7-0.7c-0.1-0.2-0.1-0.7-0.5-0.7c-0.1-0.3-0.4-0.6-0.3-1
		c0.1-0.2,0.4-0.4,0.7-0.3c0.4,0.1,0.7,0.6,1.1,0.2c0-0.5-0.4-0.9,0.1-1.3C35,97.3,35.6,97.3,35.9,97.7L35.9,97.7L35.9,97.7z
		 M33.8,97.6L33.8,97.6c-0.3,0-0.6,0.1-0.8,0.1v0c0.3,0.1,0.6,0.1,0.9,0.3C33.8,97.9,33.9,97.8,33.8,97.6L33.8,97.6z M50.2,98.8
		c-0.7,0.8-1.1,1.6-1.4,2.5c-0.2,0-0.2-0.3-0.3-0.4c0.3-0.1,0.5-0.3,0.6-0.5c0-0.4-0.4-0.7-0.3-1.2C49.3,99,49.7,98.9,50.2,98.8
		L50.2,98.8z M51.7,100.5L51.7,100.5c-0.6-0.1-0.7-0.7-1-1.2c-0.1,0.6,0.1,1.1,0,1.7c0,0.2,0.2,0.4,0,0.5c-0.4-0.5-0.4-1.1-0.6-1.6
		c-0.3,0.2-0.5,0.5-0.7,0.8c-0.4,0.5,0,1.1,0,1.7c0.1,0.2,0.1,0.4,0,0.6l-0.3-0.4c-0.1-0.2-0.1-0.5-0.3-0.6
		c-0.1,0.2-0.2,0.4-0.2,0.7c-0.3,0.5-0.3,1.2-0.4,1.8c0.5-0.3,0.7-0.8,1.1-1.2c0.4-0.1,0.6,0.6,0.9,0.3c0.1-0.6-0.1-1.1,0.2-1.6
		c0.3-0.2,0.5,0.1,0.7,0.1c0.6-0.3-0.1-0.9,0-1.4C51.3,100.5,51.5,100.6,51.7,100.5L51.7,100.5z M48.5,100L48.5,100
		c-0.1-0.2-0.3-0.4-0.3-0.6c-0.3,0-0.5,0.1-0.7,0.2c-0.1,0.6,0,1.4-0.3,2c-0.6-0.3-0.3-1.1-0.4-1.7c-0.7,0.3-0.7,1-0.8,1.7
		c0,0.5,0,1.1-0.1,1.4l-0.1-0.1c-0.2-0.4,0-1-0.2-1.4c-0.6,0.8-1,1.8-1.4,2.8c-0.1-0.1,0-0.3,0-0.4c-0.4,0.1-0.8,0-1-0.2
		c0.3,0.3,0.6,0.7,0.6,1.1c0.7,0.2,1.1-0.6,1.6-1c0.4,0.1,0.7,0.5,1.2,0.4c0.7-0.3,0.3-1.3,0.4-1.9c0.1-0.1,0.2-0.1,0.3-0.2
		c0.2-0.1,0.4,0.1,0.6,0.3c0.2,0.1,0.5,0.3,0.7,0c0.2-0.7-0.5-1.1-0.6-1.7c0.1-0.1,0.2-0.4,0.4-0.3C48.4,100.4,48.5,100.3,48.5,100
		L48.5,100z M41.6,100.5c-0.1,0.2-0.1,0.4-0.3,0.5l-1.5,0.2l0.2-1.1L41.6,100.5L41.6,100.5z M45.2,100.7l-0.1-0.4
		c-0.8,0.2-1.6,0.2-2.4,0.2c0.1,0.6,0.2,1.2,0.5,1.7l-0.1,0.1c-0.1,0-0.3-0.2-0.3-0.3c-0.4-0.2-0.3-0.8-0.5-1.1
		c-0.8,0.1-1,2.3-0.9,2.9l-0.1,0.1c-0.4-0.3-0.3-0.9-0.5-1.4c-0.3,0.5-0.5,1-0.7,1.4c-0.3,0.2-0.3,0.6-0.5,0.8
		c0.1-0.7,0.6-1.3,0.7-2c-0.5,0-1.1,0.4-1.5,0c0.7-0.5,2.1-0.1,2.2-1.2c-0.5,0-1.3-0.1-1.6,0.5c-0.3,0.4-0.7,0.1-1.1,0.1
		c0,0.3-0.1,0.5-0.2,0.7c0,0.4-0.8,0.6-0.3,1c0.3,0.1,0.7,0.1,1,0.1c0.6,0.4-0.1,1.1,0,1.6c0,0.1,0.1,0.3,0.3,0.3
		c0.7,0.4,1-0.6,1.4-0.9c0.6-0.5,1.1,0.2,1.7-0.1c0.5-0.4,0.2-1.1,0.2-1.6c0.5-0.7,0.8,0.5,1.5,0.1c1.3-0.6-0.4-1.7,0.3-2.4
		c0.3,0.1,0.6,0.3,0.9,0.2C45.1,101.1,45.2,100.9,45.2,100.7L45.2,100.7z M44.8,101.9l-0.1,0.1l-0.1-0.4
		C44.6,101.6,44.8,101.7,44.8,101.9L44.8,101.9L44.8,101.9z M48,103.6L48,104c-0.2-0.1-0.4-0.4-0.6-0.4c0-0.2-0.1-0.4-0.1-0.7
		C47.5,103.2,48.1,103,48,103.6L48,103.6L48,103.6z M37.3,89.1L37.3,89.1c-0.2,0-0.3,0.3-0.5,0.3c-0.3,0.5-0.9,0.3-1.4,0.3
		c-0.5,0-0.9-0.1-1.3,0.1c0,0.1,0.1,0.2,0.2,0.3c0.3,0.1,0.6,0.2,0.8,0.1c0.1,0.2,0.2,0.1,0.3,0.2c-0.5,0.4-0.8,1.4-1.6,1
		c-0.3,0.2-0.4-0.2-0.7,0c-0.3,0-0.8-0.3-0.9,0.1l1.5,0.5l0.1,0.1c-0.3,0.3-0.5,0.6-0.8,0.8L30.7,93c-0.1,0-0.3,0-0.3,0.2
		c0.6,0.3,1.3,0,1.9,0.2c-0.3,0.5-0.8,0.9-1.1,1.3c-0.2,0.4-0.8,0.7-0.5,1.1c0.7-0.6,1-1.5,1.7-2.1c0.4,0.6,0.2,1.4,0.6,1.9
		c0-0.8,0.1-1.7,0.1-2.6c0.3-0.4,0.7-0.7,1-1c0.2,0.8,0.2,1.8,0.8,2.5c-0.2-1-0.2-1.9-0.2-3l0.2-0.3c0.4-0.3,0.7-0.6,1.1-0.8
		c0.1,0.4,0,1,0.2,1.3l0.1,0c0-0.6,0.2-1,0.3-1.5c0-0.5,0.6-0.5,0.7-0.9C37.3,89.2,37.2,89.2,37.3,89.1L37.3,89.1z M32.6,75.6
		L32.6,75.6c-0.5-0.4-0.6-1.6-1.5-1.1c-0.4,0.4-0.3,1.2-0.2,1.8c0.2,0.8-1,0.7-1,1.5c0.1,0.6,0.8,0.8,1.1,1.2c0.4,0.6-0.5,1-0.5,1.6
		c0.4,0.6,1.1-0.1,1.6,0.2c0.5,0.4,0,0.9,0.1,1.3c1,0.3,2.1,0.2,2.9,1c-0.5-0.8-1.4-1-2.1-1.5l0-0.2c0.4,0,0.7,0.2,1.1,0.1
		c-0.6-0.8-1.6-1.1-2.3-1.7c0.6-0.3,1.1,0.1,1.7,0.3l-0.3-0.8c-0.6-0.7-1.4-1-2.1-1.5c0.4-0.3,1,0.1,1.5,0.2
		c-0.2-0.9-0.7-1.7-0.8-2.6l0.1-0.1c0.4,0.8,0.7,1.8,1.3,2.6c0-0.3,0-0.6,0.1-0.8c0.2-0.4,0.4-0.8,0.6-1.2l0.1,0.1
		c-0.4,0.9-0.3,2.1-0.4,3.1c0.3,1,0.9,1.9,1.6,2.8c0.3-0.5,0.3-1.1,0.8-1.5c0-0.2,0.1-0.4,0.3-0.6l0,0.1c-0.1,0.3-0.2,0.6-0.3,0.9
		c0,0.8-0.5,1.7-0.1,2.4c0.1,0.3,0,0.7,0.2,0.9c0,1.2,0.3,2.3,0.6,3.4c0.1,0.4,0.4,0.7,0.3,1.1h-0.1c0,0-0.1-0.1,0-0.1l-0.1,0.3
		c-0.4,0.1-0.9,0.1-1.2,0c-0.4,0-1-0.3-1.2,0.2c-0.5,0.3-0.8-0.2-1.2-0.4c0,0.6,0.1,1.1-0.1,1.6c-0.3,0.6-0.8,1-1.5,1
		c-0.1,0.3,0,0.6-0.1,0.8c-0.2,0.4-0.7,0.5-1.1,0.5c-0.2,0.2-0.6,0.4-0.5,0.8c0,0.4,0.5,0.4,0.7,0.7c0.3,0.4-0.3,0.8-0.2,1.4
		c0,0.5-0.2,1,0.2,1.4c0.8,0.3,1-0.8,1.8-0.5c0.3,0.1,0.3,0.5,0.5,0.7c0.3,0.3,0.8,0.3,1.2,0.3c0.8-0.4,0.2-1.5,0.7-2.1
		c0.3-0.1,0.7,0,0.9,0.2c0.2,0,0.6,0.1,0.8-0.1c0.4-0.9-0.3-1.8-0.1-2.8c0.2-0.4,0.7-0.1,1-0.2c0.1-0.2,0.4-0.4,0.4-0.7
		c-0.2-0.5-0.2-1-0.1-1.5c0.1,0,0.1,0.2,0.3,0.2c0.2,0.7,0.5,1.3,0.9,1.9c0.8,0.9,1.6,1.9,2.7,2.4c0.1-0.2,0.1-0.5,0.2-0.7
		c-0.8-0.6-1.6-1.4-2.3-2.2c-0.4-0.9-0.8-1.8-1-2.7c-0.5-0.2-1.1-0.6-1.3-1.1c-0.1-0.3-0.2-1,0.1-1.4h-0.1c-0.6-1.1-0.6-2.5-0.8-3.6
		c-0.1-0.8,0-1.1,0.1-1.7c0.1-0.2,0.3-0.3,0.3-0.5c0.2-0.4,0-1-0.2-1.4c-0.2,0-0.4,0.1-0.5,0.3c-0.1,0.1-0.3,0-0.4,0
		c0-1,1.3-1.8,0.4-2.8c-0.6-0.1-0.8,0.6-1.3,0.8c-0.1,0-0.3,0-0.4-0.1c-0.1-0.7,0.8-1.1,0.5-1.8c-0.1-0.4-0.5-0.5-0.7-0.7
		C33.1,74.6,33.1,75.5,32.6,75.6L32.6,75.6z M37.5,87.2l0.6,0.1c0,0-0.1,0.5,0.3,0.8c-0.2,0.1-0.5-0.1-0.5-0.1
		C37.6,87.9,37.5,87.2,37.5,87.2L37.5,87.2L37.5,87.2z M37.5,86.8c0,0.1,0.2,0.1,0.2,0.1c0.6,0,1.2,0.3,1.8,0l0.9-0.1
		c0.2,0.2,0.1,0.6,0,0.9c-0.6,0.6-1.5,0.9-2.3,0.8c-0.4-0.1-0.6-0.5-0.8-0.8C37.3,87.4,37.1,86.9,37.5,86.8L37.5,86.8L37.5,86.8z
		 M31.3,36.6L31.3,36.6c-0.2,0-0.3,0.1-0.5,0.2c-0.2,0.4,0.2,0.7,0.3,1.1c0.1,0.3,0.5,0.5,0.3,0.9c-0.3,0.9-0.9-0.2-1.4,0.1
		c-0.3,1,1.3,1,1.1,2c0.4,0.1,0.7,0.6,1.1,0.6c0.2,0,0.1-0.3,0.3-0.4c0-0.3,0.3-0.4,0.4-0.6c0.1,0,0.2,0,0.3-0.1
		c0.1-0.6-0.4-0.8-0.7-1.2c0-0.4-0.1-0.8,0.1-1.1L32,37.9C31.5,37.7,31.3,37.2,31.3,36.6z"/>
</g>
</svg>
