<?xml version="1.0" encoding="utf-8"?>
<!-- Generator: Adobe Illustrator 22.0.1, SVG Export Plug-In . SVG Version: 6.00 Build 0)  -->
<svg version="1.1" id="Слой_1" xmlns="http://www.w3.org/2000/svg" xmlns:xlink="http://www.w3.org/1999/xlink" x="0px" y="0px"
	 viewBox="0 0 127.3 127" style="enable-background:new 0 0 127.3 127;" xml:space="preserve">
<style type="text/css">
	.st0{fill:url(#SVGID_1_);}
	.st1{fill:#FFFFFF;}
	.st2{clip-path:url(#SVGID_3_);fill:#2C2C2B;}
	.st3{fill:#FFCC00;}
	.st4{fill:#009240;}
	.st5{fill:#E21C2A;}
	.st6{fill:#AC4882;}
	.st7{fill:#2C2C2B;}
	.st8{fill:#9E9FA1;}
	.st9{clip-path:url(#SVGID_5_);fill:#FFFFFF;}
	.st10{clip-path:url(#SVGID_5_);fill:#2C2C2B;}
</style>
<radialGradient id="SVGID_1_" cx="64.8" cy="2586.7468" r="62.6" gradientTransform="matrix(1 0 0 1 0 -2522.3469)" gradientUnits="userSpaceOnUse">
	<stop  offset="0.9487" style="stop-color:#212121"/>
	<stop  offset="1" style="stop-color:#606060;stop-opacity:0"/>
</radialGradient>
<circle class="st0" cx="64.8" cy="64.4" r="62.6"/>
<circle class="st1" cx="62.6" cy="62.6" r="62.6"/>
<g>
	<g>
		<defs>
			<rect id="SVGID_2_" x="19.2" y="20" width="85.1" height="84.8"/>
		</defs>
		<clipPath id="SVGID_3_">
			<use xlink:href="#SVGID_2_"  style="overflow:visible;"/>
		</clipPath>
		<path class="st2" d="M77.6,39.2c0.1,0,0.2,0.1,0.3,0.2c0.3,0.2,0.5,0.5,0.5,0.9c0,0.4-0.1,0.8-0.4,1.2c-0.3,0.4-0.5,0.7-0.7,1.1
			c-0.4,0.6-0.7,1.2-1,1.9c-0.3,0.6-0.6,1.5-0.7,2.2c0.2,0.2,0.3,0.4,0.4,0.6c0.1,0.3,0.1,0.7-0.1,1c-0.3,0.3-0.7,0.3-1.1,0.2H51
			c-0.4,0.1-0.8,0.1-1.1-0.2c-0.2-0.3-0.3-0.7-0.1-1c0.1-0.2,0.2-0.5,0.4-0.6c-0.1-0.7-0.4-1.5-0.7-2.2c-0.3-0.7-0.6-1.3-1-1.9
			c-0.2-0.4-0.5-0.8-0.7-1.1c-0.2-0.3-0.4-0.7-0.4-1.2c0-0.4,0.2-0.7,0.5-0.9c0.1-0.1,0.2-0.1,0.3-0.2c-0.3-0.3-0.5-0.6-0.5-1
			c0-0.5,0.3-0.9,0.6-1.1c-0.2-0.2-0.3-0.6-0.3-0.9c0-0.6,0.3-1,0.8-1.2c-0.2-0.2-0.2-0.5-0.2-0.8c0-0.7,0.5-1.3,1.2-1.4
			c-0.1-0.2-0.1-0.3-0.1-0.5c0-0.8,0.7-1.5,1.5-1.5c0.1,0,0.2,0,0.3,0c0-0.8,0.6-1.4,1.4-1.4c0.2,0,0.4,0,0.6,0.1
			c0.1-0.5,0.6-0.9,1.2-0.9c0.2,0,0.5,0.1,0.7,0.2c0.2-0.3,0.6-0.6,1-0.6c0.3,0,0.5,0.1,0.7,0.3c0.2-0.2,0.5-0.4,0.8-0.4
			c0.3,0,0.6,0.1,0.8,0.4c0.2-0.1,0.4-0.2,0.6-0.2c0.2,0,0.3,0.1,0.5,0.1c0-0.1,0-0.1,0.1-0.2c-0.2-0.1-0.4-0.4-0.4-0.7
			c0-0.2,0-0.3,0.1-0.4c0-0.2,0.1-0.4,0.3-0.6c0.1-0.1,0.2-0.1,0.3-0.2c0.3-0.7,0.8-1.3,1.6-1.7c0,0-0.1,0-0.1,0
			c-0.5,0-0.6-0.6-0.8-0.8c-0.2-0.3-0.7-0.4-0.7-0.8c0-0.5,0.5-0.6,0.8-0.9c0.2-0.2,0.3-0.7,0.6-0.8c0.1-0.3,0.6-0.5,0.8-0.7
			c0.3-0.3,0.3-0.8,0.8-0.8c0.5,0,0.6,0.6,0.9,0.8c0.2,0.2,0.6,0.3,0.7,0.7c0.3,0.1,0.4,0.6,0.7,0.8c0.2,0.3,0.7,0.4,0.7,0.8
			c0,0.5-0.5,0.6-0.8,0.9c-0.3,0.3-0.3,0.8-0.8,0.8c-0.1,0-0.1,0-0.1,0c0.7,0.3,1.3,0.9,1.5,1.6c0.1,0.1,0.3,0.2,0.4,0.2
			c0.2,0.1,0.3,0.3,0.3,0.5c0,0,0,0.1,0,0.1c0.1,0.1,0.1,0.2,0.1,0.3c0,0.3-0.1,0.5-0.3,0.7c0,0.1,0,0.1,0,0.2
			c0.1-0.1,0.3-0.1,0.4-0.1c0.2,0,0.5,0.1,0.6,0.2c0.2-0.2,0.5-0.4,0.8-0.4c0.3,0,0.6,0.1,0.8,0.4c0.2-0.2,0.4-0.3,0.7-0.3
			c0.4,0,0.8,0.2,1,0.6c0.2-0.1,0.4-0.2,0.7-0.2c0.6,0,1,0.4,1.2,0.9c0.2-0.1,0.4-0.1,0.6-0.1c0.8,0,1.4,0.6,1.4,1.4
			c0.1,0,0.2,0,0.3,0c0.8,0,1.5,0.7,1.5,1.5c0,0.2,0,0.4-0.1,0.5c0.7,0.1,1.2,0.7,1.2,1.4c0,0.3-0.1,0.6-0.2,0.8
			c0.5,0.2,0.8,0.7,0.8,1.2c0,0.3-0.1,0.7-0.3,0.9c0.4,0.2,0.6,0.7,0.6,1.1C78.1,38.5,77.9,38.9,77.6,39.2L77.6,39.2z M77.6,39.2"/>
	</g>
	<path class="st1" d="M71.1,45.6c0.9,0,1.8,0.2,2.6,0.4c0-0.4,0.1-0.8,0.2-1.2c-0.3,0.3-0.5,0.5-0.8,0.6c0.3-0.3,0.5-0.5,0.7-0.9
		c-0.3,0.2-0.5,0.2-0.7,0c0.4,0.2,1-0.6,1.1-1c0.1-0.3-0.1-0.2-0.3-0.1c-0.1,0.1-0.2,0.3-0.3,0.3c0,0,0-0.3-0.1-0.4
		c0-0.2-0.2-0.3-0.2-0.4c0-0.1,0.2-0.1,0.3-0.2c0.1-0.1,0.2-0.3,0.3-0.3c0,0,0,0.3,0.1,0.4c0.1,0.4,0.4,0.3,0.2-0.1
		c-0.1-0.2-0.2-0.3-0.2-0.4c0-0.1,0.2-0.1,0.3-0.2c0.1-0.1,0.3-0.3,0.3-0.3c0.1,0,0.1,0.3,0.1,0.4c0.1,0.2,0.2,0.3,0.2,0.4
		c0,0.1-0.2,0.1-0.3,0.2c-0.3,0.3-0.2,0.6,0.1,0.3c0.1-0.1,0.2-0.3,0.3-0.3c0,0,0,0.3,0.1,0.4c0.1,0.2,0.2,0.3,0.2,0.4
		c0,0.1-0.2,0.1-0.3,0.2c-0.1,0.1-0.2,0.3-0.3,0.3c0,0,0-0.3-0.1-0.4c-0.1-0.2-0.2-0.5-0.3-0.1c-0.1,0.5,0.1,1.4,0.5,1.5
		c-0.3,0-0.5-0.1-0.6-0.4c0,0.4,0.1,0.8,0.2,1.2c-0.2-0.3-0.3-0.6-0.4-1c-0.1,0.4-0.2,0.8-0.4,1.2c0.5,0.1,1,0.3,1.5,0.4
		c0.2-1.3,1.1-3,1.7-4.1c-0.1,0-0.2,0-0.3,0.1c-0.1,0.1-0.3,0.3-0.4,0.3c-0.1,0,0-0.3,0-0.4c0-0.2-0.2-0.3-0.1-0.4
		c0-0.1,0.2-0.1,0.4-0.1c0.1-0.1,0.3-0.3,0.4-0.3c0.1,0,0,0.3,0,0.4c0,0.1,0.1,0.2,0.1,0.3c0-0.1,0.1-0.2,0.2-0.3c0,0,0,0,0-0.1
		c0-0.2-0.2-0.3-0.1-0.4c0-0.1,0.2-0.1,0.4-0.1c0.1-0.1,0.2-0.2,0.3-0.2c0.5-0.9-0.1-1.5-0.7-1.5c-0.8,0.1-1.9,1.4-2.3,1.9
		c-0.2-1.4-1-3.1-2.5-3.5c-1.7-0.4-3.5,0.9-4.7,2.3c-1-1.8-2.5-3.3-4.6-3.3c-2.1,0-3.6,1.5-4.6,3.3c-1.3-1.4-3.1-2.7-4.7-2.3
		c-1.5,0.4-2.3,2.1-2.5,3.5c-0.4-0.6-1.5-1.8-2.3-1.9c-0.6-0.1-1.2,0.6-0.7,1.5c0.1,0.1,0.2,0.2,0.3,0.2c0.1,0.1,0.4,0.1,0.4,0.1
		s-0.1,0.2-0.1,0.4c0,0,0,0.1,0,0.1c0.1,0.1,0.1,0.2,0.2,0.3c0.1,0,0.1-0.1,0.1-0.3c0-0.2,0-0.4,0-0.4c0,0,0.2,0.2,0.4,0.3
		c0.1,0.1,0.3,0.1,0.4,0.1c0,0.1-0.1,0.2-0.1,0.4c0,0.2,0,0.4,0,0.4c0,0-0.2-0.2-0.4-0.3c-0.1,0-0.2-0.1-0.2-0.1
		c0.7,1.1,1.5,2.8,1.7,4.1c1-0.3,2-0.5,3-0.4c-1.2,0.1-2.9,0.5-3.3,1.2c-0.2,0.3-0.2,0.7,0,0.8c1.1-0.3,2.3-0.5,3.4-0.7
		c3-0.5,6.1-0.7,9.1-0.7c3.1,0,6.1,0.2,9.2,0.7c1.2,0.2,2.3,0.5,3.4,0.7c0.1-0.1,0.2-0.2,0.2-0.4c0-0.5-0.4-0.8-0.9-1
		C73.7,46,72.4,45.7,71.1,45.6L71.1,45.6z M71.1,45.6"/>
	<path class="st3" d="M62.9,24.8c0.1,0,0.2,0,0.3,0c0.1,0.3,0.1,0.7,0.1,1.1c-0.1-0.1-0.3-0.1-0.4-0.1c-0.2,0-0.3,0.1-0.4,0.1
		c0-0.4,0-0.9,0.1-1.1C62.7,24.8,62.8,24.8,62.9,24.8L62.9,24.8z M63.7,26.8c0.5,0.1,1.1,0.1,1.6,0.4c-0.1,0.1-0.1,0.2-0.1,0.4
		c0,0,0,0.1,0,0.1c-0.1,0-0.2-0.1-0.3-0.1c-0.5-0.2-1-0.2-1.4-0.3C63.6,27.1,63.7,27,63.7,26.8L63.7,26.8z M62.4,27.3
		c-0.5,0-1,0.1-1.4,0.3c-0.1,0-0.2,0.1-0.3,0.1c0,0,0-0.1,0-0.1c0-0.1-0.1-0.3-0.1-0.4c0.5-0.2,1.1-0.3,1.6-0.4
		C62.2,27,62.3,27.1,62.4,27.3L62.4,27.3z M64,25.1c0.6,0.3,1,0.7,1.3,1.3c-0.4-0.2-0.8-0.2-1.2-0.3C64.1,25.8,64.1,25.4,64,25.1
		L64,25.1z M65.3,28.6C65.2,28.7,65.2,28.7,65.3,28.6c-0.3,0.1-0.5,0.3-0.6,0.5c-0.1-0.1-0.2-0.2-0.4-0.2c-0.2,0-0.4,0.2-0.5,0.4
		l-0.8-0.5l-0.8,0.5c0-0.2-0.2-0.4-0.5-0.4c-0.2,0-0.3,0.1-0.4,0.2c-0.1-0.2-0.4-0.3-0.6-0.4c0,0,0-0.1-0.1-0.1c0,0,0,0,0-0.1
		c0-0.1,0.5-0.3,0.6-0.3c0.5-0.2,1.2-0.2,1.7-0.2s1.2,0.1,1.7,0.2C64.8,28.3,65.2,28.4,65.3,28.6C65.2,28.6,65.2,28.6,65.3,28.6
		L65.3,28.6z M63.7,29.8v0.1c-0.1,0-0.2,0.1-0.4,0.1L63.7,29.8z M62.5,30c-0.1,0-0.3-0.1-0.4-0.1v-0.1L62.5,30z M60.5,26.3
		c0.3-0.6,0.7-1,1.3-1.3c-0.1,0.3-0.1,0.7-0.1,1C61.3,26.1,60.9,26.2,60.5,26.3L60.5,26.3z M62.5,24.5c0.1-0.3,0.3-0.6,0.3-0.9
		c0.1-0.7-0.5-0.3-0.8,0c-0.2,0.2-0.4,0.7-0.5,0.7c-0.1,0-0.3-0.5-0.5-0.7c-0.2-0.2-0.6-0.4-0.6-0.5s0.4-0.3,0.6-0.5
		c0.2-0.2,0.4-0.7,0.5-0.7c0.1,0,0.3,0.5,0.5,0.7c0.6,0.7,1,0.2,0.4-0.4c-0.2-0.2-0.6-0.4-0.6-0.5s0.5-0.3,0.7-0.5
		c0.2-0.2,0.4-0.7,0.5-0.7c0.1,0,0.3,0.5,0.5,0.7c0.2,0.2,0.6,0.4,0.6,0.5s-0.5,0.3-0.7,0.5c-0.7,0.7-0.1,1,0.5,0.4
		c0.2-0.2,0.3-0.7,0.5-0.7s0.3,0.5,0.5,0.7c0.2,0.2,0.6,0.4,0.6,0.5s-0.4,0.3-0.6,0.5c-0.2,0.2-0.4,0.7-0.5,0.7s-0.3-0.5-0.5-0.7
		c-0.3-0.3-0.8-0.6-0.8,0.1c0,0.2,0.1,0.5,0.3,0.8c0,0.1,0,0.1,0.1,0.1c-0.1,0-0.1,0.1-0.1,0.1c-0.1,0-0.2,0-0.4,0s-0.2,0-0.4,0
		C62.5,24.6,62.5,24.5,62.5,24.5C62.4,24.5,62.4,24.5,62.5,24.5L62.5,24.5z M66,27c0,0,0-0.1-0.1-0.1c-0.6-0.4-1.4-0.6-2-0.6
		c0-0.4,0-1.1-0.1-1.5c-0.1-0.2-0.3-0.1-0.3,0c0.1,0.3,0.1,0.9,0.1,1.4c0.1,0.1,0.1,0.3,0.2,0.4c0.6,0.1,1.2,0.2,1.7,0.4
		c0.1,0,0.2-0.1,0.3-0.1C65.8,26.9,65.9,27,66,27L66,27z M62.9,27.8c0.7,0,1.3,0.1,1.8,0.3c0.4,0.1,0.7,0.3,0.7,0.5
		c0,0.2,0.3,0.2,0.3-0.1c-0.1-0.3-0.4-0.6-0.9-0.8c-0.5-0.2-1.2-0.3-1.9-0.3c-0.7,0-1.4,0.1-1.9,0.3c-0.5,0.2-0.9,0.4-0.9,0.8
		c0,0.2,0.3,0.3,0.3,0.1c0-0.2,0.3-0.4,0.7-0.5C61.6,27.9,62.2,27.8,62.9,27.8L62.9,27.8z M59.9,27c0,0,0-0.1,0.1-0.1
		c0.5-0.4,1.3-0.6,2-0.6c0-0.5,0-1,0.1-1.5c0.1-0.2,0.3-0.2,0.3,0c-0.1,0.4-0.1,0.9-0.1,1.4c-0.1,0.1-0.1,0.3-0.2,0.4
		c-0.6,0.1-1.2,0.2-1.7,0.4c-0.1,0-0.2,0-0.3,0C60,26.9,60,27,59.9,27L59.9,27z M64.7,30.6L64.7,30.6c6.2-2.3,10.9,3,10.9,8.1
		l0.8,0.6c-0.1,0.1-0.3,0.2-0.4,0.3l-0.8-0.7v-0.2c0-2.6-1.3-5.3-3.4-6.9c-2.3-1.7-4.7-1.6-7-0.8C64.8,30.9,64.7,30.7,64.7,30.6
		L64.7,30.6z M49.5,39.3l0.8-0.6c-0.1-5.1,4.6-10.4,10.8-8.1l0.1,0.1c0,0.1,0,0.3,0,0.4c-2.3-0.8-4.7-0.9-7,0.8
		c-2.1,1.6-3.4,4.3-3.4,6.9v0.2l-0.8,0.7C49.7,39.5,49.6,39.4,49.5,39.3L49.5,39.3z M61.4,29.4c0,2.4-0.5,4.7-1.1,6.8l0.8,0.6
		c0.2-0.1,0.5-0.2,0.7-0.2L61,35.9c0.5-2,0.9-4.4,0.9-6.6c0-0.2-0.1-0.3-0.3-0.3C61.5,29.1,61.4,29.2,61.4,29.4L61.4,29.4z
		 M64.5,29.4c0,2.4,0.5,4.7,1.1,6.8l-0.8,0.6c-0.2-0.1-0.5-0.2-0.7-0.2l0.9-0.6c-0.5-2-0.9-4.4-0.9-6.6c0-0.2,0.1-0.3,0.3-0.3
		C64.4,29.1,64.5,29.2,64.5,29.4L64.5,29.4z M61.9,32.5l0.8,0.5l-1,0.6C61.8,33.1,61.8,32.8,61.9,32.5L61.9,32.5z M61.6,34l1.1,0.6
		l-1.4,0.8C61.4,35,61.5,34.5,61.6,34L61.6,34z M62.1,29.8l0.6,0.3l-0.6,0.4C62.1,30.3,62.1,30,62.1,29.8L62.1,29.8z M62,31.1
		l0.7,0.4L62,31.9C62,31.6,62,31.3,62,31.1L62,31.1z M64.5,35.5l-1.4-0.8l1.1-0.6C64.3,34.5,64.4,35,64.5,35.5L64.5,35.5z
		 M64.1,33.5l-1-0.6l0.8-0.5C64,32.8,64.1,33.1,64.1,33.5L64.1,33.5z M63.9,31.9l-0.8-0.5l0.7-0.4C63.8,31.3,63.9,31.6,63.9,31.9
		L63.9,31.9z M63.8,30.5l-0.6-0.4l0.6-0.3C63.7,30,63.7,30.3,63.8,30.5L63.8,30.5z M63.8,30.5"/>
	<path class="st1" d="M49.1,39c-0.5,0-0.9-0.4-0.9-0.9c0-0.5,0.4-0.9,0.9-0.9s0.9,0.4,0.9,0.9C50,38.6,49.6,39,49.1,39L49.1,39z
		 M60.6,30.1c-0.3,0-0.6-0.3-0.6-0.6c0-0.3,0.3-0.6,0.6-0.6c0.3,0,0.6,0.3,0.6,0.6C61.1,29.9,60.9,30.1,60.6,30.1L60.6,30.1z
		 M59.2,29.9c-0.3,0-0.6-0.3-0.6-0.6c0-0.3,0.3-0.6,0.6-0.6c0.3,0,0.6,0.3,0.6,0.6C59.8,29.6,59.5,29.9,59.2,29.9L59.2,29.9z
		 M57.8,29.8c-0.4,0-0.6-0.3-0.6-0.6c0-0.4,0.3-0.6,0.6-0.6c0.4,0,0.6,0.3,0.6,0.6C58.4,29.5,58.1,29.8,57.8,29.8L57.8,29.8z
		 M56.2,30c-0.4,0-0.7-0.3-0.7-0.7c0-0.4,0.3-0.7,0.7-0.7s0.7,0.3,0.7,0.7C56.9,29.7,56.6,30,56.2,30L56.2,30z M54.6,30.6
		c-0.4,0-0.8-0.4-0.8-0.8c0-0.4,0.4-0.8,0.8-0.8c0.4,0,0.8,0.4,0.8,0.8C55.4,30.2,55,30.6,54.6,30.6L54.6,30.6z M52.9,31.6
		c-0.5,0-0.9-0.4-0.9-0.9c0-0.5,0.4-0.9,0.9-0.9s0.9,0.4,0.9,0.9C53.8,31.2,53.4,31.6,52.9,31.6L52.9,31.6z M51.2,33.2
		c-0.6,0-1-0.5-1-1c0-0.6,0.5-1,1-1c0.6,0,1,0.5,1,1C52.3,32.7,51.8,33.2,51.2,33.2L51.2,33.2z M50,35.1c-0.6,0-1-0.5-1-1
		c0-0.6,0.5-1,1-1c0.6,0,1,0.5,1,1C51.1,34.6,50.6,35.1,50,35.1L50,35.1z M49.4,37c-0.5,0-0.9-0.4-0.9-0.9s0.4-0.9,0.9-0.9
		c0.5,0,0.9,0.4,0.9,0.9C50.3,36.6,49.9,37,49.4,37L49.4,37z M76.7,39c0.5,0,0.9-0.4,0.9-0.9c0-0.5-0.4-0.9-0.9-0.9
		s-0.9,0.4-0.9,0.9C75.8,38.6,76.2,39,76.7,39L76.7,39z M65.3,30.1c0.3,0,0.6-0.3,0.6-0.6c0-0.3-0.3-0.6-0.6-0.6s-0.6,0.3-0.6,0.6
		C64.7,29.9,65,30.1,65.3,30.1L65.3,30.1z M66.6,29.9c0.3,0,0.6-0.3,0.6-0.6c0-0.3-0.3-0.6-0.6-0.6c-0.3,0-0.6,0.3-0.6,0.6
		C66.1,29.6,66.3,29.9,66.6,29.9L66.6,29.9z M68.1,29.8c0.3,0,0.6-0.3,0.6-0.6c0-0.4-0.3-0.6-0.6-0.6c-0.4,0-0.6,0.3-0.6,0.6
		C67.4,29.5,67.7,29.8,68.1,29.8L68.1,29.8z M69.6,30c0.4,0,0.7-0.3,0.7-0.7c0-0.4-0.3-0.7-0.7-0.7s-0.7,0.3-0.7,0.7
		C68.9,29.7,69.2,30,69.6,30L69.6,30z M71.2,30.6c0.4,0,0.8-0.4,0.8-0.8c0-0.4-0.4-0.8-0.8-0.8s-0.8,0.4-0.8,0.8
		C70.5,30.2,70.8,30.6,71.2,30.6L71.2,30.6z M73,31.6c0.5,0,0.9-0.4,0.9-0.9c0-0.5-0.4-0.9-0.9-0.9S72,30.2,72,30.7
		C72,31.2,72.4,31.6,73,31.6L73,31.6z M74.6,33.2c0.6,0,1-0.5,1-1c0-0.6-0.5-1-1-1c-0.6,0-1,0.5-1,1C73.6,32.7,74,33.2,74.6,33.2
		L74.6,33.2z M75.8,35.1c0.6,0,1-0.5,1-1c0-0.6-0.5-1-1-1s-1,0.5-1,1C74.8,34.6,75.2,35.1,75.8,35.1L75.8,35.1z M76.4,37
		c0.5,0,0.9-0.4,0.9-0.9s-0.4-0.9-0.9-0.9s-0.9,0.4-0.9,0.9C75.5,36.6,75.9,37,76.4,37L76.4,37z M76.4,37"/>
	<path class="st4" d="M62.9,33.1l-1.2,0.7l1.2,0.7l1.2-0.7L62.9,33.1z M62.9,30.3l-0.9,0.5l0.9,0.5l0.9-0.5L62.9,30.3z M62.9,27.2
		c-0.3,0-0.6-0.3-0.6-0.6c0-0.3,0.3-0.6,0.6-0.6c0.3,0,0.6,0.3,0.6,0.6C63.5,27,63.2,27.2,62.9,27.2L62.9,27.2z M62.9,27.2"/>
	<path class="st5" d="M62.9,34.8l-1.7,1l1,0.6c0.4-0.1,0.9-0.1,1.3,0l1-0.6L62.9,34.8z M62.9,31.6l-1,0.6l1,0.6l1-0.6L62.9,31.6z
		 M62.9,29.1l-0.8,0.5l0.8,0.5l0.8-0.5L62.9,29.1z M60.1,27.2c0.2,0,0.3,0.1,0.3,0.4c0,0.2-0.1,0.4-0.3,0.4c-0.2,0-0.4-0.2-0.4-0.4
		C59.8,27.3,59.9,27.2,60.1,27.2L60.1,27.2z M65.7,27.2c0.2,0,0.4,0.1,0.4,0.4c0,0.2-0.2,0.4-0.4,0.4c-0.2,0-0.4-0.2-0.4-0.4
		C65.4,27.3,65.5,27.2,65.7,27.2L65.7,27.2z M65.7,27.2"/>
	<path class="st6" d="M53.1,37.6L53.1,37.6c-0.3-1.2-0.3-2.1,0.2-3.2c-0.1,1.1-0.2,2,0.3,2.9l0.1,0.1c0.1,0,0.2,0,0.3,0
		c0.7,0,1.3,0.1,1.9,0.4c0.6-0.7,1.6-1.4,2.6-1.4c-1,0.3-1.6,0.8-2,1.7c0.4,0.3,0.8,0.5,1.2,0.8c0.2,0.2,0.4,0.4,0.6,0.5
		c0.6-1,1.4-1.9,2.4-2.5l-0.9-0.6l0.1-0.3c0.4-1.5,0.7-2.9,0.9-4.4c-1.6-0.3-2.8,0.9-3.7,2c-0.5,0.5-1,0.2-0.9-0.4
		c0.1-0.7,0.7-1.4,1.3-1.6c-0.4,0.4-0.9,1.1-0.9,1.6c0,0.2,0.1,0.3,0.3,0c0.8-1.1,2-1.9,3.4-2c-1.9-0.6-4-0.5-5.9,0.9
		c-2,1.5-3.2,4-3.2,6.5v0.4l-0.9,0.7c0.2,0.2,0.4,0.4,0.6,0.6C51.2,39.2,51.9,38,53.1,37.6L53.1,37.6z M72.8,37.6L72.8,37.6
		c0.3-1.2,0.3-2.1-0.2-3.2c0.1,1.1,0.2,2-0.3,2.9l-0.1,0.1c-0.8-0.1-1.5,0.1-2.2,0.4c-0.6-0.7-1.6-1.4-2.6-1.4
		c1,0.3,1.6,0.8,2.1,1.7c-0.4,0.3-0.8,0.5-1.2,0.8c-0.2,0.2-0.4,0.4-0.6,0.5c-0.6-1-1.4-1.9-2.4-2.5l0.9-0.6L66,36.1
		c-0.4-1.5-0.8-3-0.9-4.6c1.7-0.4,2.8,1,3.7,2.1c0.5,0.5,1,0.2,0.9-0.4c-0.1-0.7-0.7-1.4-1.3-1.6c0.4,0.4,0.9,1.1,0.9,1.6
		c0,0.2-0.1,0.3-0.3,0c-0.8-1-1.8-1.9-3-2.1c1.8-0.5,3.7-0.3,5.5,1.1c2,1.5,3.2,4,3.2,6.5v0.4l0.9,0.7c-0.2,0.2-0.4,0.4-0.6,0.6
		C74.7,39.2,73.9,38,72.8,37.6L72.8,37.6z M72.8,37.6"/>
	<path class="st7" d="M76.2,91.6c-1.3,0.6-2.6,1.2-3.9,1.7c-1.6,0.6-3.3,1.1-4.9,1.6c-1.8,0.5-3.1,1-4.1,2.7l-0.4,0.7l-0.4-0.7
		c-1-1.7-2.2-2.2-4.1-2.7c-1.7-0.5-3.3-1-4.9-1.6c-1.3-0.5-2.6-1-3.9-1.7c-1.4-0.6-2.9-1.4-3.8-2.6c-1.1-1.4-1.4-3.1-1.4-4.8l0-26
		c0-2.6-0.5-5.5-1.7-7.9l-0.2-0.4l0.5-0.2c1.1-0.4,2.1-0.8,3.2-1.2c2.5-0.8,5-1.5,7.5-2c3-0.5,6.1-0.7,9.1-0.7
		c3.1,0,6.1,0.2,9.2,0.7c2.6,0.5,5.1,1.1,7.5,2c1.1,0.4,2.2,0.8,3.2,1.2l0.5,0.2l-0.2,0.4c-1.2,2.4-1.7,5.2-1.7,7.9l0,26
		c0,1.7-0.3,3.4-1.4,4.8C79,90.2,77.6,91,76.2,91.6L76.2,91.6z M76.2,91.6"/>
	<path class="st3" d="M62.9,97.3c1-1.8,2.4-2.4,4.3-2.9c3.2-0.9,5.8-1.8,8.7-3.2c3.2-1.4,5-2.9,5-7l0-26c0-2.7,0.5-5.6,1.7-8.1
		c-5.8-2.2-11.3-3.9-19.8-3.9c-8.4,0-13.9,1.6-19.8,3.9c1.2,2.4,1.7,5.3,1.7,8.1l0,26c0,4,1.7,5.5,5,7c2.9,1.5,5.6,2.3,8.7,3.2
		C60.6,95,61.9,95.5,62.9,97.3L62.9,97.3z M62.9,97.3"/>
	<path class="st7" d="M63.2,50.8c0.1-0.3,0.4-0.6,0.8-0.6c0.4,0,0.8,0.3,0.9,0.7c0.2-0.1,0.4-0.2,0.6-0.2c0.6,0,1.2,0.5,1.2,1.2
		c0,0.1,0,0.3-0.1,0.4c1.2,0.8,2.3,2.3,2.7,3.7c0.3,0.2,0.6,0.5,0.9,0.8l1-0.6v0c0-0.4,0.1-0.8,0.4-1c0.3-0.2,0.6-0.2,0.8-0.1
		l0.7-0.5c0,0,0-0.1-0.1-0.1c-0.4-0.6-1.1-0.7-1.7-0.4c-0.6,0.4-0.7,1.2-0.6,1.9c-0.4-0.5-0.8-0.9-1-1.5c-0.2-0.7-0.3-1.4-0.1-2.1
		c0.2-1,0.8-1.9,1.7-2.5c1.5-1,3.5-0.8,4.8,0.4c0.4,0.4,0.6,0.7,0.8,1.2c-0.4-0.1-0.8-0.1-1.2,0.2c-0.5,0.3-0.7,1.1-0.4,1.7
		c0.4-0.3,0.7-0.8,0.9-1.2c1.6-0.1,3.1-0.7,4.5-1.2c-1.1,1.1-2.2,2.2-2.9,3.7c-0.5,0-1,0.1-1.5,0.4c0.6,1.2,0.6,2.5,0,3.6
		c-0.5,1-1,1.4-1.9,1.8c0.3-0.5,0.5-0.9,0.4-1.5c0-0.8-0.3-1.8-0.7-2.5l-0.7,0.5c0,0.3-0.2,0.5-0.4,0.7c-0.3,0.2-0.8,0.2-1.1,0l0,0
		l-0.9,0.6c0.5,0.8,0.8,1.7,0.8,2.6c-0.2-0.4-0.4-0.6-0.8-0.8c0.5,1,0.6,2,0.4,3.1c-0.1,1-0.3,2-0.5,3c-0.2,1.6-0.2,3.6,0.4,5.1
		c0.8,1.1,1.2,2.5,1.2,3.8c0,1.4-0.6,2.9-0.2,4.3c-0.4-0.1-0.8-0.3-1-0.6c0.2,1.1-0.2,2.2-0.4,3.2c-0.3,1.1-0.4,2,0,3
		c0.6,1.7,0.9,3.4,0.2,5.1c-0.5,1.2-1.6,2.1-2.8,2.7c-0.6,0.3-1.3,0.5-1.9,0.4c-0.4,0.2-0.7,0.4-0.9,0.8c-0.1,0.2-0.2,0.1-0.2,0
		c0-0.4,0.1-0.8,0.4-1c-0.1-0.1-0.2-0.1-0.2-0.2c-0.4,0.1-0.8,0.3-1.2,0.6c-0.2,0.2-0.2,0.1-0.2-0.1c0.1-0.5,0.4-0.9,0.8-1.1
		c-0.1-0.1-0.1-0.1-0.1-0.2c-0.4,0.1-0.7,0.2-1.1,0.4c-0.3,0.1-0.2,0-0.2-0.1c0.2-0.4,0.6-0.8,1-1c0-0.1,0-0.2,0-0.2
		c-0.3,0-0.6,0.1-0.9,0.2c-0.3,0.1-0.3,0-0.2-0.1c0.3-0.4,0.8-0.7,1.3-0.9c0.2-0.4,0.6-0.5,1-0.6c0.3-0.1,0.7-0.1,0.9-0.4
		c0.3-0.3,0.3-0.7,0-1.1c-1.1-1.1-2-2.3-2.1-4.2c-0.7-0.3-1.1-0.9-1.3-1.6c-0.1,0.9-0.5,1.7-1.1,2.3c-0.3,0.7-0.5,1.5-0.6,2.3
		c-0.2,1.3-0.7,2.4-1.4,3.3c-1.4,1.8-5.6,0.9-6.4-1.1c-0.3-0.2-0.7-0.3-1.2-0.4c-0.2,0-0.1-0.1-0.1-0.2c0.3-0.2,0.7-0.3,1.1-0.2
		c0-0.1,0-0.2,0-0.3c-0.3-0.3-0.8-0.5-1.2-0.7c-0.2-0.1-0.1-0.1,0-0.2c0.5-0.2,1-0.2,1.4,0.1c0-0.1,0.1-0.2,0.1-0.2
		c-0.3-0.3-0.6-0.5-0.9-0.7c-0.2-0.1-0.1-0.2,0-0.2c0.5-0.1,1,0.1,1.4,0.4c0.1,0,0.1-0.1,0.2-0.1c-0.2-0.3-0.4-0.5-0.7-0.7
		c-0.2-0.2-0.1-0.2,0-0.2c0.5,0,1,0.3,1.4,0.7c0.4,0,0.8,0.2,1.1,0.6c0.2,0.2,0.4,0.4,0.7,0.5c0.1-0.1,0-0.3,0-0.5
		c-0.3-1.1-0.3-2.4,0-3.5c-0.5-0.8-0.7-1.5-0.7-2.4c0-2.5,1.5-5,3.1-6.8c-0.4-1-0.6-2.1-0.7-3.2c-0.5-0.2-1-0.5-1.4-0.9
		c-1,0.2-2-0.1-2.9-0.4c-0.1,0.5-0.4,0.9-0.8,1.2c0.1,0.3,0.2,0.5,0.4,0.8c0.1,0.1,0,0.1-0.1,0.1c-0.4,0-0.8-0.2-0.9-0.6
		c-0.1,0-0.1,0-0.2,0.1c-0.1,0.4,0,0.7,0.1,1.1c0,0.2,0,0.2-0.1,0.1c-0.4-0.2-0.7-0.7-0.6-1.2c-0.1,0-0.1,0-0.2,0
		c-0.2,0.4-0.2,0.8-0.2,1.2c0,0.2-0.1,0.2-0.1,0.1c-0.4-0.4-0.5-1-0.3-1.5c0,0-0.1,0-0.1-0.1l-0.1,0.1c-0.1,0.2-0.3,0.4-0.4,0.7
		c-0.1,0.2-0.1,0.2-0.2,0.1C51,71.2,51,71.1,51,71l-1.1,0.7c-0.2,0.2-0.4,0.4-0.5,0.7l-0.1,0.3L49,72.6c-0.4-0.1-0.7-0.3-0.9-0.6
		c-0.2-0.3-0.3-0.7-0.2-1.1l0.1-0.3l0.3,0c0.3,0,0.5,0,0.8-0.2l1.8-1.2c-0.1-0.5,0.1-0.9,0.3-1.4c0.8-1.7,3.1-3.1,4.9-3.5
		c-1.3-1.5-2.2-3.5-2.6-5.3c-1.2-0.5-2.6-1.4-2.9-2.7c-0.3,0-0.7,0-1,0.1c-0.2,0-0.2,0-0.1-0.1c0.2-0.4,0.6-0.6,1.1-0.6
		c0-0.1,0-0.2,0-0.2c-0.3-0.2-0.7-0.3-1-0.3c-0.2,0-0.1-0.1-0.1-0.1c0.4-0.2,0.9-0.3,1.3-0.1c0.1-0.1,0.1-0.2,0.2-0.2
		c-0.2-0.2-0.5-0.4-0.8-0.5c-0.2-0.1-0.1-0.1,0-0.2c0.5-0.2,1-0.1,1.4,0.2c0.1,0,0.2-0.1,0.3-0.1c-0.1-0.2-0.2-0.4-0.4-0.6
		c-0.2-0.2-0.1-0.2,0-0.2c0.6,0,1.1,0.4,1.4,1c0.1,0.1,0.2,0.1,0.3,0.2c0.4,0.3,0.6,0.6,0.9,0.9c0.5,0.5,1.2,0.8,1.8,1.1
		c0.7,0.4,1.3,1,1.8,1.6c0.5,0.6,1,1.4,1.6,1.7c0.2,0.1,0.5,0.1,0.7,0.1c0.6-0.1,0.9-0.6,0.3-1c-0.4-0.3-0.7-0.6-0.9-1.2
		c-0.3-0.9-0.3-1.4-1.3-1.7c-0.7-0.2-1.5-0.5-1.5-1.3c0-0.3,0.1-0.4,0.4-0.2c0.5,0.3,0.9,0.3,1.5,0.2c-1-0.3-2.2-0.8-2.2-2.1
		c-0.1-0.3-0.2-0.7,0-0.9c0.3-0.3,0.7-0.2,1,0c0.5,0.1,1.1,0.2,1.6,0c0.4-0.1,0.3-0.6,0.7-0.8C60.5,50.5,62.1,50.5,63.2,50.8
		L63.2,50.8z M63.2,50.8"/>
	<path class="st8" d="M51.6,68.8c0.6-0.2,1.6-0.4,2.6-0.2c1,0.2,1.8,0.6,2.8,0.6c-0.5-0.1-0.9-0.1-1.3-0.3c-0.2,0-0.2-0.2,0-0.3
		c0.2-0.1,0.3-0.2,0.4-0.3c-0.6,0.2-1.2,0.3-1.8,0.1c-0.1,0-0.1-0.2,0-0.2c0.1-0.1,0.2-0.3,0.2-0.4c-0.4,0.4-1,0.5-1.6,0.6
		C52.5,68.4,52.1,68.5,51.6,68.8L51.6,68.8z M56.3,64.8c1.7-0.3,3.5-0.5,5.2,0c1.1-1.2,2.5-2.1,4.1-2.3c-1.3,0.5-2.6,1.2-3.4,2.4
		c0.6,0.2,1.1,0.4,1.6,0.9C61.5,64.9,58.9,64.7,56.3,64.8L56.3,64.8z M58.8,64.1c0.3-0.7,0.8-1.1,1.5-1.3c-0.3-0.1-0.8-0.1-1,0.1
		c0.3-0.8,0.8-1,1.6-1.2c-0.2-0.1-0.6-0.1-0.8-0.1c0.4-0.8,1.2-0.9,1.6-0.9c-0.2-0.1-0.6-0.2-0.9-0.1c0.4-0.5,0.5-1.1,0.1-1.7
		c0.2,0.8-0.1,1.2-0.7,2c-0.7,1-1.6,2-1.7,3.2L58.8,64.1z M52.2,54.8c-0.8-0.1-1.2,0.6-1.1,1.3c0.1-0.5,0.5-0.9,1-0.9
		c0.7-0.1,1.2,0.8,1.3,1.4c0.2,0.8,0.4,1.6,0.6,2.5c0.2,0.9,0.5,1.9,0.9,2.7c-0.2-0.7-0.4-1.5-0.5-2c0.2,0.2,0.6,0.3,0.8,0.3
		c-0.7-0.4-1.2-1.3-1.3-2.1c0.2,0.2,0.7,0.3,0.9,0.4c-0.7-0.4-1-0.8-1.2-1.7C53.5,55.7,53,54.8,52.2,54.8L52.2,54.8z M60.3,60.2
		c-0.5,0.1-1.1,0-1.5-0.3c0.2,0.4,0.7,0.6,1.2,0.7L60.3,60.2z M59.9,72.7c0.8,1.9,1.7,3.9,3.1,5.3l0,0.7
		C61.6,77,60.5,74.7,59.9,72.7L59.9,72.7z M59.2,70c1.5,0.8,4,0.2,5.1-0.6c-0.1,0.6,0.2,0.9,0.5,1.3c0-0.7,0.8-1.2,1.1-1.8
		c1.2-0.8,2.1-2,2.1-3.3C68,66,67.8,66.7,67.5,67c0-0.2-0.1-0.6-0.3-0.8c0.2,0.9-0.5,1.7-1,2c0.1-0.4-0.1-0.8-0.2-1.1
		c0.1,0.6,0,1.1-0.2,1.5c-0.3,0.6-0.7,0.8-1,1.3c-0.3-0.3-0.1-1-0.1-1.6c-0.2,0.7-1,1.2-1.6,1.3c0.1-0.2,0.2-0.6,0.1-0.8
		c-0.3,0.7-1.1,1.1-1.8,1.1c0.3-0.2,0.4-0.5,0.3-0.8C61.4,70.1,60.2,70.2,59.2,70L59.2,70z M65.8,73.6c-2.5,1.6-2.8,5.3-2,7.9
		c-0.1-1-0.1-2.3,0.7-3c-0.4,0.1-0.7,0.3-0.9,0.6c0.1-1.2,0.5-2,1.2-2.5c-0.3,0-0.7,0.2-0.9,0.5c0.1-0.9,0.7-1.6,1.4-1.9
		c-0.2,0-0.5,0-0.7,0.1C64.8,74.7,65.4,74,65.8,73.6L65.8,73.6z M65.2,90.7c0,0.6,0.3,1,0.8,1.3c-0.7-0.8-0.8-2.2,0.7-2.3
		c-0.2-0.1-0.4-0.1-0.7-0.1C65.5,89.7,65.2,90.1,65.2,90.7L65.2,90.7z M54.4,88c-0.3-0.5,0.1-1.1,0.5-1.5c0.6-0.5,1.2-0.2,1.4,0.4
		c0.5,1.2,0.9,2.7,2.3,3.1c-1.1,0.1-2.2-1.6-2.6-2.6c-0.1-0.3-0.3-0.7-0.8-0.6C54.7,87,54.3,87.5,54.4,88L54.4,88z M61.2,53.7
		c0.3,0.1,0.7,0,0.9-0.3c-0.1,0-0.2,0-0.4-0.1C61.6,53.5,61.4,53.6,61.2,53.7L61.2,53.7z M60,53.1c0,0.2,0,0.3,0,0.4
		c0,0.1,0.1,0.2,0.2,0.2c0.2,0,0.4,0,0.6,0C60.5,53.6,60.2,53.4,60,53.1L60,53.1z M61.1,52.5c0.3,0.4,0.6,0.6,1.2,0.7
		c-0.4-0.2-0.7-0.4-0.9-0.8c-0.1-0.2-0.3-0.4-0.4-0.6c0.1-0.2,0.3-0.2,0.5-0.2c-0.3-0.3-0.9-0.1-1.2,0.2
		C60.7,51.9,60.9,52.3,61.1,52.5L61.1,52.5z M64.3,51.5c-1.2-0.6-3-0.9-4.2-0.4c-0.2,0.1-0.3,0.2-0.4,0.3c-0.1,0.2-0.2,0.4-0.4,0.5
		c-0.5,0.2-1.2,0.1-1.7,0.1c0.5,0.2,1,0.2,1.5,0.2c0.6,0,0.8-0.4,1-0.9C61.1,50.8,63.2,51.2,64.3,51.5L64.3,51.5z M58.4,55.7
		c-0.3-0.1-0.6-0.3-0.8-0.5c-0.1-0.1-0.2-0.3,0.1-0.3c-0.2,0-0.4-0.1-0.5-0.1c-0.1-0.1-0.3-0.1-0.2,0.1c0,0.2,0.2,0.3,0.3,0.5
		C57.6,55.5,58,55.5,58.4,55.7L58.4,55.7z M59.4,55c-0.2-0.6-0.8-0.8-1.3-0.9c-0.7-0.2-1.3-0.6-1.2-1.4c-0.1-0.1-0.2-0.2-0.2-0.4
		c0-0.1,0.1-0.2,0.2-0.1c0.1,0.1,0.1,0.2,0.1,0.3c0,0.1,0.2,0.1,0.2,0c0.1-0.3-0.1-0.6-0.4-0.7c-0.2-0.1-0.5,0-0.5,0.3
		c0,0.2,0.1,0.4,0.2,0.6c0,0.9,0.8,1.5,1.4,1.6C58.6,54.4,59.1,54.4,59.4,55L59.4,55z M64.7,51.7c0.3-0.7,1.3-0.8,1.5,0
		c0.1,0.4,0,0.8-0.3,1.2c-0.2,0.2-0.6,0-0.3-0.3c0.1-0.1,0.2-0.3,0.2-0.5c0-0.3-0.1-0.5-0.3-0.6C65.2,51.5,64.9,51.6,64.7,51.7
		L64.7,51.7z M59.8,54.3c0.2,0.1,0.4,0.3,0.4,0.6c0.1,0.3-0.1,0.7-0.4,0.8c-0.2,0-0.4,0-0.5-0.3c0.1,0.1,0.1,0.1,0.2,0.1
		c0.3-0.1,0.5-0.5,0.4-0.8C60,54.6,59.9,54.4,59.8,54.3L59.8,54.3z M65.9,83.5c1.5-0.3,3.1-1.5,3-3.2c-0.1,0.4-0.3,1.1-0.6,1.3
		c0-0.2,0-0.7-0.1-0.8c0,1-0.4,1.5-1,1.9c0.1-0.3,0.1-0.8,0-1C67.1,82.4,66.7,83,65.9,83.5L65.9,83.5z M58.4,82.8
		c1.6-0.2,3.2-1.3,3.3-3c-0.1,0.4-0.4,1-0.7,1.3c0-0.2,0-0.7-0.1-0.8c-0.1,1-0.5,1.5-1.2,1.8c0.2-0.3,0.1-0.8,0.1-1
		C59.7,81.9,59.3,82.4,58.4,82.8L58.4,82.8z M58.8,56c0.5,0.2,0.7,0.9,0.9,1.4c0.2,0.5,0.5,1,1,1.2c-0.7-0.7-0.6-1.6,0-2
		c-0.4,0.2-0.6,0.5-0.7,0.7C59.8,56.7,59.5,56.1,58.8,56L58.8,56z M61.6,59c1.2,0.2,2.4-0.2,3.2-1.1c0.7-0.8,1.3-2.1,0.6-3.2
		c0.1,0.5,0.2,1.2-0.2,1.7c-0.1-0.3-0.3-0.5-0.6-0.6c0.5,0.5,0.5,1.7-0.3,2.2c0.1-0.5,0-0.9-0.4-1.1c0.4,0.7,0.1,1.6-0.9,2
		c0.2-0.3,0.3-0.6,0.2-1C63,58.5,62.5,58.9,61.6,59L61.6,59z M61.6,59"/>
	<path class="st5" d="M71.9,56.9l-11.2,7.3c-0.4-0.1-0.8-0.1-1.1-0.1l12-7.8C71.9,56,72.4,56.6,71.9,56.9L71.9,56.9z M53.4,69
		l-3.6,2.4c-0.3,0.2-0.5,0.5-0.6,0.8c-0.3-0.1-0.5-0.2-0.7-0.4c-0.1-0.2-0.2-0.5-0.1-0.8c0.4,0,0.7,0,1-0.2l2.3-1.5l0.1-0.1
		C52.2,69,52.8,69,53.4,69L53.4,69z M53.4,69"/>
	<path class="st1" d="M75.9,54.8c0.8,1.5,0.5,3.5-0.8,4.6c0.3-1-0.3-2.7-0.7-3.6L75.9,54.8z M75.9,54.8"/>
	<path class="st1" d="M73.3,56.3c0-0.1-0.1-0.2-0.1-0.2l2.3-1.6c0.6-0.4,1.2-0.6,1.9-0.7c0.4-0.7,0.8-1.3,1.3-1.8
		c-0.5,0.4-1.2,1.1-1.5,1.6c-0.7,0.1-1.3,0.3-1.9,0.7l-2.3,1.5c-0.1-0.1-0.3-0.2-0.5-0.2c0.2,0.1,0.3,0.2,0.3,0.4
		c0.2,0.4,0.1,0.8-0.2,1c-0.2,0.1-0.5,0.1-0.7,0c0.5-0.5-0.1-1.2-0.6-1c0-0.3,0.1-0.5,0.3-0.7c0.2-0.1,0.4-0.1,0.7,0l1.2-0.7
		c-0.1-0.2-0.2-0.3-0.3-0.4c-0.5-0.7-1.5-0.9-2.2-0.5c-0.5,0.3-0.7,0.8-0.7,1.3c-1.1-1.7-0.6-3.9,1-4.9c1.6-1,3.7-0.7,4.8,0.8
		c-0.3,0-0.6,0.1-0.8,0.3c-0.7,0.5-0.9,1.5-0.5,2.2c0,0.1,0.1,0.2,0.2,0.3c0.6-0.4,0.9-0.8,1.3-1.4c1.1-0.1,2.2-0.4,3.2-0.8
		c-0.8,0.8-1.5,1.6-2.1,2.6c-0.6,0.1-1.2,0.2-1.7,0.5L73.3,56.3z M73.3,56.3"/>
	<path class="st7" d="M74.9,51.5c-0.3-0.3-0.8-0.5-1.2-0.5c-0.9-0.1-1.7,0.3-2.1,1c-0.3,0.5-0.4,1-0.3,1.5l-0.2,0.1
		c-0.1-0.6,0-1.2,0.3-1.7c0.5-0.8,1.4-1.3,2.3-1.1c0.5,0.1,0.9,0.3,1.3,0.6L74.9,51.5z M74.9,51.5"/>
	<g>
		<defs>
			<rect id="SVGID_4_" x="19.2" y="20" width="85.1" height="84.8"/>
		</defs>
		<clipPath id="SVGID_5_">
			<use xlink:href="#SVGID_4_"  style="overflow:visible;"/>
		</clipPath>
		<path class="st9" d="M61.5,53.2c-0.1,0.2-0.4,0.3-0.6,0.3c-0.4,0-0.8-0.3-0.8-0.8c0-0.2,0.1-0.3,0.2-0.4c0.1,0,0.3,0,0.4,0.1
			c-0.1,0.1-0.2,0.2-0.2,0.4c0,0.2,0,0.3,0.1,0.4c0.1,0.1,0.1,0.1,0.3,0.1c0.2,0,0.3-0.2,0.1-0.3c0,0.1-0.1,0.1-0.1,0.1
			c-0.1,0-0.1-0.1-0.1-0.2c0-0.1,0.1-0.2,0.2-0.2c0,0,0.1,0.1,0.2,0.2C61.2,53,61.4,53.1,61.5,53.2L61.5,53.2z M61.5,53.2"/>
		<path class="st10" d="M62.9,97.3c-0.9-1.5-2.3-2.6-4.2-2.5c-1.4,0-2.5,0.7-3.3,1.6c-0.1,0-0.1,0-0.2-0.1l0,0
			c-0.1-0.9-0.4-1.7-0.9-2.4c-0.9-1.2-2.3-1.9-3.8-2.2c-4-0.8-7.8,0.8-11.4,2.5c-0.4,0.2-0.8,0.4-1.1,0.6c-0.5,0.3-0.9,0.5-1.4,0.8
			c-1,0.6-2.1,1.2-3.1,1.7c-0.3,0.1-0.5,0.2-0.8,0.3c-0.3-1.3-1.6-1.3-2.3-1c0.5,0.2,1,0.6,0.8,1.1c-0.2,0.6-1.4,0.8-1.9,0.9
			c-1.1,0.2-2.3,0.1-3.2-0.8c-1-0.9-1.1-2.8-0.2-3.9l0,0c0.2-0.3,0.5-0.4,0.9-0.6c0.1,0.1,0.2,0.3,0.3,0.3c0.2,0.3,0.3,0.5,0.7,0.7
			c0.1,0,0.1,0.1,0.2,0.1c0.3,0.1,0.6,0,0.8-0.1c0,0,0,0.1,0,0.1c0.1,0.4,0.2,0.8,0.5,1c0.2,0.2,0.5,0.4,0.8,0.4
			c0.4,0,0.7-0.1,1-0.4c0.1-0.1,0.2-0.3,0.2-0.4c0.2,0.1,0.3,0.2,0.5,0.3c0.5,0.2,0.9,0.1,1.4-0.1c0.6-0.4,0.9-1,0.8-1.7
			c-0.1-0.9-0.7-1.3-1.4-1.5c0.2-0.4,0.2-0.8,0-1.1c-0.5-0.8-1.5-0.6-2.2-0.3c-0.1-0.3-0.3-0.5-0.5-0.6c-0.3-0.1-0.6-0.1-0.9,0.1
			c-0.2,0.1-0.4,0.2-0.5,0.3c-0.4-0.7-1-0.6-1.6-0.4c0.7,0.4,0.5,1.4-0.1,1.6c-0.8,0.2-1.4,0.6-2,1.2c-0.8,0.9-1.1,2.1-1.1,3.2
			c0,1.2,0.5,2.3,1.3,3.1c2.5,2.4,6.4,1,9.1-0.2c0.9-0.4,1.8-0.9,2.6-1.4c0.7-0.4,1.9-0.8,2.7-0.5c0.5,0.2,0.4,0.9,0.2,1.4
			c0.7-0.3,1.2-0.7,1.2-1.5c0-0.5-0.3-0.9-0.7-1.2c2.6-1.2,5.4-2.5,8.3-2.4c1.5,0,3.2,0.8,3.4,2.5c0.4-0.1,0.8-0.5,0.9-1.1
			c0.4,0.5,0.7,1,0.8,1.7c-0.3,0.1-0.5,0.4-0.7,0.7c-0.1,0.1,0,0-0.1,0.2c-0.1,0.4,0.1,0.8,0.3,1.1c-0.2,0.2-0.4,0.4-0.7,0.6
			c-0.3-0.3-0.3-1.2-1-1.3c0.3-0.8-0.5-1.5-1-1.4c0.4-1.3-0.5-2.3-1.7-2.2c-0.5,0.1-1,0.3-1.3,0.7c-0.3,0.5-0.3,1-0.2,1.6
			c-0.1,0-0.2,0-0.3,0c-0.5,0.1-0.8,0.5-0.9,1c-0.1,0.6,0.1,1.1,0.5,1.5c0.3,0.4,0.8,0.6,1.2,0.7c-0.1,0.2-0.2,0.5-0.2,0.7
			c0.1,0.8,0.9,1.3,1.6,1.2c0.2,0,0.4-0.1,0.6-0.2c0.1,0,0.1-0.1,0.2-0.1c0,0,0,0,0,0c0.2,0.6,0.8,0.8,1.4,0.7
			c0.2,0,0.5-0.1,0.7-0.2c0.3,1.1,1.5,1,2.1,0.7c-0.6-0.3-1-0.6-0.6-1.4c0.2-0.4,0.5-0.7,0.6-0.9c0.1-0.1,0.2-0.2,0.2-0.3
			c0,1.2,0.2,2.5,0.8,3.3c0.3,0.4,0.9,0.6,1.3,0.4c0.1-0.1,0.2-0.1,0.2-0.2c0.2,0.4,0.4,0.7,0.7,1c0.7,0.5,1.7,0.5,2.1-0.3
			c0.2-0.3,0.2-0.7,0.2-1c0.5,0,1-0.1,1.3-0.5c0.4-0.4,0.5-0.9,0.5-1.4c-0.1-1-1-1.4-1.8-1.3c0-0.5-0.4-0.8-0.9-1
			c-0.5-0.1-1.1,0.1-1.4,0.6c-0.3,0.4-0.5,0.6-1,0.4l-0.1,0c-0.1-0.3-0.2-0.7-0.2-1c0.5-0.1,0.9-0.5,1-0.9c0-0.1,0-0.1,0-0.2
			c0-0.3-0.1-0.6-0.3-0.8c0.5-0.5,1.2-0.8,1.9-0.8c0.4,0,0.8,0.1,1.1,0.2c-0.3,0.3-0.5,0.7-0.5,1.2c0,0.8,0.8,1.2,1.2,1.2
			c-0.1-0.3-0.2-0.6-0.1-0.9c0.1-0.2,0.3-0.4,0.5-0.4c0.1,0,0.2,0.1,0.3,0.1c-0.3,0.2-0.5,0.5-0.6,0.9c0,0.1,0,0.2,0,0.3
			c0,0.5,0.3,0.9,0.6,1.2l0,0c0.1,0.7,0.7,1.7,1.4,1.9l0.1,0l0.1,0c0.7-0.2,1.2-1.2,1.4-1.9l0,0c0.4-0.3,0.6-0.7,0.6-1.2
			c0-0.1,0-0.2,0-0.3c-0.1-0.4-0.3-0.7-0.6-0.9c0.1-0.1,0.2-0.1,0.3-0.1c0.2,0,0.5,0.2,0.5,0.4c0.1,0.3,0,0.5-0.1,0.9
			c0.5,0,1.2-0.4,1.2-1.2c0-0.4-0.2-0.9-0.5-1.2c0.4-0.2,0.7-0.2,1.1-0.2c0.7,0,1.4,0.3,1.9,0.8c-0.2,0.2-0.3,0.5-0.3,0.8
			c0,0.1,0,0.1,0,0.2c0.1,0.5,0.5,0.8,1,0.9c0,0.3-0.1,0.7-0.2,1l0,0c-0.5,0.2-0.8,0-1-0.4c-0.3-0.5-0.8-0.7-1.4-0.6
			c-0.5,0.1-0.8,0.5-0.9,1c-0.8-0.1-1.7,0.3-1.8,1.3c0,0.5,0.1,1,0.5,1.4c0.4,0.3,0.8,0.5,1.3,0.5c-0.1,0.3-0.1,0.7,0.1,1
			c0.5,0.7,1.5,0.7,2.1,0.3c0.4-0.3,0.6-0.6,0.7-1c0.1,0.1,0.1,0.1,0.2,0.2c0.5,0.3,1,0,1.3-0.4c0.7-0.8,0.9-2.1,0.8-3.3
			c0.1,0.1,0.1,0.2,0.2,0.3c0.2,0.2,0.4,0.5,0.6,0.9c0.4,0.8,0.1,1.1-0.6,1.4c0.6,0.3,1.7,0.4,2.1-0.7c0.2,0.1,0.4,0.2,0.7,0.2
			c0.5,0.1,1.2-0.2,1.4-0.7c0,0,0,0,0,0c0.1,0,0.1,0,0.2,0.1c0.2,0.1,0.4,0.1,0.6,0.2c0.8,0.1,1.6-0.4,1.6-1.2c0-0.3,0-0.5-0.2-0.7
			c0.5-0.1,0.9-0.4,1.2-0.7c0.4-0.4,0.6-0.9,0.5-1.5c-0.1-0.5-0.4-0.8-0.9-1c-0.1,0-0.2,0-0.3,0c0.1-0.5,0.1-1.1-0.2-1.6
			c-0.3-0.5-0.8-0.7-1.3-0.7c-1.1-0.1-2,0.9-1.7,2.2c-0.5-0.1-1.3,0.5-1,1.4c-0.7,0.1-0.7,1-1,1.3c-0.3-0.1-0.5-0.3-0.7-0.6
			c0.3-0.3,0.4-0.7,0.3-1.1c0-0.1,0-0.1-0.1-0.2c-0.1-0.3-0.4-0.5-0.7-0.7c0.1-0.7,0.4-1.2,0.8-1.7c0.1,0.6,0.5,0.9,0.9,1.1
			c0.2-1.8,1.9-2.5,3.4-2.5c2.9-0.1,5.7,1.2,8.3,2.4c-0.4,0.3-0.7,0.7-0.7,1.2c0,0.9,0.6,1.2,1.2,1.5c-0.2-0.4-0.3-1.2,0.2-1.4
			c0.8-0.4,1.9,0.1,2.7,0.5c0.9,0.5,1.7,0.9,2.6,1.4c2.7,1.3,6.6,2.6,9.1,0.2c0.8-0.8,1.3-2,1.3-3.1c0.1-1.2-0.3-2.4-1.1-3.2
			c-0.5-0.6-1.2-1-2-1.2c-0.5-0.2-0.8-1.1-0.1-1.6c-0.6-0.2-1.2-0.3-1.6,0.4c-0.1-0.2-0.3-0.3-0.5-0.3c-0.3-0.1-0.6-0.2-0.9-0.1
			c-0.3,0.1-0.5,0.3-0.5,0.6c-0.8-0.3-1.8-0.5-2.2,0.3c-0.2,0.4-0.2,0.8,0,1.1c-0.7,0.2-1.3,0.6-1.4,1.5c-0.1,0.7,0.2,1.4,0.8,1.7
			c0.4,0.2,0.9,0.3,1.4,0.1c0.2-0.1,0.4-0.2,0.5-0.3c0.1,0.2,0.1,0.3,0.2,0.4c0.3,0.3,0.6,0.4,1,0.4c0.3,0,0.6-0.2,0.8-0.4
			c0.3-0.3,0.4-0.7,0.5-1c0,0,0-0.1,0-0.1c0.2,0.1,0.5,0.2,0.8,0.1c0.1,0,0.1,0,0.2-0.1c0.3-0.1,0.5-0.4,0.7-0.7
			c0-0.1,0.2-0.3,0.3-0.3c0.3,0.1,0.6,0.3,0.9,0.6l0,0c0.9,1,0.8,2.9-0.2,3.9c-0.9,0.8-2,0.9-3.2,0.8c-0.5-0.1-1.7-0.3-1.9-0.9
			c-0.2-0.5,0.3-0.9,0.8-1.1c-0.7-0.4-2-0.4-2.3,1c-0.3-0.1-0.5-0.2-0.8-0.3c-1.1-0.5-2.1-1.1-3.1-1.7c-0.5-0.3-0.9-0.5-1.4-0.8
			c-0.4-0.2-0.8-0.4-1.1-0.6c-3.6-1.7-7.4-3.3-11.4-2.5c-1.4,0.3-2.9,1-3.8,2.2c-0.5,0.7-0.9,1.5-0.9,2.4l0,0c-0.1,0-0.1,0-0.2,0.1
			c-0.8-1-2-1.6-3.3-1.6C65.3,94.7,63.8,95.8,62.9,97.3L62.9,97.3z M62.9,97.3"/>
	</g>
	<path class="st4" d="M55.1,96.8c1,0.2,1.7,0.8,1.5,1.4c-0.1,0.3-0.3,0.5-0.7,0.6c0-0.1,0-0.2,0-0.3c0,0,0.1,0,0.1-0.1
		c0.1,0,0.1,0,0.1-0.1c0,0-0.1-0.1-0.2-0.2c-0.6-0.5-1.5-0.7-2.2-0.5c-0.2,0-0.3,0.1-0.3,0.1c0,0.1,0,0.1,0.1,0.2c0,0,0,0,0,0
		c0,0.1-0.1,0.2-0.1,0.3c-0.3-0.3-0.4-0.5-0.3-0.8C53.3,96.8,54.2,96.5,55.1,96.8L55.1,96.8z M70.7,96.8c-1,0.2-1.7,0.8-1.5,1.4
		c0.1,0.3,0.3,0.5,0.7,0.6c0-0.1,0-0.2,0-0.3c0,0-0.1,0-0.1-0.1c-0.1,0-0.1,0-0.1-0.1c0,0,0.1-0.1,0.2-0.2c0.6-0.5,1.5-0.7,2.2-0.5
		c0.2,0,0.3,0.1,0.3,0.1c0,0.1,0,0.1-0.1,0.2c0,0,0,0,0,0c0,0.1,0.1,0.2,0.1,0.3c0.3-0.3,0.4-0.5,0.3-0.8
		C72.6,96.8,71.7,96.5,70.7,96.8L70.7,96.8z M53.2,100.5c-0.4,0.5-0.7,1.3-0.2,1.8c-0.6,0-0.9-0.9-0.7-1.5c-0.4,0.5-0.8,0.7-1.2,0.8
		c-0.7,0.1-1.3-0.5-0.7-1c-0.4,0-0.9,0.4-1.5,0.5c-0.5,0.1-1.1-0.2-1.1-0.8c0-0.4,0.3-0.8,0.7-0.8c0.4,0,0.7,0.1,1,0.3
		c-0.2-0.4-0.6-0.4-1-0.5c-0.7-0.1-1.4-0.3-1.9-0.8c-1.1-1.1,0.3-2.4,1.1-1.4c-0.5-1.3-0.5-2.6,0.9-2.6c1.1,0,1.4,1,1.3,1.5
		c-0.1,0.5-0.2,0.9-0.2,1.3c0.3-1.3,1.6-0.4,1.1,0.4c-0.2,0.3-0.3,0.7-0.2,1c0-0.7,0.9-0.8,1,0c0,0.3,0.2,0.4,0.4,0.6
		c-0.9,0.3-1.9,0-2.5-0.6c-0.6-0.6-0.9-1.4-0.8-2.5c-0.4,0.9,0,2.1,0.7,2.7c0.5,0.4,1.2,0.9,2,0.9c1.1,0,1.9-0.8,2.3-1.7
		c0.2-0.5,1-0.3,0.8,0.2C54.2,99.3,53.8,99.9,53.2,100.5L53.2,100.5z M55.4,103.1c0.5,0.6,1.2,0.3,1-0.4c-0.1-0.4-0.2-0.6-0.5-0.9
		c0.4,0.2,0.6,0.4,0.7,0.7c0.3,0.6,0.5,1.3,1,1.7c0.5,0.4,1.2,0.4,1.5-0.1c0.3-0.5,0-1-0.4-1.3c1.3,0.3,2.3,0,2.2-1.3
		c-0.1-0.9-1.1-1-1.7-0.7c-0.3,0.1-0.5,0.4-0.7,0.5c0.4-0.2,0.6-0.6,0.7-0.9c0-0.4-0.2-0.6-0.5-0.7c-0.4-0.1-0.7,0.1-0.9,0.4
		c-0.4,0.6-0.9,0.8-1.5,0.6c0.3,0.6,1.5,1.8,3.2,1.2c-1.6,0.7-2.9,0.1-3.5-1.1c-0.3-0.6-0.3-1.3-0.3-1.9c0-0.1,0-0.3,0.1-0.4
		c0.1-0.6-0.7-0.7-0.9-0.3C54.6,99.6,54.5,101.9,55.4,103.1L55.4,103.1z M62.9,101.8c-0.6-0.2-1.1-1.2-1.1-1.7
		c0.3-0.7,1.9-0.7,2.2,0C64,100.7,63.5,101.7,62.9,101.8L62.9,101.8z M62.9,98c1,0,1.8,0.5,1.8,1.2c0,0.3-0.2,0.6-0.5,0.8
		c-0.4-0.9-2.2-0.9-2.6,0c-0.3-0.2-0.5-0.5-0.5-0.8C61.2,98.5,62,98,62.9,98L62.9,98z M61.9,98c-0.2-0.3-0.5-0.5-0.8-0.5
		c-0.6,0-1,0.5-1,1c-0.5-0.7,0-1.7,0.8-1.7c-0.6-0.5-1.3-0.7-2.1-0.7c-0.9,0-1.8,0.5-2.3,1.1c0,0,0-0.1-0.1-0.1
		c-0.2-0.2-0.4-0.3-0.7-0.4c0.7-0.9,1.8-1.5,3-1.5c1.8,0,3.2,1.1,4,2.6C62.4,97.8,62.1,97.9,61.9,98L61.9,98z M64,98
		c0.2-0.3,0.5-0.5,0.8-0.5c0.6,0,1,0.5,1,1c0.5-0.7,0-1.7-0.8-1.7c0.6-0.5,1.3-0.7,2.1-0.7c0.9,0,1.8,0.5,2.3,1.1c0,0,0-0.1,0.1-0.1
		c0.2-0.2,0.4-0.3,0.7-0.4c-0.7-0.9-1.8-1.5-3-1.5c-1.8,0-3.2,1.1-4,2.6C63.4,97.8,63.7,97.9,64,98L64,98z M70.5,103.1
		c-0.5,0.6-1.2,0.3-1-0.4c0.1-0.4,0.2-0.6,0.5-0.9c-0.4,0.2-0.6,0.4-0.7,0.7c-0.3,0.6-0.5,1.3-1,1.7c-0.5,0.4-1.2,0.4-1.5-0.1
		c-0.3-0.5,0-1,0.4-1.3c-1.3,0.3-2.3,0-2.2-1.3c0.1-0.9,1.1-1,1.7-0.7c0.3,0.1,0.5,0.4,0.7,0.5c-0.4-0.2-0.6-0.6-0.7-0.9
		c0-0.4,0.2-0.6,0.5-0.7c0.4-0.1,0.7,0.1,0.9,0.4c0.4,0.6,0.9,0.8,1.5,0.6c-0.3,0.6-1.5,1.8-3.2,1.2c1.6,0.7,2.9,0.1,3.5-1.1
		c0.3-0.6,0.3-1.3,0.3-1.9c0-0.1,0-0.2,0-0.3C70,98,70.9,97.9,71,98.4C71.3,99.7,71.4,101.9,70.5,103.1L70.5,103.1z M72.6,100.5
		c0.4,0.5,0.7,1.3,0.2,1.8c0.6,0,0.9-0.9,0.7-1.5c0.4,0.5,0.8,0.7,1.2,0.8c0.7,0.1,1.3-0.5,0.7-1c0.4,0,0.9,0.4,1.5,0.5
		c0.5,0.1,1.1-0.2,1.1-0.8c0-0.4-0.3-0.8-0.7-0.8c-0.4,0-0.7,0.1-1,0.3c0.2-0.4,0.6-0.4,1-0.5c0.7-0.1,1.4-0.3,1.9-0.8
		c1.1-1.1-0.3-2.4-1.1-1.4c0.5-1.3,0.5-2.6-0.9-2.6c-1.1,0-1.4,1-1.3,1.5C76,96.6,76,97,76,97.4c-0.3-1.3-1.6-0.4-1.1,0.4
		c0.2,0.3,0.3,0.7,0.2,1c0-0.7-0.9-0.8-1,0c0,0.3-0.2,0.4-0.4,0.6c0.9,0.3,1.9,0,2.5-0.6c0.6-0.6,0.9-1.4,0.8-2.5
		c0.4,0.9,0,2.1-0.7,2.7c-0.5,0.4-1.2,0.9-2,0.9c-1.1,0-1.9-0.8-2.3-1.7c-0.2-0.5-1-0.3-0.8,0.2C71.6,99.3,72.1,99.9,72.6,100.5
		L72.6,100.5z M98.7,91.7c-0.4-0.4-0.4-1.1-0.2-1.3c-0.5,0-0.8,0.6-0.6,1c-0.4-0.1-0.6-0.6-1-0.8c-0.6-0.2-0.9,0-0.9,0.3
		c0,0.3,0.3,0.6,0.9,0.6c-0.4,0.1-0.8,0.1-1.1-0.1c-0.5-0.3-1.7-0.8-2.1-0.1c-0.3,0.4,0,1.1,0.8,1.2c-0.9,0-2,0.2-2.2,1.3
		c-0.2,1,0.7,1.6,1.5,1.3c0.6-0.2,0.8-0.9,1.4-1.2c-0.5,0.5-0.4,1.7,0.5,1.6c1-0.1,0.9-1.4,1.2-2c0.2-0.4,0.5-0.7,0.9-0.6
		c-0.3,0.1-0.4,0.2-0.6,0.3c-0.4,0.5-0.1,1,0.5,0.9c0.4-0.1,0.5-0.6,0.8-0.8c0.5-0.5,1.1,0,1.6,0.5c1.1,1.2,0.9,3.4-0.2,4.5
		c-0.9,0.9-2.2,1.1-3.5,0.9c-0.7-0.1-2-0.4-2.3-1.2c-0.1-0.4,0-0.8,0.3-1.1c-0.7,0-1.1,0.8-0.9,1.4c-2.2-0.9-4.4-2.2-6-3.1
		c-1.2,0-2.5-0.5-3-0.8c-0.5-0.3-1-0.7-1.3-1.2c-2.5-1-5.2-1.6-7.9-1.1c-2.3,0.5-4.2,1.9-4.4,4.3c0.3,0,0.6,0,0.9,0.1
		c0.1-1.3,0.9-2.3,2-2.9c-0.5,0.4-0.5,1.1-0.1,1.5c0.1-1.5,2.2-2.3,3.5-2.3c3.1-0.1,6,1.3,8.8,2.6c0.3,0.1,0.6,0.3,0.9,0.5
		c-0.3,0-0.7,0-0.9,0.1c-0.6,0.3-0.9,1.1-0.5,1.6c0-0.4,0.2-0.7,0.6-0.9c1-0.4,2.2,0,3.1,0.5c3.7,2,8.4,4.3,11.2,1.6
		c1.3-1.3,1.6-3.6,0.7-5.2c-1.4-2.4-5.6-1.7-7.4,0.2C94.7,92.3,97.2,91.5,98.7,91.7L98.7,91.7z M27.1,91.7c0.4-0.4,0.4-1.1,0.2-1.3
		c0.5,0,0.8,0.6,0.6,1c0.4-0.1,0.6-0.6,1-0.8c0.6-0.2,0.9,0,0.9,0.3c0,0.3-0.3,0.6-0.9,0.6c0.4,0.1,0.8,0.1,1.1-0.1
		c0.5-0.3,1.7-0.8,2.1-0.1c0.3,0.4,0,1.1-0.8,1.2c0.9,0,2,0.2,2.2,1.3c0.2,1-0.7,1.6-1.5,1.3c-0.6-0.2-0.8-0.9-1.4-1.2
		c0.5,0.5,0.4,1.7-0.5,1.6c-1-0.1-0.9-1.4-1.2-2c-0.2-0.4-0.5-0.7-0.9-0.6c0.3,0.1,0.4,0.2,0.6,0.3c0.4,0.5,0.1,1-0.5,0.9
		c-0.4-0.1-0.5-0.6-0.8-0.8c-0.5-0.5-1.1,0-1.6,0.5c-1.1,1.2-0.9,3.4,0.2,4.5c0.9,0.9,2.2,1.1,3.5,0.9c0.7-0.1,2-0.4,2.3-1.2
		c0.1-0.4,0-0.8-0.3-1.1c0.7,0,1.1,0.8,0.9,1.4c2.7-1.1,5.5-2.9,7-3.6c3.5-1.6,7.2-3.3,11.1-2.4c2.3,0.5,4.2,1.9,4.4,4.3
		c-0.3,0-0.6,0-0.9,0.1c-0.1-1.3-0.9-2.3-2-2.9c0.5,0.4,0.5,1.1,0.1,1.5c-0.1-1.5-2.2-2.3-3.5-2.3c-3.1-0.1-6,1.3-8.8,2.6
		c-0.3,0.1-0.6,0.3-0.9,0.5c0.3,0,0.7,0,0.9,0.1c0.6,0.3,0.9,1.1,0.5,1.6c0-0.4-0.2-0.7-0.6-0.9c-1-0.4-2.2,0-3.1,0.5
		c-3.7,2-8.4,4.3-11.2,1.6c-1.3-1.3-1.6-3.6-0.7-5.2c1.4-2.4,5.6-1.7,7.4,0.2C31.2,92.3,28.6,91.5,27.1,91.7L27.1,91.7z M27.1,91.7"
		/>
	<path class="st7" d="M95.9,37.6c1.4,0.1,2.5,1.2,2.5,2.6c0,0.3,0,0.5-0.1,0.8c0.1,0.2,0.1,0.5-0.2,0.6c-0.1,0.1-0.2,0.2-0.3,0.3
		c-0.1,0.2-0.3,0.6-0.3,0.8l-1.1,1.1l-6.3,0L89,42.7c-0.1-0.3-0.2-0.6-0.3-0.8c-0.1-0.1-0.2-0.3-0.3-0.3c-0.2-0.2-0.3-0.4-0.2-0.6
		c-0.1-0.2-0.1-0.5-0.1-0.8c0-1.4,1.1-2.5,2.5-2.6c0-0.1,0-0.1,0.1-0.2c0.3-0.4,0.9-0.3,1.2,0.1c0.1,0.1,0.1,0.2,0.2,0.3
		c0-0.1,0-0.2,0.1-0.3c-0.1-0.2-0.1-0.4-0.1-0.6c0-0.4,0.2-0.8,0.5-1c-0.1-0.2-0.2-0.4-0.2-0.6c0-0.6,0.5-1,1-1c0.6,0,1,0.5,1,1
		c0,0.2-0.1,0.4-0.2,0.6c0.3,0.2,0.5,0.6,0.5,1c0,0.2,0,0.4-0.1,0.6c0.1,0.1,0.1,0.2,0.1,0.3c0-0.1,0.1-0.2,0.2-0.3
		c0.1-0.2,0.3-0.3,0.4-0.3c0.3-0.1,0.6,0,0.7,0.2C95.9,37.4,95.9,37.5,95.9,37.6L95.9,37.6z M95.9,37.6"/>
	<path class="st3" d="M90.7,38c0.1,0,0.1,0,0.2,0c0.4,0.7,0.8,1.7,0.9,2.6c-0.1,0-0.1,0-0.2,0c0,0-0.1,0-0.1,0c0-0.1,0-0.2,0-0.2
		c0-0.1-0.1-0.2-0.2-0.3c-0.1-0.7-0.4-1.4-0.7-1.8c0.2,0.4,0.4,1.1,0.4,1.7c-0.1,0-0.2,0-0.3,0c-0.3,0-0.7,0.2-0.6,0.5
		c0,0.1,0.1,0.1,0.1,0.2c0,0-0.1,0-0.1,0c-0.2,0-0.3,0.2-0.3,0.4c-0.1-0.1-0.3-0.2-0.5-0.1c0,0,0,0-0.1,0.1c0-0.1,0-0.1-0.1-0.2
		c-0.1-0.2-0.5-0.2-0.7-0.1c-0.1-0.2-0.1-0.5-0.1-0.7C88.5,39,89.5,38,90.7,38L90.7,38z M90.7,38"/>
	<path class="st3" d="M91,37.8c0.5,0.8,0.9,1.9,1,2.9c0,0,0,0,0.1,0.1c0.1-0.2,0.2-0.3,0.4-0.3c-0.2-1-0.5-1.9-1-2.8
		C91.3,37.4,90.8,37.5,91,37.8L91,37.8z M91,37.8"/>
	<path class="st3" d="M95.5,37.8c-0.5,0.8-0.9,1.9-1,2.9c0,0,0,0,0,0.1c-0.1-0.2-0.2-0.3-0.4-0.3c0.2-1,0.5-1.9,1-2.8
		C95.1,37.4,95.7,37.5,95.5,37.8L95.5,37.8z M95.5,37.8"/>
	<path class="st3" d="M94.1,37.9c-0.2,0.5-0.4,1.2-0.5,1.9c0,0-0.1,0-0.1,0c0,0,0-0.1,0-0.1c0-0.1,0-0.1-0.1-0.2
		c0.1-0.1,0.1-0.2,0.1-0.3c0-0.1-0.1-0.2-0.1-0.3c0.1-0.1,0.2-0.2,0.2-0.4c0-0.1-0.1-0.3-0.2-0.3c0.2-0.1,0.3-0.2,0.3-0.4
		c0-0.1,0-0.1,0-0.1c0.1-0.1,0.3-0.1,0.3,0C94.1,37.7,94.1,37.8,94.1,37.9L94.1,37.9z M94.1,37.9"/>
	<path class="st3" d="M93,39.5C93,39.5,93,39.6,93,39.7c0,0,0,0.1,0,0.1c0,0-0.1,0-0.1,0c-0.1-0.7-0.3-1.3-0.5-1.9
		c-0.1-0.1,0-0.2,0-0.3c0.1,0,0.2,0,0.3,0c0,0.1,0,0.1,0,0.1c0,0.2,0.1,0.3,0.3,0.4c-0.1,0.1-0.2,0.2-0.2,0.3c0,0.2,0.1,0.3,0.2,0.4
		c-0.1,0.1-0.1,0.2-0.1,0.3C92.9,39.3,93,39.4,93,39.5L93,39.5z M93,39.5"/>
	<path class="st3" d="M95.8,38c-0.1,0-0.1,0-0.2,0c-0.4,0.7-0.8,1.7-0.9,2.6c0.1,0,0.1,0,0.2,0c0,0,0.1,0,0.1,0c0-0.1,0-0.2,0-0.2
		c0.1-0.3,0.5-0.4,0.7-0.3c0.3,0,0.7,0.2,0.6,0.5c0,0.1,0,0.1-0.1,0.2c0,0,0.1,0,0.1,0c0.2,0,0.3,0.2,0.3,0.4
		c0.1-0.1,0.3-0.2,0.5-0.1c0,0,0.1,0,0.1,0.1c0-0.1,0-0.1,0.1-0.2c0-0.1,0.1-0.1,0.1-0.1c0.1-0.2,0.2-0.5,0.2-0.7
		c0.1-0.5-0.1-1.1-0.4-1.5c0.4,0.4,0.6,1,0.6,1.5c0,0.2,0,0.4-0.1,0.6c0.1,0,0.2,0,0.4,0.1c0.1-0.2,0.1-0.5,0.1-0.7
		C98,39,97,38,95.8,38L95.8,38z M95.8,38"/>
	<path class="st3" d="M90.1,43.2l0.5-0.6l-1.3-0.2h0c0-0.1-0.1-0.2-0.1-0.3c0.1-0.1,0.2-0.3,0.1-0.4c-0.1-0.2-0.3-0.3-0.4-0.2h0
		c-0.1-0.1-0.2-0.2-0.3-0.3c-0.1,0,0-0.1,0-0.1c0.1-0.1,0.5-0.2,0.6,0c0,0.1,0,0.1,0,0.2c0,0.1,0.1,0.2,0.2,0.1
		c0.1-0.1,0.1-0.1,0.1-0.2c0.3-0.2,0.6,0.4,0.3,0.5c-0.1,0.1-0.1,0-0.3,0.1c-0.1,0-0.1,0.2,0,0.2c0.3,0.2,0.5,0,0.6-0.2
		c0.2,0.2,0.7,0.2,0.8-0.2c0.1-0.2,0-0.3-0.2-0.2c-0.1,0.1-0.2,0.2-0.3,0.2c-0.3,0-0.5-0.8-0.2-0.8c0.1,0,0.1,0,0.2,0
		c0.1,0,0.2-0.1,0.1-0.2c-0.1-0.1-0.2-0.2-0.2-0.3c0-0.2,0.2-0.3,0.5-0.3c0.3,0,0.5,0,0.5,0.2c0,0.1,0,0.2-0.1,0.3
		c-0.1,0.1,0.1,0.2,0.1,0.1c0.1,0,0.1-0.1,0.2-0.1c0.3-0.1,0.5,0.8,0.2,0.8c-0.1,0-0.2,0-0.4-0.1c-0.2,0-0.2,0.1-0.1,0.2
		c0.2,0.3,0.7,0.1,0.8-0.1c0.1,0.2,0.7,0.3,0.9,0c0.1-0.2,0-0.3-0.1-0.2c-0.2,0.1-0.3,0.1-0.4,0.1c-0.4,0-0.4-0.9,0-0.9
		c0.1,0,0.1,0,0.2,0.1c0.1,0,0.2-0.1,0.1-0.2c-0.1-0.1-0.1-0.2-0.1-0.3c0-0.2,0.3-0.3,0.6-0.3c0.3,0,0.6,0.1,0.6,0.3
		c0,0.1-0.1,0.2-0.1,0.3c-0.1,0.1,0,0.2,0.1,0.2c0.1,0,0.2-0.1,0.2-0.1c0.4,0,0.4,0.9,0,0.9c-0.1,0-0.2-0.1-0.4-0.1
		c-0.1-0.1-0.2,0.1-0.1,0.2c0.2,0.3,0.7,0.2,0.9,0c0.1,0.2,0.6,0.3,0.8,0.1c0.1-0.1,0.1-0.3-0.1-0.2c-0.2,0-0.3,0.1-0.4,0.1
		c-0.3,0-0.2-0.9,0.1-0.8c0.1,0,0.1,0,0.2,0.1c0.1,0.1,0.2-0.1,0.1-0.1c-0.1-0.1-0.1-0.2-0.1-0.3c0-0.2,0.3-0.2,0.5-0.2
		c0.3,0,0.5,0.2,0.5,0.3c0,0.1-0.1,0.2-0.2,0.3c-0.1,0.1,0,0.2,0.1,0.2c0.1,0,0.2,0,0.2,0c0.3,0.1,0.2,0.9-0.1,0.8
		c-0.1,0-0.2-0.1-0.3-0.2c-0.1-0.1-0.2,0-0.2,0.2c0.1,0.3,0.6,0.3,0.8,0.2c0,0.2,0.3,0.4,0.6,0.2c0.1-0.1,0.1-0.2,0-0.2
		c-0.1,0-0.2,0-0.3-0.1c-0.3-0.2,0.1-0.7,0.3-0.5c0.1,0,0.1,0.1,0.1,0.2c0.1,0.1,0.2,0,0.2-0.1c0-0.1,0-0.2,0-0.2
		c0.1-0.2,0.5-0.1,0.6,0c0,0,0.1,0.1,0,0.1c-0.1,0.1-0.2,0.2-0.3,0.3h0c-0.2-0.1-0.4,0-0.4,0.2c-0.1,0.2,0,0.4,0.1,0.4
		c0,0.1-0.1,0.2-0.1,0.3h0l-1.3,0.2l0.5,0.6c-0.1,0.1-0.1,0.3-0.1,0.4c-0.9-0.3-1.9-0.5-3-0.5s-2.1,0.2-3,0.5
		C90.2,43.5,90.2,43.4,90.1,43.2L90.1,43.2z M90.1,43.2"/>
	<path class="st7" d="M93.2,40.5c0.2,0,0.4,0.2,0.4,0.4c0,0.2-0.2,0.4-0.4,0.4c-0.2,0-0.4-0.2-0.4-0.4C92.8,40.7,93,40.5,93.2,40.5
		L93.2,40.5z M93.2,40.5"/>
	<path class="st7" d="M91.4,41.1c0,0.2-0.2,0.4-0.4,0.4c-0.2,0-0.4-0.2-0.4-0.4c0-0.2,0.2-0.4,0.4-0.4
		C91.2,40.7,91.4,40.9,91.4,41.1L91.4,41.1z M91.4,41.1"/>
	<path class="st7" d="M95.8,41.1c0,0.2-0.2,0.4-0.4,0.4c-0.2,0-0.4-0.2-0.4-0.4c0-0.2,0.2-0.4,0.4-0.4
		C95.7,40.7,95.8,40.9,95.8,41.1L95.8,41.1z M95.8,41.1"/>
	<path class="st7" d="M91.7,42.5c0,0.3-0.2,0.5-0.5,0.5c-0.3,0-0.5-0.2-0.5-0.5c0-0.3,0.2-0.5,0.5-0.5
		C91.5,42.1,91.7,42.3,91.7,42.5L91.7,42.5z M91.7,42.5"/>
	<path class="st7" d="M95.6,42.5c0,0.3-0.2,0.5-0.5,0.5c-0.3,0-0.5-0.2-0.5-0.5c0-0.3,0.2-0.5,0.5-0.5
		C95.4,42.1,95.6,42.3,95.6,42.5L95.6,42.5z M95.6,42.5"/>
	<path class="st7" d="M93.2,43l-1.1-0.6l1.1-0.6l1.1,0.6L93.2,43z M93.2,43"/>
	<path class="st1" d="M93.2,41.2c-0.1,0-0.2-0.1-0.2-0.2c0-0.1,0.1-0.2,0.2-0.2c0.1,0,0.2,0.1,0.2,0.2S93.4,41.2,93.2,41.2
		L93.2,41.2z M91,41.4c-0.1,0-0.2-0.1-0.2-0.2s0.1-0.2,0.2-0.2s0.2,0.1,0.2,0.2S91.1,41.4,91,41.4L91,41.4z M95.4,41.4
		c-0.1,0-0.2-0.1-0.2-0.2s0.1-0.2,0.2-0.2s0.2,0.1,0.2,0.2S95.6,41.4,95.4,41.4L95.4,41.4z M97.3,42c0.1,0,0.2,0,0.2-0.1
		c0-0.1,0-0.2-0.1-0.2c-0.1,0-0.2,0-0.2,0.1C97.3,41.9,97.3,42,97.3,42L97.3,42z M89.1,42c-0.1,0-0.2,0-0.2-0.1c0-0.1,0-0.2,0.1-0.2
		c0.1,0,0.2,0,0.2,0.1C89.2,41.9,89.2,42,89.1,42L89.1,42z M93.2,39.5c-0.1,0-0.1,0-0.1,0.1c0,0.1,0.1,0.1,0.1,0.1
		c0.1,0,0.1-0.1,0.1-0.1C93.3,39.6,93.3,39.5,93.2,39.5L93.2,39.5z M93.2,39c-0.1,0-0.2,0.1-0.2,0.2c0,0.1,0.1,0.2,0.2,0.2
		c0.1,0,0.2-0.1,0.2-0.2C93.4,39.1,93.3,39,93.2,39L93.2,39z M93.2,38.3c-0.2,0-0.3,0.1-0.3,0.3s0.1,0.3,0.3,0.3
		c0.1,0,0.3-0.1,0.3-0.3C93.5,38.4,93.4,38.3,93.2,38.3L93.2,38.3z M93.2,37.5c-0.2,0-0.3,0.2-0.3,0.3s0.2,0.3,0.3,0.3
		s0.3-0.1,0.3-0.3C93.6,37.6,93.4,37.5,93.2,37.5L93.2,37.5z M93.2,37.5"/>
	<path class="st5" d="M91.3,42.3c-0.2,0-0.3,0.1-0.3,0.3c0,0.2,0.1,0.3,0.3,0.3c0.2,0,0.3-0.1,0.3-0.3
		C91.6,42.4,91.4,42.3,91.3,42.3L91.3,42.3z M95.2,42.3c-0.2,0-0.3,0.1-0.3,0.3c0,0.2,0.1,0.3,0.3,0.3c0.2,0,0.3-0.1,0.3-0.3
		C95.5,42.4,95.3,42.3,95.2,42.3L95.2,42.3z M95.2,42.3"/>
	<path class="st4" d="M93.2,42.8l-0.8-0.4l0.8-0.4l0.8,0.4L93.2,42.8z M89.7,42.7l0.6,0.1L90,43.1C89.9,42.9,89.8,42.8,89.7,42.7
		L89.7,42.7z M96.4,43.1l-0.2-0.3l0.6-0.1C96.6,42.8,96.5,42.9,96.4,43.1L96.4,43.1z M96.4,43.1"/>
	<path class="st6" d="M92.5,40c-0.1-0.6-0.3-1.3-0.6-1.8c0.1,0,0.2-0.1,0.3-0.1c0.2,0.5,0.4,1.1,0.4,1.7C92.6,39.9,92.6,40,92.5,40
		L92.5,40z M93.9,40c0.1-0.6,0.3-1.3,0.6-1.8c-0.1,0-0.2-0.1-0.3-0.1c-0.2,0.5-0.4,1.1-0.4,1.7C93.8,39.9,93.9,40,93.9,40L93.9,40z
		 M93.9,40"/>
	<path class="st3" d="M92.9,35.7l0.1-0.1c0,0,0-0.1,0-0.2c0,0-0.1,0-0.2,0l-0.3,0.3c-0.1-0.1-0.1-0.3-0.1-0.4c0-0.2,0.1-0.3,0.1-0.4
		l0.3,0.3c0,0,0.1,0,0.2,0c0,0,0-0.1,0-0.2l-0.3-0.3c0.1-0.1,0.3-0.1,0.4-0.1c0.2,0,0.3,0.1,0.4,0.1L93.4,35c0,0,0,0.1,0,0.2
		c0,0,0.1,0,0.2,0l0.3-0.3c0.1,0.1,0.1,0.3,0.1,0.4c0,0.2-0.1,0.3-0.1,0.4l-0.3-0.3c0,0-0.1,0-0.2,0c0,0,0,0.1,0,0.2l0.1,0.1
		c-0.1,0-0.1,0-0.2,0c-0.1,0-0.1,0-0.2,0c0,0-0.1,0-0.1,0C93,35.7,93,35.7,92.9,35.7L92.9,35.7z M92.9,35.7"/>
	<path class="st3" d="M93.4,36.6c0.3,0,0.6,0.1,0.8,0.2c0,0.1,0,0.2,0,0.3c-0.3-0.1-0.6-0.2-1-0.2c-0.3,0-0.6,0.1-0.9,0.2
		c0-0.1,0-0.1,0-0.2v0c0.2-0.1,0.5-0.2,0.8-0.2V36c0-0.1,0.1-0.2,0.2-0.2c0.1,0,0.2,0.1,0.2,0.2V36.6z M92.5,37.5
		c-0.1-0.1-0.1-0.1-0.1-0.2h0c0.3-0.1,0.5-0.2,0.8-0.2c0.3,0,0.6,0.1,0.9,0.2h0c0,0.1-0.1,0.1-0.1,0.2c-0.1,0-0.3,0-0.4,0.1
		c-0.1-0.1-0.2-0.2-0.4-0.2c-0.2,0-0.3,0.1-0.4,0.2C92.7,37.5,92.6,37.4,92.5,37.5L92.5,37.5z M92.3,36.6c0.1-0.3,0.3-0.6,0.6-0.7
		c0,0,0,0.1,0,0.1v0.5C92.7,36.5,92.5,36.5,92.3,36.6L92.3,36.6z M93.6,35.9c0.3,0.1,0.6,0.4,0.6,0.7c-0.2-0.1-0.4-0.2-0.6-0.2V35.9
		C93.6,36,93.6,36,93.6,35.9L93.6,35.9z M93.6,35.9"/>
	<path class="st7" d="M99.8,51.8c1,0.9,2.4,3.5,2.1,6.2c0-0.3-0.4-0.8-0.6-0.9c0.5,0.7,0.7,2.1,0.2,2.7c-0.1-0.2-0.3-0.4-0.4-0.5
		c0.4,2.9-1.4,5,0.8,9.5c0.7,1.4,1.4,3,1.5,4.6c0.2,1.9,0.2,4.5,0.8,6.3c-0.5-0.1-1-0.3-1.3-0.8c0.6,2.8-1.5,6-0.4,8.5
		c0.9,2.2,1.4,4.6,0.7,6.9c-0.6,2-3.2,4.9-5.6,4.5c-0.5,0.3-0.9,0.7-1.2,1.1c-0.2,0.2-0.2,0.1-0.2,0c-0.1-0.5,0.1-1,0.4-1.4
		c-0.1-0.1-0.2-0.1-0.3-0.2c-0.6,0.2-1.1,0.5-1.6,1c-0.2,0.2-0.2,0.1-0.2-0.1c0.1-0.7,0.4-1.3,1-1.6c-0.1-0.1-0.1-0.2-0.2-0.3
		c-0.5,0.1-0.9,0.3-1.4,0.6c-0.3,0.2-0.3,0.1-0.2-0.1c0.2-0.6,0.7-1.1,1.3-1.4c0-0.1,0-0.2,0-0.3c-0.4,0.1-0.8,0.2-1.2,0.3
		c-0.4,0.1-0.3,0-0.2-0.2c0.4-0.6,0.9-1,1.5-1.2c0.1,0.2,0.4,0.4,0.7,0.3c0.7-0.1,0.9-0.8,1-1.4c0.4-0.1,0.7-0.2,1-0.5
		c0.4-0.4,0.4-1-0.1-1.5c-1.6-1.4-2.9-3-3.2-5.5c-0.9-0.4-1.5-1.2-1.9-2.1c-0.1,1.2-0.6,2.3-1.3,3.2c-0.4,1-0.5,2.1-0.6,3.2
		c-0.2,1.6-0.5,3.2-1.9,4.2c-0.2,0.1-0.4,0.3-0.6,0.4c-0.6-0.3-1.1-0.6-1.6-0.8c-2.6-1.2-5.3-2.4-8.1-2.6c0.6-0.3,1.2-0.3,1.8,0
		c0-0.1,0.1-0.2,0.1-0.3c-0.4-0.3-0.8-0.6-1.3-0.7c-0.3-0.1-0.2-0.2,0-0.3c0.6-0.2,1.3-0.1,1.9,0.3c0.1-0.1,0.1-0.1,0.2-0.2
		c-0.3-0.3-0.6-0.6-0.9-0.9c-0.3-0.3-0.2-0.3,0-0.3c0.7,0,1.4,0.3,2,0.8c1.2-0.4,2,1.1,3,1.3c0.3,0.1,0.5-0.4,0.4-0.8
		c-0.6-1.5-1.2-3.4-0.8-5c-2.5-4.3-0.4-8.9,2.6-12.8c-0.1-0.2-0.4-0.7-0.7-1.4c-1.3,0.6-4,1.3-5.1,1.3c-0.6,0-1.2-0.1-1.8-0.3
		c-0.3,0.3-0.5,0.7-0.7,1.1c-0.1,0.2-0.1,0.2-0.2,0c-0.2-0.5-0.1-1.1,0.2-1.6C79.1,72.1,79.1,72,79,72c-0.4,0.2-0.8,0.5-1.1,0.8
		c-0.2,0.2-0.2,0.1-0.2-0.1c0-0.6,0.3-1.2,0.8-1.5c-0.1-0.1-0.1-0.2-0.1-0.4c-0.4,0.1-0.8,0.2-1.2,0.4c-0.3,0.1-0.2,0-0.2-0.1
		c0.2-0.6,0.7-1.2,1.4-1.4c0-0.1,0.1-0.2,0.1-0.3c-0.3-0.1-0.7-0.1-1,0c-0.3,0.1-0.3-0.1-0.2-0.2c0.5-0.6,1.3-0.9,2.1-0.8
		c0.4-0.6,1.1-0.8,1.8-0.7c0.4,0.1,0.8-0.2,1.2-0.6c0.8-0.5,1.8-1.5,2.4-1.9c-0.1-0.8-0.2-1.7-0.2-2.7c-0.2,0.5-0.7,0.9-1.2,0.9
		c0.5-0.7,0.1-1.3-0.5-1.8c-0.6-0.5-1.5-0.8-1.9-1.1v-2.5c0-1.3,0.1-2.7,0.4-4c1.4,0.8,2.9,1.3,4.6,1.4c0.4-0.9,0.8-1.8,1.4-2.7
		c-0.7-0.8-1.1-1.7-1.1-2.7c0-0.6,0.1-1.1,0.4-1.6c0-0.2-0.1-0.4-0.1-0.6c0-1,0.4-1.9,1-2.6c-0.4-0.3-0.7-0.8-0.7-1.4
		c0-1,0.8-1.7,1.7-1.7c0.8,0,1.5,0.6,1.7,1.4c0.9-0.3,1.9-0.5,3-0.5c1.1,0,2.1,0.2,3,0.5c0.2-0.8,0.8-1.4,1.7-1.4
		c0.9,0,1.7,0.8,1.7,1.7c0,0.6-0.3,1.1-0.7,1.4c0.7,0.8,1,1.7,1,2.6c0,0.2,0,0.4-0.1,0.6c0.2,0.5,0.4,1,0.4,1.6
		C100.2,50.8,100.1,51.3,99.8,51.8L99.8,51.8z M85.9,96.2c-2.3,0.4-4.7-0.1-5.5-1.7c-0.5-0.2-1-0.4-1.6-0.4c-0.3,0-0.2-0.1-0.1-0.2
		c0.4-0.3,0.9-0.5,1.4-0.4c0-0.1,0-0.2,0-0.3c2.1,0.5,4.1,1.4,6.1,2.3c0.3,0.1,0.6,0.3,0.9,0.5c-0.3,0-0.7,0-0.9,0.1
		C86.1,96,86,96.1,85.9,96.2L85.9,96.2z M85.9,96.2"/>
	<path class="st8" d="M88.1,72.8c1.1,2,2,3.2,3.6,4.6l0,1C90.1,76.6,88.9,75.1,88.1,72.8L88.1,72.8z M98.7,60.8
		c0.5,2.3-1.2,5.8-3.9,7.2c0.1,0.2,0.2,0.3,0.3,0.5c-0.9-0.4-1.9,0.4-2.9,0.5c-0.3,0.3-1.6,0.8-2.2,0.9c-1,0.6-2.2,1-3.3,1.1
		c1-0.3,1.9-0.5,2.7-1.2c-0.3-0.1-0.8-0.3-1-0.6c1.1,0.6,2.5,0.2,3.2-0.2c-0.3-0.2-1-0.6-1.2-0.9c0.7,0.4,1.2,0.6,1.9,0.5
		c1-0.1,1.3-0.4,2.1-0.5c-0.2-0.5-1.1-1.1-1.8-1.4c0.9,0.2,1.6,0.4,2.1,1c0.9-0.7,1.2-1.6,1-2.5c0.3,0.5,0.3,1.1,0.2,1.4
		c0.7-0.5,1.4-1.6,1.1-2.9c0.3,0.4,0.3,1.1,0.3,1.4c0.5-0.7,0.8-2,0.5-2.7c0.2,0.2,0.5,0.8,0.4,1.1C98.6,62.7,98.7,61.9,98.7,60.8
		L98.7,60.8z M87.5,44.8c-0.2-0.2-0.3-0.5-0.3-0.8c0-0.8,0.6-1.4,1.4-1.4c-0.5,0.1-0.9,0.6-1.1,1.2C87.3,44.1,87.4,44.5,87.5,44.8
		L87.5,44.8z M94.9,72.3c-0.6,0.4-1.1,1-1.5,1.8c-1.1,1.9-1.5,4.7-1.1,6.8c0-1.2,0.1-2.5,1.1-3.2c-0.3,0-0.8,0.1-1,0.4
		c0.1-1.2,0.7-2,1.5-2.5c-0.3,0-0.8,0.1-1,0.2c0.2-0.8,1-1.5,1.6-1.8c-0.3,0-0.6,0-0.8,0.1C94,73.6,94.4,72.8,94.9,72.3L94.9,72.3z
		 M95.6,96.2c0.1,0.8,0.6,1.3,1.2,1.7c-0.6-0.6-0.9-1.5-0.7-2.1c-0.2,0.1-0.3,0.1-0.5,0.1C95.6,95.9,95.6,96.1,95.6,96.2L95.6,96.2z
		 M85.7,94.3c-0.9-0.1-2-1.2-2.3-2c-0.4-0.8-1.4-0.8-1.9-0.2L81,92.1c0.3-1.1,2.2-1.4,2.7-0.2C84,92.7,84.9,94,85.7,94.3L85.7,94.3z
		 M87.3,54.2c-1.1,1.6-2.1,3.7-2.1,5.7c0.5-1.3,0.8-1.8,2-2.4c-0.7,0-1.1,0.2-1.4,0.5c0.3-1.3,1-2,1.9-2.6c-0.4,0.1-0.7,0.2-1,0.4
		C86.8,55.4,87,54.8,87.3,54.2L87.3,54.2z M85.9,65.2c1.3-0.6,2.6-1.1,4-1.4c0.2-0.8,0.9-1,1.5-1.1c0.9-2.1,2.2-3.9,3.8-5.4
		c-1.8,1.2-3,3.1-4,5c-0.7,0-1.3,0.5-1.6,1C88.3,63.8,87.1,64.4,85.9,65.2L85.9,65.2z M85.1,61.1c-0.1,0.9-0.1,2,0.2,2.8
		c0.2-0.3,0.5-0.5,0.9-0.7c0.4-0.2,0.7-0.4,1-0.8c1.2-0.2,2.1-1.2,2.3-1.6c0.8-0.4,1.4-1.4,1.4-2.5c-0.2,1-0.8,1.8-1.4,2.1
		c0.1-0.3,0-0.8-0.2-1c0.2,1.3-0.8,2.2-1.8,2.6c0.2-0.4,0.3-1,0.2-1.4c-0.3,1.4-1,2-2.1,2.5c-0.1,0-0.2,0.1-0.2-0.1
		C85.2,62.5,85.1,61.8,85.1,61.1L85.1,61.1z M89.6,47c0.3,0.3,0.7,0.5,1.1,0.6c-0.1,0.1-0.1,0.2-0.2,0.4
		C90.1,47.8,89.8,47.5,89.6,47L89.6,47z M93.2,49.1c0.2,0,0.3-0.1,0.3-0.3c0-0.2-0.1-0.4,0.1-0.6c0.1-0.2,0.3-0.1,0.2,0.1
		c-0.1,0.1-0.1,0.4,0.1,0.4c0-0.2,0.3-0.3,0.1-0.7c-0.1-0.3-0.4-0.4-0.8-0.4c-0.4,0-0.6,0.1-0.8,0.4c-0.2,0.4,0.1,0.6,0.1,0.7
		c0.2-0.1,0.1-0.3,0.1-0.4c-0.1-0.2,0.1-0.2,0.2-0.1c0.1,0.1,0,0.4,0,0.6C92.9,48.9,93,49.1,93.2,49.1L93.2,49.1z M88.6,43.3
		c-0.3,0-0.6,0.3-0.6,0.6c0,0.1,0,0.1,0.1,0c0.1-0.1,0.2-0.2,0.3-0.2c0.2,0,0.4,0.2,0.4,0.4c0,0.1-0.1,0.2-0.1,0.3
		c-0.1,0.1,0.1,0.2,0.1,0.1c0.1-0.1,0.3-0.3,0.4-0.4c0-0.1,0-0.1,0-0.2C89.2,43.6,89,43.3,88.6,43.3L88.6,43.3z M92.3,47.1
		c-1.1,0.3-1.4,1.2-1.6,2.1c-0.7,0-1,0.5-0.9,1.2c-0.3-0.4-0.3-1.4,0.6-1.4C90.7,48.1,91.1,47.1,92.3,47.1L92.3,47.1z M89,53.5
		c-0.7-0.5-1-1.2-1-2.1c-0.2,0.2-0.3,0.5-0.2,0.8c-0.4-0.3-0.7-0.8-0.9-1.3C87.1,52.2,87.9,52.9,89,53.5L89,53.5z M94.1,47.1
		c1.1,0.3,1.4,1.2,1.6,2.1c0.7,0,1,0.5,0.9,1.2c0.3-0.4,0.3-1.4-0.6-1.4C95.7,48.1,95.3,47.1,94.1,47.1L94.1,47.1z M97.4,53.5
		c0.7-0.5,1-1.2,1-2.1c0.2,0.2,0.2,0.7,0.2,0.9c0.4-0.3,0.8-1,0.9-1.4C99.4,52.2,98.6,52.9,97.4,53.5L97.4,53.5z M93.2,55.1
		c1,0,1.6-0.6,1.8-1.4c-0.2,0.5-0.8,1.2-1.4,1.2c-0.3,0-0.4-0.2-0.4-0.5c0,0.3-0.1,0.6-0.4,0.5c-0.7,0-1.2-0.7-1.4-1.2
		C91.6,54.6,92.2,55.1,93.2,55.1L93.2,55.1z M94,45.4c-0.1,0.3-0.3,0.8,0.1,1c0.3,0.2,0.7-0.1,0.9-0.5c0-0.1,0-0.1-0.1,0
		c-0.2,0.2-0.4,0.3-0.6,0.2C94,45.9,94,45.7,94,45.4C94.1,45.4,94.1,45.2,94,45.4L94,45.4z M92.4,46.4c-0.3,0.3-0.8-0.2-0.9-0.5
		c0-0.1,0-0.1,0.1,0c0.1,0.2,0.5,0.3,0.6,0.3C92.4,46.2,92.6,46.3,92.4,46.4L92.4,46.4z M91.1,43.8c-0.7,0.1-1.5,0.7-1.4,1.5
		c0.4-0.1,0.7-0.1,1.1,0c-0.1-0.2-0.4-0.4-0.7-0.4C90.3,44.4,90.8,44,91.1,43.8L91.1,43.8z M96.7,44.8c0.1,0.1,0.1,0.3,0.1,0.4
		c-0.4-0.1-0.7-0.1-1.1,0C96,44.9,96.3,44.8,96.7,44.8L96.7,44.8z M91.8,50.7c0,0.3,0,0.5,0,0.8c-0.5-0.2-0.7-0.5-0.8-1
		c0-0.4-0.5-0.5-0.5-0.1c0,0.2,0.1,0.4,0.3,0.6c0.3,0.3,0.5,0.5,0.6,1.1c0,0.1,0.1,0.2,0.1,0.3c0.1-0.2,0.2-0.4,0.3-0.6
		c0.1,0.2,0.2,0.3,0.3,0.5c0-0.1,0-0.2,0.1-0.3c0.1-0.3,0.2-0.9,0.1-1.2C92.1,50.3,91.8,50.3,91.8,50.7L91.8,50.7z M94.7,50.7
		c0,0.3,0,0.5,0,0.8c0.5-0.2,0.7-0.5,0.8-1c0-0.4,0.5-0.5,0.5-0.1c0,0.2-0.1,0.4-0.3,0.6c-0.4,0.3-0.5,0.5-0.6,1.1
		c0,0.1-0.1,0.2-0.1,0.3c-0.1-0.2-0.1-0.4-0.3-0.6c-0.1,0.2-0.2,0.3-0.3,0.5c0-0.1,0-0.2-0.1-0.3c-0.1-0.3-0.2-0.9-0.1-1.2
		C94.3,50.3,94.6,50.3,94.7,50.7L94.7,50.7z M98.5,43.9c0-0.3-0.3-0.6-0.6-0.6c-0.1,0-0.1,0,0,0.1c0.1,0.1,0.2,0.2,0.2,0.3
		c0,0.2-0.2,0.5-0.4,0.5c-0.1,0-0.2-0.1-0.3-0.1c-0.1-0.1-0.1,0.1-0.1,0.1c0.2,0.1,0.3,0.3,0.4,0.4c0.1,0,0.1,0,0.2,0
		C98.3,44.5,98.5,44.2,98.5,43.9L98.5,43.9z M85.7,85.6c0.2,0.2,0.6,0.3,1,0.2c1.8-0.2,3.6-1.6,3.9-3.5c-0.2,0.6-0.8,1.6-1.2,1.8
		c0.1-0.3,0.1-0.7,0-1.1c-0.1,1.2-0.9,1.8-1.5,2c0.1-0.4,0.2-1,0.1-1.4c0,0.9-0.5,1.7-1.5,1.9C86.2,85.7,85.9,85.7,85.7,85.6
		L85.7,85.6z M95.1,85.9c0.3,0.2,0.7,0.1,1.1-0.1c1.9-0.9,3.4-3,3-5.2c0,0.7-0.4,2-0.6,2.3c0-0.4-0.2-0.8-0.3-1.2
		c0.3,1.3-0.3,2.2-0.9,2.8c0-0.5-0.2-1.1-0.4-1.5c0.3,1,0,2-0.9,2.6C95.7,85.9,95.4,86,95.1,85.9L95.1,85.9z M96.5,43.8
		c0.1-0.7,0.7-1.2,1.3-1.2c-0.6,0.2-1,0.7-1.1,1.3L96.5,43.8z M96.5,43.8"/>
	<path class="st1" d="M90.2,45.4c-0.3,0.1-0.5,0.4-0.5,0.8c0,0.5,0.4,0.9,0.9,0.9c0.3,0,0.5-0.1,0.7-0.3c0-0.1,0.1-0.1,0.2-0.1
		c0.1,0,0.3,0,0.2-0.1c-0.1-0.1-0.2-0.2-0.3-0.4C91.1,45.7,90.7,45.4,90.2,45.4L90.2,45.4z M90.2,45.4"/>
	<path class="st1" d="M96.3,45.4c0.3,0.1,0.5,0.4,0.5,0.8c0,0.5-0.4,0.9-0.9,0.9c-0.3,0-0.5-0.1-0.7-0.3c0-0.1-0.1-0.1-0.2-0.1
		c-0.1,0-0.3,0-0.2-0.1c0.1-0.1,0.2-0.2,0.3-0.4C95.3,45.7,95.8,45.4,96.3,45.4L96.3,45.4z M96.3,45.4"/>
	<path class="st7" d="M90.6,45.7c0.3,0,0.5,0.2,0.5,0.5c0,0.3-0.2,0.5-0.5,0.5c-0.2,0-0.4-0.2-0.5-0.4c0-0.1,0.1-0.1,0.2-0.1
		c0,0,0.1,0.1,0.2,0.1c0.1,0,0.3-0.1,0.3-0.3c0-0.1-0.1-0.2-0.2-0.2C90.4,45.8,90.4,45.7,90.6,45.7L90.6,45.7z M90.6,45.7"/>
	<path class="st7" d="M95.9,45.7c0.3,0,0.5,0.2,0.5,0.5c0,0.3-0.2,0.5-0.5,0.5c-0.2,0-0.4-0.2-0.5-0.4c0-0.1,0.1-0.1,0.2-0.1
		c0.1,0,0.1,0.1,0.2,0.1c0.1,0,0.3-0.1,0.3-0.3c0-0.1-0.1-0.2-0.2-0.2C95.7,45.8,95.7,45.7,95.9,45.7L95.9,45.7z M95.9,45.7"/>
	<path class="st1" d="M94.8,50.5c0.1,0.2,0.1,0.5,0.1,0.7c0.3-0.2,0.4-0.5,0.4-0.9C95.1,50.4,95,50.4,94.8,50.5L94.8,50.5z
		 M94.8,50.5"/>
	<path class="st1" d="M91.6,50.5c-0.1,0.2-0.1,0.5-0.1,0.7c-0.3-0.2-0.4-0.5-0.4-0.9C91.4,50.4,91.5,50.4,91.6,50.5L91.6,50.5z
		 M91.6,50.5"/>
	<path class="st1" d="M92,53c0-0.4,0-0.7-0.2-1C91.6,52.3,91.6,52.8,92,53L92,53z M92,53"/>
	<path class="st1" d="M94.5,53c0-0.4,0-0.7,0.2-1C94.8,52.3,94.8,52.8,94.5,53L94.5,53z M94.5,53"/>
	<path class="st5" d="M93.2,53.8c0.7,0,1-0.3,1-0.9c0.1-0.7-0.4-1.7-0.2-2.3c0.1-0.4-0.4-0.5-0.6-0.2c-0.2,0.4-0.1,0.8-0.2,1.2
		c-0.1-0.4,0-0.9-0.2-1.2c-0.2-0.3-0.7-0.2-0.6,0.2c0.2,0.6-0.3,1.6-0.2,2.3C92.2,53.5,92.6,53.8,93.2,53.8L93.2,53.8z M93.2,53.8"
		/>
	<path class="st5" d="M37,56.5c0.2,0.1,0.3,0.3,0.5,0.4c0.4,0,0.7,0.2,1,0.5c0,0,0.1,0.1,0.1,0.1c0,0,0.1,0.1,0.1,0.1
		c0.1,0.2,0.1,0.5-0.1,0.6c-0.1,0.1-0.2,0.1-0.4,0.1c0,0.1,0,0.2,0.1,0.3c0,0.1,0,0.2,0,0.4c0,0.5-0.1,1-0.5,1.4
		c-0.3,0.4-0.7,0.7-1.2,0.7c-0.1,0-0.2,0-0.2,0c-0.6,0-1.2-0.3-1.6-0.7c-0.3-0.4-0.6-0.8-0.7-1.3c-0.3,0.3-0.6,0.5-0.9,0.8
		c-0.7,0.7-1.3,1.6-1.7,2.5c-0.2,0.6-0.5,1.5-0.2,2.1c0.1,0.2,0,0.5-0.3,0.6c-0.2,0.1-0.5,0-0.6-0.3c-0.3-0.8-0.1-1.9,0.2-2.7
		c0.4-1,1.1-2,1.8-2.8c0.4-0.5,0.9-0.7,1.4-1.1c0-0.3,0.1-0.6,0.2-0.9c0.1-0.3,0.3-0.5,0.5-0.7l-0.1,0c-1,0.4-1.8,1-2.5,1.8
		c-0.7,0.8-1.3,1.7-1.7,2.6c-0.2,0.6-0.7,1.7-0.4,2.3c0.1,0.2,0.1,0.5-0.1,0.6c-0.2,0.1-0.5,0-0.6-0.3c-0.3-0.9-0.1-2.1,0.3-2.9
		c0.4-1.1,1.1-2.1,1.9-2.9c0.8-0.8,1.8-1.5,2.9-2c0.8-0.3,2-0.6,2.9-0.2c0.2,0.1,0.3,0.4,0.2,0.6C37.3,56.4,37.2,56.5,37,56.5
		L37,56.5z M37.1,57.8c-0.3,0-0.7,0.1-1,0.2c-0.4,0.2-0.8,0.4-1.2,0.6v0c0.1,0.4,0.3,0.9,0.6,1.2c0.3,0.3,0.6,0.5,1,0.5
		c0,0,0.1,0,0.1,0c0.3,0,0.5-0.2,0.6-0.4c0.2-0.3,0.3-0.6,0.3-0.9c0-0.1,0-0.2,0-0.3C37.4,58.4,37.3,58.1,37.1,57.8L37.1,57.8z
		 M37.1,57.8"/>
	<path class="st7" d="M29.5,64.3c-0.2-0.1-0.4-0.2-0.5-0.4c-0.2-0.5-0.2-1.1-0.1-1.7c-0.1-0.2-0.3-0.4-0.3-0.7c0,0-0.1,0.1-0.1,0.1
		c-0.5,0.6-0.3,1.2,0,1.8c0.2,0.3,0.2,0.7,0.2,1.1c-0.1,0.6-0.4,1-0.9,1c-0.7,0.1-1-0.3-1.2-0.8c0.2,0.2,0.7,0.3,0.9,0.1
		c0-0.1,0-0.2,0-0.2c0-0.1-0.1-0.4-0.2-0.5c-0.3-0.4-1-1.1-0.9-1.8c-0.2,0.1-0.3,0.7-0.1,1c-1.7-0.8-1-2.5,0.2-3.3
		c0.4-0.4,0.7-0.7,0.5-1.3c-0.1-0.4-0.3-0.6-0.3-1c-0.3,0.4-0.1,0.7,0.2,1c-0.6,0.2-1.3-0.1-1.5-0.8c-0.1-0.7,0.3-1.3,0.6-1.8
		c0.3-0.4,0.3-0.6,0.3-1.1c-0.3,0.1-0.7,0.1-1-0.1c-0.3-0.2-0.5-0.6-0.5-1c0-0.6,0.4-0.9,0.8-1.1c-0.2,0.3,0,0.9,0.5,0.5
		c0.3-0.2,0.2-0.6,0.4-0.9c0.2-0.4,0.5-0.9,1-1.1v0c0.1-0.3,0.1-0.5,0.2-0.7c-0.6-0.2-1.1-0.5-1.4-1l-0.3-0.5
		c-0.1-0.1-0.2-0.1-0.3-0.3c-0.1-0.2-0.3-0.4-0.4-0.6l-0.4-0.5c1.3-0.5,2.9-0.8,4.4-0.3c0.2,0.1,0.5,0.2,0.6,0.3l0.1-0.5l1.2-0.7
		l0.7-0.2l0.5-0.1l0.5,0l0.7,0l1.1,0.6c1.1,0.6,1.7,0.9,2.2,2c0.5,0.3,1.1,0.6,1.6,0.8c0.5,0.3,1,0.6,1.5,0.9c0.8,0.2,1.2,1,0.7,1.7
		c-0.1,0.1-0.1,0.2-0.2,0.3c0,0,0,0,0,0.1C40.1,52.7,40,52.9,40,53c-0.2,0.3-0.4,0.4-0.8,0.4c0,0.2-0.1,0.3-0.2,0.4
		c-0.1,0.1-0.2,0.1-0.3,0.2c-0.1,0-0.2,0.1-0.3,0.1c-0.4,0-0.8,0-1.2,0c-0.3,0-0.7-0.1-1-0.1c-0.3,0-0.6,0-0.8,0
		c-0.2,0-0.4,0.1-0.6,0.1c-0.2,0.5-0.1,0.9,0.2,1.3c0.8-0.2,1.6-0.3,2.3,0c0.2,0.1,0.3,0.2,0.4,0.4c0.4,0,0.7,0.4,0.7,0.8
		c0,0.1,0,0.2-0.1,0.3c0.2,0.1,0.4,0.2,0.5,0.4c0,0,0.1,0.1,0.1,0.1c0,0,0.1,0.1,0.1,0.1c0.2,0.2,0.2,0.5,0,0.7
		c0.1,0.1,0.2,0.2,0.3,0.3c1.5-1.5,3.2-2.6,5.2-3.5l0.2-0.1h0c0.2,1.1,0.3,2.2,0.3,3.3v1.1c-0.1,0.1-0.1,0.2-0.2,0.3
		c-0.2,0.5-0.3,0.8-0.7,1.3c0,0.6-0.3,1.1-0.8,1.4c-0.1,0.3-0.4,0.6-0.6,0.9c0.3,0.9,0.4,1.7,0.3,2.6c1.2,0.7,2.4,1.3,3.5,1.9
		c0.7,0.4,1,1.1,1,1.9c0.1,1.4-0.1,2.7-0.2,4.1c-0.1,0.7-0.1,1.4-0.2,2.1c-0.1,0.7-0.2,1.5-0.3,2.2c-0.1,0.4-0.1,0.5-0.4,0.8
		c0,0,0,0.1,0,0.2c0,0.1,0,0.2,0,0.3c0.1,0.5,0.1,1.4-0.1,1.8c-0.2,0.4-0.4,0.9-0.9,1.1c-0.3,0.2-0.6,0.1-0.8-0.1
		c0,0-0.1-0.1-0.1-0.1l-0.1,0c-0.2,0.1-0.5,0-0.6-0.2c-0.7-0.6-1-1.8-1-2.6c0-0.3,0.1-0.6,0.4-0.8c0.2-0.1,0.6-0.4,0.9-0.4
		c0,0,0,0,0.1-0.1c0.1,0,0.3-0.2,0.3-0.3c0,0-0.1-0.1-0.1-0.1C44.1,77.2,44,77,44,76.8c0-0.4,0.2-0.6,0.5-0.7c1.2-0.5,1-4.1,0.6-5.2
		c-0.1-0.4-0.6-0.5-0.9-0.6c-1-0.2-1.9-0.4-2.9-0.5c-0.2,0.4-0.4,0.8-0.7,1.1c-0.9,1-2.1,1.6-3.3,2.3c-0.9,0.5-1.9,1.1-2.6,1.9
		l-0.2,0.2c0.2,0.1,0.3,0.1,0.5,0.2c2,0.7,5,2.6,5.8,4.7c0.3,0.7,0.6,1.3,1,1.9c0.4,0.5,0.8,0.5,1.2,0.1c0.1,0.8-0.3,1.9-1.6,1.6
		c-0.3-0.1-0.5-0.2-0.8-0.4c-0.7,1.4-3.5,2.2-3.9,3.2c0,0,0,0,0,0c0,0.2,0.6,0.4,0.7,0.4c2.1,0.7,4.4,0.1,6.3,1.4
		c0.3,0.2,0.3,0.5,0.4,0.9c0,0.1,0.1,0.2,0.3,0.3c0.3,0,0.6,0.1,0.7,0.2c0.7,0.3,1.4,1.1,1.5,1.8c0,0.3-0.1,0.6-0.4,0.7
		c-0.1,0-0.1,0-0.2,0.1l0,0.1c0,0.2-0.2,0.4-0.4,0.5c-0.8,0.4-2,0.1-2.8-0.2c-0.3-0.1-0.5-0.4-0.5-0.7c0-0.2-0.1-0.6,0.1-1.1
		c0,0,0-0.1,0-0.1c0-0.1,0-0.4-0.1-0.5c0,0-0.1-0.1-0.1-0.1c-0.3,0.5-0.9,0.4-1.2,0c-0.2-0.2-0.6-0.4-0.8-0.5
		c-1.6-0.8-3.1-0.9-4.8-1.3c-1.2-0.3-1.7-1.1-1.3-2.2c0.3-0.9,0.5-1.7,0.4-2.6c-0.1-0.2-0.1-0.3-0.2-0.5c-0.4-0.1-0.8-0.4-1-0.8
		c-0.2,0-0.6-0.3-0.8-0.6c0.1,0.8,0.1,1.6-0.1,2.4c-0.2,0.9-0.5,1.8-0.8,2.6c-0.4,1.1-0.7,2.6,0.8,2.2c-0.3,1.4-2.5,1.5-2.8,0.1
		c-1.2,0.6-2.8,0.7-4.1,0.5c0.2,0.8,0.5,1.5,0.9,2.3c0.5,0.9,1,1.8,1.7,2.6c0.6,0.6,1.1,0.7,1.3,1.6c0.1,0,0.1,0,0.2,0.1
		c0.7,0.5,1.3,1.6,1.1,2.4c-0.1,0.3-0.3,0.5-0.6,0.5c-0.1,0-0.1,0-0.2,0l0,0.1c-0.1,0.2-0.3,0.3-0.5,0.4c-0.9,0.1-1.9-0.5-2.6-1.1
		c-0.3-0.2-0.3-0.5-0.3-0.8c0-0.3,0.1-0.5,0.2-0.7c0-0.1,0.1-0.2,0.1-0.3c0,0,0,0,0-0.1c0-0.1-0.1-0.2-0.1-0.3c0,0-0.1,0-0.1,0
		c-0.2,0.1-0.4,0.1-0.6,0c-0.3-0.2-0.4-0.5-0.4-0.8c0-0.3-0.1-0.7-0.2-0.9c-0.3-1-0.9-2-1.4-2.9c-0.4-0.8-0.8-1.5-1.2-2.3
		c-0.2-0.4-0.4-0.9-0.4-1.4c0-0.7,0.6-1.1,1.2-1.1c0.2,0,0.6,0,0.8-0.1c0,0,0,0,0.1,0c0.3-0.1,0.7-0.3,1-0.4c0,0,0.1,0,0.1,0
		c-0.3-0.4-0.4-0.9-0.3-1.4c-0.2-0.4-0.4-0.9-0.3-1.3c-0.2-0.3-0.3-1.1-0.2-1.4c-0.1,0-0.1-0.1-0.2-0.1c-0.2,0.3-0.4,0.5-0.8,0.6
		c-0.2,0.4-0.5,0.8-1,0.9c-0.4,0.1-0.9,0-1.3-0.2L21,83c-1.3,0-1.7-1.1-1.8-2c0.4,0.3,0.7,0.4,1.2,0.3c0.8-0.2,1.2-0.9,1.6-1.5
		c0.4-0.7,0.7-1.5,1.1-2.2c0.4-0.9,0.7-1.7,1.1-2.5c0.5-1.1,1.2-2.2,2-3.1c0.5-1,1-2,1.5-2.9c0.9-1.4,1.8-2.6,3-3.7
		c-0.1-0.1-0.3-0.2-0.3-0.4c0-0.1-0.1-0.2-0.1-0.3c0,0-0.1,0-0.1,0C29.8,64.7,29.6,64.5,29.5,64.3L29.5,64.3z M29.5,64.3"/>
	<path class="st7" d="M23.7,36.8c0.1-0.1,0.2-0.1,0.2-0.2c0.3-0.2,0.6-0.4,0.7-0.7c0.1-0.3,0.3-0.5,0.6-0.5c0.4,0,0.7,0.4,0.6,0.8
		c-0.1,0.7-0.6,1.2-1.1,1.6c-0.6,0.6-1.1,1.1-1.1,2c0,0.5,0.2,0.8,0.5,1.1c0.3-0.5,0.6-0.9,1-1.3c0.3-0.3,0.6-0.7,0.6-1.2
		c0.1-0.8,1.2-0.9,1.3,0c0.1,0.9-0.2,1.6-0.7,2.3c-0.6,0.9-1.1,1.8-0.7,3c0.4,1.3,1.9,1.4,3,1c0.2-0.1,0.4-0.2,0.5-0.3
		c-0.7-0.4-1.3-0.9-1.7-1.6c-0.4-0.8-0.5-1.6-0.3-2.4c0.1-0.4,0.3-0.9,0.5-1.3c-0.5-1.1-0.6-2.3,0-3.4c0.3-0.6,0.7-1.1,1.2-1.4
		c0-0.4,0.2-0.9,0.4-1.3c0.4-0.8,1.1-1.3,1.8-1.7c0.3-0.1,0.6-0.3,0.8-0.5c0.6-0.6,1.3,0.1,1,0.6c-0.3,0.5-0.8,0.8-1.2,1.2
		c-0.4,0.3-0.9,0.6-1.1,1.1c0,0,0,0,0,0c0.1,0,0.2,0,0.3-0.1c0.3,0,0.8-0.1,1-0.4c0.2-0.2,0.5-0.3,0.7-0.2c0.3,0.2,0.4,0.7,0.2,1
		c-0.4,0.6-1,0.8-1.7,1c-0.8,0.2-1.5,0.5-1.8,1.3c-0.2,0.4-0.2,0.8-0.1,1.2c0.5-0.3,1-0.5,1.5-0.8c0.4-0.2,1-0.4,1.2-0.8
		c0.2-0.3,0.4-0.4,0.7-0.4c0.4,0.1,0.6,0.6,0.5,1c-0.3,0.9-1,1.3-1.8,1.7c-1,0.6-1.8,1.2-2,2.4c-0.1,1,0.6,1.7,1.4,2
		c0-0.1,0.1-0.1,0.1-0.2c0.8-1.5,1.9-3,4-2.9c0.9,0,1,1.3,0,1.3c-0.9,0-1.6,0.9-2.1,1.8c0.4-0.2,0.8-0.4,1.2-0.6
		c0.1-0.1,0.2-0.1,0.3-0.2c0.7-0.4,1.4-0.9,2.2-1.1c1-0.3,1.9-0.1,2.7,0.4c0.4,0.2,0.5,0.7,0.3,1c-0.2,0.3-0.6,0.3-0.9,0.2
		c-0.3-0.2-0.7-0.2-1-0.2c-0.9,0.1-1.9,0.9-2.6,1.4c-0.2,0.2-0.5,0.3-0.7,0.5c0,0.1,0.1,0.1,0.1,0.2c0.2,0.3,0.2,0.6,0.1,0.9
		c0.6-0.3,1.3-0.1,1.8,0.4c0.5,0.1,1,0.4,1,1c0,0.4-0.3,0.8-0.6,0.8c0.1-0.5-0.2-0.7-0.7-0.5c-0.6,0.2-1.1,0.6-1.8,0.5
		c-0.5,0-0.9-0.2-1.2-0.5c-0.1,0.1-0.3,0.1-0.4,0.1c-0.2,0-0.3,0.1-0.5,0c-0.1,0.4-0.3,0.7-0.6,0.9c-0.2,0.1-0.4,0.2-0.6,0.3
		c-0.7,0.2-1.6,0.2-1.9-0.7c-0.1-0.2-0.1-0.4-0.3-0.6C28.4,47,28.2,47,28,47c-1.1,0.2-2.3,0-3.2-0.7c-0.7-0.5-1.2-1.2-1.3-2.1
		c-0.1-0.4-0.1-0.9-0.1-1.3c-1-0.8-1.5-1.8-1.5-3.1c0-0.6,0.2-1.3,0.5-1.8c-0.2-0.4-0.2-0.9-0.2-1.3c0-0.9,0.4-1.6,1-2.3
		c0.2-0.2,0.4-0.5,0.5-0.8c0.2-0.8,1.2-0.5,1.2,0.2c0,0.6-0.3,1.1-0.6,1.6C24,35.8,23.7,36.3,23.7,36.8
		C23.7,36.8,23.7,36.8,23.7,36.8L23.7,36.8z M23.7,36.8"/>
	<path class="st3" d="M29.8,34.4c0-0.3,0.1-0.6,0.1-0.8c0.2-0.5,0.7-0.9,1.3-1.2c0.4-0.3,0.8-0.6,1.1-1c0.1-0.1-0.1-0.4-0.3-0.1
		c-0.3,0.3-0.6,0.5-0.9,0.6c-0.7,0.3-1.3,0.8-1.6,1.5c-0.2,0.3-0.4,1-0.3,1.3c-0.5,0.3-1,0.7-1.3,1.3c-0.5,1-0.5,2.1,0.1,3.2
		c-0.3,0.4-0.5,0.8-0.6,1.3c-0.4,1.7,0.7,3.2,2.2,3.8c0.3-0.3,0.5-0.6,0.8-1c-1.2-0.4-2-1.3-1.9-2.5c0.2-1.3,1.1-2,2.2-2.7
		c0.6-0.4,1.3-0.7,1.6-1.5c0.1-0.2-0.1-0.6-0.4-0.2c-0.3,0.5-0.9,0.8-1.4,1c-0.7,0.3-1.3,0.6-1.8,1c-0.4-0.7-0.5-1.4-0.2-2.1
		c0.4-1,1.2-1.3,2.1-1.6c0.5-0.2,1.1-0.3,1.5-0.8c0.1-0.1,0-0.5-0.2-0.2c-0.3,0.3-0.8,0.4-1.2,0.5C30.3,34.2,30,34.3,29.8,34.4
		L29.8,34.4z M31.8,44.9c0.2-0.3,0.5-0.4,0.8-0.5c0.2-0.1,0.4-0.2,0.6-0.3c0-0.1-0.1-0.2-0.3-0.3c0.3,0,0.5,0,0.6,0.1
		c0.3-0.2,0.6-0.4,0.9-0.6c1.3-1,2.6-1.9,4-1.2c0.4,0.2,0.4-0.2,0.2-0.4c-2-1.1-3.3,0-4.8,0.9c-0.7,0.4-1.3,0.7-2.1,0.8
		c-0.1,0.1-0.1,0.2-0.2,0.3c-0.3,0.5-0.6,0.9-0.9,1.3C31.1,45,31.4,44.9,31.8,44.9L31.8,44.9z M31.8,44.9"/>
	<path class="st1" d="M29.8,49.8c-0.2,0.2-0.4,0.4-0.6,0.4c-0.1,0-0.1,0-0.2,0c-0.2,0.1-0.5,0.1-0.8,0.1c-0.2,0-0.4-0.1-0.6-0.1
		c0.3-0.1,0.3-0.2,0.5-0.5C27.8,50,27.5,50,27.2,50c-0.3-0.1-0.6-0.3-0.9-0.6c0.2,0,0.5-0.1,0.7-0.3c-0.5,0.1-1,0-1.3-0.5
		c-0.1-0.2-0.3-0.4-0.5-0.7c1.3-0.4,4.5-0.7,4.7,1.2c0-0.4-0.1-0.6-0.2-0.9c0.7,0.1,1.4-0.2,1.8-0.7c0.1-0.2,0.3-0.4,0.3-0.7v0
		c0.2-0.1,0.3-0.2,0.5-0.3l0.1,0c0.5,0.4,1,0.7,1.6,0.7c0.1,0,0.2,0,0.3,0c1,0.5,1.5,0.8,2,1.9c0.8,0.4,2.4,1.3,3.2,1.8
		c0.6,0.1,0.8,0.6,0.5,1c0,0.1-0.1,0.2-0.2,0.3c-0.1,0.1-0.2,0.3-0.2,0.4c-0.1,0.2-0.3,0.2-0.5,0.3c-1,0.1-1.8-0.7-2.8-0.3
		c1-0.1,1.5,0.4,2.3,0.5c0.5,0.1,0.1,0.4-0.2,0.4c-1.2,0.1-2.1-0.2-3.1-0.1c-0.4,0-0.8,0.1-1.1,0.3c-0.4,0.2-0.8,0.5-0.6,1.1
		c-0.7-0.3-1-0.8-0.9-1.5c-0.1,0.3-0.1,0.6-0.1,0.9c-0.7-0.1-1.1-0.5-1.1-1.2c-0.1,0.2-0.1,0.5-0.1,0.7c-0.7-0.1-1.1-0.7-0.9-1.4
		c-0.1,0.1-0.2,0.3-0.2,0.5c-0.3-0.4-0.4-1.1-0.1-1.5c-0.5,0.4-0.4,1.3,0.1,1.7c0,0.4,0.5,1,1.2,1c0.2,0.4,0.7,0.6,1.1,0.5
		c0.2,0.5,0.9,0.8,1.3,0.7c-0.4-0.5-0.1-0.9,0.4-1.2c-0.2,0.6-0.1,1.2,0.3,1.7c-0.1,0-0.3,0.1-0.4,0.1c-0.8,0.3-1.6,0.8-2.3,1.4l0,0
		c-0.5-0.5-1.1-0.9-1.8-1.2c-0.3-0.3-0.4-0.6-0.6-1C29.3,54,29,53,29.2,51.8v-0.1c0-0.2,0.1-0.4,0.1-0.6l0,0v0
		c0-0.1,0.1-0.2,0.1-0.4l0,0C29.6,50.4,29.7,50.1,29.8,49.8L29.8,49.8z M29.8,49.8"/>
	<path class="st1" d="M30.7,75.5c-0.5,0.8,0.1,1.9,0.4,2.9c0.6,1.8,1,3.9,0.7,5.7c-0.1,0.9-0.4,1.6-0.8,2.5
		c-0.5,1.4-0.7,2.4,0.5,2.8c-1.4,0.6-2-0.4-1.6-1.2c-0.9,1.1-3,1.2-4.5,0.9c-0.3-0.1-0.5-0.1-0.5,0.1c0.2,1,0.5,1.9,1,2.8
		c0.5,1,1,1.9,1.7,2.7c0.4,0.4,1.1,0.7,1.2,1.3c0.1,0.2,0,0.4-0.1,0.6c0,0.1-0.1,0.1-0.2,0c-0.1-0.1-0.1-0.1-0.2-0.2
		c-0.1-0.1-0.2,0-0.1,0.1c0.1,0.1,0.1,0.1,0.1,0.2c0.1,0.1,0,0.1-0.1,0.2c-0.4,0.1-0.8,0.1-1.2-0.1c-0.3-0.2-0.2-0.5-0.3-0.8
		c-0.1-0.3-0.2-0.5-0.7-0.3c-0.2,0.1-0.4-0.1-0.4-0.4c0-0.3-0.1-0.7-0.3-1c-0.6-1.7-1.9-3.5-2.6-5.3c-0.1-0.4-0.3-0.8-0.4-1.2
		c0-0.4,0.3-0.7,0.8-0.7c0.3,0,0.6,0,0.9-0.1c0.4-0.1,0.7-0.3,1.1-0.4c0.5-0.1,0.7-0.1,1.1,0.2c0,0,0,0,0,0c0-0.2-0.2-0.4-0.4-0.6
		c-0.6-0.5-0.8-1.4-0.4-2c0.2-0.3,0.3-0.6,0.2-0.9c0,0.2-0.3,0.7-0.7,1c-0.3-0.8-0.2-1.5,0.2-2.1c-0.3,0.2-0.4,0.5-0.5,0.9
		c-0.1-0.7-0.2-1.5,0.2-2.1c-0.2,0.1-0.3,0.4-0.4,0.6c-0.3-0.7-0.3-1.5-0.3-2.2c-0.1,0.5-0.2,0.9-0.2,1.4c0,0.6,0,1.2-0.7,1.3
		c0.1-0.2,0.1-0.4,0-0.6c-0.1,1.1-1.1,1.8-1.9,1.3c0.3-0.1,0.6-0.3,0.6-0.7c-0.9,0.7-2.1,0.4-2.4-0.5c1.2,0.4,2.1-0.7,2.6-1.6
		c1.3-2.2,2.1-5.6,4.1-7.8c1.2-2.6,2.3-4.6,4.7-6.7c0.1-0.1,0.3-0.2,0.4-0.3c0,0,0.1,0.1,0.1,0.1c0.3,0.3,0.5,0.4,0.5,0.7
		c0,0.2-0.1,0.5-0.3,0.4c-0.2-0.1-0.3-0.2-0.4-0.4c-0.2,0.3-0.3,0.8,0.1,1.2c0.2,0.2,0.4,0.3,0.6,0.3c0.1,0,0.3,0,0.3,0
		c0,0.5,0.1,0.9,0.4,1.2c0.2,0.2,0.4,0.3,0.6,0.3c0.5,0.1,0.9-0.2,1.3-0.5c-0.4,0.1-0.8,0.2-1.1-0.1c-0.2-0.2-0.3-0.5-0.1-0.9
		c0.1-0.3,0.3-0.6,0.4-0.8c0.5-1,0.5-2.1,0.1-3.1c-0.2-0.4-0.4-0.7-0.7-1c0.7,0.3,1.6,0.4,2.3,0.2c0.4-0.1,0.8-0.3,1.2-0.4
		c0.5-0.2,0.7,0.2,0.8,0.5c0.2-0.3,0.3-0.7,0-1.1c-0.2-0.2-0.6-0.3-0.9-0.3c-0.5,0-1,0.3-1.5,0.1c-0.9-0.2-1.3-1.1-1.4-1.9l0-0.2
		c0.1-0.1,0.3-0.2,0.4-0.3c0.1,0.5,0.4,0.9,0.7,1.3c0.4,0.4,1,0.7,1.6,0.7c0.1,0,0.1,0,0.2,0c0.5-0.1,0.9-0.3,1.2-0.7
		c0.3-0.4,0.5-0.9,0.5-1.4c0-0.1,0-0.2,0-0.4c0-0.1,0-0.2-0.1-0.3c0,0,0.1,0,0.1,0c2.5,1.8,4.2,4.4,4.1,7.4c-0.8-0.5-1.6-1-2.4-1.6
		c-0.4-0.3-0.8-0.6-1.3-0.9c-0.6-0.3-1.4-0.5-1.9-0.2c0.5-0.2,0.9,0,1.4,0.2c0.6,0.3,1.1,0.7,1.6,1c1.9,1.5,4.2,2.5,6.3,3.7
		c0.6,0.3,0.8,0.8,0.8,1.5c0.1,1.4-0.1,2.7-0.2,4c-0.1,1.3-0.3,2.9-0.5,4.2c-0.1,0.4-0.1,0.4-0.3,0.6c-0.1,0.1-0.2,0.3-0.2,0.4
		c0,0.3,0,0.6-0.3,0.6c-0.1,0-0.2,0-0.1-0.1c0-0.1,0-0.2,0-0.3c0-0.2-0.1-0.1-0.1,0c0,0.1,0,0.2,0,0.2c0,0.1-0.1,0.1-0.2,0.1
		c-0.3-0.2-0.6-0.5-0.7-0.9c-0.1-0.2-0.1-0.3,0-0.4c0.2-0.1,0.4-0.4,0.5-0.6c0.2-0.3,0.1-0.6-0.2-0.5c-0.2,0.1-0.3-0.2-0.2-0.4
		c0.1-0.2,0.3-0.2,0.4-0.4c0.4-0.3,0.7-0.6,0.8-1.2c0.3-1.4,0.4-3.1-0.1-4.4c-0.2-0.5-0.7-0.7-1.3-0.9c-1.1-0.2-2.1-0.4-3.2-0.5
		c-0.8-0.1-1.6-0.1-2.4,0c0.2-0.2,0.3-0.3,0.4-0.7c-0.4,0.6-1.3,0.8-2.2,0.4c0.4-0.1,0.6-0.3,0.7-0.6c-0.9,0.8-1.9,0.3-2.3-0.1
		c0.3,0,0.5-0.1,0.7-0.3c-0.7,0.5-1.3-0.1-1.5-0.9c0,0.5,0.2,1,0.6,1.2c0.3,0.6,1.2,0.8,1.4,0.8c0.4,0.4,1.8,0.6,2.2,0.4
		c0.3-0.1,1-0.1,2.2,0.1c-1.2,2.5-4.7,3-6.5,5.1c-1.2,0-2.3,0.6-2.7,1.5c0.5-0.6,1.3-1.1,2.1-1.1c0.4,0,0.5,0.3,0.1,0.5
		c-1.2,0.5-2,1.4-2.6,2.6C31,77.3,30.4,76.4,30.7,75.5L30.7,75.5z M30.7,75.5"/>
	<path class="st1" d="M37.1,57.8c-0.3,0-0.7,0.1-1,0.2c-0.4,0.2-0.8,0.4-1.2,0.6v0c0.1,0.4,0.3,0.9,0.6,1.2c0.3,0.3,0.6,0.5,1,0.5
		c0,0,0.1,0,0.1,0c0.3,0,0.5-0.2,0.6-0.4c0.2-0.3,0.3-0.6,0.3-0.9c0-0.1,0-0.2,0-0.3C37.4,58.4,37.3,58.1,37.1,57.8L37.1,57.8z
		 M37.1,57.8"/>
	<path class="st7" d="M39.4,52.2c0.1-0.3,0.2-0.3,0.3-0.5c0.2-0.2-0.1-0.4-0.3-0.3c-0.1,0.1-0.4,0.2-0.5,0.2
		C39.3,51.7,39.4,51.9,39.4,52.2L39.4,52.2z M39.4,52.2"/>
	<path class="st7" d="M26.2,48.2c1-0.3,2.8-0.1,3.2,1c0-0.1-0.1-0.1-0.1-0.2c-0.3-0.3-0.6-0.4-0.7-0.2c-0.1,0.1,0,0.4,0.3,0.7
		c0.1,0.1,0.1,0.1,0.2,0.2c-0.6-0.1-0.9-0.6-0.7-1C27.7,48.2,26.9,48.1,26.2,48.2L26.2,48.2z M26.2,48.2"/>
	<path class="st7" d="M36.4,49.9c-0.2,0-0.9-0.2-1,0c-0.2,0.5-0.5,0.8-1.1,0.8c-0.6,0-1.1-0.4-1.2-0.9c0-0.1,0-0.1,0-0.2
		c-0.4,0-0.9-0.1-1.1-0.3c0.7,0.1,1.1-0.1,1.5-0.3c0.4-0.3,0.9-0.4,1.4-0.4c0.2,0,0.5-0.1,0.6-0.3c0.1,0.2-0.2,0.5-0.3,0.5
		c0.1,0.1,0.2,0.3,0.2,0.5C35.5,49.7,36.1,49.8,36.4,49.9L36.4,49.9z M36.4,49.9"/>
	<path class="st1" d="M39.4,58.9c1.4-1.4,2.9-2.5,4.9-3.4c0,0.3,0.1,0.7,0.1,1v0c-0.6,0.4-1.1,0.9-1.6,1.3c0.5-0.3,1.1-0.6,1.6-0.8
		V57c0,0.2,0,0.3,0,0.5V59c0,0.5-0.2,1.2-0.6,1.5c0-0.3-0.1-0.6-0.3-0.7c0.2,0.5,0.2,1.3-0.3,2c0-0.3-0.1-0.9-0.3-1.1
		c0.1,0.7,0.2,1.6-0.6,2.2h0c0-0.1,0-0.1-0.1-0.2C41.5,61.1,40.6,59.9,39.4,58.9L39.4,58.9z M39.4,58.9"/>
	<path class="st1" d="M35.1,76c1.8,0.7,4.5,2.4,5.2,4.3c0.3,0.7,0.6,1.4,1.1,2c0.3,0.3,0.6,0.6,1.1,0.5c-0.8,0.9-1.8,0.2-2-0.6
		c-0.3,2.6-3.7,2.5-4.2,4.2c0,0.4,0.2,0.7,1,1c1.6,0.5,3.3,0.1,4.9,0.8c0.4,0.2,0.8,0.3,1.3,0.8c0.1,0.1,0.1,0.3,0.1,0.4
		c0,0.3,0.6,0.4,0.6,0.8c0,0.1,0,0.2,0,0.2c0,0.1-0.1,0.2-0.2,0.1c-0.1-0.1-0.2-0.1-0.3-0.1c-0.2-0.1-0.2,0.1,0,0.1
		c0.1,0,0.1,0.1,0.2,0.1c0.1,0.1,0.1,0.1,0,0.2c-0.3,0.2-0.7,0.3-1.1,0.3c-0.2,0-0.2-0.1-0.2-0.2c0-0.3-0.1-0.6-0.3-0.8
		c-0.3-0.3-0.6-0.3-0.8,0c-0.1,0.2-0.3,0.2-0.6,0c-0.2-0.2-0.6-0.4-0.9-0.6c-1.6-0.8-3.1-0.9-4.9-1.3c-0.9-0.2-1.3-0.7-1-1.6
		c0.2-0.5,0.4-1.2,0.5-1.9c0-0.6,0-0.9-0.2-1.5c-0.1-0.3-0.2-0.6-0.2-1c0-0.4-0.1-0.8-0.3-0.9c0.2,0.3,0.1,0.6,0.1,0.9
		c0,0.2,0,0.5,0,0.7c-1-0.2-1.1-1.3-1.1-1.8c-0.1,0.3-0.1,0.8,0.1,1.1c-0.3-0.2-0.6-0.5-0.7-0.7c-0.6-0.8-0.7-1.9-1-2.8
		c0.3-0.6,0.8-1.4,1.5-2C33.6,75.9,34.3,75.7,35.1,76L35.1,76z M35.1,76"/>
	<path class="st3" d="M36.6,46.7c0.1-0.8-0.8-0.8-1.2-0.7c-0.6,0.1-1.4,0.5-1.9,0.2c0.8,0.2,1.3-0.3,2-0.4c-0.5-0.6-1-0.5-1.4-0.2
		c-0.4,0.2-0.9,0.3-1.4,0.1c-0.3-0.1-0.7-0.3-1.1-0.2c0.4-0.2,0.7-0.2,1.1-0.1c0.4,0.1,0.8,0.1,1-0.4c0.1-0.3,0.1-0.6-0.3-0.8
		c0.2,0.7-0.6,0.9-1.3,0.8c-0.6,0-1.3,0-1.9,0.5c-0.2,0.2-0.4,0.5-0.4,0.8c0.2-0.1,0.3-0.1,0.5-0.1c0.2,0,0.5,0.1,0.6,0.3
		c0.4,0.4,0.8,0.2,1.1-0.1c-0.4-0.4-0.8-0.5-1.3-0.5c0.5-0.3,1.1-0.1,1.4,0.2c0.5,0.4,1,0.9,1.8,0.9C34.9,47,35.7,46.1,36.6,46.7
		L36.6,46.7z M36.6,46.7"/>
	<path class="st3" d="M23.4,37.6c-0.1-0.3-0.2-0.5-0.2-0.8c0-0.6,0.3-1.1,0.6-1.7c0.3-0.4,0.5-0.9,0.6-1.4c0-0.1-0.2-0.3-0.3,0
		c-0.1,0.4-0.3,0.7-0.6,1c-0.5,0.6-0.8,1.3-0.9,2c0,0.4,0.1,1,0.3,1.3c-0.3,0.5-0.6,1.1-0.6,1.8c0,1.2,0.5,2.1,1.5,2.9
		c-0.1,0.4-0.1,0.9,0.1,1.4c0.4,1.9,2.3,2.7,4,2.4c0.5,0,0.8,0.1,0.9,0.4c0.1,0.3,0.2,0.5,0.3,0.8c0.2,0.1,0.4,0.2,0.5,0.4
		c0.6,0.1,1.4,0,1.8-0.6c0.2-0.2,0.2-0.4,0.2-0.5c-0.3,0-0.5,0-0.7-0.2c-0.1-0.1-0.3-0.2-0.5-0.2c-0.2,0-0.3,0-0.5,0.1
		c0.2,0.4,0.5,0.6,1,0.6c-0.6,0.2-1.1-0.2-1.2-0.7c-0.1-0.2-0.1-0.3,0-0.5c0.1-0.4,0.3-0.5,0.5-0.7c0.5-0.5,0.9-1.1,1.3-1.7
		c0.8-1.4,1.5-3,3.1-3c0.4,0,0.3-0.4-0.1-0.4c-2.1-0.1-2.9,1.6-3.8,3c-0.5,0.8-1.1,1.6-2.1,1.9c-1.4,0.6-3.1,0.2-3.6-1.3
		c-0.4-1.3,0.1-2.3,0.8-3.4c0.4-0.6,0.7-1.3,0.6-2.1c0-0.2-0.4-0.4-0.4,0c0,0.6-0.3,1.1-0.7,1.5c-0.5,0.6-0.9,1.1-1.2,1.7
		c-0.6-0.5-1-1.1-1.1-1.8c-0.1-1,0.5-1.7,1.2-2.4c0.4-0.4,0.9-0.8,1-1.4c0-0.1-0.2-0.4-0.3-0.1c-0.1,0.4-0.6,0.7-0.9,1
		C23.9,37.2,23.6,37.4,23.4,37.6L23.4,37.6z M23.4,37.6"/>
	<path class="st1" d="M35.2,49.1c0.1,0.1,0.1,0.3,0.1,0.4c0,0.6-0.3,1-0.9,1c-0.5,0-0.9-0.3-1-0.8c0-0.1,0-0.2,0.1-0.3
		c0.3-0.4,0.7-0.6,1.3-0.6C35,48.9,35.1,49,35.2,49.1L35.2,49.1z M35.2,49.1"/>
	<path class="st7" d="M34.2,50c0.6,0.3,1-0.4,0.7-0.8c-0.1,0-0.5,0.1-0.6,0.2c0.2,0,0.4,0.2,0.3,0.4c-0.1,0.1-0.2,0.1-0.3,0.1
		C34.1,49.9,34.1,50,34.2,50L34.2,50z M34.2,50"/>
	<path class="st4" d="M34,58.2c-0.4,0.3-0.9,0.4-1.4,0.3c0-0.1,0.1-0.3,0.1-0.4c0.3-0.7,1-1.1,1.7-1.1c-0.1,0.1-0.1,0.3-0.2,0.4
		C34.1,57.6,34,57.9,34,58.2L34,58.2z M30.3,62.4c0.1,0.2,0.4,1-0.1,1.1C29.6,63.3,30,62.6,30.3,62.4L30.3,62.4z M30.3,62.4"/>
	<path class="st5" d="M31.9,59.3c0,0.1,0,0.3,0,0.4c0,0.8-0.6,1.5-1.4,1.7c0-0.1,0-0.3,0-0.4C30.6,60.1,31.1,59.5,31.9,59.3
		L31.9,59.3z M31.9,59.3"/>
	<path class="st1" d="M30.5,62.2c-0.2,0-0.3-0.1-0.3-0.3c0-0.2,0.1-0.3,0.3-0.3c0.2,0,0.3,0.1,0.3,0.3
		C30.8,62.1,30.6,62.2,30.5,62.2L30.5,62.2z M32.3,59.3c-0.2,0-0.3-0.1-0.3-0.3c0-0.2,0.1-0.3,0.3-0.3s0.3,0.1,0.3,0.3
		C32.6,59.1,32.5,59.3,32.3,59.3L32.3,59.3z M37.2,56.6c0-0.1,0-0.1,0.1-0.2c0,0,0.1-0.1,0.1-0.1c0.1,0,0.1-0.1,0.2-0.1
		c0.2,0,0.3,0.1,0.3,0.3c0,0.2-0.1,0.3-0.3,0.3C37.4,56.8,37.3,56.7,37.2,56.6L37.2,56.6z M30.1,64.2c-0.2,0-0.3-0.1-0.3-0.3
		c0-0.2,0.1-0.3,0.3-0.3c0.2,0,0.3,0.1,0.3,0.3C30.4,64.1,30.3,64.2,30.1,64.2L30.1,64.2z M30.1,64.2"/>
	<path class="st3" d="M32.3,64.4c-0.4-0.3-0.7-0.6-0.9-1c-0.1,0.4-0.1,0.9,0,1.2c0,0,0,0,0,0.1c0.1,0.2,0.3,0.3,0.5,0.5
		c0.4,0.4,0.6,0.7,0.5,1.2c-0.1,0.3-0.5,0.5-0.8,0.1c-0.1,0.4,0.3,0.8,0.6,0.8c0.4,0,0.6-0.2,0.7-0.5c-0.5,0.9-0.1,2.2,1.1,1.9
		c-0.5-0.1-0.9-0.6-0.6-1.3c0.1-0.3,0.3-0.6,0.4-0.8c0.5-0.9,0.5-1.9,0.1-2.9c-0.2-0.5-0.6-0.8-1-1.2c-0.3-0.2-0.6-0.5-0.8-0.8
		c-0.2,0.3-0.3,0.6-0.4,0.9c-0.1,0.1-0.1,0.3-0.1,0.4C31.5,63.4,31.9,63.9,32.3,64.4L32.3,64.4z M32.1,61.4c0.7,0.9,2.2,1.4,3.4,1.1
		c0.4-0.1,0.8-0.3,1.2-0.4c0.3-0.1,0.6,0,0.8,0.2c0-0.5-0.5-0.6-0.9-0.5c-0.5,0-1,0.3-1.6,0.1c-0.9-0.2-1.5-1.1-1.5-2.1
		c-0.1,0.1-0.2,0.2-0.3,0.3C32.8,60.4,32.5,60.9,32.1,61.4L32.1,61.4z M31.8,57.5c-0.5-0.5-1.1-0.9-1.8-1.3c-1-0.5-1.9-1.5-1.8-3.2
		c0.1,1,0.6,2,1.4,2.6c-0.6-1.6-0.9-2.9-0.5-4.4c0.1-0.2,0.1-0.4,0.2-0.6c0.1-0.2,0-0.2-0.2-0.2c-0.3,0.1-0.6,0.1-0.9,0.1
		c-0.2,0.2-0.4,0.5-0.5,0.8c0.3,0,0.6-0.2,0.7-0.5c0,0.5-0.4,0.6-0.8,0.8c-1,0.5-0.9,1-1.3,1.9c-0.2,0.4-0.7,0.7-1.1,0.2
		c-0.1,0.8,0.7,1,1.2,0.6c0.3-0.2,0.3-0.8,0.6-0.9c-0.3,0.5-0.3,0.9-0.3,1.3c0,0.7-0.1,1-0.4,1.5c-0.5,0.7-0.8,1.3-0.3,1.9
		c0-0.6,0.1-0.7,0.4-1c0.5-0.5,1-0.9,1.1-1.6c0.1,0.8-0.5,1.2-0.5,1.9c0,0.4,0.2,0.7,0.3,1.1c0.3,0.8-0.1,1.4-0.7,1.8
		c-1.1,0.8-1.4,1.7-0.9,2.4c-0.1-0.7,0.4-1.3,1-1.4c-0.4,1,0.1,1.7,0.8,2.4c0.3,0.3,0.6,1.2,0.1,1.3c1-0.1,0.7-1.1,0.5-1.5
		c-0.4-0.6-0.6-1.5,0-2.3c0.8-1,1.1-1.8,0.6-2.8c0.5,0.6,0.4,1.3,0.3,1.7c-0.2,0.5-0.2,1,0.2,1.6c0.1-0.3,0.2-0.7,0.3-0.9
		c0.3-0.7,0.6-1.4,1.1-2c-0.1-0.3-0.4-0.6-0.9-1.1c0.5,0.3,0.8,0.6,1,0.9c0.2-0.3,0.4-0.5,0.7-0.8C31.5,57.7,31.6,57.6,31.8,57.5
		L31.8,57.5z M30.6,62.6c0-0.1,0.1-0.1,0.1-0.2c0,0-0.1,0-0.1,0C30.6,62.5,30.6,62.5,30.6,62.6L30.6,62.6z M30.3,61.1
		C30.3,61.1,30.3,61.1,30.3,61.1c-0.1,0.2-0.1,0.3-0.1,0.4c0.1,0,0.1-0.1,0.2-0.1v0C30.3,61.3,30.3,61.2,30.3,61.1L30.3,61.1z
		 M30,62.1c0,0.1,0,0.2-0.1,0.4c0.1-0.1,0.1-0.1,0.2-0.2C30,62.2,30,62.2,30,62.1L30,62.1z M32.1,59.9c0.2-0.2,0.3-0.4,0.5-0.6
		c-0.1,0.1-0.2,0.1-0.3,0.1c-0.1,0-0.1,0-0.1,0c0,0.1,0,0.2,0,0.2C32.1,59.8,32.1,59.8,32.1,59.9L32.1,59.9z M32.7,59.3
		c0.2-0.2,0.4-0.4,0.6-0.6c-0.2,0-0.3,0-0.5,0c0,0.1,0,0.1,0,0.2C32.8,59.1,32.8,59.2,32.7,59.3L32.7,59.3z M32.6,57.9
		c-0.2,0.2-0.4,0.4-0.6,0.6c0.1,0,0.2-0.1,0.3-0.1c0.1,0,0.1,0,0.1,0c0-0.1,0.1-0.3,0.1-0.4C32.6,58,32.6,58,32.6,57.9L32.6,57.9z
		 M31.8,58.7c-0.2,0.2-0.3,0.4-0.5,0.6c0.1-0.1,0.3-0.1,0.5-0.2c0-0.1,0-0.1,0-0.2C31.7,58.8,31.8,58.8,31.8,58.7L31.8,58.7z
		 M31.8,58.7"/>
	<path class="st3" d="M36.4,56.9C36.4,56.9,36.3,56.9,36.4,56.9c-0.1-0.2-0.1-0.2-0.1-0.3c0.1-0.1,0.2-0.1,0.3-0.1
		c0.4,0.2,0.8,0.5,1,0.8c0.3,0.4,0.4,0.8,0.5,1.3c0,0.1,0,0.2,0,0.3c0,0.5-0.1,1-0.4,1.3c-0.3,0.4-0.6,0.6-1.1,0.6
		c-0.1,0-0.1,0-0.2,0c-0.5,0-1-0.3-1.4-0.7c-0.4-0.4-0.7-1-0.7-1.6c-0.1-0.4,0-0.9,0.1-1.2c0.2-0.4,0.4-0.7,0.7-0.9
		c0.1-0.1,0.2,0,0.3,0.1c0.1,0.1,0,0.2-0.1,0.3c-0.2,0.1-0.4,0.4-0.5,0.7c-0.1,0.3-0.2,0.6-0.1,1c0.1,0.5,0.3,1,0.6,1.3
		c0.3,0.3,0.7,0.5,1.1,0.5c0.1,0,0.1,0,0.1,0c0.3,0,0.6-0.2,0.8-0.5c0.2-0.3,0.3-0.6,0.3-1c0-0.1,0-0.2,0-0.3
		c-0.1-0.4-0.2-0.8-0.4-1.1C37,57.3,36.7,57.1,36.4,56.9L36.4,56.9z M35,56.4c0.1-0.2,0.3-0.3,0.5-0.3c0.5,0.1,0.7,0.6,0.5,1
		c-0.1,0.2-0.2,0.3-0.4,0.4c-0.2,0-0.3-0.1-0.1-0.3c0.4-0.2,0.2-0.8-0.2-0.9C35.2,56.3,35.1,56.4,35,56.4L35,56.4z M31.2,64.6
		c0.1,0.1,0,0.2-0.1,0.3c-0.1,0.1-0.2,0-0.3-0.1c-0.3-0.7-0.2-1.6,0.2-2.6c0.4-0.9,1-1.9,1.8-2.8c0.4-0.4,0.8-0.8,1.2-1.1
		c0,0.1,0,0.2,0,0.3c0,0.1,0,0.1,0,0.2c-0.3,0.3-0.7,0.6-1,0.9c-0.8,0.8-1.4,1.7-1.7,2.6C31,63.3,31,64.1,31.2,64.6L31.2,64.6z
		 M35,57.8c0.1-0.1,0.2-0.1,0.3-0.2c0.1,0.1,0.2,0.1,0.3,0.1c0.2-0.1,0.4-0.2,0.6-0.4c0.1,0,0.2-0.1,0.3-0.1
		c0.2,0.1,0.3,0.2,0.5,0.4c-0.3,0-0.6,0.1-0.9,0.2c-0.4,0.1-0.7,0.3-1.1,0.6C34.9,58.2,34.9,58,35,57.8L35,57.8z M37.7,57.2
		c0.2,0.1,0.4,0.2,0.6,0.4c0,0,0.1,0.1,0.1,0.1c0,0,0.1,0.1,0.1,0.1c0.1,0.1,0,0.2-0.1,0.3c-0.1,0.1-0.2,0-0.3-0.1
		C38.1,57.7,37.9,57.5,37.7,57.2L37.7,57.2z M29.8,63.5c0,0.1,0,0.2-0.1,0.3c-0.1,0-0.2,0-0.3-0.1c-0.2-0.6-0.2-1.7,0.3-2.8
		c0.4-0.9,1-2,1.9-2.9c0.9-0.9,1.9-1.5,2.8-1.9c1-0.4,2-0.5,2.7-0.2c0.1,0.1,0.2,0.2,0.1,0.3c-0.1,0.1-0.2,0.2-0.3,0.1
		c-0.2-0.1-0.5-0.1-0.8-0.1c-0.1-0.2-0.3-0.3-0.5-0.3c-0.3,0-0.6,0.1-0.7,0.4l0,0.1c-0.1,0-0.2,0.1-0.3,0.1c-0.9,0.4-1.9,1-2.7,1.8
		c-0.8,0.9-1.4,1.8-1.8,2.7C29.7,62.1,29.6,63,29.8,63.5L29.8,63.5z M29.8,63.5"/>
	<path class="st3" d="M44.1,78.4c0.1,0.5,0.5,0.9,0.9,1.2c0.1,0.1,0.2,0.1,0.1,0.2c-0.2,0.6-0.4,1-0.8,1.5l-0.1,0.1
		c-0.1,0-0.1,0-0.2-0.1c-0.6-0.5-0.8-1.6-0.9-2.3c0-0.2,0.1-0.3,0.2-0.4c0.2-0.1,0.3-0.2,0.5-0.3C44,78.3,44.1,78.3,44.1,78.4
		L44.1,78.4z M45.5,79.7c0.1,0,0.3-0.1,0.4-0.1c0.1,0,0.1,0,0.1,0.1c0.1,0.6-0.2,1.6-0.8,2c-0.1,0.1-0.2,0-0.3-0.1
		c-0.1-0.1-0.1-0.2-0.2-0.3c0.3-0.4,0.5-1,0.6-1.5C45.4,79.8,45.4,79.7,45.5,79.7L45.5,79.7z M44.4,90.4c0.1-0.1,0.1-0.3,0.1-0.4
		c0-0.1,0.1,0,0.1,0c0.6,0.2,1.4,0.9,1.5,1.6c0,0.1,0,0.2-0.2,0.2c-0.1,0-0.2,0.1-0.3,0.1c-0.3-0.4-0.7-0.8-1.1-1.2
		C44.5,90.6,44.4,90.5,44.4,90.4L44.4,90.4z M42.7,91.1c0.5,0.1,1-0.1,1.5-0.3c0.1-0.1,0.2-0.1,0.3,0c0.4,0.4,0.8,0.8,1,1.3l0,0.1
		c0,0.1-0.1,0.1-0.2,0.2c-0.7,0.3-1.8,0.1-2.5-0.2c-0.2-0.1-0.2-0.2-0.3-0.4c0-0.2-0.1-0.4,0-0.6C42.5,91.2,42.6,91.1,42.7,91.1
		L42.7,91.1z M28.8,96.8c0.1-0.1,0.1-0.2,0.2-0.4c0-0.1,0.1,0,0.1,0c0.6,0.3,1.1,1.3,0.9,2c0,0.1-0.1,0.1-0.2,0.1
		c-0.1,0-0.2,0-0.3,0c-0.1-0.5-0.4-1-0.7-1.5C28.8,97,28.8,96.9,28.8,96.8L28.8,96.8z M26.9,96.9c0.5,0.3,1,0.3,1.5,0.2
		c0.1,0,0.2,0,0.3,0.1c0.3,0.5,0.5,1,0.6,1.6v0.1c0,0.1-0.1,0.1-0.2,0.1c-0.8,0.1-1.7-0.5-2.3-1c-0.1-0.1-0.2-0.3-0.1-0.4
		c0-0.2,0.1-0.4,0.1-0.6C26.8,96.9,26.9,96.9,26.9,96.9L26.9,96.9z M26.9,96.9"/>
	<path class="st7" d="M62.9,43.8c-0.1-0.6-0.2-1.1-0.2-1.7c-0.3,0.5-0.7,0.9-1.2,1.1c0.4-0.4,0.7-0.9,0.9-1.5
		c-0.4,0.3-0.8,0.5-1.3,0.3c0.8,0.1,1.5-1.1,1.6-1.8c0.1-0.5-0.4-0.2-0.6,0c-0.2,0.2-0.3,0.5-0.4,0.5c-0.1,0-0.2-0.3-0.4-0.5
		C61.3,40,61,39.9,61,39.8c0-0.1,0.3-0.2,0.5-0.4c0.2-0.2,0.3-0.5,0.4-0.5c0.1,0,0.2,0.3,0.4,0.5c0.5,0.5,0.8,0.2,0.3-0.3
		c-0.2-0.2-0.5-0.3-0.5-0.4c0-0.1,0.3-0.2,0.5-0.4c0.2-0.2,0.3-0.5,0.4-0.5c0.1,0,0.2,0.3,0.4,0.5c0.2,0.2,0.5,0.3,0.5,0.4
		c0,0.1-0.3,0.2-0.5,0.4c-0.5,0.5-0.1,0.8,0.4,0.3c0.2-0.2,0.3-0.5,0.4-0.5c0.1,0,0.2,0.3,0.4,0.5c0.2,0.2,0.5,0.3,0.5,0.4
		c0,0.1-0.3,0.2-0.5,0.4c-0.2,0.2-0.3,0.5-0.3,0.5c-0.1,0-0.2-0.3-0.4-0.5c-0.2-0.2-0.6-0.5-0.6,0c0.1,0.7,0.8,1.8,1.6,1.8
		c-0.5,0.1-0.9,0-1.3-0.3c0.2,0.6,0.5,1,0.9,1.5c-0.5-0.3-0.9-0.7-1.2-1.1C63.1,42.6,63,43.2,62.9,43.8L62.9,43.8z M62.9,43.8"/>
	<path class="st7" d="M52.1,45.9c-0.2-0.4-0.3-0.8-0.4-1.2c-0.1,0.4-0.2,0.7-0.4,1c0.1-0.4,0.2-0.8,0.2-1.2
		c-0.1,0.3-0.3,0.4-0.6,0.4c0.4-0.1,0.6-1,0.5-1.5c-0.1-0.4-0.2-0.1-0.3,0.1c-0.1,0.2-0.1,0.4-0.1,0.4c0,0-0.2-0.2-0.3-0.3
		c-0.1-0.1-0.3-0.1-0.3-0.2c0-0.1,0.1-0.2,0.2-0.4c0.1-0.2,0.1-0.4,0.1-0.4c0,0,0.2,0.2,0.3,0.3c0.3,0.3,0.4,0,0.1-0.3
		c-0.1-0.1-0.3-0.1-0.3-0.2c0-0.1,0.1-0.2,0.2-0.4c0.1-0.1,0.1-0.4,0.1-0.4c0.1,0,0.2,0.2,0.3,0.3c0.1,0.1,0.3,0.1,0.3,0.2
		c0,0.1-0.1,0.2-0.2,0.4c-0.2,0.4,0.1,0.6,0.2,0.1c0.1-0.2,0.1-0.4,0.1-0.4c0,0,0.2,0.2,0.3,0.3c0.1,0.1,0.3,0.1,0.3,0.2
		c0,0.1-0.1,0.2-0.2,0.4c-0.1,0.2-0.1,0.4-0.1,0.4c0,0-0.2-0.2-0.3-0.3c-0.1-0.1-0.4-0.2-0.3,0.1c0.2,0.5,0.7,1.2,1.1,1
		c-0.2,0.2-0.5,0.1-0.7,0c0.2,0.4,0.4,0.7,0.7,0.9c-0.3-0.1-0.6-0.4-0.8-0.6C52,45.1,52.1,45.5,52.1,45.9L52.1,45.9z M52.1,45.9"/>
	<path class="st7" d="M54.6,43.8c-0.2-0.5-0.3-0.9-0.3-1.4c-0.2,0.4-0.4,0.8-0.7,1.1c0.2-0.4,0.3-0.8,0.4-1.3
		c-0.2,0.3-0.5,0.5-0.8,0.4c0.5,0,0.9-1.1,0.8-1.7c0-0.4-0.3-0.2-0.4,0.1c-0.1,0.2-0.1,0.4-0.2,0.4c-0.1,0-0.2-0.3-0.3-0.4
		c-0.1-0.1-0.3-0.2-0.4-0.3c0-0.1,0.2-0.2,0.3-0.4c0.1-0.2,0.1-0.4,0.2-0.4c0.1,0,0.2,0.3,0.3,0.4c0.4,0.4,0.5,0,0.1-0.3
		c-0.1-0.1-0.4-0.2-0.4-0.3c0-0.1,0.2-0.2,0.3-0.4c0.1-0.2,0.1-0.4,0.2-0.5c0.1,0,0.2,0.3,0.3,0.4c0.1,0.1,0.4,0.2,0.4,0.3
		c0,0.1-0.2,0.2-0.3,0.4c-0.3,0.5,0,0.6,0.3,0.2c0.1-0.2,0.1-0.4,0.2-0.4c0.1,0,0.2,0.3,0.3,0.4s0.3,0.2,0.4,0.3
		c0,0.1-0.2,0.2-0.3,0.4c-0.1,0.2-0.1,0.4-0.2,0.4c-0.1,0-0.2-0.3-0.3-0.4c-0.2-0.2-0.5-0.3-0.4,0.1c0.1,0.6,0.8,1.4,1.3,1.3
		c-0.3,0.2-0.6,0.1-0.9-0.1c0.2,0.4,0.5,0.8,0.8,1.1c-0.4-0.2-0.7-0.5-1-0.8C54.5,42.9,54.6,43.3,54.6,43.8L54.6,43.8z M54.6,43.8"
		/>
	<path class="st7" d="M58.6,45.4c-0.1-0.5-0.2-0.9-0.2-1.4c-0.3,0.4-0.6,0.8-0.9,1c0.3-0.4,0.5-0.8,0.7-1.3
		c-0.3,0.3-0.7,0.4-1.1,0.3c0.7,0,1.2-1,1.2-1.6c0-0.4-0.3-0.2-0.5,0c-0.1,0.2-0.2,0.4-0.3,0.4c-0.1,0-0.2-0.3-0.3-0.4
		c-0.1-0.1-0.4-0.2-0.4-0.3c0-0.1,0.3-0.2,0.4-0.4c0.1-0.2,0.2-0.4,0.3-0.4c0.1,0,0.2,0.3,0.3,0.4c0.4,0.4,0.7,0.1,0.2-0.3
		c-0.1-0.1-0.4-0.2-0.4-0.3c0-0.1,0.3-0.2,0.4-0.4c0.1-0.2,0.2-0.4,0.3-0.4c0.1,0,0.2,0.3,0.4,0.4c0.2,0.1,0.4,0.2,0.4,0.3
		c0,0.1-0.3,0.2-0.4,0.4c-0.4,0.5,0,0.6,0.3,0.2c0.1-0.2,0.2-0.4,0.3-0.4c0.1,0,0.2,0.3,0.3,0.4c0.2,0.1,0.4,0.2,0.4,0.3
		c0,0.1-0.3,0.2-0.4,0.4c-0.1,0.2-0.2,0.4-0.3,0.4c-0.1,0-0.2-0.3-0.3-0.4c-0.2-0.2-0.6-0.4-0.5,0.1c0.1,0.6,0.8,1.5,1.4,1.4
		c-0.4,0.1-0.8,0.1-1.1-0.2c0.2,0.5,0.5,0.8,0.8,1.2c-0.4-0.2-0.8-0.5-1.1-0.9C58.7,44.5,58.7,44.9,58.6,45.4L58.6,45.4z M58.6,45.4
		"/>
	<path class="st7" d="M71.2,43.8c0.2-0.5,0.3-0.9,0.3-1.4c0.2,0.4,0.4,0.8,0.7,1.1c-0.2-0.4-0.3-0.8-0.4-1.3
		c0.2,0.3,0.5,0.5,0.8,0.4c-0.5,0-0.9-1.1-0.8-1.7c0-0.4,0.3-0.2,0.4,0.1c0.1,0.2,0.1,0.4,0.2,0.4c0.1,0,0.2-0.3,0.3-0.4
		s0.3-0.2,0.3-0.3c0-0.1-0.2-0.2-0.3-0.4c-0.1-0.2-0.1-0.4-0.2-0.4c-0.1,0-0.2,0.3-0.3,0.4c-0.4,0.4-0.5,0-0.1-0.3
		c0.1-0.1,0.4-0.2,0.4-0.3c0-0.1-0.2-0.2-0.3-0.4c-0.1-0.2-0.1-0.4-0.2-0.5c-0.1,0-0.2,0.3-0.3,0.4c-0.1,0.1-0.4,0.2-0.4,0.3
		c0,0.1,0.2,0.2,0.3,0.4c0.3,0.5,0,0.6-0.3,0.2c-0.1-0.2-0.1-0.4-0.2-0.4c-0.1,0-0.2,0.3-0.3,0.4s-0.3,0.2-0.4,0.3
		c0,0.1,0.2,0.2,0.3,0.4c0.1,0.2,0.1,0.4,0.2,0.4c0.1,0,0.2-0.3,0.3-0.4c0.2-0.2,0.5-0.3,0.4,0.1c-0.2,0.6-0.8,1.4-1.3,1.3
		c0.3,0.2,0.6,0.1,0.9-0.1c-0.2,0.4-0.5,0.8-0.8,1.1c0.4-0.2,0.7-0.5,1-0.8C71.3,42.9,71.2,43.3,71.2,43.8L71.2,43.8z M71.2,43.8"/>
	<path class="st7" d="M67.2,45.4c0.1-0.5,0.2-0.9,0.2-1.4c0.3,0.4,0.6,0.8,0.9,1c-0.3-0.4-0.5-0.8-0.7-1.3c0.3,0.3,0.7,0.4,1.1,0.3
		c-0.7,0-1.2-1-1.2-1.6c0-0.4,0.3-0.2,0.5,0c0.1,0.2,0.2,0.4,0.3,0.4c0.1,0,0.2-0.3,0.3-0.4c0.2-0.1,0.4-0.2,0.4-0.3
		c0-0.1-0.3-0.2-0.4-0.4c-0.1-0.2-0.2-0.4-0.3-0.4c-0.1,0-0.2,0.3-0.3,0.4c-0.4,0.4-0.7,0.1-0.2-0.3c0.1-0.1,0.4-0.2,0.4-0.3
		c0-0.1-0.3-0.2-0.4-0.4c-0.1-0.2-0.2-0.4-0.3-0.4c-0.1,0-0.2,0.3-0.4,0.4c-0.2,0.1-0.4,0.2-0.4,0.3c0,0.1,0.3,0.2,0.4,0.4
		c0.4,0.5,0,0.6-0.3,0.2c-0.1-0.2-0.2-0.4-0.3-0.4c-0.1,0-0.2,0.3-0.3,0.4c-0.2,0.1-0.4,0.2-0.4,0.3c0,0.1,0.3,0.2,0.4,0.4
		c0.1,0.2,0.2,0.4,0.3,0.4c0.1,0,0.2-0.3,0.3-0.4c0.2-0.2,0.6-0.4,0.5,0.1c-0.1,0.6-0.8,1.5-1.4,1.4c0.4,0.1,0.8,0.1,1.1-0.2
		c-0.2,0.5-0.5,0.8-0.8,1.2c0.4-0.2,0.8-0.5,1.1-0.9C67.1,44.5,67.2,44.9,67.2,45.4L67.2,45.4z M67.2,45.4"/>
</g>
</svg>
