<?xml version="1.0" encoding="utf-8"?>
<!-- Generator: Adobe Illustrator 22.0.1, SVG Export Plug-In . SVG Version: 6.00 Build 0)  -->
<svg version="1.1" id="Слой_1" xmlns="http://www.w3.org/2000/svg" xmlns:xlink="http://www.w3.org/1999/xlink" x="0px" y="0px"
	 viewBox="0 0 127.3 127" style="enable-background:new 0 0 127.3 127;" xml:space="preserve">
<style type="text/css">
	.st0{fill:url(#SVGID_1_);}
	.st1{fill:#FFFFFF;}
	.st2{fill:#0051BA;}
	.st3{fill:none;stroke:#000000;stroke-width:6.231556e-02;stroke-miterlimit:22.9256;}
	.st4{fill:#D81E05;}
</style>
<radialGradient id="SVGID_1_" cx="64.8" cy="-1506.7469" r="62.6" gradientTransform="matrix(1 0 0 -1 0 -1442.3469)" gradientUnits="userSpaceOnUse">
	<stop  offset="0.9487" style="stop-color:#212121"/>
	<stop  offset="1" style="stop-color:#606060;stop-opacity:0"/>
</radialGradient>
<circle class="st0" cx="64.8" cy="64.4" r="62.6"/>
<circle class="st1" cx="62.6" cy="62.6" r="62.6"/>
<g>
	<path class="st2" d="M96.1,97c-0.4,2.5-2.6,4.4-5.2,4.4v0.1H68.5c-2.8,0-5.8,2.3-5.9,5.1l0,0c-0.1-2.8-3.1-5.1-6-5.1H34.2v-0.1
		c-2.8,0-5.2-2.2-5.3-5V94V80.7l0.3,0.2c6.3-0.3,9.6-4.8,16.1-4.8c2.1,0,4.5,0.5,7.1,1.6c4.2,1.7,8.7,4.1,13,2.8
		c6.8-2.1,10-4.9,15.3-4.2c5.2,0.7,10.2,3.9,15.5,4.8L96.1,97L96.1,97z"/>
	<path d="M28.8,73.1c4.5-2.3,11.6-8.8,15.9-14.3l3-3.8l-0.6,2.7l2.1-3.5l-1.1,4.3l3.4-3.1l0.3,4.6l2.4-4.9l2.3,3.4v-3.2l7.8,5.9
		l-3.7-4.6l3.4,2.2l1.2-2.9l4.3,4.1l-0.3-3l8.1,4.6l-4.9-3.7l3,1l0.9-1.7l2.2,1.6l0-1.8l3.5,4c3.4,3.7,10.7,9.7,14.1,12v4
		c-5.2-1-10.2-4.2-15.4-4.9c-5.3-0.7-8.5,2.1-15.3,4.2c-4.3,1.4-8.8-1-13-2.8c-2.6-1.1-5-1.6-7.1-1.6c-6.5,0-9.8,4.5-16.1,4.8
		l-0.4-0.2L28.8,73.1L28.8,73.1z"/>
	<path class="st3" d="M28.8,73.1c4.5-2.3,11.6-8.8,15.9-14.3l3-3.8l-0.6,2.7l2.1-3.5l-1.1,4.3l3.4-3.1l0.3,4.6l2.4-4.9l2.3,3.4v-3.2
		l7.8,5.9l-3.7-4.6l3.4,2.2l1.2-2.9l4.3,4.1l-0.3-3l8.1,4.6l-4.9-3.7l3,1l0.9-1.7l2.2,1.6l0-1.8l3.5,4c3.4,3.7,10.7,9.7,14.1,12
		 M96.1,77c-5.2-1-10.2-4.2-15.4-4.9c-5.3-0.7-8.5,2.1-15.3,4.2c-4.3,1.4-8.8-1-13-2.8c-2.6-1.1-5-1.6-7.1-1.6
		c-6.5,0-9.8,4.5-16.1,4.8l-0.4-0.2V73"/>
	<path class="st4" d="M53.3,41.2c-0.3,0.2-0.8,1.1-1,2c-0.3-0.3-0.5-0.5-0.8-0.8c-0.6,1.2,0.7,4,1.1,5.4H54c0.5-1.3,1.7-4.2,1.1-5.4
		c-0.3,0.3-0.5,0.5-0.8,0.8C54.1,42.2,53.6,41.3,53.3,41.2L53.3,41.2z"/>
	<path class="st4" d="M64.6,44.2c-0.3,0.2-0.8,1.1-1,2c-0.3-0.3-0.5-0.5-0.8-0.8c-0.6,1.2,0.7,4,1.1,5.4h1.4
		c0.5-1.3,1.7-4.2,1.1-5.4c-0.3,0.3-0.5,0.5-0.8,0.8C65.4,45.3,64.8,44.4,64.6,44.2L64.6,44.2z"/>
	<path class="st4" d="M75.7,46.6c-0.3,0.2-0.8,1.1-1,2c-0.3-0.3-0.5-0.5-0.8-0.8c-0.6,1.2,0.7,4,1.1,5.4h1.4
		c0.5-1.3,1.7-4.2,1.1-5.4c-0.3,0.3-0.5,0.5-0.8,0.8C76.5,47.7,76,46.8,75.7,46.6L75.7,46.6z"/>
	<path class="st4" d="M62.5,32.3c13,0,23.6,10.6,23.6,23.6c0,2.5-0.4,4.8-1.1,7c-2.9-2.6-5.9-6.8-7.9-9.2l1.3-3.5
		c0.2-0.5,0.3-1.1,0.2-1.6c0-0.7-0.4-1.3-0.8-2L77,47.3c-0.3-0.7-0.7-1.3-1.3-1.7c-0.6,0.4-1.1,1-1.3,1.7l-0.8-0.7
		c-0.4,0.6-0.7,1.3-0.8,1.9c-0.1,1.4,1.1,3.8,1.5,5.1c-0.9,1.2-1.9,2.3-3.1,3.3c-2-1.6-3.5-3.3-5.3-5.5l1.3-3.7
		c0.2-0.5,0.3-1.1,0.2-1.6c0-0.7-0.4-1.3-0.8-2L66,44.8c-0.3-0.7-0.7-1.3-1.3-1.7c-0.6,0.4-1.1,1-1.3,1.7l-0.8-0.7
		c-0.4,0.6-0.7,1.3-0.8,1.9c0,0.6,0,1.1,0.2,1.7l1.3,3.7c-1,1.5-2.5,2.8-4,4c-2.1-2.4-3.4-4.7-4.7-7.2l1.3-3.6
		c0.2-0.5,0.3-1.1,0.2-1.6c0-0.7-0.4-1.3-0.8-2l-0.8,0.7c-0.3-0.7-0.7-1.3-1.3-1.7c-0.6,0.4-1.1,1-1.3,1.7L51.3,41
		c-0.4,0.6-0.7,1.3-0.8,1.9c0,0.6,0,1.1,0.2,1.7l1,3.5c-0.8,1.1-3.5,4.8-6.1,8.3c-2.4,3.1-4.7,5.8-5.5,6.6c-0.8-2.4-1.2-4.6-1.2-7.2
		C38.9,42.8,49.5,32.3,62.5,32.3L62.5,32.3z"/>
	<polygon class="st2" points="55.3,28 60.5,27.2 58.3,29.8 	"/>
	<polygon class="st2" points="64.4,27.2 69.7,28 66.7,29.8 	"/>
	<polygon class="st2" points="73.5,29.3 78.2,31.7 74.8,32.5 	"/>
	<polygon class="st2" points="81.4,34.1 85.1,37.9 81.7,37.6 	"/>
	<polygon class="st2" points="87.5,41.3 89.7,46 86.6,44.6 	"/>
	<polygon class="st2" points="90.9,49.8 91.5,55.1 89,52.7 	"/>
	<polygon class="st2" points="91.4,59 90.4,64.2 88.7,61.2 	"/>
	<polygon class="st2" points="46.8,31.7 51.5,29.3 50.2,32.5 	"/>
	<polygon class="st2" points="39.9,37.9 43.6,34.1 43.3,37.6 	"/>
	<polygon class="st2" points="35.3,45.9 37.6,41.2 38.5,44.5 	"/>
	<polygon class="st2" points="33.5,54.9 34.2,49.6 36,52.5 	"/>
	<polygon class="st2" points="34.5,63.9 33.5,58.7 36.2,60.9 	"/>
	<path class="st4" d="M51.2,33.8l2.2-5.3l4.9,3C55.8,31.9,53.4,32.7,51.2,33.8L51.2,33.8z"/>
	<path class="st4" d="M44.6,38.6l0.3-5.8l5.6,1.3C48.4,35.3,46.4,36.8,44.6,38.6L44.6,38.6z"/>
	<path class="st4" d="M40.1,45.1l-1.5-5.6l5.8-0.5C42.7,40.7,41.2,42.8,40.1,45.1L40.1,45.1z"/>
	<path class="st4" d="M37.8,52.8l-3.2-4.9l5.3-2.4C38.8,47.8,38.1,50.2,37.8,52.8L37.8,52.8z"/>
	<path class="st4" d="M38,60.6l-4.6-3.7l4.4-3.9c-0.1,1-0.2,2.1-0.2,3.1C37.5,57.6,37.7,59.1,38,60.6L38,60.6z"/>
	<path class="st4" d="M87.3,53.1l4.4,4L87,60.8c0.3-1.5,0.5-3.1,0.5-4.8C87.5,55.1,87.4,54.1,87.3,53.1L87.3,53.1z"/>
	<path class="st4" d="M85.2,45.6l5.3,2.4l-3.2,4.9C86.9,50.3,86.2,47.9,85.2,45.6L85.2,45.6z"/>
	<path class="st4" d="M80.7,39l5.8,0.6L85,45.2C83.9,42.9,82.4,40.8,80.7,39L80.7,39z"/>
	<path class="st4" d="M74.3,34.1l5.6-1.3l0.4,5.8C78.6,36.8,76.6,35.3,74.3,34.1L74.3,34.1z"/>
	<path class="st4" d="M66.7,31.4l4.9-3l2.2,5.3C71.5,32.7,69.2,31.9,66.7,31.4L66.7,31.4z"/>
	<path class="st4" d="M58.8,31.4l3.7-4.4l3.7,4.4c-1.2-0.2-2.5-0.3-3.7-0.3C61.2,31.1,60,31.2,58.8,31.4L58.8,31.4z"/>
	<path class="st4" d="M36.4,66.3L35,65.8l2.9-5.1c0.2,1,0.5,2,0.8,3c0,0.1,0.1,0.2,0.1,0.3c-0.1,0.1-0.2,0.2-0.2,0.2
		C37.9,64.9,37.2,65.6,36.4,66.3L36.4,66.3z"/>
	<path class="st4" d="M87,60.6l2.9,5.2l-1.5,0.5c-0.8-0.7-1.6-1.4-2.4-2.1C86.4,63,86.7,61.8,87,60.6L87,60.6z"/>
	<g>
		<path d="M95.1,23.3l0.1,32.5v41.1c-0.4,2-2.1,3.5-4.2,3.5c-0.1,0-0.2,0-0.3,0.1H68.5c-2.4,0-4.7,1.3-5.9,3.2
			c-1.3-1.9-3.8-3.2-6-3.2H34.7v-0.1h-0.6c-2.4,0-4.3-1.9-4.3-4.3V96l0.1-72.7L95.1,23.3 M96.1,22.3H28.9L28.8,96v0.1l0,0l0,0l0,0
			l0,0l0,0l0,0l0,0c0,2.9,2.4,5.3,5.3,5.3v0.1h22.4c2.8,0,5.8,2.3,6,5.1l0,0c0.1-2.8,3.1-5.1,5.9-5.1h22.4v-0.1
			c2.6,0,4.8-1.9,5.2-4.4V55.8L96.1,22.3L96.1,22.3z"/>
	</g>
</g>
</svg>
