<?xml version="1.0" encoding="utf-8"?>
<!-- Generator: Adobe Illustrator 22.0.1, SVG Export Plug-In . SVG Version: 6.00 Build 0)  -->
<svg version="1.1" id="Слой_1" xmlns="http://www.w3.org/2000/svg" xmlns:xlink="http://www.w3.org/1999/xlink" x="0px" y="0px"
	 viewBox="0 0 127.3 127" style="enable-background:new 0 0 127.3 127;" xml:space="preserve">
<style type="text/css">
	.st0{fill:url(#SVGID_1_);}
	.st1{fill:#FFFFFF;}
	.st2{fill-rule:evenodd;clip-rule:evenodd;fill:#FFFFFF;}
	.st3{clip-path:url(#SVGID_3_);fill-rule:evenodd;clip-rule:evenodd;fill:#F4C600;}
	.st4{clip-path:url(#SVGID_3_);fill-rule:evenodd;clip-rule:evenodd;fill:#FE0000;}
	.st5{clip-path:url(#SVGID_3_);fill-rule:evenodd;clip-rule:evenodd;fill:#00117D;}
	.st6{fill-rule:evenodd;clip-rule:evenodd;fill:#F4C600;}
	.st7{fill:#F4C600;}
	.st8{clip-path:url(#SVGID_5_);fill-rule:evenodd;clip-rule:evenodd;fill:#00923F;}
	.st9{clip-path:url(#SVGID_5_);fill-rule:evenodd;clip-rule:evenodd;fill:#F4C600;}
</style>
<radialGradient id="SVGID_1_" cx="64.8" cy="2586.7468" r="62.6" gradientTransform="matrix(1 0 0 1 0 -2522.3469)" gradientUnits="userSpaceOnUse">
	<stop  offset="0.9487" style="stop-color:#212121"/>
	<stop  offset="1" style="stop-color:#606060;stop-opacity:0"/>
</radialGradient>
<circle class="st0" cx="64.8" cy="64.4" r="62.6"/>
<circle class="st1" cx="62.6" cy="62.6" r="62.6"/>
<g>
	<path class="st2" d="M62.9,18.2c22.8,0,41.6,18.3,42.3,41c-0.2,0-0.4-0.1-0.6-0.1c-4.9-1-7.8,2.4-6.8,6.9c0.7,3,0.9,5.4,1.6,8.2
		c0,0,0,0,0,0c-1.1-0.2-1.6-0.3-4.6-0.8c-4.1,10-12.8,17.7-23.4,20.4c0.3,0.3,0.9,1.1,1.2,1.4c0.2,0.2,0.5,0.5,0.8,0.8
		c0.1-0.1,0.3-0.1,0.4-0.2c1.2-0.3,1.6,0.6,1.7,1.3c0,0.2,0,0.4,0,0.6l0,0c0,0,0,0.1,0,0.1c0,0,0,0,0,0c0,0-0.3,0.7-0.4,0.7
		c-0.2,0.2-0.5,0.4-1,0.5c0,0,0,0.1,0,0.1c0,0.5-0.2,0.9-0.5,1.2c-0.3,0.3-0.7,0.4-1.3,0.5c-0.1,0-0.2,0-0.2,0
		c0.1,0.4-0.1,0.8-0.4,1c-0.3,0.3-0.7,0.5-1.2,0.6c0,0.1,0,0.2,0,0.3c-0.1,0.3-0.2,0.6-0.5,0.8c-0.5,0.1-1,0.3-1.5,0.4
		c-0.1,0-0.2,0-0.4-0.1c0,0,0,0.1,0,0.1c-1.6,0.3-3.2,0.5-4.7,0.5c-1.9,0-3.7-0.2-5.6-0.5v0c0,0-0.1,0-0.1,0
		c-0.5-0.1-1.1-0.2-1.6-0.3c-0.3-0.2-0.5-0.5-0.6-0.9c0-0.1,0-0.2,0-0.3c-0.1,0-0.1,0-0.2-0.1c-0.9-0.3-1.5-0.6-1.4-1.5
		c-0.1,0-0.1,0-0.2,0c-0.6,0-1-0.2-1.3-0.5c-0.3-0.3-0.5-0.7-0.5-1.2c0-0.1,0-0.1,0-0.2c-0.4-0.1-0.7-0.2-0.9-0.4
		c0,0-0.3-0.6-0.3-0.6c0,0,0,0-0.1,0c-0.3-1,0.3-2.4,1.6-2.1c0.5,0.1,0.7,0.4,0.8,0.7c0.2-0.3,0.6-0.8,0.8-0.9
		c0.2-0.2,0.5-0.5,0.7-0.7c0.1-0.1,0.4-0.4,0.8-0.9c-10.9-2.6-19.8-10.4-24-20.6c-3.1,0.6-3.4,0.7-4.9,0.9c0,0-0.1-0.1,0.1-0.1
		c0.4-2.9,0.9-5.3,1.6-8.2c1-4.5-2-7.9-6.8-6.9c-0.1,0-0.3,0-0.4,0.1C21.3,36.5,40,18.2,62.9,18.2L62.9,18.2z M99.6,74.3
		C99.6,74.3,99.6,74.3,99.6,74.3C99.6,74.3,99.6,74.3,99.6,74.3L99.6,74.3z M99.7,74.3C99.7,74.3,99.7,74.3,99.7,74.3
		C99.7,74.3,99.7,74.3,99.7,74.3L99.7,74.3z M75.3,98C75.3,98,75.3,98,75.3,98C75.3,98,75.3,98,75.3,98L75.3,98z M75.3,98
		C75.3,98,75.3,98,75.3,98C75.3,98,75.3,98,75.3,98L75.3,98z M75.3,98C75.3,98,75.3,98,75.3,98C75.3,98,75.3,98,75.3,98L75.3,98z
		 M75.3,97.9C75.3,97.9,75.3,97.9,75.3,97.9C75.3,97.9,75.3,97.9,75.3,97.9L75.3,97.9z M75.3,97.9C75.3,97.9,75.3,97.9,75.3,97.9
		C75.3,97.9,75.3,97.9,75.3,97.9L75.3,97.9z M75.3,97.9C75.3,97.9,75.3,97.9,75.3,97.9C75.3,97.9,75.3,97.9,75.3,97.9L75.3,97.9z
		 M75.3,97.9C75.3,97.9,75.3,97.9,75.3,97.9C75.3,97.9,75.3,97.9,75.3,97.9L75.3,97.9z M75.3,97.9C75.3,97.9,75.3,97.9,75.3,97.9
		 M50.4,97.9C50.5,97.9,50.5,97.9,50.4,97.9C50.5,97.9,50.5,97.9,50.4,97.9L50.4,97.9z M50.5,98C50.5,98,50.5,98,50.5,98
		C50.5,98,50.5,98,50.5,98L50.5,98z M50.5,98C50.5,98,50.5,98,50.5,98C50.5,98,50.5,98,50.5,98L50.5,98z M50.5,98
		C50.5,98,50.5,98,50.5,98C50.5,98,50.5,98,50.5,98L50.5,98z M50.5,98C50.5,98,50.5,98,50.5,98C50.5,98,50.5,98,50.5,98L50.5,98z
		 M50.5,98C50.5,98,50.5,98,50.5,98C50.5,98,50.5,98,50.5,98L50.5,98z M50.5,98C50.5,98,50.5,98,50.5,98C50.5,98,50.5,98,50.5,98
		L50.5,98z M50.5,98C50.5,98,50.5,98,50.5,98C50.5,98,50.5,98,50.5,98L50.5,98z M25.9,74.4C26,74.4,26,74.4,25.9,74.4
		C26,74.4,26,74.4,25.9,74.4L25.9,74.4z M26,74.4C26,74.4,26,74.4,26,74.4C26,74.4,26,74.4,26,74.4L26,74.4z M26,74.4
		C26,74.4,26,74.4,26,74.4C26,74.4,26,74.4,26,74.4L26,74.4z M26,74.4"/>
	<g>
		<defs>
			<rect id="SVGID_2_" x="16.6" y="16.4" width="92.5" height="96.2"/>
		</defs>
		<clipPath id="SVGID_3_">
			<use xlink:href="#SVGID_2_"  style="overflow:visible;"/>
		</clipPath>
		<path class="st3" d="M77.6,103.1l-0.1-0.1l-0.1,0l-0.1,0l-0.1,0l-0.1,0l-0.1,0l-0.1,0l-0.1,0l-0.1,0l-0.1,0l-0.1,0l-0.1,0l-0.1,0
			l-0.1,0l-0.1,0l-0.1,0.1l-0.1,0.1l-0.1,0.1l-0.1,0.1l-0.1,0.1l-0.1,0.1l-0.1,0.1l-0.1,0.1l-0.1,0.1l-0.1,0.1l-0.1,0.1l-0.1,0.1
			l-0.1,0.1l0,0.1l0,0.1l0,0.2l0,0.2l0,0.2l0,0.2l0.1,0.2l0.1,0.2l0.1,0.1l0.1,0.1l0.1,0.1l0.1,0.1l0.1,0.1l0.1,0l0.1,0l0.1,0l0.1,0
			l0.1,0l0.1,0l0.1,0l0.1,0l0.1-0.1l0.1-0.1l0.1-0.1l0.1-0.1l0.1-0.1l0-0.1l0-0.2l0-0.2l0-0.2l-0.1-0.1l0,0l0,0l0.1,0.1l0.1,0.1
			l0.1,0.1l0,0.1l0,0.1l0,0.2l0,0.2l0,0.1l-0.1,0.1l-0.1,0.1l-0.1,0.1l-0.1,0.1l-0.1,0.1l-0.1,0.1l-0.1,0.1l-0.1,0.1l-0.1,0.1
			l-0.1,0l-0.1,0l-0.1,0l-0.1,0l-0.1,0l-0.1,0l-0.1,0l-0.1,0l-0.1,0l-0.1,0l-0.1,0l-0.1,0l-0.1-0.1l-0.1-0.1l-0.1-0.1l-0.1-0.1
			l-0.1-0.1l-0.1-0.1l-0.1-0.1l-0.1-0.1L74,106l-0.1-0.1l-0.1-0.1l-0.1-0.1l0-0.1l0-0.1l0-0.1l0-0.1l0-0.1l0-0.1l0-0.1l0-0.1l0-0.1
			l0-0.1l0-0.1l0.1-0.1l0.1-0.1l0.1-0.1l0.1-0.1l0.1-0.1l0.1-0.1l0.1-0.1l0.1-0.1l0.1-0.1l0.1-0.1l0.1-0.1l0.1-0.1l0.2-0.1l0.2-0.1
			l0.2-0.1l0.2-0.1l0.2-0.1l0.2-0.1l0.2-0.1l0.2-0.1l0.2,0l0.2,0l0.2,0l0.2,0l0.3,0l0.3,0l0.3,0l0.3,0l0.3,0l0.3,0h0.3l0.3,0l0.3,0
			l0.3,0l0.3,0l0.3,0l0.3,0l0.4,0l0.7,0.1l0.7,0l0.6,0l0.6,0l0.6,0l0.5-0.1l0.5-0.1l0.5-0.1l0.4-0.1l0.4-0.2l0.4-0.2l0.4-0.2
			l0.3-0.2l0.3-0.2l0.3-0.2l0.3-0.2l0.3-0.2l0.2-0.3l0.2-0.3l0.2-0.3l0.2-0.3l0.2-0.3l0.2-0.3l0.2-0.3l0.2-0.3l0.2-0.3l0.2-0.3
			l0.2-0.3l0.2-0.3l0.2-0.2l0.2-0.2l0.7-0.9l-1.1,0.2l-0.2,0l-0.2,0l-0.2,0l-0.2,0l-0.2,0l-0.2,0l-0.1,0l-0.1,0l-0.1,0l-0.1,0
			l-0.1,0l-0.1,0l-0.1,0l-0.1,0l-0.1,0l0-0.1l0-0.1l0-0.1l0-0.1l0-0.1l0-0.1l0-0.1V95l0-0.1l0-0.1l0-0.1l0-0.1l0-0.1l0.1-0.1
			l0.1-0.1l0.1-0.1l0.1-0.1l0.1-0.1l0.1-0.1l0.2-0.2l0.2-0.2l0.2-0.2l0.2-0.2l0.3-0.2l0.3-0.3l0.3-0.3l0.3-0.3l0.3-0.3l0.3-0.3
			l0.3-0.3l0.4-0.3l0.4-0.3l0.4-0.4l0.4-0.4l0.4-0.4l0.4-0.4l0.4-0.4l0.4-0.4l0.4-0.4l0.4-0.4l0.3-0.4l0.3-0.4l0.3-0.4l0.3-0.4
			l0.3-0.4l0.3-0.4l0.3-0.4l0.2-0.4l0.1-0.2l0.1-0.2l0.1-0.2l0.1-0.2l0.1-0.2l0.1-0.2l0.1-0.2l0.1-0.2l0.1-0.2l0.1-0.2l0.1-0.2
			l0.1-0.2l0.1-0.2l0.1-0.2l0.1-0.2l0.1-0.2l0.1-0.2l0.1-0.2l0.1-0.2l0.1-0.2l0.1-0.2l0.1-0.2l0.1-0.2l0.1-0.2l0.1-0.2l0.1-0.2
			l0.1-0.2l0.1-0.2l0.1-0.2l0.1-0.2l0.1-0.2l0.1-0.2l0.1-0.2l0.1-0.2l0.1-0.2l0.1-0.2l0.1-0.2l0.1-0.2l0.1-0.2l0.1-0.2l0.1-0.1
			l0.1-0.1l0.1-0.1l0.1-0.1l0.1-0.1l0.1-0.1l0.1-0.1l0.1-0.1l0.1-0.1l0.1-0.1l0.1,0l0.1,0l0.1,0l0.1,0l0.1,0l0.1,0l0.1,0l0.1,0h0.1
			l0.1,0l0.1,0l0.1,0l0.1,0l0.6,0.2l-0.2-0.6l0-0.1l0-0.1l0-0.1l0-0.1l0-0.1l0-0.1l0-0.1l0-0.1l-0.1-0.1l-0.1-0.1l-0.1-0.1l-0.1-0.1
			l-0.1-0.1l-0.1-0.1l-0.1-0.1l-0.1-0.1l-0.1-0.1l-0.1-0.1l-0.1-0.1l-0.1-0.1l-0.1,0l-0.1,0l-0.1,0l-0.1,0l-0.1,0l-0.1,0l-0.1,0
			l0-0.1l0.1-0.2l0.1-0.2l0.1-0.2l0-0.2l0-0.2l0-0.2l0-0.2l0-0.2v-0.2l0-0.2l0-0.2l0-0.2l0-0.2l0-0.2l0-0.2l0-0.2l0-0.2l0-0.2l0-0.2
			l0-0.2l0-0.1l0-0.1l0-0.1l0-0.1l0-0.1l0-0.1l0-0.1l0-0.1l0-0.1l0-0.1l0-0.1l0-0.1l0-0.1l0-0.1l0-0.1l0-0.1l0-0.1l0-0.1l0.1-0.1
			l0.1-0.1L104,66l0.1-0.1l0.1-0.1l0.1-0.1l0.1-0.1l0.1-0.1l0.1-0.1l0.1,0l0.1,0l0.1,0l0.1,0l0.1,0l0.1,0l0.1,0l0.1,0h0.1l0.1,0
			l0.1,0l0.1,0l0.2,0l0.1,0l0.1,0.1l0.1,0.1l0.1,0.1l0.1,0.1l0.1,0.1l0,0.2l0,0.2l0,0.2l0,0.1l0,0.1l-0.1,0.1l-0.1,0l-0.1,0l-0.1,0
			l0,0l0-0.2l0-0.2l0-0.2l0-0.2l-0.1-0.1l-0.1-0.1l-0.1-0.1l-0.1-0.1l-0.1-0.1l-0.1,0l-0.1,0l-0.1,0l-0.1,0l-0.1,0l-0.1,0l-0.1,0.1
			l-0.1,0.1l-0.1,0.1l-0.1,0.1l-0.1,0.1l-0.1,0.1l-0.1,0.2l0,0.2l0,0.2l0,0.2l0,0.2l0.1,0.2l0.1,0.2l0.1,0.2l0.1,0.2l0.1,0.1
			l0.1,0.1l0.1,0.1l0.1,0.1l0.1,0.1l0.1,0.1l0.1,0.1l0.1,0.1l0.1,0l0.1,0l0.1,0l0.1,0l0.1,0l0.1,0l0.1,0l0.1,0l0.1,0l0.1,0l0.1,0
			l0.1,0l0.1,0l0.1,0l0.1-0.1l0.1-0.1l0.1-0.1l0.1-0.1l0.1-0.1l0.1-0.1l0.1-0.1l0.1-0.1l0.1-0.1l0.1-0.1l0.1-0.2l0.1-0.2l0.1-0.2
			l0.1-0.2l0.1-0.2l0.1-0.2l0.1-0.2l0-0.2l0-0.2l0-0.2l0-0.2l0-0.2l0-0.2l0-0.2l0-0.2l0-0.2l-0.1-0.2l-0.1-0.2l-0.1-0.2l-0.1-0.2
			l-0.1-0.2l-0.1-0.1l-0.1-0.1l-0.1-0.1l-0.1-0.1l-0.2-0.1l-0.2-0.1l-0.2-0.1l-0.2-0.1l-0.1,0l0.1-0.1l0.1-0.1l0.1-0.1l0.1-0.1
			l0.1-0.1l0.1-0.1l0.1-0.1l0.1-0.1l0.1-0.1l0.1-0.1l0.1-0.1l0.1-0.1l0.1-0.1l0-0.1l0-0.1l0-0.2l0-0.2l0-0.2l0-0.2l0-0.2l0-0.2
			l0-0.2l0-0.2l0-0.2l0-0.2l0-0.2l0-0.2l0-0.2l-0.1-0.6l-0.6,0.3l-0.1,0.1l-0.1,0.1l-0.1,0.1l-0.1,0.1l-0.1,0.1l-0.1,0l-0.1,0
			l-0.1,0l-0.1,0l-0.1,0l-0.1,0l-0.1,0l-0.1,0l-0.1,0l-0.1,0l-0.1,0l-0.1,0l-0.1,0l-0.1,0l-0.1,0l-0.1,0l-0.1,0l-0.1,0l-0.1,0
			l-0.1,0l-0.1,0l-0.1,0l-0.1,0l-0.1,0l-0.1,0l-0.1,0l-0.5-0.1l-0.5-0.1l-0.4,0l-0.4,0l-0.4,0l-0.4,0l-0.4,0.1l-0.4,0.1l-0.4,0.1
			l-0.4,0.1l-0.3,0.2l-0.3,0.2l-0.3,0.2l-0.3,0.2L99,60l-0.3,0.2l-0.2,0.3l-0.2,0.3l-0.2,0.3L98,61.4l-0.2,0.3l-0.1,0.3l-0.1,0.4
			l-0.1,0.4l-0.1,0.4l-0.1,0.4l0,0.4l0,0.4l0,0.4l0,0.4l0.1,0.4l0.1,0.4l0.1,0.3l0.1,0.3l0.1,0.3l0.1,0.3l0.1,0.3l0,0.3l0,0.3l0,0.3
			l0,0.3l0,0.3l0,0.3l0,0.3l0,0.3l0,0.3l0,0.3l0.1,0.5l0,0.3l0,0.2l0,0.3l0,0.3l0.1,0.5l0,0.3l0,0.3l0,0.3l0.1,0.3l0.1,0.3l0.1,0.3
			l0.1,0.3l0.1,0.3l0.1,0.3v0l0,0l0,0.2l0.2,0L99,75.2l-0.4,1l-0.5,1l-0.5,1l-0.5,1l-0.5,0.9L96,81.1L95.4,82l-0.6,0.9l-0.6,0.9
			l-0.7,0.9l-0.7,0.8l-0.7,0.8l-0.7,0.8l-0.7,0.8l-0.8,0.8l-0.8,0.7l-0.8,0.7l-0.8,0.7l-0.8,0.7l-0.9,0.7l-0.9,0.6L84,93.4L83.1,94
			l-0.9,0.6L81.2,95l-1,0.5l-1,0.5l-1,0.5l-1,0.4l-1,0.4l-0.4,0.2l0-0.1l-0.6,0.2l0,0l0,0l0,0l0,0l0,0l-0.1,0L75,97.8l0,0.1L74.9,98
			l-0.1,0.1l-0.1,0.1l-0.1,0.1l0,0.1l0,0l0,0l0,0l0,0l0,0l0,0l0,0l0,0l0,0l-0.1,0l-0.1,0l-0.1,0l-0.1,0l-0.1,0l-0.1,0l-0.3,0.1
			l0,0.3v0.1l0,0.1l0,0.1l0,0.1l0,0.1l0,0.1l0,0.1l0,0.1l0,0.1l0,0.1l0,0.1l0,0.1l0,0l0,0l0,0l0,0l0,0l0,0l0,0l-0.1,0l-0.1,0l-0.1,0
			l-0.1,0l-0.1,0l-0.1,0l-0.1,0l-0.1,0l-0.1,0l-0.1,0l-0.1,0l-0.1,0l-0.1,0l-0.1,0l0,0l0,0l0,0h0l0,0H72l-0.4,0l0,0.4l0,0.1v0.1
			l0,0.1l0,0l0,0l0,0l0,0l0,0l0,0l0,0l0,0l0,0l0,0l0,0l0,0l0,0l0,0l-0.1,0l-0.1,0l-0.1,0l-0.1,0l-0.1,0l-0.1,0l-0.1,0l-0.1,0l-0.1,0
			l-0.1,0l-0.1,0l-0.1,0l-0.1,0l-0.3,0.1l0,0.2l0,0l0,0l0,0l0,0l0,0l0,0l0,0.1l0,0.1l0,0.1l0,0.1l0,0.1l0,0.1l0,0l0,0l0,0l0,0l0,0
			l0,0l0,0l0,0l0,0l0,0l0,0l0,0l-0.1,0l-0.1,0l-0.1,0l-0.1,0l-0.1,0l-0.1,0l-0.1,0l-0.1,0l-0.1,0l-0.1,0l-0.1,0l-0.1,0h-0.1l-0.1,0
			l-0.1,0l-0.1,0l-0.1,0l-0.1,0l-0.1,0l-0.1,0l-0.4-0.1v3.4l0,0.2l0,0.1l0,0.1l0,0.1l-0.1,0.1l-0.1,0.1l-0.1,0.1l-0.1,0.1l-0.1,0.1
			L67,108l-0.1,0.1l-0.1,0.1l-0.2,0.1l-0.2,0.1l-0.2,0.1l-0.2,0.1l-0.2,0.1l-0.2,0.1l-0.2,0.1l-0.2,0.1l-0.2,0.1l-0.2,0.1l-0.2,0.1
			l-0.2,0.1l-0.2,0.1l-0.2,0.1l-0.2,0.1l-0.2,0.1l-0.2,0.1l-0.2,0.2l-0.2,0.2l-0.1,0.1v2.6l0.7-0.5l0.4-0.3l0.4-0.2l0.4-0.2l0.4-0.2
			l0.3-0.2l0.3-0.2l0.3-0.1l0.3-0.1l0.3-0.1l0.3-0.1l0.3-0.1l0.3-0.1l0.3,0l0.3,0l0.3,0l0.3,0l0.3,0l0.3,0l0.3,0l0.3,0l0.3,0l0.3,0
			l0.3,0l0.3,0.1l0.3,0.1l0.3,0.1l0.3,0.1l0.3,0.1l0.3,0.1l0.3,0.1l0.3,0.1l0.2,0.1L74,111l0.2,0l0.2,0l0.2,0l0.2,0l0.2,0l0.2,0
			l0.2,0l0.2,0l0.2-0.1l0.2-0.1l0.2-0.1l0.2-0.1l0.2-0.1l0.2-0.1l0.2-0.1l0.2-0.1l0.2-0.1l0.2-0.1l0.2-0.1l0.1-0.1l0.1-0.1l0.1-0.1
			l0.1-0.1l0.1-0.1l0.1-0.1l0.1-0.1l0.1-0.1l0.1-0.1l0.1-0.1l0.1-0.1l0-0.1l0-0.1l0-0.1l0-0.1l0-0.1l0-0.1l0-0.1l0-0.2l0-0.2l0-0.2
			l0-0.2l0-0.2l0-0.2l0-0.2l0-0.2l0-0.2l0-0.2l0-0.2l0-0.2l0-0.2l-0.1-0.2l-0.1-0.2l-0.1-0.2l-0.1-0.2l-0.1-0.2l-0.1-0.2l-0.1-0.2
			l-0.1-0.2l-0.1-0.2l-0.2-0.2l-0.2-0.2l-0.2-0.2l-0.1-0.1L77.6,103.1z M77.6,103.1"/>
		<path class="st4" d="M73.7,110.6c2.1,0.8,4.5-1,5-2.3c0.5-1.1,0.9-3.3-1-4.8c-1.1-0.7-2.7-0.1-3,1c-0.5,2.2,2.9,1.5,1.4,0.2
			c0.8-0.8,1.5,0.7,0.9,1.6c-1.5,1.6-2.9,0.6-3.5-0.6c-0.3-0.9-0.1-1.7,0.5-2.5c1.1-1.3,3.9-1.8,7.7-1.3c7.5,0.7,8.1-3.3,10.1-5.8
			c-2.4,0.6-3.3-0.6-2.4-2c0.7-1.1,6.8-6,9.3-9.9c1.5-2.2,2.7-4.6,3.6-7c1-2.6,2.2-3.1,3.3-2.8c-0.1-0.4-0.3-0.8-0.7-1.3
			c-0.6-0.5-1.3-0.5-2-0.3c1.3-2.3,0.1-4,0.3-5.5c0.2-1.3,1.1-2.5,2.9-1.9c1.2,0.3,0.9,2.5-0.3,1.9c0.9-1.7-2.5-1.4-1.1,0.7
			c0.8,0.9,2.5,0.9,3.4-0.3c1.2-2.1,0.6-4-1.5-4.8c1.4-0.9,1.9-2.4,1.6-4.1c-1.6,1-2.5,0.7-3.7,0.5c-4.9-1-7.8,2.4-6.8,6.9
			c0.7,3,0.9,5.4,1.6,8.2c0,0,0,0,0,0c0.1,0,0.2,0,0.3,0.1c-4.2,11-13.2,19.8-24.4,23.6c0,0,0,0,0-0.1c0,0,0,0,0,0
			c0,0-0.3,0.7-0.4,0.7c-0.2,0.2-0.5,0.4-1,0.5c0,0,0,0.1,0,0.1c0,0.5-0.2,0.9-0.5,1.2c-0.3,0.3-0.7,0.4-1.3,0.5c-0.1,0-0.2,0-0.2,0
			c0.1,0.4-0.1,0.8-0.4,1c-0.3,0.3-0.7,0.5-1.2,0.6c0,0.1,0,0.2,0,0.3c-0.1,0.5-0.4,0.8-0.7,0.9c-0.3,0.2-0.7,0.2-1.1,0.2
			c-0.2,0-0.4,0-0.6-0.1c0,1,0,2,0,3c0,2.1-3,1.4-5.1,3.4c0,0.6,0,1.2,0,1.8C67.1,109,70,109.8,73.7,110.6L73.7,110.6z M73.7,110.6"
			/>
		<path class="st3" d="M49,102.8l0.1,0l0.1,0l0.1,0l0.1,0l0.1,0l0.1,0l0.1,0l0.1,0l0.1,0.1l0.1,0.1l0.1,0.1l0.1,0.1l0.1,0.1l0.1,0.1
			l0.1,0.1l0.1,0.1l0.1,0.1l0.1,0.1l0.1,0.1l0.1,0.1l0.1,0.1l0,0.1l0,0.1l0,0.2l0,0.2l0,0.2l0,0.2l-0.1,0.2l-0.1,0.2l-0.1,0.1
			l-0.1,0.1l-0.1,0.1l-0.1,0.1l-0.1,0.1l-0.1,0l-0.1,0l-0.1,0l-0.1,0l-0.1,0l-0.1,0l-0.1,0l-0.1,0l-0.1-0.1l-0.1-0.1l-0.1-0.1
			l-0.1-0.1l-0.1-0.1l0-0.1l0-0.2l0-0.2l0-0.2l0.1-0.1l0,0l0,0l-0.1,0.1l-0.1,0.1l-0.1,0.1l0,0.1l0,0.1l0,0.2l0,0.2l0,0.1l0.1,0.1
			l0.1,0.1l0.1,0.1l0.1,0.1l0.1,0.1l0.1,0.1l0.1,0.1l0.1,0.1l0.1,0.1l0.1,0l0.1,0l0.1,0l0.1,0l0.1,0l0.1,0l0.1,0l0.1,0l0.1,0l0.1,0
			l0.1,0l0.1,0l0.1-0.1l0.1-0.1l0.1-0.1l0.1-0.1l0.1-0.1l0.1-0.1l0.1-0.1l0.1-0.1l0.1-0.1l0.1-0.1l0.1-0.1l0.1-0.1l0-0.1l0-0.1
			l0-0.1l0-0.1l0-0.1l0-0.1l0-0.1l0-0.1l0-0.1l0-0.1l0-0.1l-0.1-0.1l-0.1-0.1l-0.1-0.1l-0.1-0.1l-0.1-0.1l-0.1-0.1l-0.1-0.1
			l-0.1-0.1l-0.1-0.1l-0.1-0.1l-0.1-0.1l-0.1-0.1l-0.2-0.1l-0.2-0.1l-0.2-0.1l-0.2-0.1l-0.2-0.1l-0.2-0.1l-0.2-0.1l-0.2-0.1l-0.2,0
			l-0.2,0l-0.2,0l-0.2,0l-0.3,0l-0.3,0l-0.3,0l-0.3,0l-0.3,0l-0.3,0h-0.3l-0.3,0l-0.3,0l-0.3,0l-0.3,0l-0.3,0l-0.3,0l-0.4,0
			l-0.7,0.1l-0.7,0l-0.6,0l-0.6,0l-0.6,0l-0.5-0.1l-0.5-0.1l-0.5-0.1l-0.4-0.1l-0.4-0.2l-0.4-0.2l-0.4-0.2l-0.3-0.2l-0.3-0.2
			l-0.3-0.2l-0.3-0.2l-0.3-0.2l-0.2-0.3L36,99.6l-0.2-0.3l-0.2-0.3l-0.2-0.3l-0.2-0.3L35,98.2L34.9,98l-0.2-0.3l-0.2-0.3l-0.2-0.3
			l-0.2-0.3L34,96.7l-0.2-0.2l-0.7-0.9l1.1,0.2l0.2,0l0.2,0l0.2,0l0.2,0l0.2,0l0.2,0l0.1,0l0.1,0l0.1,0l0.1,0l0.1,0l0.1,0l0.1,0
			l0.1,0l0.1,0l0-0.1l0-0.1l0-0.1l0-0.1l0-0.1l0-0.1l0-0.1l0-0.1l0-0.1l0-0.1l0-0.1l0-0.1l0-0.1l-0.1-0.1l-0.1-0.1L36,94.2l-0.1-0.1
			L35.8,94l-0.1-0.1l-0.2-0.2l-0.2-0.2l-0.2-0.2L34.9,93l-0.3-0.2l-0.3-0.3l-0.3-0.3L33.8,92l-0.3-0.3l-0.3-0.3L32.8,91l-0.4-0.3
			l-0.4-0.3L31.7,90l-0.4-0.4L31,89.3l-0.4-0.4l-0.4-0.4l-0.4-0.4l-0.4-0.4l-0.4-0.4L28.8,87l-0.3-0.4l-0.3-0.4l-0.3-0.4l-0.3-0.4
			L27.2,85L27,84.6l-0.2-0.4l-0.1-0.2l-0.1-0.2l-0.1-0.2l-0.1-0.2L26,83.2L25.9,83l-0.1-0.2l-0.1-0.2l-0.1-0.2l-0.1-0.2l-0.1-0.2
			l-0.1-0.2L25,81.5l-0.1-0.2L24.8,81l-0.1-0.2l-0.1-0.2l-0.1-0.2l-0.1-0.2l-0.1-0.2l-0.1-0.2l-0.1-0.2l-0.1-0.2L23.8,79l-0.1-0.2
			l-0.1-0.2l-0.1-0.2l-0.1-0.2l-0.1-0.2l-0.1-0.2l-0.1-0.2l-0.1-0.2L23,76.9l-0.1-0.2l-0.1-0.2l-0.1-0.2l-0.1-0.2L22.5,76l-0.1-0.2
			l-0.1-0.2l-0.1-0.1l-0.1-0.1L22,75.3l-0.1-0.1l-0.1-0.1L21.8,75l-0.1-0.1l-0.1-0.1l-0.1-0.1l-0.1-0.1l-0.1,0l-0.1,0l-0.1,0l-0.1,0
			l-0.1,0l-0.1,0l-0.1,0l-0.1,0h-0.1l-0.1,0l-0.1,0l-0.1,0l-0.1,0l-0.6,0.2l0.2-0.6l0-0.1l0-0.1l0-0.1l0-0.1l0-0.1l0-0.1l0-0.1
			l0-0.1l0.1-0.1l0.1-0.1l0.1-0.1l0.1-0.1l0.1-0.1l0.1-0.1l0.1-0.1l0.1-0.1l0.1-0.1l0.1-0.1l0.1-0.1l0.1-0.1l0.1,0l0.1,0l0.1,0
			l0.1,0l0.1,0l0.1,0l0.1,0l0-0.1L22,71.9L22,71.7l-0.1-0.2l0-0.2l0-0.2l0-0.2l0-0.2l0-0.2l0-0.2l0-0.2l0-0.2l0-0.2l0-0.2l0-0.2
			l0-0.2l0-0.2l0-0.2l0-0.2l0-0.2l0-0.2l0-0.1l0-0.1l0-0.1l0-0.1l0-0.1l0-0.1l0-0.1l0-0.1l0-0.1l0-0.1l0-0.1l0-0.1l0-0.1l0-0.1
			l0-0.1l0-0.1l0-0.1l0-0.1l-0.1-0.1l-0.1-0.1L21.6,66l-0.1-0.1l-0.1-0.1l-0.1-0.1l-0.1-0.1l-0.1-0.1l-0.1-0.1l-0.1,0l-0.1,0l-0.1,0
			l-0.1,0l-0.1,0l-0.1,0l-0.1,0l-0.1,0h-0.1l-0.1,0l-0.1,0l-0.1,0l-0.2,0l-0.1,0l-0.1,0.1l-0.1,0.1l-0.1,0.1l-0.1,0.1L19.1,66l0,0.2
			l0,0.2l0,0.2l0,0.1l0,0.1l0.1,0.1l0.1,0l0.1,0l0.1,0l0,0l0-0.2l0-0.2l0-0.2l0-0.2l0.1-0.1l0.1-0.1l0.1-0.1l0.1-0.1l0.1-0.1l0.1,0
			l0.1,0l0.1,0l0.1,0l0.1,0l0.1,0l0.1,0.1l0.1,0.1l0.1,0.1l0.1,0.1l0.1,0.1l0.1,0.1l0.1,0.2l0,0.2l0,0.2l0,0.2l0,0.2l-0.1,0.2
			l-0.1,0.2l-0.1,0.2L21.2,68l-0.1,0.1L21,68.2l-0.1,0.1l-0.1,0.1l-0.1,0.1l-0.1,0.1l-0.1,0.1l-0.1,0.1l-0.1,0l-0.1,0l-0.1,0l-0.1,0
			l-0.1,0l-0.1,0l-0.1,0l-0.1,0l-0.1,0l-0.1,0l-0.1,0l-0.1,0l-0.1,0l-0.1,0l-0.1-0.1l-0.1-0.1L18,68.4l-0.1-0.1l-0.1-0.1l-0.1-0.1
			L17.6,68l-0.1-0.1l-0.1-0.1l-0.1-0.1l-0.1-0.2L17,67.3L16.9,67l-0.1-0.2l-0.1-0.2l-0.1-0.2l0-0.2l0-0.2l0-0.2l0-0.2l0-0.2l0-0.2
			l0-0.2l0-0.2l0-0.2l0.1-0.2l0.1-0.2l0.1-0.2l0.1-0.2l0.1-0.2l0.1-0.2l0.1-0.1l0.1-0.1l0.1-0.1l0.1-0.1l0.2-0.1l0.2-0.1l0.2-0.1
			l0.2-0.1l0.1,0l-0.1-0.1l-0.1-0.1l-0.1-0.1L18,62.3l-0.1-0.1L17.8,62l-0.1-0.1l-0.1-0.1l-0.1-0.1l-0.1-0.1l-0.1-0.1l-0.1-0.1
			l-0.1-0.1l0-0.1l0-0.1l0-0.2l0-0.2l0-0.2l0-0.2l0-0.2l0-0.2l0-0.2l0-0.2v-0.2l0-0.2l0-0.2l0-0.2l0-0.2l0.1-0.6l0.6,0.3l0.1,0.1
			l0.1,0.1l0.1,0.1l0.1,0.1l0.1,0.1l0.1,0l0.1,0l0.1,0l0.1,0l0.1,0l0.1,0l0.1,0l0.1,0l0.1,0l0.1,0l0.1,0l0.1,0l0.1,0l0.1,0l0.1,0
			l0.1,0l0.1,0l0.1,0l0.1,0l0.1,0l0.1,0l0.1,0l0.1,0l0.1,0l0.1,0l0.1,0l0.5-0.1l0.5-0.1l0.4,0l0.4,0l0.4,0l0.4,0l0.4,0.1l0.4,0.1
			l0.4,0.1l0.4,0.1l0.3,0.2l0.3,0.2l0.3,0.2l0.3,0.2l0.3,0.2l0.3,0.2l0.2,0.3l0.2,0.3l0.2,0.3l0.2,0.3l0.2,0.3l0.1,0.3l0.1,0.4
			l0.1,0.4l0.1,0.4l0.1,0.4l0,0.4l0,0.4l0,0.4l0,0.4l-0.1,0.4l-0.1,0.4l-0.1,0.3l-0.1,0.3l-0.1,0.5l-0.1,0.3l-0.1,0.3L27.8,68
			l-0.1,0.3l-0.1,0.3l-0.1,0.3L27.5,69l-0.1,0.3l-0.1,0.2l-0.1,0.3l-0.1,0.5l0,0.2l0,0.2l0,0.2l0,0.2l0,0.2L27,72l-0.1,0.5l0,0.3
			l0,0.3l0,0.3l0,0.3l0,0.3l0,0.3l-0.1,0.4l-0.2,0.2l0.3,0.7l0.4,1l0.5,1l0.5,1l0.5,1l0.5,1l0.6,0.9l0.6,0.9l0.6,0.9l0.6,0.9
			l0.7,0.9l0.7,0.8l0.7,0.8l0.7,0.8L35,88l0.8,0.8l0.8,0.7l0.8,0.7l0.8,0.7l0.9,0.7l0.9,0.7l0.9,0.6l0.9,0.6l0.9,0.6l0.9,0.6l1,0.5
			l1,0.5l1,0.5l1,0.4l1,0.4l1,0.4l0.5,0.2l0-0.1l0.6,0.2l0,0l0,0l0,0l0,0l0,0l0.1,0l0.1,0.1l0,0.1l0,0.1l0.1,0.1l0.1,0.1l0,0.1l0,0
			l0,0l0,0l0,0l0,0l0,0l0,0l0,0l0,0l0,0l0.1,0l0.1,0l0.1,0l0.1,0l0.1,0l0.1,0l0.3,0.1l0,0.3v0.1l0,0l0,0.1l0,0.1l0,0.1l0,0.1l0,0.1
			l0,0.1l0,0.1l0,0.1l0,0.1l0,0.1l0,0.1l0,0.1l0,0l0,0l0,0l0,0l0,0l0,0l0.1,0l0.1,0l0.1,0l0.1,0l0.1,0l0.1,0l0.1,0l0.1,0l0.1,0
			l0.1,0l0.1,0l0.1,0l0.1,0l0.1,0l0,0l0,0h0l0.1,0h0l0.4,0l0,0.5l0,0.1l0,0.1l0,0.1l0,0.1l0,0.1l0,0.1l0.1,0.1l0.1,0.1l0.1,0.1
			l0.1,0.1l0.1,0.1l0.1,0.1l0.1,0.1l0.2,0.1l0.2,0.1l0,0l0,0l0,0l0,0l0,0l0,0l0,0l0.2,0.1l0,0.2l0,0.1l0,0l0,0l0,0l0,0l0,0l0,0.1
			l0,0.1l0,0.1l0,0.1l0,0.1l0,0.1l0,0.1l0,0.1l0,0l0,0l0,0l0,0l0,0l0,0l0.1,0l0.1,0l0.1,0l0.1,0l0.1,0l0.1,0l0.1,0l0.1,0l0.1,0
			l0.1,0l0.1,0l0.1,0l0.1,0l0.1,0l0.1,0l0.1,0h0.1l0.1,0l0,0l0,0l0.1,0l0,0l0,0l0,0l0.4-0.1v3.3l0,0.2l0,0.1l0,0.1l0,0.1l0.1,0.1
			l0.1,0.1l0.1,0.1l0.1,0.1l0.1,0.1l0.1,0.1l0.1,0.1l0.1,0.1l0.2,0.1l0.2,0.1l0.2,0.1l0.2,0.1l0.2,0.1l0.2,0.1l0.2,0.1l0.2,0.1
			l0.2,0.1l0.2,0.1L61,109l0.2,0.1l0.2,0.1l0.2,0.1l0.2,0.1l0.2,0.1l0.2,0.1l0.2,0.2l0.2,0.2l0.1,0.1v2.6l-0.6-0.5l-0.4-0.3
			l-0.4-0.2l-0.4-0.2l-0.4-0.2l-0.3-0.2l-0.3-0.2l-0.3-0.1l-0.3-0.1l-0.3-0.1l-0.3-0.1l-0.3-0.1l-0.3-0.1l-0.3,0l-0.3,0l-0.3,0
			l-0.3,0l-0.3,0l-0.3,0l-0.3,0l-0.3,0l-0.3,0l-0.3,0l-0.3,0l-0.3,0.1l-0.3,0.1l-0.3,0.1l-0.3,0.1l-0.3,0.1l-0.3,0.1l-0.3,0.1
			l-0.3,0.1l-0.2,0.1l-0.2,0.1l-0.2,0l-0.2,0l-0.2,0l-0.2,0l-0.2,0l-0.2,0l-0.2,0l-0.2,0l-0.2-0.1l-0.2-0.1l-0.2-0.1l-0.2-0.1
			l-0.2-0.1l-0.2-0.1l-0.2-0.1l-0.2-0.1l-0.2-0.1L48,110l-0.2-0.1l-0.1-0.1l-0.1-0.1l-0.1-0.1l-0.1-0.1l-0.1-0.1l-0.1-0.1l-0.1-0.1
			l-0.1-0.1l-0.1-0.1l-0.1-0.1l-0.1-0.1l0-0.1l0-0.1l0-0.1l0-0.1l0-0.1l0-0.1l0-0.1l0-0.2l0-0.2l0-0.2l0-0.2l0-0.2l0-0.2l0-0.2
			l0-0.2l0-0.2l0-0.2l0-0.2l0-0.2l0-0.2l0.1-0.2l0.1-0.2l0.1-0.2l0.1-0.2l0.1-0.2l0.1-0.2L47,104l0.1-0.2l0.1-0.2l0.2-0.2l0.2-0.2
			l0.2-0.2l0.1-0.1l0.1-0.1l0.1-0.1l0.1,0l0.1,0l0.1,0l0.1,0l0.1,0L49,102.8z M49,102.8"/>
		<path class="st5" d="M51.9,110.6c-2.1,0.8-4.5-1-5-2.3c-0.5-1.1-0.9-3.3,1-4.8c1.1-0.7,2.7-0.1,3,1c0.5,2.2-2.9,1.5-1.4,0.2
			c-0.8-0.8-1.5,0.7-0.9,1.6c1.5,1.6,2.9,0.6,3.5-0.6c0.3-0.9,0-1.7-0.5-2.5c-1.1-1.3-3.9-1.8-7.7-1.3c-7.5,0.7-8.1-3.3-10.1-5.8
			c2.4,0.6,3.3-0.6,2.4-2c-0.7-1.1-6.8-6-9.3-9.9c-1.5-2.2-2.7-4.6-3.6-7c-1-2.6-2.2-3.1-3.3-2.8c0.1-0.4,0.3-0.8,0.7-1.3
			c0.6-0.5,1.3-0.5,2-0.3c-1.3-2.3-0.1-4-0.3-5.5c-0.2-1.3-1.1-2.5-2.9-1.9c-1.2,0.3-0.9,2.5,0.3,1.9c-0.9-1.7,2.5-1.4,1.1,0.7
			c-0.8,0.9-2.5,0.9-3.4-0.3c-1.2-2.1-0.6-4,1.5-4.8c-1.4-0.9-1.9-2.4-1.6-4.1c1.6,1,2.5,0.7,3.7,0.5c4.9-1,7.8,2.4,6.8,6.9
			c-0.7,3-1.2,5.4-1.6,8.2c-0.2,0-0.2,0-0.1,0.1c-0.1,0-0.2,0-0.2,0C30.1,85.5,39.2,94.3,50.5,98c0,0,0-0.1,0-0.1c0,0,0,0,0.1,0
			c0,0,0.3,0.6,0.3,0.6c0.2,0.2,0.5,0.3,0.9,0.4c0,0.1,0,0.1,0,0.2c0,0.5,0.2,0.9,0.5,1.2c0.3,0.3,0.7,0.4,1.3,0.5
			c0.1,0,0.1,0,0.2,0c-0.1,0.9,0.5,1.1,1.4,1.5c0.1,0,0.1,0,0.2,0.1c0,0.1,0,0.2,0,0.3c0.1,0.5,0.4,0.8,0.8,1
			c0.4,0.2,0.8,0.3,1.2,0.3c0.1,0,0.2,0,0.3,0v3c0,2.1,3,1.6,5.1,3.4c0,0.6,0,1.2,0,1.8C58.5,109,55.6,109.8,51.9,110.6L51.9,110.6z
			 M51.9,110.6"/>
	</g>
	<path class="st6" d="M62.9,25.6c2.6,0,4.6,2.1,4.6,4.6c0,2.6-2.1,4.6-4.6,4.6c-2.6,0-4.6-2.1-4.6-4.6
		C58.2,27.7,60.3,25.6,62.9,25.6L62.9,25.6z M61.9,24.6c0.3-0.1,0.5-0.3,0.6-0.7c0.1-0.4,0.5-0.6,0.9-0.7c0.7,0,0.5,0.8,0.1,0.6
		c-0.6-0.3-1,0.4-0.2,0.6c0,0,0,0,0,0c0.4,0,0.6-0.1,0.9-0.5c0.2-0.4,0.6-0.5,1-0.4c0.7,0.1,0.3,0.9-0.1,0.6
		c-0.5-0.4-1.1,0.2-0.3,0.6c0.3,0.1,0.6,0,0.9-0.3c0.3-0.3,0.7-0.3,1.1-0.1c0.6,0.3,0.1,1-0.3,0.6c-0.3-0.5-1-0.1-0.5,0.4
		c0,0,0,0,0,0c0.3,0.2,0.6,0.2,1,0c0.4-0.2,0.8-0.1,1.1,0.2c0.5,0.5-0.2,1-0.4,0.5c-0.2-0.6-1-0.4-0.6,0.3c0,0,0,0,0,0
		c0.2,0.3,0.5,0.4,0.9,0.3c0.4-0.1,0.8,0.1,1,0.4c0.4,0.6-0.4,0.9-0.5,0.4c0-0.6-0.8-0.6-0.6,0.1c0,0,0,0,0,0
		c0.2,0.3,0.4,0.5,0.8,0.5c0.4,0,0.7,0.3,0.9,0.7c0.2,0.7-0.7,0.7-0.6,0.2c0.1-0.6-0.7-0.8-0.6,0c0,0,0,0,0,0
		c0.1,0.4,0.3,0.6,0.7,0.7c0.4,0.1,0.6,0.5,0.7,0.9c0,0.7-0.8,0.6-0.6,0.1c0.3-0.6-0.5-1-0.6-0.1c0,0.3,0.2,0.6,0.5,0.8
		c0.4,0.2,0.5,0.6,0.4,1c-0.1,0.7-0.9,0.3-0.6-0.1c0.4-0.5-0.2-1-0.6-0.3c0,0,0,0,0,0c-0.1,0.3,0,0.6,0.2,0.9
		c0.3,0.3,0.3,0.7,0.1,1.1c-0.3,0.6-1,0.1-0.6-0.3c0.5-0.3,0.1-1-0.4-0.5c0,0,0,0,0,0c-0.2,0.3-0.2,0.6,0,1c0.2,0.4,0.1,0.8-0.2,1.1
		c-0.5,0.5-1-0.2-0.5-0.4c0.6-0.2,0.4-1-0.3-0.6c-0.3,0.2-0.3,0.5-0.3,0.9c0.1,0.4-0.1,0.8-0.4,1c-0.6,0.4-0.9-0.4-0.4-0.5
		c0.6,0,0.6-0.8-0.1-0.6c0,0,0,0,0,0c-0.3,0.2-0.5,0.4-0.5,0.8c0,0.4-0.3,0.7-0.7,0.9c-0.7,0.2-0.7-0.7-0.2-0.6
		c0.6,0.1,0.8-0.7,0-0.6c0,0,0,0,0,0c-0.4,0.1-0.6,0.3-0.7,0.7c-0.1,0.4-0.5,0.6-0.9,0.7c-0.7,0-0.5-0.8-0.1-0.6
		c0.6,0.3,1-0.4,0.2-0.6c-0.4,0-0.6,0.1-0.8,0.5c-0.2,0.4-0.6,0.5-1,0.4c-0.7-0.1-0.3-0.9,0.1-0.6c0.5,0.4,1-0.2,0.3-0.5
		c0,0,0,0,0,0c-0.3-0.1-0.6,0-1,0.2c-0.3,0.3-0.7,0.3-1.1,0.1c-0.6-0.3-0.1-1,0.3-0.6c0.3,0.5,1,0.1,0.5-0.4c0,0,0,0,0,0
		c-0.3-0.2-0.6-0.2-1,0c-0.4,0.2-0.8,0.1-1.1-0.2c-0.5-0.5,0.2-1,0.4-0.5c0.2,0.6,1,0.4,0.6-0.3c0,0,0,0,0,0
		c-0.2-0.3-0.5-0.4-0.9-0.3c-0.4,0.1-0.8-0.1-1-0.4c-0.4-0.6,0.4-0.9,0.5-0.4c0,0.6,0.8,0.6,0.6-0.2c-0.2-0.3-0.4-0.5-0.8-0.5
		c-0.4,0-0.7-0.3-0.9-0.7c-0.2-0.7,0.7-0.7,0.6-0.2c-0.1,0.6,0.6,0.8,0.6,0c0,0,0,0,0,0c-0.1-0.4-0.3-0.6-0.7-0.7
		c-0.4-0.1-0.6-0.5-0.7-0.9c0-0.7,0.8-0.6,0.6-0.1c-0.3,0.6,0.4,1,0.6,0.2c0-0.4-0.1-0.6-0.5-0.9c-0.4-0.2-0.5-0.6-0.4-1
		c0.1-0.7,0.9-0.3,0.6,0.1c-0.4,0.5,0.2,1,0.6,0.3c0,0,0,0,0,0c0.1-0.3,0-0.6-0.2-0.9c-0.3-0.3-0.3-0.7-0.1-1.1
		c0.3-0.6,1-0.1,0.6,0.3c-0.5,0.4-0.1,1.1,0.5,0.4c0.2-0.3,0.2-0.6,0-1c-0.2-0.4-0.1-0.8,0.2-1.1c0.5-0.5,1,0.2,0.5,0.4
		c-0.6,0.2-0.4,1,0.3,0.6c0.3-0.2,0.3-0.5,0.3-0.9c-0.1-0.4,0.1-0.8,0.4-1c0.6-0.4,0.9,0.4,0.4,0.5c-0.6,0.1-0.6,0.9,0.2,0.6
		c0.3-0.2,0.4-0.4,0.5-0.8c0-0.4,0.3-0.7,0.7-0.9c0.7-0.2,0.7,0.7,0.2,0.6C61.3,23.9,61.1,24.7,61.9,24.6L61.9,24.6z M62.9,24.9
		c3,0,5.4,2.4,5.4,5.4c0,3-2.4,5.4-5.4,5.4s-5.4-2.4-5.4-5.4C57.5,27.3,59.9,24.9,62.9,24.9L62.9,24.9z M62.9,24.9"/>
	<path class="st6" d="M72,98.8C72,98.8,72,98.8,72,98.8 M53.6,98.8C53.6,98.8,53.6,98.8,53.6,98.8 M57.7,103H68c0,0.2,0,0.5,0,0.7
		c0.2,0,0.4,0.1,0.6,0.1c0.4,0,0.7,0,1-0.2c0.3-0.1,0.5-0.4,0.5-0.8c0-0.1,0-0.2,0-0.4l0-0.1c-0.1-0.5-0.5-1.1-1.1-1
		c-0.7,0.1-0.5,1-0.1,1c0.2,0,0.2-0.3,0-0.4c0.1-0.2,0.5-0.2,0.5,0.2c0,0.9-1.6,0.3-2-0.2c-0.5,0.4-1.3,0.4-1.8,0
		c-0.6,0.4-1.2,0.5-1.8,0c-0.3,0.2-0.7,0.3-1,0.3c-0.3,0-0.7-0.1-1-0.3c-0.6,0.5-1.2,0.4-1.8,0c-0.5,0.4-1.3,0.4-1.8,0
		c-0.4,0.4-2,1-2,0.2c0-0.4,0.4-0.5,0.5-0.2c-0.3,0-0.3,0.3,0,0.4c0.4,0.1,0.7-0.9-0.1-1c-0.7-0.1-0.9,0.4-1,0.8l0,0l0,0.1
		c0,0.1,0,0.2,0,0.4c0.1,0.4,0.3,0.7,0.6,0.9c0.3,0.2,0.7,0.2,1.1,0.2c0.1,0,0.2,0,0.4,0V103z M68,104c0,1,0,2,0,3
		c0,2.1-3.1,1.4-5.2,3.5c-2.1-2-5.2-1.4-5.2-3.5v-3c-0.1,0-0.2,0-0.3,0c-0.4,0-0.9-0.1-1.2-0.3c-0.4-0.2-0.6-0.5-0.8-1
		c0-0.1,0-0.2,0-0.3c-0.1,0-0.1,0-0.2-0.1c-0.9-0.3-1.5-0.6-1.4-1.5c-0.1,0-0.1,0-0.2,0c-0.6,0-1-0.2-1.3-0.5
		c-0.3-0.3-0.5-0.7-0.5-1.2c0-0.1,0-0.1,0-0.2c-0.4-0.1-0.7-0.2-0.9-0.4c-0.9-0.9-0.4-3.1,1.2-2.8c0.5,0.1,0.7,0.4,0.8,0.6
		c0.2-0.3,0.6-0.8,0.8-0.9c0.2-0.2,0.5-0.5,0.7-0.7c0.2-0.2,2.2-2.2,2.5-2.6c0.5-0.5,1.8-1.8,2.3-2.6c0.5-1.1,0.4-0.3,1.6,0.4
		c0.9,0.7,0.5,0.5,1.4-0.5c0.5-0.4,0.7-0.6,0.9-0.7c0.2-0.5,0.4-0.3,0.7,0.1c0.3,0.3,0.7,0.7,0.9,1c0.4,0.7,1,0.1,1-0.1
		c0.3-0.6,0.5,0.3,1.8,1.6c0.6,0.7,0.7,0.4,1,0c0.2-0.3,0.2-0.5,0.3-0.5c0-0.3,0.3,0.3,0.3,0.3c0.6,0.9,1.6,1.6,2.4,2.6
		c0.3,0.3,1,1.1,1.3,1.5c0.2,0.2,0.5,0.5,0.8,0.8c0.1-0.1,0.3-0.1,0.4-0.2c1.2-0.3,1.6,0.6,1.7,1.3c0,0.2,0,0.4,0,0.6l0,0
		c-0.1,0.3-0.2,0.6-0.4,0.8c-0.2,0.2-0.5,0.4-1,0.5c0,0,0,0.1,0,0.1c0,0.5-0.2,0.9-0.5,1.2c-0.3,0.3-0.7,0.4-1.3,0.5
		c-0.1,0-0.2,0-0.2,0c0.1,0.4-0.1,0.8-0.4,1c-0.3,0.3-0.7,0.5-1.2,0.6c0,0.1,0,0.2,0,0.3c-0.1,0.5-0.4,0.8-0.7,0.9
		c-0.3,0.2-0.7,0.2-1.1,0.2C68.4,104,68.2,104,68,104L68,104z M55.3,102.1c0-0.5,0.3-1,1.3-1c0.6,0,0.8,0.6,0.7,1.1
		c0.3,0,0.6-0.3,0.9-0.5c0.5,0.5,1.2,0.5,1.8,0c0.6,0.5,1.1,0.6,1.8,0c0.7,0.5,1.4,0.5,2.1,0c0.6,0.6,1.1,0.5,1.8,0
		c0.6,0.4,1.3,0.5,1.8,0c0.3,0.2,0.6,0.5,0.9,0.5c-0.2-0.5,0.1-1.1,0.7-1.1c0.9,0,1.2,0.5,1.3,1.1c0,0,0,0.1,0,0.1
		c0.4-0.2,0.8-0.3,1.1-0.6c0.2-0.2,0.4-0.5,0.2-0.9l0-0.2h0c-0.2-0.4-0.5-0.8-1-0.7c-0.7,0.1-0.5,1-0.1,1c0.2,0,0.2-0.3,0-0.4
		c0.1-0.2,0.5-0.2,0.5,0.2c0,0.9-1.4,0.3-1.9-0.2c-0.5,0.4-1.1,0.4-1.6,0c-0.6,0.4-1.2,0.5-1.8,0c-0.6,0.4-1.2,0.4-1.8,0.1l0,0
		c0,0-0.1-0.1-0.1-0.1c-0.3,0.2-0.6,0.3-1,0.3c-0.3,0-0.7-0.1-1-0.3c-0.6,0.4-1.3,0.4-1.9,0c-0.6,0.5-1.2,0.4-1.8,0
		c-0.5,0.4-1.1,0.4-1.6,0c-0.4,0.4-1.8,1.1-1.9,0.2c0-0.4,0.4-0.5,0.5-0.2c-0.3,0-0.3,0.3,0,0.4c0.4,0.1,0.7-0.9-0.1-1
		c-0.6-0.1-1,0.5-1.1,1c-0.1,0.7,0.4,0.9,1.2,1.2C55.2,102.1,55.3,102.1,55.3,102.1L55.3,102.1z M53.8,100.6c0.1-0.5,0.4-1,1.3-1
		c0.6,0,0.8,0.6,0.7,1.1c0.3-0.1,0.6-0.3,0.8-0.5c0.5,0.5,1,0.5,1.6,0c0.6,0.5,1.1,0.6,1.8,0c0.7,0.5,1.3,0.6,1.9,0c0,0,0,0,0,0
		c0,0,0,0,0,0c0.3,0.2,0.6,0.4,1,0.4c0,0,0,0,0,0h0c0.3,0,0.5-0.1,0.8-0.3c0,0,0.1-0.1,0.1-0.1c0,0,0,0,0,0c0,0,0,0,0,0
		c0.7,0.5,1.2,0.5,1.9,0c0.6,0.6,1.1,0.5,1.8,0c0.6,0.4,1,0.5,1.6,0c0.3,0.1,0.5,0.4,0.8,0.5c-0.2-0.5,0.1-1.1,0.7-1.1
		c1,0,1.2,0.6,1.3,1c0.1,0,0.2,0,0.3,0c0.5,0,0.9-0.2,1.1-0.4c0.2-0.2,0.4-0.6,0.4-1c-0.1-0.5-0.7-1.1-1.2-1.1
		c-0.7,0.1-0.6,1-0.1,0.9c0.2,0,0.2-0.3,0-0.3c0.1-0.2,0.5-0.2,0.5,0.2c0,1-1.5,0.5-1.9,0.3c-0.2,0.2-0.5,0.3-0.8,0.3
		c-0.3,0-0.5-0.1-0.8-0.3c-0.3,0.2-0.6,0.3-0.9,0.4c-0.3,0-0.6-0.1-0.9-0.3c-0.4,0.2-0.7,0.3-1,0.3c-0.3,0-0.6-0.1-0.9-0.3
		c-0.3,0.2-0.7,0.3-1,0.3c-0.3,0-0.6-0.1-1-0.3c-0.7,0.5-1.4,0.5-2,0c-0.3,0.2-0.6,0.3-1,0.3c-0.3,0-0.7-0.1-1-0.3
		c-0.3,0.2-0.6,0.3-0.9,0.3c-0.3,0-0.7-0.1-1-0.3c-0.3,0.2-0.6,0.4-0.9,0.3c-0.3,0-0.6-0.1-0.9-0.4c-0.3,0.2-0.6,0.3-0.8,0.3
		c-0.3,0-0.5-0.1-0.8-0.3c-0.4,0.2-1.9,0.7-1.9-0.3c0-0.4,0.4-0.5,0.5-0.2c-0.2,0-0.2,0.3,0,0.3c0.5,0.1,0.5-0.8-0.2-0.9
		c-0.5-0.1-0.8,0.3-1,0.8c0,0.1,0,0.1,0,0.2c0,0.4,0.1,0.8,0.4,1c0.2,0.2,0.6,0.4,1.1,0.4C53.6,100.6,53.7,100.6,53.8,100.6
		L53.8,100.6z M51.8,98.7c0.1-0.4,0.5-0.9,1.2-0.8c0.6,0,1.2,0.7,0.7,1.3c0.3,0,0.6-0.1,0.8-0.3l0.1,0l0.1,0.1
		c0.2,0.2,0.4,0.3,0.7,0.3c0.2,0,0.5-0.1,0.7-0.3l0.1-0.1l0.1,0.1c0.3,0.2,0.5,0.3,0.8,0.4c0.3,0,0.5-0.1,0.8-0.4l0.1-0.1L58,99
		c0.3,0.2,0.6,0.4,0.9,0.3c0.3,0,0.6-0.1,0.8-0.3l0.1-0.1l0.1,0.1c0.3,0.2,0.6,0.3,0.9,0.3c0.3,0,0.6-0.1,0.9-0.3l0.1-0.1l0.1,0.1
		c0.6,0.5,1.2,0.5,1.8,0l0.1-0.1l0.1,0.1c0.3,0.2,0.6,0.3,0.9,0.3c0.3,0,0.6-0.1,0.9-0.3l0.1-0.1l0.1,0.1c0.3,0.2,0.5,0.3,0.8,0.3
		c0.3,0,0.6-0.1,0.9-0.3l0.1-0.1l0.1,0.1c0.3,0.2,0.5,0.4,0.8,0.4c0.3,0,0.5-0.1,0.8-0.4l0.1-0.1l0.1,0.1c0.3,0.2,0.5,0.3,0.7,0.3
		c0.2,0,0.5-0.1,0.7-0.3l0.1-0.1l0.1,0c0.3,0.1,0.5,0.2,0.8,0.3c-0.5-0.6,0-1.3,0.6-1.4c0.7,0,1.1,0.4,1.3,1
		c0.4-0.1,0.7-0.2,0.9-0.4c0.1-0.1,0.3-0.3,0.3-0.5c0.2-0.9-0.1-2.1-1.4-1.8c-0.8,0.2-0.9,1.4,0,1.4c0.3,0,0.2-0.5-0.1-0.6
		c0.2-0.3,0.7-0.1,0.6,0.4c-0.1,0.5-0.5,0.5-0.8,0.4c-0.3-0.1-0.6-0.4-0.8-0.7c-6.3,0-12.6,0-19,0c1.8-1.6,3.6-3.1,5.3-4.7
		c0.2-0.2,0.3-0.2,0.3,0c0,0.4-0.1,0.7-0.1,1.1c-0.1,0.4,0.1,0.3,0.4,0.1c0.5-0.7,1-1.4,1.5-2c0.2,0,0.3,0,0.2,0.1
		c-0.5,0.9-1.1,1.8-1.7,2.7c-0.3,0.6,0.1,0.5,0.5,0.2c0.8-0.8,1.7-1.6,2.3-2.4c1.2,0.9,2.4,1.8,3.7,2.7c0.3,0.1,0.5,0,0.5-0.1
		c-0.5-0.7-1-1.5-1.5-2.2c0-0.1,0-0.2,0.1-0.2c0.3,0.3,0.6,0.7,0.9,1c0.2,0.2,0.3,0.1,0.2-0.2c0-0.1-0.1-0.3-0.2-0.4
		c-0.2-0.2,0-0.2,0.1-0.3c0.8,0.9,1.6,1.6,2.4,2.3c0.4,0.1,0.4-0.1,0.3-0.5c-0.2-0.3-0.5-0.6-0.7-0.9c-0.2-0.2-0.2-0.4-0.1-0.3
		c1.5,1.2,3,2.4,4.6,3.6c0.1,0,0.2,0,0.4,0c0-0.1,0.1-0.3,0.2-0.4c-0.3-0.2-0.9-0.8-1.1-0.9c-1-0.9-2.1-2.2-3-3
		c-0.1-0.2-0.5-0.5-0.5-0.5c-0.3,0.5-0.8,0.9-0.8,0.9c-0.7-0.8-1.2-1.6-2.2-2.2c-0.2,0.1-0.4,0.3-0.4,0.3c-0.4,0.7-0.2,0.2-1.5-1
		c-0.2-0.2-0.5-0.3-0.5-0.4c-0.6,0.5-0.4,0.5-1.3,1.6c-0.5,0.7-0.1,0.4-1.6-0.5c-0.7-0.5-0.4-0.3-1.7,1c-0.5,0.6-1.2,1.3-1.9,2
		c-0.7,0.8-1.8,1.8-2.8,2.7c-0.1,0-0.3,0.4-0.4,0.6c0,0.1-0.2,0.2-0.2,0.2c-0.2,0.4-0.5,0.7-0.8,0.8c-0.4,0.2-0.7,0.1-0.8-0.4
		c-0.1-0.5,0.3-0.7,0.6-0.4c-0.4,0-0.5,0.5-0.2,0.6c0.9,0.1,0.8-1.1,0-1.3c-1-0.3-1.4,0.7-1.3,1.5l0,0c0,0.3,0.1,0.6,0.3,0.7
		C51.2,98.5,51.4,98.6,51.8,98.7L51.8,98.7z M54.1,98.5c0.3,0,0.7,0,1,0c0.6-0.5,1.3-0.8,1.5-0.9c0.2-0.1,0.6-0.3,0.6-0.4
		c0-0.1-0.4,0-0.5,0c-0.3,0-1-0.1-1.2,0.1c-0.4,0.2-0.9,0.5-1.4,0.5c0,0-0.3,0-0.3,0.3C53.9,98.2,54.1,98.4,54.1,98.5L54.1,98.5z
		 M68.9,97.6c0.2,0.1,0.7,0.3,0.9,0.5c0.2,0.2,1.1,0.9,1.5,0.4c0-0.1,0.7-0.4,0.3-0.5c-0.5-0.2-1.2-0.6-1.8-0.5
		c-0.5,0.1-0.7-0.1-1.1-0.1c-0.5-0.1-0.3,0.2-0.1,0.2L68.9,97.6z M66.4,97.5c0.2,0.2,0.5,0.3,0.7,0.4c0.2,0.2,0.5,0.7,0.6,0.7
		c0.2,0.1,0.8,0.1,1.1,0c0.4,0,0.9,0.2,1.2,0c0.3-0.1-0.8-0.3-0.9-0.4c-1.1-0.5-1-0.9-2-0.9C66.8,97.4,66,97.2,66.4,97.5L66.4,97.5z
		 M65.6,98.6l1.6,0.1c0-0.4-0.4-0.3-0.7-0.5c-0.3-0.2-0.4-0.5-0.7-0.7c-0.2-0.1-0.6-0.1-0.9-0.1c-0.3,0-0.6,0-0.9,0c0,0,0,0.1,0,0.1
		c0.1,0,0.3,0.1,0.4,0.3c0.1,0.1,0.1,0.2,0.3,0.3c0.1,0.2,0.1,0.6,0.3,0.6C65,98.6,65.4,98.6,65.6,98.6L65.6,98.6z M62.8,97.4
		c0.2,0.2,0.2,0.6,0.2,0.7c0,0.2-0.2,0.6,0.1,0.5c0.5,0,0.9,0,1.4,0c0.2-0.2-0.4-0.5-0.5-0.8c-0.1-0.2-0.3-0.5-0.5-0.5
		C63.1,97.3,62.7,97.2,62.8,97.4L62.8,97.4z M61.4,97.6c-0.1,0.8-0.6,0.7-0.6,0.8c0,0.2,0.5,0.1,1,0.1c0.3,0,0.9,0.2,0.8-0.2
		c-0.1-0.3,0-0.9-0.2-0.9C61.6,97.4,61.4,97.2,61.4,97.6L61.4,97.6z M58.5,98.6c0.2,0.1,0.4,0.1,0.6,0c0.4-0.1,0.8-0.1,1.2-0.1
		c0.1,0,0.2-0.2,0.4-0.7c0,0,0.1-0.2,0.3-0.4c0.2-0.3,0-0.3-0.2-0.3c-0.2,0-0.5,0.1-0.6,0.1c-0.2,0-0.6,0-0.7,0.3
		c0,0.1-0.1,0.2-0.3,0.4c-0.2,0.2-0.5,0.3-0.7,0.4C58.5,98.5,58.4,98.6,58.5,98.6L58.5,98.6z M55.6,98.6h1.9c0.2,0,0.4,0,0.5-0.1
		c0.2-0.2,0.5-0.5,0.8-0.7c0.1-0.1,0.4-0.3,0.5-0.4c0.3-0.3-0.5-0.1-0.6-0.1l-1,0c0,0-0.1,0.1-0.1,0.1c-0.2,0.2-0.6,0.6-1,0.7
		c-0.1,0.1-0.3,0.1-0.5,0.2C55.5,98.5,55.6,98.6,55.6,98.6L55.6,98.6z M55.6,98.6"/>
	<path class="st2" d="M58,103.3h9.7c0,1.2,0,2.4,0,3.6c0,1.9-2.9,1.3-4.9,3.2c-2-1.8-4.9-1.2-4.9-3.2V103.3z M58,103.3"/>
	<path class="st6" d="M66.4,104.3c0.1,0.1,0.1,0.7,0.1,0.9c0,0.3,0,0.7,0,1c0,0,0,0.3,0,0.3c0,0.1,0,0.1,0,0.2
		c-0.1,0.1-0.1,0.1-0.3,0c0-0.1,0-0.1,0-0.2c0,0-0.1-0.3-0.1-0.3c-0.1-0.3-0.1-0.9-0.1-1.2c0-0.1-0.2-0.4-0.3-0.5
		c0-0.1-0.1-0.2,0-0.2C65.8,104.2,66.3,104.2,66.4,104.3L66.4,104.3z M63,108.1c-0.1,0-0.3-0.1-0.5-0.1c-0.1-0.1-0.3-0.3-0.3-0.1
		c0,0.1-0.4,0.3-0.2,0.4c0.1,0.1,0.2,0.1,0.2,0.1c0.3,0,0.4,0.2,0.6,0.1c0.1,0,0.1-0.2,0.2-0.3c0.1,0.1,0.4,0.1,0.5,0
		c0.1-0.1,0.1-0.3,0.1-0.4c0-0.1-0.5-0.5-0.5-0.6c-0.1-0.1-0.2-0.3-0.1-0.4c0,0,0.2-0.1,0.4,0.1c0.2,0.2,0.3,0.5,0.3,0.8
		c0,0.1,0.2,0.2,0.3,0.2c0.2,0,0.2-0.2,0.2-0.4c-0.1-0.2-0.2-0.3-0.3-0.4c-0.1-0.1-0.2-0.2-0.3-0.3c0-0.1-0.2-0.5,0.2-0.3
		c0.2,0.1,0.5,0.3,0.5,0.6c0,0.1,0,0.3,0.1,0.4c0.1,0.1,0.4,0.1,0.4-0.1c0.1,0,0-0.3,0-0.4c-0.1-0.1-0.2-0.3-0.3-0.4
		c-0.2-0.3-0.3-0.3-0.4-0.5c-0.1-0.1-0.1-0.3-0.2-0.3c-0.2-0.3-0.6,0-0.9-0.2c-0.2-0.1-0.4-0.3-0.6-0.3c-0.1,0.8-1,0.8-0.9,0.7
		c0,0-0.1,0.1,0,0.2c0.1,0.1,0.2,0.1,0.4,0.3c0.1,0.1,0.2,0.3,0.3,0.4c0.3,0.3,0,0.6,0.2,0.6c0,0,0.2,0,0.2,0c0.4,0,0.5,0.3,0.5,0.6
		C63,108,63,108,63,108.1L63,108.1z M61.5,107.8c-0.3,0.2-0.2,0.6,0.1,0.4c0.1-0.1,0.2-0.3,0.4-0.5c0.2-0.2-0.1-0.5-0.3-0.2
		C61.7,107.6,61.6,107.7,61.5,107.8L61.5,107.8z M61,107.4c-0.3,0.2-0.2,0.6,0.1,0.4c0.1-0.1,0.4-0.4,0.6-0.6
		c0.2-0.2-0.1-0.5-0.3-0.2C61.3,107.1,61.1,107.3,61,107.4L61,107.4z M60.6,106.9c-0.3,0.2-0.2,0.5,0.1,0.4c0.1-0.1,0.3-0.5,0.6-0.6
		c0.3-0.2-0.1-0.6-0.2-0.3C61,106.6,60.7,106.9,60.6,106.9L60.6,106.9z M61.3,104c-0.4,0-0.7-0.1-0.7,0.3c0,0-0.1,0.1-0.1,0.1
		c-0.2,0-0.5-0.1-0.5,0.2c0,0.1,0,0.3,0,0.4c0.1,0.2,0,0.2-0.1,0.3c-0.2,0.2-0.1,0.7-0.2,0.7c0,0-0.2,0.3-0.2,0.4
		c0,0.1-0.2,0.3-0.2,0.3h0c-0.1,0.1-0.2,0.2-0.1,0.3c0.1,0,0.1,0.1,0.3,0c0.2-0.1,0.4-0.1,0.6-0.2c0.5,0,0.4-0.4,0.8-0.6
		c0,0,0.4-0.3,0.3-0.4c0,0-0.3,0-0.4-0.2c0.1-0.3,0.4-0.4,0.7-0.8c0.3-0.4,1-0.7,0.7-0.8C61.9,104,61.5,104,61.3,104L61.3,104z
		 M58.9,104.4c-0.1,0.1,0,0.6,0,0.8c0,0.3-0.1,0.7-0.1,0.9c0,0-0.1,0.4-0.1,0.5c0.1,0.1,0.1,0.1,0.3,0c0-0.1,0-0.1,0-0.2
		c0,0,0.1-0.3,0.1-0.3c0.1-0.3,0.2-0.8,0.3-1.1c0.1-0.2,0.1-0.3,0.2-0.4c0-0.1,0.1-0.2,0.1-0.3C59.6,104.2,59.1,104.3,58.9,104.4
		L58.9,104.4z M61.7,105.5c0.1-0.1,0.2-0.1,0.4-0.3c0.2-0.2,0.3-0.3,0.5-0.3c0.1,0,0.3,0,0.4,0.1c0.1,0.1,0.3,0.3,0.4,0.3
		c0.2,0,0.4,0,0.5,0c0.4-0.1,0.3,0.4,0.7,0.7c0.1,0.1,0.4,0.6,0.5,0.9c0.1,0.2,0.6,0.1,0.7,0.1c0.2,0,0.5-0.1,0.2-0.3
		c-0.2-0.2-0.4-0.8-0.4-1.1c-0.1-0.4-0.3-1-0.4-1.2c-0.2-0.1-0.7,0-0.8,0c-0.2-0.1-0.1-0.5-0.4-0.4c-0.5,0-1.4-0.1-1.5,0.2
		c-0.1,0.2-0.4,0.5-0.6,0.8c-0.2,0.2-0.6,0.6-0.7,0.6C61,105.7,61.5,105.7,61.7,105.5L61.7,105.5z M61.7,105.5"/>
	<path class="st7" d="M26.2,74.3C26.2,74.3,26.2,74.3,26.2,74.3C26.2,74.3,26.2,74.3,26.2,74.3L26.2,74.3z M25.7,74.5
		C25.7,74.5,25.7,74.5,25.7,74.5C25.7,74.5,25.7,74.5,25.7,74.5L25.7,74.5z M25.7,74.5C25.7,74.5,25.7,74.5,25.7,74.5l-0.1-0.3
		l0.3-0.1c1.1-0.2,1.5-0.3,2.6-0.5c0.6-0.1,1.4-0.3,2.5-0.5l0.2,0l0.1,0.2c3,7.3,8.4,13.4,15.2,17.1c1.3,0.7,2.7,1.4,4.1,1.9
		c1.4,0.6,2.9,1,4.4,1.4l0,0l0.5,0.1l-0.3,0.4c-0.2,0.2-0.4,0.4-0.5,0.6c-0.1,0.1-0.2,0.2-0.3,0.3l0,0l0,0c-0.1,0.1-0.2,0.2-0.2,0.3
		c-0.2,0.2-0.3,0.3-0.5,0.4l0,0c-0.1,0.1-0.3,0.3-0.5,0.6c0,0.1-0.1,0.1-0.1,0.1c0,0,0,0.1-0.1,0.1l0,0l0,0l-0.3,0.5l-0.2-0.6
		c0-0.1-0.1-0.2-0.2-0.3c-0.1-0.1-0.2-0.1-0.4-0.2c-0.2,0-0.4,0-0.6,0c-0.2,0.1-0.3,0.2-0.4,0.3c-0.1,0.2-0.2,0.4-0.3,0.6
		c-0.1,0.3-0.1,0.7,0,1l0.2,0.5l-0.5-0.2c-8.2-2.7-15.2-8-20.1-15c-0.9-1.4-1.8-2.8-2.6-4.2C27,77.6,26.3,76.1,25.7,74.5 M26.3,74.6
		c0.6,1.4,1.2,2.8,1.9,4.2c0.8,1.4,1.6,2.8,2.5,4.2c4.7,6.7,11.5,11.9,19.4,14.6c0-0.3,0-0.5,0-0.8c0.1-0.3,0.2-0.6,0.3-0.8
		c0.2-0.2,0.4-0.4,0.7-0.5c0.3-0.1,0.5-0.1,0.9,0c0.3,0.1,0.5,0.2,0.6,0.3c0,0,0.1,0.1,0.1,0.1c0.2-0.3,0.5-0.5,0.6-0.6l0,0
		c0.1-0.1,0.3-0.2,0.4-0.4c0.1-0.1,0.2-0.2,0.2-0.3c0.1-0.1,0.2-0.2,0.3-0.3c0.1-0.1,0.1-0.1,0.2-0.2c-1.4-0.3-2.7-0.8-4-1.3
		c-1.5-0.6-2.9-1.2-4.2-2c-6.9-3.8-12.4-9.9-15.4-17.2c-1.1,0.2-1.8,0.4-2.3,0.5C27.6,74.4,27.2,74.5,26.3,74.6L26.3,74.6z
		 M75.4,98.2L75.4,98.2l-0.5,0.2l0.2-0.5c0,0,0,0,0-0.1h0c0,0,0,0,0-0.1l0-0.1c0,0,0,0,0-0.1c0-0.1,0-0.3,0-0.4c0,0,0,0,0,0
		c0-0.1,0-0.2,0-0.2c-0.1-0.3-0.2-0.5-0.3-0.7c-0.2-0.2-0.4-0.3-0.8-0.2c-0.1,0-0.1,0-0.2,0c-0.1,0-0.2,0.1-0.2,0.1c0,0,0,0,0,0v0
		c0,0,0,0,0,0l0,0l-0.2,0.1l-0.2-0.2c-0.1-0.1-0.2-0.2-0.3-0.3c-0.2-0.2-0.3-0.3-0.5-0.5l0,0c0,0,0,0,0,0c0,0,0,0,0,0
		c-0.3-0.3-0.8-1-1.1-1.3l0,0h0l-0.3-0.3l0.5-0.1c7.6-1.9,14.2-6.4,18.8-12.5c0.9-1.2,1.7-2.4,2.5-3.7c0.7-1.3,1.4-2.6,2-4l0,0
		l0.1-0.2l0.2,0c3.1,0.5,3.5,0.6,4.8,0.8c0.1,0,0.2,0,0.2,0l0.3,0.1l-0.1,0.3c-3.1,8-8.6,14.8-15.7,19.4c-1.4,0.9-2.8,1.7-4.3,2.4
		C78.5,97.1,77,97.7,75.4,98.2L75.4,98.2z M75.7,97.6c1.4-0.5,2.8-1.1,4.1-1.7c1.5-0.7,2.9-1.5,4.2-2.4c6.9-4.5,12.3-11.1,15.3-18.9
		c-1.1-0.2-1.6-0.3-4.4-0.8c-0.6,1.3-1.2,2.6-1.9,3.9c-0.8,1.3-1.6,2.6-2.5,3.8C85.9,87.5,79.4,92,71.9,94c0.3,0.3,0.6,0.7,0.8,1
		c0,0,0,0,0,0l0,0c0,0,0,0,0,0c0,0,0,0,0,0c0,0,0,0,0,0c0,0,0,0,0,0l0,0c0,0,0,0,0,0l0,0c0.1,0.1,0.3,0.3,0.4,0.4
		c0.1,0.1,0.1,0.1,0.2,0.2c0.1,0,0.2-0.1,0.3-0.1c0.1,0,0.2,0,0.2,0c0.5-0.1,0.9,0.1,1.2,0.4c0.3,0.3,0.4,0.6,0.5,1
		c0,0.1,0,0.2,0,0.3c0,0,0,0,0,0C75.7,97.3,75.7,97.4,75.7,97.6L75.7,97.6z M72.7,95C72.7,95,72.7,95,72.7,95
		C72.7,95,72.7,95,72.7,95L72.7,95z M72.7,95C72.7,95,72.7,95,72.7,95C72.7,95,72.7,95,72.7,95L72.7,95z M72.7,95
		C72.7,95,72.7,95,72.7,95C72.7,95,72.7,95,72.7,95L72.7,95z M72.7,95C72.7,95,72.7,95,72.7,95C72.7,95,72.7,95,72.7,95
		C72.7,95,72.7,95,72.7,95C72.7,95,72.7,95,72.7,95C72.7,95,72.7,95,72.7,95 M72.7,95C72.7,95,72.7,95,72.7,95
		C72.7,95,72.7,95,72.7,95L72.7,95z M72.7,95C72.7,95,72.7,95,72.7,95C72.7,95,72.7,95,72.7,95L72.7,95z M72.7,95
		C72.7,95,72.7,95,72.7,95C72.7,95,72.7,95,72.7,95L72.7,95z M72.7,95C72.7,95,72.7,95,72.7,95C72.7,95,72.7,95,72.7,95L72.7,95z
		 M72.7,95C72.7,95,72.7,95,72.7,95C72.7,95,72.7,95,72.7,95L72.7,95z M72.7,95C72.7,95,72.7,95,72.7,95C72.7,95,72.7,95,72.7,95
		L72.7,95z M72.7,95C72.7,95,72.7,95,72.7,95C72.7,95,72.7,95,72.7,95L72.7,95z M72.3,95.4C72.2,95.3,72.3,95.4,72.3,95.4L72.3,95.4
		z M73.4,96.2C73.4,96.2,73.5,96.2,73.4,96.2L73.4,96.2C73.5,96.2,73.5,96.2,73.4,96.2L73.4,96.2z M73.4,96.2"/>
	<g>
		<defs>
			<rect id="SVGID_4_" x="16.6" y="16.4" width="92.5" height="96.2"/>
		</defs>
		<clipPath id="SVGID_5_">
			<use xlink:href="#SVGID_4_"  style="overflow:visible;"/>
		</clipPath>
		<path class="st8" d="M25.9,74.4C30.1,85.5,39.2,94.3,50.5,98c-0.4-1,0.2-2.5,1.5-2.3c0.5,0.1,0.7,0.4,0.8,0.6
			c0.2-0.3,0.6-0.8,0.8-0.9c0.2-0.2,0.5-0.5,0.7-0.7c0.1-0.1,0.4-0.4,0.8-0.9c-10.9-2.6-19.8-10.4-24-20.6
			C27.7,74.1,27.7,74.1,25.9,74.4L25.9,74.4z M75.3,98c11.2-3.8,20.2-12.6,24.4-23.6c-1.4-0.3-1.7-0.3-5-0.9
			c-4.1,10-12.8,17.7-23.4,20.4c0.3,0.3,0.9,1.1,1.2,1.4c0.2,0.2,0.5,0.5,0.8,0.8c0.1-0.1,0.3-0.1,0.4-0.2c1.2-0.3,1.6,0.6,1.7,1.3
			c0,0.2,0,0.4,0,0.6l0,0C75.3,97.9,75.3,97.9,75.3,98L75.3,98z M75.3,98"/>
		<path class="st9" d="M62.9,16.4c23.7,0,43.3,19.2,44,42.8c-0.7,0.2-1.2,0.1-1.9,0c-0.7-22.5-19.4-40.9-42.1-40.9
			c-22.7,0-41.4,18.3-42.1,40.8c-0.6,0.1-1.2,0.2-1.9,0.1C19.6,35.7,39.2,16.4,62.9,16.4L62.9,16.4z M62.9,16.4"/>
	</g>
	<path class="st2" d="M30.1,77c-0.1,0-0.2,0.1-0.3,0.1c-0.1,0-0.2,0-0.3,0c-0.1-0.1-0.3-0.1-0.4-0.2c-0.1-0.1-0.2-0.2-0.3-0.4
		L28.7,76l-0.8,0.4l-0.3-0.6l2.4-1.1l0.5,1c0.1,0.2,0.1,0.3,0.1,0.4c0,0.1,0,0.2,0,0.3c0,0.1-0.1,0.2-0.1,0.3
		C30.4,76.9,30.3,77,30.1,77L30.1,77z M29.8,76.4c0.1,0,0.1-0.1,0.2-0.1c0-0.1,0-0.1,0-0.2c0-0.1,0-0.1,0-0.2c0-0.1-0.1-0.1-0.1-0.2
		l0-0.1l-0.7,0.3l0.1,0.2c0,0.1,0.1,0.2,0.1,0.3c0,0.1,0.1,0.1,0.2,0.1c0.1,0,0.1,0,0.2,0C29.7,76.4,29.8,76.4,29.8,76.4L29.8,76.4z
		 M29.8,80.2l-0.9-1.7l2.3-1.3l0.9,1.7l-0.4,0.2l-0.6-1.1l-0.4,0.2l0.6,1l-0.4,0.2l-0.6-1l-0.6,0.3l0.6,1.1L29.8,80.2z M31,82.1
		c-0.1-0.2-0.2-0.3-0.2-0.5c0-0.2,0-0.3,0-0.5c0-0.2,0.1-0.3,0.2-0.5c0.1-0.1,0.3-0.3,0.5-0.4c0.2-0.1,0.4-0.2,0.5-0.2
		c0.2,0,0.4,0,0.5,0c0.2,0,0.3,0.1,0.5,0.2c0.1,0.1,0.3,0.3,0.4,0.4c0.1,0.1,0.1,0.2,0.1,0.3c0,0.1,0.1,0.2,0.1,0.2
		c0,0.1,0,0.2,0,0.2c0,0.1,0,0.1,0,0.2l-0.5,0.3l0-0.1c0,0,0-0.1,0-0.2c0-0.1,0-0.1,0-0.2c0-0.1,0-0.2,0-0.2c0-0.1-0.1-0.2-0.1-0.2
		c-0.1-0.1-0.1-0.2-0.2-0.2c-0.1-0.1-0.2-0.1-0.3-0.1c-0.1,0-0.2,0-0.3,0c-0.1,0-0.2,0.1-0.4,0.2c-0.1,0.1-0.2,0.2-0.3,0.3
		c-0.1,0.1-0.1,0.2-0.1,0.3c0,0.1,0,0.2,0,0.3c0,0.1,0.1,0.2,0.1,0.2c0,0.1,0.1,0.1,0.2,0.2c0.1,0.1,0.1,0.1,0.2,0.1
		c0.1,0,0.1,0.1,0.2,0.1c0.1,0,0.1,0,0.2,0.1l0,0.1l-0.5,0.3c-0.1,0-0.1-0.1-0.2-0.1c-0.1,0-0.1-0.1-0.2-0.1
		c-0.1-0.1-0.1-0.1-0.2-0.2C31.1,82.3,31,82.2,31,82.1L31,82.1z M33.5,85.4l-0.4-0.5l1.7-1.3l-0.6-0.8L32.5,84l-0.4-0.5l2.1-1.6
		l1.5,1.9L33.5,85.4z M37.8,86.1l-2.2,0.7c-0.1,0-0.2,0.1-0.3,0.1c-0.1,0-0.2,0-0.3-0.1c-0.1,0-0.1-0.1-0.2-0.1
		c-0.1,0-0.1-0.1-0.2-0.2c-0.1-0.1-0.1-0.1-0.2-0.2c-0.1-0.1-0.1-0.1-0.1-0.2l0.4-0.4l0,0c0,0,0,0.1,0.1,0.1c0,0.1,0.1,0.1,0.1,0.1
		c0.1,0.1,0.2,0.1,0.2,0.2c0.1,0,0.1,0.1,0.2,0l0.7-2.1l0.5,0.5L36,86l1.3-0.5L37.8,86.1z M38.6,89.2c-0.1,0.1-0.2,0.2-0.3,0.2
		c-0.1,0-0.2,0.1-0.3,0.1c-0.1,0-0.3,0-0.4-0.1c-0.1-0.1-0.2-0.1-0.4-0.2l-0.9-0.8l1.7-2l1.6,1.4l-0.3,0.4l-1-0.9L38,87.6l0.4,0.4
		c0.1,0.1,0.2,0.2,0.3,0.3c0.1,0.1,0.1,0.2,0.1,0.3c0,0.1,0,0.2,0,0.3C38.8,89,38.7,89.1,38.6,89.2L38.6,89.2z M38.1,88.8
		c0,0,0.1-0.1,0.1-0.1c0,0,0-0.1,0-0.1c0,0,0-0.1,0-0.1c0-0.1-0.1-0.1-0.2-0.2l-0.3-0.3l-0.4,0.5l0.3,0.3c0.1,0,0.1,0.1,0.2,0.1
		c0.1,0,0.1,0,0.2,0c0,0,0.1,0,0.1,0C38,88.8,38,88.8,38.1,88.8L38.1,88.8z M40.7,91.9l-0.5-0.4l1.3-1.7l-0.6-0.5
		c-0.1,0.1-0.1,0.2-0.2,0.2c0,0-0.1,0.1-0.2,0.2c-0.2,0.2-0.3,0.3-0.4,0.4c-0.1,0.1-0.2,0.2-0.3,0.2c-0.1,0.1-0.2,0.1-0.3,0.1
		c-0.1,0-0.1,0-0.2,0c-0.1,0-0.2,0-0.3,0c-0.1,0-0.2-0.1-0.2-0.1c0,0-0.1-0.1-0.1-0.1c0,0-0.1-0.1-0.1-0.1l0.4-0.5l0,0c0,0,0,0,0,0
		c0,0,0,0,0,0c0.1,0,0.1,0.1,0.1,0.1c0,0,0.1,0,0.1,0c0.1,0,0.2-0.1,0.4-0.2c0.1-0.1,0.3-0.3,0.5-0.5c0.1-0.1,0.2-0.2,0.3-0.3
		c0.1-0.1,0.2-0.2,0.3-0.4l1.6,1.3L40.7,91.9z M43.6,93.8L43,93.4l1-1.5l-1.9,0.9l-0.5-0.4l1.4-2.2l0.6,0.4L42.7,92l1.7-0.8l0.6,0.4
		L43.6,93.8z M46.7,95.4L46,95l-0.2-1.3l-0.1-0.1l-0.5,0.9l-0.6-0.3l1.2-2.3l0.6,0.3l-0.5,1c0,0,0.1,0,0.1,0c0,0,0.1,0,0.1,0
		c0,0,0.1,0,0.1,0c0.1,0,0.1-0.1,0.2-0.1c0,0,0.1-0.1,0.1-0.1c0.1,0,0.1-0.1,0.1-0.1c0.2-0.1,0.3-0.2,0.4-0.2c0.1,0,0.3,0,0.5,0.1
		c0.1,0,0.1,0.1,0.1,0.1c0,0,0.1,0,0.1,0.1l-0.3,0.5l-0.2-0.1c-0.1,0-0.2-0.1-0.2,0c-0.1,0-0.2,0.1-0.3,0.1
		c-0.1,0.1-0.2,0.1-0.3,0.2c-0.1,0-0.1,0-0.2,0L46.7,95.4z M49.6,96.7L49,96.4l0-0.6l-0.9-0.4l-0.4,0.4l-0.6-0.3l1.9-2.1l0.7,0.3
		L49.6,96.7z M49,95.3l0.1-1l-0.7,0.8L49,95.3z M49,95.3"/>
	<path class="st2" d="M79.9,95.7L79.3,96l-0.3-0.6l-1.5,0.7l0.3,0.6l-0.6,0.3l-0.5-1l0.2-0.1c0-0.3,0-0.7-0.1-1
		c-0.1-0.4-0.2-0.7-0.4-1.1l1.8-0.8l0.9,1.9l0.2-0.1L79.9,95.7z M78.6,95.1l-0.7-1.5l-0.6,0.3c0.1,0.3,0.2,0.6,0.3,0.9
		c0.1,0.3,0.1,0.5,0.1,0.8L78.6,95.1z M83.2,93.2l-0.6,0.4l-0.4-0.4l-0.9,0.5l0.1,0.6l-0.6,0.3l-0.5-2.8l0.7-0.4L83.2,93.2z
		 M81.8,92.8L81,92.2l0.2,1L81.8,92.8z M84.8,89.5l-1,0.7l1.3,1.7l-0.6,0.4l-1.6-2.2l1.6-1.1L84.8,89.5z M88.7,89l-1.5,1.3l-1.7-2
		L87,87l0.3,0.4l-0.9,0.8l0.3,0.3l0.9-0.8l0.3,0.4L87,88.9l0.4,0.5l0.9-0.8L88.7,89z M90.8,87c-0.1,0.1-0.3,0.3-0.4,0.3
		c-0.2,0.1-0.3,0.1-0.5,0.1c-0.2,0-0.3,0-0.5-0.1c-0.2-0.1-0.3-0.2-0.5-0.3c-0.2-0.1-0.3-0.3-0.4-0.5c-0.1-0.2-0.1-0.3-0.1-0.5
		c0-0.2,0-0.3,0.1-0.5c0.1-0.2,0.2-0.3,0.3-0.5c0.1-0.1,0.1-0.2,0.2-0.2c0.1-0.1,0.1-0.1,0.2-0.1c0.1,0,0.1-0.1,0.2-0.1
		c0.1,0,0.1-0.1,0.2-0.1L90,85L90,85.1c0,0-0.1,0-0.2,0c-0.1,0-0.1,0-0.2,0c-0.1,0-0.1,0.1-0.2,0.1c-0.1,0-0.1,0.1-0.2,0.2
		c-0.1,0.1-0.1,0.1-0.2,0.2c0,0.1-0.1,0.2-0.1,0.3c0,0.1,0,0.2,0.1,0.3c0.1,0.1,0.1,0.2,0.3,0.3c0.1,0.1,0.2,0.2,0.4,0.2
		c0.1,0,0.2,0.1,0.3,0c0.1,0,0.2,0,0.3-0.1c0.1,0,0.2-0.1,0.2-0.2c0.1-0.1,0.1-0.1,0.1-0.2c0-0.1,0.1-0.2,0.1-0.2c0-0.1,0-0.1,0-0.2
		c0-0.1,0-0.1,0-0.2l0-0.1l0.5,0.4c0,0.1,0,0.1-0.1,0.2c0,0.1,0,0.1-0.1,0.2c0,0.1-0.1,0.2-0.1,0.2C90.9,86.8,90.9,86.9,90.8,87
		L90.8,87z M92.1,82.1l-0.5,0.7l1.7,1.3l-0.4,0.5l-1.7-1.3L90.6,84l-0.4-0.3l1.4-1.9L92.1,82.1z M96,80.1l-0.4,0.6L95,80.6l-0.5,0.8
		l0.4,0.4l-0.4,0.6l-1.7-2.2l0.4-0.7L96,80.1z M94.5,80.5l-1-0.2l0.6,0.8L94.5,80.5z M97.8,76.7l-0.3,0.6l-1-0.5L96,77.7l1,0.5
		l-0.3,0.6l-2.4-1.2l0.3-0.6l0.9,0.4l0.5-0.9l-0.9-0.4l0.3-0.6L97.8,76.7z M97.8,76.7"/>
	<path class="st6" d="M71.2,46.5c-0.2,0-0.5,0.1-0.8,0.1c-0.6-0.1-2-0.9-3.1-1c-1.3,0-1.5,0.2-1.9,0.2c-0.3,0-0.7-0.1-1,0
		c-0.3,0.1-0.4,0.3-0.5,0.6c-0.1,0-0.3,0-0.4,0c-0.2,0-0.4,0.2-0.6,0.3c-0.2,0.1-1,0.1-1.3,0.6c-0.2,0.4-0.2,1.3,0.2,1.5
		c0-0.7,0.3-0.9,0.7-1c0.7-0.2,1.1,0.2,1.7,0.3c0.6,0.1,1.2,0.1,1.8,0.3c0.2,0.1,0.5,0.2,0.5,0.4c0,0.2-0.6,0.1-1,0.1
		c-0.6-0.1-1.2-0.4-1.9-0.6c-0.5-0.1-1.4-0.3-1.5,0.1c1.1-0.1,3.1,0.5,3.2,2c0,0.9-0.6,1.6-0.7,2.7c0.1,0.3,0.2,0.5,0.5,0.6
		c0.4,0.1,0.8-0.3,1.2-0.6c0.1,0.4,0.1,1.1,0.5,1.1c0.4,0.1,0.9-0.4,1.1-0.6c0,0.3,0.2,1.1,0.6,1.1c0.4,0,0.9-0.4,1.1-0.8
		c0.1,0.4,0.1,1.1,0.6,1.2c0.3,0.1,0.7-0.3,0.9-0.6c0,0.5,0.2,1.1,0.5,1.1c-0.2-1.3,0.1-6.3-0.8-8c-0.4,0-0.7,0-1.1-0.1
		c-0.5-0.1-1.6-0.4-2.6-0.4c0.1,0.6-0.2,0.8-0.5,0.8c-0.4,0-0.8-0.4-0.9-0.9c-0.2,0-0.3,0.1-0.4,0c-0.2-0.1-0.3-0.3-0.3-0.4
		c0-0.1,0.2-0.2,0.4-0.1c0.2,0,0.3,0.3,0.7,0.2c0.7,0,1.5-0.2,2.2-0.2c0.9,0,1.8,0.4,2.2,0.4C70.9,47.1,71.1,46.9,71.2,46.5
		L71.2,46.5z M63.8,47.2c0.4,0.3,0.8,0.4,1.3,0.5c-0.2-0.3-0.6-0.6-0.7-1c-0.1-0.2-0.1-0.6,0.2-0.6c0.4,0,0.2,0.4,0.3,0.6
		c0.2,0.5,0.5,1,1.1,1.3c-0.4,0.1-1.6-0.1-2.2-0.5c-0.2-0.1-0.5-0.3-0.5-0.6c0-0.2,0.3-0.3,0.5-0.3c0.1,0,0.3,0.1,0.3,0.2
		C64.1,47.1,64,47.2,63.8,47.2L63.8,47.2z M66,53.9c0.1,0.3,0.2,0.6,0.6,0.7c-0.1,0.4-0.6,0.6-0.9,0.5c-0.3-0.1-0.5-0.5-0.5-0.9
		C65.5,54.3,65.8,54.2,66,53.9L66,53.9z M67.7,54.4c0.1,0.3,0.2,0.6,0.6,0.7c-0.1,0.4-0.6,0.6-0.9,0.5c-0.3-0.1-0.5-0.5-0.5-0.9
		C67.2,54.8,67.5,54.6,67.7,54.4L67.7,54.4z M69.4,54.9c0.1,0.3,0.2,0.6,0.6,0.7c-0.1,0.4-0.6,0.6-0.9,0.5c-0.3-0.1-0.5-0.5-0.5-0.9
		C68.9,55.2,69.2,55.1,69.4,54.9L69.4,54.9z M71,55.5c0.1,0.3,0.2,0.6,0.6,0.7c-0.1,0.4-0.6,0.6-0.9,0.5c-0.3-0.1-0.5-0.5-0.5-0.9
		C70.5,55.8,70.8,55.7,71,55.5L71,55.5z M69.9,56.3c0.1,0.3,0.2,0.6,0.6,0.7c-0.1,0.4-0.6,0.6-0.9,0.5c-0.3-0.1-0.5-0.5-0.5-0.9
		C69.4,56.6,69.7,56.5,69.9,56.3L69.9,56.3z M68.2,55.7c0.1,0.3,0.2,0.6,0.6,0.7c-0.1,0.4-0.6,0.6-0.9,0.5c-0.3-0.1-0.5-0.5-0.5-0.9
		C67.7,56,68,55.9,68.2,55.7L68.2,55.7z M66.6,55.2c0.1,0.3,0.2,0.6,0.6,0.7c-0.1,0.4-0.6,0.6-0.9,0.5c-0.3-0.1-0.5-0.5-0.5-0.9
		C66,55.6,66.3,55.4,66.6,55.2L66.6,55.2z M64.8,54.6c0.1,0.3,0.2,0.6,0.6,0.7c-0.1,0.4-0.6,0.6-0.9,0.5C64.2,55.8,64,55.4,64,55
		C64.3,55,64.6,54.9,64.8,54.6L64.8,54.6z M65.4,56c0.1,0.3,0.2,0.6,0.6,0.7c-0.1,0.4-0.6,0.6-0.9,0.5c-0.3-0.1-0.5-0.5-0.5-0.9
		C64.9,56.3,65.2,56.2,65.4,56L65.4,56z M67.2,56.5c0.1,0.3,0.2,0.6,0.6,0.7c-0.1,0.4-0.6,0.6-0.9,0.5c-0.3-0.1-0.5-0.5-0.5-0.9
		C66.6,56.9,66.9,56.8,67.2,56.5L67.2,56.5z M68.8,57.1c0.1,0.3,0.2,0.6,0.6,0.7c-0.1,0.4-0.6,0.6-0.9,0.5c-0.3-0.1-0.5-0.5-0.5-0.9
		C68.3,57.4,68.6,57.3,68.8,57.1L68.8,57.1z M70.5,57.5c0.1,0.3,0.2,0.6,0.6,0.7c-0.1,0.4-0.6,0.6-0.9,0.5c-0.3-0.1-0.5-0.5-0.5-0.9
		C70,57.9,70.3,57.8,70.5,57.5L70.5,57.5z M71.6,56.6c0,0.3,0,0.9,0,1.2c-0.3,0.3-0.9,0.2-0.9-0.7C71.2,57.1,71.4,56.9,71.6,56.6
		L71.6,56.6z M63.6,55c0,0.6,0.1,1,0.6,1.1c-0.3,0.7-1,0.6-1.3,0.3C63.2,56.1,63.3,55.3,63.6,55L63.6,55z M64.3,53.4
		c0.1,0.3,0.2,0.6,0.6,0.7c-0.1,0.4-0.8,0.6-1.1,0.5C64.1,54.2,64.2,53.7,64.3,53.4L64.3,53.4z M62.4,57.2c0.1-0.2,0.2-0.3,0.3-0.5
		c0.2,0.1,0.4,0.4,0.6,0.4c0.3,0,0.6-0.2,0.9-0.4c0.1,0.3,0.2,0.8,0.7,0.9c0.4,0.1,0.8-0.1,1-0.3c0.1,0.4,0.4,0.7,0.7,0.8
		c0.3,0.1,0.7,0,1-0.2c0.1,0.3,0.3,0.7,0.7,0.8c0.3,0.1,0.8-0.1,1.1-0.3c0,0.4,0.3,0.8,0.7,0.9c0.7,0.1,1.2-0.4,1.6-1.2
		c-0.4,7.2-2.9,13-5.5,16.5c-0.1,0.2-0.3,0.4-0.4,0.6c0.2-0.8,0.3-1.6,0.2-2.6c1.2-2.3,1.6-5.7,1-8.5C66.3,61.9,64.4,58.3,62.4,57.2
		L62.4,57.2z M72.2,53.4c0.3,3.1,0.3,6.4-0.6,10.1c1.5-0.4,3-0.8,4.6-1.5c-0.3-0.8-0.1-1.4,1.1-1.9c-0.2-1.3,0.4-1.9,1.4-2.2
		c-0.5-0.9,0.2-1.9,1.9-3c-0.7-1.8-2.2-3.5-3.6-5.2C75.4,51.4,73.9,52.7,72.2,53.4L72.2,53.4z M77.8,50c0.2,0.2,0.4,0.4,0.5,0.6
		c1.3-1.5,2.5-3.5,3.2-5.6c0.2-0.5-0.5-0.7-0.6-0.3C80.5,46.3,78.8,49,77.8,50L77.8,50z M78.8,51c0.2,0.2,0.4,0.4,0.5,0.6
		c1.3-1.5,2.6-3.4,3.3-5.5c0.2-0.5-0.5-0.8-0.6-0.4C81.4,47.3,79.8,50,78.8,51L78.8,51z M79.5,52c0.2,0.3,0.2,0.4,0.3,0.6
		c1.2-1.3,2.7-3.6,3.6-5.6c0.3-0.5-0.5-0.7-0.6-0.3C82.3,48.2,80.6,51.1,79.5,52L79.5,52z M80.2,53c0.1,0.3,0.3,0.4,0.3,0.6
		c1.4-1.4,3-3.7,3.9-5.7c0.2-0.4-0.4-0.8-0.6-0.4C83.3,49.1,81.3,52,80.2,53L80.2,53z M80.7,54c0.2,0.3,0.1,0.3,0.3,0.6
		c1.5-1.4,3.6-3.9,4.4-5.8c0.2-0.5-0.4-0.6-0.6-0.2C84.1,50.1,81.8,53.1,80.7,54L80.7,54z M79.3,56.7c-0.2,0.4-0.4,0.6-0.4,0.9
		c2.6-1.5,6.4-5.7,7.3-7.8c0.2-0.5-0.4-0.7-0.6-0.3C84.7,51.8,82,54.7,79.3,56.7L79.3,56.7z M78.2,58.9c-0.3,0.4-0.4,0.6-0.5,0.9
		c3.1-1.6,8.1-6.5,9.3-8.7c0.3-0.6-0.3-0.8-0.5-0.4C85.2,53.1,81.3,56.9,78.2,58.9L78.2,58.9z M84.1,63.2c0.1,0.2,0,0.3,0,0.6
		c2-1,6.2-4,6.7-4.9c0.3-0.6-0.1-0.8-0.4-0.5C89.5,59.6,85.6,62.6,84.1,63.2L84.1,63.2z M83.6,62c0.2,0.1,0.3,0.3,0.3,0.6
		c2-1.1,5.8-4.2,6.3-5.1c0.3-0.5-0.3-0.8-0.6-0.4C88.9,58.3,85.2,61.5,83.6,62L83.6,62z M83.9,60.5c0,0.2-0.1,0.6-0.2,0.9
		c1.9-1.1,5.6-4.4,6.1-5.3c0.3-0.5-0.4-0.9-0.6-0.5C88.2,56.8,85.3,59.8,83.9,60.5L83.9,60.5z M83.6,59.1c-0.4,0.5-0.3,0.8,0.2,0.8
		c1.6-1.2,4.9-4.3,5.4-5.2c0.3-0.5-0.3-0.7-0.5-0.4C87.7,55.5,85,58.2,83.6,59.1L83.6,59.1z M83.1,57.9c0.2,0.2,0.2,0.4,0.1,0.7
		c1.6-1.2,4.7-4.2,5.2-5.2c0.3-0.5-0.2-0.7-0.5-0.3C87.1,54.3,84.5,57,83.1,57.9L83.1,57.9z M81.7,57.4c0.3,0.1,0.7,0,1.1,0.2
		c1.6-1.3,3.9-3.6,5-5.3c0.3-0.5-0.4-0.8-0.6-0.4c-0.6,1-2.8,3.6-4.3,4.7C82.5,57,82.1,57.3,81.7,57.4L81.7,57.4z M76.9,60.9
		c-0.3,0.3-0.5,0.8-0.4,1c1.2-0.6,3.2-1.7,4.3-2.8c-0.1-0.2-0.2-0.4-0.1-1C80.1,59.4,77.8,60.5,76.9,60.9L76.9,60.9z M77.2,49.4
		c3.1-3.6,7.5-12.9,4.4-20c1,0.7,2,1.5,3,2.4c0.6,4.4,0,8.8-2,13.1c-0.2-0.1-0.4-0.1-0.6,0c0.1-0.6-0.1-0.8-0.4-0.9
		c-0.4-0.1-0.8,0.1-0.9,0.4c-0.6,1.7-1.8,3.8-3.2,5.3C77.4,49.6,77.3,49.6,77.2,49.4L77.2,49.4z M85.3,32.2
		c0.9,2.9-0.3,10.2-2.3,13.2c0.1,0.1,0.1,0.3,0.1,0.5c0.3-0.1,0.6-0.1,0.9,0c0.3,0.2,0.2,0.6,0.1,0.9c0.3,0,0.4,0,0.6,0.1
		c2-3.2,3.2-7.3,3.4-12.2C87.1,33.8,86.2,33,85.3,32.2L85.3,32.2z M88.6,35.2c0.4,2.8-1.7,9.9-3.5,12.1c0,0.2-0.1,0.4-0.2,0.5
		c0.3-0.1,0.7,0,0.8,0.1c0.2,0.2,0.2,0.7,0.1,0.9c0.3,0,0.5,0,0.6,0.1c1.7-2.6,3.7-6.8,4.4-11.2C90.1,36.9,89.5,36,88.6,35.2
		L88.6,35.2z M91.3,38.2c0,2.9-2.7,8.9-4.5,11.1c0,0.2,0,0.5-0.1,0.6c0.3,0,0.6,0,0.7,0.1c0.2,0.2,0.1,0.6-0.1,0.9
		c0.3,0,0.4,0.1,0.5,0.2c1.6-1.9,4.1-5.8,5.2-9.7C92.7,40.8,92,39.1,91.3,38.2L91.3,38.2z M93.7,42.2c-0.6,2.8-3.4,7.4-5.3,9.6
		c0,0.2-0.1,0.5-0.2,0.7c0.3,0,0.6,0,0.7,0.2c0.2,0.2,0.1,0.7-0.1,1c0.3,0,0.4,0,0.5,0.2c1.5-1.7,4.1-5.1,5.8-8.4
		C94.9,44.7,94.4,43,93.7,42.2L93.7,42.2z M95.6,45.5c-0.4,2.8-4.6,7.3-5.9,8.8c0,0.2,0,0.5-0.1,0.7c0.3,0,0.7,0,0.8,0.2
		c0.2,0.3,0,0.8-0.3,1.1c0.3,0,0.3,0,0.4,0.1c1.6-1.4,4.4-4.2,6.3-7.2C96.6,48.7,96.1,46.6,95.6,45.5L95.6,45.5z M97.1,49.9
		c-0.9,2.4-4.5,6-6.1,7.1c0.1,0.2,0,0.7-0.3,0.9c0.6,0,0.7,0.1,0.8,0.3c0.5,1.2-3.5,4-7.8,6.3c-0.3,0.2-0.3,0.4-0.2,0.5
		C90.7,61.1,94,57.5,98,53.2C97.8,52.5,97.6,51,97.1,49.9L97.1,49.9z M71.5,64.2c4.1-1.1,8.1-2.5,9.7-4.7c0.5,0,0.8-0.1,1-0.3
		c0.2-0.2,0.2-0.5,0.1-0.7c-0.2-0.2-0.5-0.3-0.7-0.2c-0.2,0.1-0.2,0.5,0.2,0.6c0,0.1,0,0.2,0,0.2c-0.2,0-0.4-0.1-0.5-0.2
		c-0.1-0.2-0.1-0.7,0.1-0.9c0.3-0.3,1-0.2,1.3,0.1c0.2,0.3,0.4,0.8,0.1,1.5c-0.4-0.1-0.9-0.1-1.1,0.1c-0.3,0.2-1,0.9-0.3,1.4
		c-3.2,3.2-9.7,3.9-10,4.2c-0.6,2.4-2.7,6.7-1.6,12.1c0.4,2.1,1.6,5.1,4.1,4.8c0.8-0.1,1.7-0.5,2.4,0c0.5,0.4,0.1,2.1-0.9,2.1
		c0.4-0.4,0.4-0.8,0.3-1.3c-0.1-0.4-0.6-0.6-0.9-0.6c-1.2,0.2-2.6,0.5-3.7-0.1c-1.5-0.8-1.9-2.9-2.7-3.4c-1.1-0.7-1.4-0.7-2.6,0.4
		c0.1-0.4,0.2-0.8,0.4-1.1c0.2-0.9,0.3-1.9,0.7-2.8c1.2-2.3,2-3.7,2.6-5.6C70.3,68,70.7,66.1,71.5,64.2L71.5,64.2z M71.6,65.8
		c4.1-0.7,8.1-2.1,10-4.1c0.5,0,0.8-0.1,1.1-0.2c0.2-0.1,0.2-0.6,0.1-0.9c-0.2-0.3-0.6-0.4-0.9-0.2c-0.1,0.1-0.2,0.3-0.1,0.5
		c0.2,0.2,0.3,0,0.4,0.1c0.1,0,0.1,0.1,0.1,0.2c-0.3,0.2-0.7,0-0.8-0.1c-0.2-0.2-0.1-0.8,0.2-0.9c0.4-0.2,1.1-0.1,1.3,0.3
		c0.2,0.3,0.3,0.8,0,1.5c-0.4-0.1-0.9,0-1.1,0.2c-0.3,0.2-0.8,0.5-0.6,1.4c-3.4,2.4-8.4,3.5-10.2,3.8C71.3,66.7,71.4,66.2,71.6,65.8
		L71.6,65.8z M71.1,67.7c4.1-0.5,9.1-2.5,10.7-3.8c0.5,0.2,0.9,0.2,1.2,0c0.2-0.1,0.4-0.7,0.3-1c-0.2-0.4-0.5-0.4-0.8-0.3
		c-0.1,0.1-0.2,0.3-0.1,0.5c0.1,0.2,0.2,0,0.3,0.1c0.1,0.1,0.1,0.1,0.1,0.2c-0.3,0.2-0.6,0-0.8-0.2c-0.2-0.3,0-0.7,0.3-0.9
		c0.4-0.2,1.1-0.1,1.3,0.4c0.4,1-0.3,2.6-3.2,3.6c-0.4-0.8-1.1-0.8-1.4-0.7c-0.4,0.1-0.9,0.5-0.8,1.4c-2.1,0.8-5.3,1.7-7.3,1.8
		C70.9,68.4,70.9,68.1,71.1,67.7L71.1,67.7z M70.6,69.5c4.2-0.7,6-1.2,7.6-2c0.5,0.3,0.8,0.2,1.1,0.1c0.2-0.2,0.4-0.6,0.3-0.8
		c-0.2-0.4-0.4-0.5-0.7-0.4c-0.1,0-0.3,0.2-0.2,0.4c0.1,0.2,0.2,0.1,0.3,0.1c0.1,0.1,0.1,0.1,0,0.2c-0.3,0.1-0.6-0.1-0.7-0.3
		c-0.1-0.3,0.2-0.8,0.5-0.9c0.4-0.1,1,0.1,1.1,0.6c0.2,0.8-0.1,1.5-0.8,2c-2.2,1.5-7.5,2.1-9,2.3C70.4,70.5,70.5,69.9,70.6,69.5
		L70.6,69.5z M67.3,80.2c0.2-0.1,0.5-0.1,0.6,0c0.9,0.8,0.6,2.4-0.1,2.8c0.7-0.1,1.6-0.3,2.2,0.2c0.3,0.3,0.7,0.6,0.7,1.1
		c0,0.2-0.1,0.4-0.4,0.7c0.6,0,1.2,0,1.8-0.2c0.7-0.2,1.3-0.8,2.1-0.8c0.3,0,0.4,0.5,0.2,0.9c0.6-0.2,1-1.5,0.4-1.8
		c-0.5-0.3-1.1,0.1-1.7,0.2c-0.8,0.2-1.6,0.3-2.4-0.1c-1.7-0.9-2-3.8-3.7-3.8c-0.5,0-1,0.4-1.1,1c0,0.5,0.4,0.9,0.8,0.9
		C67.5,81.2,67.6,80.6,67.3,80.2L67.3,80.2z M54.6,72.9c0.6-2.7,3.1-4.6,5-4.7c2.1-0.1,4.8,1.6,5.4,4c0.7,2.8-0.1,7.2,0.1,8.2
		c0.2,0.9,0.5,2,1.3,2.6c1,0.8,3.4-0.2,3.7,1.5c0.1,0.7-0.5,1.1-1.6,1.4c0.5-0.4,0.6-0.7,0.5-1.2c-0.2-1.6-2.4-0.7-3.4-1
		c-1.3-0.4-1.8-3.2-3.5-3.1c-0.4,0-0.7,0-1,0.3c-0.1-0.6-0.2-1.1-0.4-1.6c-0.2-0.4-0.7-0.7-1.1-1c1,0.2,2.2,0.1,2.9-0.5
		c1.2-0.8,1.8-2.5,1.8-4.1c0-2.4-2.1-4.6-4.6-4.5c-1.1,0-2.3,0.5-3.3,1.5c1.5-0.9,2.4-1,3.3-1c1.8,0,3.8,1.3,3.8,3.8
		c0,2.1-1.3,3.9-3.6,3.9c-1.3,0-2.7-0.8-3.4-2.6c-1.2,1.1-2.4,1.3-3.7,1c-0.8-0.2-1.6-1.2-1.6-2c0-0.6,0.4-1.3,1.2-1.4
		c0.4,0,1.1,0.5,1,1c-0.1,0.5-0.7,0.7-1.2,0.5c0-0.1,0-0.2,0.1-0.4c0.3,0.1,0.6,0,0.6-0.2c0-0.2-0.2-0.4-0.5-0.4
		c-0.4,0-0.7,0.5-0.7,0.8c0,0.6,0.3,0.9,0.9,0.9c1.9,0,4.2-3.8,6.6-3.8c2,0,2.7,1.5,2.7,2.6c0,1-0.9,1.7-1.7,1.7
		c-0.8,0-1.4-0.7-1.5-1.6c0-0.6,0.6-1.1,1-1.1c0.3,0,0.7,0.4,0.7,0.7c0,0.3-0.1,0.8-0.7,0.7c-0.1-0.1,0-0.2-0.1-0.3
		c0.2,0,0.4-0.1,0.5-0.3c0-0.1-0.2-0.2-0.3-0.3c-0.3,0-0.6,0.3-0.6,0.6c0,0.4,0.3,0.8,1,0.7c0.5-0.1,0.9-0.4,0.9-0.9
		c0-0.7-0.6-1.4-1.3-1.4c-0.9,0-1.6,0.7-1.6,1.5c0,1.3,0.9,2.1,2,2.1c1.3,0,2.4-1,2.4-2.3c0-1.3-1.2-3.2-3.1-3.2
		C57.7,70.3,56.1,71.4,54.6,72.9L54.6,72.9z M65.5,71.9c1.6-4.1,1.1-8.4-1.1-11.7c-2.4-3.8-5-5-10.5-6.9c-0.6-0.2-1.4-0.6-1.8-0.9
		c-0.2,0-0.5,0.1-0.7-0.1c-0.3-0.2-0.4-0.6-0.2-1c0.1-0.2,0.4-0.2,0.6-0.1c0.2,0.1,0.3,0.3,0.2,0.4c-0.1,0.2-0.3,0.2-0.4,0.2
		c0.3,0.4,0.7,0.2,0.8-0.1c0.2-0.4,0-1-0.4-1.2c-0.4-0.2-0.9-0.1-1.2,0.4c-0.1,0.2-0.2,0.5-0.2,0.7c0.7,0.4,1,1.4,0.6,1.7
		c0.6,0.5,1.2,0.8,1.9,1.1c3.8,1.3,7.5,2.6,10,6.8c1.4,2.4,2.1,4.6,1.1,8.2C64.8,70.2,65.2,71,65.5,71.9L65.5,71.9z M63.8,69.3
		c0.7-4.5-0.7-8.2-4.5-11.1c-1.6-1.2-3.7-2.2-6.5-3.3c-0.6-0.2-1.5-0.8-2-1.2c-0.2,0-0.4,0-0.6-0.2c-0.3-0.2-0.5-0.6-0.3-0.9
		c0.1-0.2,0.4-0.3,0.6-0.2c0.2,0.1,0.3,0.3,0.2,0.4c-0.1,0.2-0.3,0.2-0.5,0.1c0,0.4,0.6,0.4,0.8,0.1c0.1-0.3,0-0.7-0.3-0.9
		c-0.2-0.1-0.8-0.1-1.1,0.3c-0.1,0.2-0.2,0.5-0.1,0.7c0.7,0.4,1.2,1.2,0.8,1.7c0.6,0.4,1.3,0.8,1.9,1.1c2.1,0.8,4.6,1.8,6.5,3.2
		c2.8,2,4.6,5.5,3.9,9.1C63.1,68.6,63.4,68.7,63.8,69.3L63.8,69.3z M62.1,68.2c0-2.6,0.2-3.3-1.3-5.8c-1.7-2.8-3.9-3.8-9.1-6
		c-0.6-0.3-1.4-0.7-1.9-1.1c-0.2,0.2-0.7,0.1-0.9-0.2c-0.2-0.3-0.3-0.6-0.1-0.9c0.1-0.2,0.4-0.3,0.6-0.2c0.2,0.1,0.2,0.3,0.1,0.4
		c-0.1,0.2-0.3,0.2-0.5,0.1c0,0.4,0.7,0.4,0.8,0.1c0.1-0.3,0.1-0.8-0.3-1c-0.2-0.1-0.8-0.1-1.1,0.3c-0.7,1-0.1,2.1,1.5,2.9
		c0.4-0.7,1.1-0.6,1.5-0.4c0.4,0.2,0.8,0.6,0.5,1.5c3.8,1.3,6.4,2.9,7.8,5.4c0.6,1.2,1,2.6,0.9,4.4C61.1,67.8,61.6,67.9,62.1,68.2
		L62.1,68.2z M60.1,67.7c0-2.6-0.3-4.1-2.4-6c-1.3-1.2-3.7-2.6-4.8-2.8c-0.5-0.1-1-0.4-1.2-0.6c-0.4,0.2-0.7,0.2-1,0
		c-0.3-0.2-0.3-0.8-0.2-1.1c0.1-0.2,0.4-0.3,0.6-0.2c0.2,0.1,0.2,0.3,0.1,0.4c-0.1,0.2-0.3,0.2-0.5,0.2c0,0.4,0.6,0.4,0.8,0.1
		c0.2-0.3,0.1-0.7-0.2-1c-0.3-0.2-0.9-0.2-1.2,0.3c-0.7,1.1,0.1,2.1,2.2,3c0.4-0.7,1.3-0.7,1.6-0.5c0.4,0.2,1,0.8,0.6,1.7
		c2.5,0.9,4.8,3.4,3.9,6.5C58.9,67.8,59.5,67.7,60.1,67.7L60.1,67.7z M56.4,69.1c0.3-0.4,0.6-0.7,1.7-1c0.4-1.7,0-2.8-0.8-4
		c-0.6-1-2.1-1.9-3-2.4c-0.4,0-0.8,0-1-0.2c-0.3-0.2-0.3-0.7-0.1-1c0.1-0.2,0.5-0.4,0.7-0.2c0.2,0.1,0.3,0.3,0.2,0.5
		c-0.1,0.1-0.3,0.2-0.4,0.1c-0.1,0.1-0.1,0.2-0.1,0.3c0.3,0.1,0.6,0,0.7-0.2c0.2-0.3,0.1-0.8-0.2-1c-0.4-0.2-1-0.1-1.2,0.3
		c-0.3,0.5-0.2,1.3,0.2,1.7c1.1,1,2.6,1.6,3.2,2.9C56.9,66.1,57,67.7,56.4,69.1L56.4,69.1z M48.3,56.5c0.5,0.3,1,0.5,1.5,0.8
		c-0.4,1.5,0.5,2.5,2.4,3.3c-0.1,0.6-0.2,1.2,0.2,1.7c0.7,1,2.1,1.3,2.9,2.4c1,1.3,1.2,2.9,0.8,4.5c-3.5-0.5-6.5-1.5-9.5-2.5
		C46.5,63.2,46.4,59.9,48.3,56.5L48.3,56.5z M50.2,51.7c-0.3,0-0.5,0-0.7,0.2c-1.4-1.3-3.8-4.2-4.7-6.3c-0.2-0.4,0.4-0.7,0.5-0.3
		C45.8,46.8,48.9,50.9,50.2,51.7L50.2,51.7z M49.2,52.2c-0.1,0.3-0.2,0.6-0.2,0.9c-1.4-1.4-4.5-4.7-5.4-6.6
		c-0.2-0.4,0.5-0.8,0.6-0.4C44.9,47.6,48.1,51.4,49.2,52.2L49.2,52.2z M48.8,53.3c-0.2,0-0.5,0.1-0.6,0.3c-1.4-1.1-4.4-4.2-5.4-6.2
		c-0.3-0.5,0.5-0.7,0.6-0.3C44.1,48.5,47.5,52.6,48.8,53.3L48.8,53.3z M48.1,54c-0.1,0.3-0.2,0.3-0.3,0.5c-1.7-1.2-4.8-4.3-5.9-6.3
		c-0.2-0.4,0.4-0.8,0.6-0.4C43.1,49.4,46.7,53.2,48.1,54L48.1,54z M47.8,55c-0.1,0.3,0.1,0.7,0.2,1.1c-1.6-1.3-6-5.1-6.9-7
		c-0.2-0.5,0.4-0.7,0.6-0.3C42.4,50.3,46.5,54.3,47.8,55L47.8,55z M47.9,56.4c-0.1,0.1-0.2,0.3-0.3,0.5c-2.1-1.4-6.1-4.7-7.1-6.7
		c-0.3-0.5,0.3-0.7,0.5-0.3C42.3,51.7,45.1,54.5,47.9,56.4L47.9,56.4z M47.4,57.2c-0.1,0.2-0.2,0.4-0.3,0.7
		c-2.6-1.7-5.8-4.8-7.3-6.7c-0.4-0.5,0.1-0.8,0.4-0.4C41.7,52.8,44.4,55.2,47.4,57.2L47.4,57.2z M46,64.8c0,0.2,0,0.6,0.1,0.9
		c-2.9-0.8-9.5-5.2-9.9-6.4c-0.3-0.7,0.2-0.9,0.5-0.5C38,60.3,44,64.3,46,64.8L46,64.8z M46,63.4c0,0.3,0,0.4,0,0.8
		c-3-0.9-8.9-5.6-9.6-6.6c-0.4-0.6,0.4-0.9,0.7-0.5C38.4,58.5,43.8,63,46,63.4L46,63.4z M46.1,62.1c0,0.2-0.1,0.6-0.1,0.9
		c-2.5-1.1-8.2-5.6-8.9-6.7c-0.4-0.6,0.3-1.1,0.7-0.7C39.1,57,44.3,61.3,46.1,62.1L46.1,62.1z M46.3,60.8c-0.1,0.2-0.1,0.6-0.1,0.9
		c-2.4-1.4-7.8-5.8-8.4-6.8c-0.3-0.6,0.2-0.9,0.5-0.5C39.5,55.6,44.4,59.8,46.3,60.8L46.3,60.8z M46.7,59.5
		c-0.1,0.3-0.3,0.6-0.2,0.8c-2.2-1.4-7.2-5.7-7.8-6.8c-0.3-0.6,0.2-1,0.5-0.6C40.3,54.3,44.7,58.5,46.7,59.5L46.7,59.5z M47.1,58.3
		c-0.2,0.3-0.2,0.5-0.3,0.8c-2-1.4-6-4.9-7.5-6.8c-0.4-0.5,0.3-0.9,0.6-0.4C41,53.6,45.4,57.5,47.1,58.3L47.1,58.3z M50.5,51
		c-1.8-1.9-5.1-5.6-6.6-10.6c-0.9-3.2-1.1-6.8,0.1-10.9c-1,0.7-2,1.5-3,2.4c-0.5,4.4,0.4,10.1,2.7,13.7c0.2-0.1,0.3,0,0.5,0.1
		c-0.1-0.6,0-0.8,0.3-1c0.3-0.1,0.8,0.1,1,0.4c0.9,1.8,3.3,5,4.8,6.4C50.4,51.2,50.4,51.2,50.5,51L50.5,51z M40.2,32.1
		c-0.4,3.5,0.8,11,3,13.7c-0.1,0.2-0.1,0.4-0.1,0.6c-0.2-0.1-0.4-0.2-0.6,0c-0.2,0.1-0.3,0.7-0.2,1c-0.3,0-0.2-0.1-0.3,0
		c-2.1-3.2-3.9-7.6-4.2-12.6C38.6,33.8,39.4,33,40.2,32.1L40.2,32.1z M37.2,35.1c0,2.8,2.2,10.2,4.4,12.4c0,0.2-0.1,0.5,0,0.7
		c-0.3-0.1-0.4-0.1-0.6,0c-0.2,0.1-0.2,0.6-0.2,0.9c0,0-0.2-0.1-0.2,0c-1.8-2.4-4.9-7.3-5.6-11.2C35.6,37.1,36.3,36,37.2,35.1
		L37.2,35.1z M34.3,38.4c0.3,2.8,3.8,8.8,5.8,10.8c-0.1,0.3-0.2,0.7,0,1c-0.3-0.1-0.4,0-0.6,0.1c-0.2,0.1-0.2,0.5,0,0.7
		c-0.1,0.1-0.1,0.1-0.2,0.2c-1.6-1.9-5.1-6-6.7-9.5C32.9,40.8,33.6,39.3,34.3,38.4L34.3,38.4z M31.9,42c0.9,2.6,4.8,7.6,6.7,9.5
		c-0.1,0.2-0.1,0.5,0.1,1c-0.3,0-0.6,0.1-0.7,0.2c-0.2,0.2-0.1,0.7,0.1,1c-0.1,0-0.4,0-0.5,0.1c-1.8-1.6-5.3-5.8-6.9-8.5
		C31,44.6,31.3,42.8,31.9,42L31.9,42z M30.1,45.5c1.2,2.6,5.5,7.7,7.2,8.6c0,0.2,0,0.8,0.2,1.1c-0.3,0-0.7,0-0.9,0.3
		c-0.2,0.3-0.2,0.7,0.1,1c-0.3,0-0.5,0-0.6,0.1c-1.8-1.2-5-4.3-6.9-7.3C29.3,48.7,29.6,46.6,30.1,45.5L30.1,45.5z M28.7,49.6
		c1,2.4,5.7,6.6,7.3,7.6c-0.1,0.3,0.1,0.7,0.2,1c-0.6,0-0.8,0.3-0.8,0.5c-0.2,0.7,0.9,1.9,2.5,3c2.3,1.7,5.6,3.6,8.3,4.4
		c0.2,0.1,0.2,0.4,0,0.4c-6.1-1.9-13-7.3-18.4-13.4C27.9,52.5,28.2,50.7,28.7,49.6L28.7,49.6z M54.1,69.2c0.6,0.1,1.3,0.2,1.9,0.2
		c-1.3,1.2-1.8,2.5-1.8,3.9c0,0.2-0.3,0.4-0.5,0.4c0-0.2,0.1-0.5,0.1-0.7c0-0.4-0.5-0.9-1.1-1c-0.8-0.1-2,0.5-2,1.7
		c-0.1,1.1,1.1,2.4,2.3,2.7c1.2,0.3,2.6,0.1,3.4-0.7c0.1,0.6,0.3,1,0.7,1.3c0.8,0.9,2.2,1.2,3,2.3c0.3,0.4,0.5,0.7-0.1,1.4
		c-5.9-1.4-8.9-4.4-11-8C50.9,71.7,52.6,70.5,54.1,69.2L54.1,69.2z M38.9,77.4c1.7-0.2,5.3-2.1,9.4-4.2c0.2,0.4,0.5,0.8,0.7,1.1
		c-2.8,1.6-7.2,4.4-8.4,4.4C40,78.7,39.3,78,38.9,77.4L38.9,77.4z M40.8,79.2c1.7-0.3,5.5-2.6,8.5-4.5c0.2,0.4,0.7,0.8,0.9,1.2
		c-2.8,1.6-6.4,4.2-7.6,4.2C42,80,41.5,79.8,40.8,79.2L40.8,79.2z M42.8,80.5c1.8-0.3,4.7-2.4,7.7-4.3c0.3,0.4,0.8,0.8,1.2,1.1
		c-2.8,1.6-5.7,3.9-6.9,4.1C44.1,81.5,43.4,81.1,42.8,80.5L42.8,80.5z M44.9,81.9c1.8-0.4,4.2-2.4,7.1-4.2c0.4,0.4,0.8,0.6,1.2,0.9
		c-2.8,1.6-5,3.7-6.1,4C46.5,82.6,45.6,82.3,44.9,81.9L44.9,81.9z M47.2,82.9c1.8-0.4,3.3-2.3,6.3-4.1c0.3,0.3,0.9,0.6,1.3,0.8
		c-2.4,1.6-4.5,3.6-5.3,3.9C48.9,83.8,47.8,83.4,47.2,82.9L47.2,82.9z M49.7,84c2.1-0.9,3.3-2.5,5.5-4.1c0.4,0.2,1.2,0.5,1.6,0.6
		c-2.2,1.6-3.7,3.4-4.5,3.7C51.6,84.5,50.3,84.5,49.7,84L49.7,84z M52.1,84.8c2.1-0.9,3.2-2.4,5.3-4.1c0.4,0.2,1.5,0.5,2,0.5
		c-2,1.7-3.8,3.8-4.7,4.1C54.2,85.5,52.8,85.2,52.1,84.8L52.1,84.8z M61.6,81.9c0.1-0.1,0.5-0.1,0.6,0.1c0.2,0.2,0.4,0.6,0.4,0.9
		c0,0.9-1.1,1.6-1.9,1.6c-0.6,0-1.2-0.2-1.9-0.2c-0.4,0-0.9,0.3-0.8,0.7c0,0.5,0.4,1.1,0.8,1.2c-0.1-0.3-0.2-0.4,0-0.6
		c0.2-0.2,2.3,0.3,3.4,0.3c2.4-0.1,3.6-0.8,4.4-0.8c0.3,0,0.6,0.1,0.7,0.3c0.1,0.3-0.2,0.6-0.4,0.8c0.6,0.1,1.3-0.5,1.3-1.2
		c0-0.3-0.3-0.8-0.6-0.8c-0.8-0.1-1.7,0.2-2.5,0c-1.6-0.5-1.9-2.9-3.3-2.9c-0.4,0-1,0.2-1,1c0,0.3,0.3,0.6,0.6,0.6
		c0.3,0,0.5-0.3,0.5-0.5C62,82.2,61.8,81.9,61.6,81.9L61.6,81.9z M61.6,81.9"/>
</g>
</svg>
