<?xml version="1.0" encoding="UTF-8" standalone="no"?>
<!-- Created with Inkscape (http://www.inkscape.org/) -->

<svg
   xmlns:dc="http://purl.org/dc/elements/1.1/"
   xmlns:cc="http://creativecommons.org/ns#"
   xmlns:rdf="http://www.w3.org/1999/02/22-rdf-syntax-ns#"
   xmlns:svg="http://www.w3.org/2000/svg"
   xmlns="http://www.w3.org/2000/svg"
   xmlns:sodipodi="http://sodipodi.sourceforge.net/DTD/sodipodi-0.dtd"
   xmlns:inkscape="http://www.inkscape.org/namespaces/inkscape"
   id="svg3153"
   version="1.1"
   inkscape:version="0.48.2 r9819"
   width="200"
   height="252"
   sodipodi:docname="Coat_of_Arms_of_Chukotka.svg">
  <metadata
     id="metadata3159">
    <rdf:RDF>
      <cc:Work
         rdf:about="">
        <dc:format>image/svg+xml</dc:format>
        <dc:type
           rdf:resource="http://purl.org/dc/dcmitype/StillImage" />
        <dc:title />
      </cc:Work>
    </rdf:RDF>
  </metadata>
  <defs
     id="defs3157">
    <inkscape:path-effect
       effect="spiro"
       id="path-effect3971"
       is_visible="true" />
  </defs>
  <sodipodi:namedview
     pagecolor="#ffffff"
     bordercolor="#666666"
     borderopacity="1"
     objecttolerance="10"
     gridtolerance="10"
     guidetolerance="10"
     inkscape:pageopacity="0"
     inkscape:pageshadow="2"
     inkscape:window-width="1382"
     inkscape:window-height="959"
     id="namedview3155"
     showgrid="false"
     inkscape:zoom="4.9730288"
     inkscape:cx="120.37484"
     inkscape:cy="130.10413"
     inkscape:window-x="336"
     inkscape:window-y="0"
     inkscape:window-maximized="0"
     inkscape:current-layer="svg3153" />
  <path
     style="fill:#810366;fill-opacity:1;stroke:#000000;stroke-opacity:1"
     d="m 98.521223,245.8142 c -1.887186,-5.4663 -2.595851,-6.48118 -5.543638,-7.93911 -2.322144,-1.1485 -2.815016,-1.16808 -42.287234,-1.67966 L 10.752643,235.6778 7.9474288,233.89079 c -1.6734463,-1.06603 -3.4439123,-2.79412 -4.3882981,-4.28327 l -1.5830833,-2.49626 0,-112.98468 C 1.9760474,11.317853 2.0518254,1.1709691 2.8174238,1.4647566 3.2801807,1.6423331 47.772246,1.787623 101.68868,1.787623 l 98.02988,0 -0.23182,111.037237 c -0.15227,72.93623 -0.41876,111.89077 -0.77662,113.5247 -0.72502,3.31026 -2.84664,6.47317 -5.24704,7.82227 -4.66038,2.61928 -6.13593,2.7059 -46.23931,2.71431 -36.66887,0.008 -37.51288,0.031 -39.71657,1.09782 -2.6631,1.28918 -3.26973,2.1429 -5.27298,7.42068 -0.83282,2.19415 -1.66723,4.17367 -1.85426,4.39892 -0.18702,0.22526 -1.02346,-1.56995 -1.858737,-3.98936 l 0,0 z"
     id="path3167"
     inkscape:connector-curvature="0" />
  <path
     style="fill:#eaeaea;fill-opacity:1;stroke:#89a1aa;stroke-width:0.40000001000000002;stroke-linecap:butt;stroke-linejoin:miter;stroke-miterlimit:4;stroke-opacity:1;stroke-dasharray:none"
     d="m 70.966497,37.880572 3.46534,1.237623 0.74258,-3.341584 4.20792,1.361386 1.98019,-3.465346 3.09406,1.732673 1.9802,-2.59901 2.9703,1.485149 2.59901,-2.59901 2.22772,2.10396 2.9703,-2.846534 2.722768,2.227722 2.846545,-2.475247 2.97029,2.722772 2.10396,-2.846535 2.9703,3.341585 2.84654,-2.227723 1.98019,2.970297 2.9703,-1.980198 2.22772,3.094059 3.21782,-1.980198 1.60892,3.589109 3.96039,-1.361386 1.36139,3.217822 3.21782,-1.361386 0.9901,2.970297 4.20793,-0.371287 0.37129,2.351485 4.33168,0.123762 0.12376,2.722772 4.20792,0.49505 0,3.217822 4.45545,0.371287 0.12376,3.836633 3.58911,-0.371287 0.12376,3.465347 3.34159,0.495049 0.12376,3.217822 3.09406,0.371287 0.37129,3.465347 0,1.237624 2.97029,-0.371288 0.12376,3.341585 -0.12376,0.742574 2.47525,0.123762 0.24752,4.084159 2.84654,0.247524 -0.24753,3.836634 0.12377,1.485149 2.22772,0.247524 -0.86634,4.207921 2.9703,1.361386 -1.36139,3.836634 2.9703,1.485148 -2.22772,3.465354 2.59901,1.36138 -1.60891,3.341592 2.59901,2.84653 -2.22773,2.9703 2.72278,1.9802 -2.72278,3.09405 3.46535,2.35149 -3.46535,2.72277 2.22773,2.47525 -2.84654,3.09405 2.47525,2.59901 -3.83663,2.47525 1.73267,3.09406 -3.58911,1.73267 1.85644,3.58911 -3.09406,1.11387 1.48515,4.08415 -3.71288,0.37129 1.23763,3.83663 -2.9703,0.9901 c 0,0 1.23762,4.33169 0.12376,4.45545 -1.11386,0.12376 -4.33168,-0.24753 -4.33168,-0.24753 0,0 0.74257,3.83664 0.74257,4.20792 0,0.37129 -2.72277,0.24753 -2.72277,0.24753 l 0.37129,4.70297 -3.83663,-0.12376 0.12376,3.83663 -3.46535,0.12376 -0.37129,3.34159 -3.46534,0.24752 -0.37129,3.21782 -4.20792,-0.12376 0.24752,3.9604 -4.08415,-0.12376 -0.61882,2.59901 -4.20792,-0.12377 -0.49505,2.84654 -4.08416,-1.48515 -1.23763,3.58911 -3.34158,-1.73268 -2.84654,3.58911 -2.59901,-2.35148 -2.22772,3.71287 -3.21782,-1.9802 -1.23763,3.83664 -3.21782,-1.9802 -2.59901,1.85643 -2.59901,-1.48515 -2.97029,3.09406 -2.22773,-2.84653 -2.9703,2.47525 -2.599003,-3.09406 -3.09406,2.35148 -2.22773,-2.47524 -2.10396,1.73267 -2.97029,-2.72277 -3.34159,1.48514 -1.85643,-2.35148 -3.21782,0.9901 -1.73268,-2.72277 -3.46534,0.49505 -0.86634,-2.84654 -4.33168,0.74258 -0.12377,-2.9703 -4.33168,0.12376 -0.86634,-2.9703 -3.83663,0.12377 -0.24753,-3.46535 -4.33168,-0.24753 -0.12376,-3.21782 -3.34158,-0.12376 -0.24753,-3.34158 -3.21782,0 0,-3.34159 -3.58911,0.24753 0.24752,-4.20792 -0.24752,-0.74258 -3.71287,0 0.24752,-4.20792 -3.094063,0 0,-2.9703 0,-1.36138 -2.97029,-0.12376 0.86633,-3.83664 -3.83663,-1.60891 2.22772,-3.46535 -3.83663,-2.10396 2.10396,-2.10396 -3.09406,-2.84653 1.60891,-2.84654 -3.34158,-2.47524 2.10396,-2.9703 -2.72278,-2.22772 1.73268,-2.84653 -3.46535,-2.47525 3.09406,-2.72277 -2.47525,-2.84654 2.84654,-2.22772 -2.72277,-2.59901 2.97029,-2.846531 -2.72277,-2.722781 3.21782,-2.35148 -2.35148,-3.094064 4.08416,-2.351485 -2.47525,-2.846535 3.83663,-2.10396 -2.59901,-3.341584 4.45545,-1.980198 -2.10396,-4.084159 4.45544,-0.247525 -1.23762,-4.20792 3.836633,-0.123763 -0.24752,-4.084158 3.71287,-0.123763 -0.9901,-4.70297 4.33168,0.371287 -0.74257,-3.836633 3.58911,0 0.12376,-3.836634 3.21782,-0.247525 0.61881,-3.465346 3.71287,-0.247525 -0.12376,-3.341584 4.20792,0.247525 0.12377,-3.09406 4.82673,-0.123762 -0.24753,-2.722773 4.33169,1.113862 z"
     id="path3011"
     inkscape:connector-curvature="0" />
  <path
     sodipodi:type="arc"
     style="fill:#abd7e7;fill-opacity:0.95618782999999996;stroke:#aba9a5;stroke-opacity:1"
     id="path3173"
     sodipodi:cx="116.48936"
     sodipodi:cy="110.51064"
     sodipodi:rx="51.063831"
     sodipodi:ry="56.38298"
     d="m 167.55319,110.51064 a 51.063831,56.38298 0 1 1 -102.127664,0 51.063831,56.38298 0 1 1 102.127664,0 z"
     transform="matrix(1.2083333,0,0,1.0943396,-38.098402,-13.562383)" />
  <path
     style="fill:#fff215;fill-opacity:1;stroke:#afb458;stroke-width:1px;stroke-linecap:butt;stroke-linejoin:miter;stroke-opacity:1"
     d="m 61.130208,90.514553 -0.53191,-2.659578 1.59574,-1.06383 0,-6.382978 6.38298,0 4.45246,2.328522 c 2.438,1.275012 5.12201,-0.200863 5.12201,-0.200863 l 71.276592,17.553184 12.23404,5.31916 -3.7234,6.9149 -3.7234,0 0.53191,2.12766 -1.59574,4.78723 2.65957,0.53192 -4.25532,3.7234 -17.55319,-8.51064 -11.17021,5.85107 -2.65957,4.25531 -3.19149,0 3.7234,2.12766 0,6.38298 3.19149,3.1915 -1.06383,4.25531 0.53191,2.65958 -10.10638,-1.59575 -10.6383,5.85107 -3.191489,-3.72341 0,-2.65957 -3.7234,2.12766 -3.19149,-1.59575 -1.595743,1.59575 -7.97873,0.53191 -1.59574,-4.78723 -5.31915,-3.72341 5.85106,-3.7234 -2.12766,-4.25532 -3.19149,-1.59575 -4.25531,-2.12766 -3.19149,0 -3.19149,-4.78723 -1.06383,2.12766 -2.12766,-1.06383 -3.72341,0 -0.53191,1.06383 -4.25532,-0.53191 -3.72341,-4.78724 -7.4468,-6.38298 1.59574,-2.12766 -2.12766,-3.7234 1.59575,-2.12767 -1.06383,-7.446807 3.7234,-3.7234 z"
     id="path3961"
     inkscape:connector-curvature="0"
     sodipodi:nodetypes="cccccsccccccccccccccccccccccccccccccccccccccccccccccc" />
  <path
     style="fill:none;stroke:#afb458;stroke-width:1.20023108px;stroke-linecap:butt;stroke-linejoin:miter;stroke-opacity:1"
     d="m 46.09303,91.687802 5.041261,1.575691 6.071679,1.320591 c 0,0 7.382174,0.945415 8.502454,1.260552 1.12028,0.315139 7.271305,0.570239 7.271305,0.570239 l 7.937061,0.750355 9.337407,0.375177"
     id="path4045"
     inkscape:connector-curvature="0"
     sodipodi:nodetypes="cccsccc" />
  <path
     style="fill:none;stroke:#c0c14a;stroke-width:1.35481px;stroke-linecap:butt;stroke-linejoin:miter;stroke-opacity:1"
     d="M 81.450568,132.01359 123.182,133.12463"
     id="path4049"
     inkscape:connector-curvature="0"
     inkscape:transform-center-y="0.87725308"
     inkscape:transform-center-x="0.0310745" />
  <path
     sodipodi:type="star"
     style="fill:#f02b32;fill-opacity:1"
     id="path3181"
     sodipodi:sides="8"
     sodipodi:cx="-140.42554"
     sodipodi:cy="98.80851"
     sodipodi:r1="20.74468"
     sodipodi:r2="5.3508186"
     sodipodi:arg1="-1.5707963"
     sodipodi:arg2="-1.1111941"
     inkscape:flatsided="false"
     inkscape:rounded="0"
     inkscape:randomized="0"
     d="m -140.42554,78.063829 2.37358,15.949122 12.29513,-9.873145 -9.59936,12.956105 15.67533,1.712599 -15.94912,2.37358 9.87315,12.29512 -12.95611,-9.59935 -1.7126,15.67533 -2.37358,-15.94912 -12.29512,9.87314 9.59936,-12.9561 -15.67534,-1.712601 15.94912,-2.373578 -9.87314,-12.295126 12.9561,9.599359 z"
     inkscape:transform-center-y="-1.3968219"
     transform="matrix(0.7051282,0,0,0.7051282,216.83715,59.593284)" />
  <path
     style="fill:#ffffff;fill-opacity:0;stroke:#afb458;stroke-width:1.03132367;stroke-linecap:butt;stroke-linejoin:miter;stroke-miterlimit:4;stroke-opacity:1;stroke-dasharray:0.51566184, 0.51566184;stroke-dashoffset:0"
     d="m 43.069311,105.73268 1.579648,0.99009 11.320794,2.22772 7.898239,1.48515 15.006639,1.48514 27.452509,0.49505 19.93687,-0.74257"
     id="path5333"
     inkscape:connector-curvature="0"
     sodipodi:nodetypes="ccccccc" />
  <path
     sodipodi:type="arc"
     style="fill:none;stroke:#f02b32;stroke-width:1.87350404;stroke-linejoin:miter;stroke-miterlimit:4;stroke-opacity:1;stroke-dasharray:none"
     id="path3185"
     sodipodi:cx="-130.31915"
     sodipodi:cy="50.138298"
     sodipodi:rx="53.19149"
     sodipodi:ry="53.457447"
     d="m -77.127663,50.138298 a 53.19149,53.457447 0 1 1 -106.382977,0 53.19149,53.457447 0 1 1 106.382977,0 z"
     transform="matrix(0.9234469,0,0,0.90949908,223.18673,61.374526)" />
  <path
     style="fill:none;stroke:#c0c14a;stroke-width:1px;stroke-linecap:butt;stroke-linejoin:miter;stroke-opacity:1"
     d="m 99.009902,144.09901 0.24752,-21.78217"
     id="path4051"
     inkscape:connector-curvature="0" />
  <g
     id="g4033"
     transform="translate(175,-16.810345)">
    <path
       inkscape:connector-curvature="0"
       id="path3963"
       d="m -111.88119,82.445545 7.17822,0.247525 9.40594,-0.742575 9.65347,6.930694 7.42574,0.495049 0.74257,0.990099 9.40594,-0.247525 5.69307,-0.742574 8.41584,0.49505 7.67327,1.980198 14.85149,5.940594 9.15841,8.91089 1.48515,8.41584 -1.73267,2.9703 -2.22773,0.9901 -0.24752,1.73267 5.44554,10.89109 -3.96039,6.43564 -8.91089,-0.49505 -0.74258,-2.22772 2.22773,-1.73268 3.96039,0.24753 -7.17822,-4.95049 -0.99009,5.19801 -0.49505,0 -0.24753,4.9505 -2.47525,1.23762 -14.35643,-0.49505 -1.9802,-1.9802 0.9901,-1.98019 5.94059,0 0.9901,-3.9604 -5.94059,-11.63366 -11.88119,-2.47525 0.24752,3.9604 0.49505,6.18812 -1.73267,0.74257 0,3.96039 -3.71287,6.43565 -10.89109,0 -2.47525,-1.23763 0,-1.98019 1.23763,-0.9901 4.70297,-0.24753 1.98019,-8.16831 -7.42574,6.93069 -8.41584,0 -1.9802,-1.9802 2.72278,-3.46534 2.97029,-0.49505 3.21782,-4.20792 0.24753,-3.46535 -1.23763,-3.96039 -0.74257,-5.44555 -0.49505,-1.73267 -2.9703,-2.9703 L -100,97.049505 l -2.22772,0 -2.47525,-3.712871 -4.70297,-2.475247 -1.9802,-3.465347 z"
       style="fill:#eaeaea;fill-opacity:1;stroke:#869ca3;stroke-width:1px;stroke-linecap:butt;stroke-linejoin:miter;stroke-opacity:1" />
    <path
       inkscape:connector-curvature="0"
       id="path3975"
       d="m -111.35678,82.854275 1.90955,0 0.1005,2.01005 -1.80904,0 z"
       style="fill:#000000;fill-opacity:1;stroke:#000000;stroke-width:1px;stroke-linecap:butt;stroke-linejoin:miter;stroke-opacity:1" />
    <path
       inkscape:connector-curvature="0"
       id="path3981"
       d="m -94.164454,85.952254 2.38727,0.795756 0.5305,1.856764 -0.5305,2.122016 -1.06101,0.530504 -2.38727,0.265252"
       style="fill:none;stroke:#000000;stroke-width:1px;stroke-linecap:butt;stroke-linejoin:miter;stroke-opacity:1" />
    <path
       inkscape:connector-curvature="0"
       id="path3983"
       d="m -94.960212,88.339522 1.59151,0.530504"
       style="fill:none;stroke:#000000;stroke-width:1px;stroke-linecap:butt;stroke-linejoin:miter;stroke-opacity:1" />
    <path
       inkscape:connector-curvature="0"
       id="path3985"
       d="m -74.757356,125.967 -3.91371,-5.01384 -3.587561,-3.58129 -1.304569,-6.0882 -1.95685,-1.0744"
       style="fill:#000000;fill-opacity:0;stroke:#869ca3;stroke-width:1.28844225px;stroke-linecap:butt;stroke-linejoin:miter;stroke-opacity:0.9372549" />
    <path
       inkscape:connector-curvature="0"
       id="path3987"
       d="m -64.273198,117.84938 -1.22592,-2.62697 -1.57619,-2.10157 -1.40105,-1.92644 0.17514,-2.80211"
       style="fill:#ffffff;fill-opacity:0;stroke:#869ca3;stroke-width:1px;stroke-linecap:butt;stroke-linejoin:miter;stroke-opacity:1" />
    <path
       inkscape:connector-curvature="0"
       id="path3989"
       d="m -52.364269,120.30123 1.05079,-2.10158 -0.87566,-3.50262 2.62697,-2.27671 1.75131,-1.92645 0.35026,-1.40105"
       style="fill:#ffffff;fill-opacity:0;stroke:#869ca3;stroke-width:1px;stroke-linecap:butt;stroke-linejoin:miter;stroke-opacity:1" />
    <path
       inkscape:connector-curvature="0"
       id="path3991"
       d="m -34.15062,128.70753 0,-2.97723 3.15237,-1.75132 2.10157,-1.75131 1.40106,-0.17513 1.05078,-1.22592 1.05079,-0.17513 0.5254,-1.92645"
       style="fill:none;stroke:#869ca3;stroke-width:1px;stroke-linecap:butt;stroke-linejoin:miter;stroke-opacity:1" />
    <path
       inkscape:connector-curvature="0"
       id="path3977"
       d="m -110.67087,88.948721 5.03979,0.530504 0.26525,1.591512 z"
       style="fill:#000000;fill-opacity:1;stroke:#000000;stroke-width:1px;stroke-linecap:butt;stroke-linejoin:miter;stroke-opacity:0" />
    <path
       inkscape:connector-curvature="0"
       id="path3979"
       d="m -103.05823,82.715203 2.12201,2.652519 0,-2.122016 z"
       style="fill:#000000;fill-opacity:1;stroke:#ffffff;stroke-width:1px;stroke-linecap:butt;stroke-linejoin:miter;stroke-opacity:0" />
  </g>
  <path
     style="fill:none;stroke:#afb458;stroke-width:1px;stroke-linecap:butt;stroke-linejoin:miter;stroke-opacity:1"
     d="m 79.455446,83.815062 -2.22772,43.069308"
     id="path4047"
     inkscape:connector-curvature="0" />
  <path
     style="fill:none;stroke:#7b8c93;stroke-width:0.4;stroke-linecap:butt;stroke-linejoin:miter;stroke-opacity:1;stroke-miterlimit:4;stroke-dasharray:none"
     d="m 97.246408,31.846319 1.00603,14.084507 2.414492,0 -0.40241,-12.072434 0.40241,12.474849 2.01207,0 -0.2012,-14.688129 0.2012,14.889336 2.6157,-0.402415 -0.20121,-12.273641 0.60362,12.474849 1.60966,0.201207 1.00604,-15.090543 -0.60363,15.29175 2.21328,0 0.40242,-12.877263 -0.80483,12.877263 1.81086,0 1.81087,-13.8833 -1.40845,14.486922 1.81086,0 1.81087,-12.877264 -2.01207,12.474849 2.41448,0.402415 3.01811,-13.8833 -3.21931,14.084507 2.8169,0.804829 2.21328,-12.273642 -2.21328,12.072435 2.01207,0.804829 4.02415,-14.486922 -3.42053,14.285715 1.60966,0.804829 3.62173,-12.474849 -3.42052,12.474849 1.60966,1.006036 4.82897,-14.084507 -5.03018,14.084507 1.81086,1.006036 4.42656,-12.072435 -4.22535,11.871228 1.81087,0.402414 5.83501,-12.877263 -5.63381,12.877263 1.20725,0.804829 5.6338,-10.865191 -5.4326,11.267606 2.01208,1.006036 7.44466,-12.474849 -7.04225,12.474849 2.21328,1.207243 6.43863,-11.066398 -6.23742,11.468813 1.40845,1.207243 7.84708,-13.07847 -8.2495,12.676056 2.01208,1.408451 7.44466,-10.865192 -7.24346,10.462777 1.40845,1.408451 8.65192,-11.468813 -8.45071,11.066398 1.60966,1.609658 8.04829,-10.462776 -8.2495,10.261569 1.81087,2.012072 9.45674,-11.67002 -9.25554,11.468813 1.00604,1.006036 9.25553,-9.255533 -9.05432,9.054326 1.60966,1.609658 10.26157,-10.261569 -10.26157,10.261569 1.40845,1.810865 9.45674,-8.853118 -9.25554,9.255533 1.60966,1.408451 11.26761,-10.060363 -11.26761,10.060363 1.81087,1.810865 9.65794,-8.853119 -9.45674,8.651911 1.00604,1.408451 11.67002,-9.255533 -11.46881,9.45674 0.80483,1.408451 10.06036,-7.444668 -10.46278,7.847083 1.60966,2.012072 12.47485,-8.450704 -12.27364,8.651911 0.60362,1.408451 11.2676,-6.841046 -10.86519,6.237424 1.00604,2.012073 12.67606,-7.042254 -12.87727,6.841046 1.00604,2.414487 12.07243,-6.237424 -11.67002,5.83501 0.60362,2.21328 13.6821,-6.036218 -12.87727,5.83501 0.60363,2.012073 11.87122,-5.432596 -11.2676,5.633803 0.2012,1.408451 12.87727,-3.420523 -13.27968,3.822937 1.00604,2.615694 12.67605,-4.627766 -12.47485,4.426559 0.60363,1.810865 14.0845,-3.822937 -13.8833,4.024145 1.00604,1.810865 11.67002,-3.420523 -12.67606,4.225352 0.80483,1.609658 13.8833,-2.615695 -13.8833,2.615695 0.40242,1.810865 12.87726,-2.615694 -12.47485,2.414487 -0.20121,1.810865 14.08451,-1.207244 -14.48692,1.408451 0.20121,1.810865 13.27967,-0.402414 -14.0845,1.006034 1.00603,1.81087 15.69417,-0.20121 -15.09055,0.40241 0,2.01208 13.07848,0 -13.27968,0 0.2012,2.61569 14.88934,-0.20121 -14.68813,0.40242 0.20121,2.21328 12.67606,-0.40242 -12.47485,0.40242 -0.60363,2.01207 14.88934,0 -14.48692,0.20121 0.20121,1.20724 -0.20121,1.00604 12.27364,0 -12.47485,-0.20121 -0.20121,3.01811 15.09055,0.60362 -15.29175,-0.60362 -0.20121,2.01207 11.87123,1.20724 -11.0664,-0.60362 -1.00604,1.40845 14.88934,2.21328 -14.68813,-2.21328 -1.00604,2.01207 13.07847,2.41449 -12.87726,-2.21328 0,1.60966 14.08451,3.82294 -14.88934,-3.82294 -0.60362,1.40845 12.27364,4.02414 -11.87122,-3.82293 -1.40846,2.21328 14.28572,5.03018 -13.48089,-5.03018 -0.60362,2.41448 10.86519,4.22535 -10.86519,-4.62776 -1.00603,2.01207 13.48088,6.03622 -13.8833,-5.83501 -0.60362,2.41448 11.0664,4.82898 -11.67002,-4.62777 -1.20725,1.81087 14.08451,6.23742 -13.27968,-6.43863 -1.00603,1.81087 11.2676,7.04225 -11.0664,-7.04225 -1.20724,1.81086 12.07244,7.84708 -3.82294,0.60362 -10.06036,-6.84104 -1.60966,2.01207 12.27364,8.65191 -11.87123,-8.65191 -1.20724,1.40845 10.26157,7.44467 -9.65795,-7.04225 -1.60966,1.40845 11.46882,9.45674 -11.0664,-9.45674 -1.40845,1.20724 9.65794,9.05433 -9.25553,-9.25554 -2.21328,2.41449 11.0664,10.46278 -10.86519,-10.66399 -1.40845,1.00604 8.85312,9.25553 -8.04829,-8.85312 -2.81691,1.81087 9.45675,10.26157 -9.25554,-10.46278 -1.81086,1.60966 8.24949,9.25553 -8.4507,-10.06036 -1.40845,1.60966 9.05432,11.0664 -8.65191,-10.86519 -2.41448,1.00603 6.23742,10.26157 2.01207,0.80483 -7.64587,-11.0664 -2.41449,1.81087 8.45071,11.46881 -7.84709,-11.46881 -2.21328,0.80483 7.04226,10.66398 -7.04226,-10.66398 -2.01207,1.40845 7.64588,12.67605 -7.84709,-13.07847 -1.60965,0.80483 6.63983,11.87123 -5.83501,-11.67002 -2.41448,1.20724 6.43863,12.67606 -6.23742,-12.47485 -2.01208,1.00604 4.82898,10.86519 -4.62777,-10.26157 -2.01207,0.60362 5.23139,12.27364 -5.83501,-12.67606 -2.41449,1.00604 4.82897,11.87123 -4.22535,-11.67002 -2.21328,1.00603 4.62777,13.07847 -4.22535,-13.68209 -2.01208,0.80483 3.01811,11.67002 -2.8169,-11.46881 -3.01811,0 3.82294,14.08451 -3.21932,-13.8833 -2.41448,0.2012 2.61569,12.67606 -2.21328,-11.87123 -2.01207,0.40242 2.21328,13.68209 -2.41449,-14.28572 -2.21328,0 1.81087,12.47485 -1.20725,-12.47485 -2.61569,0.80483 0.60362,14.28572 -0.80483,-13.8833 -1.60966,0 -0.2012,12.27364 0.2012,-11.46881 -2.41448,-0.60362 0.40241,14.0845 -0.60362,-14.68813 -2.8169,0 0.40241,12.07244 0.20121,-12.27364 -2.21328,0 -0.40241,14.68812 0,-14.48692 -2.615702,0.20121 0,12.47485 0.20121,-12.87726 -2.8169,0 0,14.48692 0.2012,-14.28572 -1.81086,-0.2012 -1.20724,10.66398 1.40845,-10.66398 -2.01208,-0.20121 -2.414478,14.28571 2.615688,-14.28571 -2.41449,-0.20121 -1.810858,11.67002 2.414488,-11.46881 -2.816898,-1.40845 -2.81691,14.88933 2.81691,-14.88933 -2.6157,-0.60362 -2.8169,11.87122 3.01811,-12.07243 -2.01207,-0.40242 -3.82294,14.08451 4.22535,-14.88933 -1.40845,-0.20121 -4.82897,11.67002 4.42655,-11.0664 -2.41448,-0.40241 -4.82898,13.07847 5.4326,-13.48089 -2.41449,-0.80483 -5.03018,10.86519 4.82898,-10.66398 -2.01208,-0.80483 -6.03621,12.47485 6.43863,-12.87726 -2.6157,-0.80483 -5.43259,11.2676 5.43259,-11.67002 -1.60965,-0.80483 -6.43864,12.67606 6.84105,-12.87726 -2.21328,-0.80483 -6.84105,10.66398 6.84105,-10.66398 -1.60966,-1.20725 -8.24949,11.26761 8.24949,-10.86519 -1.81086,-1.40845 -6.63984,8.4507 7.04225,-8.4507 -1.60966,-1.40845 -9.65794,10.86519 9.25553,-11.0664 -1.81087,-1.40845 -7.84708,9.25553 8.2495,-9.45674 -1.60966,-1.40845 -10.06036,10.66399 10.26157,-10.46278 -1.81087,-1.40845 -8.24949,8.65191 7.84708,-8.2495 -1.81087,-1.60966 -10.26157,9.05433 10.46278,-9.05433 -1.60966,-2.01207 -8.24949,7.84708 8.24949,-7.64587 -1.40845,-1.40845 -10.46278,8.85312 10.8652,-8.45071 -1.40845,-3.01811 -9.85916,7.84709 10.06036,-7.64588 -1.20724,-2.01207 -12.07244,8.04829 12.07244,-8.04829 -1.00604,-1.20724 -10.86519,6.63983 10.46278,-6.63983 -1.20725,-1.81087 -12.47484,8.04829 12.47484,-8.4507 -1.20724,-1.81087 -10.46278,6.23743 10.66399,-6.23743 -1.81087,-2.21328 -12.27364,7.04225 12.47485,-6.63983 -1.60966,-2.01208 -10.46277,5.63381 11.87122,-6.03622 -1.40845,-1.60966 -12.87726,5.4326 12.87726,-5.4326 -1.20724,-1.81086 -11.46881,3.82293 11.67002,-3.82293 -0.40242,-2.21328 -13.8833,5.43259 14.08451,-4.82897 -0.40242,-2.21328 -11.87122,3.21931 10.26157,-3.42052 0,-2.41449 -13.48089,4.42656 13.8833,-4.02414 -0.40241,-2.6157 -12.67606,3.21932 12.67606,-2.41449 -0.20121,-1.81086 -14.28571,1.81086 13.8833,-1.60965 0.40241,-2.6157 -13.07847,0.60362 12.87726,0 -0.40241,-2.21328 -14.28572,0.40242 13.07847,-0.40242 0.40242,-2.41448 -12.07244,0.20121 12.27365,-0.40242 0,-2.21328 -14.48693,0 14.28572,0 0.40241,-2.8169 -12.67605,0.60362 12.67605,-0.60362 -0.2012,-2.61569 -15.29175,0.40241 15.29175,-0.20121 -1.00604,-2.41448 -11.87123,-0.40242 13.6821,0 -0.60363,-2.41448 -15.09054,0 14.48692,0.40241 0,-1.81086 -11.67002,-0.804834 12.07244,0.603621 -0.40242,-2.012072 -13.07847,-1.408451 14.28572,2.21328 0,-2.21328 -11.26761,-2.816901 11.46881,3.018109 0,-2.816902 -14.68813,-3.018108 14.88934,2.816901 0.40241,-2.012073 -12.67605,-3.822937 12.87726,4.225352 0.40242,-3.420523 -13.27968,-2.816902 13.48088,3.822938 0.80483,-2.414487 -12.07243,-3.219316 11.87122,3.219316 0.80483,-2.012072 -13.27967,-4.225352 13.07847,4.225352 1.40845,-1.207244 -11.46882,-5.432595 10.8652,5.432595 1.40845,-2.615694 -12.47485,-5.633803 12.27364,5.83501 0.40241,-2.213279 -9.65794,-6.237425 9.45674,6.237425 -0.40242,-2.816902 -10.06036,-5.432595 11.67002,6.036217 2.8169,-1.207244 -11.0664,-6.841046 10.66399,6.639839 1.20724,-1.810865 -12.47485,-7.645875 12.07244,7.645875 1.60965,-1.609658 -10.46277,-7.042253 10.46277,6.841046 1.40845,-1.207244 -11.67002,-8.853118 11.26761,8.651911 0.80483,-1.207243 -9.05433,-8.249497 9.25554,8.249497 1.81086,-3.018109 -10.46278,-8.450704 10.06037,9.054326 1.20724,-2.21328 -8.65191,-7.847082 8.2495,8.249497 2.8169,-1.408451 -10.66399,-10.060362 10.26157,10.261569 1.40845,-2.012072 -8.4507,-8.651912 8.4507,9.255533 2.01208,-1.810865 -9.85916,-11.267605 8.85312,10.865191 2.61569,-1.207244 -8.24949,-9.255533 7.04225,9.255533 3.01811,-1.609658 -9.45674,-10.663984 9.45674,10.462777 1.60966,-0.603622 -6.63984,-10.060362 5.43259,10.060362 2.6157,-1.609658 -7.84708,-11.468812 7.84708,11.871227 2.41448,-1.408451 -6.63983,-10.865191 6.63983,11.066398 1.81087,-1.40845 -6.43863,-12.273642 6.23742,12.474849 2.01207,-1.006036 -5.6338,-10.663984 5.4326,10.663984 2.61569,-1.006036 L 72.29671,39.08978 77.5281,50.961007 79.33896,50.357386 74.9124,39.08978 79.33896,50.7598 81.55224,49.753764 76.72327,36.8765 l 5.03018,13.279678 2.21328,-0.804829 -4.22535,-11.468813 4.42656,11.267606 2.21328,0 -5.63381,-14.084507 6.03622,13.8833 1.81087,-1.207244 -3.62173,-11.468812 2.41448,11.67002 3.018108,-1.207244 -3.018108,-14.084507 2.414488,14.688129 1.60966,-0.201207 -1.20725,-12.676057 1.81087,12.676057 2.01207,-0.201208 -2.01207,-14.889336 1.20724,14.285715 2.8169,0 -1.40845,-12.072435 0.80483,12.072435 2.6157,0 z"
     id="path3887"
     inkscape:connector-curvature="0" />
</svg>
