<?xml version="1.0" encoding="utf-8"?>
<!-- Generator: Adobe Illustrator 22.0.1, SVG Export Plug-In . SVG Version: 6.00 Build 0)  -->
<svg version="1.1" id="Слой_1" xmlns="http://www.w3.org/2000/svg" xmlns:xlink="http://www.w3.org/1999/xlink" x="0px" y="0px"
	 viewBox="0 0 127.3 127" style="enable-background:new 0 0 127.3 127;" xml:space="preserve">
<style type="text/css">
	.st0{fill:url(#SVGID_1_);}
	.st1{fill:#FFFFFF;}
	.st2{clip-path:url(#SVGID_3_);fill-rule:evenodd;clip-rule:evenodd;fill:#61AFE3;}
	.st3{clip-path:url(#SVGID_3_);fill:none;stroke:#61AFE3;stroke-width:0.724;}
	.st4{fill-rule:evenodd;clip-rule:evenodd;fill:#FCC900;}
	.st5{fill-rule:evenodd;clip-rule:evenodd;fill:#FFFFFF;}
	.st6{fill-rule:evenodd;clip-rule:evenodd;fill:#FFC900;}
	.st7{clip-path:url(#SVGID_5_);fill:none;stroke:#FCC900;stroke-width:0.9297;stroke-linecap:round;}
	.st8{clip-path:url(#SVGID_5_);fill:none;stroke:#FFC900;stroke-width:5.8829;}
	.st9{clip-path:url(#SVGID_5_);fill:none;stroke:#FFFFFF;stroke-width:1.9006;}
</style>
<radialGradient id="SVGID_1_" cx="64.8" cy="-2458.7468" r="62.6" gradientTransform="matrix(1 0 0 -1 0 -2394.3469)" gradientUnits="userSpaceOnUse">
	<stop  offset="0.9487" style="stop-color:#212121"/>
	<stop  offset="1" style="stop-color:#606060;stop-opacity:0"/>
</radialGradient>
<circle class="st0" cx="64.8" cy="64.4" r="62.6"/>
<circle class="st1" cx="62.6" cy="62.6" r="62.6"/>
<g>
	<g>
		<defs>
			<rect id="SVGID_2_" x="18.4" y="18.5" width="88.7" height="88"/>
		</defs>
		<clipPath id="SVGID_3_">
			<use xlink:href="#SVGID_2_"  style="overflow:visible;"/>
		</clipPath>
		<path class="st2" d="M31.7,74.2c-2.1,18.9,14.3,32.9,31.2,22.9c16.8,9.9,33.2-4,31-22.9c12.6-14,7.8-35.1-11.8-36.9
			c-9.6-16.5-30.9-18-38.5,0C24.1,39.3,19,60.2,31.7,74.2L31.7,74.2z M31.7,74.2"/>
		<path class="st3" d="M31.6,74.1c-2.1,18.9,14.3,33.1,31.1,23.1c16.8,9.9,33.6-4.2,31.4-23.1c12.6-14,7.6-34.9-12-36.8
			c-9.6-16.5-30.9-18-38.5,0C23.9,39.3,18.6,60,31.6,74.1L31.6,74.1z M31.6,74.1"/>
	</g>
	<path class="st4" d="M50.6,71.7c2.9,0.4,4.9-1.4,6.7-3.6h4.4l0.2,3.5h7.9l-0.1-2.3l1.7-0.2c0.4,0.7,1,0.6,1.7,0.4h5L77.7,70
		l-3.4,0.1l-1.2,1.2c-0.8,0.6-1.3,1.1,0.1,1.4c1.6,0.4,3.1,0.3,4.7,0l3.8-2.2l1.6-2.5c-0.1-0.9-1.5-1.9-3.3-1.7l-4.6,0.2
		c0.6-1.1,1.5-2.1,1.5-3.3l0.1-2.2c3.2,0.3,5.7-0.5,7.9-1.9c0.9,0.3,1.8,0.5,2.4,0c1.4-0.5,1.4-1.4,0.8-2.6
		c-0.7-0.1-1.2-0.7-1.4-1.5c-0.1-0.5-1.9,0-2.6-0.9l-1.7-0.9l-0.2-1.4l-1.3,0.8l-0.3-1.3l-2.3,1.7c-1.5,0-3-0.1-3.5,1.1l-2.3,1.2
		l-2.1,1.7c-0.6,0.2-1.2,0.6-1.7-0.2l-1.1-0.9l-0.2-3.5c0.9-0.2,1.2-0.7,0.8-2.3l0.4-2.4c-1.6,0.6-2.2-0.3-2.7-1.3
		c0.1-1-0.9-0.7-1.2-0.1l0.2,1.3c-0.6,0.1-1.5,0.1-0.8,1c0.1,0.7,0.4,1.5-0.8,1.2c-0.9-0.2-1.8-1-2.4,0.1c-0.3,0.4-0.3,0.7,0.3,0.9
		c0.4,0.4,0.4,0.7-0.1,0.9c-0.2,1,0.6,1.2,1.4,1.2c0.9-0.5,1.8-1,2.4-0.9c-0.9,0.9-1.9,2.6-2.8,4l0.5,2.5c-0.7,0.1-1.7-0.1-1.4,1.1
		c0.3,0.9-0.4,0.8-1.1,0.7c-1.8-0.3-3.6-0.6-5.5,0.2c-1.4,1.3-2.5,1.3-3.9,0.5l-4.9-0.3c-1.3,1-2.7,0.4-4,0.3l-4.8-0.1
		c0.1,2.9,2.6,3.2,4.6,4.2c2.2,0.1,4.3-0.2,6.2-1.2l2.8-0.5c0.9,0.1,1,0.4,0.3,1l-0.8,1.7c-0.8,1.2-1.6,2.3-2.5,2.4
		c-0.9-0.2-1.5,0.1-1.9,0.9l-1.2,1.9c-0.5,0.6-1,0.7-1.6,0.2c-0.3,0.3-0.8,0.1-1.2-0.2L40.6,73c-0.7,0.9,0.3,1,1.3,1.1
		c1.5,0.1,3.1,0.7,4-0.9c-0.6,0.7-1.4,1.5,0.1,1.4C50,75.3,49.6,73,50.6,71.7L50.6,71.7z M50.6,71.7"/>
	<path class="st5" d="M46,95.6l-6.3-7V81h3.9c1.7-0.6,0.3-0.9-0.4-1.2c-5.8,0.3-8.3-1.6-8.3-5l4.4,0.1c-0.9,3.5,2.5,3.4,4.9,4.1
		c2.6,0,5.8,1.6,0,4.1l0.1,1.4c9.3-5.4,26.9-5.7,37.2,0.2V83c-5.8-2.5-2.6-4.1,0-4.1c2.4-0.7,5.8-0.6,4.9-4.1l4.4-0.1
		c0,3.4-2.5,5.3-8.3,5c-0.7,0.4-2.1,0.7-0.4,1.2h3.9v7.6l-6.3,7C70.5,89.9,56.5,88.8,46,95.6L46,95.6z M46,95.6"/>
	<path class="st6" d="M45.6,86.8l5.7-2.1l0.4,1.2l-2.1,0.8l1.8,5l-1.6,0.6l-1.8-5L46.1,88L45.6,86.8 M57,89.1
		c0.4-0.1,0.6-0.2,0.7-0.3c0.1-0.2,0.2-0.4,0.2-0.7c0-0.3-0.2-0.5-0.3-0.6c-0.2-0.1-0.4-0.1-0.8-0.1l-1,0.2l0.3,1.6L57,89.1
		 M59.5,87.8c0.1,0.7,0,1.2-0.4,1.6c-0.4,0.4-1,0.7-1.9,0.8l-2.8,0.4l-1-6.5l1.7-0.3l0.4,2.5l1.1-0.2c0.8-0.1,1.5-0.1,2,0.2
		C59.1,86.7,59.4,87.1,59.5,87.8 M61.3,83.3l1.7,0l0,6.6l-1.7,0L61.3,83.3 M67.8,86.2c0.3,0,0.5,0,0.6-0.1c0.2-0.1,0.2-0.3,0.3-0.5
		c0-0.2,0-0.4-0.1-0.5c-0.1-0.1-0.3-0.2-0.6-0.3l-0.9-0.1l-0.2,1.4L67.8,86.2 M67.5,89.1c0.3,0,0.6,0,0.8-0.1
		c0.2-0.1,0.3-0.3,0.3-0.6c0-0.3,0-0.5-0.2-0.7c-0.2-0.2-0.4-0.3-0.7-0.3l-1-0.1l-0.2,1.7L67.5,89.1 M69.4,86.9
		c0.3,0.2,0.6,0.4,0.8,0.7c0.2,0.3,0.2,0.7,0.2,1.1c-0.1,0.6-0.4,1.1-0.8,1.3c-0.5,0.3-1.1,0.3-2,0.2l-2.8-0.4l0.8-6.5l2.5,0.3
		c0.9,0.1,1.5,0.3,1.9,0.7c0.4,0.3,0.5,0.8,0.4,1.4c0,0.3-0.1,0.6-0.3,0.8C69.9,86.7,69.7,86.8,69.4,86.9 M75.7,90.8l-2.6-0.7
		l-0.7,1l-1.6-0.5l4.1-5.7l2,0.5l0.6,7l-1.6-0.5L75.7,90.8 M73.9,89l1.7,0.5l-0.2-2.8L73.9,89z M73.9,89"/>
	<path class="st4" d="M89.7,36.6c0,3.6-2.9,6.5-6.5,6.5c-3.6,0-6.5-2.9-6.5-6.5c0-3.6,2.9-6.5,6.5-6.5l0.2,6.4L89.7,36.6z
		 M89.7,36.6"/>
	<g>
		<defs>
			<rect id="SVGID_4_" x="18.4" y="18.5" width="88.7" height="88"/>
		</defs>
		<clipPath id="SVGID_5_">
			<use xlink:href="#SVGID_4_"  style="overflow:visible;"/>
		</clipPath>
		<path class="st7" d="M67.4,28.6l13.1,6.9 M66.1,32.2l14.3,3.8 M67.8,35.5l12.2,1H80 M67.7,38.1l12.5-0.8 M66.1,41.8l13.1-3.7
			 M68,44.2L80,38.9 M70.6,46.6l10.3-8 M75.2,46.6l6.4-7.3 M77.4,47.9l4.8-8.2 M79.7,48.8l2.9-8.5 M82.4,49.4l0.4-8.3 M93.6,47
			l-6.8-7.1 M96,45.6l-8.2-6 M92.5,49.5l-6.3-9 M89.8,51l-4.3-10.1 M87.1,50.9l-2.5-9.7 M84.6,51.3l-0.8-10"/>
		<path class="st8" d="M41.5,34.6c6.9-14.6,27.7-20.3,43.4,0c16.2,2.3,26.7,21.7,12.5,40.6c0.2,23.4-18.3,33.1-34.7,25.6
			C46,108.7,28.4,99,28.4,75.3C12.4,55.3,26.3,35.8,41.5,34.6L41.5,34.6z M41.5,34.6"/>
		<path class="st9" d="M41.5,34.6c6.9-14.6,27.7-20.3,43.4,0c16.2,2.3,26.7,21.7,12.5,40.6c0.2,23.4-18.3,33.1-34.7,25.6
			C46,108.7,28.4,99,28.4,75.3C12.4,55.3,26.3,35.8,41.5,34.6L41.5,34.6z M41.5,34.6"/>
	</g>
	<path class="st5" d="M50.6,62c-1.5-0.1-3.1-0.2-4.6-0.4c-1,0.5-2,0.5-2.9,0.3c-0.9-0.3-1.5-0.2-1.9-0.2c-1.2,0-2.4-0.1-3.6-0.1
		c1.2,0.4,2.4,0.7,3.6,0.6c0.8,0,1.4,0,1.7,0.2c1,0.8,2,0.5,3.2-0.2C47.6,62.1,49.1,62.1,50.6,62L50.6,62z M50.6,62"/>
	<path class="st5" d="M42,71.7c-1.1,1.1-1.5,1.8-1.2,1.9c0.4,0,0.7,0.1,1.1,0.1c0.2-0.7,0.6-1.2,1-1.7C42.6,72.1,42.3,72,42,71.7
		L42,71.7z M42,71.7"/>
	<path class="st5" d="M46.6,73c-1.2,0.9-1.3,1.3-0.9,1.4c0.3,0.1,0.4,0,0.6,0c0.4-0.4,0.7-0.8,1.1-1.2C47,73.2,46.6,73.2,46.6,73
		L46.6,73z M46.6,73"/>
	<path class="st5" d="M57.2,66.7c-2.5,3.4-4.7,5.4-8.7,4.1c-0.7-0.8-1.7,0.4-1.9,1c-0.7,1.7-1.9,2.5-3.7,2c1.9,0.2,2.9-0.4,3.4-2
		c0.6-1.7,2.2-2.6,2.6-1.7C51.9,71.4,54.6,68.7,57.2,66.7L57.2,66.7z M57.2,66.7"/>
	<path class="st5" d="M48.5,71.1c0.4,0.9,0.2,1.6-1,2C48.2,72.5,48.4,71.8,48.5,71.1L48.5,71.1z M48.5,71.1"/>
	<path class="st5" d="M75.3,66.9c4.2-0.4,5.9-0.3,5.6-0.1C80.5,66.7,78.8,67,75.3,66.9L75.3,66.9z M75.3,66.9"/>
	<path class="st5" d="M75.3,67.3c4.8-0.2,5.5,0.2,6.3,0.8c-0.4,0.7,0.1,1.3-0.4,2c-1.2,0.6-2.3,1.4-3.5,2c-1.8,0.3-2.3,0.1-3.3-0.1
		l1.2-1.6c-0.4,0-0.8,0-1.2,0c-0.5,0.6-1.1,1.1-1.6,1.7c1.2,0.6,2.9,0.7,5.1,0.2c1.2-0.7,2.4-1.4,3.6-2.1c0.5-0.8,1-1.6,1.5-2.4
		C82.6,67,80.1,67,75.3,67.3L75.3,67.3z M75.3,67.3"/>
	<path class="st5" d="M71.7,68.4c0.3,0.8,0.9,0.9,1.8,0.4C72.9,68.8,72.3,68.7,71.7,68.4L71.7,68.4z M71.7,68.4"/>
	<path class="st5" d="M73.5,67.7c2.5-2.2,3.4-4.4,3-6.5c-0.4-0.2-0.7-0.2-0.7,0.1C75.4,63.1,75,65.8,73.5,67.7L73.5,67.7z
		 M73.5,67.7"/>
	<path class="st5" d="M82.2,53.4c0-0.6-0.1-0.8-0.1-1.1l-1.2,0.8l-0.4-1.3c-0.6,0.5-1.3,0.9-1.9,1.4C79.8,53.1,81,53.2,82.2,53.4
		L82.2,53.4z M82.2,53.4"/>
	<path class="st5" d="M74,59.5c0.1,0.1,0.1,0.2-0.1,0.3c4.7,1.3,8.3,0.9,10.7-1.5c0-0.1,0-0.2,0-0.3C81.9,59.8,78.3,60.3,74,59.5
		L74,59.5z M74,59.5"/>
	<path class="st5" d="M84.7,58.2c0.3-1,1.2-1.8,2.1-2.8c-0.3-0.1-1.1-0.4-1.2-0.4c-0.8,1.1-0.9,2.3-1.2,3.2
		C84.5,58.3,84.6,58.3,84.7,58.2L84.7,58.2z M84.7,58.2"/>
	<path class="st5" d="M85.4,57.2c1.2,0.2,1.9,0.5,2.9,0.8c0,0.1-0.2,0.5-0.2,0.6l-2.9-0.8L85.4,57.2z M85.4,57.2"/>
	<path class="st5" d="M77.6,59.5c1.6-0.8,2.5-1.3,3.8-1.5c0.3,0.3,1.2,0.2,2.5,0.3c-1.4-0.4-2.5-0.9-2.7-1.1
		C79.1,57.7,78.4,58.8,77.6,59.5L77.6,59.5z M77.6,59.5"/>
	<path class="st5" d="M82.3,54.8c0.6-0.3,1-0.2,1.2,0.4C83.2,55.4,82.5,55.4,82.3,54.8L82.3,54.8z M82.3,54.8"/>
	<path class="st5" d="M71.1,57.3c0.1-0.2,0.7-0.7,1.7-1.4c0.8-0.4,1.6-0.9,2.4-1.3c0.3-0.7,1.3-1.1,3-1c-1.1,1.3-1.2,2.3-0.9,2.8
		c-1.7,1.5-3.4,2.1-4.7,2.2c2.5-1.1,3.7-1.9,3.7-2.7c0-0.7,0.4-1.4,1.4-2.1c-1.2,0.1-1.9,0.6-2.1,1.4C74.3,55.3,72.7,55.9,71.1,57.3
		L71.1,57.3z M71.1,57.3"/>
	<path class="st5" d="M71.7,57.3c-0.6,0.4-1,0.8-1,1.2c1,0.1,1.8-0.1,2.5-0.7c-1.1,0.5-1.5,0.5-1.9,0.4C71.3,58,71.2,57.8,71.7,57.3
		L71.7,57.3z M71.7,57.3"/>
	<path class="st5" d="M69.1,66.8l0.3,4.4l-7,0l-1.2-9.4l0.9-0.2l0.6,9.3l6.3,0l-0.7-3.9L69.1,66.8z M69.1,66.8"/>
	<path class="st5" d="M61.1,61.2c-3-0.8-5-0.9-6.2-0.2c-0.4,0.8-2,1.5-2.9,1.1c1,0.6,2.4,0.8,3.5-0.3C56.2,61.2,57.8,60.7,61.1,61.2
		L61.1,61.2z M61.1,61.2"/>
	<path class="st5" d="M41.9,64.9c2.1,0.2,4-0.3,5.7-1.4c-1.6,0.6-4.5,0.5-6.3,0.8C41.1,64.3,41.8,64.7,41.9,64.9L41.9,64.9z
		 M41.9,64.9"/>
	<path class="st5" d="M84.5,56.8c-2-0.6-3.1-0.7-3.4-0.7c1.1,0.4,2.2,0.9,3.3,1.3C84.4,57.2,84.5,56.9,84.5,56.8L84.5,56.8z
		 M84.5,56.8"/>
	<path class="st5" d="M64.4,49.6c1.9,0.9,3.1,0.5,3.4,0.1c0.1-0.2,0.1-0.3,0.1-0.4C67.4,49.8,66.4,49.9,64.4,49.6L64.4,49.6z
		 M64.4,49.6"/>
	<path class="st5" d="M65,46.4c0.5-0.5,0.7-0.4,0.6,0.3c0.1,0.4,0.5,0.8,1.1,1.4C65.7,47.6,65,47.2,65,46.4L65,46.4z M65,46.4"/>
	<path class="st5" d="M63.9,50.5c-2-1-2.6-0.8-2.7,0.3C61.5,50.1,62.8,50.2,63.9,50.5L63.9,50.5z M63.9,50.5"/>
	<path class="st5" d="M62.4,59.2c0.1,1.8,0.1,3.5,3.6,3.9c0.1-0.2,0.2-0.4,0-0.5C63.9,61.7,63,60.7,62.4,59.2L62.4,59.2z M62.4,59.2
		"/>
	<path class="st5" d="M63.4,67.9c1.6-1.2,2.6-2.9,2.1-4.4c-0.1-0.2-0.6-0.1-0.7-0.3C65,65,64.5,66.6,63.4,67.9L63.4,67.9z
		 M63.4,67.9"/>
	<path class="st5" d="M67.5,59.3c2.4,1.9,3.4,3,3.4,3.1l-1.3,0.3L67.5,59.3z M67.5,59.3"/>
	<path class="st5" d="M69.6,62.7c-0.9,1.5-1.3,3-2.2,4.5c1.7-1.5,3-3.1,3.5-4.7C70.7,62.3,69.7,62.5,69.6,62.7L69.6,62.7z
		 M69.6,62.7"/>
	<path class="st5" d="M63.9,68.1c-0.1,0.5-0.4,1.3-0.8,2.1c0.4,0,0.9,0.1,1.3,0.1c0.2,0,1.1,0,1.8,0.1c0.9,0.2,2.1-0.2,1.2-1.3
		C67,69.1,66.4,69,66,68.9l0.3-0.8c-0.6,0.4-1.1,0.8-1,1c0.5,0.2,1.2,0.2,1.6,0.4c0.2,0.3,0.2,0.6,0,0.7c-0.6-0.3-1.4-0.3-2.4-0.1
		c-0.3,0-0.6-0.1-0.9-0.1C64.2,69.3,64.4,68.7,63.9,68.1L63.9,68.1z M63.9,68.1"/>
	<path class="st5" d="M66,56.1l-0.5-1.3l-0.2,1.5L66,56.1z M66,56.1"/>
	<path class="st5" d="M65.2,56.3c0.7,0.5,1.4,1,2.1,1.5L66,56.1C65.9,55.9,65.4,56.1,65.2,56.3L65.2,56.3z M65.2,56.3"/>
	<path class="st5" d="M67.9,58.1c0.6,0.2,1.1,0.2,1.6,0.1c0.1,0.1,0.3,0.3,0.2,0.3C69.2,58.8,68.2,58.6,67.9,58.1L67.9,58.1z
		 M67.9,58.1"/>
	<path class="st5" d="M69.8,58.2c0.1,0,0.2,0.1,0.3,0.1c0.6-0.2,0.7-0.6,0.4-1C70.4,57.7,70.1,58,69.8,58.2L69.8,58.2z M69.8,58.2"
		/>
	<path class="st5" d="M62.8,59c1.5,0.7,3,0.7,4.2,0.1c-0.1-0.2-0.1-0.2-0.3-0.3C65.5,58.9,63.9,59.1,62.8,59L62.8,59z M62.8,59"/>
	<path class="st5" d="M64.6,50.7c-0.1,0.3,0,0.6,0.2,1c-1.1,0.2-1.8,0.5-2.2,0.9c-0.6,0-1-0.2-1-0.5c0.6,0.1,1,0.2,1.1,0.1
		c0.8-0.6,1.4-0.8,1.8-0.6C64.3,51.4,64.4,51.1,64.6,50.7L64.6,50.7z M64.6,50.7"/>
	<path class="st5" d="M65.2,52.3c0.4,0.4,1.1,0.5,1.9,0.5C65.4,53.4,64.8,53.2,65.2,52.3L65.2,52.3z M65.2,52.3"/>
</g>
</svg>
