<?xml version="1.0" encoding="utf-8"?>
<!-- Generator: Adobe Illustrator 22.0.1, SVG Export Plug-In . SVG Version: 6.00 Build 0)  -->
<svg version="1.1" id="Слой_1" xmlns="http://www.w3.org/2000/svg" xmlns:xlink="http://www.w3.org/1999/xlink" x="0px" y="0px"
	 viewBox="0 0 127.3 127" style="enable-background:new 0 0 127.3 127;" xml:space="preserve">
<style type="text/css">
	.st0{fill:url(#SVGID_1_);}
	.st1{fill:#FFFFFF;}
	.st2{fill-rule:evenodd;clip-rule:evenodd;fill:#009FE0;}
	.st3{fill-rule:evenodd;clip-rule:evenodd;fill:#FFDC00;}
	.st4{fill-rule:evenodd;clip-rule:evenodd;fill:#FFFFFF;}
	.st5{fill-rule:evenodd;clip-rule:evenodd;fill:#E21C2A;}
</style>
<radialGradient id="SVGID_1_" cx="64.8" cy="2586.7468" r="62.6" gradientTransform="matrix(1 0 0 1 0 -2522.3469)" gradientUnits="userSpaceOnUse">
	<stop  offset="0.9487" style="stop-color:#212121"/>
	<stop  offset="1" style="stop-color:#606060;stop-opacity:0"/>
</radialGradient>
<circle class="st0" cx="64.8" cy="64.4" r="62.6"/>
<circle class="st1" cx="62.6" cy="62.6" r="62.6"/>
<g>
	<path class="st2" d="M62.9,16c25.7,0,46.5,20.8,46.5,46.5c0,25.7-20.8,46.5-46.5,46.5S16.4,88.2,16.4,62.5
		C16.4,36.9,37.2,16,62.9,16L62.9,16z M62.9,16"/>
	<path class="st3" d="M62.9,18.2c24.5,0,44.3,19.9,44.3,44.3s-19.9,44.3-44.3,44.3S18.6,87,18.6,62.5S38.4,18.2,62.9,18.2L62.9,18.2
		z M62.9,18.2"/>
	<path class="st2" d="M62.9,28.1c19,0,34.5,15.4,34.5,34.5c0,19-15.4,34.5-34.5,34.5S28.5,81.6,28.5,62.5
		C28.5,43.5,43.9,28.1,62.9,28.1L62.9,28.1z M62.9,28.1"/>
	<path class="st4" d="M62.9,39.2c12.9,0,23.3,10.4,23.3,23.3S75.8,85.9,62.9,85.9S39.6,75.4,39.6,62.5S50,39.2,62.9,39.2L62.9,39.2z
		 M62.9,39.2"/>
	<path class="st3" d="M44.5,84.7c-2.4-1.1-2.2-4-1.9-6.3c1.5,1.9,2.7,3.8,2.1,6.3C44.6,84.6,44.6,84.6,44.5,84.7L44.5,84.7z
		 M42.2,83c-0.4-0.3-0.6-0.5-1.1-0.6c0-0.1,0.8-0.6,1-0.9C42.1,82,42.2,82.6,42.2,83L42.2,83z M38.7,82.1c-2-0.7-2.9-1.9-4-3.7
		c-0.3-0.6-0.3-0.6-0.3-1c1.8,1.3,4.2,1.7,5.7,3.5c0.3,0.7,0.3,0.7,0.3,0.8C39.9,82,39.4,82,38.7,82.1L38.7,82.1z M41.4,81
		c-1.5-1.1-1.5-1.9-1.5-3.8c0.4-2.6,0.4-2.6,0.5-2.8c1.1,2.1,2.2,4.1,1.1,6.5C41.5,81,41.4,81,41.4,81L41.4,81z M39.1,79
		c-0.4-0.3-0.6-0.4-1.1-0.6c0.3-0.2,0.6-0.5,1-0.7C39,78.3,39.1,78.9,39.1,79L39.1,79z M36.1,77.6c-2.3-0.8-3.8-3.2-4.1-5.6
		c0.9,1.2,2.1,1.8,3.3,2.6c0.9,0.7,2,1.6,1.9,2.9C36.7,77.6,36.7,77.6,36.1,77.6L36.1,77.6z M38.4,77.1c-0.9-1.1-1-1.5-1-3
		c0.2-0.8,0.7-3.3,1.4-3.7C39.4,72.8,40,75.1,38.4,77.1L38.4,77.1z M36.5,74.5c-0.2-0.4-0.5-0.6-0.9-0.9c0.9-0.3,1-0.3,1.2-0.3
		C36.6,73.7,36.6,74.1,36.5,74.5C36.5,74.5,36.5,74.5,36.5,74.5L36.5,74.5z M34.3,72.7c-2.3-0.9-3.6-3.9-3.3-6.3
		c0.5,0.8,0.5,0.8,1.2,1.6c1.5,1.4,3,2.4,3.1,4.6C35,72.6,34.6,72.7,34.3,72.7L34.3,72.7z M36.5,72.6c-1.8-1.8,0.1-4.9,1.3-6.6
		c0.4,2.1,0.4,3.8-0.5,5.7C36.9,72,36.7,72.3,36.5,72.6L36.5,72.6z M35,69.7c-0.2-0.4-0.6-0.6-0.7-0.9c0.8-0.1,0.8-0.1,1.2-0.3
		c-0.2,0.5-0.3,0.7-0.4,1.2C35.1,69.7,35.1,69.7,35,69.7L35,69.7z M33.8,68.1c-2.2-0.7-2.6-2.2-3-4.4c0-1.9,0-1.9,0.1-2.5
		c0,0,0.1,0,0.1,0.1c0.8,1.9,2.5,3.3,3.1,5.3c0,0.5,0,1,0,1.5C34,68.1,33.9,68.1,33.8,68.1L33.8,68.1z M35.1,68
		c-0.5-1.4-0.5-2,0.1-3.4c0.6-0.8,0.6-0.8,2.2-2.9c0,0,0.1,0,0.1,0.1C37.5,63.9,37.3,67,35.1,68L35.1,68z M34.1,64.9
		c0-0.5-0.3-0.7-0.5-1c0.4,0,0.8-0.1,1.3-0.1c-0.3,0.4-0.5,0.7-0.6,1.1C34.2,64.9,34.2,64.9,34.1,64.9L34.1,64.9z M34.6,63.2
		c-0.3-1.5-0.1-2.2,0.8-3.4c1.5-1.4,1.5-1.4,2.6-2.3C37.9,59.4,36.8,62.6,34.6,63.2L34.6,63.2z M33.3,62.9c-2.8-1.2-2.2-4.8-1.6-7.2
		c0,0,0.1,0,0.1,0c0.4,1.9,1.6,3.6,2.1,5.4c0,0.6,0,1.1-0.1,1.7C33.5,62.8,33.4,62.9,33.3,62.9L33.3,62.9z M34.2,59.8
		c0-0.4-0.2-0.7-0.4-1.1c1.2,0,1.2,0,1.3,0.1c-0.4,0.4-0.6,0.6-0.7,1C34.3,59.8,34.2,59.8,34.2,59.8L34.2,59.8z M35.2,58.3
		c-0.2-1.6,0.1-2.2,1.2-3.3c0.6-0.4,2.4-1.9,3-1.9C38.7,55.3,37.6,57.8,35.2,58.3L35.2,58.3z M34.1,57.9c-2.2-1.1-2-3.6-1.5-5.6
		c0.7-1.8,0.7-1.8,0.7-1.8c0,0,0.1,0.1,0.1,0.1c0.1,1.7,0.7,3.3,1.2,4.9C34.6,56.1,34.7,57.6,34.1,57.9L34.1,57.9z M35.2,54.8
		c0-0.3-0.3-1-0.2-1.2c0.4,0.1,0.8,0.2,1.2,0.4C35.7,54.2,35.7,54.2,35.2,54.8L35.2,54.8z M36.5,53.3c0.2-2.8,2.7-3.3,5-4.1
		c0.1,0,0.1,0,0.2,0C40.3,51.3,39.1,53.2,36.5,53.3L36.5,53.3z M35.3,53c-2.6-1.8-0.7-5.6,0.7-7.5c0,0.7,0,1.4,0,2.2
		C36.1,48.6,36.9,52.6,35.3,53L35.3,53z M37,50.2c0.1-0.4,0.1-0.4,0.1-1.3c0.3,0.3,0.3,0.3,1.1,0.6C37.7,49.6,37.4,49.9,37,50.2
		L37,50.2z M38.6,49c0.3-2.7,3.6-2.9,5.7-3.3c-1,1.3-1.1,1.3-1.3,1.5C41.4,48.5,40.6,48.8,38.6,49L38.6,49z M37.6,48.3
		c-1.2-1.4-1-2.6-0.3-4.4c0.6-1.1,1.4-2,2.2-3c0,0.7-0.3,1.5-0.4,2.3C39,44.6,39.2,47.7,37.6,48.3L37.6,48.3z M39.7,46.1
		c0.1-0.3,0.3-0.9,0.3-1.3c0.1,0,0.5,0.4,1,0.8C40,45.9,40,45.9,39.7,46.1L39.7,46.1z M41,44.5c0.2-2.7,2.5-4.2,4.9-4.8
		C45,41.6,44,43,42.3,44.1C41.8,44.2,41.4,44.4,41,44.5L41,44.5z M61.2,93.8c-0.2-0.1-0.4-0.1-0.6-0.1c0.1-0.6,1-1.1,1.5-1.4
		c-1-0.5-2.3-0.3-3.3-0.2c0-1.3,0-1.3,0.1-1.4c1.4,0.5,1.4,0.5,4,1.1c1.4-0.3,2.8-0.7,4.2-1.1c0,0.5,0,0.9,0.1,1.4
		c-1.1-0.2-2.1-0.1-3.1,0c0,0,0,0.1,0,0.1c0.3,0.3,1.2,0.8,1.2,1.3c-0.2,0-0.5,0-0.7,0.1c-0.5-0.5-0.9-1-1.6-1.1
		c-0.3,0.2-0.7,0.4-1,0.6C61.3,93.8,61.3,93.8,61.2,93.8L61.2,93.8z M70.3,93.8c-0.8-0.3-2.3-0.9-2.3-2c0.4-0.1,0.7-0.3,1.1-0.4
		c0.4,0,0.9,0,1.3,0c1.7,0.5,3.3,1,5,1.1c0,0,0,0.1,0,0.1c-0.9,0.4-1.9,0.7-2.9,1C71.8,93.7,71,93.7,70.3,93.8L70.3,93.8z
		 M53.9,93.7c-1.2-0.2-2.8-0.5-3.7-1.3c0.5-0.1,1.1-0.1,1.6-0.2c1.7-0.5,3.4-1.3,5.1-0.9c0.3,0.1,0.5,0.2,0.8,0.3
		C57.5,93.5,55.3,93.6,53.9,93.7L53.9,93.7z M75,92.1c-0.7-0.2-2.1-0.6-2.1-1.5c1.9-1.2,3.6-0.8,5.8-0.6c0.5,0,1.1-0.1,1.6-0.1
		c-1.8,1.2-1.8,1.2-2.3,1.5C77,91.7,76,92,75,92.1L75,92.1z M49.8,91.9c-1.4-0.3-2.5-0.8-3.7-1.5c-0.6-0.5-0.6-0.5-0.8-0.5
		c0,0,0-0.1,0-0.1c0.6,0,1.1,0.1,1.7,0.2c2.3-0.2,3.9-0.7,5.9,0.6C52.2,91.8,51.1,91.9,49.8,91.9L49.8,91.9z M72.1,91.1
		c-0.4-0.2-0.8-0.2-1.2-0.2c0.4-0.3,0.6-0.6,0.8-1C71.8,90.4,72.1,91,72.1,91.1L72.1,91.1z M68,91c-0.1,0-0.2,0-0.3-0.1
		c0.9-2.5,2.4-3.6,5.1-4.4C71.4,88.8,70.8,90.8,68,91L68,91z M53.6,91c0.1-0.4,0.3-0.8,0.4-1.2c0.6,0.9,0.6,0.9,0.8,1
		C54.4,90.8,54,90.8,53.6,91L53.6,91z M56.9,91c-2.2-0.7-2.9-2.6-4-4.5c1.4,0,3.6,1.7,4.5,2.8c0.5,1.1,0.5,1.1,0.7,1.5
		C57.9,91,57.1,91,56.9,91L56.9,91z M72.4,89.7c0-2.3,2-4.4,4.1-5.2c-0.6,1.8-1.1,3.3-2.3,4.7C73.5,89.4,73.1,89.6,72.4,89.7
		L72.4,89.7z M52.7,89.5c-2.4-0.8-2.8-3-3.6-5.1c0-0.1,0-0.1,0-0.2c2.2,1.3,3.9,2.5,4.2,5.2C53.1,89.5,52.9,89.5,52.7,89.5
		L52.7,89.5z M79.2,89.4c-0.5-0.1-1.8-0.5-1.8-1.1c1.9-1.7,3.8-1.2,6.2-1.6c0.3-0.1,0.7-0.3,1-0.2C83.2,88.1,81.2,89.1,79.2,89.4
		L79.2,89.4z M46.1,89.2c-2.1-0.5-3.5-1.4-5.1-2.9c0-0.1,0-0.1,0-0.1c2.4,0.9,5.3,0,7.2,1.9C48.2,88.9,46.7,89.2,46.1,89.2
		L46.1,89.2z M75.3,88.9c0.3-0.3,0.5-0.7,0.7-1.1c0.2,0.3,0.4,0.7,0.6,1.1C76,88.8,75.7,88.9,75.3,88.9L75.3,88.9z M49.1,88.8
		c0.2-0.4,0.4-0.7,0.6-1.1c0.2,0.4,0.4,0.7,0.7,1C49.9,88.7,49.5,88.8,49.1,88.8L49.1,88.8z M76.8,87.6c0-1.9,0.3-2.9,1.6-4.4
		c0.5-0.5,1.1-1,1.6-1.5c0,0.3,0,0.3-0.5,3.1C79,86.4,78.4,87.2,76.8,87.6L76.8,87.6z M48.6,87.5c-1.6-0.6-1.9-1.3-2.5-2.8
		c-0.2-1-0.4-2-0.6-3c0,0,0.1,0,0.1,0c1.8,1.7,3.3,3.1,3.1,5.9C48.7,87.5,48.6,87.5,48.6,87.5L48.6,87.5z M79.8,86.4
		c0.2-0.5,0.2-0.5,0.5-1.2c0.4,0.6,0.4,0.6,0.7,0.9C80.6,86.1,80.2,86.3,79.8,86.4L79.8,86.4z M45.7,86.3C45.4,86,44.9,86,44.5,86
		c0-0.1,0-0.1,0-0.2c0.3-0.2,0.5-0.6,0.8-0.8C45.4,85.3,45.8,86.1,45.7,86.3L45.7,86.3z M82.8,86.2c-0.6-0.2-0.6-0.2-1-0.5
		c0.2-0.8,0.9-1.3,1.6-1.7c1.7-0.6,3.5-0.9,5-1.9c0,0.1,0,0.1,0,0.2c-1.3,2-2.3,2.9-4.4,3.9C83.6,86.1,83.2,86.1,82.8,86.2
		L82.8,86.2z M41.8,86c-2.1-0.7-3.6-2.2-4.6-4.1c0.2,0.1,0.6,0.3,1.8,0.9c1.1,0.3,4.7,1,4.7,2.7C43,85.9,42.6,86,41.8,86L41.8,86z
		 M83.3,83.2c0.1-0.5,0.1-0.9,0.2-1.4c0.4,0.4,0.4,0.4,0.9,0.7C84.1,82.7,83.7,82.9,83.3,83.2L83.3,83.2z M84.5,44.6
		c-2.2-0.7-3.8-2.6-4.6-4.8c1.8,0.7,5.3,2.2,4.8,4.8C84.6,44.6,84.6,44.6,84.5,44.6L84.5,44.6z M85.9,46.3c-0.4-0.3-0.8-0.4-1.2-0.5
		c0.6-0.3,0.9-0.7,1-0.7C85.8,45.5,85.8,45.9,85.9,46.3L85.9,46.3z M86.3,49.2c-2.3-0.5-3.2-1.6-4.8-3.2c0-0.1,0-0.1,0-0.2
		c2,0.5,5.2,0.8,5.7,3.3C87,49.1,87,49.1,86.3,49.2L86.3,49.2z M62.1,38.3c0.2-0.2,1-0.7,1.5-1c0.3-0.5,0.6-0.9,1-1.3
		c1-2.4,0.2-4-1.5-5.7c-0.3-0.2-0.6-0.4-0.8-0.5c0-0.1,0-0.1,0-0.1c1.4-0.2,2.6,0.1,3.8,0.9c1.9,2,2.3,4.7,0.2,6.8
		C64.9,38.2,63.7,38.2,62.1,38.3L62.1,38.3z M59.9,35.6c0.2-1,0.2-1,0.2-1.2c-0.3-0.2-0.7-0.4-1-0.6c0.4-0.1,0.8-0.1,1.3-0.2
		c0.1-0.4,0.2-0.8,0.3-1.2c0.2,0,0.5,0.9,0.6,1c0.4,0,0.4,0,1.2-0.1c0,0.1-0.8,0.8-0.9,0.9c0.4,0.9,0.4,0.9,0.4,1.1
		c-0.3-0.2-0.7-0.4-1-0.5C60.7,35.1,60.3,35.3,59.9,35.6L59.9,35.6z M44.6,44.5c4.9-4.9,11-6.6,13.7-7c0.1,0.2,0.3,0.3,0.5,0.5
		C53.8,38.5,48.9,41.5,44.6,44.5L44.6,44.5z M80.8,44.5c-4.9-4.9-11.1-6.6-13.7-7c-0.1,0.2-0.3,0.3-0.5,0.5
		C71.7,38.5,76.5,41.5,80.8,44.5L80.8,44.5z M79.2,39.4c0-0.1,0.1-0.3,0.1-0.4c0.1,0,0.1,0,0.2,0c-3-2.2-7.2-4.2-11-4.6
		c0,0.3-0.1,0.6-0.2,0.9C72.4,36,75.8,37.5,79.2,39.4L79.2,39.4z M83.2,40.4c-5.7-5.5-11.6-6.9-14.7-7.5c0,0.3,0.1,0.6,0.1,0.8
		c0,0,0,0,0,0.1C73.9,34.7,78.8,37.3,83.2,40.4L83.2,40.4z M85.2,40.5c-4.2-5.9-12.6-8.7-17.5-9.8c0.2,0.3,0.4,0.7,0.5,1
		C74.2,33.1,80.4,36.2,85.2,40.5L85.2,40.5z M81.1,43c-2.6-3.3-8.2-6.3-13.1-6.9c-0.1,0.2-0.2,0.4-0.3,0.6C75,38.3,76.8,40,81.1,43
		L81.1,43z M46.3,39.4c0-0.1-0.1-0.3-0.1-0.4c-0.1,0-0.1,0-0.2,0c3-2.2,7.2-4.2,11-4.6c0,0.3,0.1,0.6,0.2,0.9
		C53,36,49.6,37.5,46.3,39.4L46.3,39.4z M42.3,40.4c5.7-5.5,11.5-6.9,14.7-7.5c0,0.3-0.1,0.5-0.1,0.8c0,0,0,0,0,0.1
		C51.6,34.7,46.7,37.3,42.3,40.4L42.3,40.4z M40.2,40.5c4.2-5.8,12.6-8.7,17.5-9.8c-0.2,0.3-0.4,0.7-0.5,1
		C51.3,33.1,45.1,36.2,40.2,40.5L40.2,40.5z M44.3,43c2.6-3.3,8.2-6.3,13.1-6.9c0.1,0.2,0.2,0.4,0.3,0.7C50.5,38.3,48.7,40,44.3,43
		L44.3,43z M80.9,84.8c-0.5-2.6,0.5-4.2,2-6.3c0,0,0.1,0,0.2,0C83.1,80.7,83.5,83.9,80.9,84.8L80.9,84.8z M85.9,82.2
		c-0.2-0.1-0.5-0.2-0.7-0.3c0-2.1,3.9-3,5.2-3.7c0.2-0.1,0.6-0.7,0.9-0.6c-0.6,1.1-0.6,1.1-1.2,2.2C88.8,81.3,87.9,82.1,85.9,82.2
		L85.9,82.2z M84.1,81.2c-1.1-2.3-0.1-4.6,1.1-6.6C85.7,76.9,86.4,79.9,84.1,81.2L84.1,81.2z M86.4,79.2c0.1-0.5,0.2-0.8,0.1-1.3
		c0.3,0.1,0.8,0.5,1,0.8C87.1,78.7,86.8,78.9,86.4,79.2L86.4,79.2z M89.1,77.8c-0.3-0.1-0.6-0.2-0.9-0.3c0.7-2.2,2.1-2.8,4.1-4
		c0.8-0.7,0.8-0.7,1.3-1.3c0,1.9-1.6,4.1-3.1,5.2C89.8,77.7,89.8,77.7,89.1,77.8L89.1,77.8z M87,77.3c-0.8-1.4-0.9-2.2-0.9-3.8
		c0.3-1.4,0.3-1.4,0.7-2.8c0,0,0.1,0,0.1,0C87.5,72.3,89.4,76,87,77.3L87,77.3z M89.1,74.6c0-0.4-0.1-0.8-0.3-1.2
		c0.7,0.3,0.7,0.3,1.2,0.4c-0.2,0.1-0.3,0.2-0.5,0.2c0,0,0,0.1,0,0.1C89.4,74.2,89.2,74.5,89.1,74.6L89.1,74.6z M90.6,72.9
		c-0.1,0-0.2-0.1-0.3-0.1c0-2.8,3-3.9,4.3-6.1c0,2.1-0.8,5.4-3.1,6.1C91.3,72.8,91,72.9,90.6,72.9L90.6,72.9z M89.2,72.8
		c-1.8-1.8-1.6-4.2-1.3-6.6c0,0,0.1,0,0.1,0C89.3,68.6,90.9,70.5,89.2,72.8L89.2,72.8z M90.5,69.9c-0.1-0.4-0.2-0.8-0.4-1.2
		c0.7,0.2,0.7,0.2,1.2,0.2C91.3,69.1,90.7,69.8,90.5,69.9L90.5,69.9z M91.6,68.2c0-0.5,0-0.9,0-1.3c0.6-2,2.3-3.5,3.2-5.4
		c0,0,0.1,0,0.1,0c0.2,2.4,0.1,5.6-2.4,6.7C92.1,68.2,91.9,68.2,91.6,68.2L91.6,68.2z M90.4,68.2c-2-1.6-2.4-3.8-2.3-6.3
		c1.5,1.7,3.7,3.8,2.4,6.2C90.5,68.1,90.4,68.2,90.4,68.2L90.4,68.2z M91.4,65.1c0-0.5-0.3-0.8-0.6-1.1c0.2,0,0.6,0.1,1.3,0
		c0,0.2,0,0.2-0.4,0.5c-0.1,0.2-0.1,0.4-0.2,0.6C91.5,65.1,91.4,65.1,91.4,65.1L91.4,65.1z M90.9,63.4c-0.7-0.5-1.5-1-2-1.7
		c-0.7-1.3-1.1-2.6-1.3-4.1c0,0,0.1,0,0.2,0c2,1.7,4,2.8,3.3,5.6C91,63.3,91,63.3,90.9,63.4L90.9,63.4z M92.1,63.1
		c-0.6-2.2,0.5-3.7,1.5-5.7c0.3-0.8,0.3-0.8,0.4-1.6c0,0,0.1,0,0.1,0C94.7,58.1,95.3,62.7,92.1,63.1L92.1,63.1z M91.4,60
		c-0.3-0.6-0.3-0.6-0.7-1c0.4,0,0.8,0,1.2-0.1C91.8,59.1,91.8,59.1,91.4,60L91.4,60z M90.2,58.5c-1.6-0.8-2.2-1.4-3.1-2.9
		c-0.6-1.2-0.6-1.2-0.9-2.3c0.6,0,2.3,1.4,3,1.8c1.1,1,1.4,1.8,1.3,3.3C90.4,58.5,90.3,58.5,90.2,58.5L90.2,58.5z M91.5,58.1
		c-1-2.3,0.2-4.1,0.8-6.4c0-0.4,0.1-0.8,0.1-1.1C93.5,52.9,94.5,56.9,91.5,58.1L91.5,58.1z M90.4,55c-0.2-0.4-0.5-0.6-0.9-0.9
		c0.7-0.1,0.7-0.1,1.1-0.3C90.5,54.1,90.5,54.6,90.4,55L90.4,55z M88.7,53.5c-2.4-0.7-3.4-2.1-4.7-4.2c0.1,0,0.1,0,3,1.1
		c1.5,0.7,2.1,1.5,2.2,3.1C89,53.5,88.9,53.5,88.7,53.5L88.7,53.5z M90.2,53.2c-0.3-0.6-0.5-1-0.7-1.6c0-2,0.3-3.9,0.3-5.9
		c1.5,2.1,2.7,4.6,1.3,7C90.5,53.1,90.5,53.1,90.2,53.2L90.2,53.2z M88.5,50.2c-0.2-0.3-0.7-0.4-1-0.5c0-0.1,0-0.1,0-0.1
		c0.3-0.1,0.7-0.3,1-0.5c0,0.7,0,0.7,0.1,1.1C88.6,50.2,88.6,50.2,88.5,50.2L88.5,50.2z M87.9,48.5c-1.5-1.6-1.3-3.4-1.3-5.4
		c-0.1-0.9-0.1-0.9-0.5-1.8c0,0,0.1,0,0.2,0c1.7,1.7,4,4.9,1.9,7.2C88.1,48.4,88,48.5,87.9,48.5L87.9,48.5z M87.9,48.5"/>
	<path class="st3" d="M44.5,84.7c-2.4-1.1-2.2-4-1.9-6.3c1.5,1.9,2.7,3.8,2.1,6.3C44.6,84.6,44.6,84.6,44.5,84.7L44.5,84.7z
		 M42.2,83c-0.4-0.3-0.6-0.5-1.1-0.6c0-0.1,0.8-0.6,1-0.9C42.1,82,42.2,82.6,42.2,83L42.2,83z M38.7,82.1c-2-0.7-2.9-1.9-4-3.7
		c-0.3-0.6-0.3-0.6-0.3-1c1.8,1.3,4.2,1.7,5.7,3.5c0.3,0.7,0.3,0.7,0.3,0.8C39.9,82,39.4,82,38.7,82.1L38.7,82.1z M41.4,81
		c-1.5-1.1-1.5-1.9-1.5-3.8c0.4-2.6,0.4-2.6,0.5-2.8c1.1,2.1,2.2,4.1,1.1,6.5C41.5,81,41.4,81,41.4,81L41.4,81z M39.1,79
		c-0.4-0.3-0.6-0.4-1.1-0.6c0.3-0.2,0.6-0.5,1-0.7C39,78.3,39.1,78.9,39.1,79L39.1,79z M36.1,77.6c-2.3-0.8-3.8-3.2-4.1-5.6
		c0.9,1.2,2.1,1.8,3.3,2.6c0.9,0.7,2,1.6,1.9,2.9C36.7,77.6,36.7,77.6,36.1,77.6L36.1,77.6z M38.4,77.1c-0.9-1.1-1-1.5-1-3
		c0.2-0.8,0.7-3.3,1.4-3.7C39.4,72.8,40,75.1,38.4,77.1L38.4,77.1z M36.5,74.5c-0.2-0.4-0.5-0.6-0.9-0.9c0.9-0.3,1-0.3,1.2-0.3
		C36.6,73.7,36.6,74.1,36.5,74.5C36.5,74.5,36.5,74.5,36.5,74.5L36.5,74.5z M34.3,72.7c-2.3-0.9-3.6-3.9-3.3-6.3
		c0.5,0.8,0.5,0.8,1.2,1.6c1.5,1.4,3,2.4,3.1,4.6C35,72.6,34.6,72.7,34.3,72.7L34.3,72.7z M36.5,72.6c-1.8-1.8,0.1-4.9,1.3-6.6
		c0.4,2.1,0.4,3.8-0.5,5.7C36.9,72,36.7,72.3,36.5,72.6L36.5,72.6z M35,69.7c-0.2-0.4-0.6-0.6-0.7-0.9c0.8-0.1,0.8-0.1,1.2-0.3
		c-0.2,0.5-0.3,0.7-0.4,1.2C35.1,69.7,35.1,69.7,35,69.7L35,69.7z M33.8,68.1c-2.2-0.7-2.6-2.2-3-4.4c0-1.9,0-1.9,0.1-2.5
		c0,0,0.1,0,0.1,0.1c0.8,1.9,2.5,3.3,3.1,5.3c0,0.5,0,1,0,1.5C34,68.1,33.9,68.1,33.8,68.1L33.8,68.1z M35.1,68
		c-0.5-1.4-0.5-2,0.1-3.4c0.6-0.8,0.6-0.8,2.2-2.9c0,0,0.1,0,0.1,0.1C37.5,63.9,37.3,67,35.1,68L35.1,68z M34.1,64.9
		c0-0.5-0.3-0.7-0.5-1c0.4,0,0.8-0.1,1.3-0.1c-0.3,0.4-0.5,0.7-0.6,1.1C34.2,64.9,34.2,64.9,34.1,64.9L34.1,64.9z M34.6,63.2
		c-0.3-1.5-0.1-2.2,0.8-3.4c1.5-1.4,1.5-1.4,2.6-2.3C37.9,59.4,36.8,62.6,34.6,63.2L34.6,63.2z M33.3,62.9c-2.8-1.2-2.2-4.8-1.6-7.2
		c0,0,0.1,0,0.1,0c0.4,1.9,1.6,3.6,2.1,5.4c0,0.6,0,1.1-0.1,1.7C33.5,62.8,33.4,62.9,33.3,62.9L33.3,62.9z M34.2,59.8
		c0-0.4-0.2-0.7-0.4-1.1c1.2,0,1.2,0,1.3,0.1c-0.4,0.4-0.6,0.6-0.7,1C34.3,59.8,34.2,59.8,34.2,59.8L34.2,59.8z M35.2,58.3
		c-0.2-1.6,0.1-2.2,1.2-3.3c0.6-0.4,2.4-1.9,3-1.9C38.7,55.3,37.6,57.8,35.2,58.3L35.2,58.3z M34.1,57.9c-2.2-1.1-2-3.6-1.5-5.6
		c0.7-1.8,0.7-1.8,0.7-1.8c0,0,0.1,0.1,0.1,0.1c0.1,1.7,0.7,3.3,1.2,4.9C34.6,56.1,34.7,57.6,34.1,57.9L34.1,57.9z M35.2,54.8
		c0-0.3-0.3-1-0.2-1.2c0.4,0.1,0.8,0.2,1.2,0.4C35.7,54.2,35.7,54.2,35.2,54.8L35.2,54.8z M36.5,53.3c0.2-2.8,2.7-3.3,5-4.1
		c0.1,0,0.1,0,0.2,0C40.3,51.3,39.1,53.2,36.5,53.3L36.5,53.3z M35.3,53c-2.6-1.8-0.7-5.6,0.7-7.5c0,0.7,0,1.4,0,2.2
		C36.1,48.6,36.9,52.6,35.3,53L35.3,53z M37,50.2c0.1-0.4,0.1-0.4,0.1-1.3c0.3,0.3,0.3,0.3,1.1,0.6C37.7,49.6,37.4,49.9,37,50.2
		L37,50.2z M38.6,49c0.3-2.7,3.6-2.9,5.7-3.3c-1,1.3-1.1,1.3-1.3,1.5C41.4,48.5,40.6,48.8,38.6,49L38.6,49z M37.6,48.3
		c-1.2-1.4-1-2.6-0.3-4.4c0.6-1.1,1.4-2,2.2-3c0,0.7-0.3,1.5-0.4,2.3C39,44.6,39.2,47.7,37.6,48.3L37.6,48.3z M39.7,46.1
		c0.1-0.3,0.3-0.9,0.3-1.3c0.1,0,0.5,0.4,1,0.8C40,45.9,40,45.9,39.7,46.1L39.7,46.1z M41,44.5c0.2-2.7,2.5-4.2,4.9-4.8
		C45,41.6,44,43,42.3,44.1C41.8,44.2,41.4,44.4,41,44.5L41,44.5z M61.2,93.8c-0.2-0.1-0.4-0.1-0.6-0.1c0.1-0.6,1-1.1,1.5-1.4
		c-1-0.5-2.3-0.3-3.3-0.2c0-1.3,0-1.3,0.1-1.4c1.4,0.5,1.4,0.5,4,1.1c1.4-0.3,2.8-0.7,4.2-1.1c0,0.5,0,0.9,0.1,1.4
		c-1.1-0.2-2.1-0.1-3.1,0c0,0,0,0.1,0,0.1c0.3,0.3,1.2,0.8,1.2,1.3c-0.2,0-0.5,0-0.7,0.1c-0.5-0.5-0.9-1-1.6-1.1
		c-0.3,0.2-0.7,0.4-1,0.6C61.3,93.8,61.3,93.8,61.2,93.8L61.2,93.8z M70.3,93.8c-0.8-0.3-2.3-0.9-2.3-2c0.4-0.1,0.7-0.3,1.1-0.4
		c0.4,0,0.9,0,1.3,0c1.7,0.5,3.3,1,5,1.1c0,0,0,0.1,0,0.1c-0.9,0.4-1.9,0.7-2.9,1C71.8,93.7,71,93.7,70.3,93.8L70.3,93.8z
		 M53.9,93.7c-1.2-0.2-2.8-0.5-3.7-1.3c0.5-0.1,1.1-0.1,1.6-0.2c1.7-0.5,3.4-1.3,5.1-0.9c0.3,0.1,0.5,0.2,0.8,0.3
		C57.5,93.5,55.3,93.6,53.9,93.7L53.9,93.7z M75,92.1c-0.7-0.2-2.1-0.6-2.1-1.5c1.9-1.2,3.6-0.8,5.8-0.6c0.5,0,1.1-0.1,1.6-0.1
		c-1.8,1.2-1.8,1.2-2.3,1.5C77,91.7,76,92,75,92.1L75,92.1z M49.8,91.9c-1.4-0.3-2.5-0.8-3.7-1.5c-0.6-0.5-0.6-0.5-0.8-0.5
		c0,0,0-0.1,0-0.1c0.6,0,1.1,0.1,1.7,0.2c2.3-0.2,3.9-0.7,5.9,0.6C52.2,91.8,51.1,91.9,49.8,91.9L49.8,91.9z M72.1,91.1
		c-0.4-0.2-0.8-0.2-1.2-0.2c0.4-0.3,0.6-0.6,0.8-1C71.8,90.4,72.1,91,72.1,91.1L72.1,91.1z M68,91c-0.1,0-0.2,0-0.3-0.1
		c0.9-2.5,2.4-3.6,5.1-4.4C71.4,88.8,70.8,90.8,68,91L68,91z M53.6,91c0.1-0.4,0.3-0.8,0.4-1.2c0.6,0.9,0.6,0.9,0.8,1
		C54.4,90.8,54,90.8,53.6,91L53.6,91z M56.9,91c-2.2-0.7-2.9-2.6-4-4.5c1.4,0,3.6,1.7,4.5,2.8c0.5,1.1,0.5,1.1,0.7,1.5
		C57.9,91,57.1,91,56.9,91L56.9,91z M72.4,89.7c0-2.3,2-4.4,4.1-5.2c-0.6,1.8-1.1,3.3-2.3,4.7C73.5,89.4,73.1,89.6,72.4,89.7
		L72.4,89.7z M52.7,89.5c-2.4-0.8-2.8-3-3.6-5.1c0-0.1,0-0.1,0-0.2c2.2,1.3,3.9,2.5,4.2,5.2C53.1,89.5,52.9,89.5,52.7,89.5
		L52.7,89.5z M79.2,89.4c-0.5-0.1-1.8-0.5-1.8-1.1c1.9-1.7,3.8-1.2,6.2-1.6c0.3-0.1,0.7-0.3,1-0.2C83.2,88.1,81.2,89.1,79.2,89.4
		L79.2,89.4z M46.1,89.2c-2.1-0.5-3.5-1.4-5.1-2.9c0-0.1,0-0.1,0-0.1c2.4,0.9,5.3,0,7.2,1.9C48.2,88.9,46.7,89.2,46.1,89.2
		L46.1,89.2z M75.3,88.9c0.3-0.3,0.5-0.7,0.7-1.1c0.2,0.3,0.4,0.7,0.6,1.1C76,88.8,75.7,88.9,75.3,88.9L75.3,88.9z M49.1,88.8
		c0.2-0.4,0.4-0.7,0.6-1.1c0.2,0.4,0.4,0.7,0.7,1C49.9,88.7,49.5,88.8,49.1,88.8L49.1,88.8z M76.8,87.6c0-1.9,0.3-2.9,1.6-4.4
		c0.5-0.5,1.1-1,1.6-1.5c0,0.3,0,0.3-0.5,3.1C79,86.4,78.4,87.2,76.8,87.6L76.8,87.6z M48.6,87.5c-1.6-0.6-1.9-1.3-2.5-2.8
		c-0.2-1-0.4-2-0.6-3c0,0,0.1,0,0.1,0c1.8,1.7,3.3,3.1,3.1,5.9C48.7,87.5,48.6,87.5,48.6,87.5L48.6,87.5z M79.8,86.4
		c0.2-0.5,0.2-0.5,0.5-1.2c0.4,0.6,0.4,0.6,0.7,0.9C80.6,86.1,80.2,86.3,79.8,86.4L79.8,86.4z M45.7,86.3C45.4,86,44.9,86,44.5,86
		c0-0.1,0-0.1,0-0.2c0.3-0.2,0.5-0.6,0.8-0.8C45.4,85.3,45.8,86.1,45.7,86.3L45.7,86.3z M82.8,86.2c-0.6-0.2-0.6-0.2-1-0.5
		c0.2-0.8,0.9-1.3,1.6-1.7c1.7-0.6,3.5-0.9,5-1.9c0,0.1,0,0.1,0,0.2c-1.3,2-2.3,2.9-4.4,3.9C83.6,86.1,83.2,86.1,82.8,86.2
		L82.8,86.2z M41.8,86c-2.1-0.7-3.6-2.2-4.6-4.1c0.2,0.1,0.6,0.3,1.8,0.9c1.1,0.3,4.7,1,4.7,2.7C43,85.9,42.6,86,41.8,86L41.8,86z
		 M83.3,83.2c0.1-0.5,0.1-0.9,0.2-1.4c0.4,0.4,0.4,0.4,0.9,0.7C84.1,82.7,83.7,82.9,83.3,83.2L83.3,83.2z M84.5,44.6
		c-2.2-0.7-3.8-2.6-4.6-4.8c1.8,0.7,5.3,2.2,4.8,4.8C84.6,44.6,84.6,44.6,84.5,44.6L84.5,44.6z M85.9,46.3c-0.4-0.3-0.8-0.4-1.2-0.5
		c0.6-0.3,0.9-0.7,1-0.7C85.8,45.5,85.8,45.9,85.9,46.3L85.9,46.3z M86.3,49.2c-2.3-0.5-3.2-1.6-4.8-3.2c0-0.1,0-0.1,0-0.2
		c2,0.5,5.2,0.8,5.7,3.3C87,49.1,87,49.1,86.3,49.2L86.3,49.2z M62.1,38.3c0.2-0.2,1-0.7,1.5-1c0.3-0.5,0.6-0.9,1-1.3
		c1-2.4,0.2-4-1.5-5.7c-0.3-0.2-0.6-0.4-0.8-0.5c0-0.1,0-0.1,0-0.1c1.4-0.2,2.6,0.1,3.8,0.9c1.9,2,2.3,4.7,0.2,6.8
		C64.9,38.2,63.7,38.2,62.1,38.3L62.1,38.3z M59.9,35.6c0.2-1,0.2-1,0.2-1.2c-0.3-0.2-0.7-0.4-1-0.6c0.4-0.1,0.8-0.1,1.3-0.2
		c0.1-0.4,0.2-0.8,0.3-1.2c0.2,0,0.5,0.9,0.6,1c0.4,0,0.4,0,1.2-0.1c0,0.1-0.8,0.8-0.9,0.9c0.4,0.9,0.4,0.9,0.4,1.1
		c-0.3-0.2-0.7-0.4-1-0.5C60.7,35.1,60.3,35.3,59.9,35.6L59.9,35.6z M44.6,44.5c4.9-4.9,11-6.6,13.7-7c0.1,0.2,0.3,0.3,0.5,0.5
		C53.8,38.5,48.9,41.5,44.6,44.5L44.6,44.5z M80.8,44.5c-4.9-4.9-11.1-6.6-13.7-7c-0.1,0.2-0.3,0.3-0.5,0.5
		C71.7,38.5,76.5,41.5,80.8,44.5L80.8,44.5z M79.2,39.4c0-0.1,0.1-0.3,0.1-0.4c0.1,0,0.1,0,0.2,0c-3-2.2-7.2-4.2-11-4.6
		c0,0.3-0.1,0.6-0.2,0.9C72.4,36,75.8,37.5,79.2,39.4L79.2,39.4z M83.2,40.4c-5.7-5.5-11.6-6.9-14.7-7.5c0,0.3,0.1,0.6,0.1,0.8
		c0,0,0,0,0,0.1C73.9,34.7,78.8,37.3,83.2,40.4L83.2,40.4z M85.2,40.5c-4.2-5.9-12.6-8.7-17.5-9.8c0.2,0.3,0.4,0.7,0.5,1
		C74.2,33.1,80.4,36.2,85.2,40.5L85.2,40.5z M81.1,43c-2.6-3.3-8.2-6.3-13.1-6.9c-0.1,0.2-0.2,0.4-0.3,0.6C75,38.3,76.8,40,81.1,43
		L81.1,43z M46.3,39.4c0-0.1-0.1-0.3-0.1-0.4c-0.1,0-0.1,0-0.2,0c3-2.2,7.2-4.2,11-4.6c0,0.3,0.1,0.6,0.2,0.9
		C53,36,49.6,37.5,46.3,39.4L46.3,39.4z M42.3,40.4c5.7-5.5,11.5-6.9,14.7-7.5c0,0.3-0.1,0.5-0.1,0.8c0,0,0,0,0,0.1
		C51.6,34.7,46.7,37.3,42.3,40.4L42.3,40.4z M40.2,40.5c4.2-5.8,12.6-8.7,17.5-9.8c-0.2,0.3-0.4,0.7-0.5,1
		C51.3,33.1,45.1,36.2,40.2,40.5L40.2,40.5z M44.3,43c2.6-3.3,8.2-6.3,13.1-6.9c0.1,0.2,0.2,0.4,0.3,0.7C50.5,38.3,48.7,40,44.3,43
		L44.3,43z M80.9,84.8c-0.5-2.6,0.5-4.2,2-6.3c0,0,0.1,0,0.2,0C83.1,80.7,83.5,83.9,80.9,84.8L80.9,84.8z M85.9,82.2
		c-0.2-0.1-0.5-0.2-0.7-0.3c0-2.1,3.9-3,5.2-3.7c0.2-0.1,0.6-0.7,0.9-0.6c-0.6,1.1-0.6,1.1-1.2,2.2C88.8,81.3,87.9,82.1,85.9,82.2
		L85.9,82.2z M84.1,81.2c-1.1-2.3-0.1-4.6,1.1-6.6C85.7,76.9,86.4,79.9,84.1,81.2L84.1,81.2z M86.4,79.2c0.1-0.5,0.2-0.8,0.1-1.3
		c0.3,0.1,0.8,0.5,1,0.8C87.1,78.7,86.8,78.9,86.4,79.2L86.4,79.2z M89.1,77.8c-0.3-0.1-0.6-0.2-0.9-0.3c0.7-2.2,2.1-2.8,4.1-4
		c0.8-0.7,0.8-0.7,1.3-1.3c0,1.9-1.6,4.1-3.1,5.2C89.8,77.7,89.8,77.7,89.1,77.8L89.1,77.8z M87,77.3c-0.8-1.4-0.9-2.2-0.9-3.8
		c0.3-1.4,0.3-1.4,0.7-2.8c0,0,0.1,0,0.1,0C87.5,72.3,89.4,76,87,77.3L87,77.3z M89.1,74.6c0-0.4-0.1-0.8-0.3-1.2
		c0.7,0.3,0.7,0.3,1.2,0.4c-0.2,0.1-0.3,0.2-0.5,0.2c0,0,0,0.1,0,0.1C89.4,74.2,89.2,74.5,89.1,74.6L89.1,74.6z M90.6,72.9
		c-0.1,0-0.2-0.1-0.3-0.1c0-2.8,3-3.9,4.3-6.1c0,2.1-0.8,5.4-3.1,6.1C91.3,72.8,91,72.9,90.6,72.9L90.6,72.9z M89.2,72.8
		c-1.8-1.8-1.6-4.2-1.3-6.6c0,0,0.1,0,0.1,0C89.3,68.6,90.9,70.5,89.2,72.8L89.2,72.8z M90.5,69.9c-0.1-0.4-0.2-0.8-0.4-1.2
		c0.7,0.2,0.7,0.2,1.2,0.2C91.3,69.1,90.7,69.8,90.5,69.9L90.5,69.9z M91.6,68.2c0-0.5,0-0.9,0-1.3c0.6-2,2.3-3.5,3.2-5.4
		c0,0,0.1,0,0.1,0c0.2,2.4,0.1,5.6-2.4,6.7C92.1,68.2,91.9,68.2,91.6,68.2L91.6,68.2z M90.4,68.2c-2-1.6-2.4-3.8-2.3-6.3
		c1.5,1.7,3.7,3.8,2.4,6.2C90.5,68.1,90.4,68.2,90.4,68.2L90.4,68.2z M91.4,65.1c0-0.5-0.3-0.8-0.6-1.1c0.2,0,0.6,0.1,1.3,0
		c0,0.2,0,0.2-0.4,0.5c-0.1,0.2-0.1,0.4-0.2,0.6C91.5,65.1,91.4,65.1,91.4,65.1L91.4,65.1z M90.9,63.4c-0.7-0.5-1.5-1-2-1.7
		c-0.7-1.3-1.1-2.6-1.3-4.1c0,0,0.1,0,0.2,0c2,1.7,4,2.8,3.3,5.6C91,63.3,91,63.3,90.9,63.4L90.9,63.4z M92.1,63.1
		c-0.6-2.2,0.5-3.7,1.5-5.7c0.3-0.8,0.3-0.8,0.4-1.6c0,0,0.1,0,0.1,0C94.7,58.1,95.3,62.7,92.1,63.1L92.1,63.1z M91.4,60
		c-0.3-0.6-0.3-0.6-0.7-1c0.4,0,0.8,0,1.2-0.1C91.8,59.1,91.8,59.1,91.4,60L91.4,60z M90.2,58.5c-1.6-0.8-2.2-1.4-3.1-2.9
		c-0.6-1.2-0.6-1.2-0.9-2.3c0.6,0,2.3,1.4,3,1.8c1.1,1,1.4,1.8,1.3,3.3C90.4,58.5,90.3,58.5,90.2,58.5L90.2,58.5z M91.5,58.1
		c-1-2.3,0.2-4.1,0.8-6.4c0-0.4,0.1-0.8,0.1-1.1C93.5,52.9,94.5,56.9,91.5,58.1L91.5,58.1z M90.4,55c-0.2-0.4-0.5-0.6-0.9-0.9
		c0.7-0.1,0.7-0.1,1.1-0.3C90.5,54.1,90.5,54.6,90.4,55L90.4,55z M88.7,53.5c-2.4-0.7-3.4-2.1-4.7-4.2c0.1,0,0.1,0,3,1.1
		c1.5,0.7,2.1,1.5,2.2,3.1C89,53.5,88.9,53.5,88.7,53.5L88.7,53.5z M90.2,53.2c-0.3-0.6-0.5-1-0.7-1.6c0-2,0.3-3.9,0.3-5.9
		c1.5,2.1,2.7,4.6,1.3,7C90.5,53.1,90.5,53.1,90.2,53.2L90.2,53.2z M88.5,50.2c-0.2-0.3-0.7-0.4-1-0.5c0-0.1,0-0.1,0-0.1
		c0.3-0.1,0.7-0.3,1-0.5c0,0.7,0,0.7,0.1,1.1C88.6,50.2,88.6,50.2,88.5,50.2L88.5,50.2z M87.9,48.5c-1.5-1.6-1.3-3.4-1.3-5.4
		c-0.1-0.9-0.1-0.9-0.5-1.8c0,0,0.1,0,0.2,0c1.7,1.7,4,4.9,1.9,7.2C88.1,48.4,88,48.5,87.9,48.5L87.9,48.5z M87.9,48.5"/>
	<path class="st5" d="M59.7,104c-2.2-0.8-3.6-2.3-5.3-3.8c-1.2-0.7-2.6-1.8-3.6-0.3c0,1.1,0.7,1.7,1.6,0.9c0-0.4,0-0.6-0.3-0.9
		c0.5-0.4,1.1,0.4,1.3,0.7c0,0.3,0,0.6,0,0.9c-0.9,1.7-2.6,1-3.7,0c-0.3-0.6-0.3-0.6-0.4-0.6c-0.2,0.1-0.5,0.3-0.7,0.5
		c-0.1-0.1-0.1-0.1-0.2-1.2c-1.6,0.8-2.6,0.6-3.9-0.8c-1.4-2.1-2-4.7-4.1-6.3c-1.3-0.4-2,0.4-1.6,1.6c0.7,0.6,1.6,0.1,1.2-0.8
		c0.6,0,0.8,0.3,0.9,0.9c-0.1,1.2-0.6,1.6-1.7,1.6c-1.3-0.3-1.7-1.3-1.9-2.5c-0.2,0-0.2,0-0.9,0.2c0.1-0.5,0.1-0.5,0.1-0.7
		c-2.1,0-2.8-1.2-3.3-3.2c-0.2-1.4-0.7-7.7-3.6-6c-0.2,0.6-0.4,1,0.1,1.5c0.8,0.3,1-0.2,1.1-0.9c0.3,0,0.5,0.3,0.6,0.6
		c0,1.8-1.4,2.2-2.8,1.1c-0.5-1-0.7-1.5-0.5-2.6c-0.3,0-0.6,0-0.9,0c0.3-0.5,0.5-1,0.8-1.4c-1.3-0.5-1.8-0.9-2.1-2.3
		c-0.1-1.9,0.3-3.6,0.6-5.4c0-1.1,0.1-4.2-2-3.3c-0.3,0.5-0.5,0.6-0.5,1.3c0.5,0.7,1.2,0.6,1.4-0.3c0,0,0.1,0,0.2,0
		c1,1.9-2.2,3-2.9,0.2c0-0.3,0-0.6,0.1-0.9c0.1-0.3,0.5-0.8,0.4-1.1c-0.2-0.1-0.5-0.1-0.7-0.2c0-0.5,0.9-0.7,1.1-1.1
		c-1.5-1-1.6-2.3-1-4c0.2-0.5,5-8,1.2-7.6C23,58,22.7,58.2,23,59c0.6,0.5,0.8,0.2,1.3-0.2c0.3,0.4,0,0.8-0.2,1.2
		c-2.2,1.6-3.2-1.3-2-3c0.6-0.5,0.6-0.5,0.6-0.6C22,55.9,22,55.9,22,55.7c0.5-0.2,1-0.4,1.6-0.5c0-0.1,0-0.1,0-0.2
		c-1.2-1.2-0.7-2.5,0.1-3.8c1.6-1.9,5.1-3.4,5.1-6.2c-0.4-0.7-0.9-1-1.7-0.7c-0.7,0.7-0.5,1.4,0.5,1.4c0.2-0.2,0.2-0.2,0.4-0.2
		c0,1.1-1.2,1.3-2,1c-1.1-1.1-0.7-2.3,0.3-3.3c0.5-0.3,0.5-0.3,1-0.5c0-0.2,0-0.2-0.3-0.7c0.5-0.1,0.9-0.1,1.4-0.1
		c-0.5-2.2,0.9-3.2,2.7-4c0.7-0.2,7.7-2.3,5.3-4.4c-1-0.3-1.5-0.2-1.5,0.9c0.3,0.3,0.5,0.5,1,0.3c0,0.1,0,0.2,0,0.3
		c-0.8,0.8-1.8,0.6-2.4-0.3c0-2.1,0.8-2.6,2.8-2.8c-0.1-0.3-0.1-0.6-0.2-0.9c0.5,0.2,1.1,0.4,1.6,0.6c0.1-2.3,1.1-2.6,3.1-3.1
		c0.7,0,9,0.5,7.2-2.4c-0.7-0.4-1-0.7-1.7,0c0,0.8,0.1,0.7,0.8,1c-0.3,0.4-0.6,0.4-1.1,0.4c-1.1-0.4-1.4-1.2-0.8-2.3
		c1.1-1.1,1.8-1,3.3-0.7c0-0.3,0.1-0.6,0.1-0.9c0.5,0,0.7,0.7,1.2,0.9c0.5-1.1,0.6-1.2,1.5-1.8c1-0.2,2-0.1,3,0.1
		c1,0.4,7.1,3.3,7.1,0.2c-0.2-0.8-1.2-1.2-1.7-0.5c0,0.2,0,0.4,0,0.6c0.1,0.1,0.3,0.2,0.5,0.4c0,0.1,0,0.1,0,0.2
		C59.9,24,59.9,24,59.4,24c-2.8-1.4,0.6-4.3,2.9-2.1c0.2,0,0.4-0.6,0.5-0.7c0,0,0.1,0,0.1,0c0.3,0.6,0.3,0.6,0.5,0.9
		c0.4-0.1,0.8-0.7,1.4-0.8c2.8,0,4.4,2.1,6.5,3.8c0.6,0.3,1.1,0.6,1.7,0.9c3,0.2,1.4-3.2,0.1-1.7c0,0.5,0,0.5,0.3,0.9
		c-0.4,0.2-0.8,0-1.1-0.3c-1.1-2.2,1.3-3,2.9-1.8c0.4,0.5,0.7,0.9,0.8,1c0.2-0.2,0.4-0.3,0.6-0.5c0.2,0.2,0.2,0.8,0.2,1.2
		c0,0,0.1,0.1,0.1,0.1c0.8-0.5,1.4-0.6,2.3-0.3c3,1.5,3.1,5.6,5.8,7.5c1,0,1.3,0,1.6-1c-0.2-1.6-1.9-1-1.4,0.1
		c-0.9,0.1-0.9-0.9-0.9-1.5c0.3-0.9,0.7-0.9,1.6-1c1.3,0.3,1.9,1.2,2.1,2.5c0.1,0,0.8-0.2,0.9-0.2c-0.3,1.2-0.3,1.2-0.3,1.4
		c4.3-1.4,4.2,3.9,4.7,6.7c0.3,1.1,0.5,2.4,1.7,2.9c1.1,0,1.3-0.5,1.3-1.5c-0.4-0.4-0.4-0.4-1-0.4C95,40.4,95,40.4,95,40.9
		c-1.1-0.6-0.4-2,0.5-2.4c1.9,0.2,2.5,1.6,2.2,3.4c0.3,0,0.6,0,0.9,0c0,0.2,0,0.2-0.8,1.2c1.5,0.4,2,0.7,2.5,2.3
		c0.1,2.1-0.5,4.2-0.8,6.3c0,1.3,0,2.8,1.7,2.8c0.6-0.4,0.8-0.7,0.8-1.4c-0.4-0.3-0.5-0.4-1-0.4c-0.3,0.2-0.3,0.4-0.4,0.7
		c-0.5-0.2-0.4-0.8-0.2-1.3c1.4-1.7,3-0.3,3,1.5c-0.1,0.5-0.3,1-0.6,1.5c0.3,0.1,0.5,0.2,0.8,0.3c-0.4,0.4-0.9,0.8-1.1,1
		c1.3,0.8,1.4,1.1,1.6,2.5c-0.4,2.5-2.6,4.5-3.6,6.9c-0.2,1.3-0.4,1.7,0.8,2.4c1-0.1,1.8-0.9,0.8-1.7c-0.2,0-0.4,0-0.5,0
		c-0.1,0.1-0.2,0.2-0.3,0.3c-0.1,0-0.1,0-0.2-0.1c0-1.2,1.1-1.7,2.2-1.2c1.2,1.6,0.6,2.7-0.7,3.8c0.2,0.2,0.4,0.3,0.6,0.5
		c0,0.1,0,0.1-0.1,0.2c-0.9,0.2-0.9,0.2-0.9,0.3c2.6,3-2.2,5.7-4,7.3c-0.9,1-2.2,2.3-0.8,3.4C98.4,81.2,99,81,99,80
		c-0.5-0.4-0.7-0.5-1.2-0.1c0-0.2,0-0.3,0-0.5c0.7-0.7,1.6-0.9,2.4-0.2c0.6,1.8-0.2,2.8-1.8,3.5c0.3,0.6,0.3,0.6,0.4,0.8
		c-0.4,0-0.8,0-1.2,0c1.1,5.3-7.4,3.5-8.7,7.2c0.1,1,0.5,1.2,1.5,1.2c1-0.3,0.6-1.7-0.4-1.4c0-0.1,0-0.2,0-0.3
		c0.8-0.7,1.9-0.5,2.4,0.4c0,2-1.1,2.6-3,2.7c0.1,0.6,0.1,0.6,0,0.9c-1-0.5-1-0.5-1.1-0.5c-0.1,1.9-0.9,2.4-2.7,2.9
		c-1.9,0.2-6.8-1.1-7.9,1.4c0,1,1.2,1.9,1.8,0.9c0-0.2,0-0.4,0-0.6C79.1,98,78.9,98,78.5,98c0-0.5,0.9-0.4,1.2-0.4
		c0.9,0.4,0.9,0.7,1,1.6c-0.8,1.5-2.1,1.8-3.6,1.2c-0.1,0.5-0.1,0.5-0.2,0.9c-0.3-0.3-0.7-0.5-1-0.8c-0.1,0.1-0.1,0.1-0.4,0.9
		c-1.7,2.2-4.7,0.6-6.7-0.3c-1.4-0.5-2.3-0.7-3.8-0.7c-1.1,0.8-1.3,1.6,0,2.3c0.7,0,1.1-0.6,0.7-1.2c-0.3-0.2-0.3-0.2-0.4-0.3
		c0.6-0.3,1.1,0,1.6,0.4c0.2,0.5,0.2,0.8,0.1,1.4c-1.1,1.3-2.6,1.3-3.8,0.1c-0.1,0-0.1,0-0.2,0c-0.3,0.6-0.3,0.6-0.5,0.7
		c-0.2-0.3-0.3-0.6-0.5-0.9c-0.1,0-0.1,0-0.1,0C61.5,103.8,60.8,103.9,59.7,104L59.7,104z M59.5,102.3c-2.9-1.1-4.5-4.5-7.7-4.8
		c-0.4,0.1-0.8,0.2-1.2,0.3c-0.1-0.9-0.1-0.9-0.2-1.1c-0.3,0.2-0.6,0.5-0.9,0.8c-0.1,0-0.2,0-0.2-0.1c-0.6-1.5-2-2.4-3.4-1.5
		c-0.6,0.8-0.6,1.6,0.4,2c0-2.2,2.8-0.2,0.9,0.9c-0.5,0-0.8,0-1.3-0.3c-2.1-2.2-2.5-5.7-5.4-7.1c-0.3-0.1-0.7-0.1-1-0.2
		c0.1-0.4,0.1-0.7,0.2-1.1c-0.4,0.1-0.7,0.3-1.1,0.2c-0.2-0.9-0.8-1.8-1.7-2.3c-1.2,0-2,0.2-1.8,1.6c0.3,0.5,0.3,0.5,0.5,0.5
		c0.1,0,0.1-0.4,0.3-0.6c0.7-0.3,0.8-0.1,1.2,0.5c0,1.4-1.3,1.6-2.1,0.6c-1.1-2.5-1-5.3-2.5-7.7c-0.5-0.5-0.9-0.7-1.5-0.9
		c0.2-0.3,0.3-0.7,0.5-1c-0.3,0-0.6,0-0.9,0c0-0.2,0.3-0.8,0.4-1.3c0-1.6-1.1-3.1-2.8-2.3c-0.1,0.2-0.8,1.7,0,1.5
		c0.6-1.3,2.4,0.5,0.5,1.3c-3.5,0,1.4-8.9-2.2-10.5c0-0.1,0-0.1,0-0.2c0.2-0.2,0.5-0.5,0.8-0.7c-0.7-0.3-0.7-0.3-0.9-0.3
		c0.9-1.3,1.1-1.9,0.6-3.4c-0.7-0.9-1.8-1-2.4,0.1c0,0.2,0,0.5,0,0.7c0,0,0.1,0,0.1,0.1c0.9-1,2,0.6,0.6,1.3
		c-1.2,0.1-1.4-0.5-1.4-1.6c0.7-2.9,3-4.9,2.8-8c-0.2-0.4-0.4-0.7-0.6-1.1c0.6-0.3,1-0.4,1-0.5c-0.9-0.7-0.9-0.7-0.9-0.8
		c2-0.6,2.8-4.1,0.1-4.1c-0.5,0.1-0.9,0.6-0.8,1.1c1-0.3,1.5,0.7,0.7,1.4c-1,0.3-1.6-0.2-1.6-1.1c0.8-2,2.6-3.1,4.2-4.5
		c0.9-1.1,1.9-2.4,1.4-3.9c0.4-0.1,0.7-0.1,1.1-0.1c-0.1-0.2-0.3-0.5-0.4-0.7c1.5-0.4,2.5-1.2,2.4-2.9c-0.6-1.1-1.6-1.3-2.3-0.2
		c1.4,0.1,1,1.5-0.2,1.5c-3.2-1.8,3.2-3.7,4.1-4c1.7-0.8,2.9-1.5,3.3-3.4c0.3,0.1,0.7,0.2,1.1,0.3c-0.2-0.9-0.2-0.9-0.1-1.3
		c1.4,0.4,2.1,0.1,3.2-0.9c0.5-1.1,0.1-2.2-1.2-2.2c-0.2,0.1-0.4,0.3-0.6,0.4c1.3,0.5,0.3,1.9-0.7,1.3c-2.2-2.9,5.3-2.4,6.1-2.4
		c1.6-0.3,2.7-0.5,3.5-2c0.4,0.1,0.6,0.4,0.9,0.6c0.1-0.4,0.2-0.8,0.2-1.2c0.1,0,0.5,0.3,1.2,0.5c1.3,0,2.7-0.3,2.7-1.9
		c-0.2-0.8-0.8-1.3-1.7-0.9c0,0.1,0.2,0.3,0.4,0.5c0,0.9-0.8,1-1.5,0.7c-1.2-2.2,1.5-1.9,2.8-1.6c2.2,0.8,4.7,2.1,7,1.3
		c0.2-0.2,0.5-0.6,0.9-0.6c0.1,0.3,0.3,0.6,0.5,0.9c0.3-0.2,0.3-0.6,0.6-0.8c1.2,0.9,2.6,1.5,3.8,0.1c0.3-1-0.1-1.8-1.2-1.7
		c0.8,1.2-1.4,1.8-1.4-0.1c0.6-1.3,1.8-0.7,2.8-0.1c1.6,1.4,4.6,4.8,7.2,3.7c0.1,0,0.2,0,0.2,0c0,0.3,0,0.8,0.2,1
		c0.3-0.2,0.6-0.6,1-0.7c0.2,1.5,2.4,2.5,3.6,1.5c0.4-0.8,0.4-1.6-0.5-1.9C79,27.2,79,27.2,79,27.7c-0.6,0.6-1,0.3-1.4-0.2
		c0-1.3,0.6-1.8,1.8-1.1c1.8,1.8,2.5,4.4,4.1,6.3c0.8,0.6,1.3,0.8,2.3,0.8c-0.2,0.9-0.2,0.9-0.1,1.1c1.4-0.5,1.4-0.5,1.6-0.5
		c0.1,1.5,0.4,2.3,1.8,3c1.2,0,2.1-0.7,1.5-2c-0.1-0.1-0.2-0.1-0.3-0.2c-0.5,1.8-2.6-0.4-0.7-1.1c1.3,0,1.6,1.2,1.9,2.3
		c0.3,2.3,0.3,6.3,3,7.2c0,0.1,0,0.1,0.1,0.2c-0.2,0.3-0.4,0.5-0.6,0.8c0.5,0,0.9,0,1.4,0.1c-0.3,1.3-0.4,1.7,0.1,2.9
		c1.1,1.2,2.7,1,2.7-0.7c-0.1-0.1-0.1-0.2-0.1-0.2c-0.1,0-0.1,0-0.1,0C97,47.8,95.6,45,98,45c1.1,0.3,0.9,1.8,0.9,2.7
		c-0.4,2.1-1.4,5.2-0.1,7.2c0.2,0.2,0.5,0.5,0.8,0.7c-0.3,0.2-0.6,0.5-0.8,0.7c0.4,0.1,0.8,0.3,1.2,0.4c0,0.1,0,0.1,0,0.2
		c-1.1,1.1-1.1,3.8,0.9,3.8c0.7-0.2,1.3-0.7,1-1.5c-0.8,0.6-1.2,0.2-1.3-0.7c0.4-0.9,1.3-0.7,1.9-0.2c0.3,1.1-0.2,1.9-0.7,2.9
		c-1.2,1.8-3.7,4.7-2.3,7.1c0,0.1,0,0.1-0.1,0.2c-0.9,0.3-0.9,0.3-0.9,0.4c0.3,0.3,0.7,0.6,1,0.9c-1.2,0.9-2.3,2.7-0.7,3.9
		c0.8,0.2,1.8,0,1.6-1c-1,0.6-1.5-1.1-0.4-1.4c1,0,1.4,0.2,1.4,1.3c-1.4,3.1-6.6,4.2-5.9,8.1c-0.4,0-0.8,0-1.1,0
		c0.3,0.4,0.3,0.4,0.5,1c-1.3,0.1-1.8,0.8-2.4,1.9c0,1.4,1.1,2.4,2.3,1.3c0-0.1,0-0.1,0-0.2c-0.7-0.1-0.8-0.2-0.8-0.9
		c0.2-0.5,0.5-0.6,1.1-0.6c3.3,1.8-3.6,3.7-4.4,4c-1.7,0.7-2.9,1.4-3.3,3.2c-0.4-0.1-0.7-0.3-1.1-0.4c0,0.4,0.1,0.9,0.2,1.3
		c-0.4,0-0.9,0-1.3,0c-1.5,0.6-2.5,1.6-1.4,3c0.6,0.3,1,0.3,1.5-0.2c-0.2-0.1-0.4-0.3-0.6-0.4c0-1.3,1.2-1.3,1.8-0.3
		c-0.1,0.8-0.2,1-1,1.5c-0.3,0.1-0.6,0.1-0.9,0.2c-2.6,0-6.7-0.8-8.2,1.9c-0.3-0.2-0.5-0.5-0.8-0.7c-0.3,0.3-0.2,1-0.4,1.4
		c-1.3-0.7-3.2-0.6-3.7,1c0,1,0.6,1.6,1.6,1.3c0,0,0-0.1,0-0.1c-1-0.7,0.1-1.7,1-1.1c0.4,0.8,0.4,1.3-0.4,1.8c-0.3,0-0.7,0-1,0.1
		c-2.5-0.5-6.5-3.4-8.9-1.2c-0.1,0-0.2,0-0.3-0.1c-0.1-0.3-0.3-0.7-0.5-0.8c-0.2,0.4-0.4,0.8-0.8,1.1c-0.9-0.9-3.3-1.6-3.8,0.1
		c0,1,0.2,1.5,1.2,1.5c-0.8-1.2,1.4-1.8,1.4,0.1C60.5,102.3,60.3,102.2,59.5,102.3L59.5,102.3z M59.5,102.3"/>
	<path class="st5" d="M59.7,104c-2.2-0.8-3.6-2.3-5.3-3.8c-1.2-0.7-2.6-1.8-3.6-0.3c0,1.1,0.7,1.7,1.6,0.9c0-0.4,0-0.6-0.3-0.9
		c0.5-0.4,1.1,0.4,1.3,0.7c0,0.3,0,0.6,0,0.9c-0.9,1.7-2.6,1-3.7,0c-0.3-0.6-0.3-0.6-0.4-0.6c-0.2,0.1-0.5,0.3-0.7,0.5
		c-0.1-0.1-0.1-0.1-0.2-1.2c-1.6,0.8-2.6,0.6-3.9-0.8c-1.4-2.1-2-4.7-4.1-6.3c-1.3-0.4-2,0.4-1.6,1.6c0.7,0.6,1.6,0.1,1.2-0.8
		c0.6,0,0.8,0.3,0.9,0.9c-0.1,1.2-0.6,1.6-1.7,1.6c-1.3-0.3-1.7-1.3-1.9-2.5c-0.2,0-0.2,0-0.9,0.2c0.1-0.5,0.1-0.5,0.1-0.7
		c-2.1,0-2.8-1.2-3.3-3.2c-0.2-1.4-0.7-7.7-3.6-6c-0.2,0.6-0.4,1,0.1,1.5c0.8,0.3,1-0.2,1.1-0.9c0.3,0,0.5,0.3,0.6,0.6
		c0,1.8-1.4,2.2-2.8,1.1c-0.5-1-0.7-1.5-0.5-2.6c-0.3,0-0.6,0-0.9,0c0.3-0.5,0.5-1,0.8-1.4c-1.3-0.5-1.8-0.9-2.1-2.3
		c-0.1-1.9,0.3-3.6,0.6-5.4c0-1.1,0.1-4.2-2-3.3c-0.3,0.5-0.5,0.6-0.5,1.3c0.5,0.7,1.2,0.6,1.4-0.3c0,0,0.1,0,0.2,0
		c1,1.9-2.2,3-2.9,0.2c0-0.3,0-0.6,0.1-0.9c0.1-0.3,0.5-0.8,0.4-1.1c-0.2-0.1-0.5-0.1-0.7-0.2c0-0.5,0.9-0.7,1.1-1.1
		c-1.5-1-1.6-2.3-1-4c0.2-0.5,5-8,1.2-7.6C23,58,22.7,58.2,23,59c0.6,0.5,0.8,0.2,1.3-0.2c0.3,0.4,0,0.8-0.2,1.2
		c-2.2,1.6-3.2-1.3-2-3c0.6-0.5,0.6-0.5,0.6-0.6C22,55.9,22,55.9,22,55.7c0.5-0.2,1-0.4,1.6-0.5c0-0.1,0-0.1,0-0.2
		c-1.2-1.2-0.7-2.5,0.1-3.8c1.6-1.9,5.1-3.4,5.1-6.2c-0.4-0.7-0.9-1-1.7-0.7c-0.7,0.7-0.5,1.4,0.5,1.4c0.2-0.2,0.2-0.2,0.4-0.2
		c0,1.1-1.2,1.3-2,1c-1.1-1.1-0.7-2.3,0.3-3.3c0.5-0.3,0.5-0.3,1-0.5c0-0.2,0-0.2-0.3-0.7c0.5-0.1,0.9-0.1,1.4-0.1
		c-0.5-2.2,0.9-3.2,2.7-4c0.7-0.2,7.7-2.3,5.3-4.4c-1-0.3-1.5-0.2-1.5,0.9c0.3,0.3,0.5,0.5,1,0.3c0,0.1,0,0.2,0,0.3
		c-0.8,0.8-1.8,0.6-2.4-0.3c0-2.1,0.8-2.6,2.8-2.8c-0.1-0.3-0.1-0.6-0.2-0.9c0.5,0.2,1.1,0.4,1.6,0.6c0.1-2.3,1.1-2.6,3.1-3.1
		c0.7,0,9,0.5,7.2-2.4c-0.7-0.4-1-0.7-1.7,0c0,0.8,0.1,0.7,0.8,1c-0.3,0.4-0.6,0.4-1.1,0.4c-1.1-0.4-1.4-1.2-0.8-2.3
		c1.1-1.1,1.8-1,3.3-0.7c0-0.3,0.1-0.6,0.1-0.9c0.5,0,0.7,0.7,1.2,0.9c0.5-1.1,0.6-1.2,1.5-1.8c1-0.2,2-0.1,3,0.1
		c1,0.4,7.1,3.3,7.1,0.2c-0.2-0.8-1.2-1.2-1.7-0.5c0,0.2,0,0.4,0,0.6c0.1,0.1,0.3,0.2,0.5,0.4c0,0.1,0,0.1,0,0.2
		C59.9,24,59.9,24,59.4,24c-2.8-1.4,0.6-4.3,2.9-2.1c0.2,0,0.4-0.6,0.5-0.7c0,0,0.1,0,0.1,0c0.3,0.6,0.3,0.6,0.5,0.9
		c0.4-0.1,0.8-0.7,1.4-0.8c2.8,0,4.4,2.1,6.5,3.8c0.6,0.3,1.1,0.6,1.7,0.9c3,0.2,1.4-3.2,0.1-1.7c0,0.5,0,0.5,0.3,0.9
		c-0.4,0.2-0.8,0-1.1-0.3c-1.1-2.2,1.3-3,2.9-1.8c0.4,0.5,0.7,0.9,0.8,1c0.2-0.2,0.4-0.3,0.6-0.5c0.2,0.2,0.2,0.8,0.2,1.2
		c0,0,0.1,0.1,0.1,0.1c0.8-0.5,1.4-0.6,2.3-0.3c3,1.5,3.1,5.6,5.8,7.5c1,0,1.3,0,1.6-1c-0.2-1.6-1.9-1-1.4,0.1
		c-0.9,0.1-0.9-0.9-0.9-1.5c0.3-0.9,0.7-0.9,1.6-1c1.3,0.3,1.9,1.2,2.1,2.5c0.1,0,0.8-0.2,0.9-0.2c-0.3,1.2-0.3,1.2-0.3,1.4
		c4.3-1.4,4.2,3.9,4.7,6.7c0.3,1.1,0.5,2.4,1.7,2.9c1.1,0,1.3-0.5,1.3-1.5c-0.4-0.4-0.4-0.4-1-0.4C95,40.4,95,40.4,95,40.9
		c-1.1-0.6-0.4-2,0.5-2.4c1.9,0.2,2.5,1.6,2.2,3.4c0.3,0,0.6,0,0.9,0c0,0.2,0,0.2-0.8,1.2c1.5,0.4,2,0.7,2.5,2.3
		c0.1,2.1-0.5,4.2-0.8,6.3c0,1.3,0,2.8,1.7,2.8c0.6-0.4,0.8-0.7,0.8-1.4c-0.4-0.3-0.5-0.4-1-0.4c-0.3,0.2-0.3,0.4-0.4,0.7
		c-0.5-0.2-0.4-0.8-0.2-1.3c1.4-1.7,3-0.3,3,1.5c-0.1,0.5-0.3,1-0.6,1.5c0.3,0.1,0.5,0.2,0.8,0.3c-0.4,0.4-0.9,0.8-1.1,1
		c1.3,0.8,1.4,1.1,1.6,2.5c-0.4,2.5-2.6,4.5-3.6,6.9c-0.2,1.3-0.4,1.7,0.8,2.4c1-0.1,1.8-0.9,0.8-1.7c-0.2,0-0.4,0-0.5,0
		c-0.1,0.1-0.2,0.2-0.3,0.3c-0.1,0-0.1,0-0.2-0.1c0-1.2,1.1-1.7,2.2-1.2c1.2,1.6,0.6,2.7-0.7,3.8c0.2,0.2,0.4,0.3,0.6,0.5
		c0,0.1,0,0.1-0.1,0.2c-0.9,0.2-0.9,0.2-0.9,0.3c2.6,3-2.2,5.7-4,7.3c-0.9,1-2.2,2.3-0.8,3.4C98.4,81.2,99,81,99,80
		c-0.5-0.4-0.7-0.5-1.2-0.1c0-0.2,0-0.3,0-0.5c0.7-0.7,1.6-0.9,2.4-0.2c0.6,1.8-0.2,2.8-1.8,3.5c0.3,0.6,0.3,0.6,0.4,0.8
		c-0.4,0-0.8,0-1.2,0c1.1,5.3-7.4,3.5-8.7,7.2c0.1,1,0.5,1.2,1.5,1.2c1-0.3,0.6-1.7-0.4-1.4c0-0.1,0-0.2,0-0.3
		c0.8-0.7,1.9-0.5,2.4,0.4c0,2-1.1,2.6-3,2.7c0.1,0.6,0.1,0.6,0,0.9c-1-0.5-1-0.5-1.1-0.5c-0.1,1.9-0.9,2.4-2.7,2.9
		c-1.9,0.2-6.8-1.1-7.9,1.4c0,1,1.2,1.9,1.8,0.9c0-0.2,0-0.4,0-0.6C79.1,98,78.9,98,78.5,98c0-0.5,0.9-0.4,1.2-0.4
		c0.9,0.4,0.9,0.7,1,1.6c-0.8,1.5-2.1,1.8-3.6,1.2c-0.1,0.5-0.1,0.5-0.2,0.9c-0.3-0.3-0.7-0.5-1-0.8c-0.1,0.1-0.1,0.1-0.4,0.9
		c-1.7,2.2-4.7,0.6-6.7-0.3c-1.4-0.5-2.3-0.7-3.8-0.7c-1.1,0.8-1.3,1.6,0,2.3c0.7,0,1.1-0.6,0.7-1.2c-0.3-0.2-0.3-0.2-0.4-0.3
		c0.6-0.3,1.1,0,1.6,0.4c0.2,0.5,0.2,0.8,0.1,1.4c-1.1,1.3-2.6,1.3-3.8,0.1c-0.1,0-0.1,0-0.2,0c-0.3,0.6-0.3,0.6-0.5,0.7
		c-0.2-0.3-0.3-0.6-0.5-0.9c-0.1,0-0.1,0-0.1,0C61.5,103.8,60.8,103.9,59.7,104L59.7,104z M59.5,102.3c-2.9-1.1-4.5-4.5-7.7-4.8
		c-0.4,0.1-0.8,0.2-1.2,0.3c-0.1-0.9-0.1-0.9-0.2-1.1c-0.3,0.2-0.6,0.5-0.9,0.8c-0.1,0-0.2,0-0.2-0.1c-0.6-1.5-2-2.4-3.4-1.5
		c-0.6,0.8-0.6,1.6,0.4,2c0-2.2,2.8-0.2,0.9,0.9c-0.5,0-0.8,0-1.3-0.3c-2.1-2.2-2.5-5.7-5.4-7.1c-0.3-0.1-0.7-0.1-1-0.2
		c0.1-0.4,0.1-0.7,0.2-1.1c-0.4,0.1-0.7,0.3-1.1,0.2c-0.2-0.9-0.8-1.8-1.7-2.3c-1.2,0-2,0.2-1.8,1.6c0.3,0.5,0.3,0.5,0.5,0.5
		c0.1,0,0.1-0.4,0.3-0.6c0.7-0.3,0.8-0.1,1.2,0.5c0,1.4-1.3,1.6-2.1,0.6c-1.1-2.5-1-5.3-2.5-7.7c-0.5-0.5-0.9-0.7-1.5-0.9
		c0.2-0.3,0.3-0.7,0.5-1c-0.3,0-0.6,0-0.9,0c0-0.2,0.3-0.8,0.4-1.3c0-1.6-1.1-3.1-2.8-2.3c-0.1,0.2-0.8,1.7,0,1.5
		c0.6-1.3,2.4,0.5,0.5,1.3c-3.5,0,1.4-8.9-2.2-10.5c0-0.1,0-0.1,0-0.2c0.2-0.2,0.5-0.5,0.8-0.7c-0.7-0.3-0.7-0.3-0.9-0.3
		c0.9-1.3,1.1-1.9,0.6-3.4c-0.7-0.9-1.8-1-2.4,0.1c0,0.2,0,0.5,0,0.7c0,0,0.1,0,0.1,0.1c0.9-1,2,0.6,0.6,1.3
		c-1.2,0.1-1.4-0.5-1.4-1.6c0.7-2.9,3-4.9,2.8-8c-0.2-0.4-0.4-0.7-0.6-1.1c0.6-0.3,1-0.4,1-0.5c-0.9-0.7-0.9-0.7-0.9-0.8
		c2-0.6,2.8-4.1,0.1-4.1c-0.5,0.1-0.9,0.6-0.8,1.1c1-0.3,1.5,0.7,0.7,1.4c-1,0.3-1.6-0.2-1.6-1.1c0.8-2,2.6-3.1,4.2-4.5
		c0.9-1.1,1.9-2.4,1.4-3.9c0.4-0.1,0.7-0.1,1.1-0.1c-0.1-0.2-0.3-0.5-0.4-0.7c1.5-0.4,2.5-1.2,2.4-2.9c-0.6-1.1-1.6-1.3-2.3-0.2
		c1.4,0.1,1,1.5-0.2,1.5c-3.2-1.8,3.2-3.7,4.1-4c1.7-0.8,2.9-1.5,3.3-3.4c0.3,0.1,0.7,0.2,1.1,0.3c-0.2-0.9-0.2-0.9-0.1-1.3
		c1.4,0.4,2.1,0.1,3.2-0.9c0.5-1.1,0.1-2.2-1.2-2.2c-0.2,0.1-0.4,0.3-0.6,0.4c1.3,0.5,0.3,1.9-0.7,1.3c-2.2-2.9,5.3-2.4,6.1-2.4
		c1.6-0.3,2.7-0.5,3.5-2c0.4,0.1,0.6,0.4,0.9,0.6c0.1-0.4,0.2-0.8,0.2-1.2c0.1,0,0.5,0.3,1.2,0.5c1.3,0,2.7-0.3,2.7-1.9
		c-0.2-0.8-0.8-1.3-1.7-0.9c0,0.1,0.2,0.3,0.4,0.5c0,0.9-0.8,1-1.5,0.7c-1.2-2.2,1.5-1.9,2.8-1.6c2.2,0.8,4.7,2.1,7,1.3
		c0.2-0.2,0.5-0.6,0.9-0.6c0.1,0.3,0.3,0.6,0.5,0.9c0.3-0.2,0.3-0.6,0.6-0.8c1.2,0.9,2.6,1.5,3.8,0.1c0.3-1-0.1-1.8-1.2-1.7
		c0.8,1.2-1.4,1.8-1.4-0.1c0.6-1.3,1.8-0.7,2.8-0.1c1.6,1.4,4.6,4.8,7.2,3.7c0.1,0,0.2,0,0.2,0c0,0.3,0,0.8,0.2,1
		c0.3-0.2,0.6-0.6,1-0.7c0.2,1.5,2.4,2.5,3.6,1.5c0.4-0.8,0.4-1.6-0.5-1.9C79,27.2,79,27.2,79,27.7c-0.6,0.6-1,0.3-1.4-0.2
		c0-1.3,0.6-1.8,1.8-1.1c1.8,1.8,2.5,4.4,4.1,6.3c0.8,0.6,1.3,0.8,2.3,0.8c-0.2,0.9-0.2,0.9-0.1,1.1c1.4-0.5,1.4-0.5,1.6-0.5
		c0.1,1.5,0.4,2.3,1.8,3c1.2,0,2.1-0.7,1.5-2c-0.1-0.1-0.2-0.1-0.3-0.2c-0.5,1.8-2.6-0.4-0.7-1.1c1.3,0,1.6,1.2,1.9,2.3
		c0.3,2.3,0.3,6.3,3,7.2c0,0.1,0,0.1,0.1,0.2c-0.2,0.3-0.4,0.5-0.6,0.8c0.5,0,0.9,0,1.4,0.1c-0.3,1.3-0.4,1.7,0.1,2.9
		c1.1,1.2,2.7,1,2.7-0.7c-0.1-0.1-0.1-0.2-0.1-0.2c-0.1,0-0.1,0-0.1,0C97,47.8,95.6,45,98,45c1.1,0.3,0.9,1.8,0.9,2.7
		c-0.4,2.1-1.4,5.2-0.1,7.2c0.2,0.2,0.5,0.5,0.8,0.7c-0.3,0.2-0.6,0.5-0.8,0.7c0.4,0.1,0.8,0.3,1.2,0.4c0,0.1,0,0.1,0,0.2
		c-1.1,1.1-1.1,3.8,0.9,3.8c0.7-0.2,1.3-0.7,1-1.5c-0.8,0.6-1.2,0.2-1.3-0.7c0.4-0.9,1.3-0.7,1.9-0.2c0.3,1.1-0.2,1.9-0.7,2.9
		c-1.2,1.8-3.7,4.7-2.3,7.1c0,0.1,0,0.1-0.1,0.2c-0.9,0.3-0.9,0.3-0.9,0.4c0.3,0.3,0.7,0.6,1,0.9c-1.2,0.9-2.3,2.7-0.7,3.9
		c0.8,0.2,1.8,0,1.6-1c-1,0.6-1.5-1.1-0.4-1.4c1,0,1.4,0.2,1.4,1.3c-1.4,3.1-6.6,4.2-5.9,8.1c-0.4,0-0.8,0-1.1,0
		c0.3,0.4,0.3,0.4,0.5,1c-1.3,0.1-1.8,0.8-2.4,1.9c0,1.4,1.1,2.4,2.3,1.3c0-0.1,0-0.1,0-0.2c-0.7-0.1-0.8-0.2-0.8-0.9
		c0.2-0.5,0.5-0.6,1.1-0.6c3.3,1.8-3.6,3.7-4.4,4c-1.7,0.7-2.9,1.4-3.3,3.2c-0.4-0.1-0.7-0.3-1.1-0.4c0,0.4,0.1,0.9,0.2,1.3
		c-0.4,0-0.9,0-1.3,0c-1.5,0.6-2.5,1.6-1.4,3c0.6,0.3,1,0.3,1.5-0.2c-0.2-0.1-0.4-0.3-0.6-0.4c0-1.3,1.2-1.3,1.8-0.3
		c-0.1,0.8-0.2,1-1,1.5c-0.3,0.1-0.6,0.1-0.9,0.2c-2.6,0-6.7-0.8-8.2,1.9c-0.3-0.2-0.5-0.5-0.8-0.7c-0.3,0.3-0.2,1-0.4,1.4
		c-1.3-0.7-3.2-0.6-3.7,1c0,1,0.6,1.6,1.6,1.3c0,0,0-0.1,0-0.1c-1-0.7,0.1-1.7,1-1.1c0.4,0.8,0.4,1.3-0.4,1.8c-0.3,0-0.7,0-1,0.1
		c-2.5-0.5-6.5-3.4-8.9-1.2c-0.1,0-0.2,0-0.3-0.1c-0.1-0.3-0.3-0.7-0.5-0.8c-0.2,0.4-0.4,0.8-0.8,1.1c-0.9-0.9-3.3-1.6-3.8,0.1
		c0,1,0.2,1.5,1.2,1.5c-0.8-1.2,1.4-1.8,1.4,0.1C60.5,102.3,60.3,102.2,59.5,102.3L59.5,102.3z M59.5,102.3"/>
	<path class="st2" d="M55,51.1l6.8-4.6l1.6,1.6l1.2-0.6l6.1,3.6l-6-1.8l1.5,1.6l-3.9-1.3L61.5,51l-0.4-1.8L59,51l0.2-1.4L55,51.1z
		 M55,51.1"/>
	<path class="st2" d="M55,51.1l6.8-4.6l1.6,1.6l1.2-0.6l6.1,3.6l-6-1.8l1.5,1.6l-3.9-1.3L61.5,51l-0.4-1.8L59,51l0.2-1.4L55,51.1z
		 M55,51.1"/>
	<path class="st5" d="M63,61.7c-0.3,0.5-0.8,1.6-2.1,2.4c1.7,1.1,2.3,3.3,1.5,5c-1,2.1-2.7,2.5-4.5,2.3c-1-0.1-1.1-0.3-1.8-0.6
		c-0.7,0-0.6,0.1-0.9,0.7c-0.7-0.8-0.5-1.2-0.1-2c-1.4-2.8,0.4-5.2,2.5-6.9c-0.5-0.1-0.6-1.6,0.3-1.6c0.1,0.2,0.1,0.4,0.2,0.6
		c0.1,0.3,0.5,0.2,0.7,0.1c2.2-1.4,3-3.8,1-5.1C58.9,55.9,57.4,56,57,57c-0.9,2.4,2.2,2.6,1.7,1.2c-0.1-0.2-0.6-0.3-1,0
		c-0.2-1.1,0.9-1.6,1.6-1.2c1.2,0.8,0.7,2.8-0.8,3.2c-0.5,0.1-1.1,0.1-1.4-0.1c-1.1,2.5-3.1,0.9-2.1-0.4c0.3,0.8,1.1,0.8,1-0.3
		c-0.9-1-0.5-2.3-0.3-2.5c-1.1-0.1-1.5-1.7-0.5-2c-0.1,0.8,0.3,0.7,0.9,0.6c2.2-0.7,4-1.2,5.5,0.9c2.1,3.1-1.8,5.6-3.7,7.9
		c-1,1.2-1.5,2-0.3,3.5c0.8,0.7,2.2,0.5,1.7-0.8c-0.1-0.4-0.8-0.2-1.3,0.1c-0.2-0.5-0.2-1.1,0.2-1.4c1.5-0.9,2.6,0.8,2.5,1.7
		c-0.1,2.1-2.2,2.5-3.7,1.4c-0.5-0.4-1.2-1.9-1.3-1.9c0.2,2.5,2.2,3.8,4.4,2.9c1.2-0.5,1.5-1.8,1.4-3.1c-0.3-0.8-0.8-1.3-1.5-1.8
		c-0.8-0.3-1.1-0.2-1.2-0.3c2-1.6,3.5-3.2,4.2-5.7c0,0,0,0,0,0c0,0,0,0,0,0c0,0,0,0,0,0c0,0,0,0,0,0c0,0,0,0,0,0
		c0.7,2.5,2.3,4.1,4.2,5.7c-0.1,0.1-0.4,0-1.2,0.3c-0.7,0.5-1.3,1-1.5,1.8c-0.1,1.3,0.2,2.6,1.4,3.1c2.2,0.9,4.2-0.4,4.4-2.9
		c-0.1,0-0.8,1.5-1.3,1.9c-1.5,1.1-3.6,0.7-3.7-1.4c-0.1-1,1-2.6,2.5-1.7c0.4,0.2,0.4,0.8,0.2,1.4c-0.5-0.3-1.2-0.5-1.3-0.1
		c-0.4,1.2,0.9,1.5,1.7,0.8c1.2-1.5,0.7-2.3-0.3-3.5c-1.9-2.2-5.8-4.7-3.7-7.9c1.4-2.1,3.3-1.7,5.5-0.9c0.6,0.1,1,0.2,0.9-0.6
		c1.1,0.3,0.6,1.9-0.5,2c0.1,0.2,0.6,1.5-0.3,2.5c-0.1,1.1,0.8,1.1,1,0.3c1,1.3-1,2.9-2.1,0.4c-0.3,0.1-1,0.2-1.4,0.1
		c-1.4-0.4-1.9-2.4-0.8-3.2c0.7-0.5,1.9,0,1.6,1.2c-0.4-0.4-0.9-0.2-1,0c-0.4,1.4,2.6,1.2,1.7-1.2c-0.4-1-1.9-1.2-2.7-0.6
		c-2,1.3-1.2,3.7,1,5.1c0.2,0.1,0.6,0.2,0.7-0.1c0.1-0.2,0.1-0.4,0.2-0.6c0.8,0,0.8,1.5,0.3,1.6c2.1,1.7,3.9,4.1,2.5,6.9
		c0.5,0.8,0.6,1.2-0.1,2c-0.3-0.7-0.2-0.7-0.9-0.7c-0.8,0.3-0.9,0.5-1.8,0.6c-1.9,0.3-3.5-0.2-4.5-2.3c-0.8-1.7-0.2-3.9,1.5-5
		C63.8,63.3,63.2,62.2,63,61.7C63,61.7,63,61.7,63,61.7L63,61.7z M63,61.7"/>
	<path class="st5" d="M63,61.7c-0.3,0.5-0.8,1.6-2.1,2.4c1.7,1.1,2.3,3.3,1.5,5c-1,2.1-2.7,2.5-4.5,2.3c-1-0.1-1.1-0.3-1.8-0.6
		c-0.7,0-0.6,0.1-0.9,0.7c-0.7-0.8-0.5-1.2-0.1-2c-1.4-2.8,0.4-5.2,2.5-6.9c-0.5-0.1-0.6-1.6,0.3-1.6c0.1,0.2,0.1,0.4,0.2,0.6
		c0.1,0.3,0.5,0.2,0.7,0.1c2.2-1.4,3-3.8,1-5.1C58.9,55.9,57.4,56,57,57c-0.9,2.4,2.2,2.6,1.7,1.2c-0.1-0.2-0.6-0.3-1,0
		c-0.2-1.1,0.9-1.6,1.6-1.2c1.2,0.8,0.7,2.8-0.8,3.2c-0.5,0.1-1.1,0.1-1.4-0.1c-1.1,2.5-3.1,0.9-2.1-0.4c0.3,0.8,1.1,0.8,1-0.3
		c-0.9-1-0.5-2.3-0.3-2.5c-1.1-0.1-1.5-1.7-0.5-2c-0.1,0.8,0.3,0.7,0.9,0.6c2.2-0.7,4-1.2,5.5,0.9c2.1,3.1-1.8,5.6-3.7,7.9
		c-1,1.2-1.5,2-0.3,3.5c0.8,0.7,2.2,0.5,1.7-0.8c-0.1-0.4-0.8-0.2-1.3,0.1c-0.2-0.5-0.2-1.1,0.2-1.4c1.5-0.9,2.6,0.8,2.5,1.7
		c-0.1,2.1-2.2,2.5-3.7,1.4c-0.5-0.4-1.2-1.9-1.3-1.9c0.2,2.5,2.2,3.8,4.4,2.9c1.2-0.5,1.5-1.8,1.4-3.1c-0.3-0.8-0.8-1.3-1.5-1.8
		c-0.8-0.3-1.1-0.2-1.2-0.3c2-1.6,3.5-3.2,4.2-5.7c0,0,0,0,0,0c0,0,0,0,0,0c0,0,0,0,0,0c0,0,0,0,0,0c0,0,0,0,0,0
		c0.7,2.5,2.3,4.1,4.2,5.7c-0.1,0.1-0.4,0-1.2,0.3c-0.7,0.5-1.3,1-1.5,1.8c-0.1,1.3,0.2,2.6,1.4,3.1c2.2,0.9,4.2-0.4,4.4-2.9
		c-0.1,0-0.8,1.5-1.3,1.9c-1.5,1.1-3.6,0.7-3.7-1.4c-0.1-1,1-2.6,2.5-1.7c0.4,0.2,0.4,0.8,0.2,1.4c-0.5-0.3-1.2-0.5-1.3-0.1
		c-0.4,1.2,0.9,1.5,1.7,0.8c1.2-1.5,0.7-2.3-0.3-3.5c-1.9-2.2-5.8-4.7-3.7-7.9c1.4-2.1,3.3-1.7,5.5-0.9c0.6,0.1,1,0.2,0.9-0.6
		c1.1,0.3,0.6,1.9-0.5,2c0.1,0.2,0.6,1.5-0.3,2.5c-0.1,1.1,0.8,1.1,1,0.3c1,1.3-1,2.9-2.1,0.4c-0.3,0.1-1,0.2-1.4,0.1
		c-1.4-0.4-1.9-2.4-0.8-3.2c0.7-0.5,1.9,0,1.6,1.2c-0.4-0.4-0.9-0.2-1,0c-0.4,1.4,2.6,1.2,1.7-1.2c-0.4-1-1.9-1.2-2.7-0.6
		c-2,1.3-1.2,3.7,1,5.1c0.2,0.1,0.6,0.2,0.7-0.1c0.1-0.2,0.1-0.4,0.2-0.6c0.8,0,0.8,1.5,0.3,1.6c2.1,1.7,3.9,4.1,2.5,6.9
		c0.5,0.8,0.6,1.2-0.1,2c-0.3-0.7-0.2-0.7-0.9-0.7c-0.8,0.3-0.9,0.5-1.8,0.6c-1.9,0.3-3.5-0.2-4.5-2.3c-0.8-1.7-0.2-3.9,1.5-5
		C63.8,63.3,63.2,62.2,63,61.7C63,61.7,63,61.7,63,61.7L63,61.7z M63,61.7"/>
	<path class="st2" d="M70.1,78.9c-1.9,0-3.8-0.1-5.7-0.1c-0.4-0.1-1.2-0.3-1.3-0.7c-0.3,0-0.5,0.3-0.7,0.5c-0.3,0.1-0.6,0.1-0.8,0.2
		c-10.7-0.1-10.7-0.1-14.4-0.2l-0.9-1.2h1L48,50.9h-0.4v-0.8h0.6v-0.8h0.6v-0.9h0.6v-0.9h1v0.9h0.6v0.9h0.6v0.8h0.6v0.8h-0.4
		L53,77.3c1.7,0,3.3,0,5,0c0.3-0.1,0.6-0.3,0.9-0.4c2.1,0.9,3.2-0.2,4-2.1c0.8,2.3,1.8,3,4.1,2.1c1.7,0.8,3.8,0.4,5.7,0.4
		c0.1-4.1,0.3-8.2,0.5-12.3c-0.2,0-0.4,0-0.6,0c0-0.5,0-0.9,0-1.4c0.2,0,0.5,0,0.7,0c0-1.8,0-3.7,0.1-5.5c-0.2,0-0.4,0-0.6,0
		c0-0.5,0-1,0-1.5c0.2,0,0.5,0,0.7-0.1c0.1-1.8,0.1-3.7,0.2-5.5c-0.2,0-0.4,0-0.5,0c0-1,0-1,0-1.3c0.7,0,0.6-0.1,0.6-0.8
		c0.2,0,0.5,0,0.7,0c0,0.2,0,0.5,0.1,0.7c0.7,0,1.5,0,2.3-0.1c0-0.2,0-0.4,0-0.6c0.2,0,0.4,0,0.6,0c0,0.2,0,0.5,0,0.7
		c0.2,0,0.5,0.1,0.7,0.1c0,0.4,0,0.9,0.1,1.3c-0.3,0-0.5,0-0.8,0c0.2,4.7,0.2,4.7,0.3,5.5c0.2,0,0.4,0,0.6,0.1c0,0.5,0,1,0,1.5
		c-0.2,0-0.5,0-0.7,0c0.1,1.8,0.1,3.6,0.2,5.5c0.2,0,0.4,0,0.6,0.1c0,0.4,0,0.9,0.1,1.3c-0.2,0-0.5,0-0.7,0c0,4.1,0.2,8.2,0.4,12.3
		c0.4,0,0.7,0,1.1,0c0,0.3-1,1.3-1.3,1.5C75.6,78.8,72.8,78.8,70.1,78.9L70.1,78.9z M70.1,78.9"/>
	<path class="st2" d="M70.1,78.9c-1.9,0-3.8-0.1-5.7-0.1c-0.4-0.1-1.2-0.3-1.3-0.7c-0.3,0-0.5,0.3-0.7,0.5c-0.3,0.1-0.6,0.1-0.8,0.2
		c-10.7-0.1-10.7-0.1-14.4-0.2l-0.9-1.2h1L48,50.9h-0.4v-0.8h0.6v-0.8h0.6v-0.9h0.6v-0.9h1v0.9h0.6v0.9h0.6v0.8h0.6v0.8h-0.4
		L53,77.3c1.7,0,3.3,0,5,0c0.3-0.1,0.6-0.3,0.9-0.4c2.1,0.9,3.2-0.2,4-2.1c0.8,2.3,1.8,3,4.1,2.1c1.7,0.8,3.8,0.4,5.7,0.4
		c0.1-4.1,0.3-8.2,0.5-12.3c-0.2,0-0.4,0-0.6,0c0-0.5,0-0.9,0-1.4c0.2,0,0.5,0,0.7,0c0-1.8,0-3.7,0.1-5.5c-0.2,0-0.4,0-0.6,0
		c0-0.5,0-1,0-1.5c0.2,0,0.5,0,0.7-0.1c0.1-1.8,0.1-3.7,0.2-5.5c-0.2,0-0.4,0-0.5,0c0-1,0-1,0-1.3c0.7,0,0.6-0.1,0.6-0.8
		c0.2,0,0.5,0,0.7,0c0,0.2,0,0.5,0.1,0.7c0.7,0,1.5,0,2.3-0.1c0-0.2,0-0.4,0-0.6c0.2,0,0.4,0,0.6,0c0,0.2,0,0.5,0,0.7
		c0.2,0,0.5,0.1,0.7,0.1c0,0.4,0,0.9,0.1,1.3c-0.3,0-0.5,0-0.8,0c0.2,4.7,0.2,4.7,0.3,5.5c0.2,0,0.4,0,0.6,0.1c0,0.5,0,1,0,1.5
		c-0.2,0-0.5,0-0.7,0c0.1,1.8,0.1,3.6,0.2,5.5c0.2,0,0.4,0,0.6,0.1c0,0.4,0,0.9,0.1,1.3c-0.2,0-0.5,0-0.7,0c0,4.1,0.2,8.2,0.4,12.3
		c0.4,0,0.7,0,1.1,0c0,0.3-1,1.3-1.3,1.5C75.6,78.8,72.8,78.8,70.1,78.9L70.1,78.9z M70.1,78.9"/>
	<path class="st4" d="M48.2,77.3l0.4-26.3h2.6L52,77.3h-1.4c0-1,0.2-2.5-0.3-3.4c-1.5-0.8-1,2.9-1,3.4H48.2z M48.2,77.3"/>
	<path class="st4" d="M48.2,77.3l0.4-26.3h2.6L52,77.3h-1.4c0-1,0.2-2.5-0.3-3.4c-1.5-0.8-1,2.9-1,3.4H48.2z M48.2,77.3"/>
	<path class="st4" d="M76.8,77.3c-0.1-0.3-0.1-0.5-0.1-0.8c-0.2,0-0.4,0-0.6-0.1c0-0.1,0-0.3,0-0.4c0.1,0,0.2,0,0.3,0
		c0-0.1,0-0.2,0-0.3c0.2,0,0.2,0,0.3,0.1c0-0.1,0-0.2,0-0.4c-0.3,0-0.3-0.1-0.5-0.1c0-0.9,0-1.8,0-2.8c0.2,0.8,1.6,4,1.4,4.7
		C77.2,77.3,77,77.3,76.8,77.3L76.8,77.3z M76.8,77.3"/>
	<path class="st4" d="M76.8,77.3c-0.1-0.3-0.1-0.5-0.1-0.8c-0.2,0-0.4,0-0.6-0.1c0-0.1,0-0.3,0-0.4c0.1,0,0.2,0,0.3,0
		c0-0.1,0-0.2,0-0.3c0.2,0,0.2,0,0.3,0.1c0-0.1,0-0.2,0-0.4c-0.3,0-0.3-0.1-0.5-0.1c0-0.9,0-1.8,0-2.8c0.2,0.8,1.6,4,1.4,4.7
		C77.2,77.3,77,77.3,76.8,77.3L76.8,77.3z M76.8,77.3"/>
	<path class="st4" d="M73.8,77.3c1.4-4.3,1.4-4.3,1.6-4.6c0,0.9,0,1.8,0,2.7c-0.1,0-0.2,0-0.2,0.1c0,0.4,0,0.4,0.1,0.5
		c0,0,0.1,0,0.1,0c0,0.1,0,0.3,0,0.5c-0.2,0-0.4,0-0.6,0c-0.1,0.3-0.1,0.5-0.1,0.8C74.4,77.3,74.1,77.3,73.8,77.3L73.8,77.3z
		 M73.8,77.3"/>
	<path class="st4" d="M73.8,77.3c1.4-4.3,1.4-4.3,1.6-4.6c0,0.9,0,1.8,0,2.7c-0.1,0-0.2,0-0.2,0.1c0,0.4,0,0.4,0.1,0.5
		c0,0,0.1,0,0.1,0c0,0.1,0,0.3,0,0.5c-0.2,0-0.4,0-0.6,0c-0.1,0.3-0.1,0.5-0.1,0.8C74.4,77.3,74.1,77.3,73.8,77.3L73.8,77.3z
		 M73.8,77.3"/>
	<path class="st4" d="M77.7,76c-0.5-1.6-1-3.2-1.5-4.9c0.5,0,0.9,0,1.4,0C77.7,74.8,77.7,74.8,77.7,76L77.7,76z M77.7,76"/>
	<path class="st4" d="M77.7,76c-0.5-1.6-1-3.2-1.5-4.9c0.5,0,0.9,0,1.4,0C77.7,74.8,77.7,74.8,77.7,76L77.7,76z M77.7,76"/>
	<path class="st4" d="M73.8,75.8c0-1.6,0.1-3.2,0.1-4.8c0.5,0,0.9,0,1.4,0.1C74.3,74.5,74.3,74.5,73.8,75.8L73.8,75.8z M73.8,75.8"
		/>
	<path class="st4" d="M73.8,75.8c0-1.6,0.1-3.2,0.1-4.8c0.5,0,0.9,0,1.4,0.1C74.3,74.5,74.3,74.5,73.8,75.8L73.8,75.8z M73.8,75.8"
		/>
	<path class="st4" d="M74.4,70.4c0.1-0.6,0.9-2.1,1.4-2.3c1.1,2,1.1,2,1.2,2.3C76.2,70.4,75.3,70.4,74.4,70.4L74.4,70.4z M74.4,70.4
		"/>
	<path class="st4" d="M74.4,70.4c0.1-0.6,0.9-2.1,1.4-2.3c1.1,2,1.1,2,1.2,2.3C76.2,70.4,75.3,70.4,74.4,70.4L74.4,70.4z M74.4,70.4
		"/>
	<path class="st4" d="M77.4,70.1c-0.5-0.8-1.3-1.6-1.4-2.5c0.4-0.7,0.8-1.4,1.3-2c0,0,0.1,0,0.2,0C77.4,67,77.4,68.6,77.4,70.1
		L77.4,70.1z M77.4,70.1"/>
	<path class="st4" d="M77.4,70.1c-0.5-0.8-1.3-1.6-1.4-2.5c0.4-0.7,0.8-1.4,1.3-2c0,0,0.1,0,0.2,0C77.4,67,77.4,68.6,77.4,70.1
		L77.4,70.1z M77.4,70.1"/>
	<path class="st4" d="M73.9,70c0-1.5,0.1-3.1,0.1-4.6c0,0,0.1,0,0.1,0c0.3,0.5,1.4,1.8,1.2,2.4C74.9,68.5,74.4,69.3,73.9,70L73.9,70
		z M73.9,70"/>
	<path class="st4" d="M73.9,70c0-1.5,0.1-3.1,0.1-4.6c0,0,0.1,0,0.1,0c0.3,0.5,1.4,1.8,1.2,2.4C74.9,68.5,74.4,69.3,73.9,70L73.9,70
		z M73.9,70"/>
	<path class="st2" d="M49.6,67.4c0-1.6,0-1.6,0.1-1.7c0.1,0,0.2,0,0.4,0c0.2,0.5,0.2,1.2,0.2,1.7C50.1,67.4,49.8,67.4,49.6,67.4
		L49.6,67.4z M49.6,67.4"/>
	<path class="st2" d="M49.6,67.4c0-1.6,0-1.6,0.1-1.7c0.1,0,0.2,0,0.4,0c0.2,0.5,0.2,1.2,0.2,1.7C50.1,67.4,49.8,67.4,49.6,67.4
		L49.6,67.4z M49.6,67.4"/>
	<path class="st4" d="M75.7,67.2c-0.4-0.7-0.8-1.4-1.2-2.1c0.9,0,1.8,0,2.6-0.1C76.9,65.4,76.1,67,75.7,67.2L75.7,67.2z M75.7,67.2"
		/>
	<path class="st4" d="M75.7,67.2c-0.4-0.7-0.8-1.4-1.2-2.1c0.9,0,1.8,0,2.6-0.1C76.9,65.4,76.1,67,75.7,67.2L75.7,67.2z M75.7,67.2"
		/>
	<path class="st4" d="M74.4,63.6c0.3-0.8,0.8-1.6,1.3-2.3c0.4,0,1.2,1.7,1.3,2.3C76.2,63.6,75.3,63.6,74.4,63.6L74.4,63.6z
		 M74.4,63.6"/>
	<path class="st4" d="M74.4,63.6c0.3-0.8,0.8-1.6,1.3-2.3c0.4,0,1.2,1.7,1.3,2.3C76.2,63.6,75.3,63.6,74.4,63.6L74.4,63.6z
		 M74.4,63.6"/>
	<path class="st4" d="M77.2,62.9c-0.4-0.7-1.1-1.5-1.2-2.2c0.4-0.6,0.7-1.3,1.1-1.9c0.2,1.3,0.2,2.8,0.2,4.1
		C77.3,62.9,77.3,62.9,77.2,62.9L77.2,62.9z M77.2,62.9"/>
	<path class="st4" d="M77.2,62.9c-0.4-0.7-1.1-1.5-1.2-2.2c0.4-0.6,0.7-1.3,1.1-1.9c0.2,1.3,0.2,2.8,0.2,4.1
		C77.3,62.9,77.3,62.9,77.2,62.9L77.2,62.9z M77.2,62.9"/>
	<path class="st4" d="M74.2,62.8c0-0.3,0-0.3,0.1-4.1c0.2,0.2,0.2,0.2,1.2,1.8C75.3,61.4,74.6,62.2,74.2,62.8L74.2,62.8z M74.2,62.8
		"/>
	<path class="st4" d="M74.2,62.8c0-0.3,0-0.3,0.1-4.1c0.2,0.2,0.2,0.2,1.2,1.8C75.3,61.4,74.6,62.2,74.2,62.8L74.2,62.8z M74.2,62.8
		"/>
	<path class="st2" d="M49.6,60.9c-0.1-0.9-0.1-0.9,0-1.6c0.2-0.1,0.2-0.1,0.4-0.1c0.3,0.3,0.2,1.3,0.2,1.7
		C50.1,60.9,49.8,60.9,49.6,60.9L49.6,60.9z M49.6,60.9"/>
	<path class="st2" d="M49.6,60.9c-0.1-0.9-0.1-0.9,0-1.6c0.2-0.1,0.2-0.1,0.4-0.1c0.3,0.3,0.2,1.3,0.2,1.7
		C50.1,60.9,49.8,60.9,49.6,60.9L49.6,60.9z M49.6,60.9"/>
	<path class="st4" d="M75.7,60.2c-0.4-0.7-0.8-1.4-1.2-2.1c0.8,0,1.6,0,2.4,0C75.8,60.2,75.8,60.2,75.7,60.2L75.7,60.2z M75.7,60.2"
		/>
	<path class="st4" d="M75.7,60.2c-0.4-0.7-0.8-1.4-1.2-2.1c0.8,0,1.6,0,2.4,0C75.8,60.2,75.8,60.2,75.7,60.2L75.7,60.2z M75.7,60.2"
		/>
	<path class="st4" d="M74.7,56.6c0,0,0-0.1-0.1-0.1c0.3-0.7,0.7-1.4,1.1-2c0.1,0.1,0.1,0.1,1,2.1C76.1,56.6,75.4,56.6,74.7,56.6
		L74.7,56.6z M74.7,56.6"/>
	<path class="st4" d="M74.7,56.6c0,0,0-0.1-0.1-0.1c0.3-0.7,0.7-1.4,1.1-2c0.1,0.1,0.1,0.1,1,2.1C76.1,56.6,75.4,56.6,74.7,56.6
		L74.7,56.6z M74.7,56.6"/>
	<path class="st4" d="M77.1,55.9c-0.3-0.7-0.9-1.4-1-2.1c0.3-0.6,0.6-1.3,0.9-1.9c0.1,1,0.1,1,0.2,4C77.2,55.9,77.2,55.9,77.1,55.9
		L77.1,55.9z M77.1,55.9"/>
	<path class="st4" d="M77.1,55.9c-0.3-0.7-0.9-1.4-1-2.1c0.3-0.6,0.6-1.3,0.9-1.9c0.1,1,0.1,1,0.2,4C77.2,55.9,77.2,55.9,77.1,55.9
		L77.1,55.9z M77.1,55.9"/>
	<path class="st4" d="M74.4,55.9c0-1.4,0.1-2.7,0.2-4c0.3,0.6,1,1.6,0.9,2.2C75.1,54.6,74.7,55.3,74.4,55.9L74.4,55.9z M74.4,55.9"
		/>
	<path class="st4" d="M74.4,55.9c0-1.4,0.1-2.7,0.2-4c0.3,0.6,1,1.6,0.9,2.2C75.1,54.6,74.7,55.3,74.4,55.9L74.4,55.9z M74.4,55.9"
		/>
	<path class="st2" d="M49.5,54.7c0-0.5,0-1.5,0.2-1.9c0.8,0,0.5,0.6,0.5,1.2c0.2,0.1,0.2,0.4,0.2,0.7C50.1,54.7,49.8,54.7,49.5,54.7
		L49.5,54.7z M49.5,54.7"/>
	<path class="st2" d="M49.5,54.7c0-0.5,0-1.5,0.2-1.9c0.8,0,0.5,0.6,0.5,1.2c0.2,0.1,0.2,0.4,0.2,0.7C50.1,54.7,49.8,54.7,49.5,54.7
		L49.5,54.7z M49.5,54.7"/>
	<path class="st4" d="M75.7,53.3c-0.3-0.7-0.7-1.5-1-2.2c0.7,0,1.4,0,2.2,0C76.7,51.5,76.2,53,75.7,53.3L75.7,53.3z M75.7,53.3"/>
	<path class="st4" d="M75.7,53.3c-0.3-0.7-0.7-1.5-1-2.2c0.7,0,1.4,0,2.2,0C76.7,51.5,76.2,53,75.7,53.3L75.7,53.3z M75.7,53.3"/>
</g>
</svg>
