<?xml version="1.0" encoding="utf-8"?>
<!-- Generator: Adobe Illustrator 22.0.1, SVG Export Plug-In . SVG Version: 6.00 Build 0)  -->
<svg version="1.1" id="Слой_1" xmlns="http://www.w3.org/2000/svg" xmlns:xlink="http://www.w3.org/1999/xlink" x="0px" y="0px"
	 viewBox="0 0 127.3 127" style="enable-background:new 0 0 127.3 127;" xml:space="preserve">
<style type="text/css">
	.st0{fill:url(#SVGID_1_);}
	.st1{fill:#FFFFFF;}
	.st2{fill:#161413;}
	.st3{fill:#A8002C;}
	.st4{fill:#E2B700;}
	.st5{fill:#0092D0;}
</style>
<radialGradient id="SVGID_1_" cx="64.7549" cy="397.2348" r="62.5661" gradientTransform="matrix(1 0 0 -1 0 461.653)" gradientUnits="userSpaceOnUse">
	<stop  offset="0.9487" style="stop-color:#212121"/>
	<stop  offset="1" style="stop-color:#606060;stop-opacity:0"/>
</radialGradient>
<circle class="st0" cx="64.8" cy="64.4" r="62.6"/>
<circle class="st1" cx="62.6" cy="62.6" r="62.6"/>
<g transform="translate(0.470703, 0.887695)">
	<path class="st1" d="M27.2,21.8h71.6V88l0,0.7l0,0.7l-0.1,0.7l-0.1,0.7l-0.1,0.7L98.3,92l-0.2,0.7l-0.2,0.6l-0.2,0.6l-0.3,0.6
		l-0.3,0.6l-0.3,0.5l-0.4,0.5L96,96.6l-0.4,0.5l-0.4,0.5L94.6,98l-0.5,0.4l-0.5,0.4L93,99.1l-0.6,0.3l-0.6,0.3l-0.7,0.3l-0.7,0.3
		l-0.7,0.2l-0.7,0.2l-0.7,0.2l-0.8,0.1l-0.8,0.1l-0.8,0.1l-0.8,0l-0.9,0h-8.1h-0.6l-0.5,0h-0.5l-0.5,0.1l-0.5,0l-0.5,0.1l-0.5,0.1
		l-0.5,0.1l-0.5,0.1l-0.4,0.1l-0.4,0.1l-0.4,0.1l-0.4,0.1l-0.4,0.1l-0.4,0.1l-0.4,0.2l-0.4,0.2l-0.4,0.2l-0.4,0.2l-0.3,0.2l-0.3,0.2
		l-0.3,0.2l-0.3,0.2l-0.3,0.2l-0.3,0.2l-0.3,0.2l-0.3,0.2L65,105l-0.3,0.2l-0.3,0.2l-0.3,0.3l-1.1,1.1l-1.1-1.1l-0.3-0.3l-0.3-0.2
		L61,105l-0.3-0.2l-0.3-0.2l-0.3-0.2l-0.3-0.2l-0.3-0.2l-0.3-0.2l-0.3-0.2l-0.3-0.2l-0.3-0.2l-0.4-0.2l-0.4-0.2l-0.4-0.2l-0.4-0.2
		l-0.4-0.1l-0.4-0.1l-0.4-0.1l-0.4-0.1l-0.4-0.1l-0.4-0.1l-0.5-0.1l-0.5-0.1l-0.5-0.1l-0.5-0.1l-0.5,0l-0.5-0.1h-0.5l-0.6,0h-0.6
		h-8.1l-0.9,0l-0.8,0l-0.8-0.1l-0.8-0.1l-0.8-0.1l-0.7-0.2l-0.7-0.2l-0.7-0.2l-0.7-0.3l-0.7-0.3l-0.6-0.3l-0.6-0.3l-0.6-0.4L32,98.4
		L31.5,98L31,97.5l-0.5-0.5l-0.4-0.5l-0.4-0.5l-0.4-0.5L29,95.1l-0.3-0.6l-0.3-0.6l-0.3-0.6L28,92.7L27.8,92l-0.2-0.6l-0.1-0.7
		l-0.1-0.7l-0.1-0.7l0-0.7l0-0.7V21.8z"/>
</g>
<g transform="translate(6.12012, 6.32813)">
	<path class="st2" d="M22.5,17.2h69.9v65.4l0,0.7l0,0.7l-0.1,0.7l-0.1,0.6L92,85.8l-0.2,0.6L91.6,87l-0.2,0.6l-0.2,0.6L91,88.7
		l-0.3,0.5l-0.3,0.5L90,90.2l-0.4,0.5l-0.4,0.4l-0.4,0.4l-0.4,0.4l-0.5,0.4l-0.5,0.4L86.9,93l-0.6,0.3l-0.6,0.3l-0.6,0.3L84.5,94
		l-0.6,0.2l-0.7,0.2l-0.7,0.2l-0.8,0.1l-0.7,0.1l-0.8,0.1l-0.8,0l-0.8,0h-8.1H70l-0.6,0h-0.6L68.4,95l-0.5,0l-0.5,0.1l-0.5,0.1
		l-0.5,0.1l-0.5,0.1l-0.5,0.1L65,95.6l-0.5,0.1l-0.4,0.1L63.7,96l-0.4,0.2l-0.4,0.2l-0.4,0.2l-0.4,0.2l-0.4,0.2l-0.4,0.2l-0.3,0.2
		l-0.4,0.2l-0.3,0.2l-0.3,0.2l-0.3,0.2l-0.3,0.2l-0.3,0.2l-0.3,0.3l-0.3,0.3l-0.3,0.2L58,99.6l-0.6,0.6l-0.6-0.6l-0.3-0.3l-0.3-0.2
		L56,98.9l-0.3-0.3l-0.3-0.2L55,98.2l-0.3-0.2l-0.3-0.2l-0.3-0.2l-0.3-0.2l-0.4-0.2L53,96.9l-0.4-0.2l-0.4-0.2l-0.4-0.2l-0.4-0.2
		L51,96l-0.4-0.1l-0.5-0.1l-0.4-0.1l-0.4-0.1l-0.5-0.1l-0.5-0.1l-0.5-0.1l-0.5-0.1l-0.5-0.1l-0.5,0L45.9,95h-0.6l-0.6,0h-0.6h-8.1
		l-0.8,0l-0.8,0l-0.8-0.1L33,94.7l-0.7-0.1l-0.7-0.2l-0.7-0.2L30.2,94l-0.6-0.2L29,93.5l-0.6-0.3L27.9,93l-0.5-0.3l-0.5-0.4
		l-0.5-0.4l-0.4-0.4l-0.4-0.4l-0.4-0.4l-0.4-0.5l-0.4-0.5l-0.3-0.5l-0.3-0.5l-0.3-0.6l-0.2-0.6L23.1,87l-0.2-0.6l-0.1-0.6l-0.1-0.6
		l-0.1-0.6l-0.1-0.7l0-0.7v-0.7V17.2z"/>
</g>
<g transform="translate(8.63086, 9.04785)">
	<path class="st3" d="M20.4,14.9h34.5h34.5v64.9c0,7-4.5,11.9-13.2,11.9h-8.1c-6.2,0-10.2,2.2-13.2,5.1c-2.9-2.9-7-5.1-13.2-5.1
		h-8.1c-8.7,0-13.2-4.9-13.2-11.9V14.9z"/>
</g>
<g transform="translate(35.624, 28.9268)">
	<path class="st2" d="M8.4,53.6c0.5-2,1.7-3,3.7-3.3c1.9-0.3,4.1-1.4,6.4-2.5c1-0.7,1.1-0.4,0.4,1l-1.1,1.3c-0.6,0.7-0.7,1.3,0.1,2
		c1.1,0.6,1.6,1.1,1.4,1.5c-1.2-0.3-2.3-0.2-3.3,0.7c-0.7-0.2-1.5-0.1-2.7,0.5c-0.6-0.3-1.2-0.4-2-0.1c-0.2-0.5-0.8-0.6-1.7-0.5
		C9.4,54,9,53.8,8.4,53.6z M21.8,53.6c-1.2-1.2-1.3-2.3,0-3.2c0.8-0.5,1.9-1.7,3.2-3.6c0.9-0.1,1.7-0.3,2.7-0.4
		c3.7-0.5,7.1-1.2,9.9-2.8c0.5-0.2,0.9-0.1,1.1,0.3l2.2,2.8l-0.6,0.2l1.6,1.2c-0.3,0.2-0.1,0.4,0.3,0.5c-0.2,0.3-0.1,0.6,0.2,0.6
		c0.1,0.4,0.4,1-0.4,0.2c-0.5-0.3-0.6,0-0.2,0.8l0.9,1.3c0.1,0.6,0.3,1.1,0.8,1.5l0.7,1.5c0,0.2,0.1,0.5,0.2,0.7
		c0.1,0.6,0.2,0.9,0.7,0.9c-0.5,0.9-1,1.7-2,2.2c-1.9,1-3.5,0.6-3.3-1.9c0.1-1.4,0.4-2.5,0.4-3.9c0.6-2.2,0-3.3-1.9-3.4
		c-1,0-1.7,0-2.3,0.4c-0.5,0.4-1.3,0.2-2.3-0.4c-2-1.5-3.4-2.3-4.4-2.3c0.9,1.1,1.2,2.2,0.5,3.2c0.8,0.4,0.8,0.7,0,1.1
		c-1.9,0.1-4-0.3-6.2-0.9c-0.7-0.1-0.9,0-0.4,0.4c1.6,0.7,2.5,1.6,2.5,3c-1,0-1.9,0.1-2.4,0.2C22.8,54.2,22.3,54.2,21.8,53.6z
		 M40.4,64.2c-0.6,0.3-0.7,0.6-0.2,0.9c0.4,0.2,0.6,0.3,0.6,0.1C41.5,65.1,40.5,64.8,40.4,64.2z M23.2,62.8
		c-0.4,0.3-0.5,0.6-0.3,0.9l0.7,0.6c0.3-0.3,0.2-0.7-0.1-0.9C23.4,63.3,23.3,63.1,23.2,62.8z M14.9,59.3c0.5,0.2,0.5,0.7-0.1,1
		C14.2,60.1,14.3,59.7,14.9,59.3z M5.3,39.9c2.4,2.7,2.8,5.8,0.9,9.4c-0.7,1.7-0.6,2.8,0.3,3.4C6.8,52,7,51.1,7.1,50.2
		c0.2-1.5,1.1-1.3,2.4-2.6c1.3-1.4,0.9-2.8,0.8-5.1c-0.2-4.9,0.8-7.8,2.2-9.4C8.9,32.1,6.7,34.8,5.3,39.9z M7.6-0.7
		C7.2-0.6,7-0.4,7.1,0.1L10,4.3c0.1,0.2,0.3,0.4,0.3,0.6c-0.2,0.6-0.3,0.9,0.2,1.4l1,0.9c0.1,0.7,0.2,1.2,0.5,1.4
		c-0.2,0.5,0.1,0.9,0.5,1.3c0.1,0.1,0.1,0.3,0.3,0.4l0.2,1.4c-1.4,1.1-2.1,2-2.2,2.5c-0.1,0.3-0.1,0.5,0.1,0.7l1.9-0.2
		c0.2,0.1,0.4,0.1,0.4,0.3c0.3,0.7-0.1,1.8-1.1,1.9c-2.4,0.6-4.1,1.4-3.4,3c0.9,1.1,0.4,2.2-1.1,3.1c-0.4,0.3-0.5,0.8-0.5,1.3
		c-0.4,0.4-0.8,0.9-1,1.5c-0.2,0.7-0.2,0.9,0.2,0.9c3.3-1.1,6.6-1.6,8.9,0.4c1.1,0.9,0.9,1.4,2.7,1.5c-0.2,0.8,0,1.2,0.7,1.3
		l0.1,0.9C17.8,31,17,31,16.3,31.2c-0.8,0.2-1.6,0.5-2.3,0.5c-0.6-0.5-1.3-0.8-1.9-1.1c-3-1.9-5.5-2-7.7,0.6c-1.1,1.3-2.2,3.2-3,6
		c-0.2,0.5-0.6,0.7-1.3,0.2c-1.6-1.3-1.9-2.4-1.1-3.2c1.1-1,1.5-0.4,0.9,0.1l0,0.1c0.9,0,1.2,0.6,1.5,1.2c0.7-1.9,0.3-3.1-0.7-4.2
		l-0.2,0l0.1,1.6c-1.7-0.4-2.7,1-2.8,2.2c-0.1,1.2,0.5,2.3,2,3.2c0.9,0.3,1.1,1.3,0.5,2.3c-1.7,2.5-1.4,5.1,0.1,8.5l0.2-0.1
		c0.3-3.7,1.1-5.6,2.4-6c0.4-0.1,0.8-0.4,1.1-0.8c0.4-0.6,0.6-0.5,0.8,0.1c0.7,1.6,0.6,3.1-0.3,4.6c-2.2,3.5-2.3,6.2,0.8,8.3
		l0.1,0.3l-0.8,1c-0.3,0.4-0.1,0.9,0.7,1.5c0.5,0.6,0.8,1.6,0.9,2.9c-0.3,0.4-0.3,0.9-0.1,1.4c0.5,0.7,1.6,1,3.1,0.9
		c0.2,0,0.1-0.2,0.1-0.3c0.1-0.7-0.4-1.2-0.9-2.1c-1.5-1.4-1.9-2.7-1.4-4l0.2-0.4c1.2,0.4,2.7,0.9,4.2,1.1c-0.6,1.2-0.5,2.7,0,3.6
		c1,1.7,2,2.5,4,2.3c2.7-0.2,4-2.4,3-5.4c0.9-0.5,1.6-0.5,1.9,0.1c0,1.3,0.6,0.9,0.6,2.2c-1.6,1.4-2.2,2.6-0.5,3.3
		c0.9,0.9,0.4,1.2-0.8,1.3C18.4,65,17.5,65,17.4,66c-1.1,0.1-1.4,0.7-1.4,1.8c0.3-0.8,0.9-0.9,1.3-0.7c0.6,0,1.2,0.1,1.7-0.1
		c0.5-0.2,1-0.2,1.7,0c0.3,0,0.6,0.1,0.7,0.4c0.8,0.8,0.7-0.1,2.4,0.9c0.4,0,1.1,0,1.3,0.7l0.2-0.6c0.1-0.2,0.1-0.5-0.2-0.7
		c-0.6-0.7,0.3-0.7,1.9-0.4c0.8,0.4,1.6,0.5,2.2,0.4c0.7-0.7,0.9-0.3,1,0.7c0.5-1.3,0.2-2.1-1.2-2.1c0.2-0.7,0.3,0.4,0.8-0.5
		c0.4-0.2,0.9,0,1.3,0.4c0.1-0.7-0.3-1-1.1-1.2c-0.2-0.6-0.6-0.6-1.2,0c-2.5-0.7-2.7-2.2-1.3-2.5c0.8-0.2,1,0.6,1.6,0.8
		c0.5,0.2,0.7,0.1,1.3,0.2c0.7,0,1.3,0.2,1.7,0.5l0.5,0.2c0.3-0.2,0.5-0.2,0.9,0.1c0.4,0.5,0.7,0.6,1,0.2c1-0.8,2.5-0.8,2.4-0.3
		c0,0.7,0.1,1,0.4,0.9c0.2,0,0.3,0.3,0.3,0.9c-0.9,0-1.6,0.1-1.6,0.8c-0.9,0.3-0.9,0.9-0.5,1.7c-0.1-1.6,1.2-0.3,2.6-1.1l0.9-0.1
		c0.1,0.5,0.5,0.7,1.3,0.6c0.3-0.1,0.8-0.1,1-0.2c1.6-0.4,2.9-0.3,3.8,1c0.2-0.4,0.2-0.8-0.1-1.2c1.1-0.8,2.3-0.5,1.6,0.8
		c0.7-0.3,1.3-2,0.5-2c0.4-1,1.8-0.2,1.4,0.6c0.6-0.3,0.7-0.8,0-1.4c-0.1-0.6-0.6-0.7-1.4-0.5c-0.5-0.8-1-0.8-1.8-0.1
		c-0.8,0.4-1.4,0.4-1.8-0.1c-0.4-0.7-0.3-1,0.3-0.8c0.3,0.1,0.4-0.3,0.8-0.9c0.1-0.3,0.4-0.5,0.6-0.9c0.9-0.1,1.5-0.9,2.4-2.4
		c0.6-0.3,0.9-1.5,0.9-3.4c0.3,0.1,0.6,0,1-0.2c-0.3,0-0.4-0.1-0.4-0.9h0.8c0.3-0.1,0.5-0.3,0.4-0.4c0-0.1-0.3-0.1-0.6-0.5
		c-0.1-0.5-0.4-0.9-0.9-1.4L48,51.4c-0.6-1.8-1.2-2.8-2-2.1l-0.2-0.1c-0.6-0.7-1.1-1.6-1.4-2.6c0-1.2-1.3-1.3-2-0.1l-0.2-1l-0.3,0.5
		l-2.1-3c0.2,0,0.6-0.3,0.9-0.3c2.5-0.2,5-0.9,7.6-2.4l1.8-0.6c0.8-0.3,1.1-0.1,1.5,0.4l1.9,1.9c0.4,0.4,0.4,0.8,0.2,1.1
		c-0.2,0.4,0.3,0.9,0.9,1.5c0.6,0.7,0.7,1.5,0.1,2.7c-0.3,0.7-0.2,1.2,0.2,1.4l1.3,0.9c0.9,0.7,1.3,0.5,1.2-0.8
		c-0.1-0.6-0.3-1.2-0.6-1.8c-0.4-0.8-0.7-1.5-0.8-2.2c0-1.5-0.2-2.3-0.9-2.8c-0.7-0.7-1.3-1.5-1.8-2.3c-0.2-0.5-0.3-0.8-0.6-0.9
		c-0.1-1.6-1.2-2.4-1.9-1.9c-0.6,0.1-1.2,0.2-1.9,0.1v-0.4c0.8-0.5,2.2-1.9,3.6-3.5c0.5-0.7,0.8-0.4,1.3,0.1l2,2.1
		c-0.1,1,0.1,1.7,0.8,1.7c0.5,0.9,0.7,1.7,0.3,2c-0.5,0.4-0.8,0.7-0.8,1.2c0.1,0.8,1,1.7,2.1,2.1c0.1,0,0.3,0,0.3-0.2
		c0.3-0.7,0.3-1.6,0-2.4l-0.4-1.2c-0.1-0.5,0-0.9,0-1.2c0.1-0.9,0.1-1.5-0.9-2.2c-1.3-1.3-2.4-2.7-3.2-4.1c0-1.9-1.6-2.4-2.6-0.3
		l-2,1.4c-0.5,0.3-0.8-0.2-0.8-0.7c-0.2-2.5-1.9-4.4-3.7-6.3c-1-3-2.3-5.5-2.8-7.8c1.9,0.2,3.3,0.6,3.8,1.1c0.8,0.9,1.9,1.3,2.1,0.7
		c0.1-0.2-0.5-0.6-0.8-0.9c0.3,0,0.8,0.3,1.2,0.8c0.8,0,1.1-0.6,0.9-1.5c0.1-0.7,0.1-1.2-0.2-1.4l-0.7-0.4c-1.1-1.2-2.1-2.5-2.9-3.9
		c-0.1-0.2-0.1-0.3-0.1-0.4c0-0.6-0.2-1-0.7-1.5l0.3-0.1l0-0.2l0.6,0.1l-0.6-1c-0.3-1.2-1.4-1.4-3.1-0.9c-0.2,0.1-0.5-0.2-0.8-0.5
		c-1-1-2.2-1.6-1.8-0.8c0.1,0.1,0.4,0.5,0,0.5l-1.8-0.3c-0.4-0.1-0.5,0.1-0.4,0.3c0.3,0.4,0.7,0.7,0.8,1.1l-2.3,0.1
		c-0.5,0-0.9,0.2-1.3,0.2c-1.2-1-2.8-0.3-4.4,0.9l-0.2-0.1l0-1.9H30L29.9,6H30c0.1-1.8-0.2-3-0.9-3.8c-0.1-0.6,0.4-0.5,0.6-0.7
		c0.5-0.7,0.5-1.4,0.5-1.8C30-1,29.8-1.3,29.4-1h-0.5c-0.5-0.1-0.9-0.2-1.1-0.5c-0.5-0.4-1-0.4-1.5,0c-2.4,0.6-2.8,2.4-5.7,1.2
		c-0.3,0-0.4,0.1-0.3,0.4c0.5,0.7,1.2,1.1,1.9,1.4c-0.3,0.2-0.8,0.2-1.6,0.2c0.5,0.7,1.4,1,2.9,0.9c0.6,0.3,1.2,0.2,1.9-0.1
		C26,2.2,26,2.3,25.7,2.9c-0.8,0.6-1.3,1.8-1.4,4c-0.3,0.5-0.5,0.9-0.6,1.5c-1.1-0.3-2-0.5-2.4-0.2l-0.4,0C20,7.5,19.1,7.5,18.3,8
		l-1.7,1.3c-0.6,0.4-1.1,0.5-1.2-0.1l-0.7-1.5c0-1-0.4-1.5-1.1-1.6c-0.3-0.3-0.6-0.7-0.6-1l-0.5-0.6c0.2-0.6-0.1-0.8-0.5-0.8
		c-0.4,0-0.8-0.1-1-0.2L7.6-0.7z"/>
</g>
<g transform="translate(400.768, 313.718)">
	<path class="st1" d="M-310.3-237l0.3-0.7c0.2-0.2,0.3-0.2,0.4,0l0.8,0.7c-0.2,0.2-0.5,0.2-0.8,0.2l0.3,0.4l-0.3,0.1l-0.1,0.4
		C-310.2-236.3-310.5-236.7-310.3-237z M-309.6-239.4c0.1,0,0.2,0.3,0.2,0.6c0,0.3-0.1,0.6-0.2,0.6c-0.1,0-0.2-0.3-0.2-0.6
		C-309.8-239.1-309.7-239.4-309.6-239.4z M-310.1-242.1c0.1-0.1,0.2,0.1,0.3,0.2c0.1,0.2,0.2,0.4,0.1,0.4c-0.1,0-0.2-0.1-0.3-0.3
		C-310.1-241.9-310.1-242-310.1-242.1z"/>
</g>
<g transform="translate(412.066, 265.59)">
	<path class="st1" d="M-319.3-197.1c-0.1-0.1-0.2-0.1-0.3,0c-0.4,0.4-0.4,0.8-0.2,1l0.7,0.6c0.2,0.2,0.5,0.1,0.4-0.1l-0.3-0.4
		c0.2,0.1,0.3,0.2,0.5,0.2c0.1,0,0.2-0.2,0-0.3c-0.3-0.3-0.3-0.4-0.2-0.5c0.1-0.1,0.1-0.1,0-0.2L-319.3-197.1z M-319.3-200.2
		c-0.3-0.4-0.3-0.6,0.2-0.6c-0.4-0.6,0-0.8,0.4-0.1c0.2,0.3,0.2,0.9,0.2,1.6c0,0.2-0.3,0.3-0.3,0
		C-319-199.7-319.1-199.9-319.3-200.2z M-319-197.6l0.2-0.8c0-0.2,0.1-0.2,0.2,0c0.3,0.3,0.5,0.7,0.6,1.2c0.1,0.2,0,0.4-0.1,0.4
		c-0.2,0-0.4-0.1-0.5-0.2C-319-197.2-319-197.4-319-197.6z"/>
</g>
<g transform="translate(335.271, 212.021)">
	<path class="st1" d="M-253.8-152.4c0-1.4,0.2-2.5,0.2-3.5c0-0.4,0.3-0.4,0.3,0.1c0.1,1.1-0.1,2.2-0.2,3.3
		C-253.5-152.3-253.8-152-253.8-152.4z M-251.9-146.9c0.1,0,0.1,0.1,0.1,0.1c0,0.1,0,0.1-0.1,0.1c-0.1,0-0.1-0.1-0.1-0.1
		C-252-146.9-252-146.9-251.9-146.9z M-255.1-151.8l0.1-0.1c0,0,0.1,0,0.1,0l0.5,0.6c0,0,0,0.1,0,0.1l-0.1,0.1c0,0-0.1,0-0.1,0
		l-0.5-0.6C-255.2-151.7-255.2-151.7-255.1-151.8z M-250.4-148.3l0.2-1.3l-0.2,0.5c-0.2,0-0.2-0.2-0.3-0.6c0-0.5,0-0.6,0.3-0.5
		l0.2,0.4l0.1-0.3c0.2-0.1,0.3,0,0.2,0.4l-0.1,1.4C-250.2-148.1-250.3-147.7-250.4-148.3z M-247-152.3c-0.2-0.3-0.2-0.6,0-0.8
		c0.2-0.2,0.5-0.3,0.7-0.1c0.2,0.1,0.3,0.2,0.3,0.3l-0.4,0.1l0.5,0.1c0.3,0.2,0,0.7-0.2,0.3c-0.2-0.2-0.4-0.2-0.7-0.1
		C-246.7-152.1-246.8-152.1-247-152.3z M-251.7-150c0.1,0,0.2,0.1,0.3,0.3c0.1,0.2,0.1,0.3,0,0.4c-0.1,0.1-0.2-0.1-0.3-0.2
		C-251.8-149.8-251.8-150-251.7-150z M-254.7-150.3c0.1,0,0.2,0.1,0.3,0.2c0.1,0.2,0.1,0.4,0,0.4c-0.1,0-0.2-0.1-0.3-0.3
		C-254.8-150.1-254.8-150.2-254.7-150.3z M-253.8-151.9c0.2,0,0.5,0.2,0.6,0.6c0.1,0.4-0.1,0.7-0.3,0.8c-0.3,0-0.5-0.2-0.6-0.6
		C-254.2-151.5-254.1-151.8-253.8-151.9z M-253.4-149.7c-0.1-0.6,0.1-0.7,0.3-0.1c0.4,0.9,0.6,1.9,0.5,3.2c0,0.5-0.4,0.5-0.4,0.1
		C-253.1-147.7-253.2-148.8-253.4-149.7z M-249.6-148.7c0-0.6,0.2-1.3,0.4-1.9c0.1-0.3,0.2-0.3,0.4-0.2c0.6-0.9,0.5-0.4,0.2,0.3
		l0.2,0.1c0.7-1.3,0.4-0.3,0.4,0.3c-0.5,0.7-0.9,0.8-1,0.3l-0.2,0.9C-249.4-148.5-249.5-148.4-249.6-148.7z"/>
</g>
<g transform="translate(78.7305, 248.222)">
	<path class="st1" d="M-37.6-162.1c-0.2,0.9-1.2,0.4-0.7-0.4c1.2-2,2.4-3.9,2.6-6.6c0.1-0.9,0.7-1.4,1.4-1.8
		c1.6-0.9,2.2-2.4,2.1-4.1c-0.4-7.4,1.7-10.6,4.9-11.9l-0.1,0.3c-2.8,1.7-4,5.1-4.1,9.6c0,1-0.1,2.1,0,3.2l0.1-0.2
		c0.1-2.7,0.1-5,0.4-6.5c0.4-1.7,0.9-2.8,1.5-3.5c0.2-0.3,0.4-0.6,0.6-0.8c0.3-0.3,0.6-0.3,0.8-0.6l0,0.2c-1.1,1.1-2,2.5-2.4,4.3
		c-0.5,2.1-0.5,4.4-0.3,6.9c0,0.4-0.1,0.7-0.2,0.9l0.1-0.1c0.2-0.4,0.3-0.9,0.3-1.4c-0.2-3,0-6.1,1.1-8.2c0.8-1.5,1.2-2,3.3-3.2
		l-0.1,0.2c-1.8,1.2-3.4,2.6-3.8,7.4l0.1-0.1c0.3-3.6,1.6-6.3,4.1-7.3c0.9-0.4,1.9-0.3,3-0.3l-0.2,0.2c-1.7-0.2-3.2,0.4-4.4,1.8
		l0.2,0.1c1.2-1.2,2.6-1.9,4.4-1.5l-0.1,0.3c-1.2-0.2-2.3,0.3-3.3,1v0.1c1.1-0.8,2.1-1.1,3.1-0.9c0.3,0,0.4,0.3,0.3,0.7l-0.2,1.8
		c0,1.7-0.1,3.4-0.6,5l-0.2,0.1l0.2-3l-0.7,3.7c-0.1,0.4-0.4,0.4-0.3,0c0.2-0.8,0.4-1.9,0.6-3c-0.2,0-0.3,0.1-0.3,0.4
		c-0.2,1.6-0.5,2.9-0.8,3.4c0.2-1,0.4-2,0.4-3l-0.2,0.2l-0.5,2.8c0.4,0.2-0.1,0.5-0.2,0.1l0.2-1.6l-0.1,0l-0.7,2.5l0.2-1.7l-0.6,1.7
		h-0.2l0.3-1.5l-1,2.7c-0.3,0.1-0.3,0-0.1-0.5l0.6-1.8l-0.2,0c-0.4,1.3-0.7,2.3-1.2,2.6l-0.2,0c0.7-1.2,0.8-1.8,0.8-2.4
		c-0.4,1.1-0.7,2-1.4,2.7c-0.1-0.1,0-0.4,0.4-1.1l0.4-0.9c-0.2-0.2-0.3-0.1-0.4,0.2c-0.2,0.8-0.5,1.4-0.9,1.9l0.4-1.6l-0.1-0.2
		c-0.3,0.9-0.7,1.8-1.2,2.3l0.3,0.1c0.9-0.6,2.1-0.4,3.3-0.9c0.3-0.1,0.5-0.2,0.7-0.1l-0.2,0.6l-0.2-0.4c-0.1,0.5-0.3,0.9-0.6,1.1
		l-0.1-0.7c-0.5,1.1-0.9,1.8-0.9,1.2l0.1-0.7c-0.4,0.4-0.7,0.9-0.8,1.4c-0.2,0-0.2-0.4-0.2-1l-0.3,1.2c-0.3,0.1-0.4-0.3-0.2-1
		c-0.3,0.7-0.5,1.1-0.6,1.2c-0.1-0.2-0.2-0.5-0.1-0.9l-0.3,0.6c0,0.5-0.1,0.6-0.3,0.6c0.1-0.7,0.1-0.9,0-0.8l-0.4,1
		c-0.2,0.1-0.3-0.1-0.3-0.7c-0.4,0.2-0.3,0.9-0.5,1.2c-0.2-0.1-0.2-0.5-0.2-0.8c-0.2,0.6-0.3,0.9-0.6,0.9l-0.1-1.1
		c-0.1,0.5-0.2,0.9-0.4,1.2l-0.3-0.8l-0.1,0.8c-0.2,0.1-0.4-0.1-0.6-0.6c0,1-0.1,1.9-0.8,2.3c0.1,0.3-0.2,0.9-0.6,1.7l1-1.5
		c0.2-0.1,0.3,0.1,0.2,0.6l-1.1,1.8c-0.2,0.2-0.4,0.1-0.6,0c-0.2,0.9-0.6,1.5-1,2.1c0.5-0.3,0.8-0.9,1.1-1.8
		c0.1-0.3,0.4,0.1,0.3,0.6l-0.3,0.2l0,0.4l-0.3,0v0.5l-0.3,0.1C-36.5-162.2-36.8-161.8-37.6-162.1z"/>
</g>
<g transform="translate(125.812, 247.385)">
	<path class="st1" d="M-78.5-185.9l1.3-0.2l-0.1,0.3L-78.5-185.9z"/>
</g>
<g transform="translate(49.6445, 298.86)">
	<path class="st1" d="M-14.2-227.4c0.2-0.6,0.6-1,1-1.7c0.3-0.4,0.4-0.1,0.3,0.3C-13.5-228.1-13.9-227.7-14.2-227.4z"/>
</g>
<g transform="translate(49.8535, 226.878)">
	<path class="st1" d="M-1.1-166c-2.1-1.9-4.2-2.8-5.7-2.5c-2.9,0.7-4.3,3.3-5.2,5.9c0.5-0.9,0.9-1.4,1.4-1.6
		c-1.4,2.3-2.3,4.6-2.4,7.3c-0.1,0.3-0.3,0.6-0.5,0.9c-0.9,0.7-0.9,1.2-1,1.8c0.2-0.1,0.4-0.6,0.7-0.9c0.4-0.5,0.9-1,1-1.9
		c0.3-1.1,0.4-2.3,0.7-3.1c0.3-1.1,0.7-1.9,1.2-2.8c1-1.7,2.4-3.3,3.9-4v0.1c-1.5,0.8-2.6,2.1-3.8,4c-0.3,0.5-0.5,0.9-0.8,1.6
		c-0.3,0.6-0.5,1.3-0.6,2.2c-0.2,1.8-0.6,2.9-1.1,3.6c-0.5,0.7-0.9,1-0.9,1.3c-0.1,0.2-0.2,0.5-0.2,0.8c1.1-2.2,1.7-2,2.2-3.5
		c0.7-2.4,0.2-4.8,3.4-8.2h0.2c-1.5,1.7-2.5,3.4-3,6.9c-0.1,0.6-0.2,1.4-0.5,1.9c-0.4,0.8-1.2,1.3-1.4,2.1l0.2,0
		c0.4-0.4,1.2-1.3,1.5-1.9c0.9-1.8,0.6-4.3,1.8-6.2c1.6-2.6,2.8-3.9,4.7-4.7l0.2,0c-2.7,1.4-3.1,2.4-4.3,4c-0.4,0.5-0.7,1-1,2
		c-0.3,0.9-0.5,2.2-0.7,3.2c-0.2,1.3-0.7,2.1-1.2,2.7c-0.3,0.4-0.5,0.5-0.8,0.9c-0.2,0.3-0.4,0.9-0.5,1.2l0.2-0.1
		c0.7-1.9,1.1-1.5,1.7-2.2c0.3-0.4,0.8-1.2,0.9-2.1c0.2-1.9,0.6-3.3,1.2-4.6c0.7-1.4,1.8-2.9,3-3.9c0.6-0.5,1-0.7,1.7-0.9h0.2
		c-0.9,0.6-1.5,0.8-2.2,1.4c-1.1,1-2.2,2.6-2.7,4c-0.6,1.3-0.9,2.7-1,4.1c0-0.2,0.1,0.1,0.2-0.1c0.6-3.4,1.8-5.8,3.3-7.3
		c0.9-0.9,1.9-1.5,2.8-1.8l0.6,0c-1.4,0.4-2.8,1.1-3.9,2.7l0.2,0c1.3-1.4,2.6-2,3.8-2.3l0.2,0c-0.9,0.3-1.6,0.6-2.1,1.1l0.1,0.2
		C-4.2-165.5-2.8-165.8-1.1-166z"/>
</g>
<g transform="translate(50.0625, 328.783)">
	<path class="st1" d="M-14.4-253.6c-0.2-0.3-0.2-0.6-0.2-0.8c0-0.4,0.3-0.4,0.4-0.1C-14.1-254-14.4-254-14.4-253.6z"/>
</g>
<g transform="translate(75.8008, 355.777)">
	<path class="st1" d="M-36.3-277.1l0.3-0.4c0.2-0.1,0.4-0.1,0.5-0.1C-35.5-277.4-35.9-277.2-36.3-277.1z"/>
</g>
<g transform="translate(73.917, 361.218)">
	<path class="st1" d="M-34.7-281.5l0.4-0.5c0.2-0.2,0.5-0.2,0.7-0.1C-33.7-281.9-34.1-281.7-34.7-281.5z"/>
</g>
<g transform="translate(74.127, 364.984)">
	<path class="st1" d="M-34.9-284.8l0.5-0.4c0.2-0.1,0.5-0.2,0.7,0C-33.7-285.1-34.3-284.9-34.9-284.8z"/>
</g>
<g transform="translate(74.9639, 368.332)">
	<path class="st1" d="M-35.6-287.7l0.5-0.4c0.2-0.1,0.5-0.1,0.7,0C-34.6-287.9-35-287.7-35.6-287.7z"/>
</g>
<g transform="translate(76.4287, 371.889)">
	<path class="st1" d="M-36.8-290.7l0.3-0.3c0.2-0.1,0.4-0.1,0.5-0.1C-36.1-291-36.4-290.8-36.8-290.7z"/>
</g>
<g transform="translate(87.1006, 339.874)">
	<path class="st1" d="M-45.8-264l0.3-0.2c0.1-0.1,0.3,0,0.4,0C-45.2-264-45.5-264-45.8-264z"/>
</g>
<g transform="translate(84.3799, 343.013)">
	<path class="st1" d="M-43.5-266.5l0.6-0.3c0.3,0,0.5,0,0.7,0.2C-42.5-266.5-43-266.4-43.5-266.5z"/>
</g>
<g transform="translate(86.4727, 333.596)">
	<path class="st1" d="M-45.3-258.5l0.4-0.3c0.2-0.1,0.4-0.1,0.6,0C-44.4-258.6-44.8-258.5-45.3-258.5z"/>
</g>
<g transform="translate(88.5645, 330.667)">
	<path class="st1" d="M-47.1-256.3l0.4-0.1c0.2,0,0.4,0.1,0.5,0.2C-46.3-256.1-46.7-256.2-47.1-256.3z"/>
</g>
<g transform="translate(82.7061, 386.327)">
	<path class="st1" d="M-42.1-303.2l0.3-0.2c0.1,0,0.3,0,0.4,0C-41.5-303.2-41.8-303.1-42.1-303.2z"/>
</g>
<g transform="translate(80.4043, 381.097)">
	<path class="st1" d="M-38.9-299l-0.7,0.1c-0.3,0.1-0.5,0.4-0.6,0.6C-40-298.2-39.4-298.5-38.9-299z"/>
</g>
<g transform="translate(79.7764, 379.004)">
	<path class="st1" d="M-38.6-297.2h-0.6c-0.3,0.1-0.5,0.2-0.5,0.4C-39.5-296.7-39-296.9-38.6-297.2z"/>
</g>
<g transform="translate(102.794, 389.466)">
	<path class="st1" d="M-59.1-305l0.3-0.7c0.2-0.2,0.5-0.4,0.7-0.4C-58-305.8-58.5-305.3-59.1-305z"/>
</g>
<g transform="translate(112.001, 390.304)">
	<path class="st1" d="M-66.8-306.5l0.6-0.2c0.3,0,0.6,0.1,0.7,0.3h0c0,0.2-0.4,0.6-0.9,0.8l0.3-0.6c0.1-0.1,0.1-0.1,0.2-0.2
		c-0.1,0-0.1,0-0.2,0c-0.1,0.2-0.4,0.4-0.7,0.6l0.2-0.5c0-0.1,0.1-0.1,0.1-0.1C-66.6-306.5-66.7-306.5-66.8-306.5z"/>
</g>
<g transform="translate(124.766, 391.768)">
	<path class="st1" d="M-76.7-307.9c0.2-0.1,0.9,0.1,0.8,0.3c0,0.2-0.5,0.6-0.9,0.9l0.3-0.6c0.1-0.1,0.1-0.1,0.2-0.2
		c-0.1,0-0.2,0-0.2,0c-0.1,0.2-0.4,0.4-0.7,0.6l0.2-0.5c0,0,0.1-0.1,0.1-0.1c-0.1,0-0.1,0-0.2,0c-0.1,0.1-0.3,0.3-0.5,0.4l0.1-0.3
		C-77.3-307.8-77.1-307.7-76.7-307.9z"/>
</g>
<g transform="translate(157.408, 384.653)">
	<path class="st1" d="M-105.2-300.8c0-0.6,0.4-0.9,1.2-1c0.9-0.1,2.1,0.1,1.8,0.5c0,0,0,0-0.1,0l-0.2,0.4l-0.4,0.7l0.2-0.7l0.1-0.4
		c-0.1,0-0.3-0.1-0.4-0.1l-0.3,0.3l-0.5,0.6l0.4-0.7l0.2-0.3c-0.1,0-0.1,0-0.2,0l-0.3,0.3l-0.5,0.6l0.4-0.6l0.2-0.3
		c-0.1,0-0.2,0-0.3,0l-0.2,0.3l-0.5,0.6l0.3-0.7l0.1-0.2c-0.1,0-0.3,0.1-0.4,0.1l-0.2,0.6l0.1-0.5
		C-104.8-301.3-105.1-301.2-105.2-300.8z"/>
</g>
<g transform="translate(137.739, 388.63)">
	<path class="st1" d="M-88.6-304.4L-88.6-304.4L-88.6-304.4L-88.6-304.4l0.9-0.6c0.6-0.3,1.2-0.4,1.1,0.1c0,0-0.1,0.1-0.2,0.1
		c0,0.2,0,0.4,0,0.6l-0.2-0.5c-0.1,0-0.1,0-0.1,0c0,0.3,0,0.5,0,0.8l-0.3-0.7c-0.1,0-0.1,0-0.2,0c0,0.4,0,0.8,0,1.1l-0.5-0.9
		c0,0,0-0.1,0-0.1c-0.1,0.2-0.1,0.4-0.2,0.6l-0.1-0.7l0,0c-0.1,0.3-0.2,0.6-0.3,0.9l0-0.7C-88.6-304.3-88.6-304.3-88.6-304.4
		S-88.6-304.4-88.6-304.4z"/>
</g>
<g transform="translate(77.8926, 244.246)">
	<path class="st1" d="M-38.1-182.1c0.5-0.5,0.9-0.9,1.4-1.4C-37.2-183.3-37.7-182.8-38.1-182.1z"/>
</g>
<g transform="translate(125.393, 402.439)">
	<path class="st1" d="M-77.8-314.7c-0.1-0.3-0.3-0.6,0-1.4c0.3-0.7,0.6-0.9,0.8-0.9c0.2,0.3-0.1,0.8,0.1,1.4l-0.5-0.5l0.2,0.9
		l-0.4-0.4L-77.8-314.7z"/>
</g>
<g transform="translate(155.316, 421.063)">
	<path class="st1" d="M-103.1-332.5c-0.1-0.1-0.2-0.2-0.2-0.2c-0.1,0,0,0.2,0.1,0.3c0.1,0.1,0.2,0.2,0.2,0.2
		C-103-332.2-103-332.4-103.1-332.5z"/>
</g>
<g transform="translate(154.479, 424.202)">
	<path class="st1" d="M-102.3-335c-0.1-0.2-0.3-0.3-0.3-0.3c-0.1,0,0,0.2,0.1,0.4c0.1,0.2,0.3,0.3,0.3,0.3
		C-102.1-334.7-102.2-334.8-102.3-335z"/>
</g>
<g transform="translate(153.224, 427.969)">
	<path class="st1" d="M-101.3-338.2c-0.1-0.2-0.2-0.3-0.2-0.3c-0.1,0,0,0.2,0,0.4c0.1,0.1,0.2,0.3,0.2,0.2
		C-101.2-337.9-101.3-338.1-101.3-338.2z"/>
</g>
<g transform="translate(150.922, 430.271)">
	<path class="st1" d="M-99.3-340c-0.1-0.3-0.2-0.5-0.3-0.4c-0.1,0-0.1,0.3,0,0.5c0.1,0.2,0.2,0.4,0.3,0.4
		C-99.2-339.5-99.2-339.7-99.3-340z"/>
</g>
<g transform="translate(126.439, 431.525)">
	<path class="st1" d="M-78.7-341.5c0.2,0,0.3,0.1,0.3,0.2c0,0-0.2,0.1-0.4,0c-0.2,0-0.3-0.1-0.3-0.1
		C-79-341.5-78.8-341.5-78.7-341.5z"/>
</g>
<g transform="translate(124.975, 428.806)">
	<path class="st1" d="M-77.4-339.2c0.2,0,0.4,0.1,0.4,0.2c0,0.1-0.2,0.1-0.4,0.1c-0.2-0.1-0.4-0.1-0.4-0.2
		C-77.8-339.2-77.6-339.2-77.4-339.2z"/>
</g>
<g transform="translate(123.51, 425.457)">
	<path class="st1" d="M-76-336.4c0.3,0.1,0.5,0.2,0.5,0.2c0,0.1-0.3,0.1-0.5,0.1c-0.3,0-0.5-0.1-0.5-0.2
		C-76.5-336.4-76.3-336.4-76-336.4z"/>
</g>
<g transform="translate(180.217, 384.444)">
	<path class="st1" d="M-124.2-300.9c-0.2-0.7,0.5-0.9,1.3-0.6c0.6,0.2,1.3,0.3,2.3,0.1c0.5-0.1,0.9-0.1,1.4,0
		c0.5,0.3,0.5,0.5-0.1,0.6c-1,1-1.8,2-2,3c-0.4-0.5,0.4-1.7,1.6-3.3c-0.7,0.6-1.4,1.3-2,2.1c0.1-0.5,0.6-1.2,1.1-2
		c-1.3,0.9-2.2,2.4-2,5c-0.5-1.6-0.2-3.1,0.9-4.5l-1.4,1.5l1.3-2l-0.8,0.3l0.1-0.3l-0.5,0.2v-0.3l-0.7,0.5l0.1-0.6
		C-123.8-301.4-124-301.2-124.2-300.9z"/>
</g>
<g transform="translate(184.82, 413.739)">
	<path class="st1" d="M-128.2-326.5c-0.1,0.4,0,0.9,0.3,1.3c0.1,0.1,0.2,0,0.2-0.3C-128-325.6-128.1-326-128.2-326.5z"/>
</g>
<g transform="translate(194.864, 414.995)">
	<path class="st1" d="M-136.6-327.6c0.1,0,0.1,0.2,0.1,0.4s-0.1,0.4-0.1,0.4c-0.1,0-0.1-0.2-0.1-0.4S-136.7-327.6-136.6-327.6z"/>
</g>
<g transform="translate(203.025, 404.114)">
	<path class="st1" d="M-143.3-318.3c0,0,0,0.2,0,0.4c-0.1,0.2-0.2,0.3-0.3,0.3c-0.1,0,0-0.2,0-0.4
		C-143.4-318.2-143.3-318.4-143.3-318.3z"/>
</g>
<g transform="translate(205.117, 399.301)">
	<path class="st1" d="M-145-314.3c0.1,0.1,0,0.2-0.1,0.3c-0.1,0.2-0.2,0.3-0.3,0.2c0,0,0-0.2,0.1-0.3
		C-145.2-314.3-145-314.3-145-314.3z"/>
</g>
<g transform="translate(286.098, 407.462)">
	<path class="st1" d="M-213.7-321.2c0.6,0.2,0.6,1,0.3,1.9C-213.4-320.1-213.5-320.7-213.7-321.2z"/>
</g>
<g transform="translate(266.638, 430.061)">
	<path class="st1" d="M-197.1-339.8c0-0.2-0.1-0.3-0.2-0.5C-197.3-340.1-197.2-339.9-197.1-339.8L-197.1-339.8z"/>
</g>
<g transform="translate(226.88, 370.006)">
	<path class="st1" d="M-163.8-289.6c0.1,0,0.2,0,0.3,0l0.3,0.4c-0.1,0-0.2,0-0.3-0.1L-163.8-289.6z"/>
</g>
<g transform="translate(222.904, 388.211)">
	<path class="st1" d="M-160.3-305c0.1,0,0.2,0.2,0.2,0.4c0,0.2,0,0.3-0.1,0.2c-0.1,0-0.2-0.2-0.2-0.3
		C-160.4-304.9-160.4-305-160.3-305z"/>
</g>
<g transform="translate(226.252, 387.792)">
	<path class="st1" d="M-163.2-304.6c0,0,0.1,0.1,0.2,0.3c0.1,0.2,0.1,0.3,0.1,0.3c-0.1,0-0.1-0.1-0.2-0.3
		C-163.2-304.4-163.2-304.6-163.2-304.6z"/>
</g>
<g transform="translate(230.228, 387.374)">
	<path class="st1" d="M-166.6-304.3c0.1,0,0.2,0.2,0.2,0.4c0,0.2,0.1,0.3-0.1,0.3c-0.1,0-0.1-0.1-0.1-0.3
		C-166.6-304-166.6-304.3-166.6-304.3z"/>
</g>
<g transform="translate(233.576, 386.118)">
	<path class="st1" d="M-169.3-303.2c0,0,0.2,0.2,0.3,0.4c0.1,0.2,0.1,0.5,0,0.5c-0.1,0-0.2-0.1-0.3-0.4
		C-169.4-303-169.4-303.2-169.3-303.2z"/>
</g>
<g transform="translate(237.342, 385.909)">
	<path class="st1" d="M-172.5-303c0.1,0,0.2,0.2,0.3,0.5c0.1,0.3,0,0.5,0,0.6c-0.1,0-0.2-0.2-0.2-0.5
		C-172.6-302.8-172.6-303-172.5-303z"/>
</g>
<g transform="translate(241.527, 386.537)">
	<path class="st1" d="M-176.1-303.5c0.1,0,0.3,0.3,0.3,0.6c0.1,0.3,0.1,0.4-0.1,0.4c-0.2,0-0.2-0.1-0.2-0.4
		C-176.1-303.2-176.1-303.5-176.1-303.5z"/>
</g>
<g transform="translate(244.248, 385.7)">
	<path class="st1" d="M-178.3-302.8c0.1,0,0.2,0.2,0.3,0.5c0.1,0.3,0.1,0.6,0,0.6c-0.1,0-0.2-0.2-0.3-0.5
		C-178.4-302.6-178.4-302.8-178.3-302.8z"/>
</g>
<g transform="translate(248.014, 384.862)">
	<path class="st1" d="M-181.4-302.1c0.1,0,0.2,0.3,0.2,0.7c0,0.4-0.1,0.7-0.2,0.7c-0.1,0-0.2-0.3-0.2-0.7
		C-181.6-301.8-181.5-302.1-181.4-302.1z"/>
</g>
<g transform="translate(251.78, 386.118)">
	<path class="st1" d="M-184.6-303.2c0.1,0,0.1,0.3,0.1,0.6c0,0.3-0.1,0.6-0.1,0.6c-0.1,0-0.1-0.2-0.1-0.6
		C-184.8-302.9-184.7-303.2-184.6-303.2z"/>
</g>
<g transform="translate(255.338, 385.072)">
	<path class="st1" d="M-187.6-302.3c0.1,0,0.1,0.3,0.1,0.7s-0.1,0.7-0.1,0.7c-0.1,0-0.1-0.3-0.1-0.7S-187.7-302.3-187.6-302.3z"/>
</g>
<g transform="translate(258.477, 384.025)">
	<path class="st1" d="M-190.2-301.4c0.1,0,0.1,0.3,0.1,0.8c-0.1,0.4-0.1,0.7-0.2,0.7c-0.1,0-0.1-0.3-0.1-0.7
		C-190.4-301.1-190.3-301.4-190.2-301.4z"/>
</g>
<g transform="translate(262.871, 383.816)">
	<path class="st1" d="M-193.8-301.3c0.1,0,0.1,0.3,0,0.7c-0.1,0.4-0.2,0.7-0.3,0.7c-0.1,0-0.1-0.3,0-0.7
		C-194-301-193.9-301.3-193.8-301.3z"/>
</g>
<g transform="translate(267.475, 381.306)">
	<path class="st1" d="M-197.8-299.1c0.1,0,0.3,0.5,0.2,0.9c-0.1,0.5-0.2,0.9-0.3,0.9c-0.1,0,0-0.4,0-0.9
		C-197.8-298.7-197.8-299.1-197.8-299.1z"/>
</g>
<g transform="translate(247.386, 404.951)">
	<path class="st1" d="M-181-319.1c0,0,0.1,0.1,0.2,0.2c0.1,0.2,0.1,0.3,0.1,0.3c0,0-0.1-0.1-0.2-0.2
		C-181-318.9-181.1-319.1-181-319.1z"/>
</g>
<g transform="translate(250.315, 404.114)">
	<path class="st1" d="M-183.5-318.4c0.1,0,0.2,0.2,0.2,0.4c0.1,0.2,0.1,0.3,0,0.3c-0.1,0.1-0.1-0.1-0.2-0.3
		C-183.5-318.1-183.5-318.3-183.5-318.4z"/>
</g>
<g transform="translate(278.773, 385.281)">
	<path class="st1" d="M-207.5-300.9c0,0.1,0,0.1,0,0.2c0.1-0.1,0.2-0.1,0.3-0.2c0.1-0.6,0.1-1.1,0-1.6
		C-207.3-301.9-207.4-301.4-207.5-300.9z"/>
</g>
<g transform="translate(231.064, 364.565)">
	<path class="st1" d="M-160.2-279.5c-0.2,0.9-0.2,1.1-0.5,1.4c0.1-0.5,0.1-0.9,0.1-1c-0.1,0-0.2,0.1-0.2,0.1c0,0,0,0.1,0,0.1
		c0,0.3,0,0.8-0.4,1.3c0-0.5,0.2-0.9,0.2-1.3c-0.1,0-0.2,0.1-0.3,0.1c0,0.1,0,0.4,0,0.5c0,0.2-0.2,0.7-0.3,0.7c0,0,0.2-0.9,0.1-1.1
		c-0.1,0-0.2,0-0.2,0.1c0,0,0,0.1,0,0.1c0,0.1,0,0.2-0.1,0.2c0,0-0.1-0.1-0.1-0.2c0,0,0-0.1-0.1-0.1c0,0-0.1,0-0.2,0v0
		c0,0.1,0,0.2,0,0.2c0,0-0.1-0.1-0.2-0.2c-0.1,0-0.1,0-0.2,0c0,0.2,0,0.2-0.1,0.3c-0.2,0.1-0.2-0.1-0.2-0.3c-0.1,0-0.2,0-0.3,0.1
		c0,0.1,0,0.2,0,0.2c0,0-0.1-0.1-0.2-0.2c-0.1,0-0.2,0-0.3,0c0,0.1,0,0.2,0,0.2c0,0-0.1-0.1-0.2-0.2l0,0c0,0,0,0,0,0
		c0,0,0-0.1-0.1-0.2c-0.1-0.2-0.1-0.4-0.1-0.4c0.1,0,0.2,0.1,0.3,0.3c0,0.1,0.1,0.2,0.1,0.2c0.1,0,0.2-0.1,0.2-0.1
		c0-0.1,0-0.1,0-0.1c-0.1-0.3-0.1-0.5,0-0.5c0.1,0,0.2,0.2,0.2,0.4c0,0,0,0.1,0,0.2c0.1,0,0.2-0.1,0.3-0.1c0-0.2,0-0.2,0-0.3
		c0-0.1,0-0.2,0-0.2c0,0,0.2,0.2,0.3,0.5c0.1,0,0.1,0,0.2-0.1c0,0,0,0,0-0.1c-0.1-0.2-0.1-0.3-0.1-0.4c0-0.1,0-0.1,0-0.2
		c0,0,0.2,0.2,0.3,0.5c0,0,0,0.1,0,0.1c0.1,0,0.1,0,0.2-0.1c0,0,0,0,0-0.1c0-0.2,0-0.3,0-0.5c0-0.1,0-0.2,0.1-0.2s0.1,0.1,0.1,0.2
		c0,0.1,0.1,0.3,0.1,0.5l0,0c0.1,0,0.1,0,0.2-0.1c0-0.1,0-0.2,0-0.3c0-0.1,0-0.2,0.1-0.2c0,0,0.1,0.2,0.1,0.3c0.1,0,0.2-0.1,0.3-0.1
		c0-0.1,0-0.3,0-0.4c0-0.1,0-0.2,0.1-0.2c0,0,0.1,0,0.1,0.1c0,0.1,0.1,0.2,0.1,0.3c0.1,0,0.1,0,0.2-0.1l0,0c0-0.2,0-0.4,0-0.5
		c0-0.1,0.1-0.2,0.1-0.2c0,0,0.1,0,0.1,0.2c0,0.1,0,0.3,0,0.5c0.1,0,0.1-0.1,0.2-0.1c0.2-0.9,0.5-2.2,0.5-3.3
		c-0.1-0.1-0.1-0.2-0.2-0.4c-0.1,1.2-0.2,2.3-0.6,3c0.2-1,0.2-2.1,0-3.3h0c0,0,0,0-0.1,0c0,1.3,0,2.5-0.3,3.2
		c0.1-1.1,0.1-2.2-0.3-3.5c-0.1,0-0.1-0.1-0.2-0.1c0.3,0.3,0.2,1.3,0.1,1.5c-0.2-0.6,0-0.8-0.6-1.2c-0.1,0-0.1,0-0.2,0
		c0.3,0.3,0.3,0.8,0.3,1.2c-0.2-0.4-0.4-0.8-0.7-1c-0.1,0-0.2,0-0.3,0c0.4,0.5,0.4,0.6,0.4,1c-0.2-0.4-0.8-0.7-1.1-0.9
		c-0.1,0-0.2,0-0.3,0c0.3,0.2,0.8,0.8,0.6,0.9c-0.2-0.3-0.7-0.5-0.9-0.9c-0.1,0-0.1,0.1-0.2,0.1c0.1,0.2,0,0.3,0,0.6
		c-0.3-0.1-0.5-0.1-0.8-0.5c-0.1,0-0.2,0-0.2,0c0,0.1,0.2,0.3,0.2,0.4c-0.1-0.1-0.8-0.5-0.8-0.6c0,0,0.1,0-0.3-0.1
		c0,0.1,0.3,0.6,0.3,0.7c-0.1-0.1-0.6-0.6-0.6-0.7c-0.2,0-0.3,0-0.5-0.1l-0.3-0.5c1.5,0.1,3.1,0,5.1-0.3l1.8-0.4
		c0.6-0.2,1,0.1,1.2,1.1l0.1,1c0.4,0.6,0.6,1.2,0.2,2.2c0.2,0.7,0.6,1.3,1.1,1.8c0.5,0.5,0.6,1.2,0,2.2c-0.6,1.4-1.3,2.3-2,3.3
		c0,0-0.1,0.1-0.1,0.1c0,0-0.1,0.1-0.1,0.1c0-0.1,0.1-0.1,0.1-0.2c0-0.2-0.1-0.3-0.1-0.5c0.1,0.1,0.1,0.2,0.2,0.4
		c0.1-0.2,0.2-0.3,0.3-0.5c0-0.2-0.1-0.3-0.1-0.5c0.1,0.1,0.1,0.2,0.2,0.4c0.1-0.1,0.2-0.3,0.2-0.4c-0.1-0.2-0.1-0.4-0.2-0.6
		c0.1,0.1,0.2,0.3,0.2,0.4c0.1-0.2,0.2-0.3,0.3-0.5c0-0.2-0.1-0.3-0.1-0.5c0.1,0.1,0.1,0.2,0.2,0.3c0.1-0.3,0.2-0.5,0.2-0.7
		l-3.4,2.1c0.3-0.3,0.6-0.5,0.9-0.8l0,0c0-0.2-0.1-0.4-0.1-0.6c0.1,0.2,0.2,0.4,0.2,0.5c0.1-0.1,0.2-0.1,0.2-0.2
		c0-0.3-0.1-0.5-0.1-0.8c0.1,0.2,0.2,0.5,0.3,0.7c0.1-0.1,0.2-0.2,0.3-0.2c0-0.3-0.1-0.7-0.1-1c0.2,0.3,0.3,0.6,0.3,0.9
		c0.1-0.1,0.2-0.2,0.3-0.2c0-0.5-0.1-1-0.2-1.5c0.2,0.5,0.4,0.9,0.4,1.2c0.1-0.1,0.1-0.1,0.2-0.2c0-0.5-0.1-1.1-0.2-1.6
		c0.3,0.5,0.4,1,0.5,1.4c0,0,0.1-0.1,0.1-0.1c0-0.5-0.1-1.2-0.2-1.9c0.3,0.6,0.5,1.2,0.4,1.6c0.1-0.1,0.1-0.1,0.2-0.2
		c0-0.9-0.4-1.8-0.7-2.7c-0.1,0.5-0.1,0.6-0.3,0.6c0.1-0.5,0-0.8-0.1-0.8c-0.1,0.7-0.2,1.2-0.5,1.4l0.1-1.2H-160.2z"/>
</g>
<g transform="translate(256.175, 413.111)">
	<path class="st1" d="M-188.2-326c0,0.2,0,0.4-0.1,0.4c-0.1,0-0.1-0.2-0.1-0.4H-188.2z"/>
</g>
<g transform="translate(258.477, 410.81)">
	<path class="st1" d="M-190.2-324c0.1,0,0.1,0.1,0.1,0.3c0,0.2,0,0.4-0.2,0.4c-0.2,0-0.2-0.2-0.1-0.4
		C-190.3-324-190.2-324-190.2-324z"/>
</g>
<g transform="translate(261.406, 411.229)">
	<path class="st1" d="M-192.6-324.4c0,0.4,0,0.6-0.1,0.6c-0.1,0-0.1-0.3-0.1-0.6H-192.6z"/>
</g>
<g transform="translate(262.034, 408.299)">
	<path class="st1" d="M-193.3-321.9c0,0,0,0.1,0.1,0.2h-0.2C-193.4-321.8-193.4-321.9-193.3-321.9z"/>
</g>
<g transform="translate(263.289, 407.88)">
	<path class="st1" d="M-194.1-321.6c0.1,0,0.1,0.1,0.1,0.4c0,0.3,0,0.6-0.2,0.5c-0.2,0-0.2-0.3-0.1-0.6
		C-194.2-321.5-194.2-321.6-194.1-321.6z"/>
</g>
<g transform="translate(251.152, 347.825)">
	<path class="st1" d="M-184.2-270.9c0.8,0.2,1.7,0.9,2.5,1.6c0.1,0.2,0.1,0.3-0.1,0.2C-182.4-269.3-183.3-270.3-184.2-270.9z"/>
</g>
<g transform="translate(268.939, 360.59)">
	<path class="st1" d="M-198.9-281.5c0.2,0.1,0.2,0.2,0.2,0.2c0,0.1-0.2,0-0.3-0.1c-0.1-0.1-0.2-0.2-0.2-0.3
		C-199.2-281.7-199-281.6-198.9-281.5z"/>
</g>
<g transform="translate(218.51, 369.169)">
	<path class="st1" d="M-156.7-288.9c0.3,0,0.6,0.1,0.9,0.1l0.2,0.3l0,0c-0.1,0,0.3,1-0.2-0.1c-0.1-0.1-0.3-0.1-0.4-0.2
		C-156.5-288.8-156.4-288.8-156.7-288.9z"/>
</g>
<g transform="translate(190.47, 459.565)">
	<path class="st1" d="M-132.8-365.2c0.2,0,0.3,0.1,0.3,0.1c0,0-0.1,0.1-0.3,0.1c-0.2,0-0.3,0-0.3-0.1
		C-133-365.1-132.9-365.2-132.8-365.2z"/>
</g>
<g transform="translate(192.354, 464.169)">
	<path class="st1" d="M-134.2-368.9c0.3-0.1,0.6-0.1,0.6,0c0.1,0.1-0.1,0.2-0.4,0.3c-0.3,0.1-0.5,0.1-0.6,0
		C-134.6-368.8-134.5-368.9-134.2-368.9z"/>
</g>
<g transform="translate(193.399, 465.843)">
	<path class="st1" d="M-135-370.4c0.3-0.1,0.6-0.1,0.7,0c0,0.1-0.2,0.2-0.5,0.3c-0.3,0.1-0.6,0.1-0.7,0
		C-135.5-370.2-135.3-370.3-135-370.4z"/>
</g>
<g transform="translate(196.957, 467.936)">
	<path class="st1" d="M-138.2-372.2c0.2-0.1,0.4-0.1,0.4,0c0,0-0.1,0.1-0.3,0.2c-0.2,0-0.4,0-0.5,0
		C-138.5-372-138.4-372.1-138.2-372.2z"/>
</g>
<g transform="translate(199.259, 470.028)">
	<path class="st1" d="M-140.2-374c0.2,0,0.3,0.1,0.3,0.1c0,0.1-0.1,0.1-0.3,0.1c-0.2,0-0.3,0-0.3-0.1
		C-140.5-373.9-140.4-374-140.2-374z"/>
</g>
<g transform="translate(220.603, 461.03)">
	<path class="st1" d="M-158-366.3c0.3-0.1,0.5-0.1,0.6,0c0.1,0.1-0.1,0.3-0.4,0.4c-0.3,0.1-0.5,0.1-0.6,0
		C-158.5-366-158.3-366.2-158-366.3z"/>
</g>
<g transform="translate(218.091, 459.146)">
	<path class="st1" d="M-156-364.7c0.2-0.1,0.4-0.1,0.4,0c0,0.1-0.1,0.2-0.3,0.3c-0.2,0.1-0.4,0.1-0.4,0
		C-156.3-364.5-156.2-364.6-156-364.7z"/>
</g>
<g transform="translate(215.999, 455.59)">
	<path class="st1" d="M-154.3-361.7c0.2-0.1,0.3,0,0.3,0c0,0.1-0.1,0.2-0.2,0.2c-0.2,0.1-0.3,0.1-0.3,0
		C-154.6-361.6-154.5-361.7-154.3-361.7z"/>
</g>
<g transform="translate(185.448, 437.594)">
	<path class="st1" d="M-128.5-346.5c0-0.2-0.2-0.2-0.3,0c0,0.2,0,0.5,0.3,0.7c0.3,0.1,0.3-0.1,0.2-0.2
		C-128.4-346.2-128.5-346.3-128.5-346.5z"/>
</g>
<g transform="translate(181.263, 435.292)">
	<path class="st1" d="M-124.8-344.4c0-0.2-0.1-0.3-0.3-0.1c-0.2,0.2-0.2,0.6,0,0.8c0.2,0.3,0.4,0,0.4-0.1
		C-124.8-344.1-124.9-344.2-124.8-344.4z"/>
</g>
<g transform="translate(328.785, 341.129)">
	<path class="st1" d="M-249.5-264.9c-0.2,0.3-0.3,1.4,0.7,2.7c0.4,0.5-0.1,0.8,0.5,0.9c0.2,0,0.3-0.2,0.4-0.5l-0.3-0.2h0.5l-0.5-0.3
		c0.2,0,0.6,0.1,0.5-0.1c0-0.2-0.5-0.2-0.7-0.3l0.6-0.1c0-0.2-0.3-0.3-0.8-0.5l0.5-0.1l-0.6-0.4l0.5-0.1l-0.7-0.4l0.4-0.2l-0.4-0.1
		l0.4-0.2C-249-264.9-249.2-265.2-249.5-264.9z"/>
</g>
<g transform="translate(323.972, 336.735)">
	<path class="st1" d="M-245.4-259.7c-0.2-0.4-0.2-0.8-0.1-1.1c0.2-0.6,0.5-0.8,0.7-0.8c0.4,0.4-0.3,0.7-0.4,1
		C-245.4-260.5-245.4-260.2-245.4-259.7z"/>
</g>
<g transform="translate(322.717, 334.015)">
	<path class="st1" d="M-244.4-259c0.2-0.2,0.4-0.3,0.4-0.2c0.1,0.1,0,0.2-0.2,0.4c-0.2,0.2-0.4,0.3-0.4,0.2
		C-244.6-258.6-244.5-258.8-244.4-259z"/>
</g>
<g transform="translate(321.88, 349.081)">
	<path class="st1" d="M-243.7-272c0.1,0,0.2,0.1,0.2,0.2c0,0.1-0.1,0.2-0.2,0.2c-0.1,0-0.2-0.1-0.2-0.2
		C-243.9-271.9-243.8-272-243.7-272z"/>
</g>
<g transform="translate(323.554, 352.848)">
	<path class="st1" d="M-244.9-275.1c0.1,0,0.2,0.2,0.1,0.4c-0.1,0.2-0.2,0.3-0.3,0.2c-0.1,0-0.2-0.2-0.1-0.4
		C-245.2-275-245-275.1-244.9-275.1z"/>
</g>
<g transform="translate(325.019, 357.241)">
	<path class="st1" d="M-245.9-278.8c0.2,0.1,0.2,0.2,0.1,0.4c-0.1,0.2-0.3,0.3-0.5,0.2c-0.2-0.1-0.2-0.3-0.1-0.4
		S-246.1-278.8-245.9-278.8z"/>
</g>
<g transform="translate(328.157, 361.636)">
	<path class="st1" d="M-248.6-282.4c0.1,0.1,0,0.3-0.1,0.3c-0.1,0.1-0.3,0-0.4-0.1c-0.1-0.1,0-0.2,0.1-0.3
		C-248.8-282.5-248.7-282.5-248.6-282.4z"/>
</g>
<g transform="translate(337.155, 357.451)">
	<path class="st1" d="M-255.2-277.8c0.1-0.1,0.1-0.3-0.1-0.3s-0.3,0-0.4-0.2c-0.1-0.4,0.1-0.6,0.4-0.7c0.3,0,0.4,0.1,0.3,0.3
		l-0.2,0.1c0.3,0.1,0.5,0.2,0.6,0.4c-0.2,0-0.3,0-0.3,0.2c0.6-0.1,0.5,0.8,0,0.6c-0.3-0.1-0.5,0-0.3,0.6c0.1,0.7,0.6,0.8,0.6,0.1
		c-0.1-0.3,1-0.4,1.2,0.3l-0.4-0.2c0.1,0.5,0.5,0.3,0.6,0.8l-0.4,0c0.4,0.3,0.8,0.7,0.9,1.1c-0.5-0.1-0.5-0.6-0.9-0.6
		c0.6,0.8,1.2,0.6,1.5,1.3c-0.5,0-1-0.4-1.6-1c0.6,0.8,0.9,1.4,0.8,1.8c-0.8-0.4-1-1.6-1.3-1.9c0,0.6,0.5,1,0.3,1.7
		c-0.3-0.4-0.5-1-0.5-2c0.3,0.1,0.5-0.2,0.5-0.7c-0.1-0.6-0.4-0.6-0.3,0c0,0.4-0.3,0.6-1.2,0c-0.1,0.1,0.1,0.3,0.6,0.6l0,0.5
		l0.3-0.4l0.1,1.4c0,0.4-0.1,0.3-0.2-0.1l-0.1-0.7c0,0.5-0.1,0.7-0.2,0.7l-0.1-1.3l-0.4,0.5l-0.1-0.7l-0.3,0.3v-0.9
		c-0.2,0.1-0.5,0-0.8-0.4c0.4,0.1,0.6,0,0.9-0.1C-256.1-277.4-255.8-277.8-255.2-277.8z"/>
</g>
<g transform="translate(294.677, 384.444)">
	<path class="st1" d="M-220.5-300.8c0-0.3,0.1-0.4-0.2-0.8c-0.1-0.1-0.2-0.2-0.2,0C-220.9-301.4-220.6-301.1-220.5-300.8z"/>
</g>
<g transform="translate(294.049, 377.748)">
	<path class="st1" d="M-220.4-296.1c0.4,0.2,0.6,0.3,0.9,0.9c0.1,0.2,0,0.4-0.1,0.2C-220-295.4-220.1-295.8-220.4-296.1z"/>
</g>
<g transform="translate(294.468, 369.587)">
	<path class="st1" d="M-220.8-289.3c0.6,0.4,0.8,0.5,1,1.4c0.1,0.4,0,0.6-0.2,0.3C-220.3-288.1-220.4-288.8-220.8-289.3z"/>
</g>
<g transform="translate(296.142, 363.729)">
	<path class="st1" d="M-222.2-284.3c0.6,0.2,1.1,0.9,1.1,1.6c0,0.4-0.2,0.6-0.3,0.3C-221.5-282.9-221.7-283.9-222.2-284.3z"/>
</g>
<g transform="translate(297.815, 360.59)">
	<path class="st1" d="M-223.6-281.7c0.6,0.2,0.9,0.6,1.1,1.2c0,0.3,0,0.5-0.2,0.2C-222.9-280.7-223.2-281.2-223.6-281.7z"/>
</g>
<g transform="translate(322.508, 459.983)">
	<path class="st1" d="M-244.4-364.9c0.1-0.3,0.6-0.7,1.2-0.4c0.3,0.1,0.2,0.4,0.2,0.6c-0.2-0.2-0.3-0.4-0.5-0.2
		C-243.9-365.2-244.1-365-244.4-364.9z"/>
</g>
<g transform="translate(309.952, 465.006)">
	<path class="st1" d="M-233.6-369.8c0.1,0,0.2,0.1,0.2,0.2c0,0.1-0.1,0.2-0.2,0.2c-0.1,0-0.2-0.1-0.2-0.2
		C-233.8-369.7-233.7-369.8-233.6-369.8z"/>
</g>
<g transform="translate(303.466, 464.797)">
	<path class="st1" d="M-228.3-369.5c0.1,0,0.2,0.1,0.2,0.3c0,0.2,0,0.3,0,0.3c-0.1,0-0.2-0.1-0.2-0.3
		C-228.4-369.4-228.4-369.5-228.3-369.5z"/>
</g>
<g transform="translate(305.977, 464.588)">
	<path class="st1" d="M-230.4-369.4c0,0,0.1,0.1,0.1,0.2c0,0.1,0,0.2,0,0.2c0,0-0.1-0.1-0.1-0.2
		C-230.5-369.3-230.5-369.4-230.4-369.4z"/>
</g>
<g transform="translate(300.327, 426.713)">
	<path class="st1" d="M-224.7-335.7C-224.7-335.7-224.7-335.7-224.7-335.7c-0.2,0.2-0.3,0.3-0.4,0.3c-0.1,0,0-0.2,0.1-0.3
		c0.1-0.1,0.1-0.1,0.1-0.1c0,0,0-0.1-0.1-0.1c0,0,0,0.1-0.1,0.1c-0.1,0.2-0.3,0.3-0.4,0.2c-0.1,0,0-0.2,0.1-0.4
		c0-0.1,0.1-0.1,0.1-0.1c0,0,0-0.1-0.1-0.1c-0.1,0.2-0.3,0.2-0.4,0.2c-0.1-0.1,0-0.2,0.1-0.4c0,0,0-0.1,0.1-0.1
		c-0.1-0.1-0.1-0.1-0.1-0.1c-0.1,0.1-0.2,0.1-0.2,0.1c0,0,0-0.2,0.1-0.3c-0.1-0.1-0.1-0.3,0-0.3c0.2-0.2,0.3,0.1,0.5,0.5
		c0.1,0.2,0,0.3,0.1,0.4c0.1,0.1,0.3,0.2,0.3,0.3c0.2,0.4,0.2,0.7,0.2,0.7C-224.6-335.4-224.5-335.5-224.7-335.7z"/>
</g>
<g transform="translate(303.047, 439.269)">
	<path class="st1" d="M-227.4-348c0.1,0.1,0,0.3-0.1,0.5c-0.2,0.2-0.3,0.3-0.4,0.2c-0.1-0.1,0-0.3,0.1-0.5
		C-227.7-347.9-227.5-348-227.4-348z"/>
</g>
<g transform="translate(330.459, 427.132)">
	<path class="st1" d="M-250.8-337.8c0,0,0,0.2-0.1,0.4c-0.1,0.2-0.2,0.3-0.3,0.3c0,0,0-0.2,0.1-0.4
		C-250.9-337.7-250.9-337.8-250.8-337.8z"/>
</g>
<g transform="translate(325.646, 425.876)">
	<path class="st1" d="M-246.5-336.7c0.1,0,0,0.3-0.1,0.6c-0.2,0.3-0.3,0.5-0.4,0.5c-0.1,0-0.1-0.3,0.1-0.6
		C-246.8-336.5-246.6-336.7-246.5-336.7z"/>
</g>
<g transform="translate(319.578, 422.946)">
	<path class="st1" d="M-241.5-334.2c0.1,0,0,0.2-0.1,0.5c-0.1,0.2-0.2,0.4-0.3,0.4c-0.1,0,0-0.2,0.1-0.5
		C-241.7-334.1-241.6-334.3-241.5-334.2z"/>
</g>
<g transform="translate(119.115, 64.918)">
	<path class="st1" d="M-72.8-31.5c0.1-0.5,0.4-0.7,0.7-0.7l0.7,0.1c0.3,0.2,0.2,0.3-0.1,0.3c-0.6-0.1-0.9,0-1.1,0.4
		C-72.7-31-72.8-31-72.8-31.5z"/>
</g>
<g transform="translate(132.926, 78.3105)">
	<path class="st1" d="M-84.3-43.5c0.1,0,0.2,0.1,0.2,0.2c0,0.1-0.1,0.2-0.2,0.2c-0.1,0-0.2-0.1-0.2-0.2
		C-84.5-43.5-84.4-43.5-84.3-43.5z"/>
</g>
<g transform="translate(117.232, 68.2666)">
	<path class="st1" d="M-71-34.1c-0.2,0.3-0.2,0.6,0.2,1l0.5,0.7c0.5,0.3,0.7,0.3,0.6-0.2c-0.1-0.3,0-0.5,0.3-0.5
		c0.2,0,0.3-0.1,0.4-0.3c0.1-0.3,0-0.4-0.2-0.5c-0.4,0.3-0.8,0.4-1.1,0.5c0.4-0.3,0.7-0.5,0.8-0.6c0.1-0.1,0.2-0.1,0.4-0.1
		c0-0.2-0.1-0.3-0.3-0.4c-0.5,0-0.9,0.3-1.3,0.8c0.3-0.6,0.7-0.9,1.2-0.9c0-0.2,0-0.3-0.2-0.4c-0.4,0-0.7,0.1-1,0.3L-71-34.1z"/>
</g>
<g transform="translate(135.646, 100.072)">
	<path class="st1" d="M-86.8-61.9c1.1,1,2,2.3,2.7,3.7v1.2l-0.4-1.4c0,0.9,0,1.6-0.1,1.4l-0.3-2l-0.2,0.9l-0.2-1.2
		c-0.2-0.1-0.2,0.6-0.2,1.7c-0.3-0.3-0.3-1.1-0.2-2.1l-0.3,0.9c-0.2-0.5-0.1-1.1,0-1.8c-0.2-0.2-0.3,0.2-0.4,1.1
		c-0.2-0.7-0.2-1.2-0.1-1.8l-0.2,0.5L-86.8-61.9z"/>
</g>
<g transform="translate(183.983, 34.5771)">
	<path class="st1" d="M-127.1-5.6c0.4,0.3,0.9,0.3,1.3,0.3l0,0.3c0.8,0,1.6-0.4,2.4-0.9c0,0-0.2-0.1-0.4,0c-0.6,0.3-0.5,0.1,0.6-0.5
		c0.2-0.1,0.3,0,0.6-0.1l0.7-0.2c-0.6,0.5-1.2,1-1.8,1.5c-0.9,0.5-1.7,0.7-2.5,0.4c-0.4-0.2-0.9-0.5-1.2-0.8
		C-127.5-5.6-127.6-5.7-127.1-5.6z"/>
</g>
<g transform="translate(214.952, 42.1094)">
	<path class="st1" d="M-153.6-13c0.1,0,0.2,0.1,0.2,0.1c0,0.1-0.1,0.1-0.2,0.1c-0.1,0-0.1-0.1-0.1-0.1
		C-153.7-12.9-153.6-13-153.6-13z"/>
</g>
<g transform="translate(221.648, 53.8281)">
	<path class="st1" d="M-159.3-22.7c0.1-0.1,0.1-0.1,0.2-0.1c0.1,0,0.1,0.1,0,0.2c-0.1,0.1-0.2,0.1-0.2,0.1
		C-159.3-22.5-159.3-22.6-159.3-22.7z"/>
</g>
<g transform="translate(235.668, 48.8057)">
	<path class="st1" d="M-171-18.6c0.1,0,0.2,0,0.2,0c0,0.1,0,0.2-0.1,0.2c-0.1,0.1-0.2,0.1-0.2,0C-171.2-18.4-171.1-18.5-171-18.6z"
		/>
</g>
<g transform="translate(233.157, 46.0859)">
	<path class="st1" d="M-169-16.2c0.1-0.1,0.2-0.1,0.2,0c0.1,0,0,0.2,0,0.2c-0.1,0.1-0.2,0.1-0.2,0C-169.1-16-169.1-16.1-169-16.2z"
		/>
</g>
<g transform="translate(209.721, 50.8984)">
	<path class="st1" d="M-149.1-20.4c0.1,0,0.2,0,0.2,0.1c0,0.1-0.1,0.2-0.2,0.2c-0.1,0-0.2,0-0.2-0.1
		C-149.3-20.3-149.2-20.3-149.1-20.4z"/>
</g>
<g transform="translate(217.463, 66.1738)">
	<path class="st1" d="M-155.6-33.2c0.1-0.1,0.3-0.1,0.3,0c0,0.1,0,0.2-0.2,0.2c-0.1,0-0.3,0-0.3,0
		C-155.8-33.1-155.8-33.2-155.6-33.2z"/>
</g>
<g transform="translate(189.215, 46.0859)">
	<path class="st1" d="M-131.5-15.4c0.4,0,0.9-0.2,1.5-0.5l0.8-0.4c0.4-0.2,0.4-0.1,0.1,0.2c-0.3,0.3-0.8,0.5-1,0.7
		c-0.3,0.2-0.7,0.5-1.4,0.3C-132-15.1-131.9-15.3-131.5-15.4z"/>
</g>
<g transform="translate(205.117, 41.2725)">
	<path class="st1" d="M-145.1-10.9c0.4-0.4,0.7-0.5,1.3-0.8c0.6-0.2,1.1-0.3,1.7-0.3c0.4-0.4,0.8,0.1,0.3,0.5
		c-0.1,0.1-0.3,0.2-0.5,0.3c-0.4,0.3-0.9,0.5-1.3,0.6c-0.6,0.2-0.7,0.1-0.2-0.2c0.2-0.1,0.3-0.2,0.5-0.3c0.4-0.2,0.8-0.3,1.1-0.3
		c-0.6-0.4-1.6,0.2-2.7,0.7C-145.3-10.5-145.4-10.6-145.1-10.9z"/>
</g>
<g transform="translate(225.624, 38.9707)">
	<path class="st1" d="M-162.7-10.3c0.2-0.1,0.4,0,0.7,0c0.4,0.1,0.6,0.4,0.7,0.7c-0.1,0.3-0.2,0.5-0.4,0.5c-0.1-0.5-0.3-0.8-0.6-0.9
		c-0.1,0-0.2,0-0.3,0V-10.3z"/>
</g>
<g transform="translate(221.021, 39.3896)">
	<path class="st1" d="M-158.6-10.6c0.1-0.1,0.2-0.1,0.3-0.1v0.2c-0.1,0-0.1,0-0.3,0.1C-158.7-10.4-158.8-10.5-158.6-10.6z"/>
</g>
<g transform="translate(217.882, 34.5771)">
	<path class="st1" d="M-156-6.1c0.3-0.3,0.6-0.5,1-0.5c0.4,0,0.8,0,1.2,0c0.8,0.3,0.5,0.6,0,0.4c-0.3-0.2-0.7-0.2-1.2,0
		c0,0.3-0.6,0.1-0.9,0.3C-156.1-5.8-156.2-5.9-156-6.1z"/>
</g>
<g transform="translate(233.994, 38.7617)">
	<path class="st1" d="M-169.8-10.2c0.3,0,0.5,0,0.5,0.3c0,0.3,0,0.5-0.2,0.7C-169.4-9.9-169.7-9.8-169.8-10.2z"/>
</g>
<g transform="translate(236.505, 33.9492)">
	<path class="st1" d="M-171.6-5.5c0.1,0.1,0.1,0.4,0,0.8l-0.3,0.5c-0.1,0.2,0,0.3,0.2,0.2c0.3-0.2,0.4-0.4,0.4-0.7
		c0-0.5,0-0.7,0.2-0.9C-171.4-6.1-171.7-6-171.6-5.5z"/>
</g>
<g transform="translate(225.206, 49.4336)">
	<path class="st1" d="M-162.3-18.1c0,0.3,0.8,0.4,0.9,0c0.2-0.4-0.1-0.7,0-1.1C-162-19-162.3-18.7-162.3-18.1z"/>
</g>
<g transform="translate(223.113, 59.0586)">
	<path class="st1" d="M-160.5-26.9c0.2-0.3,0.4-0.4,0.8-0.4c0.3,0,0.5,0.1,0.5,0.4c0,0.3,0,0.6,0,0.9c-0.1,0.3-0.1,0.2-0.5,0.3
		c-0.4,0-0.5-0.2-0.9,0.1C-160.3-26.2-160.6-26.5-160.5-26.9z"/>
</g>
<g transform="translate(231.901, 51.1074)">
	<path class="st1" d="M-167.8-20.2c-0.2-0.3,0-0.4,0.2-0.2c0.2,0.2,0.3,0.4,0.3,0.6c0,0.2-0.2,0.4-0.4,0.2
		C-167.9-19.7-167.7-19.9-167.8-20.2z"/>
</g>
<g transform="translate(233.366, 59.0586)">
	<path class="st1" d="M-169.1-26.9c-0.1-0.3,0-0.4,0.4-0.2c0.3,0.2,0.3,0.4,0.2,0.5c0.3,0.3,0.3,0.6,0,1c-0.2-0.1-0.4-0.1-0.5-0.3
		c0-0.1-0.1-0.1-0.1-0.6C-169-26.6-169-26.7-169.1-26.9z"/>
</g>
<g transform="translate(235.25, 78.5195)">
	<path class="st1" d="M-170.6-43.7c0.2,0,0.3,0.1,0.3,0.2c0,0.1-0.1,0.2-0.3,0.1c-0.2,0-0.3-0.1-0.3-0.2
		C-170.8-43.6-170.7-43.7-170.6-43.7z"/>
</g>
<g transform="translate(221.857, 76.4268)">
	<path class="st1" d="M-159.2-41.9c0.2,0,0.3,0.1,0.3,0.2c0,0.1-0.1,0.2-0.3,0.2c-0.2,0-0.3-0.1-0.3-0.2
		C-159.5-41.8-159.4-41.9-159.2-41.9z"/>
</g>
<g transform="translate(216.626, 69.7305)">
	<path class="st1" d="M-151.5-35.6c-0.2-0.3-0.7-0.6-1.4-0.7c-0.5-0.1-1.1,0.1-1.7,0.2c-0.4,0.4-0.5,1-0.4,1.8l0.3,0.1L-155-34h0.4
		l-0.2,0.3l0.2,0.1l-0.2,0.4l0.2,0.1l-0.1,0.3l0.3,0l-0.1,0.3l0.2,0l-0.1,0.3l0.2,0.1c0.1,0.2,0.4,0.4,0.6,0.5
		c0.2,0.1,0.4,0.1,0.6,0.1c0.4-0.3,0.5-0.6,0.8-0.9c0.1,0,0.1-0.2,0.1-0.5c0.2-0.1,0.3-0.3,0.3-0.5l0.2-0.2v-0.8
		c-0.2,0.1-0.3,0.1-0.5,0.1l-0.5-0.2l-0.1,1c0,0.2-0.1,0.5-0.3,0.4l-0.6-0.3c-0.1-0.1-0.1-0.3,0.1-0.3l0.2,0v-0.9
		c-0.3,0.1-0.7,0.1-1-0.1c-0.1-0.1-0.3-0.1-0.4-0.1c0.1-0.2,0.2-0.4,0.4-0.5l-0.2-0.3c0.1,0,0.2,0,0.3,0c0.5,0,0.7-0.1,0.8,0
		c0.1,0.1,0.2,0.2,0.4,0.3l0-0.2c0.1-0.3,0.3-0.3,0.6-0.2l-0.1,0.7l1-0.3V-35.6z M-153.9-32.9c0.3-0.1,0.6-0.1,0.9,0
		c0.5,0.1,0.6,0.3,0.1,0.6c-0.3,0-0.6,0-0.9-0.1C-153.8-32.5-153.7-32.6-153.9-32.9z M-153.5-32.6c0.1-0.1,0.3-0.1,0.5,0
		c0.1,0.1,0.1,0.2,0,0.2c-0.1,0-0.2,0-0.4,0C-153.5-32.5-153.4-32.6-153.5-32.6z"/>
</g>
<g transform="translate(226.88, 86.4707)">
	<path class="st1" d="M-163.7-50.4C-163.6-50.4-163.6-50.4-163.7-50.4c0.1,0.1,0.1,0.2,0,0.2C-163.7-50.2-163.8-50.3-163.7-50.4
		C-163.8-50.4-163.7-50.4-163.7-50.4z"/>
</g>
<g transform="translate(230.855, 73.707)">
	<path class="st1" d="M-167.1-39.1c0-0.1,0-0.1,0-0.2c0.2-0.2,0.2-0.3,0.2-0.1c0,0.1,0,0.2,0,0.3H-167.1z"/>
</g>
<g transform="translate(229.6, 78.7285)">
	<path class="st1" d="M-166.1-42.6c0-0.4,0.1-0.8,0.2-1.3h0.2c0,0.4-0.1,0.8-0.2,1.4C-165.9-42.4-166-42.4-166.1-42.6z"/>
</g>
<g transform="translate(211.186, 70.9863)">
	<path class="st1" d="M-150.2-37.1c0-0.3,0.2-0.2,0.3,0c0.1,0.5,0,0.8-0.2,1c-0.2,0.1-0.4,0-0.3-0.2
		C-150.2-36.6-150.1-36.8-150.2-37.1z"/>
</g>
<g transform="translate(211.813, 82.0771)">
	<path class="st1" d="M-151-46.3c-0.1-0.3,0.1-0.4,0.2-0.1c0.2,0.9,0.6,1.7,1.5,2.6c0.4,0.3,0,0.6-0.4,0.3
		C-150.5-44.3-150.8-45.4-151-46.3z"/>
</g>
<g transform="translate(232.948, 96.0967)">
	<path class="st1" d="M-168.8-57.6c0-0.3,0.1-0.5,0.4-0.8c0.2-0.1,0.3,0.1,0.2,0.2C-168.5-57.9-168.7-57.9-168.8-57.6z"/>
</g>
<g transform="translate(173.729, 116.185)">
	<path class="st1" d="M-118.2-74.1c0-0.2,0.1-0.4,0.2-0.6c-0.1,0-0.2-0.1-0.2-0.2c-0.2,0.4-0.4,0.7-0.7,1.1c0.2-0.7,0.5-1.2,0.9-1.7
		c-0.1,0.2-0.1,0.4-0.2,0.6c0.1,0.1,0.2,0.1,0.2,0.2c0.1-0.1,0.1-0.1,0.2-0.2c0,0.1,0,0.2,0,0.3h0l0,0.1l0,0
		C-117.9-74.4-118-74.3-118.2-74.1z"/>
</g>
<g transform="translate(176.032, 125.811)">
	<path class="st1" d="M-120.9-83.1c0-0.2,0.1-0.3,0.2-0.5C-120.7-83.4-120.7-83.3-120.9-83.1z"/>
</g>
<g transform="translate(187.122, 125.392)">
	<path class="st1" d="M-130.2-82.5c0-0.1,0.1-0.3,0.1-0.4l0,0l0.1-0.1c0,0,0-0.1,0.1-0.1c0.1-0.1,0.1-0.2,0.2-0.2
		C-129.8-82.8-129.9-82.7-130.2-82.5z"/>
</g>
<g transform="translate(186.076, 131.669)">
	<path class="st1" d="M-129.2-87.8c-0.1-0.3,0-0.6,0.4-0.8C-128.8-88-128.9-87.9-129.2-87.8z"/>
</g>
<g transform="translate(191.726, 120.997)">
	<path class="st1" d="M-134.1-77.4c0.3-0.8,0.4-1.1,0.3-2.1C-133.5-78.6-133.5-78.4-134.1-77.4z"/>
</g>
<g transform="translate(194.445, 121.835)">
	<path class="st1" d="M-131.5-75.3c0.2-0.7,0.2-1.3,0.2-2c-0.1,0-0.1,0-0.2,0.1c0,0.4-0.1,0.8-0.3,1.3c0.1-0.4,0.2-0.9,0.1-1.3
		c-0.1,0-0.1,0.1-0.2,0.1c0,0.3-0.1,0.6-0.3,1c0.1-0.4,0.1-0.7,0.1-1c-0.1,0-0.2,0-0.3,0c0,0.4-0.1,0.9-0.2,1.5c0-0.5,0-1,0-1.4
		c-0.1,0-0.2,0-0.3,0c0,0.5-0.1,1-0.2,1.7c0-0.6,0-1.1-0.1-1.7c-0.1,0-0.2,0-0.3-0.1c0,0.5-0.1,1-0.2,1.8c0-0.6-0.1-1.2-0.1-1.8
		c-0.1,0-0.2-0.1-0.3-0.1c0,0.5-0.1,1-0.3,1.6c0-0.6,0-1.1,0-1.7c-0.1,0-0.2-0.1-0.3-0.1c0,0.7-0.1,1.2-0.1,1.9
		c-0.1-0.9-0.2-1.4-0.1-2c-0.1,0-0.2-0.1-0.3-0.1c-0.2,0.8-0.2,1.5-0.2,2.3c-0.2-1-0.3-1.6,0-2.3c-0.1-0.1-0.1-0.1-0.2-0.1
		c-0.1,0.3-0.3,0.6-0.5,0.9c0.2-0.3,0.2-0.7,0.3-0.9c-0.1-0.1-0.2-0.1-0.3-0.2c-0.1,0.4-0.3,0.9-0.6,1.4c0.4-1,0.5-2,0.5-3.3
		c0.1,0.5,0.2,0.9,0.2,1.2c0.1,0.1,0.2,0.1,0.4,0.2c0.1-0.6,0.1-1.1,0.1-1.7c0.2,0.7,0.2,1.2,0.1,1.7c0.1,0,0.2,0.1,0.3,0.1
		c0-0.1,0.1-0.2,0.2-0.3c0,0.1-0.1,0.2-0.1,0.3c0.1,0,0.2,0,0.2,0c0.1-0.2,0.1-0.4,0.2-0.7c0,0.3,0,0.5,0,0.8c0.1,0,0.2,0,0.3,0
		c0-0.2,0-0.4,0-0.6c0.1,0.2,0.1,0.4,0.1,0.6c0.1,0,0.2,0,0.3,0c0-0.2,0-0.5,0-0.8c0.1,0.3,0.1,0.5,0.2,0.8c0.1,0,0.3,0,0.4,0
		c0-0.3,0-0.5,0-0.8c0.1,0.3,0.1,0.6,0.2,0.8c0.1,0,0.2,0,0.3,0c0-0.4,0-0.8,0-1.2c0.1,0.5,0.2,0.8,0.2,1.1c0.1,0,0.2,0,0.3,0
		c0-0.3-0.1-0.6-0.1-0.9c0.1,0.3,0.2,0.6,0.3,0.8c0.1,0,0.1,0,0.2,0c0-0.3-0.1-0.6-0.1-0.9c0.1,0.3,0.2,0.6,0.3,0.9
		c0.1,0,0.1,0,0.2,0c-0.1-0.5-0.1-0.9-0.2-1.5C-130.8-78-130.8-77.2-131.5-75.3z"/>
</g>
<g transform="translate(231.274, 124.764)">
	<path class="st1" d="M-167.4-80.4l0.1,0.3l0.5-0.4c0.1-0.2,0.3-0.1,0.4,0.1l0-0.5c0.2-0.1,0.3,0,0.4,0.1c0.1-0.1,0.1-0.3,0-0.5
		l0.1-0.7c-0.3-0.4-0.5-0.7-0.8-0.8c0.2,0.4,0.2,0.7,0.1,0.9c0-0.4-0.2-0.7-0.6-0.9c0.1,0.3,0.2,0.5,0.1,0.8
		c-0.1-0.1-0.2-0.2-0.3-0.3l0.1,0.4l-0.2,0.1L-167.4-80.4z"/>
</g>
<g transform="translate(249.061, 124.973)">
	<path class="st1" d="M-182.2-82.9c0,0.1,0,0.2-0.1,0.2c-0.1,0-0.1-0.1-0.2-0.2H-182.2z"/>
</g>
<g transform="translate(246.759, 121.416)">
	<path class="st1" d="M-180.1-79.9c0.1,0.2,0.1,0.3,0.1,0.4h-0.4c-0.1-0.1-0.1-0.2-0.2-0.3c0,0,0,0,0-0.1H-180.1z"/>
</g>
<g transform="translate(245.294, 117.44)">
	<path class="st1" d="M-179.2-76.5c0.1,0,0.3,0.2,0.5,0.5h-0.4C-179.3-76.3-179.3-76.5-179.2-76.5z"/>
</g>
<g transform="translate(244.457, 124.555)">
	<path class="st1" d="M-178.6-82.5c0,0,0.2,0.1,0.3,0.3c0.1,0.2,0.1,0.4,0.1,0.4c0,0-0.2-0.1-0.3-0.3
		C-178.6-82.3-178.6-82.5-178.6-82.5z"/>
</g>
<g transform="translate(240.271, 123.718)">
	<path class="st1" d="M-175-81.8c0,0,0.2,0.1,0.4,0.4c0.1,0.3,0.2,0.5,0.1,0.5c0,0-0.2-0.1-0.4-0.4C-175-81.6-175.1-81.8-175-81.8z"
		/>
</g>
<g transform="translate(173.103, 115.767)">
	<path class="st1" d="M-118.4-75.1c0.1,0.1,0.2,0.1,0.2,0.2c0,0,0.1-0.1,0.2-0.2c0,0.2-0.1,0.3-0.3,0.5c0-0.1,0.1-0.2,0.1-0.3
		C-118.2-75-118.3-75.1-118.4-75.1z"/>
</g>
<g transform="translate(152.805, 325.645)">
	<path class="st1" d="M-101-252.2l-0.1,0.4l-0.1-0.1l0.1-0.4H-101z"/>
</g>
<g transform="translate(89.6113, 416.878)">
	<path class="st1" d="M-48-329c0.4-0.2,0.5,0,0.7,0.5c0.4,0.3,0.6,0.6,0.6,0.9c0.8,0.6,0.6,0.9-0.4,0.8c-0.3-0.1-0.5-0.3-0.5-0.8
		L-48-329z"/>
</g>
<g transform="translate(88.9834, 431.735)">
	<path class="st1" d="M-47.2-341.3c-0.3,0.4-0.2,0.9,0.1,1.3c0.2,0.2,0.4,0.3,0.7,0.3l-0.1-0.4l0.4,0.3c0-0.2-0.2-0.4-0.5-0.7
		l0.5,0.1c0-0.3-0.2-0.5-0.6-0.7h0.3C-46.6-341.6-46.9-341.7-47.2-341.3z"/>
</g>
<g transform="translate(97.7715, 435.292)">
	<path class="st1" d="M-54.7-344.7c0.1,0,0.2,0.1,0.3,0.3c0,0.2,0,0.4-0.2,0.4c-0.1,0-0.2-0.1-0.3-0.3
		C-54.8-344.5-54.8-344.7-54.7-344.7z"/>
</g>
<g transform="translate(141.296, 272.495)">
	<path class="st1" d="M-91.6-204.3c0-1,0.5-2.1,1-3.1C-90.9-206.3-91.3-205.3-91.6-204.3z"/>
</g>
<g transform="translate(153.642, 246.13)">
	<path class="st1" d="M-101.5-184c-0.4,0.2-0.4-0.2-0.1-0.4c0.6-0.5,1.3-0.7,2.1-0.7h1.4c0.5,0,0.5,0.5,0,0.5h-1
		C-100.1-184.6-100.8-184.4-101.5-184z"/>
</g>
<g transform="translate(171.219, 250.105)">
	<path class="st1" d="M-116.1-188.5c0.4,0,0.7,0.1,0.7,0.1c0,0.1-0.3,0.1-0.7,0.1c-0.4,0-0.7,0-0.7-0.1
		C-116.8-188.4-116.5-188.5-116.1-188.5z"/>
</g>
<g transform="translate(187.54, 205.325)">
	<path class="st1" d="M-129.8-150.6c-0.1-0.1-0.2,0.2-0.5,0.5c-0.2,0.3-0.3,0.5-0.3,0.5c0,0,0.2-0.2,0.4-0.5
		C-129.9-150.3-129.8-150.6-129.8-150.6z"/>
</g>
<g transform="translate(176.868, 210.557)">
	<path class="st1" d="M-121.4-153.6c-0.2,0.3-0.1,0.5,0.2,0.6c1.3,0.4,2.6,0,3.9-0.8l1.6-0.8c0.3-0.4,0.2-0.5-0.2-0.3l-0.8,0.4
		l0.2-0.7c-0.4,0.3-0.7,0.7-0.9,1l-0.1-0.3c-0.2,0.2-0.4,0.4-0.4,0.7l-0.2-0.4c-0.2,0.1-0.3,0.2-0.4,0.4l0.1-0.5
		c-0.1-0.1-0.3,0.1-0.6,0.7l0.1-0.5c-0.1-0.1-0.3,0.1-0.5,0.6l0.5-1.6c-0.3,0-0.6,0.6-1,1.7c-0.2,0-0.2,0-0.2-0.2l0.6-1.1
		c-0.3,0-0.6,0.4-1,1.1l0.5-1.3l-0.9,1.1v-0.4C-121-154-121.2-153.8-121.4-153.6z"/>
</g>
<g transform="translate(178.124, 354.73)">
	<path class="st1" d="M-122.5-276.5c-0.1-0.1,0.1-0.3,0.2-0.2l0.4,0.4c0.1,0.1-0.1,0.3-0.2,0.2L-122.5-276.5z"/>
</g>
<g transform="translate(180.426, 353.266)">
	<path class="st1" d="M-124.5-275.3c-0.1-0.1,0.1-0.2,0.2-0.2l0.3,0.3c0.1,0.1-0.1,0.2-0.2,0.2L-124.5-275.3z"/>
</g>
<g transform="translate(181.263, 350.964)">
	<path class="st1" d="M-125.1-273.2c-0.1-0.1,0.1-0.3,0.2-0.2l0.4,0.4c0.1,0.1-0.2,0.3-0.2,0.2L-125.1-273.2z"/>
</g>
<g transform="translate(182.31, 347.197)">
	<path class="st1" d="M-126-270c-0.1-0.2,0.2-0.4,0.3-0.3l0.6,0.6c0.2,0.2-0.2,0.4-0.3,0.3L-126-270z"/>
</g>
<g transform="translate(185.866, 343.431)">
	<path class="st1" d="M-129-266.7c-0.2-0.2,0.1-0.5,0.2-0.3l0.7,0.6c0.2,0.2-0.1,0.5-0.3,0.3L-129-266.7z"/>
</g>
<g transform="translate(188.796, 341.757)">
	<path class="st1" d="M-131.5-265.4c-0.2-0.2,0-0.4,0.2-0.3l0.6,0.5c0.2,0.2-0.1,0.4-0.2,0.3L-131.5-265.4z"/>
</g>
<g transform="translate(192.563, 340.92)">
	<path class="st1" d="M-134.7-264.7c-0.1-0.1,0-0.3,0.2-0.2l0.5,0.5c0.1,0.1-0.1,0.4-0.2,0.3L-134.7-264.7z"/>
</g>
<g transform="translate(174.357, 318.321)">
	<path class="st1" d="M-119.1-245.8c0-0.2-0.3-0.1-0.3,0l-0.1,0.6c0,0.1,0.3,0.1,0.3,0L-119.1-245.8z"/>
</g>
<g transform="translate(169.336, 322.925)">
	<path class="st1" d="M-114.9-249.6c0-0.3-0.3-0.1-0.3,0l0.1,0.5c0,0.2,0.3,0.1,0.3,0L-114.9-249.6z"/>
</g>
<g transform="translate(163.268, 327.109)">
	<path class="st1" d="M-109.8-253.2c0-0.2-0.2-0.2-0.2,0l0,0.4c0,0.2,0.2,0.1,0.2,0V-253.2z"/>
</g>
<g transform="translate(172.266, 323.343)">
	<path class="st1" d="M-117.6-250.2c0.1,0,0.1,0.1,0.1,0.2s-0.1,0.2-0.1,0.2c0,0-0.1-0.1-0.1-0.2S-117.6-250.2-117.6-250.2z"/>
</g>
<g transform="translate(165.987, 327.109)">
	<path class="st1" d="M-112.2-253.4c0.1,0,0.2,0.1,0.2,0.2c0,0.1-0.1,0.2-0.2,0.2c-0.1,0-0.2-0.1-0.2-0.2
		C-112.4-253.3-112.3-253.4-112.2-253.4z"/>
</g>
<g transform="translate(160.129, 329.62)">
	<path class="st1" d="M-107.2-255.3c0-0.2-0.3-0.2-0.3,0v0.4c0,0.2,0.3,0.2,0.3,0L-107.2-255.3z"/>
</g>
<g transform="translate(206.373, 172.683)">
	<path class="st1" d="M-146.3-123.1c0.1,0,0.2,0.1,0.2,0.2c0,0.1-0.1,0.3-0.2,0.3c-0.1,0-0.1-0.1-0.1-0.3
		C-146.5-123-146.4-123.1-146.3-123.1z"/>
</g>
<g transform="translate(209.094, 171.846)">
	<path class="st1" d="M-148.7-121.7c-0.1,0-0.1-0.2-0.1-0.4c0-0.2,0-0.4,0.1-0.4c0.1,0,0.1,0.2,0.1,0.4
		C-148.5-121.8-148.6-121.7-148.7-121.7z"/>
</g>
<g transform="translate(212.022, 175.612)">
	<path class="st1" d="M-151-125.6c0.2,0,0.3,0.1,0.3,0.1c0,0-0.1,0.1-0.3,0.1c-0.1,0-0.3-0.1-0.3-0.1
		C-151.2-125.5-151.1-125.6-151-125.6z"/>
</g>
<g transform="translate(215.161, 179.169)">
	<path class="st1" d="M-153.8-128.6c0.1,0,0.1,0.1,0.1,0.1c0,0.1-0.1,0.2-0.1,0.2c0,0-0.1-0.1-0.1-0.2
		C-153.9-128.5-153.8-128.6-153.8-128.6z"/>
</g>
<g transform="translate(217.882, 178.96)">
	<path class="st1" d="M-156-128.4h1.2c0.4,0,0.5,0.2,0.2,0.6c0.1,0.7-0.7,1.1-0.7,0c-0.1-0.2-0.3-0.3-0.8-0.3
		C-156.2-128.2-156.2-128.4-156-128.4z"/>
</g>
<g transform="translate(206.164, 228.134)">
	<path class="st1" d="M-146.2-169.9c0.1,0,0.2,0.1,0.2,0.2c0,0.1-0.1,0.2-0.2,0.2c-0.1,0-0.1-0.1-0.1-0.2
		C-146.3-169.9-146.2-169.9-146.2-169.9z"/>
</g>
<g transform="translate(202.397, 229.18)">
	<path class="st1" d="M-142.9-170.8c0.1,0,0.2,0.1,0.2,0.2c0,0.1-0.1,0.2-0.2,0.2c-0.1,0-0.2-0.1-0.2-0.2
		C-143.1-170.7-143-170.8-142.9-170.8z"/>
</g>
<g transform="translate(203.025, 228.343)">
	<path class="st1" d="M-142.9-169.6c0.4-0.3,0.9-0.5,0.9-0.4c0.1,0.1-0.2,0.4-0.7,0.8c-0.5,0.3-0.9,0.5-0.9,0.4
		C-143.6-169-143.3-169.3-142.9-169.6z"/>
</g>
<g transform="translate(214.952, 222.693)">
	<path class="st1" d="M-153.2-165c0.3-0.2,0.5-0.4,0.6-0.3c0.1,0.1-0.1,0.3-0.4,0.5c-0.3,0.2-0.5,0.4-0.6,0.3
		C-153.7-164.5-153.5-164.8-153.2-165z"/>
</g>
<g transform="translate(211.396, 228.971)">
	<path class="st1" d="M-150.7-168.8c0.1-0.2,0.2-0.5,0.3-0.7l-0.1,0c0.1-0.4,0.4-0.7,0.8-0.9l0.1,0c0.1-0.1,0.3-0.2,0.5-0.3
		c-0.1,0.2-0.2,0.3-0.3,0.5l0.1,0.1c0.2-0.2,0.5-0.4,0.9-0.5c-0.2,0.3-0.4,0.5-0.6,0.7l0.2,0.1c0.3-0.3,0.7-0.5,0.9-0.6
		c-0.2,0.2-0.5,0.5-0.7,0.7l0.2,0.1c0.3-0.2,0.7-0.4,1-0.5c-0.2,0.1-0.3,0.3-0.5,0.4c0.2-0.1,0.5-0.1,0.8-0.1
		c-0.4,0.2-0.7,0.3-1,0.4l0.3,0.2c0.3-0.2,0.7-0.3,1-0.3c-0.2,0.1-0.5,0.3-0.8,0.4l0.2,0.1c0.3-0.2,0.7-0.2,0.9-0.2
		c-0.3,0.1-0.5,0.2-0.7,0.3l0.1,0.1c0.3-0.1,0.6-0.2,0.9-0.2c-0.3,0.1-0.5,0.2-0.7,0.3l0.2,0.1c0.3-0.1,0.5-0.1,0.8-0.1
		c-0.2,0.1-0.4,0.1-0.6,0.2l0.7,0.4l-0.1,0.1l-1-0.4c-0.1,0-0.1,0-0.1,0.1c0,0,0-0.1,0.1-0.1l-0.3-0.1c-0.1,0.1-0.3,0.2-0.5,0.2
		c0.1-0.1,0.2-0.2,0.3-0.3l-0.3-0.1c-0.1,0.1-0.3,0.2-0.5,0.2c0.1-0.1,0.2-0.2,0.3-0.3l-0.3-0.1c-0.2,0.1-0.4,0.3-0.6,0.4
		c0.1-0.2,0.2-0.3,0.3-0.4l-0.4-0.1c-0.2,0.2-0.3,0.3-0.5,0.4c0-0.2,0.1-0.4,0.3-0.5l-0.3-0.1c-0.2,0.2-0.4,0.3-0.6,0.5
		c0.1-0.2,0.2-0.4,0.3-0.6l-0.5-0.2C-150.2-169.1-150.5-168.9-150.7-168.8z"/>
</g>
<g transform="translate(178.124, 247.385)">
	<path class="st1" d="M-121.1-186.2c-0.4,0.9-0.9,2.2-1.1,4.8c-0.2,1.2-0.3,2.4,0,3.6c0.1,0.7,0.4,0.9,0.7,0.9l4.9-0.8
		c0.4-0.1,0.7-0.4,0.6-0.7l-0.2-0.4l-0.2,0.6l-0.3-0.5l-0.2,0.5l-0.3-0.7l-0.2,0.8l-0.3-0.6l-0.2,0.7l-0.2-0.6l-0.2,0.7l-0.2-0.6
		l-0.2,0.8l-0.3-0.7l-0.2,0.5l-0.2-0.4l-0.2,0.4l-0.2-0.3c-0.2-0.1-0.5-0.1-0.7,0l-0.1,0.2l-0.1-0.2c-0.4-0.1-0.8-0.2-1.1-0.2
		l0.5-0.2c0-0.2-0.2-0.2-0.5-0.2l0.5-0.4l-0.5-0.1l0.5-0.3c0-0.1-0.1-0.3-0.5-0.4l0.5-0.2v-0.1l-0.5-0.1l0.6-0.3
		c0.1-0.1-0.1-0.2-0.5-0.4l0.5-0.1c0-0.1-0.1-0.3-0.4-0.4l0.4-0.1l-0.4-0.3l0.5-0.2c0-0.2-0.1-0.2-0.4-0.4l0.5-0.2
		c0-0.1-0.2-0.3-0.5-0.4l0.5-0.2l-0.4-0.3l0.5-0.2l-0.4-0.1l0.4-0.3c0.1-0.1-0.1-0.2-0.4-0.2l0.5-0.2l0-0.2l-0.5,0.1l0.2-0.2
		l-0.3-0.2l0.7-0.2l0.1-0.1l-0.5-0.1l0.4-0.2C-120.8-186.1-120.9-186.2-121.1-186.2z M-120.3-185.5L-120.3-185.5
		c-0.3,2.3-0.5,4.5-0.2,6.5c-0.2-3.1,0.2-6.4,0.8-7l0.1,0.2c-0.7,2.5-0.8,4.7-0.3,6.7c-0.3-3.4,0-5.4,0.6-6.4v0.3
		c-0.5,2.4-0.5,4.3-0.1,5.9l0.1-0.1c-0.3-2.5-0.1-4.4,0.3-6.3l0.2,0c-0.5,2.5-0.5,4.5-0.1,6.3l0.1-0.1c-0.3-2.6-0.2-4.4,0.2-6l0.2,0
		c-0.4,2.5-0.4,4.4-0.1,6.1l0.1,0c-0.3-2.7-0.1-4.6,0.2-6.1l0.1,0.1c-0.3,2.2-0.2,4.1,0,5.9l0.1-0.1c-0.1-2.4-0.2-4.2,0.1-5.6
		l0.2-0.2c-0.2,1.7-0.2,3.7,0.1,5.8h0.1c-0.2-2.6-0.2-4.5,0.1-6.1l0.1,0.1c-0.1,2.1-0.1,3.9,0,6l0.1,0c-0.1-2.8,0-4.7,0.3-5.9
		c0.3-0.1,0.3,0.2,0,0.6c-0.2,1.7-0.2,3.4,0,5.3l0.2,0c-0.2-2.7,0-4.3,0.3-5.8c0.2-0.2,0.3,0,0.1,0.4c-0.2,1.9-0.4,3.2-0.2,5.4h0.2
		c0.3,0.1,0.3,0.2,0,0.3c-1.6,0.3-3.1,0.6-4.6,0.7c-0.3,0-0.4-0.1-0.4-0.6C-121.2-181.4-120.9-183.5-120.3-185.5z M-114.9-184.1
		l0.2-1c0.2-0.1,0.3-0.1,0.3,0.2L-114.9-184.1L-114.9-184.1z M-115.3-185.2c-0.2,1.6-0.2,2.6-0.4,4.3l0.1,0.3c0-1.9,0.3-3.1,0.6-4.5
		C-114.9-185.4-115.2-185.4-115.3-185.2z M-115.8-185.2c0.1-0.1,0.3-0.1,0.2,0.1c-0.3,1.4-0.4,3.1-0.5,5h-0.1
		C-116.2-182-116.2-183.7-115.8-185.2z M-122.6-174.5c0-0.5,0-1.1,0.2-1.6c0.1-0.2,0.3-0.4,0.7-0.4l4.4-0.7c0.2,0,0.3,0.1,0.2,0.4
		c-0.1,0.4-0.1,0.8-0.3,1.1c-0.2,0.1-0.2-0.4-0.2-1.3c-0.3,0.8-0.2,1.6-0.7,1.7c-0.2-0.4,0.1-1,0.2-1.6c-0.5,0.5-0.3,1-0.8,1.6
		c-0.2,0-0.1-0.5,0-1.4c-0.2,0.7-0.4,1.2-0.7,1.4c-0.1-0.2-0.1-0.7-0.1-1.2c-0.2,0.9-0.4,1.4-0.6,1.5c-0.1-0.5,0-0.9,0-1.4l-0.1-0.1
		c-0.1,0.8-0.3,1.3-0.5,1.5c-0.2-0.5-0.2-1,0.1-1.5h-0.2c-0.1,0.4-0.2,0.8-0.4,0.9c-0.3,0-0.4-0.3-0.4-0.8
		C-121.9-175.3-122.2-174.8-122.6-174.5z"/>
</g>
<g transform="translate(213.906, 249.478)">
	<path class="st1" d="M-150.1-185.9c-0.3,0.2-0.4,0.4,0.2,0.4c-0.4,0.3-0.4,0.6-0.1,0.7c-0.7,0.8-0.7,1,0,0.7
		c-0.7,0.9-0.6,1-0.1,0.9c-0.6,0.8-0.5,0.9-0.3,0.9c-0.4,0.6-0.4,0.9,0,0.9c-0.3,0.1-0.6,0.4-0.6,0.9c-0.1,0.5-1.5,1.1-0.4,1.6
		c0.4,0.2,0.7,0.7,0.9,1.5c0.1,0.5,0.3,0.5,0.7,0.3c0.3-0.1,0.7-0.1,1-0.2c0.6,0.1,0.7-0.6,0-0.7c0.1-0.3-0.2-0.4-0.5-0.2
		c0.3-0.5-0.1-0.4-0.2-0.4c0.2-0.1,0.2-0.3-0.4,0l-0.1-0.2c0.3-0.1,0.4-0.3,0.4-0.5l-0.9,0.3c0.3-0.2,0.4-0.4,0.4-0.6l-0.6,0.1
		c0.7-0.5,0.9-0.8,0.9-0.9l-0.7,0.2c0.5-0.4,0.8-0.7,0.8-0.9l-0.6,0.2c0-0.2,0.3-0.4,0.8-0.5c0.4-0.2,0.6-0.5,0.5-0.8l-0.9,0.4
		c0.7-0.7,1.3-1.2,1.5-1.6c-0.1-0.2-0.8,0.3-1.7,1v-0.2c0.9-0.6,1.6-1.3,2.1-2.2l-1.7,1.3l1.6-1.9c-0.1-0.2-0.6,0-1.4,0.9l0.1-0.2
		l0.8-0.9c0.6-0.4,1-0.8,1.3-1.4c0.2-0.4-0.4,0.1-1.2,0.9c-0.2,0.2-0.4,0.3-0.7,0.5l2-2.1l0-0.3C-147.7-187.9-149-186.4-150.1-185.9
		z M-152.5-177.8c-0.4-0.2,0-0.8,0.3-0.5l1,0.7c0.3,0.2,0,0.6-0.2,0.5L-152.5-177.8z M-152.1-178.4c-0.4-0.2,0.1-0.7,0.3-0.5
		l0.5,0.5c0.3,0.3,0.1,0.5-0.2,0.4L-152.1-178.4z M-150-176.5c-0.3-0.1-0.4,0.1-0.2,0.2c0.4,0.4,0.9,0.7,1.4,0.9
		c0.5,0.3,1,0.3,1.5,0.3c0.4,0,0.5-0.2,0.1-0.3C-148.1-175.7-149-175.9-150-176.5z M-149.7-176.5c-0.2-0.2-0.1-0.4,0.1-0.5l1.2-0.1
		c0.2,0,0.4,0.1,0.6,0.4l0.6,0.6c0.2,0.3,0,0.5-0.2,0.5C-148.2-175.8-149-176.1-149.7-176.5z"/>
</g>
<g transform="translate(241.318, 266.636)">
	<path class="st1" d="M-175.9-196.8c0.2-0.4,0.5-0.6,0.9-0.8c1.1-0.2,2.2-0.4,3.3-0.8c0.3-0.2,0.5-0.2,0.4,0.2
		c-0.1,1-0.2,1.9-0.5,2.1v-1.8l-0.1,0c-0.1,0.9-0.2,1.5-0.5,1.8l0.1-1.6h-0.2l-0.4,1.6l0.1-1.4c0-0.2-0.1-0.2-0.2-0.1
		c-0.2,1.6-0.5,2.3-0.9,2.6c0.3-1,0.3-1.8,0.3-2.4l-0.1-0.1c-0.1,0.9-0.2,1.7-0.5,2.3c-0.3-0.5,0.3-1.3,0.2-2.2h-0.1l-0.6,2
		c-0.2,0-0.1-0.3,0.1-0.8l0.1-1.1l-0.1,0.1c-0.2,0.6-0.3,1.1-0.6,1.5l0.1-1.5l-0.4,1.1l0-0.9L-175.9-196.8z M-171.1-198
		c0-0.4,0.4-0.3,0.3,0.1l-0.2,0.5h-0.1L-171.1-198z M-171.2-196.7c0,0,0.1,0.1,0.1,0.2s0,0.2-0.1,0.2c0,0-0.1-0.1-0.1-0.2
		S-171.2-196.7-171.2-196.7z M-171-197.2c0.1,0,0.1,0,0.1,0.1c0,0.1,0,0.1-0.1,0.1c-0.1,0-0.1-0.1-0.1-0.1
		C-171.2-197.1-171.1-197.2-171-197.2z M-171.1-199.2c0.1,0,0.2,0.1,0.2,0.3c0,0.2,0,0.3-0.1,0.3c0,0-0.1-0.1-0.2-0.3
		C-171.1-199-171.1-199.1-171.1-199.2z M-171.6-200.1c0.3,0.3,0.3,0.6,0.3,0.8c0,0.3-0.3,0.6-0.3,0.3c0-0.3,0-0.6-0.2-1
		C-171.9-200.2-171.7-200.2-171.6-200.1z M-173.9-200.7c0-0.3,0.3-0.1,0.3,0.1l-0.1,0.5c-0.1,0.1-0.1,0-0.2-0.2L-173.9-200.7z
		 M-175.1-199c-0.3,0.2-0.3,0.3,0,0.4l0.1,0v0c0,0.1,0.1,0.2,0.1,0.2c0.1,0,0.1-0.1,0.1-0.2c0,0,0-0.1,0-0.1l0.3-0.1v0.7
		c-0.1,0-0.2,0-0.3,0.1c0-0.1-0.1-0.1-0.1-0.1c-0.1,0-0.1,0.1-0.1,0.1c0,0,0,0,0,0.1c-0.1,0,0,0,0.1,0.1l2.2-0.5
		c0.7,0,0.8-0.5,0.7-1.3c0.1-0.3,0-0.4-0.2-0.3l-0.5-0.1l0.3-0.2c0.4-0.2,0.4-0.3,0.1-0.3l-0.7-0.1l0.6-0.1c0.2,0,0.2-0.2,0-0.3
		l-0.6-0.1l0.5-0.1c0.3-0.2,0.1-0.4-0.4-0.5c0.2-0.2,0.2-0.4-0.1-0.4c-0.1-0.2-0.4-0.4-0.3,0l0.1,2.2c0.1,0.2,0,0.4-0.3,0.5
		L-175.1-199z M-173.8-199.8c0.1,0,0.2,0.1,0.2,0.2s-0.1,0.2-0.2,0.2c-0.1,0-0.1-0.1-0.1-0.2S-173.9-199.8-173.8-199.8z
		 M-172.5-199.2C-172.5-199.2-172.5-199.1-172.5-199.2c0.1,0.1,0,0.2,0,0.2C-172.6-199-172.6-199-172.5-199.2
		C-172.6-199.1-172.6-199.2-172.5-199.2z M-172.7-199.6c0.1,0,0.2,0,0.3,0.1c0,0.1-0.1,0.2-0.2,0.2c-0.1,0-0.2,0-0.3-0.1
		C-172.9-199.5-172.8-199.6-172.7-199.6z M-174.2-198.2C-174.1-198.2-174.1-198.2-174.2-198.2l0.1-0.7l-0.2,0.1L-174.2-198.2z
		 M-173.8-198.3c0.1,0,0.1,0,0.2,0v-0.6l-0.3,0.1L-173.8-198.3z M-173.4-198.4C-173.4-198.4-173.4-198.4-173.4-198.4l0.1-0.6l-0.1,0
		L-173.4-198.4z M-173.1-198.5C-173.1-198.5-173.1-198.5-173.1-198.5c0.3-0.3,0.3-0.4,0.1-0.5h-0.1V-198.5z"/>
</g>
<g transform="translate(233.157, 92.1211)">
	<path class="st1" d="M-159.9-54.9c-2.7-0.2-4,0.7-4.7,1.6c-0.6,0.8-0.9,1.7-1,2.7c0.1,0.2,0.4-0.2,0.8-0.8l-0.3-0.1
		c0.1-0.2,0.2-0.4,0.3-0.6c0.1-0.1,0.1-0.3,0.2-0.4c0.2-0.1,0.3-0.3,0.3-0.4h-0.2c0.8-0.9,1.8-1.1,3-1.1c0.3,0,0.6,0.1,0.9,0.1
		c0.2,0,0.3,0,0.4-0.1c0.1-0.1,0.1-0.2,0-0.2c-1-0.2-2.1-0.1-3.1,0.1c0.8-0.5,1.8-0.5,3.4-0.5C-159.3-54.4-159.3-54.9-159.9-54.9z
		 M-164.6-37.5c0.1,0.1,0.1,0.3,0.1,0.5c-0.1,0.2-0.2,0.4-0.3,0.3c-0.1,0-0.2-0.3-0.1-0.5C-164.9-37.3-164.8-37.5-164.6-37.5z
		 M-167-36.5c0,0,0.1,0.2,0.1,0.3c0,0.2-0.1,0.3-0.1,0.3c-0.1,0-0.1-0.1-0.1-0.3C-167.1-36.4-167.1-36.5-167-36.5z M-166.8-35.4
		c0.1-0.6,0.4-1.2,0.9-1.5c0.5-0.3,0.6-0.2,0.2,0.2c-0.3,0.4-0.5,0.9-0.8,1.4C-166.6-35.1-166.9-34.9-166.8-35.4z M-165.4-37.9
		c-0.5,0.2-0.8,0.5-1,0.9c-0.2,0.4-0.1,0.4,0.2,0.1c0.3-0.3,0.7-0.5,1-0.8C-165.2-37.7-165-38-165.4-37.9z M-168.2-35.7
		c-0.2,0.3-0.2,0.4,0.2,0.2c0.6-0.9,1-1.6,1.4-1.8l1.1-1c0.9-0.2,1.3-1.1,1.5-2.7l-0.1-0.2c-0.4,1.1-0.9,1.9-1.6,2.3
		c-0.6,0.4-1.1,0.9-1.5,1.6c-0.2,0.2-0.2,0.4-0.4,0.7C-167.7-36.2-168.1-36-168.2-35.7z M-168.5-36.4c-0.2,0.4,0,0.5,0.2,0.2
		c0.8-1,1.3-1.8,2.1-2.4c0.7-0.6,1.8-1.6,2.2-2.9c0.3-0.8,0-1-0.2-0.5c-0.4,1.2-0.9,2.2-1.7,2.8C-166.9-38.5-167.8-37.6-168.5-36.4z
		 M-168.6-37.4c-0.2,0.3-0.2,0.5-0.1,0.7c0.6-0.2,0.4-1.2,2-2c0.2-0.3,0.1-0.4-0.2-0.3l-1.4,1c0.5-0.8,1-1.4,1.7-1.6
		c0.5-0.1,0.9-0.3,1.3-0.7c0.2-0.4,0.1-0.5-0.2-0.3c-0.9,0.6-1.6,0.8-2.3,1.3c-0.6,0.5-1,1.2-1.2,1.9L-168.6-37.4z M-168.7-39.3
		c0.3-0.6,1-0.9,2-1.2c0.7-0.2,1.2-0.7,1.7-1.3c0.5-0.3,0.4,0,0.3,0.3c-0.2,0.3-0.3,0.4-0.7,0.6c-0.4,0.3-1,0.6-1.4,0.8
		c-0.6,0.2-1.1,0.5-1.6,1.1C-168.7-38.8-168.8-38.9-168.7-39.3z M-167.2-41.2c0.5-0.3,0.9-0.6,1.2-1.1c0.5-0.7,0.7-0.7,0.5,0
		c-0.1,0.6-0.5,1.1-1.3,1.4C-167.4-40.6-167.6-40.9-167.2-41.2z M-165.1-42.7l0.2-1.2c0-0.5,0.2-0.9,0.5-1.2l0.4-1
		c0.1-0.4,0.3-0.4,0.3,0.1l-0.2,0.6c0.2,0.1,0.1,0.3,0,0.5c0,0.2,0,0.5-0.3,0.6c-0.1,0.9-0.2,1.6-0.4,1.8
		C-165.1-42-165.2-42-165.1-42.7z M-166.7-42.9l0.5-1.3c0.1-0.5,0.4-0.7,0.7-0.8l0.7-0.7c0.2-0.2,0.3,0.1,0.2,0.2l-0.5,0.9
		c-0.1,0.7-0.4,1.3-1,2c-0.1,0.1-0.4,0.1-0.2-0.1l0.6-1.2l-0.8,1.1C-166.7-42.4-166.8-42.6-166.7-42.9z M-167.6-42.3
		c0.3-0.8,0.4-1.2,0.7-1.5c0.4-0.4,0.5-0.3,0.2,0.1c-0.2,0.3-0.4,0.8-0.4,1.6C-167.1-41.5-167.9-41.6-167.6-42.3z M-167.7-43.4
		c0,0.3,0.1,0.2,0.2,0l0.3-0.8c0.3-0.3,0.8-0.6,1.2-1.1c0.2,0.3,0.6,0,1.1-0.7c0.7-0.3,1-0.9,1.2-1.5c0.2-0.6,0.1-0.7-0.3-0.3
		c-0.5,0.7-0.9,0.9-1.1,1.4c-0.6,0.2-1.1,0.9-1.8,1.2c-0.2,0.1-0.3,0.3-0.3,0.6C-167.4-44.4-167.6-44.1-167.7-43.4z M-167.6-45
		c0.1-0.1,0.2-0.1,0.3-0.1c0.1,0.1,0.1,0.2,0,0.3c-0.1,0.1-0.2,0.2-0.3,0.1C-167.7-44.8-167.7-44.9-167.6-45z M-164-50.6
		c0.5-0.6,1-0.9,1.5-1.2c0.6-0.3,0.6,0.2,0.2,0.2c-0.3,0-0.8,0.3-1.5,1.2C-164-50-164.2-50.3-164-50.6z M-168.3-43.9
		c-0.1-1.2,0.2-1.9,0.7-2.3c1.5-0.9,2-2.3,2.5-2.2c0.5-0.9,1.2-1.7,2.1-2.6c0.7-0.5,0.8-0.4,0.4,0.4c-0.9,1.3-1.9,2.9-2.7,3.4
		c-0.4,0-0.7,0.3-0.9,0.6l0.6-0.3c0.3,0,0.3,0.1,0.1,0.3c-0.5,0.3-1.3,1.5-1.5,0.7c-0.3,0.6-0.9,0.5-0.9,1.1l-0.1,0.8
		C-168-43.7-168.1-43.7-168.3-43.9z M-162.4-52.5c0.3,0,0.4,0.1,0.2,0.4c-0.7,0.3-1.4,0.9-2.1,1.6c0.1,0.3-0.1,0.6-0.4,0.8
		c0,0.5-0.3,0.7-0.8,0.8l-0.7,0.9c0.2,0.2-0.1,0.6-0.6,1.1c-0.3,0.4-0.5,0.3-0.4-0.3c0.4-1.1,1.1-2.7,1.5-2.7c0.2,0,0.2-0.1,0.3-0.4
		c0-0.3,0.3-0.2,0.2,0c0,0.3,0,0.3,0.2,0.1C-164.2-51.5-163.3-52.2-162.4-52.5z M-164.6-52.2c0.6-0.7,1.6-1.1,3.5-1.1
		c0.4,0,0.3,0.4,0,0.4c-0.3,0-0.6,0.1-0.9,0.2c-0.4,0.1-0.8,0.1-1.1,0.3c-0.7,0.4-1.2,0.9-1.8,1.8c-0.2,0.1-0.2,0-0.1-0.2
		c0.7-1.2,1.4-1.8,2.3-1.9l0-0.1c-0.5-0.1-1,0.1-1.8,0.9C-164.7-51.8-164.7-51.9-164.6-52.2z M-163.9-53.2c0.7-0.5,1.5-0.7,2.5-0.6
		c0.6,0.1,0.6,0.4,0.3,0.4c-0.9-0.1-1.8-0.1-2.7,0.3C-164.2-52.9-164.1-53-163.9-53.2z"/>
</g>
<g transform="translate(293.631, 84.7969)">
	<path class="st1" d="M-219.8-48.5c-0.2-0.3-0.1-0.5,0.3-0.4c1,0.2,1.9,0.3,2.5,0.8c0.3,0.2,0.1,0.5-0.2,0.3l-0.7-0.4
		c0,0.3-0.2,0.2-0.6-0.2c-0.3,0.3-0.6,0.1-0.9-0.3l0.2,0.7c0,0.1-0.1,0.1-0.2,0L-219.8-48.5z M-218.4-48c-0.1,0.1,0,0.3,0.1,0.4
		c0.1,0.1,0.3,0.1,0.2-0.1C-218.1-47.9-218.3-48.1-218.4-48z"/>
</g>
<g transform="translate(315.184, 88.3545)">
	<path class="st1" d="M-237.9-50.7c-0.1-0.1-0.3-0.2,0-0.2c-0.3-0.2-0.2-0.5,0-0.5c0.9,0,1.6-0.5,2.6,0l0.5,0.5c0.3,0.7,0,1-0.4,0.5
		c-0.2-0.3,0-0.6-0.5-0.8c0.3,0.5,0.5,1,0.5,1.5c0.8,0.7,0.1,0.9-0.1,0.4l-0.3-1.3c0.1,0.7,0.1,1.1,0,1.1c-0.2,0-0.1-0.5-0.2-1
		c-0.1-0.2-0.1-0.7-0.3-0.7c-0.6-0.2-1.1,0-1.5,0c0.7,0,1.2,0,1.4,0.2c0.2,0.3,0.3,0.7,0.2,1c-0.2,0.3-0.3,0.2-0.3-0.1l-0.1-0.4
		c0-0.2-0.3-0.3-0.7-0.2C-237.4-50.7-237.6-50.6-237.9-50.7z"/>
</g>
<g transform="translate(258.058, 236.922)">
	<path class="st1" d="M-189.9-174.9c1,1.7,2.3,3.4,3.6,5c0.2,0.2,0-0.4,0.2-0.2c0.3,0.6,0.8,1.2,0.9,1.4c0.2-0.2-0.4-0.7-0.5-1.4
		l1.9,2.2c0.2-0.3-0.9-1.6-1.8-2.7l0.1-0.1l2.1,2.8l0.1,0c-0.3-0.9-1.3-2-2-3l0.1-0.2c0.4,0.5,0.9,1.2,1.3,1.9
		c0.6,0.9,1.2,1.7,1.3,1.7c0.8,0.2-1.9-2.6-3.1-4.9l0-0.1c1.4,2.2,2.7,4.2,4.1,5.1c0.2,0.1,0.3-0.1,0.1-0.3
		c-1.3-1.5-2.8-3.1-3.7-4.6l0.1-0.1c1.4,1.6,2.1,3.5,4.7,5.1c0.2,0.1,0.3,0.3,0.4,0.1c0.6-0.5-2.3-1.1-4.4-4.8l0-0.3
		c0.8,1.1,0.9,1.4,1.7,2.2c1,1.1,2.7,2.5,2.9,2.3c0.3-0.2-2.4-2-3.8-4.2l0.1-0.1c1.1,1.5,2.7,3.4,5,4.6c0.3,0.2,0.2,0.1,0.6,0.1
		c1,0.1-2.3-1.6-4-3.5l0-0.2c0.5,0.4,1.1,1,1.8,1.5c0.8,0.6,1.7,1.1,2.4,1.5c0.6,0.3,1.1,0.5,1.3,0.4c0.6-0.3-2.3-1.3-3-2.1
		c0.4,0.2,0.9,0.4,1.2,0.6c1.2,0.6,2.1,1,2.3,0.8c0.1-0.2-0.5-0.5-1.7-0.9c-0.1-0.1,0-0.2,0.3-0.1c1.3,0.5,2.1,0.9,2.2,0.8
		c0.4-0.1-0.3-0.4-1-0.9c1,0.4,1.8,0.8,2.3,0.7c0.2,0-0.6-0.4-1.2-1c0.9,0.6,3,1.3,1-0.1l0.1-0.1c0.8,0.6,1.7,0.8,0.6-0.1h0.2
		c0.7,0.5,1,0.9,0.5-0.2c0.7,0.9,1.3,1.3,0.4-0.1l1,0.8c-0.4,0.2-0.3,0.3,0,0.5c0.9,0.6,0.9,0.5,0.8,0c0.1-0.9-0.2-1.5-0.8-1.8
		c-0.7-0.4-0.6,0.1,0.1,1.2c-0.3-0.2-0.5-0.5-0.7-0.8c-0.1-0.3-0.4-0.4-0.8-0.4c-1.5,0-3,0.3-4.5,0.5c-1.1,0.2-2,0-2.4-0.3
		c-0.4-0.3-0.5-0.5-0.3-0.8c0.1-0.3,0-0.5-0.2-0.6l-1-2.1c0.1,0.2,0.3,0.3,0.4,0.5c0.4,0.7,0.7,1.2,0.8,1.2
		c-0.2-0.5-0.7-1.5-1.1-2.6c0.8,1.4,1.5,2.7,1.7,2.5c-0.1-0.6-0.8-1.6-1.4-2.7c0.2,0.2,0.3,0.3,0.4,0.4c0.3,0.3,0.5,0.6,0.6,0.6
		c-0.5-1.1-1.1-1.8-1.7-2c-0.9-0.3-1.5-0.5-1.3,0.1l-0.5-0.5l-0.5-0.1c-0.2,0.1,0.1,0.3,0.4,0.9l-0.1,0.1l-0.6-0.9
		c-0.2-0.1-0.4-0.2-0.4,0l0.3,0.6l-0.6-0.7c-0.3-0.2-0.6-0.2-0.6-0.1l0.9,1.5c-0.2-0.2-0.4-0.5-0.7-0.8c-0.4-0.5-0.7-0.9-1.1-0.9
		c-0.4,0,0.4,0.7,1,2.1l-1.4-2c-0.1-0.1-0.7-0.2-0.7,0l1.6,2.4c-0.8-0.9-1.5-1.6-1.9-2.4c-0.1-0.1-0.2-0.1-0.3-0.1
		c-0.1,0-0.1,0-0.2,0.1l2,2.6c-0.4-0.4-0.8-0.8-1.1-1.1c-0.4-0.6-0.8-1-1.1-1.5c-0.1-0.2-0.4-0.1-0.4,0c-0.2,0.2,1.5,1.9,2.2,2.9
		c-1-0.9-1.8-1.9-2.5-2.9c-0.3-0.2-0.6-0.2-0.7,0c-0.1,0.2,2,2.2,2.8,3.5c-1.1-1.2-2.2-2.3-3.1-3.5c-0.1-0.2-0.5-0.2-0.5,0
		c0,0.3,1.8,2,3.3,4c-1.1-1.2-2.4-2.7-2.9-3.1c-0.3,0,0.7,1.1,2.7,3.5c-1-0.9-2-2-2.9-3c-0.3,0.2,0.9,1.7,2.6,3.5l-2.6-2.7
		C-190-175.2-190.1-175.2-189.9-174.9z M-178.7-175.5c-0.2-0.3,0.1-0.5,0.4-0.1c0.5,0.9,1,1.6,1.4,2.5c0.2,0.4-0.1,0.5-0.2,0.1
		C-177.7-173.9-178.2-174.7-178.7-175.5z M-179.8-175.8c-0.2-0.3,0.3-0.4,0.6,0c0.8,1,1.4,2.1,1.9,3.2c0.3,0.7,0,0.8-0.3,0.2
		C-178.2-173.7-179-174.8-179.8-175.8z"/>
</g>
<g transform="translate(259.941, 96.7246)">
	<path class="st1" d="M-186.3-57.7c0,0.6,0.3,1.3,0.9,1.8c0-0.1-0.3-0.6-0.5-0.9C-186.1-57.3-186.2-57.7-186.3-57.7z M-184.3-37.3
		c-0.1-0.9-0.6-1.6-1.6-2.4c0,0.2,0.7,0.8,1.1,1.5C-184.5-37.6-184.5-37.5-184.3-37.3z M-184.3-38.3c-0.1-0.1-0.2-0.5-0.6-1
		c-0.3-0.6-0.9-1.1-0.9-1.3C-184.9-39.9-184.4-39.1-184.3-38.3z M-184.5-39.6c-0.1-0.1-0.2-0.4-0.4-0.8c-0.3-0.4-0.7-0.9-0.7-1
		C-184.9-40.8-184.5-40.2-184.5-39.6z M-184.6-40.8c0-0.4-0.3-0.9-0.8-1.1c0,0.1,0.3,0.4,0.5,0.7C-184.7-41.1-184.7-40.9-184.6-40.8
		z M-185.1-58.8c-0.2,0.6,0,1.3,0.5,2c0-0.1-0.2-0.6-0.3-1.1C-184.9-58.3-185-58.7-185.1-58.8z M-190.9-37.7c-0.5,0-0.6-0.1-0.6-0.6
		C-191.3-38-191.1-37.9-190.9-37.7z M-191.5-38.5c0.3,0.3,0.7,0.5,1,0.9c0.2,0.1,0.3,0.1,0.5-0.1c-0.5-0.6-1-0.9-1.6-1.4
		C-191.6-39-191.6-38.7-191.5-38.5z M-191.7-39.5c0.7,0.7,1.2,1.1,1.8,1.8c0.2,0.1,0.3,0.1,0.4,0c-0.8-0.9-1.4-1.7-2.2-2.6
		C-191.7-40-191.7-39.7-191.7-39.5z M-191.5-40.5c0.9,1,1.7,1.8,2.6,2.9c0.3,0.1,0.5,0.1,0.6,0c-0.9-1.1-1.9-2.3-2.9-3.5
		c-0.1,0.2-0.1,0.3-0.2,0.4C-191.5-40.6-191.5-40.6-191.5-40.5z M-191.3-41.3c1.1,1.3,2.1,2.4,3.3,3.8c0.2,0.1,0.3,0.1,0.5,0
		c-0.1-0.1-0.9-1.1-1-1.2c-0.9-1.2-1.5-1.8-2.6-3.1C-191.2-41.6-191.2-41.5-191.3-41.3z M-191.1-42c1.2,1.3,1.6,1.9,2.9,3.4
		c0.1,0.2,0.8,0.9,0.9,1c0.2,0.3,0.7,0.3,0.5,0.1c-0.2-0.3,0-0.1-0.3-0.5c-1-1.3-2.8-3.4-3.8-4.7C-191-42.4-191.1-42.2-191.1-42z
		 M-190.9-42.8c0-0.2,0.1-0.4,0.1-0.5c1,1.2,2.9,3.6,4,4.9c0.6,0.7,0.6,0.7,0.9,1c0,0.2-0.1,0.1-0.4,0c-0.3-0.3-0.3-0.3-0.6-0.7
		C-188.2-39.6-189.7-41.5-190.9-42.8z M-190.8-43.5c0.1-0.2,0.1-0.5,0.1-0.7c1,1.6,2.6,3.4,4.2,4.9c-0.1-0.7-2.2-2.5-3.5-4.2
		c-0.3-0.5-0.5-0.9-0.7-1.2c0-0.2,0-0.4,0.1-0.6c0.9,1.8,2.3,3.5,4.3,5.2c-0.2-0.6-2.3-2.2-3.3-4c-0.4-0.7-0.7-1.2-0.9-1.7
		c0-0.1,0-0.2,0-0.3c0.9,1.8,2.4,3.6,4.3,5.2c-0.2-0.6-2.3-2.3-3.3-4c-0.4-0.7-0.7-1.3-0.9-1.7c0-0.1,0-0.2,0-0.3
		c0.9,1.7,2.7,4,4.5,5.5c-0.2-0.6-2.6-2.6-3.5-4.2c-0.4-0.8-0.7-1.3-0.9-1.8c0-0.1,0-0.3,0-0.5c0.7,1.7,2.6,4,4.4,5.4
		c-0.2-0.6-2.5-2.4-3.4-4c-0.5-0.8-0.8-1.4-0.9-1.9c0-0.2,0-0.4,0-0.5c0.6,1.7,2.4,3.8,4.2,5.2c-0.2-0.5-2.3-2.2-3.1-3.6
		c-0.6-0.9-0.8-1.6-1-2c0-0.2,0-0.4,0-0.6c0.5,1.7,2.2,3.8,4,5.2c-0.1-0.5-2.1-2-2.9-3.4c-0.6-1-0.8-1.7-1-2.2c0,0,0-0.1,0-0.1
		c0-0.2,0-0.4,0.1-0.6c0.4,1.7,1.9,3.9,3.8,5.4c-0.1-0.4-1.9-2-2.7-3.2c-0.7-1.2-0.9-1.9-1.1-2.3c0.6-4.7,2.6-7.5,5.5-8l0.1,0
		c-0.1,0.6,0,1.2,0.3,1.9c0.1-0.1-0.1-0.8-0.1-1.3c0-0.2,0-0.4,0-0.5l0.3,0.1c0,0.7,0.3,1.3,0.6,1.3c-0.2-0.4-0.3-0.8-0.3-1.2
		l0.4,0.1c0,0.7,0.2,1.4,0.6,1.5c-0.3-0.4-0.3-0.9-0.3-1.3l0.1,0c0.1,0.3,0.2,0.5,0.3,0.7c0.1-0.2,0.1-0.5,0-0.9
		c0.4-0.2,0.8-0.2,1.2,0.1c0.2,0.2,0.1,0.3-0.1,0.3h-0.2l0.5,0.2c0,0.1,0.1,0.1-0.2,0.2l-0.2,0.2l0.7,0.1c0.2,0.1,0.2,0.2,0.1,0.3
		l-0.2,0.2c0.6,0,1.2,0.1,2,0.5c0,0.3-0.3,0.2-0.9-0.1c0.1,0.3,0.7,0.4,0.6,0.6c-0.1,0.4-0.9,0-1.2,0.5l0.9,0
		c0.2,0.1,0.1,0.2-0.2,0.2c0.5,0.6,0.8,0.7,0.9,0.3c0.1-0.3,0.3-0.3,0.4,0c0.6,0.3,0.7,0.4,0.3,0.4l-0.5,0.1l0.6,0.1
		c0.2,0.1,0.2,0.2,0.1,0.3c-0.4,0.1-0.5,0.1,0.3,0.2c0.3,0.2,0.5,0.3,0.3,0.5c-0.7,0-0.7,0.1,0.2,0.2c0.2,0.1,0.3,0.2,0.2,0.3
		c-0.4,0.1-0.4,0.2,0.2,0.2c0.1,0.1,0.1,0.2,0,0.3c-0.5,0.1-0.4,0.2,0.2,0.2c0,0.2,0.4,0.2,0.5,0.5c0.5-0.1,0.8,0.3,0.3,0.3l0,0.1
		c0.8,0,1.1,0.2,1,0.7c-0.1,0.2-1.1-0.4-0.7,1.2l0.2,0.2c0.3,0.1,0-0.7,0.5-0.7c0.1,0,0.1,0.3,0,0.7c-0.1,0.4-0.3,0.5-0.7,0.3
		c-0.3-0.2-0.5-0.5-0.5-0.7l0-0.5c-0.4,0-0.4-0.2-0.5-0.6c0-0.1-0.1,0-0.1-0.1c-0.6-0.1-0.9,0.1-1,0.5c0,0.2-0.2,0-0.2-0.1
		c0-0.1-0.2,0-0.3,0c-0.1,0-0.1-0.2-0.2-0.2c-0.1,0-0.1,0.1-0.2,0.1c-0.1,0-0.1-0.3-0.3-0.1c-0.1,0.1-0.2,0.1-0.2-0.1
		c0-0.2,0.2-0.5-0.2,0c-0.1,0.1-0.2,0.1-0.2-0.1c-0.2-0.6-0.3-0.6-0.4-0.1c-0.1,0.2-0.2,0.2-0.2-0.1c-0.2-0.9-0.2-0.9-0.2,0
		c0,0.4-0.1,0.3-0.3-0.1c-0.2-0.7-0.3,0.1-0.5-0.3c-0.2-0.4-0.1-0.9-0.5-1.1l0.2,1.1c0,0.2-0.3,0.2-0.3-0.1
		c-0.1-0.8-0.6-2.1-0.5-1.6l0.3,1.6c0,0.1-0.3,0.1-0.4-0.1l-0.4-2c-0.1-0.6-0.1,1,0.1,1.7c0,0.1-0.3,0.1-0.2,0c0-0.2-0.3-2-0.4-1.9
		c-0.2,0.2,0.4,2.1-0.1,1.8c-0.1,0-0.2-1.9-0.3-1.9c0,0,0,1.8-0.1,1.8c-0.5-0.7,0-2.4-0.3-2.5c-0.1,0-0.2,2.2-0.3,2.1
		c0.2,1.7,1.6,1.7,1.5,2.2l-0.9-0.5c0.3,0.5,0.7,1,0.9,1.6c-0.3,0.1,0,0.5,0.2,0.7c-0.3,0-0.2,0.2,0.3,0.7c0.1,0.1,0.2,0.2,0.1,0.3
		c-0.7-0.2-0.8-0.2,0.4,0.7c-0.7-0.1-0.7,0,0.1,0.5c0.1,0.1,0.3,0.3,0.3,0.5c0,0.1-0.1,0.1-0.2,0.1c-0.1-0.1-0.3-0.2-0.4-0.2
		c-0.2,0-0.1,0.2,0.9,0.9c0.2,0.2,0.3,0.4,0.2,0.4c-1.1-0.7-1-0.5,0.2,0.5c0.3,0.5,0.3,0.7,0.2,0.7c-1-0.8-1.6-1.3,0.1,0.4
		c0.3,0.3,0.4,0.5,0.1,0.5c-1.7-1.3-0.8-0.4,0.4,0.8c0.1,0.1,0,0.2-0.1,0.1c-1.6-1.2-1.7-0.9,0,0.9c0.1,0.2,0.2,0.3,0.1,0.4
		c0,0.1-0.2,0-0.2,0c-1.2-1.1-1.1-0.9,0.3,0.9c0.2,0.3,0.3,0.6,0,0.4c-1.5-1.7-1.9-2,0,0.5c0.2,0.3,0.2,0.5,0,0.4
		c-1.3-1.8-1.4-1.6-0.1,0.4c0.1,0.2,0.1,0.3,0,0.2c-1.2-1.5-1.6-1.8-0.1,0.3c0.2,0.4,0.2,0.5,0,0.3c-1.5-1.8-1.5-1.6-0.1,0.3
		c0.1,0.2,0.2,0.4,0,0.3c-1.7-1.9-1.7-1.9-0.1,0.2c0,0.5,0,0.5-0.3,0.2c-0.2-0.2-0.2-0.4-0.3-0.5c-1-1.3-1.2-1.2,0.1,0.5
		c-0.1,0.1-0.3,0.1-0.5,0c-1.1-1.4-1.2-1.4-0.3-0.1l-0.6-0.1c-0.1-0.2-0.2-0.3-0.3-0.4c-1-1-1.4-1.1-0.4,0.2c0,0-0.1,0.1,0,0.1
		l-1.1-0.2c-0.1,0-0.3-0.1-0.4-0.2c-0.5-0.9-0.8-1.2-1.6-2c0.1,0.3,0.7,0.8,1.2,1.6c0.1,0.5-0.5,0.3-0.7,0.2c-0.4-0.5-0.5-0.6-1-1.2
		C-188-40.1-189.6-42.1-190.8-43.5z M-186.9-57.2c0.1,0.1,0.2,0.5,0.5,1c0.3,0.5,0.7,1,0.7,1.2C-186.5-55.7-186.9-56.5-186.9-57.2z
		 M-187.4-56.7c0.1,0.1,0.2,0.6,0.5,1.1c0.3,0.6,0.9,1.2,0.9,1.4C-186.8-54.9-187.4-55.9-187.4-56.7z M-187.8-56.1
		c0.2,0.1,0.3,0.6,0.6,1.3c0.4,0.7,1,1.3,1,1.5C-187.2-54.1-187.8-55.2-187.8-56.1z M-188.2-55.5c0,1,0.8,2.3,1.9,3.1
		c0-0.2-0.8-1-1.2-1.7C-188-54.8-188.1-55.4-188.2-55.5z M-188.6-54.9c0.1,1.1,0.9,2.5,2.1,3.5c-0.1-0.3-0.9-1.1-1.4-1.9
		C-188.3-54.2-188.4-54.7-188.6-54.9z M-188.9-54.3c0.1,1.2,1,2.7,2.4,3.8c-0.1-0.3-1-1.2-1.5-2.1
		C-188.6-53.5-188.7-54.1-188.9-54.3z M-189.2-53.7c0.1,1.3,1.1,2.9,2.6,4.1c-0.1-0.3-1.1-1.3-1.7-2.3
		C-188.9-52.8-189-53.4-189.2-53.7z M-189.5-53c0.1,1.4,1.2,3.1,2.8,4.4c-0.1-0.4-1.3-1.4-1.9-2.5C-189.1-52.1-189.3-52.8-189.5-53z
		 M-189.7-52.4c0.1,1.5,1.3,3.4,3.1,4.7c-0.1-0.4-1.4-1.5-2.1-2.7C-189.4-51.4-189.5-52.1-189.7-52.4z M-190-51.8
		c0.2,1.6,1.6,3.7,3.4,5.2c-0.1-0.4-1.6-1.8-2.4-3C-189.6-50.7-189.7-51.4-190-51.8z M-185.7-58.2c0.1,0,0.2,0.4,0.4,0.8
		c0.1,0.3,0.3,0.7,0.3,0.8C-185.5-57.1-185.7-57.7-185.7-58.2z M-177.1-49.6c-0.4-0.4-0.6,0.1-0.1,0.5c0.4,0.4,0.9,0.3,0.8,0.1
		L-177.1-49.6z M-179.8-53.6c-0.1,0,0,0.4,0.1,0.6c0,0.2,0.1,0.3,0.2,0.5s0.2,0.2,0.2,0.1c-0.1-0.4-0.3-0.7-0.3-1
		C-179.6-53.5-179.7-53.6-179.8-53.6z M-180.2-54.1c-0.1,0,0,0.5,0,0.7c0,0.2,0.1,0.4,0.2,0.6c0.1,0.2,0.2,0.2,0.2,0.2
		c-0.1-0.5-0.3-0.8-0.3-1.2C-180.1-54-180.2-54.1-180.2-54.1z M-180.7-54.6c-0.1,0,0,0.5,0,0.8c0,0.3,0,0.5,0.2,0.7
		c0.1,0.2,0.2,0.3,0.2,0.2c-0.1-0.5-0.3-0.9-0.3-1.3C-180.6-54.5-180.6-54.6-180.7-54.6z M-181.2-55.1c-0.1-0.1,0,0.6,0,0.9
		c0,0.3,0,0.5,0.2,0.8c0.2,0.2,0.2,0.3,0.2,0.2c-0.1-0.6-0.2-1.1-0.2-1.5C-181.1-55-181.1-55.1-181.2-55.1z M-181.6-55.6
		c-0.1,0,0,0.7,0,1c0,0.3,0,0.6,0.2,0.9c0.1,0.3,0.2,0.4,0.2,0.3c-0.1-0.7-0.2-1.2-0.2-1.7C-181.5-55.5-181.6-55.6-181.6-55.6z
		 M-182.1-56.1c-0.1-0.1,0,0.7,0,1.1c0,0.3,0,0.7,0.2,1c0.1,0.3,0.2,0.4,0.2,0.3c-0.1-0.7-0.2-1.3-0.2-1.9
		C-182-55.9-182-56-182.1-56.1z M-182.6-56.1c0-0.1,0,0.6-0.1,0.9c0,0.3,0,0.6,0.1,0.8c0.1,0.3,0.2,0.3,0.2,0.2
		c-0.1-0.6-0.2-1.1-0.1-1.5C-182.4-55.9-182.5-56-182.6-56.1z M-182.9-56.1c-0.1,0-0.1,0.5-0.1,0.7c0,0.2,0,0.4,0.1,0.6
		c0.1,0.2,0.1,0.3,0.1,0.2c0-0.5-0.1-0.9,0-1.2C-182.8-55.9-182.9-56-182.9-56.1z"/>
</g>
<g transform="translate(98.1904, 39.5986)">
	<path class="st4" d="M-54.9-10.7c1,1.2,1.9,2.4,2.9,3.7c0,0.2-0.1,0.4-0.4,0.4c-1.1-1.5-1.9-2.8-2.7-4
		C-55.2-10.8-55-10.9-54.9-10.7z M-50-2.3c0.1,0.3-0.1,0.4-0.3,0.1c-0.4-0.5-0.3-1.1,0.1-1.7c0.5-0.6,1.1-0.6,1.7-0.2
		c0.3,0.3,0.2,0.3-0.2,0.3C-49.7-3.7-50.2-3.2-50-2.3z M-48.8-2.8c-0.5-0.2-0.6,0-0.5,0.5c6.5,9.2,16.5,22.7,28.1,38.6l-0.1,0.2
		l1,0.6l-0.3-1.3l-0.2,0.1C-29.8,23.3-40.2,8.5-48.8-2.8z"/>
</g>
<g transform="translate(92.3311, 91.9111)">
	<path class="st5" d="M-27.1-52.7c0-0.2,0.9-0.8,2-1.6c0.5-0.4,0.9-0.5,1.4-0.5c0.1,0,0.3,0.1,0.6,0c0.3,0.2,0.2,0.3-0.1,0.4
		c-0.1-0.1-0.3-0.1-0.4-0.1c-0.3,0.1-0.3,0.3-0.5,0.3l-0.1-0.2c-0.4,0.3-0.7,1-0.9,1.3l-0.1-0.4c-0.2,0-0.3,0.5-0.6,0.7
		c0-0.3,0-0.4-0.1-0.4C-26.6-52.8-27-52.6-27.1-52.7z M-40.1-35.6c0.3,0,0.6,0.1,0.6,0.2c0,0.1-0.3,0.2-0.6,0.2
		c-0.3,0-0.6-0.1-0.6-0.2C-40.7-35.5-40.4-35.6-40.1-35.6z M-37.9-36c0.2-0.3,0.4-0.4,0.5-0.4c0.1,0.1,0,0.4-0.2,0.7
		c-0.2,0.3-0.4,0.5-0.5,0.4C-38.1-35.5-38-35.8-37.9-36z M-38.6-35.7c0.1-0.2,0.3-0.4,0.4-0.3c0.1,0.1,0,0.3-0.1,0.5
		c-0.2,0.2-0.3,0.4-0.4,0.3C-38.8-35.2-38.7-35.4-38.6-35.7z M-39.2-35.5c0.1-0.2,0.3-0.3,0.3-0.3c0.1,0.1,0,0.3-0.1,0.5
		c-0.1,0.2-0.3,0.3-0.3,0.2C-39.4-35.2-39.4-35.4-39.2-35.5z M-50.1-37.8l-0.1,0.4c0.2,0,0.3-0.2,0.5-0.3l-0.1,0.6
		c0.2,0,0.7-0.5,1-0.7l-0.2,0.6c0.3,0,0.5-0.4,0.7-0.7l-0.1,0.6c0.4,0,0.6-0.5,0.9-0.8l-0.1,0.6c0.3,0,0.5-0.4,0.7-0.6l0.1,0.4
		c0.2,0,0.4-0.3,0.6-0.4l0.1,0.4l0.5-0.5l0.1,0.4l0.6-0.2l0.2,0.2l0.5-0.2l0,0.5l0.6-0.3l0.1,0.3l0.5-0.3v0.4l0.5-0.1l0,0.4l0.8-0.3
		l-0.3,0.6l0.7-0.4l-0.1,0.5L-41-37l-0.4,0.7c0.5,0,0.7-0.3,1-0.5l-0.2,0.6c0.5-0.1,0.9-0.5,1.3-1c0.1,0.2,0,0.4-0.3,1
		c0.5-0.2,0.8-0.6,1-1l-0.2,0.7c0.3,0,0.7-0.3,0.9-0.8l0,0.7c0.3-0.2,0.5-0.5,0.6-0.8c0.3,0.1,0.7-0.1,0.8-0.6
		c0.2-0.5,0.1-0.7-0.4-0.5c-1.4,1-3.3,1.2-6,0.4c-1.8-0.5-3.6-0.6-5.4-0.6C-49.1-38.7-49.8-38.6-50.1-37.8z M-46-44.9
		c0.1-0.2,0.4-0.4,0.7-0.6l0.1,0.3l0.8-0.3l0.1,0.3l0.9-0.5c-0.5,0.6-0.6,0.9-0.4,0.9c0.1,0,0.8-0.7,0.9-0.5c-0.4,0.7,0,0.5,0.7-0.1
		c0.2,0.1-0.3,0.5-0.2,0.6c0.1,0.1,0.3-0.1,0.9-0.5c0.1-0.1,0.4-0.4,0.5-0.3c0,0.2-0.2,0.3-0.3,0.4c-0.5,0.6-0.4,0.5,0.5-0.1
		c0.1-0.1,0.3-0.2,0.5-0.2c-0.6,0.8-0.4,0.7,0.6,0.1c0.1-0.1,0.3-0.3,0.5-0.1c-1.1,1-0.9,1.1,0.5,0.4c-0.7,0.8-0.5,0.8,0.6,0.1
		c0.1,0,0.2,0,0.4-0.1c-0.5,0.5-0.6,0.9-0.3,0.7c0.4-0.2,0.8-0.4,1-0.3c-0.5,0.5-0.4,0.7,0.2,0.6c0.2,0.1,0,0.3-0.6,0.7
		c-0.1,0.2-0.2,0-0.3-0.4c-0.1,0.2-0.2,0.2-0.3,0.1l-0.1,0.9l-0.2,0v-0.5c-0.1-0.1-0.2-0.1-0.3,0l-0.2,0.7l-0.3-0.2
		c-0.1,0.2-0.2,0.5-0.5,0.6c-0.2-0.3-0.3-0.2-0.4,0c-0.1,0-0.2-0.1-0.3,0c-0.1,0.3-0.2,0.4-0.4,0.2c-0.3,0.2-0.5,0.3-0.8,0.6
		l-0.1-0.3c-0.2,0.3-0.4,0.5-0.6,0.5l-0.2-0.2l-0.4,0.6l-0.6,0.2c0,0.2,0.2,0.2,0.6,0.1c0.5-0.1,1.5-0.3,2.2-0.5s1.4-0.3,2.2-0.6
		c0.6-0.3,1.3-0.8,2.1-1.2c0.2,0.1,0,0.5-1.3,1.5l-0.7-0.2l0.4,0.5c-0.2,0.2-0.3,0.2-0.5,0.2l-0.6-0.3l0.2,0.6c-0.4,0-0.6-0.5-1-0.3
		l0.2,0.5l-0.9-0.3l0.2,0.6l-0.8-0.3l-0.2,0.3c-0.2,0-0.4,0.1-0.4,0.2c1.7,0.3,3.6-0.3,5.6-1.3c0.1,0,0.1,0,0.1,0.2
		c-0.2,0.8-0.7,1.5-1.6,2.1l0.3-1c-0.6,0.3-1.2,1.5-1.7,1.7l0.5-1.4l-1.5,1.3c-0.1-0.2,0.1-0.5,0.4-1c-0.5,0-1.2,1.1-1.4,1
		c-0.3-0.2,0.3-0.5,0.4-0.7c-0.4,0-0.7,0.4-1.1,0.6c0-0.2,0.2-0.4,0.6-0.8l-1.3,0.6c0-0.2,0.5-0.4,0.6-0.8c-0.6,0.4-1.1,0.7-1.2,0.6
		l0.4-0.6l-1.1,0.6l0.7-0.7l-1.2,0.6l0.3-0.6l-0.9,0.6l0.4-0.7c-0.4,0.4-0.8,0.6-1,0.6c0.2-0.3,0.4-0.5,0.4-0.7
		c-0.4,0.3-0.8,0.6-0.9,0.6l0.2-0.6c-0.3,0.3-0.7,0.6-1.1,0.7l0.4-0.7c0.1-0.1,0-0.2-0.1-0.1l-0.9,0.7c0.2-0.4,0.3-0.6,0.2-0.7
		l-0.6,0.3l0.1-0.4l-0.7,0.8c-0.1,0,0-0.2,0.1-0.6l-0.8,0.5c0.4-0.8,1-1.3,1.9-1.6c1-0.3,1.9-0.4,2.5-0.5c1.1-0.2,1.9-0.3,2.8-0.7
		c0.4-0.2,0.9-0.4,1.4-0.8c0.3-0.2,0.2-0.3-0.1-0.2l-1.2,0.1v-0.5l-0.5,0.6l-0.1-0.6l-0.4,1.1l-0.2-1.2l-0.3,1.3l-0.2-1.3l-0.5,1.5
		l-0.1-1.6l-0.3,1.6l-0.3-1.6L-45-42l-0.3-1.5l-0.1,1.5l-0.4-1.5l0,1.6l-0.5-1.5l-0.1,1.3l-0.3-1.3l-0.1,1.2l-0.3-1.1l-0.2,1.2
		c-0.5-0.9-0.7-1.7-0.4-2.1C-47.3-44.8-46.6-45-46-44.9z M-42.2-48.4c0.1,0,0.2,0.1,0.3,0.4c0.1,0.2,0.1,0.4,0,0.4
		c-0.1,0-0.2-0.1-0.3-0.4C-42.3-48.2-42.3-48.4-42.2-48.4z M-45.6-48.8c0.5-0.8,0.9-1,1.1-0.4c0.3-1,0.7-1.1,1.1-0.2
		c0.6,0,0.8,0.9,0.7,2.4l-0.6-1.6v1C-43.6-49.4-46.1-48.4-45.6-48.8z M-34.7-54.5c0.7,0.1,1.4,0.3,2.1,0.7c0,0.1,0.1,0.2-0.1,0.1
		c-0.3-0.2-0.5-0.3-0.7-0.3c0.1,0.3,0,0.4-0.1,0.4c-0.3-0.5-0.5-0.5-0.7-0.4c-0.1,0-0.1,0.1-0.2,0c-0.2-0.4-0.3-0.4-0.4-0.3
		C-34.9-54.4-34.9-54.5-34.7-54.5z M-38.4-54.3c-0.2,0.1-0.2,0.2,0,0.2c0.2-0.2,0.5-0.2,0.8,0.1c0-0.4,0.2-0.4,0.5,0.1
		c-0.1-0.5,0-0.7,0.6,0.1c0-0.4,0-0.5,0.4,0.2c0.1,0.1,0.2,0.1,0.2,0.1c-0.2-0.8-0.1-0.7,0.3,0.1c0.1,0.2,0.2,0.2,0.2,0.1
		c0-0.5,0.2-0.4,0.7,0.3c0.1,0.2,0.2,0.2,0.2,0.1c-0.1-0.4,0.1-0.4,0.5,0.1c0.3,0,0.8,0.2,1.4,0.8c0.1,0.1,0.1,0.1,0.2,0.1
		c-0.3-0.6,0.1-0.4,0.6,0c0.3-0.2,0.4-0.3,0.2-0.3c-1.1-0.4-2-0.8-2.7-1.3c-0.8-0.6-1.1-0.4-2-1C-37.1-55-37.8-54.8-38.4-54.3z
		 M-40-53.3c-0.4,0.1-0.4,0.3,0,0.4c0.2,0,0.3,0,0.4,0c0.2,0,0.3,0,0.4,0.2c0.2,0.3,0.4,0.5,0.5,0.4c0.1-0.1-0.6-0.6-0.3-0.6h0.2
		c0.6,0.5,1.1,0.8,1,0.7l-0.2-0.6c-0.1-0.2,0.2-0.1,0.4,0l0.8,0.7c0.1,0.1,0-0.1-0.1-0.5c-0.1-0.1,0.1-0.1,0.3,0
		c0.5,0.5,1,1.2,1,0.9V-52c0-0.1,0.2-0.1,0.3,0c0.3,0.3,0.6,0.6,0.6,0.5l-0.1-0.3c0-0.2,0.1-0.2,0.3,0l0.8,0.7
		c0.2,0.1,0.3,0.1,0.2,0l-0.1-0.2c-0.1-0.2,0-0.2,0.2-0.1l0.7,0.5c0.1,0.1,0.1,0-0.1-0.3h0.4c0.1,0.2,0.2,0.3,0.6,0.5
		c0.1,0.1,0.1-0.1,0.3-0.1l0.9-0.3c0.3-0.1,0.3-0.3,0-0.2c-1.4,0.4-2.8-0.3-4.4-1.2C-37-53.7-38.6-53.7-40-53.3z M-26.5-52.5
		c0.1,0.1,0,0.2-0.1,0.3c-0.1,0.1-0.2,0.1-0.3,0.1c0-0.1,0-0.2,0.1-0.3C-26.7-52.5-26.6-52.6-26.5-52.5z M-25.5-52.3
		C-25.7-52.4-25.8-52-25.5-52.3l0.6-0.4c0.3-0.5,0.1,0.1,0.3,0.1c0.2-0.1,0.5-0.7,0.4-0.9l0.5-0.2c0.3-0.2,0.2-0.3-0.2-0.3
		c-0.4,0.3-0.9,0.7-1.2,1.2L-25.5-52.3z"/>
</g>
</svg>
