<?xml version="1.0" encoding="utf-8"?>
<!-- Generator: Adobe Illustrator 22.0.1, SVG Export Plug-In . SVG Version: 6.00 Build 0)  -->
<svg version="1.1" id="Слой_1" xmlns="http://www.w3.org/2000/svg" xmlns:xlink="http://www.w3.org/1999/xlink" x="0px" y="0px"
	 viewBox="0 0 127.3 127" style="enable-background:new 0 0 127.3 127;" xml:space="preserve">
<style type="text/css">
	.st0{fill:url(#SVGID_1_);}
	.st1{fill:#FFFFFF;}
	.st2{fill-rule:evenodd;clip-rule:evenodd;fill:#FFFFFF;}
	.st3{fill-rule:evenodd;clip-rule:evenodd;fill:#DA251D;}
	.st4{fill-rule:evenodd;clip-rule:evenodd;fill:#F8C300;}
	.st5{fill-rule:evenodd;clip-rule:evenodd;fill:#007CC3;}
</style>
<radialGradient id="SVGID_1_" cx="64.8" cy="-554.747" r="62.6" gradientTransform="matrix(1 0 0 -1 0 -490.347)" gradientUnits="userSpaceOnUse">
	<stop  offset="0.9487" style="stop-color:#212121"/>
	<stop  offset="1" style="stop-color:#606060;stop-opacity:0"/>
</radialGradient>
<circle class="st0" cx="64.8" cy="64.4" r="62.6"/>
<circle class="st1" cx="62.6" cy="62.6" r="62.6"/>
<g>
	<path class="st2" d="M63.2,106.7h-0.9c-0.7-1.9-1.8-3.9-3.4-5.4c-1.7-1.5-3.9-2.6-7.1-2.7l-11.4-0.4c-2.7-0.1-4.8-1.3-6.2-3.1
		c-1.7-2.1-2.5-4.9-2.5-7.5V23.1c30.6,0,31.3,0,62.2,0v64.4c0,2.6-0.8,5.5-2.5,7.5c-1.4,1.8-3.5,3-6.2,3.1l-11.4,0.4
		c-3.2,0.1-5.5,1.2-7.1,2.7C65,102.8,63.9,104.8,63.2,106.7L63.2,106.7z"/>
	<path class="st3" d="M49.7,56.9L49.7,56.9L49.7,56.9c-1-1-1.6-2.2-1.9-3.3c-0.5-2.2,0.3-3.6,1.5-5.3c2.8-3.7,6.6-7,9.2-12.1
		c0-0.2,0-0.4,0-0.7c0-1,0-2.1,0-3.1c0,0-0.1,0-0.1,0c-0.7,0-1.2-0.4-1.2-1c0-0.5,0.6-1,1.2-1c0.6,0,1.1,0.4,1.2,0.8c0,0,0,0,0,0
		c0,0,0,0,0,0c0,0,0,0.1,0,0.1s0,0.1,0,0.1c0,0.5,0,1,0,1.5c0.3,0.9,1.2,2.2,3.3,1c0.2-0.1,0.6-0.1,0.8,0c0.2,0,0.4,0.2,0.6,0.3
		c0.6,0.3,1.1,0.3,1.7,0.4c-0.6,0.1-1,0.3-1.6,0.2c-0.4-0.1-0.7-0.3-1.1-0.3c-0.6,0-1,0.5-1.5,0.7c-0.8,0.3-1.6,0-2.1-0.6
		c0,0.4,0,0.9,0,1.3L67,60.1c0.6,0,1.1,0,1.7,0.1c1.1,0,1.6,0.3,2.5,0.8c1.5,0,3,0,4.6,0c1.8-1.3,4.1-1.5,6.3-1.4
		c-1.8,2.7-1.9,6.2,0.5,9.8c-2.2-0.5-4.4-1.2-6.5-1.7c-1.4,0-1.8,0.2-3.1,0.7c-0.2-0.2-0.4-0.5-0.6-0.7c-1.2,0.1-2.4,0.2-3.7,0.4
		c-0.6-0.1-1-0.4-1.2-0.9c-0.7,0-0.9-0.1-1-0.7l-6.9,21.5c0,0.1,0.1,0.1,0.1,0.2c0,0.8,0,1.5,0,2.2c0.6-0.6,1.3-0.9,2.1-0.6
		c0.5,0.2,0.9,0.7,1.5,0.7c0.4,0,0.7-0.3,1.1-0.3c0.4-0.1,0.8,0,1.1,0.1c0.1,0,0.1,0.2,0,0.2c-0.4,0.1-0.8,0.1-1.2,0.3
		c-0.4,0.2-0.9,0.8-1.4,0.5c-2.1-1.2-2.9-0.1-3.3,0.9c0,0.5,0,1,0,1.5c0,0,0,0.1,0,0.1c0,0,0,0.1,0,0.1c0,0,0,0,0,0c0,0,0,0,0,0
		c-0.1,0.5-0.6,0.8-1.2,0.8c-0.7,0-1.2-0.4-1.2-1c0-0.5,0.6-1,1.2-1c0,0,0.1,0,0.1,0c0-1.2,0-2.7,0-3.8c-2.5-5.1-6.4-8.4-9.2-12.1
		c-1.2-1.6-2-3.1-1.5-5.3c0.3-1.2,0.9-2.4,1.9-3.3l0,0v-4.7h-9c0.1,0.5,0.4,1,0.8,1.6c0.1,0.2,0.2,0.3-0.1,0.2
		c-2.1-1.1-4.7-1.8-7-2.4c-0.2-0.1-0.2-0.3,0-0.4c2.3-0.6,4.9-1.3,6.9-2.3c0.2-0.1,0.4-0.1,0.1,0.2c-0.4,0.5-0.7,1-0.8,1.5h9V56.9
		L49.7,56.9z M59.4,37.2l-0.3,0.5c-1.7,3.8-7.3,9.5-8.4,12.3c-0.8,1.9,0.3,5.2,2.3,6.2l-0.1,0c0,0,0,0,0,0l0,0v0c0,0,0,0,0,0l0,0
		v5.5c1.2,0,2.6,0,3.2,0c0.4-0.5,0.8-1,1.2-1.5c3,0,5.9-0.1,8.9-0.1L59.4,37.2L59.4,37.2z M59.2,87.2c-1.7-3.8-7.3-9.5-8.4-12.3
		c-0.8-1.9,0.3-5.2,2.4-6.2l0,0l0,0v-5.5c1.2,0,2.6,0,3.2,0c0.3,0.4,0.7,0.7,1,1.1c2.7,0,5.7,0,8.3,0c-0.2,0.6-0.5,1.1,0.3,1.7
		L59.2,87.2L59.2,87.2z"/>
	<path class="st4" d="M69.1,66.5c-0.1,0-0.3,0-0.4,0.1c-0.1,0.1-0.2,0.1-0.3,0.2c-0.1,0.1-0.1,0.2-0.1,0.3c0,0.1,0.1,0.2,0.2,0.2
		c0.1,0.1,0.2,0.1,0.4,0.1c0.1,0,0.3,0,0.4-0.1c0.1-0.1,0.2-0.2,0.3-0.3c0.1-0.1,0.1-0.2,0.1-0.4c0-0.1-0.1-0.2-0.1-0.2
		C69.4,66.4,69.3,66.5,69.1,66.5L69.1,66.5z"/>
	<path class="st4" d="M68.6,65.3c-0.2,0-0.4,0.1-0.6,0.2c-0.2,0.1-0.4,0.2-0.6,0.3c-0.1,0.1-0.2,0.1-0.2,0.2c0,0.1,0,0.2,0,0.3
		c0,0.1,0.1,0.2,0.2,0.2c0.1,0,0.2,0,0.3,0c0.2-0.1,0.4-0.2,0.5-0.3c0.2-0.1,0.4-0.2,0.5-0.4c0.1-0.1,0.1-0.2,0.1-0.4
		c0-0.1,0-0.1-0.1-0.2C68.8,65.3,68.7,65.2,68.6,65.3L68.6,65.3z"/>
	<path class="st4" d="M67.4,64.3c-0.2,0.1-0.5,0.1-0.7,0.3c-0.1,0.1-0.3,0.2-0.4,0.3c-0.1,0.1,0,0.3,0,0.4c0,0.1,0.1,0.2,0.1,0.3
		c0.1,0.1,0.3,0.1,0.4,0c0.2,0,0.3-0.1,0.4-0.2c0.2-0.1,0.3-0.3,0.4-0.4c0.2-0.1,0.4-0.2,0.5-0.3c0.1-0.1,0.2-0.1,0.2-0.3
		c0-0.2-0.2-0.4-0.3-0.4C67.8,63.9,67.6,64.2,67.4,64.3L67.4,64.3z"/>
	<path class="st4" d="M67.8,63c-0.2-0.1-0.5,0-0.7,0c-0.2,0-0.4-0.1-0.7,0c-0.2,0-0.4,0.1-0.6,0.2c-0.1,0.1-0.2,0.2-0.2,0.3
		c0,0.1,0.1,0.3,0.2,0.4c0.2,0.1,0.4,0.2,0.6,0.2c0.1,0,0.3-0.1,0.4-0.2c0.2-0.1,0.5-0.2,0.7-0.2c0.1-0.1,0.3,0,0.4-0.2
		C68,63.3,68,63,67.8,63L67.8,63z"/>
	<path class="st4" d="M69.6,61c0.4,0.1,0.8,0.1,1.1,0.3c0.3,0.2,0.6,0.5,0.9,0.7c0.2,0.2,0.6,0.3,0.7,0.6c0.2,0.4,0.2,0.9,0.3,1.3
		c0.1,0.5,0.1,1.1,0.1,1.6c0,0.4,0,0.8-0.2,1.1c-0.1,0.2-0.4,0.2-0.6,0.3c-0.2,0.1-0.4,0.1-0.6,0.1c-0.2,0-0.5,0-0.7-0.1
		c-0.2-0.1-0.3-0.3-0.5-0.4c0,0-0.1-0.4-0.1-0.6c0-0.1,0-0.9,0-0.9c0.1-0.1,0.1-0.3,0.3-0.4c0.1,0,0.2,0.1,0.3,0.2
		c0.1,0.1,0.2,0.2,0.3,0.2c0.1,0,0.2,0,0.3-0.1c0.1-0.1,0.2-0.2,0.2-0.3c0-0.2-0.1-0.3-0.2-0.4c-0.2-0.1-0.4,0-0.5-0.1
		c-0.2,0-0.4-0.1-0.6-0.2c-0.2-0.2-0.4-0.4-0.6-0.6c-0.2-0.2-0.4-0.5-0.6-0.7c-0.1-0.2-0.2-0.4-0.4-0.6c-0.1-0.1-0.3-0.1-0.4-0.1
		c-0.2,0-0.3-0.1-0.5-0.1c-0.2,0-0.4,0-0.6,0c-0.2,0-0.5,0.1-0.7-0.1C65.1,60.6,69.1,60.9,69.6,61L69.6,61z"/>
	<path class="st4" d="M76.5,62c0.6-0.6,1.6-0.7,2.3-0.7c0.4-0.4,0.6-0.3,1.1-0.3c0,0.2,0.1,0.3,0.1,0.5c-0.3,0.2-0.4,0.3-0.6,0.6
		c-0.2,0.3-0.2,0.7,0,1c0.1,0.4,0,0.5-0.2,0.2c-0.1-0.3-0.2-0.7-0.2-1.1c-0.2-0.1-0.3,0.1-0.4,0.5c0,0.4,0,0.8,0.1,1.2
		c0,0.3-0.1,0.4-0.3,0.1c-0.1-0.2-0.1-0.4-0.2-0.6c-0.1-0.3-0.1-0.6-0.1-1c-0.4,0.1-0.7,0.3-0.6,1c0.1,0.4,0.1,0.7,0.2,1.1
		c0.1,0.2,0,0.2-0.2,0.1C76.6,63.8,76.5,63.1,76.5,62L76.5,62z"/>
	<path class="st4" d="M74.3,61.7c-0.2,1.2-0.4,2.3,0,3.4c0.3,0.7,0.3,0.7,0.3-0.1c-0.1-0.7,0.1-1.3,0.3-2c0.2,0.5,0.2,1,0.4,1.4
		c0.3,0.6,0.4,0.7,0.3-0.1c-0.1-0.4,0.2-1.3,0.3-1.7C75.3,62.5,74.6,62.1,74.3,61.7L74.3,61.7z"/>
	<path class="st4" d="M56.9,62.7h8.7V62h-0.2c0-0.3,0.1-0.5,0.3-0.8c-0.1,0-0.3,0-0.4,0.1c-0.2,0.2-0.3,0.5-0.3,0.7h-0.7
		c0-0.3,0.1-0.5,0.3-0.8c-0.1,0-0.3,0-0.4,0.1c-0.2,0.2-0.3,0.5-0.3,0.7h-0.7c0-0.3,0.1-0.5,0.3-0.8c-0.1,0-0.3,0-0.4,0.1
		c-0.2,0.2-0.3,0.5-0.3,0.7H62c0-0.3,0.1-0.5,0.3-0.8c-0.1,0-0.3,0-0.4,0.1c-0.2,0.2-0.3,0.5-0.3,0.7H61c0-0.3,0.1-0.5,0.3-0.8
		c-0.1,0-0.3,0-0.4,0.1c-0.2,0.2-0.3,0.5-0.3,0.7h-0.7c0-0.3,0.1-0.5,0.3-0.8c-0.1,0-0.3,0-0.4,0.1c-0.2,0.2-0.3,0.5-0.3,0.7h-0.7
		c0-0.3,0.1-0.5,0.3-0.8c-0.1,0-0.3,0-0.4,0.1c-0.2,0.2-0.3,0.5-0.3,0.7h-0.7c0-0.3,0.1-0.5,0.3-0.8c-0.1,0-0.3,0-0.4,0.1
		c-0.2,0.2-0.3,0.5-0.3,0.7H57L56.9,62.7L56.9,62.7z"/>
	<path class="st3" d="M42.8,39.7l-2.3,4.9h5.9l-2.3-4.9c-0.1-0.2-0.1-0.3-0.1-0.4c0-0.1,0.1-0.2,0.1-0.3c0.1-0.1,0.2-0.1,0.3-0.1
		c0.1,0,0.3,0,0.4,0.1l4.5,2.4V35L45,37.4c-0.1,0.1-0.3,0.1-0.4,0.1c-0.1,0-0.2-0.1-0.3-0.1c-0.1-0.1-0.1-0.2-0.1-0.3
		c0-0.1,0-0.3,0.1-0.4l2.3-4.9h-5.9l2.3,4.9c0.1,0.2,0.1,0.3,0.1,0.4c0,0.1-0.1,0.2-0.1,0.3l0,0c-0.1,0.1-0.2,0.1-0.3,0.1
		c-0.1,0-0.3,0-0.4-0.1L37.6,35v6.4l4.5-2.4c0.1-0.1,0.3-0.1,0.4-0.1c0.1,0,0.2,0.1,0.3,0.1c0.1,0.1,0.1,0.2,0.1,0.3
		C42.9,39.4,42.9,39.5,42.8,39.7L42.8,39.7z"/>
	<path class="st3" d="M43.6,28.4c-0.3,0-0.6,0.1-0.7,0.3c-0.2,0.2-0.3,0.5-0.3,0.8c0,0.3,0.1,0.6,0.3,0.8c0.2,0.2,0.5,0.3,0.7,0.3
		c0.3,0,0.6-0.1,0.7-0.3c0.2-0.2,0.3-0.5,0.3-0.8c0-0.3-0.1-0.6-0.3-0.8C44.1,28.6,43.8,28.4,43.6,28.4L43.6,28.4z"/>
	<path class="st3" d="M52.6,38.2c0-0.3-0.1-0.6-0.3-0.8c-0.2-0.2-0.5-0.3-0.7-0.3c-0.3,0-0.6,0.1-0.7,0.3c-0.2,0.2-0.3,0.5-0.3,0.8
		c0,0.3,0.1,0.6,0.3,0.8c0.2,0.2,0.5,0.3,0.7,0.3c0.3,0,0.6-0.1,0.7-0.3C52.4,38.8,52.6,38.5,52.6,38.2L52.6,38.2z"/>
	<path class="st3" d="M43.6,47.9c0.3,0,0.6-0.1,0.7-0.3c0.2-0.2,0.3-0.5,0.3-0.8c0-0.3-0.1-0.6-0.3-0.8c-0.2-0.2-0.5-0.3-0.7-0.3
		c-0.3,0-0.6,0.1-0.7,0.3c-0.2,0.2-0.3,0.5-0.3,0.8c0,0.3,0.1,0.6,0.3,0.8C43,47.8,43.3,47.9,43.6,47.9L43.6,47.9z"/>
	<path class="st3" d="M34.5,38.2c0,0.3,0.1,0.6,0.3,0.8c0.2,0.2,0.5,0.3,0.7,0.3c0.3,0,0.6-0.1,0.7-0.3c0.2-0.2,0.3-0.5,0.3-0.8
		c0-0.3-0.1-0.6-0.3-0.8c-0.2-0.2-0.5-0.3-0.7-0.3c-0.3,0-0.6,0.1-0.7,0.3C34.7,37.5,34.5,37.8,34.5,38.2L34.5,38.2z"/>
	<path class="st4" d="M93,34.6c-1.1-0.2-2.7,0-3.3,0.4c-1.2,0.6-1.6,1.9-3.4,2.2c-3.3,0.6-4.8,3.2-4.8,5.8c-3.3,2.5-3.7,6.2-2.8,9.3
		c-4,2.2-4.2,5.4-3.2,8h-4.1c-0.4-0.2-0.8-0.4-1.3-0.6c-0.5-0.2-0.9-0.2-1.4-0.2c-0.4,0-0.9,0-1.3,0l-7.2-23.7c0-0.1,0-0.1,0-0.2
		c0.3,0.1,0.6,0.2,1,0.2c0.4,0,0.8-0.1,1.2-0.3c0.1-0.1,0.2-0.1,0.2-0.2c0.2-0.2,0.5-0.4,0.8-0.3l0.6,0.2l2,0
		c0.9-0.2,1.8-0.5,2.7-0.7L66,34.2c-0.2,0-0.4-0.1-0.7-0.1L65.1,34l-0.6-0.3c-0.2-0.1-0.3-0.2-0.5-0.3l-1-0.1l-0.6,0.3l-0.6,0.2
		l-0.9-0.1l-0.7-0.9v-1.3l0-0.3l-0.5-0.9c-0.8-0.6-1.9-0.6-2.6,0L57,30.5c-0.2,0.2-0.3,0.4-0.3,0.7c-0.1,0.8,0.4,1.3,1.1,1.6
		c0.1,0,0.1,0,0.2,0.1V36c-0.3,0.6-0.6,1.1-0.9,1.7c-0.3,0.4-0.5,0.8-0.8,1.3c-0.4,0.5-0.7,1.1-1.1,1.6c-1.1,1.4-2.2,2.7-3.3,4
		c-1.1,1.2-2.1,2.5-3.1,3.8c-0.3,0.5-0.6,0.9-0.9,1.4c-0.2,0.3-0.3,0.7-0.4,1c-0.1,0.4-0.2,0.7-0.2,1.1c0,0.3,0,0.5,0,0.8
		c0,0.4,0.1,0.9,0.2,1.3c0.3,1.2,0.9,2.3,1.8,3.2v4h-7.7l0.4-0.6c0.1-0.1,0.1-0.1,0.1-0.2c0.1-0.1,0.1-0.2,0.1-0.3l0-0.2L42,59.5
		l-0.2-0.2l-0.2-0.1c-0.2,0-0.3,0-0.5,0.1c-0.1,0.1-0.3,0.1-0.4,0.2c-2.1,0.9-4.3,1.5-6.5,2.1c-0.1,0-0.2,0.1-0.3,0.2L33.8,62
		l-0.1,0.1l-0.1,0.1l0,0.1l0,0.1l0.1,0.2l0.1,0.2c0.1,0.1,0.2,0.2,0.4,0.2l0.5,0.1c2.2,0.6,4.4,1.2,6.4,2.2c0.1,0.1,0.3,0.1,0.4,0.1
		l0.2,0l0.2-0.1l0.2-0.2l0.1-0.2l0-0.2c0-0.2-0.1-0.3-0.2-0.4c-0.2-0.2-0.3-0.4-0.5-0.7h7.6v3.9c-0.9,0.9-1.5,2.1-1.8,3.3
		c-0.1,0.3-0.1,0.5-0.1,0.8c0,0.4-0.1,0.8,0,1.2c0,0.3,0.1,0.5,0.1,0.8c0.1,0.4,0.2,0.7,0.4,1c0.3,0.6,0.6,1.1,0.9,1.6
		c0.8,1.1,1.7,2.2,2.6,3.2c1.1,1.3,2.3,2.6,3.3,3.9c0.5,0.6,1,1.3,1.4,1.9c0.4,0.5,0.7,1.1,1.1,1.7c0.3,0.6,0.6,1.1,0.9,1.7v3.2
		c-0.5,0.1-1,0.5-1.2,1l-0.1,0.2c-0.1,0.3-0.1,0.5,0.1,0.8c0.1,0.3,0.3,0.5,0.5,0.7c0.6,0.4,1.3,0.5,2,0.2c0.5-0.2,0.8-0.5,0.9-1
		c0-0.1,0-0.1,0-0.2c0-0.1,0-0.2,0-0.3l0-1.3l0.8-0.9l1.3,0.2l0.3,0.2l0.3,0.1l1.1-0.3l0.3-0.2l0.6-0.2l0.8-0.2l0.2-0.1l0.1-0.2
		l0-0.2l0-0.2L66,89.8l-0.2-0.1c-0.2-0.1-0.3-0.1-0.5-0.2c-0.5-0.1-1,0-1.5,0.1c-0.1,0.1-0.3,0.1-0.4,0.2c-0.2,0.1-0.4,0-0.6-0.1
		c-0.2-0.1-0.4-0.2-0.5-0.3c-0.6-0.3-1.2-0.4-1.8-0.2c-0.1,0-0.2,0.1-0.2,0.1V88l-0.1-0.1l6.5-20.3c0.1,0.1,0.3,0.1,0.5,0.1
		c0.3,0.5,0.7,0.8,1.3,0.9c0.1,0,0.2,0,0.3,0c1.1-0.1,2.3-0.2,3.4-0.3c0.2,0.3,0.5,0.5,0.7,0.8c0.7-0.3,1.4-0.6,2.1-0.7
		c0.2,0,0.4,0,0.6-0.1c0.3,0.9,0.8,1.8,1.5,2.7c-2,3.3-1.1,7.7,3.3,9.5c0.3,6.3,3.4,8.1,9.2,8.2c0.6,1,2.1,1.8,3.2,1.8
		c-0.4,1.5-1,2.8-1.9,4c-1.3,1.6-3.1,2.6-5.5,2.7l-11.4,0.4c-3.4,0.1-5.9,1.3-7.7,3c-1.5,1.4-2.5,3-3.2,4.7
		c-0.7-1.7-1.8-3.4-3.2-4.7c-1.8-1.7-4.3-2.8-7.7-3l-11.4-0.4c-2.4-0.1-4.2-1.2-5.5-2.7c-1.6-1.9-2.3-4.5-2.3-6.9V24.1H93V34.6
		L93,34.6z M42.3,39.5l-4.9,2.6l-0.4,0.2v-3.4c-0.1,0.2-0.2,0.3-0.3,0.5c-0.3,0.3-0.7,0.5-1.2,0.5c-0.4,0-0.9-0.2-1.2-0.5
		c-0.3-0.3-0.5-0.7-0.5-1.2c0-0.5,0.2-0.9,0.5-1.2c0.3-0.3,0.7-0.5,1.2-0.5c0.4,0,0.9,0.2,1.2,0.5c0.1,0.1,0.2,0.3,0.3,0.5V34
		l0.4,0.2l4.9,2.6l-2.4-5.3l-0.2-0.4h3.2c-0.2-0.1-0.4-0.2-0.5-0.4c-0.3-0.3-0.5-0.7-0.5-1.2c0-0.5,0.2-0.9,0.5-1.2
		c0.3-0.3,0.7-0.5,1.2-0.5c0.4,0,0.9,0.2,1.2,0.5c0.3,0.3,0.5,0.7,0.5,1.2c0,0.5-0.2,0.9-0.5,1.2c-0.2,0.2-0.3,0.3-0.5,0.4h3.2
		l-0.2,0.4l-2.4,5.3l4.9-2.6L50,34v3.4c0.1-0.2,0.2-0.3,0.3-0.5c0.3-0.3,0.7-0.5,1.2-0.5c0.4,0,0.9,0.2,1.2,0.5
		c0.3,0.3,0.5,0.7,0.5,1.2c0,0.5-0.2,0.9-0.5,1.2c-0.3,0.3-0.7,0.5-1.2,0.5c-0.4,0-0.9-0.2-1.2-0.5c-0.1-0.1-0.2-0.3-0.3-0.5v3.4
		l-0.4-0.2l-4.9-2.6l2.4,5.3l0.2,0.4h-3.2c0.2,0.1,0.4,0.2,0.5,0.4c0.3,0.3,0.5,0.7,0.5,1.2c0,0.5-0.2,0.9-0.5,1.2
		c-0.3,0.3-0.7,0.5-1.2,0.5c-0.4,0-0.9-0.2-1.2-0.5c-0.3-0.3-0.5-0.7-0.5-1.2c0-0.5,0.2-0.9,0.5-1.2c0.2-0.2,0.3-0.3,0.5-0.4h-3.2
		l0.2-0.4L42.3,39.5L42.3,39.5z M51.4,53l0.2,0.6l0.5,0.9l0.4,0.5l0.6,0.5l0.6,0.3l0,0.8v4.5H56c0.4-0.5,0.8-1,1.2-1.5
		c2.8,0,5.5-0.1,8.3-0.1l0.1,0l-6.3-20.8c-0.3,0.6-0.6,1.1-1,1.6c-0.6,0.9-1.2,1.7-1.8,2.5c-0.6,0.9-1.3,1.7-2,2.5
		c-0.9,1.2-1.9,2.4-2.7,3.7c-0.2,0.4-0.5,0.8-0.6,1.2c-0.1,0.3-0.1,0.6-0.1,0.9c0,0.2,0,0.4,0,0.6c0,0.4,0.1,0.7,0.2,1L51.4,53
		L51.4,53z M53.7,69.1c-0.6,0.3-1,0.5-1.4,1.1c-0.2,0.3-0.4,0.6-0.6,0.9c-0.1,0.2-0.2,0.4-0.3,0.6c-0.1,0.3-0.2,0.7-0.3,1
		c0,0.2-0.1,0.4-0.1,0.6c0,0.3,0,0.6,0.1,0.9c0,0.2,0.1,0.3,0.1,0.5c0.4,1,1.1,1.9,1.7,2.8l0.6,0.8c1.7,2.2,3.5,4.4,5,6.7l0.5,0.8
		l6.3-19.5c-0.3-0.3-0.4-0.6-0.5-1c0-0.1,0-0.3,0-0.4l-7.8,0c-0.3-0.4-0.7-0.7-1-1.1h-2.4v4.5L53.7,69.1L53.7,69.1z"/>
	<path class="st5" d="M84.5,54.7c-1.8,0.1-3.1,2.2-3.4,3.8c-0.1,0.4-0.8,0.3-0.7-0.1c0.4-1.9,2-4.1,4.1-4.3
		C84.9,54.1,85,54.7,84.5,54.7L84.5,54.7z"/>
	<path class="st5" d="M88.5,37.2c-0.6,0.5-1.3,0.6-2.1,0.7c-2.5,0.4-3.8,2.2-4.1,4.3c-0.1,0.4-0.1,0.8-0.1,1.2
		c-0.5,0.4-1,0.8-1.5,1.3c-2.1,2.4-1.9,5.2-1.2,8c-1.1,0.6-2,1.2-2.7,2.1c-1.3,1.6-1.3,3.5-0.7,5.2c2.4-1,4.6-1.3,6.4-1.1
		c0.5-0.7,1.1-1.4,1.8-2.1c0.3-0.3,0.7-0.6,1.1-0.9c0.4-0.3,0.9,0.2,0.5,0.5c-2.3,1.7-4.2,4.3-4.3,7.3c-0.2,3.7,2.1,6.6,4.8,8.7
		c0.3-0.4,0.6-0.7,1-1c-3.2-2.1-4.3-4.2-4.5-7.8c0-0.4,0.7-0.5,0.7,0c0.3,3.5,1.2,5.5,4.3,7.4c0.2-0.1,0.4-0.3,0.6-0.4
		c-1.9-1.2-2.9-2.9-3.8-4.8c-0.2-0.4,0.5-0.6,0.7-0.2c0.9,1.9,1.9,3.5,3.7,4.6c0.3-0.2,0.5-0.3,0.8-0.5c-1.1-0.7-1.6-1.4-2.1-2.5
		c-0.2-0.4,0.5-0.6,0.7-0.2c0.6,1.1,1,1.7,2.1,2.4c0.4-0.2,1.6,0.2,1.1,0.4c-2.6,1.3-6.3,3.8-5.8,7c0.5,3.3,4.4,5.4,7.1,6v-1.4
		c0,0-0.1,0-0.1,0c-3.2-1.2-6-2.7-5.8-6.3c0-0.4,0.8-0.4,0.7,0c-0.2,3.2,2.4,4.5,5.2,5.6v-1.2c0,0-0.1,0-0.1,0
		c-1.8-0.7-4.1-1.5-4.2-3.5c0-0.4,0.7-0.4,0.7,0c0,1.7,2.1,2.3,3.5,2.9V67.9c-3.6-1.6-7.4-5.3-5.1-9.2c0.5-0.8,1.2-1.6,2.1-2.2
		c0.4-0.3,0.9,0.2,0.5,0.5c-1.8,1.2-2.9,3-2.4,5.2c0.5,2.3,3.4,4.2,5,5v-1.4c-3.2-1.7-5.4-4.7-2.9-7.7c0.3-0.3,1.2-0.2,0.9,0.2
		c-2.3,2.5-0.6,5.2,2,6.7v-1.9c-1.6-0.9-2.3-2.1-1.4-3.7c0.2-0.4,0.9-0.1,0.7,0.3c-0.7,1.1-0.2,1.9,0.7,2.6v-16
		c-1.1,0.1-4.2,0.8-5.4,3.1c-0.7,1.5-0.7,3.4,0.1,5.8c0.1,0.4-0.6,0.6-0.7,0.2c-0.4-1.4-0.7-2.6-0.6-3.7c-4,0.7-6.6,2.2-6.9,6.4
		c0,0.4-0.8,0.4-0.7,0c0.2-2.3,0.9-3.4,2.2-4.6c0,0-0.1-0.1-0.1-0.2c-1.3-3.9-0.8-7.4,3.3-9.2c0.4-0.2,0.8,0.3,0.3,0.5
		c-3.6,1.6-4.1,4.7-3,8.3c0.3-0.2,0.6-0.5,1-0.6c-1-2.3-0.5-4.9,1.6-6.4c0.4-0.3,0.9,0.2,0.5,0.5c-1.8,1.3-2.2,3.6-1.4,5.6
		c0.4-0.2,0.8-0.3,1.3-0.5c-0.5-1-0.4-2,0.2-3c0.2-0.4,0.9-0.1,0.6,0.3c-0.5,0.8-0.6,1.6-0.2,2.5c0.4-0.1,0.9-0.2,1.3-0.3
		c0.2-1.6,1-3,2.3-3.9c-0.4-2.3-0.1-4.5,1.9-6c0.4-0.3,1.2,0,0.8,0.3c-1.7,1.3-2.3,3.3-2,5.3c0.3-0.2,0.6-0.3,0.9-0.4
		c-0.3-1.1,0.3-2.7,1-3.6c0.3-0.3,0.9,0,0.6,0.4c-0.6,0.7-0.9,1.9-0.7,2.8c0.3-0.1,1.6-0.2,1.9-0.2l0-10.2c-0.1-0.2-0.8-0.2-1.4-0.1
		C89.8,35.5,89.7,36.1,88.5,37.2L88.5,37.2z M76.4,68.3c0.4,0.9,0.9,1.8,1.6,2.6c0,0,0,0,0,0c1.6,1.1,3.6,1.9,5.6,2
		c0.5,0,0.5,0.6,0,0.6c-0.4,0-0.8-0.1-1.2-0.1c-0.4,0.9,0,1.9,0.8,2.5c0.4,0.3-0.1,0.7-0.5,0.4c-1-0.8-1.4-1.9-1-3.1
		c-0.3-0.1-0.5-0.1-0.8-0.2c-0.5,1.7-0.2,3.2,1.4,4.2c0.4,0.3,0,0.7-0.4,0.5c-1.8-1.1-2.3-2.9-1.6-4.9c-0.2-0.1-0.5-0.2-0.7-0.3
		c-1.3,2.3-0.2,4.6,2,5.8c0.5,0.2,0,0.7-0.4,0.5c-2.5-1.3-3.8-3.9-2.3-6.6c-0.4-0.2-0.8-0.5-1.3-0.8c-0.1,0.1-0.1,0.2-0.2,0.3
		c-1.4,2.8-0.4,6.3,2.8,7.8c0.1,0.1,0.3,0.1,0.4,0.2c0.1-0.1,0.2-0.1,0.3,0c1.9,0.5,3.8,0.6,5.7,0.2c-1.7-2.1-2.2-4.9-0.6-7.2
		c-0.5-0.3-1.1-0.9-1.6-1.3c-0.5-0.4-1-1-1.3-1.4C80.9,69.6,78.6,69,76.4,68.3L76.4,68.3z"/>
	<path class="st5" d="M92.8,89.8c0.1-0.6,0.2-1.2,0.2-1.7v-4.6c-1.2-0.2-5-1.9-5.8-2.9c-2,0.5-4.1,0.4-6.1,0
		c0.1,1.9,0.4,3.9,1.8,5.5c1.5,1.6,3.9,1.9,6.2,2c-0.2-0.2-0.3-0.5-0.4-0.7c-2.7,0-4.9-1.2-6-3.7c-0.2-0.4,0.5-0.6,0.7-0.2
		c0.9,2.2,2.7,3.2,5,3.3c-0.1-0.2-0.1-0.5-0.2-0.8c-1.3,0-2.8-0.7-3.5-1.9c-0.2-0.4,0.4-0.6,0.7-0.3c0.5,0.9,1.7,1.5,2.8,1.5
		c0-0.3,0-0.5,0.1-0.8c0.1-0.4,0.8-0.4,0.7,0.1C88.6,86.9,90.4,89.5,92.8,89.8L92.8,89.8z"/>
</g>
</svg>
