<?xml version="1.0" encoding="utf-8"?>
<!-- Generator: Adobe Illustrator 22.0.1, SVG Export Plug-In . SVG Version: 6.00 Build 0)  -->
<svg version="1.1" id="Слой_1" xmlns="http://www.w3.org/2000/svg" xmlns:xlink="http://www.w3.org/1999/xlink" x="0px" y="0px"
	 viewBox="0 0 127.3 127" style="enable-background:new 0 0 127.3 127;" xml:space="preserve">
<style type="text/css">
	.st0{fill:url(#SVGID_2_);}
	.st1{fill:#FFFFFF;}
	.st2{fill:#01500A;}
	.st3{fill:none;stroke:#FFFFFF;stroke-width:0.442;stroke-linecap:round;stroke-linejoin:round;stroke-miterlimit:22.9256;}
	.st4{fill:none;stroke:#000000;stroke-width:5.612795e-02;stroke-miterlimit:22.9256;}
	.st5{fill:#FFEA00;}
	.st6{fill:#FE0000;}
	.st7{fill:none;stroke:#F2D300;stroke-width:0.442;stroke-miterlimit:22.9256;}
	.st8{fill:none;stroke:#F2D300;stroke-width:5.612795e-02;stroke-miterlimit:22.9256;}
	.st9{fill:#000184;}
	.st10{fill:none;stroke:#FFFFFF;stroke-width:0.5893;stroke-miterlimit:22.9256;}
	.st11{fill:none;stroke:#F2D300;stroke-width:0.5893;stroke-miterlimit:22.9256;}
	.st12{fill:#FFECF5;}
	.st13{fill:#C4C4C4;}
	.st14{fill:#887485;}
	.st15{fill:#DBD4D2;}
	.st16{fill:#A591A2;}
	.st17{filter:url(#Adobe_OpacityMaskFilter);}
	.st18{fill:url(#SVGID_3_);}
	.st19{mask:url(#SVGID_1_);fill:#887485;}
	.st20{fill:#B8A3AF;}
	.st21{fill:#806F7B;}
	.st22{fill:#999393;}
	.st23{fill:#0E2F74;}
	.st24{fill:#265BCE;}
	.st25{fill:none;stroke:#FFFFFF;stroke-width:5.612795e-02;stroke-miterlimit:22.9256;}
	.st26{fill:#0B2185;}
	.st27{fill:none;stroke:#FFFFFF;stroke-width:7.366792e-02;stroke-miterlimit:22.9256;}
	.st28{fill:none;stroke:#0B2185;stroke-width:7.366792e-02;stroke-miterlimit:22.9256;}
	.st29{fill:#FF9300;}
</style>
<radialGradient id="SVGID_2_" cx="64.8" cy="1634.7469" r="62.6" gradientTransform="matrix(1 0 0 1 0 -1570.3469)" gradientUnits="userSpaceOnUse">
	<stop  offset="0.9487" style="stop-color:#212121"/>
	<stop  offset="1" style="stop-color:#606060;stop-opacity:0"/>
</radialGradient>
<circle class="st0" cx="64.8" cy="64.4" r="62.6"/>
<circle class="st1" cx="62.6" cy="62.6" r="62.6"/>
<g>
	<path class="st2" d="M86.8,28.7c-0.3-0.6-0.8-1.2-1-1.8c-0.4-1.2-0.1-2.6-0.6-3.8c-1.7-3.9-7.5-2.7-10.8-3.7L72.9,19
		c2.2,4.6,5.1,9.3,10.9,9.6L86.8,28.7z"/>
	<path class="st3" d="M84.8,27.3c-4.1-4.6-4.2-2.3-8.2-6.9"/>
	<path class="st3" d="M81,24.1c-1.1-1.2-1.5-2.1-1.9-3.7"/>
	<path class="st3" d="M79.8,25.9c1.1-0.1,2.3-0.2,3.4-0.2"/>
	<path class="st2" d="M92.2,37.2c-3.5-4.2-5.9-9.8-11.7-6.7c-0.8,0.4-1.3,0.9-2,1l-1.1,0.1c1.2,1.4,2.4,3.4,3.7,4.3
		c1.3,1,2.9,1.7,3.9,1.4c1.8-0.5,2.6,0.3,3.5,0.4C89.7,37.9,91,37.4,92.2,37.2z"/>
	<path class="st4" d="M92.2,37.2c-3.5-4.2-5.9-9.8-11.7-6.7c-0.8,0.4-1.3,0.9-2,1l-1.1,0.1c1.2,1.4,2.4,3.4,3.7,4.3
		c1.3,1,2.9,1.7,3.9,1.4c1.8-0.5,2.6,0.3,3.5,0.4C89.7,37.9,91,37.4,92.2,37.2z"/>
	<path class="st3" d="M90.4,36.7c-2.5-2.3-4.5-2.3-6.4-3.7c-0.9-0.6-1.7-1.3-2.2-2.2"/>
	<path class="st3" d="M79.3,32c0.9,0.3,2,0.8,2.6,1s0.9,0.2,1.5,0.3c0.5,0.1,1.2,0.3,1.8,0.4"/>
	<path class="st3" d="M87.6,34.8c-1.3,0.2-2.3,0.2-3.6-0.1"/>
	<path class="st2" d="M88.1,20.6c-0.1,0.8-0.2,1.6-0.6,2.9c-0.4,1.3-1.5,4.3-0.1,6.2l5.7,7.6c0.2-1.4,0.2-3.1,0.6-4.4
		c0.4-1.3,1.6-2.9,1.5-3.5c-0.1-0.6-0.8-3.5-1.6-4.6c-0.8-1.1-3.1-1.5-3.6-2.1L88.1,20.6z"/>
	<path class="st4" d="M88.1,20.6c-0.1,0.8-0.2,1.6-0.6,2.9c-0.4,1.3-1.5,4.3-0.1,6.2l5.7,7.6c0.2-1.4,0.2-3.1,0.6-4.4
		c0.4-1.3,1.6-2.9,1.5-3.5c-0.1-0.6-0.8-3.5-1.6-4.6c-0.8-1.1-3.1-1.5-3.6-2.1L88.1,20.6z"/>
	<path class="st3" d="M92.5,33.9c-0.8-2.5-1.5-4.7-2.6-7.1c-0.6-1.4-1-2.6-1.3-4.1"/>
	<line class="st3" x1="88.6" y1="28.5" x2="91.5" y2="31"/>
	<line class="st3" x1="90.7" y1="23.7" x2="90.6" y2="28.5"/>
	<path class="st2" d="M97.8,28.7c-2.1,2.1-3.6,4.6-3.6,7.6c0,2.2-0.3-0.5,4.2,4.3c0-1.3,4.5-3.9,2.6-6.7l-2.5-3.5L97.8,28.7z"/>
	<path class="st4" d="M97.8,28.7c-2.1,2.1-3.6,4.6-3.6,7.6c0,2.2-0.3-0.5,4.2,4.3c0-1.3,4.5-3.9,2.6-6.7l-2.5-3.5L97.8,28.7z"/>
	<path class="st3" d="M97.9,38.9c-0.4-2.3-1.1-4.7-1.1-7.1c0-0.6,0.2-0.9,0.3-1.3"/>
	<path class="st3" d="M97.2,35.6c0.2-1.7,0.3-2.6,1.3-3.9"/>
	<path class="st3" d="M97.6,37.8c-0.9-0.9-1.7-2.1-3-2.5"/>
	<path class="st2" d="M98.2,47.9c-0.3-3.5,0.1-7.6-3.6-9.4c-1.5-0.8-2.7,0.2-4.2,0.3l-2,0c0.7,2.2,1.1,4.7,2.9,6.4l2.1,1.9l0-2
		C94.8,46.8,96.2,47.2,98.2,47.9z"/>
	<path class="st4" d="M98.2,47.9c-0.3-3.5,0.1-7.6-3.6-9.4c-1.5-0.8-2.7,0.2-4.2,0.3l-2,0c0.7,2.2,1.1,4.7,2.9,6.4l2.1,1.9l0-2
		C94.8,46.8,96.2,47.2,98.2,47.9z"/>
	<path class="st3" d="M96.9,45.2c-1-0.9-2-1.9-2.9-2.6c-1.6-1.1-3.1-1.6-4.6-3.1"/>
	<path class="st3" d="M93.4,42.2c-0.7-1.1-1.2-1.9-1.6-3.1"/>
	<path class="st3" d="M92,43.5c1.4,0.1,2.5,0.2,3.8,0.7"/>
	<path class="st2" d="M102.6,53.3c-1.2-1.6-2.4-3.6-3.7-4.8c-0.3-1.7-0.5-4.8-0.4-5.3c0.1-2.5,1.9-4.5,4.6-6.4
		c1.5,1.3,2.5,3.8,3,5.9c0.4,1.7,0.2,4.9,0.1,5.7C106.2,48.4,103.3,50.2,102.6,53.3z"/>
	<path class="st4" d="M102.6,53.3c-1.2-1.6-2.4-3.6-3.7-4.8c-0.3-1.7-0.5-4.8-0.4-5.3c0.1-2.5,1.9-4.5,4.6-6.4
		c1.5,1.3,2.5,3.8,3,5.9c0.4,1.7,0.2,4.9,0.1,5.7C106.2,48.4,103.3,50.2,102.6,53.3z"/>
	<path class="st3" d="M102.6,51.1c-0.2-2.4-0.6-5.5-0.7-7.3c-0.1-2.2,0.1-3.7,0.6-5.7"/>
	<path class="st3" d="M102.3,48c-0.8-1.4-1.6-2.4-2.7-3.6"/>
	<path class="st3" d="M102,44.6c0.3-1.8,1.1-3.1,2-4.7"/>
	<path class="st2" d="M94.1,46.7c-0.1,4.1-0.6,6.2,0.2,9.2c0.8,2.9,5,2.5,6,4.3l1.2,2.2c0.4-2.4,0.8-5.2,0.3-7.4
		c-0.4-2.2-1.4-4.3-3.7-5.7L94.1,46.7z"/>
	<path class="st4" d="M94.1,46.7c-0.1,4.1-0.6,6.2,0.2,9.2c0.8,2.9,5,2.5,6,4.3l1.2,2.2c0.4-2.4,0.8-5.2,0.3-7.4
		c-0.4-2.2-1.4-4.3-3.7-5.7L94.1,46.7z"/>
	<path class="st3" d="M100.4,59.2c-1.5-4.1-3.8-6-5.2-9.5"/>
	<path class="st3" d="M98.7,55.8c-0.4-0.1-0.8-0.3-1.3-0.3c-0.5-0.1-1.2,0-1.8,0"/>
	<path class="st3" d="M97.8,54.4c-0.3-1.4-0.5-2.7-0.3-4.2"/>
	<path class="st2" d="M108.7,47.9c-3.1,2.4-5.5,3.3-5.7,7.6l-0.3,6.1c0.6-0.5,0.9-1,1.7-1.4c0.8-0.4,2.1-0.3,3-0.9
		c2.9-2.1,2.7-7.1,1.7-10.1L108.7,47.9z"/>
	<path class="st4" d="M108.7,47.9c-3.1,2.4-5.5,3.3-5.7,7.6l-0.3,6.1c0.6-0.5,0.9-1,1.7-1.4c0.8-0.4,2.1-0.3,3-0.9
		c2.9-2.1,2.7-7.1,1.7-10.1L108.7,47.9z"/>
	<path class="st3" d="M103.7,60.5c0.5-1.2,1.1-2.4,1.6-3.5c1.1-2.2,2-3.4,3.6-5.2"/>
	<path class="st3" d="M106.8,54.3c0.1-0.6,0.1-1.1,0.2-1.7c0.1-0.6,0.4-1.4,0.5-2"/>
	<path class="st2" d="M102.3,70c0.3-1.2,0.4-2.3,0.5-3.5s-0.5-2.4-0.3-3.3c0.5-2.1,2.7-2.2,4.3-2.9l2.7-1.1c0.4,2.4,1,4.3,0.7,6.2
		c-0.2,1.3-1,2.6-2.1,4.1L102.3,70z"/>
	<path class="st4" d="M102.3,70c0.3-1.2,0.4-2.3,0.5-3.5s-0.5-2.4-0.3-3.3c0.5-2.1,2.7-2.2,4.3-2.9l2.7-1.1c0.4,2.4,1,4.3,0.7,6.2
		c-0.2,1.3-1,2.6-2.1,4.1L102.3,70z"/>
	<path class="st3" d="M103.9,68.6c1-1.6,2.3-3.4,3-4.7c0.7-1.3,0.9-2,1.4-3"/>
	<path class="st3" d="M105.5,66.1c-0.1-0.3-0.3-0.7-0.4-1c-0.2-0.4-0.5-0.7-0.7-1.1"/>
	<path class="st3" d="M106.9,64.1c0.3-0.1,0.8,0,1.2-0.3c0.4-0.2,0.9-0.7,1.4-1"/>
	<path class="st2" d="M109.8,70.5c-2.8-0.1-5.6-0.7-8,1.1c-2.6,2-3.5,5.3-3.9,8.4l-0.4,2.6c3.2-0.8,6.3-1.4,8.5-4
		c1.3-1.6,1.8-3,2.5-4.9C108.7,73.2,110.2,70.5,109.8,70.5z"/>
	<path class="st4" d="M109.8,70.5c-2.8-0.1-5.6-0.7-8,1.1c-2.6,2-3.5,5.3-3.9,8.4l-0.4,2.6c3.2-0.8,6.3-1.4,8.5-4
		c1.3-1.6,1.8-3,2.5-4.9C108.7,73.2,110.2,70.5,109.8,70.5z"/>
	<path class="st3" d="M98.6,80.6c0.9-1.1,1.6-2.3,2.6-3.4c0.9-1.1,2-2.3,3-3.2c1-1,2-1.7,3-2.5"/>
	<line class="st3" x1="101.8" y1="76.4" x2="103.1" y2="71.8"/>
	<line class="st3" x1="101.2" y1="77.3" x2="103.5" y2="77.4"/>
	<line class="st3" x1="98.8" y1="80.5" x2="100.6" y2="79.4"/>
	<line class="st3" x1="103.3" y1="74.8" x2="107" y2="74"/>
	<path class="st4" d="M92.4,75.2l-0.9-0.9l-0.3-1.2l0-1.2l-0.1-1l-0.6-2.6l1,2.7l0.1-1l0-1l-0.5-1.4L91,66.8l0.9,2
		c0,0,0.1-0.5,0.1-0.7s-0.3-0.9-0.3-0.9l-0.6-1.8l0-0.2l1.2,2.3L92,66.8l-0.3-1.2l-0.4-1.2l-0.4-1.3l0.9,1.9l0-0.6l-0.4-1.1L91,61.9
		l-0.1-0.8l0.8,2.1l0.1-0.7v-1l-0.3-0.8l-0.2-1.1l0.5,1.4l0.3,0.7l0.1-0.5l0-0.7l-0.4-1l-0.1-0.9l0.4,1.1l0.4,1l0.1-0.8l0-1.1
		l-0.2-1.3l0.8,2.6l0.5,0.7L93.2,58l0.7,3.6l0.2,0.2L94,59.5l0.4,2.4l0.1,1.1l0.1,0.7l0.5-3.4l0.1,1.3L95,63.3l-0.1,1.6l0.3-0.4
		l0.3-0.7l0.3-1.7v0.7v1.3l-0.4,1.3l-0.3,0.9l0.1,0.6l0.5-1l0.3-1.1l-0.2,1.4l-0.6,1.1l-0.1,0.9l0,0.5c0,0,0.5-0.8,0.6-1
		c0.1-0.1,0.4-1.1,0.4-1.1l-0.1,1.1l-0.5,1l-0.3,1.2l0.3-0.2l0.5-1.1l-0.1,1l-0.4,0.9l-0.7,1.7l-0.5,1.9l-0.9,1L92.4,75.2z"/>
	<path class="st2" d="M90.7,86.8c-0.7-3.5-1.7-7.4,0.4-10.7c1.4-2.1,3.7-3.5,5.6-5c0.4,2.4,1.1,5.1,0.7,7.5
		c-0.3,2.2-1.8,4.1-2.8,5.3C93.5,85.3,92.7,85.8,90.7,86.8z"/>
	<path class="st4" d="M90.7,86.8c-0.7-3.5-1.7-7.4,0.4-10.7c1.4-2.1,3.7-3.5,5.6-5c0.4,2.4,1.1,5.1,0.7,7.5
		c-0.3,2.2-1.8,4.1-2.8,5.3C93.5,85.3,92.7,85.8,90.7,86.8z"/>
	<path class="st2" d="M97.2,60.5c0.6,0.4,1.1,0.8,1.7,1.2c1.8,1.1,2.3,1.1,2.8,3.5c0.8,4-1.5,5.9-3.2,9.1l-0.3,0.5
		c-0.4-1.8-0.7-3.5-0.9-5.3c-1.1,0.9-2.3,2.4-3.7,2.9c0.1-1.3,0.1-2.2,0.4-3.8C94.7,65.7,95.8,63.1,97.2,60.5z"/>
	<path class="st4" d="M97.2,60.5c0.6,0.4,1.1,0.8,1.7,1.2c1.8,1.1,2.3,1.1,2.8,3.5c0.8,4-1.5,5.9-3.2,9.1l-0.3,0.5
		c-0.4-1.8-0.7-3.5-0.9-5.3c-1.1,0.9-2.3,2.4-3.7,2.9c0.1-1.3,0.1-2.2,0.4-3.8C94.7,65.7,95.8,63.1,97.2,60.5z"/>
	<path class="st3" d="M98.6,72.6c0.1-1.2,0.2-2.3,0.2-3.5c0-1.1,0-2.2-0.2-3.4c-0.2-1.1-0.6-2.2-1-3.3"/>
	<line class="st3" x1="99.9" y1="63.8" x2="98.7" y2="66.3"/>
	<path class="st3" d="M98.7,68.8c-0.9-1.2-1-1.3-2.4-1.8"/>
	<path class="st2" d="M105.5,82.9c-1-0.1-1.8-0.3-2.9-0.3c-1.1,0-2.4,0-3.4,0.2c-1,0.2-1.8,0.6-2.6,1c-0.8,0.4-1.5,0.8-2.2,1.4
		c-0.8,0.6-1.7,1.2-2.3,1.9c-0.7,0.8-1.6,1.6-1.6,2.6l-0.1,1c0.7-0.3,0.9-0.8,2-0.9c1.1-0.1,3.2,0.2,4.4,0.2C98,90,99,90.2,99.9,90
		c0.9-0.2,1.5-1.2,1.8-1.4c0.3-0.2,1.7-1.9,1.8-2.2c0.1-0.3,1.2-2.6,1.2-2.6L105.5,82.9z"/>
	<path class="st4" d="M105.5,82.9c-1-0.1-1.8-0.3-2.9-0.3c-1.1,0-2.4,0-3.4,0.2c-1,0.2-1.8,0.6-2.6,1c-0.8,0.4-1.5,0.8-2.2,1.4
		c-0.8,0.6-1.7,1.2-2.3,1.9c-0.7,0.8-1.6,1.6-1.6,2.6l-0.1,1c0.7-0.3,0.9-0.8,2-0.9c1.1-0.1,3.2,0.2,4.4,0.2C98,90,99,90.2,99.9,90
		c0.9-0.2,1.5-1.2,1.8-1.4c0.3-0.2,1.7-1.9,1.8-2.2c0.1-0.3,1.2-2.6,1.2-2.6L105.5,82.9z"/>
	<path class="st3" d="M102.6,83.9c-0.8,0.5-1.4,1.1-2.3,1.6c-1,0.5-2.5,0.9-3.5,1.3c-1,0.4-1.5,0.6-2.3,0.8"/>
	<path class="st3" d="M102.2,86.6c-0.6-0.2-1.2-0.5-1.7-0.6c-0.5-0.1-0.9,0-1.3-0.1"/>
	<path class="st3" d="M97.3,88.7c-0.5-0.2-1.1-0.3-1.6-0.5s-0.8-0.3-1.3-0.4"/>
	<path class="st2" d="M100.1,93.1c-2.4-1.6-4.2-2.9-7.3-2.5c-3.6,0.5-3.8,2.5-5.3,5.6c2.2,1.5,2.8,2.1,5.6,1.8
		c2-0.2,3.7-2.2,5.1-3.4L100.1,93.1z"/>
	<path class="st4" d="M100.1,93.1c-2.4-1.6-4.2-2.9-7.3-2.5c-3.6,0.5-3.8,2.5-5.3,5.6c2.2,1.5,2.8,2.1,5.6,1.8
		c2-0.2,3.7-2.2,5.1-3.4L100.1,93.1z"/>
	<path class="st3" d="M97.4,92.9c-0.7,0-1.3-0.2-2-0.1c-0.8,0.1-1.7,0.4-2.6,0.7"/>
	<polyline class="st3" points="97.1,94.1 95.6,93.4 94.7,93 	"/>
	<path class="st2" d="M81.5,92.3c0.5-1.5,0.3-2.2,1.5-3.5c1.5-1.7,2.4-1.7,4.1-2.6l1.3-0.7c0,0.4,0,0.5,0.1,1.1
		c0.4,1.5,0.9,2.4,0.5,4C88,94.9,80.9,94.1,81.5,92.3z"/>
	<path class="st4" d="M81.5,92.3c0.5-1.5,0.3-2.2,1.5-3.5c1.5-1.7,2.4-1.7,4.1-2.6l1.3-0.7c0,0.4,0,0.5,0.1,1.1
		c0.4,1.5,0.9,2.4,0.5,4C88,94.9,80.9,94.1,81.5,92.3z"/>
	<path d="M95.2,71.8L94.4,73c0.2-1.1,0.6-2.1,1-3l-0.9,1.2c0-1.4,0.7-2.8,1.5-3.7c-0.6,0.1-0.9,1.1-1.5,1.2c0.1-0.7,0.5-1.3,0.8-2.1
		c0.3-0.4,0.5-0.9,0.7-1.3c-0.4,0.4-0.7,1.3-1.3,1.4c0.5-0.9,0.9-2.3,0.9-3.4c-0.4,0.3-0.4,1.3-0.9,1.6c-0.1,0-0.1,0-0.1,0
		c0-0.1,1.1-3,0.6-3.3c-0.3,0.5-0.4,1.5-1.1,1.9c-0.1,0-0.1,0-0.1,0l0.5-2.8l-0.9,2.6c0-0.2-0.1-0.4-0.1-0.6
		c0.4-1.4,0.4-2.3,0.5-3.2l-0.7,2.5c-0.5-0.4-0.3-1.2-0.3-1.9c0.1-0.3,0.1-1.3,0.1-1.6c-0.3,1-0.1,2.9-0.7,3.8
		c-0.4-0.6-0.7-1.8-0.7-2.6c-0.3,1.1,0.3,2.9,0.5,3.9c-0.7-0.2-0.8-1.1-1.2-1.4c0.1,0.5,0.2,1.1,0.3,1.6c0,0.8,0.2,1.4,0.3,2
		c-0.3,0-0.6-0.1-0.7-0.4c-0.1-0.4-0.3-0.6-0.5-0.8c-0.1,0-0.1,0.1-0.1,0.2c1.2,3.5,1.3,3.4,1.5,3.8c-0.5-0.1-0.7-0.3-0.9-0.8
		c-0.1-0.3,0-0.8-0.4-0.9c0,0.6,0.3,1.2,0.4,1.8c0.3,0.5,0.4,1,0.4,1.5c-0.4,0-0.4-0.7-0.7-0.8c0.3,0.7,0.5,1.6,0.5,2.3
		c0.2,1.2-0.1,0-0.5-0.6c0.3,0.7-0.2,4.1,0.9,4.8c0,0-1.6,5.5-4.2,10.1c-2.3,4-5.8,7.2-5.8,7.2C81.7,93,81.9,93,82,93
		c0.1,0,3.1-3.1,5.5-7c2.8-4.6,5-10.2,5.1-10.2C94,75.5,95,73,95.2,71.8"/>
	<path class="st5" d="M92.5,75.4c0.8,0.3,1.8-1.5,2-2c-1,0.4-1.8,0.8-2,1.9C92.4,75.4,92.4,75.4,92.5,75.4"/>
	<path class="st5" d="M93.1,64.3c0.4-0.7,0.4-1.6,0.1-2.3c-0.1,0-0.1,0-0.1,0C92.6,62.7,92.7,63.5,93.1,64.3
		C93,64.3,93.1,64.3,93.1,64.3"/>
	<path class="st5" d="M92.3,74.1c-0.3-0.6-0.7-0.9-1.1-1.3c-0.4,0.9-0.1,1.7,0.3,2.3C92,75.6,92.4,75.1,92.3,74.1"/>
	<path class="st5" d="M93,73.6c0.4,0,0.5-0.3,0.8-0.5c0.2-0.4,0.3-0.9,0.5-1.3c-0.4,0.3-1,0.4-1.3,1C92.9,73,92.8,73.4,93,73.6"/>
	<path class="st5" d="M92.4,73.4c0.3-0.3,0.2-0.9,0.2-1.4c-0.2-0.6-0.6-0.9-1.1-1.2C91.6,71.6,91.2,72.6,92.4,73.4
		C92.3,73.4,92.4,73.4,92.4,73.4"/>
	<path class="st5" d="M92.5,71.1c0.8-0.8,0.1-2-0.8-2.2c0,0.3,0.1,0.9,0.1,1.3C92,70.6,92.2,70.8,92.5,71.1"/>
	<path class="st5" d="M93.4,71.8c1-0.2,0.3-1.6,1-2.6c-0.5,0.4-1.4,1.3-1.5,2.1C93,71.4,93.2,72.1,93.4,71.8"/>
	<path class="st5" d="M94.4,67.3c-0.4,0-0.9,0.5-1.1,0.9C92.1,71.4,94.3,69.8,94.4,67.3"/>
	<path class="st5" d="M92.6,68.6c0.4-0.2,0.2-0.8,0.2-1.2c-0.1-0.5-0.4-0.9-0.7-1.1c-0.3-0.1-0.6-0.4-0.9-0.3
		c0.1,1.1,0.5,1.4,0.8,2.2C92,68.1,92.6,68.6,92.6,68.6"/>
	<path class="st5" d="M93.3,67.3c0.9-0.3,1.4-1,1.5-2.1c-0.4,0.6-1.5,0.4-1.5,1.4C93.3,66.7,93.2,67.2,93.3,67.3"/>
	<path class="st5" d="M93.1,65.9c0.3-1-0.7-2.1-1.5-2.4c0.1,0.8-0.1,1.8,0.7,2.3C92.4,65.8,93,66.3,93.1,65.9"/>
	<path class="st5" d="M93.6,65.2c0.3,0,0.5-0.2,0.7-0.5c0.2-0.5,0.4-1.1,0.4-1.6c-0.4,0.5-1,0.7-1.2,1.4
		C93.4,64.6,93.5,65.2,93.6,65.2"/>
	<path d="M96.8,82.2L95.6,83c0.5-0.9,1.4-1.7,2-2.5l-1.3,0.8c0.5-1.3,1.6-2.3,2.8-2.9c-0.6-0.2-1.2,0.7-1.8,0.6
		c0.4-0.6,0.9-1.1,1.4-1.6c0.4-0.3,0.8-0.6,1.1-1c-0.6,0.2-1.1,0.9-1.7,0.9c0.8-0.7,1.7-1.8,2.1-2.8c-0.5,0.2-0.8,1.1-1.4,1.1
		c-0.1,0-0.1,0-0.1,0c0.1,0,2.1-2.4,1.7-2.9c-0.4,0.4-0.9,1.2-1.7,1.4c-0.1,0-0.1,0-0.1,0l1.5-2.4l-1.7,2.1c0-0.2,0.1-0.4,0.1-0.6
		c0.8-1.2,1.2-2,1.7-2.8l-1.5,2.1c-0.3-0.5,0.2-1.2,0.4-1.9c0.2-0.2,0.5-1.2,0.6-1.4c-0.7,0.8-1.2,2.7-2,3.3c-0.1-0.7,0-2,0.3-2.7
		c-0.7,0.9-0.7,2.8-1,3.8c-0.6-0.4-0.3-1.3-0.6-1.7c-0.1,0.6-0.2,1.1-0.3,1.6c-0.3,0.7-0.3,1.4-0.4,2c-0.3-0.1-0.5-0.3-0.5-0.6
		c0.1-0.4-0.1-0.6-0.2-0.9c-0.1,0-0.1,0.1-0.1,0.1c-0.1,3.7-0.1,3.6,0.1,4.1c-0.5-0.2-0.5-0.5-0.5-1.1c0-0.3,0.2-0.8-0.1-1
		c-0.2,0.5-0.1,1.2-0.2,1.8c0.1,0.5,0,1.1-0.2,1.5c-0.4-0.1-0.1-0.8-0.4-1c0,0.8-0.1,1.6-0.4,2.3c-0.2,1.2-0.1,0-0.2-0.7
		c0,0.8-1.6,3.8-0.9,4.8c0,0-3.4,4.6-7.5,7.9c-3.6,2.9-8,4.7-8,4.7c0.1,0.1,0.3,0.2,0.4,0.3c0.1,0,4-1.8,7.6-4.6
		c4.3-3.3,8.3-7.7,8.4-7.7C94.3,85.3,96.2,83.3,96.8,82.2"/>
	<path class="st5" d="M93,84.6c0.7,0.5,2.2-0.7,2.6-1.2c-1.1,0-2,0.1-2.6,1C92.9,84.6,92.9,84.6,93,84.6"/>
	<path class="st5" d="M97.5,74.4c0.6-0.5,0.9-1.3,0.9-2.1c-0.1,0-0.1-0.1-0.1-0.1C97.6,72.7,97.4,73.6,97.5,74.4
		C97.4,74.4,97.5,74.4,97.5,74.4"/>
	<path class="st5" d="M93.3,83.3c0-0.6-0.3-1.1-0.5-1.6c-0.7,0.7-0.7,1.5-0.6,2.3C92.5,84.6,93,84.3,93.3,83.3"/>
	<path class="st5" d="M94.1,83.1c0.3,0.2,0.6,0,0.9-0.2c0.3-0.3,0.6-0.8,0.9-1.1c-0.5,0.2-1,0-1.5,0.4C94.2,82.5,94,82.8,94.1,83.1"
		/>
	<path class="st5" d="M93.6,82.6c0.4-0.2,0.5-0.8,0.7-1.2c0-0.6-0.2-1-0.6-1.5C93.5,80.8,92.8,81.6,93.6,82.6
		C93.5,82.6,93.6,82.6,93.6,82.6"/>
	<path class="st5" d="M94.5,80.6c1-0.5,0.8-1.8,0-2.3c-0.1,0.3-0.3,0.9-0.4,1.2C94.2,79.9,94.4,80.2,94.5,80.6"/>
	<path class="st5" d="M95.2,81.6c1.1,0.2,0.9-1.3,1.9-2.1c-0.6,0.2-1.8,0.7-2.1,1.4C94.9,81,94.9,81.8,95.2,81.6"/>
	<path class="st5" d="M97.7,77.7c-0.4-0.1-1,0.2-1.3,0.4C94.1,80.7,96.7,80,97.7,77.7"/>
	<path class="st5" d="M95.5,78.2c0.4-0.1,0.5-0.6,0.6-1c0.1-0.5,0-1-0.3-1.3c-0.3-0.2-0.4-0.6-0.7-0.6c-0.2,1,0,1.4,0,2.3
		C95.1,77.6,95.5,78.2,95.5,78.2"/>
	<path class="st5" d="M96.7,77.3c0.9,0.1,1.7-0.4,2.1-1.4c-0.6,0.4-1.5-0.1-1.9,0.8C96.9,76.8,96.6,77.2,96.7,77.3"/>
	<path class="st5" d="M97,75.9c0.7-0.8,0.1-2.2-0.6-2.8c-0.2,0.8-0.7,1.6-0.2,2.4C96.3,75.6,96.7,76.3,97,75.9"/>
	<path class="st5" d="M97.7,75.5c0.3,0.1,0.6,0,0.8-0.3c0.3-0.4,0.7-0.9,0.9-1.4c-0.5,0.3-1.2,0.3-1.7,0.9
		C97.7,74.8,97.6,75.5,97.7,75.5"/>
	<path d="M93.4,90.1l-1.5,0c1-0.5,2.1-0.8,3-1.1l-1.5,0c1.1-0.8,2.6-1.1,3.9-1c-0.4-0.4-1.4-0.1-1.9-0.4c0.6-0.3,1.3-0.4,2.1-0.6
		c0.5,0,1-0.1,1.5-0.2c-0.6-0.1-1.5,0.2-1.9-0.2c1-0.1,2.4-0.7,3.3-1.3c-0.5-0.1-1.3,0.5-1.8,0.2c0,0,0-0.1,0-0.1c0.1,0,3-0.9,3-1.5
		c-0.6,0.1-1.5,0.6-2.2,0.3c0,0,0-0.1,0-0.1l2.5-1.2l-2.6,0.9c0.2-0.2,0.3-0.3,0.4-0.5c1.3-0.6,2.1-1.1,2.9-1.5l-2.4,1
		c0.1-0.6,0.8-0.9,1.3-1.4c0.3-0.1,1-0.7,1.3-0.9c-1,0.3-2.4,1.7-3.4,1.7c0.2-0.6,1.1-1.6,1.7-2.2c-1.1,0.4-2.1,2-2.8,2.8
		c-0.3-0.6,0.4-1.3,0.4-1.8c-0.4,0.4-0.7,0.8-1.1,1.2c-0.6,0.5-0.9,1-1.4,1.4c-0.2-0.2-0.3-0.6-0.1-0.8c0.3-0.3,0.2-0.6,0.3-0.9
		c-0.1-0.1-0.2,0-0.2,0.1c-2,3-2,3.1-2.1,3.5c-0.3-0.4-0.1-0.7,0.1-1.2c0.1-0.3,0.6-0.5,0.5-0.9c-0.4,0.4-0.8,1-1.2,1.4
		c-0.2,0.5-0.6,0.9-1,1.2c-0.2-0.3,0.4-0.7,0.2-1.1c-0.4,0.6-0.9,1.3-1.6,1.8c-0.8,0.9-0.1-0.1,0.2-0.7c-0.4,0.6-3.4,2.3-3.3,3.6
		c0,0-5.3,3.1-10.6,3.7c-4.6,0.5-9.3-0.3-9.3-0.3c0,0.2,0.1,0.3,0.2,0.5c0,0.1,4.3,0.6,8.9,0.1c5.4-0.5,11.1-3.1,11.2-3.1
		C89.7,91.3,92.3,90.6,93.4,90.1"/>
	<path class="st5" d="M88.8,90.1c0.3,0.8,2.2,0.5,2.8,0.3c-0.9-0.6-1.7-1-2.7-0.5C88.8,90,88.8,90,88.8,90.1"/>
	<path class="st5" d="M98.1,83.8c0.8-0.1,1.5-0.6,1.9-1.3c0-0.1,0-0.1,0-0.1C99.1,82.4,98.5,83.1,98.1,83.8
		C98,83.8,98.1,83.8,98.1,83.8"/>
	<path class="st5" d="M89.8,89.1c0.3-0.6,0.3-1.1,0.4-1.6c-1,0.2-1.4,0.9-1.7,1.6C88.5,89.8,89.1,89.8,89.8,89.1"/>
	<path class="st5" d="M90.7,89.4c0.2,0.3,0.5,0.3,0.9,0.3c0.5-0.1,0.9-0.3,1.3-0.4c-0.5-0.1-0.9-0.6-1.5-0.4
		C91,88.9,90.7,89.1,90.7,89.4"/>
	<path class="st5" d="M90.4,88.7c0.4,0,0.8-0.4,1.2-0.7c0.4-0.5,0.4-1,0.3-1.6C91.3,87.1,90.3,87.4,90.4,88.7
		C90.4,88.7,90.4,88.7,90.4,88.7"/>
	<path class="st5" d="M92.3,87.5c1.1,0.1,1.6-1.1,1.3-2c-0.3,0.2-0.7,0.6-1,0.8C92.4,86.7,92.4,87.1,92.3,87.5"/>
	<path class="st5" d="M92.3,88.7c0.8,0.7,1.4-0.7,2.7-0.8c-0.6-0.2-1.9-0.3-2.5,0.1C92.4,88,91.9,88.7,92.3,88.7"/>
	<path class="st5" d="M96.5,86.7c-0.2-0.3-1-0.4-1.3-0.4C91.8,87.4,94.4,88.1,96.5,86.7"/>
	<path class="st5" d="M94.4,86c0.4,0.2,0.7-0.3,1-0.6c0.3-0.4,0.5-0.9,0.5-1.3c-0.1-0.3,0-0.7-0.3-0.9c-0.8,0.8-0.8,1.2-1.2,1.9
		C94.4,85.3,94.4,86,94.4,86"/>
	<path class="st5" d="M95.9,85.8c0.8,0.5,1.6,0.5,2.5-0.1c-0.7,0-1.2-0.9-2.1-0.4C96.3,85.5,95.9,85.7,95.9,85.8"/>
	<path class="st5" d="M96.9,84.8c1-0.3,1.2-1.8,1-2.6c-0.5,0.6-1.5,1-1.4,1.9C96.5,84.2,96.4,85,96.9,84.8"/>
	<path class="st5" d="M97.7,84.9c0.2,0.3,0.5,0.3,0.8,0.2c0.5-0.2,1.1-0.4,1.5-0.7c-0.6-0.1-1.2-0.4-1.9-0.2
		C98,84.3,97.6,84.8,97.7,84.9"/>
	<path class="st2" d="M38.9,28.7c0.3-0.6,0.8-1.2,1-1.8c0.4-1.2,0.1-2.6,0.6-3.8c1.7-3.9,7.5-2.7,10.8-3.7l1.4-0.4
		c-2.2,4.6-5.1,9.3-10.9,9.6L38.9,28.7z"/>
	<path class="st3" d="M40.9,27.3c4.1-4.6,4.2-2.3,8.2-6.9"/>
	<path class="st3" d="M44.7,24.1c1.1-1.2,1.5-2.1,1.9-3.7"/>
	<path class="st3" d="M45.9,25.9c-1.1-0.1-2.3-0.2-3.4-0.2"/>
	<path class="st2" d="M33.5,37.2c3.5-4.2,5.9-9.8,11.7-6.7c0.8,0.4,1.3,0.9,2,1l1.1,0.1c-1.2,1.4-2.4,3.4-3.7,4.3
		c-1.3,1-2.9,1.7-3.9,1.4c-1.8-0.5-2.6,0.3-3.5,0.4C36,37.9,34.7,37.4,33.5,37.2z"/>
	<path class="st4" d="M33.5,37.2c3.5-4.2,5.9-9.8,11.7-6.7c0.8,0.4,1.3,0.9,2,1l1.1,0.1c-1.2,1.4-2.4,3.4-3.7,4.3
		c-1.3,1-2.9,1.7-3.9,1.4c-1.8-0.5-2.6,0.3-3.5,0.4C36,37.9,34.7,37.4,33.5,37.2z"/>
	<path class="st3" d="M35.3,36.7c2.5-2.3,4.5-2.3,6.4-3.7c0.9-0.6,1.7-1.3,2.2-2.2"/>
	<path class="st3" d="M46.4,32c-0.9,0.3-2,0.8-2.6,1c-0.7,0.2-0.9,0.2-1.5,0.3c-0.5,0.1-1.2,0.3-1.8,0.4"/>
	<path class="st3" d="M38.2,34.8c1.3,0.2,2.3,0.2,3.6-0.1"/>
	<path class="st2" d="M37.6,20.6c0.1,0.8,0.2,1.6,0.6,2.9c0.4,1.3,1.5,4.3,0.1,6.2l-5.7,7.6c-0.2-1.4-0.2-3.1-0.6-4.4
		c-0.4-1.3-1.6-2.9-1.5-3.5c0.1-0.6,0.8-3.5,1.6-4.6c0.8-1.1,3.1-1.5,3.6-2.1L37.6,20.6z"/>
	<path class="st4" d="M37.6,20.6c0.1,0.8,0.2,1.6,0.6,2.9c0.4,1.3,1.5,4.3,0.1,6.2l-5.7,7.6c-0.2-1.4-0.2-3.1-0.6-4.4
		c-0.4-1.3-1.6-2.9-1.5-3.5c0.1-0.6,0.8-3.5,1.6-4.6c0.8-1.1,3.1-1.5,3.6-2.1L37.6,20.6z"/>
	<path class="st3" d="M33.3,33.9c0.8-2.5,1.5-4.7,2.6-7.1c0.6-1.4,1-2.6,1.3-4.1"/>
	<line class="st3" x1="37.1" y1="28.5" x2="34.3" y2="31"/>
	<line class="st3" x1="35" y1="23.7" x2="35.1" y2="28.5"/>
	<path class="st2" d="M28,28.7c2.1,2.1,3.6,4.6,3.6,7.6c0,2.2,0.3-0.5-4.2,4.3c0-1.3-4.5-3.9-2.6-6.7l2.5-3.5L28,28.7z"/>
	<path class="st4" d="M28,28.7c2.1,2.1,3.6,4.6,3.6,7.6c0,2.2,0.3-0.5-4.2,4.3c0-1.3-4.5-3.9-2.6-6.7l2.5-3.5L28,28.7z"/>
	<path class="st3" d="M27.8,38.9c0.4-2.3,1.1-4.7,1.1-7.1c0-0.6-0.2-0.9-0.3-1.3"/>
	<path class="st3" d="M28.5,35.6c-0.2-1.7-0.3-2.6-1.3-3.9"/>
	<path class="st3" d="M28.1,37.8c0.9-0.9,1.7-2.1,3-2.5"/>
	<path class="st2" d="M27.5,47.9c0.3-3.5-0.1-7.6,3.6-9.4c1.5-0.8,2.7,0.2,4.2,0.3l2,0c-0.7,2.2-1.1,4.7-2.9,6.4L32.2,47l0-2
		C30.9,46.8,29.5,47.2,27.5,47.9z"/>
	<path class="st4" d="M27.5,47.9c0.3-3.5-0.1-7.6,3.6-9.4c1.5-0.8,2.7,0.2,4.2,0.3l2,0c-0.7,2.2-1.1,4.7-2.9,6.4L32.2,47l0-2
		C30.9,46.8,29.5,47.2,27.5,47.9z"/>
	<path class="st3" d="M28.8,45.2c1-0.9,2-1.9,2.9-2.6c1.6-1.1,3.1-1.6,4.6-3.1"/>
	<path class="st3" d="M32.3,42.2c0.7-1.1,1.2-1.9,1.6-3.1"/>
	<path class="st3" d="M33.7,43.5c-1.4,0.1-2.5,0.2-3.8,0.7"/>
	<path class="st2" d="M23.1,53.3c1.2-1.6,2.4-3.6,3.7-4.8c0.3-1.7,0.5-4.8,0.4-5.3c-0.1-2.5-1.9-4.5-4.6-6.4c-1.5,1.3-2.5,3.8-3,5.9
		c-0.4,1.7-0.2,4.9-0.1,5.7C19.5,48.4,22.4,50.2,23.1,53.3z"/>
	<path class="st4" d="M23.1,53.3c1.2-1.6,2.4-3.6,3.7-4.8c0.3-1.7,0.5-4.8,0.4-5.3c-0.1-2.5-1.9-4.5-4.6-6.4c-1.5,1.3-2.5,3.8-3,5.9
		c-0.4,1.7-0.2,4.9-0.1,5.7C19.5,48.4,22.4,50.2,23.1,53.3z"/>
	<path class="st3" d="M23.1,51.1c0.2-2.4,0.6-5.5,0.7-7.3c0.1-2.2-0.1-3.7-0.6-5.7"/>
	<path class="st3" d="M23.4,48c0.8-1.4,1.6-2.4,2.7-3.6"/>
	<path class="st3" d="M23.7,44.6c-0.3-1.8-1.1-3.1-2-4.7"/>
	<path class="st2" d="M31.6,46.7c0.1,4.1,0.6,6.2-0.2,9.2c-0.8,2.9-5,2.5-6,4.3l-1.2,2.2c-0.4-2.4-0.8-5.2-0.3-7.4
		c0.4-2.2,1.4-4.3,3.7-5.7L31.6,46.7z"/>
	<path class="st4" d="M31.6,46.7c0.1,4.1,0.6,6.2-0.2,9.2c-0.8,2.9-5,2.5-6,4.3l-1.2,2.2c-0.4-2.4-0.8-5.2-0.3-7.4
		c0.4-2.2,1.4-4.3,3.7-5.7L31.6,46.7z"/>
	<path class="st3" d="M25.3,59.2c1.5-4.1,3.8-6,5.2-9.5"/>
	<path class="st3" d="M27,55.8c0.4-0.1,0.8-0.3,1.3-0.3c0.5-0.1,1.2,0,1.8,0"/>
	<path class="st3" d="M27.9,54.4c0.3-1.4,0.5-2.7,0.3-4.2"/>
	<path class="st2" d="M17.1,47.9c3.1,2.4,5.5,3.3,5.7,7.6l0.3,6.1c-0.6-0.5-0.9-1-1.7-1.4c-0.8-0.4-2.1-0.3-3-0.9
		c-2.9-2.1-2.7-7.1-1.7-10.1L17.1,47.9z"/>
	<path class="st4" d="M17.1,47.9c3.1,2.4,5.5,3.3,5.7,7.6l0.3,6.1c-0.6-0.5-0.9-1-1.7-1.4c-0.8-0.4-2.1-0.3-3-0.9
		c-2.9-2.1-2.7-7.1-1.7-10.1L17.1,47.9z"/>
	<path class="st3" d="M22.1,60.5c-0.5-1.2-1.1-2.4-1.6-3.5c-1.1-2.2-2-3.4-3.6-5.2"/>
	<path class="st3" d="M18.9,54.3c-0.1-0.6-0.1-1.1-0.2-1.7c-0.1-0.6-0.4-1.4-0.5-2"/>
	<path class="st2" d="M23.4,70c-0.3-1.2-0.4-2.3-0.5-3.5c0-1.1,0.5-2.4,0.3-3.3c-0.5-2.1-2.7-2.2-4.3-2.9l-2.7-1.1
		c-0.4,2.4-1,4.3-0.7,6.2c0.2,1.3,1,2.6,2.1,4.1L23.4,70z"/>
	<path class="st4" d="M23.4,70c-0.3-1.2-0.4-2.3-0.5-3.5c0-1.1,0.5-2.4,0.3-3.3c-0.5-2.1-2.7-2.2-4.3-2.9l-2.7-1.1
		c-0.4,2.4-1,4.3-0.7,6.2c0.2,1.3,1,2.6,2.1,4.1L23.4,70z"/>
	<path class="st3" d="M21.8,68.6c-1-1.6-2.3-3.4-3-4.7c-0.7-1.3-0.9-2-1.4-3"/>
	<path class="st3" d="M20.2,66.1c0.1-0.3,0.3-0.7,0.4-1c0.2-0.4,0.5-0.7,0.7-1.1"/>
	<path class="st3" d="M18.9,64.1c-0.3-0.1-0.8,0-1.2-0.3c-0.4-0.2-0.9-0.7-1.4-1"/>
	<path class="st2" d="M15.9,70.5c2.8-0.1,5.6-0.7,8,1.1c2.6,2,3.5,5.3,3.9,8.4l0.4,2.6c-3.2-0.8-6.3-1.4-8.5-4
		c-1.3-1.6-1.8-3-2.5-4.9C17,73.2,15.6,70.5,15.9,70.5z"/>
	<path class="st4" d="M15.9,70.5c2.8-0.1,5.6-0.7,8,1.1c2.6,2,3.5,5.3,3.9,8.4l0.4,2.6c-3.2-0.8-6.3-1.4-8.5-4
		c-1.3-1.6-1.8-3-2.5-4.9C17,73.2,15.6,70.5,15.9,70.5z"/>
	<path class="st3" d="M27.1,80.6c-0.9-1.1-1.6-2.3-2.6-3.4c-0.9-1.1-2-2.3-3-3.2c-1-1-2-1.7-3-2.5"/>
	<line class="st3" x1="23.9" y1="76.4" x2="22.6" y2="71.8"/>
	<line class="st3" x1="24.5" y1="77.3" x2="22.2" y2="77.4"/>
	<line class="st3" x1="26.9" y1="80.5" x2="25.1" y2="79.4"/>
	<line class="st3" x1="22.4" y1="74.8" x2="18.7" y2="74"/>
	<path class="st4" d="M33.3,75.2l0.9-0.9l0.3-1.2l0-1.2l0.1-1l0.6-2.6l-1,2.7L34,70l0-1l0.5-1.4l0.2-0.9l-0.9,2c0,0-0.1-0.5-0.1-0.7
		s0.3-0.9,0.3-0.9l0.6-1.8l0-0.2l-1.2,2.3l0.2-0.7l0.3-1.2l0.4-1.2l0.4-1.3L33.9,65l0-0.6l0.4-1.1l0.4-1.4l0.1-0.8L34,63.2L34,62.4
		v-1l0.3-0.8l0.2-1.1L33.9,61l-0.3,0.7l-0.1-0.5l0-0.7l0.4-1l0.1-0.9l-0.4,1.1l-0.4,1l-0.1-0.8l0-1.1l0.2-1.3L32.8,60l-0.5,0.7
		l0.2-2.7l-0.7,3.6l-0.2,0.2l0.1-2.3l-0.4,2.4L31.2,63l-0.1,0.7l-0.5-3.4l-0.1,1.3l0.1,1.6l0.1,1.6l-0.3-0.4l-0.3-0.7l-0.3-1.7v0.7
		v1.3l0.4,1.3l0.3,0.9l-0.1,0.6l-0.5-1l-0.3-1.1l0.2,1.4l0.6,1.1l0.1,0.9l0,0.5c0,0-0.5-0.8-0.6-1c-0.1-0.1-0.4-1.1-0.4-1.1l0.1,1.1
		l0.5,1l0.3,1.2l-0.3-0.2l-0.5-1.1l0.1,1l0.4,0.9l0.7,1.7l0.5,1.9l0.9,1L33.3,75.2z"/>
	<path class="st2" d="M35,86.8c0.7-3.5,1.7-7.4-0.4-10.7c-1.4-2.1-3.7-3.5-5.6-5c-0.4,2.4-1.1,5.1-0.7,7.5c0.3,2.2,1.8,4.1,2.8,5.3
		C32.2,85.3,33,85.8,35,86.8z"/>
	<path class="st4" d="M35,86.8c0.7-3.5,1.7-7.4-0.4-10.7c-1.4-2.1-3.7-3.5-5.6-5c-0.4,2.4-1.1,5.1-0.7,7.5c0.3,2.2,1.8,4.1,2.8,5.3
		C32.2,85.3,33,85.8,35,86.8z"/>
	<path class="st2" d="M28.5,60.5c-0.6,0.4-1.1,0.8-1.7,1.2c-1.8,1.1-2.3,1.1-2.8,3.5c-0.8,4,1.5,5.9,3.2,9.1l0.3,0.5
		c0.4-1.8,0.7-3.5,0.9-5.3c1.1,0.9,2.3,2.4,3.7,2.9c-0.1-1.3-0.1-2.2-0.4-3.8C31,65.7,29.9,63.1,28.5,60.5z"/>
	<path class="st4" d="M28.5,60.5c-0.6,0.4-1.1,0.8-1.7,1.2c-1.8,1.1-2.3,1.1-2.8,3.5c-0.8,4,1.5,5.9,3.2,9.1l0.3,0.5
		c0.4-1.8,0.7-3.5,0.9-5.3c1.1,0.9,2.3,2.4,3.7,2.9c-0.1-1.3-0.1-2.2-0.4-3.8C31,65.7,29.9,63.1,28.5,60.5z"/>
	<path class="st3" d="M27.1,72.6c-0.1-1.2-0.2-2.3-0.2-3.5c0-1.1,0-2.2,0.2-3.4c0.2-1.1,0.6-2.2,1-3.3"/>
	<line class="st3" x1="25.8" y1="63.8" x2="27" y2="66.3"/>
	<path class="st3" d="M27,68.8c0.9-1.2,1-1.3,2.4-1.8"/>
	<path class="st2" d="M20.3,82.9c1-0.1,1.8-0.3,2.9-0.3c1.1,0,2.4,0,3.4,0.2s1.8,0.6,2.6,1c0.8,0.4,1.5,0.8,2.2,1.4
		c0.8,0.6,1.7,1.2,2.3,1.9c0.7,0.8,1.6,1.6,1.6,2.6l0.1,1c-0.7-0.3-0.9-0.8-2-0.9c-1.1-0.1-3.2,0.2-4.4,0.2
		c-1.3,0.1-2.3,0.3-3.2,0.1c-0.9-0.2-1.5-1.2-1.8-1.4c-0.3-0.2-1.7-1.9-1.8-2.2c-0.1-0.3-1.2-2.6-1.2-2.6L20.3,82.9z"/>
	<path class="st4" d="M20.3,82.9c1-0.1,1.8-0.3,2.9-0.3c1.1,0,2.4,0,3.4,0.2s1.8,0.6,2.6,1c0.8,0.4,1.5,0.8,2.2,1.4
		c0.8,0.6,1.7,1.2,2.3,1.9c0.7,0.8,1.6,1.6,1.6,2.6l0.1,1c-0.7-0.3-0.9-0.8-2-0.9c-1.1-0.1-3.2,0.2-4.4,0.2
		c-1.3,0.1-2.3,0.3-3.2,0.1c-0.9-0.2-1.5-1.2-1.8-1.4c-0.3-0.2-1.7-1.9-1.8-2.2c-0.1-0.3-1.2-2.6-1.2-2.6L20.3,82.9z"/>
	<path class="st3" d="M23.1,83.9c0.8,0.5,1.4,1.1,2.3,1.6c1,0.5,2.5,0.9,3.5,1.3c1,0.4,1.5,0.6,2.3,0.8"/>
	<path class="st3" d="M23.5,86.6c0.6-0.2,1.2-0.5,1.7-0.6c0.5-0.1,0.9,0,1.3-0.1"/>
	<path class="st3" d="M28.4,88.7c0.5-0.2,1.1-0.3,1.6-0.5s0.8-0.3,1.3-0.4"/>
	<path class="st2" d="M25.7,93.1c2.4-1.6,4.2-2.9,7.3-2.5c3.6,0.5,3.8,2.5,5.3,5.6c-2.2,1.5-2.8,2.1-5.6,1.8c-2-0.2-3.7-2.2-5.1-3.4
		L25.7,93.1z"/>
	<path class="st4" d="M25.7,93.1c2.4-1.6,4.2-2.9,7.3-2.5c3.6,0.5,3.8,2.5,5.3,5.6c-2.2,1.5-2.8,2.1-5.6,1.8c-2-0.2-3.7-2.2-5.1-3.4
		L25.7,93.1z"/>
	<path class="st3" d="M28.3,92.9c0.7,0,1.3-0.2,2-0.1c0.8,0.1,1.7,0.4,2.6,0.7"/>
	<polyline class="st3" points="28.7,94.1 30.2,93.4 31.1,93 	"/>
	<path class="st2" d="M44.3,92.3c-0.5-1.5-0.3-2.2-1.5-3.5c-1.5-1.7-2.4-1.7-4.1-2.6l-1.3-0.7c0,0.4,0,0.5-0.1,1.1
		c-0.4,1.5-0.9,2.4-0.5,4C37.7,94.9,44.9,94.1,44.3,92.3z"/>
	<path class="st4" d="M44.3,92.3c-0.5-1.5-0.3-2.2-1.5-3.5c-1.5-1.7-2.4-1.7-4.1-2.6l-1.3-0.7c0,0.4,0,0.5-0.1,1.1
		c-0.4,1.5-0.9,2.4-0.5,4C37.7,94.9,44.9,94.1,44.3,92.3z"/>
	<path d="M30.5,71.8l0.9,1.2c-0.2-1.1-0.6-2.1-1-3l0.9,1.2c0-1.4-0.7-2.8-1.5-3.7c0.6,0.1,0.9,1.1,1.5,1.2c-0.1-0.7-0.5-1.3-0.8-2.1
		c-0.3-0.4-0.5-0.9-0.7-1.3c0.4,0.4,0.7,1.3,1.3,1.4c-0.5-0.9-0.9-2.3-0.9-3.4c0.4,0.3,0.4,1.3,0.9,1.6c0.1,0,0.1,0,0.1,0
		c0-0.1-1.1-3-0.6-3.3c0.3,0.5,0.4,1.5,1.1,1.9c0.1,0,0.1,0,0.1,0l-0.5-2.8l0.9,2.6c0-0.2,0.1-0.4,0.1-0.6c-0.4-1.4-0.4-2.3-0.5-3.2
		l0.7,2.5c0.5-0.4,0.3-1.2,0.3-1.9c-0.1-0.3-0.1-1.3-0.1-1.6c0.3,1,0.1,2.9,0.7,3.8c0.4-0.6,0.7-1.8,0.7-2.6
		c0.3,1.1-0.3,2.9-0.5,3.9c0.7-0.2,0.8-1.1,1.2-1.4c-0.1,0.5-0.2,1.1-0.3,1.6c0,0.8-0.2,1.4-0.3,2c0.3,0,0.6-0.1,0.7-0.4
		c0.1-0.4,0.3-0.6,0.5-0.8c0.1,0,0.1,0.1,0.1,0.2c-1.2,3.5-1.3,3.4-1.5,3.8c0.5-0.1,0.7-0.3,0.9-0.8c0.1-0.3,0-0.8,0.4-0.9
		c0,0.6-0.3,1.2-0.4,1.8c-0.3,0.5-0.4,1-0.4,1.5c0.4,0,0.4-0.7,0.7-0.8c-0.3,0.7-0.5,1.6-0.5,2.3c-0.2,1.2,0.1,0,0.5-0.6
		c-0.3,0.7,0.2,4.1-0.9,4.8c0,0,1.6,5.5,4.2,10.1c2.3,4,5.8,7.2,5.8,7.2C44,93,43.8,93,43.7,93c-0.1,0-3.1-3.1-5.5-7
		c-2.8-4.6-5-10.2-5.1-10.2C31.7,75.5,30.7,73,30.5,71.8"/>
	<path class="st5" d="M33.2,75.4c-0.8,0.3-1.8-1.5-2-2c1,0.4,1.8,0.8,2,1.9C33.3,75.4,33.3,75.4,33.2,75.4"/>
	<path class="st5" d="M32.7,64.3c-0.4-0.7-0.4-1.6-0.1-2.3c0.1,0,0.1,0,0.1,0C33.2,62.7,33,63.5,32.7,64.3
		C32.7,64.3,32.7,64.3,32.7,64.3"/>
	<path class="st5" d="M33.4,74.1c0.3-0.6,0.7-0.9,1.1-1.3c0.4,0.9,0.1,1.7-0.3,2.3C33.7,75.6,33.3,75.1,33.4,74.1"/>
	<path class="st5" d="M32.7,73.6c-0.4,0-0.5-0.3-0.8-0.5c-0.2-0.4-0.3-0.9-0.5-1.3c0.4,0.3,1,0.4,1.3,1C32.8,73,32.9,73.4,32.7,73.6
		"/>
	<path class="st5" d="M33.4,73.4c-0.3-0.3-0.2-0.9-0.2-1.4c0.2-0.6,0.6-0.9,1.1-1.2C34.1,71.6,34.5,72.6,33.4,73.4
		C33.4,73.4,33.4,73.4,33.4,73.4"/>
	<path class="st5" d="M33.2,71.1c-0.8-0.8-0.1-2,0.8-2.2c0,0.3-0.1,0.9-0.1,1.3C33.8,70.6,33.5,70.8,33.2,71.1"/>
	<path class="st5" d="M32.3,71.8c-1-0.2-0.3-1.6-1-2.6c0.5,0.4,1.4,1.3,1.5,2.1C32.8,71.4,32.5,72.1,32.3,71.8"/>
	<path class="st5" d="M31.3,67.3c0.4,0,0.9,0.5,1.1,0.9C33.6,71.4,31.4,69.8,31.3,67.3"/>
	<path class="st5" d="M33.1,68.6c-0.4-0.2-0.2-0.8-0.2-1.2c0.1-0.5,0.4-0.9,0.7-1.1c0.3-0.1,0.6-0.4,0.9-0.3
		c-0.1,1.1-0.5,1.4-0.8,2.2C33.7,68.1,33.1,68.6,33.1,68.6"/>
	<path class="st5" d="M32.4,67.3c-0.9-0.3-1.4-1-1.5-2.1c0.4,0.6,1.5,0.4,1.5,1.4C32.4,66.7,32.5,67.2,32.4,67.3"/>
	<path class="st5" d="M32.6,65.9c-0.3-1,0.7-2.1,1.5-2.4c-0.1,0.8,0.1,1.8-0.7,2.3C33.3,65.8,32.7,66.3,32.6,65.9"/>
	<path class="st5" d="M32.1,65.2c-0.3,0-0.5-0.2-0.7-0.5c-0.2-0.5-0.4-1.1-0.4-1.6c0.4,0.5,1,0.7,1.2,1.4
		C32.3,64.6,32.2,65.2,32.1,65.2"/>
	<path d="M28.9,82.2l1.2,0.8c-0.5-0.9-1.4-1.7-2-2.5l1.3,0.8c-0.5-1.3-1.6-2.3-2.8-2.9c0.6-0.2,1.2,0.7,1.8,0.6
		c-0.4-0.6-0.9-1.1-1.4-1.6c-0.4-0.3-0.8-0.6-1.1-1c0.6,0.2,1.1,0.9,1.7,0.9c-0.8-0.7-1.7-1.8-2.1-2.8c0.5,0.2,0.8,1.1,1.4,1.1
		c0.1,0,0.1,0,0.1,0c-0.1,0-2.1-2.4-1.7-2.9c0.4,0.4,0.9,1.2,1.7,1.4c0.1,0,0.1,0,0.1,0l-1.5-2.4l1.7,2.1c0-0.2-0.1-0.4-0.1-0.6
		c-0.8-1.2-1.2-2-1.7-2.8l1.5,2.1c0.3-0.5-0.2-1.2-0.4-1.9c-0.2-0.2-0.5-1.2-0.6-1.4c0.7,0.8,1.2,2.7,2,3.3c0.1-0.7,0-2-0.3-2.7
		c0.7,0.9,0.7,2.8,1,3.8c0.6-0.4,0.3-1.3,0.6-1.7c0.1,0.6,0.2,1.1,0.3,1.6c0.3,0.7,0.3,1.4,0.4,2c0.3-0.1,0.5-0.3,0.5-0.6
		c-0.1-0.4,0.1-0.6,0.2-0.9c0.1,0,0.1,0.1,0.1,0.1c0.1,3.7,0.1,3.6-0.1,4.1c0.5-0.2,0.5-0.5,0.5-1.1c0-0.3-0.2-0.8,0.1-1
		c0.2,0.5,0.1,1.2,0.2,1.8c-0.1,0.5,0,1.1,0.2,1.5c0.4-0.1,0.1-0.8,0.4-1c0,0.8,0.1,1.6,0.4,2.3c0.2,1.2,0.1,0,0.2-0.7
		c0,0.8,1.6,3.8,0.9,4.8c0,0,3.4,4.6,7.5,7.9c3.6,2.9,8,4.7,8,4.7c-0.1,0.1-0.3,0.2-0.4,0.3c-0.1,0-4-1.8-7.6-4.6
		c-4.3-3.3-8.3-7.7-8.4-7.7C31.4,85.3,29.5,83.3,28.9,82.2"/>
	<path class="st5" d="M32.8,84.6c-0.7,0.5-2.2-0.7-2.6-1.2c1.1,0,2,0.1,2.6,1C32.8,84.6,32.8,84.6,32.8,84.6"/>
	<path class="st5" d="M28.2,74.4c-0.6-0.5-0.9-1.3-0.9-2.1c0.1,0,0.1-0.1,0.1-0.1C28.1,72.7,28.3,73.6,28.2,74.4
		C28.3,74.4,28.2,74.4,28.2,74.4"/>
	<path class="st5" d="M32.4,83.3c0-0.6,0.3-1.1,0.5-1.6c0.7,0.7,0.7,1.5,0.6,2.3C33.2,84.6,32.7,84.3,32.4,83.3"/>
	<path class="st5" d="M31.6,83.1c-0.3,0.2-0.6,0-0.9-0.2c-0.3-0.3-0.6-0.8-0.9-1.1c0.5,0.2,1,0,1.5,0.4
		C31.5,82.5,31.7,82.8,31.6,83.1"/>
	<path class="st5" d="M32.1,82.6c-0.4-0.2-0.5-0.8-0.7-1.2c0-0.6,0.2-1,0.6-1.5C32.2,80.8,32.9,81.6,32.1,82.6
		C32.2,82.6,32.1,82.6,32.1,82.6"/>
	<path class="st5" d="M31.2,80.6c-1-0.5-0.8-1.8,0-2.3c0.1,0.3,0.3,0.9,0.4,1.2C31.5,79.9,31.3,80.2,31.2,80.6"/>
	<path class="st5" d="M30.6,81.6c-1.1,0.2-0.9-1.3-1.9-2.1c0.6,0.2,1.8,0.7,2.1,1.4C30.8,81,30.9,81.8,30.6,81.6"/>
	<path class="st5" d="M28.1,77.7c0.4-0.1,1,0.2,1.3,0.4C31.7,80.7,29.1,80,28.1,77.7"/>
	<path class="st5" d="M30.2,78.2c-0.4-0.1-0.5-0.6-0.6-1c-0.1-0.5,0-1,0.3-1.3c0.3-0.2,0.4-0.6,0.7-0.6c0.2,1,0,1.4,0,2.3
		C30.6,77.6,30.2,78.2,30.2,78.2"/>
	<path class="st5" d="M29,77.3c-0.9,0.1-1.7-0.4-2.1-1.4c0.6,0.4,1.5-0.1,1.9,0.8C28.9,76.8,29.1,77.2,29,77.3"/>
	<path class="st5" d="M28.7,75.9c-0.7-0.8-0.1-2.2,0.6-2.8c0.2,0.8,0.7,1.6,0.2,2.4C29.4,75.6,29,76.3,28.7,75.9"/>
	<path class="st5" d="M28,75.5c-0.3,0.1-0.6,0-0.8-0.3c-0.3-0.4-0.7-0.9-0.9-1.4c0.5,0.3,1.2,0.3,1.7,0.9C28,74.8,28.1,75.5,28,75.5
		"/>
	<path d="M32.3,90.1l1.5,0c-1-0.5-2.1-0.8-3-1.1l1.5,0c-1.1-0.8-2.6-1.1-3.9-1c0.4-0.4,1.4-0.1,1.9-0.4c-0.6-0.3-1.3-0.4-2.1-0.6
		c-0.5,0-1-0.1-1.5-0.2c0.6-0.1,1.5,0.2,1.9-0.2c-1-0.1-2.4-0.7-3.3-1.3c0.5-0.1,1.3,0.5,1.8,0.2c0,0,0-0.1,0-0.1
		c-0.1,0-3-0.9-3-1.5c0.6,0.1,1.5,0.6,2.2,0.3c0,0,0-0.1,0-0.1l-2.5-1.2l2.6,0.9c-0.2-0.2-0.3-0.3-0.4-0.5c-1.3-0.6-2.1-1.1-2.9-1.5
		l2.4,1c-0.1-0.6-0.8-0.9-1.3-1.4c-0.3-0.1-1-0.7-1.3-0.9c1,0.3,2.4,1.7,3.4,1.7c-0.2-0.6-1.1-1.6-1.7-2.2c1.1,0.4,2.1,2,2.8,2.8
		c0.3-0.6-0.4-1.3-0.4-1.8c0.4,0.4,0.7,0.8,1.1,1.2c0.6,0.5,0.9,1,1.4,1.4c0.2-0.2,0.3-0.6,0.1-0.8c-0.3-0.3-0.2-0.6-0.3-0.9
		c0.1-0.1,0.2,0,0.2,0.1c2,3,2,3.1,2.1,3.5c0.3-0.4,0.1-0.7-0.1-1.2c-0.1-0.3-0.6-0.5-0.5-0.9c0.4,0.4,0.8,1,1.2,1.4
		c0.2,0.5,0.6,0.9,1,1.2c0.2-0.3-0.4-0.7-0.2-1.1c0.4,0.6,0.9,1.3,1.6,1.8c0.8,0.9,0.1-0.1-0.2-0.7c0.4,0.6,3.4,2.3,3.3,3.6
		c0,0,5.3,3.1,10.6,3.7c4.6,0.5,9.3-0.3,9.3-0.3c0,0.2-0.1,0.3-0.2,0.5c0,0.1-4.3,0.6-8.9,0.1c-5.4-0.5-11.1-3.1-11.2-3.1
		C36.1,91.3,33.4,90.6,32.3,90.1"/>
	<path class="st5" d="M36.9,90.1c-0.3,0.8-2.2,0.5-2.8,0.3c0.9-0.6,1.7-1,2.7-0.5C36.9,90,36.9,90,36.9,90.1"/>
	<path class="st5" d="M27.6,83.8c-0.8-0.1-1.5-0.6-1.9-1.3c0-0.1,0-0.1,0-0.1C26.6,82.4,27.2,83.1,27.6,83.8
		C27.7,83.8,27.6,83.8,27.6,83.8"/>
	<path class="st5" d="M35.9,89.1c-0.3-0.6-0.3-1.1-0.4-1.6c1,0.2,1.4,0.9,1.7,1.6C37.3,89.8,36.6,89.8,35.9,89.1"/>
	<path class="st5" d="M35.1,89.4c-0.2,0.3-0.5,0.3-0.9,0.3c-0.5-0.1-0.9-0.3-1.3-0.4c0.5-0.1,0.9-0.6,1.5-0.4
		C34.7,88.9,35.1,89.1,35.1,89.4"/>
	<path class="st5" d="M35.3,88.7c-0.4,0-0.8-0.4-1.2-0.7c-0.4-0.5-0.4-1-0.3-1.6C34.4,87.1,35.4,87.4,35.3,88.7
		C35.4,88.7,35.3,88.7,35.3,88.7"/>
	<path class="st5" d="M33.4,87.5c-1.1,0.1-1.6-1.1-1.3-2c0.3,0.2,0.7,0.6,1,0.8C33.3,86.7,33.3,87.1,33.4,87.5"/>
	<path class="st5" d="M33.4,88.7c-0.8,0.7-1.4-0.7-2.7-0.8c0.6-0.2,1.9-0.3,2.5,0.1C33.3,88,33.8,88.7,33.4,88.7"/>
	<path class="st5" d="M29.2,86.7c0.2-0.3,1-0.4,1.3-0.4C33.9,87.4,31.3,88.1,29.2,86.7"/>
	<path class="st5" d="M31.3,86c-0.4,0.2-0.7-0.3-1-0.6c-0.3-0.4-0.5-0.9-0.5-1.3c0.1-0.3,0-0.7,0.3-0.9c0.8,0.8,0.8,1.2,1.2,1.9
		C31.3,85.3,31.3,86,31.3,86"/>
	<path class="st5" d="M29.8,85.8c-0.8,0.5-1.6,0.5-2.5-0.1c0.7,0,1.2-0.9,2.1-0.4C29.4,85.5,29.8,85.7,29.8,85.8"/>
	<path class="st5" d="M28.8,84.8c-1-0.3-1.2-1.8-1-2.6c0.5,0.6,1.5,1,1.4,1.9C29.2,84.2,29.3,85,28.8,84.8"/>
	<path class="st5" d="M28,84.9c-0.2,0.3-0.5,0.3-0.8,0.2c-0.5-0.2-1.1-0.4-1.5-0.7c0.6-0.1,1.2-0.4,1.9-0.2
		C27.7,84.3,28.1,84.8,28,84.9"/>
	<path class="st2" d="M46,108.1c0.5,0.1,0.5,0,1.4,0.3c2.5,1,4.1,2.7,6.8,1.4c2.5-1.2,3.1-2.1,3.4-4.6c-1.6-0.2-3.1-0.7-4.7-0.5
		c-1.6,0.2-3.5,1-4.5,1.4C47.2,106.6,46.8,107.2,46,108.1z"/>
	<path class="st4" d="M46,108.1c0.5,0.1,0.5,0,1.4,0.3c2.5,1,4.1,2.7,6.8,1.4c2.5-1.2,3.1-2.1,3.4-4.6c-1.6-0.2-3.1-0.7-4.7-0.5
		c-1.6,0.2-3.5,1-4.5,1.4C47.2,106.6,46.8,107.2,46,108.1z"/>
	<line class="st3" x1="49.5" y1="107.5" x2="54.3" y2="105.6"/>
	<line class="st3" x1="55" y1="107.9" x2="55.8" y2="106.1"/>
	<path class="st2" d="M82.3,108.1c-0.5,0.1-0.5,0-1.4,0.3c-2.5,1-4.1,2.7-6.8,1.4c-2.5-1.2-3.1-2.1-3.4-4.6c1.6-0.2,3.1-0.7,4.7-0.5
		c1.6,0.2,3.5,1,4.5,1.4C81.1,106.6,81.5,107.2,82.3,108.1z"/>
	<path class="st4" d="M82.3,108.1c-0.5,0.1-0.5,0-1.4,0.3c-2.5,1-4.1,2.7-6.8,1.4c-2.5-1.2-3.1-2.1-3.4-4.6c1.6-0.2,3.1-0.7,4.7-0.5
		c1.6,0.2,3.5,1,4.5,1.4C81.1,106.6,81.5,107.2,82.3,108.1z"/>
	<line class="st3" x1="78.8" y1="107.5" x2="74" y2="105.6"/>
	<line class="st3" x1="73.3" y1="107.9" x2="72.5" y2="106.1"/>
	<path class="st2" d="M57.1,111.6c0.3-0.5,0.8-0.9,1-1.6s-0.2-1.4,0.1-2.1l0.9-2.6l4.5-0.1c-0.1,1-0.1,2.2-0.3,3.1
		c-0.2,0.9-0.3,1.7-0.8,2.3c-0.5,0.6-1.3,1.2-2.1,1.2L57.1,111.6z"/>
	<path class="st4" d="M57.1,111.6c0.3-0.5,0.8-0.9,1-1.6s-0.2-1.4,0.1-2.1l0.9-2.6l4.5-0.1c-0.1,1-0.1,2.2-0.3,3.1
		c-0.2,0.9-0.3,1.7-0.8,2.3c-0.5,0.6-1.3,1.2-2.1,1.2L57.1,111.6z"/>
	<path class="st3" d="M59,110.8c0.1-0.4,0.1-0.8,0.4-1.2c0.3-0.5,0.9-0.9,1.2-1.4s0.3-1.1,0.5-1.6"/>
	<path class="st3" d="M61.5,109.4c-0.2-0.4-0.4-0.7-0.5-1.1c-0.1-0.2-0.1-0.4-0.2-0.6"/>
	<path class="st3" d="M61,106.9c-0.3,0.2-0.6,0.4-0.9,0.5c-0.3,0.1-0.4,0.1-0.6,0.2"/>
	<path class="st2" d="M71.2,111.6c-0.3-0.5-0.8-0.9-1-1.6c-0.2-0.6,0.2-1.4-0.1-2.1l-0.9-2.6l-4.5-0.1c0.1,1,0.1,2.2,0.3,3.1
		c0.2,0.9,0.3,1.7,0.8,2.3c0.5,0.6,1.3,1.2,2.1,1.2L71.2,111.6z"/>
	<path class="st4" d="M71.2,111.6c-0.3-0.5-0.8-0.9-1-1.6c-0.2-0.6,0.2-1.4-0.1-2.1l-0.9-2.6l-4.5-0.1c0.1,1,0.1,2.2,0.3,3.1
		c0.2,0.9,0.3,1.7,0.8,2.3c0.5,0.6,1.3,1.2,2.1,1.2L71.2,111.6z"/>
	<path class="st3" d="M69.3,110.8c-0.1-0.4-0.1-0.8-0.4-1.2c-0.3-0.5-0.9-0.9-1.2-1.4c-0.3-0.5-0.3-1.1-0.5-1.6"/>
	<path class="st3" d="M66.8,109.4c0.2-0.4,0.4-0.7,0.5-1.1c0.1-0.2,0.1-0.4,0.2-0.6"/>
	<path class="st3" d="M67.3,106.9c0.3,0.2,0.6,0.4,0.9,0.5c0.3,0.1,0.4,0.1,0.6,0.2"/>
	<path class="st6" d="M32.8,89.3l-1.1-0.7c-1.3,2.6,0.9,4.3,1.2,6.8c0.3,2.2,0,7.4,0,9.2c-0.1,1.8,1.2,2,3.3,2.2
		c2.1,0.3,52.4-0.6,53.9-0.6c1.5,0,3.6-0.2,4.1-1.6c0.4-1.4-0.3-4.3,0-6.7c0.3-2.4,1.7-6.4,1.5-8l-0.2-2l-1.5,0.6
		c0.9,1.3,0.3,3.1-2.1,3.4c-2.1,0.3-43.5,0.9-51,0.8C37.3,92.6,32.3,93.4,32.8,89.3z"/>
	<path class="st7" d="M32.8,89.3l-1.1-0.7c-1.3,2.6,0.9,4.3,1.2,6.8c0.3,2.2,0,7.4,0,9.2c-0.1,1.8,1.2,2,3.3,2.2
		c2.1,0.3,52.4-0.6,53.9-0.6c1.5,0,3.6-0.2,4.1-1.6c0.4-1.4-0.3-4.3,0-6.7c0.3-2.4,1.7-6.4,1.5-8l-0.2-2l-1.5,0.6
		c0.9,1.3,0.3,3.1-2.1,3.4c-2.1,0.3-43.5,0.9-51,0.8C37.3,92.6,32.3,93.4,32.8,89.3z"/>
	<path class="st5" d="M71,101.9h-0.4v1h0.3c0,0,0.1,0,0.1,0s0.1,0,0.1,0c0.1,0,0.1,0,0.2,0c0.1,0,0.1,0,0.2,0
		c0.2-0.1,0.3-0.2,0.3-0.5c0-0.1,0-0.2-0.1-0.2c0-0.1-0.1-0.1-0.2-0.2c-0.1,0-0.1-0.1-0.2-0.1C71.1,101.9,71.1,101.9,71,101.9z
		 M70.3,103.1v-2.5h0.2v1H71c0.1,0,0.3,0,0.4,0c0.1,0,0.2,0.1,0.3,0.1c0.2,0.1,0.3,0.3,0.3,0.6c0,0.1,0,0.2-0.1,0.3
		c-0.1,0.1-0.1,0.2-0.2,0.3c-0.1,0.1-0.2,0.1-0.3,0.1c-0.1,0-0.2,0-0.3,0H70.3z M69,100.9h-0.6v-0.2h1.4v0.2h-0.6v2.2H69L69,100.9
		L69,100.9z M68,101.3c-0.1-0.1-0.2-0.2-0.4-0.3c-0.2-0.1-0.3-0.1-0.5-0.1c-0.3,0-0.5,0.1-0.7,0.3c-0.2,0.2-0.3,0.4-0.3,0.7
		c0,0.3,0.1,0.5,0.3,0.7c0.2,0.2,0.5,0.3,0.7,0.3c0.2,0,0.3,0,0.5-0.1c0.2-0.1,0.3-0.2,0.4-0.3h0.3c-0.1,0.2-0.3,0.4-0.5,0.5
		c-0.2,0.1-0.4,0.2-0.7,0.2c-0.4,0-0.7-0.1-0.9-0.4c-0.2-0.2-0.4-0.6-0.4-0.9c0-0.3,0.1-0.6,0.4-0.9c0.2-0.2,0.5-0.4,0.9-0.4
		c0.3,0,0.5,0.1,0.7,0.2c0.1,0.1,0.2,0.1,0.2,0.2c0.1,0.1,0.1,0.2,0.2,0.3L68,101.3L68,101.3z M64.8,102.1l-0.5-1.1l-0.5,1.1H64.8z
		 M64.2,100.7h0.3l1.1,2.5l-0.3,0l-0.4-0.8h-1.1l-0.4,0.8h-0.3L64.2,100.7z M62.7,100.7v2.5h-0.2v-2.2h-0.8l-0.6,2.2h-0.3l0.7-2.5
		H62.7z M59.6,101.9h-0.4v1h0.3c0,0,0.1,0,0.1,0s0.1,0,0.1,0c0.1,0,0.1,0,0.2,0c0.1,0,0.1,0,0.2,0c0.2-0.1,0.3-0.2,0.3-0.5
		c0-0.1,0-0.2-0.1-0.2c0-0.1-0.1-0.1-0.2-0.2c-0.1,0-0.1-0.1-0.2-0.1C59.8,101.9,59.7,101.9,59.6,101.9z M60.3,100.7v0.2h-1.1v0.8
		h0.5c0.1,0,0.3,0,0.4,0c0.1,0,0.2,0.1,0.3,0.1c0.2,0.1,0.3,0.3,0.3,0.6c0,0.1,0,0.2-0.1,0.3c-0.1,0.1-0.1,0.2-0.2,0.3
		c-0.1,0.1-0.2,0.1-0.3,0.1c-0.1,0-0.2,0-0.3,0h-0.6v-2.5L60.3,100.7L60.3,100.7z M55.9,101.9c0,0.3,0.1,0.5,0.3,0.7
		c0.2,0.2,0.5,0.3,0.7,0.3c0.3,0,0.5-0.1,0.7-0.3c0.2-0.2,0.3-0.4,0.3-0.7c0-0.3-0.1-0.5-0.3-0.7c-0.2-0.2-0.5-0.3-0.7-0.3
		c-0.3,0-0.5,0.1-0.7,0.3C56,101.4,55.9,101.6,55.9,101.9z M58.3,101.9c0,0.4-0.1,0.7-0.4,0.9c-0.3,0.2-0.6,0.4-0.9,0.4
		c-0.3,0-0.7-0.1-0.9-0.4c-0.3-0.2-0.4-0.5-0.4-0.9c0-0.4,0.1-0.7,0.4-0.9c0.3-0.2,0.6-0.4,0.9-0.4c0.4,0,0.7,0.1,0.9,0.4
		C58.2,101.2,58.3,101.5,58.3,101.9z M84.2,95.6V99h-0.3V96h-0.5c-0.2,0-0.3,0-0.4,0c-0.1,0-0.2,0.1-0.3,0.1
		c-0.1,0.1-0.2,0.2-0.2,0.3c-0.1,0.1-0.1,0.2-0.1,0.3c0,0.3,0.1,0.6,0.4,0.7c0.1,0,0.2,0.1,0.3,0.1c0.1,0,0.3,0,0.4,0h0.1L82.3,99
		h-0.4l1-1.3c-0.3,0-0.5-0.1-0.7-0.3c-0.2-0.2-0.3-0.4-0.3-0.7c0-0.2,0-0.4,0.1-0.5c0.1-0.2,0.2-0.3,0.4-0.4
		c0.1-0.1,0.3-0.1,0.4-0.1c0.2,0,0.3,0,0.5,0H84.2z M80.6,97.6L79.9,96l-0.7,1.6H80.6z M79.7,95.6h0.4l1.5,3.4l-0.4,0l-0.5-1.1h-1.6
		L78.6,99h-0.4L79.7,95.6z M75.8,95.6h0.3v2l1.6-2h0.4l-1.3,1.7l1.3,1.7l-0.4,0l-1.1-1.5l-0.4,0.5V99h-0.3L75.8,95.6L75.8,95.6z
		 M74.6,96.5c-0.1-0.2-0.3-0.3-0.5-0.4c-0.2-0.1-0.4-0.2-0.7-0.2c-0.4,0-0.7,0.1-1,0.4c-0.3,0.3-0.4,0.6-0.4,1c0,0.4,0.1,0.7,0.4,1
		s0.6,0.4,1,0.4c0.2,0,0.4-0.1,0.7-0.2c0.2-0.1,0.4-0.3,0.5-0.5H75c-0.1,0.3-0.4,0.5-0.6,0.7c-0.3,0.2-0.6,0.3-0.9,0.3
		c-0.5,0-0.9-0.2-1.3-0.5c-0.3-0.3-0.5-0.8-0.5-1.3c0-0.5,0.2-0.9,0.5-1.2c0.3-0.3,0.8-0.5,1.2-0.5c0.4,0,0.7,0.1,1,0.3
		c0.1,0.1,0.2,0.2,0.3,0.3c0.1,0.1,0.2,0.2,0.2,0.4L74.6,96.5L74.6,96.5z M70.5,98.7V96h-1l-0.8,2.8H70.5z M68.4,98.7l0.9-3.1h1.6
		v3.1h0.2V99h-2.9v-0.3H68.4z M66.9,97.6L66.2,96l-0.7,1.6H66.9z M66.1,95.6h0.4l1.5,3.4l-0.4,0L67,97.9h-1.6L65,99h-0.4L66.1,95.6z
		 M63.2,97.4c0.2,0,0.3,0,0.4,0c0.1,0,0.2-0.1,0.3-0.1c0.1-0.1,0.2-0.1,0.2-0.2c0.1-0.1,0.1-0.2,0.1-0.3c0-0.3-0.1-0.5-0.4-0.6
		c-0.1,0-0.2-0.1-0.2-0.1c-0.1,0-0.2,0-0.3,0c0,0-0.1,0-0.1,0c0,0-0.1,0-0.1,0h-0.4v1.4L63.2,97.4L63.2,97.4z M62.3,95.6h0.9
		c0.2,0,0.4,0,0.5,0c0.1,0,0.3,0.1,0.4,0.2c0.3,0.2,0.4,0.5,0.4,0.8c0,0.3-0.1,0.6-0.4,0.8c-0.1,0.1-0.3,0.1-0.4,0.2
		c-0.1,0-0.3,0-0.5,0h-0.6V99h-0.3L62.3,95.6L62.3,95.6z M60,95.6h1.7V96h-1.4V99H60L60,95.6L60,95.6z M55.9,97.4
		c0,0.4,0.1,0.7,0.4,1c0.3,0.3,0.6,0.4,1,0.4c0.4,0,0.7-0.1,1-0.4s0.4-0.6,0.4-1c0-0.4-0.1-0.7-0.4-1c-0.3-0.3-0.6-0.4-1-0.4
		c-0.4,0-0.7,0.1-1,0.4C56,96.6,55.9,97,55.9,97.4z M59.1,97.3c0,0.5-0.2,0.9-0.5,1.2c-0.4,0.3-0.8,0.5-1.3,0.5
		c-0.5,0-0.9-0.2-1.3-0.5c-0.4-0.3-0.5-0.7-0.5-1.2c0-0.5,0.2-0.9,0.5-1.2c0.3-0.3,0.8-0.5,1.3-0.5c0.5,0,0.9,0.2,1.3,0.5
		C58.9,96.4,59.1,96.8,59.1,97.3z M53.7,95.6h1.7V96H54V99h-0.3V95.6z M52.7,95.6V99h-0.3V96h-1.1L50.4,99h-0.4l1-3.4H52.7z
		 M46.5,97.4c0,0.4,0.1,0.7,0.4,1c0.3,0.3,0.6,0.4,1,0.4c0.4,0,0.7-0.1,1-0.4s0.4-0.6,0.4-1c0-0.4-0.1-0.7-0.4-1
		c-0.3-0.3-0.6-0.4-1-0.4c-0.4,0-0.7,0.1-1,0.4C46.6,96.6,46.5,97,46.5,97.4z M49.7,97.3c0,0.5-0.2,0.9-0.5,1.2
		c-0.4,0.3-0.8,0.5-1.3,0.5c-0.5,0-0.9-0.2-1.3-0.5s-0.5-0.7-0.5-1.2c0-0.5,0.2-0.9,0.5-1.2c0.3-0.3,0.8-0.5,1.3-0.5
		c0.5,0,0.9,0.2,1.3,0.5C49.5,96.4,49.7,96.8,49.7,97.3z M44.1,97.1L44.1,97.1c0.2,0,0.4,0,0.4,0c0.1,0,0.1,0,0.2-0.1
		c0.1,0,0.1-0.1,0.2-0.2c0.1-0.1,0.1-0.2,0.1-0.3c0-0.1,0-0.2-0.1-0.3c0-0.1-0.1-0.1-0.2-0.2c-0.1,0-0.1-0.1-0.2-0.1
		c-0.1,0-0.2,0-0.3,0h-0.1h-0.4v1.1L44.1,97.1L44.1,97.1z M44.1,98.7L44.1,98.7c0.3,0,0.4,0,0.5,0c0.1,0,0.2,0,0.2-0.1
		c0.1-0.1,0.2-0.1,0.2-0.2s0.1-0.2,0.1-0.3c0-0.1,0-0.3-0.1-0.4c-0.1-0.1-0.2-0.2-0.3-0.2c-0.1,0-0.2,0-0.3-0.1s-0.2,0-0.3,0h-0.1
		h-0.4v1.3L44.1,98.7L44.1,98.7z M43.4,95.6h0.8c0.2,0,0.3,0,0.4,0c0.1,0,0.2,0.1,0.4,0.1c0.1,0.1,0.2,0.2,0.3,0.3
		c0.1,0.1,0.1,0.3,0.1,0.4c0,0.1,0,0.3-0.1,0.4c-0.1,0.1-0.2,0.2-0.3,0.3c0.2,0.1,0.3,0.2,0.4,0.3c0.1,0.1,0.1,0.3,0.1,0.5
		c0,0.2,0,0.3-0.1,0.4c-0.1,0.1-0.2,0.2-0.3,0.3C45,98.9,44.8,99,44.7,99c-0.1,0-0.3,0-0.5,0h-0.8L43.4,95.6L43.4,95.6z"/>
	<path class="st8" d="M71,101.9h-0.4v1h0.3c0,0,0.1,0,0.1,0s0.1,0,0.1,0c0.1,0,0.1,0,0.2,0c0.1,0,0.1,0,0.2,0
		c0.2-0.1,0.3-0.2,0.3-0.5c0-0.1,0-0.2-0.1-0.2c0-0.1-0.1-0.1-0.2-0.2c-0.1,0-0.1-0.1-0.2-0.1C71.1,101.9,71.1,101.9,71,101.9z
		 M70.3,103.1v-2.5h0.2v1H71c0.1,0,0.3,0,0.4,0c0.1,0,0.2,0.1,0.3,0.1c0.2,0.1,0.3,0.3,0.3,0.6c0,0.1,0,0.2-0.1,0.3
		c-0.1,0.1-0.1,0.2-0.2,0.3c-0.1,0.1-0.2,0.1-0.3,0.1c-0.1,0-0.2,0-0.3,0H70.3z M69,100.9h-0.6v-0.2h1.4v0.2h-0.6v2.2H69L69,100.9
		L69,100.9z M68,101.3c-0.1-0.1-0.2-0.2-0.4-0.3c-0.2-0.1-0.3-0.1-0.5-0.1c-0.3,0-0.5,0.1-0.7,0.3c-0.2,0.2-0.3,0.4-0.3,0.7
		c0,0.3,0.1,0.5,0.3,0.7c0.2,0.2,0.5,0.3,0.7,0.3c0.2,0,0.3,0,0.5-0.1c0.2-0.1,0.3-0.2,0.4-0.3h0.3c-0.1,0.2-0.3,0.4-0.5,0.5
		c-0.2,0.1-0.4,0.2-0.7,0.2c-0.4,0-0.7-0.1-0.9-0.4c-0.2-0.2-0.4-0.6-0.4-0.9c0-0.3,0.1-0.6,0.4-0.9c0.2-0.2,0.5-0.4,0.9-0.4
		c0.3,0,0.5,0.1,0.7,0.2c0.1,0.1,0.2,0.1,0.2,0.2c0.1,0.1,0.1,0.2,0.2,0.3L68,101.3L68,101.3z M64.8,102.1l-0.5-1.1l-0.5,1.1H64.8z
		 M64.2,100.7h0.3l1.1,2.5l-0.3,0l-0.4-0.8h-1.1l-0.4,0.8h-0.3L64.2,100.7z M62.7,100.7v2.5h-0.2v-2.2h-0.8l-0.6,2.2h-0.3l0.7-2.5
		H62.7z M59.6,101.9h-0.4v1h0.3c0,0,0.1,0,0.1,0s0.1,0,0.1,0c0.1,0,0.1,0,0.2,0c0.1,0,0.1,0,0.2,0c0.2-0.1,0.3-0.2,0.3-0.5
		c0-0.1,0-0.2-0.1-0.2c0-0.1-0.1-0.1-0.2-0.2c-0.1,0-0.1-0.1-0.2-0.1C59.8,101.9,59.7,101.9,59.6,101.9z M60.3,100.7v0.2h-1.1v0.8
		h0.5c0.1,0,0.3,0,0.4,0c0.1,0,0.2,0.1,0.3,0.1c0.2,0.1,0.3,0.3,0.3,0.6c0,0.1,0,0.2-0.1,0.3c-0.1,0.1-0.1,0.2-0.2,0.3
		c-0.1,0.1-0.2,0.1-0.3,0.1c-0.1,0-0.2,0-0.3,0h-0.6v-2.5L60.3,100.7L60.3,100.7z M55.9,101.9c0,0.3,0.1,0.5,0.3,0.7
		c0.2,0.2,0.5,0.3,0.7,0.3c0.3,0,0.5-0.1,0.7-0.3c0.2-0.2,0.3-0.4,0.3-0.7c0-0.3-0.1-0.5-0.3-0.7c-0.2-0.2-0.5-0.3-0.7-0.3
		c-0.3,0-0.5,0.1-0.7,0.3C56,101.4,55.9,101.6,55.9,101.9z M58.3,101.9c0,0.4-0.1,0.7-0.4,0.9c-0.3,0.2-0.6,0.4-0.9,0.4
		c-0.3,0-0.7-0.1-0.9-0.4c-0.3-0.2-0.4-0.5-0.4-0.9c0-0.4,0.1-0.7,0.4-0.9c0.3-0.2,0.6-0.4,0.9-0.4c0.4,0,0.7,0.1,0.9,0.4
		C58.2,101.2,58.3,101.5,58.3,101.9z M84.2,95.6V99h-0.3V96h-0.5c-0.2,0-0.3,0-0.4,0c-0.1,0-0.2,0.1-0.3,0.1
		c-0.1,0.1-0.2,0.2-0.2,0.3c-0.1,0.1-0.1,0.2-0.1,0.3c0,0.3,0.1,0.6,0.4,0.7c0.1,0,0.2,0.1,0.3,0.1c0.1,0,0.3,0,0.4,0h0.1L82.3,99
		h-0.4l1-1.3c-0.3,0-0.5-0.1-0.7-0.3c-0.2-0.2-0.3-0.4-0.3-0.7c0-0.2,0-0.4,0.1-0.5c0.1-0.2,0.2-0.3,0.4-0.4
		c0.1-0.1,0.3-0.1,0.4-0.1c0.2,0,0.3,0,0.5,0H84.2z M80.6,97.6L79.9,96l-0.7,1.6H80.6z M79.7,95.6h0.4l1.5,3.4l-0.4,0l-0.5-1.1h-1.6
		L78.6,99h-0.4L79.7,95.6z M75.8,95.6h0.3v2l1.6-2h0.4l-1.3,1.7l1.3,1.7l-0.4,0l-1.1-1.5l-0.4,0.5V99h-0.3L75.8,95.6L75.8,95.6z
		 M74.6,96.5c-0.1-0.2-0.3-0.3-0.5-0.4c-0.2-0.1-0.4-0.2-0.7-0.2c-0.4,0-0.7,0.1-1,0.4c-0.3,0.3-0.4,0.6-0.4,1c0,0.4,0.1,0.7,0.4,1
		s0.6,0.4,1,0.4c0.2,0,0.4-0.1,0.7-0.2c0.2-0.1,0.4-0.3,0.5-0.5H75c-0.1,0.3-0.4,0.5-0.6,0.7c-0.3,0.2-0.6,0.3-0.9,0.3
		c-0.5,0-0.9-0.2-1.3-0.5c-0.3-0.3-0.5-0.8-0.5-1.3c0-0.5,0.2-0.9,0.5-1.2c0.3-0.3,0.8-0.5,1.2-0.5c0.4,0,0.7,0.1,1,0.3
		c0.1,0.1,0.2,0.2,0.3,0.3c0.1,0.1,0.2,0.2,0.2,0.4L74.6,96.5L74.6,96.5z M70.5,98.7V96h-1l-0.8,2.8H70.5z M68.4,98.7l0.9-3.1h1.6
		v3.1h0.2V99h-2.9v-0.3H68.4z M66.9,97.6L66.2,96l-0.7,1.6H66.9z M66.1,95.6h0.4l1.5,3.4l-0.4,0L67,97.9h-1.6L65,99h-0.4L66.1,95.6z
		 M63.2,97.4c0.2,0,0.3,0,0.4,0c0.1,0,0.2-0.1,0.3-0.1c0.1-0.1,0.2-0.1,0.2-0.2c0.1-0.1,0.1-0.2,0.1-0.3c0-0.3-0.1-0.5-0.4-0.6
		c-0.1,0-0.2-0.1-0.2-0.1c-0.1,0-0.2,0-0.3,0c0,0-0.1,0-0.1,0c0,0-0.1,0-0.1,0h-0.4v1.4L63.2,97.4L63.2,97.4z M62.3,95.6h0.9
		c0.2,0,0.4,0,0.5,0c0.1,0,0.3,0.1,0.4,0.2c0.3,0.2,0.4,0.5,0.4,0.8c0,0.3-0.1,0.6-0.4,0.8c-0.1,0.1-0.3,0.1-0.4,0.2
		c-0.1,0-0.3,0-0.5,0h-0.6V99h-0.3L62.3,95.6L62.3,95.6z M60,95.6h1.7V96h-1.4V99H60L60,95.6L60,95.6z M55.9,97.4
		c0,0.4,0.1,0.7,0.4,1c0.3,0.3,0.6,0.4,1,0.4c0.4,0,0.7-0.1,1-0.4s0.4-0.6,0.4-1c0-0.4-0.1-0.7-0.4-1c-0.3-0.3-0.6-0.4-1-0.4
		c-0.4,0-0.7,0.1-1,0.4C56,96.6,55.9,97,55.9,97.4z M59.1,97.3c0,0.5-0.2,0.9-0.5,1.2c-0.4,0.3-0.8,0.5-1.3,0.5
		c-0.5,0-0.9-0.2-1.3-0.5c-0.4-0.3-0.5-0.7-0.5-1.2c0-0.5,0.2-0.9,0.5-1.2c0.3-0.3,0.8-0.5,1.3-0.5c0.5,0,0.9,0.2,1.3,0.5
		C58.9,96.4,59.1,96.8,59.1,97.3z M53.7,95.6h1.7V96H54V99h-0.3V95.6z M52.7,95.6V99h-0.3V96h-1.1L50.4,99h-0.4l1-3.4H52.7z
		 M46.5,97.4c0,0.4,0.1,0.7,0.4,1c0.3,0.3,0.6,0.4,1,0.4c0.4,0,0.7-0.1,1-0.4s0.4-0.6,0.4-1c0-0.4-0.1-0.7-0.4-1
		c-0.3-0.3-0.6-0.4-1-0.4c-0.4,0-0.7,0.1-1,0.4C46.6,96.6,46.5,97,46.5,97.4z M49.7,97.3c0,0.5-0.2,0.9-0.5,1.2
		c-0.4,0.3-0.8,0.5-1.3,0.5c-0.5,0-0.9-0.2-1.3-0.5s-0.5-0.7-0.5-1.2c0-0.5,0.2-0.9,0.5-1.2c0.3-0.3,0.8-0.5,1.3-0.5
		c0.5,0,0.9,0.2,1.3,0.5C49.5,96.4,49.7,96.8,49.7,97.3z M44.1,97.1L44.1,97.1c0.2,0,0.4,0,0.4,0c0.1,0,0.1,0,0.2-0.1
		c0.1,0,0.1-0.1,0.2-0.2c0.1-0.1,0.1-0.2,0.1-0.3c0-0.1,0-0.2-0.1-0.3c0-0.1-0.1-0.1-0.2-0.2c-0.1,0-0.1-0.1-0.2-0.1
		c-0.1,0-0.2,0-0.3,0h-0.1h-0.4v1.1L44.1,97.1L44.1,97.1z M44.1,98.7L44.1,98.7c0.3,0,0.4,0,0.5,0c0.1,0,0.2,0,0.2-0.1
		c0.1-0.1,0.2-0.1,0.2-0.2s0.1-0.2,0.1-0.3c0-0.1,0-0.3-0.1-0.4c-0.1-0.1-0.2-0.2-0.3-0.2c-0.1,0-0.2,0-0.3-0.1s-0.2,0-0.3,0h-0.1
		h-0.4v1.3L44.1,98.7L44.1,98.7z M43.4,95.6h0.8c0.2,0,0.3,0,0.4,0c0.1,0,0.2,0.1,0.4,0.1c0.1,0.1,0.2,0.2,0.3,0.3
		c0.1,0.1,0.1,0.3,0.1,0.4c0,0.1,0,0.3-0.1,0.4c-0.1,0.1-0.2,0.2-0.3,0.3c0.2,0.1,0.3,0.2,0.4,0.3c0.1,0.1,0.1,0.3,0.1,0.5
		c0,0.2,0,0.3-0.1,0.4c-0.1,0.1-0.2,0.2-0.3,0.3C45,98.9,44.8,99,44.7,99c-0.1,0-0.3,0-0.5,0h-0.8L43.4,95.6L43.4,95.6z"/>
	<path class="st6" d="M81.6,89.5l-0.4,0.1l-0.4,0H68.2c-2,0.1-3.8,1.2-4.8,3.4c-1-2.1-2.7-3.3-4.8-3.4H46c-1.5-0.1-2.6-0.7-3.5-2.2
		c-0.6-1.2-0.7-2.1-0.7-3.5h0V34.3h43.1v51C84.6,87.5,83.5,89,81.6,89.5"/>
	<path class="st9" d="M41.9,85.7c-0.1-0.5-0.1-1-0.1-1.7h0v-2h43.1v3.3c0,0.1,0,0.2-0.1,0.4L41.9,85.7L41.9,85.7z"/>
	<path class="st10" d="M41.9,85.7c-0.1-0.5-0.1-1-0.1-1.7h0v-2h43.1v3.3c0,0.1,0,0.2-0.1,0.4L41.9,85.7L41.9,85.7z"/>
	<rect x="41.8" y="78.4" class="st9" width="43.1" height="3.7"/>
	<rect x="41.8" y="78.4" class="st10" width="43.1" height="3.7"/>
	<path class="st11" d="M81.6,89.5l-0.4,0.1l-0.4,0H68.2c-2,0.1-3.8,1.2-4.8,3.4c-1-2.1-2.7-3.3-4.8-3.4H46c-1.5-0.1-2.6-0.7-3.5-2.2
		c-0.6-1.2-0.7-2.1-0.7-3.5h0V34.3h43.1v51C84.6,87.5,83.5,89,81.6,89.5z"/>
	<path class="st12" d="M55.5,46.4l0.2-0.5l1.3,0.5l6.8-10.6l0.6-0.2v0.6l-6.5,10.8l1.1,1l-0.5,0.4L57.6,48l-0.1,0.3l1.4,2.8l0.2,0.8
		l0.7,0.9l0.8,0.2L59.9,52l0.1-1l0.4-0.3L61,50l1.8,0.1l0.2,0.3l0.8,0l0.3,0.6l-0.5,0.6l-0.4,0.1l-0.6,0.7c0,0-0.7,1.1,0.2,1.3
		c0.4,0.1,1,0,1.6,0.3c0.7,0.4,2.1,0.4,2.1,0.4l2.1-0.1l2-0.3l0.8-0.7l1.2-0.2l-0.1,0.3l-0.7,0.4l1,0.3l1.1,0.4l0.2,0.3L73.5,55
		L73,55l-1.7-0.2L70,55.4l1.3,0.5l0.6,1.3l-0.5,1l0,0.5l-1,0.9l-2.1-0.9l-3.1-1.1l0.6,2l0.2,1.3l-0.3,0.8l-0.7,0l-0.5-1.2l-0.9,0.5
		l2.7,4l0.9,2.1l2.2,3.2l1,1.8l-0.6,0.5l-0.4,0.6l0.5,0.8l0.7,0.3l0.1,0.6l-1.2,0.6l0.3,1.1L60,76.5l-0.5-0.8l0.9-0.1l1.4-1.6
		l-0.1-1.7l-0.4-1.1l-0.2-1.7l-0.4-0.6l-0.1-0.8l-0.5-1l-0.8-2.5l-0.1-2.1L58.8,62l-0.1-1.9l0.2-2.6l-0.4-0.3l-0.2-0.5l0.8-0.9
		l0.4-0.9l-2.2-2.8l-0.4-1.4l-0.3-1.9l-0.2,0.2l0,0.2l-0.4,0l-0.3-0.2l-0.1-0.4l0.3-0.1l0.1-1.4l0.4-0.3L55.5,46.4z"/>
	<path class="st13" d="M61.3,52.4c-0.1,0.1-0.3,0-0.4,0c-0.1,0-0.3-0.1-0.2-0.2c0.1-0.1,0.4,0,0.5,0C61.3,52.2,61.4,52.3,61.3,52.4"
		/>
	<path class="st14" d="M63.7,51.6l-0.1,0.1l-0.4,0.1l-0.6,0.7c0,0-0.7,1.1,0.2,1.3c0.4,0.1,1,0,1.6,0.3c0.1,0,0.1,0.1,0.2,0.1
		l-0.5,0.3c0,0-0.4,0.1-0.7,0.2c-0.3,0.1-0.6,0.2-0.7,0.2c-0.1,0-0.6,0.1-0.7,0c-0.2-0.1,0-0.3-0.1-0.4c-0.1-0.1-0.5-0.2-0.6-0.4
		c-0.1-0.2,0.1-0.4,0.1-0.6c0-0.2-0.1-0.4,0-0.5c0.1-0.1,0.3,0,0.4-0.1c0.1-0.1,0-0.2,0-0.3c0-0.1-0.2-0.2-0.2-0.4
		c0-0.2,0-0.6,0.1-0.9c0.1-0.2,0.3-0.4,0.5-0.4c0.2,0,0.1,0.3,0.3,0.3s0.4-0.2,0.6-0.1l0.5,0.3C63.6,51.4,63.7,51.5,63.7,51.6"/>
	<polygon class="st15" points="60.6,55.1 60.3,56 59.7,57 59.3,57.5 60,57.1 60.3,56.4 	"/>
	<path class="st16" d="M71.1,54.8L70,55.4l1.3,0.5l0.6,1.3l-0.5,1l0,0.5l-1,0.9l-2.1-0.9l-3.1-1.1l0.6,2l0.2,1.3l-0.3,0.8l-0.7,0
		l-0.5-1.2l-0.9,0.5l2.7,4l0.9,2.1l2.2,3.2l1,1.8l-0.6,0.5l-0.4,0.6l0.5,0.8l0.7,0.3l0.1,0.5l-1-0.6l-1-0.1c0,0-1,0.1-1.3,0.1
		c-0.4,0-1,0.1-1,0.1l-0.6,0.3l0.5-0.9l0.8-0.2l0.8,0.1l-0.1-0.4l-0.1-0.5l-0.5,0.4v-2l-0.4-1.5c-0.4-0.7-0.8-1.5-1.2-2.2L65,66.3
		l-0.6-0.5l0.4-0.6L64.5,64c-0.1-0.4-0.1-0.9-0.3-1.3l-0.7-1.2c0.1,0.4,0.2,0.9,0.3,1.3c0.1,0.4,0.1,0.9,0.1,1.3
		c0.1,0.4,0.4,0.8,0.3,1.1c-0.1,0.3-0.3-0.3-0.5-0.4c-0.2-0.2-0.5-0.4-0.5-0.6c0-0.3,0.3-0.4,0.4-0.6c0-0.2,0.1-0.4-0.1-0.4
		c-0.2,0-0.6,0.6-0.6,0.3c0-0.3,0.5-0.5,0.6-0.7c0.1-0.3,0.1-0.5,0.1-0.7c-0.1-0.3-0.3-0.5-0.5-0.8c-0.2-0.3-0.5-0.7-0.8-0.9
		s-0.6-0.3-0.9-0.4c-0.3-0.1-0.6-0.2-0.9-0.1c-0.3,0.1-0.7,0.6-1,0.7c-0.2,0.1-0.2-0.2-0.1-0.4c0.1-0.2,0.6-0.4,0.9-0.7
		s0.6-0.6,0.7-0.8c0.2-0.2,0.3-0.3,0.3-0.4c0-0.2-0.2-0.2-0.4-0.2c-0.2,0-0.8,0.3-0.6,0.1l0.5-0.4c-0.2-0.1-0.5-0.2-0.5-0.4
		c0-0.2,0.4-0.3,0.5-0.4c0.1-0.1,0.2-0.1,0.3-0.1c0.1,0,0.2,0.2,0.4,0.2c0.2,0,0.5,0,0.7-0.1c0.2-0.1,0.1-0.2,0.1-0.4
		c0-0.2-0.2-0.4,0-0.5c0.2-0.2,0.5-0.1,0.7-0.2c0.2-0.1,0.4-0.3,0.5-0.3c0.2,0-0.1,0.2-0.1,0.4c0.1,0.1,0.2,0.3,0.4,0.4
		c0.2,0.1,0.4,0.2,0.5,0.1c0.1-0.1-0.2-0.2-0.2-0.4c0-0.1-0.1-0.4,0-0.5c0.1-0.1,0.2,0.2,0.3,0.3c0.1,0.1,0.1,0.3,0.2,0.4
		c0.1,0.1,0.3,0.2,0.4,0.1c0.1-0.1-0.2-0.2-0.2-0.3c0-0.1,0-0.4,0.1-0.4c0.2,0,0.1,0.3,0.2,0.4c0.1,0.1,0.2,0.4,0.4,0.4l1-0.1
		l1.9-0.9l1.3-0.4l1.2-0.4L71.1,54.8z"/>
	<defs>
		<filter id="Adobe_OpacityMaskFilter" filterUnits="userSpaceOnUse" x="63.6" y="55.1" width="7.7" height="3.5">
			<feColorMatrix  type="matrix" values="1 0 0 0 0  0 1 0 0 0  0 0 1 0 0  0 0 0 1 0"/>
		</filter>
	</defs>
	<mask maskUnits="userSpaceOnUse" x="63.6" y="55.1" width="7.7" height="3.5" id="SVGID_1_">
		<g class="st17">
			
				<linearGradient id="SVGID_3_" gradientUnits="userSpaceOnUse" x1="67.5762" y1="72.9008" x2="67.5762" y2="68.9095" gradientTransform="matrix(1 0 0 -1 0 128)">
				<stop  offset="0.35" style="stop-color:#FFFFFF"/>
				<stop  offset="0.65" style="stop-color:#000000"/>
			</linearGradient>
			<rect x="63.6" y="55.1" class="st18" width="8" height="4"/>
		</g>
	</mask>
	<path class="st19" d="M63.6,56.3L63.6,56.3l0.6,0.2L64,56.1v-0.5l0.3,0.3l0.2,0.4l0.4,0.1l-0.2-0.3l0.1-0.4l0.2,0.4l0.4,0.4l1-0.1
		l1.9-0.9l1.3-0.4v0.4l-0.8,0.4l-0.7,0.4l0.8-0.1h0.8h0.7l0.5,0.3l0.3,0.6l-0.5,0.5l-0.2,0.5l0.5,0.1c0,0-0.4,0.4-0.7,0.4L70.1,58
		c0,0-0.7-0.2-1.2-0.4c-0.4-0.1-1.1-0.7-1.1-0.7s-0.5-0.2-0.9-0.2c-0.3,0-0.7,0.1-0.7,0.1l-0.9,0.2l-0.7,0.3l-0.2-0.5
		c0,0-0.1,0.8-0.1,1.1c0,0.3,0,0.6,0,0.6l-0.5-0.2l-0.2-1l-0.1-0.8L63.6,56.3z"/>
	<path class="st20" d="M61.5,71.5l-0.1-0.2l0.6,0.9c0,0,0.5,0.4,0.9,0.4c0.4-0.1,0.2-0.5,0.2-0.9C63,71.4,62.8,70,62.8,70
		s-0.3-1-0.5-1.3c-0.2-0.4-0.4-1-0.5-1.2c-0.1-0.2-0.5-0.5-0.7-1.2s-0.2-2-0.1-2.6c0.1-0.6,0.6-0.6,0.7-0.7c0.1-0.1-0.4-0.6-0.4-1.1
		c0-0.5,0.2-0.9,0.4-0.9c0.2,0.1,0.9,0.4,1,0.5c0.2,0.1,0.1,0.8,0.1,1.1c0,0.3-0.2,0.5-0.2,0.5s0,0.7,0,1c0,0.3,2.7,4,2.7,4
		l-0.1,2.6l-0.5,2.1l-1,1.2l-0.5,0.2L61.5,71.5z"/>
	<path class="st21" d="M62.2,63.7c0.2,0.5,0.4,1,0.7,1.5c0.3,0.5,0.7,1.1,1,1.7c0.3,0.6,0.6,1.4,0.9,2.1l0.4,1.4
		c0-0.3,0.1-0.5,0.1-0.9c0-0.4,0.2-0.9,0.1-1.3c-0.1-0.4-0.2-0.3-0.5-0.7c-0.3-0.4-1.1-1.1-1.5-1.8L62.2,63.7z"/>
	<path class="st22" d="M61.4,63.6c-0.1-0.4-0.2,1.2,0,1.5c0.2,0.3,0.8,1.2,1,1.7c0.3,0.5,0.5,0.8,0.7,1.3l0.6,2.1
		c0.1-0.2,0.2-0.3,0.2-0.6c-0.1-0.4-0.3-0.9-0.5-1.5s-0.7-1.3-0.9-1.8c-0.3-0.5-0.5-0.8-0.7-1.3L61.4,63.6z"/>
	<path class="st23" d="M56.4,28c0.2,0,0.4,0.2,0.4,0.4c0,0.1,0,0.1,0,0.2c0.1,0,0.1-0.1,0.2-0.1c0.2,0,0.4,0.2,0.4,0.4
		s-0.2,0.4-0.4,0.4c0,0,0,0,0,0c0.1,0.1,0.2,0.2,0.2,0.3c0,0.2-0.2,0.4-0.4,0.4c-0.2,0-0.4-0.1-0.4-0.3c-0.1,0.1-0.2,0.3-0.4,0.3
		c-0.2,0-0.4-0.2-0.4-0.4c0-0.2,0.1-0.3,0.2-0.4c-0.2,0-0.4-0.2-0.4-0.4c0-0.2,0.2-0.4,0.4-0.4c0.1,0,0.2,0,0.3,0.1c0,0,0-0.1,0-0.1
		C56,28.2,56.2,28,56.4,28"/>
	<path class="st24" d="M56.3,28.7c0.2,0,0.4,0.2,0.4,0.4s-0.2,0.4-0.4,0.4c-0.2,0-0.4-0.2-0.4-0.4S56.1,28.7,56.3,28.7"/>
	<path class="st23" d="M70.1,28c-0.2,0-0.4,0.2-0.4,0.4c0,0.1,0,0.1,0,0.2c-0.1,0-0.1-0.1-0.2-0.1c-0.2,0-0.4,0.2-0.4,0.4
		s0.2,0.4,0.4,0.4c0,0,0,0,0,0c-0.1,0.1-0.2,0.2-0.2,0.3c0,0.2,0.2,0.4,0.4,0.4c0.2,0,0.4-0.1,0.4-0.3c0.1,0.1,0.2,0.3,0.4,0.3
		c0.2,0,0.4-0.2,0.4-0.4c0-0.2-0.1-0.3-0.2-0.4c0.2,0,0.4-0.2,0.4-0.4c0-0.2-0.2-0.4-0.4-0.4c-0.1,0-0.2,0-0.3,0.1c0,0,0-0.1,0-0.1
		C70.5,28.2,70.3,28,70.1,28"/>
	<path class="st24" d="M70.2,28.7c-0.2,0-0.4,0.2-0.4,0.4s0.2,0.4,0.4,0.4c0.2,0,0.4-0.2,0.4-0.4S70.4,28.7,70.2,28.7"/>
	<path class="st23" d="M59.9,27.5c0.2,0,0.4,0.2,0.4,0.4c0,0.1,0,0.1,0,0.2c0.1,0,0.1-0.1,0.2-0.1c0.2,0,0.4,0.2,0.4,0.4
		s-0.2,0.4-0.4,0.4c0,0,0,0,0,0c0.1,0.1,0.2,0.2,0.2,0.3c0,0.2-0.2,0.4-0.4,0.4c-0.2,0-0.4-0.1-0.4-0.3c-0.1,0.1-0.2,0.3-0.4,0.3
		c-0.2,0-0.4-0.2-0.4-0.4c0-0.2,0.1-0.3,0.2-0.4c-0.2,0-0.4-0.2-0.4-0.4c0-0.2,0.2-0.4,0.4-0.4c0.1,0,0.2,0,0.3,0.1c0,0,0-0.1,0-0.1
		C59.5,27.7,59.7,27.5,59.9,27.5"/>
	<path class="st24" d="M59.9,28.2c0.2,0,0.4,0.2,0.4,0.4c0,0.2-0.2,0.4-0.4,0.4s-0.4-0.2-0.4-0.4C59.5,28.3,59.7,28.2,59.9,28.2"/>
	<path class="st23" d="M66.6,27.5c-0.2,0-0.4,0.2-0.4,0.4c0,0.1,0,0.1,0,0.2c-0.1,0-0.1-0.1-0.2-0.1c-0.2,0-0.4,0.2-0.4,0.4
		s0.2,0.4,0.4,0.4c0,0,0,0,0,0c-0.1,0.1-0.2,0.2-0.2,0.3c0,0.2,0.2,0.4,0.4,0.4c0.2,0,0.4-0.1,0.4-0.3c0.1,0.1,0.2,0.3,0.4,0.3
		c0.2,0,0.4-0.2,0.4-0.4c0-0.2-0.1-0.3-0.2-0.4c0.2,0,0.4-0.2,0.4-0.4c0-0.2-0.2-0.4-0.4-0.4c-0.1,0-0.2,0-0.3,0.1c0,0,0-0.1,0-0.1
		C67,27.7,66.8,27.5,66.6,27.5"/>
	<path class="st24" d="M66.6,28.2c-0.2,0-0.4,0.2-0.4,0.4c0,0.2,0.2,0.4,0.4,0.4c0.2,0,0.4-0.2,0.4-0.4C67,28.3,66.8,28.2,66.6,28.2
		"/>
	<path class="st6" d="M63.3,27.6c0.2-0.3,0.5-0.3,0.7-0.6s0.2-0.7,0.4-1c0.3-0.5,0.6-0.4,1.1-0.5c0,0.4,0,0.7,0,1.1
		c0.1,0.8,0.4,1.3,0.1,2.1c-0.3,0.7-0.7,1.1-1.4,1.2C62.6,30.3,62.5,28.5,63.3,27.6z"/>
	<path class="st25" d="M63.3,27.6c0.2-0.3,0.5-0.3,0.7-0.6s0.2-0.7,0.4-1c0.3-0.5,0.6-0.4,1.1-0.5c0,0.4,0,0.7,0,1.1
		c0.1,0.8,0.4,1.3,0.1,2.1c-0.3,0.7-0.7,1.1-1.4,1.2C62.6,30.3,62.5,28.5,63.3,27.6z"/>
	<path class="st6" d="M62.4,25.8c0.2-0.2,0.4-0.3,0.5-0.5l0.4-0.8c0.1,0.1,0.3,0.2,0.4,0.3c0.4,0.3,0.5,0.4,0.8,0.9
		c0,0-0.1,0.1-0.1,0.2c-0.2,0.3-0.2,0.7-0.4,1c-0.2,0.2-0.5,0.3-0.7,0.5c0-0.5-0.1-1-0.3-1.3C62.9,26,62.6,25.9,62.4,25.8z"/>
	<path class="st25" d="M62.4,25.8c0.2-0.2,0.4-0.3,0.5-0.5l0.4-0.8c0.1,0.1,0.3,0.2,0.4,0.3c0.4,0.3,0.5,0.4,0.8,0.9
		c0,0-0.1,0.1-0.1,0.2c-0.2,0.3-0.2,0.7-0.4,1c-0.2,0.2-0.5,0.3-0.7,0.5c0-0.5-0.1-1-0.3-1.3C62.9,26,62.6,25.9,62.4,25.8z"/>
	<path class="st6" d="M63,26.2c-0.2-0.3-0.6-0.4-1-0.6l-0.6-0.4c-0.3,1-0.6,1.7-0.5,2.8c0.1,1.2,0.6,2,1.9,1.7l0.3-0.1
		c-0.5-0.5-0.4-1.5,0.1-2.2c0,0,0,0,0-0.1C63.3,27,63.2,26.5,63,26.2z"/>
	<path class="st25" d="M63,26.2c-0.2-0.3-0.6-0.4-1-0.6l-0.6-0.4c-0.3,1-0.6,1.7-0.5,2.8c0.1,1.2,0.6,2,1.9,1.7l0.3-0.1
		c-0.5-0.5-0.4-1.5,0.1-2.2c0,0,0,0,0-0.1C63.3,27,63.2,26.5,63,26.2z"/>
	<path class="st6" d="M53.1,29.4c0-0.3,0.2-0.5,0.2-0.8c0-0.3-0.2-0.6-0.2-0.9c0-0.5,0.2-0.6,0.5-1c0.2,0.3,0.4,0.5,0.6,0.8
		c0.5,0.5,1,0.8,1.2,1.5c0.2,0.6,0.1,1.1-0.3,1.6C54.1,31.8,53.1,30.5,53.1,29.4z"/>
	<path class="st25" d="M53.1,29.4c0-0.3,0.2-0.5,0.2-0.8c0-0.3-0.2-0.6-0.2-0.9c0-0.5,0.2-0.6,0.5-1c0.2,0.3,0.4,0.5,0.6,0.8
		c0.5,0.5,1,0.8,1.2,1.5c0.2,0.6,0.1,1.1-0.3,1.6C54.1,31.8,53.1,30.5,53.1,29.4z"/>
	<path class="st6" d="M51.6,28.6c0-0.2,0.2-0.4,0.1-0.6l-0.1-0.8c0.2,0,0.3,0,0.5,0c0.5,0,0.6,0,1.1,0.3c0,0.1,0,0.1,0,0.2
		c0,0.3,0.2,0.6,0.2,0.9c0,0.3-0.2,0.5-0.2,0.8c-0.3-0.4-0.6-0.7-0.9-0.8C52,28.5,51.8,28.6,51.6,28.6z"/>
	<path class="st25" d="M51.6,28.6c0-0.2,0.2-0.4,0.1-0.6l-0.1-0.8c0.2,0,0.3,0,0.5,0c0.5,0,0.6,0,1.1,0.3c0,0.1,0,0.1,0,0.2
		c0,0.3,0.2,0.6,0.2,0.9c0,0.3-0.2,0.5-0.2,0.8c-0.3-0.4-0.6-0.7-0.9-0.8C52,28.5,51.8,28.6,51.6,28.6z"/>
	<path class="st6" d="M52.2,28.6c-0.3-0.1-0.7,0.1-1,0.1l-0.7,0c0.3,0.9,0.5,1.6,1.2,2.3c0.8,0.8,1.5,1.2,2.3,0.2l0.2-0.2
		c-0.6-0.1-1.1-0.9-1.1-1.6c0,0,0,0,0-0.1C52.8,29,52.5,28.7,52.2,28.6z"/>
	<path class="st25" d="M52.2,28.6c-0.3-0.1-0.7,0.1-1,0.1l-0.7,0c0.3,0.9,0.5,1.6,1.2,2.3c0.8,0.8,1.5,1.2,2.3,0.2l0.2-0.2
		c-0.6-0.1-1.1-0.9-1.1-1.6c0,0,0,0,0-0.1C52.8,29,52.5,28.7,52.2,28.6z"/>
	<path class="st6" d="M73.3,29c0.3-0.1,0.6,0,0.8-0.1c0.3-0.1,0.5-0.4,0.8-0.5c0.5-0.2,0.6-0.1,1.1,0.1c-0.2,0.3-0.4,0.5-0.5,0.8
		c-0.3,0.6-0.4,1.2-1,1.7c-0.5,0.4-1,0.5-1.6,0.3C71.5,30.8,72.3,29.3,73.3,29z"/>
	<path class="st25" d="M73.3,29c0.3-0.1,0.6,0,0.8-0.1c0.3-0.1,0.5-0.4,0.8-0.5c0.5-0.2,0.6-0.1,1.1,0.1c-0.2,0.3-0.4,0.5-0.5,0.8
		c-0.3,0.6-0.4,1.2-1,1.7c-0.5,0.4-1,0.5-1.6,0.3C71.5,30.8,72.3,29.3,73.3,29z"/>
	<path class="st6" d="M73.4,27.2c0.2,0,0.4,0,0.6-0.1l0.7-0.4c0.1,0.1,0.1,0.3,0.2,0.4c0.2,0.5,0.2,0.6,0.1,1.1
		c-0.1,0-0.1,0-0.2,0.1c-0.3,0.1-0.5,0.4-0.8,0.5c-0.2,0.1-0.5,0-0.8,0.1c0.2-0.4,0.4-0.8,0.4-1.1C73.7,27.6,73.6,27.4,73.4,27.2z"
		/>
	<path class="st25" d="M73.4,27.2c0.2,0,0.4,0,0.6-0.1l0.7-0.4c0.1,0.1,0.1,0.3,0.2,0.4c0.2,0.5,0.2,0.6,0.1,1.1
		c-0.1,0-0.1,0-0.2,0.1c-0.3,0.1-0.5,0.4-0.8,0.5c-0.2,0.1-0.5,0-0.8,0.1c0.2-0.4,0.4-0.8,0.4-1.1C73.7,27.6,73.6,27.4,73.4,27.2z"
		/>
	<path class="st6" d="M73.7,27.9c0-0.3-0.3-0.6-0.5-0.9L73,26.3c-0.7,0.6-1.3,1.1-1.7,1.9c-0.5,1-0.5,1.8,0.7,2.3l0.2,0.1
		C72,30,72.6,29.2,73.3,29c0,0,0,0,0.1,0C73.6,28.6,73.7,28.2,73.7,27.9z"/>
	<path class="st25" d="M73.7,27.9c0-0.3-0.3-0.6-0.5-0.9L73,26.3c-0.7,0.6-1.3,1.1-1.7,1.9c-0.5,1-0.5,1.8,0.7,2.3l0.2,0.1
		C72,30,72.6,29.2,73.3,29c0,0,0,0,0.1,0C73.6,28.6,73.7,28.2,73.7,27.9z"/>
	<path class="st23" d="M58,26.6c0.2,0,0.4,0.2,0.4,0.4c0,0.1,0,0.1,0,0.2c0.1,0,0.1-0.1,0.2-0.1c0.2,0,0.4,0.2,0.4,0.4
		s-0.2,0.4-0.4,0.4c0,0,0,0,0,0c0.1,0.1,0.2,0.2,0.2,0.3c0,0.2-0.2,0.4-0.4,0.4c-0.2,0-0.4-0.1-0.4-0.3c-0.1,0.1-0.2,0.3-0.4,0.3
		c-0.2,0-0.4-0.2-0.4-0.4c0-0.2,0.1-0.3,0.2-0.4c-0.2,0-0.4-0.2-0.4-0.4c0-0.2,0.2-0.4,0.4-0.4c0.1,0,0.2,0,0.3,0.1c0,0,0-0.1,0-0.1
		C57.6,26.7,57.8,26.6,58,26.6"/>
	<path class="st24" d="M57.9,27.2c0.2,0,0.4,0.2,0.4,0.4c0,0.2-0.2,0.4-0.4,0.4c-0.2,0-0.4-0.2-0.4-0.4
		C57.5,27.4,57.7,27.2,57.9,27.2"/>
	<path class="st23" d="M68.5,26.6c-0.2,0-0.4,0.2-0.4,0.4c0,0.1,0,0.1,0,0.2c-0.1,0-0.1-0.1-0.2-0.1c-0.2,0-0.4,0.2-0.4,0.4
		s0.2,0.4,0.4,0.4c0,0,0,0,0,0c-0.1,0.1-0.2,0.2-0.2,0.3c0,0.2,0.2,0.4,0.4,0.4c0.2,0,0.4-0.1,0.4-0.3c0.1,0.1,0.2,0.3,0.4,0.3
		c0.2,0,0.4-0.2,0.4-0.4c0-0.2-0.1-0.3-0.2-0.4c0.2,0,0.4-0.2,0.4-0.4c0-0.2-0.2-0.4-0.4-0.4c-0.1,0-0.2,0-0.3,0.1c0,0,0-0.1,0-0.1
		C68.9,26.7,68.7,26.6,68.5,26.6"/>
	<path class="st24" d="M68.6,27.2c-0.2,0-0.4,0.2-0.4,0.4c0,0.2,0.2,0.4,0.4,0.4c0.2,0,0.4-0.2,0.4-0.4C69,27.4,68.8,27.2,68.6,27.2
		"/>
	<path class="st26" d="M51.2,32.4l1-0.3c0.1,0,0.3,0,0.4,0.1l2.2,1.2c0.1,0.1,0.2,0.2,0.1,0.2l-1,0.3c-0.1,0-0.3,0-0.4-0.1l-2.2-1.2
		C51.1,32.5,51,32.4,51.2,32.4z"/>
	<path class="st27" d="M51.2,32.4l1-0.3c0.1,0,0.3,0,0.4,0.1l2.2,1.2c0.1,0.1,0.2,0.2,0.1,0.2l-1,0.3c-0.1,0-0.3,0-0.4-0.1l-2.2-1.2
		C51.1,32.5,51,32.4,51.2,32.4z"/>
	<path class="st26" d="M52.5,31.9c0.3-0.1,0.7-0.2,1-0.2c0.1,0,0.3,0,0.4,0.1c0.7,0.4,1.4,0.9,2.2,1.3c0.1,0.1,0.2,0.2,0.1,0.2
		c-0.3,0.1-0.7,0.2-1,0.2c-0.1,0-0.3,0-0.4-0.1c-0.7-0.4-1.4-0.9-2.2-1.3C52.4,32,52.4,31.9,52.5,31.9z"/>
	<path class="st27" d="M52.5,31.9c0.3-0.1,0.7-0.2,1-0.2c0.1,0,0.3,0,0.4,0.1c0.7,0.4,1.4,0.9,2.2,1.3c0.1,0.1,0.2,0.2,0.1,0.2
		c-0.3,0.1-0.7,0.2-1,0.2c-0.1,0-0.3,0-0.4-0.1c-0.7-0.4-1.4-0.9-2.2-1.3C52.4,32,52.4,31.9,52.5,31.9z"/>
	<path class="st26" d="M53.8,31.4c0.3-0.1,0.7-0.1,1-0.2c0.1,0,0.3,0,0.4,0.1c0.7,0.4,1.4,0.9,2.1,1.3c0.1,0.1,0.2,0.2,0,0.2
		c-0.3,0.1-0.7,0.1-1,0.2c-0.1,0-0.3,0-0.4-0.1c-0.7-0.4-1.4-0.9-2.1-1.3C53.7,31.5,53.7,31.4,53.8,31.4z"/>
	<path class="st27" d="M53.8,31.4c0.3-0.1,0.7-0.1,1-0.2c0.1,0,0.3,0,0.4,0.1c0.7,0.4,1.4,0.9,2.1,1.3c0.1,0.1,0.2,0.2,0,0.2
		c-0.3,0.1-0.7,0.1-1,0.2c-0.1,0-0.3,0-0.4-0.1c-0.7-0.4-1.4-0.9-2.1-1.3C53.7,31.5,53.7,31.4,53.8,31.4z"/>
	<path class="st6" d="M55.1,31c0.3-0.1,0.7-0.1,1-0.2c0.1,0,0.3,0,0.4,0.1c0.7,0.5,1.4,0.9,2,1.4c0.1,0.1,0.1,0.2,0,0.2
		c-0.3,0.1-0.7,0.1-1,0.2c-0.1,0-0.3,0-0.4-0.1c-0.7-0.5-1.4-0.9-2-1.4C55,31.1,55,31,55.1,31z"/>
	<path class="st27" d="M55.1,31c0.3-0.1,0.7-0.1,1-0.2c0.1,0,0.3,0,0.4,0.1c0.7,0.5,1.4,0.9,2,1.4c0.1,0.1,0.1,0.2,0,0.2
		c-0.3,0.1-0.7,0.1-1,0.2c-0.1,0-0.3,0-0.4-0.1c-0.7-0.5-1.4-0.9-2-1.4C55,31.1,55,31,55.1,31z"/>
	<path class="st6" d="M56.5,30.7c0.3,0,0.7-0.1,1-0.1c0.1,0,0.3,0,0.4,0.1c0.7,0.5,1.3,1,2,1.5c0.1,0.1,0.1,0.2,0,0.2
		c-0.3,0-0.7,0.1-1,0.1c-0.1,0-0.3,0-0.4-0.1c-0.7-0.5-1.3-1-2-1.5C56.4,30.8,56.4,30.7,56.5,30.7z"/>
	<path class="st27" d="M56.5,30.7c0.3,0,0.7-0.1,1-0.1c0.1,0,0.3,0,0.4,0.1c0.7,0.5,1.3,1,2,1.5c0.1,0.1,0.1,0.2,0,0.2
		c-0.3,0-0.7,0.1-1,0.1c-0.1,0-0.3,0-0.4-0.1c-0.7-0.5-1.3-1-2-1.5C56.4,30.8,56.4,30.7,56.5,30.7z"/>
	<path class="st6" d="M57.9,30.4c0.3,0,0.7-0.1,1-0.1c0.1,0,0.3,0.1,0.4,0.2c0.6,0.5,1.3,1,1.9,1.5c0.1,0.1,0.1,0.2,0,0.2
		c-0.3,0-0.7,0.1-1,0.1c-0.1,0-0.3-0.1-0.4-0.2c-0.6-0.5-1.3-1-1.9-1.5C57.8,30.5,57.8,30.4,57.9,30.4z"/>
	<path class="st27" d="M57.9,30.4c0.3,0,0.7-0.1,1-0.1c0.1,0,0.3,0.1,0.4,0.2c0.6,0.5,1.3,1,1.9,1.5c0.1,0.1,0.1,0.2,0,0.2
		c-0.3,0-0.7,0.1-1,0.1c-0.1,0-0.3-0.1-0.4-0.2c-0.6-0.5-1.3-1-1.9-1.5C57.8,30.5,57.8,30.4,57.9,30.4z"/>
	<path class="st1" d="M59.2,30.1c0.3,0,0.7,0,1-0.1c0.1,0,0.3,0.1,0.4,0.2c0.6,0.5,1.3,1,1.9,1.6c0.1,0.1,0.1,0.2,0,0.2
		c-0.3,0-0.7,0-1,0.1c-0.1,0-0.3-0.1-0.4-0.2c-0.6-0.5-1.3-1-1.9-1.6C59.1,30.2,59.1,30.1,59.2,30.1z"/>
	<path class="st28" d="M59.2,30.1c0.3,0,0.7,0,1-0.1c0.1,0,0.3,0.1,0.4,0.2c0.6,0.5,1.3,1,1.9,1.6c0.1,0.1,0.1,0.2,0,0.2
		c-0.3,0-0.7,0-1,0.1c-0.1,0-0.3-0.1-0.4-0.2c-0.6-0.5-1.3-1-1.9-1.6C59.1,30.2,59.1,30.1,59.2,30.1z"/>
	<path class="st1" d="M60.6,30c0.3,0,0.7,0,1,0c0.1,0,0.3,0.1,0.4,0.2c0.6,0.5,1.2,1.1,1.8,1.6c0.1,0.1,0.1,0.2,0,0.2
		c-0.3,0-0.7,0-1,0c-0.1,0-0.3-0.1-0.4-0.2c-0.6-0.5-1.2-1.1-1.8-1.6C60.5,30.1,60.5,30,60.6,30z"/>
	<path class="st28" d="M60.6,30c0.3,0,0.7,0,1,0c0.1,0,0.3,0.1,0.4,0.2c0.6,0.5,1.2,1.1,1.8,1.6c0.1,0.1,0.1,0.2,0,0.2
		c-0.3,0-0.7,0-1,0c-0.1,0-0.3-0.1-0.4-0.2c-0.6-0.5-1.2-1.1-1.8-1.6C60.5,30.1,60.5,30,60.6,30z"/>
	<path class="st1" d="M62,29.9c0.3,0,0.7,0,1,0c0.1,0,0.3,0.1,0.4,0.2c0.6,0.6,1.2,1.1,1.8,1.7c0.1,0.1,0.1,0.2,0,0.2
		c-0.3,0-0.7,0-1,0c-0.1,0-0.3-0.1-0.4-0.2c-0.6-0.6-1.2-1.1-1.8-1.7C61.9,30,61.9,29.9,62,29.9z"/>
	<path class="st28" d="M62,29.9c0.3,0,0.7,0,1,0c0.1,0,0.3,0.1,0.4,0.2c0.6,0.6,1.2,1.1,1.8,1.7c0.1,0.1,0.1,0.2,0,0.2
		c-0.3,0-0.7,0-1,0c-0.1,0-0.3-0.1-0.4-0.2c-0.6-0.6-1.2-1.1-1.8-1.7C61.9,30,61.9,29.9,62,29.9z"/>
	<path class="st1" d="M63.4,29.9c0.3,0,0.7,0,1,0c0.1,0,0.3,0.1,0.4,0.2c0.6,0.6,1.1,1.2,1.7,1.8c0.1,0.1,0.1,0.2,0,0.2
		c-0.3,0-0.7,0-1,0c-0.1,0-0.3-0.1-0.4-0.2c-0.6-0.6-1.1-1.2-1.7-1.8C63.3,29.9,63.3,29.9,63.4,29.9z"/>
	<path class="st28" d="M63.4,29.9c0.3,0,0.7,0,1,0c0.1,0,0.3,0.1,0.4,0.2c0.6,0.6,1.1,1.2,1.7,1.8c0.1,0.1,0.1,0.2,0,0.2
		c-0.3,0-0.7,0-1,0c-0.1,0-0.3-0.1-0.4-0.2c-0.6-0.6-1.1-1.2-1.7-1.8C63.3,29.9,63.3,29.9,63.4,29.9z"/>
	<path class="st6" d="M66.2,30c0.3,0,0.7,0.1,1,0.1c0.1,0,0.3,0.1,0.4,0.2c0.5,0.6,1.1,1.2,1.6,1.9c0.1,0.1,0.1,0.2,0,0.2
		c-0.3,0-0.7-0.1-1-0.1c-0.1,0-0.3-0.1-0.4-0.2c-0.5-0.6-1.1-1.2-1.6-1.9C66.1,30.1,66.1,30,66.2,30z"/>
	<path class="st27" d="M66.2,30c0.3,0,0.7,0.1,1,0.1c0.1,0,0.3,0.1,0.4,0.2c0.5,0.6,1.1,1.2,1.6,1.9c0.1,0.1,0.1,0.2,0,0.2
		c-0.3,0-0.7-0.1-1-0.1c-0.1,0-0.3-0.1-0.4-0.2c-0.5-0.6-1.1-1.2-1.6-1.9C66.1,30.1,66.1,30,66.2,30z"/>
	<path class="st6" d="M67.5,30.2c0.3,0,0.7,0.1,1,0.1c0.1,0,0.3,0.1,0.4,0.2c0.5,0.6,1,1.3,1.5,1.9c0.1,0.1,0.1,0.2,0,0.2
		c-0.3,0-0.7-0.1-1-0.1c-0.1,0-0.3-0.1-0.4-0.2c-0.5-0.6-1-1.3-1.5-1.9C67.4,30.3,67.4,30.2,67.5,30.2z"/>
	<path class="st27" d="M67.5,30.2c0.3,0,0.7,0.1,1,0.1c0.1,0,0.3,0.1,0.4,0.2c0.5,0.6,1,1.3,1.5,1.9c0.1,0.1,0.1,0.2,0,0.2
		c-0.3,0-0.7-0.1-1-0.1c-0.1,0-0.3-0.1-0.4-0.2c-0.5-0.6-1-1.3-1.5-1.9C67.4,30.3,67.4,30.2,67.5,30.2z"/>
	<path class="st6" d="M68.9,30.5c0.3,0.1,0.7,0.1,1,0.2c0.1,0,0.3,0.1,0.4,0.3c0.5,0.7,1,1.3,1.5,2c0.1,0.1,0.1,0.2,0,0.2
		c-0.3-0.1-0.7-0.1-1-0.2c-0.1,0-0.3-0.1-0.4-0.3c-0.5-0.7-1-1.3-1.5-2C68.8,30.5,68.8,30.4,68.9,30.5z"/>
	<path class="st27" d="M68.9,30.5c0.3,0.1,0.7,0.1,1,0.2c0.1,0,0.3,0.1,0.4,0.3c0.5,0.7,1,1.3,1.5,2c0.1,0.1,0.1,0.2,0,0.2
		c-0.3-0.1-0.7-0.1-1-0.2c-0.1,0-0.3-0.1-0.4-0.3c-0.5-0.7-1-1.3-1.5-2C68.8,30.5,68.8,30.4,68.9,30.5z"/>
	<path class="st26" d="M70.2,30.8c0.3,0.1,0.7,0.1,1,0.2c0.1,0,0.3,0.1,0.4,0.3c0.5,0.7,0.9,1.4,1.4,2c0.1,0.1,0.1,0.2,0,0.2
		c-0.3-0.1-0.7-0.1-1-0.2c-0.1,0-0.3-0.1-0.4-0.3c-0.5-0.7-0.9-1.4-1.4-2C70.1,30.8,70.1,30.8,70.2,30.8z"/>
	<path class="st27" d="M70.2,30.8c0.3,0.1,0.7,0.1,1,0.2c0.1,0,0.3,0.1,0.4,0.3c0.5,0.7,0.9,1.4,1.4,2c0.1,0.1,0.1,0.2,0,0.2
		c-0.3-0.1-0.7-0.1-1-0.2c-0.1,0-0.3-0.1-0.4-0.3c-0.5-0.7-0.9-1.4-1.4-2C70.1,30.8,70.1,30.8,70.2,30.8z"/>
	<path class="st26" d="M71.6,31.2c0.3,0.1,0.7,0.2,1,0.2c0.1,0,0.3,0.2,0.3,0.3c0.5,0.7,0.9,1.4,1.4,2.1c0.1,0.1,0.1,0.2,0,0.2
		c-0.3-0.1-0.7-0.2-1-0.2c-0.1,0-0.3-0.2-0.3-0.3c-0.5-0.7-0.9-1.4-1.4-2.1C71.4,31.2,71.4,31.1,71.6,31.2z"/>
	<path class="st27" d="M71.6,31.2c0.3,0.1,0.7,0.2,1,0.2c0.1,0,0.3,0.2,0.3,0.3c0.5,0.7,0.9,1.4,1.4,2.1c0.1,0.1,0.1,0.2,0,0.2
		c-0.3-0.1-0.7-0.2-1-0.2c-0.1,0-0.3-0.2-0.3-0.3c-0.5-0.7-0.9-1.4-1.4-2.1C71.4,31.2,71.4,31.1,71.6,31.2z"/>
	<path class="st26" d="M72.9,31.6l1,0.3c0.1,0,0.3,0.2,0.3,0.3l1.3,2.2c0.1,0.1,0.1,0.2,0,0.2l-1-0.3c-0.1,0-0.3-0.2-0.3-0.3
		l-1.3-2.2C72.7,31.6,72.7,31.6,72.9,31.6z"/>
	<path class="st27" d="M72.9,31.6l1,0.3c0.1,0,0.3,0.2,0.3,0.3l1.3,2.2c0.1,0.1,0.1,0.2,0,0.2l-1-0.3c-0.1,0-0.3-0.2-0.3-0.3
		l-1.3-2.2C72.7,31.6,72.7,31.6,72.9,31.6z"/>
	<polygon class="st5" points="59.9,23.9 61.2,20 57.9,17.6 62,17.6 63.3,13.7 64.5,17.6 68.7,17.6 65.3,20 66.6,23.9 63.3,21.5 	"/>
	<polygon class="st29" points="63.3,13.7 63.3,13.7 64.5,17.6 63.3,19 	"/>
	<polygon class="st29" points="68.6,17.6 65.3,20 65.3,20.1 63.3,19 	"/>
	<polygon class="st29" points="66.6,23.9 66.6,23.9 63.3,21.5 63.3,19 	"/>
	<polygon class="st29" points="60,23.8 61.2,20 61.2,20 63.3,19 	"/>
	<polygon class="st29" points="57.9,17.6 62,17.6 63.3,19 	"/>
	<path class="st1" d="M64.8,29.9c0.3,0,0.7,0,1,0.1c0.1,0,0.3,0.1,0.4,0.2c0.6,0.6,1.1,1.2,1.7,1.8c0.1,0.1,0.1,0.2,0,0.2
		c-0.3,0-0.7,0-1-0.1c-0.1,0-0.3-0.1-0.4-0.2c-0.6-0.6-1.1-1.2-1.7-1.8C64.7,30,64.7,29.9,64.8,29.9z"/>
	<path class="st28" d="M64.8,29.9c0.3,0,0.7,0,1,0.1c0.1,0,0.3,0.1,0.4,0.2c0.6,0.6,1.1,1.2,1.7,1.8c0.1,0.1,0.1,0.2,0,0.2
		c-0.3,0-0.7,0-1-0.1c-0.1,0-0.3-0.1-0.4-0.2c-0.6-0.6-1.1-1.2-1.7-1.8C64.7,30,64.7,29.9,64.8,29.9z"/>
</g>
</svg>
