<?xml version="1.0" encoding="utf-8"?>
<!-- Generator: Adobe Illustrator 22.0.1, SVG Export Plug-In . SVG Version: 6.00 Build 0)  -->
<svg version="1.1" id="Слой_1" xmlns="http://www.w3.org/2000/svg" xmlns:xlink="http://www.w3.org/1999/xlink" x="0px" y="0px"
	 viewBox="0 0 127.3 127" style="enable-background:new 0 0 127.3 127;" xml:space="preserve">
<style type="text/css">
	.st0{fill:url(#SVGID_1_);}
	.st1{fill:#FFFFFF;}
	.st2{fill-rule:evenodd;clip-rule:evenodd;fill:#231F20;}
	.st3{fill-rule:evenodd;clip-rule:evenodd;fill:#FFCA05;}
	.st4{fill-rule:evenodd;clip-rule:evenodd;fill:#A5CD39;}
	.st5{fill-rule:evenodd;clip-rule:evenodd;fill:#FFFFFF;}
	.st6{fill-rule:evenodd;clip-rule:evenodd;fill:#D0262D;}
	.st7{fill-rule:evenodd;clip-rule:evenodd;fill:#FFF100;}
	.st8{fill-rule:evenodd;clip-rule:evenodd;fill:#D72B2F;}
	.st9{fill-rule:evenodd;clip-rule:evenodd;fill:#FFF584;}
	.st10{fill-rule:evenodd;clip-rule:evenodd;fill:#EC1C24;}
	.st11{fill-rule:evenodd;clip-rule:evenodd;fill:#00A551;}
	.st12{fill-rule:evenodd;clip-rule:evenodd;fill:#BBBDBF;}
	.st13{fill-rule:evenodd;clip-rule:evenodd;fill:#D1E187;}
	.st14{fill-rule:evenodd;clip-rule:evenodd;fill:#853F35;}
	.st15{fill-rule:evenodd;clip-rule:evenodd;fill:#FBD2C0;}
	.st16{fill-rule:evenodd;clip-rule:evenodd;fill:#DAE497;}
	.st17{fill-rule:evenodd;clip-rule:evenodd;fill:#FFF8AD;}
</style>
<radialGradient id="SVGID_1_" cx="64.8" cy="-1506.7469" r="62.6" gradientTransform="matrix(1 0 0 -1 0 -1442.3469)" gradientUnits="userSpaceOnUse">
	<stop  offset="0.9487" style="stop-color:#212121"/>
	<stop  offset="1" style="stop-color:#606060;stop-opacity:0"/>
</radialGradient>
<circle class="st0" cx="64.8" cy="64.4" r="62.6"/>
<circle class="st1" cx="62.6" cy="62.6" r="62.6"/>
<g>
	<path class="st2" d="M63.5,17.4c0.2,0.5,0.4,1.2,1,1.3c0.7,0.1,1.4,0.5,1.7,1.2c0.1,0.2,0.1,0.3,0.2,0.5c0.4,0,0.9,0,1.2,0.2
		c0.2,0.2,0.1,0.5,0,0.7c-0.1,0.1-0.1,0.2-0.2,0.3c-0.4,0.1-0.9-0.3-1.2,0.2c-0.2,0.5,0,1,0.3,1.4c0.3,0.3,0.6,0.6,1.1,0.6
		c0.1,0,0.3-0.1,0.4-0.3c0.1-0.2,0.1-0.5,0.3-0.6c0.3-0.1,0.6,0,0.9,0.2c0.1,0.5-0.1,1-0.5,1.3c0.5,0.5,0.8,1,1,1.6
		c-0.2,0.8-0.7,1.6-1.5,1.9c0,0.3,0,0.6-0.2,0.7c-0.3,0.1-0.6,0.1-0.8-0.1c-0.2-0.2,0-0.6-0.3-0.8c-0.4-0.2-0.9-0.1-1.2,0.1
		c-0.3,0.3-0.6,0.8-0.4,1.2c0.3,0.7,1.1,0.9,1.7,1.2c1.1,0.3,2.3,0.1,3.1-0.7c0.4-0.4,0.8-1,0.6-1.6c-0.1-0.4-0.6-0.6-0.3-1
		c0.1-0.2,0.3-0.3,0.5-0.3c-0.5-0.7-0.7-1.8-0.4-2.7c0.4-1,1.4-1.8,2.6-1.7l0.2,0c0.1-0.4,0.3-0.9,0.4-1.3c-0.5-0.2-1.1-0.3-1.6-0.5
		l0.4-1.4l1.6,0.4l0,0c0.1-0.5,0.3-1.1,0.4-1.6c0.5,0.1,0.9,0.3,1.4,0.4c-0.1,0.5-0.3,1.1-0.4,1.7l1.6,0.4c-0.1,0.5-0.3,0.9-0.4,1.4
		l-1.6-0.4l-0.4,1.4c0.5,0.4,0.9,0.8,1,1.4c0.4,1.1,0.1,2.3-0.8,3.1c-0.3,0.3-0.7,0.5-1.1,0.6c0.3,0,0.6,0,0.7,0.3
		c0,0.3,0.1,0.7-0.2,0.8c-0.4,0.1-1-0.1-1.2,0.4c-0.2,0.3-0.3,0.8-0.1,1.2c0.6,1.1,1.7,1.4,2.9,1.4c0.8,0,1.5-0.3,1.9-1
		c0.1-0.4-0.1-0.8-0.4-1c-0.2-0.2-0.6-0.1-0.7-0.3c-0.1-0.3,0-0.6,0.1-0.8c0.1-0.1,0.2-0.1,0.3-0.1c-0.5-0.5-0.8-1.1-0.8-1.8
		c0.6-0.6,1.4-0.9,2.3-0.7c-0.1-0.2-0.2-0.5-0.2-0.7c0-0.3,0-0.6,0.2-0.7c0.2-0.1,0.5-0.1,0.7,0c0.3,0.2,0,0.8,0.4,0.9
		c0.5,0.1,0.9-0.1,1.2-0.4c0.2-0.3,0.4-0.6,0.2-0.9c-0.2-0.4-0.8,0-1-0.4c-0.1-0.2-0.1-0.5,0.1-0.8c0.5-0.3,1.1-0.1,1.5,0.2
		c0.5-0.3,1-0.5,1.5-0.8c0.7-0.2,1.4,0.1,2,0.6c-0.5,0.2-1.1,0.5-1.3,1.1c-0.2,0.7,0,1.5-0.3,2.1L83,26.9c0.6,0.2,1.2,0,1.7-0.3
		c0.2,0.3,0.3,0.7,0.1,1.1c-0.2,0.4-0.5,0.8-0.9,1.1c0.1,0.2,0.3,0.4,0.4,0.7h0c1.7-0.9,3.5-1.8,5.6-1.3c0.1,0,0.2,0.1,0.2,0.2
		c0,0.2,0,0.3,0,0.5l2.9,2c0.4,0.1,0.9,0.4,1,0.9c0.6,2.4-1.2,3.5-2.9,4.4c-0.5,0.3-1,0.8-1.2,1.3c-0.2,0.3-0.3,0.6-0.3,1l0,0
		c0.8,0.1,1.7,0.2,2.3-0.3c1-0.6,1.8-1.7,3.1-1.6c2.1,0.1,4.2,0.5,5.2,2.5c0.9,2.2,0,4.6-0.9,6.5L98.7,47l-1.3,2.3
		c-0.6,1.1-1.1,2.5-0.7,3.8c0.5,0,0.9,0,1.4,0c0.2-0.2,0.4-0.3,0.6-0.3c0.3,0.1,0.4,0.4,0.6,0.6c1.7,2.2,2.1,5.1,1.7,8.1
		c-0.3,2.3-1.1,4.3-1.4,6.6C98.8,73,99,78.6,99.7,83.4c0.6,3.3,1,7.3-0.4,10.4c-0.1,0.1-0.2,0.2-0.3,0.2c-0.3,0-0.5-0.1-0.7-0.3
		l-1.7,0.2c-0.8,2.9-2.5,5.4-4.9,7.5c0.1,0.1,0.1,0.2,0.1,0.4c-0.2,0.3-0.5,0.5-0.8,0.8c-2.5,2-5.4,3-8.4,3.9l-2.5,0.6
		c-1.5,0.3-3,0.6-4.6,0.9l-3.2,0.5l-3.3,0.4l-3.3,0.3l-2.5,0.2l-3.5-0.3l-3.5-0.3l-2.9-0.4l-3.1-0.5l-2.8-0.5c-4-0.9-7.9-2-11.3-4.4
		c-0.4-0.3-0.8-0.6-1.2-1c-0.1-0.1-0.1-0.3-0.1-0.4l0.1-0.1c-2.4-2.1-4.1-4.7-4.9-7.5l-1.7-0.2c-0.2,0.2-0.4,0.3-0.7,0.3
		c-0.1,0-0.2-0.1-0.3-0.2c-1.1-2.4-1-5.6-0.6-8.3l0.5-3.6c0.7-5.4,0.6-11.4-0.7-16.4L26,62.8c-0.2-1.2-0.4-2.4-0.4-3.7
		c0.1-2.3,0.8-4.3,2.2-6c0.1-0.1,0.2-0.1,0.4-0.1c0.2,0,0.3,0.2,0.5,0.3h1.4c0.4-1.4-0.1-2.8-0.8-4l-1.5-2.7
		c-0.9-1.9-1.8-3.8-1.7-6.1c0.1-1.3,1-2.6,2.2-3.2c1-0.5,2.2-0.7,3.5-0.7c1.4,0.1,2.3,1.6,3.6,1.9c0.5,0.1,1.1,0.1,1.7,0
		c-0.1-0.7-0.4-1.4-1.1-1.8L35.3,36c-0.3-0.2-0.6-0.3-0.8-0.5c-0.2-0.1-0.3-0.2-0.4-0.3c-1-0.8-1.6-1.9-1.3-3.2
		c0.1-0.4,0.3-0.8,0.7-0.9l0.4-0.2l2.8-2l0,0c0-0.2-0.1-0.4,0-0.5c0.1-0.2,0.4-0.2,0.6-0.3c2-0.3,3.7,0.5,5.2,1.4
		c0.1-0.2,0.2-0.5,0.4-0.7c-0.5-0.5-1-1-0.9-1.7c0.1-0.2,0.1-0.3,0.2-0.5c0.5,0.3,1.1,0.5,1.7,0.3c-0.5-0.7-0.5-1.6-0.5-2.4
		c-0.2-0.6-0.8-1.1-1.3-1.2c0.5-0.5,1.3-0.8,2-0.6c0.5,0.3,1,0.4,1.4,0.8c0.4-0.3,0.8-0.4,1.3-0.3c0.1,0,0.2,0.1,0.3,0.2
		c0.1,0.2,0.1,0.6-0.1,0.8c-0.3,0.2-1,0-0.9,0.6c0.1,0.5,0.5,0.9,0.9,1c0.2,0,0.5,0.1,0.7-0.1c0.2-0.3-0.1-0.7,0.3-0.8
		c0.2-0.1,0.5-0.1,0.8,0c0.3,0.4,0.2,1,0,1.4c0,0,0,0,0,0c0.8-0.2,1.7,0.1,2.3,0.6c0,0.7-0.3,1.3-0.8,1.8c0.1,0,0.3,0.1,0.3,0.2
		c0.1,0.2,0.2,0.5,0,0.7c-0.3,0.3-0.8,0.2-1,0.6c-0.1,0.2-0.3,0.5-0.1,0.8c0.6,1,1.8,1.1,2.9,0.9c0.7-0.2,1.6-0.6,1.9-1.4
		c0.1-0.5-0.1-1-0.4-1.4c-0.3-0.2-0.9,0.1-1.2-0.3c-0.1-0.2-0.1-0.6,0.1-0.8c0.2-0.1,0.4-0.1,0.6-0.2c-0.1-0.1-0.4-0.1-0.5-0.2
		c-1-0.5-1.6-1.5-1.6-2.6c0-0.9,0.5-1.6,1.2-2.1c-0.1-0.5-0.3-0.9-0.4-1.4c-0.5,0.1-1.1,0.3-1.6,0.4c-0.2-0.4-0.3-0.9-0.4-1.4l0-0.1
		l1.6-0.4c-0.1-0.6-0.3-1.1-0.4-1.7l1.4-0.4c0.2,0.5,0.3,1.1,0.5,1.6c0.5-0.1,1.1-0.3,1.6-0.4l0,0l0.4,1.4L53.1,21
		c0.1,0.4,0.2,0.9,0.3,1.3c1.1-0.1,2.2,0.5,2.7,1.5c0.4,0.9,0.4,2.1-0.3,2.9c0.2,0.1,0.5,0.2,0.6,0.5c0,0.4-0.4,0.6-0.4,1
		c-0.1,0.8,0.6,1.4,1.2,1.8c1,0.6,2.5,0.4,3.5-0.1c0.4-0.3,1-0.7,0.9-1.3c-0.1-0.3-0.3-0.6-0.6-0.8c-0.3-0.1-0.8-0.1-1.1,0
		c-0.2,0.2,0,0.6-0.3,0.8c-0.2,0.1-0.6,0.1-0.8,0c-0.2-0.2-0.1-0.4-0.1-0.6c-0.8-0.3-1.3-1.1-1.5-1.9c0.2-0.6,0.5-1.2,1-1.7
		c-0.3-0.4-0.5-0.7-0.5-1.2c0-0.1,0.1-0.2,0.1-0.3c0.2-0.1,0.5-0.2,0.8-0.1c0.3,0.3,0.2,1,0.8,0.9c0.5,0,0.9-0.4,1.1-0.8
		c0.2-0.3,0.3-0.7,0.1-1.1c-0.1-0.2-0.3-0.3-0.5-0.3c-0.2,0-0.5,0.2-0.7,0c-0.2-0.2-0.3-0.5-0.2-0.8c0.3-0.3,0.8-0.3,1.2-0.3
		c0.1-0.6,0.4-1.2,1-1.5c0.5-0.2,1.2-0.2,1.4-0.8c0.2-0.3,0.3-0.6,0.4-0.9C63.4,17.4,63.5,17.3,63.5,17.4L63.5,17.4z"/>
	<path class="st3" d="M64.5,18.9c0.6,0.1,1.1,0.3,1.4,0.9l0.2,0.6c-0.3,0.1-0.6,0.3-0.8,0.6c-0.3,0.4-0.4,0.9-0.4,1.4
		c-0.3-0.5-0.8-0.9-1.4-0.9l0-1.7c-0.1,0-0.1,0-0.1,0c-0.1,0.6,0,1.2,0,1.7c-0.7,0.1-1.2,0.7-1.5,1.3c0.2-0.7,0-1.6-0.6-2.1
		c-0.1-0.3-0.8-0.1-0.5-0.6c0.2-0.5,0.6-1.1,1.1-1.2c0.6-0.1,1.3-0.4,1.4-1.1l0.2-0.4C63.6,18.2,63.9,18.8,64.5,18.9L64.5,18.9z"/>
	<path class="st3" d="M52.6,19.8c0.5-0.2,1.1-0.3,1.6-0.4c0.1,0.4,0.2,0.7,0.3,1.1l-1.6,0.5c0.1,0.5,0.3,1,0.4,1.4
		c-0.4,0.1-0.7,0.2-1,0.4c-0.2-0.5-0.3-1-0.4-1.5c-0.5,0.1-1.1,0.3-1.6,0.4l-0.3-1l0,0c0.5-0.2,1.1-0.3,1.6-0.5
		c-0.1-0.6-0.3-1.1-0.4-1.6l1-0.3C52.3,18.7,52.4,19.2,52.6,19.8L52.6,19.8z"/>
	<path class="st3" d="M75.3,20.1l1.6,0.5l-0.3,1.1L75,21.2c-0.2,0.5-0.3,1-0.4,1.5c-0.3-0.2-0.7-0.3-1-0.4l0.4-1.4
		c-0.5-0.2-1.1-0.3-1.6-0.5l0.3-1.1c0.5,0.1,1.1,0.3,1.6,0.4l0.5-1.6l1.1,0.3L75.3,20.1L75.3,20.1z"/>
	<path class="st3" d="M61.4,21.3c0.5,0.7,0.3,1.7-0.1,2.4c-0.5,0.8-1.3,1.3-2.2,1.1c-0.5-0.1-0.9-0.5-1.1-1
		c-0.1-0.2-0.1-0.4-0.1-0.6c0.1-0.2,0.4-0.2,0.6-0.1c0.2,0.2,0.2,0.6,0.5,0.8c0.2,0.2,0.6,0.2,0.9,0c0.6-0.3,1.1-1,1.1-1.7
		c0-0.3-0.2-0.6-0.4-0.8c-0.3-0.1-0.6,0-0.9,0c-0.2-0.1-0.2-0.3-0.3-0.6c0.1-0.3,0.4-0.2,0.7-0.3C60.6,20.6,61.1,20.8,61.4,21.3
		L61.4,21.3z"/>
	<path class="st3" d="M67.3,20.8c0.1,0.1,0.1,0.2,0.1,0.3c0,0.1-0.1,0.3-0.2,0.4c-0.3,0.1-0.5-0.2-0.8-0.1c-0.3,0.1-0.5,0.4-0.5,0.7
		c-0.1,0.7,0.2,1.2,0.8,1.7c0.3,0.2,0.6,0.3,0.9,0.2c0.4-0.1,0.5-0.5,0.6-0.8c0.1-0.1,0.2-0.1,0.4-0.1c0.1,0,0.3,0.1,0.4,0.2
		c0,0.5-0.2,1-0.7,1.3c-0.4,0.3-1.1,0.3-1.6,0.1c-1-0.4-1.7-1.4-1.6-2.5c0-0.6,0.3-1.1,0.9-1.4C66.4,20.6,66.9,20.6,67.3,20.8
		L67.3,20.8z"/>
	<path class="st3" d="M64.7,22.5c0.9,1.3,0.8,3.3,0.1,4.7c-0.3,0.4-0.7,0.9-1.3,0.9c-0.6,0.1-1-0.4-1.3-0.8
		c-0.8-1.4-0.8-3.6,0.2-4.9c0.3-0.4,0.8-0.6,1.3-0.5C64.1,21.9,64.4,22.2,64.7,22.5L64.7,22.5z"/>
	<path class="st2" d="M64.3,22.7c0.8,1.2,0.8,3.2-0.1,4.4c-0.2,0.2-0.4,0.4-0.8,0.4c-0.8-0.1-1.1-1-1.3-1.7
		c-0.2-1.2-0.1-2.6,0.7-3.5c0.2-0.2,0.5-0.3,0.8-0.2C63.9,22.3,64.1,22.5,64.3,22.7L64.3,22.7z"/>
	<path class="st4" d="M64.4,23.3c0.5,1.2,0.4,2.9-0.5,3.9c-0.2,0.2-0.4,0.3-0.7,0.2c-0.6-0.3-0.8-1-0.9-1.5
		c-0.2-1.1-0.1-2.3,0.6-3.1c0.2-0.2,0.4-0.4,0.7-0.3C64,22.6,64.2,23,64.4,23.3L64.4,23.3z"/>
	<path class="st5" d="M56,24c0.4,0.9,0.3,2.1-0.4,2.8c-0.7,0.8-1.8,1.1-2.8,0.7c-0.8-0.3-1.5-1.1-1.7-1.9c-0.2-1.1,0.2-2.2,1.2-2.8
		c0.8-0.5,2-0.5,2.7,0C55.4,23.1,55.8,23.5,56,24L56,24z"/>
	<path class="st5" d="M75.5,24c0.4,0.9,0.2,2.1-0.4,2.8c-0.7,0.8-1.8,1.1-2.8,0.7c-0.8-0.3-1.5-1-1.7-1.8c-0.2-1.1,0.2-2.2,1.1-2.8
		c0.8-0.5,2-0.6,2.8,0C74.9,23.1,75.3,23.5,75.5,24L75.5,24z"/>
	<path class="st3" d="M45.1,23.4C45.1,23.5,45.2,23.5,45.1,23.4c-0.3,0.5-0.4,1-0.4,1.5c0.1,0.5,0.4,1,0.9,1.4
		c-0.4-0.2-1-0.1-1.3,0.3c-0.1,0.1-0.2,0.2-0.2,0.3c-0.5-0.6-0.6-1.6-0.6-2.5c-0.1-0.6-0.7-1.1-1.2-1.3c0.4-0.3,0.9-0.5,1.4-0.4
		C44.2,22.9,44.6,23.2,45.1,23.4L45.1,23.4z"/>
	<path class="st3" d="M84.5,23.1c-0.6,0.2-1.2,0.8-1.2,1.5c0,0.9-0.1,1.6-0.6,2.3c-0.3-0.4-0.7-0.7-1.2-0.7l-0.4,0.1
		c0.6-0.5,1-1.3,0.9-2.1c-0.1-0.3-0.2-0.5-0.4-0.8c0.4-0.3,0.9-0.5,1.4-0.8C83.6,22.6,84.1,22.8,84.5,23.1L84.5,23.1z"/>
	<path class="st3" d="M46.7,23.4c0.1,0.2,0.1,0.5,0,0.6c-0.2,0.1-0.6,0-0.8,0.2c-0.2,0.2-0.2,0.4-0.2,0.7c0.1,0.5,0.6,0.9,1.1,1
		c0.3,0,0.6,0.1,0.8-0.2c0.3-0.2,0-0.7,0.3-0.8c0.2,0,0.4-0.1,0.5,0c0.2,0.3,0.1,0.8-0.1,1.2c-0.3,0.4-0.8,0.7-1.3,0.7
		c-0.8,0-1.6-0.6-2-1.3c-0.2-0.5-0.2-1.1,0.1-1.5C45.5,23.4,46,23.2,46.7,23.4L46.7,23.4L46.7,23.4z"/>
	<path class="st3" d="M81.6,23.9c0.3,0.4,0.3,1,0.1,1.5c-0.3,0.7-1.1,1.3-1.9,1.4c-0.5,0.1-1-0.1-1.4-0.6c-0.2-0.3-0.3-0.8-0.2-1.2
		c0.2-0.1,0.5-0.1,0.6,0c0.2,0.3-0.1,0.8,0.4,0.9c0.5,0.2,0.9,0,1.3-0.3c0.3-0.3,0.5-0.7,0.4-1.2c-0.1-0.4-0.5-0.3-0.8-0.4
		c-0.1,0-0.1-0.1-0.2-0.2c0-0.2-0.1-0.5,0.1-0.6C80.8,23.2,81.3,23.4,81.6,23.9L81.6,23.9z"/>
	<path class="st3" d="M61.4,25.5c-0.7,0.1-1.5,0.3-2.2,0.4c0,0,0,0.1,0,0.1l0,0l2.2-0.4c0.1,0.5,0.2,1.1,0.5,1.5
		c-0.6-0.5-1.7-0.7-2.5-0.4c-0.4,0.2-0.8,0.6-0.9,1c-0.7-0.3-1.1-1-1.3-1.7c0.2-0.6,0.5-1.1,1-1.5c0.5,0.4,1.5,0.5,2.1,0.1
		c0.5-0.3,1-0.8,1.2-1.3C61.4,24.1,61.4,24.8,61.4,25.5L61.4,25.5z"/>
	<path class="st3" d="M68,24.9c0.2-0.1,0.3-0.1,0.4-0.3c0.5,0.4,0.8,1,1,1.6c-0.2,0.7-0.6,1.4-1.3,1.7c-0.1-0.5-0.6-0.9-1-1
		c-0.7-0.2-1.5-0.1-2.1,0.2c0.2-0.4,0.3-0.9,0.4-1.3c0.7,0.1,1.4,0.3,2,0.4c0,0,0-0.1,0-0.2c-0.7-0.2-1.4-0.3-2.1-0.4
		c0.1-0.5,0-1.1-0.1-1.6C66,24.7,67,25.2,68,24.9L68,24.9z"/>
	<path class="st3" d="M50.6,26.9c0,0.7-0.4,1.3-1,1.7c-0.7,0.2-1.3,0.8-1.5,1.5c-0.1,0.2-0.1,0.5-0.1,0.7c-0.4-0.3-0.8-0.5-1.3-0.5
		c0.5-0.5,0.6-1.3,0.5-2l2.1-0.8c0,0,0-0.2-0.1-0.1l-2,0.7c-0.1-0.5-0.4-1-0.8-1.4c0.6,0.3,1.5,0.3,2-0.2c0.3-0.2,0.8-0.2,1.2-0.2
		C49.8,26.4,50.2,26.6,50.6,26.9L50.6,26.9z"/>
	<path class="st3" d="M78.5,26.4c0.5,0.5,1.3,0.6,1.9,0.4l0.2-0.1c-0.4,0.4-0.7,0.9-0.8,1.4c-0.7-0.2-1.4-0.5-2.1-0.7
		c-0.1,0-0.1,0.1-0.1,0.1l2.1,0.8c-0.1,0.7,0,1.5,0.5,2c-0.5,0-0.9,0.2-1.3,0.5c0.1-0.8-0.4-1.6-1.1-2c-0.2-0.1-0.3-0.2-0.5-0.2
		c-0.6-0.4-0.9-1-0.9-1.7C76.8,26.4,77.7,26.1,78.5,26.4L78.5,26.4z"/>
	<path class="st3" d="M46.8,27.9c0.3,0.7,0.3,1.7-0.2,2.3c-0.2,0.2-0.5,0.4-0.8,0.3c-0.8-0.1-1.4-0.8-1.6-1.5
		c-0.3-0.7-0.3-1.7,0.3-2.2c0.3-0.3,0.6-0.3,1-0.3C46.1,26.7,46.6,27.3,46.8,27.9L46.8,27.9z"/>
	<path class="st3" d="M82.5,27c0.5,0.7,0.3,1.8-0.1,2.5c-0.3,0.5-0.8,1-1.4,1c-0.3,0-0.6-0.1-0.8-0.4c-0.5-0.6-0.4-1.6-0.1-2.3
		c0.3-0.6,0.8-1.2,1.5-1.3C81.9,26.4,82.3,26.6,82.5,27L82.5,27z"/>
	<path class="st3" d="M44,27c-0.5,1-0.1,2.2,0.6,3c0.3,0.3,0.6,0.5,1,0.6c-0.7,0.3-0.9,1-0.9,1.7c-0.4-0.1-0.7-0.1-0.9-0.5
		c-0.1-0.3,0-0.6,0.1-0.9c-0.5-0.2-1.2-0.4-1.3-1c-0.1-0.5,0.3-0.9,0.5-1.3c-0.5-0.5-1.2-1.1-0.9-1.8l0-0.1
		C42.7,27.1,43.4,27.3,44,27L44,27z"/>
	<path class="st3" d="M84.6,27.7c-0.2,0.4-0.5,0.7-0.9,1c0.3,0.5,0.7,1,0.4,1.6c-0.3,0.4-0.8,0.5-1.2,0.7c0.1,0.3,0.3,0.7,0.1,1
		c-0.2,0.3-0.6,0.3-0.9,0.4c0-0.7-0.3-1.4-1-1.7c1-0.2,1.7-1.3,1.8-2.2c0.1-0.5,0-1-0.2-1.4c0.6,0.2,1.3,0.1,1.8-0.2
		C84.7,27,84.7,27.4,84.6,27.7L84.6,27.7z"/>
	<path class="st3" d="M67.8,27.5c0.2,0.3,0.2,0.6,0.1,1c-0.1,0.2-0.5,0.1-0.7,0.1c-0.2-0.1,0-0.5-0.2-0.7c-0.3-0.3-1-0.3-1.4-0.1
		c-0.4,0.3-0.7,0.7-0.6,1.2c0.1,0.9,1.2,1.3,1.9,1.6c1.1,0.3,2.4,0.1,3.3-0.7c0.5-0.5,0.8-1.1,0.6-1.7c-0.1-0.3-0.2-0.5-0.4-0.7
		c0-0.3,0.3-0.3,0.5-0.4c0.2,0,0.3,0.3,0.5,0.4c0.4,0.6,0.4,1.5,0.1,2.1c-0.5,0.8-1.3,1.6-2.3,1.8c-1.2-0.2-2.4-0.4-3.7-0.5
		c-0.6-0.3-1.2-1-1.3-1.6c-0.1-0.8,0.3-1.6,1.1-2C66.1,26.7,67.3,26.7,67.8,27.5L67.8,27.5z"/>
	<path class="st3" d="M62,27.6c0.5,0.5,0.6,1.3,0.3,1.9c-0.3,0.5-0.8,0.9-1.3,1.2c-1.2,0.1-2.4,0.2-3.6,0.4
		c-1.1-0.3-2.2-1.3-2.4-2.4c-0.1-0.7,0.1-1.4,0.7-1.8c0.2,0,0.4,0.1,0.5,0.3c-0.1,0.4-0.4,0.6-0.4,1c-0.2,0.8,0.5,1.4,1.1,1.9
		c1,0.8,2.5,0.7,3.6,0.2c0.5-0.2,1.1-0.7,1.3-1.2c0.1-0.5-0.2-0.9-0.6-1.2c-0.4-0.2-0.9-0.2-1.3,0c-0.4,0.1,0,0.7-0.4,0.8
		c-0.2,0-0.4,0.1-0.6-0.1c-0.1-0.5,0.1-1,0.5-1.2C60.1,26.7,61.4,26.8,62,27.6L62,27.6z"/>
	<path class="st2" d="M46.3,27.8c0.3,0.6,0.5,1.5,0,2.1c-0.2,0.2-0.4,0.2-0.6,0.2c-0.8-0.3-1.2-1.1-1.2-1.9c0-0.5,0.1-0.9,0.5-1.2
		C45.5,26.8,46,27.3,46.3,27.8L46.3,27.8z"/>
	<path class="st2" d="M82,27.1c0.5,0.5,0.4,1.4,0.1,2c-0.2,0.4-0.6,0.9-1.1,1c-0.2,0-0.3,0-0.5-0.1c-0.4-0.3-0.4-0.9-0.3-1.4
		c0.1-0.6,0.6-1.4,1.3-1.6C81.7,26.9,81.9,26.9,82,27.1L82,27.1z"/>
	<path class="st6" d="M46.2,28c0.2,0.5,0.4,1.2,0.1,1.7c-0.1,0.1-0.2,0.2-0.3,0.2c-0.5,0-0.9-0.5-1.1-0.9c-0.2-0.5-0.4-1.2-0.1-1.7
		c0.1-0.1,0.2-0.2,0.3-0.3C45.6,27.1,46,27.6,46.2,28L46.2,28z"/>
	<path class="st6" d="M81.9,27.2c0.4,0.4,0.3,1.1,0.1,1.6c-0.2,0.4-0.5,1-1,1c-0.1,0-0.3,0-0.4-0.1c-0.4-0.4-0.3-1.1-0.2-1.6
		c0.2-0.4,0.5-1,1-1.1C81.7,27.1,81.8,27.1,81.9,27.2L81.9,27.2z"/>
	<path class="st7" d="M73.1,27.8c-0.6,0.1-1,0.7-1.3,1.2c0.1-0.5,0.1-1.1-0.2-1.6C72.1,27.7,72.6,27.8,73.1,27.8L73.1,27.8z"/>
	<path class="st7" d="M55.3,29.7c0.5,0.6,1.1,1.2,1.8,1.5c-0.9,0.2-1.8,0.3-2.7,0.6c0.6-0.6,0.9-1.4,0.7-2.2
		c-0.1-0.7-0.7-1.5-1.4-1.7c0.5,0,1-0.2,1.4-0.4C54.7,28.1,54.8,29.1,55.3,29.7L55.3,29.7z"/>
	<path class="st5" d="M63.8,28.2c0.1-0.1,0.3-0.1,0.4-0.2c-0.3,0.6-0.2,1.5,0.2,2c0.2,0.3,0.5,0.5,0.7,0.7c-1.3,0-2.5-0.1-3.8,0
		c0.7-0.5,1.4-1.2,1.2-2.1c0-0.3-0.1-0.5-0.2-0.8C62.8,28.2,63.3,28.3,63.8,28.2L63.8,28.2z"/>
	<path class="st3" d="M54.7,28.9c0.4,0.7,0.4,1.8-0.1,2.4c-0.1,0.2-0.3,0.4-0.5,0.5c-1.1,0.3-2.2,0.6-3.3,1c-1-0.1-2.2-0.7-2.5-1.8
		c-0.2-0.8,0.2-1.4,0.8-1.9c0.3-0.2,0.6-0.3,0.9-0.3c0.2,0.1,0.2,0.3,0.2,0.5c0,0.1,0,0.2-0.2,0.3c-0.4,0-0.7,0.3-0.9,0.5
		C49,30.4,48.8,30.7,49,31c0.5,1,1.6,1.1,2.6,1.1c1-0.1,2.1-0.6,2.5-1.6c0.1-0.6-0.1-1.3-0.7-1.6c-0.3-0.1-0.6,0-0.9-0.1
		c-0.1-0.2-0.2-0.4-0.1-0.6c0.1-0.1,0.3-0.1,0.4-0.1C53.6,27.9,54.4,28.2,54.7,28.9L54.7,28.9z"/>
	<path class="st3" d="M74.3,28.2c0,0.2,0,0.3-0.1,0.5c-0.3,0.2-0.7,0-1,0.2c-0.5,0.3-0.6,0.8-0.6,1.4c0,0.8,0.9,1.4,1.6,1.6
		c1,0.4,2.3,0.3,3.1-0.3c0.3-0.3,0.6-0.7,0.5-1.1c-0.1-0.4-0.6-0.9-1.1-0.9c-0.2-0.1-0.1-0.3-0.1-0.5c0-0.1,0.1-0.2,0.2-0.2
		c0.6,0,1.1,0.3,1.5,0.8c0.4,0.4,0.5,1.2,0.2,1.8c-0.5,1-1.6,1.5-2.7,1.5l-0.5,0c-0.7-0.3-1.5-0.5-2.2-0.7c-0.7-0.5-1.2-1.2-1.2-2.1
		c0.1-0.8,0.4-1.6,1.2-1.9c0.4-0.1,0.8-0.2,1.2-0.1C74.3,28,74.3,28.1,74.3,28.2L74.3,28.2z"/>
	<path class="st7" d="M42.4,29.6c-0.1,0.3,0,0.7,0.2,1c0.3,0.3,0.6,0.4,1,0.5l0,0.1c-2-1.1-4-2.7-6.5-2.1c-0.2-0.1-0.2-0.3-0.3-0.5
		c0.1-0.4,0.5-0.3,0.8-0.4C39.4,28,40.9,28.8,42.4,29.6L42.4,29.6z"/>
	<path class="st7" d="M89.9,28.3c0.2,0.1,0.1,0.4,0,0.6c-0.2,0.4-0.6,0-0.9,0.1c-1.8-0.1-3.2,0.8-4.6,1.5l-1.2,0.7l0-0.1
		c0.5-0.2,1.1-0.4,1.2-1c0-0.2,0-0.4,0-0.5c1.6-0.9,3.4-1.8,5.4-1.3L89.9,28.3L89.9,28.3z"/>
	<path class="st8" d="M37,29.2c0.4,0,0.9-0.2,1.3-0.1c1.9,0.2,3.5,1.2,5.1,2.2c0.2,0.1,0,0.3,0.1,0.4c0,0.3,0.3,0.5,0.5,0.7
		c0.2,0.1,0.5,0.1,0.8,0.2c0.1-0.1,0-0.3,0.1-0.4c1.3,0.6,2.6,1,4,1.4c-0.2,0.1-0.2,0.3-0.2,0.5c0,0.3,0.2,0.6,0.4,0.8
		c-0.2,0.1-0.4,0.3-0.4,0.5c-0.4,0.3-0.4,0.8-0.4,1.3c0.1,0.5,0.4,1.1,0.9,1.3c0.1,0,0.3,0.1,0.4,0.1l0,0.1
		c-2.2-0.5-4.4-1.3-6.3-2.6l-2.6-1.8l-2.1-1.3c-1.4-0.7-2.8-1.4-4.5-1.4l2.5-1.8C36.8,29.1,36.9,29.2,37,29.2L37,29.2z M92.6,30.8
		c-1.3,0-2.5,0.5-3.7,1l-1.1,0.6l-2.2,1.4l-2.7,1.9c-1.7,1.1-3.7,1.8-5.7,2.3v0c0.6-0.4,0.9-1.1,0.8-1.8c0-0.4-0.4-0.7-0.6-1
		c-0.1-0.2-0.4-0.2-0.6-0.3c0.3-0.2,0.5-0.6,0.5-1c0-0.1,0-0.1-0.1-0.2l0,0c1.6-0.4,3.2-0.8,4.7-1.5c0,0.1,0,0.3,0,0.4
		c0.5,0,1-0.1,1.3-0.6c0.1-0.2,0.1-0.4,0-0.6c1.7-1,3.3-2.1,5.3-2.3c0.4,0,0.8,0.1,1.1,0.1c0.2,0,0.3-0.1,0.3-0.2L92.6,30.8
		L92.6,30.8z"/>
	<path class="st7" d="M72.6,31.9l-2.5-0.6l-0.4-0.1c0.8-0.3,1.7-1.2,2.1-2C71.4,30.2,71.8,31.3,72.6,31.9L72.6,31.9z"/>
	<path class="st3" d="M48.1,31.2c0.1,0.5,0.5,0.9,0.9,1.2c0.2,0,0.3,0.2,0.5,0.2c0,0.1,0.1,0.4,0,0.5c-0.2,0.2-0.4,0.1-0.6,0.1
		c-0.8-0.4-1-1.3-1.7-1.8c-0.3-0.2-0.8-0.1-1.1,0.1c-0.2,0.1-0.3,0.3-0.5,0.3c-0.2-0.1-0.4-0.3-0.3-0.5c0.5-0.6,1.2-0.8,1.9-0.7
		C47.4,30.7,47.8,30.9,48.1,31.2L48.1,31.2z"/>
	<path class="st3" d="M81.6,31.2c0.1,0.1,0,0.2,0,0.3c-0.1,0.1-0.2,0.3-0.3,0.3c-0.4-0.1-0.6-0.5-1-0.5c-0.9-0.1-1.2,1-1.7,1.5
		c-0.2,0.3-0.5,0.5-0.9,0.5c-0.1,0-0.4,0-0.4-0.2c0-0.1-0.1-0.3,0-0.4c0.2-0.1,0.3-0.2,0.5-0.2c0.4-0.4,0.8-0.8,0.9-1.2
		c0.4-0.5,1-0.7,1.7-0.6C80.9,30.7,81.2,30.9,81.6,31.2L81.6,31.2z"/>
	<path class="st3" d="M77,33.7c0.1,0.1,0.1,0.2,0.1,0.3c0,0.3-0.1,0.5-0.4,0.7l-0.3,0c-5.8-2.5-13.1-3.4-19.7-2.1
		c-2.6,0.4-5,1.3-7.4,2.1c-0.3,0-0.4-0.3-0.5-0.5c0-0.1,0-0.3,0-0.4l0.3-0.2c6.2-2.4,13.7-3.5,20.7-2.1C72.4,32,74.7,32.7,77,33.7
		L77,33.7z"/>
	<path class="st7" d="M37.4,31.8l1.2,0.6l2.2,1.4l2.9,2c1.8,1.2,3.8,1.9,5.9,2.4l0.1,0.1c-0.2,0.2-0.3,0.4-0.4,0.6
		c-2.2-0.5-4.3-1.2-6.1-2.5l-3.1-2.2c-1.6-1-3.1-2-4.9-2.4c-0.4-0.1-1-0.2-1.4,0c-0.3,0.2-0.2,0.6-0.2,1c0.3,1.4,1.8,2.2,2.9,2.8
		c1,0.7,1.8,1.7,1.6,3c-0.1,0.3-0.3,0.5-0.6,0.6c-0.8,0.2-1.8,0.2-2.7-0.1c-0.9-0.3-1.7-1.2-2.6-1.6c-0.3-0.2-0.8-0.1-1.2-0.1
		c-1.5,0.1-3.3,0.6-3.8,2.2c-0.4,1.3-0.1,2.7,0.3,3.9c0.3,0.9,0.7,1.8,1.2,2.7l1.5,2.7c0.7,1.3,1.1,2.7,0.8,4.2c-0.3,0-0.5,0-0.8,0
		c0.2-0.9,0.1-2-0.2-2.8c-0.9-2.2-2.4-4.2-3.2-6.4c-0.6-1.7-1.1-4.3,0.4-5.8c1.3-1.3,3-1.5,4.7-1.5c1.5,0.2,2.4,2,4,1.9
		c0.4,0,0.8,0,1.2-0.1c0.1,0,0.1-0.2,0.1-0.2c-0.3-1.5-1.2-2-2.5-2.7c-1.1-0.6-2.1-1.7-2-3c-0.1-0.6,0.1-1.1,0.6-1.4
		c0.9-0.4,2-0.1,2.9,0.2L37.4,31.8L37.4,31.8z"/>
	<path class="st7" d="M93.8,31.6c0.3,0.5,0.2,1.3,0.1,1.9c-0.8,2.1-2.7,2-3.8,3.4c-0.3,0.4-0.5,0.9-0.6,1.5c0,0.1,0,0.2,0.1,0.2
		c0.9,0.1,1.9,0.2,2.5-0.3c1-0.6,1.8-1.6,3-1.5c2,0.1,4.2,0.6,5,2.7c0.7,2.2-0.2,4.4-1.1,6.3l-0.7,1.4l-1.2,2.1
		c-0.6,1.2-1.1,2.5-0.8,4c-0.3,0-0.5,0-0.8,0c-0.4-1.8,0.3-3.4,1.1-4.8l1.3-2.4c0.8-1.8,1.7-3.6,1.5-5.8c-0.1-1.1-1.1-2.1-2.2-2.4
		c-0.9-0.3-1.8-0.4-2.8-0.3c-1.1,0.4-1.9,1.5-3.1,1.8c-0.8,0.1-1.7,0.2-2.4,0c-0.3-0.1-0.5-0.4-0.6-0.6c-0.1-1.3,0.7-2.3,1.7-3
		c1.1-0.6,2.5-1.4,2.8-2.8c0-0.3,0.1-0.9-0.3-1c-0.8-0.2-1.5,0.1-2.2,0.3c-2.6,0.9-4.9,2.8-7.3,4.4c-1.9,1.2-4,2-6.2,2.4
		c-0.1,0-0.2-0.1-0.2-0.2c0-0.1-0.1-0.3,0-0.5l0.1-0.1c2.4-0.5,4.7-1.4,6.7-2.9l2.5-1.7c1.9-1.2,3.8-2.4,6-2.6
		C92.8,31,93.4,31,93.8,31.6L93.8,31.6z"/>
	<path class="st5" d="M47.4,31.9l-1-0.4C46.7,31.4,47.1,31.6,47.4,31.9L47.4,31.9z"/>
	<path class="st5" d="M80.4,31.6l-1,0.4C79.6,31.6,80,31.4,80.4,31.6L80.4,31.6z"/>
	<path class="st7" d="M45.6,32c0.2,0,0.4-0.2,0.5-0.3c0.5,0.2,0.9,0.4,1.4,0.5c0.2,0.4,0.4,0.7,0.8,1c-1.2-0.3-2.3-0.7-3.4-1.2
		c0-0.1,0.1-0.3,0.1-0.4C45.2,31.8,45.4,32,45.6,32L45.6,32z"/>
	<path class="st7" d="M81.9,32c-1.1,0.5-2.3,0.9-3.5,1.2c0.3-0.3,0.6-0.7,0.8-1c0.5-0.2,0.9-0.3,1.4-0.5c0.2,0.1,0.5,0.4,0.8,0.3
		c0.2-0.1,0.3-0.2,0.4-0.4L81.9,32L81.9,32z"/>
	<path class="st7" d="M62.8,32.1c-0.5,0.2-1.1,0.7-1.2,1.2c-0.2,0.7,0.1,1.4,0.7,1.9l0.3,0.2c-2,0-4,0.2-6,0.4
		c0.6-0.3,1.2-0.9,1.2-1.7c0-0.4-0.3-0.7-0.6-1c-0.3-0.2-0.7-0.3-1.1-0.3C58.3,32.5,60.5,32.2,62.8,32.1L62.8,32.1z"/>
	<path class="st7" d="M70.3,32.9c-0.6,0.1-1.2,0.2-1.5,0.8c-0.3,0.4-0.1,1,0.1,1.4c0.3,0.4,0.7,0.6,1,0.8c-1.8-0.3-3.7-0.4-5.6-0.5
		c0.5-0.3,1-0.8,1-1.4c0.1-0.7-0.2-1.2-0.7-1.7c-0.1-0.1-0.3-0.2-0.5-0.2C66.3,32.2,68.3,32.5,70.3,32.9L70.3,32.9z"/>
	<path class="st3" d="M64.9,32.9c0.3,0.4,0.4,1.1,0.2,1.5c-0.3,0.7-1.1,1.1-1.8,1c-0.6-0.1-1.3-0.5-1.4-1.1c-0.2-0.5,0-1.1,0.4-1.5
		c0.4-0.4,1-0.6,1.6-0.5C64.2,32.3,64.6,32.5,64.9,32.9L64.9,32.9z"/>
	<path class="st2" d="M64.6,33.3c0.2,0.3,0.2,0.7,0.1,1c-0.2,0.4-0.5,0.6-0.9,0.7c-0.5,0.1-1-0.1-1.3-0.6c-0.2-0.3-0.2-0.8,0-1.2
		c0.3-0.4,0.8-0.6,1.4-0.5C64.1,32.8,64.4,33,64.6,33.3L64.6,33.3z"/>
	<path class="st7" d="M50.4,32.9l-0.7,0.3c0-0.1,0.1-0.3,0-0.4C49.9,32.8,50.1,32.9,50.4,32.9L50.4,32.9z"/>
	<path class="st7" d="M77.1,32.8c0,0.2,0,0.5,0.3,0.6c0,0,0.1,0,0.1,0L77,33.5c-0.4-0.2-0.8-0.3-1.2-0.5
		C76.3,33,76.7,32.9,77.1,32.8L77.1,32.8z"/>
	<path class="st6" d="M64.5,33.5c0.1,0.3,0.1,0.6-0.1,0.9c-0.3,0.4-0.7,0.5-1.2,0.4c-0.3-0.1-0.7-0.4-0.8-0.8
		c-0.1-0.3,0-0.6,0.2-0.8c0.3-0.3,0.7-0.4,1.1-0.3C64,32.9,64.4,33.2,64.5,33.5L64.5,33.5z"/>
	<path class="st3" d="M57.6,34c0.2,0.6-0.2,1.1-0.6,1.4c-0.7,0.6-1.7,0.7-2.5,0.5c-0.3-0.1-0.7-0.4-0.8-0.8c-0.1-0.5,0.1-1,0.5-1.4
		c0.7-0.6,1.8-0.9,2.7-0.5C57.1,33.3,57.5,33.6,57.6,34L57.6,34z"/>
	<path class="st3" d="M72.8,34.4c0.1,0.3,0.1,0.7-0.1,0.9c-0.5,0.7-1.3,0.8-2,0.6c-0.7-0.1-1.5-0.6-1.8-1.3
		c-0.1-0.3-0.1-0.7,0.1-0.9c0.4-0.6,1.1-0.7,1.8-0.6C71.6,33.2,72.5,33.6,72.8,34.4L72.8,34.4z"/>
	<path class="st2" d="M60.4,33.5c0.2,0.2,0.2,0.6,0.1,0.8c-0.1,0.3-0.4,0.4-0.7,0.5c-0.4,0.1-0.7-0.1-0.9-0.4
		c-0.1-0.2-0.1-0.5,0-0.8c0.1-0.3,0.4-0.4,0.7-0.5C59.9,33.1,60.2,33.2,60.4,33.5L60.4,33.5z"/>
	<path class="st2" d="M67.8,33.6c0.2,0.2,0.2,0.6,0.1,0.8c-0.1,0.3-0.4,0.5-0.7,0.5c-0.3,0-0.7-0.2-0.8-0.5c-0.1-0.2-0.1-0.6,0-0.8
		c0.2-0.3,0.6-0.5,1-0.4C67.4,33.3,67.6,33.4,67.8,33.6L67.8,33.6z"/>
	<path class="st7" d="M53.3,35c0.1,0.5,0.5,0.9,1,1l0.5,0.1c-1.4,0.3-2.7,0.6-3.9,1.3c0.3-0.7,0.2-1.6-0.3-2.2
		c-0.2-0.3-0.5-0.5-0.8-0.6c1.5-0.6,3.1-1.1,4.6-1.5C53.8,33.6,53.2,34.3,53.3,35L53.3,35z"/>
	<path class="st3" d="M60.3,33.6c0.1,0.2,0.1,0.5,0,0.7c-0.1,0.2-0.3,0.3-0.6,0.3c-0.3,0-0.5-0.1-0.6-0.4c-0.1-0.2-0.1-0.4,0-0.6
		c0.1-0.3,0.4-0.4,0.6-0.4C59.9,33.3,60.1,33.4,60.3,33.6L60.3,33.6z"/>
	<path class="st7" d="M76.5,34.9c-0.7,0.2-1.2,1-1.3,1.6c-0.1,0.4,0,0.8,0.2,1.2c-1.2-0.8-2.6-1.1-3.9-1.5c0.5-0.1,1.1-0.2,1.5-0.7
		c0.2-0.3,0.3-0.7,0.1-1.1c-0.2-0.4-0.6-0.9-1-1.1C73.6,33.7,75.1,34.3,76.5,34.9L76.5,34.9z"/>
	<path class="st3" d="M67.5,33.6c0.2,0.2,0.3,0.5,0.1,0.8c-0.1,0.3-0.4,0.4-0.7,0.4c-0.3,0-0.5-0.2-0.6-0.4c-0.1-0.2,0-0.5,0.1-0.7
		C66.8,33.3,67.3,33.3,67.5,33.6L67.5,33.6z"/>
	<path class="st2" d="M57.1,34c0.1,0.3,0,0.6-0.2,0.8c-0.6,0.6-1.4,0.9-2.3,0.7c-0.3-0.1-0.6-0.3-0.7-0.5c-0.1-0.4,0.2-0.8,0.5-1.1
		c0.6-0.4,1.4-0.6,2.1-0.3C56.8,33.7,57,33.9,57.1,34L57.1,34z"/>
	<path class="st2" d="M72.4,34.5c0.1,0.1,0.1,0.3,0.1,0.5c-0.2,0.5-0.7,0.6-1.2,0.6c-0.8,0-1.6-0.3-2-1.1c-0.1-0.2,0-0.5,0.2-0.7
		c0.5-0.5,1.3-0.3,1.9-0.2C71.8,33.8,72.1,34.1,72.4,34.5L72.4,34.5z"/>
	<path class="st4" d="M57,34.1c0.1,0.3-0.2,0.6-0.4,0.8c-0.6,0.5-1.5,0.7-2.2,0.3c-0.2-0.1-0.3-0.3-0.3-0.5c0.1-0.5,0.6-0.9,1.1-1
		C55.8,33.6,56.6,33.5,57,34.1L57,34.1z"/>
	<path class="st4" d="M72.2,34.6c0,0.1,0.1,0.3,0,0.4c-0.4,0.4-0.9,0.4-1.4,0.3c-0.5-0.1-1.1-0.4-1.3-1c0-0.1,0-0.3,0.1-0.4
		c0.5-0.5,1.3-0.4,1.8-0.2C71.7,34,72.1,34.2,72.2,34.6L72.2,34.6z"/>
	<path class="st2" d="M52.8,35c0.2,0.2,0.2,0.6,0.1,0.9c-0.1,0.3-0.4,0.4-0.7,0.4c-0.4,0-0.7-0.1-0.9-0.4c-0.2-0.2-0.1-0.6,0-0.8
		c0.2-0.3,0.6-0.5,1-0.4C52.5,34.7,52.7,34.8,52.8,35L52.8,35z"/>
	<path class="st2" d="M75,35.1c0.1,0.2,0.1,0.6,0,0.9c-0.2,0.2-0.4,0.4-0.8,0.4c-0.3,0-0.5-0.2-0.7-0.4c-0.1-0.2-0.2-0.5-0.1-0.8
		c0.1-0.3,0.4-0.5,0.7-0.5C74.5,34.6,74.8,34.8,75,35.1L75,35.1z"/>
	<path class="st3" d="M52.8,35.2c0.1,0.2,0.1,0.5,0,0.7c-0.2,0.2-0.4,0.3-0.7,0.3c-0.2,0-0.5-0.2-0.5-0.5c-0.1-0.2,0-0.5,0.2-0.6
		c0.2-0.2,0.4-0.2,0.7-0.2C52.5,34.9,52.7,35,52.8,35.2L52.8,35.2z"/>
	<path class="st3" d="M74.9,35.2c0.1,0.2,0.1,0.5,0,0.7c-0.2,0.3-0.5,0.4-0.8,0.3c-0.2-0.1-0.5-0.3-0.5-0.6c0-0.3,0.1-0.5,0.4-0.7
		C74.2,34.7,74.7,34.9,74.9,35.2L74.9,35.2z"/>
	<path class="st3" d="M50.7,35.8c0.2,0.5,0.3,1.2,0,1.7c-0.2,0.2-0.4,0.4-0.7,0.3c0.4-0.2,0.5-0.8,0.4-1.2c-0.1-0.6-0.4-1.1-1-1.4
		c-0.1,0-0.3-0.1-0.4,0c0.2-0.3,0.5-0.3,0.8-0.2C50.2,35.1,50.5,35.4,50.7,35.8L50.7,35.8z"/>
	<path class="st3" d="M77.3,35.3c-0.3-0.1-0.6,0.1-0.8,0.3c-0.5,0.5-0.8,1.3-0.5,2.1c0.1,0.1,0.2,0.3,0.3,0.3
		c-0.3,0.1-0.6-0.1-0.8-0.4c-0.3-0.6-0.2-1.5,0.3-2.1c0.3-0.3,0.6-0.6,1.1-0.5C77,35.1,77.1,35.2,77.3,35.3L77.3,35.3z"/>
	<path class="st6" d="M50.1,36.3c0.1,0.4,0.2,0.9-0.1,1.2c-0.2,0.2-0.4,0.2-0.7,0.2c-0.5-0.2-0.8-0.7-0.8-1.2c0-0.4,0-0.9,0.4-1.1
		c0.2-0.1,0.4-0.1,0.5,0C49.8,35.6,50,36,50.1,36.3L50.1,36.3z"/>
	<path class="st6" d="M77.6,35.9c0.3,0.6,0.1,1.3-0.3,1.8c-0.2,0.2-0.5,0.3-0.8,0.2c-0.1,0-0.3-0.1-0.3-0.3c-0.2-0.7,0-1.4,0.5-1.9
		c0.2-0.2,0.4-0.3,0.6-0.2C77.4,35.6,77.6,35.7,77.6,35.9L77.6,35.9z"/>
	<path class="st3" d="M73.1,36.8c1.1,0.4,2.3,0.8,3.1,1.8c0.2,0.3,0.3,0.6,0.3,1h-1.1c0.1-0.3-0.1-0.5-0.3-0.7
		c-1.1-0.8-2.5-1.1-3.9-1.5c-3.6-0.8-7.7-0.9-11.6-0.7c-2.7,0.2-5.3,0.6-7.6,1.5c-0.5,0.2-1.1,0.5-1.4,1c0,0.1-0.1,0.2,0,0.3h-1.1
		c-0.1-1.3,1.4-2,2.3-2.5c2.5-1,5.3-1.3,8.2-1.6c4-0.3,8.1,0,11.8,0.8L73.1,36.8L73.1,36.8z"/>
	<path class="st9" d="M73.3,38.3c0.7,0.3,1.4,0.5,1.9,1.1c0.1,0.1,0.1,0.2,0,0.3H50.8c-0.1-0.3,0.2-0.6,0.5-0.7
		c1.9-1.1,4.2-1.5,6.4-1.8c4.2-0.5,8.9-0.4,12.9,0.4C71.5,37.7,72.4,38,73.3,38.3L73.3,38.3z"/>
	<polygon class="st2" points="89.6,37.2 89.5,37.2 89.6,37.2 	"/>
	<path class="st8" d="M99.3,39.9c0.5,1.8-0.2,3.5-0.9,5l-0.6,1.3l-1.5,2.7c-0.7,1.3-1.1,2.7-0.8,4.3c-0.3,0-0.5,0-0.8,0
		c-0.5-0.6-1.4-0.6-2.2-0.5c-0.4,0.1-0.8,0.2-1,0.6c-0.5,0.9-0.3,2.2,0,3.1c0.2,0.8,0.6,1.5,0.5,2.4c-0.1,0.3-0.3,0.6-0.6,0.8
		c-0.4-0.4-0.4-0.9-0.6-1.4c-0.7-3.6-1.1-8.1,0.7-11.3l1.7-2.9c0.7-1.3,1.6-3.1,0.6-4.5c-0.2-0.3-0.5-0.6-0.8-0.8
		c0.6-0.4,1.1-1,1.8-1.1C96.7,37.7,98.7,38,99.3,39.9L99.3,39.9z M33.7,38.8c-0.9,0.7-1.4,1.7-1.2,2.8c0.6,2.6,2.8,4.6,3.5,7.2
		c1,3,0.5,6.8-0.1,9.8c-0.1,0.4-0.2,0.7-0.5,1c-0.4-0.2-0.7-0.6-0.7-1.1c0.1-1.4,0.9-2.5,0.9-3.9c0-0.7-0.1-1.3-0.7-1.7
		c-0.7-0.3-1.7-0.4-2.4-0.1c-0.1,0.1-0.3,0.2-0.4,0.3h-0.8c0.3-1.8-0.3-3.4-1.1-4.8l-1.5-2.6c-0.8-1.7-1.6-3.4-1.4-5.4
		c0.1-0.9,0.8-1.8,1.7-2.2c0.9-0.4,1.9-0.5,3-0.5C32.6,37.9,33.1,38.4,33.7,38.8L33.7,38.8z"/>
	<path class="st10" d="M50.1,38c-0.1,0-0.1,0.1-0.2,0.1c0-0.1-0.2-0.1-0.1-0.2L50.1,38L50.1,38z"/>
	<path class="st7" d="M34.5,39.3c-0.8,0.5-1.2,1.3-1,2.3c0.2,0.8,0.5,1.5,0.9,2.2l1.7,2.8c1.9,3.5,1.5,8.3,0.7,12.2
		c-0.2,0.7-0.4,1.6-1.2,1.9c-0.7,0.1-1.2-0.4-1.6-1c-0.7-1.5,0.3-2.9,0.5-4.2c0.1-0.5,0.2-1.2-0.1-1.6c-0.4-0.3-1-0.4-1.4-0.1
		c-0.4,0.5-0.6,1.2-0.8,1.8c-0.7,2.7-0.1,5.6,0.5,8.2l0.8,3.3c0.7,3.6,0.8,7.7,0.5,11.6l-0.2,2.7l-0.4,2.8L33,86.7
		c-0.2,1.9-0.4,4.1-0.2,6.1c0.1,0.4,0.2,0.7,0.3,1.1c0,0.1-0.1,0.2-0.2,0.2c-0.1,0-0.3,0.1-0.5,0.1c-0.2-0.2-0.2-0.4-0.3-0.7
		c-0.5-2.3-0.2-4.8,0.1-7.1l0.7-5.1l0.2-2.5l0.1-2.4l0-2.6c-0.1-2.5-0.3-4.9-0.8-7.2l-0.8-3.6c-0.6-2.6-1-6,0.1-8.5l0.5-1
		c0.5-0.6,1.4-0.6,2.1-0.4c0.4,0.1,0.8,0.3,0.9,0.7c0.3,0.8,0.1,1.8-0.1,2.6c-0.2,0.8-0.7,1.6-0.6,2.6c0.1,0.4,0.4,0.8,0.8,1
		c0.2,0,0.3-0.2,0.3-0.3c0.4-0.8,0.5-1.8,0.7-2.7c0.6-3.5,0.6-7.7-1.3-10.6l-1.3-2.1c-0.7-1.3-1.8-3.1-0.6-4.6
		c0.2-0.3,0.5-0.5,0.7-0.7C34,39,34.3,39.2,34.5,39.3L34.5,39.3z"/>
	<path class="st7" d="M94.2,41.5c-0.6,2.7-2.8,4.7-3.5,7.3c-0.9,3.1-0.5,6.7,0.2,9.8c0.1,0.4,0.2,0.9,0.5,1.2
		c0.2,0.1,0.4-0.2,0.6-0.3c0.7-0.7,0.2-1.8,0-2.6c-0.3-1-0.7-2.2-0.3-3.2c0.3-0.8,1.1-0.8,1.9-0.8c0.4,0.1,0.8,0.1,1.1,0.4
		c1.4,2.4,1.4,5.9,0.8,8.7l-0.5,2.5L94.2,67c-0.8,3.8-0.9,8.1-0.5,12.2l0.3,2.5l0.4,3l0.3,2.5c0.2,2.1,0.4,4.4-0.1,6.4
		c-0.1,0.2-0.1,0.5-0.3,0.6c-0.2,0-0.5,0-0.6-0.3c0-0.3,0.2-0.5,0.2-0.8c0.4-2.4,0-5-0.2-7.4l-0.5-4c-0.2-1.6-0.3-3.2-0.4-4.8l0-2.4
		c0-3.2,0.3-6.2,1-9.1l0.6-2.4c0.6-2.8,1.2-6.5-0.3-9c-0.1-0.3-0.4-0.4-0.7-0.4c-0.4,0-0.9,0.1-1,0.5c-0.2,0.8,0.1,1.6,0.3,2.4
		c0.4,1,0.9,2.6,0,3.6c-0.4,0.4-0.8,0.7-1.4,0.6c-0.6-0.2-0.9-0.8-1.1-1.4c-0.6-2.7-1.1-5.7-0.7-8.6c0.2-1.5,0.6-2.9,1.3-4.2
		l1.6-2.7c0.6-1.1,1.3-2.4,0.7-3.6c-0.2-0.3-0.5-0.6-0.8-0.8c0.2-0.1,0.5-0.3,0.7-0.4C93.9,39.5,94.4,40.4,94.2,41.5L94.2,41.5z"/>
	<path class="st11" d="M88.4,62.7c-1.7-0.4-3.5,0-5,0.6C81.7,64,80,64.8,78,64.5c-2.7-0.5-4.9-2.3-7.9-1.8c-2.7,0.5-4.9,2.3-7.8,1.8
		c-3.3-0.5-6.1-2.6-9.7-1.6l-1,0.3l-2.5,0.9c-1.3,0.5-3,0.6-4.4,0.2l-1.3-0.4l-2.3-0.8c-0.9-0.3-1.7-0.5-2.7-0.5V40h50V62.7
		L88.4,62.7z"/>
	<path class="st7" d="M28.7,53.5c0.1,0.1,0,0.2-0.1,0.3c-2,2.3-2.3,5.6-1.7,8.6c0.4,1.8,0.9,3.6,1.2,5.5c0.3,2,0.5,4,0.6,6.1l0,2.7
		l-0.1,2.3l-0.3,2.5L27.9,84c-0.5,3-0.8,6.6,0.4,9.3c0,0.1-0.1,0.2-0.1,0.3c-0.1,0.1-0.3,0.2-0.5,0.1c-0.3-0.2-0.3-0.6-0.4-0.9
		c-0.7-2.2-0.7-4.9-0.4-7.3l0.5-3.7c0.7-5.4,0.6-11.5-0.6-16.7c-0.8-2.8-1.4-6.4-0.4-9.2c0.4-1,0.9-2,1.6-2.8c0.1-0.1,0.2-0.1,0.3,0
		C28.5,53.2,28.6,53.3,28.7,53.5L28.7,53.5z"/>
	<path class="st7" d="M98.9,53.4c2.1,2.5,2.4,6.3,1.6,9.5l-0.8,3.2c-1.2,5.2-1.1,11.4-0.3,16.8l0.4,2.8c0.3,2.6,0.3,5.6-0.7,7.9
		c-0.1,0.1-0.2,0.2-0.3,0.1c-0.1-0.1-0.3-0.1-0.4-0.3l0-0.2c1-2.3,0.9-5.3,0.6-7.9l-0.5-3.6c-0.7-5.3-0.6-11.3,0.6-16.4l0.7-2.9
		c0.7-3,0.4-6.5-1.6-8.9c-0.1-0.1-0.1-0.2-0.1-0.3c0.1-0.2,0.3-0.3,0.5-0.4C98.7,53.1,98.8,53.3,98.9,53.4L98.9,53.4z"/>
	<path class="st8" d="M97.9,53.4c-0.1,0.2,0.1,0.4,0.2,0.6c1.9,2.3,2.1,5.7,1.5,8.6C99,65,98.5,67.5,98.2,70
		c-0.4,3.4-0.3,7.2,0,10.6l0.3,2.6l0.4,2.8c0.3,2.4,0.3,5.1-0.6,7.2c-0.1,0.1-0.1,0.2-0.1,0.3l-3.7,0.4c0.6-2.1,0.4-4.5,0.2-6.7
		l-0.4-2.8l-0.4-2.6L93.8,79c-0.4-4.6-0.2-9.4,0.9-13.6l0.6-2.5c0.7-2.9,1-6.7-0.4-9.4l-0.1-0.1H97.9L97.9,53.4z M32,53.4
		c-1.1,2.1-1.3,4.9-0.9,7.4l0.3,1.7l0.6,2.8c1.1,4.1,1.3,8.8,1,13.3l-0.3,2.6L32.4,84L32,86.8c-0.2,2.3-0.5,4.9,0.1,7.1l-3.7-0.4
		c-0.1-0.4-0.3-0.7-0.4-1.1c-0.7-2.3-0.5-5.2-0.1-7.7l0.4-2.7c0.7-5.5,0.6-11.6-0.6-16.8l-0.6-2.5c-0.6-2.7-0.5-6,1.2-8.2
		c0.2-0.3,0.6-0.6,0.5-1H32L32,53.4z"/>
	<path class="st8" d="M34.3,53.9c0.2,0.3,0.2,0.7,0.2,1c-0.2,1.7-1.8,3.9,0,5.5l-2.3-0.3c-0.3-2.1-0.3-4.5,0.9-6.2
		C33.4,53.6,33.9,53.7,34.3,53.9L34.3,53.9z"/>
	<path class="st8" d="M94.1,54.5c0.8,1.6,0.8,3.7,0.6,5.6l-2.3,0.4c0.8-0.6,1-1.6,0.8-2.5c-0.2-1.2-0.8-2.2-0.8-3.4
		c0-0.2,0-0.4,0.2-0.6c0.3-0.2,0.9-0.4,1.2-0.1L94.1,54.5L94.1,54.5z"/>
	<path class="st5" d="M41.5,63.5l2.4,0.8c1.3,0.4,2.9,0.6,4.3,0.2l1.1-0.3l2.7-1c1.4-0.5,3.2-0.5,4.6-0.1l1.3,0.4l2.6,0.8
		c1.5,0.4,3.4,0.7,4.9,0.1c2.2-0.6,4.3-2,6.9-1.5c2.6,0.5,4.7,2.2,7.5,1.8c0.8-0.1,1.5-0.4,2.3-0.6l2.3-0.8c1.2-0.4,2.7-0.6,4-0.3
		v8.4c-1.7-0.4-3.5,0-5,0.6c-1.7,0.6-3.5,1.5-5.5,1.1c-2.6-0.5-4.8-2.3-7.7-1.8c-2.7,0.4-4.9,2.3-8,1.8c-0.8-0.1-1.6-0.3-2.4-0.6
		l-2.6-0.8c-1.4-0.4-3.1-0.6-4.6-0.2l-1.2,0.4l-2.4,0.9c-1.3,0.5-3,0.6-4.4,0.2l-1.2-0.4l-2.4-0.8c-0.9-0.3-1.8-0.5-2.7-0.5l0-8.4
		C39.5,62.9,40.5,63.2,41.5,63.5L41.5,63.5z"/>
	<path class="st11" d="M57.4,72l3.2,1c1.5,0.4,3.3,0.7,4.8,0.1c2.2-0.6,4.3-2,6.8-1.6c2.7,0.5,4.9,2.3,7.9,1.8
		c2.4-0.4,4.5-2,7.1-1.8c0.4,0,0.8,0.1,1.2,0.1l0,19.9c-0.1,1.4-0.8,2.9-2.3,3.4c-0.7,0.3-1.5,0.4-2.3,0.4l-16.3,0
		c-1.5,0.4-3,1.5-3.7,3c-0.2,0.3-0.3,0.7-0.4,1c-0.4-1.5-1.7-3.1-3.2-3.7c-0.3-0.2-0.7-0.3-1.1-0.4l-16.7,0
		c-1.6-0.1-3.2-0.8-3.8-2.3c-0.4-1-0.3-2.2-0.3-3.4V71.5c0.9,0,1.7,0.2,2.6,0.5l3,1c1.4,0.5,3.2,0.6,4.7,0.2
		c2.2-0.6,4.1-1.9,6.7-1.6C56,71.6,56.7,71.8,57.4,72L57.4,72z"/>
	<path class="st7" d="M36.2,89.8c0.4,1,0.4,2.1,0.6,3.2c0.1,0.9,0.9,1.7,1.8,2.2c1.4,0.7,3,1.1,4.6,1.5c0.5,0.2,1.1,0.5,1.2,1
		c0.1,0.3,0,0.7-0.3,0.9c-0.4,0.4-1,0.4-1.5,0.3c-0.6-0.2-1.1-0.9-1.7-1.1c-0.5-0.1-1.1-0.3-1.7-0.2c-0.1,0-0.2,0.1-0.2,0.2
		c-0.1,0.3,0.2,0.5,0.3,0.8c-0.4-0.2-0.9-0.5-1.3-0.7c0-0.3,0.1-0.6,0.4-0.8c0.5-0.4,1.2-0.4,1.8-0.3c0.6,0.3,1.4,0.3,1.9,0.8
		c0.4,0.3,0.8,0.6,1.3,0.4c0.1,0,0.1-0.1,0.1-0.1c0-0.2-0.2-0.4-0.4-0.5c-0.6-0.3-1.3-0.3-1.9-0.5c-1.4-0.4-2.8-0.9-4.1-1.7
		c-0.3-0.3-0.7-0.6-0.8-1L35.9,92c-0.1-1.1-0.3-2.1-0.8-3c-0.1-0.1-0.1-0.1-0.2-0.2c-0.3,0.2-0.3,0.6-0.3,1c0.2,0.9,0.8,1.6,1.2,2.4
		l0.5,2.3c-0.1,0.3-0.3,0.6-0.7,0.7c-0.8,0.2-1.3-0.4-1.8-1c-0.6-0.9-0.9-1.8-1-2.9c0-0.9,0-1.8,0.1-2.7c0.1-0.1,0.2-0.1,0.3-0.1
		c0.1,0,0.3,0,0.4,0.2l0,0.6l0,0c-0.2,1.7,0,3.3,1,4.6c0.2,0.3,0.5,0.6,0.8,0.6c0.2-0.2,0.1-0.5,0.1-0.7c-0.3-1.3-1.5-2.2-1.8-3.6
		c0-0.4,0.1-0.9,0.1-1.3c0.1-0.4,0.5-0.7,0.9-0.8C35.7,88.1,36,89.1,36.2,89.8L36.2,89.8z"/>
	<path class="st7" d="M92.8,88.6l0.2,0.3c0,0.6,0.2,1.2-0.1,1.8c-0.4,1.2-1.5,2-1.6,3.3c0,0.2,0,0.4,0.1,0.5c0.3,0,0.5-0.2,0.7-0.4
		c1-1.3,1.2-3,1.1-4.7l-0.1-0.6c0.1-0.2,0.3-0.2,0.5-0.2c0.1,0,0.2,0.1,0.2,0.1c0.1,1.2,0.2,2.6-0.1,3.7c-0.3,1.1-0.9,2.4-2.1,2.9
		c-0.3,0.1-0.6,0-0.8-0.1c-0.2-0.2-0.3-0.4-0.4-0.6l0.6-2.3c0.5-0.9,1.3-1.7,1.2-2.8c0-0.2-0.1-0.4-0.3-0.5c-0.1,0-0.2,0.2-0.3,0.3
		c-0.4,0.9-0.7,1.9-0.8,2.9c-0.2,0.8-0.4,1.5-0.6,2.3c-0.9,1.3-2.2,1.7-3.5,2.2c-1,0.3-1.9,0.6-3,0.8c-0.3,0.1-0.6,0.2-0.7,0.5
		c0,0.1,0.1,0.2,0.1,0.2c0.9,0.4,1.4-0.8,2.2-1c0.8-0.3,2-0.7,2.8,0c0.2,0.2,0.4,0.4,0.4,0.8c-0.4,0.2-0.9,0.5-1.3,0.7
		c0.1-0.3,0.5-0.5,0.3-0.9c-0.2-0.2-0.6-0.2-0.9-0.2c-0.7,0.1-1.3,0.2-1.8,0.7c-0.5,0.5-1,0.8-1.7,0.6c-0.4-0.1-0.9-0.4-1-0.8
		c-0.1-0.5,0.1-0.9,0.5-1.2c0.7-0.4,1.6-0.5,2.4-0.8c1.3-0.4,2.6-0.8,3.8-1.7c1.2-0.9,0.9-2.4,1.2-3.6c0.1-0.8,0.4-1.5,0.7-2.2
		c0.2-0.4,0.5-0.7,1-0.7C92.3,88.1,92.6,88.3,92.8,88.6L92.8,88.6z"/>
	<path class="st8" d="M35.5,90.9l0.2,0.9c-0.5-0.7-1.1-1.5-0.9-2.5l0.1-0.1C35.2,89.6,35.4,90.3,35.5,90.9L35.5,90.9z"/>
	<path class="st8" d="M91.8,90.7c-0.2,0.4-0.4,0.7-0.7,1.1c0.1-0.8,0.3-1.6,0.6-2.4l0.2-0.3C92.3,89.6,92,90.2,91.8,90.7L91.8,90.7z
		"/>
	<path class="st8" d="M35.3,93.6c0.1,0.2,0.1,0.5,0,0.7c-0.6-0.3-0.9-0.9-1.2-1.5c-0.3-0.6-0.4-1.3-0.4-2.1
		C34.2,91.7,35,92.6,35.3,93.6L35.3,93.6z"/>
	<path class="st8" d="M91.8,94.1c-0.1,0.1-0.2,0.2-0.4,0.2c-0.1-0.6,0.2-1.1,0.4-1.5c0.4-0.7,0.9-1.3,1.1-2
		C93,92,92.7,93.1,91.8,94.1L91.8,94.1z"/>
	<path class="st8" d="M93.7,94.1c0.2,0.2,0.5,0.3,0.8,0.2l0.2-0.2l0.8-0.1c-0.8,2.6-2.5,4.9-4.8,6.8l-1.5-1.8
		c0.1-0.1,0.2-0.2,0.2-0.3c0-0.3-0.2-0.6-0.5-0.7c0-0.5-0.3-0.9-0.7-1.1c-0.3-0.1-0.6-0.2-0.9-0.2c1.1-0.4,2.3-0.9,3.1-2
		c0.1,0.3,0.4,0.6,0.7,0.7c0.8,0.2,1.5-0.4,2-1.1c0.3-0.4,0.5-0.9,0.7-1.4C93.7,93.3,93.4,93.7,93.7,94.1L93.7,94.1z M35.3,95.4
		c0.5,0.1,0.9-0.2,1.1-0.7c0,0,0-0.1,0-0.1c0.8,1.1,2,1.5,3.1,2c-0.5,0.1-1.1,0.2-1.5,0.8c-0.1,0.2-0.2,0.3-0.1,0.5
		c-0.3,0.1-0.5,0.5-0.5,0.8c0,0.1,0.1,0.2,0.2,0.2l-1.5,1.8c-2.3-1.9-3.9-4.2-4.8-6.8l0.8,0.1c0.1,0.1,0.2,0.2,0.3,0.2
		c0.3,0,0.7-0.1,0.8-0.4c0-0.3-0.2-0.6-0.2-0.9C33.4,94,34.1,95.3,35.3,95.4L35.3,95.4z"/>
	<path class="st7" d="M31.2,93.9c0.9,2.6,2.6,5,4.9,7l-0.1,0.2c-0.1-0.1-0.2-0.1-0.3-0.1c-0.2,0-0.3,0.1-0.4,0.2
		c-2.4-2.1-4-4.6-4.8-7.3C30.6,93.9,30.9,93.9,31.2,93.9L31.2,93.9z"/>
	<path class="st7" d="M91.6,101.2c-0.1-0.1-0.3-0.3-0.4-0.3c-0.1,0-0.2,0.1-0.3,0.1l-0.1-0.2c2.3-1.9,4-4.3,4.8-6.9
		c0.3-0.1,0.6-0.1,0.8-0.1C95.7,96.6,94,99.1,91.6,101.2L91.6,101.2z"/>
	<path class="st8" d="M43.3,97.8l0.2,0.2c-0.1,0.2-0.4,0.1-0.6,0.1c-0.3-0.2-0.6-0.4-0.9-0.6C42.5,97.5,42.9,97.6,43.3,97.8
		L43.3,97.8z"/>
	<path class="st8" d="M83.3,98c0.2-0.3,0.5-0.3,0.8-0.4l0.7-0.2C84.3,97.7,83.9,98.3,83.3,98L83.3,98z"/>
	<path class="st8" d="M41.5,98.4c0.6,0.6,1.5,1.1,2.4,0.7c-0.1,0.4-0.3,0.9-0.4,1.4c-1.3-0.4-2.6-1-3.9-1.6c0-0.3-0.4-0.5-0.4-0.9
		c0.2-0.1,0.5-0.1,0.7-0.1C40.5,97.9,41.1,98,41.5,98.4L41.5,98.4z"/>
	<path class="st8" d="M87.6,97.9c0,0.3-0.4,0.5-0.4,0.8c-1.3,0.7-2.6,1.2-3.9,1.7L82.9,99c0.7,0.3,1.5,0.2,2.1-0.4
		c0.3-0.3,0.6-0.6,1-0.7c0.5-0.1,1-0.2,1.5-0.2C87.5,97.9,87.6,97.9,87.6,97.9L87.6,97.9z"/>
	<path class="st7" d="M38.2,98.2c4,2.4,8.5,3.6,13.3,4.2l2.5,0.3l2.7,0.2l3.2,0.1l8,0l3-0.1l2.5-0.2c5.5-0.5,10.8-1.7,15.4-4.5
		c0.1,0,0.2,0,0.2,0c0.1,0.2,0.3,0.4,0.2,0.6c-1.4,0.9-2.9,1.6-4.4,2.2c-3.9,1.5-8.1,2.2-12.5,2.5l-2.9,0.2l-3,0.1h-4.6l-2.9,0
		l-2.9-0.1l-2.5-0.2c-5.7-0.5-11.1-1.7-15.8-4.6c-0.1-0.1-0.1-0.2-0.1-0.3C37.7,98.3,37.9,98,38.2,98.2L38.2,98.2z"/>
	<path class="st8" d="M51.8,103.4l2.4,0.2l2.8,0.2l3,0.1l7.7,0l3-0.1l2.6-0.2c5.6-0.5,11-1.7,15.6-4.5l1.7,2.1l0,0
		c-2.1,1.9-4.6,2.9-7.1,3.7c-1.3,0.4-2.7,0.8-4,1.1l-2.6,0.5l-3.2,0.5l-3.6,0.5l-3.7,0.4l-3.2,0.2l-3.7-0.3l-3.4-0.3l-3.3-0.4
		l-3.1-0.5l-2.6-0.5c-3.8-0.9-7.6-2-10.7-4.5l-0.4-0.4l1.7-2.1C41.9,101.6,46.8,102.8,51.8,103.4L51.8,103.4z"/>
	<path class="st7" d="M35.7,101.1c2.8,2.5,6.2,3.6,9.6,4.6l2.2,0.5l2.4,0.5l3,0.5l3.4,0.4L60,108l3.4,0.3l3.9-0.3l3.6-0.4l3.1-0.4
		l2.9-0.5l2.6-0.5c3.7-0.9,7.3-1.9,10.4-4.2l1-0.9c0.2-0.1,0.4,0.1,0.5,0.3c0.1,0.1,0.1,0.2,0,0.3c-2,2-4.5,3-7,3.9
		c-2.6,0.9-5.4,1.5-8.2,2l-2.8,0.4l-3.5,0.4l-3.7,0.4l-3.1,0.2l-3.5-0.3l-3.6-0.4l-3.3-0.4l-2.8-0.5l-2.6-0.5l-2.4-0.6
		c-3.4-0.9-6.7-2-9.5-4.4c-0.2-0.2-0.5-0.4-0.5-0.6C35.3,101.3,35.5,101.1,35.7,101.1L35.7,101.1z"/>
	<polygon class="st2" points="52.4,47.6 52,50.5 54.4,52.5 52.1,54.3 52.4,57.4 49.7,57 49.6,57 47.7,59.5 47.7,59.5 46,57.1 
		43,57.4 43.4,54.5 43.2,54.4 41,52.5 41,52.5 43.3,50.8 43,47.6 45.7,48.1 45.8,48.1 47.7,45.6 49.4,48 52.4,47.6 	"/>
	<path class="st7" d="M52.1,47.9l-0.4,2.7l2.3,1.9l-2.2,1.6l0.3,3l-2.6-0.4L47.7,59L47.6,59l-1.5-2.1l-2.9,0.3l0.4-2.7l-2.3-1.9
		l2.2-1.6l-0.3-3c0.9,0.1,1.7,0.3,2.6,0.4l1.8-2.3l1.6,2.2L52.1,47.9L52.1,47.9z"/>
	<path class="st2" d="M68.1,47.6c-0.1,1-0.3,1.9-0.4,2.9c0.8,0.7,1.6,1.3,2.4,2c-0.8,0.6-1.5,1.2-2.3,1.7c0.1,1.1,0.2,2.1,0.3,3.2
		c-0.9-0.2-1.9-0.3-2.8-0.5c0,0,0,0,0,0c-0.6,0.8-1.3,1.6-1.9,2.5c0,0,0,0,0,0c-0.6-0.8-1.1-1.6-1.7-2.4c-1,0.1-2,0.2-3.1,0.3
		c0.1-1,0.3-1.9,0.4-2.9c-0.1-0.1-0.1-0.1-0.2-0.2c-0.7-0.6-1.5-1.2-2.2-1.8c0,0,0,0,0,0c0.8-0.6,1.5-1.2,2.3-1.7
		c-0.1-1.1-0.2-2.1-0.3-3.2c0.9,0.2,1.9,0.3,2.8,0.5c0,0,0,0,0,0c0.6-0.8,1.3-1.7,1.9-2.5c0.6,0.8,1.1,1.6,1.7,2.4
		C66.1,47.9,67.1,47.7,68.1,47.6L68.1,47.6z"/>
	<path class="st7" d="M67.8,47.9c-0.1,0.9-0.3,1.8-0.4,2.7c0.8,0.6,1.5,1.3,2.3,1.9c-0.7,0.5-1.4,1.1-2.2,1.6c0.1,1,0.2,2,0.3,3
		c-0.9-0.1-1.8-0.3-2.6-0.4c-0.6,0.8-1.2,1.6-1.8,2.3c0,0-0.1-0.1-0.1-0.1c-0.5-0.7-1-1.4-1.5-2.1c-1,0.1-1.9,0.2-2.9,0.3
		c0.1-0.9,0.3-1.8,0.4-2.7c-0.8-0.6-1.5-1.3-2.3-1.9c0.7-0.5,1.4-1.1,2.2-1.6c-0.1-1-0.2-2-0.3-3c0.9,0.1,1.7,0.3,2.6,0.4
		c0.6-0.8,1.2-1.6,1.8-2.3c0.5,0.7,1,1.5,1.6,2.2C65.9,48.1,66.9,48,67.8,47.9L67.8,47.9z"/>
	<polygon class="st2" points="83.8,47.6 83.4,50.5 85.8,52.5 83.5,54.3 83.8,57.4 81.1,57 81,57 79.1,59.5 79.1,59.5 77.4,57.1 
		74.4,57.4 74.8,54.5 74.6,54.4 72.4,52.5 72.4,52.5 74.7,50.8 74.4,47.6 77.1,48.1 77.2,48.1 79.1,45.6 80.8,48 83.8,47.6 	"/>
	<path class="st7" d="M83.5,47.9l-0.4,2.7l2.3,1.9l-2.2,1.6l0.3,3l-2.6-0.4L79.1,59L79,59l-1.5-2.1l-2.9,0.3l0.4-2.7l-2.3-1.9
		l2.2-1.6l-0.3-3c0.9,0.1,1.7,0.3,2.6,0.4l1.8-2.3l1.6,2.2L83.5,47.9L83.5,47.9z"/>
	<path class="st12" d="M54.8,26.7c-0.5,0.4-1.3,0.6-1.9,0.2c-0.6-0.3-1-1-1-1.7c0,0,0-0.1,0-0.1c0,0.6,0.4,1.1,0.9,1.3
		c0.6,0.3,1.3,0.2,1.7-0.2c0.2-0.2,0.4-0.5,0.5-0.8c0.1-0.4,0-0.9-0.2-1.3c0.4,0.4,0.6,1.1,0.4,1.7C55.3,26.2,55.1,26.5,54.8,26.7
		L54.8,26.7z"/>
	<path class="st12" d="M74.4,26.7c-0.5,0.4-1.3,0.6-1.9,0.2c-0.6-0.3-1-1-1-1.7c0,0,0-0.1,0-0.1c0,0.6,0.4,1.1,0.9,1.3
		c0.6,0.3,1.3,0.2,1.7-0.2c0.2-0.2,0.4-0.5,0.5-0.8c0.1-0.4,0-0.9-0.2-1.3c0.4,0.4,0.6,1.1,0.4,1.7C74.8,26.2,74.6,26.5,74.4,26.7
		L74.4,26.7z"/>
	<path class="st11" d="M64.3,24.1c0.3,0.9,0.3,2-0.3,2.8c-0.1,0.1-0.3,0.2-0.5,0.1c-0.3-0.2-0.5-0.4-0.6-0.7
		c0.1,0.1,0.2,0.2,0.3,0.3c0.2,0.1,0.4,0,0.5-0.1c0.6-0.7,0.6-1.8,0.4-2.7C64.2,23.9,64.3,24,64.3,24.1L64.3,24.1z"/>
	<path class="st13" d="M62.6,25.5c0-0.1-0.1-0.2-0.1-0.3c-0.1-0.8-0.1-1.7,0.4-2.3c0.1-0.2,0.3-0.3,0.5-0.2c0.1,0,0.2,0.1,0.3,0.3
		c-0.2,0-0.3,0.1-0.4,0.2C62.7,23.8,62.5,24.7,62.6,25.5L62.6,25.5z"/>
	<path class="st14" d="M45.8,27.9c0.3,0.5,0.5,1.1,0.3,1.7c-0.1,0.1-0.2,0.2-0.3,0.2c-0.2,0-0.3-0.2-0.5-0.3
		c0.1,0.1,0.2,0.1,0.2,0.1c0.1,0,0.2-0.1,0.3-0.2c0.2-0.5,0.1-1.2-0.2-1.6C45.7,27.8,45.8,27.9,45.8,27.9L45.8,27.9z"/>
	<path class="st15" d="M45.1,29c0-0.1-0.1-0.1-0.1-0.2c-0.2-0.5-0.3-1-0.1-1.4c0-0.1,0.1-0.2,0.3-0.2c0.1,0,0.2,0,0.2,0.1
		c-0.1,0.1-0.2,0.1-0.2,0.2C44.8,28,44.9,28.6,45.1,29L45.1,29z"/>
	<path class="st14" d="M81,27.9c-0.3,0.5-0.5,1.1-0.3,1.7c0.1,0.1,0.2,0.2,0.3,0.2c0.2,0,0.3-0.2,0.5-0.3c-0.1,0.1-0.2,0.1-0.2,0.1
		c-0.1,0-0.2-0.1-0.3-0.2c-0.2-0.5-0.1-1.2,0.2-1.6C81.1,27.8,81,27.9,81,27.9L81,27.9z"/>
	<path class="st15" d="M81.7,29c0-0.1,0.1-0.1,0.1-0.2c0.2-0.5,0.3-1,0.1-1.4c0-0.1-0.1-0.2-0.3-0.2c-0.1,0-0.2,0-0.2,0.1
		c0.1,0.1,0.2,0.1,0.2,0.2C82,28,81.9,28.6,81.7,29L81.7,29z"/>
	<path class="st14" d="M76.8,36.2c-0.3,0.4-0.4,0.9-0.2,1.4c0,0.1,0.1,0.1,0.2,0.1c0.2,0,0.3-0.2,0.4-0.3c-0.1,0-0.1,0.1-0.2,0.1
		c-0.1,0-0.2-0.1-0.2-0.1c-0.2-0.4-0.1-1,0.2-1.3C76.9,36.1,76.8,36.2,76.8,36.2L76.8,36.2z"/>
	<path class="st15" d="M77.3,37.2c0,0,0.1-0.1,0.1-0.2c0.2-0.4,0.3-0.8,0.1-1.2c0-0.1-0.1-0.2-0.2-0.2c-0.1,0-0.1,0-0.2,0.1
		c0.1,0,0.1,0.1,0.2,0.2C77.5,36.4,77.5,36.8,77.3,37.2L77.3,37.2z"/>
	<path class="st14" d="M49.6,36.1c0.3,0.4,0.4,0.9,0.2,1.4c0,0.1-0.1,0.1-0.2,0.1c-0.2,0-0.3-0.2-0.4-0.3c0.1,0,0.1,0.1,0.2,0.1
		c0.1,0,0.2-0.1,0.2-0.1c0.2-0.4,0.1-1-0.2-1.3C49.5,36,49.6,36.1,49.6,36.1L49.6,36.1z"/>
	<path class="st15" d="M49.1,37.1c0,0-0.1-0.1-0.1-0.2c-0.2-0.4-0.3-0.8-0.1-1.2c0-0.1,0.1-0.2,0.2-0.2c0.1,0,0.1,0,0.2,0.1
		c-0.1,0-0.1,0.1-0.2,0.2C48.9,36.3,48.9,36.7,49.1,37.1L49.1,37.1z"/>
	<path class="st14" d="M64.1,34.4c-0.3,0.2-0.7,0.3-1,0.1c-0.3-0.1-0.5-0.5-0.5-0.8c0,0,0,0,0-0.1c0,0.3,0.2,0.5,0.5,0.6
		c0.3,0.1,0.7,0.1,0.9-0.1c0.1-0.1,0.2-0.2,0.3-0.4c0.1-0.2,0-0.4-0.1-0.6c0.2,0.2,0.3,0.5,0.2,0.8C64.3,34.2,64.2,34.3,64.1,34.4
		L64.1,34.4z"/>
	<path class="st15" d="M63.3,33c0.2,0,0.4,0.1,0.4,0.3c0,0.2-0.2,0.3-0.4,0.3S63,33.4,63,33.3C63,33.1,63.1,33,63.3,33L63.3,33z"/>
	<path class="st16" d="M70.4,33.8c0.2,0,0.3,0.1,0.3,0.2c0,0.1-0.1,0.2-0.3,0.2c-0.2,0-0.3-0.1-0.3-0.2
		C70.1,33.9,70.2,33.8,70.4,33.8L70.4,33.8z"/>
	<path class="st16" d="M55,34c0.2,0,0.3,0.1,0.3,0.2c0,0.1-0.1,0.2-0.3,0.2c-0.2,0-0.3-0.1-0.3-0.2C54.7,34.1,54.9,34,55,34L55,34z"
		/>
	<path class="st11" d="M70.1,34.8c0.4,0.4,1.1,0.7,1.6,0.5c0.1,0,0.2-0.1,0.2-0.2c0-0.2-0.1-0.4-0.3-0.5c0,0.1,0.1,0.2,0.1,0.3
		c0,0.1-0.1,0.2-0.2,0.2c-0.5,0.2-1.2-0.1-1.6-0.4C70,34.6,70.1,34.7,70.1,34.8L70.1,34.8z"/>
	<path class="st11" d="M55.2,35.2c0.6,0,1.2-0.2,1.6-0.6c0.1-0.1,0.1-0.2,0-0.3c-0.1-0.2-0.3-0.2-0.5-0.2c0.1,0,0.2,0.1,0.2,0.1
		c0.1,0.1,0.1,0.2,0,0.3c-0.3,0.5-1,0.7-1.5,0.7C55.1,35.1,55.1,35.2,55.2,35.2L55.2,35.2z"/>
	<polygon class="st10" points="57.1,103.8 57.1,107.5 59.5,107.8 59.5,107.8 63.3,108.1 66.5,107.8 66.5,107.8 69.5,107.5 
		69.5,103.8 67.7,103.9 67.7,103.9 60,103.9 60,103.9 57.1,103.8 	"/>
	<path class="st10" d="M93.7,97.4l-1.9-2c-0.1,0-0.2,0-0.3,0c-0.1,0-0.2,0-0.3,0c-0.2,0-0.3-0.1-0.5-0.3c-0.1-0.1-0.2-0.3-0.3-0.4
		c-0.3,0.4-0.6,0.7-1,0.9c-0.4,0.2-0.8,0.4-1.2,0.6l3.5,3.5c0.4-0.4,0.8-0.8,1.1-1.2C93.1,98.3,93.4,97.8,93.7,97.4L93.7,97.4z
		 M38.8,96.4c-0.4-0.2-0.9-0.4-1.2-0.6c-0.4-0.3-0.8-0.6-1.1-1c0,0,0,0,0,0l0,0c-0.1,0.2-0.3,0.4-0.5,0.5c-0.2,0.1-0.4,0.2-0.6,0.2
		l0,0c0,0,0,0-0.1,0c0,0,0,0,0,0l-2,2.1c0.3,0.4,0.6,0.8,1,1.2c0.3,0.4,0.7,0.8,1.1,1.2L38.8,96.4L38.8,96.4z"/>
	<path class="st10" d="M98.6,67h-4.2c-0.4,1.8-0.6,3.8-0.7,5.7c-0.1,2.1,0,4.2,0.1,6.3l0,0l0,0.5h4.2c-0.1-1.6-0.2-3.3-0.2-5
		c0-1.5,0.1-3,0.3-4.5v0c0.1-0.5,0.1-1.1,0.2-1.6C98.4,67.9,98.5,67.5,98.6,67L98.6,67z M28.2,67c0.4,1.9,0.6,4,0.7,6
		c0.1,2.2,0,4.3-0.1,6.5h4.2l0.1-0.9l0,0c0.2-2,0.2-4.1,0.1-6.1c-0.1-1.9-0.3-3.7-0.7-5.5H28.2L28.2,67z"/>
	<path class="st10" d="M99.2,55.6h-3.5c0.1,0.4,0.1,0.7,0.2,1.1c0,0.4,0.1,0.8,0.1,1.2h3.9c-0.1-0.4-0.2-0.8-0.3-1.2
		C99.4,56.3,99.3,56,99.2,55.6L99.2,55.6z M99,86.6h-4.2l0.1,0.6l0,0c0,0.3,0.1,0.6,0.1,0.8c0,0.3,0,0.6,0.1,0.8h4.1
		c0-0.4,0-0.8,0-1.1C99.1,87.3,99,87,99,86.6L99,86.6z M27.7,88.9h4.1c0-0.5,0.1-1.1,0.1-1.6c0-0.2,0-0.3,0-0.5l0,0l0-0.2h-4.2
		c0,0.4-0.1,0.7-0.1,1.1C27.7,88.1,27.7,88.5,27.7,88.9L27.7,88.9z M27,57.9h3.9c0-0.4,0-0.8,0.1-1.2c0-0.4,0.1-0.7,0.2-1.1h-3.5
		c-0.2,0.3-0.3,0.7-0.4,1.1C27.1,57.1,27,57.5,27,57.9L27,57.9z"/>
	<path class="st10" d="M97.6,46.6h-5.7l-0.2,0.4c0,0,0,0,0,0l0,0l0,0c-0.3,0.4-0.5,0.9-0.6,1.4c-0.2,0.5-0.3,0.9-0.4,1.4h5.3
		c0.1-0.1,0.1-0.3,0.2-0.4c0.1-0.1,0.1-0.3,0.2-0.4l0,0L97.6,46.6L97.6,46.6z M29.2,46.6l1,1.8v0c0.1,0.2,0.2,0.4,0.4,0.7
		c0.1,0.2,0.2,0.4,0.3,0.7h5.3c0-0.1-0.1-0.3-0.1-0.4c0-0.2-0.1-0.3-0.1-0.5l0,0c-0.1-0.4-0.3-0.8-0.4-1.2c-0.2-0.4-0.4-0.7-0.6-1.1
		H29.2L29.2,46.6z"/>
	<path class="st10" d="M38.6,29.2l-2,2.1c0.3,0.1,0.7,0.3,1,0.4c0.4,0.2,0.7,0.3,1,0.5l0,0l0.9,0.6l2.3-2.3c-0.5-0.3-1-0.5-1.5-0.8
		C39.8,29.4,39.2,29.3,38.6,29.2L38.6,29.2z M85.1,30.3l2.3,2.3l0.4-0.2l0,0l1.1-0.6l0,0c0.3-0.1,0.5-0.2,0.8-0.3
		c0.2-0.1,0.5-0.2,0.7-0.3l-2-2c-0.6,0.1-1.2,0.2-1.7,0.4C86.1,29.8,85.6,30,85.1,30.3L85.1,30.3z"/>
	<path class="st8" d="M85.9,35l0.6-0.4l2.2-1.4c1.2-0.6,2.4-1.2,3.8-1.3c0.2,0,0.4,0,0.6,0.2c0.1,0.8-0.2,1.4-0.7,2
		c-1,1-2.3,1.3-3.2,2.4c-0.3,0.5-0.6,1-0.6,1.6L85.9,35L85.9,35z"/>
	<path class="st5" d="M41.1,35.1l2.2,1.5c1.8,1.2,3.9,2,6.1,2.5c0,0.2-0.1,0.4-0.1,0.6H38.1l0,51.9c0,1.6,1,3.2,2.5,3.7
		c0.9,0.3,1.9,0.4,2.9,0.4l15.7,0c1.5,0.4,3,1.7,3.6,3.2c0.2,0.5,0.4,1.1,0.6,1.7c0.3-1.2,0.7-2.3,1.6-3.3c0.8-0.8,1.7-1.3,2.6-1.6
		l16.6,0c1.6-0.1,3.3-0.6,4.1-2.2c0.3-0.6,0.5-1.4,0.5-2.1V39.7H76.7c0-0.6-0.3-1.1-0.7-1.6c0.2,0,0.4,0,0.6-0.1c0.1,0,0.3,0,0.4,0
		c0,0.1-0.1,0.1-0.1,0.1c-0.2,0.2-0.1,0.6,0,0.8c0.2,0.4,0.7,0.1,1,0.1c2.2-0.5,4.3-1.4,6.2-2.7l1.7-1.2l2.7,3.3c0,0.1,0,0.2,0,0.3
		c0.1,0.4,0.4,0.8,0.8,0.9c0.9,0.1,1.9,0.2,2.7-0.1c0.6,0.3,1.1,0.9,1.1,1.6c0,1.2-0.7,2.2-1.2,3.2l-1.4,2.3
		c-2,3.5-1.6,8.5-0.7,12.4c0.2,0.7,0.5,1.7,1.3,1.9c0.3,0.1,0.6,0,0.9-0.1l2.5-0.4c-0.1,0.7-0.2,1.5-0.4,2.2l-0.6,2.7
		c-1.1,4.2-1.3,8.9-0.9,13.5l0.2,2.5l0.3,2.7l0.4,2.7l0.2,1.7c-0.3-0.1-0.6,0-0.8,0.2c-0.2-0.3-0.6-0.7-1.1-0.6
		c-0.9,0.1-1.2,1.1-1.5,1.8c-0.3,1-0.4,2.1-0.6,3.2c-0.4,2-2.6,2.5-4.1,3c-1.1,0.4-2.5,0.3-3.3,1.3c-0.2,0.3-0.3,0.7-0.2,1
		c0.1,0.2,0.2,0.4,0.4,0.6l0.4,1.6c-3,1-6.1,1.5-9.3,1.9l-2.9,0.2l-2.6,0.1l-2.6,0h-4l-2.9,0l-2.9-0.1l-2.5-0.2
		c-3.4-0.3-6.7-0.9-9.8-1.9l0.4-1.6c0.4-0.3,0.6-0.8,0.5-1.3c-0.3-0.9-1.2-1.1-1.9-1.3c-1.5-0.4-3-0.8-4.3-1.5
		c-1-0.5-1.5-1.6-1.5-2.7c-0.1-1.2-0.4-2.4-0.9-3.4c-0.2-0.4-0.6-0.8-1.1-0.8c-0.4,0-0.8,0.2-1,0.6c-0.2-0.2-0.5-0.3-0.8-0.2l0.2-2
		l0.6-4.6l0.3-2.8c0.3-4.1,0.2-8.5-0.6-12.3l-0.9-4.1c-0.1-0.8-0.3-1.5-0.4-2.3l2.6,0.4c0.4,0.2,0.9,0.2,1.2-0.1
		c0.6-0.5,0.8-1.3,1-2c0.8-3.8,1.1-8.5-0.7-11.9c-0.8-1.5-1.9-3-2.5-4.6c-0.3-0.7-0.2-1.7,0.4-2.2c0.2-0.2,0.4-0.3,0.6-0.5
		c0.8,0.3,1.9,0.3,2.7,0.1c0.4-0.1,0.7-0.4,0.8-0.8c0-0.1,0-0.2,0-0.2L41.1,35.1L41.1,35.1z"/>
	<path class="st8" d="M37.6,32.9c1,0.5,1.9,1.1,2.8,1.7L41,35l-2.7,3.2c-0.1-1.1-0.8-2.1-1.8-2.7c-1.1-0.7-2.9-1.6-2.7-3.2
		c0-0.1,0-0.2,0.2-0.3c0.5-0.2,1,0,1.5,0.1C36.2,32.3,36.9,32.6,37.6,32.9L37.6,32.9z"/>
	<path class="st17" d="M72.3,39.6H54c1.5-1,5.1-1.7,9.2-1.7C67.3,38,70.8,38.7,72.3,39.6L72.3,39.6z"/>
</g>
</svg>
