<svg xmlns="http://www.w3.org/2000/svg" viewBox="0 0 127.3 127"><style><![CDATA[.h{fill:#e5ac01}.i{fill:#ed1c24}.j{fill:green}.k{fill:#fff}.l{fill:#f4efea}.m{fill:#a92931}.n{fill:#ed7466}.o{fill:navy}.p{fill:#591f1c}.q{fill:#003778}.r{fill:#004e81}.s{fill:#b53824}]]></style><radialGradient id="A" cx="64.8" cy="-1506.747" r="62.6" gradientTransform="matrix(1 0 0 -1 0 -1442.3469)" gradientUnits="userSpaceOnUse"><stop offset=".949" stop-color="#212121"/><stop offset="1" stop-color="#606060" stop-opacity="0"/></radialGradient><circle cx="64.8" cy="64.4" r="62.6" fill="url(#A)"/><circle cx="62.6" cy="62.6" r="62.6" class="k"/><g fill-rule="evenodd"><path d="M62.4 57.2H38.8V105c-.1 3 1.1 5 5.1 5h7.7c5.5.4 8.6 3.5 10.9 7.6 2.2-4.1 5.4-7.2 10.9-7.6h7.7c4 .1 5.2-2 5.1-5V57.2H62.4z" fill="#1d82b3"/><path d="M55.8 28.5l-.6.6-.2-.1-.8.8-.2-.1-.3.3h-.1l-.5.5H53l-.5.5h-.1l-.3-.6-.1-.1v-.2h.2l.2-.1-.2-.2h-.1v-.1h.8l.4-.4v-1.2l-.3-1-.1-.1h-.1l-.1-.1h-1.2l.1.1-.2.2v1.2l.4.4h.2l-.1.1h-.3l-.2.1.1.2v.5h-.1l-.1.1-.3.4-.2.2-.1.2h-.8l-.2.2v.2l-.4.4v.4h-.5l.1.2-.3.3v.6h-.3l-.4.4v1.1l.1.1h.4l.2-.1-.6.6v-.2l-.1.1V36l-.9 1.9-.3.5v-.2l-.5-1 .1-.2-.4-.8.1-.3v-.2l-1.2-2.4.3-.3H45h.1l.5-.5v-1.1l-.4-.4-.2.3h-1.1l.1.1-.4.4v1.1l.3.3.1-.2.1.1h.2l.1.4.2.6v.3h-.1v-.1l-.4.3v.1H44l-.1.1v.8l.3.3v.1l.5.3v-.1h.3v.7h-.3v-.1l-.3.3v.2h-.1l-.3-.2-.1.1v.8l.3.3v.1l.2.2.2.1v-.1h.3v.5h-.2V39h-.2l-.2.2v.1h-.1l-.1.1v.8l.3.3v.1l.2.2.2.1v-.1h.2v.6h-.4l-.6.1v2.1l.4.2h.6v.1l-.3.4-.1 1.1.1.3v.7h-.5v1.2h.5v.1h-2.4l-.3 1.7-1 1h-.1l-.4.4v.6l-.2.4V54l.1.1h.1-.2l.1.2 1.5 1.5h.1l.1.1h.4l-.5.3.3.2h.6l.1.4.8.1h37.9l.8-.2-.4-.1h.5l.3-.2-.4-.1h-.1.5l.8-.8v-.1h.1l.7-.7.1-.2h-.1.1l.1-.1v-.2h-.1.2v-1.1h-.1l-.1-.2-.2-.2h-.1v-.1h-.1l-1-1-.3-.2h-2.5v-.1h.5v-1.2h-.5v-.7l.1-.3-.1-1.1-.2-.2v-.2h.3l.4-.2v-2.1l-.4-.1h-.4v-.6h.2v.1l.2-.1.2-.2v-.1l.3-.3v-.8l-1-3.8h-.1v-.1l-.2-.2h-.1l-.1-.1v.1h-.2v-.5h.3v.1l.2-.1.2-.2v-.1l.3-.3v-.8l-.2-.2H80v-.2l-.3-.3v.1h-.3v-.7h.3v.1l.5-.3v-.1l.3-.3v-.8l-.1-.1h-.1v-.1l-.3-.1v.1h-.1V34l.2-.6.1-.4h-.1.3l.5-.5v-1.1l-.5-.5h-1.1l-.1.1-.2.4v.1l-.2.2v1.1l.5.5H79l-1.5 3 .5.3-.1.2v.2l-.3.6v.1-2.9l-.2-.4v-.1l-.5-.5-.9.7v-.1l-.3-.3.2.1h.4l.1-.1V33l-.3-.3v.3H76v-.1h-.3v-.6l-.3-.3h-.1l-.1-.1h-.5v-.4l-.3-.3.1-.2-.3-.3h-.8l-.1-.2-.3-.3V30h-.1v-.5l.1-.2.1-.3h-.2l-.1-.1h.2l.4-.4v-1.2l-.1-.1-.6-.2h-.1l-.1-.1h-1.2l.1.1h-.1l-.2.2v1.2l.4.4h.8v.1h-.1l-.2.2.2.1h.2l-.2.2-.2.9-.3-.3h-.2l-.4-.4H71l-.8-.8-.2.3-.1-.1h-.2l-.5-.5-.2.1-.1-.1h-.3l-.2-.1v-.7h-.1l.1-.1v-.1l.3-.1h.3V26h-.3l-.2-.1v-.1l-.1-.1v-.8h-.8l.5-.5v-.2l.1-.5-.3.3v-1l-.2-.2h-.3l-.1-.1h.3l.1-.1h.2l.3-.3v-1.6l-.2.6-.2-.2h-.2l-.1.1V21l.1-.1v-1l-.3.1-.1-.1h-.3v-.1l.2-.3H67v-.8h-.7v-.2h.7l.4-.4v-1.2l-.1-.1.1.2-.1-.1h-1.2l.1.1h-.1l-.1.1v1.3l.4.4h.2v.1l-.2.2-.4-.1-.5-.5h-.4l.1-.1v-1.8l-.1-.1h-.5v-.8h.1l.1-.1.2.4v-1.3h-.1l-.2.3h-.1l-.1-.1v-.6h.1l.1-.1v-.5h-1.2l-.2.2V7.6l-.2.4-.2-.2h-.3l.2-.2v-.5L63 7v-.6l-.4-.4h-1.2l-.4.4v1.2l.2.2h-.3l-.2.2h.3v5.3h.1v1.1l.1.1v-.1l-.1-.1h-1.2v.5l.1.1h.1v.6l-.1.1h-.1l-.4-.6h-.1v1.3l.2.2v.8h-.4l-.1.1v1.8l.1.1h-.6l-.4.4.1-.7-.3-.3v-.1h.2l.4-.4V17l-.1-.1-.3.1h-.1l-.1-.1h-1.2l.1.1h-.1l-.2.2v1.2l.4.4h.7v.2H57v.8h-.1l.2.3v.1h-.3l.1-.1v1l.1-.1v.2l-.1-.1h-.2l-.3.3V23l.3.3h.2l.1.1h.3l-.1.1h-.3l-.2.2v1l-.3-.3.1.5v.2l.5.5h.2-1v.7l-.2.2v.1l-.4-.6h-.3v1.4h.3l.3.1v.1l.1.1h.1v.6l-.3.2zm-6.6 5.9l-.2.3-.4.4v.1-.6l.3-.3.3.1v-.2l.2-.2v.1l-.2.3zM74.9 33l-.1-.1v-.3h.2v.3l-.1.1zm-.7-.8l-.7-.7.1-.1h.2v.6l.4.2zM44.6 46.6zm35 0zM73 31.1l-.2-.2h.2l.1.1-.1.1zm-10.3-3.8h-1.1l.2-.1h-.3l-.1-.1v-1.2l.1-.1h1.1l.1.1v1.4zm-2.9-9l.1-.1V17h.2v.6l.2.2h.6l.2-.2V17h.2v1l.2.2h1.4l.2-.2v-1h.2v.6l.2.2h.6l.2-.2v-.1.6l.1.1H63v.6h-2.4v.1-.5l-.1-.1h-.7zm4.3-.9v-.1h.1l-.1.1zm-5.6 9.9l.1-.1v-.5h-.2l.3.3v.4l-.1-.4-.2.2h-.1l.2.1zm0-1.5l-.1-.1.1.1zm.7-.1l.1.1-.1-.1zm0 .4l-.1.1v.4l.3-.3h-.1l-.1-.2zm-.1.8v.3h.1l-.1-.1v-.2zm.8.3zm.1.4l.2.1-.2-.1zm-1 .1l-.1-.1h.1v.1zm-1.2 0h-.2.2zm0-.4zm-.4-.2h.2V27l-.1-.1v-.1.1l-.1.2zm-.7.6l-.1-.1v.1h.1zm-7 5.7l.3-.3V33l.2-.2h.3l-.2-.1v.2l-.1.1-.2-.2h-.4l-.2-.2v-.3h-.2v.5l.5.6zm.5-1l.7.1v-1.2l-.1-.1h-.2v.8l-.4.4zm13-6.4l.1.1h.3l.3.3v.2l-.1.1-.1.3h-.2l.1.1v.1-.1l.1-.1h.4l-.1-.1v-.4l.3-.3h.1l-.1-.1h-.6l-.5-.1zm.2.9l-.3-.3v.1l.3.2zm.9.3zm3.3.4l-.1.1.1-.1zm-1 .1h-.2.2zm-.2-.4zm.1-.2h.2v-.2l-.2.2zm-1.7.1h.1V27l-.1.1v.1zm.3-.6v-.4l-.1-.1v.1h-.1l.2.2v.2zm-.2-.8l.1-.1h-.2l.1.1zm.7-.1zm0 .4l-.1.1v.5l-.1-.1.2.4-.1-.1v-.4l.3-.3h-.1l-.1-.1zm-2.4-.3l.2-.1H63l.2.1zm3.8.1h-.4l-.1.1.3.3v.1-.5l.2-.2v.2zm.2-.2l.2.1h.3v-.1h-.5zm-6 2h-.1.1zm-.2-.9v-.1.1h-.1.1zm0-1l.1-.1h-.3l.2.1zm.3-.2v-.2.2zm1.5-.1l.2.1v-.3l-.2.2zM60.7 27h-.2l-.2-.2v-.2l.3-.3H60l-.1.1h.1l.3.3v.4l-.2-.1-.1.1h.3l.1.1v.1-.1l.3-.2zm-3.9-1.2l.2-.1h-.4v.1h.2zm1.1.4l-.1-.1h-.4l.2.2v.4l.1-.1.2-.4zm7.7-6.6l-.1-.1h-2.4v.4l1.2 1.2v.3l.1-.1.6-1.2.6-.5zm-.9 5.3h.3l-.3-.3v-.1.4zm.4 0h.7l-.7-.7v.7zm-2.1-.2v-.2l-.3-.6h-.2l.4.4.1.4zm0-1.7zm0-.9v-.3h-.3v.4h.1l.2-.1zm0-1.9V20h-2.4v-.1.3h.4v.3h1.5v-.2h.5v-.1zm-4.7 4.7h.9v-.6l-.7.7-.2-.1zm1 0h.3v-.2l-.1.1-.2.1zm1.2-5.6v-.4H60v.1h-1.8l.7 1.4.1.1v-.3l1.1-1.1.4.2zm.8 2.6v.3h.2v-.4h-.2v.1zm0 1.1l.3-.2h-.2l-.1.2zm0 1.6v.1-.1l.5-.5V24h-.1l-.4.6zm-3.2-5.1v.1h.1l-.1-.1zm.3.5zm.2.6zm.4.8v.1h.1l-.1-.1zm-.7-.1h-.2.2zm7.6-1.3zm.2-.4l.1-.1-.1.1zm.1 1.8H66h.2zm-.8.1v-.1.1l-.1.1.1-.1zm.3-.9zm-3.1 2.2zm.2 0l.1.1-.1-.1zm-1.1 0zm.7-1.1h-.6l.2.2h.2l.2-.2zm-.8-1.1zm1-1.2l-.1-.2V19l.1-.1h-.3v.3l.1.1v.4l-.1.1v.3h.3l-.1-.1v-.2l.1-.4zm-.8 0l-.1-.1v-.1l.1-.1v-.3h-.3l.1.1v.2l.2.3h-.1.1l-.1.2v.2l-.1.1h.3v-.3l-.1-.1v-.1zm3 4v.3h.1v-.1l-.1-.2zm2.5 1zm-.4.1l-.1-.1v-.1.2h.1zm-.2-.6v-.7h-.2v.5h.2v.2zM66 22h-.1.1zm.1.5h-.3v.3h.3l.2.2-.3.2-.2.2v.6l.4-.4h.1l-.1-.2-.1-.1v-.8zm-6.6 1.2v-.1.1zm-2-.4l.1.2v.5h.3v-.5l-.4-.2zm.1.8v.4l-.1.1h.3v-.4l-.2-.1zm-.6.3zm1.3-.8v.1-.8l-.2-.2.1.3.2-.2h.3v-.3h-.4v.3l-.3.3h-.1.2l.3.3-.1.2zm0-1.4l.2-.1h.2l-.4.1zm17.2 11.7v-.5H75l.5.5zm-24.3-2.8v.3l.4-.4v-.3h-.2l-.1.1-.1.3zM49 33.5h-.5v.5l.5-.5z"/><path d="M64.4 18.3h-1.5l.1.1v.4h-2.4v.1-.5l-.1-.1h-1.4l.1-.1V17h.2v.6l.2.2h.6l.2-.2V17h.2v1l.2.2h1.4l.2-.2v-1h.2v.6l.2.2h.6l.2-.2v-.1.5l.8.3zm1.7 1.3zm1 3.5zm-10.3.2V23l.1.1h.3l-.1.1H57l-.2.1zm5.9 4h-1.1l.2-.1h-.3l-.1-.1v-1.2l.1-.1h1.1l.1.1v1.4zm1.4-9.9v-.1h.1l-.1.1zm-5.6 9.9l.1-.1v-.5h-.2l.3.3v.4l-.1-.4-.2.2h-.1l.2.1zm0-1.5l-.1-.1.1.1zm.7-.1l.1.1-.1-.1zm0 .4l-.1.1v.4l.3-.3h-.1l-.1-.2zm-.1.8v.3h.1l-.1-.1v-.2zm.8.3zm.1.4l.2.1-.2-.1zm-1 .1l-.1-.1h.1v.1zm-1.2 0h-.2.2zm0-.4zm-.4-.2h.2V27l-.1-.1v-.1.1l-.1.2zm-.7.6l-.1-.1v.1h.1zm6.5-1.7l.1.1h.3l.3.3v.2l-.1.1-.1.3h-.2l.1.1v.1-.1l.1-.1h.4l-.1-.1v-.4l.3-.3h.1l-.1-.1h-.6l-.5-.1zm.2.9l-.3-.3v.1l.3.2zm.9.3zm3.3.4l-.1.1.1-.1zm-1 .1h-.2.2zm-.2-.4zm.1-.2h.2v-.2l-.2.2zm-1.7.1h.1V27l-.1.1v.1zm.3-.6v-.4l-.1-.1v.1h-.1l.2.2v.2zm-.2-.8l.1-.1h-.2l.1.1zm.7-.1zm0 .4l-.1.1v.5l-.1-.1.2.4-.1-.1v-.4l.3-.3h-.1l-.1-.1zm-2.4-.3l.2-.1H63l.2.1zm3.8.1h-.4l-.1.1.3.3v.1-.5l.2-.2v.2zm.2-.2l.2.1h.3v-.1h-.5zm-6 2h-.1.1zm-.2-.9v-.1.1h-.1.1zm0-1l.1-.1h-.3l.2.1zm.3-.2v-.2.2zm1.5-.1l.2.1v-.3l-.2.2zM60.7 27h-.2l-.2-.2v-.2l.3-.3H60l-.1.1h.1l.3.3v.4l-.2-.1-.1.1h.3l.1.1v.1-.1l.3-.2zm-3.9-1.2l.2-.1h-.4v.1h.2zm1.1.4l-.1-.1h-.4l.2.2v.4l.1-.1.2-.4zm6.8-1.3h.3l-.3-.3v-.1.4zm.4 0h.7l-.7-.7v.7zm-2.1-.2v-.2l-.3-.6h-.2l.4.4.1.4zm0-1.7zm0-.9v-.3h-.3v.4h.1l.2-.1zm0-1.9V20h-2.4v-.1.3h.4v.3h1.5v-.2h.5v-.1zm-4.7 4.7h.9v-.6l-.7.7-.2-.1zm1 0h.3v-.2l-.1.1-.2.1zm2-3v.3h.2v-.4h-.2v.1zm0 1.1l.3-.2h-.2l-.1.2zm0 1.6v.1-.1l.5-.5V24h-.1l-.4.6zm-3.2-5.1v.1h.1l-.1-.1zm.3.5zm.2.6zm.4.8v.1h.1l-.1-.1zm-.7-.1h-.2.2zm7.6-1.3zm.3 1.4H66h.2zm-.8.1v-.1.1l-.1.1.1-.1zm.3-.9zm-3.1 2.2zm.2 0l.1.1-.1-.1zm-1.1 0zm.7-1.1h-.6l.2.2h.2l.2-.2zm-.8-1.1zm1-1.2l-.1-.2V19l.1-.1h-.3v.3l.1.1v.4l-.1.1v.3h.3l-.1-.1v-.2l.1-.4zm-.8 0l-.1-.1v-.1l.1-.1v-.3h-.3l.1.1v.2l.2.3h-.1.1l-.1.2v.2l-.1.1h.3v-.3l-.1-.1v-.1zm3 4v.3h.1v-.1l-.1-.2zm2.5 1zm-.4.1l-.1-.1v-.1.2h.1zm-.2-.6v-.7h-.2v.5h.2v.2zM66 22h-.1.1zm.1.5h-.3v.3h.3l.2.2-.3.2-.2.2v.6l.4-.4h.1l-.1-.2-.1-.1v-.8zm-6.6 1.2v-.1.1zm-2-.4l.1.2v.5h.3v-.5l-.4-.2zm.1.8v.4l-.1.1h.3v-.4l-.2-.1zm-.6.3zm1.3-.8v.1-.8l-.2-.2.1.3.2-.2h.3v-.3h-.4v.3l-.3.3h-.1.2l.3.3-.1.2zm0-1.4l.2-.1h.2l-.4.1z" class="h"/><path d="M61.7 37.7c.1.1.3.2.5.2s.3-.1.5-.2c.3-.3.3-.7 0-1-.1-.1-.3-.2-.5-.2s-.3.1-.5.2c-.3.3-.3.8 0 1z" class="l"/><path d="M61.5 25.9h1.2l.2.2v1.2l-.2.2h-.2c-.2-.1-.5-.1-.7 0h-.3l-.2-.2v-1.2l.2-.2z" class="j"/><path d="M62.9 43.5l.6.6v1.2l-.6.7h-1.5l-.6-.6v-1.2l.6-.6c.5-.1 1-.1 1.5-.1zm-.2 2.2l.4-.5v-.9l-.4-.5h-1.2l-.4.5v.9l.4.5h1.2z" class="h"/><path d="M61.6 43.9h1.1l.4.5v.9l-.4.5h-1.1l-.4-.5v-.9l.4-.5z" class="o"/><path d="M52 45.6c.2.2.4.3.6-.1-.1-.7.2-.9.7-.8.5-.1.7.1.7.8.1.3.4.2.6.1 0 .5-.9.9-1.3 0-.4.9-1.3.5-1.3 0zm20.2 0c-.2.2-.4.3-.6-.1.1-.7-.2-.9-.7-.8-.5-.1-.7.1-.7.8-.1.3-.4.2-.6.1 0 .5.9.9 1.3 0 .5.9 1.3.5 1.3 0zM80 34.5h-.3c-.1.4-.1.8-.2 1.3h.4l.1-1.3zm-9.7 1c.4-.2.5 0 .4.4-.4.3-.9 0-.8-.4.3-.3.5-.7 1-.7 1.5.3 1.9 2.1 1.3 3.5-.7 1.7.1 2.2.8 1.7 1.5-.6 2.5-.4 3.1.6.6.9.8 2.1.4 3.1-.3.7-.8 1.2-1.5 1.5-1.5.3-2.5-.3-3.2-1.3.3 0 .7 0 .7-.4.7.6 1.4.8 1.8-.1.2.1.3 0 .5-.1v1c.6-.2.9-.5 1.2-.8.6-.9.6-2-.1-2.8-.9-1.1-2.5-.9-3 .7v-.1c.2-.4.2-.8 0-1.1-.2-.2-.4-.2-.7-.2-.6-.1-1.1-.4-.8-1.6.7-.8.6-2.2.4-2.8-1-1-1.5-.3-1.5-.1zm-7.9 12.7a.37.37 0 0 1 0 .6c-.1.1-.2.1-.3.1s-.2-.1-.3-.1c-.2-.1-.2-.4 0-.6.1 0 .2.1.3.2.1 0 .2-.1.3-.2zm.2-.7c.4 0 1 .3 1 .8.2.4-.6 1-.6-.1.1-.3-.1-.5-.4-.7zm1-.6c-.2.4.3.6.5.2.1-.1-.1-.5-.2-.4-.7-.3-1.2-.1-1.8.2-.5-.3-1.1-.5-1.8-.2-.2 0-.3.3-.2.4.3.4.7.2.5-.2.4-.2.7-.1 1.1.1-.9.2-1.4.7-1.9 1.2-.4.3.2.9.5.3-.1-.5.7-1 1.5-1.1.1.2 0 .5-.2.7.3.1.4.2.6.4.1-.2.3-.3.6-.4-.2-.3-.3-.5-.2-.7.8.1 1.6.6 1.5 1.1.4.6.9 0 .5-.3-.5-.5-1-1-1.9-1.2.2-.2.5-.3.9-.1zm.6.1c-.1 0 0 .2-.3.3.8-.1 1.1.8.7 1.1.1.5.7.2.5-.2-.1-.5-.1-1-.9-1.2zm3.4-9.3c.1.2.1.4.2.6-.7-.5-1.5.6-.9 1.3-.2.1-.4.1-.6.2-.3-1.5.2-2.1 1.3-2.1zm-4.3 2.9c.1.1.1.2.2.3.3 0 .5.1.7.4a.26.26 0 0 0-.1.5c.6.2.8-.6.4-.7-.3-.5-.7-.7-1.2-.5zm-.8-.3c-.2 0-.3.2-.3.3.7 0 1.8 1.3.7 2.1 1.4.3.8-2.5-.4-2.4zm-.4.9c.2.1.2.3.3.5.3 0 .4-.1.5-.3.1.2 0 .4-.5.6a.37.37 0 0 0 .6 0c0 .3-.2.5-.6.6.4.4 1 .5 1.5.4-.5.2-1 .4-1.9-.3-.9.6-1.4.5-1.9.3.6 0 1.1 0 1.5-.4-.4-.1-.6-.3-.6-.6.2.2.4.2.6 0-.5-.2-.6-.4-.5-.6a.55.55 0 0 0 .5.3c.3-.2.3-.4.5-.5zm1 2.4l.4.4c.3-.2.6-.4.9-.1-.2-.1-.3-.1-.5.1-.3.3.2.8.7.5.4-.3.4-.7.2-1-.6-.4-1.2-.3-1.7.1zm0 2.4l.4-.4c.3.2.6.4.9.1-.2.1-.3.1-.5-.1-.3-.3.2-.8.7-.5.4.3.4.7.2 1-.6.4-1.2.3-1.7-.1zm4.7 2.3c-.6-1-1.2-.9-2.1-.4-.4.3 0 1.1.7.6.1-.5.7-.5 1.4-.2zm5.2-.2c-.2.1-.2.4 0 .5.3-.1.5-.3.5-.6.1-.6-.3-.8-.9-.9v.5c.5 0 .6.2.4.5zm-.9-.8c.1.4 0 .7-.4 1-.2.2.1.6.4.2.3-.6.4-1 0-1.2zm-2.2 0c-.1.4 0 .7.4 1 .2.2-.1.6-.4.2-.4-.6-.4-1 0-1.2zm-.9.4c.4-.1 0-.8-.3-.3-.3.2-.4.6-.3 1.1.1.2.6.3.6 0s-.1-.4-.3-.2c0-.2 0-.6.3-.6zm.4-1.1c-.5 0-.3.6.1.3.2-.3.4-.7 0-.9a.54.54 0 0 0-.8.6c-.1.5-.4.7-.9.5-.7-.4-1 .3-.5.5a1.39 1.39 0 0 0 1.1-.2c.4-.1.5-.4.6-.8 0-.4.5-.5.4 0zm.2-1.8c-.2.4-.6 0-.2-.2.3-.1.6 0 .7.3 0 .3-.3.7-.7.4-.4-.1-.7.1-.7.6.1.7-.6.5-.6.1.1-.3.3-.6.5-.7.2-.2.5-.2.8-.1.3 0 .6-.3.2-.4zm-2.3.7c-.3-.1-.6 0-.8.4-.2.2-.5-.1-.2-.3.5-.4.8-.4 1-.1zm-1.1.5c-.1.4 0 .7.4 1 .2.2-.1.6-.4.2-.4-.6-.4-.9 0-1.2zm-.5-.4c.7.3.8-1 0-.7-.6.1-1 .5-.9 1.4.1.4.4.8.6 1.2.3.3.6 0 .5-.2-.6-.4-.9-1.5-.2-1.7zm10.2.2c.8.6.5 1.5-.3 1.7.5-.6.5-1.2 0-1.5.2.6.2 1-.5 1.2-1 0-1.4-.5-1.6-1 .2-.3 0-.5-.7-.6-.3-.3-.7-.7-.6-.8.5-.1-.2-.9-.4-.4.1.7.6 1.2 1.2 1.7-.3-.1-.6-.2-.7.2.4-.1.6.2.7.5.4.5.8 1 1.5.8-.2.6-1 .3-.8 1 .5.1 1.1.2 1.4-.4.3.1.5.2.5.4h.8c-.1-.6-.1-1 .2-1.2.9-1.1.5-1.3 0-1.9-1.1-1.1-2.1.2-.7.3zm2 2.8c.1-.5 0-.9-.2-1.1-.3.4-.8.2-.8-.2.1-.5.5-.5.7-.4.6.2 1.3 1.4.3 1.7zm-.4-5.2c-.1.2-.2.3-.4.5l-.5-2.4c-.1-.4 0-.8.1-1.2.1-.3.3-.4.5-.3 1.4.7 1.2 2.1 1.2 3.4-.1 0-.2-.1-.3-.1.2-1.1.1-2.2-1-2.9-.2.9-.2 1.9.4 3zm0-2.3c-.1.2 0 .4 0 .5-.1-.2-.3-.2-.4-.1.1.1.3.3.2.5-.1.4.3.8.5 1.2 0-.4.3-.8.1-1.1-.1-.2 0-.3.1-.5-.1-.1-.1-.1-.3 0 0-.2 0-.4-.2-.5zm-8.4-5.4c-.4-.2-.5 0-.4.4.4.3.9 0 .8-.4-.3-.3-.5-.7-1-.7-1.5.3-1.6 1.3-.9 2.7.2.9 1.1 1.4 1 2.2-1.5-.6-2.5-.3-3.2.7-.6.9-.8 2.1-.4 3.1.3.7.8 1.1 1.6 1.4 1.5.3 2.4-.2 3.1-1.2-.3 0-.7 0-.7-.4-.7.6-1.4.8-1.8-.1-.2.1-.3 0-.5-.1.1.3.4.7 0 1-.6-.2-.9-.5-1.2-.8-.6-.9-.6-2 .1-2.8.9-1.1 2.6-.9 3 .7V41c-.1-.3 0-.6.1-.8.1-.1.2-.2.4-.2 0-.8-.1-1.6-.9-2-.7-.8-.9-1.5-.7-2.1 1.1-1 1.6-.4 1.6-.2zm.9 2.6c-.2-.3-.4-.5-.7-.4-.3.2-.3.5 0 .7.3 0 .4-.1.3-.3.3-.1.3.3.2.7-.2.4-.2.7-.2 1.1.1 0 .3 0 .4.1.1-.2.2-.4.3-.5.1-.3.3-.4.4-.5-.1-.2-.2-.4-.2-.5-.1-.3 0-.4.2-.4 0 .5.2.4.4.2.2-.4-.1-.7-.4-.7-.2 0-.4.8-.7.5zm-7.9-9.1c.2.3.5.4.8.5 0 .3-.2.5-.4.8h-.8c-.2-.3-.4-.5-.4-.8.3-.1.6-.2.8-.5v.9-.9zm.4 1.3a1.54 1.54 0 0 1 .7.7c.6 0 1 .2 1.3.6 1 1.4-1.1 1.7-.8.6.2-.5-.4-.7-.4-.7.1.3.1.6 0 1h-.5c0-.2 0-.5.1-.7-.2.1-.4.4-.5.7h-.8c-.1-.3-.3-.5-.5-.7.1.2.1.5.1.7h-.5c-.1-.3 0-.6 0-1 0 0-.6.2-.4.7.4 1.1-1.7.8-.8-.6.3-.4.7-.6 1.3-.6.2-.2.3-.5.7-.7h1zm-.4 1.7c.2-.3.4-.6.7-.8-.2-.2-.4-.4-.7-.5-.2.1-.5.2-.7.5.3.1.5.4.7.8zm2.8.3c.7.2 1 .6 1.1 1.1.3.2.5.4.7.7.4.8-.6.7-.6.1-.2-.2-.5-.2-.9 0 .6.3.9 1 1 1.7.2-.1.6-1.9.7-1.1v.2c-.2 1.5-.8 1.9-1.6 2.2 0 .6-.3.9-1 .8-.3.5-.7.8-1.4.8-.4 0-.6.2-.6.6.7-.6 1.2-.7 1.7-.4.1.1 0 .3-.2.4.3.1.4.3.3.6-.2-.2-.5-.1-.7.2-.4-.7-.9-.5-1.1.2-.2-.7-.6-.9-1.1-.2-.2-.3-.5-.3-.7-.2-.2-.3-.1-.5.3-.6-.2-.1-.3-.3-.2-.4.5-.2 1-.2 1.7.4 0-.4-.2-.6-.6-.6-.7 0-1.1-.4-1.4-.8-.7 0-1.1-.3-1-.8-.8-.3-1.4-.7-1.6-2.2V35c.1-.7.5 1.1.7 1.1.2-.7.4-1.4 1-1.7-.4-.2-.7-.3-.9 0-.1.6-1 .7-.6-.1.1-.3.3-.5.7-.7.1-.5.4-.9 1.1-1.1v.3c-.4 0-.6.3-.8.8.5 0 1 .1 1.3.6v.5c-.2-.1-.3-.2-.5-.1-1 1.1-1.3 1.8-.6 2.1-.4-.4-.3-.9.3-1.5.2-.2.4-.4.6-.1.2.2.2.5-.2.7-.5.2-.3.9.1 1.1.3-.1.1-.2 0-.3s-.1-.4 0-.5c.2-.2.6-.1.8.1.2.3.1.7-.4 1 .6-.2.7-.5.6-.9l.3.3H61c.2.3.3.5-.1.7.5.3.8.8.8 1.8 0-.4.1-.7.3-.9h.4c.2.2.3.5.3.9 0-1 .4-1.5.8-1.8-.5-.3-.5-.6-.2-.8h.1l.3-.3c-.1.4 0 .7.6.9-.5-.3-.6-.7-.4-1 .2-.2.6-.3.8-.1.1.1.1.4 0 .5-.1.2-.3.3 0 .3.4-.1.6-.8.1-1.1-.4-.2-.4-.5-.2-.7s.4 0 .6.1c.6.6.7 1 .3 1.5.7-.3.4-1-.6-2.1-.2-.1-.4 0-.5.1v-.5c.3-.5.8-.6 1.3-.6-.1-.5-.4-.9-.8-.8v-.2zm-.1.4c.3.3 0 .8-.5.9v-.1l-.2-.2c.5-.1.7-.3.7-.6zm-1.1 4.4c-.4 0-.6.2-.7.6a1.1 1.1 0 0 1 .8 0c-.1-.1-.2-.3-.1-.6zm1.4 0c-.6-.2-1.1-.3-.9.8-.1-.8.3-1 .9-.8zm-1.2.9c-.4-.1-.8 0-1.1.7.2-.4.6-.6 1.1-.7zm2.5-5.9c-1.3.2-1.9 0-1.5-.6-1.1-.4-1-1.1-.2-2.1.5-.5 1.2-.4 1.5.1.3 0 .4.2.5.3-.5 0-1 0-1 1 .2.3.2.5-.1.6-.5.4.1.6.8.7zm-.6-2.3c.2-.3.1-.4-.5-.3-.4.1-.6.5-.7 1 0 .7.4.7.5.4 0-.6.3-1 .7-1.1zm3 .7c-.1 0-.1.1-.2.1-.3-.5-.6-.8-1.2-.9-.3-.7.1-.7.3-.7.6.4 1.1.8 1.1 1.5zm-1.1-.8c.3-.5.6 0 1 .8-.4-.6-.7-1-1-.8zm4.6 8.1c-.2.3-.3.7-.3 1.1.7-1.5 2.2-.2 1.2.6.3-.1.6-.2.9-.2.1-1.1-.3-1.9-1.8-1.5zM71 37c.3 0 .5.1.6.3.2.4-.1.7-.4.5-.2-.2-.1-.3.1-.4-.1-.3-.2-.3-.3-.4zm-1.9.2c-.2-.1-.3 0-.5.1-.3.3-.3.7 0 .7.2-.1.3-.3.2-.5.1-.1.2-.2.3-.2v-.1zm0-.4c-.1-.4-.3-.5-.7-.6-.5 0-.7.4-.3.6.3.1.4 0 .4-.3.3 0 .5.1.6.3zm1.5-.5c.1-.4.3-.5.5-.5.4 0 .6.4.3.6-.2.1-.4 0-.4-.3-.1 0-.3 0-.4.2zm-1.4-4c.3.3.5.6.5.9h.5c.2.6.2 1.2-.3 2 0 .3 0 .6-.1.9-.1-.3-.2-.5-.2-.8-.6-.3-1.1-.9-1.2-1.9h.6c-.3-.4-.1-.7.2-1.1zm.6 1.2c-.4-.1-.7-.1-1.1.1.2.7.5 1.2.9 1.4.3-.6.3-1.1.2-1.5zm2.6.9c-.4-.4-.8-.8-1.1-.2.3.4-.1.6-.4.2-.4-1.5 1.7-1.2 1.5 0zm-1.1-1.9c-.3.1-.5.4-.5 1.1.2-.1.4-.3.5-.3-.1-.3 0-.6 0-.8zm.8 0c.4 0 .6.5.2.7-.3.2-.5 0-.8-.5-.3-.8-.1-1.1.1-1.5.4-.4.8-.3 1.1.1.4.5.2.4.3-.1.1-.3.3-.5.5-.5.5 0 .8.1 1 .7.1.4.1.7 0 1.1-.2.5-.8-.1-.3-.3 0-.8-.4-1.3-.8-.9-.1.2-.1.4-.1.6-.1.6-.2.6-.5.1-.2-.2-.2-.4-.5-.5-.2-.2-.7.1-.5.5.1.3.2.4.3.5zm1.3-1.9c-.2.1-.3.2-.3.3-.2-.6-.7-.5-.6 0-.1 0-.3-.2-.5-.1.2-1 1.1-.9 1.4-.2zm-1.1-1.9c.2.2.5.4.8.5-.2.3-.3.6-.3.9h-.4c-.2-.3-.4-.4-.7-.6.4-.3.5-.5.6-.8zm2.5 3.2c0 .2 0 .3-.1.5.3.1.4.2.5.5h.4c-.1-.6-.4-.9-.8-1zm0 2c-.1-.1-.1-.2-.2-.3.1-.4.3-.5.5-.7.6-.1.7.1 1 .4.2.1.3.7 0 .8-.6 0-.6-.5-.3-.6-.4-.3-.9-.2-1 .4zm.3-.3c-.1.1-.1.1-.2.3.6.6 1.5 2.4.1 1.1-.1.7.3 1.3 1 1.4.5-.6.4-1.2.1-1.7-.3-.3-.6-.8-1-1.1zm-.1 4.2c-.1 0-.2-.1-.3-.1-.2-.4-.1-.6-.1-.8.3-.5.6-.4 1-.3.3 0 .7.3.5.6-.4.4-.8 0-.7-.2-.5 0-.7.3-.4.8zm.9 1.3c-.1 0-.3-.1-.4-.1-.2-.4-.1-.6-.1-.8.3-.5.5-.5 1-.4.3-.1.7.3.6.5-.4.4-.8.1-.7-.2-.5.1-.7.5-.4 1zm-1.9-2c0-.1 0-.2.1-.3-.2-.3-.4-.3-.6-.4-.5.1-.6.3-.7.7-.2.2 0 .7.2.7.5-.2.4-.7.1-.6.2-.4.6-.5.9-.1zm-1.6-2.5c0 .6.1 1.1.6 1.4.1.1.1.2.2.4-.6.4-1.3-.8-1.1-1.9.1 0 .2 0 .3.1zm6.1 6.8c-.4-.8-.8-1.4-1.2-1.5l1.9-6.7h.4c-.7 2.5-1 5.3-1.1 8.2zm1.4-8.1c-.1 0-.2-.1-.3-.1-.7 2.8-1.1 5.5-1 7.9 0 1-.1 2.3.4 2.9-.1-4.7.3-7.9.9-10.7zm-.3 8h-.4s-.1 0-.1.1v2.2s0 .1.1.1h.4s.1 0 .1-.1l-.1-2.3c.1.1 0 0 0 0zm0-2.2h-.4c0 .4 0 .9-.1 1.3h.3l.2-1.3zm.2-2.4h-.4c-.1.5-.1 1-.2 1.6h.4l.2-1.6zm-35.6-2.2h.3c.1.4.1.8.2 1.3h-.4l-.1-1.3zm9.7 1c-.4-.2-.5 0-.4.4.4.3.9 0 .8-.4-.3-.3-.5-.7-1-.7-1.5.3-1.9 2.1-1.3 3.5.6 1.8-.2 2.3-.9 1.8-1.5-.6-2.5-.4-3.1.6-.6.9-.8 2.1-.4 3.1.3.7.8 1.2 1.5 1.5 1.5.3 2.5-.3 3.2-1.3-.3 0-.7 0-.7-.4-.7.6-1.4.8-1.8-.1-.2.1-.3 0-.5-.1v1c-.6-.2-.9-.5-1.2-.8-.6-.9-.6-2 .1-2.8.9-1.1 2.5-.9 3 .7v-.1c-.2-.4-.2-.8 0-1.1.2-.2.4-.2.7-.2.6-.1 1.1-.4.8-1.6-.7-.8-.6-2.2-.4-2.8 1.1-1.1 1.6-.4 1.6-.2zm7.7 12c-.4 0-1 .3-1 .8-.2.4.6 1 .6-.1-.1-.3.2-.5.4-.7zM60 47c.1 0 0 .2.3.3-.8-.1-1.1.8-.7 1.1-.1.5-.7.2-.5-.2.1-.5.1-1 .9-1.2zm-3.3-9.3c-.1.2-.1.4-.2.6.7-.5 1.5.6.9 1.3.2.1.4.1.6.2.2-1.5-.2-2.1-1.3-2.1zm4.2 2.9c-.1.1-.1.2-.2.3-.3 0-.5.1-.7.4a.26.26 0 0 1 .1.5c-.6.2-.8-.6-.4-.7.3-.5.7-.7 1.2-.5zm.8-.3c.2 0 .3.2.3.3-.7 0-1.8 1.3-.7 2.1-1.4.3-.7-2.5.4-2.4zm-.6 3.3l-.4.4c-.3-.2-.6-.4-.9-.1.2-.1.3-.1.5.1.3.3-.2.8-.7.5-.4-.3-.4-.7-.2-1 .6-.4 1.2-.3 1.7.1zm0 2.4l-.4-.4c-.3.2-.6.4-.9.1.2.1.3.1.5-.1.3-.3-.2-.8-.7-.5-.4.3-.4.7-.2 1 .6.4 1.2.3 1.7-.1zm-4.6 2.3c.6-1 1.2-.9 2.1-.4.4.3 0 1.1-.7.6-.2-.5-.8-.5-1.4-.2zm-5.3-.2c.2.1.2.4 0 .5-.3-.1-.5-.3-.5-.6-.1-.6.3-.8.9-.9v.5c-.5 0-.6.2-.4.5zm.9-.8c-.1.4 0 .7.4 1 .2.2-.1.6-.4.2-.3-.6-.4-1 0-1.2zm2.3 0c.1.4 0 .7-.4 1-.2.2.1.6.4.2.3-.6.3-1 0-1.2zm.8.4c-.4-.1 0-.8.3-.3.3.2.4.6.3 1.1-.1.2-.6.3-.6 0s.1-.4.3-.2c0-.2 0-.6-.3-.6zm-.4-1.1c.5 0 .3.6-.1.3-.2-.3-.4-.7 0-.9a.54.54 0 0 1 .8.6c.1.5.4.7.9.5.7-.4 1 .3.5.5a1.39 1.39 0 0 1-1.1-.2c-.4-.1-.5-.4-.6-.8.1-.4-.5-.5-.4 0zm-.2-1.8c.2.4.6 0 .2-.2-.3-.1-.6 0-.7.3 0 .3.3.7.7.4.4-.1.7.1.7.6-.1.7.6.5.6.1-.1-.3-.3-.6-.5-.7-.2-.3-.5-.3-.8-.3-.3.2-.5-.1-.2-.2zm2.3.7c.3-.1.6 0 .8.4.2.2.5-.1.2-.3-.5-.4-.8-.4-1-.1zm1.2.5c.1.4 0 .7-.4 1-.2.2.1.6.4.2.3-.6.3-.9 0-1.2zm.4-.4c-.7.3-.8-1 0-.7.6.1 1 .5.9 1.4-.1.4-.4.8-.6 1.2-.3.3-.6 0-.5-.2.6-.4.9-1.5.2-1.7zm-10.1.2c-.8.6-.5 1.5.3 1.7-.5-.6-.5-1.2 0-1.5-.2.6-.2 1 .5 1.2 1 0 1.4-.5 1.6-1-.2-.3 0-.5.7-.6.3-.3.7-.7.6-.8-.5-.1.2-.9.4-.4-.1.7-.6 1.2-1.2 1.7.3-.1.6-.2.7.2-.4-.1-.6.2-.7.5-.4.5-.8 1-1.5.8.2.6 1 .3.8 1-.5.1-1.1.2-1.4-.4-.3.1-.5.2-.5.4h-.8c.1-.6.1-1-.2-1.2-.9-1.1-.5-1.3 0-1.9 1-1.1 2 .2.7.3zm-2.1 2.8c-.1-.5 0-.9.2-1.1.3.4.8.2.8-.2-.1-.5-.5-.5-.7-.4-.6.2-1.3 1.4-.3 1.7zm.5-5.2c.1.2.2.3.4.5.2-.8.4-1.6.5-2.4.1-.4 0-.8-.1-1.2-.1-.3-.3-.4-.5-.3-1.4.7-1.2 2.1-1.2 3.4.1 0 .2-.1.3-.1-.2-1.1-.1-2.2 1-2.9.2.9.1 1.9-.4 3zm-.1-2.3c.1.2 0 .4 0 .5.1-.2.3-.2.4-.1-.1.1-.3.3-.2.5.1.4-.3.8-.5 1.2 0-.4-.3-.8-.1-1.1.1-.2 0-.3-.1-.5.1-.1.1-.1.3 0 0-.2.1-.4.2-.5zm8.4-5.4c.4-.2.5 0 .4.4-.4.3-.9 0-.8-.4.3-.3.5-.7 1-.7 1.5.3 1.6 1.3.9 2.7-.2.9-1.1 1.4-1 2.2 1.5-.6 2.5-.3 3.2.7.6.9.8 2.1.4 3.1-.3.7-.8 1.1-1.6 1.4-1.5.3-2.4-.2-3.1-1.2.3 0 .7 0 .7-.4.7.6 1.4.8 1.8-.1.2.1.3 0 .5-.1-.1.3-.4.7 0 1 .6-.2.9-.5 1.2-.8.6-.9.6-2-.1-2.8-.9-1.1-2.6-.9-3 .7V41c.1-.3 0-.6-.1-.8-.1-.1-.2-.2-.4-.2 0-.8.1-1.6.9-2 .7-.8.9-1.5.7-2.1-1.1-1-1.6-.4-1.6-.2zm-.8 2.6c.2-.3.4-.5.7-.4.3.2.3.5 0 .7-.3 0-.4-.1-.3-.3-.3-.1-.3.3-.2.7.2.4.2.7.2 1.1-.1 0-.3 0-.4.1-.1-.2-.2-.4-.3-.5-.1-.3-.3-.4-.4-.5.1-.2.2-.4.2-.5.1-.3 0-.4-.2-.4 0 .5-.2.4-.4.2-.2-.4.1-.7.4-.7.2 0 .3.8.7.5zm5.1-5.4c-.3.3 0 .8.5.9v-.1l.2-.2c-.5-.1-.7-.3-.7-.6zm1.1 4.4c.4 0 .6.2.7.6a1.1 1.1 0 0 0-.8 0c.1-.1.2-.3.1-.6zm-1.4 0c.6-.2 1.1-.3.9.8.2-.8-.2-1-.9-.8zm1.2.9c.4-.1.8 0 1.1.7-.2-.4-.6-.6-1.1-.7zm-2.5-5.9c1.3.2 1.9 0 1.5-.6 1.1-.4 1-1.1.2-2.1-.5-.5-1.2-.4-1.5.1-.3 0-.4.2-.5.3.5 0 1 0 1 1-.2.3-.2.5.1.6.6.4 0 .6-.8.7zm.7-2.3c-.2-.3-.1-.4.5-.3.4.1.6.5.7 1 0 .7-.4.7-.5.4-.1-.6-.4-1-.7-1.1zm-3 .7c.1 0 .1.1.2.1.3-.5.6-.8 1.2-.9.3-.7-.1-.7-.3-.7-.7.4-1.1.8-1.1 1.5zm1.1-.8c-.3-.5-.6 0-1 .8.3-.6.7-1 1-.8zM51.9 38c.2.3.3.7.3 1.1-.7-1.5-2.2-.1-1.2.6-.3-.1-.6-.2-.9-.2 0-1.1.3-1.9 1.8-1.5zm1.4-1c-.3 0-.5.1-.6.3-.2.4.1.7.4.5.2-.2.1-.3-.1-.4 0-.3.1-.3.3-.4zm1.8.2c.2-.1.3 0 .5.1.3.3.3.7 0 .7-.2-.1-.3-.3-.2-.5-.1-.1-.2-.2-.3-.2v-.1zm0-.4c.1-.4.3-.5.7-.6.5 0 .7.4.3.6-.3.1-.4 0-.4-.3-.3 0-.4.1-.6.3zm-1.5-.5c-.1-.4-.3-.5-.5-.5-.4 0-.6.4-.3.6.2.1.4 0 .4-.3.2 0 .3 0 .4.2zm1.5-4c-.3.3-.5.6-.5.9h-.5c-.2.6-.2 1.2.3 2 0 .3 0 .6.1.9.1-.3.2-.5.2-.8.6-.3 1.1-.9 1.2-1.9h-.6c.2-.4.1-.7-.2-1.1zm-.7 1.2c.4-.1.7-.1 1.1.1-.2.7-.5 1.2-.9 1.4-.3-.6-.3-1.1-.2-1.5zm-2.6.9c.4-.4.8-.8 1.1-.2-.3.4.1.6.4.2.4-1.5-1.7-1.2-1.5 0zm1.1-1.9c.3.1.5.4.5 1.1-.2-.1-.4-.3-.5-.3.1-.3 0-.6 0-.8zm-.8 0c-.4 0-.6.5-.2.7.3.2.5 0 .8-.5.3-.8.1-1.1-.1-1.5-.4-.4-.8-.3-1.1.1-.4.5-.2.4-.3-.1-.1-.3-.3-.5-.5-.5-.5 0-.8.1-1 .7-.1.4-.1.7 0 1.1.2.5.8-.1.3-.3 0-.8.4-1.3.8-.9.1.2.1.4.1.6.1.6.2.6.5.1.2-.2.2-.4.5-.5.2-.2.7.1.5.5 0 .3-.2.4-.3.5zm-1.3-1.9c.2.1.3.2.3.3.2-.6.7-.5.6 0 .1 0 .3-.2.5-.1-.1-1-1.1-.9-1.4-.2zm1.1-1.9c-.2.2-.5.4-.8.5.2.3.3.6.3.9h.4c.2-.3.4-.4.7-.6-.3-.3-.5-.5-.6-.8zm-2.4 3.2a.9.9 0 0 0 .1.5c-.3.1-.4.2-.5.5h-.4c0-.6.3-.9.8-1zm-.1 2c.1-.1.1-.2.2-.3-.1-.4-.3-.5-.5-.7-.6-.1-.7.1-1 .4-.2.1-.3.7 0 .8.6 0 .6-.5.3-.6.4-.3.9-.2 1 .4zm-.3-.3c.1.1.1.1.2.3-.6.6-1.5 2.4-.1 1.1.1.7-.3 1.3-1 1.4-.5-.6-.4-1.2-.1-1.7.4-.3.6-.8 1-1.1zm.2 4.2c.1 0 .2-.1.3-.1.2-.4.1-.6.1-.8-.3-.5-.6-.4-1-.3-.3 0-.7.3-.5.6.4.4.8 0 .7-.2.4 0 .6.3.4.8zm-1 1.3c.1 0 .3-.1.4-.1.2-.4.1-.6.1-.8-.3-.5-.5-.5-1-.4-.3-.1-.7.3-.6.5.4.4.8.1.7-.2.5.1.7.5.4 1zm2-2c0-.1 0-.2-.1-.3.2-.3.4-.3.6-.4.5.1.6.3.7.7.2.2 0 .7-.2.7-.5-.2-.4-.7-.1-.6-.2-.4-.6-.5-.9-.1zm1.5-2.5c0 .6-.1 1.1-.6 1.4-.1.1-.1.2-.2.4.6.4 1.3-.8 1.1-1.9-.1 0-.2 0-.3.1zm-6.1 6.8c.4-.8.8-1.4 1.2-1.5-.6-2.4-1.2-4.6-1.9-6.7h-.4c.8 2.5 1.1 5.3 1.1 8.2zm-1.4-8.1c.1 0 .2-.1.3-.1.7 2.8 1.1 5.5 1 7.9 0 1 .1 2.3-.4 2.9.2-4.7-.3-7.9-.9-10.7zm.3 8h.4s.1 0 .1.1v2.2s0 .1-.1.1h-.4s-.1 0-.1-.1l.1-2.3c0 .1 0 0 0 0zm.1-2.2h.3c0 .4 0 .9.1 1.3h-.3l-.1-1.3zm-.3-2.4h.4c.1.5.1 1 .2 1.6h-.4l-.2-1.6z" class="h"/><path d="M61.2 33.3H63l.6.6v1.3l-.6.7h-1.8l-.6-.7v-1.3l.6-.6z" class="o"/><path d="M56.3 32c.4.5 1.1.5 1.6 0 .4-.5.4-1.2 0-1.7s-1.1-.5-1.6 0-.5 1.3 0 1.7z" class="h"/><path d="M56.4 31.9c.4.4 1 .4 1.3 0 .4-.4.4-1 0-1.4s-1-.4-1.3 0c-.4.4-.4 1 0 1.4z" fill="#231f20"/><g class="h"><path d="M60.5 20c-.6.5-.8 1.1-.9 2.1l.6 2.8h.3V20z"/><path d="M60.6 19.4c-.7.4-1.1 1-1.2 1.9.1.2.1.4.2.6.1-.8.4-1.6 1-2.1v-.4zm-3.2 1.8h.5c.3.6.4 1.2 0 1.8h-.7c.4-.6.4-1.2.2-1.8z"/><path d="M57.3 21.2c.2.6.2 1.1-.1 1.8-.3.1-.2-.1-.1-.2.2-.5.2-.9.1-1.4-.2-.2-.2-.5.1-.2zm-.8 3c.3.3.7.6 1.3.5 0-.3 0-.5-.1-.7.2 0 .4.1.4.3.1-.5-.1-.8-.5-1 .4 0 .7.2.8 1 .4-.4.6-.8 0-1.2.2-.1.4 0 .5.3 0-.6-.3-.9-.7-.9.3-.3.5-.2.8.1-.1-.5-.2-.7-.6-.6-.4 0-.3-.5 0-.4.8.2 1.1.8.9 2.3.3.2.4.7 0 1 .1-.3 0-.5-.2-.5-.6.8-2.5.7-2.6-.2zm1-4.2c.2.3.2.6 0 1-.1.1-.1 0-.1-.1a.78.78 0 0 0-.1-.8c.1-.1.1-.3.2-.1z"/></g><path d="M57 21.4c-.2-.3-.5-.3-.7 0s-.2.8 0 1.2c.2.3.5.3.7 0s.2-.8 0-1.2z" class="i"/><path d="M56.4 22.7c.3.3.7-.3.6-.8 0 .6-.2.8-.6.8z" class="m"/><path d="M56.9 21.4c-.3-.3-.7.3-.6.8 0-.6.2-.9.6-.8z" class="n"/><path d="M57.4 20.1c-.1-.2-.3-.2-.4 0s-.1.5 0 .7.3.2.4 0 .1-.5 0-.7z" class="i"/><path d="M57.1 20.9c.2.2.4-.2.3-.5 0 .4-.1.5-.3.5z" class="m"/><path d="M57.3 20.1c-.2-.2-.4.2-.3.5 0-.4.1-.5.3-.5z" class="n"/><path d="M57.1 23.5c-.1-.2-.3-.2-.4 0s-.1.5 0 .7.3.2.4 0 .1-.5 0-.7z" class="i"/><path d="M56.8 24.2c.2.2.4-.2.3-.5 0 .4-.1.5-.3.5z" class="m"/><path d="M57.1 23.4c-.2-.2-.4.2-.3.5 0-.4.1-.5.3-.5z" class="n"/><path d="M57.4 23.3c.2.4.2.7-.1 1.1-.2.1-.2 0-.1-.1.2-.3.2-.6 0-.9-.1-.1 0-.3.2-.1z" class="h"/><path d="M57.6 19.1c-.1-.1-.3-.1-.4 0s-.1.3 0 .3c.1.1.3.1.4 0s.1-.2 0-.3z" fill="#2262a1"/><path d="M57.3 19.4c.2.1.4-.1.3-.2 0 .2-.1.2-.3.2z" class="q"/><path d="M57.5 19c-.2-.1-.4.1-.3.2 0-.1.1-.2.3-.2z" class="o"/><path d="M58.1 17.1c-.3-.3-.9-.3-1.2 0s-.3.9 0 1.2.9.3 1.2 0 .3-.9 0-1.2z" class="l"/><path d="M57.1 18.3c.5.3 1.2-.3 1-.8 0 .7-.4.9-1 .8z" class="k"/><g class="h"><path d="M57.7 18.6c1.1 1.8 1.9 3.7 2 6.3h.4c-.3-3-1.2-5-2.4-6.3zm6 1.4c.6.5.8 1.1.9 2.1l-.6 2.8h-.3V20z"/><path d="M63.7 19.4c.7.4 1.1 1 1.2 1.9-.1.2-.1.4-.2.6-.1-.8-.4-1.6-1-2.1v-.4zm3.2 1.8h-.5c-.3.6-.4 1.2 0 1.8h.7c-.4-.6-.4-1.2-.2-1.8z"/><path d="M67 21.2c-.2.6-.2 1.1.1 1.8.3.1.2-.1.1-.2-.2-.5-.2-.9-.1-1.4.2-.2.2-.5-.1-.2zm.8 3c-.3.3-.7.6-1.3.5 0-.3 0-.5.1-.7-.2 0-.4.1-.4.3-.1-.5.1-.8.5-1-.4 0-.7.2-.8 1-.4-.4-.6-.8 0-1.2-.2-.1-.4 0-.5.3 0-.6.3-.9.7-.9-.3-.3-.5-.2-.8.1.1-.5.2-.7.6-.6.4 0 .3-.5 0-.4-.8.2-1.1.8-.9 2.3-.3.2-.4.7 0 1-.1-.3 0-.5.2-.5.5.8 2.5.7 2.6-.2zm-1-4.2c-.2.3-.2.6 0 1 .1.1.1 0 .1-.1a.78.78 0 0 1 .1-.8c-.1-.1-.1-.3-.2-.1z"/></g><path d="M67.3 21.4c.2-.3.5-.3.7 0s.2.8 0 1.2c-.2.3-.5.3-.7 0s-.2-.8 0-1.2z" class="j"/><path d="M67.8 22.7c-.3.3-.7-.3-.6-.8.1.6.3.8.6.8z" fill="#005938"/><path d="M67.4 21.4c.3-.3.7.3.6.8 0-.6-.3-.9-.6-.8z" class="j"/><path d="M66.9 20.1c.1-.2.3-.2.4 0s.1.5 0 .7-.3.2-.4 0-.1-.5 0-.7z" class="i"/><path d="M67.2 20.9c-.2.2-.4-.2-.3-.5 0 .4.1.5.3.5z" class="m"/><path d="M67 20.1c.2-.2.4.2.3.5 0-.4-.1-.5-.3-.5z" class="n"/><path d="M67.1 23.5c.1-.2.3-.2.4 0s.1.5 0 .7-.3.2-.4 0-.1-.5 0-.7z" class="i"/><path d="M67.4 24.2c-.2.2-.4-.2-.3-.5.1.4.2.5.3.5z" class="m"/><path d="M67.2 23.4c.2-.2.4.2.3.5 0-.4-.1-.5-.3-.5z" class="n"/><path d="M66.9 23.3c-.2.4-.2.7.1 1.1.2.1.2 0 .1-.1-.2-.3-.2-.6 0-.9 0-.1 0-.3-.2-.1z" class="h"/><path d="M66.7 19.1c.1-.1.3-.1.4 0s.1.3 0 .3c-.1.1-.3.1-.4 0s-.1-.2 0-.3z" fill="#2262a1"/><path d="M67 19.4c-.2.1-.4-.1-.3-.2 0 .2.1.2.3.2z" class="q"/><path d="M66.8 19c.2-.1.4.1.3.2 0-.1-.2-.2-.3-.2z" class="o"/><path d="M66.2 17.1c.3-.3.9-.3 1.2 0s.3.9 0 1.2-.9.3-1.2 0-.3-.9 0-1.2z" class="l"/><path d="M67.1 18.3c-.5.3-1.2-.3-1-.8.1.7.5.9 1 .8z" class="k"/><g class="h"><path d="M66.6 18.6c-1.1 1.8-1.9 3.7-2 6.3h-.4c.3-3 1.1-5 2.4-6.3-.1 0 0 0 0 0zm-4.5 0c-.3 0-.6 0-.8.3s0 .6.2.4c.1-.1.1-.2-.1-.3 0-.2.2-.3.5-.4v.4c-.3.1-.1.3.1.2.2.1.4-.1.1-.2v-.4c.3 0 .5.2.5.4-.2.1-.2.2-.1.3.2.2.4-.1.2-.4.1-.3-.2-.3-.6-.3zm0 1.5c-.3 0-.6 0-.8-.3-.2-.2 0-.5.2-.4.1.1.1.2-.1.3 0 .2.2.3.5.3v-.4c-.3-.1-.1-.3.1-.2.2-.1.4.1.1.2v.4c.3 0 .5-.1.5-.3-.2-.1-.2-.2-.1-.3.2-.2.4.1.2.4.1.3-.2.3-.6.3zm-.9.6h.3v.7h-.3v-.7zm1.6 0h.3v.7h-.3v-.7z"/><path d="M62.8 20.4zm-1.6 0zm.9 2.2h-.6c-.3 0-.2.4-.2-.1v-.3c.1 0 .2.3.4.1.1-.2.1-.6-.1-.6-.5 0-.4-.4-.1-.2.2-.1.3.5.6.4.3.1.4-.5.6-.4.3-.1.4.3-.1.2-.2 0-.2.4-.1.6.2.1.3-.1.4-.1v.2c0 .3.1.4-.1.2 0 0-.1-.1-.2 0s-.3 0-.5 0z"/></g><path d="M61.5 7.8c-.6.3-1.1 1.3-1.1 2.3s.4 1.8.9 2.2c0-.1.1-.1.1-.1a.85.85 0 0 1 1.3 0l.1.1c.5-.4.9-1.3.9-2.2 0-1.1-.4-2-1.1-2.3-.3.2-.7.2-1.1 0z" class="j"/><path d="M62.7 6.4c-.3-.3-.9-.3-1.2 0s-.3.9 0 1.2.9.3 1.2 0 .3-.8 0-1.2z" class="l"/><path d="M61.7 7.7c.5.3 1.2-.3 1-.8-.1.6-.4.8-1 .8z" class="k"/><path d="M61.4 8.2c-.6.4-.7 2.8-.2 3.5-.4-1.4-.3-2.6.2-3.5z" class="j"/><path d="M62.9 8.2c.6.4.7 2.8.2 3.5.3-1.4.2-2.6-.2-3.5z" fill="#0a5737"/><path d="M62 16.8h-1.8c-.2-1.5.4-2.5 1.9-2.8 1.5.3 2.1 1.3 1.9 2.8h-1.2l.2.2v.2h1.4v-.4l.1-.1h.5v-.5h-.2l-.1-.1h-.1v-1.3l.2-.2h.2c-.1-.2-.2-.4-.3-.5h-1.1v-.4c-.1 0-.2-.1-.3-.1l-.2.2h-1.2l-.1-.1c-.1 0-.1 0-.2.1v.4h-1.1c-.1.2-.2.3-.3.5h.2l.2.2v1.3h-.1l-.1.1h-.2v.5h.5l.1.1v.4h1.5v-.2l.2-.2h.3l-.8-.1z" class="h"/><path d="M62.7 12.2c-.3-.3-.9-.3-1.2 0s-.3.9 0 1.2.9.3 1.2 0 .3-.8 0-1.2z" class="l"/><path d="M61.7 13.5c.5.3 1.2-.3 1-.8-.1.6-.4.8-1 .8z" class="k"/><path d="M62.7 17.1c-.3-.3-.7-.3-1 0s-.3.7 0 1 .7.3 1 0 .3-.8 0-1z" class="i"/><path d="M61.9 18.1c.4.2 1-.2.9-.7-.1.6-.4.8-.9.7z" class="m"/><path d="M62.5 17c-.4-.2-1 .2-.9.7.1-.5.4-.8.9-.7z" class="n"/><path d="M59.9 17c-.2-.3-.5-.3-.7 0a.91.91 0 0 0 0 1c.2.3.5.3.7 0 .2-.2.2-.7 0-1z" class="i"/><path d="M59.3 18.1c.3.2.7-.2.6-.7 0 .5-.2.7-.6.7z" class="m"/><path d="M59.8 17c-.3-.2-.7.2-.6.7 0-.6.2-.8.6-.7z" class="n"/><path d="M65.1 17c-.2-.3-.5-.3-.7 0a.91.91 0 0 0 0 1c.2.3.5.3.7 0 .2-.2.2-.7 0-1z" class="i"/><path d="M64.5 18.1c.3.2.7-.2.6-.7 0 .5-.2.7-.6.7z" class="m"/><path d="M65 17c-.3-.2-.7.2-.6.7 0-.6.2-.8.6-.7z" class="n"/><path d="M60.1 15.3c-.1-.3-.3-.3-.5-.2-.2.2-.3.5-.2.7.1.3.3.3.5.2s.3-.4.2-.7z" class="r"/><path d="M59.4 15.9c.2.3.6 0 .6-.3-.1.4-.3.5-.6.3z" fill="#2e3192"/><path d="M60 15.2c-.2-.3-.6 0-.6.3.1-.3.4-.4.6-.3z" class="o"/><path d="M61.1 13.8c.1-.2-.1-.4-.4-.3-.3 0-.6.3-.7.5s.1.4.4.3.6-.3.7-.5z" class="i"/><path d="M60.1 14c0 .3.5.2.8-.1-.4.3-.7.3-.8.1z" class="m"/><path d="M61.1 13.7c0-.3-.5-.2-.8.1.4-.3.6-.3.8-.1z" class="n"/><path d="M61 17.3c-.2-.2-.4-.2-.6 0a.37.37 0 0 0 0 .6c.2.2.4.2.6 0s.2-.5 0-.6z" class="r"/><path d="M60.6 17.9c.2.1.6-.1.5-.4-.1.3-.3.4-.5.4z" class="q"/><path d="M60.9 17.3c-.2-.1-.6.1-.5.4.1-.4.3-.5.5-.4z" class="o"/><path d="M63.9 17.3a.37.37 0 0 0-.6 0c-.2.2-.2.4 0 .6s.4.2.6 0 .2-.5 0-.6z" class="r"/><path d="M63.5 17.9c.2.1.6-.1.5-.4-.1.3-.3.4-.5.4z" class="q"/><path d="M63.8 17.3c-.2-.1-.6.1-.5.4.1-.4.2-.5.5-.4z" class="o"/><g class="h"><path d="M62.7 14.3c-.3-.3-.7-.3-1 0s-.3.7 0 1 .7.3 1 0c.2-.2.2-.7 0-1z"/><path d="M61.8 15.4c.4.3 1-.2.9-.7-.1.5-.4.8-.9.7zm.6-1.1c-.4-.3-1 .2-.9.7.1-.6.5-.8.9-.7z"/></g><path d="M64.2 15.3c.1-.3.3-.3.5-.2.2.2.3.5.2.7-.1.3-.3.3-.5.2s-.3-.4-.2-.7z" class="r"/><path d="M64.9 15.9c-.2.3-.6 0-.6-.3.1.4.3.5.6.3z" fill="#2e3192"/><path d="M64.3 15.2c.2-.3.6 0 .6.3-.1-.3-.4-.4-.6-.3z" class="o"/><path d="M63.2 13.8c-.1-.2.1-.4.4-.3.3 0 .6.3.7.5s-.1.4-.4.3-.6-.3-.7-.5z" class="i"/><path d="M64.2 14c0 .3-.5.2-.8-.1.4.3.7.3.8.1z" class="m"/><path d="M63.2 13.7c0-.3.5-.2.8.1-.4-.3-.6-.3-.8-.1z" class="n"/><g class="j"><path d="M62.2 16l.5.5-.2.2h-.7l-.2-.2.6-.5z"/><path d="M62.2 16l-.5.5.5-.4.4.4-.4-.5z"/><path d="M62.2 16.7l-.5-.2.5.2.4-.2-.4.2z"/></g><path d="M62.2 14c1.4.3 2 1.2 1.8 2.6h-1l.1-.1-.9-.9c.2 0 .4-.1.5-.2.3-.3.3-.8 0-1.1-.2-.1-.4-.2-.5-.3zm-.9 2.7h-1c-.2-1.4.3-2.3 1.8-2.6v.1c-.2 0-.4.1-.5.2-.3.3-.3.8 0 1.1.1.1.3.2.5.2l-.9.9.1.1z" class="h"/><path d="M62.6 20.6c-.2-.2-.6-.2-.9 0-.2.2-.2.6 0 .9.2.2.6.2.9 0 .2-.3.2-.7 0-.9z" fill="#005c96"/><path d="M62.1 20.6h.2v.3h.3v.2h-.3v.3h-.2v-.3h-.4v-.2h.4v-.3z" fill="#8ed8f8"/><path d="M62.6 22.9c-.2-.2-.6-.2-.9 0-.2.2-.2.6 0 .9.2.2.6.2.9 0 .2-.2.2-.6 0-.9z" class="i"/><path d="M61.5 23.6l-.3.5v.3l.4-.6c0-.1-.1-.1-.1-.2zm1.3 0l.2.3v.3l-.3-.4c.1-.1.1-.1.1-.2zm-.1-.7l.3.2v.2l-.1-.1c-.1-.1-.1-.2-.2-.3zm.2.4l.1.1v.2l-.1-.2c0 .1 0 0 0-.1zm-1.3-.4l-.4.3v.2l.2-.2c.1-.1.2-.2.2-.3zm-.1.4l-.2.3v.2l.3-.3c-.1 0-.1-.1-.1-.2z" class="h"/><path d="M61.9 23.8c.4.2.9-.2.7-.6 0 .5-.3.7-.7.6z" class="m"/><path d="M62.4 22.9c-.4-.2-.9.2-.7.6 0-.5.3-.6.7-.6z" class="n"/><path d="M62.1 25.2h-.4c-.2 0-.3 0-.2-.3 0 0 .1-.1.1-.2.1-.2.3-.4.4-.5.1.2.3.3.4.5.1.1.1.1.1.2.2.3 0 .3-.2.3h-.2z" class="j"/><path d="M62.2 25.5c-1.5 0-.7-.8-.2-1.5.1 0 .3.1.4 0 .6.7 1.1 1.5-.2 1.5zm-.1-.3h-.4c-.2 0-.4-.1-.2-.3 0-.1.1-.1.1-.2.2-.2.3-.4.5-.6.1.2.3.4.4.6l.2.2c.2.3 0 .3-.3.3h-.3z" fill="#a78b6b"/><path d="M58 21.2c.1.1.2.1.4-.1.1.4.3.4.5.4.2-.3-.1-.9-.4-.8.3-.4.1-.7-.4-.4.5-.4.1-.8-.3-.5.4-.4.2-.7 0-.9 0 .2.1.7-.4.7.3.3.4.7.4 1.4.1.1.2.1.2.2zm0-.9c-.2.1-.2.2-.2.3 0-.2 0-.3.2-.3zm8.3 0c.2.1.2.2.2.3 0-.2-.1-.3-.2-.3zm-.4.4c.3.1.4.3.4.4-.1-.3-.2-.4-.4-.4zm-7.5 0c-.4.1-.4.3-.4.4 0-.3.1-.4.4-.4zm7.9.5c-.1.1-.2.1-.4-.1-.1.4-.3.4-.5.4-.2-.3.1-.9.4-.8-.3-.4-.1-.7.4-.4-.5-.4-.1-.8.3-.5-.4-.4-.2-.7 0-.9 0 .2-.1.7.4.7-.3.3-.4.7-.4 1.4-.1.1-.2.1-.2.2zm-3.2-2.5v6.8h5V25h-4.5v-6.3c.9 0 1.6.2 2.1.8.1-.1.2-.3.3-.4-.8-.7-1.7-.8-2.6-.8-.3.1-.3.1-.3.4zm-2 0v6.8h-5V25h4.5v-6.3c-.9 0-1.6.2-2.1.8-.1-.1-.2-.3-.3-.4.8-.7 1.7-.8 2.6-.8.4.1.3.1.3.4z" class="h"/><path d="M62.7 27.7c-.3-.3-.9-.3-1.2 0s-.3.9 0 1.2.9.3 1.2 0c.4-.4.4-.9 0-1.2z" class="l"/><path d="M61.8 28.9c.5.3 1.2-.3 1-.8-.1.6-.5.9-1 .8z" class="k"/><path d="M56.3 28.3h4.9c0 .1.1.3.1.4h-5.1c-.1 0-.2-.1-.2-.2.1-.1.2-.2.3-.2zm6.8 0H68c.1 0 .2.1.2.2s-.1.2-.2.2h-5.1c.1-.1.1-.2.2-.4zm-6.8-.5h5.1c-.1.1-.1.3-.1.4h-4.9c-.1 0-.2-.1-.2-.2-.1-.1 0-.2.1-.2zm6.6 0H68c.1 0 .2.1.2.2s-.1.2-.2.2h-4.9c-.1-.1-.1-.3-.2-.4z" class="h"/><path d="M57.3 26.1c-.3-.3-.7-.3-1 0s-.3.7 0 1 .7.3 1 0a.91.91 0 0 0 0-1z" class="l"/><path d="M56.5 27.2c.4.2 1-.2.9-.7-.2.5-.5.7-.9.7z" class="k"/><path d="M58.4 26.4a.37.37 0 0 0-.6 0c-.2.2-.2.4 0 .6s.4.2.6 0c.2-.1.2-.4 0-.6z" class="i"/><path d="M57.9 27.1c.3.2.6-.1.5-.4 0 .3-.2.4-.5.4z" class="m"/><path d="M58.3 26.4c-.3-.2-.6.1-.5.4 0-.3.2-.4.5-.4z" class="n"/><path d="M60 26.4c-.2-.2-.4-.2-.6 0s-.2.4 0 .6.4.2.6 0c.1-.1.1-.4 0-.6z" class="i"/><path d="M59.4 27.1c.3.2.6-.1.5-.4 0 .3-.2.4-.5.4z" class="m"/><path d="M59.8 26.4c-.3-.2-.6.1-.5.4 0-.3.2-.4.5-.4z" class="n"/><g class="i"><path d="M55.4 26.1h.2v1.2h-.2v-1.2z"/><path d="M55.9 26l-.3.1v1.2l.3.1V26z"/></g><g class="h"><path d="M55.9 26c.1-.3.3-.4.5-.2v.2c-.1 0-.1.1-.2.1-.3.3-.3.8 0 1.1.1.1.1.1.2.1v.3c-.2.1-.4.1-.5-.2 0-.2-.1-.5 0-.7V26zm1.2-.2c.3-.1.7 0 .9.3.3.2.7 0 .5-.2-.5-.3-1-.3-1.4-.1zm3.6 0c-.3-.1-.7 0-.9.3-.3.2-.7 0-.5-.2.5-.3 1-.3 1.4-.1zm.4 1.7c-.3 0-.5 0-.7-.2s-.5 0-.4.2c.4.1.7.2 1.1 0zm0-.6s-.1 0 0 0c-.4 0-.6.5-.2.5.1 0 .1 0 .2-.1v-.4z"/><path d="M61.1 26.1c-.1.1-.2.2-.4.3-.3.1-.3.6 0 .5.2-.1.3-.3.4-.4v-.4z"/></g><path d="M66.9 26.1c.3-.3.7-.3 1 0s.3.7 0 1-.7.3-1 0-.3-.7 0-1z" class="l"/><path d="M67.7 27.2c-.4.2-1-.2-.9-.7.1.5.5.7.9.7z" class="k"/><path d="M65.8 26.4c.2-.2.4-.2.6 0s.2.4 0 .6-.4.2-.6 0c-.2-.1-.2-.4 0-.6z" class="i"/><path d="M66.3 27.1c-.3.2-.6-.1-.5-.4 0 .3.2.4.5.4z" class="m"/><path d="M65.9 26.4c.3-.2.6.1.5.4 0-.3-.2-.4-.5-.4z" class="n"/><g class="i"><path d="M68.8 26.1h-.2v1.2h.2v-1.2z"/><path d="M68.3 26l.3.1v1.2l-.3.1V26z"/></g><g class="h"><path d="M68.2 26c-.1-.3-.3-.4-.5-.2v.2c.1 0 .1.1.2.1.3.3.3.8 0 1.1-.1.1-.1.1-.2.1v.3c.2.1.4.1.5-.2 0-.2.1-.5 0-.7.1-.3.1-.5 0-.7zm-1.1-.2c-.3-.1-.7 0-.9.3-.3.2-.7 0-.5-.2.5-.3 1-.3 1.4-.1z"/><path d="M66 27.3c.3-.1.4.3.2.4-.3 0-.6 0-.7-.3-.1-.2-.2-.2-.3 0-.2.2-.4.3-.7.3-.3-.2-.1-.5.2-.4.5.3.5-.1.6-.5v-.6c-.5-.6.8-.5.3 0v.7c-.2.3-.1.7.4.4zm1.5.2c-.3 0-.5 0-.7-.2s-.5 0-.4.2c.5.1.8.2 1.1 0z"/></g><path d="M52.8 27.1c-.3-.3-.9-.3-1.2 0s-.3.9 0 1.2.9.3 1.2 0 .3-.9 0-1.2z" class="l"/><path d="M51.9 28.3c.5.3 1.2-.3 1-.8-.1.7-.5.9-1 .8z" class="k"/><path d="M44 32.8c.4.3.9.3 1.2-.1s.3-.9-.1-1.2-.9-.3-1.2.1-.2.9.1 1.2z" class="l"/><path d="M44.9 31.5c-.5-.3-1.2.4-1 .9.1-.6.4-.9 1-.9z" class="k"/><path d="M53.1 32.3c.3.3.7.3 1 0s.3-.7 0-1-.7-.3-1 0-.3.8 0 1z" class="l"/><path d="M53.9 31.3c-.4-.2-1 .2-.8.6 0-.4.3-.6.8-.6z" class="k"/><path d="M54.8 31.9c.2.2.6.2.9 0 .2-.2.2-.6 0-.9-.2-.2-.6-.2-.9 0-.2.3-.2.7 0 .9zm-7.7 7.7a.61.61 0 0 0 .8 0 .61.61 0 0 0 0-.8.61.61 0 0 0-.8 0c-.3.2-.3.6 0 .8z" class="l"/><path d="M47.7 38.7c-.4-.2-.9.2-.7.6.1-.4.3-.6.7-.6z" class="k"/><path d="M49 38.9a.61.61 0 0 0 .8 0 .61.61 0 0 0 0-.8.61.61 0 0 0-.8 0 .61.61 0 0 0 0 .8z" class="l"/><path d="M49.7 38c-.4-.2-.9.2-.7.6 0-.5.3-.6.7-.6z" class="k"/><path d="M44.2 41.6l.3-.1v2.1l-.3-.1v-1.9z" class="s"/><path d="M45.8 43.4h.9l.5.7v2l-.8.8h-.8v-.2h.4l.8-.8v-1.7l-.4-.6h-.5.5l.3.6v1.7l-.8.7h-.7v-.3h.7l.5-.5v-1.5l-.3-.5h-.5v-.2h.2v-.2z" class="h"/><path d="M44.9 46.3h.9l.5-.6v-1.3l-.3-.5h-.8l-.4.5-.1 1.1.2.8z" class="i"/><g class="j"><path d="M43.7 47.2h.2v1h-.2v-1z"/><path d="M43.9 47.2h.2v1h-.2v-1z"/></g><path d="M44.3 47c.1 0 .1 0 .1.1v1.4c0 .1 0 .1-.1.1s-.1 0-.1-.1v-1.4c0-.1 0-.1.1-.1z" fill="#4fa392"/><path d="M44.6 46.8c.1 0 .1.1.1.1v1.7c0 .1-.1.1-.1.1-.1 0-.1-.1-.1-.1v-1.7c-.1-.1 0-.1.1-.1z" fill="#56c5d0"/><path d="M45.2 46.7h.3v1.8h-.3v-1.8zm-.3-.4c.1 0 .2.1.2.2v2.1c0 .1-.1.2-.2.2s-.2-.1-.2-.2v-2.1l.2-.2z" class="h"/><path d="M44.6 39.1l-.2.1v.2c-.3 0-.5.6.1.8v.1l.2.1-.1-1.3zm-.2-2.4l-.2.2v.2a.47.47 0 0 0 .1.9v.1l.2.1-.1-1.5zm-.2-2.2l-.2.1v.2c-.3 0-.5.6.1.8v.1l.2.1-.1-1.3z" class="j"/><path d="M50.8 32.6c1.9.2.9 4.6-1.2 3.5 1.8.2 2.5-2.8 1.2-3.5zm-.4-.1c1.9.2.9 4.3-1.2 3.3 1.8.3 2.4-2.5 1.2-3.3z" class="h"/><path d="M50.6 32.9c-.4-.1-.9.4-1.2 1.1-.3.8-.3 1.5.1 1.7 1.3-.2 1.7-2 1.1-2.8z" class="i"/><path d="M54.1 40.4c.4-.2.8-.2 1 0s.2.6 0 1.1c.3.2.5.3.5.5s-.3.5-.7.6c.1.4.1.7-.1.9s-.5.2-.9.1c-.2.6-.4 1-.7 1-.2 0-.4-.4-.5-1-.3.1-.6 0-.7-.1-.2-.2-.2-.5-.1-.9-.4-.2-.6-.4-.6-.6s.1-.4.4-.5c-.2-.4-.2-.8 0-1s.7-.2 1.2 0c.2-.7.5-1.1.7-1.1s.4.4.5 1zm-1.6.2h1.7l.5.5v1.8l-.5.5h-1.7l-.5-.5v-1.8l.5-.5z" class="h"/><path d="M52.7 41H54l.3.3v1.4l-.3.3h-1.3l-.4-.3v-1.4l.4-.3z" class="j"/><path d="M52.7 40.9H54l.4.4v1.4l-.4.4h-1.3l-.4-.4v-1.4l.4-.4zm-.2-.2h1.6l.5.5v1.7l-.5.5h-1.6l-.5-.5v-1.7l.5-.5z" class="h"/><path d="M49.4 41.6h.7l.2.2v.7l-.2.1h-.7l-.1-.1v-.7l.1-.2z" class="j"/><g class="h"><path d="M49.4 41.6h.7l.2.2v.7l-.2.2h-.7l-.2-.2v-.7l.2-.2zm0-.2h.8l.2.2v.9l-.2.2h-.8l-.2-.2v-.9l.2-.2z"/><path d="M50.7 42.4v-.5s0-.1.1-.1h.1s.1 0 .1.1c.1 0 .1.1.1.2s-.1.2-.1.2 0 .1-.1.1h-.2zm-1.7-.7l.3-.3v-.1l-.1-.1h-.1c-.1-.1-.2 0-.2 0-.1.1-.1.2 0 .2v.1l.1.2c-.1 0-.1 0 0 0zm1.2 1.2l.3-.3h.1l.1.1v.1c.1.1 0 .2 0 .2-.1.1-.2.1-.2 0h-.1l-.2-.1c0 .1 0 .1 0 0zm.4-1.2l-.3-.3v-.1l.1-.1h.1c.1-.1.2 0 .2 0 .1.1.1.2 0 .2v.1l-.1.2zm-.6-.5h-.5s-.1 0-.1-.1V41s0-.1.1-.1c0-.1.1-.1.2-.1s.2.1.2.1.1 0 .1.1v.2zm0 1.8h-.5s-.1 0-.1.1v.1s0 .1.1.1c0 .1.1.1.2.1s.2-.1.2-.1.1 0 .1-.1V43c.1.1.1 0 0 0zm-.7-.1l-.3-.3h-.1l-.1.1v.1c-.1.1 0 .2 0 .2.1.1.2.1.2 0h.1l.2-.1c0 .1 0 .1 0 0zm-.4-.5v-.5s0-.1-.1-.1h-.1s-.1 0-.1.1c-.1 0-.1.1-.1.2s.1.2.1.2 0 .1.1.1h.2c-.1 0 0 0 0 0z"/></g><path d="M49.7 46.1h.3l.1.1v.4l-.1.1h-.3l-.1-.1v-.4l.1-.1z" class="j"/><g class="h"><path d="M49.6 46.1h.4l.1.1v.4l-.1.1h-.4l-.1-.1v-.4l.1-.1zm0-.1h.4l.1.1v.5l-.1.1h-.4l-.1-.1v-.5l.1-.1z"/><path d="M50.3 46.5v-.3h.1s.1 0 .1.1 0 .1-.1.1c0 .1 0 .2-.1.1 0 .1 0 0 0 0zm-.9-.4l.2-.2v-.1h-.2s-.1.1 0 .1v.2c-.1 0-.1 0 0 0 0 .1 0 .1 0 0zm.7.7l.2-.2h.1v.2s-.1.1-.1 0h-.2c.1.1 0 .1 0 0 0 .1 0 0 0 0zm.2-.7l-.2-.1v-.1h.2s.1.1 0 .1v.1c0 .1 0 .1 0 0zm-.3-.2h-.3v-.1s0-.1.1-.1.1 0 .1.1c.1 0 .1 0 .1.1zm0 1h-.3v.1s0 .1.1.1.1 0 .1-.1c.1 0 .1 0 .1-.1zm-.4-.1l-.2-.2h-.1v.2s.1.1.1 0h.2c-.1.1-.1.1 0 0 0 .1 0 0 0 0zm-.3-.3v-.3h-.1s-.1 0-.1.1 0 .1.1.1c0 .1 0 .2.1.1 0 .1 0 0 0 0zm4.6-.1c-.4-.4-1-.4-1.4 0s-.4 1 0 1.4 1 .4 1.4 0 .4-1 0-1.4zm.3-10.2c-.5 0-.9.4-.9.9s.4.9.9.9.9-.4.9-.9-.4-.9-.9-.9z"/></g><path d="M54.2 36.3c-.4 0-.8.3-.8.8 0 .4.3.8.8.8.4 0 .8-.3.8-.8s-.4-.8-.8-.8z"/><path d="M54.2 36.3a.68.68 0 1 0 0 1.4.68.68 0 0 0 .7-.7c0-.3-.3-.7-.7-.7z" class="s"/><path d="M56.8 33.7c.3.3.7.3 1 0s.3-.7 0-1-.7-.3-1 0-.3.8 0 1zm1.5 5.8c.3.3.7.3 1 0s.3-.7 0-1-.7-.3-1 0-.3.7 0 1z" class="l"/><path d="M59.1 38.5c-.4-.2-1 .2-.9.7.1-.6.4-.8.9-.7z" class="k"/><path d="M56.7 41.5h.7l.2.2v.7l-.2.2h-.7l-.1-.2v-.7l.1-.2z" class="j"/><g class="h"><path d="M56.7 41.5h.7l.2.2v.7l-.2.2h-.7l-.2-.2v-.7l.2-.2zm-.1-.1h.8l.2.2v.9l-.2.2h-.8l-.2-.2v-.9l.2-.2z"/><path d="M58 42.3v-.5s0-.1.1-.1h.1s.1 0 .1.1c.1 0 .1.1.1.2s-.1.2-.1.2 0 .1-.1.1H58c0 .1 0 .1 0 0zm-1.8-.7l.3-.3v-.1l-.1-.1h-.1c-.1-.1-.2 0-.2 0-.1.1-.1.2 0 .2v.1l.1.2zm1.3 1.3l.3-.3h.1l.1.1v.1c.1.1 0 .2 0 .2-.1.1-.2.1-.2 0h-.1l-.2-.1c0 .1 0 0 0 0zm.4-1.3l-.3-.3v-.1l.1-.1h.1c.1-.1.2 0 .2 0 .1.1.1.2 0 .2v.1l-.1.2zm-.6-.4h-.5s-.1 0-.1-.1V41s0-.1.1-.1c0-.1.1-.1.2-.1s.2.1.2.1.1 0 .1.1v.2c.1-.1 0 0 0 0zm0 1.8h-.5s-.1 0-.1.1v.1s0 .1.1.1c0 .1.1.1.2.1s.2-.1.2-.1.1 0 .1-.1V43zm-.7-.1l-.3-.3h-.1l-.1.1v.1c-.1.1 0 .2 0 .2.1.1.2.1.2 0h.1l.2-.1c0 .1 0 0 0 0zm-.4-.6v-.5s0-.1-.1-.1H56s-.1 0-.1.1c-.1 0-.1.1-.1.2s.1.2.1.2 0 .1.1.1h.2c-.1.1 0 .1 0 0z"/></g><path d="M56.9 46h.3l.1.1v.3l-.1.1h-.3l-.1-.1v-.3l.1-.1z" class="j"/><g class="h"><path d="M56.9 45.9h.4l.1.1v.4l-.1.1h-.4l-.1-.1V46l.1-.1zm-.1 0h.4l.1.1v.5l-.1.1h-.4l-.1-.1V46l.1-.1z"/><path d="M57.5 46.4v-.3h.1s.1 0 .1.1 0 .1-.1.1c.1.1.1.1-.1.1zm-.9-.4l.2-.2v-.1h-.2s-.1.1 0 .1v.2c-.1-.1-.1-.1 0 0zm.7.7l.2-.2h.1v.2s-.1.1-.1 0h-.2c.1.1.1.1 0 0zm.2-.7l-.2-.2v-.1h.2v.3c.1-.1.1-.1 0 0zm-.3-.2h-.3v-.1s0-.1.1-.1.1 0 .1.1c.1-.1.1-.1.1.1 0-.1 0 0 0 0zm0 .9h-.3v.1s0 .1.1.1.1 0 .1-.1c.1.1.1 0 .1-.1zm-.4 0l-.2-.2h-.1v.2s.1.1.1 0h.2c-.1.1 0 .1 0 0zm-.2-.3v-.3h-.1s-.1 0-.1.1 0 .1.1.1c-.1.1 0 .1.1.1z"/></g><path d="M56.4 31.9a.85.85 0 0 0 1.3 0c.4-.4.4-1 0-1.4a.85.85 0 0 0-1.3 0c-.3.4-.3 1 0 1.4z" class="i"/><path d="M57.5 30.5c-.5-.3-1.3.3-1.1.9.1-.7.4-1 1.1-.9z" class="h"/><path d="M56.7 32c.5.3 1.3-.3 1.1-.9-.1.7-.5.9-1.1.9z" class="p"/><path d="M53.7 46.6c-.3-.3-.7-.3-1 0s-.3.7 0 1 .7.3 1 0c.3-.2.3-.7 0-1z"/><path d="M55.5 31c-.4-.2-.9.2-.8.6.1-.4.4-.6.8-.6zm2.1 1.7c-.4-.2-1 .2-.9.7.1-.5.4-.7.9-.7z" class="k"/><path d="M54.4 36.6c-.3-.2-.8.2-.7.6.1-.5.3-.7.7-.6z" class="h"/><path d="M53.9 37.5c.3.2.8-.2.7-.6-.1.5-.3.7-.7.6z" class="p"/><path d="M53.7 46.7c-.3-.3-.7-.3-.9 0-.3.3-.3.7 0 .9.3.3.7.3.9 0s.2-.7 0-.9z" class="i"/><path d="M53.5 46.7c-.3-.2-.8.2-.7.6 0-.5.3-.7.7-.6z" class="h"/><path d="M53 47.6c.3.2.8-.2.7-.6-.1.5-.3.7-.7.6z" class="p"/><path d="M68 32c-.4.5-1.1.5-1.6 0-.4-.5-.4-1.2 0-1.7s1.1-.5 1.6 0c.4.5.4 1.3 0 1.7z" class="h"/><path d="M67.8 31.9c-.4.4-1 .4-1.3 0-.4-.4-.4-1 0-1.4s1-.4 1.3 0c.4.4.4 1 0 1.4z" fill="#231f20"/><path d="M71.4 27.1c.3-.3.9-.3 1.2 0s.3.9 0 1.2-.9.3-1.2 0-.3-.9 0-1.2z" class="l"/><path d="M72.4 28.3c-.5.3-1.2-.3-1-.8 0 .7.4.9 1 .8z" class="k"/><path d="M80.2 32.8c-.4.3-.9.3-1.2-.1s-.3-.9.1-1.2.9-.3 1.2.1.3.9-.1 1.2z" class="l"/><path d="M79.3 31.5c.5-.3 1.2.4 1 .9 0-.6-.4-.9-1-.9z" class="k"/><path d="M71.1 32.3c-.3.3-.7.3-1 0s-.3-.7 0-1 .7-.3 1 0 .3.8 0 1z" class="l"/><path d="M70.4 31.3c.4-.2 1 .2.8.6-.1-.4-.4-.6-.8-.6z" class="k"/><path d="M69.4 31.9c-.2.2-.6.2-.9 0-.2-.2-.2-.6 0-.9.2-.2.6-.2.9 0 .3.3.3.7 0 .9zm7.8 7.7a.61.61 0 0 1-.8 0 .61.61 0 0 1 0-.8.61.61 0 0 1 .8 0 .61.61 0 0 1 0 .8z" class="l"/><path d="M76.5 38.7c.4-.2.9.2.7.6-.1-.4-.3-.6-.7-.6z" class="k"/><path d="M75.2 38.9a.61.61 0 0 1-.8 0 .61.61 0 0 1 0-.8.61.61 0 0 1 .8 0 .61.61 0 0 1 0 .8z" class="l"/><path d="M74.5 38c.4-.2.9.2.7.6 0-.5-.3-.6-.7-.6z" class="k"/><path d="M80.1 41.6l-.4-.1v2.1l.4-.1v-1.9z" class="s"/><path d="M78.4 43.4h-.8l-.6.7.1 2 .7.8h.8v-.2h-.3l-.8-.8v-1.7l.3-.6-.3.6v1.7l.8.7h.7v-.3h-.6l-.5-.5v-1.5l.3-.5h.4v-.2h-.2v-.2z" class="h"/><path d="M79.3 46.3h-.9l-.5-.6v-1.3l.3-.5h.8l.4.5.1 1.1-.2.8z" class="i"/><g class="j"><path d="M80.5 47.2h-.2v1h.2v-1z"/><path d="M80.3 47.2h-.2v1h.2v-1z"/></g><path d="M80 47c-.1 0-.1 0-.1.1v1.4c0 .1 0 .1.1.1s.1 0 .1-.1v-1.4c0-.1-.1-.1-.1-.1z" fill="#4fa392"/><path d="M79.7 46.8c-.1 0-.1.1-.1.1v1.7c0 .1.1.1.1.1.1 0 .1-.1.1-.1v-1.7c0-.1-.1-.1-.1-.1z" fill="#56c5d0"/><path d="M79 46.7h-.3v1.8h.3v-1.8zm.3-.4c-.1 0-.2.1-.2.2v2.1c0 .1.1.2.2.2s.2-.1.2-.2v-2.1c0-.1-.1-.2-.2-.2z" class="h"/><path d="M79.6 39.1l.2.1v.2c.3 0 .5.6-.1.8v.1l-.2.1.1-1.3zm.3-2.4l.2.2v.2a.47.47 0 0 1-.1.9v.1l-.2.1.1-1.5zm.2-2.2l.2.1v.2c.3 0 .5.6-.1.8v.1l-.2.1.1-1.3z" class="j"/><g class="h"><path d="M73.4 32.6c-1.9.2-.9 4.6 1.2 3.5-1.8.2-2.4-2.8-1.2-3.5z"/><path d="M73.8 32.5c-1.9.2-.9 4.3 1.2 3.3-1.8.3-2.4-2.5-1.2-3.3z"/></g><path d="M73.6 32.9c.4-.1.9.4 1.2 1.1.3.8.3 1.5-.1 1.7-1.2-.2-1.7-2-1.1-2.8z" class="i"/><path d="M70.1 40.4c-.4-.2-.8-.2-1 0s-.2.6 0 1.1c-.3.2-.5.3-.5.5s.3.5.7.6c-.1.4-.1.7.1.9s.5.2.9.1c.2.6.4 1 .7 1 .2 0 .4-.4.5-1 .3.1.6 0 .7-.1.2-.2.2-.5.1-.9.4-.2.6-.4.6-.6s-.1-.4-.4-.5c.2-.4.2-.8 0-1s-.7-.2-1.2 0c-.2-.7-.5-1.1-.7-1.1s-.4.4-.5 1zm1.7.2H70l-.5.5v1.8l.5.5h1.7l.5-.5v-1.8l-.4-.5z" class="h"/><path d="M71.5 41h-1.2l-.4.3v1.4l.4.3h1.2l.4-.3v-1.4l-.4-.3z" class="j"/><path d="M71.6 40.9h-1.3l-.4.4v1.4l.4.4h1.3l.4-.4v-1.4l-.4-.4zm.1-.2h-1.6l-.5.5v1.7l.5.5h1.6l.5-.5v-1.7l-.5-.5z" class="h"/><path d="M74.8 41.6h-.7l-.2.2v.7l.2.1h.7l.2-.1v-.7l-.2-.2z" class="j"/><g class="h"><path d="M74.8 41.6h-.7l-.2.2v.7l.2.2h.7l.2-.2v-.7l-.2-.2zm.1-.2H74l-.2.2v.9l.2.2h.8l.2-.2v-.9l-.1-.2z"/><path d="M73.5 42.4v-.5s0-.1-.1-.1h-.1s-.1 0-.1.1c-.1 0-.1.1-.1.2s.1.2.1.2 0 .1.1.1h.2zm1.8-.7l-.3-.3v-.1l.1-.1h.1c.1-.1.2 0 .2 0 .1.1.1.2 0 .2v.1l-.1.2zM74 42.9l-.3-.3h-.1l-.1.1v.1c-.1.1 0 .2 0 .2.1.1.2.1.2 0h.1l.2-.1c0 .1 0 .1 0 0zm-.4-1.2l.3-.3v-.1l-.1-.1h-.1c-.1-.1-.2 0-.2 0-.1.1-.1.2 0 .2v.1l.1.2zm.6-.5h.5s.1 0 .1-.1V41s0-.1-.1-.1c0-.1-.1-.1-.2-.1s-.2.1-.2.1-.1 0-.1.1v.2c-.1 0 0 0 0 0zm0 1.8h.5s.1 0 .1.1v.1s0 .1-.1.1c0 .1-.1.1-.2.1s-.2-.1-.2-.1-.1 0-.1-.1V43c-.1.1 0 0 0 0zm.7-.1l.3-.3h.1l.1.1v.1c.1.1 0 .2 0 .2-.1.1-.2.1-.2 0h-.1l-.2-.1c0 .1 0 .1 0 0zm.5-.5v-.5s0-.1.1-.1h.1s.1 0 .1.1c.1 0 .1.1.1.2s-.1.2-.1.2 0 .1-.1.1h-.2z"/></g><path d="M74.6 46.1h-.4l-.1.1v.4l.1.1h.4l.1-.1v-.4l-.1-.1z" class="j"/><g class="h"><path d="M74.6 46.1h-.4l-.1.1v.4l.1.1h.4l.1-.1v-.4l-.1-.1zm0-.1h-.4l-.1.1v.5l.1.1h.4l.1-.1v-.5l-.1-.1z"/><path d="M73.9 46.5v-.3h-.1s-.1 0-.1.1 0 .1.1.1c0 .1 0 .2.1.1 0 .1 0 0 0 0zm.9-.4l-.2-.1v-.1h.2s.1.1 0 .1v.1c.1.1 0 .1 0 0zm-.6.7l-.2-.2h-.1v.2s.1.1.1 0h.2c-.1.1-.1.1 0 0 0 .1 0 0 0 0zm-.2-.7l.2-.2v-.1H74v.3c-.1 0-.1 0 0 0-.1.1 0 .1 0 0zm.3-.2h.3v-.1s0-.1-.1-.1-.1 0-.1.1c-.1 0-.2 0-.1.1-.1 0 0 0 0 0zm0 1h.3v.1s0 .1-.1.1-.1 0-.1-.1c-.1 0-.2 0-.1-.1-.1 0 0 0 0 0zm.3-.1l.2-.2h.1v.2s-.1.1-.1 0h-.2c.1.1.1.1 0 0 0 .1 0 0 0 0zm.3-.3v-.3h.1s.1 0 .1.1 0 .1-.1.1c0 .1 0 .2-.1.1 0 .1 0 0 0 0zm-4.6-.1c.4-.4 1-.4 1.4 0s.4 1 0 1.4-1 .4-1.4 0c-.3-.4-.3-1 0-1.4zM70 36.2c.5 0 .9.4.9.9s-.4.9-.9.9-.9-.4-.9-.9.4-.9.9-.9z"/></g><path d="M70 36.3c.4 0 .8.3.8.8 0 .4-.3.8-.8.8-.4 0-.8-.3-.8-.8.1-.5.4-.8.8-.8z"/><path d="M70 36.3a.68.68 0 1 1 0 1.4.68.68 0 0 1-.7-.7c0-.3.3-.7.7-.7z" class="s"/><path d="M67.4 33.7c-.3.3-.7.3-1 0s-.3-.7 0-1 .7-.3 1 0 .3.8 0 1zm-1.5 5.8c-.3.3-.7.3-1 0s-.3-.7 0-1 .7-.3 1 0 .3.7 0 1z" class="l"/><path d="M65.1 38.5c.4-.2 1 .2.9.7-.1-.6-.4-.8-.9-.7z" class="k"/><path d="M67.5 41.5h-.7l-.1.2v.7l.1.2h.7l.2-.2v-.7l-.2-.2z" class="j"/><path d="M67.5 41.5h-.7l-.2.2v.7l.2.2h.7l.2-.2v-.7l-.2-.2zm.1-.1h-.8l-.2.2v.9l.2.2h.8l.2-.2v-.9l-.2-.2zm-1.4.9v-.5s0-.1-.1-.1H66s-.1 0-.1.1c-.1 0-.1.1-.1.2s.1.2.1.2 0 .1.1.1h.2c0 .1 0 .1 0 0zm1.8-.7l-.3-.3v-.1l.1-.1h.1c.1-.1.2 0 .2 0 .1.1.1.2 0 .2v.1l-.1.2zm-1.3 1.3l-.3-.3h-.1l-.1.1v.1c-.1.1 0 .2 0 .2.1.1.2.1.2 0h.1l.2-.1c0 .1 0 0 0 0zm-.4-1.3l.3-.3v-.1l-.1-.1h-.1c-.1-.1-.2 0-.2 0-.1.1-.1.2 0 .2v.1l.1.2zm.6-.4h.5s.1 0 .1-.1V41s0-.1-.1-.1c0-.1-.1-.1-.2-.1s-.2.1-.2.1-.1 0-.1.1v.2c-.1-.1 0 0 0 0zm0 1.8h.5s.1 0 .1.1v.1s0 .1-.1.1c0 .1-.1.1-.2.1s-.2-.1-.2-.1-.1 0-.1-.1V43c-.1 0 0 0 0 0zm.7-.1l.3-.3h.1l.1.1v.1c.1.1 0 .2 0 .2-.1.1-.2.1-.2 0h-.1l-.2-.1c0 .1 0 0 0 0zm.5-.6v-.5s0-.1.1-.1h.1s.1 0 .1.1c.1 0 .1.1.1.2s-.1.2-.1.2 0 .1-.1.1h-.2c0 .1 0 .1 0 0z" class="h"/><path d="M67.3 46H67l-.1.1v.3l.1.1h.3l.1-.1v-.3l-.1-.1z" class="j"/><g class="h"><path d="M67.3 45.9H67l-.1.1v.4l.1.1h.4l.1-.1V46l-.2-.1zm.1 0H67l-.2.1v.5l.1.1h.4l.1-.1v-.6z"/><path d="M66.7 46.4v-.3h-.1s-.1 0-.1.1 0 .1.1.1c0 .1 0 .1.1.1zm.9-.4l-.2-.2v-.1h.2s.1.1 0 .1v.2c.1-.1.1-.1 0 0zm-.7.7l-.2-.2h-.1v.2s.1.1.1 0h.2c-.1.1 0 .1 0 0zm-.2-.7l.2-.2v-.1h-.2s-.1.1 0 .1v.2c-.1-.1-.1-.1 0 0zm.3-.2h.3v-.1s0-.1-.1-.1-.1 0-.1.1c-.1-.1-.1-.1-.1.1 0-.1 0 0 0 0zm0 .9h.3v.1s0 .1-.1.1-.1 0-.1-.1c-.1.1-.1 0-.1-.1zm.4 0l.2-.2h.1v.2s-.1.1-.1 0h-.2c.1.1.1.1 0 0zm.2-.3v-.3h.1s.1 0 .1.1 0 .1-.1.1c.1.1.1.1-.1.1z"/></g><path d="M67.8 31.9a.85.85 0 0 1-1.3 0c-.4-.4-.4-1 0-1.4a.85.85 0 0 1 1.3 0c.4.4.4 1 0 1.4z" class="i"/><path d="M66.8 30.5c.5-.3 1.3.3 1.1.9-.1-.7-.5-1-1.1-.9z" class="h"/><path d="M67.5 32c-.5.3-1.3-.3-1.1-.9.1.7.5.9 1.1.9z" class="p"/><path d="M70.5 46.6c.3-.3.7-.3 1 0s.3.7 0 1-.7.3-1 0c-.3-.2-.3-.7 0-1z"/><path d="M68.7 31c.4-.2.9.2.8.6-.1-.4-.4-.6-.8-.6zm-2.1 1.7c.4-.2 1 .2.9.7-.1-.5-.4-.7-.9-.7z" class="k"/><g class="h"><path d="M64.3 38.1v-.6h.3l.4.2v.4h-.7zm-1.3.8l.1-.1v-.1l.2-.2h1v.1l-.5.5h-.5l-.3-.2zm0-1.2v.2l-.1.3.3-.1h-.5l-.2.2.5.1v.1l-.4.4v-1l.4-.2zm1.2-.5l-.1.2v.8L64 38v-.6l.1-.2h-.5l.3-.2h-.7v-.3h.1l.1-.1v.4l.3.3.3-.3.2.2zm-1.9 2.5l-.1.2v-.1l.1-.1zm.1.3l.1-.2v.1l-.1.1zm.3-.6l.1-.1h.9l-.3.2.3.1h.1v.2h-1l-.1-.1.3.3h-.1l-.1-.1h-.2l.1-.5zm2.6-2.2l-.3-.1h-.5l-.2-.1h-.2l-.1-.1v-.1.1l.2.2h.2l.3-.3v-.7l-.1-.1.4-.2-.2-.2h-.2l.1-.1h.2l.7.7v1L65 37l.6-.3h.4V35l-.4-.4-.2.4-.5-.5h-.5v-.2l.4-.4h1.3l-.1-.3v-.5l.1.1v.6l.2.1.6.6v.1l.1.1v.2h-.4l-.1-.1v-.3l-.5-.2h-1.3l-.3.2.3.2.8.8v.6l.1.3.3-.3v-.2l.5-.5v-.1 1.6l-.1.1-.3-.2h-.9l.2.4zm.6-7.2l.1-.2v-.1l-.1-.1H65v.1l-.3.3v1.3l.2.2h.2l.2-.2v-1.1h.4l-.1.1v.7l.1.1v.2h-.1l-.2.2v.4l.3.3h.1-.6v-.3l.1-.2-.2-.1h-.6v-1.4l.8-.8h1l.3.3h-.1l-.6.3zm1.9 0h.2l.1.1-.1-.1v.1l-.2-.1zm.2-.4h-.2l-.3.3v-.4h.1l.1.1h.3zm.6.7l-.1-.2-.1-.1.1.1.1.2zm1.4 3.1l.1.1v2.7l-.1.1v.1l-.2-.1-.4-1.3h-.1l-.8-.8.1-.2-.1-.2v-.4h.3l-.2.1.1.2v.2l1.2 1.2.2.1.1-.2v-1.4l-.2-.2h-.2.2zm-.5-.1h-.6l.1-.1v-.1.1l.5.1zm.5 12.6h.1l.3-.3v-.7h.9v.7l.3.3h-.5l-.3-.3.2-.3-.2.4-.3.3H70v-.1zm9.7-10.5v-1.1h.1l-.1 1h-.1l.1.1zm-7 4.8h2.8l.9.9v3.2l-.1.1V44l-.3.3v.1l-.7.7-.2-.1-.1.1h-1.9L72 44h.7v-.1l.5.5h.5l.4-.4v-.1h.3v1l.3-.1h.5l.9-.9v-.1l.2-.2V41H76v-.1l-.9-.9h-1.2l-.6.6-.3.1v-.6l-.3.1zm-.6-.1h-.5l-.3-.3v-1.2l.3-.3v-2.8l-.2-.2-.1-.2-.2-.2-.1.2h-.5l-.3.3v.2l-.1.3.3-.1h.1v.3H70v-.8h1.1l1.1 1.1v1.7H72v1.8l.1.2zm-9.9 8.7v-.1.1zm1.2-.1h-.1v-.9h.4v1l-.3-.1zm-.5-2h-.4l-.3.1h.5l.2-.1zm-.7.3l.4.1h.3l1.3 1.3h.1l-.1-.1v-.4l-.3.1-.9-.9h-.7v1.4h-.2V47h.1zm1-.4h.6v.2l.1-.2-.2-.1h-.3l-.2.1zm1.8 1.5v.5h-.2l.1-.1v-.1l.1-.3-.1-.2v-.2l-.5-.5h-.1v-.1h.1l.5.5v.5h.1zm1.6-9.4v.8l.1.2h-.4v-1.6h1.1v.3H67l-.1.1.1-.3-.3.3-.1.2zM64.3 41l.1.2h.1v.3h-.4v-.1h.2l-.1-.3.1-.1-.2-.1H64l-.1-.1h-.3l-.1-.1h.9l.1.1-.2.2zm-.8.5v1h-.3l.2-.2v-.7l.1-.1h-.1v-.3l-.2-.2h-.1l-.1-.1v-.1l-.3-.3h-.1l.8.8v.2h.1zm-1.3.1l.1.2h.2l-.3.1.3.3h.2l-.2.2-.3.1.5.5h.1l-.2-.2-.2-.1-.1-.1-.1-1zm2.5 2.6l-.1.1v.1l-.1.1h-.8l.1-.1h.1l.8-.2zm0-.1l-.4-.4h-1.2l-.4-.4.2-.2h1l.3.3v.5l.5.2zm0 1.3l-.4.2h-.1l-.2-.1h.8l.1.1v.1l-.2-.3zm0 .1v.6l-.1-.1h-.1l-.1.1h-1V46h-.1l.4-.4h1.2l.1-.1h-.3zm1.8 2.6l-.2.2v.1l-.1.1h-.5v-.6h2.6l.2.2h-.3L67 48h-.3l-.2.1zm6.5-.6h-.1v-.3h.5v1l-.2.2h-.1.1l.1-.2v-.3l-.1-.1-.2-.3zm-1.1 1h-.1.1l.4-.4V48v.2l-.3.1-.1.2zm-1.8-.2l.1.1H70l-.2-.2v-.1l.2.2h.1zm-1.4-.5v.4l.1.1.1-.1v.1h-.4v-.6l.2.1v-.1h.1l.1-.1h-.1l-.1.1v.1zm.9-1.1v-.3l-.2-.2h-.1l-.1.1-.2.1-.1.2v.7h-1.5l.1.1h.8l.3-.3v-.9h.8v.1l.2.4-.1.1h-.2l.3-.1zm0-2.1l-.1.1.1-.1zm.1 0h.3v.2h.2l.2-.2v-.1l-.1-.1-.6.2zm-.5.5h-.5l-.1.1v.7l.6-.8zm-2.8.7v-.2h.3l-.2.2h-.1zm0 1.2l.1.1h-.1l-.1-.1h-.1l-.1-.1v-.1l.2.2h.1zm-.7-1.6l-.2.1-.3.3v.5l.7.7h-.2l-.1-.1v-2.4l.3-.3h.8v.6h-.3l-.7.6zm7.6.8l-.4-.3-.2-.2h.6v.5zm-1.4-1.4l-.1-.2v-.2l.1.4zm1.4 1.6l1 1h.8l.2-.1.6-.6v-.1.4l-.2.2-.3.4.5-.2.6-.6v-.5l-.4-.4-.2-.1h-.1.3l.9.9v.7l-.1.1-.2-.5-.2.4h-.1l-.2.2v1.2h-.5v-.1l-.3-.3h-.2L75 48l-.1.2-.3.3h-1.1v-.1h.5l.4-.4.1-.3h-.9l-.5-.5.2-.2-.3-.3v-.5h-.3l.6.2zm4.7 1.5v-.6l-.1-.1-.1.2h-.3v-.3h.4l.7.7v.5l-.1.1H78v-.5zm-1.1-5.7v-2.9h.2l1 1v.1-.1l-.9-.9-.1.6-.1.3V42l-.1.2.1.1v1l-.1.1v.1-1.3zm.6 0v-.4l.3-.1h.1v.8l-.4-.3zm-8.9-3.9l.1.1h.2v2.1h-.6v.7l-.6-.6.3-.4-.1-.1h-.7L67 40h-.4l-1.1 1.1v2.6l.2.2v.1l.3.3V44l.5.5h.5l.2.1.2-.2v-.9h.2v.1l.4.4h.5l.5-.5v.1h.7l-.7.7v.4l-.1.1h-.8l-.1.2h-1.2l-.5-.5-.3.1-.9-.9v-3.2l1-1h2.2l.3.1v-3.3l-.2-.2v-1.9l.5-.5h1.4v.8h-.5v-.3h.1l.3.1-.1-.3v-.2l-.1-.1-1 1.7v-.1h-.5l-.2.2-.3.1-.1.2-.2.2v2.6l.5.5.4-.8zm1.8.1v.9l-.5.5v.6h-.3v-2.2h.3l.5.2zm-.7-.2h-.3v.1h-.1l-.1-.1v-.5l.1-.1.4.6zm.8 0l.1-.1h.3l.1.1v.4h-.1v-.3h-.2l-.2-.1zm-8.1-7.9h-.2V29h.8l-.6 1.3zm.8 1.5V33H63l.2-1.2zm0-.1l-.3.3v.4h-.2v-1l.2-.1-.3-.3h-.1l-.2-.2h-.1v-.2h.5l.1.1h1.3l.3.3v.1l.2.2v.8H64v-1l-.2-.2h-.5l-.1.8zm-.7 7.3h-.2l-.1.1v-.3l.3.2zm2.2-5.6l.1-.1v-.1l-.1.2v.1h-.2l.1-.1h.1zm9.1 6.1h-.2v-.9l-.3-.3h-.9l-.3.3v-.8h1.5v1.4h-.2l.4.3zm-2.7-2l.2-.2V37l.1.1v.4h-.3zm-2.3-.2l-.1.1.1.1v.1-.3zm-.6-.9h.3v.2h-.2l-.1-.2zm3.2-.2l-.1.1V36h-.1.3v.1l-.1.1zm.3-2.4h-.2l-.2.2h-.1l-.1.2.1.2v.1H71v-1h1.4l.1.1v.5l-.3-.1h-.1l-.2-.2h-.2zm-.5-1v.6h-.3v-.5l.3-.1zm1.1-.1l.1.1v-2l.2-.2h1.1l.3.3.1.2.2.2h.2v-1h1.1v2.2l.1-.1v-.6l-.4-.4-1.3-.2h-.4l-.3.3v1l-.3-.3-.1-.2-.7-.7h-.8l-.1.1v1.3l.1.1h.2l.7-.1zm-.1-2l.5-.5h.5l.4.4H73l-.2-.1h-.2l-.2.1-.1.1-.1.2v-.2zm.1-1l-.1-.1H72v-.7h.8v1h-.2l-.3-.2zm2.6 2.6l-.1-.2V32h.5v.6H75v-.1l-.2-.2h.1zm.2.8l.2-.1h.5v.1l.3.3v.2l-.1.4h-.1l-.1-.1v-.3l.3-.1-.3-.2h-.9l-.3.3v-.2l.5-.3zm.9 1.8l.1.2v1.1l-.1.1h-.2l-.3-.3h-.1l-.2-.2v-.5l.3.3h.4l.1-.1v-1.2l-.6-.6-.2.3-.2-.2v-.1l1.2 1.2H76zm-1.4 2.2v-.2l.2-.2h.4l.1-.3-.4.1h-.3l.4.4-.2.2v.3l-.2-.3zm.9 1.2v-.4h.8l-.1.1h-.3l.1-.3.2.3H76l-.4.4v.3l-.1-.4zm-2.4-.9v.1l-.2.2v-.5h.9l.1.1H73v-.4l-.3.3h.3l.1.2zm-.1-1.2h-.1v-.8l.5.5h.1l-.5.3zm4.6 3.7l-.2-.1v-.1l2.6-5.2-1-.5.3-.6v-.1.1l-.5 1 .2.5v6.7l-.4-.4-.6-.9-.2-.2V40l-.2-.1zm1.3 1.9v.1-.1l-.1-.1v-6.2l.6-1.8v-.1.2l-.3.9v7.2l-.2-.1zm.6-.3v2.1h-.3v-2.1h.3zm-.2-1.5v-.9h.1l-.1 1.1h-.1v-.1l.1-.1zm.1-2v-1.2h.2l-.1 1.4h-.2v-.1l.1-.1z"/><path d="M64.4 37.7l.1-.1.3.1v.1h-.5v-.1h.1zm-.9.9l-.1.1.1-.1zm-.6-.3zm.6-1.6l.1.2.1.1-.3-.1.1-.2zm-.3 2.7h.5l-.5.3.5.2h-.6l-.1-.1v.1l-.1-.1h-.1v-.3h.3l.1-.1zm1.7-2.4l-.1.1h.1V37zm.3.1l.4-.2h.2l.3-.3v-.2l.2-.2v.5h-.9l-.2.4zm-.4-2.8h-.1l.3-.3h1.5l.5.5v.2l.1.1v.1-.1l-.2-.2h-1.3l-.8-.3zm-.5 2.5l-.1-.1-.2.2.3-.1zm1-.3V36l-.2-.2-.1-.2-.1-.1h-.1l.6.6v.9l-.1-.5zm-.9-5.6v-.2.2zm.7.6l.1-.1.1-.2v-.5l.1.1v.1h-.1l-.1.2-.1.1v.3zm0 .3v.1l.1.1h-.1v-.2zm2.5-2.3v.1-.1zm1.6 3.2l.1.1H69l.2-.1zM71.3 45l.1.1v.6l.1.2.1.1h-.3l-.2-.2-.1-.8-.3.6-.2.2h-.3l.1-.1.1-.2v-.6h.5l.4.1zm5.2-2.7v1.5l-.2.2h-.2l-1 1-.1-.1-.1.1h-2l-.9-.9h.3l.1-.1.4.4h.4l.5-.5h.1v1l.4-.1h.4l1.4-1.4v-1l.5-.1zm-.6-1.6l-.7-.7h-.1.6l.6.6-.4.1zm-2.1-.7h-.1l-.6.6v-.2h.7V40zm-3.5-4.3l.2-.1-.2.1zm1.3-.3l.5.5v1.8l-.1.1-.1.2v1.6h-.3l-.1-.1v-1.1l.3-.3v-2.8l-.2.1zm-8.3 12.8v.1-.1zm.9.2l-.1-.2.1.1v.1zm-.4-1.4v-.1.1zm2.7-8.4v-.3l-.2.2-.1.2.3-.1zm0 .8zm-2.1 2.2h-.2.2zm-2 .8v-.2l.1.1-.1.1zm2 2h-.1l.3.1-.2-.1zm-.8-.7h-.1.1l.1-.1h.1l-.2.1zm.5 1.8l-.1-.2.1.2zm-.5.5l-.1-.1.1-.1v.2zm2.2 2.2v-.1h.7l-.1-.1h-.1l-.2.2h-.3zm1.5-.9l.1-.1h.2l.1.1h-.4zm1.1-1.2V46v.1zm-2.4-1l.1.1-.2-.1-.2.1-.3.3v.1-.6l.1-.1h.6l-.1.2zm9 2.8h-.1v.1l.1-.1zm-.1 0l-.2.3v.2h-.6l.4-.4.1-.4h.2l.2-.1h.1l-.2.4zm-.6-.5h-.7l-.3-.3.1-.1-.4-.4v-.4l.2.1v.1l.9.9.2.1zm.7.5l.7-.2.2-.1.1-.1h.1v.9h-.2l-.4-.4h-.3l-.2-.1zm1.3-.6l.2-.2v-.8l-.1-.2V46l-.4-.4h-.1.2l.9.9v.7l-.2.2-.1.2-.4-.3zm1.8.5v.1-.1zm-.5-.6l-.1.2v-.1l.1-.1zm0-4.9v-.4h.1v.5l-.1-.1zm-12.5 0v1.2l1.4 1.4h.4l.3.1.4-.4v-.4l.4.4h.4l.6-.6.1.1h.3l-.4.4v-.1.1l-.1.1h-2.1l-1.1-1.1-.2.5-.3-.3v-1.3l-.1-.1zm.6-1.6l.7-.7h2.3l.4.1v.5l-.5-.5-.6-.1h-1.1l-.4.4H66l-.3.3zm3.1-.6v-3.2l.8.8h.2v1.7h-.1l-.7.6-.2.1zm-1.3-3.6v-1.2l.2-.2h.2l-.1.1-.1.2-.1.6v.6l-.1-.1zm1.6-.5H69h.1zm.9 3v-.5h.2v.6l-.4.4v.1h.2v.1-.7zm-.7-.6l-.1-.1.1.1zm1.6-.2zm-8.5-8.4l.1.1v-.4l-.1.3zm.8 2.6v.1-.1zm.1-.9l-.2.2-.3.2v.1-.3l.1-.1h.1l.3-.1zm0 0h1.2v.3l.2.2v.1-.2l-.4-.4h-1zm9.9 6.7h.3v1.1h-.2v-.6l-.5-.5h-.2.6zm-1.9-.6zm-2.7.1zm-.4-1.2l.1.1-.1-.1zm3.1-.4zm-.2-2.3l.1-.1h.2l-.1.1h-.2v.1-.1zm2-1.9zm-1-.7h-.2.2zm-.4 1.2l.3.3h.2v-.4l-.5.1zm1.7-1.2l.1-.1h.5l-.1-.1.1.1h-.4l-.2.1zm-1-.7l.1-.1h.4l-.2.1h-.3zm.2-.7l-.1-.1h-.3v-.5h.5v.5l-.1.1zm2.9 3.3zm.6.5v.1h-.2l.2-.1zm-.7 2.1l-.1-.1.1.1h.4l.2-.2v-.7l.2.2v1.1H76v.1h-.3l-.1-.2-.1-.1-.1-.2zm.4 1.1l.1.1-.1-.1zm-.8 0zm1.6 1.2l.1.1-.1-.1zm-.7 0zm-2.9-.6l-.1.1.1-.1zm5.7-1.3v5l-.2-.2-.5-.8V40l-.4-.4 2.4-4.8v1.3h-1.3zm.7 5.5v1.9h-.1l.1-1.9zm-9.6-5c.3-.2.8.2.7.6 0-.5-.3-.7-.7-.6z"/></g><path d="M70.3 37.5c-.3.2-.8-.2-.7-.6.1.5.3.7.7.6z" class="p"/><path d="M70.6 46.7c.3-.3.7-.3.9 0 .3.3.3.7 0 .9-.3.3-.7.3-.9 0-.3-.3-.3-.7 0-.9z" class="i"/><path d="M70.8 46.7c.3-.2.8.2.7.6-.1-.5-.4-.7-.7-.6z" class="h"/><path d="M71.2 47.6c-.3.2-.8-.2-.7-.6.1.5.4.7.7.6z" class="p"/><g class="h"><path d="M60.9 32.8h2.6l.9.9v1.8l-.9.9h-2.6l-.9-.9v-1.8l.9-.9zm1.2.4h-.9l-.7.7v1.4l.7.7H63l.7-.7v-1.4l-.7-.7h-.9zm-3.9-5.9c-.3-.1-.4.3-.2.4.3 0 .6 0 .7-.3.1-.2.2-.2.3 0 .2.2.4.3.7.3.3-.2.1-.5-.2-.4-.5.3-.5-.1-.5-.5v-.6c.5-.6-.8-.5-.3 0v.7c0 .3 0 .7-.5.4zm-1.6.2c.3 0 .5 0 .7-.2s.5 0 .4.2c-.4.1-.7.2-1.1 0z"/><path d="M59.9 38.1v-.6h-.3l-.4.2v.4h.7zm-.5-1h-.2l-.3.1h-1.1l-.3-.3v-1.5l.5.5v.2l.3.3.1-.3v-.6l.8-.8.3-.2-.3-.2h-1.3l-.1.1v.3l.2-.1h-.4v-.2l.1-.1v-.1l.2-.2h.1l.3-.3.2-.1V33l.1-.1v.5l-.1.3h1.3l.4.4v.2h-.5l-.2.2-.5.3-.7.7v1.7h.4l.6.3-.4-.5v-1l.7-.7h.2l.1.1h-.2l-.6.6v.7l.3.3h.2l.2-.2v-.1.1l-.1.1h-.2l.2.1h-.2l-.1.1zm1.8 1.8l-.1-.1v-.1l-.1-.1h-1v.1l.5.5h.5l.2-.3zm0-1.2v.2l.1.3-.3-.1h.5l.8.8v-1l-1.1-.2zm-1.2-.5l.1.2v.8l.1-.2v-.6l-.1-.2h.5l-.3-.2.4-.2h.1v-.3h-.1l-.1-.1v.4l-.2.2h-.1l-.1.1-.2.1zm1.9 2.5l.1.2v-.1l-.1-.1zm-.1.3l-.1-.2v.1l.1.1zm-.3-.6l-.1-.1h-.9l.3.2-.3.1h-.1v.2h1l.4-.4h.2-.5zM58.3 30l-.1-.2v-.1l.1-.1h.9l.4.4v1.3l-.2.2h-.2l-.1-.1-.1-.3V30h-.4l.1.1v.7l-.1.1v.2h.1l.2.2v.4l-.3.3h-.1.6v-.3l-.1-.2.2-.1h.6V30h-.2l-.7-.7h-1l-.3.3h-.1.2l.6.4zm-1.9 0h-.2l-.1.1.2-.2.1.1zm-.2-.4h.2l.3.3v-.4h-.1l-.1.1h-.3zm-.5.7l.1-.2.2-.2-.2.1-.1.1v.2zm-1.4 3.1l-.1.1v2.7l.1.1v.1l.2-.1.1-.1.4-1.2.9-.9.1-.2v-.4h-.3l.2.1-.1.2v.2l-.8.8v.1l-.1.1h-.1l-.1.1-.2.1-.1-.2v-1.4l-.1-.2zm.4-.1h.6l.1-.1v-.1.1l-.7.1zm-.5 12.6h-.1l-.3-.3v-.7h-.9v.7l-.3.3h-.1.6l.3-.3.2-.4.2.4.3.3h.1zm-9.7-10.5v-1.1h-.1l.1 1h.1l-.1.1zm7 4.8h-.4L51 40h-2.3l-.9.9v3.2l.1.1.1-.2 1.3 1.3h1.9l1.1-1.1h-.2L52 44h-.3v-.1l-.2.2-.2-.1-.1.1h-.7l-.1-.1h-.2l-.1-.1-.1-.2v-.1h-.3v1l-.3-.1h-.5l-.4-.4.1-.1-.4-.4v-.1l-.2-.2v-2.6l1.1-1.1h1.2l.7.7v-.6l.5.5zm.7-.1h.5l.3-.3v-1.2l-.3-.3v-2.8l.2-.2.1-.2.3-.3h.5l.3.3v.2l.1.3-.3-.1h-.1v.3h.5V35h-1.4l-1 1v1.7l.1.1.1.2v1.6l.1.5zm9.8 8.7v-.1.1zm-1.2-.1h.1v-.9h-.4v1l.3-.1zm.5-2h.4l.3.1h-.5l-.2-.1zm.7.3l-.4.1h-.3l-.1.1-.2.1-.8.8-.1-.1-.2.2h-.1l.1-.1v-.4l1-1h.7v1.4h.2V47h.2zm-1-.4h-.6v.2l-.1-.2.2-.1h.3l.2.1zm-1.8 1.5v.5h.2l-.1-.1v-.1l-.1-.3.1-.2v-.2l.5-.5h.1v-.1h-.1l-.4.4v.6h-.2zm-1.6-9.4v.8l-.1.2h.4v-1.6h-1.1v.3h.4l.5.5-.1-.2zM60 41l-.1.2h-.1v.3h.4v-.1H60l.1-.3-.1-.1.2-.1.2-.2h.3l.1-.1h-.9l-.1.1.2.3zm.7.5v1h.3v-.1l-.1-.1v-.7l-.2-.1h.1v-.3l.8-.8h.1l-.4.4-.3.1-.3.3v.3zm1.3.1l-.1.2h-.2l.3.1-.3.3h-.2l.2.2.3.1-.5.5h-.1l.2-.2.2-.1.1-.1.1-1zm-2.5 2.6l.1.1v.1l.1.1h.8l-.1-.1h-.1l-.8-.2zm0-.1l.4-.4h1.2l.4-.4-.2-.2h-1l-.3.3v.5l-.5.2zm0 1.3l.4.2h.1l.1-.1h-.8l-.1.1v.1l.3-.3zm0 .1v.6l.3.3h1l.2-.2-.4-.4h-1.2l-.1-.1.2-.2zm-1.8 2.6l.2.2v.1l.1.1h.5v-.6h-2.6l-.1.1h1.7l.2.1zm-6.4-.6h.1v-.3h-.5v1l.2.2-.1-.3v-.3l.3-.3zm1 1l-.4-.4V48v.2l.1.1.3.2zm1.8-.2l-.1.1h.1l.3-.3V48l-.3.3zm1.4-.5v.4l-.1.1-.1-.1v.1h.4v-.6l-.2.1v-.1h-.1l-.1-.1h.1l.1.1v.1zm-.8-1.1v-.3l.2-.2h.1l.2.2.1.2v.7h1.5l-.1.1h-.8l-.4-.4v-.9h-.8v.6l.1.1h.2l-.3-.1zm0-2.1l.1.1-.1-.1zm-.1 0h-.3v.2h-.2l-.1-.1.3.3v-.1l.3-.3zm.4.5h.5l.1.1v.7l-.6-.8zm2.9.7v-.2h-.3l.2.2h.1zm-.1 1.2l-.1.1h.1l.1-.1h.1l.1-.1v-.1l-.1.1-.2.1zm.7-1.6l.2.1.3.3v.5l-.2.2v.5l-.4.4h.2l.1-.1v-2.4l.3.4v-.1l-.1-.1h-.8v.6h.3l.1-.3zm-7.6.8l.4-.3.2-.2h-.6v.5zm1.4-1.4l.1-.2v-.2l-.1.4zm-1.4 1.6l-.5.5.1.1-.3.3h-1l-.2-.1-.4-.4v.2l-.1-.1v-.1.4l.2.2.3.4-.5-.2-.3-.3-.2-.1-.1-.1v-.6l.1-.1V46l.1-.1.2-.1h-.2l-.1-.4v.1l-.6.6v.7l.1.1.3.6h.1l.2.2v1.2h.5v-.1l.3-.3h.4l.1.2.3.3h1.1v-.1h-.5l-.1-.1-.4-.8-.2-.2-.1-.3h.9l.9-.9v-.5h.3l-.7.3zm-4.7 1.5v-.6l.1-.1.1.2h.3v-.3h-.4l-.5.5.2.1v.6l.2.2v-.6zm1.1-5.7v-2.9h-.1l-.2.7-1 1v.1-.1l1.1-1.1.1.3v1.7l.1.3-.1.1v1l.1.1v.1-1.3zm-.6 0v-.4l-.3-.1h-.1v.8l.4-.3zm9-3.9l-.1.1h-.2v2.1h.6v.7l.8-.8H58l1.1 1.1v2.6l-.2.2v.1l-.3.3-.4-.7-.3.3h-.5l-.2.1-.2-.2v-.9h-.2v.1l-.1.1v.5l-.2.2H56l-.1-.1-.4-.1-.3-.3v.1h-.7l1 1h2l1.5-1.5v-3.2l-.9-.9v.8h-2.6v-3.3l.2-.2v-1.9l-.5-.5h-1.4v.8h.5v-.3h-.1l-.3.1.1-.3v-.2l.3-.3h.5l.3.3.1.2.2.2v2.6l-.1.1.7.6-.3.3v.1zm-1.9.1v.9l.5.5v.6h.3v-2.2h-.3l-.5.2zm.7-.2h.3v.1h.1l.1-.1v-.5l-.1-.1-.4.6zm-.8 0l-.1-.1h-.3l-.1.1v.4h.1v-.3h.2l.2-.1zm8.1-7.9h.2V29h-.8l.6 1.3zm-.8 1.5V33h.3l-.3-1.2zm0-.1l.3.2v.4h.7v-1l-.2-.1.7-.7h.1v-.2h-.5l-.1.1h-1.3l-.7 1.3-.2.2v.1h-.1l-.1.1v.8h.6v-1l.2-.2h.6zm.8 7.3l.2.2v-.3l-.2.1zm-2.3-5.6l-.1-.1v-.1l.1.2v.1h.2l-.1-.1h-.1zm-9.1 6.1h.2v-.9l.3-.3h.9l.3.3v-.8h-.7l-.4.2h-.7v1.4h.2l-.1.1zm2.7-2l-.2-.2V37l-.1.1v.4h.3zm2.4-.2l.1.1-.1.1v.1-.3zm.6-.9h-.3v.2h.2l.1-.2zm-3.3-.2l.1.1V36h-.3v.1l.2.1zm-.2-2.4h.2l.2.2.1.2-.1.2v.1h.2l.1-.1v-.8h-1.4l-.1.1v.5l.4-.4h.4zm.5-1v.6h.3v-.5l-.3-.1zm-1.2-.1l-.1.1v-2l-.2-.2h-1.1l-.3.3-.1.2-.2.2h-.2v-1h-1.1v2.2l-.1-.1v-.6l.5-.5h.4l.3.3v1l.1-.1.1-.2.7-.7h.8l.1.1V33l-.1.1h-.2l.7-.4zm.2-2l-.1-.1v-.2l-.3-.3h-.5l-.2.2v.3h.2l.1-.1.2-.1h.2l.2.1.1.1.1.2v-.1zm-.2-1l.1-.1h.2v-.7h-.8v1h.2l.3-.2zm-2.6 2.6l.1-.2V32h-.5v.6h.3v-.1l.2-.2h-.1zm-.2.8L49 33h-.5v.1l-.3.3v.2h.3l.1-.1v-.3l-.3-.1.3-.2h.9l.3.3V33l-.7.1zm-.9 1.8l-.1.1v1.1l.2.2h.2l.6-.6v-.5l-.3.3h-.4l-.1-.1v-1.2l.6-.6.1.4.2-.2v-.1L48 34.9h.2zm1.4 2.2v-.2l-.2-.2H49l-.1-.3.4.1h.3l.3.3v.3h-.3zm-.9 1.2v-.4h-.8l.1.1h.3l-.1-.3-.2.3h.2l.4.4v.3l.1-.4zm2.4-.9v.1l.2.2v-.5h-.9l-.1.1h.9l.4.4h-.3l-.2-.3zm.1-1.2h.1v-.8l-.4.4.5.2h-.1l-.1.2zm-4.6 3.7l.2-.1v-.1l-.2-.4V39l-.8-1.6.3-.4-.1-.2v-.2l-.2-.4V36l-.4-.8.1-.2-.4-.8.1-.2-.2-.4v-.2l.6 1.2v6.7l.8-.8.2-.6zm-1.3 1.9v.1-.1l.1-.1v-6.2l-.3-.9-.5-.6-.2-.6v-.1.2l.3.9v7.2l.6.2zm-.6-.3v2.1h.3v-2.1h-.3zM45 40v-.9h-.1l.1 1.1V40zm-.2-2v-1.2h-.2l.1 1.4h.2v-.1l-.1-.1z"/></g><path d="M64.2 26.4c.2-.2.4-.2.6 0a.37.37 0 0 1 0 .6c-.2.2-.4.2-.6 0-.1-.1-.1-.4 0-.6z" class="i"/><path d="M64.7 27.1c-.3.2-.6-.1-.5-.4.1.3.3.4.5.4z" class="m"/><path d="M64.4 26.4c.3-.2.6.1.5.4 0-.3-.2-.4-.5-.4z" class="n"/><g class="h"><path d="M63.4 25.8c.3-.1.7 0 .9.3.3.2.7 0 .5-.2-.5-.3-.9-.3-1.4-.1zm-.3 1.7c.3 0 .5 0 .7-.2s.5 0 .4.2c-.4.1-.7.2-1.1 0zm0-.6c.4 0 .6.5.2.5-.1 0-.1 0-.2-.1v-.4z"/><path d="M63.1 26.1c.1.1.2.2.4.3.3.1.3.6.0.5-.2-.1-.3-.3-.4-.4V26.1v0z"/><path d="M61.3 25.7h1.5l.2.2v1.5l-.2.2s-.1-.1-.2-.1h.1l.2-.2V26l-.2-.2h-1.2l-.2.2v1.3l.2.2h.2c-.1 0-.1.1-.2.1h-.2l-.2-.2v-1.5l.2-.2z"/></g><path d="M62.1 36.7c-.3.1-.6.4-.5.7.1-.4.2-.6.5-.7.3.1.5.3.5.7.1-.3-.2-.7-.5-.7z" class="k"/><path d="M62.9 43.4l.1.1.2-.2h-.4l-.1-.1-.2-.1-.3-.1-.1-.1-.1.1-.4.2-.1.1h-.4l.2.2.1-.1h1.5zM56 28.5L52.6 31l.1.1v.3l.2-.2h1.4l.2.2v1.4l-.2.2h-1.1v1.3h-.1v.6l-.1.2h.6l.3.3v-2.8h.4v-1.1l.3-.3h-.3l.4.8v-1.4l.2-.2h.8v-.6l1.1-1.1h.8v.7h.3l.1-.1v-.1l.1-.1h.4l.4-.4h.7l.9.9-.5.4v1.7h1.4v-1.2h-.2l.3-1.5-.2-.2h-5.5v-.1l.2-.2zm-6.8 6.2c-.1.2-.3.4-.4.6l.4-.4v-.2zM48 36.4l-.9 1.5v-.1l.1-.1h1.9l.4.4V38h.3v-.7h-.2v.3l-.1.1h-.7l-.1-.1-.7-.4v-.8zm-.9 1.6l-.3.6v.1-.1h.5l-.2-.2V38zm-2.4 8.1v.3-.3zm.5 2.6h1l-.4-.4v-.6l.5-.5h-.5v1.6l-.6-.1zm1.3 0h1.3v-1.2h-.1l-.1-.2v.3l-.1.1h-.8l-.1-.1v1.1h-.1zm2.3 0h.5l-.3-.3h-.3l.1.3zm1.9 0h.3l-.3-.3v.3zm.6 0h.9l-.2-.1v-.2l-.2-.2v-.5h-.5v.3l.1.1v.3l-.1.1v.2zm1.2 0h1.4l-.1-.1v-.2l.2-.2h.2v-.3l-.2.2v-.2l-.1.1h-.1l-.1.1h-1l-.1-.1h-.1l-.4-.4v-.1.3h.2l.2.2v.7zm1.8 0h.8l-.2-.2v-.3l.2-.2h.2v-.3H55l-.1-.1V47l.1-.1h.2v-.2l-.1.3-.1.1h-.2l-.2-.1-.1-.1v-1.2h-.1l-.1.1h-.4l.5.5v.5l.4.4v1l-.5.5zm1.3 0H58l-.1-.1-.2-.1v-.2h-1.1l-.4.1.2-.4.4-.4h-1.2v1l-.1.1h.1zm2.9 0h.6l-.1-.1v-1.2l.7-.7.2-.1v-.1l.3-.3h-.3l-.3-.3v1.7l-.1.1-.2.1h-.1l.2.2v.5l-.2.2h-.7zm1.1 0zm.6 0h.3v-.2l-.1.1-.2.1zm1 0h.3v-.3l.1-.1h-.1l-.3-.1.1-.1-.3.3v.8l.2-.5zm1.5 0h.3v-.9l-.2-.2-.3.1h-.1l.1.1v.2l.2.7zm1 0h.3l-.2-.2-.1.2zm.8 0zm.6 0h.6l-.3-.3v-.5l.2-.2h-.1l-.2-.1-.1-.1v-1.7l-.3.3h-.3l.3.3v.1l.2.1.7.7v1.2l-.7.2zm1.1 0h2.4l-.2-.2v-1h-1.2l.4.4.2.4-.4-.1h-1.1v.2l-.2.1.1.2zm2.9 0h.8l-.4-.4v-1l.4-.4v-.5l.5-.5H70l-.1-.1h-.1V47h-.1l-.2.1h-.2l-.2-.1-.1-.1v.2h.2l.1.1v.6l-.2.2h-.2v.3h.2l.2.2v.3l-.2-.1zm1.2 0h1.4l-.1-.1v-.2l.2-.2h.2V48l-.3.3V48h-.1l-.1.1h-1l-.1-.1h-.1l-.3-.3v-.1.3h.2l.2.2v.2l-.1.4zm1.7 0h.9l-.2-.2v-.3l.1-.1v-.3h-.5v.5l-.3.3v.1zm1.2 0h.3v-.3l-.3.3zm1.6 0h.6v-.2H75l-.2.2zm1.6 0h1.3v-1.3l-.1.1h-.8l-.1-.1v-.3l-.1.2h-.1v1l-.1.4zm1.6 0h.6v-1.6h-.5l.5.5v.6l-.2.2-.2.1-.2.2zm1.5-2.4v-.2.2zm-.3-2.3v-.2.2zm-1.6-6.1c-.3-.8-.7-1.6-1.1-2.4v.4l-.3.3-.1.2v.8l-.1.1v.1h-.7l-.1-.1V37H75v.7h.3v.1l.4-.4h1.9l.1.1v.7l-.7.2-.1.1h.5v.1l.3-.6-.1-.1zM74.8 33l-.2-.2-.1.1h-.4l-.2-.2v-.2l-.2.1h.3l.6.6v-.4l.2.2zm-.7-.7l-.6-.6v.9l.6-.1-.1.1h.2l-.1-.3zM73 31.2c-.1-.1-.2-.2-.4-.3v.1l.4.4v-.2zm-1-.8c-1.1-.8-2.3-1.4-3.7-1.9v.3h-5.5l-.1.1v.1l-.1.1h-.3v1.3h1.4v-1.7l1-1h.7l.4.4h.4l.1.1v.1l.1.1h.3v-.7h.8l1.1 1.1v.6h.8l.2.2V31l-.1 1-.1.1h-.3l.3.3v1.1h.4v2.8l.3-.3h.6l-.1-.2v-.6h-.1v-1.3h-1.1l-.1-.1.7-1.5v-1.4l.2-.2h1.4l.2.2v.1-.4l.3-.3h.1l.1-.2-.3.3zm-6.5-2.8c-.1 0-.1 0-.2-.1l.2.1zm-2.9-.2zm1 16.7v1.3l.1.1h.2V45l.3-.3h.7l.3.3v.1l.5-.5h.4l-.7-.7-.3.1-.1-.2v-.9l-.7.3h.3l.4.4v1.3l-.3.3H64l-.3-.3v-.2l-.1-.6.1-.1h-.1v.1zm-.6 2l-1.7.1-.1-.1-.1.1H61l-.2.2h-.1H63l-.3-.3h.3zm-2.3-.6v-1.3h-.3v.5l-.3.3h-.7l-.3-.3v-1.3l.4-.4h.3l-.7-.3v.8l-.1.1.1.4-.1.1v.1l-.6.6h.4l.5.5v.1-.2l.3-.3h.7l.3.3v.2l.1.1h-.1v.1h.1v-.1zm.8-12.8l.1-.1-.1.1zm1.2 0zm.8.1l.1-.1v-.1.5l-.1-.3zm.5.4l.1.1h.4l.2-.2V33l-.1.1H64v.1zm.4.7zm0 .9v.3l.1-.1h.5l-.3-.3-.3.1zm-.1.8l-.2.2h.4l-.2-.2zm-1.2.9h-.4l.2.2v.9l.3-.3-.1-.1-.1-.2v-.2l.1-.3zm-1.3 0h-.7l.1.1v.3l-.2.2.3.3v-.9l.2-.2h.1l.2.2zm-1.7-.7l-.2-.2v.2h.2zm-.3-.7v-.3l-.1-.1h-.1l-.2.2-.2.1.1-.1h.3l.2.2zm0-1.1zm.3-.6l.1-.1h-.8l.1-.3v.1l.2.2h.2l.2.1zm.5-.6l.1-.2v-.4l-.1.6zm2 5.1l-.1.1v.1-.1l.1-.1zm-.8.1l-.1-.1h-.1v.2l.2-.1zm4.7 8.5l-.1-.1h-.2v.8h.2l.2.2v.2l-.1.1h.3v-.4l-.3-.8zm1.3-.5l.1.1h.1l.1.1h.6v-.7h-.6l-.1-.1v-1.2h-.9l.2.2.5 1.6zm-2-4.1l.1-.1h.1v-.4h1V41h.4v.4h.1v-.2l.2-.2-.1-.2v-.1l-.1-.1 1 .4-.6-.6h-1.3l-.5.5-.1-.1v.1l-.2.2V44l.1.1v.3l.4.4h.8v-.9l-.2-.4h-.4v-.8l-.7-.8zm.5-.2v.6-.6zm1.7 0v.7-.7zm-.5-.4zm-.7 1.6zm0-1.6zm.6 1.6zm.2.2v.1l.1.2.3.3h.7l.6-.6v-.8h-.6v-.1.2h-.4l-.7.7zM66 39.6l-.1.1h-1.3l-.2-.2v-1.4l.2-.2H66l.2.2v.1-.6l.4-.4h1v-.1l-.1-.1v-1.6l.8-.8-.3.4h.7l-.5-.5-.2-.4v-.4l-.1-.3h.6v-1.1l.1-.1v-.1h-.8l.6-.1v-.3l-.4.4v.1l-.3.3h-.1l.2.2v1.4l-.2.2h-1.2v.1l.2.2.1.2v.3l.1.1v1.4l-.4.4h-.2l-.1.1H65v.4l.2.5-.2.2h-.7l-.2.2-.1.2v.1l-.3.3h-.1.2l.2.2v.4l-.1.1.2.2v.3l-.1.2-.2-.1h.8l.6.6v.1l.2.2v.6l-.2.2H64l-.2-.2v-.3l.1-.1h.1v-.1l-.1-.1h-.4v.1l.1.1v1l-.4.4h-.1 1.4v-2.1l1.3-1.3h.1v-.3l.1.5zm.2-6l-.1-.2v-1l.2-.2h.4l-.5.1h-1.1l.9.9v.4h.2zm4.2 2.5l.1.1v-.1h-.1zm.4.2l.2.2v.3h.3l.3.3v-.8l-.1.1H71v-.2l-.2.1zm.2.9v.1-.1zm-.1.4l-.2.2h.2v-.2zm-.5.4h-.5v.1l.5-.1zm-1-.2l-.3-.3v-.1.4l-.1.1-.2.1-.1.1h.3V38l.1-.1h.1l.2-.1zM69 37l-.1-.2v-.1h-.3v.2l-.1.1H68l-.1-.1v.6l.2-.2h.4l.5-.3zm.1-.4l.1-.2h-.3l.2.2zm.5-.5zm.3-.1zm.9 10h.3l-.1-.1v-.1l-.2.2zm.9.2l.4.4v.5l.3.3v.1-.3l.1-.2h.5v-.1l-.1-.1v-.2h-.4V46h.2l-.1-.1-.1.1h-.3l-.1.1h-.3l-.1.1zm1.9.2v-.1h.8l.2-.2v-1l-.1-.4-.1-.1V44h-1.9l-.1-.1.3 1.1-.4-.4-.2.2v.2l.5.5h.8l.1.1v.6l.1.2zm-.5-4.5l.1-.1h.1v-.4h1v.1h.4v.4h.1v1h-.4v1h.7l.4-.4v-.3l.1-.1v-2.9l.1.8-.7-.7v.1h-1.3l-.7.7v.5h.1l.2.2-.2.1zm.5-.1v.6-.6zm-.2.8h-.1v.1l-.4.4v1l.2.1.4.4h.7l.3-.3.1-.2h-.4v-.4l-.8-1.1zm1.9-.8v.7-.7zm-.5-.5zm-.7 1.6zm0-1.6zm.6 1.6zm-3.3-2.8l.1.1v.1h.1l-.2-.2zm.9 3.6l-.1.1h-.1l.2-.1zm-.6.1zm-.1.1v.9h.3l.2.2v.8h.2l-.3-.4-.3-.3V45l-.1-.1v-.5l.2-.2-.1-.1-.1-.2zm-.9.7l-.1-.1v-.7h-.2l-.5.5h.3l.3.3v.7H70v.1h-.3l.1.1h.2v-.8l.2-.2h.1l.4.1zm-1.3-.9l-.1-.1.1.1zm1.5-4.3l.1-.2v-.4h-.2l-.2-.2v.7l.3.1zm4-5.3v.6l.5.5h.1v-.9l-.4-.4-.1.3-.1-.1zm.1 1.4l-.1.1h-.1.2v-.1zm.1.5l-.8.4h-.8l-.2-.1-.1-.1v.1h.5l.3.3.1.2v.3l-.1.3-.2-.2v-.1h-.3l.1.1v.3l-.2.2h.8l.4.4v.1-.5h.4v-1.2l.4-.4h1.1l-.3-.3-1.1.2zm-2.3-.4l-.1-.2v-.1.2l.1.1zm-.5-1.9v-.4h-.6l.2.2.4.2zm.4-.8l.2-.2.2-.1-.1-.2-.1-.1-.1-.2-.1-.1h-.1v-.3h-.3v.7h.3l.2.2v.2l-.1.1zm6 10.9v-.3.3zm-1.1 3l-.4-.4v.3h.4v.1zm-.7-.9v-1.8l.1-.1v-.4l-.1.1-.4.3-.5.5v.1l-.4.4h.5l.7.7.1.2zm.6-2.7h.2V43l-.2.2zm.5 0v-.1.1zm.6.3h.2V43l-.2.5zM75.3 39l-.1.1h-1.4v.6H75l1.3 1.3v.1-.9l.2-.2h-.7v-.8h-.5l.1-.2h-.1l.1-.1-.1.1zm.7 0v-.5h.2l-.1-.1v-.3h-.2v.7l.1.2zm-7.6-8v-.3.3zm2.9 1.3zm-5-.1l-.1-.2-.2-.2v-.3l-.2.2h-.1l-.2.2v.1h.6l.2.2zm-.4-1.1v-.3l.7-.7h-.7v1zm-8.2 15.4v.5h.3l-.1-.1v-.2l.2-.2h.2v-.8h-.2l-.4.8zm-1.3-.5v-.1l.2-.2h-.9v1.2l-.1.1H55v.7h.6l.1-.1h.1l.6-1.6zm2-3.7l-.1.1v.4h-.4l-.2.4v.9h.8l.4-.4v-.3l.1-.1v-2.9l-.7.6-.7-.7h-1.3l-.3.3v.1l-.5.5v.1l-.1.2.2.2v.2h.4v-.4h.4V41h1v.4h.1v.5l.9.4zm-.5.1v-.6.6zm-1.2-1.1zm-.4.4v.6-.6zm1.1 1.2zm0-1.6zm-.6 2l-.1-.1v-.1h-.4V43h-.6v.8l.6.6h.7l.3-.3-.5-.8zm-.1-.4zm1.5-3.3l-.1-.1v.3h.1l1.3 1.3v2.1h1.3l-.4-.4v-1l.1-.1v-.1h-.4l-.1.1v.1h.1l.1.1v.3l-.1.1.1-.3h-.5l-.3-.3v-.6l.2-.2v-.1l.6-.6h.8l-.2.1-.1-.2v-.3l.2-.2-.1-.1v-.4l.2-.2h.2l-.6-.6-.6.2v-.1h-.7l-.2-.2-.1-.2v-.5h-1l-.1-.1.2-.4H58v-.1l-.4-.4v-1.4l.1-.1v-.3l.1-.2.2-.2v-.1h-.7L57 34h-.3l-.2-.2v-1.4l.2-.2h-.1l-.4-.4-.1.2-.1-.1v-.1.3l-.2-.1-.1.1h-.8v.1l.1.1v1.1h.6l.4.2v.4l-.2.4-.5.5h.7l.9.9v1.6l-.1.1v.1h1l.4.4v.5l.2-.2h1.4l.2.2v1.4l-.2.2h-1.3l-.3-.5zm-.8-7.2h.4l.2.2v1.2l.1-.1h.1v-.4l.9-.9h-1.7zM54.2 36h.1v-.1l-.1.1zm.4.1zm.3.3l.2.2v-.1l.1-.1h-.3zm.3.6l.2.1h.4l.2.2v.1-.7l.2.3h-.4l-.1-.1v-.2h-.3v.1l-.2.2zm-.1.4l-.1.1v.2l-.2.2h.2l.2.2v.1h.3l-.1-.2-.2-.2v-.4h-.1zm-.8.6h-.5v.2l.5-.2zm-.8-.2l-.1-.1v.2h.1v-.1zm-.3-.5v-.1.1zm0-.5v-.3l.3-.3v.2l-.1.1H53l-.1-.1v.8l.3-.3h.2l-.2-.1zm.5-.6l.1-.1-.1.1zm-1.6 10.9v-.5l.4-.4h-.2l-.1-.1-.2-.1v-.1l-.1-.1-.1.1h-.1.3v.6h-.4v.2l-.3.3v.1h.5l-.1.2v.2l.4-.4zm1-1.1h.3l-.2-.2-.1.2zm-2.6.1l.1.1v-.7l.1-.1h.8l.5-.5v-.2l-.2-.2-.3.3v.2l-.2.2h-1.9v.6H49l-.1.4v1l.1.1V47h.8l.7-.9zm.6-3.7l-.1.1v.4h-.4l.1.2.3.3h.7l.4-.4.2-.1v-1l-.4-.4-.8.9zm-.5.1v-.6.6zm.2-.8h.1v-.1l.2-.2h.1v-.3l-.2-.2v-.1l-.6-.6h-1.3l-.1.1v.2l-.6.6V44l.1.1v.3l.4.4h.7v-1h-.4v-1h.1v-.4h.4V41h1v.4l.1.3zm-1.4-.4zm-.4.5v.6-.6zm1.1 1.1zm0-1.6zm-.7 1.6zm5.5.7l-.1.1.1-.1zm-.7.3H54v.8l-.1.1h.3l.2.2v.8h.2l.1-.1h-.3l-.2-.2v-.7l.3-.3h.3l-.6-.6zm-1.3.7l-.1-.1v-.7l-.1.2-.1.1.2.2v.5l-.3.2-.5.5h.2v-.8l.2-.2h.1l.4.1zm-.3-.8zm-.5 0H52h.1zm.4-3.5l.2.1h.1v-.2h-.1l-.1.1h-.1zm.7-.9l.2-.3v-.7l-.2.2H53v.6l.2.2zm-3.8-3.7l-.1-.1v.1h.1zm1.7-3.2l.2.1.2.2v-.4l.2-.2h.3v-.7h-.3v.3l-.1.2-.1.1-.1.2-.1.1-.2.1zm.7.8l.1.2v.1l.3-.3h-.4zm-.2 2l-.1.2v.1-.2l.1-.1zm-.6.8l-.1.1-.2.1h-.8l-.2-.1-.6-.2v.1H49l-.3.3h1.1l.4.4V38h.4v.4l.4-.4h.8l-.8-.3-.1-.1v-.3l.1-.1V37h-.2v.1l-.2.2-.1-.2v-.3l.1-.2.3-.3h.5l-.4-.2zm-5.6 7.7h.1v-.1l-.1.1zm.1-.3h.2v-.1.1h-.2zm.7-.3v-.1.1zm.3 0h.2v-.1l-.2.1zm.7.7l.1.1v1.8l.9-.9h.5l-.5-.5H48l-.3-.3V44l-.2-.2v-.1.3l-.3-.1zm-.2 2.5l-.4.4h.6v-.2l-.2-.2zm1.9-7.4l-.1-.1.1.1h-.1l-.1.1h-.5v.8h-.7l.2.2v.8l1.3-1.3h1.2V39h-1.3zm-1.1-.5l.1.1h.1v.6l.1-.1v-.7h-.2v.3l-.1-.2zm8-7.5l.1-.1v.1h-.1zm-2.9 1.3zm11.3-4.7l-.1.1.1-.1zm-1.1.1H63h.1zm-5.4 2.4l.2.1.5.5v.1-.7h-.7zm.6 1.3v.3l-.5.5h.7v-.1l-.2-.2h-.1l.1-.5zm-3.7 14.1v.3l-.1.1v.1l.1-.1h.9l.1.1v-.6h-.3l-.7.1zm15.1.5l-.1-.2v-.3h-.5v.6l.1-.1h.5zm1.5-11.3l.2.1.5.5v-1l.1-.1-.1-.1h-.4l-.1.1v.4l-.2.1zm1.3 1.6v.1-.3h-.2l.2.2zm0 1.2v.4h.1v-.2l-.1-.2zm-.5 1.9v.6h.5l.5-.5v-1.2h-1.1l-.3.3.7.4-.1.1-.2.3zm-.7-1.2l.1-.1v-.3H71l.2.2.1.2zm.1-2.5l-.5-.5h-.4l.2.2v.3h.7zm-7.7 12.4v.1-.1zm-3.2 0l-.1.2v.1-.1l.1-.2zm-.9.1l.8-.8h.1-.5l-.3.3v.5h-.1zm1.2-1.1l.2-.1.1-.1h-.7l.4.2zm2.6 0v-.2h-.7l.1.1.6.1zm.5.3l.2.1.7.7v-.6l-.3-.3h-.3l-.3.1zm3.9-9l-.2-.1h-.4l-.1.1H67l-.2.2v.5l.2.2h1.3v-1.8l-.5.9zm-5.3 1.8zm.7 1.9V41l.1.2v.2l-.3.3.2.4zm-.3-1l-.1-.1h-.7l-.1-.3h-.8l.2.3-.2.2.1.2h.3v-.3l.3-.3.3.3v.3h.3l.4-.3zm-1.9 1v-.5l.1.1-.2-.2v-.2l.1-.2v1zm5.1 5.4h.1l-.1-.1-.1-.2v-.1l-.1-.1v-1l.1-.1v.1l.1-.1v-.2h-.5l-.1.1v.7l.6.6v.4zm7.5.2v.4h.5l-.5-.4zm-4.3-1.2h-.1v.1l.1-.1zm-.2-1.6h.1v-.1l-.1.1zm-2.7.4l.1-.1h.1l-.2-.1-.1-.1v.1l.1.2zm9.2.6l.5.5v.8l.3-.3v-.6l-.1-.1-.3-.1-.2-.2h-.2zm3-4.2v.1-.1zm-.7-.2l-.1-.2V41h-.1l-.6-.6v1h.4v-.3l.1-.3.3.3v.4zm-8.6-2.7l.1.1v.1-.5l-.2.2h-.1l.2.1zm-.7-2.6v-.3l.2-.2h-.4l-.4.4-.1.2v.2h.6l.1-.3zm-9.3-3.8l-.1.1.1-.1zm.2-.5l.1-.2.2-.2h-.3v.4zm5-.3l.2.2v-.2h-.2zm.4.7l.1.1-.1-.1zM62.2 31h-.3l-.3.3h-.1v.1-.1h-.1l-.3-.3h1.1zm-4.1 4.8v-.4l.8-.8h-.4v.2l-.3.3h-.3v.1l.4.4-.2.2zm1.1-2.9h-.1v.6h.5l-.1-.1v-.5h-.3zm.2 3.1l-.1.1v.8h.1v-.1l-.1-.1v-.6l.1-.1zm5.4 0l.1.1v.6l-.1.1v.1h.1v-.8l-.1-.1zm.2-2.4l.2-.1h.3v-.1l-.5.2zm1.5 1.4h-.3l-.1-.1-.1-.2-.1-.1v-.2h-.4l.8.8v.3l.4-.4-.2-.1zm-3.9 4.2h-.2v.1l.1-.1h.1zm-.9 1h-.2.2zm-.1-1l.2.2v-.1h-.1l-.1-.1zm1.8-1.6l-.1.1h.6v-.3l-.5.2zm2.3-7.8h-.5v.6l.5-.5h.2l-.2-.1zm3.7 3.8h-.7v.4l.8.8h.1v-1.4h-.3l.1.2zm2.1-.3h.2l-.3-.3v-.4l.1.7zm-18.7 4.6l.1.2v.1l.1-.2.1-.1h-.3zM51.4 40h.4v-.6l.2-.3V39l-.4-.4h-1.1v1.2l.1.1.8.1zm.4-2.1l-.1-.2v-.1.4h-.1.1l.1-.1zm-.1-.9v-.6h-.4v.6h.4zm.5-1.7l.6-.6h-.1l-.1-.1v-.4l-.1-.1h-.4l-.2.2v.9l.3.1zm1.2.5v-.3l.2-.2h-.4l-.3.3h.5v.2zm3.8 3.7l.2-.2v-.5l-.3-.3-.1-.2h-.4l-.2.1v2h1.1l-.3-.9zm.7 8h.2v-.2l.6-.6V46l-.1-.1h-.5v.2l.3.3v1l-.3.3-.2-.2zm-7.3.7v-.4h-.1.2l-.1.4zm4.3-1.7l.2.1v-.1h-.2zm.1-1.7l.1.1-.1-.1zm2.6.4l.1.1h.2V45l-.1.1-.2.1zm-9 .7h-.3v.1l-.3.3v.6l.3.3v-.8l.4-.4-.1-.1zm-1.5-4.4v-1l-.5.5h-.1v.1l.3-.3.1.3v.3h.2v.1zm-1.5.5v-.1.1zm9.1-2.6v-.9h-.2l-.2-.2v-.1 1l.4.2zm1.6-3.1v-.1l-.1-.2-.5-.5h-.4l.2.2v.3h.6l.2.3zm4.3 1.5h.5v.1l-.5-.1zM58.8 30l.3.3v.1-.7h-.5v.1h.1l.1.2zm-4.3 4v.9h.1l.8-.8v-.4h-1.3v.3h.4zm-2.1-.7h.3l.1-.1v.4l-.2.2-.2-.5z" class="h"/><path d="M83.9 52.8c0-.2 0-.5-.1-.7-.4-.1-.8-.1-1.3-.2.4-.1.9-.1 1.3-.1 0-.1-.1-.2-.1-.3-.2 0-.4 0-.5-.1.2 0 .3-.1.5-.1-.1-.2-.2-.5-.4-.7-.3 0-.6-.1-.9-.1.3 0 .5-.1.8-.1l-.1-.1c-.4-.1-.9-.2-1.4-.2.3-.1.6-.1 1-.1-.2-.2-.4-.3-.6-.5-.3 0-.6-.1-.9-.1.2 0 .4-.1.6-.1-.6-.3-1.3-.6-2-.6h-4v.1H74v.1h-1.3v.1-.1H64l-.1.1h-.3l-.2-.2h-.5l-.1.1h-.2l-.1-.1H62l-.1.1-.9.1h-.3l-.1-.1h-8.8v.1-.1h-1.3v-.1h-1.8v-.1h-4c-.7 0-1.4.3-2 .6.2 0 .5 0 .7.1-.4 0-.7.1-1.1.1-.2.1-.4.3-.5.4.4 0 .8 0 1.2.1l-1.5.2-.1.1c.3 0 .6.1.8.1-.4 0-.7.1-1 .1-.1.2-.3.4-.3.7.2 0 .4 0 .6.1-.2 0-.4 0-.6.1 0 .1-.1.2-.1.3.4 0 .9 0 1.3.1-.5 0-1 .1-1.4.2 0 .2-.1.4-.1.7.2 0 .4 0 .6.1-.2 0-.4 0-.6.1 0 .2 0 .4.1.5.5 0 1.1 0 1.7.1l-1.6.2c.1.2.2.5.3.7.4 0 .8 0 1.2.1-.4 0-.7.1-1 .1.1.2.3.4.5.6.3 0 .7.1 1 .1-.3 0-.6.1-.8.1.1.1.3.3.5.4.5 0 1.1 0 1.6.1-.4 0-.8.1-1.2.2.2.1.4.2.7.3.5 0 1 0 1.5.1-.3 0-.5.1-.8.1.3.1.6.1.9.1h34.9c.3 0 .6 0 .9-.1-.2 0-.5-.1-.7-.1.5-.1 1-.1 1.4-.1.2-.1.5-.2.7-.3-.4-.1-.8-.1-1.2-.2.5-.1 1.1-.1 1.6-.1.2-.1.3-.3.5-.4-.2 0-.5-.1-.7-.1.3-.1.6-.1.9-.1.2-.2.3-.4.5-.6-.3 0-.6-.1-.9-.1.4-.1.7-.1 1.1-.1.1-.2.2-.5.3-.7-.5-.1-1-.2-1.5-.2.6-.1 1.1-.1 1.6-.1 0-.2.1-.4.1-.5-.2 0-.3 0-.5-.1h-.3z" fill="#704132"/><path d="M67.1 90.2l.3-.1h.2l.3-.1h.2l.3-.1h.2l1.2-.6.5-.5v-.1h.1l.1-.1v-.1l.1-.1v-.1h-.1.1v-.5h.2v-.1h.1v-.1l.1-.1v-.1l.1-.1v-.8l-.1-.1v-.1l-.4-.6v-.2h.2v-.1h.1l.2-.2v-.4H71v-.2h-.1l-.1-.1h-.1l-.3-.2.4-.1h.2l.1-.1h.2l.1-.1h.2l.4-.4h.1l.4-.4h.1l.1-.1V83h.1v-.1l.1-.1.1.1h.2l.1-.1h.1v-.1h.1l.1-.1h.1v-.1h.1v-.1l.1-.1v-.1h.1V82l.1-.1v-.6l-.1-.1v-.1h.1V81l.1-.6v-.1h.1v-.4l.1-.1v-.3l.1-.1v-.2l.1-.1V79l.1-.1v-.1l.1-.1v-.1l.1-.1v-.2l.1-.1.3-.6v-.1h-.1l-.1-.1h-.4l.2-.3.1-.2v-.6l-.1-.1v-.1l-.1-.1v-.1l-.1-.1h-.1l-.2-.2h-.1l-.3-.1.2-.2h.1v-.1l.1-.1V75l.1-.1v-.6l-.1-.1v-.1l-.3-.3H74v-.1h-.1l-.1-.1h-.3l.1-.3.1-.1v-.1h.1v-.6l-.1-.1v-.1l-.2-.2V72h-.1l-.1-.1h-.2l-.1-.1h-.4l.1-.2.1-.1v-.7h-.1v-.1l-.2-.2h-.1v-.1h-.1l-.1-.1h-.4l-.3.1.1-.3v-.4l-.1-.1v-.1l-.1-.1h-.1v-.1h-.1v-.1H71l-.1-.1h-.3l-.1.1h-.2v-.3h-.1v-.2l-.2-.2h-.1v-.1h-.2l-.1-.1h-.2v.1h-.2l-.2.1v-.2l-.1-.1V68l-.2-.2h-.1v-.1h-.7l-.3.2v-.3h-.1v-.1l-.2-.2h-.1l-.1-.1h-.4v.1h-.1l-.2.1-.1-.2v-.1h-.1V67h-.1v-.1h-.2l-.1-.1h-.1l-.1.1h-.2l-.1.1-.4-.4h-.4l-.3.1V66l-.1-.1v-.1l-.1-.2v-.1l-.1-.1h-.1v-.1l-.3-.3h-.1l-.2-.2h-.1l-.1-.1v-.3l-.1-.1V64l.3.1h.1l.1.1h.3l.1.1h.2v-1.4l-.1.1h-.3l-.1.1h-.2l-.1.1-.3.1v-.4l.1-.1v-.3l.1-.1v-.1h-1.4v.3l.1.1v.3l.1.3-.3-.1-.1-.1h-.3l-.1-.1h-.2l-.2-.1v1.4h.3v-.1h.4l.1-.1h.1l.3-.1-.1.3v.2l-.1.1v.2h-.2l-.2.2h-.1l-.1.1v.1l-.2.2h-.1v.1l-.1.1v.2l-.1.1v.1l-.1.1h.1l-.1.2v.4l-.2-.1h-.5l-.1.1v.1h-.1v.1l-.1.1-.2-.1h-.2v-.1h-.2v.1h-.2l-.1.1h-.1v.1l-.1.1-.1.2-.1-.1h-.1l-.1-.1h-.4l-.1.1h-.1v.1h-.1v.1h-.1v.2l-.1.2-.2-.2h-.7l-.1.1H56v.1h-.1v.1l-.1.1v.2l-.1.2-.2-.1h-.1l-.1-.1h-.2v.1h-.2l-.1.1h-.1v.1h-.1v.1l-.1.1v.4h-.3v-.1h-.4l-.1.1h-.1l-.2.2h-.1v.1l-.1.1v.2l-.1.1v.2h.1v.3l-.2-.1h-.5v.1h-.1l-.1.1h-.1v.1h-.1v.1l-.1.1v.1l-.1.1v.4h.1v.2l.2.2h-.5l-.1.1h-.2v.1h-.1l-.1.1v.1h-.1l-.1.1v.3l-.1.1v.2l.1.1v.2l.1.1.2.3H51l-.1.1h-.1l-.1.1h-.1l-.1.1v.1h-.1v.1l-.1.1v.2l-.1.1v.2l.1.1v.2l.1.1v.1l.3.3-.2.1h-.2l-.4.4v.1l-.1.1v.2l-.1.1v.2l.1.1v.3h.1l.1.3h-.4v.1h-.2l.1.1.1.2v.2h.1l.1.2v.2l.1.1v.1l.1.1v.1l.1.1v.2h.1v.3h.1v.3h.1v.4h.1v.3l.2.6v.3l-.1.1v.4l.1.1v.2l.2.2v.1l.2.2h.1v.1h.1v.1h.2v.1h.2l.1-.1.8.8h.1l.2.2h.1l.2.2h.2v.1h.2l.1.1h.2l.5.1-.4.2h-.1v.1h-.1v.1h-.1v.1h-.1v.2l.1.1v.2h.1v.1h.1l.1.1h.2v.2l-.5.6v.2h-.1v.6h.1v.3l.1.1v.1h.1v.1l.1.1h.2v.8h.1v.1h.1l.1.1v.1l.2.1.1.2.2.1.1.1 1 .5h.3l.2.1h.3l.2.1h.3l.2.1h.5l.3.1h1.4l.2.1h4.7l.2-.1h1.5l.2-.1h.5z"/><path d="M72.8 76.6c0-.5.3-.8.7-1-.6 0-1-.5-1-1 0-.4.2-.7.6-.9h-.2c-.5 0-.9-.4-.9-.9 0-.3.1-.5.3-.6 0 0 0-.1-.1-.1H72c-.5 0-.9-.4-.9-.9 0-.1 0-.3.1-.4 0 0-.1 0-.1-.1-.1 0-.2.1-.3.1-.5 0-.8-.4-.8-.8v-.2l-.1-.1c-.1.1-.2.1-.3.1a.68.68 0 0 1-.7-.7s-.1 0-.1-.1c-.1.1-.3.2-.5.2a.68.68 0 0 1-.7-.7h-.1c-.1.1-.3.2-.5.2a.68.68 0 0 1-.7-.7v-.1a.55.55 0 0 1-.5.3c-.3 0-.6-.2-.6-.5a.55.55 0 0 1-.5.3c-.3 0-.6-.2-.6-.5a1.78 1.78 0 0 1-1.6 1c-.7 0-1.3-.4-1.6-.9-.1.3-.3.5-.6.5a.55.55 0 0 1-.5-.3c0 .3-.3.5-.6.5a.55.55 0 0 1-.5-.3v.1a.68.68 0 0 1-.7.7c-.2 0-.4-.1-.5-.2h-.1v.1a.68.68 0 0 1-.7.7c-.2 0-.3-.1-.5-.2 0 0-.1 0-.1.1v.1a.68.68 0 0 1-.7.7c-.1 0-.3 0-.4-.1h-.1v.2c0 .5-.4.8-.8.8-.1 0-.3 0-.4-.1l-.1.1c.1.1.1.3.1.4 0 .5-.4.9-.9.9h-.2s0 .1-.1.1c.2.2.3.4.3.7 0 .5-.4.9-.9.9h-.2c.4.2.6.5.6.9a.94.94 0 0 1-1 1c.4.2.7.6.7 1 0 .5-.3.9-.8 1h.4a2.49 2.49 0 0 1 .7.3s-.5.3-.7.6-.3.7-.2.9c.1.1.2.1.3.2.1 0 .2 0 .3-.1.2-.2.5-.9.5-.9s.3.2.4.4c0-.4-.1-.8-.1-1.2 0-1 0-2.1.2-3a8.95 8.95 0 0 1 .9-2.6c.4-.7 1.5-1.8 2.2-2.3 2.1-1.5 4.1-2.1 4.1-2.1s-2 1.1-2.5 1.6c-1.2 1.2-2 2.3-2.4 3.3-.4 1.1-.6 2.2-.6 3.6v1.2c.1.8.5 2.4.7 3.3.1 0 .2-.1.3-.1.3 0 .7.2.8.2l.2-.2c-.1 0-.2.1-.3.1-.5 0-1-.4-1-1 0-.5.4-1 1-1 .3 0 .6.2.8.4l-.2-1.8c-.1-1.1 0-2.6.1-3.2s.8-2.4 1.6-3.3a24.94 24.94 0 0 1 2.3-2.3c-.1 0-.2.1-.3.1a.47.47 0 1 1 0-1 .47.47 0 0 1 .5.5c0 .1 0 .2-.1.3l.3-.3v.1l-.8 2.7-.1.3c-.1.4-.3 1-.3 1.7-.1.7-.2 1.7-.1 2.8v.3c.2-.1.4-.1.6-.1h.8c0-.1.2-.4.3-.7.2-.3.6-.6.6-.7 0 0 .4.4.6.7s.3.6.3.7h.8c.2 0 .4.1.6.1v-.3c.1-1.1 0-2.1-.1-2.9l-.3-1.7-.1-.3c-.1-.5-.8-2.7-.8-2.7v-.1l.1.1 2.7 2.6c.8 1 1.4 2.7 1.6 3.3.1.6.2 2.1.1 3.2 0 .4-.1 1.3-.2 2 .1-.4.5-.6.9-.6.5 0 1 .4 1 1 0 .5-.4 1-1 1-.2 0-.3 0-.5-.1.1.1.2.2.2.3.1 0 .5-.2.8-.2.1 0 .2 0 .3.1l.7-3.3v-1.2c0-1.4-.2-2.6-.6-3.6s-1.2-2.1-2.4-3.3c-.5-.5-2.2-1.5-2.5-1.6 0 .1.1.2.1.2a.47.47 0 1 1-1 0 .47.47 0 0 1 .5-.5c.2 0 .3.1.4.2 0 0 2 .6 4.1 2.1.7.5 1.8 1.6 2.2 2.3s.7 1.9.9 2.6c.2.9.2 2 .2 3 0 .4 0 .8-.1 1.2.1-.2.3-.4.4-.4 0 0 .3.7.5.9s.5.1.6-.1c.2-.2 0-.6-.2-.9-.2-.4-.7-.7-.7-.7s.3-.2.7-.3c.2 0 .5.1.7.1v-.1c-.7 0-1.1-.5-1.1-1.1zm-16.9-1.3c.5 0 .9.4.9.9s-.4.9-.9.9-.9-.4-.9-.9c.1-.5.5-.9.9-.9zm.1 3.6c-.5 0-.9-.4-.9-.9s.4-.9.9-.9.9.4.9.9-.4.9-.9.9zm.1-3.6c-.4 0-.8-.4-.8-.8s.4-.8.8-.8.8.4.8.8-.3.8-.8.8zm.4-1.6c-.4 0-.8-.3-.8-.8 0-.4.3-.8.8-.8.4 0 .8.3.8.8s-.3.8-.8.8zm.8-1.3a.68.68 0 1 1 0-1.4.68.68 0 0 1 .7.7c0 .3-.4.7-.7.7zm1.6-2.2c-.2 0-.3-.1-.4-.2a.76.76 0 0 1 .2.4.65.65 0 0 1-.6.6.65.65 0 0 1-.6-.6.65.65 0 0 1 .6-.6c.2 0 .3.1.4.2-.1-.1-.2-.2-.2-.4a.65.65 0 0 1 .6-.6.65.65 0 0 1 .6.6c0 .4-.2.6-.6.6zm1.5-1.3a.47.47 0 1 1-1 0 .47.47 0 0 1 .5-.5c.2-.1.5.2.5.5zm2.9 5.6h-2V72h2v2.5zm.1-5.4v2.4h-2v-2.4h2zm5.4 9.8c-.5 0-.9-.4-.9-.9s.4-.9.9-.9.9.4.9.9-.4.9-.9.9zm.1-1.9c-.5 0-.9-.4-.9-.9s.4-.9.9-.9.9.4.9.9-.4.9-.9.9zm.6-2.5c0 .4-.4.8-.8.8s-.8-.4-.8-.8.4-.8.8-.8c.5 0 .8.3.8.8zm-.4-1.6c0 .4-.3.8-.8.8-.4 0-.8-.3-.8-.8 0-.4.3-.8.8-.8.4.1.8.4.8.8zm-.8-1.2a.68.68 0 1 1-1.4 0 .68.68 0 1 1 1.4 0zm-1.8-2.1c0 .2-.1.3-.2.4a.76.76 0 0 1 .4-.2.65.65 0 0 1 .6.6.65.65 0 0 1-.6.6.65.65 0 0 1-.6-.6c0-.2.1-.3.2-.4-.1.1-.2.2-.4.2a.65.65 0 0 1-.6-.6.65.65 0 0 1 .6-.6.65.65 0 0 1 .6.6zM65 68.3a.47.47 0 1 1 0 1 .47.47 0 0 1-.5-.5c0-.2.2-.5.5-.5z" class="h"/><path d="M59.9 72c.2-.9 1-2.7 1.2-3.2L60 69.9c-.5.5-1.6 1.8-2.1 3.1-.2.5-.3 1-.3 1.4.6-.2 1.3-.4 2-.5 0-.6.2-1.3.3-1.9zm-4.6.8c.4-1 1.2-2.1 2.4-3.3.4-.4 1.4-1 2-1.3-.9.4-2.7 1.3-4 2.4-1.2 1-2.3 3-2.3 5.6v.5l1.3-.9c0-1.1.2-2.1.6-3zm16.1 3.4c0-2.6-1.2-4.6-2.3-5.6-1.3-1.2-3.1-2-4-2.4l2 1.3c1.2 1.2 2 2.3 2.4 3.3.4.9.6 1.9.6 3l1.3.9v-.5zm-4.6-3.1c-.5-1.3-1.5-2.6-2.1-3.1l-1.1-1.1c.2.5 1 2.3 1.2 3.2l.3 2c.7.1 1.3.3 2 .5 0-.6-.1-1.1-.3-1.5z" fill="#1d82b3"/><path d="M54.6 76.5v-.7l-1.3.9v.3l.3 2.8h.6s.1.3.1.5v.2s-.2.4-.2.5c.1 0 .3.2.4.4s.1.7.1.7-.3-.1-.5-.1c-.3 0-.5.2-.5.4s.1.5.3.6a1.08 1.08 0 0 0 .7.3c.4 0 1.3-.1 1.3-.7s-.1-.8-.2-.9-.7-.5-.7-.5.2-.2.4-.3l-.7-3.3c-.1-.4-.1-.7-.1-1.1zm12.6 1.7c.1-.6.1-1.1.1-1.7 0-.4 0-1.1-.1-2-.6-.2-1.3-.4-2-.5.1.6.1 1.2.1 1.5s0 .8-.1 1.2-.1.9-.2 1.3c0 .2-.1.4-.1.7.4-.1.7-.5.7-.5s.2.2.3.6v.2c0 .2-.1.3-.1.4l.3.2c.1.1.3.5.3.5l-.8.4v.7c0 .3-.5.5-.5.5l-.4-.6c-.1-.2-.4-.2-.6-.2s-.3.2-.3.5.3.7.6.9.7.2 1.2.2c.5-.1.8-.4 1-.8.3-.4.1-1.3.1-1.3h.1c.1-.3.3-1.2.3-1.8l.1-.4zM59.6 74c-.7.1-1.3.3-2 .5-.1.9-.1 1.6-.1 2 0 .7 0 1.1.1 1.7v.3l.3 1.8h.1s-.2.9.1 1.3c.2.3.5.7 1 .8s.9 0 1.2-.2.6-.6.6-.9-.2-.5-.3-.5c-.2 0-.5 0-.6.2l-.4.6s-.4-.2-.5-.5v-.7l-.8-.4s.2-.4.3-.5c0 0 .2-.2.3-.2 0-.1-.1-.2-.1-.4v-.2c.1-.3.3-.6.3-.6s.3.4.7.5c-.1-.3-.1-.5-.1-.7-.1-.4-.1-.8-.2-1.2-.1-.5-.1-.9-.1-1.2.1-.4.1-.9.2-1.5zm11.8 2.7l-1.3-.9v1.9c-.1.8-.5 2.4-.7 3.3.2.1.4.3.4.3l-.7.5c-.1.1-.2.3-.2.9s.9.7 1.3.7c.2 0 .5 0 .7-.3.2-.2.3-.5.3-.6 0-.2-.2-.4-.5-.4s-.5.1-.5.1 0-.5.1-.7.3-.4.4-.4c0-.1-.2-.5-.2-.5v-.2c0-.2.1-.5.1-.5h.6c.1-.4.2-1.2.3-2.8-.1-.2-.1-.3-.1-.4z" class="j"/><g class="h"><path d="M57.1 82.3c-.1.2-.3.7-.6 1.1-.2.3-.5.5-.9.7.7-.2 1.5-.3 2.2-.4l1-.1c.2 0 .3 0 .5-.1-.3 0-.6-.1-1-.3-.6-.3-1.1-.8-1.2-.9zm11.2 1.1c-.3-.4-.5-.9-.6-1.1-.1.1-.6.6-1.2.9-.4.2-.7.3-1 .3a.9.9 0 0 1 .5.1l1 .1 2.1.4c-.3-.2-.6-.4-.8-.7zm-5.9-1.7c-.1.1-.5.7-1 1.1-.3.3-.6.4-.9.6.6-.1 1.2-.1 1.9-.1s1.3 0 1.9.1c-.3-.1-.6-.3-.9-.6-.5-.4-.9-1-1-1.1zm1.5-17.5V63c-.1 0-1.2.3-1.2.3l.2-1h-1.2c0 .1.3 1 .3 1l-1.2-.3v1.3c.1 0 1.2-.4 1.2-.4s-.2.8-.3.9c.2-.1.4-.1.7-.1.2 0 .4 0 .6.1 0-.2-.2-.9-.2-.9l1.1.3zm1.2 12.6l-.4.2c-.1.8-.2 1.2-.3 1.6v.1h.4c.1-.3.1-.5.2-.7 0-.4.1-.8.1-1.2z"/><path d="M67.7 76.5c0-.9-.1-1.7-.2-2.2-.1-.6-.8-2.3-1.6-3.3-.6-.8-2.2-2.2-2.6-2.5.1.5.7 2.2.8 2.6l.1.3c.1.5.3 1 .4 1.8.1.6.1 1.3.1 2.1v1.2c.2.1.3.2.4.2.1-.5.1-.9.1-1.2 0-.6-.2-2.3-.4-3.4s-1.3-3.3-1.3-3.4h.1l1.2 1.2c.5.5 1.6 1.8 2.1 3.2s.5 2.8.5 3.4c0 .7 0 1.1-.1 1.7v.3l-.3 1.8c.1 0 .3 0 .4.1l.4-3c-.1-.2-.1-.6-.1-.9zm3.9-1.6c-.1-.7-.5-1.9-.9-2.5-.4-.7-1.5-1.8-2.2-2.3-1.2-.8-2.3-1.4-3-1.7 1 .5 2.4 1.2 3.6 2.2s2.3 3 2.3 5.7v.8l-.3 2.8h.5c.1-.4.2-1.1.2-1.9 0-1.2 0-2.3-.2-3.1zM60 78.7h.3v-.1c-.1-.3-.2-.8-.3-1.6l-.4-.2c0 .4.1.8.2 1.2.1.2.1.4.2.7z"/><path d="M60 75.2l.1-2.1c.1-.7.2-1.3.4-1.8l.1-.3c.1-.4.6-2.1.8-2.6-.4.3-1.9 1.7-2.6 2.5-.8.9-1.4 2.6-1.6 3.3-.1.5-.2 1.3-.2 2.2v1c0 .4.1 1.3.2 2 0 .1.1.2.1.4v.1a.9.9 0 0 0 .1.5c.2 0 .3 0 .4-.1-.1-.3-.3-1.2-.3-1.8v-.3c-.1-.6-.1-1.1-.1-1.7s0-2 .5-3.4c.5-1.3 1.6-2.7 2.1-3.2l1.2-1.2h.1L60 72.1c-.3 1.1-.4 2.9-.4 3.4 0 .3 0 .7.1 1.2.1-.1.2-.1.4-.2v-.3c-.1-.4-.1-.7-.1-1z"/><path d="M57.1 80.5c.1 0 .2 0 .2-.1v-.3c0 .2-.1.3-.2.4zm14.6-.8zM64.6 77l-.3.1c-.2.1-.5.5-.5.7s.1.6.5.7v-.1c.1-.2.2-.6.3-1.4zm2.9 3c0 .2 0 .3-.1.5.1 0 .2 0 .2.1 0 0 .1 0 .1.1-.1-.3-.2-.5-.2-.7zm-14.4-.3zm7.3-1.1c.4-.2.4-.6.4-.7 0-.2-.3-.6-.5-.7l-.1-.2c0 .8.1 1.2.2 1.6z"/><path d="M53.3 76.2c0-2.7 1.2-4.6 2.3-5.7 1.1-1 2.6-1.8 3.6-2.2-.8.3-1.9.9-3 1.7-.7.5-1.8 1.6-2.2 2.3s-.7 1.9-.9 2.5c-.2.9-.2 2-.2 3 0 .8.1 1.4.2 1.9h.5c-.1-.5-.2-1.5-.3-2.8v-.7z"/></g><path d="M68.2 81zm-16.5-7.3zm6.8-5.9zm-2 13.2z"/><g fill="#ccc"><path d="M60.2 67.8a.47.47 0 0 0 .5-.5c-.1-.1-.1-.3-.1-.4-.1-.1-.2-.2-.4-.2-.3 0-.6.2-.6.6 0 .1.1.2.1.2.1.1.3.3.5.3z"/><path d="M59.1 68c.3 0 .6-.2.6-.6 0-.3-.2-.6-.6-.6-.3 0-.6.2-.6.6s.3.6.6.6z"/><path d="M57.9 68.5a.65.65 0 0 0 .6-.6.65.65 0 0 0-.6-.6.65.65 0 0 0-.6.6.65.65 0 0 0 .6.6z"/><path d="M56.6 69.1a.68.68 0 1 0 0-1.4.68.68 0 1 0 0 1.4z"/><path d="M55.3 69.8a.68.68 0 1 0 0-1.4.68.68 0 1 0 0 1.4z"/><path d="M54.1 70.7c.4 0 .8-.3.8-.8 0-.4-.3-.8-.8-.8-.4 0-.8.3-.8.8s.3.8.8.8zM52.9 72c.4 0 .8-.4.8-.8s-.4-.8-.8-.8-.8.4-.8.8.3.8.8.8zm-.9 1.6c.5 0 .9-.4.9-.9s-.4-.9-.9-.9-.9.4-.9.9.4.9.9.9zm.3 1c0-.5-.4-.9-.9-.9s-.9.4-.9.9.4.9.9.9.9-.4.9-.9zm-1.4 3c.6 0 1-.5 1-1 0-.6-.5-1-1-1-.6 0-1 .5-1 1 0 .6.5 1 1 1zm13.2-10.4c0 .3.2.6.6.6a.55.55 0 0 0 .5-.3c0-.1 0-.2.1-.2 0-.3-.2-.6-.6-.6a.55.55 0 0 0-.5.3c-.1 0-.1.1-.1.2z"/><path d="M65.2 67.5c0 .3.2.6.6.6.3 0 .6-.2.6-.6 0-.3-.2-.6-.6-.6s-.6.3-.6.6zm1.2.4a.65.65 0 0 0 .6.6.65.65 0 0 0 .6-.6.65.65 0 0 0-.6-.6c-.4 0-.6.3-.6.6zm1.2.5a.7.7 0 1 0 1.4 0 .7.7 0 1 0-1.4 0z"/><path d="M69.5 68.4a.7.7 0 1 0 0 1.4.7.7 0 1 0 0-1.4zM70 70c0 .4.3.8.8.8.4 0 .8-.3.8-.8 0-.4-.3-.8-.8-.8s-.8.4-.8.8zm1.2 1.2c0 .4.4.8.8.8s.8-.4.8-.8-.4-.8-.8-.8c-.5 0-.8.3-.8.8zm.8 1.6c0 .5.4.9.9.9s.9-.4.9-.9-.4-.9-.9-.9-.9.4-.9.9z"/><path d="M74.4 74.6c0-.5-.4-.9-.9-.9s-.9.4-.9.9.4.9.9.9.9-.4.9-.9zm.5 2c0-.6-.5-1-1-1-.6 0-1 .5-1 1 0 .6.5 1 1 1a.94.94 0 0 0 1-1zm-17.6 3.3c0-.5-.4-.9-.9-.9s-.9.4-.9.9.4.9.9.9.9-.4.9-.9zM56 77.1c-.5 0-.8.4-.8.8 0 .5.4.8.8.8.5 0 .8-.4.8-.8.1-.4-.3-.8-.8-.8zm-.1-.1c.4 0 .8-.4.8-.8s-.4-.8-.8-.8-.8.4-.8.8.4.8.8.8zm1-2.5c0-.4-.3-.8-.8-.8-.4 0-.8.3-.8.8 0 .4.3.8.8.8.4-.1.8-.4.8-.8zm-.4-2.3a.7.7 0 1 0 0 1.4.7.7 0 1 0 0-1.4zm.8-1.2a.7.7 0 1 0 0 1.4.68.68 0 0 0 .7-.7c-.1-.4-.4-.7-.7-.7zm.8-1.1a.65.65 0 0 0-.6.6.65.65 0 0 0 .6.6.65.65 0 0 0 .6-.6.65.65 0 0 0-.6-.6z"/><path d="M58.9 69.1a.65.65 0 0 0-.6.6.65.65 0 0 0 .6.6.65.65 0 0 0 .6-.6c0-.4-.3-.6-.6-.6zm1-.7a.5.5 0 1 0 0 1 .47.47 0 0 0 .5-.5c0-.3-.3-.5-.5-.5z"/><path d="M60.7 68.7a.5.5 0 1 0 0-1 .47.47 0 0 0-.5.5c.1.3.3.5.5.5zm7.8 12.1c.5 0 .9-.4.9-.9s-.4-.9-.9-.9-.9.4-.9.9c-.1.5.4.9.9.9zm.3-3.7c-.5 0-.8.4-.8.8 0 .5.4.8.8.8.5 0 .8-.4.8-.8.1-.4-.3-.8-.8-.8zm.1-1.7c-.4 0-.8.4-.8.8s.4.8.8.8.8-.4.8-.8c0-.5-.4-.8-.8-.8zm-.2-.2c.4 0 .8-.3.8-.8 0-.4-.3-.8-.8-.8-.4 0-.8.3-.8.8.1.5.4.8.8.8z"/><path d="M68.3 73.7a.7.7 0 1 0 0-1.4.7.7 0 1 0 0 1.4zm-.7-1.4a.7.7 0 1 0 0-1.4.7.7 0 1 0 0 1.4zm-.8-1.2a.65.65 0 0 0 .6-.6.65.65 0 0 0-.6-.6.65.65 0 0 0-.6.6c0 .3.2.6.6.6zm-.9-.9a.65.65 0 0 0 .6-.6.65.65 0 0 0-.6-.6.65.65 0 0 0-.6.6.65.65 0 0 0 .6.6zm-.9-.8a.5.5 0 1 0 0-1 .5.5 0 1 0 0 1zm-.9-1.7a.5.5 0 1 0 0 1 .5.5 0 1 0 0-1z"/></g><g class="h"><path d="M62.4 66.7h1.7v-.2c0-.1 0-.3-.1-.4h-1.3v-1.3h-.4c-.2 0-.3 0-.5.1v1.3h-1.2c0 .1-.1.3-.1.4v.2h1.9v-.1z"/><path d="M62.4 66.8h-1.7c.2.8.9 1.4 1.7 1.4.9 0 1.6-.6 1.7-1.4h-1.7zm.5-2V66h1.2c-.2-.6-.7-1-1.2-1.2zm-1.1 0c-.6.2-1 .6-1.1 1.2h1.1v-1.2z"/></g><path d="M74.5 77.6c-.4.2-.5.3-.5.3s-.4-.3-.8-.2c-.3 0-.5.2-.6.2.1.1.5.3.7.6.1.2.3.5.3.7 0 .1 0 .2-.1.3-.2.2-.5.3-.7.1s-.4-.7-.5-.8c-.1.1-.3.3-.4.5s-.1.6-.1.6h-1.3c0 .1-.1.3-.1.5v.2l.3.5s-.3.2-.4.4-.1.5-.1.6c.1 0 .3-.1.5-.1.3 0 .6.2.6.4a1.08 1.08 0 0 1-.3.7c-.2.2-.6.3-.8.3 0 0-1.4 0-1.4-.7s.1-.9.2-1 .6-.4.7-.5c-.1-.1-.5-.3-.8-.3s-.8.2-.8.2-.2-.4-.5-.5-.8-.1-.9-.1v.6c0 .3 0 .6-.2.8a1.37 1.37 0 0 1-1.1.8c-.5.1-1 0-1.3-.2s-.6-.6-.6-1 .2-.6.4-.6.5 0 .6.2c0 0 .3.5.3.6.1 0 .4-.2.4-.4v-.7s.7-.4.8-.4c0-.1-.2-.4-.3-.5l-.3-.3s.1-.2.1-.4v-.2c0-.2-.2-.4-.2-.5-.1.1-.4.5-1 .5s-.8-.5-.8-.9a1.13 1.13 0 0 1 .5-.8s.7-.4.8-.4c-.1-.1-.6-.4-1-.4H63s-.1-.4-.3-.7-.5-.6-.5-.6c-.1.1-.4.4-.5.6-.2.3-.3.7-.3.7h-.8c-.4 0-.9.3-1 .4.1 0 .8.4.8.4a1.13 1.13 0 0 1 .5.8c0 .3-.2.9-.8.9s-.9-.4-1-.5c-.1.1-.2.3-.2.5v.2c0 .2.1.4.1.4l-.3.3c-.1.1-.2.4-.3.5.1 0 .8.4.8.4v.7c0 .3.3.4.4.4l.3-.6c.1-.2.4-.2.6-.2s.4.2.4.6c0 .3-.3.8-.6 1s-.7.3-1.3.2c-.5-.1-.8-.4-1.1-.8-.1-.2-.2-.5-.2-.8v-.6c-.1 0-.5 0-.9.1s-.5.5-.5.5-.5-.2-.8-.2-.7.3-.8.3c.1.1.6.4.7.5s.2.3.2 1-1.4.7-1.4.7c-.2 0-.5 0-.8-.3a1.08 1.08 0 0 1-.3-.7c0-.2.3-.4.6-.4.2 0 .4 0 .5.1 0-.1 0-.5-.1-.6-.1-.2-.4-.4-.4-.4l.3-.5v-.2c0-.2 0-.4-.1-.5h-1.3s0-.4-.1-.6c0-.2-.3-.4-.4-.5-.1.2-.3.7-.5.8-.2.2-.5.1-.7-.1-.1-.1-.1-.2-.1-.3a1.08 1.08 0 0 1 .3-.7c.1-.2.5-.5.7-.6-.1-.1-.3-.2-.6-.2-.3-.1-.8.2-.8.2s-.2-.1-.5-.3c-.3-.1-.6-.1-.7 0 0 0 0 .1.1.2.1 0 .5 0 .7.2 0 0 .3.3.4.3s.3-.2.5-.2h.5l-.1.1s-.4.3-.5.5-.2.7 0 1 .4.4.6.4.5-.1.6-.2.3-.5.3-.6v-.1.1a2.18 2.18 0 0 0 .1.6v.3c.1 0 .5-.1.7-.1h.6s0 .3-.1.5l-.4.4c.1 0 .2.1.3.3.2.2.2.5.2.5s-.5 0-.8.3a.76.76 0 0 0-.2.4c0 .8 1 1.2 1.4 1.2.3 0 1.2-.1 1.4-.5.3-.4.3-1 .2-1.2s-.5-.8-.5-.8v-.1h.1s.5 0 .6.1l.3.2c0-.1.1-.2.3-.4s.6-.3.6-.3v.8s.5 1.1 1.5 1.2c.9.1 1.6-.1 1.9-.6.3-.4.3-1 .3-1.3 0-.2-.3-.5-.6-.5s-.7.1-.8.2l-.4.4v-.4s.1-.3.2-.4c-.1 0-.4-.1-.4-.1l.3-.4.3-.3-.1-.6h.1a2.07 2.07 0 0 0 .8.2c.3 0 1.2-.2 1.2-.9s-.3-1-.3-1l-.7-.4h.1s.5-.1.8-.1c.2 0 .6.1.7.1 0-.1.1-.4.2-.6.1-.3.4-.7.5-.7l.5.7c.1.2.2.6.2.6.1 0 .5-.1.7-.1.3 0 .8.1.8.1h.1l-.7.4c-.1 0-.3.3-.3 1s.9.9 1.2.9c.4 0 .8-.2.8-.2h.1l-.1.6.6.6-.5.2s-.3.1-.4.1c0 .1.2.4.2.4v.5l-.4-.4c-.1-.1-.4-.2-.8-.2-.3 0-.6.3-.6.5 0 .3.1.9.3 1.3.3.4 1 .7 1.9.6s1.5-1.2 1.5-1.2c.1-.1.1-.7 0-.8 0 0 .4.1.6.3s.2.3.3.4c.1 0 .3-.2.3-.2.2-.1.6-.1.6-.1h.1v.1s-.4.5-.5.8c-.1.2 0 .8.2 1.2.3.4 1.1.6 1.4.5.4 0 1.4-.5 1.4-1.2 0-.2-.1-.3-.2-.4-.3-.3-.8-.3-.8-.3s0-.2.2-.5c.2-.2.3-.2.3-.3l-.4-.4c-.1-.2-.1-.5-.1-.5h.6c.2 0 .6.1.7.1v-.3c0-.3.1-.6.1-.6v-.1.1l.3.6c.1.1.4.2.6.2s.4-.2.6-.4c.1-.2.1-.7 0-1-.1-.2-.5-.5-.5-.5l-.5-.4h.5c.2 0 .4.1.5.2l.4-.3c.2-.1.6-.2.7-.2 0-.1.1-.1.1-.2-.2 0-.5-.1-.8.1z" fill="#ccc"/><path d="M49.6 77.8c.2.4.5 1.2.6 1.4-.1-.4-.6-1.4-.6-1.4z"/><path d="M66.5 83.1c.6-.3 1.2-.9 1.2-.9v.1s.3.7.6 1.1c.3.5 1 .8 1.5.8.4 0 .9 0 1.4-.2.4-.1 1-.6 1.4-1l.2-.2c-.1-.1-.1-.1-.1-.2 0-.2 0-.6.2-.9.3-.4.7-.6 1-.5 0-.1.1-.1.1-.2l.1-.6.3-1.2c.1-.3.5-1.1.6-1.4-.1 0-.4 0-.6.2l-.4.3s-.3-.2-.5-.2h-.3c.1.1.3.3.4.5s.1.4.1.6 0 .3-.1.4c-.2.3-.4.4-.6.4s-.5-.1-.7-.2c-.1-.1-.2-.4-.3-.5 0 .1-.1.3-.1.5v.4s-.5-.1-.7-.1h-.5c0 .1 0 .3.1.4.1.2.4.4.4.4l-.3.3c-.2.2-.2.3-.2.4.1 0 .6 0 .8.3.1.1.2.3.2.5 0 .8-1.1 1.3-1.5 1.3s-1.2-.2-1.5-.6c-.2-.3-.2-.7-.2-1v-.3c0-.2.3-.6.4-.7-.1 0-.4 0-.5.1l-.4.4s-.1-.2-.3-.4-.4-.3-.5-.3v.2c0 .2 0 .5-.1.6 0 0-.5 1.2-1.5 1.3-.9.1-1.6-.1-2-.6-.3-.4-.3-1-.3-1.3 0-.2.3-.6.7-.6s.7.1.8.2c0 0 .3.3.4.3v-.3l-.2-.5.5-.1s.3-.1.4-.2l-.6-.6s0-.4.1-.5c-.1.1-.4.2-.7.2-.5 0-1.3-.3-1.3-1 0-.8.3-1 .4-1.1 0 0 .5-.3.6-.3-.1 0-.5-.1-.7-.1s-.7.1-.7.1l-.2-.7c-.1-.2-.3-.5-.4-.6-.1.1-.3.4-.4.6l-.2.7s-.5-.1-.7-.1-.5.1-.7.1c.1.1.6.3.6.3.1.1.4.3.4 1.1 0 .7-.8 1-1.3 1-.3 0-.6-.1-.7-.2 0 .1.1.5.1.5l-.6.6c.1 0 .4.2.4.2l.5.1-.2.5v.3c.1-.1.4-.3.4-.3.1-.1.5-.2.8-.2.4 0 .7.4.7.6 0 .3-.1.9-.3 1.3-.3.5-1.1.7-2 .6-1-.1-1.5-1.2-1.5-1.3s-.1-.4-.1-.6v-.2c-.1 0-.4.1-.5.3-.2.2-.3.4-.3.4l-.4-.3c-.1-.1-.4-.1-.5-.1.1.1.4.5.4.7v.3c0 .3-.1.7-.2 1-.3.4-1.1.6-1.5.6s-1.4-.5-1.5-1.3c0-.2.1-.3.2-.5.3-.3.7-.3.8-.3 0-.1-.1-.2-.2-.4l-.3-.3.4-.4c.1-.1.1-.3.1-.4h-.5c-.2 0-.7.1-.7.1v-.4c0-.2-.1-.4-.1-.5-.1.1-.2.4-.3.5-.2.2-.5.2-.7.2s-.5-.2-.6-.4c-.1-.1-.1-.3-.1-.4 0-.2 0-.5.1-.6.1-.2.3-.4.4-.5h-.3c-.2 0-.5.2-.5.2l-.5-.4c-.2-.1-.5-.1-.6-.2a19.6 19.6 0 0 1 .6 1.4l.3 1.2.1.6c0 .1.1.1.1.2.3-.1.7.1 1 .5.2.3.3.6.2.9 0 .1-.1.2-.1.2l.2.2c.4.4 1 .9 1.4 1 .5.2 1 .3 1.4.2.5-.1 1.2-.4 1.5-.8l.6-1.1v-.1s.5.6 1.2.9 1 .3 1.6.3c.6-.1 1-.3 1.5-.7s1-1.1 1-1.1.5.7 1 1.1.9.6 1.5.7c.7 0 1 0 1.7-.3zm-4.1-2.4c-.5 0-.9-.7-.9-1.5s.4-1.5.9-1.5.9.7.9 1.5-.4 1.5-.9 1.5z" class="h"/><path d="M51.8 82.7c.1 0 .1-.1.1-.2 0-.2 0-.5-.2-.8-.3-.4-.7-.6-.9-.5-.1 0-.1.1-.1.2 0 .2 0 .5.2.8s.4.5.7.5c.1.1.2.1.2 0zm22.1-1.4c-.2-.1-.6.1-.9.5-.2.3-.3.6-.2.8 0 .1.1.2.1.2.1 0 .1.1.2 0 .2 0 .5-.2.7-.5.3-.4.3-.9.1-1zm-10.7-2.1c0-.8-.4-1.4-.9-1.4s-.9.6-.9 1.4.4 1.4.9 1.4c.6 0 .9-.6.9-1.4z" fill="#ccc"/><path d="M63.3 69.1h-1.9v2.3h1.9v-2.3zm-.1 2.1h-1.6v-1.9h1.6v1.9z" class="h"/><path d="M61.6 71.2h1.6v-1.9h-1.6v1.9z" class="j"/><path d="M63.2 72.1h-1.9v2.3h1.9v-2.3zm-1.7 2.1v-1.9h1.6v1.9h-1.6z" class="h"/><path d="M63.1 72.3h-1.6v1.9h1.6v-1.9z" class="i"/><g class="h"><path d="M54.8 85.7c.1.1.1.6.1.8s0 .8-.1.9-.3.2-.5.3v.6s0 .1.1.2l.1.1v-.1c0-1 3.5-1.8 7.9-1.8s7.9.8 7.9 1.8v.1s.1 0 .1-.1.1-.1.1-.2v-.7c-.2-.1-.4-.2-.5-.3s-.1-.7-.1-.9 0-.7.1-.8.2 0 .5.1v-.3c-.1 0-2.5-.6-3.8-.8l-1-.1c-1-.2-1.9-.3-3.2-.3s-2.3.1-3.2.3l-1 .1c-1.4.2-3.7.8-3.8.8v.3h.3zm9.2.6h-2.3c-.4 0-.9.1-1 0-.2-.1-.2-.5-.2-.8 0-.2 0-.5.2-.7s.2-.2.7-.2a2.89 2.89 0 0 1 1 0h1c.5.1.5.1.7.2.2.2.2.5.2.7 0 .4 0 .8-.3.8zm2.1-1.2h.1c.3 0 .6-.1 1.2 0s1.4.3 1.5.5.1.6.1.8-.1.5-.3.5h-.3l-.8-.2c-.5-.1-1.2-.1-1.3-.1s-.3 0-.4-.1-.2-.3-.2-.5v-.1c.1-.5.1-.8.4-.8l-10.3.5c.1-.2.9-.4 1.5-.5s.9 0 1.2 0h.1c.3 0 .3.3.3.8v.1c0 .2-.1.4-.2.5s-.3.1-.4.1-.8 0-1.3.1l-.8.2s-.2.1-.3 0a.55.55 0 0 1-.3-.5c0-.2 0-.6.1-.8l10.4-.5z"/><path d="M56.3 86.9zm12.1 0zm-13.1 2c0-.8 3.1-1.4 7.1-1.4s7.1.6 7.1 1.4c0 .2-.2.4-.6.6.9-.3 1.4-.6 1.4-1 0-.9-3.5-1.7-7.8-1.7s-7.8.8-7.8 1.7c0 .4.5.7 1.4 1-.5-.1-.8-.3-.8-.6z"/><path d="M62.4 90.3c3.8 0 7-.6 7-1.4 0-.7-3.2-1.4-7-1.4s-7 .6-7 1.4 3.2 1.4 7 1.4zm8.2-5.8s-2.1-.6-3.6-.8l-1-.1c-1.2-.2-2.3-.3-3.6-.3s-2.4.2-3.6.3l-1 .1c-1.5.2-3.6.8-3.6.8-.2.1-.5.2-.4.5 0 .1.1.2.2.3s.2.1.3.1l3.9-.8 1-.1c1-.2 1.9-.3 3.3-.3 1.3 0 2.3.1 3.3.3l1 .1c1.4.2 3.8.8 3.9.8s.2 0 .3-.1.1-.2.2-.3c-.2-.2-.4-.4-.6-.5zM56 86.8h.3l.8-.2c.5-.1 1.2-.1 1.3-.1s.2 0 .3-.1.1-.2.1-.4v-.1c0-.6 0-.7-.2-.7h-.1c-.3 0-.5-.1-1.1 0-.8.1-1.4.3-1.4.4-.1.2-.1.6-.1.8-.1.2 0 .4.1.4zm.3-1.1c0-.1.4-.2 1-.3.4-.1.6 0 .8 0h.1c.2 0 .2.2.2.5v.1c0 .1 0 .2-.1.3s-.2.1-.3.1-.6 0-.9.1l-.5.1h-.2c-.1 0-.2-.2-.2-.3 0-.3 0-.5.1-.6z"/></g><path d="M56.3 85.7c-.1.1-.1.3-.1.5 0 .1.1.3.1.3h.2l.5-.1c.3-.1.8-.1.9-.1s.2 0 .2-.1c.1 0 .1-.1.1-.2v-.1c0-.3 0-.4-.2-.4h-.9c-.5 0-.7.1-.8.2z" class="j"/><path d="M65.9 85.9c0 .3 0 .4.1.5s.2.1.3.1.8 0 1.3.1l.8.2s.2.1.3 0c.1 0 .2-.2.2-.5 0-.2 0-.5-.1-.8 0-.1-.6-.3-1.4-.4-.6-.1-.9 0-1.1 0h-.1c-.3.1-.3.2-.3.8zm.4 0c0-.3 0-.5.2-.5h.9c.6.1 1 .2 1 .3.1.1.1.3.1.5 0 .1-.1.3-.2.3h-.2l-.5-.1c-.3-.1-.8-.1-.9-.1s-.2 0-.3-.1c0-.1-.1-.2-.1-.3z" class="h"/><path d="M66.4 85.9c0 .2 0 .2.1.3s.2.1.2.1c.1 0 .6 0 .9.1l.5.1h.2c.1 0 .1-.1.1-.3 0-.1 0-.3-.1-.5 0-.1-.3-.2-1-.3-.4-.1-.6 0-.8 0h-.1v.5z" class="j"/><path d="M64.2 85.6c0-.2 0-.5-.2-.6-.2-.2-.2-.2-.6-.2-.5-.1-1 0-1 0h-1c-.5.1-.5.1-.6.2-.2.2-.2.4-.2.6 0 .5.1.7.2.7h2.3c.4 0 .9.1 1 0 0-.1.1-.2.1-.7zm-.5.4H61c-.2 0-.2-.4-.2-.5s0-.3.2-.4.2-.1.5-.1h1.6c.4 0 .4 0 .5.1.2.1.2.3.2.4.1.1.1.5-.1.5z" class="h"/><path d="M63.2 85h-1.6c-.4 0-.4 0-.5.1s-.1.3-.1.4c0 .2 0 .4.1.4h2.7c.1 0 .1-.2.1-.4 0-.1 0-.3-.1-.4-.2 0-.2 0-.6-.1z" class="i"/><path d="M54 86.2c.2-.1.3-.1.4-.1.1.1.1.4.1.6 0 .1 0 .6-.1.6a.76.76 0 0 1-.4.2c0 .1.1.1.1.1.2 0 .5-.2.6-.3s.1-1.5 0-1.6-.3.1-.5.1c0 .1-.2.2-.2.4z" class="h"/><path d="M53.9 87.5c.1 0 .4-.1.5-.2s.1-1 0-1.1c0 0-.3 0-.3.1 0 0-.2.1-.2.2v.5c-.1.2-.1.5 0 .5z" class="i"/><path d="M70.4 87.3c-.1-.1-.1-.5-.1-.6 0-.2 0-.5.1-.6s.2 0 .4.1h.1c-.1-.2-.3-.3-.3-.3-.1-.1-.4-.2-.5-.1s-.1 1.4 0 1.6c.1.1.5.4.6.3l.1-.1c-.2-.1-.4-.2-.4-.3z" class="h"/><path d="M70.6 85.8z"/><path d="M70.7 86.2c-.1 0-.3-.1-.3-.1-.1.1-.1 1 0 1.1s.3.3.5.2c.1 0 .1-.2.1-.5v-.5c-.1-.1-.3-.2-.3-.2z" class="i"/><path d="M72.5 100.5l-1.1.3-1 .3-1.1.2-1 .3-1 .1-1.1.2-2 .2-1.1.1h-3l-1-.1h-1l-1-.1-.9-.2-1-.1-.9-.2-1-.2-.9-.2-.9-.3-.9-.2-1.8-.6-.9-.4-.9-.3-2.4-1.2-.8-.5-.8-.4-1-.6.4-.1h.2l.1-.1h.4l.1-.1h.4l.2-.1h.1l.2-.1h.2l.1-.1.2-.1h.2l.2-.1h.1l.6-.3.1-.1 1-.5.1-.1.4-.2.2-.2.2-.1.2-.2.5.4.4.4.5.3.4.3 1 .6.6.3.5.2.6.3.6.2.6.3.6.2.7.2.6.1.7.2.8.2.7.1 2.4.3.9.1h.8l.9.1h3.9l1-.1h1.1l2.2-.2 1.2-.1-.3-.6-.1-.1-.4-.8-.1-.1-.3-.4h.5l.1.1h.3l.1.1h.2v.1h.1l.1.1v-.6l-.1-.1v-.4h-.1v-.2l-.1-.1v-.2h-.1v-.2h-.1v-.2h-.1v-.2h-.1v-.1h-.3v.5l-.1.1h-.1l-.1.1h-.1l-.1-.1h-.1l-.1-.1V95l-.1-.1v-.1l.2-.2v-.4l.1-.1V94h.1l.1-.1h.1l.1-.1h.4l.1.1h.2l.4.4v.1l.2.2v.1l.1.1v.2h.1v.2l.1.1v.1l.1.1v.3l.1.1v.3l.1.1v.3l.1-.1v-.1l.1-.1v-.1h.1v-.1l.1-.1v-.1h.1v-.1h.1l.1-.1h.1v-.1l.2-.1v1.4l.1.2v.7h.2v.1-.2h.1v-.2h.1v-.1h.1l.1-.1h.5l.1.1v-.3l.1-.1v-.1h.1v-.1h.1l.1-.1h.4l.1.1h.1v-.3h.1v-.1l.2-.2h.2v-.1h.2l.1.1h.2V96h.1v-.1l.1-.1v-.1h.2v-.1h.4l.1.1v-.3h.1v-.1l.2-.2h.1l.1-.1h.2l.1.1h.2v.1h.1v.1l.1.1v-.1h-.1v-.2l.1-.1v-.3l.2-.2v-.1h.1v-.1h.1v-.1h.1l.1-.1h.3l.1-.1h.2v.1h.3l.1.1h.1v-.3l.1-.1v-.1h.1l.1-.1h.2l.1.1h.1l.2.2v.1h.1v.5l-.1.1H82l-.1.1h-.3v.1l.1.1v.6h-.1v.2h-.1v.1l-.1.1v.1h-.1v.1h-.2v.1h-.2v.1h-.4v.4h-.1v.1h-.1v.1h-.2v.1h-.3l-.1-.1h-.1v.3l-.1.1v.1h-.1l-.1.1h-.1l-.1.1H79l-.1-.1h-.2l-.1-.1v.3l-.1.1v.1h-.1v.1h-.1v.1h-.7v.2l-.1.1v.1h-.2v.1h-.4l-.1-.1h-.2v-.1.2l.1.1-.1.1v.1l-.2.2h-.2v.1H76v-.1h-.3l-.1-.1v.2l-.1.1v.1l-.1.1h-.1v.1h-.4v.1l.1.1.1.2.3.3.1.2.6.6h-.6v-.1h-.4v-.1h-.3v-.1h-.2v-.1h-.1v.8h.1v.4h.1v.3l.1.1v.1l.1.1v.1l.1.1v.1l.1.1v.1h.1v.1h.3v-.5l.1-.1h.1l.1-.1h.1l.1.1h.1l.1.1v.2h.1l-.1.1v.2h-.1v.4l-.1.1v.1h-.1l-.1.1h-.1l-.1.1h-.4l-.1-.1h-.2l-.5-.5v-.1l-.1-.1v-.1h-.1v-.2l-.1-.1v-.1l-.1-.1v-.2l-.1-.1v-.3l-.1-.1v-.3l-.1-.1v-.7l-.1.1v.1l-.1.1v.1l-.1.1v.1h-.1v.1l-.2.2v.1H73v.1h-.1v.1h-.1v.1h-.1v.1h-.1l-.3.2.1-.4.1-.1v-.5l.1-.2v-.7l-.1.1z"/><path d="M72.5 100.5c-11.2 3.4-22.1 1.4-30.2-3.8 1.8-.3 3.6-.8 5.7-2.4 4.2 3.9 11.8 5.6 24.1 4.3.2.6.4 1.2.4 1.9z" class="k"/><g class="h"><path d="M81.3 94.4a1.09 1.09 0 0 0-1.5 0 1.09 1.09 0 0 0 0 1.5 1.09 1.09 0 0 0 1.5 0 1.09 1.09 0 0 0 0-1.5zm-5.7 8.6c.1.1.3.1.4 0s.1-.3 0-.4-.3-.1-.4 0-.1.3 0 .4zm-1.7-2.7c0 .2-.1.4-.1.6.1 1 .4 1.9.9 2.5.5.7 1.4.3 1.4-.2-.2 0-.3 0-.5-.1-.2.1-.4.1-.5-.2a4.38 4.38 0 0 1-.6-2.3c-.3 0-.5-.2-.6-.3zm-2.7-5.6c-.1-.1-.3-.1-.4 0s-.1.3 0 .4.3.1.4 0 .1-.3 0-.4zm1.7 2.7c0-.2.1-.4.1-.6-.1-1-.4-1.9-.9-2.5-.5-.7-1.4-.3-1.4.2a.9.9 0 0 1 .5.1c.2-.1.4-.1.5.2a4.38 4.38 0 0 1 .6 2.3c.3 0 .5.2.6.3zm-1.8-.8c1.4 1.9 1.8 3.8 1.4 5.5.5-.4 1-1.1 1.3-1.8l-.8-2.6c-.8-.9-1.3-1.1-1.9-1.1zm3.7 2.9c.3.1.6 0 .7-.2.1-.3 0-.3-.2-.5-.4-.3-.7-.6-.9-.9 0 .6.2 1.1.4 1.6zm-.8-3.8c-.1 2.4.5 4.2 1.8 5.4-.7 0-1.3-.3-2-.8l-.8-2.7c.2-1.2.6-1.7 1-1.9zm4.5.2c.3.3.6.6 1.1.9.4.2.7 0 .8-.2v-.3c-.2 0-.4-.1-.6-.3-.1-.1-.2-.3-.3-.4s-.2-.2-.3-.4c-.3-.2-.6-.1-.8.2-.1.2 0 .3.1.5zm-3.9 2.2a4.36 4.36 0 0 0 1 .8c.4.2.8.2.9-.1s0-.3-.2-.5c-.4-.3-.7-.6-.9-.9-.3-.2-.6-.1-.8.2s-.1.3 0 .5zm1-.5a4.36 4.36 0 0 0 1 .8c.4.2.8.2.9-.1s0-.3-.2-.5c-.4-.3-.7-.6-.9-.9-.3-.2-.6-.1-.8.2-.2.2-.2.3 0 .5zm2-1.1c.3.3.6.6 1.1.9.4.2.7 0 .8-.2.1-.3-.1-.4-.3-.5-.4-.3-.7-.6-.9-.9-.3-.2-.6-.1-.8.2-.1.2 0 .3.1.5zm-1 .5l1.1 1c.4.2.7 0 .8-.3s0-.3-.2-.5c-.4-.3-.7-.6-.9-.9-.3-.2-.6-.1-.8.2-.2.2-.2.3 0 .5zm4.8-2.7c.1 0 .2.1.2.2 0 .2.4.2.5 0 .1-.1.1-.3 0-.5 0-.1-.1-.1-.2-.2s-.4-.2-.5 0c-.2.1-.2.5 0 .5z"/><path d="M81.2 94.5l-.1-.1.1.1zm-5.5 8.5l.1.1-.1-.1zm-1.5-.8l.1.2v1.5l.3.3h.9v-.1h-.9v-1.7l-.4-.2zm-3.1-7.5l-.1-.1.1.1zm1.3.3l-.1-.1v-.8l-.3-.3h-.9v.1h.9v.9l.4.2zm.4 6.5v.1-3.2l.4.6v-1.7l-.7-.7H72v.4h-.9l.1.1 1.3 2.6v2.4l.3-.6zm1.9-2.6l.1.1v-.1h-.1l-.2-.2.5.1-.7-.7v.2l.4.6zm-1.5-1.8v.5l.1.3v.1l.1.3v.1l.1.3v.1l.1.2v.2l.1.3v.1l.1.3v.1l.2.5h2.4l-.8-.8-.4-.8-.9.1-.3-.6v-1.6l-.8.3zm5.7-1l1 1h.4v-.7h-.1l.3.3-1.6-.6zm-4.1 2l.1.1h.6l.4.4h.8v-.1h-.1l-.3-.3-.3.1-.4-.4v.1l-.4-.4v-.3h-.1l-.3.8zm.9-.6l.1.1h.6l.4.4h.8v-.1h-.1l-.2-.2-.3.1v-.1l-.9-.9v-.3H76l-.3 1zm2-1.1l1.5 1.5h.4l-.6-1.2-.8-.8v-.6h-.1l-.4 1.1zm-1 .5l1.5 1.5h.4v-.1h-.1l-.2-.2-.3-.9-.2-.2h-.1l-.6-.6v-.3H77l-.3.8z"/><path d="M78 97.8h.1v-.1h.1v-.2l-.1-.1H78l-.3-.3h-.1V97h-.1v-.1l-.1-.1h-.1v-.1l-.2-.2h-.2v.1h-.1v.1h-.1v.1h.1l.1.1v.1l.1.1h.1v.1h.1v.1h.1l.1.1v.1h.1l.1.1h.1v.1h.1v.1h.2zm1-.6h.2V97l-.1-.1H79l-.1-.1v-.1h-.1l-.2-.2h-.1v-.1l-.4-.4h-.3v.2h-.1.1v.1h.1v.1l.1.1h.1v.1h.1v.1h.1l.2.2h.1v.1h.1l.2.2h.1zm-1.9 1h.1l.1-.1h-.1l-.2-.2h-.1v-.1h-.1l-.1-.1v-.1h-.1l-.4-.4v-.1h-.4v.2h-.1.1v.1h.1v.1l.2.2h.1v.1h.1l.2.2h.1l.1.1h.1v.1h.3zm-1 .6h.1l.1-.1-.1-.1h-.1v-.1H76l-.2-.2h-.1v-.1h-.1l-.1-.1V98h-.1v-.1l-.3-.3H75v.1h-.2v.3h.1v.1h.1v.1h.1l.2.2h.1l.2.2h.1l.1.1h.1v.1h.2zm4-2.3H80v-.1h-.2v-.1h-.1v-.1h-.1l-.2-.2v-.1h-.1v-.2h-.1v-.1h-.1v-.1l-.1-.1h-.2l-.1.1v.1h-.1.1v.1l.1.1h.1v.1h.1v.1h.1v.1h.1l.2.2h.1v.1l.1.1h.1v.1h.4v-.1zm-5.2 4h.2l-.3-.3-.1-.2-.1-.1-.2-.4v-.1l-.2-.4-.1-.1v-.2l-.1-.2v-.2l-.1-.2v-.3l-.1-.2v-1.1l-.1-.2v-.1.2h-.1v.2h-.1v.2l-.1.1v.4h-.1v.2l.2.6v.1l.1.2.1.1v.3l.1.1v.2l.1.1v.2l.1.1.1.5.1.1h.1v.1h.1l.1.1h.1v.1h.2l.1.1zm0-1.4l.1.1h.2v-.1h-.1V99H75l-.1-.1h-.1v-.1.1l.1.1v.1zm-1.8-.1l-.1-.1v-.3h-.1v-.3l-.1-.1v-.1l-.1-.1v-.3h-.1l-.1-.1v-.1h-.1v-.1h-.1v-.1h-.1v-.1H72v-.1h-.1V97h-.2l.4.8.1.1.3.6v.2l.1.2.1.1v.2l.1.2v.3l.1.2v1.4l.1-.1v-.1h.1v-.1l.1-.1v-.1h.1v-.2h.1v-.2l.1-.1v-.1l-.1-.1v-.3h-.1v-.3l-.1-.1v-.2l-.1-.2z"/><path d="M71.6 94.2l.1.1h.1l.1.1v.1h.1v.1l.1.1v.1l.1.1v.1l.1.1v.1l.1.1v.2l.1.1v.3l.1.1v.5l.1.1v.3l.1-.1v-.1h-.1v-.5l-.1-.1v-.3l-.1-.1v-.2l-.1-.1v-.1l-.1-.1V95l-.1-.1v-.1h-.1v-.1l-.1-.1v-.1l-.3-.3h-.1zm-.6.6h-.1v.1h.1v-.1zm4.4 8.7h-.3v-.1H75l-.2-.2v-.1l-.1-.1v-.1l-.1-.1v-.1h-.1v-.2l-.1-.1v-.2l-.1-.1v-.2l-.1-.1v-.4l-.1-.1v-.5H74v.2l.1.1v.5l.1.1v.2l.1.1v.2l.1.1v.2l.1.1v.1l.1.1v.1l.2.2v.1l.1.1v.1h.1l.1.1h.3zm.4-.6h.1v-.1h-.1v.1zm5.3-8.3H81v-.1h-.2v-.1h-.4l-.1.1h-.2v.1H80v.1l-.1.1v.1h-.1v.5l.1.1v.1h.1v.1h.1v.1h.1v.1h.7l.1-.1h.1v-.1h.1v-.2h.1v-.6l-.1-.1v-.1h-.1v-.1zm-4 2H77v.1h-.1l.1.1v.1l.1.1h.1v.1h.1v.1h.1l.1.1v.1h.1l.2.2h.2l-.1-.1v-.1h-.1l-.3-.3h-.1V97l-.1-.1h-.1v-.1l-.1-.1v-.1zm1.3 0v.1h.1l.2.2h.1l.1.1h.1v.1h.1L79 97h-.1v-.1h-.1l-.3-.3h-.1v-.1l-.3-.3v-.1h-.2v.1l.3.3h.1v.1h.1zm-1.8 1.2l.1.1v.1h.2v.1-.1l-.1-.1h-.1l-.1-.1v-.1h-.1l-.4-.4v-.1h-.2v.1l.2.2h.1v.1h.1v.1h.1v.1h.2zm-1 .6l.1.1h.1v.1h.1l-.3-.3h-.1l-.1-.1v-.1h-.1V98l-.2-.2h-.2v.1h.1v.1h.1v.1h.1v.1h.1l.1.1h.1l.1.1zm3.6-2.5v.1h.1l-.1-.1v-.1l-.2-.2v-.1h-.1l-.1.1.2.2h.1v.1h.1zm-5.1 3.5v.1l.1.5h.2v.1h.1l.1.1v-.1l-.1-.2-.1-.1-.2-.4v-.1l-.2-.4v-.2l-.1-.1v-.2l-.1-.2V98l-.1-.2v-.6l-.1-.2v-.1.1h-.1v.7l.1.1.2.6v.2l.1.1v.1l.1.3v.1l.1.2zm-1.8-1.7v.2l.2.4.1.1.1.2v.2l.1.2v.2l.1.2v.1l.1.2v.6l.1.1v.3l.1-.1v-.1l.1-.1v-.4l-.1-.1v-.3h-.1v-.3l-.1-.1v-.1l-.1-.1v-.2l-.1-.1v-.3h-.1v-.2l-.1-.1v-.3h-.1l-.1-.1v-.1h-.1v-.1h-.1v-.1h-.1v-.1H72l.2.2.1.2z"/></g><path d="M81 94.7h-.1v-.1h-.2l-.1-.1h-.1v.1h-.3v.1h-.1v.1H80v.3h-.1v.2h.1v.2h.1v.1l.1.1h.1v.1h.5v-.1h.2v-.1h.1v-.2h.1v-.5h-.1v-.1H81v-.1z"/><g fill="#005c96"><path d="M81 94.8v-.1h-.2v-.1h-.5v.1h-.1v.1h-.1v.1H80v.5h.1v.2h.1l.1.1h.2v.1h.1l.1-.1h.2v-.1h.1v-.1h.1v-.6l-.1-.1z"/><path d="M80.6 94.6l.1.4.4.2-.3.1-.2.5-.2-.5-.4-.1.4-.2.2-.4z"/></g><path d="M80.6 94.6l.1.4.4.2-.4.1-.1.4-.2-.4-.4-.1.4-.2.2-.4z" fill="#1974a6"/><path d="M80.6 94.7l.1.3.4.2-.4.1-.1.4-.2-.4-.3-.1.3-.2.2-.3z" fill="#5d91b9"/><path d="M80.6 94.7l.1.3.3.2-.3.1-.1.3-.2-.3-.3-.1.3-.2.2-.3z" fill="#93b6cf"/><path d="M80.6 94.8l.1.3.2.1h-.2l-.1.3-.2-.3h-.2l.3-.1.1-.3z" fill="#9ccce4"/><path d="M80.6 94.9v.2l.3.1h-.2l-.1.3-.1-.3h-.2l.2-.1.1-.2z" fill="#60b5dd"/><g class="o"><path d="M80.6 94.9v.2l.2.1h-.1l-.1.2-.1-.2h-.2l.2-.1.1-.2z"/><path d="M80.6 95v.1l.2.1h-.2v.2l-.1-.2h-.1l.2-.2z"/></g></g></svg>