<?xml version="1.0" encoding="utf-8"?>
<!-- Generator: Adobe Illustrator 22.0.1, SVG Export Plug-In . SVG Version: 6.00 Build 0)  -->
<svg version="1.1" id="Слой_1" xmlns="http://www.w3.org/2000/svg" xmlns:xlink="http://www.w3.org/1999/xlink" x="0px" y="0px"
	 viewBox="0 0 127.3 127" style="enable-background:new 0 0 127.3 127;" xml:space="preserve">
<style type="text/css">
	.st0{fill:url(#SVGID_1_);}
	.st1{fill:#FFFFFF;}
	.st2{fill-rule:evenodd;clip-rule:evenodd;fill:#E6E7E8;stroke:#000000;stroke-width:1.572986e-03;stroke-miterlimit:22.9256;}
	.st3{fill:#231F20;}
	.st4{fill-rule:evenodd;clip-rule:evenodd;fill:#231F20;}
	.st5{fill-rule:evenodd;clip-rule:evenodd;fill:#ED1C24;}
	.st6{fill:none;stroke:#FFFFFF;stroke-width:0.2854;stroke-miterlimit:22.9256;}
	.st7{fill-rule:evenodd;clip-rule:evenodd;fill:#ED1C24;stroke:#231F20;stroke-width:2.446111e-02;stroke-miterlimit:22.9256;}
</style>
<radialGradient id="SVGID_1_" cx="64.8" cy="682.747" r="62.6" gradientTransform="matrix(1 0 0 1 0 -618.347)" gradientUnits="userSpaceOnUse">
	<stop  offset="0.9487" style="stop-color:#212121"/>
	<stop  offset="1" style="stop-color:#606060;stop-opacity:0"/>
</radialGradient>
<circle class="st0" cx="64.8" cy="64.4" r="62.6"/>
<circle class="st1" cx="62.6" cy="62.6" r="62.6"/>
<g>
	<path class="st2" d="M94.9,98.2c-1.2,1.6-3.2,1.7-5.1,1.7l-18.5,0c-3.5,0-5.7,3.8-7.8,6.1c-2.1-2.3-3.5-5.8-7-6.1
		c-6.4-0.5-12.9,0.3-19.4-0.1c-3.5-0.3-6.4-1.6-6.7-5.4l0-70.4h66.1l0,65.8C96.5,92.4,96.4,95.9,94.9,98.2L94.9,98.2z"/>
	<path class="st3" d="M94.9,98.4c-0.7,0.9-1.6,1.3-2.5,1.6c-0.9,0.2-1.9,0.3-2.9,0.3h0l-18.5,0c-2.6,0-4.5,2.3-6.2,4.4
		c-0.4,0.5-0.9,1.1-1.3,1.5l-0.3,0.3l-0.3-0.3l0,0c-0.6-0.6-1.1-1.4-1.7-2.1c-1.3-1.8-2.7-3.7-5-3.8l0,0c-3.4-0.3-6.9-0.2-10.4-0.1
		c-3,0.1-5.9,0.2-8.9,0h0c-1.8-0.2-3.5-0.6-4.8-1.5c-1.3-0.9-2.2-2.3-2.3-4.4v0l0-70.4l0-0.4h0.4h66.1h0.4V24l0,65.8v0
		c0,1.3-0.1,2.9-0.3,4.4C96.2,95.7,95.7,97.2,94.9,98.4L94.9,98.4L94.9,98.4z M92.1,99.1c0.8-0.2,1.5-0.6,2.1-1.3l0,0
		c0.7-1.1,1.1-2.4,1.3-3.9c0.2-1.5,0.2-3,0.3-4.3l0-65.3H30.6l0,70c0.1,1.8,0.9,2.9,1.9,3.7c1.1,0.8,2.6,1.2,4.3,1.3v0
		c2.9,0.1,5.9,0.1,8.8,0c3.5-0.1,7.1-0.2,10.5,0.1l0,0c2.7,0.2,4.2,2.2,5.6,4.2c0.4,0.6,0.9,1.2,1.3,1.7c0.3-0.4,0.6-0.7,0.9-1.1
		c1.8-2.2,3.8-4.7,6.9-4.8l18.5,0C90.4,99.4,91.3,99.4,92.1,99.1L92.1,99.1z"/>
	<path class="st4" d="M38.3,50.3c0.9,0,1.8,0,2.7,0.1c0-0.6-0.3-1.8,0-1.8c1.6-0.2,2.8-0.5,3.2-1.1c0.8-1,2.7-1.2,5.1-1.2
		c1.3-1.2,2.2-0.8,2.7,0.7c2-0.2,2.5,0.5,1.7,2c1.2,1.4,2.3,3.3,3.8,6.2c1.8,0.5,3.8,1.4,5.8,2.3c1.2,0.7,2.4,0.8,3.6,0.4
		c4-1.1,7.9-1.5,11.4-0.9c1.9,0.3,2.7,0,2.8-0.7c1.9-7.9,2.6-7.8,3.5-10.5c0.8-2.4,1.4-3.2,2.8-3.7c1.7-0.7,3.1-0.8,4.5-0.7
		c-1.3,3.5-2.1,6.9-1.9,10.4c0.1,2.9-2.5,6.9-4.3,7.8c-1.3,0.6-1.5,1.1-1,1.8c0.8,1.1,1,2.7,1,5c0,4.5,1.8,5.9,4.5,7.2
		c0.2,0.8,0.2,1.8,0.1,2.7c-1.3,1-1.7,3.1-2.1,5.4c-0.9-0.6-1.8-1.4-2.5-2.4c-1.8,0.4-3.1,1-3.3,1.9c-0.4-0.8,0.1-1.7,0-3.1
		c-0.9-0.1-1.7-0.1-2.6,0.4c-0.3-0.8,0.3-1.5,2.1-1.8c0.6-0.6,1.3-1.1,2-1.2c0.5-0.1,0.9-0.5,1.4-1c-1.8-0.2-3.7-0.7-5.7-1.8
		c-0.3,1.6-1.5,2.2-3.7,2c-0.7-0.1-0.9,0.2-0.4,0.8c1.7,1.9,2.1,2.9,0.9,2.9c-2.4,0.2-4.3,1-5.3,2.6c-1.8,0-3.2,0.2-3.5,1
		c-0.2-0.7,1.1-2.1-0.6-2.1c-0.9,0-1.8,0.3-2.7,1.2c0-0.8,0.3-1.6,0.7-2.4c0.7-1.4,0-1.4-1.4-0.6c0.1-1,0.6-1.5,1.5-1.5
		c0.6-0.2,1-0.8,1.9-0.6c1.7,0.5,2.9,0.6,3.1,0.1c0.5-0.9-0.6-1.9-1.1-2.6c-0.8-0.9-0.4-1.8,0.4-3.3c-1.3,0.5-2.8,1.1-4.4,1.3
		c-3.3,0.6-6.2,0.8-8.3,0.1c-0.4,0.4-0.7,0.7-0.9,0.7L43,72.9c-1.1,0.9-2.5,1.7-3.9,1.6l-0.9,0.9c-0.3-0.3-0.3-0.9-0.1-1.8
		c-0.6,0.1-1.2,0.5-1.8,1.4c-0.1-1.1,0.1-1.9,0.5-2.6c-0.2-0.6-0.7-0.6-1.4,0c0.1-2,1.4-2.7,2.9-2.5c3.1,0.3,5.3,0,6.8-0.3
		c4.2-0.8,3.3-1.6,2-2.3c-2,0.1-4.6,0.4-6.9,0.9c-1,0.5-2,0.7-2.9,0.8c-0.7,0.2-1.2,0.5-1.4,0.8l0-1L35.7,69l-0.4,0.2
		c-0.1-1.1,0.3-1.4,0.3-2.4c0-0.8,0.4-1.3,1.1-1.8c0.9-0.6,5.8-0.7,8.7-1.1l2.2-3.5l-2.2-5.1l-3.2-1.6c-0.3-0.7-0.4-1.8-0.8-2
		L40,52.6l0.8-1.1l-1.9,0.7l1.4-1.1l-2,0.4l1.6-0.8L38.3,50.3L38.3,50.3z M43.7,50.8c1-0.4,1.7-0.3,2.4-0.2l-1.3,0.5
		c1,0.1,1.8,0.1,2.3,0.3c-0.4,0.2-1.2,0.2-1.8,0.2l2.1,0.8l-2.3-0.1l1.5,1.2c-1-0.4-2.1-0.9-3.1-1.5C43.5,51.6,43.6,51.1,43.7,50.8
		L43.7,50.8z M45.8,48c0.2,0,0.3,0.3,0.2,0.6c0,0.3-0.2,0.6-0.4,0.5c-0.2,0-0.3-0.3-0.2-0.6C45.4,48.3,45.6,48,45.8,48L45.8,48z
		 M54,59.7c1.1-0.5,2-0.8,2.8-0.7l-0.5,0.7c-0.7,0-1.4,0.3-2.2,0.7l0.7-0.7L54,59.7L54,59.7z M53.8,61.1c0.8-0.4,1.6-0.7,2.5-1
		c0.2,0,0.1,0.1,0,0.3c-0.9,0.2-1.7,0.6-2.5,1.1C53.8,61.4,53.8,61.3,53.8,61.1L53.8,61.1z M53.8,62c0.6-0.5,1.2-0.7,1.8-0.9
		c0.1,0.1,0.1,0.3-0.2,0.4L54,62.2C53.8,62.3,53.8,62.1,53.8,62L53.8,62z M54.2,62.8l0.7-0.2L54.5,63L54,63.1L54.2,62.8L54.2,62.8z
		 M76.9,62.8l1.2,1.3l0,0.5l-1.3-1.5L76.9,62.8L76.9,62.8z M76.4,63.3l1.5,1.9l-0.1,0.5l-1.6-2L76.4,63.3L76.4,63.3z M75.9,64
		l1.8,1.9v0.5l-1.9-2L75.9,64L75.9,64z M75.7,64.7l1.9,2.3l-0.1,0.4L75.5,65L75.7,64.7L75.7,64.7z"/>
	<path class="st5" d="M38.8,56c0.5-1.6,1.5-3.1,3.8-3.6c0.6-0.1,0.9,0.5,1.1,0.3c0.2-0.1,0.3-0.4,0.5-0.2c1.1,0.5,1.8,1.3,2.3,2.1
		c1.2,1.7,2.1,3.5,2.1,5.4l1.5,2.4c0.1,1.9,0.4,3.4,1,5c0.2,1.3-0.1,1.6-0.9,1.1c1,4.7,1,8.1-0.6,9.6c-2.4-1.8-2.8-6.3-1.9-13
		c0.2-1.7-0.1-3-0.5-4.1c0.1,0.8-0.1,1.6-0.4,2.5c0.7,1.4,0.4,3.4-0.6,6.1c0-1.4-0.2-2.7-0.6-3.8c-0.5-1.8-0.4-3.2-0.1-4.9
		c-1.5-1.8-2-3.6-1.3-5.1c0-1.2-0.5-1.3-1.5-0.2l0,2.1c0.7,1.7,1,3.2,0.6,4.1c-0.7,1.6-1,2.4-0.9,3.9c0.1,1.4-0.3,2.4-0.8,2
		c-0.5-0.4-0.7-1.1-0.4-2.1c0.3-2.3,0.2-3.7,0-4.7c-0.3,0.6-0.4,2-0.9,3c-0.5,1-0.9,1.2-1.1,0.6c-0.2-0.7-0.6-1.3-1.2-1.7
		c0-0.5-0.3-0.8-0.8-1C38.2,60,38.1,58.1,38.8,56L38.8,56z"/>
	<path class="st5" d="M38.8,64.8c0.2,0.5,0.5,0.7,0.7,0.4c0.1,0.6-0.1,1.4-0.7,1.8c-0.5,0.3-0.8,0-0.6-0.7
		C38.4,65.8,38.6,65.5,38.8,64.8L38.8,64.8z"/>
	<path class="st6" d="M83.2,53.1l1.9-1 M83.3,52c0.9-0.5,1.8-1,2.6-1.3 M83.9,50.3c0.9-0.5,1.8-1,2.6-1.3 M84.2,48.7
		c0.9-0.5,1.8-1,2.6-1.3 M85,47.1c0.9-0.5,1.8-1,2.6-1.3 M85.5,45.8c0.9-0.5,1.8-1,2.6-1.3 M85.8,44.7c0.9-0.5,1.6-1,2.5-1.3"/>
	<path class="st6" d="M87.3,47.3c-0.4-0.8-1-1.7-1.7-2.3 M87.8,46.6c-0.4-0.8-1-1.6-1.7-2.2 M88,45.6c-0.4-0.8-0.9-1.3-1.7-1.9
		 M88.4,45c-0.4-0.8-0.8-1.2-1.5-1.7 M86.9,47.7c-0.4-0.8-0.8-1.2-1.5-1.7 M86.6,48.5c-0.4-0.8-0.8-1.2-1.5-1.7 M86.3,49.3
		c-0.4-0.8-0.8-1.2-1.5-1.7 M86.2,50.1c-0.4-0.8-0.9-1.5-1.7-2 M85.9,50.9c-0.5-0.7-0.9-1.2-1.5-1.8 M85.5,51.7
		C85,51,84.7,50.5,84,49.9 M85.2,52.4c-0.5-0.7-1-1.3-1.7-1.9"/>
	<path class="st7" d="M45.8,48c0.4,0,0.8,0.3,0.8,0.7c0,0.4-0.3,0.7-0.8,0.7c-0.4,0-0.8-0.3-0.8-0.7C45,48.3,45.4,48,45.8,48
		L45.8,48z"/>
</g>
</svg>
