<?xml version="1.0" encoding="utf-8"?>
<!-- Generator: Adobe Illustrator 22.0.1, SVG Export Plug-In . SVG Version: 6.00 Build 0)  -->
<svg version="1.1" id="Слой_1" xmlns="http://www.w3.org/2000/svg" xmlns:xlink="http://www.w3.org/1999/xlink" x="0px" y="0px"
	 viewBox="0 0 127.3 127" style="enable-background:new 0 0 127.3 127;" xml:space="preserve">
<style type="text/css">
	.st0{fill:url(#SVGID_1_);}
	.st1{fill:#FFFFFF;}
	.st2{fill-rule:evenodd;clip-rule:evenodd;fill:#FFDF00;}
	.st3{clip-path:url(#SVGID_3_);fill:none;stroke:#A2260B;stroke-width:1.0108;stroke-miterlimit:22.9256;}
	.st4{clip-path:url(#SVGID_5_);fill:none;stroke:#A2260B;stroke-width:1.0108;stroke-miterlimit:22.9256;}
	.st5{clip-path:url(#SVGID_7_);fill:none;stroke:#A2260B;stroke-width:1.0108;stroke-miterlimit:22.9256;}
	.st6{fill:none;stroke:#010005;stroke-width:0.2198;stroke-miterlimit:22.9256;}
	.st7{clip-path:url(#SVGID_9_);fill:none;stroke:#0A0000;stroke-width:0.2416;stroke-miterlimit:22.9256;}
	.st8{fill-rule:evenodd;clip-rule:evenodd;fill:#A2260B;}
	.st9{fill:none;stroke:#0A0000;stroke-width:0.2416;stroke-miterlimit:22.9256;}
	.st10{clip-path:url(#SVGID_11_);fill:none;stroke:#0A0000;stroke-width:0.2416;stroke-miterlimit:22.9256;}
	.st11{clip-path:url(#SVGID_13_);fill:none;stroke:#0A0000;stroke-width:0.2416;stroke-miterlimit:22.9256;}
	.st12{fill-rule:evenodd;clip-rule:evenodd;fill:#0A0000;}
	.st13{fill:none;stroke:#0A0000;stroke-width:9.071629e-02;stroke-miterlimit:22.9256;}
</style>
<radialGradient id="SVGID_1_" cx="64.8" cy="2586.7468" r="62.6" gradientTransform="matrix(1 0 0 1 0 -2522.3469)" gradientUnits="userSpaceOnUse">
	<stop  offset="0.9487" style="stop-color:#212121"/>
	<stop  offset="1" style="stop-color:#606060;stop-opacity:0"/>
</radialGradient>
<circle class="st0" cx="64.8" cy="64.4" r="62.6"/>
<circle class="st1" cx="62.6" cy="62.6" r="62.6"/>
<g>
	<path class="st2" d="M73.6,23.4v-2.2l2.3,2.2l2.2-2.2v2.2h2.3l-2.3,2.3l2.3,2.2h-2.3v2.3L75.9,28l-2.3,2.3V28h-2.2l2.2-2.2
		l-2.2-2.3H73.6z M73.6,23.4"/>
	<g>
		<defs>
			<rect id="SVGID_2_" x="20.2" y="19.9" width="86.2" height="87.2"/>
		</defs>
		<clipPath id="SVGID_3_">
			<use xlink:href="#SVGID_2_"  style="overflow:visible;"/>
		</clipPath>
		<path class="st3" d="M73.6,23.4v-2.2l2.3,2.2l2.2-2.2v2.2h2.3l-2.3,2.3l2.3,2.2h-2.3v2.3L75.9,28l-2.3,2.3V28h-2.2l2.2-2.2
			l-2.2-2.3H73.6z M73.6,23.4"/>
	</g>
	<path class="st2" d="M60.8,23.4v-2.3l2.3,2.3l2.2-2.3v2.3h2.3l-2.3,2.2l2.3,2.3h-2.3v2.2L63,27.9l-2.3,2.2v-2.2h-2.2l2.2-2.3
		l-2.2-2.2H60.8z M60.8,23.4"/>
	<g>
		<defs>
			<rect id="SVGID_4_" x="20.2" y="19.9" width="86.2" height="87.2"/>
		</defs>
		<clipPath id="SVGID_5_">
			<use xlink:href="#SVGID_4_"  style="overflow:visible;"/>
		</clipPath>
		<path class="st4" d="M60.8,23.4v-2.3l2.3,2.3l2.2-2.3v2.3h2.3l-2.3,2.2l2.3,2.3h-2.3v2.2L63,27.9l-2.3,2.2v-2.2h-2.2l2.2-2.3
			l-2.2-2.2H60.8z M60.8,23.4"/>
	</g>
	<path class="st2" d="M47.9,23.4v-2.2l2.2,2.2l2.3-2.2v2.2h2.2l-2.2,2.3l2.2,2.2h-2.2v2.3L50.2,28l-2.2,2.3V28h-2.3l2.3-2.2
		l-2.3-2.3H47.9z M47.9,23.4"/>
	<g>
		<defs>
			<rect id="SVGID_6_" x="20.2" y="19.9" width="86.2" height="87.2"/>
		</defs>
		<clipPath id="SVGID_7_">
			<use xlink:href="#SVGID_6_"  style="overflow:visible;"/>
		</clipPath>
		<path class="st5" d="M47.9,23.4v-2.2l2.2,2.2l2.3-2.2v2.2h2.2l-2.2,2.3l2.2,2.2h-2.2v2.3L50.2,28l-2.2,2.3V28h-2.3l2.3-2.2
			l-2.3-2.3H47.9z M47.9,23.4"/>
	</g>
	<path class="st2" d="M64.2,90.6c2.3-5.9,9.6-2.1,14.4-4.7c2.9-1.6,7.1-4.4,7.6-12.8c-4.2-0.8-6.1-20.5,1.6-22.1
		c-0.7-3.7-1.3-7.4-2-11.2c-2.4-0.2-5.3-0.6-7.8-3c-3.8-3.7-4.5-4.1-7.1-4.7c-2.5-0.5-5.4,0-7.9,1.8c-2.5-1.8-5.4-2.3-7.9-1.8
		c-2.6,0.5-3.3,1-7.1,4.7c-2.4,2.4-5.3,2.8-7.8,3c-0.7,3.7-1.3,7.4-2,11.2c7.7,1.6,5.8,21.3,1.6,22.1c0.5,8.4,4.7,11.2,7.6,12.8
		c4.8,2.6,12.1-1.2,14.4,4.7H64.2z M64.2,90.6"/>
	<path class="st6" d="M64.2,90.6c2.3-5.9,9.6-2.1,14.4-4.7c2.9-1.6,7.1-4.4,7.6-12.8c-4.2-0.8-6.1-20.5,1.6-22.1
		c-0.7-3.7-1.3-7.4-2-11.2c-2.4-0.2-5.3-0.6-7.8-3c-3.8-3.7-4.5-4.1-7.1-4.7c-2.5-0.5-5.4,0-7.9,1.8c-2.5-1.8-5.4-2.3-7.9-1.8
		c-2.6,0.5-3.3,1-7.1,4.7c-2.4,2.4-5.3,2.8-7.8,3c-0.7,3.7-1.3,7.4-2,11.2c7.7,1.6,5.8,21.3,1.6,22.1c0.5,8.4,4.7,11.2,7.6,12.8
		c4.8,2.6,12.1-1.2,14.4,4.7H64.2z M64.2,90.6"/>
	<path class="st2" d="M59.1,106.9c-1.4-2.1-3-4.1-5.8-4.5c-2.8-0.5-8.8-2.8-13.4-5.9c-3.4-2.2-6.8-5.5-8.7-7.7c-1.7-2-4.7-6-6.2-9.2
		c-1-2.2-2.6-6.3-3.4-10.7c-0.3-2.1-1-6-0.9-9l1.9-2.2H31l1.7-0.3l1.3-0.8l0.9-0.8l1.7-0.1c-0.6,0.8-0.8,1.1-1.6,1.7l-1.3,0.9
		l2.8-0.2l2.1-0.6l0.8-0.9L39.1,56L38,55.8h-2.1l-1.8,0.1l-1.6-0.2L31.4,55l0.9-0.8l1.2,0.5l1.9,0.1l1.7-0.1l2-0.2l1.5,0.5l0.8,1.2
		l-0.1,1.4l-1,1.1L38.7,59l-1.4,0.1l-1,0.2l0.7,0.6l0.5,0.7l0.3,0.8L38,62l0.8-0.6l0.9-0.3l-0.1,0.9h1.2l-0.7,0.6L39.3,63l-0.8,0.2
		l0.9,0.3l0.9,0.3l1,0.1l-0.6,1l-1,0.3l0.3,0.6l0.1,0.9l-0.1,0.9c0,0-0.2,0.5-0.5,0.6c-0.3,0.1-0.6-0.3-0.6-0.3s-0.5-0.3-0.8-0.7
		c-0.3-0.4-0.1-0.7-0.3-0.8c-0.2-0.1-0.5,0.3-0.5,0.3l-0.7,0.4l-0.5-0.8c0,0-0.1-0.5-0.2-0.5c-0.2,0-0.4,0.6-0.4,0.6
		s-0.4,0.4-0.6,0.2c-0.2-0.2-0.3-1.2-0.3-1.2l0.5-1.1l0.8-0.6l0.9-0.4l-1.3-0.2l-0.7-0.5L34.1,62h1.6l1.4,0.3l-0.3-0.8
		c-0.2-0.6-0.6-1-1-1.3c-0.5-0.3-1-0.5-1.7-0.7h-4.2c-0.2,1.7,0.1,3.3,0.2,4.7c0.1,1.3,0.7,4.8,1.6,7c0.8,2.2,1.4,3.9,2.9,6.4
		c1.4,2.4,3.1,4.7,4.7,6.5c1.3,1.4,2.8,2.6,4.4,3.8c1.5,1,4.1,2.5,5.7,3.2c1.4,0.6,4.3,2.2,5.9,1.8c1.1-0.3,1.1-1,1.7-1.1
		c2.3,0.6,4.3,0.8,6.3,0.8c2,0,4-0.2,6.3-0.8c0.5,0.2,0.6,0.9,1.7,1.1c1.5,0.3,4.4-1.3,5.9-1.8c1.6-0.8,4.2-2.2,5.7-3.2
		c1.6-1.1,3.1-2.3,4.4-3.8c1.6-1.8,3.2-4,4.7-6.5c1.4-2.5,2.2-4.5,2.9-6.4c0.7-1.9,1.3-4.9,1.6-7c0.1-1.2,0.1-3,0.2-4.7h-4.1
		c-0.7,0.2-1.3,0.5-1.7,0.7c-0.4,0.3-0.8,0.7-1,1.3l-0.3,0.8l1.4-0.3h1.6l-0.6,0.6l-0.8,0.5l-1.3,0.2l1,0.4l0.8,0.6l0.8,1.1
		c0,0,0,1-0.2,1.2c-0.3,0.2-0.8-0.5-0.8-0.5s-0.5-0.4-0.7-0.3c-0.3,0-0.1,0.2-0.3,0.5c-0.2,0.3-0.5,0.8-0.5,0.8L89,66.8
		c0,0-0.3-0.6-0.5-0.5c-0.2,0.1-0.4,1-0.4,1L87.2,68l-1.1,0.3l-0.3-0.5l0.1-1.2l0.3-0.7l0.3-0.7l-1-0.2L85.1,64L86,64l0.9-0.4
		l0.9-0.3L86.9,63l-0.8-0.5l-0.7-0.6h1.1l-0.1-0.9l0.8,0.3l0.9,0.6l0.1-0.7l0.3-0.8l0.5-0.7l0.7-0.6l-1-0.2L87.4,59L86,58.6l-1-1.1
		v-1.4l0.7-1.2l1.5-0.5l2.1,0.2l1.7,0.1l1.9-0.1l1.1-0.5l0.9,0.8l-1.1,0.6l-1.6,0.2l-1.8-0.1h-2.1L87.2,56l-0.3,0.7l0.8,0.9l2,0.6
		l2.9,0.2l-1.3-0.9c-0.9-0.6-1-1-1.6-1.7l1.7,0.1l0.9,0.8l1.3,0.8l1.7,0.3h8.5l1.8,2.2c0.1,3-0.3,7-0.6,9c-0.7,4.4-2.8,8.5-3.7,10.7
		c-1.4,3-4.4,7.2-6.1,9.2c-2,2.2-5.3,5.5-8.7,7.7c-4.6,3-10.6,5.3-13.4,5.9c-2.8,0.4-4.4,2.5-5.8,4.5L59.1,106.9z M59.1,106.9"/>
	<g>
		<defs>
			<rect id="SVGID_8_" x="20.2" y="19.9" width="86.2" height="87.2"/>
		</defs>
		<clipPath id="SVGID_9_">
			<use xlink:href="#SVGID_8_"  style="overflow:visible;"/>
		</clipPath>
		<path class="st7" d="M59.1,106.9c-1.4-2.1-3-4.1-5.8-4.5c-2.8-0.5-8.8-2.8-13.4-5.9c-3.4-2.2-6.8-5.5-8.7-7.7
			c-1.7-2-4.7-6-6.2-9.2c-1-2.2-2.6-6.3-3.4-10.7c-0.3-2.1-1-6-0.9-9l1.9-2.2H31l1.7-0.3l1.3-0.8l0.9-0.8l1.7-0.1
			c-0.6,0.8-0.8,1.1-1.6,1.7l-1.3,0.9l2.8-0.2l2.1-0.6l0.8-0.9L39.1,56L38,55.8h-2.1l-1.8,0.1l-1.6-0.2L31.4,55l0.9-0.8l1.2,0.5
			l1.9,0.1l1.7-0.1l2-0.2l1.5,0.5l0.8,1.2l-0.1,1.4l-1,1.1L38.7,59l-1.4,0.1l-1,0.2l0.7,0.6l0.5,0.7l0.3,0.8L38,62l0.8-0.6l0.9-0.3
			l-0.1,0.9h1.2l-0.7,0.6L39.3,63l-0.8,0.2l0.9,0.3l0.9,0.3l1,0.1l-0.6,1l-1,0.3l0.3,0.6l0.1,0.9l-0.1,0.9c0,0-0.2,0.5-0.5,0.6
			c-0.3,0.1-0.6-0.3-0.6-0.3s-0.5-0.3-0.8-0.7c-0.3-0.4-0.1-0.7-0.3-0.8c-0.2-0.1-0.5,0.3-0.5,0.3l-0.7,0.4l-0.5-0.8
			c0,0-0.1-0.5-0.2-0.5c-0.2,0-0.4,0.6-0.4,0.6s-0.4,0.4-0.6,0.2c-0.2-0.2-0.3-1.2-0.3-1.2l0.5-1.1l0.8-0.6l0.9-0.4l-1.3-0.2
			l-0.7-0.5L34.1,62h1.6l1.4,0.3l-0.3-0.8c-0.2-0.6-0.6-1-1-1.3c-0.5-0.3-1-0.5-1.7-0.7h-4.2c-0.2,1.7,0.1,3.3,0.2,4.7
			c0.1,1.3,0.7,4.8,1.6,7c0.8,2.2,1.4,3.9,2.9,6.4c1.4,2.4,3.1,4.7,4.7,6.5c1.3,1.4,2.8,2.6,4.4,3.8c1.5,1,4.1,2.5,5.7,3.2
			c1.4,0.6,4.3,2.2,5.9,1.8c1.1-0.3,1.1-1,1.7-1.1c2.3,0.6,4.3,0.8,6.3,0.8c2,0,4-0.2,6.3-0.8c0.5,0.2,0.6,0.9,1.7,1.1
			c1.5,0.3,4.4-1.3,5.9-1.8c1.6-0.8,4.2-2.2,5.7-3.2c1.6-1.1,3.1-2.3,4.4-3.8c1.6-1.8,3.2-4,4.7-6.5c1.4-2.5,2.2-4.5,2.9-6.4
			c0.7-1.9,1.3-4.9,1.6-7c0.1-1.2,0.1-3,0.2-4.7h-4.1c-0.7,0.2-1.3,0.5-1.7,0.7c-0.4,0.3-0.8,0.7-1,1.3l-0.3,0.8l1.4-0.3h1.6
			l-0.6,0.6l-0.8,0.5l-1.3,0.2l1,0.4l0.8,0.6l0.8,1.1c0,0,0,1-0.2,1.2c-0.3,0.2-0.8-0.5-0.8-0.5s-0.5-0.4-0.7-0.3
			c-0.3,0-0.1,0.2-0.3,0.5c-0.2,0.3-0.5,0.8-0.5,0.8L89,66.8c0,0-0.3-0.6-0.5-0.5c-0.2,0.1-0.4,1-0.4,1L87.2,68l-1.1,0.3l-0.3-0.5
			l0.1-1.2l0.3-0.7l0.3-0.7l-1-0.2L85.1,64L86,64l0.9-0.4l0.9-0.3L86.9,63l-0.8-0.5l-0.7-0.6h1.1l-0.1-0.9l0.8,0.3l0.9,0.6l0.1-0.7
			l0.3-0.8l0.5-0.7l0.7-0.6l-1-0.2L87.4,59L86,58.6l-1-1.1v-1.4l0.7-1.2l1.5-0.5l2.1,0.2l1.7,0.1l1.9-0.1l1.1-0.5l0.9,0.8l-1.1,0.6
			l-1.6,0.2l-1.8-0.1h-2.1L87.2,56l-0.3,0.7l0.8,0.9l2,0.6l2.9,0.2l-1.3-0.9c-0.9-0.6-1-1-1.6-1.7l1.7,0.1l0.9,0.8l1.3,0.8l1.7,0.3
			h8.5l1.8,2.2c0.1,3-0.3,7-0.6,9c-0.7,4.4-2.8,8.5-3.7,10.7c-1.4,3-4.4,7.2-6.1,9.2c-2,2.2-5.3,5.5-8.7,7.7
			c-4.6,3-10.6,5.3-13.4,5.9c-2.8,0.4-4.4,2.5-5.8,4.5L59.1,106.9z M59.1,106.9"/>
	</g>
	<path class="st8" d="M66.3,104.8c1-1.3,2.6-3.6,6-4.5c2.2-0.3,5.1-1.4,7.7-2.5c2.6-1.2,6.8-3.7,9.8-6.4c3-2.6,4.7-4.8,6.6-7.2
		c1-1.7,2.7-4.1,3.7-6.4c1-2.3,2.4-5.6,2.9-8.6c0.4-2.2,0.9-6.5,0.8-9.5h-5.6c-0.1,3.4-0.8,8-1.4,10.3c-0.8,2.7-2.5,6.7-4.4,9.7
		c-2,3.1-5.1,6.4-7.7,8.4c-3.5,2.8-9.2,5.8-13.1,6.4c-0.1,0-1.7,0.5-2.6-0.7c-1.3,0.4-4,0.6-5.9,0.6c-1.9,0-4.5-0.2-5.9-0.6
		c-0.9,1.1-2.4,0.7-2.6,0.7c-3.9-0.7-9.6-3.6-13.1-6.4c-2.6-2-5.6-5.3-7.7-8.4c-2-3-3.7-7-4.5-9.7c-0.7-2.8-1.4-8.5-1.3-10.3h-5.8
		c-0.1,3,0.5,7,0.9,9.5c0.3,2.3,2,6.6,2.9,8.6c0.9,2,2.6,4.9,3.7,6.4c1.9,2.4,3.6,4.6,6.6,7.2c3,2.6,7.2,5.2,9.8,6.4
		c2.6,1.1,5.5,2.2,7.6,2.5c3.3,0.9,4.9,3.2,6,4.5H66.3z M66.3,104.8"/>
	<path class="st2" d="M88.2,72.2c-0.3-0.1-0.4-0.1-0.6-0.6c-0.2-0.5-0.2-1.4-0.2-1.4l1-1.3l0.4,1l0.8,0.6c0,0-0.2,1-0.5,1.4
		C88.7,72.3,88.5,72.3,88.2,72.2L88.2,72.2z M88.2,72.2"/>
	<path class="st9" d="M88.2,72.2c-0.3-0.1-0.4-0.1-0.6-0.6c-0.2-0.5-0.2-1.4-0.2-1.4l1-1.3l0.4,1l0.8,0.6c0,0-0.2,1-0.5,1.4
		C88.7,72.3,88.5,72.3,88.2,72.2L88.2,72.2z M88.2,72.2"/>
	<path class="st2" d="M37.7,71.9c0.3-0.1,0.3-0.3,0.5-0.6c0.2-0.4,0.3-0.9,0.3-0.9l-1-1.3l-0.4,0.8l-0.7,0.6c0,0,0.1,0.6,0.4,0.9
		C37.1,71.8,37.4,71.9,37.7,71.9L37.7,71.9z M37.7,71.9"/>
	<path class="st9" d="M37.7,71.9c0.3-0.1,0.3-0.3,0.5-0.6c0.2-0.4,0.3-0.9,0.3-0.9l-1-1.3l-0.4,0.8l-0.7,0.6c0,0,0.1,0.6,0.4,0.9
		C37.1,71.8,37.4,71.9,37.7,71.9L37.7,71.9z M37.7,71.9"/>
	<path class="st2" d="M89.4,70.2c-0.4-0.2-0.2-0.1-1-1.4c-0.1-0.1-0.2,0.2-0.4,0.6c-0.3,0.3-0.5,0.8-0.5,0.8c-0.2,0-0.4,0.1-0.6-0.1
		l-0.2-0.9l0.3-1l1.7-1.8l0.8,0.7c0.2,0.4,0.3-0.5,1.1-1.1l1.2,0.7L91.5,68l0.2,0.6c0,0,0.3,0.4,0,0.6c-0.3,0.1-1-0.1-1-0.1
		l-0.1,0.6L90,70.4C89.8,70.5,89.4,70.3,89.4,70.2L89.4,70.2z M89.4,70.2"/>
	<path class="st9" d="M89.4,70.2c-0.4-0.2-0.2-0.1-1-1.4c-0.1-0.1-0.2,0.2-0.4,0.6c-0.3,0.3-0.5,0.8-0.5,0.8c-0.2,0-0.4,0.1-0.6-0.1
		l-0.2-0.9l0.3-1l1.7-1.8l0.8,0.7c0.2,0.4,0.3-0.5,1.1-1.1l1.2,0.7L91.5,68l0.2,0.6c0,0,0.3,0.4,0,0.6c-0.3,0.1-1-0.1-1-0.1
		l-0.1,0.6L90,70.4C89.8,70.5,89.4,70.3,89.4,70.2L89.4,70.2z M89.4,70.2"/>
	<path class="st2" d="M36.6,70.2c0.4-0.2-0.1,0.2,0.9-1c0.2-0.3,0.5,0.3,0.5,0.3l0.6,0.8c0.2,0,0.6-0.6,0.8-0.7l0.1-1.1l-0.5-0.2
		l-1.2-1.6l-1,0.7c-0.2,0.3-0.3-0.6-1-1.2l-0.8,1.1L34.6,68v0.6c0,0,0,0.4,0.2,0.6c0.2,0.1,0.4-0.2,0.6-0.1c0.2,0.1,0.1,0.6,0.1,0.6
		l0.5,0.6C36.2,70.5,36.5,70.3,36.6,70.2L36.6,70.2z M36.6,70.2"/>
	<path class="st9" d="M36.6,70.2c0.4-0.2-0.1,0.2,0.9-1c0.2-0.3,0.5,0.3,0.5,0.3l0.6,0.8c0.2,0,0.6-0.6,0.8-0.7l0.1-1.1l-0.5-0.2
		l-1.2-1.6l-1,0.7c-0.2,0.3-0.3-0.6-1-1.2l-0.8,1.1L34.6,68v0.6c0,0,0,0.4,0.2,0.6c0.2,0.1,0.4-0.2,0.6-0.1c0.2,0.1,0.1,0.6,0.1,0.6
		l0.5,0.6C36.2,70.5,36.5,70.3,36.6,70.2L36.6,70.2z M36.6,70.2"/>
	<path class="st2" d="M96.1,56.2l-1.7-1.4l-1.2-1.2l-1.2-1.2l-1-0.6l-0.8,0.2l-0.2,0.9l0.1,1l0.5,1L89,54.7l-0.6-1.3l-0.2-1.7
		l0.3-1.2l0.8-0.5l1.1-0.2l1.4,0.6l1.1,1l2.2,2.4l2.1,1.6c0.5,0.3,1.1,0.5,1.9,0.4l0.8-0.6l0.5-1.8l-0.2-0.2h-0.4l-0.4,0.1l-0.3,0.2
		l-0.4,0.1l-0.5,0.1l-0.5-0.2L97.3,53l0-0.5l0.3-0.2l0.3-0.3l-0.5-0.2l-0.6-0.5l-0.3-0.7l0.1-0.8l1.2,0l0.9,0.3l0.1-0.2l-0.6-0.5
		L98,49l-0.1-0.5v-0.6l0.2-0.7l0.9,0.1l-0.2-0.6l0-0.6l0.1-0.5l0.2-0.6l0.8,0.2l0.5,0.3l0.4,0.4l0.3,0.4l0.2,0.5l0.4-0.3l0.5-0.3
		l0.4,0.6l0.3,0.8l-0.1,0.6l-0.1,0.7l0.5-0.2l0.6,0l0.7,0l0.1,0.7l0.1,0.5l0,0.6l-0.2,0.6l-0.2,0.3l0.5,0.2l0.8,0.3l-0.3,0.5
		l-0.2,0.6l-0.3,0.6l-0.6,0.4l-0.5,0.3l-0.5,0.1l-0.2-0.4l-0.4-0.3l-0.5-0.1l-0.4,0.1l-0.3,0.9l-0.3,1.1l-0.6,1.1l-1.2,0.5l-1.6-0.1
		L96.1,56.2z M96.1,56.2"/>
	<g>
		<defs>
			<rect id="SVGID_10_" x="20.2" y="19.9" width="86.2" height="87.2"/>
		</defs>
		<clipPath id="SVGID_11_">
			<use xlink:href="#SVGID_10_"  style="overflow:visible;"/>
		</clipPath>
		<path class="st10" d="M96.1,56.2l-1.7-1.4l-1.2-1.2l-1.2-1.2l-1-0.6l-0.8,0.2l-0.2,0.9l0.1,1l0.5,1L89,54.7l-0.6-1.3l-0.2-1.7
			l0.3-1.2l0.8-0.5l1.1-0.2l1.4,0.6l1.1,1l2.2,2.4l2.1,1.6c0.5,0.3,1.1,0.5,1.9,0.4l0.8-0.6l0.5-1.8l-0.2-0.2h-0.4l-0.4,0.1
			l-0.3,0.2l-0.4,0.1l-0.5,0.1l-0.5-0.2L97.3,53l0-0.5l0.3-0.2l0.3-0.3l-0.5-0.2l-0.6-0.5l-0.3-0.7l0.1-0.8l1.2,0l0.9,0.3l0.1-0.2
			l-0.6-0.5L98,49l-0.1-0.5v-0.6l0.2-0.7l0.9,0.1l-0.2-0.6l0-0.6l0.1-0.5l0.2-0.6l0.8,0.2l0.5,0.3l0.4,0.4l0.3,0.4l0.2,0.5l0.4-0.3
			l0.5-0.3l0.4,0.6l0.3,0.8l-0.1,0.6l-0.1,0.7l0.5-0.2l0.6,0l0.7,0l0.1,0.7l0.1,0.5l0,0.6l-0.2,0.6l-0.2,0.3l0.5,0.2l0.8,0.3
			l-0.3,0.5l-0.2,0.6l-0.3,0.6l-0.6,0.4l-0.5,0.3l-0.5,0.1l-0.2-0.4l-0.4-0.3l-0.5-0.1l-0.4,0.1l-0.3,0.9l-0.3,1.1l-0.6,1.1
			l-1.2,0.5l-1.6-0.1L96.1,56.2z M96.1,56.2"/>
	</g>
	<path class="st2" d="M30,56.2l1.7-1.4l1.2-1.2l1.2-1.2l1-0.6l0.8,0.2l0.2,0.9l-0.1,1l-0.5,1l1.4-0.1l0.6-1.3l0.2-1.7l-0.3-1.2
		L36.8,50l-1.1-0.2l-1.4,0.6l-1.1,1L31,53.8l-2.1,1.6c-0.5,0.3-1.1,0.5-1.9,0.4l-0.8-0.6l-0.5-1.8l0.2-0.2h0.3l0.4,0.1l0.3,0.2
		l0.4,0.1l0.5,0.1l0.5-0.2l0.4-0.5l0-0.5l-0.3-0.2L28.1,52l0.5-0.2l0.6-0.5l0.3-0.7l-0.1-0.8l-1.2,0l-0.9,0.3l-0.1-0.2l0.6-0.5
		l0.3-0.5l0.1-0.5v-0.6l-0.2-0.7l-0.9,0.1l0.2-0.6l0-0.6l-0.1-0.5L26.9,45l-0.8,0.2l-0.5,0.3l-0.4,0.4l-0.3,0.4l-0.2,0.5l-0.4-0.3
		l-0.5-0.3l-0.4,0.6L23,47.5l0.1,0.6l0.1,0.7l-0.5-0.2l-0.6,0l-0.7,0l-0.1,0.7l-0.1,0.5l0,0.7l0.2,0.6l0.3,0.3l-0.5,0.2l-0.8,0.3
		l0.3,0.5l0.2,0.6l0.3,0.6l0.6,0.4l0.5,0.3l0.5,0.1l0.2-0.4l0.4-0.3l0.5-0.1l0.4,0.1l0.3,0.9l0.3,1.1l0.6,1.1l1.2,0.5l1.6-0.1
		L30,56.2z M30,56.2"/>
	<g>
		<defs>
			<rect id="SVGID_12_" x="20.2" y="19.9" width="86.2" height="87.2"/>
		</defs>
		<clipPath id="SVGID_13_">
			<use xlink:href="#SVGID_12_"  style="overflow:visible;"/>
		</clipPath>
		<path class="st11" d="M30,56.2l1.7-1.4l1.2-1.2l1.2-1.2l1-0.6l0.8,0.2l0.2,0.9l-0.1,1l-0.5,1l1.4-0.1l0.6-1.3l0.2-1.7l-0.3-1.2
			L36.8,50l-1.1-0.2l-1.4,0.6l-1.1,1L31,53.8l-2.1,1.6c-0.5,0.3-1.1,0.5-1.9,0.4l-0.8-0.6l-0.5-1.8l0.2-0.2h0.3l0.4,0.1l0.3,0.2
			l0.4,0.1l0.5,0.1l0.5-0.2l0.4-0.5l0-0.5l-0.3-0.2L28.1,52l0.5-0.2l0.6-0.5l0.3-0.7l-0.1-0.8l-1.2,0l-0.9,0.3l-0.1-0.2l0.6-0.5
			l0.3-0.5l0.1-0.5v-0.6l-0.2-0.7l-0.9,0.1l0.2-0.6l0-0.6l-0.1-0.5L26.9,45l-0.8,0.2l-0.5,0.3l-0.4,0.4l-0.3,0.4l-0.2,0.5l-0.4-0.3
			l-0.5-0.3l-0.4,0.6L23,47.5l0.1,0.6l0.1,0.7l-0.5-0.2l-0.6,0l-0.7,0l-0.1,0.7l-0.1,0.5l0,0.7l0.2,0.6l0.3,0.3l-0.5,0.2l-0.8,0.3
			l0.3,0.5l0.2,0.6l0.3,0.6l0.6,0.4l0.5,0.3l0.5,0.1l0.2-0.4l0.4-0.3l0.5-0.1l0.4,0.1l0.3,0.9l0.3,1.1l0.6,1.1l1.2,0.5l1.6-0.1
			L30,56.2z M30,56.2"/>
	</g>
	<path class="st2" d="M96.7,49.5l-0.2-1.1l-0.2-1V47l0.3-0.2l0.7,0.2l0.7,0.5l0.1-0.5l0.8,0.2l-0.2-0.8l0.1-0.7l0.3-0.8l0.5,0l0-0.6
		l-0.1-0.7l-0.2-1l-0.7,0l-0.5,0.1l0.1-0.6l-0.2-0.8l-0.3-0.6l-0.4-0.5l-0.8,0.3l-0.4,0.6l-0.5,0.2c-0.1-0.2-0.5,0-0.4,0.7l0.1-1
		l-0.3-0.7l-0.5,0.2v-0.4l-0.2-0.6l-0.3-0.5l-0.5-0.5L93.3,39l-0.2,0.4l-0.4-0.3l-0.6-0.4l-0.9-0.4l-1,0L90,38.8l0,0.9l0,0.7
		l0.2,0.5l-0.9-0.1l-0.2,0.6l0,0.5l0.2,0.4l0.5,0.5l0.5,0.1L90,43.6l0.7,0.5l0.7,0.4L89.9,44l-0.8,0.4l-1.9-0.2l0.4,1.3l0.8,0.9
		l1.6,0.5l-0.7,0.3l0.7,0.9l0.9,0.4l1,0l-0.2,0.6l0.2,0.5l0.9,0.1l1-0.3l0.6-0.7l0.2-1l0.5,0l0.4,1.4l0,1.5l-0.2,1.4l-0.6,1.4
		l0.9,0.7l0.6-1.1l0.3-1.3l0.1-1.1L96.7,49.5z M96.7,49.5"/>
	<path class="st9" d="M96.7,49.5l-0.2-1.1l-0.2-1V47l0.3-0.2l0.7,0.2l0.7,0.5l0.1-0.5l0.8,0.2l-0.2-0.8l0.1-0.7l0.3-0.8l0.5,0l0-0.6
		l-0.1-0.7l-0.2-1l-0.7,0l-0.5,0.1l0.1-0.6l-0.2-0.8l-0.3-0.6l-0.4-0.5l-0.8,0.3l-0.4,0.6l-0.5,0.2c-0.1-0.2-0.5,0-0.4,0.7l0.1-1
		l-0.3-0.7l-0.5,0.2v-0.4l-0.2-0.6l-0.3-0.5l-0.5-0.5L93.3,39l-0.2,0.4l-0.4-0.3l-0.6-0.4l-0.9-0.4l-1,0L90,38.8l0,0.9l0,0.7
		l0.2,0.5l-0.9-0.1l-0.2,0.6l0,0.5l0.2,0.4l0.5,0.5l0.5,0.1L90,43.6l0.7,0.5l0.7,0.4L89.9,44l-0.8,0.4l-1.9-0.2l0.4,1.3l0.8,0.9
		l1.6,0.5l-0.7,0.3l0.7,0.9l0.9,0.4l1,0l-0.2,0.6l0.2,0.5l0.9,0.1l1-0.3l0.6-0.7l0.2-1l0.5,0l0.4,1.4l0,1.5l-0.2,1.4l-0.6,1.4
		l0.9,0.7l0.6-1.1l0.3-1.3l0.1-1.1L96.7,49.5z M96.7,49.5"/>
	<path class="st2" d="M29.5,49.5l0.2-1.1l0.2-1V47l-0.3-0.2l-0.7,0.2l-0.7,0.5L28,47l-0.8,0.2l0.2-0.8l-0.2-0.7L27,45L26.4,45
		l0.1-0.6l0.1-0.7l0.2-1h0.7l0.5,0.1l-0.1-0.6l0.2-0.7l0.3-0.6l0.4-0.5l0.7,0.3l0.4,0.6l0.5,0.2c0.1-0.2,0.5,0,0.4,0.7l-0.1-1
		l0.3-0.7l0.5,0.2v-0.5l0.2-0.6l0.3-0.5l0.5-0.6l0.3,0.4l0.2,0.5l0.4-0.3l0.6-0.5l1-0.3h0.9l0.2,0.5l0.1,0.9L36,40.5L35.9,41
		l0.9-0.1l0.2,0.6V42l-0.2,0.5l-0.5,0.5L35.8,43l0.4,0.6l-0.6,0.5l-0.8,0.4l1.2-0.3l1.1,0.4l1.4-0.1l-0.2,1.3l-0.7,0.9l-1.8,0.4
		l1.3,0.6l-0.6,0.7l-1.3,0.3l-1-0.2l0.2,0.6l-0.2,0.5l-0.9,0.1l-1-0.3l-0.6-0.7l-0.2-1h-0.5l-0.4,1.4v1.5l0.2,1.4l0.6,1.4l-0.9,0.7
		L29.9,53l-0.3-1.3l-0.1-1.2L29.5,49.5L29.5,49.5L29.5,49.5z M29.5,49.5"/>
	<path class="st9" d="M29.5,49.5l0.2-1.1l0.2-1V47l-0.3-0.2l-0.7,0.2l-0.7,0.5L28,47l-0.8,0.2l0.2-0.8l-0.2-0.7L27,45L26.4,45
		l0.1-0.6l0.1-0.7l0.2-1h0.7l0.5,0.1l-0.1-0.6l0.2-0.7l0.3-0.6l0.4-0.5l0.7,0.3l0.4,0.6l0.5,0.2c0.1-0.2,0.5,0,0.4,0.7l-0.1-1
		l0.3-0.7l0.5,0.2v-0.5l0.2-0.6l0.3-0.5l0.5-0.6l0.3,0.4l0.2,0.5l0.4-0.3l0.6-0.5l1-0.3h0.9l0.2,0.5l0.1,0.9L36,40.5L35.9,41
		l0.9-0.1l0.2,0.6V42l-0.2,0.5l-0.5,0.5L35.8,43l0.4,0.6l-0.6,0.5l-0.8,0.4l1.2-0.3l1.1,0.4l1.4-0.1l-0.2,1.3l-0.7,0.9l-1.8,0.4
		l1.3,0.6l-0.6,0.7l-1.3,0.3l-1-0.2l0.2,0.6l-0.2,0.5l-0.9,0.1l-1-0.3l-0.6-0.7l-0.2-1h-0.5l-0.4,1.4v1.5l0.2,1.4l0.6,1.4l-0.9,0.7
		L29.9,53l-0.3-1.3l-0.1-1.2L29.5,49.5L29.5,49.5L29.5,49.5z M29.5,49.5"/>
	<path class="st12" d="M101.2,53.1l-0.1-1l-0.7,0l-0.6-0.1l-0.6-0.2l-0.6-0.4l-0.5-0.5l1.3,0.5l1,0.2h0.6l0-0.7l-0.2-0.9l-0.1-1.1
		l-0.3-1.2l-0.2-0.7l0.6,1.1l0.4,1.2l0.3,1l0.1,0.8l0,0.5l0.7-0.3l0.9-0.6L104,50l-0.2,0.5l-0.5,0.6l-0.5,0.4l-0.6,0.3l-0.7,0.2
		l0,0.6l-0.2,0.6L101.2,53.1z M101.2,53.1"/>
	<path class="st13" d="M101.2,53.1l-0.1-1l-0.7,0l-0.6-0.1l-0.6-0.2l-0.6-0.4l-0.5-0.5l1.3,0.5l1,0.2h0.6l0-0.7l-0.2-0.9l-0.1-1.1
		l-0.3-1.2l-0.2-0.7l0.6,1.1l0.4,1.2l0.3,1l0.1,0.8l0,0.5l0.7-0.3l0.9-0.6L104,50l-0.2,0.5l-0.5,0.6l-0.5,0.4l-0.6,0.3l-0.7,0.2
		l0,0.6l-0.2,0.6L101.2,53.1z M101.2,53.1"/>
	<path class="st12" d="M24.9,53.1l0-1l0.7,0l0.6-0.1l0.6-0.2l0.6-0.4l0.5-0.5l-1.3,0.5l-1,0.2H25l0-0.7l0.2-0.9l0.1-1.1l0.4-1.2
		l0.2-0.7l-0.6,1.1l-0.4,1.2l-0.3,1L24.5,51l0,0.5l-0.7-0.3l-0.9-0.6L22.1,50l0.2,0.5l0.5,0.6l0.5,0.4l0.6,0.3l0.7,0.2l0,0.6
		l0.2,0.6L24.9,53.1z M24.9,53.1"/>
	<path class="st13" d="M24.9,53.1l0-1l0.7,0l0.6-0.1l0.6-0.2l0.6-0.4l0.5-0.5l-1.3,0.5l-1,0.2H25l0-0.7l0.2-0.9l0.1-1.1l0.4-1.2
		l0.2-0.7l-0.6,1.1l-0.4,1.2l-0.3,1L24.5,51l0,0.5l-0.7-0.3l-0.9-0.6L22.1,50l0.2,0.5l0.5,0.6l0.5,0.4l0.6,0.3l0.7,0.2l0,0.6
		l0.2,0.6L24.9,53.1z M24.9,53.1"/>
	<path class="st12" d="M95,47.1l-0.2-0.6L94.7,46l-0.9,0.3l-0.8,0.3l-0.7,0.1H91l-0.7-0.3l-0.6-0.3l-0.4-0.5l0.6,0.2l1.1,0.3l1,0
		l1.2-0.2l1.3-0.2l-0.1-0.6L94,43.8l-0.8-1.6L92.4,41l-0.9-1.2l0.7,0.6l1.2,1.3l0.8,1.4l0.6,1.5l0.2,0.8l0.3,0.1l0.6-0.5l0.7-0.9
		L97,43l0.2-0.9l0.1,0.8l-0.1,0.9l-0.3,0.8l-0.5,0.7l-0.6,0.4l-0.5,0.2l0.2,0.6l0.1,0.7L95,47.1z M95,47.1"/>
	<path class="st13" d="M95,47.1l-0.2-0.6L94.7,46l-0.9,0.3l-0.8,0.3l-0.7,0.1H91l-0.7-0.3l-0.6-0.3l-0.4-0.5l0.6,0.2l1.1,0.3l1,0
		l1.2-0.2l1.3-0.2l-0.1-0.6L94,43.8l-0.8-1.6L92.4,41l-0.9-1.2l0.7,0.6l1.2,1.3l0.8,1.4l0.6,1.5l0.2,0.8l0.3,0.1l0.6-0.5l0.7-0.9
		L97,43l0.2-0.9l0.1,0.8l-0.1,0.9l-0.3,0.8l-0.5,0.7l-0.6,0.4l-0.5,0.2l0.2,0.6l0.1,0.7L95,47.1z M95,47.1"/>
	<path class="st12" d="M31.1,47.1l0.2-0.6l0.2-0.6l0.6,0.2l0.8,0.2l0.9,0.2h0.9l0.8-0.2L36,46l0.5-0.5l-0.6,0.2l-1.1,0.3l-1,0
		l-1.2-0.2l-0.9-0.1l0.1-0.6l0.5-1.2l0.8-1.6l0.8-1.2l0.9-1.2l-0.7,0.6l-1.2,1.3l-0.8,1.4l-0.6,1.5l-0.2,0.8l-0.2,0.1L30.3,45
		l-0.7-0.9L29.1,43l-0.2-0.9l-0.1,0.8l0.1,0.9l0.2,0.8l0.5,0.7l0.6,0.4l0.5,0.2l-0.2,0.6l-0.1,0.7L31.1,47.1z M31.1,47.1"/>
	<path class="st13" d="M31.1,47.1l0.2-0.6l0.2-0.6l0.6,0.2l0.8,0.2l0.9,0.2h0.9l0.8-0.2L36,46l0.5-0.5l-0.6,0.2l-1.1,0.3l-1,0
		l-1.2-0.2l-0.9-0.1l0.1-0.6l0.5-1.2l0.8-1.6l0.8-1.2l0.9-1.2l-0.7,0.6l-1.2,1.3l-0.8,1.4l-0.6,1.5l-0.2,0.8l-0.2,0.1L30.3,45
		l-0.7-0.9L29.1,43l-0.2-0.9l-0.1,0.8l0.1,0.9l0.2,0.8l0.5,0.7l0.6,0.4l0.5,0.2l-0.2,0.6l-0.1,0.7L31.1,47.1z M31.1,47.1"/>
	<path class="st8" d="M61.2,56.8v-2.2l-8.1-8.1h-2.9L45.8,51l3.7,3.7h2.9l2.6-2.6l-2.9-2.9L50.2,51l1.1,1.1l0.7-0.7l0.7,0.7
		l-1.5,1.5L48.8,51l3.3-3.3L61.2,56.8z M61.2,56.8"/>
	<path class="st8" d="M42.6,73.4h18.6V58.3l-5.5-5.5l-3.7,3.6v2.9l2.1,2.1l3.3-3.3l-1.8-1.8l-1.1,1.1l0.7,0.7L54.5,59l-1.4-1.4
		l2.6-2.6l4,4v12.9H43.5L42.6,73.4z M42.6,73.4"/>
	<path class="st8" d="M64.8,56.8v-2.2l8.1-8.1h2.9l4.4,4.4l-3.7,3.7h-2.9l-2.6-2.6l2.9-2.9l1.8,1.8l-1.1,1.1L74,51.3l-0.7,0.7
		l1.5,1.5l2.6-2.6L74,47.7L64.8,56.8z M64.8,56.8"/>
	<path class="st8" d="M83.4,73.4H64.8V58.3l5.5-5.5l3.7,3.6v2.9l-2.1,2.1l-3.3-3.3l1.8-1.8l1.1,1.1l-0.7,0.7l0.7,0.7l1.4-1.4
		L70.3,55l-4,4v12.9h16.2L83.4,73.4z M83.4,73.4"/>
	<path class="st8" d="M63,52.8l-8-8l3.3-3.3l2.6,2.6l-1.5,1.5l-0.7-0.7l0.7-0.7l-1.1-1.1l-1.8,1.8l2.9,2.9l2.6-2.6v-2.9l-3.7-3.7
		l-4.4,4.4v2.9l8.4,8.4v20.3H42c0.6,5.3,2.8,8.5,6.8,10.1c3.9,1.6,11.5-0.6,14.2,4.3c2.7-4.9,10.3-2.8,14.2-4.3
		c4.1-1.6,6.3-4.8,6.8-10.1H63.8V54.2l8.4-8.4v-2.9l-4.4-4.4l-3.7,3.7v2.9l2.6,2.6l2.9-2.9l-1.8-1.8L66.7,44l0.7,0.7l-0.7,0.7
		l-1.5-1.5l2.6-2.6l3.3,3.3L63,52.8z M63,52.8"/>
	<path class="st6" d="M68,70.6V60l3.9,3.9l3.8-3.8v-3.8h1.6l5.3-5.3l-6-6h-2.7v-2.7l-6-6L63,41l-4.7-4.7l-6,6v2.7h-2.7l-6,6l5.3,5.3
		h1.6V60l3.8,3.8L58,60v10.6c-10.9,0-11.6,0-13.8,0c2.3-10.8,0.7-18.2-4-20.8l1.5-8.3c2.2-0.4,3.7-0.7,6-2.1
		c2.3-1.4,3.9-4.9,8.3-5.6c3-0.5,5.6,1,7.1,2.6c1.5-1.6,4-3.2,7.1-2.6c4.4,0.8,5.9,4.2,8.3,5.6c2.2,1.4,3.8,1.7,6,2.1l1.5,8.3
		c-4.7,2.6-6.3,10-4,20.8C79.6,70.6,78.9,70.6,68,70.6L68,70.6z M68,70.6 M61,48.4l2.1-2.1l2.1,2.1L63,50.5L61,48.4z M61,48.4"/>
	<path class="st2" d="M57.7,97.6l0-0.6l0.5,0.6l0.6-0.5l0,0.6l0.6,0.1l-0.6,0.5l0.5,0.6l-0.6,0l0,0.6l-0.5-0.6l-0.7,0.5l0-0.6
		l-0.6,0l0.7-0.5l-0.5-0.6L57.7,97.6z M57.7,97.6"/>
	<path class="st2" d="M26.9,63.5l-1.2,0.1c-0.2,0-0.4,0.1-0.5,0.2c-0.1,0.1-0.1,0.2-0.1,0.4c0,0.1,0,0.3,0.1,0.4
		c0,0.1,0.1,0.2,0.2,0.3l1.6-0.2l0.1,0.7l-3.6,0.5l-0.1-0.7l1.5-0.2c-0.1-0.1-0.1-0.2-0.2-0.3c-0.1-0.1-0.1-0.3-0.1-0.5
		c0-0.1,0-0.3,0-0.4c0-0.1,0.1-0.2,0.1-0.3c0.1-0.1,0.2-0.2,0.3-0.2c0.1-0.1,0.3-0.1,0.4-0.1l1.4-0.2L26.9,63.5z M24.7,68.1L24.5,67
		l-0.8-0.1l-0.1-0.7l3.9,0.6l0.1,0.5l-3.4,1.9L24,68.5L24.7,68.1z M25.1,67.1l0.1,0.8l0.8-0.4l0.5-0.2l0,0l-0.6,0L25.1,67.1z
		 M28.2,66.6c-0.1,0-0.2,0.1-0.2,0.2c0,0.1,0,0.2,0,0.3c0,0.2,0.2,0.3,0.4,0.3l0,0.6c-0.2,0-0.4-0.1-0.5-0.2
		c-0.1-0.1-0.2-0.4-0.3-0.6c0-0.1,0-0.3,0-0.4c0-0.1,0-0.2,0-0.3c0-0.1,0.1-0.2,0.2-0.2c0.1-0.1,0.2-0.1,0.3-0.2L28.2,66.6z
		 M27.5,71.2c0.2,0,0.3-0.1,0.4-0.2c0.1-0.1,0.2-0.2,0.2-0.4c0-0.1,0-0.3,0-0.5c0-0.2-0.1-0.3-0.1-0.5c0-0.1-0.1-0.2-0.1-0.3
		c0-0.1-0.1-0.2-0.1-0.3c0-0.1-0.1-0.2-0.1-0.3c0-0.1-0.1-0.1-0.1-0.2l-3.5,1c0,0.1,0,0.2,0,0.3c0,0.1,0,0.2,0.1,0.3
		c0,0.1,0,0.2,0.1,0.3c0,0.1,0,0.2,0.1,0.2c0,0.2,0.1,0.3,0.2,0.5c0.1,0.2,0.2,0.3,0.3,0.4c0.1,0.1,0.3,0.2,0.4,0.2
		c0.2,0,0.3,0,0.5,0c0.1,0,0.2-0.1,0.3-0.2c0.1-0.1,0.2-0.1,0.2-0.2c0.1-0.1,0.1-0.2,0.1-0.3c0-0.1,0-0.2,0-0.3l0,0
		c0.1,0.1,0.1,0.2,0.2,0.3c0.1,0.1,0.2,0.1,0.2,0.1c0.1,0,0.2,0,0.3,0C27.4,71.2,27.4,71.2,27.5,71.2L27.5,71.2z M25,70.6
		c0,0,0-0.1,0-0.1c0,0,0-0.1,0-0.1c0,0,0-0.1,0-0.1c0,0,0-0.1,0-0.1l1-0.3l0.1,0.4c0,0.1,0,0.2,0.1,0.3c0,0.1,0,0.2,0,0.3
		c0,0.1,0,0.1-0.1,0.2c-0.1,0.1-0.1,0.1-0.2,0.1c-0.1,0-0.2,0-0.2,0c-0.1,0-0.1-0.1-0.2-0.1c-0.1,0-0.1-0.1-0.2-0.2
		C25.1,70.7,25,70.6,25,70.6L25,70.6z M26.5,69.9l-0.1-0.2l0.9-0.3c0,0,0,0.1,0.1,0.2c0,0.1,0,0.2,0.1,0.2c0,0.1,0,0.2,0,0.2
		c0,0.1,0,0.1,0,0.2c0,0.1,0,0.1-0.1,0.2c0,0-0.1,0.1-0.2,0.1c-0.1,0-0.2,0-0.4,0c-0.1-0.1-0.2-0.2-0.3-0.3c0,0,0-0.1-0.1-0.1
		C26.5,70,26.5,70,26.5,69.9L26.5,69.9z M26.4,74L26,72.9l-0.9,0l-0.2-0.7l3.9,0.1l0.2,0.5l-3.1,2.4l-0.2-0.7L26.4,74z M26.6,72.9
		l0.3,0.7l0.7-0.5l0.5-0.3l0,0l-0.6,0.1L26.6,72.9z M26.1,75.5l1.6,3.5l3.3-1.5l-0.3-0.7l-2.7,1.2l-0.4-0.8l2.7-1.2L30,75.5
		l-2.7,1.2l-0.4-0.8l2.7-1.2L29.4,74L26.1,75.5z M32.3,79.8c0.1,0.1,0.2,0.2,0.3,0.4c0.1,0.1,0.2,0.3,0.3,0.4
		c0.1,0.1,0.2,0.3,0.3,0.5c0.1,0.2,0.1,0.3,0.1,0.5c0,0.2,0,0.3-0.1,0.5c-0.1,0.2-0.2,0.3-0.4,0.5c-0.2,0.1-0.4,0.2-0.5,0.2
		c-0.2,0-0.3,0-0.5,0c-0.2,0-0.3-0.1-0.4-0.2c-0.1-0.1-0.3-0.2-0.4-0.4c0,0,0,0,0-0.1c0,0,0-0.1-0.1-0.1c0,0,0-0.1-0.1-0.1
		c0,0,0-0.1,0-0.1l-1,0.7l-0.4-0.6L32.3,79.8z M32.4,81c0-0.1-0.1-0.1-0.1-0.2c0,0-0.1-0.1-0.1-0.1l-1,0.7c0,0,0,0,0,0.1
		c0,0,0,0,0,0.1c0,0,0,0.1,0.1,0.1c0,0,0,0,0,0.1c0.1,0.1,0.1,0.1,0.2,0.2c0.1,0.1,0.1,0.1,0.2,0.1c0.1,0,0.2,0,0.3,0
		c0.1,0,0.2-0.1,0.3-0.1c0.1-0.1,0.2-0.1,0.2-0.2c0-0.1,0.1-0.2,0.1-0.2c0-0.1,0-0.2-0.1-0.2C32.5,81.1,32.5,81,32.4,81L32.4,81z
		 M33.9,82.1L31,84.3l1.4,1.7l0.5-0.4L32,84.5l0.7-0.6l0.8,1l0.5-0.4l-0.8-1l0.7-0.5l0.9,1.1l0.5-0.4L33.9,82.1z M34.5,88.2
		c-0.1,0-0.3-0.1-0.4-0.2c-0.1-0.1-0.3-0.2-0.4-0.4c-0.1-0.2-0.3-0.3-0.3-0.5c-0.1-0.2-0.1-0.4-0.1-0.6c0-0.2,0.1-0.4,0.2-0.7
		c0.1-0.2,0.3-0.4,0.6-0.7c0.3-0.2,0.5-0.4,0.8-0.5c0.2-0.1,0.5-0.1,0.7-0.1c0.2,0,0.4,0.1,0.6,0.2c0.2,0.1,0.3,0.2,0.5,0.4
		c0.1,0.2,0.2,0.3,0.3,0.4c0.1,0.1,0.1,0.2,0.2,0.3l-0.5,0.3c0-0.1-0.1-0.2-0.1-0.3c-0.1-0.1-0.1-0.2-0.2-0.3
		c-0.2-0.2-0.4-0.3-0.7-0.3c-0.3,0-0.6,0.1-0.9,0.4c-0.1,0.1-0.3,0.3-0.3,0.4c-0.1,0.1-0.1,0.3-0.2,0.4c0,0.1,0,0.3,0,0.4
		c0,0.1,0.1,0.3,0.2,0.4c0.1,0.1,0.2,0.2,0.3,0.3c0.1,0.1,0.2,0.1,0.3,0.1L34.5,88.2z M38.2,87.8l-0.9-0.9l-2.1,2.2l-0.5-0.5
		l2.5-2.6l2,1.9l-2.5,2.6L36.2,90L38.2,87.8z M39.6,90.2l0.4-1.7l-0.7-0.5l-0.6,2.9c-0.2,0.2-0.4,0.2-0.5,0.1c0,0-0.1-0.1-0.1-0.1
		c0,0-0.1-0.1-0.1-0.1l-0.5,0.3c0,0.1,0.1,0.2,0.1,0.2c0,0.1,0.1,0.1,0.2,0.2c0.1,0.1,0.2,0.1,0.3,0.2c0.1,0,0.2,0,0.3,0
		c0.1,0,0.3-0.1,0.4-0.1c0.1-0.1,0.3-0.2,0.5-0.3l2.3-1.4l-0.6-0.5l-1.4,0.9l-0.4,0.3l0,0L39.6,90.2z M41.9,90l1.9,1.2l-0.3,0.5
		l-1.3-0.8l-0.4,0.6c0.1,0,0.1,0.1,0.2,0.1c0.1,0,0.2,0.1,0.2,0.1c0.2,0.1,0.3,0.2,0.4,0.3c0.1,0.1,0.2,0.2,0.3,0.4
		c0,0.1,0.1,0.3,0,0.4c0,0.2-0.1,0.3-0.2,0.5c-0.1,0.2-0.2,0.3-0.4,0.4c-0.1,0.1-0.3,0.1-0.5,0.2c-0.2,0-0.3,0-0.5-0.1
		c-0.2-0.1-0.4-0.1-0.5-0.3c0,0-0.1-0.1-0.2-0.1c-0.1,0-0.1-0.1-0.2-0.2c-0.1-0.1-0.2-0.1-0.2-0.2C40,93.1,40,93.1,39.9,93L41.9,90z
		 M41.1,93.2c0.1,0,0.2,0.1,0.2,0.1c0.1,0,0.2,0,0.2,0c0.1,0,0.1,0,0.2-0.1c0.1,0,0.1-0.1,0.2-0.2c0.1-0.1,0.1-0.2,0.1-0.3
		c0-0.1,0-0.2,0-0.2c0-0.1-0.1-0.1-0.1-0.2c-0.1-0.1-0.1-0.1-0.2-0.2c0,0-0.1-0.1-0.2-0.1c-0.1,0-0.1-0.1-0.1-0.1l-0.6,0.9
		c0,0,0.1,0.1,0.1,0.1C41,93.1,41.1,93.1,41.1,93.2L41.1,93.2z M45.5,93L44,95.6l0.6,0.4l1.8-3.2l-1.9-1.1c-0.2,0.4-0.4,0.7-0.6,0.9
		c-0.2,0.3-0.3,0.5-0.5,0.7c-0.1,0.2-0.3,0.3-0.4,0.4c-0.1,0.1-0.2,0.2-0.3,0.2c-0.1,0-0.1,0.1-0.2,0.1c-0.1,0-0.1,0-0.2,0
		c0,0,0,0-0.1,0c0,0,0,0,0,0l-0.4,0.5c0,0,0.1,0.1,0.1,0.1c0,0,0.1,0.1,0.2,0.1c0,0,0.1,0.1,0.2,0.1c0.1,0,0.1,0,0.2,0
		c0.1,0,0.2,0,0.2,0c0.1,0,0.2,0,0.2-0.1c0.1-0.1,0.3-0.2,0.4-0.3c0.1-0.1,0.3-0.3,0.4-0.4c0.1-0.2,0.3-0.4,0.4-0.6
		c0.2-0.2,0.3-0.5,0.5-0.8L45.5,93z M48,95.2l0.2-0.4l0,0l-0.4,0.3l-2.1,1.3l-0.5-0.2l1.5-3.3l0.7,0.3L46.6,95l-0.2,0.4l0,0l0.4-0.4
		l2.1-1.2l0.5,0.2l-1.5,3.3l-0.7-0.3L48,95.2z M49.7,96.5l0.5,1.8l0.8,0.3l-0.6-2l-0.2-0.3l0.3-0.1l1.5-1.1l-0.8-0.3l-1.4,1.1
		l-0.2,0l0.5-1.5l-0.7-0.2l-1.2,3.5l0.7,0.2l0.5-1.5L49.7,96.5z M54.1,97.3l0.2-0.4l0,0l-0.4,0.4L52,98.8l-0.5-0.1l1-3.5l0.7,0.2
		l-0.5,1.9l-0.2,0.5l0,0l0.4-0.4l1.8-1.5l0.5,0.1l-1,3.5l-0.7-0.2L54.1,97.3z M62.1,96.7l0,1.2c0,0.2,0,0.4,0.1,0.5
		c0.1,0.1,0.2,0.2,0.4,0.2c0.1,0,0.3,0,0.4,0c0.1,0,0.2-0.1,0.3-0.1l0-1.6l0.7,0l-0.1,3.6l-0.7,0l0-1.5C63.1,99,63,99,62.9,99
		c-0.2,0-0.3,0.1-0.5,0.1c-0.1,0-0.3,0-0.4-0.1c-0.1,0-0.2-0.1-0.3-0.2c-0.1-0.1-0.2-0.2-0.2-0.3c0-0.1-0.1-0.3-0.1-0.5l0-1.4
		L62.1,96.7z M65.6,98.2l-0.9-1.6l-0.8,0.1l1.6,2.6c0,0.3-0.2,0.4-0.3,0.4c-0.1,0-0.1,0-0.2,0c0,0-0.1,0-0.2,0l-0.1,0.6
		c0.1,0,0.2,0.1,0.2,0.1c0.1,0,0.2,0,0.3,0c0.1,0,0.3,0,0.3-0.1c0.1-0.1,0.2-0.1,0.3-0.2c0.1-0.1,0.1-0.2,0.2-0.4
		c0.1-0.2,0.1-0.3,0.2-0.5l0.8-2.6l-0.7,0.1l-0.4,1.6l0,0.5l0,0L65.6,98.2z M69.6,97c0,0.1,0,0.2,0,0.3c0,0.1,0,0.2-0.1,0.3
		c0,0.1-0.1,0.2-0.2,0.2c-0.1,0.1-0.2,0.1-0.3,0.2l0,0c0.1,0,0.2,0,0.3,0c0.1,0,0.2,0.1,0.3,0.1c0.1,0.1,0.1,0.1,0.2,0.2
		c0.1,0.1,0.1,0.2,0.1,0.4c0,0.2,0,0.4-0.1,0.5c-0.1,0.1-0.2,0.3-0.3,0.4c-0.1,0.1-0.3,0.2-0.4,0.2c-0.2,0.1-0.3,0.1-0.5,0.1
		c-0.1,0-0.1,0-0.2,0c-0.1,0-0.2,0-0.3,0c-0.1,0-0.2,0-0.3,0c-0.1,0-0.2,0-0.3,0L67,96.5c0.1,0,0.1,0,0.2-0.1c0.1,0,0.2,0,0.3-0.1
		c0.1,0,0.2,0,0.3-0.1c0.1,0,0.2,0,0.3,0c0.2,0,0.3,0,0.5,0c0.2,0,0.3,0,0.4,0.1c0.1,0,0.2,0.1,0.3,0.2C69.5,96.7,69.5,96.9,69.6,97
		L69.6,97z M68.6,99.4c0.1,0,0.2,0,0.2-0.1c0.1,0,0.1-0.1,0.2-0.1c0.1,0,0.1-0.1,0.1-0.2c0-0.1,0-0.2,0-0.2c0-0.1,0-0.2-0.1-0.3
		c-0.1-0.1-0.1-0.1-0.2-0.1c-0.1,0-0.2,0-0.2,0c-0.1,0-0.2,0-0.3,0l-0.4,0l0.1,1c0,0,0,0,0.1,0c0,0,0.1,0,0.1,0c0,0,0.1,0,0.1,0
		C68.5,99.4,68.5,99.4,68.6,99.4L68.6,99.4z M68.1,97.9c0,0,0.1,0,0.2,0c0.1,0,0.1,0,0.2,0c0.1-0.1,0.2-0.1,0.3-0.2
		c0.1-0.1,0.1-0.2,0.1-0.3c0-0.1,0-0.2-0.1-0.2c0-0.1-0.1-0.1-0.2-0.1c-0.1,0-0.1,0-0.2,0c-0.1,0-0.2,0-0.2,0c-0.1,0-0.2,0-0.2,0
		c-0.1,0-0.1,0-0.2,0l0.1,1L68.1,97.9z M72.1,98.5L71,98.8l-0.1,0.9l-0.7,0.2l0.5-3.9l0.5-0.1l2.1,3.3l-0.7,0.2L72.1,98.5z
		 M71.1,98.2l0.8-0.2l-0.4-0.7l-0.2-0.5l0,0l0,0.6L71.1,98.2z M73.6,99l3.7-1.2l-1.2-3.5l-0.7,0.2l1,2.9l-0.8,0.3l-1-2.9l-0.7,0.2
		l1,2.9l-0.8,0.3l-1-2.9l-0.7,0.2L73.6,99z M80.1,96.4c-0.1,0.1-0.2,0.2-0.3,0.3s-0.3,0.2-0.5,0.3c-0.2,0.1-0.4,0.1-0.6,0.2
		c-0.2,0-0.4,0-0.6-0.1c-0.2-0.1-0.4-0.2-0.6-0.4c-0.2-0.2-0.3-0.4-0.5-0.7c-0.1-0.3-0.2-0.6-0.2-0.9c0-0.3,0-0.5,0.1-0.7
		c0.1-0.2,0.2-0.4,0.4-0.5c0.2-0.1,0.3-0.2,0.5-0.3c0.2-0.1,0.4-0.1,0.5-0.2c0.1,0,0.3-0.1,0.4-0.1l0.1,0.6c-0.1,0-0.2,0-0.3,0
		c-0.1,0-0.2,0.1-0.4,0.1c-0.3,0.1-0.4,0.3-0.5,0.6c-0.1,0.3,0,0.6,0.2,1c0.1,0.2,0.2,0.3,0.3,0.4c0.1,0.1,0.2,0.2,0.3,0.3
		c0.1,0.1,0.3,0.1,0.4,0.1c0.1,0,0.3,0,0.4-0.1c0.1-0.1,0.3-0.1,0.3-0.2c0.1-0.1,0.2-0.1,0.2-0.2L80.1,96.4z M80.6,94.5l1.7,0.9
		l0.8-0.4l-1.9-1l-0.4,0l0.2-0.3l0.2-1.8l-0.7,0.4l-0.2,1.8l-0.1,0.1l-0.7-1.4l-0.6,0.3l1.7,3.2l0.6-0.3l-0.7-1.4L80.6,94.5z
		 M84.4,93.2l-0.9,0.6l0.2,0.8L83,95l-0.9-3.8l0.4-0.3l3.1,2.4L85,93.7L84.4,93.2z M83.3,93.2l-0.2-0.8l-0.2-0.5l0,0l0.4,0.4
		l0.7,0.5L83.3,93.2z M87.8,91.7l-2.2-2.8c-0.1,0-0.1,0.1-0.2,0.1c-0.1,0-0.1,0.1-0.2,0.1c-0.1,0-0.1,0.1-0.2,0.1
		c-0.1,0-0.1,0.1-0.2,0.1c-0.2,0.1-0.3,0.3-0.4,0.4c-0.1,0.1-0.2,0.3-0.3,0.5c0,0.2-0.1,0.3,0,0.5c0,0.2,0.1,0.3,0.3,0.5
		c0.1,0.1,0.2,0.2,0.3,0.3c0.1,0.1,0.2,0.1,0.3,0.1c0.1,0,0.2,0,0.3,0c0.1,0,0.2,0,0.3-0.1l-0.1,0.4l0.2,1.4l0.7-0.5l-0.2-1.5
		l0.2-0.3l0.9,1.1L87.8,91.7z M85.2,89.9C85.1,90,85,90,85,90.1c-0.1,0.1-0.1,0.1-0.1,0.2c0,0.1,0,0.1,0,0.2c0,0.1,0.1,0.2,0.1,0.3
		c0.1,0.1,0.1,0.1,0.2,0.2c0.1,0,0.2,0.1,0.2,0.1c0.1,0,0.2,0,0.2-0.1c0.1,0,0.2-0.1,0.2-0.1l0.2-0.2l-0.7-0.9c0,0-0.1,0-0.1,0.1
		C85.3,89.8,85.2,89.9,85.2,89.9L85.2,89.9z M86.9,87.9c0.1-0.1,0.2-0.2,0.3-0.4c0.1-0.1,0.2-0.3,0.4-0.4c0.1-0.1,0.3-0.2,0.4-0.3
		c0.2-0.1,0.3-0.2,0.5-0.2c0.2,0,0.3,0,0.5,0c0.2,0,0.4,0.2,0.5,0.4c0.2,0.2,0.3,0.3,0.3,0.5c0.1,0.2,0.1,0.3,0,0.5
		c0,0.2-0.1,0.3-0.2,0.5c-0.1,0.2-0.2,0.3-0.3,0.4c0,0,0,0-0.1,0.1c0,0-0.1,0.1-0.1,0.1c0,0-0.1,0.1-0.1,0.1c0,0-0.1,0-0.1,0.1
		l0.9,0.9l-0.5,0.5L86.9,87.9z M88,87.5c0,0-0.1,0.1-0.1,0.1c0,0-0.1,0.1-0.1,0.1l0.8,0.9c0,0,0,0,0.1,0c0,0,0,0,0.1-0.1
		c0,0,0,0,0.1-0.1c0,0,0,0,0,0c0.1-0.1,0.1-0.1,0.2-0.2c0.1-0.1,0.1-0.2,0.1-0.2c0-0.1,0-0.2,0-0.3c0-0.1-0.1-0.2-0.2-0.3
		c-0.1-0.1-0.2-0.1-0.2-0.2c-0.1,0-0.2,0-0.2,0c-0.1,0-0.2,0-0.2,0.1C88.1,87.4,88.1,87.4,88,87.5L88,87.5z M88.9,85.9l2.6,2.5
		l1.5-1.6l-0.5-0.4l-1,1.1l-0.6-0.6l0.9-1l-0.5-0.4l-0.9,1l-0.6-0.6l1-1l-0.5-0.4L88.9,85.9z M94.8,84.4c0,0.1,0,0.3-0.1,0.4
		c-0.1,0.2-0.2,0.3-0.3,0.4c-0.1,0.2-0.3,0.3-0.5,0.4c-0.2,0.1-0.4,0.2-0.6,0.2c-0.2,0-0.4,0-0.7-0.1c-0.2-0.1-0.5-0.2-0.8-0.4
		c-0.3-0.2-0.5-0.4-0.6-0.7C91.1,84.5,91,84.3,91,84c0-0.2,0-0.4,0.1-0.6c0.1-0.2,0.2-0.4,0.3-0.5c0.1-0.2,0.2-0.3,0.4-0.4
		c0.1-0.1,0.2-0.2,0.3-0.2l0.4,0.5c-0.1,0-0.2,0.1-0.2,0.2c-0.1,0.1-0.2,0.2-0.3,0.3c-0.2,0.2-0.2,0.5-0.2,0.7
		c0.1,0.3,0.2,0.5,0.6,0.8c0.1,0.1,0.3,0.2,0.4,0.3c0.1,0.1,0.3,0.1,0.4,0.1c0.1,0,0.3,0,0.4-0.1c0.1-0.1,0.2-0.2,0.3-0.3
		c0.1-0.1,0.2-0.2,0.2-0.3c0-0.1,0.1-0.2,0.1-0.3L94.8,84.4z M93.9,80.7l2.5,1.7l0.4-0.6l-3-2.1L92.2,82l3,2.1l0.4-0.6l-2.5-1.7
		L93.9,80.7z M95.9,79.3l0.5,0.1l0,0L96,79.1l-1.1-1.3l0.4-0.6l1.7,2.1c0.1,0.2,0.2,0.3,0.3,0.4c0.1,0.1,0.2,0.3,0.2,0.4
		c0,0.1,0.1,0.2,0,0.3c0,0.1,0,0.2-0.1,0.3c-0.1,0.1-0.1,0.2-0.2,0.2c0,0.1-0.1,0.1-0.2,0.2l-0.4-0.4c0.1,0,0.1-0.1,0.1-0.1
		c0,0,0.1-0.1,0.1-0.1c0.1-0.1,0-0.3-0.2-0.5l-3-0.1l0.4-0.7L95.9,79.3z M95.2,77.3l3.3,1.5c0-0.1,0.1-0.1,0.1-0.2
		c0.1-0.1,0.1-0.2,0.1-0.3c0-0.1,0.1-0.2,0.1-0.2c0-0.1,0.1-0.1,0.1-0.2c0.1-0.2,0.2-0.4,0.2-0.6c0-0.2,0-0.4,0-0.5
		c0-0.2-0.1-0.3-0.2-0.4c-0.1-0.1-0.3-0.2-0.4-0.3c-0.2-0.1-0.4-0.1-0.5-0.1c-0.2,0-0.3,0-0.4,0.1c-0.1,0.1-0.2,0.2-0.3,0.3
		c-0.1,0.1-0.2,0.3-0.3,0.5c0,0.1-0.1,0.2-0.1,0.2c0,0.1,0,0.2-0.1,0.2l-0.7-0.3l0.6-1.4l-0.6-0.3L95.2,77.3z M98.5,77.6
		c0-0.1,0.1-0.2,0.1-0.2c0-0.1,0-0.2,0-0.2c0-0.1-0.1-0.1-0.1-0.2c-0.1-0.1-0.1-0.1-0.2-0.2c-0.1-0.1-0.2-0.1-0.3-0.1
		c-0.1,0-0.2,0-0.2,0.1c-0.1,0-0.1,0.1-0.2,0.2c0,0.1-0.1,0.2-0.1,0.2c0,0,0,0.1-0.1,0.2c0,0.1,0,0.1,0,0.1l1,0.4
		c0,0,0.1-0.1,0.1-0.2C98.4,77.7,98.4,77.6,98.5,77.6L98.5,77.6z M97.6,73.2l-0.3,0.7c0.3,0.1,0.6,0.3,0.8,0.4
		c0.2,0.1,0.5,0.2,0.7,0.3c0.2,0.1,0.4,0.2,0.5,0.3c0.1,0.1,0.2,0.2,0.3,0.3c0.1,0.1,0.1,0.2,0.1,0.2c0,0.1,0,0.2,0,0.2
		c0,0.1,0,0.1,0,0.2c0,0.1,0,0.1,0,0.2c0,0.1-0.1,0.1-0.1,0.2c0,0-0.1,0.1-0.1,0.1L99,76.1c0,0,0,0,0-0.1c0,0,0,0,0-0.1
		c0-0.1,0-0.1,0-0.2c0-0.1,0-0.1-0.1-0.2c-0.1-0.1-0.1-0.2-0.3-0.2c-0.1-0.1-0.3-0.2-0.5-0.3c-0.2-0.1-0.4-0.2-0.7-0.4
		c-0.3-0.1-0.6-0.3-1-0.4l0.8-2l3.4,1.3l-0.3,0.7L97.6,73.2z M99.5,70.4l1.9,0.6l0.2-0.7l-3.5-1L98,69.8l1.5,1.8l0.4,0.4l0,0
		l-0.5-0.2l-1.9-0.5l-0.2,0.7l3.5,1l0.1-0.5l-1.6-1.9l-0.4-0.4l0,0L99.5,70.4z M100.5,68.5l0,0.2L102,69l-0.1,0.7l-3.6-0.6l0.1-0.7
		l1.6,0.3l0-0.2l-1.3-1.3l0.1-0.8l1.3,1.3l0.1,0.3l0.3-0.3l1.9-0.9l-0.2,0.9L100.5,68.5z M101.9,64.7l0.8-0.2l0.1-0.7L99,64.6
		l-0.1,0.5l3.5,1.8l0.1-0.7l-0.8-0.4L101.9,64.7z M101.2,65.6l-0.8-0.4L99.8,65l0,0l0.6,0l0.8-0.2L101.2,65.6z M101.2,65.6"/>
</g>
</svg>
