<?xml version="1.0" encoding="utf-8"?>
<!-- Generator: Adobe Illustrator 22.0.1, SVG Export Plug-In . SVG Version: 6.00 Build 0)  -->
<svg version="1.1" id="Слой_1" xmlns="http://www.w3.org/2000/svg" xmlns:xlink="http://www.w3.org/1999/xlink" x="0px" y="0px"
	 viewBox="0 0 57.2 57.3" style="enable-background:new 0 0 57.2 57.3;" xml:space="preserve">
<style type="text/css">
	.st0{fill:#320E6C;}
	.st1{fill:#FFFFFF;}
</style>
<g>
	<path class="st0" d="M57.2,28.6c0,3.4-0.6,6.7-1.7,9.8c-4,11-14.5,18.8-26.9,18.8c-12.4,0-22.9-7.8-26.9-18.8
		C0.6,35.4,0,32.1,0,28.6C0,12.8,12.8,0,28.6,0C44.4,0,57.2,12.8,57.2,28.6z"/>
	<circle class="st1" cx="28.6" cy="18.5" r="13.3"/>
	<path class="st1" d="M55.5,38.4c-4,11-14.5,18.8-26.9,18.8c-12.4,0-22.9-7.8-26.9-18.8c6.7-4.1,16.3-6.6,26.9-6.6
		C39.2,31.8,48.8,34.4,55.5,38.4z"/>
	<path class="st0" d="M28.6,4c13.6,0,24.6,11,24.6,24.6c0,2.9-0.5,5.7-1.5,8.4c-3.5,9.7-12.8,16.2-23.1,16.2
		C18.3,53.3,9,46.7,5.5,37.1c-1-2.7-1.5-5.5-1.5-8.4C4,15,15,4,28.6,4 M28.6,0C12.8,0,0,12.8,0,28.6c0,3.4,0.6,6.7,1.7,9.8
		c4,11,14.5,18.8,26.9,18.8c12.4,0,22.9-7.8,26.9-18.8c1.1-3.1,1.7-6.4,1.7-9.8C57.2,12.8,44.4,0,28.6,0L28.6,0z"/>
</g>
</svg>
