<svg xmlns="http://www.w3.org/2000/svg" viewBox="0 0 90.18 90.18"><defs><style>.cls-1{fill:#4479a0;}.cls-2{fill:#fff;}</style></defs><title>2Ресурс 1@1x</title><g id="Слой_2" data-name="Слой 2"><g id="Слой_1-2" data-name="Слой 1"><circle class="cls-1" cx="45.09" cy="45.09" r="45.09"/><g id="MEvdte.tif"><path class="cls-2" d="M45.07,79.3A34.21,34.21,0,1,1,79.3,45.15,34.24,34.24,0,0,1,45.07,79.3ZM18.42,60.47c.23-.26.42-.45.59-.65A34.09,34.09,0,0,1,55.34,49.24,33.17,33.17,0,0,1,71.33,60c.31.38.45.5.74,0a30.2,30.2,0,0,0,2.94-22,29.84,29.84,0,0,0-13.24-18.7A29.87,29.87,0,0,0,41,14.61,30.67,30.67,0,0,0,14.43,42.73,30.91,30.91,0,0,0,18.42,60.47Z"/><path class="cls-2" d="M57,32.32a12,12,0,1,1-11.92-12A12,12,0,0,1,57,32.32Z"/></g></g></g></svg>