<svg xmlns="http://www.w3.org/2000/svg" viewBox="0 0 1605 100"><defs><style>.cls-1{fill:#00264c;}</style></defs><title>Ресурс 4</title><g id="Слой_2" data-name="Слой 2"><g id="Слой_1-2" data-name="Слой 1"><path class="cls-1" d="M1592.72,4.09a8.2,8.2,0,0,1,8.19,8.19V87.72a8.2,8.2,0,0,1-8.19,8.19H12.28a8.21,8.21,0,0,1-8.19-8.19V12.28a8.21,8.21,0,0,1,8.19-8.19H1592.72m0-4.09H12.28A12.32,12.32,0,0,0,0,12.28V87.72A12.32,12.32,0,0,0,12.28,100H1592.72A12.32,12.32,0,0,0,1605,87.72V12.28A12.32,12.32,0,0,0,1592.72,0Z"/></g></g></svg>