<svg xmlns="http://www.w3.org/2000/svg" xmlns:xlink="http://www.w3.org/1999/xlink" viewBox="0 0 108 100"><defs><style>.cls-1{fill:url(#Безымянный_градиент_5);}.cls-2{fill:#fff;opacity:0.1;}</style><linearGradient id="Безымянный_градиент_5" x1="103.04" y1="0.96" x2="49.64" y2="54.36" gradientUnits="userSpaceOnUse"><stop offset="0" stop-color="#4a6580"/><stop offset="1" stop-color="#00264c"/></linearGradient></defs><title>Ресурс 2</title><g id="Слой_2" data-name="Слой 2"><g id="Слой_1-2" data-name="Слой 1"><path class="cls-1" d="M108,12V88a15.41,15.41,0,0,1-.88,5.22c-1.42,4-4.43,6.78-7.88,6.78H8.76C3.94,100,0,94.6,0,88V12C0,5.4,3.94,0,8.76,0H99.24C104.06,0,108,5.4,108,12Z"/><path class="cls-2" d="M108,12V88a15.41,15.41,0,0,1-.88,5.22C81.75,83,46.69,45.32,26.27,15c-3.8-5.65-6.82-10.62-9.2-15H99.24C104.06,0,108,5.4,108,12Z"/></g></g></svg>