<svg xmlns="http://www.w3.org/2000/svg" viewBox="0 0 51.33 51.33"><defs><style>.cls-1{fill:#fff;}</style></defs><title>Ресурс 1</title><g id="Слой_2" data-name="Слой 2"><g id="Слой_1-2" data-name="Слой 1"><path class="cls-1" d="M35.24,33.11h0l-.83-.83a19.34,19.34,0,0,0,4.72-12.72A19.56,19.56,0,1,0,19.55,39.12a19.41,19.41,0,0,0,12.73-4.71l.83.83h0a5.74,5.74,0,0,0,1.68,4.06L45.91,50.4a3.18,3.18,0,0,0,4.49,0h0a3.18,3.18,0,0,0,0-4.49L39.3,34.79A5.74,5.74,0,0,0,35.24,33.11Zm-15.68,0A13.55,13.55,0,1,1,33.11,19.56,13.55,13.55,0,0,1,19.56,33.11Z"/></g></g></svg>