<?xml version="1.0" encoding="utf-8"?>
<!-- Generator: Adobe Illustrator 22.0.1, SVG Export Plug-In . SVG Version: 6.00 Build 0)  -->
<svg version="1.1" id="Слой_1" xmlns="http://www.w3.org/2000/svg" xmlns:xlink="http://www.w3.org/1999/xlink" x="0px" y="0px"
	 viewBox="0 0 127.3 127" style="enable-background:new 0 0 127.3 127;" xml:space="preserve">
<style type="text/css">
	.st0{fill:url(#SVGID_1_);}
	.st1{fill:#FFFFFF;}
	.st2{fill:#389AC9;}
	.st3{fill:#EDF1F4;}
	.st4{fill:none;stroke:#000000;stroke-width:0.1606;stroke-linecap:round;stroke-linejoin:round;}
	.st5{fill:#FFA624;}
	.st6{clip-path:url(#SVGID_3_);fill:none;stroke:#000000;stroke-width:0.1606;stroke-linecap:round;stroke-linejoin:round;}
	.st7{clip-path:url(#SVGID_5_);fill:none;stroke:#000000;stroke-width:0.1606;stroke-linejoin:round;}
	.st8{fill:#01A54F;}
	.st9{fill:#F11A26;}
	.st10{clip-path:url(#SVGID_7_);fill:none;stroke:#000000;stroke-width:0.1606;stroke-linecap:round;stroke-linejoin:round;}
	.st11{clip-path:url(#SVGID_9_);fill:none;stroke:#000000;stroke-width:0.1606;stroke-linejoin:round;}
	.st12{fill:#FFEE00;}
	.st13{clip-path:url(#SVGID_11_);fill:none;stroke:#000000;stroke-width:0.3211;}
	.st14{fill:#FFDD00;}
	.st15{fill-rule:evenodd;clip-rule:evenodd;fill:#FFEE00;}
	.st16{fill:none;stroke:#000000;stroke-width:0.1706;}
	.st17{fill-rule:evenodd;clip-rule:evenodd;fill:#FFCC00;}
	.st18{fill-rule:evenodd;clip-rule:evenodd;fill:#FFDD00;}
	.st19{fill:none;stroke:#FFCC00;stroke-width:0.3218;}
	.st20{fill:none;stroke:#FFCC00;stroke-width:0.3208;stroke-linecap:square;stroke-linejoin:round;}
	.st21{fill-rule:evenodd;clip-rule:evenodd;fill:#01A54F;}
	.st22{fill-rule:evenodd;clip-rule:evenodd;fill:#EDF1F4;}
	.st23{fill:none;stroke:#000000;stroke-width:0.1606;}
	.st24{fill:none;stroke:#000000;stroke-width:0.5273;}
	.st25{fill:#04ACED;}
	.st26{fill:#AFAFAF;}
</style>
<radialGradient id="SVGID_1_" cx="64.8" cy="1634.7469" r="62.6" gradientTransform="matrix(1 0 0 1 0 -1570.3469)" gradientUnits="userSpaceOnUse">
	<stop  offset="0.9487" style="stop-color:#212121"/>
	<stop  offset="1" style="stop-color:#606060;stop-opacity:0"/>
</radialGradient>
<circle class="st0" cx="64.8" cy="64.4" r="62.6"/>
<circle class="st1" cx="62.6" cy="62.6" r="62.6"/>
<g>
	<path class="st2" d="M97.3,40.2c0.5,0.2,1,0.5,1.4,0.9c0,0,0.1,0.1,0.1,0.1c0.3,0.4,0.6,0.8,0.7,1.3c0,0.1,0,0.2,0.1,0.3
		c0.1,0.6,0.1,1.2-0.1,1.8c0,0.1-0.1,0.3-0.1,0.4c-0.2,0.5-0.5,1-0.8,1.5c-0.1,0.2-0.2,0.3-0.3,0.5c-0.8,1.2-1.8,2.3-2.6,3.6
		c-0.2,0.3-0.3,0.6-0.5,0.9c-0.7,1.2-1.1,2.6-1.1,4c0,0.5,0,1,0.1,1.4c0.1,0.6,0.2,1.2,0.5,1.7c0.4,1,1,1.9,1.8,2.7
		c0.6,0.6,1.3,1.1,2,1.4L91,63c-0.9,0-1.8-0.4-2.5-0.9c-0.9-0.7-1.6-1.7-2-2.8c-0.2-0.6-0.3-1.2-0.4-1.9c-0.1-0.5-0.1-1-0.1-1.6
		c0-1.5,0.1-3,0.6-4.5c0.1-0.3,0.3-0.7,0.4-1c0.7-1.4,1.7-2.6,2.7-3.9c0.1-0.2,0.3-0.3,0.4-0.5c0.3-0.5,0.7-1,0.9-1.6
		c0.1-0.1,0.1-0.3,0.2-0.4c0.2-0.6,0.3-1.3,0.3-2c0-0.1,0-0.2,0-0.3c-0.1-0.5-0.3-1-0.7-1.4c0,0-0.1-0.1-0.1-0.1
		c-0.4-0.4-0.9-0.8-1.4-1L97.3,40.2z M97.3,40.2"/>
	<path class="st3" d="M90.9,39.4c0.5,0.2,1,0.5,1.4,0.9c0,0,0.1,0.1,0.1,0.1c0.3,0.4,0.6,0.9,0.7,1.4c0,0.1,0,0.2,0,0.3
		c0.1,0.7,0,1.3-0.2,2c0,0.1-0.1,0.3-0.2,0.4c-0.2,0.6-0.5,1.1-0.9,1.6c-0.1,0.2-0.2,0.3-0.4,0.5c-0.9,1.3-2,2.5-2.7,3.9
		c-0.2,0.3-0.3,0.6-0.4,1c-0.5,1.4-0.7,2.9-0.7,4.4c0,0.5,0,1,0.1,1.5c0.1,0.6,0.2,1.2,0.4,1.8c0.4,1.1,1,2.1,1.9,2.8
		c0.7,0.5,1.5,0.9,2.4,1l4.4-0.2c-0.8-0.3-1.5-0.7-2.1-1.3c-0.8-0.7-1.4-1.7-1.8-2.7c-0.2-0.6-0.4-1.1-0.5-1.7
		c-0.1-0.5-0.1-1-0.1-1.5c0-1.4,0.4-2.8,1-4.1c0.1-0.3,0.3-0.6,0.5-0.9c0.8-1.3,1.7-2.4,2.6-3.7c0.1-0.2,0.2-0.3,0.3-0.5
		c0.3-0.5,0.6-1,0.8-1.5c0.1-0.1,0.1-0.3,0.1-0.4c0.2-0.6,0.2-1.3,0.1-1.9c0-0.1,0-0.2-0.1-0.3c-0.1-0.5-0.4-0.9-0.7-1.3
		c0,0-0.1-0.1-0.1-0.1c-0.4-0.4-0.9-0.7-1.4-0.9L90.9,39.4z M90.9,39.4"/>
	<path class="st4" d="M97.3,40.2c0.4,0.2,1,0.5,1.4,0.9c0,0,0.1,0.1,0.1,0.1c0.3,0.4,0.6,0.8,0.7,1.3c0,0.1,0,0.2,0.1,0.3
		c0.1,0.6,0.1,1.2-0.1,1.8c0,0.1-0.1,0.3-0.1,0.4c-0.2,0.5-0.5,1-0.8,1.5c-0.1,0.2-0.2,0.3-0.3,0.5c-0.8,1.2-1.8,2.3-2.6,3.6
		c-0.2,0.3-0.3,0.6-0.5,0.9c-0.7,1.2-1.1,2.6-1.1,4c0,0.5,0,1,0.1,1.4c0.1,0.6,0.2,1.2,0.5,1.7c0.4,1,1,1.9,1.8,2.7
		c0.6,0.6,1.3,1.1,2,1.4l-8.2,0.3c-0.3,0-1.1-0.4-1.6-0.8c-0.9-0.7-1.6-1.7-2-2.8c-0.2-0.6-0.3-1.2-0.4-1.9c-0.1-0.5-0.1-1-0.1-1.6
		c0-1.5,0.1-3,0.6-4.5c0.1-0.3,0.3-0.7,0.4-1c0.7-1.4,1.7-2.6,2.7-3.9c0.1-0.2,0.3-0.3,0.4-0.5c0.3-0.5,0.7-1,0.9-1.6
		c0.1-0.1,0.1-0.3,0.2-0.4c0.2-0.6,0.3-1.3,0.3-2c0-0.1,0-0.2,0-0.3c-0.1-0.5-0.3-1-0.7-1.4c0,0-0.1-0.1-0.1-0.1
		c-0.4-0.4-0.9-0.8-1.4-1L97.3,40.2z M97.3,40.2"/>
	<path class="st2" d="M89.9,42.3c0.1,0.1,0.3,0.2,0.4,0.3c0,0,0,0,0,0c0.3,0.1,0.5,0.1,0.8,0c0,0,0,0,0,0c0.3-0.1,0.5-0.2,0.8-0.3
		c0,0,0,0,0,0c1.1-0.5,2-1.3,3.1-1.7c0,0,0.1,0,0.1,0c1.1-0.3,2.2-0.3,3.2,0.2L91,36.6c-0.8-0.4-1.8-0.4-2.6,0c0,0-0.1,0-0.1,0.1
		c-0.9,0.4-1.5,1.2-2.3,1.8c0,0,0,0,0,0c-0.2,0.1-0.4,0.2-0.6,0.3c0,0,0,0,0,0c-0.2,0.1-0.4,0.1-0.7,0c-0.1,0-0.3-0.1-0.3-0.2
		L89.9,42.3z M89.9,42.3"/>
	<path class="st3" d="M92.5,37.4c-0.9-0.4-1.9-0.4-2.8,0c0,0-0.1,0-0.1,0.1c-0.9,0.4-1.6,1.2-2.5,1.8c0,0,0,0,0,0
		c-0.2,0.1-0.4,0.2-0.6,0.3c0,0,0,0,0,0c-0.2,0.1-0.5,0.1-0.7,0c0,0,0,0,0,0c-0.1,0-0.3-0.1-0.4-0.2l3.3,2.3
		c0.1,0.1,0.3,0.2,0.4,0.2c0,0,0,0,0,0c0.2,0.1,0.5,0.1,0.8,0c0,0,0,0,0,0c0.3-0.1,0.5-0.2,0.7-0.3c0,0,0,0,0,0c1-0.5,1.9-1.3,3-1.7
		c0,0,0.1,0,0.1,0c1-0.3,2.1-0.3,3.1,0.1L92.5,37.4z M92.5,37.4"/>
	<path class="st4" d="M89.9,42.3c0.1,0.1,0.3,0.2,0.4,0.3c0,0,0,0,0,0c0.3,0.1,0.5,0.1,0.8,0c0,0,0,0,0,0c0.3-0.1,0.5-0.2,0.8-0.3
		c0,0,0,0,0,0c1.1-0.5,2-1.3,3.1-1.7c0,0,0.1,0,0.1,0c1.1-0.3,2.2-0.3,3.2,0.2L91,36.6c-0.8-0.4-1.8-0.4-2.6,0c0,0-0.1,0-0.1,0.1
		c-0.9,0.4-1.5,1.2-2.3,1.8c0,0,0,0,0,0c-0.2,0.1-0.4,0.2-0.6,0.3c0,0,0,0,0,0c-0.2,0.1-0.4,0.1-0.7,0c-0.1,0-0.3-0.1-0.3-0.2
		L89.9,42.3z M89.9,42.3"/>
	<path class="st2" d="M63.8,103.6c0,0,0-0.6,0.2-0.8c0,0,0,0,0,0c0.1-0.2,0.3-0.3,0.7-0.5c0.4-0.2,1.1-0.4,1.8-0.3l0,7.1
		c-0.7,0-1.4,0.1-2,0.5c0,0,0,0,0,0c-0.2,0.1-0.3,0.2-0.5,0.4c0,0,0,0,0,0c-0.2,0.2-0.3,0.5-0.2,0.8L63.8,103.6z M63.8,103.6"/>
	<path class="st3" d="M63.8,105c0-0.3,0-0.6,0.2-0.8c0,0,0,0,0,0c0.1-0.2,0.3-0.3,0.5-0.4c0,0,0,0,0,0c0.6-0.3,1.3-0.5,2-0.5l0,4.2
		c-0.7,0-1.4,0.1-2,0.5c0,0,0,0,0,0c-0.2,0.1-0.3,0.2-0.5,0.4c0,0,0,0,0,0c-0.2,0.2-0.3,0.5-0.2,0.8L63.8,105z M63.8,105"/>
	<path class="st5" d="M66.6,104.8c-0.7,0-1.4,0.1-2,0.5c0,0,0,0,0,0c-0.2,0.1-0.3,0.2-0.5,0.4c0,0,0,0,0,0c-0.2,0.2-0.3,0.5-0.2,0.8
		l0,1.4c0-0.3,0-0.6,0.2-0.8c0,0,0,0,0,0c0.1-0.2,0.3-0.3,0.5-0.4c0,0,0,0,0,0c0.6-0.3,1.3-0.5,2-0.5L66.6,104.8z M66.6,104.8"/>
	<path class="st4" d="M63.8,103.6c0-0.4,0.1-0.6,0.2-0.8c0.2-0.2,0.3-0.3,0.7-0.5c0.4-0.2,1.1-0.4,1.8-0.3l0,7.1
		c-0.7,0-1.4,0.1-2,0.5c0,0,0,0,0,0c-0.2,0.1-0.3,0.2-0.5,0.4c0,0,0,0,0,0c-0.2,0.2-0.3,0.5-0.2,0.8L63.8,103.6z M63.8,103.6"/>
	<path class="st2" d="M63.8,103.6c0,0.1,0.1,0.2,0.1,0.2c0,0,0,0,0,0c0.1,0.1,0.2,0.2,0.4,0.3c0,0,0,0,0.1,0
		c0.1,0.1,0.3,0.1,0.4,0.1c0,0,0.1,0,0.1,0c0.5,0.1,1,0.2,1.5,0.1c0.1,0,0.1,0,0.2,0c1-0.1,2-0.5,2.9-0.8c0.2-0.1,0.4-0.2,0.6-0.2
		c1.2-0.4,2.3-0.9,3.5-1.3c0.4-0.1,0.7-0.3,1.1-0.4c1.2-0.4,2.4-0.8,3.7-0.8c0.2,0,0.5,0,0.7,0.1c0.3,0.1,0.7,0.1,1,0.3
		c0.3,0.1,0.5,0.2,0.7,0.4c0.2,0.2,0.5,0.4,0.7,0.6c0.2,0.2,0.4,0.5,0.5,0.8c0.2,0.5,0.3,1,0.2,1.5l-0.5,6.4
		c-0.1-0.5-0.3-0.9-0.6-1.3c-0.2-0.2-0.5-0.4-0.7-0.5c-0.2-0.1-0.5-0.2-0.8-0.3c-0.3-0.1-0.5-0.1-0.8-0.1c-0.3,0-0.6,0-0.9,0
		c-0.2,0-0.4,0-0.7,0.1c-1.1,0.2-2.2,0.5-3.3,0.9c-0.3,0.1-0.7,0.2-1,0.4c-1.1,0.4-2.1,0.8-3.2,1.1c-0.2,0-0.4,0.1-0.6,0.1
		c-0.9,0.2-1.9,0.3-2.8,0.2c-0.1,0-0.1,0-0.2,0c-0.4-0.1-0.9-0.2-1.3-0.3c0,0-0.1,0-0.1,0c-0.1,0-0.3-0.1-0.4-0.1c0,0,0,0-0.1,0
		c-0.1-0.1-0.3-0.2-0.3-0.3c0,0,0,0,0,0c0-0.1-0.1-0.1-0.1-0.2V103.6z M63.8,103.6"/>
	<path class="st3" d="M63.8,105c0,0.1,0.1,0.2,0.1,0.2c0,0,0,0,0,0c0.1,0.1,0.2,0.2,0.4,0.3c0,0,0,0,0.1,0c0.1,0.1,0.3,0.1,0.4,0.1
		c0,0,0.1,0,0.1,0c0.5,0.1,1,0.2,1.4,0.2c0.1,0,0.1,0,0.2,0c1,0,2-0.4,2.9-0.7c0.2-0.1,0.4-0.1,0.6-0.2c1.1-0.4,2.3-0.8,3.4-1.3
		c0.4-0.1,0.7-0.3,1.1-0.4c1.2-0.4,2.4-0.8,3.6-0.8c0.2,0,0.5,0,0.7,0c0.3,0,0.6,0.1,1,0.2c0.3,0.1,0.5,0.2,0.8,0.3
		c0.2,0.1,0.5,0.3,0.7,0.5c0.2,0.2,0.4,0.5,0.5,0.8c0.2,0.5,0.3,1,0.3,1.5l-0.3,3.8c0-0.5-0.2-1-0.5-1.3c-0.2-0.2-0.4-0.4-0.7-0.6
		c-0.2-0.1-0.5-0.3-0.8-0.3c-0.3-0.1-0.5-0.1-0.8-0.2c-0.3,0-0.6,0-0.9,0c-0.2,0-0.5,0-0.7,0.1c-1.2,0.1-2.3,0.5-3.4,0.9
		c-0.3,0.1-0.7,0.3-1,0.4c-1.1,0.4-2.2,0.9-3.3,1.2c-0.2,0.1-0.4,0.1-0.6,0.2c-0.9,0.2-1.9,0.4-2.8,0.3c-0.1,0-0.1,0-0.2,0
		c-0.5-0.1-0.9-0.1-1.4-0.3c0,0-0.1,0-0.1,0c-0.1,0-0.3-0.1-0.4-0.1c0,0,0,0-0.1,0c-0.1-0.1-0.3-0.2-0.3-0.3c0,0,0,0,0,0
		c0-0.1-0.1-0.1-0.1-0.2V105z M63.8,105"/>
	<g>
		<defs>
			<rect id="SVGID_2_" x="24.5" y="11.8" width="76.4" height="100.2"/>
		</defs>
		<clipPath id="SVGID_3_">
			<use xlink:href="#SVGID_2_"  style="overflow:visible;"/>
		</clipPath>
		<path class="st6" d="M63.8,103.6c0,0.1,0.1,0.2,0.1,0.2c0,0,0,0,0,0c0.1,0.1,0.2,0.2,0.4,0.3c0,0,0,0,0.1,0
			c0.1,0.1,0.3,0.1,0.4,0.1c0,0,0.1,0,0.1,0c0.5,0.1,1,0.2,1.5,0.1c0.1,0,0.1,0,0.2,0c1-0.1,2-0.5,2.9-0.8c0.2-0.1,0.4-0.2,0.6-0.2
			c1.2-0.4,2.3-0.9,3.5-1.3c0.4-0.1,0.7-0.3,1.1-0.4c1.2-0.4,2.4-0.8,3.7-0.8c0.2,0,0.5,0,0.7,0.1c0.3,0.1,0.7,0.1,1,0.3
			c0.3,0.1,0.5,0.2,0.7,0.4c0.2,0.2,0.5,0.4,0.7,0.6c0.2,0.2,0.4,0.5,0.5,0.8c0.2,0.5,0.3,1,0.2,1.5l-0.5,6.4
			c-0.1-0.5-0.3-0.9-0.6-1.3c-0.2-0.2-0.5-0.4-0.7-0.5c-0.2-0.1-0.5-0.2-0.8-0.3c-0.3-0.1-0.5-0.1-0.8-0.1c-0.3,0-0.6,0-0.9,0
			c-0.2,0-0.4,0-0.7,0.1c-1.1,0.2-2.2,0.5-3.3,0.9c-0.3,0.1-0.7,0.2-1,0.4c-1.1,0.4-2.1,0.8-3.2,1.1c-0.2,0-0.4,0.1-0.6,0.1
			c-0.9,0.2-1.9,0.3-2.8,0.2c-0.1,0-0.1,0-0.2,0c-0.4-0.1-0.9-0.2-1.3-0.3c0,0-0.1,0-0.1,0c-0.1,0-0.3-0.1-0.4-0.1c0,0,0,0-0.1,0
			c-0.1-0.1-0.3-0.2-0.3-0.3c0,0,0,0,0,0c0-0.1-0.1-0.1-0.1-0.2V103.6z M63.8,103.6"/>
	</g>
	<path class="st2" d="M81,105.3c-0.3-0.4-0.7-0.7-1.1-0.9c-0.2-0.1-0.4-0.2-0.6-0.3c-0.2-0.1-0.4-0.1-0.6,0c-0.1,0-0.3,0.1-0.4,0.2
		c-0.1,0.1-0.2,0.2-0.3,0.4c0,0,0,0.1,0,0.1c0,0,0,0.1,0,0.1l0.7,1.7c0-0.1,0-0.1,0-0.2c0-0.2,0.1-0.3,0.2-0.4
		c0.1-0.1,0.3-0.1,0.4-0.2c0.4-0.1,0.8,0.1,1.2,0.3c0.4,0.2,0.8,0.6,1.1,0.9L81,105.3z M81,105.3"/>
	<path class="st4" d="M81,105.3c-0.3-0.4-0.7-0.7-1.1-0.9c-0.4-0.2-0.8-0.3-1.2-0.3c-0.2,0-0.3,0.1-0.4,0.2
		c-0.1,0.1-0.2,0.2-0.2,0.4c0,0.1,0,0.1,0,0.2"/>
	<path class="st2" d="M93.9,34.1c0.3,0.1,0.6,0.4,0.8,0.7c0,0,0,0.1,0.1,0.1c0.1,0.3,0.2,0.6,0.2,0.9c0,0.1,0,0.2,0,0.3
		c0,0.3-0.2,0.6-0.3,0.8c0,0.1-0.1,0.1-0.1,0.2c-0.2,0.2-0.4,0.5-0.6,0.7c0,0-0.1,0.1-0.1,0.1c-0.6,0.4-1.2,0.7-1.8,1.1
		c0,0-0.1,0-0.1,0.1c-0.7,0.5-1.4,1.1-1.8,1.8c0,0,0,0,0,0c-0.2,0.3-0.3,0.6-0.3,0.9c0,0,0,0,0,0c0,0.3,0.1,0.5,0.3,0.7l-5.6-3.8
		c-0.1-0.2-0.2-0.4-0.2-0.6c0,0,0,0,0,0c0-0.3,0.1-0.5,0.2-0.7c0,0,0,0,0,0c0.3-0.6,0.9-1.1,1.4-1.5c0,0,0,0,0.1,0
		c0.5-0.3,1-0.6,1.4-1c0,0,0.1-0.1,0.1-0.1c0.2-0.2,0.3-0.4,0.5-0.6c0-0.1,0.1-0.1,0.1-0.2C88,33.5,88,33.3,88,33c0-0.1,0-0.1,0-0.2
		c0-0.2-0.2-0.5-0.3-0.7c0,0,0-0.1-0.1-0.1c-0.2-0.2-0.5-0.3-0.8-0.4"/>
	<path class="st3" d="M88.2,32.2c0.3,0.1,0.6,0.2,0.8,0.4c0,0,0,0.1,0.1,0.1c0.2,0.2,0.3,0.4,0.3,0.7c0,0.1,0,0.1,0,0.2
		c0,0.3-0.1,0.5-0.2,0.7c0,0.1-0.1,0.1-0.1,0.2c-0.1,0.2-0.3,0.4-0.5,0.6c0,0-0.1,0.1-0.1,0.1c-0.5,0.4-1,0.7-1.5,1c0,0,0,0-0.1,0
		c-0.6,0.4-1.2,0.9-1.5,1.6l0,0c-0.1,0.2-0.2,0.5-0.2,0.8c0,0,0,0,0,0c0,0.2,0.1,0.4,0.2,0.6l3.4,2.3c-0.2-0.2-0.3-0.4-0.2-0.7
		c0,0,0,0,0,0c0-0.3,0.1-0.6,0.3-0.8c0,0,0,0,0,0c0.4-0.7,1.1-1.3,1.8-1.8c0,0,0.1,0,0.1-0.1c0.6-0.4,1.2-0.7,1.7-1.1
		c0,0,0.1-0.1,0.1-0.1c0.2-0.2,0.4-0.4,0.6-0.6c0-0.1,0.1-0.1,0.1-0.2c0.1-0.2,0.2-0.5,0.3-0.8c0-0.1,0-0.2,0-0.2
		c0-0.3-0.1-0.6-0.2-0.8c0,0,0-0.1-0.1-0.1c-0.2-0.3-0.5-0.5-0.8-0.6"/>
	<path class="st4" d="M93.9,34.1c0.3,0.1,0.6,0.4,0.8,0.7c0,0,0,0.1,0.1,0.1c0.1,0.3,0.2,0.6,0.2,0.9c0,0.1,0,0.2,0,0.3
		c0,0.3-0.2,0.6-0.3,0.8c0,0.1-0.1,0.1-0.1,0.2c-0.2,0.2-0.4,0.5-0.6,0.7c0,0-0.1,0.1-0.1,0.1c-0.6,0.4-1.2,0.7-1.8,1.1
		c0,0-0.1,0-0.1,0.1c-0.7,0.5-1.4,1.1-1.8,1.8c0,0,0,0,0,0c-0.2,0.3-0.3,0.6-0.3,0.9c0,0,0,0,0,0c0,0.3,0.1,0.5,0.3,0.7l-5.6-3.8
		c-0.1-0.2-0.2-0.4-0.2-0.6c0,0,0,0,0,0c0-0.3,0.1-0.5,0.2-0.7c0,0,0,0,0,0c0.3-0.6,0.9-1.1,1.4-1.5c0,0,0,0,0.1,0
		c0.5-0.3,1-0.6,1.4-1c0,0,0.1-0.1,0.1-0.1c0.2-0.2,0.3-0.4,0.5-0.6c0-0.1,0.1-0.1,0.1-0.2C88,33.5,88,33.3,88,33c0-0.1,0-0.1,0-0.2
		c0-0.2-0.2-0.5-0.3-0.7c0,0,0-0.1-0.1-0.1c-0.2-0.2-0.5-0.3-0.8-0.4L93.9,34.1z M93.9,34.1"/>
	<path class="st2" d="M93.9,34.1c-0.3-0.2-0.6-0.3-1-0.3c-0.6,0-1.1,0.2-1.6,0.5c-0.4,0.2-0.9,0.4-1.3,0.7c-0.6,0.4-1.2,0.8-1.8,1.2
		c-0.3,0.2-0.5,0.4-0.8,0.6c-0.8,0.7-1.6,1.5-2.5,2.3c-0.2,0.2-0.4,0.3-0.6,0.5c-1.1,0.9-2.2,1.6-3.4,2.2c-1.9,1-3.8,1.8-5.8,2.5
		l-4.6-4.2c1.8-0.4,3.5-1,5.1-1.8c1-0.5,2-1.1,3-1.8c0.2-0.1,0.4-0.3,0.5-0.4c0.8-0.6,1.5-1.2,2.2-1.9c0.2-0.2,0.4-0.4,0.6-0.6
		c0.4-0.4,0.9-0.9,1.4-1.2c0.4-0.2,0.7-0.4,1.1-0.5c0.5-0.1,0.9-0.2,1.4-0.2c0.3,0,0.6,0,0.9,0.1"/>
	<path class="st3" d="M88.2,32.2c-0.3-0.1-0.6-0.1-0.9-0.1c-0.5,0-1,0.1-1.5,0.3c-0.4,0.1-0.8,0.3-1.2,0.5c-0.6,0.3-1,0.8-1.5,1.2
		c-0.2,0.2-0.4,0.4-0.6,0.6c-0.7,0.7-1.5,1.4-2.2,2c-0.2,0.1-0.4,0.3-0.5,0.4c-1,0.7-2,1.3-3.1,1.9c-1.7,0.9-3.4,1.5-5.3,2l2.8,2.5
		c2-0.6,3.9-1.4,5.7-2.4c1.2-0.6,2.3-1.3,3.3-2.1c0.2-0.2,0.4-0.3,0.6-0.5c0.8-0.7,1.6-1.5,2.4-2.2c0.2-0.2,0.5-0.4,0.7-0.6
		c0.6-0.5,1.1-0.9,1.7-1.2c0.4-0.2,0.8-0.5,1.3-0.6c0.5-0.2,1-0.4,1.6-0.4c0.3,0,0.6,0.1,0.9,0.2"/>
	<path class="st4" d="M93.9,34.1c-0.3-0.2-0.6-0.3-1-0.3c-0.6,0-1.1,0.2-1.6,0.5c-0.4,0.2-0.9,0.4-1.3,0.7c-0.6,0.4-1.2,0.8-1.8,1.2
		c-0.3,0.2-0.5,0.4-0.8,0.6c-0.8,0.7-1.6,1.5-2.5,2.3c-0.2,0.2-0.4,0.3-0.6,0.5c-1.1,0.9-2.2,1.6-3.4,2.2c-1.9,1-3.8,1.8-5.8,2.5
		l-4.6-4.2c1.8-0.4,3.5-1,5.1-1.8c1-0.5,2-1.1,3-1.8c0.2-0.1,0.4-0.3,0.5-0.4c0.8-0.6,1.5-1.2,2.2-1.9c0.2-0.2,0.4-0.4,0.6-0.6
		c0.4-0.4,0.9-0.9,1.4-1.2c0.4-0.2,0.7-0.4,1.1-0.5c0.5-0.1,0.9-0.2,1.4-0.2c0.3,0,0.6,0,0.9,0.1l6.7,2.1"/>
	<path class="st2" d="M90.1,62.9c0.1,0,0.3,0,0.4-0.1c0.1-0.1,0.2-0.2,0.2-0.3c0-0.1,0.1-0.2,0.1-0.4c0-0.2-0.1-0.5-0.2-0.7
		c-0.3-0.6-0.6-1.1-0.9-1.7c-0.2-0.3-0.3-0.6-0.4-0.9c-0.1-0.3-0.1-0.7,0.1-1c0.1-0.2,0.3-0.4,0.6-0.5c0.1,0,0.2-0.1,0.3-0.1l7.2,0
		l0.5,0.1c-0.2-0.1-0.5-0.1-0.8,0c-0.3,0.1-0.5,0.3-0.6,0.5c-0.2,0.3-0.2,0.7-0.1,1c0.1,0.3,0.2,0.6,0.4,0.9
		c0.3,0.6,0.6,1.1,0.9,1.7c0.1,0.2,0.2,0.4,0.2,0.7c0,0.1,0,0.2-0.1,0.4c0,0.1-0.1,0.2-0.2,0.3c0,0,0,0,0,0
		c-0.1,0.1-0.3,0.1-0.4,0.1L90.1,62.9z M90.1,62.9"/>
	<path class="st3" d="M91.6,62.9c0.1,0,0.3,0,0.4-0.1c0.1-0.1,0.2-0.2,0.2-0.3c0-0.1,0.1-0.2,0.1-0.4c0-0.2-0.1-0.5-0.2-0.7
		c-0.3-0.6-0.6-1.1-0.9-1.7c-0.2-0.3-0.3-0.6-0.4-0.9c-0.1-0.3-0.1-0.7,0.1-1c0,0,0,0,0,0c0.1-0.2,0.3-0.4,0.6-0.5
		c0.1,0,0.2-0.1,0.3-0.1l4.3,0c-0.1,0-0.2,0-0.3,0.1c-0.3,0.1-0.5,0.3-0.6,0.5c-0.2,0.3-0.2,0.7-0.1,1c0.1,0.3,0.2,0.6,0.4,0.9
		c0.3,0.6,0.6,1.1,0.9,1.7c0.1,0.2,0.2,0.4,0.2,0.7c0,0.1,0,0.2-0.1,0.4c0,0.1-0.1,0.2-0.2,0.3c-0.1,0.1-0.3,0.1-0.4,0.1L91.6,62.9z
		 M91.6,62.9"/>
	<path class="st4" d="M97.6,57.4c-0.1,0-0.2,0-0.3,0.1c-0.3,0.1-0.5,0.3-0.6,0.5c-0.2,0.3-0.2,0.7-0.1,1c0.1,0.3,0.2,0.6,0.4,0.9
		c0.3,0.6,0.6,1.1,0.9,1.7c0.1,0.2,0.2,0.4,0.2,0.7c0,0.1,0,0.2-0.1,0.4c0,0.1-0.1,0.2-0.2,0.3c0,0,0,0,0,0
		c-0.1,0.1-0.3,0.1-0.4,0.1l-7.2,0c0.2,0,0.3,0,0.4-0.1c0.1-0.1,0.2-0.2,0.2-0.3c0-0.1,0.1-0.2,0.1-0.4c0-0.2-0.1-0.5-0.2-0.7
		c-0.3-0.6-0.6-1.1-0.9-1.7c-0.2-0.3-0.3-0.6-0.4-0.9c-0.1-0.3-0.1-0.7,0.1-1c0.1-0.2,0.3-0.4,0.6-0.5c0.1,0,0.2-0.1,0.3-0.1
		L97.6,57.4"/>
	<path class="st2" d="M90.7,57.4c0.6,0.3,1.3,1,1.6,1.7c0.2,0.4,0.3,0.8,0.3,1.2c0.1,0.6,0,1.2-0.1,1.8c0,0.4-0.1,0.8-0.1,1.2
		c-0.1,1-0.3,2-0.5,3c-0.1,0.4-0.2,0.8-0.3,1.3c-0.4,1.6-0.9,3.1-1.3,4.7c-0.1,0.3-0.1,0.6-0.2,0.9c-0.4,2.7,0,5.5,0.4,8.2
		c0.1,0.6,0.2,1.2,0.3,1.7c0.4,2.7,0.7,5.5,0.9,8.2c0,0.2,0,0.4,0,0.5c0,0.8,0,1.6-0.1,2.4c-0.1,1-0.4,1.9-0.9,2.7
		c0,0,0,0.1-0.1,0.1c-0.5,0.8-1.3,1.5-2,2.1c-0.5,0.4-1.1,0.8-1.6,1.1c-0.3,0.2-0.6,0.4-0.9,0.7c-0.7,0.5-1.3,1.1-1.9,1.7
		c-0.6,0.6-1.2,1.1-1.9,1.6c-0.3,0.2-0.6,0.4-0.9,0.6c-0.5,0.3-0.9,0.4-1.5,0.5c-0.7,0.1-1.3-0.1-1.9-0.4l2.5,6
		c0.7,0.4,1.4,0.6,2.2,0.7c0.6,0.1,1.2,0,1.8-0.1c0.4-0.1,0.8-0.3,1.2-0.4c0.9-0.4,1.7-1,2.4-1.7c0.7-0.7,1.4-1.4,2.1-2.1
		c0.3-0.3,0.6-0.6,1-0.9c0.6-0.5,1.2-0.9,1.8-1.4c0.9-0.7,1.9-1.3,2.7-2.1c0,0,0.1-0.1,0.1-0.1c0.8-0.8,1.4-1.8,1.9-2.8
		c0.4-0.8,0.7-1.7,0.9-2.6c0.1-0.2,0.1-0.4,0.1-0.6c0.7-3.1,0.5-6.4,0.1-9.6c-0.1-0.7-0.2-1.4-0.3-2c-0.5-3.2-1.2-6.4-0.9-9.6
		c0-0.4,0.1-0.7,0.1-1.1c0.3-1.9,0.9-3.7,1.6-5.5c0.2-0.5,0.3-0.9,0.5-1.4c0.4-1.1,0.7-2.2,0.8-3.4c0.1-0.5,0.1-0.9,0.1-1.4
		c0-0.7-0.1-1.4-0.3-2.1c-0.2-0.5-0.4-0.9-0.6-1.3c-0.4-0.7-1-1.3-1.7-1.8L90.7,57.4z M90.7,57.4"/>
	<path class="st3" d="M96.6,57.4c0.7,0.5,1.2,1.1,1.6,1.8c0.2,0.4,0.4,0.9,0.5,1.3c0.2,0.7,0.3,1.4,0.3,2.1c0,0.4,0,0.9-0.1,1.3
		c-0.1,1.1-0.4,2.2-0.8,3.3c-0.1,0.5-0.3,0.9-0.5,1.4c-0.6,1.7-1.2,3.5-1.5,5.3c-0.1,0.3-0.1,0.7-0.1,1c-0.3,3.1,0.3,6.2,0.8,9.3
		c0.1,0.7,0.2,1.3,0.3,2c0.4,3.1,0.6,6.3,0.1,9.3c0,0.2-0.1,0.4-0.1,0.6c-0.2,0.9-0.4,1.7-0.8,2.5c-0.4,1-1,2-1.7,2.8
		c0,0-0.1,0.1-0.1,0.1c-0.7,0.8-1.6,1.5-2.5,2.1c-0.6,0.4-1.2,0.9-1.8,1.3c-0.3,0.3-0.6,0.5-0.9,0.8c-0.7,0.7-1.3,1.3-2,2
		c-0.7,0.6-1.5,1.2-2.3,1.7c-0.4,0.2-0.8,0.4-1.2,0.5c-0.6,0.2-1.1,0.2-1.7,0.2c-0.7,0-1.5-0.3-2.1-0.6l-1.5-3.6
		c0.6,0.4,1.3,0.5,1.9,0.5c0.5,0,1-0.2,1.5-0.4c0.3-0.2,0.7-0.4,1-0.6c0.7-0.5,1.4-1.1,2-1.7c0.6-0.6,1.3-1.2,1.9-1.7
		c0.3-0.2,0.6-0.5,0.9-0.7c0.5-0.4,1.1-0.8,1.6-1.2c0.8-0.6,1.6-1.3,2.2-2.1c0,0,0.1-0.1,0.1-0.1c0.6-0.8,0.9-1.8,1.1-2.7
		c0.2-0.8,0.2-1.6,0.3-2.4c0-0.2,0-0.4,0-0.5c0-2.8-0.2-5.7-0.7-8.5c-0.1-0.6-0.2-1.2-0.3-1.8c-0.5-2.8-0.9-5.7-0.5-8.5
		c0-0.3,0.1-0.6,0.2-0.9c0.3-1.6,0.9-3.2,1.3-4.8c0.1-0.4,0.2-0.9,0.3-1.3c0.2-1,0.4-2,0.6-3c0.1-0.4,0.1-0.8,0.1-1.2
		c0.1-0.6,0.1-1.3,0-1.9c-0.1-0.4-0.2-0.9-0.4-1.3c-0.3-0.7-0.9-1.3-1.5-1.7L96.6,57.4z M96.6,57.4"/>
	<g>
		<defs>
			<rect id="SVGID_4_" x="24.5" y="11.8" width="76.4" height="100.2"/>
		</defs>
		<clipPath id="SVGID_5_">
			<use xlink:href="#SVGID_4_"  style="overflow:visible;"/>
		</clipPath>
		<path class="st7" d="M90.3,57.4c0.7,0,1.7,1,2,1.7c0.2,0.4,0.3,0.8,0.3,1.2c0.1,0.6,0,1.2-0.1,1.8c0,0.4-0.1,0.8-0.1,1.2
			c-0.1,1-0.3,2-0.5,3c-0.1,0.4-0.2,0.8-0.3,1.3c-0.4,1.6-0.9,3.1-1.3,4.7c-0.1,0.3-0.1,0.6-0.2,0.9c-0.4,2.7,0,5.5,0.4,8.2
			c0.1,0.6,0.2,1.2,0.3,1.7c0.4,2.7,0.7,5.5,0.9,8.2c0,0.2,0,0.4,0,0.5c0,0.8,0,1.6-0.1,2.4c-0.1,1-0.4,1.9-0.9,2.7
			c0,0,0,0.1-0.1,0.1c-0.5,0.8-1.3,1.5-2,2.1c-0.5,0.4-1.1,0.8-1.6,1.1c-0.3,0.2-0.6,0.4-0.9,0.7c-0.7,0.5-1.3,1.1-1.9,1.7
			c-0.6,0.6-1.2,1.1-1.9,1.6c-0.3,0.2-0.6,0.4-0.9,0.6c-0.5,0.3-0.9,0.4-1.5,0.5c-0.7,0.1-1.3-0.1-1.9-0.4l2.4,5.7
			c0.1,0.3,0.2,0.4,0.5,0.5c0.6,0.3,1.2,0.4,1.9,0.5c0.6,0.1,1.2,0,1.8-0.1c0.4-0.1,0.8-0.3,1.2-0.4c0.9-0.4,1.7-1,2.4-1.7
			c0.7-0.7,1.4-1.4,2.1-2.1c0.3-0.3,0.6-0.6,1-0.9c0.6-0.5,1.2-0.9,1.8-1.4c0.9-0.7,1.9-1.3,2.7-2.1c0,0,0.1-0.1,0.1-0.1
			c0.8-0.8,1.4-1.8,1.9-2.8c0.4-0.8,0.7-1.7,0.9-2.6c0.1-0.2,0.1-0.4,0.1-0.6c0.7-3.1,0.5-6.4,0.1-9.6c-0.1-0.7-0.2-1.4-0.3-2
			c-0.5-3.2-1.2-6.4-0.9-9.6c0-0.4,0.1-0.7,0.1-1.1c0.3-1.9,0.9-3.7,1.6-5.5c0.2-0.5,0.3-0.9,0.5-1.4c0.4-1.1,0.7-2.2,0.8-3.4
			c0.1-0.5,0.1-0.9,0.1-1.4c0-0.7-0.1-1.4-0.3-2.1c-0.2-0.5-0.4-0.9-0.6-1.3c-0.3-0.5-0.7-0.9-1.1-1.3c-0.3-0.4-0.6-0.6-1.1-0.6
			L90.3,57.4z M90.3,57.4"/>
	</g>
	<path class="st1" d="M61.5,103.6c0,0,0-0.6-0.2-0.8c0,0,0,0,0,0c-0.1-0.2-0.3-0.3-0.7-0.5c-0.4-0.2-1.1-0.4-1.8-0.3l0,7.1
		c0.7,0,1.4,0.1,2,0.5c0,0,0,0,0,0c0.2,0.1,0.3,0.2,0.5,0.4c0,0,0,0,0,0c0.2,0.2,0.3,0.5,0.2,0.8L61.5,103.6z M61.5,103.6"/>
	<path class="st8" d="M61.5,104.3c0-0.3,0-0.6-0.2-0.8c0,0,0,0,0,0c-0.1-0.2-0.3-0.3-0.5-0.4c0,0,0,0,0,0c-0.6-0.3-1.3-0.5-2-0.5
		l0,2.1c0.7,0,1.4,0.1,2,0.5c0,0,0,0,0,0c0.2,0.1,0.3,0.2,0.5,0.4c0,0,0,0,0,0c0.2,0.2,0.3,0.5,0.2,0.8L61.5,104.3z M61.5,104.3"/>
	<path class="st2" d="M61.5,107.8c0-0.3,0-0.6-0.2-0.8c0,0,0,0,0,0c-0.1-0.2-0.3-0.3-0.5-0.4c0,0,0,0,0,0c-0.6-0.3-1.3-0.5-2-0.5
		l0,2.1c0.7,0,1.4,0.1,2,0.5c0,0,0,0,0,0c0.2,0.1,0.3,0.2,0.5,0.4c0,0,0,0,0,0c0.2,0.2,0.3,0.5,0.2,0.8L61.5,107.8z M61.5,107.8"/>
	<path class="st9" d="M61.5,105c0-0.3,0-0.6-0.2-0.8c0,0,0,0,0,0c-0.1-0.2-0.3-0.3-0.5-0.4c0,0,0,0,0,0c-0.6-0.3-1.3-0.5-2-0.5
		l0,4.2c0.7,0,1.4,0.1,2,0.5c0,0,0,0,0,0c0.2,0.1,0.3,0.2,0.5,0.4c0,0,0,0,0,0c0.2,0.2,0.3,0.5,0.2,0.8L61.5,105z M61.5,105"/>
	<path class="st5" d="M58.7,104.8c0.7,0,1.4,0.1,2,0.5c0,0,0,0,0,0c0.2,0.1,0.3,0.2,0.5,0.4c0,0,0,0,0,0c0.2,0.2,0.3,0.5,0.2,0.8
		l0,1.4c0-0.3,0-0.6-0.2-0.8c0,0,0,0,0,0c-0.1-0.2-0.3-0.3-0.5-0.4c0,0,0,0,0,0c-0.6-0.3-1.3-0.5-2-0.5L58.7,104.8z M58.7,104.8"/>
	<path class="st4" d="M61.5,103.6c0-0.4-0.1-0.6-0.2-0.8c-0.2-0.2-0.3-0.3-0.7-0.5c-0.4-0.2-1.1-0.4-1.8-0.3l0,7.1
		c0.7,0,1.4,0.1,2,0.5c0,0,0,0,0,0c0.2,0.1,0.3,0.2,0.5,0.4c0,0,0,0,0,0c0.2,0.2,0.3,0.5,0.2,0.8L61.5,103.6z M61.5,103.6"/>
	<path class="st1" d="M61.5,103.6c0,0.1-0.1,0.2-0.1,0.2c0,0,0,0,0,0c-0.1,0.1-0.2,0.2-0.4,0.3c0,0,0,0-0.1,0
		c-0.1,0.1-0.3,0.1-0.4,0.1c0,0-0.1,0-0.1,0c-0.5,0.1-1,0.2-1.5,0.1c-0.1,0-0.1,0-0.2,0c-1-0.1-2-0.5-2.9-0.8
		c-0.2-0.1-0.4-0.2-0.6-0.2c-1.2-0.4-2.3-0.9-3.5-1.3c-0.4-0.1-0.7-0.3-1.1-0.4c-1.2-0.4-2.4-0.8-3.7-0.8c-0.2,0-0.5,0-0.7,0.1
		c-0.3,0.1-0.7,0.1-1,0.3c-0.3,0.1-0.5,0.2-0.7,0.4c-0.2,0.2-0.5,0.4-0.7,0.6c-0.2,0.2-0.4,0.5-0.5,0.8c-0.2,0.5-0.3,1-0.2,1.5
		l0.5,6.4c0.1-0.5,0.3-0.9,0.6-1.3c0.2-0.2,0.5-0.4,0.7-0.5c0.2-0.1,0.5-0.2,0.8-0.3c0.3-0.1,0.5-0.1,0.8-0.1c0.3,0,0.6,0,0.9,0
		c0.2,0,0.4,0,0.7,0.1c1.1,0.2,2.2,0.5,3.3,0.9c0.3,0.1,0.7,0.2,1,0.4c1.1,0.4,2.1,0.8,3.2,1.1c0.2,0,0.4,0.1,0.6,0.1
		c0.9,0.2,1.9,0.3,2.8,0.2c0.1,0,0.1,0,0.2,0c0.4-0.1,0.9-0.2,1.3-0.3c0,0,0.1,0,0.1,0c0.1,0,0.3-0.1,0.4-0.1c0,0,0,0,0.1,0
		c0.1-0.1,0.3-0.2,0.3-0.3c0,0,0,0,0,0c0-0.1,0.1-0.1,0.1-0.2V103.6z M61.5,103.6"/>
	<path class="st2" d="M61.5,107.9c0,0.1-0.1,0.2-0.1,0.2c0,0,0,0,0,0c-0.1,0.1-0.2,0.2-0.4,0.3c0,0,0,0-0.1,0
		c-0.1,0.1-0.3,0.1-0.4,0.1c0,0-0.1,0-0.1,0c-0.5,0.1-0.9,0.2-1.4,0.2c-0.1,0-0.1,0-0.2,0c-1,0-1.9-0.2-2.9-0.4
		c-0.2-0.1-0.4-0.1-0.6-0.2c-1.1-0.3-2.2-0.8-3.3-1.2c-0.3-0.1-0.7-0.3-1-0.4c-1.1-0.4-2.3-0.8-3.5-0.8c-0.2,0-0.5,0-0.7,0
		c-0.3,0-0.6,0-0.9,0.1c-0.3,0-0.5,0.1-0.8,0.2c-0.3,0.1-0.5,0.2-0.7,0.4c-0.2,0.2-0.5,0.4-0.6,0.6c-0.3,0.4-0.4,0.9-0.5,1.4
		l0.1,1.9c0.1-0.5,0.3-0.9,0.6-1.3c0.2-0.2,0.4-0.4,0.7-0.5c0.2-0.1,0.5-0.2,0.8-0.3c0.3-0.1,0.5-0.1,0.8-0.1c0.3,0,0.6,0,0.9,0
		c0.2,0,0.5,0,0.7,0.1c1.1,0.2,2.3,0.5,3.4,0.9c0.3,0.1,0.7,0.3,1,0.4c1.1,0.4,2.1,0.8,3.3,1.2c0.2,0.1,0.4,0.1,0.6,0.1
		c0.9,0.2,1.9,0.3,2.8,0.2c0.1,0,0.1,0,0.2,0c0.5-0.1,0.9-0.2,1.3-0.3c0,0,0.1,0,0.1,0c0.1,0,0.3-0.1,0.4-0.1c0,0,0,0,0.1,0
		c0.1-0.1,0.3-0.2,0.3-0.3c0,0,0,0,0,0c0-0.1,0.1-0.1,0.1-0.2V107.9z M61.5,107.9"/>
	<path class="st8" d="M61.5,104.3c0,0.1-0.1,0.2-0.1,0.2c0,0,0,0,0,0c-0.1,0.1-0.2,0.2-0.4,0.3c0,0,0,0-0.1,0
		c-0.1,0.1-0.3,0.1-0.4,0.1c0,0-0.1,0-0.1,0c-0.5,0.1-1,0.2-1.5,0.2c-0.1,0-0.1,0-0.2,0c-1-0.1-2-0.4-2.9-0.8
		c-0.2-0.1-0.4-0.1-0.6-0.2c-1.2-0.4-2.3-0.9-3.5-1.3c-0.4-0.1-0.7-0.3-1.1-0.4c-1.2-0.4-2.4-0.8-3.6-0.8c-0.2,0-0.5,0-0.7,0.1
		c-0.3,0-0.7,0.1-1,0.2c-0.3,0.1-0.5,0.2-0.8,0.4c-0.2,0.2-0.5,0.3-0.7,0.6c-0.2,0.2-0.4,0.5-0.5,0.8c-0.2,0.5-0.3,1-0.3,1.5
		l0.1,1.9c0-0.5,0.1-1,0.4-1.4c0.2-0.3,0.4-0.5,0.6-0.7c0.2-0.2,0.5-0.3,0.7-0.5c0.2-0.1,0.5-0.2,0.8-0.3c0.3-0.1,0.6-0.1,1-0.1
		c0.2,0,0.5,0,0.7,0c1.2,0,2.4,0.4,3.5,0.8c0.3,0.1,0.7,0.3,1,0.4c1.1,0.4,2.2,0.9,3.4,1.2c0.2,0.1,0.4,0.1,0.6,0.2
		c0.9,0.3,1.9,0.6,2.9,0.6c0.1,0,0.1,0,0.2,0c0.5,0,0.9-0.1,1.4-0.2c0,0,0.1,0,0.1,0c0.1,0,0.3-0.1,0.4-0.1c0,0,0,0,0.1,0
		c0.1-0.1,0.3-0.2,0.4-0.3c0,0,0,0,0,0c0.1-0.1,0.1-0.2,0.1-0.2V104.3z M61.5,104.3"/>
	<path class="st9" d="M61.5,105c0,0.1-0.1,0.2-0.1,0.2c0,0,0,0,0,0c-0.1,0.1-0.2,0.2-0.4,0.3c0,0,0,0-0.1,0
		c-0.1,0.1-0.3,0.1-0.4,0.1c0,0-0.1,0-0.1,0c-0.5,0.1-1,0.2-1.4,0.2c-0.1,0-0.1,0-0.2,0c-1,0-2-0.4-2.9-0.7
		c-0.2-0.1-0.4-0.1-0.6-0.2c-1.1-0.4-2.3-0.8-3.4-1.3c-0.4-0.1-0.7-0.3-1.1-0.4c-1.2-0.4-2.4-0.8-3.6-0.8c-0.2,0-0.5,0-0.7,0
		c-0.3,0-0.6,0.1-1,0.2c-0.3,0.1-0.5,0.2-0.8,0.3c-0.3,0.1-0.5,0.3-0.7,0.5c-0.2,0.2-0.4,0.5-0.5,0.8c-0.2,0.5-0.3,1-0.3,1.5
		l0.3,3.8c0-0.5,0.2-1,0.5-1.3c0.2-0.2,0.4-0.4,0.7-0.6c0.2-0.1,0.5-0.3,0.8-0.3c0.3-0.1,0.5-0.1,0.8-0.2c0.3,0,0.6,0,0.9,0
		c0.2,0,0.5,0,0.7,0.1c1.2,0.1,2.3,0.5,3.4,0.9c0.3,0.1,0.7,0.3,1,0.4c1.1,0.4,2.2,0.9,3.3,1.2c0.2,0.1,0.4,0.1,0.6,0.2
		c0.9,0.2,1.9,0.4,2.8,0.3c0.1,0,0.1,0,0.2,0c0.5-0.1,0.9-0.1,1.4-0.3c0,0,0.1,0,0.1,0c0.1,0,0.3-0.1,0.4-0.1c0,0,0,0,0.1,0
		c0.1-0.1,0.3-0.2,0.3-0.3c0,0,0,0,0,0c0-0.1,0.1-0.1,0.1-0.2V105z M61.5,105"/>
	<path class="st5" d="M61.5,106.4c0,0.1-0.1,0.2-0.1,0.2c0,0,0,0,0,0c-0.1,0.1-0.2,0.2-0.4,0.3c0,0,0,0-0.1,0
		c-0.1,0.1-0.3,0.1-0.4,0.1c0,0-0.1,0-0.1,0c-0.5,0.1-0.9,0.2-1.4,0.2c-0.1,0-0.1,0-0.2,0c-1,0-1.9-0.3-2.9-0.6
		c-0.2-0.1-0.4-0.1-0.6-0.2c-1.1-0.4-2.3-0.8-3.4-1.2c-0.3-0.1-0.7-0.3-1-0.4c-1.1-0.4-2.3-0.8-3.5-0.8c-0.2,0-0.5,0-0.7,0
		c-0.3,0-0.6,0.1-1,0.1c-0.3,0.1-0.5,0.2-0.8,0.3c-0.3,0.1-0.5,0.3-0.7,0.5c-0.2,0.2-0.4,0.4-0.6,0.7c-0.3,0.4-0.4,0.9-0.4,1.4
		l0.1,1.3c0-0.5,0.2-1,0.5-1.4c0.2-0.2,0.4-0.5,0.6-0.6c0.2-0.2,0.5-0.3,0.7-0.4c0.2-0.1,0.5-0.2,0.8-0.2c0.3-0.1,0.6-0.1,0.9-0.1
		c0.2,0,0.5,0,0.7,0c1.2,0.1,2.3,0.4,3.5,0.8c0.3,0.1,0.7,0.3,1,0.4c1.1,0.4,2.2,0.9,3.3,1.2c0.2,0.1,0.4,0.1,0.6,0.2
		c0.9,0.3,1.9,0.5,2.9,0.4c0.1,0,0.1,0,0.2,0c0.5,0,0.9-0.1,1.4-0.2c0,0,0.1,0,0.1,0c0.1,0,0.3-0.1,0.4-0.1c0,0,0,0,0.1,0
		c0.1-0.1,0.3-0.2,0.4-0.3c0,0,0,0,0,0c0.1-0.1,0.1-0.2,0.1-0.2V106.4z M61.5,106.4"/>
	<path class="st9" d="M61.5,107.4c0,0.1-0.1,0.2-0.1,0.2c0,0,0,0,0,0c-0.1,0.1-0.2,0.2-0.4,0.3c0,0,0,0-0.1,0
		c-0.1,0.1-0.3,0.1-0.4,0.1c0,0-0.1,0-0.1,0c-0.5,0.1-0.9,0.2-1.4,0.2c-0.1,0-0.1,0-0.2,0c0,0,0,0,0,0c-1,0-1.9-0.2-2.9-0.5
		c0,0,0,0,0,0c-0.2-0.1-0.4-0.1-0.6-0.2v0c-1.1-0.4-2.2-0.8-3.3-1.2c0,0,0,0,0,0c-0.3-0.1-0.7-0.3-1-0.4c0,0,0,0,0,0
		c-1.1-0.4-2.3-0.8-3.5-0.8c0,0,0,0,0,0c-0.2,0-0.5,0-0.7,0c0,0,0,0,0,0c-0.3,0-0.6,0-0.9,0.1c0,0,0,0,0,0c-0.3,0.1-0.5,0.1-0.8,0.2
		c0,0,0,0,0,0c-0.3,0.1-0.5,0.2-0.7,0.4l0,0c-0.2,0.2-0.4,0.4-0.6,0.7c0,0,0,0,0,0c-0.3,0.4-0.4,0.9-0.4,1.4l0-0.4
		c0-0.5,0.2-1,0.4-1.4v0c0.2-0.3,0.4-0.5,0.6-0.7c0,0,0,0,0,0c0.2-0.2,0.5-0.3,0.7-0.4c0,0,0,0,0,0c0.2-0.1,0.5-0.2,0.8-0.3
		c0,0,0,0,0,0c0.3-0.1,0.6-0.1,0.9-0.1c0,0,0,0,0,0c0.2,0,0.5,0,0.7,0c0,0,0,0,0,0c1.2,0.1,2.4,0.4,3.5,0.8l0,0
		c0.3,0.1,0.7,0.3,1,0.4c0,0,0,0,0,0c1.1,0.4,2.2,0.9,3.4,1.2h0c0.2,0.1,0.4,0.1,0.6,0.2c0.9,0.3,1.9,0.5,2.9,0.5c0.1,0,0.1,0,0.2,0
		c0.5,0,0.9-0.1,1.4-0.2c0,0,0.1,0,0.1,0c0.1,0,0.3-0.1,0.4-0.1c0,0,0,0,0,0c0,0,0,0,0.1,0c0.1-0.1,0.3-0.2,0.4-0.3c0,0,0,0,0,0
		c0.1-0.1,0.1-0.2,0.1-0.2V107.4z M61.5,107.4"/>
	<g>
		<defs>
			<rect id="SVGID_6_" x="24.5" y="11.8" width="76.4" height="100.2"/>
		</defs>
		<clipPath id="SVGID_7_">
			<use xlink:href="#SVGID_6_"  style="overflow:visible;"/>
		</clipPath>
		<path class="st10" d="M61.5,103.6c0,0.1-0.1,0.2-0.1,0.2c0,0,0,0,0,0c-0.1,0.1-0.2,0.2-0.4,0.3c0,0,0,0-0.1,0
			c-0.1,0.1-0.3,0.1-0.4,0.1c0,0-0.1,0-0.1,0c-0.5,0.1-1,0.2-1.5,0.1c-0.1,0-0.1,0-0.2,0c-1-0.1-2-0.5-2.9-0.8
			c-0.2-0.1-0.4-0.2-0.6-0.2c-1.2-0.4-2.3-0.9-3.5-1.3c-0.4-0.1-0.7-0.3-1.1-0.4c-1.2-0.4-2.4-0.8-3.7-0.8c-0.2,0-0.5,0-0.7,0.1
			c-0.3,0.1-0.7,0.1-1,0.3c-0.3,0.1-0.5,0.2-0.7,0.4c-0.2,0.2-0.5,0.4-0.7,0.6c-0.2,0.2-0.4,0.5-0.5,0.8c-0.2,0.5-0.3,1-0.2,1.5
			l0.5,6.4c0.1-0.5,0.3-0.9,0.6-1.3c0.2-0.2,0.5-0.4,0.7-0.5c0.2-0.1,0.5-0.2,0.8-0.3c0.3-0.1,0.5-0.1,0.8-0.1c0.3,0,0.6,0,0.9,0
			c0.2,0,0.4,0,0.7,0.1c1.1,0.2,2.2,0.5,3.3,0.9c0.3,0.1,0.7,0.2,1,0.4c1.1,0.4,2.1,0.8,3.2,1.1c0.2,0,0.4,0.1,0.6,0.1
			c0.9,0.2,1.9,0.3,2.8,0.2c0.1,0,0.1,0,0.2,0c0.4-0.1,0.9-0.2,1.3-0.3c0,0,0.1,0,0.1,0c0.1,0,0.3-0.1,0.4-0.1c0,0,0,0,0.1,0
			c0.1-0.1,0.3-0.2,0.3-0.3c0,0,0,0,0,0c0-0.1,0.1-0.1,0.1-0.2V103.6z M61.5,103.6"/>
	</g>
	<path class="st1" d="M44.3,105.3c0.3-0.4,0.7-0.7,1.1-0.9c0.2-0.1,0.4-0.2,0.6-0.3c0.2-0.1,0.4-0.1,0.6,0c0.1,0,0.3,0.1,0.4,0.2
		c0.1,0.1,0.2,0.2,0.3,0.4c0,0,0,0.1,0,0.1c0,0,0,0.1,0,0.1l-0.7,1.7c0-0.1,0-0.1,0-0.2c0-0.2-0.1-0.3-0.2-0.4
		c-0.1-0.1-0.3-0.1-0.4-0.2c-0.4-0.1-0.8,0.1-1.2,0.3c-0.4,0.2-0.8,0.6-1.1,0.9L44.3,105.3z M44.3,105.3"/>
	<path class="st8" d="M43.6,106.9c0.3-0.4,0.7-0.7,1.1-0.9c0.4-0.2,0.8-0.3,1.2-0.3c0.2,0,0.3,0.1,0.4,0.2c0.1,0.1,0.2,0.2,0.2,0.4
		c0,0.1,0,0.1,0,0.2l0.3-0.7c0,0,0-0.1,0-0.1c0,0,0-0.1,0-0.1c0-0.1-0.1-0.3-0.3-0.4c-0.1-0.1-0.3-0.1-0.4-0.2c-0.2,0-0.4,0-0.6,0
		c-0.2,0.1-0.4,0.1-0.6,0.3c-0.4,0.2-0.8,0.6-1.1,0.9L43.6,106.9z M43.6,106.9"/>
	<path class="st4" d="M44.3,105.3c0.3-0.4,0.7-0.7,1.1-0.9c0.4-0.2,0.8-0.3,1.2-0.3c0.2,0,0.3,0.1,0.4,0.2c0.1,0.1,0.2,0.2,0.2,0.4
		c0,0.1,0,0.1,0,0.2"/>
	<path class="st1" d="M27.9,40.2c-0.5,0.2-1,0.5-1.4,0.9c0,0-0.1,0.1-0.1,0.1c-0.3,0.4-0.6,0.8-0.7,1.3c0,0.1,0,0.2-0.1,0.3
		c-0.1,0.6-0.1,1.2,0.1,1.8c0,0.1,0.1,0.3,0.1,0.4c0.2,0.5,0.5,1,0.8,1.5c0.1,0.2,0.2,0.3,0.3,0.5c0.8,1.2,1.8,2.3,2.6,3.6
		c0.2,0.3,0.3,0.6,0.5,0.9c0.7,1.2,1.1,2.6,1.1,4c0,0.5,0,1-0.1,1.4c-0.1,0.6-0.2,1.2-0.5,1.7c-0.4,1-1,1.9-1.8,2.7
		c-0.6,0.6-1.3,1.1-2,1.4l7.3,0.4c0.9,0,1.8-0.4,2.5-0.9c0.9-0.7,1.6-1.7,2-2.8c0.2-0.6,0.3-1.2,0.4-1.9c0.1-0.5,0.1-1,0.1-1.6
		c0-1.5-0.1-3-0.6-4.5c-0.1-0.3-0.3-0.7-0.4-1c-0.7-1.4-1.7-2.6-2.7-3.9c-0.1-0.2-0.3-0.3-0.4-0.5c-0.3-0.5-0.7-1-0.9-1.6
		c-0.1-0.1-0.1-0.3-0.2-0.4c-0.2-0.6-0.3-1.3-0.3-2c0-0.1,0-0.2,0-0.3c0.1-0.5,0.3-1,0.7-1.4c0,0,0.1-0.1,0.1-0.1
		c0.4-0.4,0.9-0.8,1.4-1L27.9,40.2z M27.9,40.2"/>
	<path class="st8" d="M35.2,39.3c-0.5,0.2-1,0.5-1.4,0.9c0,0-0.1,0.1-0.1,0.1c-0.3,0.4-0.6,0.9-0.7,1.4c0,0.1,0,0.2,0,0.3
		c-0.1,0.7,0,1.3,0.2,2c0.1,0.1,0.1,0.3,0.2,0.4c0.2,0.6,0.6,1.1,0.9,1.6c0.1,0.2,0.2,0.3,0.4,0.5c0.9,1.3,2,2.5,2.7,3.9
		c0.2,0.3,0.3,0.6,0.4,1c0.5,1.4,0.7,2.9,0.7,4.4c0,0.5,0,1-0.1,1.6c-0.1,0.6-0.2,1.2-0.4,1.8c-0.4,1.1-1,2.1-2,2.8
		c-0.7,0.5-1.6,0.8-2.4,0.9l-2.2-0.1c0.8-0.2,1.6-0.6,2.3-1.1c0.9-0.7,1.5-1.7,1.9-2.7c0.2-0.6,0.4-1.2,0.4-1.8
		c0.1-0.5,0.1-1,0.1-1.5c0-1.5-0.3-2.9-0.8-4.3c-0.1-0.3-0.3-0.6-0.4-0.9C34,49.1,33,48,32.1,46.7c-0.1-0.2-0.2-0.3-0.4-0.5
		c-0.3-0.5-0.6-1-0.9-1.6c-0.1-0.1-0.1-0.3-0.2-0.4c-0.2-0.6-0.3-1.3-0.2-1.9c0-0.1,0-0.2,0.1-0.3c0.1-0.5,0.4-1,0.7-1.4
		c0,0,0.1-0.1,0.1-0.1c0.4-0.4,0.9-0.7,1.4-0.9L35.2,39.3z M35.2,39.3"/>
	<path class="st2" d="M31.2,39.8c-0.5,0.2-1,0.5-1.4,0.9c0,0-0.1,0.1-0.1,0.1c-0.3,0.4-0.6,0.9-0.7,1.4c0,0.1,0,0.2-0.1,0.3
		c-0.1,0.6,0,1.3,0.2,1.9c0,0.1,0.1,0.3,0.1,0.4c0.2,0.5,0.5,1.1,0.8,1.5c0.1,0.2,0.2,0.3,0.3,0.5c0.9,1.2,1.9,2.4,2.6,3.7
		c0.2,0.3,0.3,0.6,0.5,0.9c0.6,1.3,0.9,2.8,0.9,4.2c0,0.5,0,1-0.1,1.5c-0.1,0.6-0.2,1.2-0.4,1.8c-0.4,1-1,2-1.9,2.7
		c-0.6,0.6-1.4,1-2.2,1.2l-2.2-0.1c0.8-0.3,1.4-0.8,2-1.4c0.8-0.7,1.4-1.7,1.8-2.7c0.2-0.6,0.4-1.1,0.5-1.7c0.1-0.5,0.1-1,0.1-1.5
		c0-1.4-0.4-2.8-1.1-4.1c-0.2-0.3-0.3-0.6-0.5-0.9c-0.8-1.3-1.7-2.4-2.6-3.6c-0.1-0.2-0.2-0.3-0.3-0.5c-0.3-0.5-0.6-1-0.8-1.5
		c0-0.1-0.1-0.3-0.1-0.4c-0.2-0.6-0.2-1.2-0.1-1.9c0-0.1,0-0.2,0.1-0.3c0.1-0.5,0.4-0.9,0.7-1.3c0,0,0.1-0.1,0.1-0.1
		c0.4-0.4,0.8-0.7,1.4-0.9L31.2,39.8z M31.2,39.8"/>
	<path class="st9" d="M34.4,39.4c-0.5,0.2-1,0.5-1.4,0.9c0,0-0.1,0.1-0.1,0.1c-0.3,0.4-0.6,0.9-0.7,1.4c0,0.1,0,0.2,0,0.3
		c-0.1,0.7,0,1.3,0.2,2c0,0.1,0.1,0.3,0.2,0.4c0.2,0.6,0.5,1.1,0.9,1.6c0.1,0.2,0.2,0.3,0.4,0.5c0.9,1.3,2,2.5,2.7,3.9
		c0.2,0.3,0.3,0.6,0.4,1c0.5,1.4,0.7,2.9,0.7,4.4c0,0.5,0,1-0.1,1.5c-0.1,0.6-0.2,1.2-0.4,1.8c-0.4,1.1-1,2.1-1.9,2.8
		c-0.7,0.5-1.5,0.9-2.4,1l-4.4-0.2c0.8-0.3,1.5-0.7,2.1-1.3c0.8-0.7,1.4-1.7,1.8-2.7c0.2-0.6,0.4-1.1,0.5-1.7c0.1-0.5,0.1-1,0.1-1.5
		c0-1.4-0.4-2.8-1-4.1c-0.1-0.3-0.3-0.6-0.5-0.9c-0.8-1.3-1.7-2.4-2.6-3.7c-0.1-0.2-0.2-0.3-0.3-0.5c-0.3-0.5-0.6-1-0.8-1.5
		c-0.1-0.1-0.1-0.3-0.1-0.4c-0.2-0.6-0.2-1.3-0.1-1.9c0-0.1,0-0.2,0.1-0.3c0.1-0.5,0.4-0.9,0.7-1.3c0,0,0.1-0.1,0.1-0.1
		c0.4-0.4,0.9-0.7,1.4-0.9L34.4,39.4z M34.4,39.4"/>
	<path class="st5" d="M32.8,39.6c-0.5,0.2-1,0.5-1.4,0.9c0,0-0.1,0.1-0.1,0.1c-0.3,0.4-0.6,0.9-0.7,1.4c0,0.1,0,0.2-0.1,0.3
		c-0.1,0.6,0,1.3,0.2,1.9c0,0.1,0.1,0.3,0.2,0.4c0.2,0.5,0.5,1.1,0.9,1.6c0.1,0.2,0.2,0.3,0.4,0.5c0.9,1.3,1.9,2.4,2.6,3.8
		c0.2,0.3,0.3,0.6,0.4,0.9c0.6,1.3,0.8,2.8,0.8,4.3c0,0.5,0,1-0.1,1.5c-0.1,0.6-0.2,1.2-0.4,1.8c-0.4,1.1-1,2-1.9,2.7
		c-0.7,0.5-1.5,0.9-2.3,1.1l-1.5-0.1c0.8-0.2,1.5-0.6,2.2-1.2c0.8-0.7,1.5-1.7,1.9-2.7c0.2-0.6,0.4-1.2,0.4-1.8
		c0.1-0.5,0.1-1,0.1-1.5c0-1.4-0.3-2.9-0.9-4.2c-0.1-0.3-0.3-0.6-0.5-0.9c-0.7-1.3-1.7-2.5-2.6-3.7c-0.1-0.2-0.2-0.3-0.3-0.5
		c-0.3-0.5-0.6-1-0.8-1.5c-0.1-0.1-0.1-0.3-0.1-0.4c-0.2-0.6-0.3-1.3-0.2-1.9c0-0.1,0-0.2,0.1-0.3c0.1-0.5,0.4-1,0.7-1.4
		c0,0,0.1-0.1,0.1-0.1c0.4-0.4,0.9-0.7,1.4-0.9L32.8,39.6z M32.8,39.6"/>
	<path class="st4" d="M27.9,40.2c-0.4,0.2-1,0.5-1.4,0.9c0,0-0.1,0.1-0.1,0.1c-0.3,0.4-0.6,0.8-0.7,1.3c0,0.1,0,0.2-0.1,0.3
		c-0.1,0.6-0.1,1.2,0.1,1.8c0,0.1,0.1,0.3,0.1,0.4c0.2,0.5,0.5,1,0.8,1.5c0.1,0.2,0.2,0.3,0.3,0.5c0.8,1.2,1.8,2.3,2.6,3.6
		c0.2,0.3,0.3,0.6,0.5,0.9c0.7,1.2,1.1,2.6,1.1,4c0,0.5,0,1-0.1,1.4c-0.1,0.6-0.2,1.2-0.5,1.7c-0.4,1-1,1.9-1.8,2.7
		c-0.6,0.6-1.3,1.1-2,1.4l8.2,0.3c0.3,0,1.1-0.4,1.6-0.8c0.9-0.7,1.6-1.7,2-2.8c0.2-0.6,0.3-1.2,0.4-1.9c0.1-0.5,0.1-1,0.1-1.6
		c0-1.5-0.1-3-0.6-4.5c-0.1-0.3-0.3-0.7-0.4-1c-0.7-1.4-1.7-2.6-2.7-3.9c-0.1-0.2-0.3-0.3-0.4-0.5c-0.3-0.5-0.7-1-0.9-1.6
		c-0.1-0.1-0.1-0.3-0.2-0.4c-0.2-0.6-0.3-1.3-0.3-2c0-0.1,0-0.2,0-0.3c0.1-0.5,0.3-1,0.7-1.4c0,0,0.1-0.1,0.1-0.1
		c0.4-0.4,0.9-0.8,1.4-1L27.9,40.2z M27.9,40.2"/>
	<path class="st9" d="M32.2,39.7c-0.5,0.2-1,0.5-1.4,0.9c0,0-0.1,0.1-0.1,0.1c-0.3,0.4-0.6,0.9-0.7,1.4c0,0,0,0,0,0
		c0,0.1,0,0.2-0.1,0.3c-0.1,0.6,0,1.3,0.2,1.9c0,0,0,0,0,0c0,0.1,0.1,0.3,0.2,0.4c0.2,0.5,0.5,1.1,0.8,1.5c0.1,0.2,0.2,0.3,0.4,0.5
		h0c0.9,1.2,1.9,2.4,2.6,3.8c0,0,0,0,0,0c0.2,0.3,0.3,0.6,0.5,0.9c0,0,0,0,0,0c0.6,1.3,0.8,2.8,0.9,4.3c0,0,0,0,0,0
		c0,0.5,0,1-0.1,1.5v0c-0.1,0.6-0.2,1.2-0.4,1.8c0,0,0,0,0,0c-0.4,1-1,2-1.9,2.7c0,0,0,0,0,0c-0.7,0.5-1.4,0.9-2.2,1.1l-0.5,0
		c0.8-0.2,1.6-0.6,2.2-1.2c0,0,0,0,0,0c0.8-0.7,1.5-1.7,1.9-2.7c0,0,0,0,0,0c0.2-0.6,0.4-1.2,0.4-1.8c0.1-0.5,0.1-1,0.1-1.5
		c0,0,0,0,0,0c0-1.4-0.3-2.9-0.9-4.2c0,0,0,0,0,0c-0.1-0.3-0.3-0.6-0.5-0.9c-0.7-1.3-1.7-2.5-2.6-3.7c0,0,0,0,0,0
		c-0.1-0.2-0.2-0.3-0.3-0.5c0,0,0,0,0,0c-0.3-0.5-0.6-1-0.8-1.5c-0.1-0.1-0.1-0.3-0.1-0.4v0c-0.2-0.6-0.3-1.3-0.2-1.9
		c0-0.1,0-0.2,0.1-0.3c0.1-0.5,0.4-1,0.7-1.4c0,0,0.1-0.1,0.1-0.1c0.4-0.4,0.9-0.7,1.4-0.9L32.2,39.7z M32.2,39.7"/>
	<path class="st1" d="M35.4,42.3c-0.1,0.1-0.3,0.2-0.4,0.3c-0.3,0.1-0.5,0.1-0.8,0c0,0,0,0,0,0c-0.3-0.1-0.5-0.2-0.8-0.3
		c0,0,0,0,0,0c-1.1-0.5-2-1.3-3.1-1.7c0,0-0.1,0-0.1,0c-1.1-0.3-2.2-0.3-3.2,0.2l7.4-4.2c0.8-0.4,1.8-0.4,2.6,0c0,0,0.1,0,0.1,0.1
		c0.9,0.4,1.5,1.2,2.3,1.8c0,0,0,0,0,0c0.2,0.1,0.4,0.2,0.6,0.3c0,0,0,0,0,0c0.2,0.1,0.4,0.1,0.7,0c0.1,0,0.3-0.1,0.3-0.2L35.4,42.3
		z M35.4,42.3"/>
	<path class="st8" d="M31.3,38.3c0.9-0.4,2-0.4,2.9-0.1c0,0,0.1,0,0.1,0c1,0.4,1.7,1.2,2.6,1.7c0,0,0,0,0,0c0.2,0.1,0.4,0.2,0.6,0.3
		c0,0,0,0,0,0c0.2,0.1,0.5,0.1,0.7,0c0.1,0,0.3-0.1,0.4-0.2l1.7-1.1c-0.1,0.1-0.2,0.2-0.4,0.2c0,0,0,0,0,0c-0.2,0.1-0.5,0.1-0.7,0
		c0,0,0,0,0,0c-0.2-0.1-0.4-0.2-0.6-0.3c0,0,0,0,0,0c-0.8-0.6-1.5-1.3-2.4-1.8c0,0-0.1,0-0.1-0.1c-0.8-0.4-1.9-0.4-2.7,0L31.3,38.3z
		 M31.3,38.3"/>
	<path class="st2" d="M29.8,39.1c0.9-0.4,2-0.4,3-0.1c0,0,0.1,0,0.1,0c1,0.4,1.8,1.2,2.8,1.7c0,0,0,0,0,0c0.2,0.1,0.4,0.2,0.7,0.3
		c0,0,0,0,0,0c0.2,0.1,0.5,0.1,0.7,0c0,0,0,0,0,0c0.1-0.1,0.3-0.1,0.4-0.2L35.9,42c-0.1,0.1-0.3,0.2-0.4,0.2c0,0,0,0,0,0
		c-0.3,0.1-0.5,0.1-0.8,0c0,0,0,0,0,0c-0.3-0.1-0.5-0.2-0.7-0.3c0,0,0,0,0,0c-1-0.5-1.9-1.3-3-1.7c0,0-0.1,0-0.1,0
		c-1-0.3-2.2-0.3-3.2,0.2L29.8,39.1z M29.8,39.1"/>
	<path class="st9" d="M32.8,37.4c0.9-0.4,1.9-0.4,2.8,0c0,0,0.1,0,0.1,0.1c0.9,0.4,1.6,1.2,2.5,1.8c0,0,0,0,0,0
		c0.2,0.1,0.4,0.2,0.6,0.3c0,0,0,0,0,0c0.2,0.1,0.5,0.1,0.7,0c0,0,0,0,0,0c0.1,0,0.3-0.1,0.4-0.2l-3.3,2.3c-0.1,0.1-0.3,0.2-0.4,0.2
		h0c-0.2,0.1-0.5,0.1-0.8,0c0,0,0,0,0,0c-0.3-0.1-0.5-0.2-0.7-0.3c0,0,0,0,0,0c-1-0.5-1.9-1.3-3-1.7c0,0-0.1,0-0.1,0
		c-1-0.3-2.1-0.3-3.1,0.1L32.8,37.4z M32.8,37.4"/>
	<path class="st5" d="M29.8,39.1c0.9-0.4,2-0.4,3-0.1c0,0,0.1,0,0.1,0c1,0.4,1.8,1.2,2.8,1.7c0,0,0,0,0,0c0.2,0.1,0.4,0.2,0.7,0.3
		c0,0,0,0,0,0c0.2,0.1,0.5,0.1,0.7,0c0,0,0,0,0,0c0.1-0.1,0.3-0.1,0.4-0.2l1.1-0.8c-0.1,0.1-0.2,0.2-0.4,0.2c-0.2,0.1-0.5,0.1-0.7,0
		c0,0,0,0,0,0c-0.2-0.1-0.4-0.2-0.6-0.3c0,0,0,0,0,0c-0.9-0.5-1.7-1.3-2.6-1.7c0,0-0.1,0-0.1,0c-0.9-0.4-2-0.3-2.9,0.1L29.8,39.1z
		 M29.8,39.1"/>
	<path class="st9" d="M30.8,38.5c0.9-0.4,2-0.4,2.9-0.1c0,0,0.1,0,0.1,0c1,0.4,1.8,1.2,2.7,1.7c0,0,0,0,0,0c0.2,0.1,0.4,0.2,0.7,0.3
		c0,0,0,0,0,0c0.2,0.1,0.5,0.1,0.7,0c0.1-0.1,0.3-0.1,0.4-0.2l-0.4,0.3c-0.1,0.1-0.2,0.2-0.4,0.2c-0.2,0.1-0.5,0.1-0.7,0
		c0,0,0,0,0,0c-0.2-0.1-0.5-0.2-0.7-0.3c0,0,0,0,0,0c-0.9-0.5-1.7-1.3-2.7-1.7c0,0-0.1,0-0.1,0v0c-0.9-0.3-2-0.3-3,0.1L30.8,38.5z
		 M30.8,38.5"/>
	<path class="st4" d="M35.4,42.3c-0.1,0.1-0.3,0.2-0.4,0.3c-0.3,0.1-0.5,0.1-0.8,0c0,0,0,0,0,0c-0.3-0.1-0.5-0.2-0.8-0.3
		c0,0,0,0,0,0c-1.1-0.5-2-1.3-3.1-1.7c0,0-0.1,0-0.1,0c-1.1-0.3-2.2-0.3-3.2,0.2l7.4-4.2c0.8-0.4,1.8-0.4,2.6,0c0,0,0.1,0,0.1,0.1
		c0.9,0.4,1.5,1.2,2.3,1.8c0,0,0,0,0,0c0.2,0.1,0.4,0.2,0.6,0.3c0,0,0,0,0,0c0.2,0.1,0.4,0.1,0.7,0c0.1,0,0.3-0.1,0.3-0.2L35.4,42.3
		z M35.4,42.3"/>
	<path class="st1" d="M31.4,34.1c-0.3,0.1-0.6,0.4-0.8,0.7c0,0,0,0.1-0.1,0.1c-0.1,0.3-0.2,0.6-0.2,0.9c0,0.1,0,0.2,0,0.3
		c0,0.3,0.2,0.6,0.3,0.8c0,0.1,0.1,0.1,0.1,0.2c0.2,0.2,0.4,0.5,0.6,0.7c0,0,0.1,0.1,0.1,0.1c0.6,0.4,1.2,0.7,1.8,1.1
		c0,0,0.1,0,0.1,0.1c0.7,0.5,1.4,1.1,1.8,1.8c0,0,0,0,0,0c0.2,0.3,0.3,0.6,0.3,0.9c0,0,0,0,0,0c0,0.3-0.1,0.5-0.3,0.7l5.6-3.8
		c0.1-0.2,0.2-0.4,0.2-0.6c0,0,0,0,0,0c0-0.3-0.1-0.5-0.2-0.7c0,0,0,0,0,0c-0.3-0.6-0.9-1.1-1.4-1.5c0,0,0,0-0.1,0
		c-0.5-0.3-1-0.6-1.4-1c0,0-0.1-0.1-0.1-0.1c-0.2-0.2-0.3-0.4-0.5-0.6c0-0.1-0.1-0.1-0.1-0.2c-0.1-0.2-0.1-0.5-0.1-0.7
		c0-0.1,0-0.1,0-0.2c0.1-0.2,0.2-0.5,0.3-0.7c0,0,0-0.1,0.1-0.1c0.2-0.2,0.5-0.3,0.8-0.4"/>
	<path class="st2" d="M34.2,33.1c-0.3,0.1-0.6,0.3-0.8,0.5c0,0,0,0.1-0.1,0.1c-0.2,0.2-0.2,0.5-0.3,0.8c0,0.1,0,0.2,0,0.2
		c0,0.3,0.1,0.5,0.2,0.8c0,0.1,0.1,0.1,0.1,0.2c0.2,0.2,0.4,0.4,0.6,0.6c0,0,0.1,0.1,0.1,0.1c0.5,0.4,1.1,0.7,1.7,1
		c0,0,0.1,0,0.1,0.1c0.7,0.4,1.3,1,1.7,1.7c0,0,0,0,0,0c0.2,0.3,0.3,0.5,0.3,0.8c0,0,0,0,0,0c0,0.2-0.1,0.5-0.2,0.7l-1.7,1.2
		c0.2-0.2,0.3-0.4,0.3-0.7c0,0,0,0,0,0c0-0.3-0.2-0.6-0.3-0.9c0,0,0,0,0,0c-0.5-0.7-1.1-1.3-1.8-1.8c0,0-0.1,0-0.1-0.1
		c-0.6-0.4-1.2-0.7-1.8-1.1c0,0-0.1-0.1-0.1-0.1c-0.2-0.2-0.5-0.4-0.6-0.7c0-0.1-0.1-0.1-0.1-0.2C31.2,36.2,31,36,31,35.7
		c0-0.1,0-0.2,0-0.3c0-0.3,0.1-0.6,0.2-0.9c0,0,0-0.1,0.1-0.1c0.2-0.3,0.5-0.5,0.8-0.6"/>
	<path class="st8" d="M37.7,32c-0.3,0.1-0.6,0.2-0.8,0.4c0,0,0,0.1-0.1,0.1c-0.2,0.2-0.3,0.4-0.3,0.7c0,0.1,0,0.1,0,0.2
		c0,0.2,0.1,0.5,0.2,0.7c0,0.1,0.1,0.1,0.1,0.2c0.1,0.2,0.3,0.4,0.5,0.6c0,0,0.1,0.1,0.1,0.1c0.4,0.4,1,0.7,1.5,1c0,0,0,0,0.1,0
		c0.6,0.4,1.1,0.9,1.5,1.6c0,0,0,0,0,0c0.1,0.2,0.2,0.5,0.2,0.8c0,0,0,0,0,0c0,0.2-0.1,0.4-0.2,0.6L38.7,40c0.2-0.2,0.2-0.4,0.2-0.6
		c0,0,0,0,0,0c0-0.3-0.1-0.6-0.3-0.8c0,0,0,0,0,0c-0.4-0.7-1-1.2-1.6-1.7c0,0,0,0-0.1,0c-0.5-0.3-1.1-0.6-1.6-1c0,0-0.1-0.1-0.1-0.1
		c-0.2-0.2-0.4-0.4-0.5-0.6c0-0.1-0.1-0.1-0.1-0.2c-0.1-0.2-0.2-0.5-0.2-0.8c0-0.1,0-0.2,0-0.2c0-0.3,0.1-0.5,0.3-0.7
		c0,0,0-0.1,0.1-0.1c0.2-0.2,0.5-0.4,0.8-0.5"/>
	<path class="st9" d="M37,32.2c-0.3,0.1-0.6,0.2-0.8,0.4c0,0,0,0.1-0.1,0.1c-0.2,0.2-0.3,0.4-0.3,0.7c0,0.1,0,0.1,0,0.2
		c0,0.3,0.1,0.5,0.2,0.7c0,0.1,0.1,0.1,0.1,0.2c0.1,0.2,0.3,0.4,0.5,0.6c0,0,0.1,0.1,0.1,0.1c0.5,0.4,1,0.7,1.5,1c0,0,0,0,0.1,0
		c0.6,0.4,1.2,0.9,1.5,1.6c0,0,0,0,0,0c0.1,0.2,0.2,0.5,0.2,0.8c0,0,0,0,0,0c0,0.2-0.1,0.4-0.2,0.6l-3.4,2.3
		c0.2-0.2,0.3-0.4,0.2-0.7c0,0,0,0,0,0c0-0.3-0.1-0.6-0.3-0.8c0,0,0,0,0,0c-0.4-0.7-1.1-1.3-1.8-1.8c0,0-0.1,0-0.1-0.1
		c-0.6-0.4-1.2-0.7-1.7-1.1c0,0-0.1-0.1-0.1-0.1c-0.2-0.2-0.4-0.4-0.6-0.6c0-0.1-0.1-0.1-0.1-0.2c-0.1-0.2-0.2-0.5-0.3-0.8
		c0-0.1,0-0.2,0-0.2c0-0.3,0.1-0.6,0.2-0.8c0,0,0-0.1,0.1-0.1c0.2-0.3,0.5-0.5,0.8-0.6"/>
	<path class="st5" d="M35.6,32.7c-0.3,0.1-0.6,0.3-0.8,0.5c0,0,0,0.1-0.1,0.1c-0.2,0.2-0.3,0.5-0.3,0.7c0,0.1,0,0.2,0,0.2
		c0,0.3,0.1,0.5,0.2,0.8c0,0.1,0.1,0.1,0.1,0.2c0.1,0.2,0.3,0.4,0.5,0.6c0,0,0.1,0.1,0.1,0.1c0.5,0.4,1.1,0.7,1.6,1c0,0,0,0,0.1,0
		c0.6,0.4,1.2,1,1.6,1.7c0,0,0,0,0,0c0.1,0.2,0.3,0.5,0.3,0.8c0,0,0,0,0,0c0,0.2-0.1,0.5-0.2,0.6l-1.1,0.8c0.2-0.2,0.2-0.4,0.2-0.7
		c0,0,0,0,0,0c0-0.3-0.1-0.6-0.3-0.8c0,0,0,0,0,0c-0.4-0.7-1-1.3-1.7-1.7c0,0,0,0-0.1-0.1c-0.5-0.4-1.1-0.6-1.7-1
		c0,0-0.1-0.1-0.1-0.1c-0.2-0.2-0.4-0.4-0.6-0.6c0-0.1-0.1-0.1-0.1-0.2c-0.1-0.2-0.2-0.5-0.2-0.8c0-0.1,0-0.2,0-0.2
		c0-0.3,0.1-0.6,0.3-0.8c0,0,0-0.1,0.1-0.1c0.2-0.3,0.5-0.4,0.8-0.5"/>
	<path class="st9" d="M35.1,32.8c-0.3,0.1-0.6,0.3-0.8,0.5c0,0,0,0,0,0c0,0,0,0.1-0.1,0.1c-0.2,0.2-0.3,0.5-0.3,0.8v0
		c0,0.1,0,0.2,0,0.2c0,0,0,0,0,0c0,0.3,0.1,0.5,0.2,0.8v0c0,0.1,0.1,0.1,0.1,0.2c0,0,0,0,0,0c0.2,0.2,0.3,0.4,0.6,0.6c0,0,0,0,0,0
		c0,0,0.1,0.1,0.1,0.1c0,0,0,0,0,0c0.5,0.4,1.1,0.7,1.6,1h0c0,0,0,0,0.1,0h0c0.6,0.4,1.2,1,1.6,1.7c0,0,0,0,0,0c0,0,0,0,0,0
		c0.1,0.2,0.3,0.5,0.3,0.8c0,0,0,0,0,0c0,0.2-0.1,0.5-0.2,0.6L38,40.5c0.2-0.2,0.2-0.4,0.2-0.6c0,0,0,0,0,0c0,0,0,0,0,0v0
		c0-0.3-0.1-0.6-0.3-0.8l0,0v0c-0.4-0.7-1-1.2-1.7-1.7c0,0,0,0,0,0c0,0,0,0-0.1,0c0,0,0,0,0,0c-0.5-0.4-1.1-0.6-1.6-1c0,0,0,0,0,0
		c0,0-0.1-0.1-0.1-0.1c-0.2-0.2-0.4-0.4-0.6-0.6c0,0,0,0,0,0c0-0.1-0.1-0.1-0.1-0.2c0,0,0,0,0,0c-0.1-0.2-0.2-0.5-0.2-0.8v0
		c0-0.1,0-0.2,0-0.2c0,0,0,0,0,0c0-0.3,0.1-0.5,0.3-0.8l0,0c0,0,0-0.1,0.1-0.1c0.2-0.2,0.5-0.4,0.8-0.5L35.1,32.8z M35.1,32.8"/>
	<path class="st4" d="M31.4,34.1c-0.3,0.1-0.6,0.4-0.8,0.7c0,0,0,0.1-0.1,0.1c-0.1,0.3-0.2,0.6-0.2,0.9c0,0.1,0,0.2,0,0.3
		c0,0.3,0.2,0.6,0.3,0.8c0,0.1,0.1,0.1,0.1,0.2c0.2,0.2,0.4,0.5,0.6,0.7c0,0,0.1,0.1,0.1,0.1c0.6,0.4,1.2,0.7,1.8,1.1
		c0,0,0.1,0,0.1,0.1c0.7,0.5,1.4,1.1,1.8,1.8c0,0,0,0,0,0c0.2,0.3,0.3,0.6,0.3,0.9c0,0,0,0,0,0c0,0.3-0.1,0.5-0.3,0.7l5.6-3.8
		c0.1-0.2,0.2-0.4,0.2-0.6c0,0,0,0,0,0c0-0.3-0.1-0.5-0.2-0.7c0,0,0,0,0,0c-0.3-0.6-0.9-1.1-1.4-1.5c0,0,0,0-0.1,0
		c-0.5-0.3-1-0.6-1.4-1c0,0-0.1-0.1-0.1-0.1c-0.2-0.2-0.3-0.4-0.5-0.6c0-0.1-0.1-0.1-0.1-0.2c-0.1-0.2-0.1-0.5-0.1-0.7
		c0-0.1,0-0.1,0-0.2c0.1-0.2,0.2-0.5,0.3-0.7c0,0,0-0.1,0.1-0.1c0.2-0.2,0.5-0.3,0.8-0.4L31.4,34.1z M31.4,34.1"/>
	<path class="st1" d="M31.4,34.1c0.3-0.2,0.6-0.3,1-0.3c0.6,0,1.1,0.2,1.6,0.5c0.4,0.2,0.9,0.4,1.3,0.7c0.6,0.4,1.2,0.8,1.8,1.2
		c0.3,0.2,0.5,0.4,0.8,0.6c0.8,0.7,1.6,1.5,2.5,2.3c0.2,0.2,0.4,0.3,0.6,0.5c1.1,0.9,2.2,1.6,3.4,2.2c1.9,1,3.8,1.8,5.8,2.5l4.6-4.2
		c-1.8-0.4-3.5-1-5.1-1.8c-1-0.5-2-1.1-3-1.8c-0.2-0.1-0.4-0.3-0.5-0.4c-0.8-0.6-1.5-1.2-2.2-1.9c-0.2-0.2-0.4-0.4-0.6-0.6
		c-0.4-0.4-0.9-0.9-1.4-1.2c-0.4-0.2-0.7-0.4-1.1-0.5c-0.5-0.1-0.9-0.2-1.4-0.2c-0.3,0-0.6,0-0.9,0.1"/>
	<path class="st8" d="M37.8,32c0.3-0.1,0.6-0.1,0.9-0.1c0.5,0,1,0.1,1.4,0.2c0.4,0.1,0.8,0.3,1.1,0.5c0.5,0.3,1,0.8,1.5,1.2
		c0.2,0.2,0.4,0.4,0.6,0.6c0.7,0.7,1.4,1.3,2.2,1.9c0.2,0.1,0.4,0.3,0.5,0.4c1,0.7,2,1.3,3,1.8c1.6,0.8,3.4,1.5,5.2,1.9l-1.4,1.3
		c-1.9-0.5-3.7-1.2-5.4-2.1c-1.1-0.6-2.2-1.2-3.2-2c-0.2-0.1-0.4-0.3-0.5-0.4c-0.8-0.6-1.5-1.3-2.3-2c-0.2-0.2-0.4-0.4-0.7-0.6
		c-0.5-0.4-1-0.9-1.6-1.2c-0.4-0.2-0.8-0.4-1.2-0.6c-0.5-0.2-1-0.3-1.5-0.3c-0.3,0-0.6,0.1-0.9,0.1"/>
	<path class="st2" d="M32.1,33.8c0.3-0.2,0.6-0.2,0.9-0.2c0.6,0,1.1,0.2,1.6,0.4c0.4,0.2,0.9,0.4,1.3,0.7c0.6,0.4,1.2,0.8,1.8,1.2
		c0.3,0.2,0.5,0.4,0.8,0.6c0.8,0.7,1.6,1.5,2.5,2.2c0.2,0.2,0.4,0.3,0.6,0.5c1,0.8,2.2,1.5,3.4,2.2c1.8,1,3.8,1.8,5.8,2.4l1.4-1.3
		c-1.9-0.5-3.8-1.3-5.6-2.2c-1.1-0.6-2.2-1.3-3.2-2.1c-0.2-0.1-0.4-0.3-0.6-0.5c-0.8-0.7-1.6-1.4-2.4-2.1c-0.2-0.2-0.5-0.4-0.7-0.6
		c-0.5-0.4-1.1-0.9-1.7-1.2c-0.4-0.2-0.8-0.4-1.2-0.6c-0.5-0.2-1-0.4-1.5-0.4c-0.3,0-0.6,0.1-0.9,0.2"/>
	<path class="st9" d="M37.1,32.2c0.3-0.1,0.6-0.1,0.9-0.1c0.5,0,1,0.1,1.5,0.3c0.4,0.1,0.8,0.3,1.2,0.5c0.6,0.3,1,0.8,1.5,1.2
		c0.2,0.2,0.4,0.4,0.6,0.6c0.7,0.7,1.5,1.4,2.2,2c0.2,0.1,0.4,0.3,0.5,0.4c1,0.7,2,1.3,3.1,1.9c1.7,0.9,3.4,1.5,5.3,2l-2.8,2.5
		c-2-0.6-3.9-1.4-5.7-2.4c-1.2-0.6-2.3-1.3-3.3-2.1c-0.2-0.2-0.4-0.3-0.6-0.5c-0.8-0.7-1.6-1.5-2.4-2.2c-0.2-0.2-0.5-0.4-0.7-0.6
		c-0.6-0.5-1.1-0.9-1.7-1.2c-0.4-0.2-0.8-0.5-1.3-0.6c-0.5-0.2-1-0.4-1.6-0.4c-0.3,0-0.6,0.1-0.9,0.2"/>
	<path class="st5" d="M35.6,32.7c0.3-0.1,0.6-0.1,0.9-0.1c0.5,0,1,0.1,1.5,0.3c0.4,0.2,0.8,0.3,1.2,0.6c0.6,0.3,1.1,0.8,1.6,1.2
		c0.2,0.2,0.5,0.4,0.7,0.6c0.7,0.7,1.5,1.4,2.3,2c0.2,0.1,0.4,0.3,0.5,0.4c1,0.7,2.1,1.4,3.2,2c1.7,0.9,3.5,1.6,5.4,2.1L52,42.6
		c-1.9-0.5-3.8-1.3-5.6-2.2c-1.1-0.6-2.2-1.3-3.2-2.1c-0.2-0.1-0.4-0.3-0.6-0.5c-0.8-0.7-1.6-1.4-2.4-2.1c-0.2-0.2-0.5-0.4-0.7-0.6
		c-0.5-0.4-1.1-0.9-1.7-1.2c-0.4-0.2-0.8-0.4-1.2-0.6c-0.5-0.2-1-0.4-1.5-0.4c-0.3,0-0.6,0.1-0.9,0.2"/>
	<path class="st4" d="M31.4,34.1c0.3-0.2,0.6-0.3,1-0.3c0.6,0,1.1,0.2,1.6,0.5c0.4,0.2,0.9,0.4,1.3,0.7c0.6,0.4,1.2,0.8,1.8,1.2
		c0.3,0.2,0.5,0.4,0.8,0.6c0.8,0.7,1.6,1.5,2.5,2.3c0.2,0.2,0.4,0.3,0.6,0.5c1.1,0.9,2.2,1.6,3.4,2.2c1.9,1,3.8,1.8,5.8,2.5l4.6-4.2
		c-1.8-0.4-3.5-1-5.1-1.8c-1-0.5-2-1.1-3-1.8c-0.2-0.1-0.4-0.3-0.5-0.4c-0.8-0.6-1.5-1.2-2.2-1.9c-0.2-0.2-0.4-0.4-0.6-0.6
		c-0.4-0.4-0.9-0.9-1.4-1.2c-0.4-0.2-0.7-0.4-1.1-0.5c-0.5-0.1-0.9-0.2-1.4-0.2c-0.3,0-0.6,0-0.9,0.1l-6.7,2.1"/>
	<path class="st1" d="M35.1,62.9c-0.1,0-0.3,0-0.4-0.1c-0.1-0.1-0.2-0.2-0.2-0.3c0-0.1-0.1-0.2-0.1-0.4c0-0.2,0.1-0.5,0.2-0.7
		c0.3-0.6,0.6-1.1,0.9-1.7c0.2-0.3,0.3-0.6,0.4-0.9c0.1-0.3,0.1-0.7-0.1-1c-0.1-0.2-0.3-0.4-0.6-0.5c-0.1,0-0.2-0.1-0.3-0.1l-7.2,0
		l-0.5,0.1c0.2-0.1,0.5-0.1,0.8,0c0.3,0.1,0.5,0.3,0.6,0.5c0.2,0.3,0.2,0.7,0.1,1c-0.1,0.3-0.2,0.6-0.4,0.9c0,0,0,0,0,0
		c-0.3,0.6-0.6,1.1-0.9,1.7c-0.1,0.2-0.2,0.4-0.2,0.7c0,0.1,0,0.2,0.1,0.4c0,0.1,0.1,0.2,0.2,0.3c0.1,0.1,0.3,0.1,0.4,0.1L35.1,62.9
		z M35.1,62.9"/>
	<path class="st2" d="M30.8,62.9c-0.1,0-0.3,0-0.4-0.1c-0.1-0.1-0.2-0.2-0.2-0.3c0-0.1-0.1-0.2-0.1-0.4c0-0.2,0.1-0.5,0.2-0.7
		c0.3-0.6,0.6-1.1,0.9-1.7c0.2-0.3,0.3-0.6,0.4-0.9c0,0,0,0,0,0c0.1-0.3,0.1-0.7-0.1-1c-0.1-0.2-0.3-0.4-0.6-0.5
		c-0.1,0-0.2-0.1-0.3-0.1l-2.1,0c0.1,0,0.2,0,0.3,0.1c0.3,0.1,0.5,0.3,0.6,0.5c0.2,0.3,0.2,0.7,0.1,1c-0.1,0.3-0.2,0.6-0.4,0.9
		c-0.3,0.6-0.6,1.1-0.9,1.7c-0.1,0.2-0.2,0.4-0.2,0.7c0,0.1,0,0.2,0.1,0.4c0,0.1,0.1,0.2,0.2,0.3c0.1,0.1,0.3,0.1,0.4,0.1L30.8,62.9
		z M30.8,62.9"/>
	<path class="st8" d="M34.2,57.4c0.1,0,0.2,0,0.3,0.1c0.3,0.1,0.5,0.3,0.6,0.5c0.2,0.3,0.2,0.7,0.1,1c-0.1,0.3-0.2,0.6-0.4,0.9
		c-0.3,0.6-0.6,1.1-0.9,1.7c0,0,0,0,0,0c-0.1,0.2-0.2,0.4-0.2,0.7c0,0.1,0,0.2,0.1,0.4c0,0.1,0.1,0.2,0.2,0.3
		c0.1,0.1,0.3,0.1,0.4,0.1l-2.2,0c-0.1,0-0.3,0-0.4-0.1c-0.1-0.1-0.2-0.2-0.2-0.3c0-0.1-0.1-0.2-0.1-0.4c0-0.2,0.1-0.5,0.2-0.7
		c0.3-0.6,0.6-1.1,0.9-1.7c0.2-0.3,0.3-0.6,0.4-0.9c0.1-0.3,0.1-0.7-0.1-1c-0.1-0.2-0.3-0.4-0.6-0.5c-0.1,0-0.2-0.1-0.3-0.1
		L34.2,57.4z M34.2,57.4"/>
	<path class="st9" d="M33.7,62.9c-0.1,0-0.3,0-0.4-0.1c-0.1-0.1-0.2-0.2-0.2-0.3c0-0.1-0.1-0.2-0.1-0.4c0-0.2,0.1-0.5,0.2-0.7
		c0.3-0.6,0.6-1.1,0.9-1.7c0.2-0.3,0.3-0.6,0.4-0.9c0.1-0.3,0.1-0.7-0.1-1c0,0,0,0,0,0c-0.1-0.2-0.3-0.4-0.6-0.5
		c-0.1,0-0.2-0.1-0.3-0.1l-4.3,0c0.1,0,0.2,0,0.3,0.1c0.3,0.1,0.5,0.3,0.6,0.5c0.2,0.3,0.2,0.7,0.1,1c-0.1,0.3-0.2,0.6-0.4,0.9
		c-0.3,0.6-0.6,1.1-0.9,1.7c-0.1,0.2-0.2,0.4-0.2,0.7c0,0.1,0,0.2,0.1,0.4c0,0.1,0.1,0.2,0.2,0.3c0.1,0.1,0.3,0.1,0.4,0.1L33.7,62.9
		z M33.7,62.9"/>
	<path class="st5" d="M32.2,62.9c-0.1,0-0.3,0-0.4-0.1c-0.1-0.1-0.2-0.2-0.2-0.3c0-0.1-0.1-0.2-0.1-0.4c0-0.2,0.1-0.5,0.2-0.7
		c0.3-0.6,0.6-1.1,0.9-1.7c0.2-0.3,0.3-0.6,0.4-0.9c0.1-0.3,0.1-0.7-0.1-1c-0.1-0.2-0.3-0.4-0.6-0.5c-0.1,0-0.2-0.1-0.3-0.1l-1.4,0
		c0.1,0,0.2,0,0.3,0.1c0.3,0.1,0.5,0.3,0.6,0.5c0.2,0.3,0.2,0.7,0.1,1c0,0,0,0,0,0c-0.1,0.3-0.2,0.6-0.4,0.9
		c-0.3,0.6-0.6,1.1-0.9,1.7c-0.1,0.2-0.2,0.4-0.2,0.7c0,0.1,0,0.2,0.1,0.4c0,0.1,0.1,0.2,0.2,0.3c0.1,0.1,0.3,0.1,0.4,0.1L32.2,62.9
		z M32.2,62.9"/>
	<path class="st4" d="M27.7,57.4c0.1,0,0.2,0,0.3,0.1c0.3,0.1,0.5,0.3,0.6,0.5c0.2,0.3,0.2,0.7,0.1,1c-0.1,0.3-0.2,0.6-0.4,0.9
		c0,0,0,0,0,0c-0.3,0.6-0.6,1.1-0.9,1.7c-0.1,0.2-0.2,0.4-0.2,0.7c0,0.1,0,0.2,0.1,0.4c0,0.1,0.1,0.2,0.2,0.3
		c0.1,0.1,0.3,0.1,0.4,0.1l7.2,0c-0.2,0-0.3,0-0.4-0.1c-0.1-0.1-0.2-0.2-0.2-0.3c0-0.1-0.1-0.2-0.1-0.4c0-0.2,0.1-0.5,0.2-0.7
		c0.3-0.6,0.6-1.1,0.9-1.7c0.2-0.3,0.3-0.6,0.4-0.9c0.1-0.3,0.1-0.7-0.1-1c-0.1-0.2-0.3-0.4-0.6-0.5c-0.1,0-0.2-0.1-0.3-0.1
		L27.7,57.4"/>
	<path class="st1" d="M34.6,57.4c-0.6,0.3-1.3,1-1.6,1.7c-0.2,0.4-0.3,0.8-0.3,1.2c-0.1,0.6,0,1.2,0.1,1.8c0,0.4,0.1,0.8,0.1,1.2
		c0.1,1,0.3,2,0.5,3c0.1,0.4,0.2,0.8,0.3,1.3c0.4,1.6,0.9,3.1,1.3,4.7c0.1,0.3,0.1,0.6,0.2,0.9c0.4,2.7,0,5.5-0.4,8.2
		c-0.1,0.6-0.2,1.2-0.3,1.7c-0.4,2.7-0.7,5.5-0.9,8.2c0,0.2,0,0.4,0,0.5c0,0.8,0,1.6,0.1,2.4c0.1,1,0.4,1.9,0.9,2.7
		c0,0,0,0.1,0.1,0.1c0.5,0.8,1.3,1.5,2,2.1c0.5,0.4,1.1,0.8,1.6,1.1c0.3,0.2,0.6,0.4,0.9,0.7c0.7,0.5,1.3,1.1,1.9,1.7
		c0.6,0.6,1.2,1.1,1.9,1.6c0.3,0.2,0.6,0.4,0.9,0.6c0.5,0.3,0.9,0.4,1.5,0.5c0.7,0.1,1.3-0.1,1.9-0.4l-2.5,6
		c-0.7,0.4-1.4,0.6-2.2,0.7c-0.6,0.1-1.2,0-1.8-0.1c-0.4-0.1-0.8-0.3-1.2-0.4c-0.9-0.4-1.7-1-2.4-1.7c-0.7-0.7-1.4-1.4-2.1-2.1
		c-0.3-0.3-0.6-0.6-1-0.9c-0.6-0.5-1.2-0.9-1.8-1.4c-0.9-0.7-1.9-1.3-2.7-2.1c0,0-0.1-0.1-0.1-0.1c-0.8-0.8-1.4-1.8-1.9-2.8
		c-0.4-0.8-0.7-1.7-0.9-2.6c-0.1-0.2-0.1-0.4-0.1-0.6c-0.7-3.1-0.5-6.4-0.1-9.6c0.1-0.7,0.2-1.4,0.3-2c0.5-3.2,1.2-6.4,0.9-9.6
		c0-0.4-0.1-0.7-0.1-1.1c-0.3-1.9-0.9-3.7-1.6-5.5c-0.2-0.5-0.3-0.9-0.5-1.4c-0.4-1.1-0.7-2.2-0.8-3.4c-0.1-0.5-0.1-0.9-0.1-1.4
		c0-0.7,0.1-1.4,0.3-2.1c0.2-0.5,0.4-0.9,0.6-1.3c0.4-0.7,1-1.3,1.7-1.8L34.6,57.4z M34.6,57.4"/>
	<path class="st8" d="M31.5,57.5c-0.6,0.4-1.2,1-1.5,1.7c-0.2,0.4-0.3,0.8-0.4,1.3c-0.1,0.6-0.1,1.3-0.1,1.9c0,0.4,0.1,0.8,0.1,1.2
		c0.1,1.1,0.4,2.1,0.6,3.1c0.1,0.4,0.2,0.9,0.4,1.3c0.5,1.7,1.1,3.3,1.4,5c0.1,0.3,0.1,0.6,0.1,1c0.3,2.9-0.2,5.8-0.6,8.7
		c-0.1,0.6-0.2,1.2-0.3,1.8c-0.4,2.9-0.7,5.9-0.5,8.8c0,0.2,0,0.4,0,0.6c0.1,0.8,0.2,1.6,0.4,2.4c0.3,1,0.7,1.9,1.3,2.8
		c0,0,0.1,0.1,0.1,0.1c0.6,0.8,1.4,1.5,2.3,2.1c0.6,0.4,1.1,0.8,1.7,1.2c0.3,0.2,0.6,0.5,0.9,0.7c0.7,0.6,1.3,1.2,2,1.8
		c0.7,0.6,1.3,1.2,2.1,1.7c0.3,0.2,0.7,0.4,1,0.5c0.5,0.2,1,0.3,1.6,0.3c0.7,0,1.4-0.2,2-0.5l0.7-1.8c-0.6,0.4-1.3,0.5-1.9,0.5
		c-0.5,0-1-0.2-1.5-0.5c-0.3-0.2-0.7-0.4-1-0.6c-0.7-0.5-1.3-1.1-1.9-1.6c-0.6-0.6-1.2-1.2-1.9-1.7c-0.3-0.2-0.6-0.5-0.9-0.7
		c-0.5-0.4-1.1-0.8-1.6-1.2c-0.8-0.6-1.5-1.3-2.1-2.1c0,0-0.1-0.1-0.1-0.1c-0.5-0.8-0.8-1.8-1-2.7c-0.1-0.8-0.2-1.6-0.2-2.4
		c0-0.2,0-0.4,0-0.5c0-2.8,0.3-5.6,0.8-8.4c0.1-0.6,0.2-1.2,0.3-1.8c0.4-2.8,0.9-5.6,0.5-8.3c0-0.3-0.1-0.6-0.2-0.9
		c-0.3-1.6-0.9-3.2-1.3-4.8c-0.1-0.4-0.2-0.8-0.3-1.3c-0.2-1-0.4-2-0.5-3c-0.1-0.4-0.1-0.8-0.1-1.2c-0.1-0.6-0.1-1.2,0-1.9
		c0-0.4,0.1-0.8,0.3-1.2c0.3-0.7,0.8-1.2,1.5-1.6L31.5,57.5z M31.5,57.5"/>
	<path class="st2" d="M30.1,57.5c-0.6,0.4-1.2,1-1.6,1.7c-0.2,0.4-0.4,0.8-0.5,1.3c-0.2,0.6-0.2,1.3-0.2,2c0,0.4,0,0.9,0.1,1.3
		c0.1,1.1,0.4,2.2,0.7,3.2c0.1,0.5,0.3,0.9,0.4,1.4c0.5,1.7,1.1,3.4,1.4,5.2c0.1,0.3,0.1,0.7,0.1,1c0.3,3-0.2,6-0.7,9
		c-0.1,0.6-0.2,1.3-0.3,1.9c-0.4,3-0.7,6.1-0.3,9.1c0,0.2,0,0.4,0.1,0.6c0.1,0.8,0.3,1.7,0.6,2.5c0.3,1,0.8,1.9,1.5,2.8
		c0,0,0.1,0.1,0.1,0.1c0.7,0.8,1.5,1.5,2.4,2.1c0.6,0.4,1.2,0.8,1.7,1.3c0.3,0.3,0.6,0.5,0.9,0.8c0.7,0.6,1.3,1.3,2,1.9
		c0.7,0.6,1.4,1.2,2.2,1.7c0.4,0.2,0.7,0.4,1.1,0.5c0.5,0.2,1.1,0.3,1.7,0.3c0.7,0,1.4-0.2,2.1-0.6l-0.7,1.8
		c-0.7,0.4-1.4,0.6-2.2,0.7c-0.6,0-1.2,0-1.8-0.2c-0.4-0.1-0.8-0.3-1.2-0.5c-0.9-0.4-1.6-1-2.3-1.7c-0.7-0.7-1.4-1.4-2.1-2
		c-0.3-0.3-0.6-0.6-0.9-0.9c-0.6-0.5-1.2-0.9-1.8-1.4c-0.9-0.7-1.8-1.3-2.6-2.1c0,0-0.1-0.1-0.1-0.1c-0.7-0.8-1.3-1.8-1.8-2.8
		c-0.4-0.8-0.6-1.7-0.8-2.6c0-0.2-0.1-0.4-0.1-0.6c-0.6-3.1-0.4-6.3,0-9.5c0.1-0.7,0.2-1.3,0.3-2c0.5-3.1,1.2-6.3,0.9-9.4
		c0-0.4-0.1-0.7-0.1-1.1c-0.3-1.8-0.9-3.6-1.5-5.4c-0.2-0.5-0.3-0.9-0.5-1.4c-0.4-1.1-0.7-2.2-0.8-3.4c-0.1-0.4-0.1-0.9-0.1-1.3
		c0-0.7,0.1-1.4,0.3-2.1c0.1-0.5,0.3-0.9,0.6-1.3c0.4-0.7,1-1.3,1.7-1.8L30.1,57.5z M30.1,57.5"/>
	<path class="st9" d="M28.7,57.4c-0.7,0.5-1.2,1.1-1.6,1.8c-0.2,0.4-0.4,0.9-0.6,1.3c-0.2,0.7-0.3,1.4-0.3,2.1c0,0.4,0,0.9,0.1,1.3
		c0.1,1.1,0.4,2.2,0.8,3.3c0.1,0.5,0.3,0.9,0.5,1.4c0.6,1.7,1.2,3.5,1.5,5.3c0.1,0.3,0.1,0.7,0.1,1c0.3,3.1-0.3,6.2-0.8,9.3
		c-0.1,0.7-0.2,1.3-0.3,2c-0.4,3.1-0.6,6.3-0.1,9.3c0,0.2,0.1,0.4,0.1,0.6c0.2,0.9,0.4,1.7,0.8,2.5c0.4,1,1,2,1.7,2.8
		c0,0,0.1,0.1,0.1,0.1c0.7,0.8,1.6,1.5,2.5,2.1c0.6,0.4,1.2,0.9,1.8,1.3c0.3,0.3,0.6,0.5,0.9,0.8c0.7,0.7,1.3,1.3,2,2
		c0.7,0.6,1.5,1.2,2.3,1.7c0.4,0.2,0.8,0.4,1.2,0.5c0.6,0.2,1.1,0.2,1.7,0.2c0.7,0,1.5-0.3,2.1-0.6l1.5-3.6
		c-0.6,0.4-1.3,0.5-1.9,0.5c-0.5,0-1-0.2-1.5-0.4c-0.3-0.2-0.7-0.4-1-0.6c-0.7-0.5-1.4-1.1-2-1.7c-0.6-0.6-1.3-1.2-1.9-1.7
		c-0.3-0.2-0.6-0.5-0.9-0.7c-0.5-0.4-1.1-0.8-1.6-1.2c-0.8-0.6-1.6-1.3-2.2-2.1c0,0-0.1-0.1-0.1-0.1c-0.6-0.8-0.9-1.8-1.1-2.7
		c-0.2-0.8-0.2-1.6-0.2-2.4c0-0.2,0-0.4,0-0.5c0-2.8,0.2-5.7,0.7-8.5c0.1-0.6,0.2-1.2,0.3-1.8c0.5-2.8,0.9-5.7,0.5-8.5
		c0-0.3-0.1-0.6-0.2-0.9c-0.3-1.6-0.9-3.2-1.3-4.8c-0.1-0.4-0.2-0.9-0.3-1.3c-0.2-1-0.4-2-0.6-3c-0.1-0.4-0.1-0.8-0.1-1.2
		c-0.1-0.6-0.1-1.3,0-1.9c0.1-0.4,0.2-0.9,0.4-1.3c0.3-0.7,0.9-1.3,1.5-1.7L28.7,57.4z M28.7,57.4"/>
	<path class="st5" d="M30.1,57.4c-0.6,0.4-1.2,1-1.6,1.7c-0.2,0.4-0.4,0.8-0.5,1.3c-0.2,0.6-0.2,1.3-0.2,2c0,0.4,0,0.9,0.1,1.3
		c0.1,1.1,0.4,2.2,0.7,3.2c0.1,0.5,0.3,0.9,0.4,1.4c0.5,1.7,1.1,3.4,1.4,5.2c0.1,0.3,0.1,0.7,0.1,1c0.3,3-0.2,6-0.7,9
		c-0.1,0.6-0.2,1.3-0.3,1.9c-0.4,3-0.7,6.1-0.3,9.1c0,0.2,0,0.4,0.1,0.6c0.1,0.8,0.3,1.7,0.6,2.5c0.3,1,0.8,1.9,1.5,2.8
		c0,0,0.1,0.1,0.1,0.1c0.7,0.8,1.5,1.5,2.4,2.1c0.6,0.4,1.2,0.8,1.7,1.3c0.3,0.3,0.6,0.5,0.9,0.8c0.7,0.6,1.3,1.3,2,1.9
		c0.7,0.6,1.4,1.2,2.2,1.7c0.4,0.2,0.7,0.4,1.1,0.5c0.5,0.2,1.1,0.3,1.7,0.3c0.7,0,1.4-0.2,2.1-0.6l0.5-1.2c-0.6,0.4-1.3,0.5-2,0.5
		c-0.5,0-1.1-0.1-1.6-0.3c-0.4-0.1-0.7-0.3-1-0.5c-0.7-0.5-1.4-1.1-2.1-1.7c-0.7-0.6-1.3-1.2-2-1.8c-0.3-0.3-0.6-0.5-0.9-0.7
		c-0.6-0.4-1.1-0.8-1.7-1.2c-0.8-0.6-1.7-1.3-2.3-2.1c0,0-0.1-0.1-0.1-0.1c-0.6-0.8-1-1.8-1.3-2.8c-0.2-0.8-0.3-1.6-0.4-2.4
		c0-0.2,0-0.4,0-0.6c-0.2-2.9,0.1-5.9,0.5-8.8c0.1-0.6,0.2-1.2,0.3-1.8c0.5-2.9,1-5.8,0.6-8.7c0-0.3-0.1-0.6-0.1-1
		c-0.3-1.7-0.9-3.3-1.4-5c-0.1-0.4-0.3-0.9-0.4-1.3c-0.3-1-0.5-2.1-0.6-3.1c-0.1-0.4-0.1-0.8-0.1-1.2c0-0.6,0-1.3,0.1-1.9
		c0.1-0.4,0.2-0.9,0.4-1.3c0.3-0.7,0.9-1.3,1.6-1.7L30.1,57.4z M30.1,57.4"/>
	<path class="st9" d="M31.1,57.4c-0.6,0.4-1.2,1-1.6,1.7c0,0,0,0,0,0c-0.2,0.4-0.3,0.8-0.4,1.3c0,0,0,0,0,0
		c-0.1,0.6-0.1,1.3-0.1,1.9c0,0,0,0,0,0c0,0.4,0.1,0.8,0.1,1.2c0,0,0,0,0,0c0.1,1.1,0.4,2.1,0.7,3.1c0,0,0,0,0,0
		c0.1,0.4,0.2,0.9,0.4,1.3c0,0,0,0,0,0c0.5,1.7,1.1,3.3,1.4,5c0,0,0,0,0,0c0.1,0.3,0.1,0.6,0.1,1c0,0,0,0,0,0
		c0.3,2.9-0.2,5.9-0.7,8.8c0,0,0,0,0,0c-0.1,0.6-0.2,1.2-0.3,1.8c0,0,0,0,0,0c-0.4,2.9-0.7,5.9-0.4,8.9c0,0,0,0,0,0
		c0,0.2,0,0.4,0.1,0.6c0,0,0,0,0,0c0.1,0.8,0.2,1.7,0.5,2.5c0,0,0,0,0,0c0.3,1,0.7,1.9,1.3,2.8c0,0,0,0,0,0c0,0,0.1,0.1,0.1,0.1
		c0,0,0,0,0,0c0.7,0.8,1.5,1.5,2.3,2.1c0,0,0,0,0,0c0.6,0.4,1.1,0.8,1.7,1.2c0,0,0,0,0,0c0.3,0.2,0.6,0.5,0.9,0.8c0,0,0,0,0,0
		c0.7,0.6,1.3,1.2,2,1.8c0,0,0,0,0,0c0.7,0.6,1.4,1.2,2.1,1.7c0,0,0,0,0,0c0.3,0.2,0.7,0.4,1.1,0.5c0,0,0,0,0,0
		c0.5,0.2,1.1,0.3,1.6,0.3c0,0,0,0,0,0c0.7,0,1.4-0.2,2-0.6l-0.2,0.4c-0.6,0.4-1.3,0.6-2,0.6c0,0,0,0,0,0c-0.6,0-1.1-0.1-1.6-0.3
		c0,0,0,0,0,0c-0.4-0.1-0.7-0.3-1.1-0.5c0,0,0,0,0,0c-0.8-0.5-1.5-1.1-2.1-1.7c0,0,0,0,0,0c-0.7-0.6-1.3-1.3-2-1.9c0,0,0,0,0,0
		c-0.3-0.3-0.6-0.5-0.9-0.8c0,0,0,0,0,0c-0.6-0.4-1.1-0.8-1.7-1.3c0,0,0,0,0,0c-0.9-0.6-1.7-1.3-2.4-2.1c0,0,0,0,0,0
		c0,0-0.1-0.1-0.1-0.1c0,0,0,0,0,0c-0.6-0.8-1.1-1.8-1.4-2.8c0,0,0,0,0,0c-0.3-0.8-0.4-1.6-0.5-2.5c0,0,0,0,0,0c0-0.2,0-0.4-0.1-0.6
		c0,0,0,0,0,0c-0.3-3-0.1-6,0.4-9c0,0,0,0,0,0c0.1-0.6,0.2-1.2,0.3-1.9c0,0,0,0,0,0c0.5-3,1-5.9,0.7-8.9c0,0,0,0,0,0
		c0-0.3-0.1-0.6-0.1-1c0,0,0,0,0,0c-0.3-1.7-0.9-3.4-1.4-5.1c0,0,0,0,0,0c-0.1-0.4-0.3-0.9-0.4-1.3c0,0,0,0,0,0
		c-0.3-1-0.5-2.1-0.7-3.2c0,0,0,0,0,0c-0.1-0.4-0.1-0.8-0.1-1.2c0,0,0,0,0,0c0-0.7,0-1.3,0.1-1.9c0,0,0,0,0,0
		c0.1-0.4,0.2-0.9,0.5-1.3c0,0,0,0,0,0c0.4-0.7,0.9-1.3,1.6-1.7L31.1,57.4z M31.1,57.4"/>
	<g>
		<defs>
			<rect id="SVGID_8_" x="24.5" y="11.8" width="76.4" height="100.2"/>
		</defs>
		<clipPath id="SVGID_9_">
			<use xlink:href="#SVGID_8_"  style="overflow:visible;"/>
		</clipPath>
		<path class="st11" d="M34.9,57.4c-0.7,0-1.7,1-2,1.7c-0.2,0.4-0.3,0.8-0.3,1.2c-0.1,0.6,0,1.2,0.1,1.8c0,0.4,0.1,0.8,0.1,1.2
			c0.1,1,0.3,2,0.5,3c0.1,0.4,0.2,0.8,0.3,1.3c0.4,1.6,0.9,3.1,1.3,4.7c0.1,0.3,0.1,0.6,0.2,0.9c0.4,2.7,0,5.5-0.4,8.2
			c-0.1,0.6-0.2,1.2-0.3,1.7c-0.4,2.7-0.7,5.5-0.9,8.2c0,0.2,0,0.4,0,0.5c0,0.8,0,1.6,0.1,2.4c0.1,1,0.4,1.9,0.9,2.7
			c0,0,0,0.1,0.1,0.1c0.5,0.8,1.3,1.5,2,2.1c0.5,0.4,1.1,0.8,1.6,1.1c0.3,0.2,0.6,0.4,0.9,0.7c0.7,0.5,1.3,1.1,1.9,1.7
			c0.6,0.6,1.2,1.1,1.9,1.6c0.3,0.2,0.6,0.4,0.9,0.6c0.5,0.3,0.9,0.4,1.5,0.5c0.7,0.1,1.3-0.1,1.9-0.4l-2.4,5.7
			c-0.1,0.3-0.2,0.4-0.5,0.5c-0.6,0.3-1.2,0.4-1.9,0.5c-0.6,0.1-1.2,0-1.8-0.1c-0.4-0.1-0.8-0.3-1.2-0.4c-0.9-0.4-1.7-1-2.4-1.7
			c-0.7-0.7-1.4-1.4-2.1-2.1c-0.3-0.3-0.6-0.6-1-0.9c-0.6-0.5-1.2-0.9-1.8-1.4c-0.9-0.7-1.9-1.3-2.7-2.1c0,0-0.1-0.1-0.1-0.1
			c-0.8-0.8-1.4-1.8-1.9-2.8c-0.4-0.8-0.7-1.7-0.9-2.6c-0.1-0.2-0.1-0.4-0.1-0.6c-0.7-3.1-0.5-6.4-0.1-9.6c0.1-0.7,0.2-1.4,0.3-2
			c0.5-3.2,1.2-6.4,0.9-9.6c0-0.4-0.1-0.7-0.1-1.1c-0.3-1.9-0.9-3.7-1.6-5.5c-0.2-0.5-0.3-0.9-0.5-1.4c-0.4-1.1-0.7-2.2-0.8-3.4
			c-0.1-0.5-0.1-0.9-0.1-1.4c0-0.7,0.1-1.4,0.3-2.1c0.2-0.5,0.4-0.9,0.6-1.3c0.3-0.5,0.7-0.9,1.1-1.3c0.3-0.4,0.7-0.6,1.1-0.6
			L34.9,57.4z M34.9,57.4"/>
	</g>
	<path class="st9" d="M35.2,32.8c0.3-0.1,0.6-0.2,0.9-0.2c0,0,0,0,0,0c0.5,0,1,0.1,1.5,0.3c0,0,0,0,0,0c0.4,0.2,0.8,0.4,1.2,0.6
		c0.6,0.3,1.1,0.8,1.6,1.2c0,0,0,0,0,0c0.2,0.2,0.5,0.4,0.7,0.6c0.8,0.7,1.5,1.4,2.3,2.1c0.2,0.1,0.4,0.3,0.6,0.4v0
		c1,0.8,2.1,1.4,3.2,2c0,0,0,0,0,0c1.7,0.9,3.6,1.6,5.5,2.1l-0.3,0.3c-1.9-0.5-3.8-1.3-5.5-2.2c-1.1-0.6-2.2-1.3-3.2-2c0,0,0,0,0,0
		c-0.2-0.1-0.4-0.3-0.6-0.4c0,0,0,0,0,0c-0.8-0.7-1.6-1.4-2.3-2.1c0,0,0,0,0,0c-0.2-0.2-0.5-0.4-0.7-0.6v0c-0.5-0.4-1.1-0.9-1.6-1.2
		h0c-0.4-0.2-0.8-0.4-1.2-0.6c-0.5-0.2-1-0.3-1.5-0.3c-0.3,0-0.6,0.1-0.9,0.2L35.2,32.8z M35.2,32.8"/>
	<path class="st12" d="M63.3,22.7c0.5-0.9,1.1-1.7,1.9-2.4c0.6-0.5,1.3-1,2.1-1.3c-0.1-0.5-0.3-0.9-0.7-1.3
		c-0.4-0.4-0.9-0.6-1.4-0.6c0.3-0.1,0.7-0.2,1-0.4c0.3-0.2,0.6-0.4,0.8-0.8c-0.2-0.3-0.3-0.6-0.6-0.9c-0.2-0.2-0.5-0.5-0.7-0.6
		c-0.2-0.1-0.5-0.1-0.8-0.1c-0.3,0-0.5,0.2-0.7,0.3c0.1-0.6,0-1.3-0.3-1.9c-0.3-0.5-0.7-0.8-1.2-1c-0.5,0.2-0.9,0.5-1.2,1
		c-0.3,0.5-0.5,1.2-0.3,1.9c-0.2-0.2-0.4-0.3-0.7-0.3c-0.3,0-0.5,0-0.8,0.1c-0.3,0.1-0.5,0.4-0.7,0.6c-0.2,0.3-0.4,0.6-0.6,0.9
		c0.2,0.3,0.5,0.6,0.8,0.8c0.3,0.2,0.6,0.3,1,0.4c-0.5,0-1,0.2-1.4,0.6c-0.4,0.3-0.6,0.8-0.7,1.3c0.8,0.3,1.5,0.8,2.1,1.3
		c0.8,0.7,1.4,1.5,1.9,2.4H63.3z M63.3,22.7"/>
	<g>
		<defs>
			<rect id="SVGID_10_" x="24.5" y="11.8" width="76.4" height="100.2"/>
		</defs>
		<clipPath id="SVGID_11_">
			<use xlink:href="#SVGID_10_"  style="overflow:visible;"/>
		</clipPath>
		<path class="st13" d="M63.3,22.7c0.5-0.9,1.1-1.7,1.9-2.4c0.6-0.5,1.3-1,2.1-1.3c-0.1-0.5-0.3-0.9-0.7-1.3
			c-0.4-0.4-0.9-0.6-1.4-0.6c0.3-0.1,0.7-0.2,1-0.4c0.3-0.2,0.6-0.4,0.8-0.8c-0.2-0.3-0.3-0.6-0.6-0.9c-0.2-0.2-0.5-0.5-0.7-0.6
			c-0.2-0.1-0.5-0.1-0.8-0.1c-0.3,0-0.5,0.2-0.7,0.3c0.1-0.6,0-1.3-0.3-1.9c-0.3-0.5-0.7-0.8-1.2-1c-0.5,0.2-0.9,0.5-1.2,1
			c-0.3,0.5-0.5,1.2-0.3,1.9c-0.2-0.2-0.4-0.3-0.7-0.3c-0.3,0-0.5,0-0.8,0.1c-0.3,0.1-0.5,0.4-0.7,0.6c-0.2,0.3-0.4,0.6-0.6,0.9
			c0.2,0.3,0.5,0.6,0.8,0.8c0.3,0.2,0.6,0.3,1,0.4c-0.5,0-1,0.2-1.4,0.6c-0.4,0.3-0.6,0.8-0.7,1.3c0.8,0.3,1.5,0.8,2.1,1.3
			c0.8,0.7,1.4,1.5,1.9,2.4H63.3z M63.3,22.7"/>
	</g>
	<path class="st12" d="M63.3,22.7c0.5-0.9,1.1-1.7,1.9-2.4c0.6-0.5,1.3-1,2.1-1.3c-0.1-0.5-0.3-0.9-0.7-1.3
		c-0.4-0.4-0.9-0.6-1.4-0.6c0.3-0.1,0.7-0.2,1-0.4c0.3-0.2,0.6-0.4,0.8-0.8c-0.2-0.3-0.3-0.6-0.6-0.9c-0.2-0.2-0.5-0.5-0.7-0.6
		c-0.2-0.1-0.5-0.1-0.8-0.1c-0.3,0-0.5,0.2-0.7,0.3c0.1-0.6,0-1.3-0.3-1.9c-0.3-0.5-0.7-0.8-1.2-1c-0.5,0.2-0.9,0.5-1.2,1
		c-0.3,0.5-0.5,1.2-0.3,1.9c-0.2-0.2-0.4-0.3-0.7-0.3c-0.3,0-0.5,0-0.8,0.1c-0.3,0.1-0.5,0.4-0.7,0.6c-0.2,0.3-0.4,0.6-0.6,0.9
		c0.2,0.3,0.5,0.6,0.8,0.8c0.3,0.2,0.6,0.3,1,0.4c-0.5,0-1,0.2-1.4,0.6c-0.4,0.3-0.6,0.8-0.7,1.3c0.8,0.3,1.5,0.8,2.1,1.3
		c0.8,0.7,1.4,1.5,1.9,2.4H63.3z M63.3,22.7"/>
	<path class="st14" d="M62.6,13.1c-1.2,1.1-0.3,2.8-0.1,4.1c-0.8-0.2-1.4-1.3-2.2-1.7c-0.3-0.2-1.2,0.5-0.5,0.6
		c0.9,0.4,1.9,0.7,2.6,1.4c-1,0.5-2.2,0.3-3.1,1.1c1.4,0.8,2.5,2,3.4,3.3c0.9-1.3,2-2.5,3.4-3.3c-0.9-0.8-2.1-0.5-3.1-1.1
		c0.7-0.7,1.7-1,2.6-1.4c0.6-0.1-0.2-0.8-0.5-0.6c-0.8,0.4-1.4,1.5-2.2,1.7C62.9,15.9,63.7,14.2,62.6,13.1L62.6,13.1z M62.6,13.1"/>
	<path class="st15" d="M75.7,41.7l-26.4,0l-9.7-17.4l11,8.8l-2.4-12l6.2,6.9l-0.2-8.1l5.5,8.3l2.9-11.8l2.7,11.8l5.5-8.3L70.6,28
		l6.2-6.9l-2.4,12l11-8.8L75.7,41.7z M75.7,41.7"/>
	<path class="st16" d="M75.7,41.7l-26.4,0l-9.7-17.4l11,8.8l-2.4-12l6.2,6.9l-0.2-8.1l5.5,8.3l2.9-11.8l2.7,11.8l5.5-8.3L70.6,28
		l6.2-6.9l-2.4,12l11-8.8L75.7,41.7z M75.7,41.7"/>
	<path class="st17" d="M49.9,42.4c4.1-2.8,20.4-2.9,25-0.1L49.9,42.4z M49.9,42.4"/>
	<path class="st18" d="M67.7,35.3l5.5,0.7l1.1-9.8L67.7,35.3z M67.7,35.3"/>
	<path class="st18" d="M82.1,28.9L77.9,37l-3.6-0.9L82.1,28.9z M82.1,28.9"/>
	<path class="st18" d="M65.8,35.2l-6.4-0.1L62.6,25L65.8,35.2z M65.8,35.2"/>
	<path class="st17" d="M68.8,25.4l0.2,4.7l-2.1,2.6L66,30.5L68.8,25.4z M68.8,25.4"/>
	<path class="st18" d="M57.3,35.4l-5.5,0.7l-1.1-9.8L57.3,35.4z M57.3,35.4"/>
	<path class="st18" d="M42.9,29l4.2,8.1l3.6-0.9L42.9,29z M42.9,29"/>
	<path class="st17" d="M56.1,25.4l-0.2,4.7l2.1,2.6l0.9-2.2L56.1,25.4z M56.1,25.4"/>
	<path class="st19" d="M47.6,38.5c4.9-1.5,10-2.3,15-2.2c5,0,10,0.8,14.7,2.2"/>
	<path class="st20" d="M48.5,39.9c4.5-1.3,9.2-2,14-2c4.7,0,9.4,0.7,13.9,2"/>
	<path class="st21" d="M37.5,41.7v50.5c-0.3,3.3,1.2,5.4,5.2,5.9L57.1,98c3.1,0,4.3,1.6,5.5,4c1.2-2.4,2.4-4,5.5-4l14.4,0.1
		c4-0.5,5.5-2.7,5.2-5.9V41.7L37.5,41.7z M37.5,41.7"/>
	<path class="st22" d="M37.5,41.7v28h0.3l1.8,1.8l1.8-1.8l1.8,1.8l1.8-1.8l1.8,1.8l1.8-1.8l1.8,1.8l1.8-1.8l1.8,1.8l1.8-1.8l1.8,1.8
		l1.8-1.8l1.8,1.8l1.8-1.8l1.8,1.8l1.8-1.8l1.8,1.8l1.8-1.8l1.8,1.8l1.8-1.8l1.8,1.8l1.8-1.8l1.8,1.8l1.8-1.8l1.8,1.8l1.8-1.8
		l1.8,1.8l1.8-1.8h0.3v-28H37.5z M37.5,41.7"/>
	<path class="st23" d="M37.5,41.7v28h0.3l1.8,1.8l1.8-1.8l1.8,1.8l1.8-1.8l1.8,1.8l1.8-1.8l1.8,1.8l1.8-1.8l1.8,1.8l1.8-1.8l1.8,1.8
		l1.8-1.8l1.8,1.8l1.8-1.8l1.8,1.8l1.8-1.8l1.8,1.8l1.8-1.8l1.8,1.8l1.8-1.8l1.8,1.8l1.8-1.8l1.8,1.8l1.8-1.8l1.8,1.8l1.8-1.8
		l1.8,1.8l1.8-1.8h0.3v-28H37.5z M37.5,41.7"/>
	<path class="st24" d="M37.5,41.7v50.5c-0.3,3.3,1.2,5.4,5.2,5.9L57.1,98c3.1,0,4.3,1.6,5.5,4c1.2-2.4,2.4-4,5.5-4l14.4,0.1
		c4-0.5,5.5-2.7,5.2-5.9V41.7L37.5,41.7z M37.5,41.7"/>
	<path class="st25" d="M70.8,70.5c0,4.5-3.7,8.2-8.2,8.2c-4.5,0-8.2-3.7-8.2-8.2c0-4.5,3.7-8.2,8.2-8.2C67.2,62.3,70.8,66,70.8,70.5
		L70.8,70.5z M70.8,70.5"/>
	<path class="st23" d="M70.8,70.5c0,4.5-3.7,8.2-8.2,8.2c-4.5,0-8.2-3.7-8.2-8.2c0-4.5,3.7-8.2,8.2-8.2C67.2,62.3,70.8,66,70.8,70.5
		L70.8,70.5z M70.8,70.5"/>
	<path class="st8" d="M60.2,44.6l-1.4,1.3l2.5,2.2L48.4,59.3l3.3,2.9l3.7-3.2l3.5,3.1l3.3-2.9l-3.5-3.1l4-3.6l4,3.6l-3.5,3.1
		l3.3,2.9l3.5-3.1l3.7,3.2l3.3-2.9L64.1,48l2.5-2.2l-1.4-1.3l-2.5,2.2L60.2,44.6z M60.2,44.6"/>
	<path class="st23" d="M60.2,44.6l-1.4,1.3l2.5,2.2L48.4,59.3l3.3,2.9l3.7-3.2l3.5,3.1l3.3-2.9l-3.5-3.1l4-3.6l4,3.6l-3.5,3.1
		l3.3,2.9l3.5-3.1l3.7,3.2l3.3-2.9L64.1,48l2.5-2.2l-1.4-1.3l-2.5,2.2L60.2,44.6z M60.2,44.6"/>
	<path class="st3" d="M51.7,78.7l-3.3,2.9l14.3,12.6l14.3-12.6l-3.3-2.9l-3.7,3.2l-3.5-3.1l-3.3,2.9l3.5,3.1l-4,3.6l-4-3.6l3.5-3.1
		l-3.3-2.9l-3.5,3.1L51.7,78.7z M51.7,78.7"/>
	<path class="st23" d="M51.7,78.7l-3.3,2.9l14.3,12.6l14.3-12.6l-3.3-2.9l-3.7,3.2l-3.5-3.1l-3.3,2.9l3.5,3.1l-4,3.6l-4-3.6l3.5-3.1
		l-3.3-2.9l-3.5,3.1L51.7,78.7z M51.7,78.7"/>
	<path class="st3" d="M62.3,77.8c-0.6-0.3-1.2-0.9-1.8-1.2c-1.6-1-1-3.3-0.6-3.9c0.4-0.6,0.3-1.1-0.2-1.8c-0.7-0.9-0.1-2.1,0.4-2.6
		c0,0-0.1,1.4,0.5,1.6c1.1,0.3,1.2,1.2,1.1,2.2c0.3-0.7,0.4-2.2,0.1-2.6c-0.4-0.6-0.7-1.8,0.2-3.1c0.6-0.9,0.7-1.8,1-2.6
		c0.4,0.9,0.7,2.2,0.3,2.9c-0.2,0.5-0.4,0.9,0.5,1.9c0.8,0.9,0.6,2,0,3.3c0.6-0.7,1.2-2.2,1.4-3.3c0.2,0,1.2,1.8,0.7,3
		c-0.3,0.8-0.4,1.2,0,1.7c0.4,0.5,0.3,1.6,0,2.2c-0.3,0.6-0.7,1.1-1.2,1.2C63.5,77,63.2,77.5,62.3,77.8L62.3,77.8z M62.3,77.8"/>
	<path class="st23" d="M62.3,77.8c-0.6-0.3-1.2-0.9-1.8-1.2c-1.6-1-1-3.3-0.6-3.9c0.4-0.6,0.3-1.1-0.2-1.8c-0.7-0.9-0.1-2.1,0.4-2.6
		c0,0-0.1,1.4,0.5,1.6c1.1,0.3,1.2,1.2,1.1,2.2c0.3-0.7,0.4-2.2,0.1-2.6c-0.4-0.6-0.7-1.8,0.2-3.1c0.6-0.9,0.7-1.8,1-2.6
		c0.4,0.9,0.7,2.2,0.3,2.9c-0.2,0.5-0.4,0.9,0.5,1.9c0.8,0.9,0.6,2,0,3.3c0.6-0.7,1.2-2.2,1.4-3.3c0.2,0,1.2,1.8,0.7,3
		c-0.3,0.8-0.4,1.2,0,1.7c0.4,0.5,0.3,1.6,0,2.2c-0.3,0.6-0.7,1.1-1.2,1.2C63.5,77,63.2,77.5,62.3,77.8L62.3,77.8z M62.3,77.8"/>
	<path class="st26" d="M62.6,72.6c-0.8,1-0.5,2.2-0.6,3.2c-0.1,0.5-0.1,0.9,0,1.4c0.2,0.1,0.4,0.2,0.6,0.2c0.4-0.3,0.9-0.5,1.3-0.7
		C62.9,73.1,62.8,74.9,62.6,72.6L62.6,72.6z M62.6,72.6"/>
</g>
</svg>
