<?xml version="1.0" encoding="utf-8"?>
<!-- Generator: Adobe Illustrator 22.0.1, SVG Export Plug-In . SVG Version: 6.00 Build 0)  -->
<svg version="1.1" id="Слой_1" xmlns="http://www.w3.org/2000/svg" xmlns:xlink="http://www.w3.org/1999/xlink" x="0px" y="0px"
	 viewBox="0 0 127.3 127" style="enable-background:new 0 0 127.3 127;" xml:space="preserve">
<style type="text/css">
	.st0{fill:url(#SVGID_1_);}
	.st1{fill:#FFFFFF;}
	.st2{fill:#1F1A16;}
	.st3{fill:#DA241D;}
	.st4{fill:#005CA1;}
	.st5{fill:#FFF500;}
	.st6{clip-path:url(#SVGID_3_);fill:none;stroke:#1F1A16;stroke-width:0.2016;}
</style>
<radialGradient id="SVGID_1_" cx="64.8" cy="2586.7468" r="62.6" gradientTransform="matrix(1 0 0 1 0 -2522.3469)" gradientUnits="userSpaceOnUse">
	<stop  offset="0.9487" style="stop-color:#212121"/>
	<stop  offset="1" style="stop-color:#606060;stop-opacity:0"/>
</radialGradient>
<circle class="st0" cx="64.8" cy="64.4" r="62.6"/>
<circle class="st1" cx="62.6" cy="62.6" r="62.6"/>
<g>
	<path class="st1" d="M100.7,95.9c0,2-1.1,3.7-2.8,4.5c-0.2,0.1-0.4,0.2-0.6,0.3c-0.5,0.2-1,0.3-1.6,0.3H68.5
		c-1.7,0-3.2,0.6-4.4,1.7l-0.6,0.6c-0.3,0.4-0.6,0.8-0.8,1.2c-0.2-0.4-0.5-0.8-0.8-1.2l-0.6-0.6c-1.2-1-2.7-1.7-4.4-1.7H29.7
		c-0.6,0-1.1-0.1-1.6-0.3c-0.2-0.1-0.4-0.2-0.6-0.3c-1.6-0.8-2.8-2.5-2.8-4.5V21.7c25.3,0,50.6,0,75.9,0V95.9z M100.7,95.9"/>
	<path class="st2" d="M36.2,64.8c-0.1,0.3-0.5,0.4-0.6,0.1c0,0-1.1-1.9-1.6-3c-0.3,1.9-5.2,34.7-5.9,38.8c0.5,0.2,1,0.3,1.6,0.3
		h14.6c-0.4-2.2-6.2-37.3-6.7-40.1C37.2,62.5,36.2,64.8,36.2,64.8L36.2,64.8z M36.2,64.8"/>
	<path class="st3" d="M32.4,50.1c0,1.6,2.8,2.4,2.8,3.9c0,1.7-2.9,1-3,3.1c-0.1,2.1,3.2,3.1,3.8,4.3c0.3,0.7-0.2,1.5-0.7,1.7
		c1.6-0.2,1.9-1.8,1-3c-0.9-1.2-1.4-1-1.5-2.2c0-1.2,3.5-1.5,3.5-3.3c0-1.7-2.8-2.7-2.9-4.4c-0.1-1.5,2.7-1.5,2.7-3.2
		c0-1.2-1.6-2.5-3.1-2.5C37.6,48.1,32.4,48,32.4,50.1L32.4,50.1z M32.4,50.1"/>
	<path class="st4" d="M48.3,21.7v79.2h8.6c1.7,0,3.2,0.6,4.4,1.7l0.6,0.6c0.3,0.4,0.6,0.8,0.8,1.2c0.2-0.4,0.5-0.8,0.8-1.2l0.6-0.6
		c1.2-1,2.7-1.7,4.4-1.7h7.6V21.7C66.9,21.7,57.6,21.7,48.3,21.7L48.3,21.7z M48.3,21.7"/>
	<path class="st5" d="M59.3,78.2l0.3,0c0-0.1-0.1-0.1-0.1-0.2C59.4,78.1,59.4,78.2,59.3,78.2L59.3,78.2z M59.3,78.2"/>
	<path class="st5" d="M64.9,78.2l0.2,0c0,0-0.1-0.1-0.1-0.1C64.9,78.1,64.9,78.2,64.9,78.2L64.9,78.2z M64.9,78.2"/>
	<path class="st5" d="M53.8,78.3l0.3,0c-0.1-0.1-0.1-0.1-0.2-0.2C53.9,78.1,53.9,78.2,53.8,78.3L53.8,78.3z M53.8,78.3"/>
	<path class="st5" d="M56.2,73.2l-0.3,2.1l0.9-0.1l0.1-2L56.2,73.2z M56.2,73.2"/>
	<path class="st5" d="M60.8,75.1l0.9,0.2l3.1-2.4l-0.8-0.2L60.8,75.1z M60.8,75.1"/>
	<path class="st5" d="M59.5,72.4l-0.2,0l-0.6,0v2.9h0.8L59.5,72.4z M59.5,72.4"/>
	<path class="st5" d="M58.5,75.6L57.8,73H57l0,2.6H58.5z M58.5,75.6"/>
	<path class="st5" d="M49.8,77.8c0.4,0.3,0.9,0.6,1.4,0.7c-0.5-2.5-0.8-3.5-1.4-3.7L49.8,77.8z M49.8,77.8"/>
	<path class="st5" d="M65.8,73.4l-1.2,1.2l-10.3,0.6l-0.1-1.1l-1.3,0l-0.3-2.7l-3.8-0.5l0.5,3.4l1,0.8l1,3.4h0c0.7,0,1.4-0.3,2-0.8
		c0.3-0.2,0.5-0.5,0.7-0.9c0.2,0.3,0.4,0.6,0.7,0.9c0.5,0.5,1.2,0.8,2,0.8c0.7,0,1.4-0.3,2-0.8c0.3-0.2,0.5-0.5,0.7-0.9
		c0.2,0.3,0.4,0.6,0.7,0.9c0.5,0.5,1.2,0.8,2,0.8c0.7,0,1.4-0.3,2-0.8c0.3-0.2,0.5-0.5,0.7-0.9c0.2,0.3,0.4,0.6,0.7,0.9
		c0.5,0.5,1.2,0.8,2,0.8c0.1,0,0.2,0,0.3,0c0.2,0,0.3-0.1,0.5-0.1c0.5-0.1,0.9-0.4,1.2-0.7c0.3-0.2,0.5-0.5,0.7-0.9
		c0.3,0.4,0.6,0.8,1,1.2c2.2-1.6,3.8-5.2,4.2-6.9l-5.6,1.3c5.5-4.9,5.4-16.8-2.9-18.4c-4.5-0.9-9.9-1.8-14.3-2.8
		c7,8.4,5.6,15.4,0.9,22.8l6.6-1.3C62.1,72.2,64.3,72.7,65.8,73.4L65.8,73.4z M65.8,73.4"/>
	<path class="st5" d="M54.1,75.6l1.4-2.6h0.6l-0.5,2.6H54.1z M54.1,75.6"/>
	<rect x="58.7" y="40.3" class="st5" width="0.5" height="12.5"/>
	<path class="st5" d="M52.5,50.4l14.4,2.8l0.3,0.5l-14.6-2.9L52.5,50.4z M52.5,50.4"/>
	<path class="st5" d="M57.8,49.2H60l-0.4,1.3h-1.4L57.8,49.2z M57.8,49.2"/>
	<path class="st5" d="M59,41.6l-0.2,0l-5.3,32.7l0.2,0L59,41.6z M59,41.6"/>
	<path class="st5" d="M55.5,51.2l3.1-1l0.1,0.2l-3.1,1L55.5,51.2z M55.5,51.2"/>
	<path class="st5" d="M61.1,42.9c0.7,0.2,0.8,1,1.6,1.1c0.6,0.1,1.2-0.4,1.7-0.7c0.8-0.5,1.2,0.5,2,0.5c0.8,0,1.6-0.4,1.5-1.3
		c-1.4,1.3-2.7-1.7-4.2-0.7c-0.3,0.2-0.6,0.6-1,0.4c-0.3-0.3-0.6-0.6-0.8-0.9c-0.2-0.2-0.7-0.5-1.3-0.4c-0.6,0.1-1.3,0.8-1.7,0.7
		v1.8C59.9,43.9,60,42.6,61.1,42.9L61.1,42.9z M61.1,42.9"/>
	<path class="st1" d="M75.6,77.2c-0.2,0.3-0.4,0.6-0.7,0.9c-0.5,0.5-1.2,0.8-2,0.8c-0.5,0-1.1-0.2-1.5-0.4c-0.2-0.1-0.3-0.2-0.5-0.3
		c-0.3-0.2-0.5-0.5-0.7-0.9c-0.2,0.3-0.4,0.6-0.7,0.9c-0.5,0.5-1.2,0.8-2,0.8c-0.7,0-1.4-0.3-2-0.8c-0.3-0.2-0.5-0.5-0.7-0.9
		c-0.2,0.3-0.4,0.6-0.7,0.9c-0.5,0.5-1.2,0.8-2,0.8c-0.7,0-1.4-0.3-2-0.8c-0.3-0.2-0.5-0.5-0.7-0.9c-0.2,0.3-0.4,0.6-0.7,0.9
		c-0.5,0.5-1.2,0.8-2,0.8c-0.7,0-1.4-0.3-2-0.8c-0.3-0.2-0.5-0.5-0.7-0.9c-0.2,0.3-0.4,0.6-0.7,0.9c-0.5,0.5-1.2,0.8-2,0.8
		c-0.2,0-0.5,0-0.7-0.1c-0.5-0.1-0.9-0.4-1.3-0.7c-0.3-0.2-0.5-0.5-0.7-0.9l0,2c0.7,0.7,1.7,1.1,2.7,1.1c0.9,0,1.8-0.4,2.5-0.9
		c0.1,0,0.1-0.1,0.2-0.1c0.1,0,0.1,0.1,0.2,0.1c0.7,0.6,1.6,0.9,2.5,0.9c1,0,1.8-0.4,2.5-1c0,0,0.1-0.1,0.1-0.1c0,0,0.1,0.1,0.1,0.1
		c0.7,0.6,1.6,1,2.5,1c1,0,1.8-0.4,2.5-1c0,0,0.1-0.1,0.1-0.1c0,0,0.1,0.1,0.1,0.1c0.7,0.6,1.6,1,2.5,1c1,0,1.9-0.4,2.7-1.1
		c0.7,0.7,1.7,1.1,2.7,1.1c1,0,1.9-0.4,2.7-1.1L75.6,77.2z M75.6,77.2"/>
	<path class="st2" d="M89.4,64.8c0.1,0.3,0.5,0.4,0.6,0.1c0,0,1.1-1.9,1.6-3.1c0.3,1.9,5.2,34.7,5.9,38.8c-0.5,0.2-1,0.3-1.6,0.3
		H81.3c0.4-2.2,6.2-37.3,6.7-40.1C88.4,62.5,89.4,64.8,89.4,64.8L89.4,64.8z M89.4,64.8"/>
	<path class="st3" d="M86.3,50.1c0,1.6,2.8,2.4,2.8,3.9c0,1.7-2.9,1-3,3.1c-0.1,2.1,3.2,3.1,3.8,4.3c0.3,0.7-0.2,1.5-0.7,1.7
		c1.6-0.2,1.9-1.8,1-3c-0.9-1.2-1.4-1-1.5-2.2c0-1.2,3.5-1.5,3.5-3.3c0-1.7-2.8-2.7-2.9-4.4c-0.1-1.5,2.7-1.5,2.7-3.2
		c0-1.2-1.6-2.5-3.1-2.5C91.6,48.2,86.3,48,86.3,50.1L86.3,50.1z M86.3,50.1"/>
	<g>
		<defs>
			<rect id="SVGID_2_" x="24.6" y="21.6" width="76.1" height="83"/>
		</defs>
		<clipPath id="SVGID_3_">
			<use xlink:href="#SVGID_2_"  style="overflow:visible;"/>
		</clipPath>
		<path class="st6" d="M100.7,95.9c0,2-1.1,3.7-2.8,4.5c-0.2,0.1-0.4,0.2-0.6,0.3c-0.5,0.2-1,0.3-1.6,0.3H68.5
			c-1.7,0-3.2,0.6-4.4,1.7l-0.6,0.6c-0.3,0.4-0.6,0.8-0.8,1.2c-0.2-0.4-0.5-0.8-0.8-1.2l-0.6-0.6c-1.2-1-2.7-1.7-4.4-1.7H29.7
			c-0.6,0-1.1-0.1-1.6-0.3c-0.2-0.1-0.4-0.2-0.6-0.3c-1.6-0.8-2.8-2.5-2.8-4.5V21.7c25.3,0,50.6,0,75.9,0V95.9z M100.7,95.9"/>
	</g>
</g>
</svg>
