<?xml version="1.0" encoding="utf-8"?>
<!-- Generator: Adobe Illustrator 22.0.1, SVG Export Plug-In . SVG Version: 6.00 Build 0)  -->
<svg version="1.1" id="Слой_1" xmlns="http://www.w3.org/2000/svg" xmlns:xlink="http://www.w3.org/1999/xlink" x="0px" y="0px"
	 viewBox="0 0 127.3 127" style="enable-background:new 0 0 127.3 127;" xml:space="preserve">
<style type="text/css">
	.st0{fill:url(#SVGID_1_);}
	.st1{fill:#FFFFFF;}
	.st2{fill:#B17842;}
	.st3{fill:none;stroke:#B17842;stroke-width:0.1929;}
	.st4{fill:#D1A345;}
	.st5{clip-path:url(#SVGID_3_);fill:none;stroke:#B17842;stroke-width:0.1929;stroke-linejoin:round;}
	.st6{fill:none;stroke:#B17842;stroke-width:0.3857;stroke-linejoin:round;}
	.st7{fill-rule:evenodd;clip-rule:evenodd;fill:#1F1A17;}
	.st8{fill:none;stroke:#1F1A17;stroke-width:5.767436e-02;}
	.st9{fill-rule:evenodd;clip-rule:evenodd;fill:#A92211;}
	.st10{fill:none;stroke:#1F1A17;stroke-width:5.767441e-02;}
	.st11{fill-rule:evenodd;clip-rule:evenodd;fill:#D1A345;}
	.st12{fill:none;stroke:#1F1A17;stroke-width:0.5127;}
	.st13{fill:none;stroke:#1F1A17;stroke-width:0.2563;}
	.st14{fill:none;stroke:#1F1A17;stroke-width:0.2563;stroke-linejoin:round;}
	.st15{fill:none;stroke:#1F1A17;stroke-width:0.1282;stroke-linejoin:round;}
	.st16{fill:none;stroke:#1F1A17;stroke-width:0.1282;}
	.st17{fill:none;stroke:#1F1A17;stroke-width:0.1922;stroke-linejoin:round;}
	.st18{fill:#1F1A17;}
	.st19{fill:none;stroke:#1F1A17;stroke-width:6.408267e-02;stroke-linejoin:round;}
	.st20{fill:none;stroke:#1F1A17;stroke-width:2.813453e-02;}
	.st21{fill-rule:evenodd;clip-rule:evenodd;fill:#FFFFFF;}
	.st22{fill:none;stroke:#1F1A17;stroke-width:0.1922;}
	.st23{fill:none;stroke:#1F1A17;stroke-width:0.3845;}
	.st24{fill:#405A9F;}
	.st25{fill:none;stroke:#405A9F;stroke-width:0.5783;}
	.st26{fill:#D4CAC6;}
	.st27{fill:none;stroke:#103E6F;stroke-width:0.1929;}
	.st28{fill:none;stroke:#D1A345;stroke-width:0.5923;}
	.st29{fill-rule:evenodd;clip-rule:evenodd;fill:#BB9858;}
</style>
<radialGradient id="SVGID_1_" cx="64.8" cy="2586.7468" r="62.6" gradientTransform="matrix(1 0 0 1 0 -2522.3469)" gradientUnits="userSpaceOnUse">
	<stop  offset="0.9487" style="stop-color:#212121"/>
	<stop  offset="1" style="stop-color:#606060;stop-opacity:0"/>
</radialGradient>
<circle class="st0" cx="64.8" cy="64.4" r="62.6"/>
<circle class="st1" cx="62.6" cy="62.6" r="62.6"/>
<g>
	<path class="st1" d="M32.1,35.2v61.9c0,4.2,3.3,7.5,7.1,7.5h15.1c2.4,0,4,0.8,5,1.9c1.1,1.1,1.6,2.5,1.9,3.6l0.1,0.3h0.9l0.1-0.3
		c0.3-1.1,0.9-2.5,1.9-3.6c1.1-1.1,2.6-1.9,5-1.9h15.1c3.9,0,7.1-3.3,7.1-7.5V35.2H32.1z M32.1,35.2"/>
	<rect x="53.2" y="33.8" class="st2" width="17.5" height="1.1"/>
	<rect x="53.2" y="33.8" class="st3" width="17.5" height="1.1"/>
	<path class="st4" d="M62,15.1c-0.8,0.8-1.6,1.7-2.4,2.6c0.9,0.7,1.6,1.4,2.4,2.1c0.8-0.7,1.5-1.5,2.4-2.1
		C63.6,16.8,62.8,15.9,62,15.1L62,15.1z M54.6,18.8c-0.5,0.7-0.9,1.5-1.2,2.3c0.7,0.5,1.4,1,2.1,1.5c0.4-0.8,0.7-1.6,1.2-2.4
		C56,19.6,55.3,19.2,54.6,18.8L54.6,18.8z M69.4,18.8c-0.7,0.4-1.4,0.9-2.1,1.4c0.5,0.8,0.8,1.6,1.2,2.4c0.7-0.5,1.4-1.1,2.1-1.5
		C70.3,20.3,70,19.5,69.4,18.8L69.4,18.8z M58.8,18.8c-1.1,1.5-1.9,2.9-2.6,4.4c0.8,0.7,1.5,1.5,2,2.3c0.3-0.9,0.9-1.8,1.4-2.7
		c0.4,0.4,0.7,0.8,1,1.3c-0.9,1.4-1.6,2.8-2.1,4.1c-0.8-1.3-1.8-2.6-2.9-3.8c-0.6,1.6-1.2,3.1-1.6,4.6c-1.1-2.2-2.4-4.4-3.9-6.4
		c1.3,0.4,2,0.8,2.7,1.4c-0.2,0.2-0.3,0.3-0.4,0.5l1.3,2c0.3-0.9,0.7-1.8,1.1-2.7c-2-1.9-5.2-4.2-8.5-4.4c3.2,3.6,5.4,8.1,6.8,12.7
		c-0.1,0-0.1,0-0.2,0.1l0.2,2.1c5.8-0.6,11.7-0.6,17.5,0l0.1-2.1c-0.1,0-0.1,0-0.2,0c1.4-4.5,3.6-9.1,6.8-12.7
		c-3.3,0.2-6.5,2.5-8.5,4.4c0.4,0.9,0.8,1.8,1.1,2.7l1.3-2c-0.1-0.1-0.2-0.3-0.4-0.5c0.7-0.6,1.5-1,2.7-1.4
		c-1.5,2.1-2.8,4.2-3.9,6.4c-0.4-1.6-0.9-3.1-1.5-4.6c-1.1,1.2-2.1,2.4-2.9,3.8c-0.5-1.4-1.2-2.8-2.1-4.2c0.3-0.4,0.7-0.8,1.1-1.2
		c0.6,0.9,1.1,1.8,1.4,2.7c0.6-0.8,1.2-1.5,2-2.3c-0.7-1.5-1.5-2.9-2.6-4.4C64,19.8,62.9,21,62,22.2C61.1,21,60,19.8,58.8,18.8
		L58.8,18.8z M62,26c0.8,1.5,1.5,3.1,1.8,4.6c-1.2-0.1-2.4-0.1-3.5,0C60.6,29.1,61.2,27.5,62,26L62,26z M62,26"/>
	<g>
		<defs>
			<rect id="SVGID_2_" x="31.7" y="15" width="60.6" height="96.4"/>
		</defs>
		<clipPath id="SVGID_3_">
			<use xlink:href="#SVGID_2_"  style="overflow:visible;"/>
		</clipPath>
		<path class="st5" d="M62,15.1c-0.8,0.8-1.6,1.7-2.4,2.6c0.9,0.7,1.6,1.4,2.4,2.1c0.8-0.7,1.5-1.5,2.4-2.1
			C63.6,16.8,62.8,15.9,62,15.1L62,15.1z M54.6,18.8c-0.5,0.7-0.9,1.5-1.2,2.3c0.7,0.5,1.4,1,2.1,1.5c0.4-0.8,0.7-1.6,1.2-2.4
			C56,19.6,55.3,19.2,54.6,18.8L54.6,18.8z M69.4,18.8c-0.7,0.4-1.4,0.9-2.1,1.4c0.5,0.8,0.8,1.6,1.2,2.4c0.7-0.5,1.4-1.1,2.1-1.5
			C70.3,20.3,70,19.5,69.4,18.8L69.4,18.8z M58.8,18.8c-1.1,1.5-1.9,2.9-2.6,4.4c0.8,0.7,1.5,1.5,2,2.3c0.3-0.9,0.9-1.8,1.4-2.7
			c0.4,0.4,0.7,0.8,1,1.3c-0.9,1.4-1.6,2.8-2.1,4.1c-0.8-1.3-1.8-2.6-2.9-3.8c-0.6,1.6-1.2,3.1-1.6,4.6c-1.1-2.2-2.4-4.4-3.9-6.4
			c1.3,0.4,2,0.8,2.7,1.4c-0.2,0.2-0.3,0.3-0.4,0.5l1.3,2c0.3-0.9,0.7-1.8,1.1-2.7c-2-1.9-5.2-4.2-8.5-4.4c3.2,3.6,5.4,8.1,6.8,12.7
			c-0.1,0-0.1,0-0.2,0.1l0.2,2.1c5.8-0.6,11.7-0.6,17.5,0l0.1-2.1c-0.1,0-0.1,0-0.2,0c1.4-4.5,3.6-9.1,6.8-12.7
			c-3.3,0.2-6.5,2.5-8.5,4.4c0.4,0.9,0.8,1.8,1.1,2.7l1.3-2c-0.1-0.1-0.2-0.3-0.4-0.5c0.7-0.6,1.5-1,2.7-1.4
			c-1.5,2.1-2.8,4.2-3.9,6.4c-0.4-1.6-0.9-3.1-1.5-4.6c-1.1,1.2-2.1,2.4-2.9,3.8c-0.5-1.4-1.2-2.8-2.1-4.2c0.3-0.4,0.7-0.8,1.1-1.2
			c0.6,0.9,1.1,1.8,1.4,2.7c0.6-0.8,1.2-1.5,2-2.3c-0.7-1.5-1.5-2.9-2.6-4.4C64,19.8,62.9,21,62,22.2C61.1,21,60,19.8,58.8,18.8
			L58.8,18.8z M62,26c0.8,1.5,1.5,3.1,1.8,4.6c-1.2-0.1-2.4-0.1-3.5,0C60.6,29.1,61.2,27.5,62,26L62,26z M62,26"/>
	</g>
	<path class="st2" d="M67.2,33.1l1.7-0.5l-1.6-0.8l-1.7,0.5L67.2,33.1z M60.2,32.2l1.8-0.8l1.8,0.8L62,32.9L60.2,32.2z M56.8,33.1
		l-1.7-0.5l1.6-0.8l1.7,0.5L56.8,33.1z M56.8,33.1"/>
	<path class="st4" d="M70.8,34.1c0.6,0.3,0.1,0.9,0,0.9c-1.1-0.6-4.9-1-8.8-0.9c-3.9,0-7.6,0.3-8.8,0.9c-0.1,0.1-0.6-0.6,0-0.9
		c1.1-0.6,4.9-1,8.8-0.9C65.9,33.2,69.6,33.5,70.8,34.1L70.8,34.1z M71,31.3c0.3,0.2,0.3,0.9,0,0.8c-1.1-0.5-5-0.9-8.9-0.8
		c-3.9,0-7.8,0.4-8.9,0.8c-0.4,0.2-0.4-0.6,0-0.8c1.1-0.5,5.1-0.9,9-0.8C65.9,30.4,69.9,30.8,71,31.3L71,31.3z M71,31.3"/>
	<path class="st6" d="M70.8,34.1c0.6,0.3,0.1,0.9,0,0.9c-1.1-0.6-4.9-1-8.8-0.9c-3.9,0-7.6,0.3-8.8,0.9c-0.1,0.1-0.6-0.6,0-0.9
		c1.1-0.6,4.9-1,8.8-0.9C65.9,33.2,69.6,33.5,70.8,34.1L70.8,34.1z M71,31.3c0.3,0.2,0.3,0.9,0,0.8c-1.1-0.5-5-0.9-8.9-0.8
		c-3.9,0-7.8,0.4-8.9,0.8c-0.4,0.2-0.4-0.6,0-0.8c1.1-0.5,5.1-0.9,9-0.8C65.9,30.4,69.9,30.8,71,31.3L71,31.3z M71,31.3"/>
	<path d="M31.7,34.9v63c0,4.3,3.3,7.6,7.3,7.6h15.4c2.5,0,4.1,0.8,5.1,1.9c1.1,1.1,1.7,2.5,2,3.6l0.1,0.3h0.9l0.1-0.3
		c0.3-1.1,0.9-2.5,2-3.6c1.1-1.1,2.6-1.9,5.1-1.9h15.4c3.9,0,7.3-3.3,7.3-7.6v-63H31.7z M32.8,36h58.3v61.9c0,3.7-2.8,6.5-6.1,6.5
		H69.6c-2.8,0-4.7,1-6,2.3c-0.8,0.8-1.3,1.7-1.7,2.6c-0.4-0.9-0.9-1.8-1.7-2.6c-1.3-1.3-3.2-2.3-6-2.3H38.9c-3.3,0-6.1-2.8-6.1-6.5
		V36z M32.8,36"/>
	<path class="st7" d="M61,50.1c0.2-0.5,0.6-0.9,1.3-0.8c0.4,0.1,0.5,0.1,0.8,0.4c0.2,0.2,0.2,0.6,0.3,0.7c-0.2,0.5-1.2,0.5-1.6,0.2
		C61.5,50.4,61.1,50.5,61,50.1L61,50.1z M61,50.1"/>
	<path class="st8" d="M61,50.1c0.2-0.5,0.6-0.9,1.3-0.8c0.4,0.1,0.5,0.1,0.8,0.4c0.2,0.2,0.2,0.6,0.3,0.7c-0.2,0.5-1.2,0.5-1.6,0.2
		C61.5,50.4,61.1,50.5,61,50.1L61,50.1z M61,50.1"/>
	<path class="st7" d="M57.8,70.4c-0.5,0-1-0.2-1.4-0.5c-0.5-0.4-1.1-0.9-1.2,0c0,0.4-0.8-1-0.8-0.4c0,0.1-0.1,0.6,0,0.7
		c0.3,0.5-1.5-0.5-1.7-0.7c-0.5-0.3-0.6-0.8-1.1-1.2c-0.1-0.4-0.8-1.5-1.1-2c-0.6-0.9-1.2-0.9-1.3-1.2c-0.4-1-1.7-3.8-3-2.9
		c-0.5,0.3-0.3-2.4-0.3-2.9c0-1.9,0.1-3.8,2.1-1.6c2.2,2.3,3.3,3.6,6.3,4.9c1.3,0.6,2.1-1.9,3.2-1.9C59.6,63.2,60.4,68.1,57.8,70.4
		L57.8,70.4z M57.8,70.4"/>
	<path class="st8" d="M57.8,70.4c-0.5,0-1-0.2-1.4-0.5c-0.5-0.4-1.1-0.9-1.2,0c0,0.4-0.8-1-0.8-0.4c0,0.1-0.1,0.6,0,0.7
		c0.3,0.5-1.5-0.5-1.7-0.7c-0.5-0.3-0.6-0.8-1.1-1.2c-0.1-0.4-0.8-1.5-1.1-2c-0.6-0.9-1.2-0.9-1.3-1.2c-0.4-1-1.7-3.8-3-2.9
		c-0.5,0.3-0.3-2.4-0.3-2.9c0-1.9,0.1-3.8,2.1-1.6c2.2,2.3,3.3,3.6,6.3,4.9c1.3,0.6,2.1-1.9,3.2-1.9C59.6,63.2,60.4,68.1,57.8,70.4
		L57.8,70.4z M57.8,70.4"/>
	<path class="st7" d="M61.7,87c-0.2-0.1-0.5-0.9-1-0.8l0,2.9c0,0.8-0.4,1.6-0.3,1.8C60,90.8,59.8,90,59.7,90
		c-0.1,0.1,0.1,0.6,0.2,1.4c0.1,1.6,0.6,2.7,0.2,3.2c-0.2,0.2-1.1,0.5-1.6,0.9c-0.7,0.6-1.4,1.4-1.6,1.5c-0.9,0.4-1.6,0.4-3.6,0.4
		c-1.1,0-2.6,0.5-2.9,0.9c0-0.3,0-0.4,0.1-0.8c0.1-0.5,0.4-0.6,0.4-0.6c0,0-0.6,0.1-1.1,0.6c-0.5,0.5-0.4,0.4-0.4,0.4
		c-0.5-0.7,0.9-1.7,0.8-1.7c-0.3-0.1-1.4,0.8-1.7,0.8c-0.1-0.6,1.4-1.7,1.4-1.7c0,0.2-1.2,0.5-1.4,0.6c0-0.1,0-0.5,0.6-0.8
		c1-0.5,1.7-0.6,3-0.7c0.8,0,1.5,0,2-0.1c0.4-0.2,0.8-0.4,1.1-0.8c0.4-0.5,0.7-1.4,0.4-2.6c-0.2-0.6-0.5-0.9-0.6-1.1
		c-0.3,0.2-0.6,0.2-0.6,0.6c-0.4-0.5-0.4-1.5-0.6-1.6c-0.2-0.1-0.7,0.5-0.8,1c-0.1-0.9,0.1-2.7-0.1-2.8c-0.1,0.4-0.4,0.4-0.8,0.6
		c0.1-0.2,0.3-0.4,0.4-0.8c0.2-0.7,0.1-1.7,0.1-2c0-1.4,0.4-2.8,0.9-3.7c0.7-1.3,2.5-1.9,3.6-2.8c1.2-1,2.3-2.9,2.6-4
		c0.3-1.8-1.1-2.5-1.3-2.3c-0.1-0.1-0.2-0.2-0.2-0.3c-0.7-0.8-0.2-2.1-0.6-3.2c-0.3-0.7-0.4-1.2-0.6-0.8c-0.2-0.4-0.1-0.2-0.2-0.9
		c-0.1-0.7,0.5-3.3,0.4-3.3c-0.6,0.2-0.6,0.4-0.9,0.4c0.2-0.4,0.4-0.7,0.6-1.1c0.3-0.6,0.7-1.7,0.9-2.1c0.2-0.4,0.8-1.3,0.9-1.4
		c-0.4,0.2-0.9,0.7-1,0.7c0-0.3,0.6-1.1,0.6-1.9c0-0.5-0.4-0.9-0.7-1.2c-0.3-0.3-0.8-0.5-1.3-0.5c-0.3,0-0.5,0.3-0.6,0.3
		c-0.1,0-0.2-0.2-0.2-0.7c0-0.1,0-0.3,0.1-0.3c0.2-0.2,0.9-0.2,1.4,0c0.4,0.1,0.8,0.4,0.9,0.5c1.2,0.3,1.4-0.8,0.6-1.4
		c-0.4-0.3-1.2-0.2-1.9-0.2c-0.4,0-0.8,0.2-1.1,0.1c-0.1,0-0.3-0.3-0.4-0.4c-0.1-0.2-0.2-0.5-0.5-0.8C54.3,53,54,52.8,54,52.6
		c0-0.1,0.1-0.3,0.2-0.3c0.6-0.5,1.9-0.8,2.9-0.9c0.6-0.1,0.9,0,1.4-0.3c0.4-0.3,1.3-0.9,1.7-1c0.6,0,1.3,0.1,2,0.2
		c0.2,0,0.4,0.1,0.6,0.1c0.8-0.2,2.1-1.1,2.6,0.1c0.1,0.2,0.2,0.5,0.2,0.8c0,0.1,0,0.3,0,0.4c0,0.1,0.4,0.2,0.7,0.4
		c0.8,0.7,1.9,2.1,2.2,2.4c0.2,0.2,0.4,0.4,0.3,0.5c0,0.1-0.4-0.1-0.5,0c0,0.1,0,0.3,0.2,0.6c0.2,0.5,1.4,1,2,1.3
		c0.1,0.1,0.3,0.3,0.3,0.4c-0.1,0-0.7,0-0.5,0.6c0,0.1,0.4,0.2,0.8,0.4c0.8,0.3,1.9,1.2,2.2,1.5c0.2,0.3,0.4,0.5,0.5,0.7
		c0.2,0.2,0.4,0.4,0,0.4c-0.1,0,0,0.6,0.3,0.6c-2.5,3.4-4.4,7-2.1,11c0.7,1.1,4.1,3,5.5,2.5c0.3,0.3,1.4,1.5,1.2,2.2
		c-0.3-0.1-0.2-0.2-0.2,0.1l0.1,1.1c0.1,0.7-0.5-0.1-0.8-0.1c-0.5,0,0.1,0.2,0.3,0.6c0.3,0.5,0.7,2.2,0.9,3.5c0.1,0.6,1,1.1,1.2,1.4
		c-0.6-0.2-0.2,1,0.5,2.1c0.5,0.8,1.1,1.6,1.4,2.3c0.2,0.5,1.1,2,0.7,2.6c-0.2,0.3-0.7,0.5-1.1,1c-0.8,0.9-1.5,2.6-1.6,3.7
		c-0.1,1.6-1.9,1.8-3.1,2.1c-0.6,0.7-0.7,0.6-0.8,0.6c-0.2-0.2-0.1-0.5-0.1-1c0-0.1-0.2,0.2-0.5,0.3c-0.4,0.2-1,0.4-1.1,0.5
		c0-0.2,0.2-0.8,0.2-0.7c-0.1,0.1-0.4,0.1-0.7,0.3c-0.3,0.1-0.5,0.3-0.6,0.4c0-0.2-0.1,0,0-0.6c0.1-0.3,0.1-0.4,0.1-0.4
		c0,0-0.5,0-0.7,0.2c-0.3,0.3-0.6,0.4-0.7,0.4c0-0.2,0.2-0.7,0.4-1.1c0.3-0.4,0.6-0.8,1.1-0.9c0.5-0.1,1.1-0.1,1.6-0.5
		c0.6-0.6,1.5-1.6,1.7-2.6c0.4-1.5,0.2-3.5-1.6-3.9c-0.3-0.1-0.2,0.4,0.1,0.6c-0.2,0.3-1.1-0.8-1.2-0.7c0,0.3,0,0.6,0.2,0.8
		c-0.2,0-0.4-0.3-0.7-0.5c-0.7-0.6-0.9-0.6-1.7-0.6c1-1.3,2-2.9,0.9-4.9c-3.1-5.8-8.4-0.9-10.4,1.9C61.9,86,61.7,86.9,61.7,87
		L61.7,87z M61.7,87"/>
	<path class="st8" d="M61.7,87c-0.2-0.1-0.5-0.9-1-0.8l0,2.9c0,0.8-0.4,1.6-0.3,1.8C60,90.8,59.8,90,59.7,90
		c-0.1,0.1,0.1,0.6,0.2,1.4c0.1,1.6,0.6,2.7,0.2,3.2c-0.2,0.2-1.1,0.5-1.6,0.9c-0.7,0.6-1.4,1.4-1.6,1.5c-0.9,0.4-1.6,0.4-3.6,0.4
		c-1.1,0-2.6,0.5-2.9,0.9c0-0.3,0-0.4,0.1-0.8c0.1-0.5,0.4-0.6,0.4-0.6c0,0-0.6,0.1-1.1,0.6c-0.5,0.5-0.4,0.4-0.4,0.4
		c-0.5-0.7,0.9-1.7,0.8-1.7c-0.3-0.1-1.4,0.8-1.7,0.8c-0.1-0.6,1.4-1.7,1.4-1.7c0,0.2-1.2,0.5-1.4,0.6c0-0.1,0-0.5,0.6-0.8
		c1-0.5,1.7-0.6,3-0.7c0.8,0,1.5,0,2-0.1c0.4-0.2,0.8-0.4,1.1-0.8c0.4-0.5,0.7-1.4,0.4-2.6c-0.2-0.6-0.5-0.9-0.6-1.1
		c-0.3,0.2-0.6,0.2-0.6,0.6c-0.4-0.5-0.4-1.5-0.6-1.6c-0.2-0.1-0.7,0.5-0.8,1c-0.1-0.9,0.1-2.7-0.1-2.8c-0.1,0.4-0.4,0.4-0.8,0.6
		c0.1-0.2,0.3-0.4,0.4-0.8c0.2-0.7,0.1-1.7,0.1-2c0-1.4,0.4-2.8,0.9-3.7c0.7-1.3,2.5-1.9,3.6-2.8c1.2-1,2.3-2.9,2.6-4
		c0.3-1.8-1.1-2.5-1.3-2.3c-0.1-0.1-0.2-0.2-0.2-0.3c-0.7-0.8-0.2-2.1-0.6-3.2c-0.3-0.7-0.4-1.2-0.6-0.8c-0.2-0.4-0.1-0.2-0.2-0.9
		c-0.1-0.7,0.5-3.3,0.4-3.3c-0.6,0.2-0.6,0.4-0.9,0.4c0.2-0.4,0.4-0.7,0.6-1.1c0.3-0.6,0.7-1.7,0.9-2.1c0.2-0.4,0.8-1.3,0.9-1.4
		c-0.4,0.2-0.9,0.7-1,0.7c0-0.3,0.6-1.1,0.6-1.9c0-0.5-0.4-0.9-0.7-1.2c-0.3-0.3-0.8-0.5-1.3-0.5c-0.3,0-0.5,0.3-0.6,0.3
		c-0.1,0-0.2-0.2-0.2-0.7c0-0.1,0-0.3,0.1-0.3c0.2-0.2,0.9-0.2,1.4,0c0.4,0.1,0.8,0.4,0.9,0.5c1.2,0.3,1.4-0.8,0.6-1.4
		c-0.4-0.3-1.2-0.2-1.9-0.2c-0.4,0-0.8,0.2-1.1,0.1c-0.1,0-0.3-0.3-0.4-0.4c-0.1-0.2-0.2-0.5-0.5-0.8C54.3,53,54,52.8,54,52.6
		c0-0.1,0.1-0.3,0.2-0.3c0.6-0.5,1.9-0.8,2.9-0.9c0.6-0.1,0.9,0,1.4-0.3c0.4-0.3,1.3-0.9,1.7-1c0.6,0,1.3,0.1,2,0.2
		c0.2,0,0.4,0.1,0.6,0.1c0.8-0.2,2.1-1.1,2.6,0.1c0.1,0.2,0.2,0.5,0.2,0.8c0,0.1,0,0.3,0,0.4c0,0.1,0.4,0.2,0.7,0.4
		c0.8,0.7,1.9,2.1,2.2,2.4c0.2,0.2,0.4,0.4,0.3,0.5c0,0.1-0.4-0.1-0.5,0c0,0.1,0,0.3,0.2,0.6c0.2,0.5,1.4,1,2,1.3
		c0.1,0.1,0.3,0.3,0.3,0.4c-0.1,0-0.7,0-0.5,0.6c0,0.1,0.4,0.2,0.8,0.4c0.8,0.3,1.9,1.2,2.2,1.5c0.2,0.3,0.4,0.5,0.5,0.7
		c0.2,0.2,0.4,0.4,0,0.4c-0.1,0,0,0.6,0.3,0.6c-2.5,3.4-4.4,7-2.1,11c0.7,1.1,4.1,3,5.5,2.5c0.3,0.3,1.4,1.5,1.2,2.2
		c-0.3-0.1-0.2-0.2-0.2,0.1l0.1,1.1c0.1,0.7-0.5-0.1-0.8-0.1c-0.5,0,0.1,0.2,0.3,0.6c0.3,0.5,0.7,2.2,0.9,3.5c0.1,0.6,1,1.1,1.2,1.4
		c-0.6-0.2-0.2,1,0.5,2.1c0.5,0.8,1.1,1.6,1.4,2.3c0.2,0.5,1.1,2,0.7,2.6c-0.2,0.3-0.7,0.5-1.1,1c-0.8,0.9-1.5,2.6-1.6,3.7
		c-0.1,1.6-1.9,1.8-3.1,2.1c-0.6,0.7-0.7,0.6-0.8,0.6c-0.2-0.2-0.1-0.5-0.1-1c0-0.1-0.2,0.2-0.5,0.3c-0.4,0.2-1,0.4-1.1,0.5
		c0-0.2,0.2-0.8,0.2-0.7c-0.1,0.1-0.4,0.1-0.7,0.3c-0.3,0.1-0.5,0.3-0.6,0.4c0-0.2-0.1,0,0-0.6c0.1-0.3,0.1-0.4,0.1-0.4
		c0,0-0.5,0-0.7,0.2c-0.3,0.3-0.6,0.4-0.7,0.4c0-0.2,0.2-0.7,0.4-1.1c0.3-0.4,0.6-0.8,1.1-0.9c0.5-0.1,1.1-0.1,1.6-0.5
		c0.6-0.6,1.5-1.6,1.7-2.6c0.4-1.5,0.2-3.5-1.6-3.9c-0.3-0.1-0.2,0.4,0.1,0.6c-0.2,0.3-1.1-0.8-1.2-0.7c0,0.3,0,0.6,0.2,0.8
		c-0.2,0-0.4-0.3-0.7-0.5c-0.7-0.6-0.9-0.6-1.7-0.6c1-1.3,2-2.9,0.9-4.9c-3.1-5.8-8.4-0.9-10.4,1.9C61.9,86,61.7,86.9,61.7,87
		L61.7,87z M61.7,87 M63.1,50.9c0.5,0.2,0.9-0.7,1.6-0.3c0.4,0.2,0.4,0.7,0.4,1.1"/>
	<path class="st9" d="M77.5,75.3c0.4,0.3,0.1,0.1,0.4,0.5c0,0-0.1,0-0.2,0c0.5,0.6,0.4,0.2,0.7,0.9c-0.2-0.1-0.3-0.4-0.6-0.4
		c0.2,0.3,0.4,0.7,0.4,1C78.2,77.3,78,77,77.9,77c0,0.3,0.4,0.7,0.3,1.2c-0.3-0.2-0.4-0.4-0.8-0.5c0,0.1,0,0.1,0.1,0.3
		c-0.2-0.1-0.8,0-1-0.1l0.3-2.7C77.1,75.3,77.3,75.2,77.5,75.3L77.5,75.3z M77.5,75.3"/>
	<path class="st8" d="M77.5,75.3c0.4,0.3,0.1,0.1,0.4,0.5c0,0-0.1,0-0.2,0c0.5,0.6,0.4,0.2,0.7,0.9c-0.2-0.1-0.3-0.4-0.6-0.4
		c0.2,0.3,0.4,0.7,0.4,1C78.2,77.3,78,77,77.9,77c0,0.3,0.4,0.7,0.3,1.2c-0.3-0.2-0.4-0.4-0.8-0.5c0,0.1,0,0.1,0.1,0.3
		c-0.2-0.1-0.8,0-1-0.1l0.3-2.7C77.1,75.3,77.3,75.2,77.5,75.3L77.5,75.3z M77.5,75.3 M61.3,51.4C61,51.5,61.5,51.9,61,52
		c-0.4,0.1-0.7,0.2-1.1,0.2"/>
	<path class="st9" d="M58,57.2l0.2-0.1c0,0,0,0.1,0,0.1l0.2-0.1l-0.1,0.2l0.2-0.2c0,0.1,0,0.2,0,0.3l-0.1,0.3l0.1,0
		c0,0.4-0.1,0.9-0.1,1.2l1.3-0.4l0,0.2l-0.1,0.3l0.2-0.1l0,0.2l-0.2,0.3l0.2-0.2l0.1,0.2c0,0,0.3-0.1,0.4-0.2l-0.3,0.4L60,59.5
		l-0.1,0.2l-0.2-0.1l-0.4,0.2l0.1-0.9l-0.5,0.4l-0.3,0.5l0.3-0.1l-1.2,1.4c-0.4,0.7-0.9,1.3-1.2,2l1-0.6l0,0.5l0.8-1.3l0,1.4
		l0.4-0.8l0.2-0.3c0.2,0.4,0.1,0.5,0.3,1.2l0.3-0.8l0.1,0.6l0.2-0.5l0.1,0.4l0.1-0.4l0.2,0.4l0.2-0.4l0.1,0.2l5.5-0.8l0-0.4l0-0.3
		l0.6-1v0.1L67,60l-0.9-1.2l-0.1,0.7l-1.2-1l0,0.5l-0.2,0.6l-0.3-0.3L64,58.8l-0.1,0.3l-0.3,0.4l-0.3-0.2l0-0.2l0.4,0.2l0.2-0.2
		l0-0.4l0.1,0l0.5,0.7l0.1-0.5l0-0.6l1.1,0.8l0-0.8l0.3,0.2l0-0.2l0.9,1l0.1-0.7l0.5,0.1l-0.4-0.7l1.1,0.5l-0.4-0.6l1.4,0.5l-0.8-1
		l1.1,0.5l-0.7-1l1,0.5l-1-0.9l0.2,0l-1.5-0.9l0.8,0.2L68,55l0.4-0.2l-0.7-0.7l-0.2,0.5l-0.8,0.1l0.1,0.3L66.4,55l0,0.5l-0.3-0.2
		l0.4,0.5l-0.1,0l0,0.3L66,55.9l0,0.6l-0.6-0.3l0.1,0.8l-0.8-0.5l-0.1,1.1l-0.7-0.8l0.4,0.2l0.2-0.8l0.7,0.3l0.1-0.7l0.6,0.4
		l-0.2-0.8l0.4,0.2l-0.3-0.4l0.5,0.1l-0.2-0.6l0.4,0.1c0,0-0.2-0.3-0.1-0.3c0,0,0.6,0,0.6,0l-0.4-0.4l0.8,0.1l-0.5-0.3
		c0,0,0.1,0,0.1,0l0.5,0c-0.1-0.2-0.6-0.2-0.4-0.5c0-0.1-0.4-0.4-0.6-0.5v-0.1h0.2c0-0.1-0.2-0.3-0.3-0.3l-0.6-0.3
		c-0.2,0-0.3-0.3-0.2-0.5l0-0.5c-0.1-0.6-0.2-0.8-0.5-1c-0.7-0.4-2.1,0.3-2.1,0.3c-0.1,0-1.4-0.3-1.8-0.3c-0.4,0-0.7-0.1-0.9,0
		c-1,0.3-1.1,0.9-2,1.1c-1.1,0.2-1.6,0.3-2.4,0.5c-0.6,0.2-0.8,0.5-0.9,1.1c-0.2,0.8,0.4,1.3,0.7,1.4c0.2,0,2.2-0.2,2.4-0.2
		c0.9,0,2.1,1.6,1.3,2.1c-0.5,0.3-2.7-0.6-3.5-0.6c-0.8,0-0.6,0.6-0.4,0.5c0.6-0.1,0.3-0.1,0.9,0c0.6,0.1,1.4,0.2,1.7,0.7L58,57.2z
		 M58,57.2"/>
	<path class="st9" d="M76,79.4c0,0-0.4-0.1-0.5-0.1c0.2,0.3-0.4-0.2-0.4-0.2c-0.3-0.1,1.2,1.2,0.9,1.1c0.1,0.2,0.4-2.5,1-2.1
		c0.2,0.2,1.2,1.4,1.3,2.3c0,0.2-0.5-0.3-0.5-0.1c0.1,0.3,0.5,0.8,0.6,1.1c0,0.2-0.7-0.1-0.6,0c0.6,0.1,0.6,0.6,0.8,1l-0.3-0.1
		l0.9,1l-1-0.7l1.1,1l-0.8-0.3l1,0.8l-1.2-0.4l1.6,1.1l-1.3-0.1l1.6,0.7c-0.3,0-0.8,0-1.1,0c0.1,0.2,0.8,0,1.4,0.5
		c0.2,0.2,0.4,0.6,0.7,1l0.8,1.4l0.5,0.9c0.1,0.1,0.2,1.1,0.1,1.2c-0.7,0.5-1.9,2.2-2.2,3.1l-0.2,0.7c-0.1,0.4-0.5,1.8-0.8,2
		c-0.3,0.3-0.3,0.3-0.7,0.4L78.6,97l-0.1-0.2l-0.3,0.1l-0.1-0.2l-0.3,0.4l-0.1-0.4l-0.3,0.3l-0.1-0.3l-0.2-0.1l-0.6,0.2l0.4-0.6
		c-1.2,0.9-0.9,0.6-1.2,0.2c0,0-0.3,0-0.3,0c0-0.1,0.9-0.6,0.9-0.7c0,0-0.9,0.5-1,0.5l-0.3,0.1l-0.3-0.1l-0.1-0.1l0.5-0.3l0.7-0.4
		c0.2-0.3,0.6-0.5,1-0.9c-0.4-0.1-1.2,0.7-1.4,0.9l-0.8,0.4L74.5,96l-0.1,0L74.2,96l-0.1-0.4l0.6-0.1l0.3-0.1l0.5-0.3l-0.2-0.1
		l1.1-0.7l-0.4-0.1l0.8-0.3l-0.4-0.2l0.9-1.2l-0.3,0l0.4-0.3l-0.3,0l0.5-0.4l-0.3,0l0.5-0.3l-0.4,0l0.5-0.4l-0.4-0.1l-0.4-0.3
		l0.1-1.3l-0.3,0l0.1-0.4l-0.3,0.3l0-0.7l-0.2,0.4l-0.2-0.4l0.2-0.5l-0.3,0.5l0.1-0.9l-0.2,0.7l-0.1-1l-0.1,1L75.6,87l0.1,1.1
		l-0.6-0.9l0.2,1l-0.6-0.8l0.1,1l-0.9-1.1c0,0.4,0,0.7,0.1,1.1l-1.4-0.7l0.2-1.3l1.2-0.6l1.2-1.9c0.6-1.5,0.1-4.6,1.2-5.6
		c0.3-0.1,0.4-0.1,0.6,0C77.1,78.4,76,79.4,76,79.4L76,79.4z M76,79.4"/>
	<path class="st8" d="M76,79.4c0,0-0.4-0.1-0.5-0.1c0.2,0.3-0.4-0.2-0.4-0.2c-0.3-0.1,1.2,1.2,0.9,1.1c0.1,0.2,0.4-2.5,1-2.1
		c0.2,0.2,1.2,1.4,1.3,2.3c0,0.2-0.5-0.3-0.5-0.1c0.1,0.3,0.5,0.8,0.6,1.1c0,0.2-0.7-0.1-0.6,0c0.6,0.1,0.6,0.6,0.8,1l-0.3-0.1
		l0.9,1l-1-0.7l1.1,1l-0.8-0.3l1,0.8l-1.2-0.4l1.6,1.1l-1.3-0.1l1.6,0.7c-0.3,0-0.8,0-1.1,0c0.1,0.2,0.8,0,1.4,0.5
		c0.2,0.2,0.4,0.6,0.7,1l0.8,1.4l0.5,0.9c0.1,0.1,0.2,1.1,0.1,1.2c-0.7,0.5-1.9,2.2-2.2,3.1l-0.2,0.7c-0.1,0.4-0.5,1.8-0.8,2
		c-0.3,0.3-0.3,0.3-0.7,0.4L78.6,97l-0.1-0.2l-0.3,0.1l-0.1-0.2l-0.3,0.4l-0.1-0.4l-0.3,0.3l-0.1-0.3l-0.2-0.1l-0.6,0.2l0.4-0.6
		c-1.2,0.9-0.9,0.6-1.2,0.2c0,0-0.3,0-0.3,0c0-0.1,0.9-0.6,0.9-0.7c0,0-0.9,0.5-1,0.5l-0.3,0.1l-0.3-0.1l-0.1-0.1l0.5-0.3l0.7-0.4
		c0.2-0.3,0.6-0.5,1-0.9c-0.4-0.1-1.2,0.7-1.4,0.9l-0.8,0.4L74.5,96l-0.1,0L74.2,96l-0.1-0.4l0.6-0.1l0.3-0.1l0.5-0.3l-0.2-0.1
		l1.1-0.7l-0.4-0.1l0.8-0.3l-0.4-0.2l0.9-1.2l-0.3,0l0.4-0.3l-0.3,0l0.5-0.4l-0.3,0l0.5-0.3l-0.4,0l0.5-0.4l-0.4-0.1l-0.4-0.3
		l0.1-1.3l-0.3,0l0.1-0.4l-0.3,0.3l0-0.7l-0.2,0.4l-0.2-0.4l0.2-0.5l-0.3,0.5l0.1-0.9l-0.2,0.7l-0.1-1l-0.1,1L75.6,87l0.1,1.1
		l-0.6-0.9l0.2,1l-0.6-0.8l0.1,1l-0.9-1.1c0,0.4,0,0.7,0.1,1.1l-1.4-0.7l0.2-1.3l1.2-0.6l1.2-1.9c0.6-1.5,0.1-4.6,1.2-5.6
		c0.3-0.1,0.4-0.1,0.6,0C77.1,78.4,76,79.4,76,79.4L76,79.4z M76,79.4"/>
	<path class="st9" d="M52.4,68.4l0.1-0.7c0.1,0.3,0.2,0.9,0.3,1.1l0-1l0.3,1.4l0.1-0.8l0.3,1l0-0.8l0.8,1.7c0,0,0-1.2,0.1-1.7
		l0.2,0.7l0.2-0.6l0.1-0.1l0.2,0.1l0.1,0.2l0.1-0.1l0.2,0.1l0.2-0.2l0.2,0.4l0.1-0.2l0.1,0.2l0.2-0.1l0.2,0.3l0.2-0.1l0.5,0.8l0-0.1
		c-1-2.5-1-5.9,0-8.5c-0.5,0.2-1.9,1.4-2.4,1.5c-0.3,0-0.2,0-0.8-0.2c-1.4-0.4-2.4-1-3.4-1.9c-0.8-0.8-3.2-3.7-3.9-3.5v0.4
		c0,0.3-0.2,0.3,0,0.6c0.1,0.2,0.2,0.3,0.4,0.5c0.3,0.6,0,0.6,0,1.4c-0.5,0.4-0.7,1.5-0.1,2c0.2,0.1,0.5,0,0.8,0.3
		c0.3,0.3,0.9,1.1,0.9,1.3c0.2,0.2,0.3,1.3,0.7,1.6c0.2,0.2,0.6-0.3,0.7,0C51,66.4,51.6,67.4,52.4,68.4L52.4,68.4z M52.4,68.4"/>
	<path class="st9" d="M67.5,62.2l-0.8-1.1l0.3-0.5l0.5-0.3l0.3-0.2l0-0.3l-0.5,0.1l0.8-1.1l-0.9,0.4l0.4-0.5l0.7-0.2l0.3-0.2l0.9,0
		L69.5,58l2.2,0.8l-0.9-0.2l1.7,0.9l-0.9-0.2l0.6,0.4l-1.1-0.2l1.3,0.5l-0.9-0.2l1.5,0.7l-0.9-0.2l1,0.5l-0.7-0.1l0.8,0.4l-0.7-0.1
		l0.5,0.3l-2.7,0.9L67.5,62.2z M67.5,62.2"/>
	<path class="st10" d="M67.5,62.2l-0.8-1.1l0.3-0.5l0.5-0.3l0.3-0.2l0-0.3l-0.5,0.1l0.8-1.1l-0.9,0.4l0.4-0.5l0.7-0.2l0.3-0.2l0.9,0
		L69.5,58l2.2,0.8l-0.9-0.2l1.7,0.9l-0.9-0.2l0.6,0.4l-1.1-0.2l1.3,0.5l-0.9-0.2l1.5,0.7l-0.9-0.2l1,0.5l-0.7-0.1l0.8,0.4l-0.7-0.1
		l0.5,0.3l-2.7,0.9L67.5,62.2z M67.5,62.2"/>
	<path class="st7" d="M61,81.6l0,0.2c-0.4,0.1-0.4-0.6-0.8,0.7l-0.2,0.1l0,0.4l-0.2,0L59,83.8l0,0.3l-0.6,0.5l0,0.2l0.1-0.2
		c0.2,0,0.4,0.6,0.4,0.8c0,0.3-0.2,0.2,0,0.5l0-0.1c0.5,0.1-0.1-0.2,0.5-0.1c0.3-0.5,0.1-1.4,0.6-1.9c0.2-0.2,0.6-1.3,0.8-1.4
		c0.2,0,0.7,0.3,0.8,0.5c0-0.7,0.5,0.9,0.3,0c-0.2-0.8-0.1-0.5,0.2,0c0.3,0.6-0.1-0.8-0.1-0.9c0-0.2,0.5,1.2,0.6,0.6
		c0-0.2-0.5-1.2-0.3-1.1c0.1,0.1,0.6,1.3,0.4,0.5c0,0-0.5-1.5-0.1-0.7c0.4,0.8,0.1-0.4,0-0.6l0,0.2l-0.5,0l-0.1-0.2l-0.1,0.3
		l-0.2-0.1l0,0.2l0,0L61,81.6z M61,81.6"/>
	<path class="st7" d="M58.4,84.9l0.2,1.5l-0.1,0L57.9,86l-0.2,0c0,0.2,0.3,1.1,0.3,1.5v0.3c0,0.1,0,0.1-0.1,0.2l-0.3-0.3l0,0l0,0.4
		l-0.1,0.1l0.3,0.2v0.4h0l0.1-0.1l0-0.2l0.5-0.2l0-0.2l0,0l-0.1-0.4v-0.3c0-0.2,0-0.1,0.1-0.2l0.2,0.4c0.3-0.1,0.2-1.2,0.2-1.5
		c-0.1-0.3,0-0.2,0-0.5c0-0.1-0.2-0.8-0.4-0.8L58.4,84.9z M58.4,84.9"/>
	<path class="st11" d="M73.4,97.7l1.3-1C74.9,95.5,73.3,97.1,73.4,97.7L73.4,97.7z M73.4,97.7"/>
	<polyline class="st12" points="56.7,65 56.2,67.3 56.9,66.6 	"/>
	<path class="st11" d="M74.6,97.8l1.2-0.7C76.1,96,74.3,97.2,74.6,97.8L74.6,97.8z M74.6,97.8"/>
	<path class="st11" d="M72.3,97.3l1.5-1.2l-0.2-0.3h-0.2C73,95.7,72.3,97.1,72.3,97.3L72.3,97.3z M72.3,97.3"/>
	<path class="st7" d="M63.1,51c0,0.5,0.6,0.7,1,0.4l-0.1-0.3L64,51l0.4,0.2l0.2-0.2c0.6,0.1,0.3,0.6,0.5,0.8c0.2-0.4-0.1-1-0.6-1.2
		C64.1,50.5,63.3,50.8,63.1,51L63.1,51z M63.1,51"/>
	<path class="st9" d="M61.3,50l1.5,0.1h0.1l0.2,0c0-0.3-0.6-0.6-0.9-0.6h-0.3C61.7,49.5,61.2,49.7,61.3,50L61.3,50z M61.3,50"/>
	<path class="st13" d="M60,52.3c0.2,0,0.4,0,0.6-0.1c0.1,0,0.1-0.1,0.2-0.1c0.1,0,0.6-0.1,0.6-0.2c0-0.1-0.1-0.2-0.1-0.3
		c0-0.1,0.1-0.1,0.2-0.2"/>
	<path class="st14" d="M62.7,52.1c0.1,0,0.2,0,0.2,0h0.2 M62.4,52.4c0.2,0,0.3,0.1,0.5,0.1c0.1,0,0.1,0,0.2,0 M62.2,52.7
		c0.2,0,0.3,0,0.4,0c0.1,0,0.1,0,0.2,0 M61.9,53.1c0.1,0,0.1,0,0.2,0.1c0.1,0,0.3,0,0.5,0 M61.6,53.4c0.3,0.1,0.5,0.1,0.8,0.1
		 M61.1,53.5c0,0.1,0.5,0.2,0.7,0.2 M60.6,53.8c0.1,0,0.2,0,0.3,0.1c0.2,0.1,0.4,0.1,0.6,0.1"/>
	<path class="st15" d="M52.1,65.8c0.2,0.6,0.3,0.9,0.3,0.9l0.1-0.5l0.3,1c0,0,0.2-0.8,0.2-0.8c0,0,0.3,0.9,0.3,1s0.2-0.6,0.2-0.5
		c0,0.1,0.3,0.9,0.3,0.9s0.1-0.7,0.1-0.6c0,0,0.3,0.6,0.3,0.6s0.1-0.5,0.1-0.5c0,0,0.2,0.5,0.2,0.5s0-0.5,0.1-0.5
		c0.1,0.1,0.3,0.5,0.3,0.5l0-0.5l0.2,0.3c0,0,0.1-0.5,0.1-0.5c0,0,0.2,0.4,0.2,0.4"/>
	<path class="st11" d="M50.2,96.1l0.4-0.2l0,0c0-0.2-0.1-0.3-0.1-0.3l-0.2-0.1c-0.5,0-1.3,0.6-1.4,1C49.6,96.5,49.5,96.2,50.2,96.1
		L50.2,96.1z M50.2,96.1"/>
	<path class="st11" d="M50.8,96.7v-0.1l0-0.1l-0.6-0.2c-0.4,0.2-0.9,0.7-0.7,1.2c0.2,0,0.4-0.2,0.6-0.3c0.3-0.3,0.3-0.2,0.7-0.3
		L50.8,96.7L50.8,96.7z M50.8,96.7"/>
	<path class="st11" d="M51.3,96.8c-0.4,0.2-0.7,0.6-0.6,1.1c0.2,0,0.4-0.3,0.5-0.4C51.7,97.3,52.5,97.5,51.3,96.8L51.3,96.8z
		 M51.3,96.8"/>
	<path class="st11" d="M48.7,95.8c0.2-0.1,0.8-0.4,1.3-0.6c0-0.1,0.1-0.2,0.1-0.3L50,94.9C49.6,94.9,48.7,95.2,48.7,95.8L48.7,95.8z
		 M48.7,95.8"/>
	<path class="st16" d="M55.3,53.4c-0.1,0.1-0.1,0.2,0,0.3c0,0,0,0,0,0c0,0,0,0,0,0 M55.6,53.5c-0.1,0.1,0,0.3,0,0.4 M55.8,53.6
		c0,0.1,0,0.4,0.2,0.4 M56,53.6c-0.2,0.2,0,0.4,0.2,0.4 M56.3,53.5c-0.2,0.2,0.1,0.4,0.3,0.4 M56.5,53.6c0,0.1,0.1,0.3,0.3,0.3
		 M56.8,53.6c0,0.1,0.1,0.2,0.2,0.2"/>
	<path class="st9" d="M56.8,78.5l-1.3,0.8c-0.6,0.4-1.2,1.2-1.8,2c-0.7,1-0.8,2-1,3.1l0,0.8l0.3-0.7l-0.5,1.5l0.9-1.5l-0.8,1.9
		l1-1.5l-0.7,2.2l1.1-1.9l-1.3,3.1l1.3-2.5l-1.1,3l1.1-2.7l-0.6,2.3l0.8-1.6l-0.5,1.9l0.6-1.2l-0.4,1.8l0.6-1.3l-0.4,2l0.6-1.4
		L54.4,90L55,89L55,90l0.4-0.3c0,0.2,0,0.5,0,0.8c0.1-0.1,0.3-0.3,0.4-0.4l-0.2,1l0.4-0.6l-0.2,0.9c0.2-0.1,0.2-0.1,0.3-0.2
		l-0.3,0.5l0.2,0l-0.3,0.5l0.3-0.1l-0.3,0.4l0.4-0.1l-0.5,0.3l0.4,0L55.4,93l0.5-0.1l-0.6,0.3l0.4,0l-0.5,0.3l0.3,0.2
		c-0.2,0.1-0.3,0-0.5,0.1l0.4,0.2L54.7,94l0.9,0.3l-1.1-0.2c-0.7,0.3-0.5,0.3-1.9,0.4c-1,0.1-1,0.1-2,0.4c0.1,0.1,0,0.2,0.1,0.3
		c0.1,0.2,0.3,0.2,0.3,0.2c0.1,0.2,0.3,0.1,0.3,0.4c0.1,0.2,0,0.6,0.1,0.7c0.1,0.1,0.3,0.2,0.3,0.3c0.1,0.1,0.3,0.2,0.4,0.2
		c0.2,0.2,0.3,0.1,0.6,0.1l0.2-0.2l0.1-0.1l0.1-0.1l0,0.2l-0.1,0.2l0.1,0.1c0.2-0.3,0.2-0.3,0.4-0.4l0,0.1l-0.1,0.1l-0.1,0.2l0.1,0
		l0.2-0.2l0.1-0.1l0.1-0.1l0.1,0l-0.1,0.1l-0.2,0.2l0.1,0l0.2-0.2l0.1-0.1l-0.2,0.3l0.1,0l0.3-0.3c0,0.6,0.9,0.2,1.4,0.2
		c0.7,0,1.1-0.3,1.6-0.7c0.4-0.4,0.7-0.8,1-1c0.9-0.7,1.8-0.8,1.8-1.3c0.1-1.2-0.4-2.5-0.4-3.6c0-0.4,0-0.4,0.1-0.8
		c0-0.1,0.4,0.3,0.6,0.7c0-0.3-0.1-1.3-0.2-1.4c0.1,0.1,0.3,0.3,0.3,0.4c0-0.5-0.2-0.9-0.3-1.4c0.1,0.2,0.1,0.1,0.3,0.5
		c-0.1-0.4-0.4-1.2-0.4-1.5c0.2,0.1,0.4,0.6,0.5,0.7c0-0.1-0.1-0.5-0.3-1.4l0.3,0.6l-0.2-1.1l0.2,0.2l0-0.6l0.3,0.3l0.1-0.5l0.4,0.8
		l-0.1-0.9l0.4,1.2l-0.1-1.2l0.3,0.3l-0.2-1.1c0.3,0.7,0.3,0.6,0.4,0.8c0-0.3-0.2-0.7-0.2-1.1l0.3,0.4l-0.2-1L62,84l0-0.6l0.3,0.6
		l0.1-0.4l0.1,1.2l0.5-1.5l-0.9-4.9l0.1-0.3l-1.2-2.4l-0.3,0.2l-0.2,0.1c1,1.5,1.9-1.4,0.1,0l-1.1-1.6l-0.1,1.6l-0.1-0.9l-0.1,1
		l-0.2,0.9l-0.1,0l0.1-0.8c-0.2,0.5-0.2,1-0.3,1.5l0-1.1l-0.2,1.1l-0.1,0.2l0-0.9l-0.2,0.8L58.1,78l0-0.9l-0.4,1.2l0.1-0.9l-0.4,1.4
		l0.1-0.9l-0.4,1.2l0-0.8l-0.5,1L56.8,78.5z M56.8,78.5"/>
	<path class="st8" d="M56.8,78.5l-1.3,0.8c-0.6,0.4-1.2,1.2-1.8,2c-0.7,1-0.8,2-1,3.1l0,0.8l0.3-0.7l-0.5,1.5l0.9-1.5l-0.8,1.9
		l1-1.5l-0.7,2.2l1.1-1.9l-1.3,3.1l1.3-2.5l-1.1,3l1.1-2.7l-0.6,2.3l0.8-1.6l-0.5,1.9l0.6-1.2l-0.4,1.8l0.6-1.3l-0.4,2l0.6-1.4
		L54.4,90L55,89L55,90l0.4-0.3c0,0.2,0,0.5,0,0.8c0.1-0.1,0.3-0.3,0.4-0.4l-0.2,1l0.4-0.6l-0.2,0.9c0.2-0.1,0.2-0.1,0.3-0.2
		l-0.3,0.5l0.2,0l-0.3,0.5l0.3-0.1l-0.3,0.4l0.4-0.1l-0.5,0.3l0.4,0L55.4,93l0.5-0.1l-0.6,0.3l0.4,0l-0.5,0.3l0.3,0.2
		c-0.2,0.1-0.3,0-0.5,0.1l0.4,0.2L54.7,94l0.9,0.3l-1.1-0.2c-0.7,0.3-0.5,0.3-1.9,0.4c-1,0.1-1,0.1-2,0.4c0.1,0.1,0,0.2,0.1,0.3
		c0.1,0.2,0.3,0.2,0.3,0.2c0.1,0.2,0.3,0.1,0.3,0.4c0.1,0.2,0,0.6,0.1,0.7c0.1,0.1,0.3,0.2,0.3,0.3c0.1,0.1,0.3,0.2,0.4,0.2
		c0.2,0.2,0.3,0.1,0.6,0.1l0.2-0.2l0.1-0.1l0.1-0.1l0,0.2l-0.1,0.2l0.1,0.1c0.2-0.3,0.2-0.3,0.4-0.4l0,0.1l-0.1,0.1l-0.1,0.2l0.1,0
		l0.2-0.2l0.1-0.1l0.1-0.1l0.1,0l-0.1,0.1l-0.2,0.2l0.1,0l0.2-0.2l0.1-0.1l-0.2,0.3l0.1,0l0.3-0.3c0,0.6,0.9,0.2,1.4,0.2
		c0.7,0,1.1-0.3,1.6-0.7c0.4-0.4,0.7-0.8,1-1c0.9-0.7,1.8-0.8,1.8-1.3c0.1-1.2-0.4-2.5-0.4-3.6c0-0.4,0-0.4,0.1-0.8
		c0-0.1,0.4,0.3,0.6,0.7c0-0.3-0.1-1.3-0.2-1.4c0.1,0.1,0.3,0.3,0.3,0.4c0-0.5-0.2-0.9-0.3-1.4c0.1,0.2,0.1,0.1,0.3,0.5
		c-0.1-0.4-0.4-1.2-0.4-1.5c0.2,0.1,0.4,0.6,0.5,0.7c0-0.1-0.1-0.5-0.3-1.4l0.3,0.6l-0.2-1.1l0.2,0.2l0-0.6l0.3,0.3l0.1-0.5l0.4,0.8
		l-0.1-0.9l0.4,1.2l-0.1-1.2l0.3,0.3l-0.2-1.1c0.3,0.7,0.3,0.6,0.4,0.8c0-0.3-0.2-0.7-0.2-1.1l0.3,0.4l-0.2-1L62,84l0-0.6l0.3,0.6
		l0.1-0.4l0.1,1.2l0.5-1.5l-0.9-4.9l0.1-0.3l-1.2-2.4l-0.3,0.2l-0.2,0.1c1,1.5,1.9-1.4,0.1,0l-1.1-1.6l-0.1,1.6l-0.1-0.9l-0.1,1
		l-0.2,0.9l-0.1,0l0.1-0.8c-0.2,0.5-0.2,1-0.3,1.5l0-1.1l-0.2,1.1l-0.1,0.2l0-0.9l-0.2,0.8L58.1,78l0-0.9l-0.4,1.2l0.1-0.9l-0.4,1.4
		l0.1-0.9l-0.4,1.2l0-0.8l-0.5,1L56.8,78.5z M56.8,78.5"/>
	<path class="st9" d="M57,66.7l0.5,0.9l0.2-1.1l0.2,0.6l0.3-1.1l0.2,0.5l0.4-0.7l0.2,0.7l0.6-1.5l-0.5,0.8l-0.1-0.8l-0.5,0.9
		l-0.2-0.4l-0.2,0.9c0-1-0.1-1.4-0.1-1.6c-0.2,0.4-0.2,0.9-0.5,1.8l-0.1-0.9l-0.7,1.3l0.6-3.4l0.4-0.7l0.2,0.7l0.5-1.1L58,64
		l0.7-1.1l0.5,1l0.6-1l0.1,0.7l0.2-0.6l0.1,0.2l0.3-0.4l0.1,0.1l0.2-0.3l0.5,13.1L60.7,75c0.1-1.3-0.3-0.5-0.3-2l-0.1,1.5l-0.2-1.1
		L59.8,74l0.1-1.4L59.6,73l0.1-0.8l-0.4,0.3l0.1-1.1L59,72.1l-0.1-1.2l-0.3,0.7l0-1.1l-0.4,1L58,70l-0.3,0.5l-0.1-1.8l-0.5,0.2
		L57,66.7z M57,66.7"/>
	<path class="st8" d="M57,66.7l0.5,0.9l0.2-1.1l0.2,0.6l0.3-1.1l0.2,0.5l0.4-0.7l0.2,0.7l0.6-1.5l-0.5,0.8l-0.1-0.8l-0.5,0.9
		l-0.2-0.4l-0.2,0.9c0-1-0.1-1.4-0.1-1.6c-0.2,0.4-0.2,0.9-0.5,1.8l-0.1-0.9l-0.7,1.3l0.6-3.4l0.4-0.7l0.2,0.7l0.5-1.1L58,64
		l0.7-1.1l0.5,1l0.6-1l0.1,0.7l0.2-0.6l0.1,0.2l0.3-0.4l0.1,0.1l0.2-0.3l0.5,13.1L60.7,75c0.1-1.3-0.3-0.5-0.3-2l-0.1,1.5l-0.2-1.1
		L59.8,74l0.1-1.4L59.6,73l0.1-0.8l-0.4,0.3l0.1-1.1L59,72.1l-0.1-1.2l-0.3,0.7l0-1.1l-0.4,1L58,70l-0.3,0.5l-0.1-1.8l-0.5,0.2
		L57,66.7z M57,66.7"/>
	<path class="st17" d="M81.3,88.9c0.2,0.2,0.5,0.3,0.5,0.6c0,0.1,0,0.2,0.1,0.3c0,0.1,0,0.2,0,0.3 M81.1,89.4
		c0.1,0.2,0.4,0.4,0.5,0.6c0,0.1,0,0.2,0.1,0.2c0.1,0.1,0,0.2,0,0.2 M81,89.8c0.2,0.3,0.4,0.6,0.4,1 M81,90.2c0,0.2,0.2,0.5,0.3,0.7
		c0,0.1,0.1,0.2,0.1,0.3 M80.8,90.5c0,0.1,0.1,0.3,0.1,0.4c0,0,0.1,0.1,0.1,0.1c0,0.1,0,0.2,0.1,0.3 M80.6,91
		c0.1,0.1,0.1,0.3,0.1,0.3c0.1,0.1,0.2,0.4,0.2,0.5"/>
	<path class="st18" d="M80.7,91.9l-0.2,0l0,0l0,0l0,0l0,0l0,0l0,0l0,0l0,0l0,0l0,0l0,0l0,0l0,0l0,0l0,0l0,0l0,0l0,0l0,0l0,0l0,0l0,0
		l0,0l0,0l0,0l0,0l0,0l0.2-0.1l0,0l0,0l0,0l0,0l0,0l0,0l0,0l0,0l0,0l0,0l0,0.1l0,0l0,0l0,0l0,0l0,0l0,0l0,0L80.7,91.9L80.7,91.9
		L80.7,91.9L80.7,91.9L80.7,91.9L80.7,91.9z M80.7,92.1l-0.2,0l0,0l0,0l0,0v0l0,0l0,0l0,0V92l0,0v0l0,0l0,0l0,0l0,0l0,0l0.2,0l0,0
		l0,0l0,0l0,0l0,0l0,0v0l0,0l0,0l0,0L80.7,92.1L80.7,92.1L80.7,92.1L80.7,92.1L80.7,92.1L80.7,92.1L80.7,92.1L80.7,92.1L80.7,92.1
		L80.7,92.1z M80.7,92.1"/>
	<path class="st17" d="M80.2,91.7c0.1,0.1,0.1,0.2,0.2,0.4c0,0.1,0.1,0.1,0.1,0.2 M80.1,92.3c0,0.1,0,0.2,0,0.4c0,0,0,0.1,0.1,0.1
		c0,0,0,0.1,0,0.1"/>
	<path class="st19" d="M58.1,88.5L58,87.4l0.6,0.5l-0.4-2l1,1.1c0,0-0.5-2.6-0.4-2.4c0.1,0.3,0.7,1.3,0.7,1.3 M59.1,84.1
		c0.2,0.3,0.4,0.4,0.4,0.7c0.1,0.2,0.1,0.5,0.1,0.7 M59.5,83.6c0.1,0.2,0.3,0.4,0.3,0.7c0,0.2,0.1,0.5,0.2,0.7 M59.6,83.3
		c0.1,0.3,0.3,0.6,0.5,0.9c0.1,0.3,0.1,0.2,0.1-0.1c0-0.3,0-0.6,0-0.8c0,0.1,0,0.3,0.1,0.4c0.1,0.4,0-0.3,0-0.5
		c0-0.7,0.2,0.8,0.2,0.1c0-0.1,0-1,0.1-0.4c0.1,0.5,0.1-0.3,0.1-0.4c0-0.2,0-0.3,0-0.5c0.1-0.2,0.2,0.4,0.3,0.3
		c0.1-0.1,0.2-0.4,0.2-0.6"/>
	<path class="st14" d="M59.1,88.8c0.1,0.1,0.3,0.3,0.3,0.4c0,0.1,0.1,0.3,0.1,0.4 M58.7,88.6c0.1,0.2,0.2,0.4,0.4,0.6
		c0.1,0.1,0.2,0.3,0.2,0.4c0,0.1,0,0.3,0.1,0.4 M58.6,89c0.2,0.4,0.6,0.9,0.6,1.4 M58.7,89.4c0,0.1,0.1,0.3,0.1,0.4
		C59,90,59,90.2,59,90.4 M58.6,89.8c0,0.2,0.2,0.4,0.2,0.6c0,0.1,0,0.3,0,0.4 M58.5,90.4c0,0.2,0.2,0.3,0.3,0.5c0,0.1,0,0.3,0,0.4
		 M58.3,90.7c0,0.2,0,0.4,0,0.5c0,0.1,0,0.2-0.1,0.3 M58,91v0.4c0,0.1,0,0.2-0.1,0.1c-0.1-0.1-0.1-0.2-0.1-0.2
		c-0.1-0.2-0.1,0.3-0.1,0.4c0,0,0,0.1,0,0.1c-0.1-0.1-0.1-0.3-0.2-0.3c-0.1,0,0,0.1-0.1,0.2c-0.1,0.3-0.1-0.1-0.1-0.2
		c0-0.1-0.1-0.2-0.1-0.3"/>
	<path class="st16" d="M56.1,95.4c0.1-0.1,0.3-0.1,0.3-0.1l0.2-0.3l0.2,0.1l0.3-0.5 M57.5,94.2C57.5,94.2,57.5,94.2,57.5,94.2
		c0,0.1,0,0.1,0,0.2c0,0,0,0,0,0.1c0,0.1,0,0.1,0,0.2v0.1 M57.9,93.9c0,0.1,0,0.3-0.1,0.4c0,0,0,0,0,0c0,0-0.1,0.2-0.1,0.2
		 M58.1,93.6c-0.1,0.3,0,0.7-0.2,0.8 M58.5,93.1c0,0.3,0,0.6-0.1,0.8c0,0-0.2,0.3-0.2,0.3 M58.6,93.5c0,0.1,0.1,0.3,0.1,0.4
		c0,0,0,0.1,0.1,0.1c0.1,0.1,0,0,0.1-0.1c0-0.1,0-0.3,0-0.5c0-0.5,0,0.5,0.2,0.5c0.1-0.1,0.1-0.9,0.1-1c0-0.3,0-0.1,0,0.1
		c0,0.1,0.1,0.7,0.2,0.5c0.2-0.2,0.1-0.6,0.1-0.8"/>
	<path class="st19" d="M47.9,61.9c0,0.1,0,0.2,0,0.3c0,0.1,0,0.1,0,0.1c0,0.1,0,0.1,0,0.2 M48.1,62c0,0.1,0,0.3,0,0.4
		c0,0.1,0,0.4,0,0.5 M48.3,62.3c0,0.2,0,0.4,0,0.5c0,0.1,0,0.4,0,0.4 M48.6,62.7c-0.1,0.3,0,0.7,0,1 M48.7,62.5
		c0.1,0.2,0.1,0.7,0.1,0.9c0,0.2,0,0.4,0,0.6"/>
	<path class="st18" d="M48.9,63.4L48.9,63.4L48.9,63.4L48.9,63.4l0-0.1l0,0l0,0l0,0l0,0l0.1,0l0,0l0,0l0,0L48.9,63.4L48.9,63.4
		L48.9,63.4L48.9,63.4L48.9,63.4L48.9,63.4L48.9,63.4l0,0.1l0,0l0,0l0,0.1l0,0.1l0,0l0,0l0,0l0,0l0,0l0,0l0,0l0,0l0,0l0,0l0,0l0,0
		l0,0l0,0l0,0l0,0.1l0,0l0,0l0,0l0,0l0,0l0,0v0l0,0l0,0l0,0l0,0l0,0l0,0l0,0l0,0l0,0l0,0l0,0l0-0.1l0,0L48.9,63.4L48.9,63.4
		L48.9,63.4z M48.9,63.4"/>
	<path class="st19" d="M49.2,63.5c-0.2,0.4-0.1,0.9-0.1,1.3 M49.3,63.6c-0.1,0.6-0.1,1.4,0,1.6"/>
	<path class="st18" d="M49.3,64L49.3,64l0-0.1l0-0.1l0-0.1l0,0l0,0l0,0l0,0l0.1,0l0,0l0,0l0,0l0,0l0,0l0,0.1L49.3,64L49.3,64
		L49.3,64l0.1,0.1l0,0.1l0,0.1l0,0.1l0,0.1l0,0.1l0,0.1l0,0.1l0,0.1l0,0.1l0,0.1l0,0.1l0,0.1l0,0.1l0,0.1l0,0.1l0,0.1l0,0l0,0l0,0
		l0,0l0,0l-0.1,0l0,0l0,0l0,0l0,0l0,0l0-0.1l0-0.1l0-0.1l0-0.1l0-0.1l0-0.1l0-0.1l0-0.1l0-0.1l0-0.1l0-0.1l0-0.1l0-0.1l0-0.1l0-0.1
		l0-0.1l0-0.1L49.3,64L49.3,64z M49.3,64"/>
	<path class="st19" d="M49.6,64.1c0,0.1-0.1,0.3,0,0.4c0,0.1,0.2,0.8,0.2,0.9 M49.8,64.2c0,0.3,0.1,0.9,0.3,1.1 M50.3,64.5
		c0,0.2-0.1,1,0.1,1.1 M50.7,65.2c-0.1,0.3,0,0.7,0.1,1 M51.1,65.7c-0.1,0.2,0.1,1.2,0.2,1.4 M51.4,66.1c0,0.3,0.1,0.6,0.2,0.9
		c0,0.2,0.1,0.4,0.1,0.5 M51.8,66.3c-0.1,0.4,0.1,1.2,0.2,1.5 M52.3,67.2c0,0.1,0,0.2,0,0.3c0.1,0.1,0.1,0.3,0.1,0.4
		c0,0.1,0.1,0.4,0.1,0.5 M52.6,68.1c0.1,0.2,0.1,0.5,0.2,0.7c0.1,0.2,0.2,0.4,0.3,0.5 M53.7,69.3c-0.1,0.3,0-0.1,0,0.1
		c0,0.1,0,0.2,0,0.2c0,0.1,0.1,0.2,0.1,0.3c0,0.1,0.1,0.2,0.2,0.3 M56,62.7c0,0.3-0.3,0.5-0.4,0.8c-0.1,0.3-0.1,0.5-0.1,0.8
		 M55.7,62.8c-0.1,0.2-0.4,0.6-0.4,0.8c0,0.2,0,0.3,0,0.5"/>
	<path class="st18" d="M55.4,63.1L55.4,63.1L55.4,63.1L55.4,63.1L55.4,63.1L55.4,63.1L55.4,63.1L55.4,63.1l0-0.1l0,0l0,0l0,0l0,0
		l0,0l0,0l0.1-0.1l0,0l0,0l0.1,0l0,0l0,0l0,0.1l0,0l0,0l0,0l0,0l0,0l0,0l0,0L55.4,63.1L55.4,63.1L55.4,63.1L55.4,63.1L55.4,63.1
		L55.4,63.1L55.4,63.1L55.4,63.1L55.4,63.1L55.4,63.1z M55.4,63L55.4,63L55.4,63L55.4,63L55.4,63L55.4,63L55.4,63L55.4,63L55.4,63
		L55.4,63L55.4,63L55.4,63L55.4,63L55.4,63L55.4,63L55.4,63L55.4,63L55.4,63L55.4,63L55.4,63L55.4,63L55.4,63L55.4,63L55.4,63
		L55.4,63L55.4,63L55.4,63L55.4,63L55.4,63L55.4,63L55.4,63L55.4,63L55.4,63L55.4,63L55.4,63L55.4,63L55.4,63L55.4,63L55.4,63z
		 M55.1,63.9L55.1,63.9L55.1,63.9L55.1,63.9l-0.1-0.1l0,0l0,0l0,0l0,0l0,0l0,0l0-0.1l0-0.1l0,0l0,0l0,0l0,0l0,0l0,0l0,0l0,0l0,0l0,0
		l0,0l0,0l0,0l0,0l0,0l0,0l0,0l0,0l0,0l0,0l0,0l0,0l0,0l0,0l0,0l0,0l0,0l0,0l0,0l0,0l0,0l0,0l0,0l0,0l0,0l0,0l0,0l0,0l0,0l0,0l0,0
		l0,0l0,0l0,0l0,0l0,0l0,0L55.1,63.9L55.1,63.9z M55.1,63.9"/>
	<path class="st19" d="M55.3,62.7c0,0.1-0.2,0.3-0.2,0.4c0,0-0.1,0.1-0.1,0.2c0,0.1,0,0.1-0.1,0.2 M54.9,62.7c0,0-0.1,0.3-0.2,0.5
		 M54.6,62.7c-0.1,0-0.2,0.2-0.3,0.3 M54.3,62.6c-0.1,0.1-0.2,0.2-0.3,0.3 M53.9,62.6c-0.1,0-0.3,0.2-0.3,0.3"/>
	<path class="st7" d="M60.3,51.5c0,0.2-0.1,0.3-0.3,0.4c-0.2,0-0.3-0.1-0.3-0.3c0-0.2,0.1-0.3,0.3-0.4
		C60.1,51.2,60.2,51.4,60.3,51.5L60.3,51.5z M60.3,51.5"/>
	<path class="st20" d="M60.3,51.5c0,0.2-0.1,0.3-0.3,0.4c-0.2,0-0.3-0.1-0.3-0.3c0-0.2,0.1-0.3,0.3-0.4
		C60.1,51.2,60.2,51.4,60.3,51.5L60.3,51.5z M60.3,51.5"/>
	<path class="st21" d="M59.3,51.4c0,0.2,0.1,0.3,0.2,0.4c0.1,0.1,0.3,0.1,0.4,0.1c0.2,0,0.5-0.2,0.4-0.7
		C59.7,51.2,59.7,51.3,59.3,51.4L59.3,51.4z M59.3,51.4"/>
	<path class="st13" d="M59.3,51.4c0,0.2,0.1,0.3,0.2,0.4c0.1,0.1,0.3,0.1,0.4,0.1c0.2,0,0.5-0.2,0.4-0.7
		C59.7,51.2,59.7,51.3,59.3,51.4L59.3,51.4z M59.3,51.4"/>
	<path class="st7" d="M59.4,51.4c0,0.1,0.1,0.3,0.1,0.3c0.1,0.2,0.6,0.2,0.6-0.1c0,0,0-0.3-0.1-0.3c-0.1,0-0.2,0-0.3,0
		C59.7,51.3,59.5,51.3,59.4,51.4L59.4,51.4z M59.4,51.4"/>
	<path class="st8" d="M59.4,51.4c0,0.1,0.1,0.3,0.1,0.3c0.1,0.2,0.6,0.2,0.6-0.1c0,0,0-0.3-0.1-0.3c-0.1,0-0.2,0-0.3,0
		C59.7,51.3,59.5,51.3,59.4,51.4L59.4,51.4z M59.4,51.4"/>
	<path class="st21" d="M59.8,51.7c0.1,0,0.1-0.1,0.1-0.1c0,0,0,0,0,0c0,0.1,0,0.1,0,0.2C60,51.7,59.9,51.8,59.8,51.7
		C59.8,51.7,59.8,51.7,59.8,51.7L59.8,51.7z M59.8,51.7"/>
	<path class="st8" d="M59.8,51.7c0.1,0,0.1-0.1,0.1-0.1c0,0,0,0,0,0c0,0.1,0,0.1,0,0.2C60,51.7,59.9,51.8,59.8,51.7
		C59.8,51.7,59.8,51.7,59.8,51.7L59.8,51.7z M59.8,51.7"/>
	<path class="st15" d="M52.9,55.4c1.3,0,1.9-0.7,3.2-0.7c0.6,0,1.2,0.1,1.7,0.2c0.3,0.1,0.6,0.1,0.9,0.2c0.5,0.3,0.4,0.8,0,0.9
		c-0.3,0.1-0.7,0.1-0.9,0c-0.8-0.2-2.3-0.8-3.1-0.5c-0.3,0.2-0.7,0.3-1.1,0.3c-0.2,0-0.3,0-0.5,0C53,55.6,52.7,55.4,52.9,55.4
		L52.9,55.4z M52.9,55.4"/>
	<path class="st9" d="M52.9,55.4c1.3,0,1.9-0.7,3.2-0.7c0.6,0,1.2,0.1,1.7,0.2c0.3,0.1,0.6,0.1,0.9,0.2c0.5,0.3,0.4,0.8,0,0.9
		c-0.3,0.1-0.7,0.1-0.9,0c-0.8-0.2-2.3-0.8-3.1-0.5c-0.3,0.2-0.7,0.3-1.1,0.3c-0.2,0-0.3,0-0.5,0C53,55.6,52.7,55.4,52.9,55.4
		L52.9,55.4z M52.9,55.4"/>
	<path class="st21" d="M56.8,54.2c0,0-0.1,0.3-0.1,0.4c0,0.1,0,0.3-0.1,0.4c0,0-0.1,0.3-0.1,0.3c-0.2-0.2-0.4-0.7-0.4-1L56.8,54.2z
		 M56.8,54.2"/>
	<path class="st22" d="M56.8,54.2c0,0-0.1,0.3-0.1,0.4c0,0.1,0,0.3-0.1,0.4c0,0-0.1,0.3-0.1,0.3c-0.2-0.2-0.4-0.7-0.4-1L56.8,54.2z
		 M56.8,54.2"/>
	<path class="st7" d="M51.1,95.9l0.2,0c0,0,0.4-0.2,0.5-0.2c0,0,0.9-0.1,0.9-0.1l0.2-0.1l0.2,0l0.3-0.1c0,0,0,0-0.1,0.1
		c-0.1,0.1-0.3,0.1-0.3,0.1l0.2,0.1l-0.1,0.1l-1,0.1l-0.9,0.5L51.1,95.9L51.1,95.9L51.1,95.9z M51.1,95.9"/>
	<path class="st8" d="M51.1,95.9l0.2,0c0,0,0.4-0.2,0.5-0.2c0,0,0.9-0.1,0.9-0.1l0.2-0.1l0.2,0l0.3-0.1c0,0,0,0-0.1,0.1
		c-0.1,0.1-0.3,0.1-0.3,0.1l0.2,0.1l-0.1,0.1l-1,0.1l-0.9,0.5L51.1,95.9L51.1,95.9L51.1,95.9z M51.1,95.9"/>
	<path class="st7" d="M51.6,96.8l0.3-0.3l0.3-0.1l0.5,0.1l-0.5,0.1c0,0-0.3,0.2-0.3,0.2c0,0-0.2,0.1-0.2,0.1L51.6,96.8z M51.6,96.8"
		/>
	<path class="st8" d="M51.6,96.8l0.3-0.3l0.3-0.1l0.5,0.1l-0.5,0.1c0,0-0.3,0.2-0.3,0.2c0,0-0.2,0.1-0.2,0.1L51.6,96.8z M51.6,96.8"
		/>
	<path class="st23" d="M50.7,95.4c0.1,0,0.2-0.1,0.3-0.1c0,0,0.1,0,0.2-0.1c0.1,0,0.2-0.1,0.3-0.1c0.1,0,0.2,0,0.2-0.1"/>
	<path class="st11" d="M77.2,97L77,97l-0.3,0l-0.4,0.3l-0.2,0.4l0,0.2V98l0.3-0.2l0.3-0.3l0.4-0.2l0.2-0.1L77.2,97z M77.2,97"/>
	<path class="st10" d="M77.2,97L77,97l-0.3,0l-0.4,0.3l-0.2,0.4l0,0.2V98l0.3-0.2l0.3-0.3l0.4-0.2l0.2-0.1L77.2,97z M77.2,97"/>
	<path class="st8" d="M58,51.3l0.8-0.1c0.4-0.1,0.9-0.5,1.3-0.7l0,0l-0.2,0l-0.3,0.2L59.1,51l-0.4,0.2"/>
	<path class="st7" d="M59,51.1l-0.3,0.1l0,0l0.4-0.3l0.2-0.1l0.2-0.1l0.1-0.1l0.1-0.1l0.3,0l-0.1,0.1l-0.3,0.1l-0.3,0.2L59.2,51
		L59,51.1z M59,51.1"/>
	<path class="st10" d="M59,51.1l-0.3,0.1l0,0l0.4-0.3l0.2-0.1l0.2-0.1l0.1-0.1l0.1-0.1l0.3,0l-0.1,0.1l-0.3,0.1l-0.3,0.2L59.2,51
		L59,51.1z M59,51.1"/>
	<path class="st7" d="M54.9,52.1c-0.3,0.1-1,0.2-1,0.5c0,0.2,0.1,0.3,0.2,0.4c0.1,0.1,0.4,0.7,0.6,0.5c0.2-0.2,0.2-0.1,0.2-0.4
		c0-0.1,0-0.2-0.1-0.3c-0.1-0.1,0.3-0.2,0.3-0.3C55.3,52.2,55,52.2,54.9,52.1L54.9,52.1z M54.9,52.1"/>
	<path class="st8" d="M54.9,52.1c-0.3,0.1-1,0.2-1,0.5c0,0.2,0.1,0.3,0.2,0.4c0.1,0.1,0.4,0.7,0.6,0.5c0.2-0.2,0.2-0.1,0.2-0.4
		c0-0.1,0-0.2-0.1-0.3c-0.1-0.1,0.3-0.2,0.3-0.3C55.3,52.2,55,52.2,54.9,52.1L54.9,52.1z M54.9,52.1"/>
	<path class="st21" d="M54.6,52.1c-0.1,0-0.1,0-0.1,0.1c0,0-0.1,0-0.1,0.1c-0.2,0.1,0,0.3,0.2,0.1C54.6,52.3,54.6,52.2,54.6,52.1
		C54.8,52.1,54.7,52,54.6,52.1L54.6,52.1z M54.6,52.1"/>
	<path class="st12" d="M57.6,61.2c-0.3,0.6-1.2,1.7-1.3,2.3c0.2-0.2,1.1-0.6,1.2-0.7"/>
	<path class="st24" d="M45.2,42.1l-0.5,0.1l-0.7,7.4l-5.3,0.3v0.9l6.6,0.9l6.5-0.9v-0.9l-5.3-0.3l-0.7-7.4L45.2,42.1z M45.2,42.1"/>
	<rect x="43.7" y="50.4" class="st24" width="2.9" height="45.7"/>
	<path class="st4" d="M45.2,41.3l1.1,1.1l-1.1,1.1l-1.1-1.1L45.2,41.3z M45.2,41.3"/>
	<path class="st25" d="M45.2,41.3l1.1,1.1l-1.1,1.1l-1.1-1.1L45.2,41.3z M45.2,41.3"/>
	<path class="st4" d="M38.1,49.3l1.1,1.1l-1.1,1.1L37,50.4L38.1,49.3z M38.1,49.3"/>
	<path class="st25" d="M38.1,49.3l1.1,1.1l-1.1,1.1L37,50.4L38.1,49.3z M38.1,49.3"/>
	<path class="st4" d="M52.2,49.3l-1.1,1.1l1.1,1.1l1.1-1.1L52.2,49.3z M52.2,49.3"/>
	<path class="st25" d="M52.2,49.3l-1.1,1.1l1.1,1.1l1.1-1.1L52.2,49.3z M52.2,49.3"/>
	<rect x="44.6" y="50.4" class="st26" width="1.1" height="14.1"/>
	<rect x="42" y="49.2" class="st4" width="6.3" height="2.8"/>
	<rect x="42" y="49.2" class="st27" width="6.3" height="2.8"/>
	<path class="st4" d="M45.2,92.2c-0.4,0.3-0.6,0.7-0.7,1c0.1,0.2,0.2,0.5,0.4,0.8c-0.2,0-0.7,0-1.1,0.1v2c0,0.3,0.4,1.2,1.4,1.2
		c1,0,1.4-0.8,1.4-1.2v-2c-0.5-0.1-0.9-0.1-1.1-0.1c0.1-0.3,0.3-0.6,0.4-0.8C45.7,92.9,45.6,92.6,45.2,92.2L45.2,92.2z M45.2,92.2"
		/>
	<path class="st27" d="M45.2,92.2c-0.4,0.3-0.6,0.7-0.7,1c0.1,0.2,0.2,0.5,0.4,0.8c-0.2,0-0.7,0-1.1,0.1v2c0,0.3,0.4,1.2,1.4,1.2
		c1,0,1.4-0.8,1.4-1.2v-2c-0.5-0.1-0.9-0.1-1.1-0.1c0.1-0.3,0.3-0.6,0.4-0.8C45.7,92.9,45.6,92.6,45.2,92.2L45.2,92.2z M45.2,92.2"
		/>
	<path class="st4" d="M45.2,83.1c-0.8,0-1.1,0.1-1.4,0.2c-0.2,0.3-0.2,1,0,1.3c0.5,0,0.8,0.1,1.4,0.1s1-0.1,1.4-0.1
		c0.2-0.3,0.2-1,0-1.3C46.3,83.2,46,83.1,45.2,83.1L45.2,83.1z M45.2,83.1"/>
	<path class="st27" d="M45.2,83.1c-0.8,0-1.1,0.1-1.4,0.2c-0.2,0.3-0.2,1,0,1.3c0.5,0,0.8,0.1,1.4,0.1s1-0.1,1.4-0.1
		c0.2-0.3,0.2-1,0-1.3C46.3,83.2,46,83.1,45.2,83.1L45.2,83.1z M45.2,83.1"/>
	<path class="st4" d="M45.2,69.5c-0.8,0-1.1,0.1-1.4,0.2c-0.2,0.3-0.2,1,0,1.3c0.5,0,0.8,0.1,1.4,0.1c0.7,0,1-0.1,1.4-0.1
		c0.2-0.3,0.2-1,0-1.3C46.2,69.6,46,69.5,45.2,69.5L45.2,69.5z M45.2,69.5"/>
	<path class="st27" d="M45.2,69.5c-0.8,0-1.1,0.1-1.4,0.2c-0.2,0.3-0.2,1,0,1.3c0.5,0,0.8,0.1,1.4,0.1c0.7,0,1-0.1,1.4-0.1
		c0.2-0.3,0.2-1,0-1.3C46.2,69.6,46,69.5,45.2,69.5L45.2,69.5z M45.2,69.5"/>
	<path class="st24" d="M75.1,84.4c2.7-5.7,1.8-14.8,2.3-22.2c0,0-2.3-0.5-8.2-0.5c-5.9,0-8.2,0.5-8.2,0.5c0.4,7.4-0.4,16.5,2.3,22.2
		c1.3,2.7,2.8,4.6,5.9,6.1C72.4,89.1,73.9,87.2,75.1,84.4L75.1,84.4z M75.1,84.4"/>
	<path class="st28" d="M75.1,84.4c2.7-5.7,1.8-14.8,2.3-22.2c0,0-2.3-0.5-8.2-0.5c-5.9,0-8.2,0.5-8.2,0.5c0.4,7.4-0.4,16.5,2.3,22.2
		c1.3,2.7,2.8,4.6,5.9,6.1C72.4,89.1,73.9,87.2,75.1,84.4L75.1,84.4z M75.1,84.4"/>
	<path class="st11" d="M68.1,72.2l1.3-1.3l1.3,1.3l-1.3,1.3L68.1,72.2 M69.4,74.4l-2.2-2.2l2.2-2.2l2.2,2.2L69.4,74.4 M75,74.8
		l-1.3,1.3l-2.2-2.2l0.4-0.4l1.7,1.7l0.4-0.4L72,72.6l-2.2,2.2l2.2,2.2l0.4-0.4l-1.7-1.7l0.4-0.4l2.2,2.2L72,77.8l-2.6-2.6l-2.6,2.6
		l-1.3-1.3l2.2-2.2l0.4,0.4l-1.7,1.7l0.4,0.4l2.2-2.2l-2.2-2.2l-2.2,2.2l0.4,0.4l1.7-1.7l0.4,0.4l-2.2,2.2l-1.3-1.3l2.6-2.6
		l-2.6-2.6l1.3-1.3l2.2,2.2l-0.4,0.4l-1.7-1.7l-0.4,0.4l2.2,2.2l2.2-2.2l-2.2-2.2l-0.4,0.4l1.7,1.7l-0.4,0.4l-2.2-2.2l1.3-1.3
		l2.6,2.6l2.6-2.6l1.3,1.3l-2.2,2.2l-0.4-0.4l1.7-1.7L72,67.5l-2.2,2.2l2.2,2.2l2.2-2.2l-0.4-0.4L72,70.9l-0.4-0.4l2.2-2.2l1.3,1.3
		l-2.6,2.6L75,74.8"/>
	<path class="st7" d="M43.7,56.5c-0.8,1.5-0.9,2.6-0.3,4.4c0.1,0.2,0.2,0.4,0.4,0.4c0,0,0.4,0.7,0.5,0.8c0.1,0,0.7,0.6,0.7,0.2
		c0-0.3-0.4-0.8-0.6-1.1c0,0,0.3,0.3,0.7,0.4c0.6,0.2-0.4-1.3-0.6-1.5c0,0,0.4,0.1,0.6,0.2c0.8,0.2,0.1-0.5-0.1-0.8
		c-0.2-0.3-0.8-0.6-0.3-0.6c0.9,0,0.3-0.4,0-0.8C44.6,57.5,44.2,56.9,43.7,56.5L43.7,56.5z M43.7,56.5"/>
	<path class="st9" d="M43.5,57.2c0,0.9-0.5,1.8-0.2,2.6c0,0.1,0.5,1.3,0.7,0.8c0.1-0.5-0.2-0.7-0.1-1.1c0.1-0.6-0.2-1.1,0-1.7
		C44,57.4,43.9,56.9,43.5,57.2L43.5,57.2z M43.5,57.2"/>
	<path class="st29" d="M44.2,57.6c-0.3,0-0.2,0.5-0.1,0.6c0.2,0.4,0.6,0.6,1,0.6c0.2,0,0-0.1-0.1-0.2c-0.1-0.1-0.2-0.2-0.3-0.2
		c-0.1-0.1-0.2-0.3-0.4-0.4C44.3,57.8,44.2,57.6,44.2,57.6L44.2,57.6z M44.2,57.6"/>
	<path class="st29" d="M44.4,59c-0.1-0.1-0.5-0.1-0.3,0.2c0.2,0.4,0.7,0.8,1.1,0.8c0.2,0-0.3-0.4-0.3-0.5
		C44.8,59.5,44.5,59.1,44.4,59L44.4,59z M44.4,59"/>
	<path class="st29" d="M44.5,60.2c-0.1-0.1-0.2-0.3-0.3-0.1c-0.4,0.5,0.5,1.1,0.8,1.3c0.1,0.1,0.1,0.1,0.1-0.1
		c0-0.2-0.2-0.5-0.3-0.7C44.7,60.5,44.6,60.3,44.5,60.2L44.5,60.2z M44.5,60.2"/>
	<path class="st29" d="M44.4,61.2c0-0.1-0.1-0.4-0.2-0.4c-0.3,0-0.2,0.3-0.1,0.5c0.1,0.2,0.3,0.4,0.4,0.6c0.1,0.1,0.6,0.6,0.4,0.1
		c-0.1-0.1-0.1-0.3-0.2-0.4C44.6,61.5,44.4,61.3,44.4,61.2L44.4,61.2z M44.4,61.2"/>
	<path class="st7" d="M46.8,56.9c-0.1,0-0.3-0.2-0.5-0.1c-0.2,0.1-0.7,0.6-0.8,0.9c0,0.1-0.4,0.4-0.3,0.4c0.2,0,0.4,0,0.6-0.1
		c0.2-0.1,0.3-0.3,0.5-0.3c0.1,0,0.6,0.1,0.6,0C46.8,57.4,46.9,57.2,46.8,56.9L46.8,56.9z M46.8,56.9"/>
	<path class="st29" d="M46.7,56.9c-0.1,0-0.3-0.1-0.4,0c-0.2,0.1-0.5,0.5-0.6,0.7c0,0-0.3,0.3-0.2,0.3c0.2,0,0.3,0,0.5-0.1
		c0.2-0.1,0.2-0.2,0.4-0.3c0.1,0,0.4,0,0.4-0.1C46.7,57.3,46.7,57.1,46.7,56.9L46.7,56.9z M46.7,56.9"/>
</g>
</svg>
