<?xml version="1.0" encoding="utf-8"?>
<!-- Generator: Adobe Illustrator 22.0.1, SVG Export Plug-In . SVG Version: 6.00 Build 0)  -->
<svg version="1.1" id="Слой_1" xmlns="http://www.w3.org/2000/svg" xmlns:xlink="http://www.w3.org/1999/xlink" x="0px" y="0px"
	 viewBox="0 0 127.3 127" style="enable-background:new 0 0 127.3 127;" xml:space="preserve">
<style type="text/css">
	.st0{fill:url(#SVGID_1_);}
	.st1{fill:#FFFFFF;}
	.st2{fill-rule:evenodd;clip-rule:evenodd;fill:#1B1918;}
	.st3{clip-path:url(#SVGID_3_);fill-rule:evenodd;clip-rule:evenodd;fill:#009035;}
	.st4{clip-path:url(#SVGID_3_);fill-rule:evenodd;clip-rule:evenodd;fill:#FFCB00;}
	.st5{fill-rule:evenodd;clip-rule:evenodd;fill:#FFCB00;}
	.st6{fill-rule:evenodd;clip-rule:evenodd;fill:#E30016;}
	.st7{fill-rule:evenodd;clip-rule:evenodd;fill:#ECEDED;}
	.st8{fill-rule:evenodd;clip-rule:evenodd;fill:#FFFFFF;}
</style>
<radialGradient id="SVGID_1_" cx="64.8" cy="-2458.7468" r="62.6" gradientTransform="matrix(1 0 0 -1 0 -2394.3469)" gradientUnits="userSpaceOnUse">
	<stop  offset="0.9487" style="stop-color:#212121"/>
	<stop  offset="1" style="stop-color:#606060;stop-opacity:0"/>
</radialGradient>
<circle class="st0" cx="64.8" cy="64.4" r="62.6"/>
<circle class="st1" cx="62.6" cy="62.6" r="62.6"/>
<g>
	<path class="st2" d="M62.1,98.4c-19.2,0-34.8-15.6-34.8-34.9c0-19.2,15.6-34.8,34.8-34.8c19.2,0,34.8,15.6,34.8,34.8
		C96.9,82,82.1,98.4,62.1,98.4L62.1,98.4z M62.1,97.8c-18.8,0-34.2-15.3-34.2-34.3c0-18.8,15.3-34.2,34.2-34.2
		c18.8,0,34.2,15.3,34.2,34.2C96.3,81.7,81.8,97.8,62.1,97.8L62.1,97.8z M62.1,97.8"/>
	<g>
		<defs>
			<rect id="SVGID_2_" x="15" y="16.4" width="94.3" height="94.3"/>
		</defs>
		<clipPath id="SVGID_3_">
			<use xlink:href="#SVGID_2_"  style="overflow:visible;"/>
		</clipPath>
		<path class="st3" d="M62.1,110.2c25.7,0,46.6-20.8,46.6-46.6c0-25.8-20.9-46.6-46.6-46.6c-25.7,0-46.6,20.8-46.6,46.6
			C15.5,89.3,36.4,110.2,62.1,110.2L62.1,110.2z M62.1,102.6c21.5,0,39.1-17.5,39.1-39.1c0-21.6-17.5-39.1-39.1-39.1
			c-21.5,0-39.1,17.5-39.1,39.1C23.1,85.1,40.6,102.6,62.1,102.6L62.1,102.6z M62.1,102.6"/>
		<path class="st4" d="M62.1,110.7c26,0,47.1-21.1,47.1-47.1c0-26.1-21.2-47.1-47.1-47.1c-26,0-47.1,21.1-47.1,47.1
			C15,89.6,36.2,110.7,62.1,110.7L62.1,110.7z M62.1,110.2c25.7,0,46.6-20.8,46.6-46.6c0-25.8-20.9-46.6-46.6-46.6
			c-25.7,0-46.6,20.8-46.6,46.6C15.5,89.3,36.4,110.2,62.1,110.2L62.1,110.2z M62.1,110.2"/>
	</g>
	<path class="st5" d="M43.7,100.1l-0.6,1L43,101c0.1-0.3,0.1-0.5,0.1-0.6c0-0.1-0.1-0.3-0.1-0.4c0-0.1-0.2-0.2-0.3-0.3l-0.3-0.2
		l-1.6,2.8c-0.1,0.2-0.2,0.3-0.2,0.4c0,0.1,0,0.1,0,0.2c0,0.1,0.1,0.1,0.2,0.2l0.1,0.1l-0.1,0.1l-1.9-1.1l0.1-0.1l0.1,0.1
		c0.1,0.1,0.2,0.1,0.3,0.1c0.1,0,0.1,0,0.2-0.1c0,0,0.1-0.1,0.2-0.3l1.6-2.8L41.2,99c-0.2-0.1-0.5-0.2-0.6-0.2
		c-0.2,0.1-0.5,0.2-0.7,0.4l-0.1-0.1l0.6-1L43.7,100.1z M38.5,96.9c-1-1.2-2.1-0.5-2.1-0.9c0.1-0.5-0.4-1-1-0.8
		c-0.1,0.1-0.2-0.7-0.6-1.2c-0.5-0.5-1.5-0.9-2.5-0.8c-0.6,0-1.1,0-1.1,0c-0.4-0.1-1.1-0.1-1.3-0.3h-0.1c-0.6-0.1-1.1-0.4-1.5-0.9
		c-0.4-0.6-0.6-1.9,0.3-2.3c0.5-0.1,1.4,0.4,1.1,0.5c-0.1,0-0.3,0-0.5,0.2c-0.4,0.4-0.1,1.2,0.5,1.3c0.8,0.1,0.7-0.8,0.8-0.5
		c0.1,0.4,0.6,0.8,1.1,1c0.5,0.2,1,0.1,1,0.1s-0.2-0.2-0.7-0.8c-0.6-0.5-0.5-0.8-1.1-1.7c-0.9-1.4-1.7-0.9-1.6-1.2
		c0.1-0.5-0.4-1.1-0.9-1c-0.1,0-0.1-0.8-0.4-1.3c-0.3-0.7-1-1.2-1.8-1.4c-0.8-0.1-1.4-0.4-1.4-0.4c-0.3-0.1-0.6-0.2-0.9-0.4
		l-0.2-0.1c-0.5-0.2-1.1-0.7-1.3-1.2c-0.3-0.7-0.2-2,0.8-2.2c0.6,0,1.3,0.6,1,0.6c-0.1,0-0.2,0.1-0.5,0.2c-0.5,0.2-0.4,1.1,0.1,1.2
		c0.7,0.2,0.9-0.4,0.9-0.1c0,0.4,0.4,1,0.8,1.3c0.5,0.2,1,0.3,1,0.3s-0.2-0.2-0.6-0.9c-0.4-0.7-0.2-1-0.6-2
		c-0.4-1.1-1.2-1.6-1.1-1.7c0.4-0.7,0-1.3-0.6-1.4c0,0,0.1-0.3-0.2-1c-0.3-0.7-0.7-1.4-1.5-1.7c-0.7-0.3-1.4-0.8-1.4-0.8
		c-0.2-0.2-0.6-0.5-0.8-0.7l-0.1-0.1c-0.4-0.4-0.7-0.9-0.8-1.5c-0.1-0.7,0.3-1.9,1.3-1.8c0.6,0,1.2,0.9,0.8,0.8
		c-0.1-0.1-0.2-0.1-0.5,0c-0.6,0.3-0.7,1-0.2,1.4c0.6,0.4,1-0.4,0.9,0c-0.1,0.4,0.1,1,0.5,1.4c0.3,0.3,0.8,0.5,0.8,0.5
		s-0.1-0.2-0.3-1c-0.2-0.8,0-1-0.1-2.1C22,70.2,21,70.6,21.2,70c0.5-1-0.3-1.1-0.2-1.2c0-0.1,0.2-0.8,0.3-1.4c0-0.7-0.3-1.4-0.9-1.8
		c-0.2-0.2-1-1-1-1c-0.2-0.2-0.7-0.8-0.9-1.2l-0.1-0.1c-0.3-0.5-0.5-1.1-0.4-1.7c0.1-0.7,0.8-1.8,1.7-1.5c0.5,0.2,0.7,1.1,0.6,1
		c-0.1,0-0.3-0.2-0.7-0.1c-0.5,0-0.8,0.8-0.4,1.3c0.5,0.6,1.1-0.1,0.9,0.2C20,63,20,63.7,20.3,64.1c0.2,0.4,0.6,0.8,0.6,0.8
		s0-0.3,0-1.1c-0.1-0.9,0.2-1,0.4-2.1c0.2-1.5-0.6-1.8-0.4-1.9c0.5-0.4,0.5-1.1,0-1.3c-0.1-0.1,0.5-0.6,0.7-1.3c0.1-0.7,0-1.3-0.5-2
		c-0.4-0.7-0.8-1.3-0.8-1.3c-0.1-0.3-0.4-0.9-0.5-1.2v-0.1c-0.2-0.6-0.2-1.2,0-1.8c0.3-0.7,1.2-1.5,2-1c0.5,0.3,0.5,1.3,0.4,1.1
		c-0.1-0.1-0.2-0.2-0.6-0.3c-0.5-0.1-1,0.6-0.8,1.2c0.4,0.7,1.1,0.2,0.9,0.4c-0.3,0.3-0.4,1-0.3,1.5c0.1,0.5,0.5,0.9,0.5,0.9
		s0-0.3,0.2-1.1c0.2-0.8,0.4-0.8,0.9-1.9c0.6-1.4-0.2-2,0.1-1.9c0.5,0,0.7-1,0.3-1.3c-0.1,0,0.6-0.5,1-1.1c0.3-0.6,0.4-1.3,0-2
		c-0.3-0.7-0.5-1.8-0.5-1.8c-0.1-0.4-0.2-0.7-0.1-1v-0.1c-0.1-0.6,0.1-1.2,0.4-1.7c0.4-0.6,1.6-1.2,2.2-0.5c0.4,0.5,0.3,1.5,0.1,1.2
		c-0.1-0.1-0.1-0.3-0.4-0.4c-0.6-0.3-1.2,0.3-1.1,0.9c0.1,0.8,1,0.4,0.7,0.6c-0.4,0.3-0.6,0.9-0.6,1.4c0,0.5,0.2,1,0.2,1
		s0.1-0.3,0.5-1c0.3-0.7,0.6-0.7,1.3-1.6c1-1.3,0-1.9,0.6-1.9c1-0.1,0.5-1.1,0.6-1.1c0.1-0.1,0.7-0.4,1.2-0.9
		c0.5-0.5,0.7-1.1,0.6-1.9c-0.2-0.8-0.3-2-0.3-2c0-0.3,0-0.5,0.1-0.8V34c0.1-0.6,0.6-1.2,1.1-1.6c0.5-0.5,1.9-0.8,2.4,0
		c0.2,0.5-0.3,1.5-0.4,1.2c0-0.1,0-0.3-0.3-0.5c-0.5-0.4-1.2,0-1.3,0.7c0,0.7,0.9,0.6,0.6,0.7c-0.4,0.2-0.8,0.7-1,1.2
		c-0.1,0.5,0,1,0,1s0.2-0.2,0.7-0.8c0.5-0.7,0.8-0.6,1.7-1.3c1.2-0.9,0.8-1.7,1-1.7c1.2,0.2,0.8-0.8,0.9-0.9c0.1,0,0.8-0.1,1.4-0.5
		c0.5-0.4,0.9-0.9,1-1.7c0-0.8,0.8-2.8,0.8-2.8V27c0.3-0.6,0.7-1,1.2-1.3c0.6-0.3,1.9-0.3,2.1,0.6c0.2,0.6-0.4,1.4-0.4,1.1
		c-0.1-0.1,0-0.4-0.2-0.6c-0.4-0.5-1.2-0.3-1.4,0.4c-0.3,0.7,0.6,0.7,0.3,0.8c-0.4,0.1-0.9,0.5-1.2,0.9c-0.2,0.5-0.2,1-0.2,1
		s0.2-0.2,0.8-0.6c0.7-0.5,0.9-0.4,2-0.8c1.4-0.7,0.8-1.6,1.4-1.4c1,0.3,1-0.7,1.1-0.7c0.1,0,0.8,0,1.4-0.2c0.7-0.2,1.2-0.7,1.4-1.4
		c0.3-0.8,0.7-1.9,0.7-1.9c0.2-0.3,0.4-0.5,0.6-0.7v-0.1c0.5-0.4,1-0.5,1.6-0.4c0.6,0.1,1.1,0.4,0.8,1.1c-0.1,0.4-0.5,0.5-0.5,0.5
		s0-0.4-0.6-0.5c0,0-0.4,0-0.6,0.3c-0.3,0.4,0.2,0.6,0,0.7c-1.1,0.6-1.1,1.6-1,1.5c1.2-1.2,3-1.4,3-1.4c0.4,0.5,1.2,0.4,1.2-0.3h0.7
		c0.9-0.1,1.7-0.1,2.8-0.6c0,0-2.4-0.2-3.7-1.1c-1-0.6-1.9-1.1-2.6-1c-0.5,0-1,0.2-1.4,0.6c-0.1,0.1-0.4-0.3-0.9-0.2
		c-0.6,0.2-0.5,0.8-0.7,0.8c-0.4,0.1-0.7,0-1.5,0.5c-0.7,0.5-0.7,0.7-1.7,0.9c-0.9,0.2-1.3,0.4-1.3,0.4s0.3,0.3,0.7,0.3
		c0.3,0.1,0.9,0.2,1.4-0.1c0,0-0.1,0.5,0.4,0.7c0.4,0.1,0.7-0.1,0.9-0.4c0.1-0.1,0.1-0.5-0.2-0.7c-0.3-0.2,0.5-0.3,0.8-0.2
		c0.5,0.2,0.5,0.7,0.3,1.1c-0.1,0.2-0.4,0.6-0.9,0.8c-0.5,0.2-1.3,0.2-1.8,0c-0.5-0.3-1.1-0.4-2-0.6c-0.8-0.3-1.7-0.1-2.4,0.5
		c-0.7,0.4-0.7,0.6-1,1.2l-0.1,0.1c-0.1,0.1-0.4-0.4-0.9-0.1c-0.5,0.3-0.3,0.8-0.5,0.9c-0.4,0.3-0.6,0.2-1.3,0.8
		c-0.6,0.7-0.5,0.9-1.4,1.3c-0.9,0.5-1.2,0.7-1.2,0.7s0.4,0.2,0.8,0.2c0.3,0,0.8-0.1,1.3-0.5c0,0,0.1,0.6,0.6,0.6
		c0.5,0,0.8-0.5,0.8-0.8c0-0.3-0.1-0.3-0.5-0.4c-0.3-0.1,0.2-0.6,0.8-0.4c0.3,0.1,0.6,0.6,0.6,0.9c-0.1,0.3-0.3,0.8-0.7,1.1
		c-0.5,0.3-1.2,0.5-1.8,0.4c-0.5-0.1-1.1-0.1-2.1-0.1c-0.8,0-1.7,0.3-2.1,0.9c-0.5,0.5-0.7,0.7-0.8,1.5l-0.1,0.1
		c0,0.2-0.4-0.1-0.8,0.3c-0.5,0.4-0.1,0.8-0.3,1c-0.3,0.3-0.6,0.3-1,1.1c-0.5,0.7-0.4,0.9-1.1,1.6c-0.7,0.6-1,0.9-1,0.9
		s0.5,0.1,0.8,0c0.3-0.1,0.8-0.3,1.2-0.8c0,0,0.1,0.6,0.7,0.5c0.4-0.1,0.7-0.4,0.7-0.9c-0.1-0.3-0.3-0.4-0.7-0.4
		c-0.3,0,0.3-0.6,0.7-0.6c0.5,0,0.7,0.4,0.8,0.8c0,0.3-0.1,0.8-0.4,1.2c-0.4,0.4-1.1,0.8-1.6,0.8c-0.6,0-1.2,0.2-2.1,0.4
		c-0.8,0.2-1.7,1-1.9,1.6C23,41.7,23,42.1,23,42.6v0.1c-1,0-1.3,0.6-0.9,1.4c0,0-0.5,0.4-0.7,1.3c-0.2,0.9-0.1,1-0.6,1.8
		C20.2,48,20,48.3,20,48.3s0.5,0,0.8-0.2c0.3-0.1,0.7-0.5,0.9-1.1c0,0,0.3,0.4,0.8,0.3c0.4-0.2,0.6-0.6,0.5-1
		c-0.1-0.3-0.6-0.5-0.9-0.4c-0.1,0.1,0.3-0.5,0.6-0.6c0.4-0.1,0.9,0.2,1,0.6c0.1,0.3,0.2,0.8-0.1,1.3c-0.3,0.5-0.8,0.9-1.4,1.1
		c-0.5,0.2-1,0.5-1.9,0.9c-0.7,0.4-1.4,1.4-1.4,2c-0.1,0.7,0,1.2,0.2,1.7c-1,0.2-1.2,1-0.6,1.5c0,0-0.3,0.6-0.4,1.6
		c0,0.9,0.2,1-0.1,1.9c-0.4,0.9-0.4,1.3-0.4,1.3s0.4-0.1,0.7-0.4c0.2-0.2,0.5-0.6,0.6-1.2c0,0,0.4,0.5,0.8,0.1
		c0.4-0.3,0.4-0.9,0.2-1.2c-0.3-0.2-0.5-0.2-0.7-0.1c-0.3,0.2,0-0.6,0.3-0.8c0.4-0.1,0.8,0,1,0.3c0.3,0.4,0.3,0.8,0.2,1.3
		c-0.1,0.6-0.5,1.2-1,1.5c-0.5,0.3-0.9,0.7-1.6,1.4c-0.6,0.5-1.1,1.6-0.9,2.3c0.1,0.6,0.1,0.9,0.4,1.3v0.1c-0.6,0.6-0.6,1.3,0.1,1.7
		c0,0-0.3,0.7-0.1,1.6c0.2,0.9,0.4,1,0.3,1.9c-0.1,1-0.1,1.4-0.1,1.4s0.4-0.2,0.6-0.6c0.2-0.2,0.4-0.7,0.3-1.3c0,0,0.5,0.4,0.9-0.1
		c0.2-0.4,0.1-1-0.2-1.1c-0.4-0.2-0.4-0.2-0.7,0c-0.3,0.3-0.2-0.5,0.1-0.8c0.2-0.3,0.8-0.2,1.1,0c0.2,0.2,0.5,0.6,0.5,1.2
		c0,0.6-0.2,1.3-0.6,1.7c-0.4,0.4-0.7,0.9-1.3,1.7c-0.4,0.6-0.6,1.8-0.3,2.4c0.3,0.7,0.4,1,0.9,1.3v0.1c0.1,0.1-0.5,0.4-0.4,0.9
		c0.2,0.6,0.7,0.6,0.8,0.8c0.1,0.4-0.1,0.6,0.3,1.4c0.4,0.9,0.6,0.9,0.8,1.8c0.1,1,0.2,1.4,0.2,1.4s0.4-0.3,0.5-0.7
		c0-0.3,0.2-0.8-0.1-1.4c0,0,0.5,0.2,0.8-0.3c0.1-0.5-0.1-0.8-0.4-1c-0.2-0.2-0.6,0-0.7,0.2c0,0.2-0.4-0.3,0-0.9
		c0.2-0.3,0.7-0.4,1-0.2c0.2,0.2,0.6,0.5,0.8,1c0.1,0.6,0,1.3-0.2,1.8c-0.3,0.5-0.5,1.1-0.8,2c-0.3,0.7-0.2,1.9,0.3,2.4
		c0.4,0.6,0.7,0.9,1.2,1.1l0.1,0.1c0.1,0.1-0.5,0.4-0.2,0.9c0.2,0.5,0.7,0.4,0.8,0.6c0.2,0.3,0.1,0.6,0.7,1.3
		c0.6,0.7,0.8,0.6,1.2,1.5c0.4,0.9,0.6,1.3,0.6,1.3s0.2-0.4,0.2-0.8c0.1-0.3,0-0.8-0.3-1.3c0,0,0.5,0,0.6-0.6c0-0.4-0.3-0.7-0.6-0.8
		c-0.2,0-0.5,0.1-0.6,0.4c-0.1,0.2-0.4-0.4-0.3-0.8c0.1-0.3,0.6-0.6,1-0.5c0.3,0.1,0.7,0.3,1,0.8c0.3,0.5,0.4,1.2,0.2,1.7
		c-0.1,0.6-0.1,1.2-0.3,2.2c-0.1,0.7,0.4,1.8,0.9,2.3c0.6,0.4,0.9,0.6,1.5,0.7v0.1c-0.2,0.4,0.1,1,0.1,1c0.5,0.4,0.8,0.1,1,0.3
		c0.3,0.3,0.1,0.4,0.8,1c0.8,0.5,1,0.4,1.5,1.2c0.6,0.7,0.9,1,0.9,1s0.1-0.4,0.1-0.8c-0.1-0.3-0.2-0.8-0.7-1.2c0,0,0.6-0.1,0.5-0.6
		c0-0.5-0.3-0.6-0.7-0.7c-0.3-0.1-0.6,0.1-0.6,0.5c-0.1,0.2-0.4-0.3-0.4-0.7c0-0.3,0.3-0.7,0.7-0.7c0.3,0,0.8,0.1,1.2,0.5
		c0.4,0.4,0.7,1.1,0.6,1.6c0,0.6,0.2,1.2,0.3,2.2c0,0.3,0.2,1.5,1.3,2l0.5-0.7c-0.8-0.4-1.2-1.8-0.4-2.4c0.4-0.3,1.4-0.1,1.1,0
		c-0.1,0.1-0.2,0.2-0.3,0.5c-0.3,0.6-0.1,0.8,0.2,1L38.5,96.9z M62.2,19.5c-0.2,0.8-1.4,1.9-0.7,2.8c0.3,0.4,1,0.5,1.4,0
		C63.5,21.5,62.5,20.2,62.2,19.5L62.2,19.5z M62.1,23.7c-2.3,0-1.3-2.9-2.4-3.2c-0.6-0.1-1,0.3-1,0.3c0-2.1,2.1-1.5,2.3-1.3
		c0-0.8,0.5-1.5,1.1-2.1c0.7,0.5,1,1.2,1.1,2c0.1-0.1,2.2-0.8,2.5,1.1c-0.1,0-0.6-0.2-0.9-0.1C63.4,20.9,64.4,23.7,62.1,23.7
		L62.1,23.7z M85.5,96.9c1-1.2,2.1-0.5,2.1-0.9c-0.1-0.5,0.4-1,1-0.8c0.1,0.1,0.2-0.7,0.6-1.2c0.5-0.5,1.5-0.9,2.5-0.8
		c0.6,0,1.1,0,1.1,0c0.4-0.1,1.1-0.1,1.3-0.3h0.1c0.6-0.1,1.1-0.4,1.5-0.9c0.4-0.6,0.6-1.9-0.3-2.3c-0.5-0.1-1.4,0.4-1.1,0.5
		c0.1,0,0.3,0,0.5,0.2c0.4,0.4,0.1,1.2-0.5,1.3c-0.8,0.1-0.7-0.8-0.8-0.5c-0.1,0.4-0.6,0.8-1.1,1c-0.5,0.2-1,0.1-1,0.1
		s0.2-0.2,0.7-0.8c0.6-0.5,0.5-0.8,1.1-1.7c0.9-1.4,1.7-0.9,1.6-1.2c-0.1-0.5,0.4-1.1,0.9-1c0.1,0,0.1-0.8,0.4-1.3
		c0.3-0.7,1-1.2,1.8-1.4c0.8-0.1,1.4-0.4,1.4-0.4c0.3-0.1,0.6-0.2,0.9-0.4l0.2-0.1c0.5-0.2,1.1-0.7,1.3-1.2c0.3-0.7,0.2-2-0.8-2.2
		c-0.6,0-1.3,0.6-1,0.6c0.1,0,0.2,0.1,0.5,0.2c0.5,0.2,0.4,1.1-0.1,1.2c-0.7,0.2-0.9-0.4-0.9-0.1c0,0.4-0.4,1-0.8,1.3
		c-0.5,0.2-1,0.3-1,0.3s0.2-0.2,0.6-0.9c0.4-0.7,0.2-1,0.6-2c0.4-1.1,1.2-1.6,1.1-1.7c-0.4-0.7,0-1.3,0.6-1.4c0,0-0.1-0.3,0.2-1
		c0.3-0.7,0.7-1.4,1.5-1.7c0.7-0.3,1.4-0.8,1.4-0.8c0.2-0.2,0.6-0.5,0.8-0.7l0.1-0.1c0.4-0.4,0.7-0.9,0.8-1.5
		c0.1-0.7-0.3-1.9-1.3-1.8c-0.6,0-1.2,0.9-0.8,0.8c0.1-0.1,0.2-0.1,0.5,0c0.6,0.3,0.7,1,0.2,1.4c-0.6,0.4-1-0.4-0.9,0
		c0.1,0.4-0.1,1-0.5,1.4c-0.3,0.3-0.8,0.5-0.8,0.5s0.1-0.2,0.3-1c0.2-0.8,0-1,0.1-2.1c0.1-1.6,1.1-1.2,0.9-1.8
		c-0.5-1,0.3-1.1,0.2-1.2c0-0.1-0.2-0.8-0.3-1.4c0-0.7,0.3-1.4,0.9-1.8c0.2-0.2,1-1,1-1c0.2-0.2,0.7-0.8,0.9-1.2l0.1-0.1
		c0.3-0.5,0.5-1.1,0.4-1.7c-0.1-0.7-0.8-1.8-1.7-1.5c-0.5,0.2-0.7,1.1-0.6,1c0.1,0,0.3-0.2,0.7-0.1c0.5,0,0.8,0.8,0.4,1.3
		c-0.5,0.6-1.1-0.1-0.9,0.2c0.1,0.4,0.1,1.1-0.2,1.5c-0.2,0.4-0.6,0.8-0.6,0.8s0-0.3,0-1.1c0.1-0.9-0.2-1-0.4-2.1
		c-0.2-1.5,0.6-1.8,0.4-1.9c-0.5-0.4-0.5-1.1,0-1.3c0.1-0.1-0.5-0.6-0.7-1.3c-0.1-0.7,0-1.3,0.5-2c0.4-0.7,0.8-1.3,0.8-1.3
		c0.1-0.3,0.4-0.9,0.5-1.2v-0.1c0.2-0.6,0.2-1.2,0-1.8c-0.3-0.7-1.2-1.5-2-1c-0.5,0.3-0.5,1.3-0.4,1.1c0.1-0.1,0.2-0.2,0.6-0.3
		c0.5-0.1,1,0.6,0.8,1.2c-0.4,0.7-1.1,0.2-0.9,0.4c0.3,0.3,0.4,1,0.3,1.5c-0.1,0.5-0.5,0.9-0.5,0.9s0-0.3-0.2-1.1
		c-0.2-0.8-0.4-0.8-0.9-1.9c-0.6-1.4,0.2-2-0.1-1.9c-0.5,0-0.7-1-0.3-1.3c0.1,0-0.6-0.5-1-1.1c-0.3-0.6-0.4-1.3,0-2
		c0.3-0.7,0.5-1.8,0.5-1.8c0.1-0.4,0.2-0.7,0.1-1v-0.1c0.1-0.6-0.1-1.2-0.4-1.7c-0.4-0.6-1.6-1.2-2.2-0.5c-0.4,0.5-0.3,1.5-0.1,1.2
		c0.1-0.1,0.1-0.3,0.4-0.4c0.6-0.3,1.2,0.3,1.1,0.9c-0.1,0.8-1,0.4-0.7,0.6c0.4,0.3,0.6,0.9,0.6,1.4c0,0.5-0.2,1-0.2,1
		s-0.1-0.3-0.5-1c-0.3-0.7-0.6-0.7-1.3-1.6c-1-1.3,0-1.9-0.6-1.9c-1-0.1-0.5-1.1-0.6-1.1c-0.1-0.1-0.7-0.4-1.2-0.9
		c-0.5-0.5-0.7-1.1-0.6-1.9c0.2-0.8,0.3-2,0.3-2c0-0.3,0-0.5-0.1-0.8V34c-0.1-0.6-0.6-1.2-1.1-1.6c-0.5-0.5-1.9-0.8-2.4,0
		c-0.2,0.5,0.3,1.5,0.4,1.2c0-0.1,0-0.3,0.3-0.5c0.5-0.4,1.2,0,1.3,0.7c0,0.7-0.9,0.6-0.6,0.7c0.4,0.2,0.8,0.7,1,1.2
		c0.1,0.5,0,1,0,1s-0.2-0.2-0.7-0.8c-0.5-0.7-0.8-0.6-1.7-1.3c-1.2-0.9-0.8-1.7-1-1.7c-1.2,0.2-0.8-0.8-0.9-0.9
		c-0.1,0-0.8-0.1-1.4-0.5c-0.5-0.4-0.9-0.9-1-1.7c0-0.8-0.8-2.8-0.8-2.8V27c-0.3-0.6-0.7-1-1.2-1.3c-0.6-0.3-1.9-0.3-2.1,0.6
		c-0.2,0.6,0.4,1.4,0.4,1.1c0.1-0.1,0-0.4,0.2-0.6c0.4-0.5,1.2-0.3,1.4,0.4c0.3,0.7-0.6,0.7-0.3,0.8c0.4,0.1,0.9,0.5,1.2,0.9
		c0.2,0.5,0.2,1,0.2,1s-0.2-0.2-0.8-0.6c-0.7-0.5-0.9-0.4-2-0.8c-1.4-0.7-0.8-1.6-1.4-1.4c-1,0.3-1-0.7-1.1-0.7
		c-0.1,0-0.8,0-1.4-0.2c-0.7-0.2-1.2-0.7-1.4-1.4c-0.3-0.8-0.7-1.9-0.7-1.9c-0.2-0.3-0.4-0.5-0.6-0.7v-0.1c-0.5-0.4-1-0.5-1.6-0.4
		c-0.6,0.1-1.1,0.4-0.8,1.1c0.1,0.4,0.5,0.5,0.5,0.5s0-0.4,0.6-0.5c0,0,0.4,0,0.6,0.3c0.3,0.4-0.2,0.6,0,0.7c1.1,0.6,1.1,1.6,1,1.5
		c-1.2-1.2-3-1.4-3-1.4c-0.4,0.5-1.2,0.4-1.2-0.3h-0.7c-0.9-0.1-1.7-0.1-2.8-0.6c0,0,2.4-0.2,3.7-1.1c1-0.6,1.9-1.1,2.6-1
		c0.5,0,1,0.2,1.4,0.6c0.1,0.1,0.4-0.3,0.9-0.2c0.6,0.2,0.5,0.8,0.7,0.8c0.4,0.1,0.7,0,1.5,0.5c0.7,0.5,0.7,0.7,1.7,0.9
		c0.9,0.2,1.3,0.4,1.3,0.4s-0.3,0.3-0.7,0.3c-0.3,0.1-0.9,0.2-1.4-0.1c0,0,0.1,0.5-0.4,0.7c-0.4,0.1-0.7-0.1-0.9-0.4
		c-0.1-0.1-0.1-0.5,0.2-0.7c0.3-0.2-0.5-0.3-0.8-0.2c-0.5,0.2-0.5,0.7-0.3,1.1c0.1,0.2,0.4,0.6,0.9,0.8c0.5,0.2,1.3,0.2,1.8,0
		c0.5-0.3,1.1-0.4,2-0.6c0.8-0.3,1.7-0.1,2.4,0.5c0.7,0.4,0.7,0.6,1,1.2l0.1,0.1c0.1,0.1,0.4-0.4,0.9-0.1c0.5,0.3,0.3,0.8,0.5,0.9
		c0.4,0.3,0.6,0.2,1.3,0.8c0.6,0.7,0.5,0.9,1.4,1.3c0.9,0.5,1.2,0.7,1.2,0.7s-0.4,0.2-0.8,0.2c-0.3,0-0.8-0.1-1.3-0.5
		c0,0-0.1,0.6-0.6,0.6c-0.5,0-0.8-0.5-0.8-0.8c0-0.3,0.1-0.3,0.5-0.4c0.3-0.1-0.2-0.6-0.8-0.4c-0.3,0.1-0.6,0.6-0.6,0.9
		c0.1,0.3,0.3,0.8,0.7,1.1c0.5,0.3,1.2,0.5,1.8,0.4c0.5-0.1,1.1-0.1,2.1-0.1c0.8,0,1.7,0.3,2.1,0.9c0.5,0.5,0.7,0.7,0.8,1.5l0.1,0.1
		c0,0.2,0.4-0.1,0.8,0.3c0.5,0.4,0.1,0.8,0.3,1c0.3,0.3,0.6,0.3,1,1.1c0.5,0.7,0.4,0.9,1.1,1.6c0.7,0.6,1,0.9,1,0.9s-0.5,0.1-0.8,0
		c-0.3-0.1-0.8-0.3-1.2-0.8c0,0-0.1,0.6-0.7,0.5c-0.4-0.1-0.7-0.4-0.7-0.9c0.1-0.3,0.3-0.4,0.7-0.4c0.3,0-0.3-0.6-0.7-0.6
		c-0.5,0-0.7,0.4-0.8,0.8c0,0.3,0.1,0.8,0.4,1.2c0.4,0.4,1.1,0.8,1.6,0.8c0.6,0,1.2,0.2,2.1,0.4c0.8,0.2,1.7,1,1.9,1.6
		c0.3,0.7,0.3,1.1,0.3,1.6v0.1c1,0,1.3,0.6,0.9,1.4c0,0,0.5,0.4,0.7,1.3c0.2,0.9,0.1,1,0.6,1.8c0.6,0.9,0.8,1.2,0.8,1.2
		s-0.5,0-0.8-0.2c-0.3-0.1-0.7-0.5-0.9-1.1c0,0-0.3,0.4-0.8,0.3c-0.4-0.2-0.6-0.6-0.5-1c0.1-0.3,0.6-0.5,0.9-0.4
		c0.1,0.1-0.3-0.5-0.6-0.6c-0.4-0.1-0.9,0.2-1,0.6c-0.1,0.3-0.2,0.8,0.1,1.3c0.3,0.5,0.8,0.9,1.4,1.1c0.5,0.2,1,0.5,1.9,0.9
		c0.7,0.4,1.4,1.4,1.4,2c0.1,0.7,0,1.2-0.2,1.7c1,0.2,1.2,1,0.6,1.5c0,0,0.3,0.6,0.4,1.6c0,0.9-0.2,1,0.1,1.9
		c0.4,0.9,0.4,1.3,0.4,1.3s-0.4-0.1-0.7-0.4c-0.2-0.2-0.5-0.6-0.6-1.2c0,0-0.4,0.5-0.8,0.1c-0.4-0.3-0.4-0.9-0.2-1.2
		c0.3-0.2,0.5-0.2,0.7-0.1c0.3,0.2,0-0.6-0.3-0.8c-0.4-0.1-0.8,0-1,0.3c-0.3,0.4-0.3,0.8-0.2,1.3c0.1,0.6,0.5,1.2,1,1.5
		c0.5,0.3,0.9,0.7,1.6,1.4c0.6,0.5,1.1,1.6,0.9,2.3c-0.1,0.6-0.1,0.9-0.4,1.3v0.1c0.6,0.6,0.6,1.3-0.1,1.7c0,0,0.3,0.7,0.1,1.6
		c-0.2,0.9-0.4,1-0.3,1.9c0.1,1,0.1,1.4,0.1,1.4s-0.4-0.2-0.6-0.6c-0.2-0.2-0.4-0.7-0.3-1.3c0,0-0.5,0.4-0.9-0.1
		c-0.2-0.4-0.1-1,0.2-1.1c0.4-0.2,0.4-0.2,0.7,0c0.3,0.3,0.2-0.5-0.1-0.8c-0.2-0.3-0.8-0.2-1.1,0c-0.2,0.2-0.5,0.6-0.5,1.2
		c0,0.6,0.2,1.3,0.6,1.7c0.4,0.4,0.7,0.9,1.3,1.7c0.4,0.6,0.6,1.8,0.3,2.4c-0.3,0.7-0.4,1-0.9,1.3v0.1c-0.1,0.1,0.5,0.4,0.4,0.9
		c-0.2,0.6-0.7,0.6-0.8,0.8c-0.1,0.4,0.1,0.6-0.3,1.4c-0.4,0.9-0.6,0.9-0.8,1.8c-0.1,1-0.2,1.4-0.2,1.4s-0.4-0.3-0.5-0.7
		c0-0.3-0.2-0.8,0.1-1.4c0,0-0.5,0.2-0.8-0.3c-0.1-0.5,0.1-0.8,0.4-1c0.2-0.2,0.6,0,0.7,0.2c0,0.2,0.4-0.3,0-0.9
		c-0.2-0.3-0.7-0.4-1-0.2c-0.2,0.2-0.6,0.5-0.8,1c-0.1,0.6,0,1.3,0.2,1.8c0.3,0.5,0.5,1.1,0.8,2c0.3,0.7,0.2,1.9-0.3,2.4
		c-0.4,0.6-0.7,0.9-1.2,1.1l-0.1,0.1c-0.1,0.1,0.5,0.4,0.2,0.9c-0.2,0.5-0.7,0.4-0.8,0.6c-0.2,0.3-0.1,0.6-0.7,1.3
		c-0.6,0.7-0.8,0.6-1.2,1.5c-0.4,0.9-0.6,1.3-0.6,1.3s-0.2-0.4-0.2-0.8c-0.1-0.3,0-0.8,0.3-1.3c0,0-0.5,0-0.6-0.6
		c0-0.4,0.3-0.7,0.6-0.8c0.2,0,0.5,0.1,0.6,0.4c0.1,0.2,0.4-0.4,0.3-0.8c-0.1-0.3-0.6-0.6-1-0.5c-0.3,0.1-0.7,0.3-1,0.8
		c-0.3,0.5-0.4,1.2-0.2,1.7c0.1,0.6,0.1,1.2,0.3,2.2c0.1,0.7-0.4,1.8-0.9,2.3c-0.6,0.4-0.9,0.6-1.5,0.7v0.1c0.2,0.4-0.1,1-0.1,1
		c-0.5,0.4-0.8,0.1-1,0.3c-0.3,0.3-0.1,0.4-0.8,1c-0.8,0.5-1,0.4-1.5,1.2c-0.6,0.7-0.9,1-0.9,1s-0.1-0.4-0.1-0.8
		c0.1-0.3,0.2-0.8,0.7-1.2c0,0-0.6-0.1-0.5-0.6c0-0.5,0.3-0.6,0.7-0.7c0.3-0.1,0.6,0.1,0.6,0.5c0.1,0.2,0.4-0.3,0.4-0.7
		c0-0.3-0.3-0.7-0.7-0.7c-0.3,0-0.8,0.1-1.2,0.5c-0.4,0.4-0.7,1.1-0.6,1.6c0,0.6-0.2,1.2-0.3,2.2c0,0.3-0.2,1.5-1.3,2l-0.5-0.7
		c0.8-0.4,1.2-1.8,0.4-2.4c-0.4-0.3-1.4-0.1-1.1,0c0.1,0.1,0.2,0.2,0.3,0.5c0.3,0.6,0.1,0.8-0.2,1L85.5,96.9z M45.7,104.3l-1.4-0.6
		l-0.3,0.3c-0.1,0.1-0.2,0.2-0.2,0.3c0,0.1,0,0.2,0,0.3c0,0.1,0.2,0.1,0.3,0.2l0,0.1l-1.3-0.5l0-0.1c0.1,0,0.3,0,0.4,0
		c0.1-0.1,0.3-0.2,0.6-0.4l2.7-2.5l0.1,0l0.1,3.8c0,0.4,0,0.6,0.1,0.7c0,0.1,0.1,0.2,0.2,0.2l0,0.1l-1.9-0.8l0-0.1l0.1,0
		c0.2,0.1,0.3,0.1,0.3,0.1c0.1,0,0.1,0,0.1-0.1c0,0,0-0.1,0-0.1c0,0,0-0.1,0-0.3L45.7,104.3z M45.7,104.1l0-1.6l-1.1,1.1L45.7,104.1
		z M53.1,103.5l-0.3,1.1l-0.1,0c0-0.3,0-0.5,0-0.6c0-0.1-0.1-0.3-0.2-0.4c-0.1-0.1-0.2-0.1-0.4-0.2l-0.3-0.1l-0.9,3.1
		c-0.1,0.2-0.1,0.3-0.1,0.4c0,0.1,0,0.1,0.1,0.2c0.1,0.1,0.1,0.1,0.3,0.1l0.1,0l0,0.1l-2.1-0.6l0-0.1l0.1,0c0.1,0,0.2,0,0.3,0
		c0.1,0,0.1,0,0.2-0.1c0,0,0.1-0.2,0.1-0.4l0.9-3.1l-0.3-0.1c-0.3-0.1-0.5-0.1-0.6,0c-0.2,0.1-0.4,0.3-0.5,0.6l-0.1,0l0.3-1.1
		L53.1,103.5z M56.1,107l-1.5-0.2l-0.2,0.4c-0.1,0.1-0.1,0.2-0.1,0.3c0,0.1,0,0.2,0.1,0.3c0,0,0.2,0.1,0.4,0.1l0,0.1l-1.4-0.2l0-0.1
		c0.2,0,0.3,0,0.4-0.1c0.1-0.1,0.3-0.3,0.4-0.6l2-3.1l0.1,0l1,3.6c0.1,0.3,0.2,0.6,0.3,0.7c0.1,0.1,0.2,0.1,0.3,0.2l0,0.1l-2-0.3
		l0-0.1l0.1,0c0.2,0,0.3,0,0.3,0c0,0,0.1-0.1,0.1-0.1c0,0,0-0.1,0-0.1c0,0,0-0.1-0.1-0.2L56.1,107z M56,106.8l-0.4-1.5l-0.8,1.3
		L56,106.8z M61.2,106.7l-0.1,1.2c0,0.2,0,0.4,0,0.4c0,0.1,0.1,0.1,0.1,0.1c0.1,0,0.2,0.1,0.4,0.1l0,0.1l-2.1-0.1l0-0.1
		c0.2,0,0.3,0,0.4,0c0.1,0,0.1-0.1,0.2-0.1c0-0.1,0-0.2,0.1-0.4l0.1-2.7c0-0.2,0-0.4,0-0.4c0-0.1-0.1-0.1-0.1-0.1
		c-0.1,0-0.2-0.1-0.4-0.1l0-0.1l1.8,0.1c0.6,0,1,0.2,1.3,0.4c0.2,0.2,0.4,0.5,0.4,0.8c0,0.3-0.1,0.5-0.3,0.7
		c-0.2,0.2-0.4,0.3-0.7,0.4C62,106.7,61.6,106.7,61.2,106.7L61.2,106.7z M61.2,104.6l-0.1,1.8c0.1,0,0.1,0,0.2,0
		c0.3,0,0.4-0.1,0.6-0.2c0.1-0.1,0.2-0.4,0.2-0.7c0-0.3,0-0.5-0.2-0.7c-0.1-0.2-0.3-0.2-0.6-0.2L61.2,104.6z M68.5,103.8l0.2,1.4
		l-0.1,0c-0.1-0.4-0.3-0.6-0.6-0.8c-0.3-0.2-0.6-0.2-0.9-0.2c-0.3,0-0.5,0.1-0.7,0.3c-0.2,0.2-0.3,0.4-0.4,0.6
		c-0.1,0.3-0.1,0.7-0.1,1.1c0,0.4,0.1,0.7,0.3,1c0.1,0.3,0.3,0.5,0.5,0.6c0.2,0.1,0.5,0.2,0.8,0.1c0.3,0,0.5-0.1,0.7-0.3
		c0.2-0.1,0.4-0.4,0.6-0.7l0,0.4c-0.2,0.3-0.4,0.5-0.7,0.6c-0.2,0.1-0.5,0.2-0.9,0.3c-0.4,0.1-0.8,0-1.2-0.1
		c-0.4-0.1-0.7-0.4-0.9-0.7c-0.2-0.3-0.4-0.7-0.4-1c0-0.4,0-0.8,0.2-1.2c0.2-0.4,0.4-0.7,0.7-0.9c0.3-0.2,0.7-0.4,1.1-0.4
		c0.3,0,0.6,0,0.9,0.1c0.2,0.1,0.3,0.1,0.4,0.1c0.1,0,0.1,0,0.2-0.1c0-0.1,0.1-0.1,0.1-0.2L68.5,103.8z M73.9,102.7l0.2,1.1l-0.1,0
		c-0.1-0.2-0.2-0.4-0.3-0.5c-0.1-0.1-0.2-0.2-0.4-0.2c-0.1,0-0.2,0-0.4,0l-0.3,0.1l0.7,3.2c0,0.2,0.1,0.3,0.1,0.4
		c0,0,0.1,0.1,0.2,0.1c0.1,0,0.2,0,0.3,0l0.1,0l0,0.1l-2.1,0.5l0-0.1l0.1,0c0.1,0,0.2-0.1,0.3-0.1c0,0,0.1-0.1,0.1-0.2
		c0-0.1,0-0.2,0-0.4l-0.7-3.2l-0.3,0.1c-0.3,0.1-0.5,0.2-0.6,0.3c-0.1,0.2-0.2,0.5-0.2,0.8l-0.1,0l-0.2-1.1L73.9,102.7z M78.3,104.3
		l-1.4,0.5l0,0.4c0,0.1,0,0.3,0,0.3c0,0.1,0.1,0.2,0.2,0.2c0.1,0,0.2,0,0.4-0.1l0,0.1l-1.3,0.5l0-0.1c0.1-0.1,0.2-0.2,0.3-0.3
		c0.1-0.1,0.1-0.4,0.1-0.7l0.2-3.7l0.1,0l2.7,2.6c0.3,0.3,0.4,0.4,0.6,0.4c0.1,0,0.2,0,0.3,0l0,0.1l-1.9,0.7l0-0.1l0.1,0
		c0.2-0.1,0.2-0.1,0.3-0.2c0,0,0-0.1,0-0.2c0,0,0-0.1-0.1-0.1c0,0-0.1-0.1-0.2-0.2L78.3,104.3z M78.1,104.2L77,103l-0.1,1.6
		L78.1,104.2z M82.4,101.5l0.6,1.1c0.1,0.2,0.2,0.3,0.2,0.3c0,0,0.1,0.1,0.2,0.1c0.1,0,0.2,0,0.3-0.1l0.1-0.1l0.1,0.1L82,104
		l-0.1-0.1l0.1-0.1c0.1-0.1,0.2-0.1,0.2-0.2c0-0.1,0-0.1,0-0.2c0-0.1-0.1-0.2-0.2-0.4l-1.3-2.4c-0.1-0.2-0.2-0.3-0.2-0.3
		c0,0-0.1-0.1-0.2-0.1c-0.1,0-0.2,0-0.3,0.1l-0.1,0.1l-0.1-0.1l1.9-1.1l0.1,0.1l-0.1,0.1c-0.1,0.1-0.2,0.1-0.2,0.2
		c0,0.1,0,0.1,0,0.2c0,0.1,0.1,0.2,0.2,0.4l0.6,1l1.3-0.7l-0.6-1c-0.1-0.2-0.2-0.3-0.2-0.3c0,0-0.1-0.1-0.2-0.1
		c-0.1,0-0.2,0-0.3,0.1l-0.1,0.1l-0.1-0.1l1.9-1.1l0.1,0.1L84,98.2c-0.1,0.1-0.2,0.1-0.2,0.2c0,0.1,0,0.1,0,0.2
		c0,0.1,0.1,0.2,0.2,0.4l1.3,2.4c0.1,0.2,0.2,0.3,0.2,0.3c0,0,0.1,0.1,0.2,0.1c0.1,0,0.2,0,0.3-0.1l0.1-0.1l0.1,0.1l-1.9,1.1
		l-0.1-0.1l0.1-0.1c0.1-0.1,0.2-0.1,0.2-0.2c0-0.1,0-0.1,0-0.2c0-0.1-0.1-0.2-0.2-0.4l-0.6-1.1L82.4,101.5z M82.4,101.5"/>
	<path class="st5" d="M62.1,102.6c21.5,0,39-17.5,39-39.1c0-21.6-17.5-39.1-39-39.1s-39,17.5-39,39.1
		C23.1,85.2,40.6,102.6,62.1,102.6L62.1,102.6z M62.1,102c21.2,0,38.4-17.2,38.4-38.5c0-21.3-17.2-38.5-38.4-38.5
		c-21.2,0-38.4,17.2-38.4,38.5C23.7,84.8,40.9,102,62.1,102L62.1,102z M62.1,102"/>
	<path class="st6" d="M62.1,97.9c-18.9,0-34.3-15.4-34.3-34.4c0-18.9,15.4-34.3,34.3-34.3c18.9,0,34.3,15.4,34.3,34.3
		C96.4,81.8,81.8,97.9,62.1,97.9L62.1,97.9z M62.1,97.9"/>
	<path class="st7" d="M47.8,39.3L47.8,39.3L47.8,39.3L47.8,39.3z M47.8,39.3"/>
	<path class="st2" d="M60.7,63.1c2.8,0,5.2,2.3,5.2,5c0,2.8-2.3,5-5.2,5c-2.8,0-5.2-2.3-5.2-5C55.5,65.3,57.8,63.1,60.7,63.1
		L60.7,63.1z M60.7,63.1"/>
	<path class="st2" d="M43.9,87.5c-0.1,0.5,0,0.7,0.1,1.1c-0.6-0.2-1.1-0.4-1.3-1.1c-0.2-0.1-0.3-0.2-0.4-0.4l-0.1-0.1
		c-0.6-0.3-0.7-1-0.6-1.4l0-0.1c0.2-1.6,2.1-2.3,3.5-2c0.3,0,0.9,0.2,1.1,0.4c0.4,0.2,1,0.4,1.4,0.2c0.7-0.3,1.1-1.8,1.3-2.5
		l0.9-2.9c0.4-1.3,0.8-2.6,1.2-3.9c0.1-0.4,0.1-1.2,0-1.6c0-0.1-0.1-0.2-0.1-0.3L50.8,73c-0.1-0.1-0.3-0.1-0.4-0.2l-0.1,0.1
		c-1.2,0.8-2.7,0.6-3.9,0c-0.8-0.4-1.6-0.8-2.4-1.2c-0.7-0.4-1.4-0.8-2.1-1.1c-0.3-0.2-0.7-0.4-1.1-0.6c-0.4-0.2-0.8-0.4-1.2-0.3
		c-0.4,0.1-0.4,0.6-0.4,1c-0.5-0.3-0.8-0.4-0.8-1.1c0-0.2,0-0.4,0.1-0.5c-0.7,0-1.5,0.1-1.6,0.8c-0.1,0.5,0.2,1,0,1.6c0,0,0,0,0,0
		l0.6-0.1c-0.2,0.4-0.3,0.8-0.7,1l0,0c-0.2,0.3-0.4,0.5-0.7,0.6c-0.4,0.7-1.3,0.7-1.6,0.3c-1.1-0.1-1.6-2-1.5-2.9
		c0.2-1.4,1.3-3,2.5-3.7c1.1-0.7,2.5-0.8,3.8-0.7c1.8,0,3.5,0.5,5.3,0.9c0.6,0.1,1.2,0.2,1.8,0.1l0,0c0-0.2,0-0.4-0.1-0.7
		c-0.1-1.2-0.1-2.3,0-3.5c0.1-1.5,0-2.5-0.3-4c-0.2-1-0.3-1.6-0.9-2.4c-0.4-0.6-1-1.2-1.8-1.2c-0.1,0-0.4,0.2-0.5,0.3
		c-0.3,0.2-0.6,0.4-0.9,0.5c-0.5,0.2-0.9,0.3-1.4,0c-0.2-0.1-0.3-0.2-0.5-0.4c-0.1-0.1-0.1-0.1-0.2-0.2c-0.2-0.1-0.4-0.3-0.4-0.6
		c0-0.1,0-0.2,0.1-0.2l-0.2-0.6c-0.2-0.2-0.4-0.3-0.4-0.6c-0.2-0.1-0.3-0.3-0.4-0.4c-0.1-0.2-0.2-0.5-0.2-0.7l0-0.1
		c-0.2-0.3-0.3-0.7-0.3-1c0-0.5,0.5-0.8,0.9-1c0.4-0.3,0.7-0.7,1.2-0.8l0.5-0.1c0.5-0.1,0.8-0.2,1.1-0.7c0.8-1.1,2.2-1.3,3.4-1.2
		c0.3,0,0.6,0,0.9,0.1l0,0l0,0c0.2-0.3,0.5-0.6,0.8-0.7c0.5-0.2,0.9-0.2,1.3,0c0.5,0.2,0.6,0.6,0.7,1.1c0,0.2,0.1,0.5,0.1,0.7
		c0.5,0.4,1.3,1,1.7,1.4c1.7,1.8,2.3,3.7,3.3,5.9c0.5,1,1,1.9,1.8,2.4c0.3-1.9,0.5-3.8,0.5-5.8c0-0.8,0-1.5-0.1-2.3
		c-0.3-3.4-1.4-8.2-4.1-10.5c-0.8-0.6-2.1-1.5-3.2-1c-0.6,0.3-0.7,0.5-1.2,1.2l0-1.1c0-1.1,0.8-2,1.9-2.2c1.8-0.3,3.5,0.8,4.8,2
		c-0.2-0.9-0.2-1.8-0.1-2.7c0.3-1.7,1.7-4.1,3.7-3.4c0.5,0.1,1.1,0.5,1.7,0.7l-1.1,0.3c-1.6,0.4-2.2,2.2-2.2,3.6
		c0,1.3,0.9,3.1,1.5,4.2l0.4,0.8c-0.1-2.7,1-5.9,4.1-4.7c0.3,0.1,0.9,0.7,1.3,1l-1,0.1c-2.9,0.2-2,4.1-1.4,5.8
		c0.2,0.5,0.4,0.9,0.5,1.4c0.2-1.3,0.8-2.5,2-2.9c0.5-0.2,1-0.2,1.5,0.1c0.7,0.3,1.3,0.9,2,1.4l-1.4-0.2c-1.1-0.2-1.6,1.1-1.7,1.9
		c-0.3,1.3,0.1,3,0.5,4.3c0.2-1.1,0.8-2.1,1.9-2.1c0.4,0,0.8,0.1,1.1,0.3c0.4,0.2,0.9,0.8,1.4,1.1l-1,0c-1.1,0-1.3,0.1-1.4,1.2
		C66.5,52,66.8,53.6,67,55c0.2-0.5,0.7-1,1.2-1.1c0.3-0.1,0.7,0,1,0.1c0.2,0.1,0.5,0.5,0.8,0.8l-0.6,0.1c-0.9,0.2-0.7,1.4-0.7,2.1
		c0,0.3,0,0.5,0,0.8c0,0,0,0,0,0c0.6-0.2,0.8-0.4,1.4-0.8l0.3-0.2c1.3-1,2.9-1.8,4.6-2c1.3-0.2,2.8,0.1,4.1,0.5
		c1.3,0.4,2.3,1,3.4,1.8c0.9,0.6,2.8,1.5,3.7,0.4c0.9-1.2-0.2-2.7-0.9-3.6c-1-1.3-5.2-3.5-6.8-4.4c-2.6-1.5-5.3-2.9-6.7-5.7
		c-0.9-1.9-1-4.2,0.1-6.1c0.5-0.8,1.8-2.4,3-1.8c1,0.6,0.6,2,0.2,2.8c-0.7,1.3-0.7,2.2,0.3,3.4c1.3,1.6,4.7,3.6,6.6,4.6
		c2.3,1.1,4.7,2.6,6.3,4.6c1.3,1.7,2.1,3.6,1.9,5.8c-0.2,1.8-1.3,3.2-2.9,4.1c-0.1,0.1-0.5,0.3-0.7,0.5c0.1,0.1,0.4,0.2,0.5,0.5
		c0.2,1.4,0.4,2.7,0.4,4.1c0,1.5-0.3,3.2-0.5,4.7c-0.1,0.8-0.3,1.9-0.3,2.8c0,1.2,1.3,1.8,1.3,3.1c0,0.8-1.8,3.5-2.3,4.2
		c-0.3,0.4-1.8,2.5-1.8,3c0,0,0,0,0,0c0.1,0.3,0.6,0.1,0.9,0.1c0,0.8-1.1,1.3-1.8,1.1c-0.2,0.4-0.6,0.9-0.9,1.2
		c-0.9,0.8-1.9,0.8-3,1.1c-0.4,0.1-0.8,0.2-1.1,0.2c-0.4,0-0.9,0-1.3-0.1c-0.1,0.2,0,0.5,0,0.7c-0.5-0.1-0.8-0.2-1-0.7l-0.1-0.1
		c-0.3-0.2-0.5-0.4-0.6-0.6l0,0c-0.8-0.4-0.8-1.5-0.3-1.7c0,0,0-0.1,0-0.1c0-0.2,0-0.1,0.1-0.3c0.3-0.5,0.5-0.7,1-1
		c0.6-0.3,1.6-0.6,2.2-0.6c0.6,0,1.2,0.3,1.8,0.3c0.6,0,0.8-0.1,1.2-0.6c0.6-0.8,1.5-2.7,1.8-3.6c0.3-0.9,0.4-1.4,0.5-2.3
		c0.1-0.8-0.4-1.5-0.7-2.1c-0.4-1-1.1-2.1-1.6-3l-0.8-1.4c-0.4,0.7-0.9,1.9-1,2.7c-0.1,0.7,0.2,1,0,1.8c-0.3,1-0.2,0.6-1.2,1.2
		c-0.9,0.5-4.3,2.5-4.7,3.4c0,0.1-0.2,0.6-0.1,0.6l0.2,0c0.1,0.6-0.3,0.7-0.9,0.7c-0.3,0-0.6-0.1-0.8-0.3c0,0,0,0,0,0c0,0,0,0,0,0
		c-0.2,0.4-0.3,0.5-0.6,0.9c-0.8,0.8-1.4,0.5-2.3,0.7c-0.6,0.1-2,0.4-2.5,0.3c-0.2-0.1-0.4-0.1-0.6-0.2c0,0.1-0.1,0.2,0,0.2l0.1,0.6
		L64.9,83c-0.3-0.1-0.5-0.4-0.5-0.6c-0.1,0-0.1-0.1-0.2-0.1l-0.1,0l0-0.1c-0.1-0.1-0.3-0.3-0.3-0.5c-0.7-0.4-0.7-1.2-0.4-1.5
		c0-0.3,0-0.6,0.2-0.9c0.4-0.7,1.4-0.9,2.1-1c0.5-0.1,1.8-0.1,2.3,0.2c1.2,0.3,1.2-0.1,2-0.8c1.1-0.9,2.1-2.2,3.1-3.2
		c0.6-0.6,0.9-1.1,1-1.9c0.1-1-0.7-2.9-1.1-3.8c-0.3-0.6-0.5-1.6-0.7-2.3c-2.4,1.8-4.6,4.8-6.9,6.2c-1.6,1.4-2.9,2-5.3,1.9l-0.5,0.1
		c-1.1,0.1-2.2,0.2-3.2,0.2c-0.1,0.6-0.3,1.1-0.5,1.6l-0.1,0.1c-0.5,1.1-1.4,2.5-2,3.6c-0.4,0.7-0.9,1.5-1.3,2.2
		c-0.2,0.3-0.4,0.9-0.4,1.3c0,0.1,0,0.2,0.1,0.3c0.3,0.3,0.7,0.2,1,0.2c-0.3,0.5-0.5,0.8-1.1,0.9c-0.2,0-0.5,0.1-0.8,0
		c-0.2,0.5-0.7,1.1-0.8,1.2c-0.9,1-2.1,1.1-3.4,1.2c-0.3,0-0.5,0.1-0.8,0.2C45.3,88,44.8,87.6,43.9,87.5L43.9,87.5z M56.2,68.1
		c0-2.5,2.1-4.6,4.6-4.6c2.5,0,4.6,2.1,4.6,4.6c0,2.5-2.1,4.6-4.6,4.6C58.2,72.7,56.2,70.6,56.2,68.1L56.2,68.1z M40,54.2l0.2,0.2
		c0.1,0,0.2-0.1,0.3-0.1c0.1,0,0.4,0,0.5,0c0.6-0.3,0.4-0.8-0.1-0.9c-0.1,0.2-0.3,0.4-0.5,0.4c0,0-0.1,0-0.1,0
		c-0.1,0.1-0.2,0.1-0.3,0.2c0,0-0.1,0-0.1,0c0,0,0,0,0,0L40,54.2z M40,54.2"/>
	<path class="st8" d="M56.5,68.1c0,2.4,1.9,4.3,4.3,4.3c2.4,0,4.3-1.9,4.3-4.3c0-2.4-1.9-4.3-4.3-4.3C58.4,63.8,56.5,65.7,56.5,68.1
		L56.5,68.1z M56.8,68.1c0,2.2,1.8,4,4,4c2.2,0,4-1.8,4-4c0-2.2-1.8-4-4-4C58.6,64,56.8,65.9,56.8,68.1L56.8,68.1z M56.8,68.1"/>
	<path class="st5" d="M67,68.1c0,3.4-2.8,6.2-6.2,6.2c-3.4,0-6.2-2.8-6.2-6.2c0-2.1,1-3.9,2.6-5.1h0c0.3-0.2,0.6-0.4,0.9-0.6l0,0
		c0.1,0,0.1-0.1,0.2-0.1v0c1.1-0.5,2.4-0.6,3.6-0.4v0c1.3,0.3,2.6,1,3.5,2l0,0c0,0.1,0.1,0.1,0.1,0.2l0,0c0.3,0.3,0.5,0.6,0.7,1l0,0
		c0.1,0.3,0.2,0.3,0.4,0.8l0,0c0.2,0.5,0.3,0.9,0.3,1.4l0,0C67,67.6,67,67.9,67,68.1L67,68.1z M56.3,68.1c0-2.5,2-4.5,4.5-4.5
		c2.5,0,4.5,2,4.5,4.5c0,2.5-2,4.5-4.5,4.5C58.3,72.5,56.3,70.5,56.3,68.1L56.3,68.1z M56.3,68.1"/>
	<path class="st8" d="M43.3,86.8c-0.4-0.2-0.5,0.9,0.2,1.3C43.3,87.6,44.1,87.2,43.3,86.8L43.3,86.8z M43.3,86.8"/>
	<path class="st8" d="M42.1,85.7c-0.3-0.2-0.4,0.7,0.2,1C42.1,86.3,42.7,86,42.1,85.7L42.1,85.7z M42.1,85.7"/>
	<path class="st8" d="M42.7,86.1c-0.3-0.2-0.4,0.8,0.2,1.1C42.6,86.7,43.3,86.4,42.7,86.1L42.7,86.1z M42.7,86.1"/>
	<path class="st8" d="M36,72c-0.1,0.3,0.7,0.4,1-0.2C36.5,72,36.2,71.4,36,72L36,72z M36,72"/>
	<path class="st8" d="M35.3,72.5c-0.2,0.3,0.8,0.4,1.1-0.2C35.9,72.6,35.6,71.9,35.3,72.5L35.3,72.5z M35.3,72.5"/>
	<path class="st8" d="M34.7,73.1c-0.1,0.3,0.8,0.4,1-0.2C35.3,73.1,35,72.4,34.7,73.1L34.7,73.1z M34.7,73.1"/>
	<path class="st8" d="M64.8,81.7c-0.3-0.1-0.4,0.7,0.2,1C64.8,82.3,65.4,82,64.8,81.7L64.8,81.7z M64.8,81.7"/>
	<path class="st8" d="M63.8,80.4c-0.3-0.2-0.4,0.7,0.2,1C63.8,81,64.4,80.7,63.8,80.4L63.8,80.4z M63.8,80.4"/>
	<path class="st8" d="M64.3,81c-0.3-0.2-0.4,0.8,0.2,1.1C64.3,81.6,65,81.3,64.3,81L64.3,81z M64.3,81"/>
	<path class="st8" d="M75.9,87c-0.3-0.1-0.4,0.7,0.2,1C75.9,87.6,76.5,87.3,75.9,87L75.9,87z M75.9,87"/>
	<path class="st8" d="M74.6,85.6c-0.3-0.2-0.4,0.8,0.2,1.1C74.6,86.2,75.3,85.9,74.6,85.6L74.6,85.6z M74.6,85.6"/>
	<path class="st8" d="M75.2,86.2c-0.3-0.2-0.4,0.8,0.2,1.1C75.2,86.8,75.9,86.5,75.2,86.2L75.2,86.2z M75.2,86.2"/>
	<path class="st8" d="M64.2,80.8c0.1-0.1,0.3,0,0.5,0.3c0.2-0.4,1-1.1,2.1-0.9c-0.8-0.1-1.9,0.6-2.1,1.4c0.1-0.1,0.4,0,0.5,0.3
		c0.3,0.1,0.6,0.3,0.8,0.3c0.4,0.1,1.7-0.1,2.3-0.3c0.7-0.2,1.5,0,2.1-0.6c0.7-0.7,0.5-0.8,0.7-1c0.3-0.2,0.3-0.2,0.3-0.2
		s0.1,0.4,0.7,0.4c0.6,0,0.6-0.1,0.6-0.1s-0.6-0.1-0.2-1.1c0.4-0.9,3.6-2.9,4.8-3.5c1.2-0.7,0.8-0.2,1-1c0.2-0.8-0.1-0.9,0-1.7
		c0.1-0.8,0.6-2.2,1.1-2.9l0,0c-0.6-1-1-1.9-1.2-2.8c-0.3-1-0.7-2.4-2.8-2.3c-1,0-2,0.5-2.7,1l0,0.1c0,0,0.2,1.6,0.7,2.5
		c0.4,0.9,1.3,2.9,1.2,4c-0.1,1.1-0.6,1.7-1.1,2.1c-0.5,0.4-2.3,2.6-3.1,3.2c-0.8,0.6-0.9,1.2-2.4,0.8c-0.5-0.3-4.5-0.6-4.2,1.5
		c0.1-0.1,0.4,0.1,0.4,0.2c0.3-0.9,1.1-1.2,1.8-1.1C65,79.5,64.4,80,64.2,80.8L64.2,80.8z M64.2,80.8"/>
	<path class="st8" d="M67.2,68.1c0,1.6-0.6,3.1-1.6,4.2c3.1-1.9,6.3-7.5,10.1-7.5c2.3,0,2.7,1.6,2.9,2.5c0.2,1,0.7,1.9,1.3,2.9
		l0.1,0.2l0.8,1.5c0.6,1.1,1.4,2.3,1.6,3c0.3,0.8,0.8,1.4,0.7,2.3c-0.1,0.9-0.1,1.3-0.5,2.4c-0.4,1.1-1.4,3.1-1.8,3.7
		c-0.5,0.6-0.7,0.7-1.5,0.7c-0.6,0-1.2-0.2-1.8-0.3c-0.5,0-1.4,0.2-2,0.5c-0.5,0.3-0.6,0.5-0.9,0.9c0,0,0,0.1,0,0.1
		c0,0.1,0,0.1,0.1,0.3c0,0,0.3,0.3,0.3,0.3c0.5-1,1-1,2-1c-0.8,0.1-1.6,0.4-1.8,1.3c0.2,0.1,0.4,0.2,0.5,0.4
		c0.4-0.9,1.4-0.9,2.1-1.1c-0.3,0.2-2.1,0.5-2,1.5c0.2,0,0.6,0.2,0.5,0.4c0,0,0.1,0.1,0.1,0.1c0.1,0,0.8,0.2,1.3,0.1
		c0.3,0,0.7-0.1,1.1-0.2c1-0.3,2.1-0.3,2.9-1c0.7-0.6,0.9-1.3,0.9-1.3l0.1-0.1c0.3,0.4,1.4,0.2,1.6-0.3c-0.4,0-0.7,0.2-0.8-0.4
		c0,0,0,0,0-0.1c0-0.5,0.7-1.6,1.9-3.2c1.1-1.5,2.2-3.5,2.2-4.1c0-1.1-1.3-1.7-1.3-3.1c0-0.5,0.1-1.6,0.3-2.8
		c0.2-1.7,0.5-3.5,0.5-4.7c0-1.4-0.1-2.6-0.4-4c0-0.1-0.5-0.3-0.5-0.5c0-0.1,0.1-0.3,0.9-0.7c1.6-0.9,2.6-2.3,2.7-3.8
		c0.2-1.9-0.4-3.8-1.8-5.6c-1.3-1.6-3.3-3.1-6.2-4.5c-1.9-0.9-5.4-3-6.7-4.6c-1.4-1.8-0.7-3.1-0.3-3.8c0.2-0.3,0.9-1.8-0.1-2.4
		c-0.8-0.4-1.9,0.7-2.5,1.7c-0.4,0.6-1.5,3-0.1,5.8c1.4,2.8,4,4.1,6.5,5.6c2.4,1.3,6,3.3,6.9,4.5c1.1,1.4,1.9,2.8,0.9,4
		c-0.9,1.1-2.7,0.6-4.1-0.4c-1.4-0.9-2.2-1.4-3.4-1.8c-1.4-0.4-2.8-0.6-3.9-0.5c-0.9,0.1-2.6,0.5-4.4,1.9l-0.3,0.2
		c-0.6,0.4-0.8,0.6-1.7,0.9c0,0.6,0,1.3-0.1,1.9c0.7-1.3,1.8-0.6,2.1,0.5c-1.3-0.3-1.2,0.7-1.3,1.8c0,0.4-0.1,0.8-0.2,1.1
		c-0.3,1.3-1,2.7-1.9,3.6C67.1,67.5,67.2,67.8,67.2,68.1L67.2,68.1z M67.2,68.1"/>
	<path class="st5" d="M48.5,38.6c1.2-0.6,2.6,0.3,3.6,1c2.2,1.9,3.8,5.9,4.3,10.7c0.1,0.8,0.1,1.5,0.1,2.3c0,1.9-0.2,3.9-0.6,6.1
		c0.2,0.1,0.4,0.2,0.6,0.3c0.4-2.1,0.6-4.2,0.6-6.2c0-0.9,0-1.7-0.1-2.6c-0.5-5-2.2-9-4.6-10.9C51.4,38.7,49.6,37.8,48.5,38.6
		L48.5,38.6z M48.5,38.6"/>
	<path class="st8" d="M54.6,39.6c-1.2-1.4-3.1-2.9-5.1-2.5c-1,0.2-1.6,1-1.7,1.9c1.2-1.6,3.3-0.8,4.6,0.2c2.5,2,4.2,6,4.7,11.1
		c0.3,3,0.1,5.8-0.5,8.8c0.5,0.2,0.9,0.3,1.4,0.3c1.2-6.1,0.7-10.2-1.8-15.7C55.7,42.4,55.1,41.1,54.6,39.6L54.6,39.6z M54.6,39.6"
		/>
	<path class="st5" d="M57.5,62.6c0.2-0.1,0.5-0.3,0.7-0.4c0.6-2.6,1.2-5.5,1.2-8.5c0-3.6-1-6.9-2.6-10.2c-0.9-2-2.2-4-2.2-6.3
		c0-1.8,0.9-4.4,3.1-4.3c-1.8-0.6-3.1,1.7-3.3,3.2c-0.2,1.1-0.1,2.3,0.2,3.4c0.4,1.4,1.2,2.9,1.7,4.1c2,4.5,2.8,8,2.2,12.9l0,0.2
		C58.4,58.7,58,60.7,57.5,62.6L57.5,62.6z M57.5,62.6"/>
	<path class="st8" d="M58.5,62.2c0.4-0.2,0.9-0.3,1.4-0.4c0.5-2.2,1-4.4,1-6.7v0c0-0.1,0-0.1,0-0.2c0-3.3-0.8-6.5-1.8-9.6
		c-0.2-0.6-0.3-1-0.5-1.6l-1-2.1C56.8,40,56,38.5,56,37.3c0-1.6,0.7-3.5,2.4-3.9c-2.4-0.8-3.5,2-3.6,3.9c0,2.3,1.3,4.2,2.2,6.2
		c0.9,1.9,1.8,4.2,2.3,6.6C60.1,54.2,59.3,58.5,58.5,62.2L58.5,62.2z M58.5,62.2"/>
	<path class="st5" d="M60.1,61.8c0.2,0,0.4,0,0.6,0c0.5-2.1,1-4.4,1-6.7c0-0.8-0.1-1.7-0.2-2.6c-0.4-2.5-0.9-5-1.8-7.4
		c-0.4-1.1-0.8-2.2-0.8-3.3c0-1.8,1-4.7,3.3-3.9c-3.4-1.4-4.2,3.7-3.3,6.1l0.4,1.3c1,3.1,1.8,6.4,1.8,9.7v0.1
		C61,57.3,60.6,59.6,60.1,61.8L60.1,61.8z M60.1,61.8"/>
	<path class="st8" d="M60.9,61.7c0.4,0,0.8,0,1.1,0.1c0.5-1.8,1-3.9,1-6c0-0.2,0-0.5,0-0.7c-0.1-1.7-0.4-3.2-0.8-4.7
		c-0.2-0.8-0.4-1.9-0.4-3c0-0.2,0-0.3,0-0.5c-0.1-0.3-0.2-0.5-0.2-0.8c-0.2-0.5-0.4-1.1-0.6-1.6c-0.7-1.9-1.6-6.1,1.7-6.3
		c-2.3-1.6-3.6,1.7-3.6,3.5c0,1.1,0.4,2.2,0.8,3.2c0.9,2.4,1.4,4.9,1.8,7.4c0.1,0.9,0.2,1.7,0.2,2.6C61.9,57.4,61.4,59.7,60.9,61.7
		L60.9,61.7z M60.9,61.7"/>
	<path class="st5" d="M62.2,61.9c0.2,0,0.3,0.1,0.5,0.1c0.5-1.8,1-3.9,1-6c0-0.3,0-0.6,0-0.9c0-1.3-0.4-2.7-0.7-3.9
		c-0.3-1.4-0.7-2.7-0.7-4c0-1,0.2-2.5,0.9-3.3c0.5-0.6,1.2-0.9,1.9-0.7c-0.4-0.2-0.8-0.2-1.2-0.1C62.4,43.7,62,46,62,47.4
		c0,1.1,0.2,2.2,0.4,3c0.4,1.5,0.7,3.1,0.8,4.7c0,0.3,0,0.5,0,0.7C63.2,57.9,62.7,60,62.2,61.9L62.2,61.9z M62.2,61.9"/>
	<path class="st8" d="M62.9,62.1c0.2,0.1,0.5,0.2,0.7,0.3c0.8-1.5,1.2-2.9,1.4-4.2c0.2-1.3,0-2.6-0.1-3.8c-0.1-0.9-0.3-1.9-0.2-2.9
		c-0.1-0.3-0.2-0.6-0.2-0.9c-0.5-1.8-0.9-3.3-0.5-4.7c0.2-1,0.8-2.3,2.1-2.2c-0.4-0.3-0.9-0.5-1.5-0.4c-0.5,0.1-0.8,0.4-1,0.6
		c-1.4,1.9-0.7,5.1-0.2,7.1c0.3,1.3,0.6,2.6,0.7,4C64,57.5,63.5,60,62.9,62.1L62.9,62.1z M62.9,62.1"/>
	<path class="st5" d="M63.7,62.4c0.1,0.1,0.3,0.1,0.4,0.2c0.8-1.6,1.3-3,1.4-4.4c0.2-1.3,0-2.7-0.2-4c-0.1-0.9-0.3-1.8-0.3-2.7
		c0-1.4,0.5-3.5,2.4-2.8c-0.3-0.2-0.6-0.2-0.9-0.2c-1.5,0-1.8,2.2-1.8,3.3c0,0.9,0.1,1.7,0.2,2.5c0.1,0.8,0.2,1.7,0.2,2.6
		c0,0.4,0,0.8-0.1,1.3C65,59.5,64.5,60.9,63.7,62.4L63.7,62.4z M63.7,62.4"/>
	<path class="st8" d="M64.3,62.8c0.3,0.2,0.6,0.4,0.8,0.7c0.5-0.8,0.9-1.5,1.1-2.3c0.4-1.1,0.5-2.3,0.6-3.6c0-0.4,0.1-0.8,0.1-1.2
		c-0.1-2.2-0.7-4.2-0.6-5.7c0.1-1.3,0.5-1.5,1.7-1.5c-2-1.4-2.7,0.8-2.7,2.3c0,0.9,0.1,1.8,0.3,2.7c0.2,1.3,0.4,2.7,0.2,4
		C65.6,59.7,65.1,61.1,64.3,62.8L64.3,62.8z M64.3,62.8"/>
	<path class="st5" d="M65.3,63.5c0.1,0.1,0.2,0.2,0.3,0.3c0.6-0.9,1-1.7,1.2-2.6c0.4-1.3,0.4-2.6,0.5-3.9c0-0.8-0.1-2,0.5-2.7
		c0.3-0.4,0.8-0.5,1.2-0.3c-0.2-0.1-0.5-0.2-0.7-0.1h0c-0.6,0.1-1,0.7-1.2,1.5C67,56.4,67,57,67,57.6c-0.1,1.2-0.2,2.4-0.6,3.6
		C66.2,62,65.8,62.7,65.3,63.5L65.3,63.5z M65.3,63.5"/>
	<path class="st8" d="M65.7,64c0.3,0.3,0.5,0.6,0.7,1c0.9-1.3,1.1-2.8,1.8-4.3v0l0,0c0.2-1,0.2-1.9,0.2-2.8c0-0.3,0-0.5,0-0.8
		c0-0.9-0.1-2.1,1-2.4c-0.4-0.3-1.1-0.4-1.4,0.1c-0.6,0.6-0.5,1.8-0.5,2.6c0,1.3-0.1,2.7-0.5,4C66.7,62.2,66.3,63.1,65.7,64L65.7,64
		z M65.7,64"/>
	<path class="st5" d="M66.5,65.2c0.1,0.1,0.1,0.2,0.2,0.4c0.1-0.1,0.2-0.3,0.2-0.4c0.7-1.1,1-2.4,1.4-3.6c0.1-0.7,0.6-2.1,1.7-1.6
		c-1-0.8-1.7,1.1-1.9,1.7C67.6,62.9,67.2,64.2,66.5,65.2L66.5,65.2z M66.5,65.2"/>
	<path class="st8" d="M66.7,65.8c0.1,0.4,0.3,0.8,0.3,1.2c0.8-1,1.5-2.2,1.8-3.4c0.1-0.3,0.1-0.6,0.2-1c0.1-0.8,0.1-2.2,1.2-2
		c-0.9-1.3-1.6,0.5-1.8,1.2c-0.3,1.3-0.7,2.5-1.4,3.6C67,65.5,66.9,65.7,66.7,65.8L66.7,65.8z M66.7,65.8"/>
	<path class="st8" d="M56.5,72.7c-1.3-1.2-2.1-2.8-2.1-4.7c0-2.2,1.1-4.2,2.9-5.3c0.2-1,0.5-2.1,0.7-3.1c-2.3-0.2-3.6-1.4-4.5-3.5
		c-1-2.1-1.6-4-3.2-5.8c-0.5-0.5-1.7-1.5-1.7-1.5l0,0l0,0c0,0,0-0.4-0.1-0.8c-0.1-0.4-0.1-0.6-0.5-0.8c-0.4-0.2-0.7-0.1-1.1,0
		c-0.3,0.1-0.8,0.7-0.8,0.7l0,0L46,48c0,0-0.5-0.1-1-0.1c-1.1,0-2.4,0.1-3.1,1.1c-0.4,0.5-0.7,0.7-1.3,0.8l-0.5,0.1
		c-0.4,0.1-0.7,0.6-1.1,0.8c-0.2,0.1-0.8,0.4-0.8,0.7c0,0.2,0.1,0.8,0.3,0.9c0.1,0.1,0.2,0.1,0.2,0c0.1-0.2,0.3-0.4,0.3-0.6
		c0.1,0.3-0.1,0.5-0.2,0.7c-0.1,0.1-0.3,0-0.4,0c0,0.1,0.1,0.4,0.2,0.5c0.1,0.2,0.2,0.3,0.4,0.4v0c0,0.3,0.2,0.5,0.5,0.6
		c0-0.1-0.1-0.4-0.1-0.5c0,0,0,0,0-0.1c0,0,0.1,0,0.1,0c0,0.1,0.2,0.2,0.3,0.2c0.1,0,0.2-0.1,0.2-0.3v0c0,0,0,0,0-0.1l0,0
		c0,0.1,0.1,0.2,0.3,0.2c0.2,0,0.3-0.1,0.3-0.3v0c0,0,0-0.1,0-0.1c0,0,0,0,0,0c1-0.1,1.5,1,0.5,1.5c-0.2,0.1-0.5,0.1-0.7,0.1
		c-0.1,0-0.3,0.1-0.4,0.1l-0.5-0.4l0.2,0.5c0,0-0.1,0.1-0.1,0.1c0,0,0,0.1,0.3,0.3c0.1,0.1,0.2,0.2,0.3,0.3c0.1,0.1,0.2,0.2,0.4,0.3
		c0.4,0.2,0.8,0.1,1.2,0c0.3-0.1,0.5-0.2,0.8-0.5c0.2-0.2,0.4-0.4,0.7-0.4c0.7,0,1.5,0.5,2,1.3c0.4,0.5,0.7,1,0.9,2.5
		c0.4,2.3,0.3,3.1,0.3,4.1c-0.1,0.8-0.1,1.7,0,3.5c0.2,3.3,1.3,5,4.4,6.3c-0.8-3.1,0.6-4.9,1.4-5.7c-1.7,1.9-1.3,5.3-0.9,6.3
		c0,0,0.1,1.2,0,1.7c-0.1,0.3-0.6,2.1-1.2,3.9l-0.9,2.9c-0.4,1.3-0.8,2.3-1.5,2.7c-0.5,0.2-1,0.1-1.7-0.2c-0.7-0.4-1-0.3-1-0.3
		c-1.3-0.3-3,0.3-3.1,1.7c0.2-0.1,0.5,0.1,0.5,0.2c0.4-1.4,1.6-1.1,1.8-1c-0.4,0.1-1.3-0.2-1.6,1.1c0.3,0.1,0.4,0.2,0.5,0.5
		c0.3-0.9,1.4-0.7,1.9-0.6c-0.6,0-1.5,0-1.8,0.8c0.2,0.1,0.5,0.2,0.6,0.5c0.9,0.1,1.4,0.5,2.4,0.3c0.3-0.1,0.6-0.1,0.9-0.2
		c1.2-0.1,2.4-0.2,3.2-1.1c0.9-1,0.8-1.4,0.8-1.4l0.2-0.1c0,0,0.2,0.3,0.8,0.2c0.4-0.1,0.5-0.2,0.6-0.3c-0.2,0-0.4,0-0.7-0.3
		c-0.1-0.1-0.2-0.3-0.2-0.5c0-0.6,0.4-1.4,0.4-1.5c0.1-0.2,0.7-1.2,1.3-2.3c0.9-1.5,1.8-3.2,2-3.5l0.1-0.1c0.2-0.5,0.5-1.2,0.6-2.3
		C56.2,73.4,56.3,73,56.5,72.7L56.5,72.7z M43.4,49.9c0,0,0-0.1,0-0.1C43.4,49.8,43.4,49.8,43.4,49.9c0,0.1,0.2,0.3,0.4,0.3
		c0.1,0,0.2-0.1,0.3-0.2c0,0.1-0.2,0.3-0.3,0.3C43.5,50.2,43.4,50.1,43.4,49.9L43.4,49.9z M44.3,49.9c0,0.1,0.1,0.1,0.1,0.2
		c0,0.2-0.3,0.4-0.7,0.4c-0.4,0-0.7-0.2-0.7-0.4c0-0.1,0-0.1,0.1-0.2c0,0.3,0.3,0.6,0.6,0.6C44,50.5,44.3,50.2,44.3,49.9L44.3,49.9z
		 M42.8,50c0-0.4,0.4-0.6,0.9-0.6c0.3,0,0.6,0.1,0.8,0.4c0,0,0.7,0.3,0.7,0.3l0,0.1c-0.1,0-0.3-0.1-0.4,0l-0.1,0.1l0,0
		c-0.1,0.3-0.5,0.5-0.9,0.5c-0.1,0-0.3,0-0.4-0.1c0,0-0.4-0.1-0.4-0.1l-0.4,0l-0.1-0.3l0.1,0c0,0,0.2,0,0.3-0.1
		C42.8,50.1,42.8,50.1,42.8,50L42.8,50z M46.8,47.7c0.3-0.5,1-0.3,1.2,0.2c0.1,0.4,0.2,1.1,0,1.3c-0.3,0-0.7-0.1-1,0.1
		c0.3-0.5,0.9,0.1,0.8-1C47.7,47.7,47.2,47.4,46.8,47.7L46.8,47.7z M48.6,51.8c0.4,1-0.1,2.6-1.1,3.1c-0.4,0.2-1.8,0.3-2.7-0.2
		c0.6,0.1,2.1,0.3,2.6,0C48.4,54.2,48.8,52.8,48.6,51.8L48.6,51.8z M48.6,51.8"/>
	<path class="st8" d="M34.4,70.8c0,0.4,0.1,1.4,0.7,1.8c0-0.2,0.3-0.5,0.5-0.4c0.1-0.1,0-0.1,0-0.2c-0.4-0.6-0.4-1.1-0.1-1.7
		c-0.1,0.4-0.1,1.1,0.3,1.7c0.1-0.2,0.2-0.5,0.6-0.4c0.3-0.5,0-1.5,0.1-1.8c0.2-1,1.4-1.2,2.3-1.1l0.1,0.2c0,0-0.2,0.2-0.2,0.6
		c0,0.5,0.2,0.6,0.2,0.6s0.1-0.6,0.6-0.8c0.6-0.1,1.2,0.2,1.5,0.3c0.3,0.1,3.9,2.2,5.6,3c0.7,0.3,2.3,0.8,3.6,0
		c-2.3-0.8-3.5-2.6-3.9-5.2c-0.5,0-1.2,0-1.9-0.1c-1.1-0.2-3.4-0.9-5.2-0.9c-1.8,0-2.8,0.2-3.6,0.7c-0.8,0.5-2.1,1.9-2.3,3.4
		c-0.1,0.5,0.3,2.6,1.3,2.5c0.1-0.2,0.2-0.4,0.4-0.4C34.4,72,34.2,71.3,34.4,70.8L34.4,70.8z M34.4,70.8"/>
	<path class="st8" d="M59.6,74.3c-1.1-0.2-2.1-0.7-3-1.4c-0.1,0.2-0.3,0.6-0.3,1.1c0,0.2,0,0.3,0,0.5C57.3,74.5,58.4,74.5,59.6,74.3
		L59.6,74.3z M59.6,74.3"/>
	<path class="st5" d="M56.9,68.4c0.1,0.9,0.4,1.7,1,2.3c-0.2-0.3-0.2-0.7,0.1-1.1c0.2-0.2,1.8-1.3,2.2-0.9c0.4,0.4-0.7,1.9-0.9,2.2
		c-0.3,0.3-0.8,0.3-1.1,0.1c0.6,0.6,1.5,1,2.4,1c-0.3-0.1-0.6-0.4-0.6-0.8c0-0.3,0.4-2.2,0.9-2.2c0.5,0,0.9,1.9,0.9,2.2
		c0,0.5-0.3,0.8-0.6,0.8c0.9-0.1,1.6-0.4,2.3-0.9c-0.3,0.2-0.7,0.2-1-0.2c-0.2-0.2-1.3-1.8-0.9-2.2c0.4-0.4,2,0.7,2.2,0.9
		c0.3,0.3,0.3,0.7,0.2,1c0.5-0.6,0.9-1.4,0.9-2.2c-0.1,0.3-0.4,0.6-0.8,0.6c-0.3,0-2.2-0.4-2.2-0.9c0-0.5,1.9-0.9,2.2-0.9
		c0.5,0,0.7,0.3,0.8,0.6c-0.1-0.8-0.4-1.6-0.9-2.2c0.1,0.1,0.1,0.2,0.1,0.4c0,0.2-0.1,0.5-0.3,0.6c-0.3,0.3-1.8,1.3-2.2,0.9
		c-0.4-0.4,0.7-2,0.9-2.2c0.3-0.3,0.7-0.3,1-0.2c-0.6-0.5-1.4-0.9-2.2-0.9c0.3,0.1,0.6,0.4,0.6,0.8c0,0.3-0.4,2.2-0.9,2.2
		c-0.5,0-0.9-1.8-0.9-2.2c0-0.5,0.3-0.7,0.6-0.8c-0.9,0.1-1.7,0.4-2.3,1c0.3-0.2,0.7-0.2,1.1,0.1c0.2,0.2,1.3,1.8,0.9,2.2
		c-0.4,0.4-2-0.7-2.2-0.9c-0.3-0.3-0.3-0.8-0.1-1.1c-0.6,0.6-1,1.4-1,2.3c0.1-0.3,0.4-0.6,0.8-0.6c0.3,0,2.2,0.4,2.2,0.9
		c0,0.5-1.9,0.9-2.2,0.9C57.3,69,57,68.7,56.9,68.4L56.9,68.4z M60.2,68.1c0-0.4,0.3-0.6,0.6-0.6c0.4,0,0.6,0.3,0.6,0.6
		c0,0.4-0.3,0.6-0.6,0.6C60.4,68.7,60.2,68.4,60.2,68.1L60.2,68.1z M60.2,68.1"/>
	<path class="st8" d="M62.4,70.7c0.7,0.7,1.7-0.3,1-1c-0.2-0.2-1.7-1.1-1.9-0.9C61.3,69,62.2,70.5,62.4,70.7L62.4,70.7z M61.8,68.1
		c0,0.3,1.7,0.7,2,0.7c0.9,0,1-1.4,0-1.4C63.5,67.4,61.8,67.7,61.8,68.1L61.8,68.1z M62.4,65.4c-0.2,0.2-1.1,1.7-0.9,1.9
		c0.2,0.3,1.7-0.7,1.9-0.9c0.1-0.1,0.2-0.3,0.2-0.5C63.6,65.3,62.9,65,62.4,65.4L62.4,65.4z M60.1,65.1c0,0.3,0.4,2,0.7,2
		c0.3,0,0.7-1.7,0.7-2C61.5,64.1,60.1,64.1,60.1,65.1L60.1,65.1z M58.2,66.5c0.2,0.2,1.7,1.1,1.9,0.9c0.2-0.2-0.7-1.7-0.9-1.9
		C58.5,64.8,57.6,65.8,58.2,66.5L58.2,66.5z M59.8,68.1c0-0.3-1.7-0.7-2-0.7c-1,0-1,1.4,0,1.4C58.1,68.8,59.8,68.4,59.8,68.1
		L59.8,68.1z M60.1,68.8c-0.2-0.2-1.7,0.7-1.9,0.9c-0.7,0.7,0.4,1.6,1,1C59.4,70.5,60.3,69,60.1,68.8L60.1,68.8z M61.5,71.1
		c0-0.3-0.4-2-0.7-2c-0.3,0-0.7,1.7-0.7,2C60.1,72,61.5,72,61.5,71.1L61.5,71.1z M60.3,68.1c0,0.3,0.2,0.5,0.5,0.5
		c0.3,0,0.5-0.2,0.5-0.5c0-0.3-0.2-0.5-0.5-0.5C60.5,67.6,60.3,67.8,60.3,68.1L60.3,68.1z M60.3,68.1"/>
</g>
</svg>
