<?xml version="1.0" encoding="utf-8"?>
<!-- Generator: Adobe Illustrator 22.0.1, SVG Export Plug-In . SVG Version: 6.00 Build 0)  -->
<svg version="1.1" id="Слой_1" xmlns="http://www.w3.org/2000/svg" xmlns:xlink="http://www.w3.org/1999/xlink" x="0px" y="0px"
	 viewBox="0 0 127.3 127" style="enable-background:new 0 0 127.3 127;" xml:space="preserve">
<style type="text/css">
	.st0{fill:url(#SVGID_1_);}
	.st1{fill:#FFFFFF;}
	.st2{clip-path:url(#SVGID_3_);fill-rule:evenodd;clip-rule:evenodd;fill:#CF9329;}
	.st3{fill-rule:evenodd;clip-rule:evenodd;fill:#00923F;}
	.st4{fill-rule:evenodd;clip-rule:evenodd;fill:#0093DD;}
	.st5{fill-rule:evenodd;clip-rule:evenodd;fill:#DA251D;}
	.st6{fill-rule:evenodd;clip-rule:evenodd;fill:#CF9329;}
	.st7{fill-rule:evenodd;clip-rule:evenodd;fill:#1F1A17;}
</style>
<radialGradient id="SVGID_1_" cx="64.8" cy="2586.7468" r="62.6" gradientTransform="matrix(1 0 0 1 0 -2522.3469)" gradientUnits="userSpaceOnUse">
	<stop  offset="0.9487" style="stop-color:#212121"/>
	<stop  offset="1" style="stop-color:#606060;stop-opacity:0"/>
</radialGradient>
<circle class="st0" cx="64.8" cy="64.4" r="62.6"/>
<circle class="st1" cx="62.6" cy="62.6" r="62.6"/>
<g>
	<g>
		<defs>
			<rect id="SVGID_2_" x="28.2" y="15.8" width="68.7" height="94.5"/>
		</defs>
		<clipPath id="SVGID_3_">
			<use xlink:href="#SVGID_2_"  style="overflow:visible;"/>
		</clipPath>
		<path class="st2" d="M35.5,27.5l5.8,0l0,4.1l7.5,4.3l0,4.5l33,0L76,37.5v-5.8l7.6,3.8l0-7.5l5.9,0l0,7.5l7.2-4l0,5.8l-7.3,4.1V44
			l7.3-4.1l0,5.8l-7.3,4.1v2.7l7.3-4l0,5.5l-7.3,4v2.7l7.3-4l0,5.7l-7.3,4V69l7.3-4l0,5.9l-7.3,4v2.7l7.3-4l0,5.7l-7.3,4v2.7l7.3-4
			l0,5.6L88.6,92c-5.2,11-13.8,18.2-26.3,18.3c-12.5,0.1-24.4-9.3-26.6-22.4L28.2,92l0-5.7l7.4-4.1v-2.7l-7.4,4.1l0-5.7l7.4-4.1
			v-2.7l-7.4,4.1l0-5.9l7.4-4.1v-2.7l-7.3,4.1l0-5.7l7.3-4v-2.7l-7.3,4l0-5.5l7.3-4v-2.7l-7.3,4l0-5.8l7.3-4v-2.7l-7.3,4l0-5.9
			l7.2-4.1L35.5,27.5z M58,15.8l4.4,4.3l4.5-4.3v7.6h7.6l-4.3,4.4l4.3,4.5h-7.6v7.6l-4.5-4.3L58,39.9v-7.6h-7.6l4.3-4.5l-4.3-4.4H58
			V15.8z M59.5,27.9l3-3l3,3l-3,3L59.5,27.9z M41.3,37.5l0,2.9h5.4L41.3,37.5z M41.3,37.5"/>
	</g>
	<path class="st3" d="M83.6,82.7v0.2c0,13.9-10.8,21.8-21,21.8c-10.2,0-21.3-8.2-21.3-22H83.6z M83.6,82.7"/>
	<path class="st4" d="M83.6,64l0,18.7H41.3c0,0,0,0,0-0.1l0-18.7H83.6z M83.6,64"/>
	<path class="st5" d="M41.2,46.1h42.4l0,17.9H41.2L41.2,46.1z M41.2,46.1"/>
	<path class="st6" d="M58.7,53.9c0.2,0.7,0.7,1.6,1,2.3c0.6,0,0.3,0,0.9-0.1c-0.8,0.2-1,0.4-1.6,0.3c-1.2-0.3-2-1-3.4-1.3
		c0.1,0.7,1.8,2.6,2.4,3.1c1.2-0.6,2.2-1,2.5-1.1c0.2,0.6,0.3,0.8,0.5,1.2c0.7,0,1.7-0.1,2.8-0.2c0,0.1,0,0.3,0,0.4
		c-1.8,0.5-3.6,1.2-5.4,2c-1.2-0.6-2.4-1.2-3.6-1.8c0.1-0.3,0.4-0.8,0.7-1.1c-0.5-0.7-1-1.2-1.5-1.8c0.2-0.2,0.5-0.4,0.7-0.5
		c-0.5-0.3-1.1-0.7-1.6-1c-0.1,0.3-0.2,0.6-0.3,0.9c-0.4-0.2-0.7-0.4-1.1-0.6c-0.1,0.4-0.2,0.8-0.2,1.2c-0.3-0.2-0.7-0.4-1-0.6
		c-0.1,0.4-0.3,0.8-0.4,1.2c-0.4-0.2-0.8-0.4-1.2-0.6c0,0.4,0,0.8,0,1.2c-0.2,0.4-0.5,0.7-0.8,1.1c0.6,0.1,1.1,0.3,1.7,0.4
		c0.1,0.2,0.2,0.5,0.3,0.7c-1,1.1-1.4,2.5-0.9,4.4c0.5-0.6,1-1.1,1.6-1.3c-0.6,2.1-0.3,3.5,0.2,4.6c0.3-0.7,0.7-1.4,1.5-1.4
		c0.3,0.7,0.6,1.4,0.9,2.1c-0.5,0.4-1,0.8-1.6,1.1c-0.2-0.5-0.5-1.1-0.7-1.6c-0.5,0.3-2.1,0.4-3.1,0.6c0-0.3,0-0.5,0-0.8
		c-0.6,0.2-1.2,0.5-1.7,0.8c0.2,0.2,0.4,0.4,0.6,0.7c-0.3,0.2-0.6,0.4-0.9,0.6c0.2,0.3,0.4,0.5,0.6,0.8c-0.3,0.2-0.5,0.5-0.8,0.7
		c0.2,0.2,0.5,0.5,0.7,0.7c-0.2,0.3-0.6,0.3-0.8,0.6c0.3,0.3,0.7,0.5,1,0.7c0.2,0.3,0.4,0.8,0.6,1.2c0.4-0.4,0.8-0.8,1.2-1.1
		c0.5,2.1,1.1,3.2,1.7,3.7c0.3-0.9,0.7-1.5,1.2-2c0.8,0.9,1.7,1.7,2.9,2.3c-0.2-1.4,0.2-2.4,1.3-2.5c0.3,0.6,0.5,1.2,0.9,1.8
		c-3.9,4.3-7.1,8.7-5.6,14.5c0.5-0.3,1-0.4,1.4-0.4c0.1,0.2,0.1,0.5,0.1,0.9c-0.5-0.2-1-0.3-1.5-0.3c-0.6,0.1-1.1,0.2-1.7,0.4
		c0.1,0.2,0.2,0.5,0.3,0.7c-0.4,0.3-0.7,0.5-1.1,0.8c0.3,0.2,0.6,0.5,0.9,0.7c-0.3,0.3-0.6,0.6-1,0.9c0.3,0.2,0.6,0.3,1,0.5
		c-0.2,0.4-0.4,0.7-0.7,1.1c0.4,0.1,0.7,0.3,1.1,0.4c-0.1,0.3-0.3,0.6-0.4,0.9c0.5,0.1,1,0.2,1.5,0.3c1.1-0.5,2.2-1,3.4-1.7
		c1.3,0.3,2.6,0.5,3.9,0.9c0.1-0.5,0-2.6,0.3-3.2c0.5,0.2,0.9,0.5,0.9,1c0.6-0.8,0.7-2,0.6-3.1c0.6,0.1,1,0.4,1.3,1
		c0.5-1.1,0.8-2.4,0.7-3.9c0.3-0.2,0.6-0.5,0.8-0.8c1.3,2.2,2.9,4,5,5c0.2-0.6,0.6-1.1,1.2-1.4c0.5,0.2,0.7,0.5,0.9,0.7
		c-0.6,0.1-1.1,0.3-1.7,0.4c-0.2,0.4-0.6,0.9-0.8,1.2c0.3,0.1,0.6,0.2,0.9,0.3c-0.2,0.4-0.4,0.8-0.6,1.2c0.3,0.1,0.7,0.2,1,0.3
		c-0.1,0.4-0.2,0.8-0.3,1.2c0.4,0,0.9-0.1,1.3-0.1c0.2,0.5,0.4,0.9,0.6,1.4c0.4-0.2,0.7-0.4,1.1-0.6c0.2,0.3,0.4,0.7,0.5,1
		c0.5-0.2,1-0.5,1.5-0.7c0.7-1.4,1.3-2.8,1.9-4.2c0.9-0.4,1.7-0.9,2.6-1.4c-0.9-1.2-1.8-2.5-2.7-3.7c0.7-0.3,0.8-0.4,2-0.3
		c-0.1-1.1-1.7-3.2-2.8-3.7c0.7-0.5,1.1-0.4,1.9-0.5c-0.9-1.6-2.7-3.3-4.6-4.6c1.4-0.8,1.9-1.5,2.4-2.3c-1.1,0.1-1.9-0.1-2.6-0.4
		c-1.1-0.6-1.1-1.7-2.9-3.4c0.5-0.7,0.8-1.3,1.1-2c0.7,0.2,1.3,0.7,1.6,1.4c0.6-1.1,0.9-3.1,0.9-5c0.6,0.1,1.2,0.4,1.7,0.9
		c0.5-1.7,0.3-3.6-0.1-5.4c0.5-0.2,1.2-0.1,1.8,0.1c0-0.8-0.2-2-1.4-3.9c0.6-0.3,1.3-0.3,2,0.3c0-1.1-0.6-2-1.6-2.6
		c0.8-0.3,1.3-0.8,1.7-1.4c-0.8,0-1.7-0.2-2.5-1.1c0.4-0.3,0.8-0.3,1.2-0.1c-0.4-1.6-1.2-2.7-2.6-3c-0.1-0.5-0.3-1.1-0.6-1.6
		c-1.3-0.1-2.5,0.5-3.5,1.3c-0.5-0.1-0.9-0.3-1.4-0.3c-1.1,0.2-2,0.5-3.1,0.9c-0.5,0.7-1,1.3-1.4,1.8C61.2,53,59.2,53.6,58.7,53.9
		L58.7,53.9z M61.7,56c0.6,0.1,1.4,0.5,1.9,0.3c0.1-0.2,0.2-0.5,0.1-0.7c-0.3-0.2-1.2-0.5-1.4-0.4C62.1,55.4,61.9,55.8,61.7,56
		L61.7,56z M61.4,56.9c0.2,0,0.4-0.1,0.6-0.1c0.2,0,0.5,0.1,0.8,0.2c-0.1,0.1-0.2,0.2-0.3,0.2C62.1,57.1,61.8,57,61.4,56.9
		L61.4,56.9z M61.4,56.9"/>
	<path class="st7" d="M56.5,76.1c0.3,0.5,0.7,1,1,1.5c-0.8,1.7-1.3,3.4-0.6,5c1.5-1.3,2-1.6,2.6-1.3c-0.9,1.9-0.3,3.3,0.8,4.7
		c0.5-0.9,0.9-1.4,1.3-1.6c0.4,0.8,0.7,1.6,1.1,2.5c-0.3,0.3-0.7,0.6-1,0.9c0.2,1.3,0,2.4-0.3,3.4c-0.5-0.5-1-0.7-1.6-0.7
		c0.2,1.1,0.1,2,0,2.8c-0.4-0.6-0.9-0.7-1.3-0.7c-0.3,1-0.2,2.1-0.3,3.1c-1.2-0.2-2.4-0.6-3.6-0.8c-1.2,0.7-2.3,1.3-3.3,1.6
		c-0.3-1.1-0.6-2.1-0.9-3.2c0.3-0.9,0.5-1.8,0.8-2.6c0.5,0.1,1.1,0.2,1.8,0.5c0-0.5-0.2-1.1-0.2-1.6c-0.5,0-1,0.2-1.4,0.5
		C49.6,85.3,52.3,80.7,56.5,76.1L56.5,76.1z M49.7,57.4c1.3-0.5,2.6-1,3.9-1.6c0.6,0.4,1,1.2,1.5,1.7c-0.3,0.5-0.5,0.9-0.6,1.3
		c1.2,0.6,2.3,1.2,3.5,1.8c-2.4,0.9-3.1,1.7-3.4,2.4c1.5,0.1,2.3,0.4,2.4,0.7c-1.1,0.1-2.3,0.3-3.5,1.4c0.8,0.2,1.4,0.6,1.7,1
		c-0.5,0.4-1,0.7-1.5,1.1c-0.4-0.7-0.7-1.4-1.1-2.1c-0.9,0-1.3,0.4-1.6,1c-0.2-0.9-0.3-2.1,0.1-4.2c-0.5,0-1.3,0.2-1.8,1
		c-0.3-1.2-0.2-2.5,1-3.9C50.2,58.5,50,58,49.7,57.4L49.7,57.4z M59.1,54c0.8-0.3,1.9-0.6,3.5-1c0.4-0.6,0.9-1.3,1.4-1.9
		c0.9-0.3,1.9-0.7,3-0.8c0.4-0.1,0.9,0.2,1.3,0.3c1.4-1,2.6-1.4,3.3-1.3c0.3,0.5,0.5,1,0.5,1.6c0.9,0.1,2,0.7,2.4,2.3
		c-0.3-0.1-0.9,0.1-1.1,0.5c0.4,0.7,1.1,1.2,2.2,1.5c-0.4,0.4-1,0.9-1.6,1.1c0.9,0.5,1.6,1.1,1.8,1.9c-1-0.2-1.7-0.2-2,0.3
		c0.6,1.2,1.3,2.4,1.4,3.6c-0.7-0.2-1.3-0.1-1.7,0.3c0.2,1.7,0.5,3.3,0.1,5c-0.4-0.5-1-0.8-1.8-0.9c-0.1,1.6-0.2,3.1-0.7,4.7
		c-0.2-0.5-0.7-0.9-1.5-1.2c-0.4,1-0.9,2-1.5,2.8c1.1,0.7,1.4,1.9,2.2,2.8c0.6,0.7,1.8,1.4,3.2,1.1c-0.6,0.7-1.5,1.4-2.4,2
		c1.7,1.2,3.4,2.6,4.6,4.3c-0.7,0.2-1.4,0.3-1.9,0.9c1.2,0.7,2.3,1.7,3,3.4c-0.6,0-1.3,0.1-1.9,0.5c0.9,1.2,1.8,2.5,2.7,3.7
		c-0.8,0.5-1.7,1-2.5,1.5c-0.6,1.3-1.1,2.6-1.8,3.9c-1.1-0.5-2.3-1-3.4-1.5c-0.5-1-1-2.2-1.5-3.2c0.6-0.2,1.3-0.3,1.9-0.4
		c-0.1-0.5-0.7-0.9-1.3-1.2c-0.6,0.3-1.1,0.7-1.3,1.2c-3-1.3-4.6-4.4-6-7.7c-0.9,0.6-1.3,1.1-1.5,1.7c-1.3-2.2-0.8-3.4-0.3-4.6
		c-0.6-0.4-1.3-0.5-2.9,1.1c-0.4-1.8,0.2-3.2,0.9-4.5c-0.9-1.3-1.6-2.7-2.3-4c-1,0.2-1.6,0.9-1.8,2.4c-0.9-0.6-1.7-1.3-2.5-2.1
		c-0.5,0.3-1,0.8-1.4,1.8c-0.7-1.1-1.1-2.3-1.2-3.5c-0.6,0-1.1-0.1-1.5-0.4c0.3-1.3,0.5-2.6,0.8-3.8c1-0.4,2.3-0.3,3-0.6
		c0.2,0.5,0.5,1.1,0.8,1.6c1.4-0.9,2.6-1.8,4-2.8c-0.3-0.4-0.8-0.9-1.5-1.2c0.7-0.5,2-0.9,3.3-1.1c-0.2-0.7-1.1-1-2.4-1.1
		c0.2-0.4,0.6-0.8,1-1c2.5-1.2,5.2-2.3,7.7-3.2c0.1-0.3,0.1-0.5,0-0.8c-0.9,0.1-1.8,0.1-2.7,0.2c-0.2-0.3-0.3-0.7-0.4-1
		c0.6,0.1,1.2,0.3,1.8,0.3c0.3,0,0.6-0.2,0.9-0.3c0.4-0.5,0.4-1.1,0.5-1.6C63.6,55.3,63,55,62.4,55c-0.4,0-0.7,0.6-0.9,0.8
		c-0.5,0-1.1,0-1.6,0.1C59.6,55.4,59.3,54.7,59.1,54L59.1,54z M63.5,53.3c-0.1,0-0.2,0.1-0.1,0.2c0.1,0.2,0.3,0.3,0.5,0.3
		c0.1,0,0.4-0.1,0.5-0.1c0.3,0.1,0.5,0.4,0.7,0.4c0.2,0,0.2-0.3,0.1-0.5c0-0.1-0.2,0-0.3,0c-0.1,0-0.2-0.2-0.3-0.2
		c-0.2,0-0.4,0.1-0.6,0.1C63.8,53.4,63.7,53.3,63.5,53.3L63.5,53.3z M64.3,53.7c0.2,0,0.3,0.2,0.3,0.4c0,0.2-0.1,0.4-0.3,0.4
		c-0.2,0-0.3-0.2-0.3-0.4C64,53.9,64.1,53.7,64.3,53.7L64.3,53.7z M64.3,53.7"/>
	<path class="st5" d="M56,55.6c1.1,0.4,2.5,1.1,3.2,1.1c0.6,0,1.6-0.6,2.4-0.5c0.6,0,1,0.4,1.9,0.4c-0.1,0.1-0.1,0.2-0.2,0.2
		c-0.5,0-1.1-0.2-1.4-0.2c-1.1,0.2-2.6,0.9-3.8,1.4C57.3,57.3,56.6,56.5,56,55.6L56,55.6z M56,55.6"/>
	<path class="st5" d="M68.2,92l1.6,3.4l3.5,1.6l-1.4,0.7l-0.5-1.1l-1.1,0.6l-0.6-1.4l-1.2,0.1l0.2-1.1l-0.9-0.3l0.5-1.2L67.5,93
		L68.2,92z M49.5,90.9l1.3-0.3L50,93.3l1,3.5l-1.3-0.2l0.3-0.8l-1-0.5l0.6-1l-0.8-0.5l0.8-0.8l-0.8-0.8l0.9-0.7L49.5,90.9z
		 M53.3,54.6l1.2,0.7l-4.9,2l0.3,0.8l-1.3-0.4l0.6-0.8l-0.1-1l1.2,0.6l0.4-1.2l1,0.6l0.3-1.1l1,0.6L53.3,54.6z M47.9,67.2
		c-0.2,1.7-0.5,3.2-0.9,4.8c0.3,0.2,0.8,0.4,1.4,0.5c-0.3,0.2-0.7,0.6-1,0.9c-0.2-0.3-0.3-0.7-0.5-1c-0.4-0.2-0.6-0.3-0.9-0.5
		c0.2-0.2,0.6-0.2,0.7-0.6c-0.2-0.3-0.4-0.5-0.6-0.7c0.2-0.2,0.5-0.5,0.7-0.7c-0.2-0.3-0.4-0.5-0.6-0.8c0.3-0.2,0.7-0.4,1-0.7
		c-0.2-0.2-0.4-0.4-0.6-0.6C47,67.5,47.5,67.4,47.9,67.2L47.9,67.2z M47.9,67.2"/>
</g>
</svg>
