<?xml version="1.0" encoding="utf-8"?>
<!-- Generator: Adobe Illustrator 22.0.1, SVG Export Plug-In . SVG Version: 6.00 Build 0)  -->
<svg version="1.1" id="Слой_1" xmlns="http://www.w3.org/2000/svg" xmlns:xlink="http://www.w3.org/1999/xlink" x="0px" y="0px"
	 viewBox="0 0 127.3 127" style="enable-background:new 0 0 127.3 127;" xml:space="preserve">
<style type="text/css">
	.st0{fill:url(#SVGID_1_);}
	.st1{fill:#FFFFFF;}
	.st2{fill-rule:evenodd;clip-rule:evenodd;fill:#00A7E4;}
	.st3{fill-rule:evenodd;clip-rule:evenodd;fill:#EC1C24;}
	
		.st4{fill-rule:evenodd;clip-rule:evenodd;fill:#FFFFFF;stroke:#231F20;stroke-width:0.3823;stroke-linecap:round;stroke-miterlimit:22.9256;}
	.st5{fill:none;stroke:#231F20;stroke-width:0.669;stroke-linecap:round;stroke-linejoin:round;stroke-miterlimit:22.9256;}
	.st6{fill-rule:evenodd;clip-rule:evenodd;fill:#FFFFFF;}
	.st7{fill:none;stroke:#231F20;stroke-width:0.3823;stroke-linecap:round;stroke-miterlimit:22.9256;}
	
		.st8{fill-rule:evenodd;clip-rule:evenodd;fill:#FFCA05;stroke:#231F20;stroke-width:0.3823;stroke-linecap:round;stroke-linejoin:round;stroke-miterlimit:22.9256;}
	.st9{fill-rule:evenodd;clip-rule:evenodd;fill:#FFCA05;}
	.st10{fill:none;stroke:#231F20;stroke-width:0.3823;stroke-linecap:round;stroke-linejoin:round;stroke-miterlimit:22.9256;}
</style>
<radialGradient id="SVGID_1_" cx="64.8" cy="-554.747" r="62.6" gradientTransform="matrix(1 0 0 -1 0 -490.347)" gradientUnits="userSpaceOnUse">
	<stop  offset="0.9487" style="stop-color:#212121"/>
	<stop  offset="1" style="stop-color:#606060;stop-opacity:0"/>
</radialGradient>
<circle class="st0" cx="64.8" cy="64.4" r="62.6"/>
<circle class="st1" cx="62.6" cy="62.6" r="62.6"/>
<g>
	<path class="st2" d="M96,26.1v57.7c0,7-4.7,12.2-11.2,12.2H70.2c-4.8,0-7.2,3.7-7.6,6.6c-0.4-2.9-2.9-6.6-7.7-6.6H40.3
		c-6.5,0-11.2-5.1-11.2-12.2V26.1H96L96,26.1z"/>
	<polygon class="st3" points="96,39.9 29.2,39.9 29.2,26.1 96,26.1 96,39.9 	"/>
	<polygon class="st4" points="51.5,44.1 40.3,44.1 40.3,39.9 51.5,39.9 51.5,44.1 	"/>
	<polygon class="st4" points="62.6,44.1 51.5,44.1 51.5,39.9 62.6,39.9 62.6,44.1 	"/>
	<polygon class="st4" points="73.7,44.1 62.6,44.1 62.6,39.9 73.7,39.9 73.7,44.1 	"/>
	<polygon class="st4" points="84.9,44.1 73.7,44.1 73.7,39.9 84.9,39.9 84.9,44.1 	"/>
	<polygon class="st4" points="96,44.1 84.9,44.1 84.9,39.9 96,39.9 96,44.1 	"/>
	<polygon class="st4" points="40.3,44.1 29.2,44.1 29.2,39.9 40.3,39.9 40.3,44.1 	"/>
	<polygon class="st4" points="57,39.9 45.9,39.9 45.9,35.7 57,35.7 57,39.9 	"/>
	<polygon class="st4" points="68.2,39.9 57,39.9 57,35.7 68.2,35.7 68.2,39.9 	"/>
	<polygon class="st4" points="79.3,39.9 68.2,39.9 68.2,35.7 79.3,35.7 79.3,39.9 	"/>
	<polygon class="st4" points="90.5,39.9 79.3,39.9 79.3,35.7 90.5,35.7 90.5,39.9 	"/>
	<polygon class="st4" points="96,39.9 90.5,39.9 90.5,35.7 96,35.7 96,39.9 	"/>
	<polygon class="st4" points="34.7,39.9 29.2,39.9 29.2,35.7 34.7,35.7 34.7,39.9 	"/>
	<polygon class="st4" points="37.5,35.7 31.9,35.7 31.9,31.5 37.5,31.5 37.5,35.7 	"/>
	<polygon class="st4" points="45.9,39.9 34.7,39.9 34.7,35.7 45.9,35.7 45.9,39.9 	"/>
	<polygon class="st4" points="48.7,35.7 43.1,35.7 43.1,31.5 48.7,31.5 48.7,35.7 	"/>
	<polygon class="st4" points="59.8,35.7 54.2,35.7 54.2,31.5 59.8,31.5 59.8,35.7 	"/>
	<polygon class="st4" points="71,35.7 65.4,35.7 65.4,31.5 71,31.5 71,35.7 	"/>
	<polygon class="st4" points="82.1,35.7 76.5,35.7 76.5,31.5 82.1,31.5 82.1,35.7 	"/>
	<polygon class="st4" points="93.3,35.7 87.7,35.7 87.7,31.5 93.3,31.5 93.3,35.7 	"/>
	<path class="st5" d="M96,26.1v57.7c0,7-4.7,12.2-11.2,12.2H70.2c-4.8,0-7.2,3.7-7.6,6.6c-0.4-2.9-2.9-6.6-7.7-6.6H40.3
		c-6.5,0-11.2-5.1-11.2-12.2V26.1H96L96,26.1z"/>
	<path class="st4" d="M37.6,50.2c1.2-1.6,3.5-1.8,5.1-0.6c1.6,1.2,1.8,3.5,0.6,5.1c-1.2,1.6-3.5,1.9-5.1,0.6
		C36.7,54,36.4,51.7,37.6,50.2L37.6,50.2z M36.8,57.1c2.6,2,6.3,1.6,8.3-1c2-2.6,1.6-6.3-1-8.3c-2.6-2-6.3-1.6-8.3,1
		C33.8,51.3,34.2,55,36.8,57.1L36.8,57.1z"/>
	<path class="st4" d="M71,92.5c-0.5-0.4-0.8-0.8-0.9-1.5c1.4,0.1,3,0.8,5.8,0.6c3.7-0.3,4.4-1.5,6.3-2.8c1.3-1,2.7-0.9,4-0.6
		c-0.7-1.1-1.1-2.5-0.4-4c0.9-2.2,1.8-3.2,1.2-6.8c-0.5-2.7-1.5-4.2-1.9-5.5c0.8,0,1.2,0.2,1.7,0.5c-0.2-0.7-2.2-3.6-3.9-4.7
		c0.5,1.2-0.3,4.8,0.1,5.9c0.5-0.7,0.8-1.3,1.3-1.4c0.2,0.6,1.6,4.8,0.3,6.8c-1.3,2.1-3.7,2.4-6.5,0.5C76,78.1,52.3,60.6,47.6,57
		c0.8-1.6,0.4-3.6-1.1-4.8c-1.7-1.3-4.1-1-5.4,0.7c-1.3,1.7-1,4.2,0.7,5.5c1.5,1.2,3.5,1.1,4.9-0.1c4.6,3.6,27.3,22.4,29.2,24.2
		c2.5,2.2,2.7,4.6,1,6.4c-1.7,1.7-6.1,1.5-6.7,1.4c0-0.5,0.5-0.9,1.1-1.6c-1.1-0.1-4.5,1.4-5.7,1.3C67,91.2,70.3,92.4,71,92.5
		L71,92.5z M46,56.8c-0.8,1-2.3,1.2-3.4,0.4c-1.1-0.8-1.2-2.3-0.4-3.4c0.8-1.1,2.3-1.2,3.4-0.4C46.7,54.2,46.9,55.7,46,56.8L46,56.8
		z"/>
	<path class="st4" d="M40.3,56c-0.8,0-1.5-0.3-2.1-0.8c-1.6-1.2-1.9-3.5-0.6-5.1c1.2-1.6,3.5-1.8,5.1-0.6c1.6,1.2,1.8,3.5,0.6,5.1
		c-0.4,0.5-0.9,0.9-1.5,1.1c0.1,0.6,0.4,1.1,0.9,1.4c0.2,0.2,0.4,0.3,0.7,0.4c0.7-0.4,1.3-0.9,1.8-1.5c2-2.6,1.6-6.3-1-8.3
		c-2.6-2-6.3-1.6-8.3,1c-2,2.6-1.6,6.3,1,8.3c1.4,1.1,3.2,1.5,4.8,1.1C40.9,57.6,40.5,56.8,40.3,56L40.3,56z"/>
	<path class="st4" d="M53.4,62.7c-3,3.3-8.8,7.4-8.8,7.4l-1.3-1.8l7.3-8.1l7.3-8.1l1.9,1C59.8,53.1,56.4,59.3,53.4,62.7L53.4,62.7z"
		/>
	<polygon class="st6" points="56.3,53.8 58.7,55.1 56.3,53.8 	"/>
	<line class="st7" x1="56.3" y1="53.8" x2="58.7" y2="55.1"/>
	<polygon class="st6" points="55.7,54.5 58.2,55.8 55.7,54.5 	"/>
	<line class="st7" x1="55.7" y1="54.5" x2="58.2" y2="55.8"/>
	<polygon class="st6" points="55.1,55.1 57.8,56.5 55.1,55.1 	"/>
	<line class="st7" x1="55.1" y1="55.1" x2="57.8" y2="56.5"/>
	<polygon class="st6" points="44.9,66.6 46.4,68.8 44.9,66.6 	"/>
	<line class="st7" x1="44.9" y1="66.6" x2="46.4" y2="68.8"/>
	<polygon class="st6" points="45.4,65.9 47,68.3 45.4,65.9 	"/>
	<line class="st7" x1="45.4" y1="65.9" x2="47" y2="68.3"/>
	<polygon class="st6" points="46,65.3 47.7,67.8 46,65.3 	"/>
	<line class="st7" x1="46" y1="65.3" x2="47.7" y2="67.8"/>
	<path class="st8" d="M40.3,88.2l0.9-0.8l-0.7-0.8l-0.9,0.7c-0.6-0.3-1.3-0.3-1.8,0.1c-0.7,0.5-0.8,1.6-0.3,2.3
		c0.6,0.7,1.6,0.8,2.3,0.3C40.3,89.6,40.5,88.9,40.3,88.2L40.3,88.2z"/>
	<path class="st9" d="M88.1,58.9c-0.2-0.7-0.6-1.4-1.1-1.9c0.5-0.2,1.1-0.4,1.5-0.8c2.2-1.7,2.6-4.9,0.8-7.1
		c-1.7-2.2-4.9-2.6-7.1-0.8c-0.5,0.4-0.8,0.8-1.1,1.3c-0.4-0.6-0.9-1.1-1.6-1.6c-2.4-1.5-5.5-0.8-7,1.6c-1.5,2.4-0.8,5.5,1.6,7
		C75,57,76,57.3,77,57.3L76.1,58l-1.3,0.2l0,0.8l-0.5,0.4c-0.4-0.2-0.8-0.2-1.1,0c-0.2,0.2-0.3,0.6-0.2,1l-33.1,26l1.4,1.8l33.1-26
		c0.4,0.2,0.8,0.2,1,0c0.3-0.2,0.3-0.6,0.2-1l0.5-0.4L77,61l0.6-1.3l0.9-0.7c-0.3,1-0.2,2,0.1,3c0.9,2.6,3.7,4.1,6.4,3.2
		C87.6,64.4,89,61.5,88.1,58.9L88.1,58.9z M84.4,63.8c-0.9,0.3-1.8,0.2-2.6-0.2c-0.8-0.4-1.5-1.1-1.7-2c-0.3-0.9-0.2-1.8,0.2-2.7
		c0.1-0.1,0.1-0.3,0.2-0.4l-0.8-1.1l1.1-0.9c0.6,0.4,1.4,0.3,1.9-0.1c0.7-0.6,0.9-1.7,0.3-2.4c-0.6-0.7-1.6-0.8-2.4-0.3
		c-0.6,0.5-0.8,1.2-0.6,1.8l-1.1,0.9l-0.8-1c-0.1,0-0.3,0.1-0.5,0.1c-0.9,0.2-1.8,0-2.6-0.5c-0.8-0.5-1.3-1.3-1.6-2.2
		c-0.2-0.9,0-1.8,0.5-2.6c0.5-0.8,1.3-1.3,2.2-1.6c0.9-0.2,1.8,0,2.6,0.4c0.8,0.5,1.3,1.3,1.6,2.2c0,0.2,0.1,0.5,0.1,0.7l1.6,0
		c0-1,0.5-2,1.3-2.7c1.5-1.2,3.7-0.9,4.9,0.6c1.2,1.5,0.9,3.7-0.6,4.9c-0.8,0.7-1.9,0.9-2.9,0.7l-0.4,1.5c0.2,0.1,0.4,0.1,0.7,0.2
		c0.8,0.4,1.5,1.1,1.7,2c0.3,0.9,0.2,1.8-0.2,2.7C86,62.8,85.3,63.5,84.4,63.8L84.4,63.8z"/>
	<path class="st10" d="M88.1,58.9c-0.2-0.7-0.6-1.4-1.1-1.9c0.5-0.2,1.1-0.4,1.5-0.8c2.2-1.7,2.6-4.9,0.8-7.1
		c-1.7-2.2-4.9-2.6-7.1-0.8c-0.5,0.4-0.8,0.8-1.1,1.3c-0.4-0.6-0.9-1.1-1.6-1.6c-2.4-1.5-5.5-0.8-7,1.6c-1.5,2.4-0.8,5.5,1.6,7
		C75,57,76,57.3,77,57.3L76.1,58l-1.3,0.2l0,0.8l-0.5,0.4c-0.4-0.2-0.8-0.2-1.1,0c-0.2,0.2-0.3,0.6-0.2,1l-33.1,26l1.4,1.8l33.1-26
		c0.4,0.2,0.8,0.2,1,0c0.3-0.2,0.3-0.6,0.2-1l0.5-0.4L77,61l0.6-1.3l0.9-0.7c-0.3,1-0.2,2,0.1,3c0.9,2.6,3.7,4.1,6.4,3.2
		C87.6,64.4,89,61.5,88.1,58.9L88.1,58.9z M84.4,63.8c-0.9,0.3-1.8,0.2-2.6-0.2c-0.8-0.4-1.5-1.1-1.7-2c-0.3-0.9-0.2-1.8,0.2-2.7
		c0.1-0.1,0.1-0.3,0.2-0.4l-0.8-1.1l1.1-0.9c0.6,0.4,1.4,0.3,1.9-0.1c0.7-0.6,0.9-1.7,0.3-2.4c-0.6-0.7-1.6-0.8-2.4-0.3
		c-0.6,0.5-0.8,1.2-0.6,1.8l-1.1,0.9l-0.8-1c-0.1,0-0.3,0.1-0.5,0.1c-0.9,0.2-1.8,0-2.6-0.5c-0.8-0.5-1.3-1.3-1.6-2.2
		c-0.2-0.9,0-1.8,0.5-2.6c0.5-0.8,1.3-1.3,2.2-1.6c0.9-0.2,1.8,0,2.6,0.4c0.8,0.5,1.3,1.3,1.6,2.2c0,0.2,0.1,0.5,0.1,0.7l1.6,0
		c0-1,0.5-2,1.3-2.7c1.5-1.2,3.7-0.9,4.9,0.6c1.2,1.5,0.9,3.7-0.6,4.9c-0.8,0.7-1.9,0.9-2.9,0.7l-0.4,1.5c0.2,0.1,0.4,0.1,0.7,0.2
		c0.8,0.4,1.5,1.1,1.7,2c0.3,0.9,0.2,1.8-0.2,2.7C86,62.8,85.3,63.5,84.4,63.8L84.4,63.8z"/>
	<polygon class="st8" points="40.7,83.7 41.7,85 44.2,83 43.2,81.7 40.7,83.7 	"/>
	<polygon class="st8" points="45.1,79.8 44.2,79.7 44.1,78.4 42.2,76 40.8,77.1 42.6,79.4 41.3,80.4 39.5,78.2 38.1,79.2 39.9,81.5 
		38.5,82.5 36.8,80.3 35.4,81.4 37.3,83.8 38.4,84.2 38.3,85.1 38.7,85.3 45.2,80.1 45.1,79.8 	"/>
</g>
</svg>
