<?xml version="1.0" encoding="utf-8"?>
<!-- Generator: Adobe Illustrator 22.0.1, SVG Export Plug-In . SVG Version: 6.00 Build 0)  -->
<svg version="1.1" id="Слой_1" xmlns="http://www.w3.org/2000/svg" xmlns:xlink="http://www.w3.org/1999/xlink" x="0px" y="0px"
	 viewBox="0 0 127.3 127" style="enable-background:new 0 0 127.3 127;" xml:space="preserve">
<style type="text/css">
	.st0{fill:url(#SVGID_1_);}
	.st1{fill:#FFFFFF;}
	.st2{fill-rule:evenodd;clip-rule:evenodd;fill:#FFFFFF;}
	.st3{clip-path:url(#SVGID_3_);fill:none;stroke:#000000;stroke-width:0.2527;stroke-miterlimit:22.93;}
	.st4{clip-path:url(#SVGID_5_);fill:none;stroke:#000000;stroke-width:0.2527;stroke-miterlimit:22.93;}
	.st5{fill-rule:evenodd;clip-rule:evenodd;fill:#0039A6;}
	.st6{clip-path:url(#SVGID_7_);fill:none;stroke:#000000;stroke-width:5.559110e-02;stroke-miterlimit:22.93;}
	.st7{clip-path:url(#SVGID_9_);fill:none;stroke:#000000;stroke-width:5.559110e-02;stroke-miterlimit:22.93;}
	.st8{fill-rule:evenodd;clip-rule:evenodd;fill:#D81200;}
	.st9{fill:none;stroke:#000000;stroke-width:5.559110e-02;stroke-miterlimit:22.93;}
	.st10{fill-rule:evenodd;clip-rule:evenodd;}
	.st11{fill:none;stroke:#000000;stroke-width:0.1263;stroke-miterlimit:22.93;}
	.st12{fill-rule:evenodd;clip-rule:evenodd;fill:#D20000;}
	.st13{fill:none;stroke:#000000;stroke-width:5.559090e-02;stroke-miterlimit:22.93;}
	.st14{fill-rule:evenodd;clip-rule:evenodd;fill:#FFD700;}
	.st15{clip-path:url(#SVGID_11_);fill:none;stroke:#000000;stroke-width:0.2527;stroke-miterlimit:22.93;}
</style>
<radialGradient id="SVGID_1_" cx="64.8" cy="-1506.7469" r="62.6" gradientTransform="matrix(1 0 0 -1 0 -1442.3469)" gradientUnits="userSpaceOnUse">
	<stop  offset="0.9487" style="stop-color:#212121"/>
	<stop  offset="1" style="stop-color:#606060;stop-opacity:0"/>
</radialGradient>
<circle class="st0" cx="64.8" cy="64.4" r="62.6"/>
<circle class="st1" cx="62.6" cy="62.6" r="62.6"/>
<g>
	<path class="st2" d="M55.8,22.4H28.4v65.9c0,3.3,1.1,9.9,8,9.6l19.5,0.2L55.8,22.4L55.8,22.4z M55.8,22.4"/>
	<g>
		<defs>
			<rect id="SVGID_2_" x="28.3" y="22.3" width="69" height="83.9"/>
		</defs>
		<clipPath id="SVGID_3_">
			<use xlink:href="#SVGID_2_"  style="overflow:visible;"/>
		</clipPath>
		<path class="st3" d="M55.8,22.4H28.4v65.9c0,3.3,1.1,9.9,8,9.6l19.5,0.2L55.8,22.4L55.8,22.4z M55.8,22.4"/>
	</g>
	<path class="st2" d="M69.4,22.4H97v65.9c0,3.3-1.1,9.8-7.9,9.5l-19.7,0.3L69.4,22.4L69.4,22.4z M69.4,22.4"/>
	<g>
		<defs>
			<rect id="SVGID_4_" x="28.3" y="22.3" width="69" height="83.9"/>
		</defs>
		<clipPath id="SVGID_5_">
			<use xlink:href="#SVGID_4_"  style="overflow:visible;"/>
		</clipPath>
		<path class="st4" d="M69.4,22.4H97v65.9c0,3.3-1.1,9.8-7.9,9.5l-19.7,0.3L69.4,22.4L69.4,22.4z M69.4,22.4"/>
	</g>
	<path class="st5" d="M54,22.4h17.2l0.1,75.7c-4.7,0-8.7,4.2-8.7,8c0-3.6-3.7-8.1-8.6-8L54,22.4L54,22.4z M54,22.4"/>
	<rect x="28.3" y="84.5" width="25.7" height="1.1"/>
	<g>
		<defs>
			<rect id="SVGID_6_" x="28.3" y="22.3" width="69" height="83.9"/>
		</defs>
		<clipPath id="SVGID_7_">
			<use xlink:href="#SVGID_6_"  style="overflow:visible;"/>
		</clipPath>
		<rect x="28.3" y="84.5" class="st6" width="25.7" height="1.1"/>
	</g>
	<rect x="71.3" y="84.5" width="25.7" height="1.1"/>
	<g>
		<defs>
			<rect id="SVGID_8_" x="28.3" y="22.3" width="69" height="83.9"/>
		</defs>
		<clipPath id="SVGID_9_">
			<use xlink:href="#SVGID_8_"  style="overflow:visible;"/>
		</clipPath>
		<rect x="71.3" y="84.5" class="st7" width="25.7" height="1.1"/>
	</g>
	<rect x="54" y="84.3" class="st1" width="17.3" height="1.6"/>
	<path class="st8" d="M38.4,82.7l-0.8-0.2l1-0.9l0.9,0.2L38.4,82.7z M38.4,82.7"/>
	<path class="st9" d="M38.4,82.7l-0.8-0.2l1-0.9l0.9,0.2L38.4,82.7z M38.4,82.7"/>
	<path class="st8" d="M37,82.3l-0.8-0.2l1-0.9l0.9,0.2L37,82.3z M37,82.3"/>
	<path class="st9" d="M37,82.3l-0.8-0.2l1-0.9l0.9,0.2L37,82.3z M37,82.3"/>
	<path class="st10" d="M32.8,44.5c0.3-0.5,1-0.9,1.5-0.5c0.6,0.6,0.6,0.7,1.1,1.5c0.2,0.3,0.6,0.7,1.1,1.2c1,1.1,2,3.3,2.3,4.8
		c0.6,2.6-0.3,5-1.3,6.9c-0.7,1.1-1.4,2.2-2,3.4c-0.4,0.9-0.9,1.7-0.8,3c0,0.8,0.3,1.4,1.2,1.3c0.4-0.1,0.7-0.4,1.1-0.9
		c0.1-0.1,0.3-0.2,0.3-0.3c-0.1,1.1,0.1,2.2-0.3,3.1c-0.5,0.6-1.2,0.9-1.9,0.9c-1.1,0.1-2.1-0.4-2.6-1.7c-1.6-4.3,0.7-11.9,0.7-15
		C33.1,48.3,31.7,46.1,32.8,44.5"/>
	<path class="st10" d="M36.9,36.4c-0.1,0.4,0,0.8,0.1,1.1c-0.1-1-0.1-1.9,0.6-2.4c0.6-0.4,1.5,0.2,1.7,1c0-0.3,0.3-1.1,0.5-1
		c0.4,0,0.2,0.8,0.5,1.1c1.2,0.4,2.2,1,3.1,1.7c0.4,0.3,0.7,0.4,0.8,0.8c0.1,1.1-0.9,1.2-2.2,0.9c-0.3,0.3,0.4,0.5,0.7,0.5
		c0.1,0.2-0.1,0.4-0.2,0.5c-0.6,0.1-1.3,0.1-2,0.1c-0.5,0-0.6,0.9,0.3,1.4c3.3,1.3,5.1,2.9,6.9,4.8L42,50.4c-0.9-2.6-2.5-5-5-7.4
		c-1-1.1-1.6-2.3-1.7-3.7C35.3,38.3,35.8,37,36.9,36.4"/>
	<path class="st2" d="M41.3,37.4c0.4,0.2,0.5,0.4,0.5,0.6c0,0.3-0.5,0.3-0.9,0.1c-0.4-0.2-0.5-0.4-0.4-0.7
		C40.6,37.2,40.9,37.2,41.3,37.4"/>
	<path class="st10" d="M41.2,37.5c0.2,0,0.3,0.3,0.2,0.4c-0.2,0.2-0.4,0.1-0.4-0.2C40.9,37.6,41.1,37.5,41.2,37.5"/>
	<path class="st2" d="M43.7,38.1c0.3,0.1,0.5,0.1,0.8,0.3c0.2,0.5-0.3,0.9-0.3,0.8c0-0.2,0-0.5-0.1-0.5c-0.1,0-0.2,0.1-0.2,0.2
		C43.7,38.8,43.7,38.6,43.7,38.1L43.7,38.1z M43.7,38.1"/>
	<path class="st11" d="M43.7,38.1c0.3,0.1,0.5,0.1,0.8,0.3c0.2,0.5-0.3,0.9-0.3,0.8c0-0.2,0-0.5-0.1-0.5c-0.1,0-0.2,0.1-0.2,0.2
		C43.7,38.8,43.7,38.6,43.7,38.1L43.7,38.1z M43.7,38.1"/>
	<path class="st12" d="M42.8,40c0.5,0,0.9,0.1,1.4-0.1c0.5-0.4,0.9-0.5,1.6,0c0.3,0.2,0.8-0.1,1.2-0.1c0,0.4-0.3,1-1.1,0.9
		c-0.5,0-0.5-0.4-1.1-0.4c-0.4,0-0.5,0.4-0.9,0.4C43.4,40.6,43.4,40.2,42.8,40"/>
	<path class="st2" d="M40.2,41.1c0.1-0.4,0.3-0.4,0.9-0.4c-0.3,0-0.4,0.4-0.2,0.6c0.6,0.7,2.3,1.6,3.6,2.7c-1.2-0.8-2.5-1.5-3.9-2.1
		C40.3,41.8,40.1,41.5,40.2,41.1L40.2,41.1z M40.2,41.1"/>
	<path class="st11" d="M40.2,41.1c0.1-0.4,0.3-0.4,0.9-0.4c-0.3,0-0.4,0.4-0.2,0.6c0.6,0.7,2.3,1.6,3.6,2.7
		c-1.2-0.8-2.5-1.5-3.9-2.1C40.3,41.8,40.1,41.5,40.2,41.1L40.2,41.1z M40.2,41.1"/>
	<path class="st2" d="M38,36c0.3-0.2,0.6,0.1,0.6,0.5c-0.4-0.1-0.6,0.1-0.6,0.8C37.7,37,37.7,36.2,38,36"/>
	<path class="st10" d="M53.5,41.4c-0.4-0.6-2.3,0.4-1.4,2.4c0,4-2.8,3.8-4.7,2.8c0.9,1.5,1.9,2.2,2.5,4c0,0.1,2.2-1.1,3.1-3.1
		C53.4,45.7,54.8,41.5,53.5,41.4"/>
	<path class="st2" d="M54.1,41.4c-0.4-0.2-0.5-0.1-0.8,0.1c-0.2,0-0.3-0.3-0.1-0.4C53.6,41,53.9,41.1,54.1,41.4L54.1,41.4z
		 M54.1,41.4"/>
	<path class="st9" d="M54.1,41.4c-0.4-0.2-0.5-0.1-0.8,0.1c-0.2,0-0.3-0.3-0.1-0.4C53.6,41,53.9,41.1,54.1,41.4L54.1,41.4z
		 M54.1,41.4"/>
	<path class="st2" d="M54.5,41.8c-0.4-0.2-0.5-0.1-0.8,0.1c-0.2,0-0.3-0.3-0.1-0.4C54,41.4,54.4,41.6,54.5,41.8L54.5,41.8z
		 M54.5,41.8"/>
	<path class="st9" d="M54.5,41.8c-0.4-0.2-0.5-0.1-0.8,0.1c-0.2,0-0.3-0.3-0.1-0.4C54,41.4,54.4,41.6,54.5,41.8L54.5,41.8z
		 M54.5,41.8"/>
	<path class="st2" d="M54.4,42.4c-0.4-0.2-0.4-0.1-0.6,0.1c-0.2,0-0.3-0.3-0.1-0.4C53.9,42,54.2,42.1,54.4,42.4L54.4,42.4z
		 M54.4,42.4"/>
	<path class="st9" d="M54.4,42.4c-0.4-0.2-0.4-0.1-0.6,0.1c-0.2,0-0.3-0.3-0.1-0.4C53.9,42,54.2,42.1,54.4,42.4L54.4,42.4z
		 M54.4,42.4"/>
	<path class="st10" d="M43.5,69.5c-0.5-3.9,0.4-5.5,1.8-7.4c-0.3,1.6-0.4,2.5,1.1,2.9c3.8,2,4.3,3.9,3,9.7c-0.4,0.9,0.5,2.4,1.6,3.3
		c1.2,0.1,2.7-0.3,3.2,1c0,1.2-0.9,2-2.6,1.9c-2.7-0.7-2.7-3.3-4.5-5.1c0.1-1.2,0.7-1.8-0.2-2.8C46.1,71.8,44.1,71.8,43.5,69.5"/>
	<path class="st10" d="M41.9,50.2l5.7-3.6c1.4,1.8,1.9,3.4,2.7,5.3c0.5,1.1,0.9,0.9,1.6-0.4c0.7-1.3,0.9-1.4,1.6-1.8H56
		c0,0.2,0,0.3,0,0.5c0,0.8,0,2-1.9,2.6c-0.7,0.1-1-0.1-1.4,0.3c-0.7,0.8-0.5,2.9-1.8,2.9c-1.2-0.1-2-1.2-3.3-2.9
		c0.3,0.7,0.4,1.3,1.1,1.8c-0.9,4-2,4.5-3.3,6.6c-1,1.7-2.3,3.1-2.3,6c-0.1,1.5,0.4,2.6,0.2,4.3c-0.1,0.9-0.3,2.6-1.7,3.6
		c-1.3,1.1-3.3,0.5-4.7,1.3c-0.5,0.4-0.8,1.8-0.6,3c0,0.3,0.3,0.6,0.6,0.7c1.4-0.2,2.5,0.1,2.7,1c0.1,0.9-2.3,1.8-3.3,1.6
		c-1-0.2-1.6-1.7-1.8-2.8c0-1.2,0-2.4,0-3.6c0.1-2.2,3-1,2.5-4.8c-0.4-1.6-0.3-2.4,0.3-3.9c0-2.1-0.2-3.9,1.1-5.8
		C40.3,58.4,42.9,54.9,41.9,50.2"/>
	<path class="st2" d="M52.1,80.5c0.1-0.2,0.3-0.2,0.5,0c0.2,0.5,0,0.8-0.2,1.2C52.3,81.1,52,80.8,52.1,80.5L52.1,80.5z M52.1,80.5"
		/>
	<path class="st9" d="M52.1,80.5c0.1-0.2,0.3-0.2,0.5,0c0.2,0.5,0,0.8-0.2,1.2C52.3,81.1,52,80.8,52.1,80.5L52.1,80.5z M52.1,80.5"
		/>
	<path class="st2" d="M52.8,80.4c0-0.3,0.4-0.3,0.5-0.1c0.2,0.5-0.1,0.8-0.3,1.1C53,80.9,52.8,80.9,52.8,80.4L52.8,80.4z M52.8,80.4
		"/>
	<path class="st9" d="M52.8,80.4c0-0.3,0.4-0.3,0.5-0.1c0.2,0.5-0.1,0.8-0.3,1.1C53,80.9,52.8,80.9,52.8,80.4L52.8,80.4z M52.8,80.4
		"/>
	<path class="st2" d="M53.4,80c0-0.2,0.4-0.3,0.5-0.1c0.1,0.5-0.2,0.7-0.3,1.1C53.7,80.4,53.4,80.5,53.4,80L53.4,80z M53.4,80"/>
	<path class="st9" d="M53.4,80c0-0.2,0.4-0.3,0.5-0.1c0.1,0.5-0.2,0.7-0.3,1.1C53.7,80.4,53.4,80.5,53.4,80L53.4,80z M53.4,80"/>
	<path class="st2" d="M53.9,79.5c0-0.2,0.2-0.4,0.4-0.1c0.2,0.4-0.2,0.7-0.3,1C54.2,79.8,53.8,79.8,53.9,79.5L53.9,79.5z M53.9,79.5
		"/>
	<path class="st9" d="M53.9,79.5c0-0.2,0.2-0.4,0.4-0.1c0.2,0.4-0.2,0.7-0.3,1C54.2,79.8,53.8,79.8,53.9,79.5L53.9,79.5z M53.9,79.5
		"/>
	<path class="st2" d="M37.6,82.7c0.1-0.1,0.3-0.2,0.5,0c0.2,0.4,0,0.6-0.2,0.9C37.8,83.2,37.5,82.9,37.6,82.7L37.6,82.7z M37.6,82.7
		"/>
	<path class="st9" d="M37.6,82.7c0.1-0.1,0.3-0.2,0.5,0c0.2,0.4,0,0.6-0.2,0.9C37.8,83.2,37.5,82.9,37.6,82.7L37.6,82.7z M37.6,82.7
		"/>
	<path class="st2" d="M38.2,82.7c0.1-0.2,0.4-0.3,0.5-0.1c0.2,0.4-0.1,0.6-0.3,0.9C38.5,83,38.3,83.1,38.2,82.7L38.2,82.7z
		 M38.2,82.7"/>
	<path class="st9" d="M38.2,82.7c0.1-0.2,0.4-0.3,0.5-0.1c0.2,0.4-0.1,0.6-0.3,0.9C38.5,83,38.3,83.1,38.2,82.7L38.2,82.7z
		 M38.2,82.7"/>
	<path class="st2" d="M38.9,82.3c0-0.1,0.4-0.3,0.5-0.1c0.1,0.4-0.2,0.6-0.3,0.9C39.2,82.6,38.9,82.7,38.9,82.3L38.9,82.3z
		 M38.9,82.3"/>
	<path class="st9" d="M38.9,82.3c0-0.1,0.4-0.3,0.5-0.1c0.1,0.4-0.2,0.6-0.3,0.9C39.2,82.6,38.9,82.7,38.9,82.3L38.9,82.3z
		 M38.9,82.3"/>
	<path class="st2" d="M39.3,81.9c0-0.2,0.3-0.2,0.4-0.1c0.2,0.4-0.2,0.5-0.3,0.8C39.6,82.1,39.3,82.1,39.3,81.9L39.3,81.9z
		 M39.3,81.9"/>
	<path class="st9" d="M39.3,81.9c0-0.2,0.3-0.2,0.4-0.1c0.2,0.4-0.2,0.5-0.3,0.8C39.6,82.1,39.3,82.1,39.3,81.9L39.3,81.9z
		 M39.3,81.9"/>
	<path class="st2" d="M56.1,49.5c0.1,0.7-0.1,0.7-0.4,1c-0.1,0.4,0.2,0.6,0.4,0.3C56.3,50.4,56.3,50,56.1,49.5L56.1,49.5z
		 M56.1,49.5"/>
	<path class="st9" d="M56.1,49.5c0.1,0.7-0.1,0.7-0.4,1c-0.1,0.4,0.2,0.6,0.4,0.3C56.3,50.4,56.3,50,56.1,49.5L56.1,49.5z
		 M56.1,49.5"/>
	<path class="st2" d="M55.8,49.7c0.1,0.6-0.1,0.7-0.4,0.9c0,0.3,0.3,0.5,0.4,0.3C56,50.5,56,50,55.8,49.7L55.8,49.7z M55.8,49.7"/>
	<path class="st9" d="M55.8,49.7c0.1,0.6-0.1,0.7-0.4,0.9c0,0.3,0.3,0.5,0.4,0.3C56,50.5,56,50,55.8,49.7L55.8,49.7z M55.8,49.7"/>
	<path class="st8" d="M86.9,82.6l0.8-0.2l-1-0.9l-0.9,0.2L86.9,82.6z M86.9,82.6"/>
	<path class="st9" d="M86.9,82.6l0.8-0.2l-1-0.9l-0.9,0.2L86.9,82.6z M86.9,82.6"/>
	<path class="st8" d="M88.2,82.3l0.8-0.2l-1-0.9l-0.9,0.2L88.2,82.3z M88.2,82.3"/>
	<path class="st9" d="M88.2,82.3l0.8-0.2l-1-0.9l-0.9,0.2L88.2,82.3z M88.2,82.3"/>
	<path class="st10" d="M92.4,44.5c-0.3-0.5-1-0.9-1.5-0.5c-0.6,0.6-0.6,0.7-1.1,1.5c-0.2,0.3-0.6,0.7-1.1,1.2c-1,1.1-2,3.3-2.3,4.8
		c-0.6,2.6,0.3,5,1.3,6.9c0.7,1.1,1.4,2.2,2,3.4c0.4,0.9,0.9,1.7,0.8,3c0,0.8-0.3,1.4-1.2,1.3c-0.4-0.1-0.7-0.4-1.1-0.9
		C88.2,65,88,64.9,88,64.8c0.1,1.1-0.1,2.2,0.3,3.1c0.5,0.6,1.2,0.9,1.9,0.9c1.1,0.1,2.1-0.4,2.6-1.7c1.6-4.3-0.7-11.9-0.7-15
		C92.1,48.3,93.5,46.1,92.4,44.5"/>
	<path class="st10" d="M88.3,36.4c0.1,0.4,0,0.8-0.1,1.1c0.1-1,0.1-1.9-0.6-2.4c-0.6-0.4-1.5,0.2-1.7,1c0-0.3-0.3-1.1-0.5-1
		c-0.4,0-0.2,0.8-0.5,1.1c-1.2,0.4-2.2,1-3.1,1.7c-0.4,0.3-0.7,0.4-0.8,0.8c-0.1,1.1,0.9,1.2,2.2,0.9c0.3,0.3-0.4,0.5-0.7,0.5
		c-0.1,0.2,0.1,0.4,0.2,0.5c0.6,0.1,1.3,0.1,2,0.1c0.5,0,0.6,0.9-0.3,1.4c-3.3,1.3-5.1,2.9-6.9,4.8l5.8,3.5c0.9-2.6,2.5-5,5-7.4
		c1-1.1,1.6-2.3,1.6-3.7C89.9,38.3,89.4,37,88.3,36.4"/>
	<path class="st2" d="M83.9,37.3c-0.4,0.2-0.5,0.4-0.5,0.6c0,0.3,0.5,0.3,0.9,0.1c0.4-0.2,0.5-0.4,0.4-0.7
		C84.7,37.2,84.3,37.2,83.9,37.3"/>
	<path d="M84,37.4c0.2,0,0.3,0.1,0.3,0.3c0,0.1-0.1,0.3-0.3,0.3c-0.2,0-0.3-0.1-0.3-0.3C83.7,37.6,83.9,37.4,84,37.4L84,37.4z
		 M84,37.4"/>
	<path class="st13" d="M84,37.4c0.2,0,0.3,0.1,0.3,0.3c0,0.1-0.1,0.3-0.3,0.3c-0.2,0-0.3-0.1-0.3-0.3C83.7,37.6,83.9,37.4,84,37.4
		L84,37.4z M84,37.4"/>
	<path class="st2" d="M81.5,38.1c-0.3,0.1-0.5,0.1-0.8,0.3c-0.2,0.5,0.3,0.9,0.3,0.8c0-0.2,0-0.5,0.1-0.5c0.1,0,0.2,0.1,0.2,0.2
		C81.5,38.8,81.6,38.6,81.5,38.1L81.5,38.1z M81.5,38.1"/>
	<path class="st11" d="M81.5,38.1c-0.3,0.1-0.5,0.1-0.8,0.3c-0.2,0.5,0.3,0.9,0.3,0.8c0-0.2,0-0.5,0.1-0.5c0.1,0,0.2,0.1,0.2,0.2
		C81.5,38.8,81.6,38.6,81.5,38.1L81.5,38.1z M81.5,38.1"/>
	<path class="st12" d="M82.4,39.9c-0.5,0-0.9,0.1-1.4-0.1c-0.5-0.4-0.9-0.5-1.6,0c-0.3,0.2-0.8-0.1-1.2-0.1c0,0.4,0.3,1,1.1,0.9
		c0.5,0,0.5-0.4,1.1-0.4c0.4,0,0.5,0.4,0.9,0.4C81.8,40.6,81.8,40.2,82.4,39.9"/>
	<path class="st2" d="M85,41c-0.1-0.4-0.3-0.4-0.9-0.4c0.3,0,0.4,0.4,0.2,0.6c-0.6,0.7-2.1,1.6-3.5,2.6c1.1-0.8,2.4-1.5,3.7-2
		C84.9,41.7,85.1,41.5,85,41L85,41z M85,41"/>
	<path class="st11" d="M85,41c-0.1-0.4-0.3-0.4-0.9-0.4c0.3,0,0.4,0.4,0.2,0.6c-0.6,0.7-2.1,1.6-3.5,2.6c1.1-0.8,2.4-1.5,3.7-2
		C84.9,41.7,85.1,41.5,85,41L85,41z M85,41"/>
	<path class="st2" d="M87.2,35.9c-0.3-0.2-0.6,0.1-0.6,0.5c0.4-0.1,0.6,0.1,0.6,0.8C87.5,37,87.6,36.2,87.2,35.9"/>
	<path class="st10" d="M71.7,41.1c0.4-0.6,2.3,0.4,1.5,2.4c0.1,4,3,3.8,4.8,2.8c-1,1.3-2,2-2.5,3.7c0,0.1-2.2-0.8-3.1-2.8
		C71.9,45.5,70.4,41.3,71.7,41.1"/>
	<path class="st2" d="M71.1,41.1c0.4-0.2,0.5-0.1,0.8,0.1c0.2,0,0.3-0.3,0.1-0.4C71.6,40.7,71.3,40.8,71.1,41.1L71.1,41.1z
		 M71.1,41.1"/>
	<path class="st9" d="M71.1,41.1c0.4-0.2,0.5-0.1,0.8,0.1c0.2,0,0.3-0.3,0.1-0.4C71.6,40.7,71.3,40.8,71.1,41.1L71.1,41.1z
		 M71.1,41.1"/>
	<path class="st2" d="M70.7,41.6c0.4-0.2,0.5-0.1,0.8,0.1c0.2,0,0.3-0.3,0.1-0.4C71.2,41.2,70.8,41.3,70.7,41.6L70.7,41.6z
		 M70.7,41.6"/>
	<path class="st9" d="M70.7,41.6c0.4-0.2,0.5-0.1,0.8,0.1c0.2,0,0.3-0.3,0.1-0.4C71.2,41.2,70.8,41.3,70.7,41.6L70.7,41.6z
		 M70.7,41.6"/>
	<path class="st2" d="M70.8,42.1c0.4-0.2,0.4-0.1,0.6,0.1c0.2,0,0.3-0.3,0.1-0.4C71.3,41.7,71,41.9,70.8,42.1L70.8,42.1z M70.8,42.1
		"/>
	<path class="st9" d="M70.8,42.1c0.4-0.2,0.4-0.1,0.6,0.1c0.2,0,0.3-0.3,0.1-0.4C71.3,41.7,71,41.9,70.8,42.1L70.8,42.1z M70.8,42.1
		"/>
	<path class="st10" d="M81.7,69.5c0.5-3.9-0.4-5.5-1.8-7.4c0.3,1.6,0.4,2.5-1.1,2.9c-3.8,2-4.3,3.9-3,9.7c0.4,0.9-0.5,2.4-1.6,3.3
		c-1.2,0.1-2.7-0.3-3.2,1c0,1.2,0.9,2,2.6,1.9c2.7-0.7,2.7-3.3,4.5-5.1c-0.1-1.2-0.7-1.8,0.2-2.8C79.2,71.8,81.2,71.8,81.7,69.5"/>
	<path class="st10" d="M83.3,50.2l-5.7-3.6c-1.4,1.8-1.9,3.4-2.7,5.3c-0.5,1.1-0.9,0.9-1.6-0.4c-0.7-1.3-0.9-1.4-1.6-1.8h-2.6
		c0,0.2,0,0.3,0,0.5c0,0.8,0,2,1.9,2.6c0.7,0.1,1-0.1,1.4,0.3c0.7,0.8,0.5,2.9,1.8,2.9c1.2-0.1,2-1.2,3.3-2.9
		c-0.3,0.7-0.4,1.3-1.1,1.8c0.9,4,2,4.5,3.3,6.6c1,1.7,2.3,3.1,2.3,6c0.1,1.5-0.4,2.6-0.2,4.3c0.1,0.9,0.3,2.6,1.7,3.6
		c1.3,1.1,3.3,0.5,4.7,1.3c0.5,0.4,0.8,1.8,0.6,3c0,0.3-0.3,0.6-0.6,0.7c-1.4-0.2-2.5,0.1-2.7,1c-0.1,0.9,2.3,1.8,3.3,1.6
		c1-0.2,1.6-1.7,1.8-2.8c0-1.2,0-2.4,0-3.6c-0.1-2.2-3-1-2.5-4.8c0.4-1.6,0.3-2.4-0.3-3.9c0-2.1,0.2-3.9-1.1-5.8
		C84.9,58.4,82.3,54.8,83.3,50.2"/>
	<path class="st2" d="M73.1,80.5c-0.1-0.2-0.3-0.2-0.5,0c-0.2,0.5,0,0.8,0.2,1.2C72.9,81.1,73.2,80.7,73.1,80.5L73.1,80.5z
		 M73.1,80.5"/>
	<path class="st9" d="M73.1,80.5c-0.1-0.2-0.3-0.2-0.5,0c-0.2,0.5,0,0.8,0.2,1.2C72.9,81.1,73.2,80.7,73.1,80.5L73.1,80.5z
		 M73.1,80.5"/>
	<path class="st2" d="M72.5,80.4c0-0.3-0.4-0.3-0.5-0.1c-0.2,0.5,0.1,0.8,0.3,1.1C72.2,80.8,72.4,80.9,72.5,80.4L72.5,80.4z
		 M72.5,80.4"/>
	<path class="st9" d="M72.5,80.4c0-0.3-0.4-0.3-0.5-0.1c-0.2,0.5,0.1,0.8,0.3,1.1C72.2,80.8,72.4,80.9,72.5,80.4L72.5,80.4z
		 M72.5,80.4"/>
	<path class="st2" d="M71.8,80c0-0.2-0.4-0.3-0.5-0.1c-0.1,0.5,0.2,0.7,0.3,1.1C71.5,80.4,71.8,80.4,71.8,80L71.8,80z M71.8,80"/>
	<path class="st9" d="M71.8,80c0-0.2-0.4-0.3-0.5-0.1c-0.1,0.5,0.2,0.7,0.3,1.1C71.5,80.4,71.8,80.4,71.8,80L71.8,80z M71.8,80"/>
	<path class="st2" d="M71.4,79.5c0-0.2-0.2-0.4-0.4-0.1c-0.2,0.4,0.2,0.7,0.3,1C71.1,79.7,71.4,79.8,71.4,79.5L71.4,79.5z
		 M71.4,79.5"/>
	<path class="st9" d="M71.4,79.5c0-0.2-0.2-0.4-0.4-0.1c-0.2,0.4,0.2,0.7,0.3,1C71.1,79.7,71.4,79.8,71.4,79.5L71.4,79.5z
		 M71.4,79.5"/>
	<path class="st2" d="M87.7,82.7c-0.1-0.1-0.3-0.2-0.5,0c-0.2,0.4,0,0.6,0.2,0.9C87.4,83.2,87.7,82.9,87.7,82.7L87.7,82.7z
		 M87.7,82.7"/>
	<path class="st9" d="M87.7,82.7c-0.1-0.1-0.3-0.2-0.5,0c-0.2,0.4,0,0.6,0.2,0.9C87.4,83.2,87.7,82.9,87.7,82.7L87.7,82.7z
		 M87.7,82.7"/>
	<path class="st2" d="M87,82.6c-0.1-0.2-0.4-0.3-0.5-0.1c-0.2,0.4,0.1,0.6,0.3,0.9C86.7,82.9,86.9,83,87,82.6L87,82.6z M87,82.6"/>
	<path class="st9" d="M87,82.6c-0.1-0.2-0.4-0.3-0.5-0.1c-0.2,0.4,0.1,0.6,0.3,0.9C86.7,82.9,86.9,83,87,82.6L87,82.6z M87,82.6"/>
	<path class="st2" d="M86.4,82.3c0-0.1-0.4-0.3-0.5-0.1c-0.1,0.4,0.2,0.6,0.3,0.9C86.1,82.6,86.4,82.6,86.4,82.3L86.4,82.3z
		 M86.4,82.3"/>
	<path class="st9" d="M86.4,82.3c0-0.1-0.4-0.3-0.5-0.1c-0.1,0.4,0.2,0.6,0.3,0.9C86.1,82.6,86.4,82.6,86.4,82.3L86.4,82.3z
		 M86.4,82.3"/>
	<path class="st2" d="M85.9,81.9c0-0.2-0.3-0.2-0.4-0.1c-0.2,0.4,0.2,0.5,0.3,0.8C85.6,82.1,86,82.1,85.9,81.9L85.9,81.9z
		 M85.9,81.9"/>
	<path class="st9" d="M85.9,81.9c0-0.2-0.3-0.2-0.4-0.1c-0.2,0.4,0.2,0.5,0.3,0.8C85.6,82.1,86,82.1,85.9,81.9L85.9,81.9z
		 M85.9,81.9"/>
	<path class="st2" d="M69.1,49.5c-0.1,0.7,0.1,0.7,0.4,1c0.1,0.4-0.2,0.6-0.4,0.3C68.9,50.4,68.9,49.9,69.1,49.5L69.1,49.5z
		 M69.1,49.5"/>
	<path class="st9" d="M69.1,49.5c-0.1,0.7,0.1,0.7,0.4,1c0.1,0.4-0.2,0.6-0.4,0.3C68.9,50.4,68.9,49.9,69.1,49.5L69.1,49.5z
		 M69.1,49.5"/>
	<path class="st2" d="M69.5,49.7c-0.1,0.6,0.1,0.7,0.4,0.9c0,0.3-0.3,0.5-0.4,0.3C69.2,50.5,69.2,50,69.5,49.7L69.5,49.7z
		 M69.5,49.7"/>
	<path class="st9" d="M69.5,49.7c-0.1,0.6,0.1,0.7,0.4,0.9c0,0.3-0.3,0.5-0.4,0.3C69.2,50.5,69.2,50,69.5,49.7L69.5,49.7z
		 M69.5,49.7"/>
	<path class="st14" d="M52.7,50h20v-1.5c0,0,0,0,0,0c-1.4-3.6-3.9-5.5-6.6-6.4c0,0-0.3-0.1-0.4-0.1c0,0,0,0,0,0v-1h-6.1V42
		c0,0,0,0,0,0c0,0-0.2,0.1-0.2,0.1c-2.6,0.8-5.3,2.7-6.8,6.4V50"/>
	<g>
		<defs>
			<rect id="SVGID_10_" x="28.3" y="22.3" width="69" height="83.9"/>
		</defs>
		<clipPath id="SVGID_11_">
			<use xlink:href="#SVGID_10_"  style="overflow:visible;"/>
		</clipPath>
		<path class="st15" d="M54,98.1c5.5,0,8.6,5.2,8.6,8.1c0-4.5,4.5-8.1,8.7-8.1 M54,22.4h17.1"/>
	</g>
</g>
</svg>
