<?xml version="1.0" encoding="utf-8"?>
<!-- Generator: Adobe Illustrator 22.0.1, SVG Export Plug-In . SVG Version: 6.00 Build 0)  -->
<svg version="1.1" id="Слой_1" xmlns="http://www.w3.org/2000/svg" xmlns:xlink="http://www.w3.org/1999/xlink" x="0px" y="0px"
	 viewBox="0 0 127.3 127" style="enable-background:new 0 0 127.3 127;" xml:space="preserve">
<style type="text/css">
	.st0{fill:url(#SVGID_1_);}
	.st1{fill:#FFFFFF;}
	.st2{fill-rule:evenodd;clip-rule:evenodd;fill:#A92926;}
	.st3{fill:none;stroke:#70614E;stroke-width:0.214;stroke-linecap:round;stroke-linejoin:round;}
	.st4{fill-rule:evenodd;clip-rule:evenodd;fill:#F8C300;}
	.st5{fill:none;stroke:#70614E;stroke-width:0.2568;stroke-linecap:round;stroke-linejoin:round;}
	.st6{fill-rule:evenodd;clip-rule:evenodd;fill:#007CC3;}
	.st7{fill:none;stroke:#007CC3;stroke-width:0.2568;stroke-linecap:round;stroke-linejoin:round;}
	.st8{fill:none;stroke:#0F488E;stroke-width:0.2568;stroke-linecap:round;stroke-linejoin:round;}
	.st9{clip-path:url(#SVGID_3_);fill:none;stroke:#70614E;stroke-width:0.2568;stroke-linecap:round;stroke-linejoin:round;}
	.st10{clip-path:url(#SVGID_3_);fill-rule:evenodd;clip-rule:evenodd;fill:#F8C300;}
	.st11{clip-path:url(#SVGID_5_);fill-rule:evenodd;clip-rule:evenodd;fill:#F8C300;}
	.st12{clip-path:url(#SVGID_5_);fill:none;stroke:#70614E;stroke-width:0.2568;stroke-linecap:round;stroke-linejoin:round;}
	.st13{clip-path:url(#SVGID_7_);fill-rule:evenodd;clip-rule:evenodd;fill:#F8C300;}
	.st14{clip-path:url(#SVGID_7_);fill:none;stroke:#70614E;stroke-width:0.2568;stroke-linecap:round;stroke-linejoin:round;}
	.st15{clip-path:url(#SVGID_9_);fill-rule:evenodd;clip-rule:evenodd;fill:#F8C300;}
	.st16{clip-path:url(#SVGID_9_);fill:none;stroke:#70614E;stroke-width:0.2568;stroke-linecap:round;stroke-linejoin:round;}
	.st17{fill:none;stroke:#70614E;stroke-width:0.1752;stroke-linecap:round;stroke-linejoin:round;}
	.st18{fill-rule:evenodd;clip-rule:evenodd;fill:#DEDEDD;}
	.st19{fill:none;stroke:#707477;stroke-width:0.3423;stroke-linecap:round;stroke-linejoin:round;}
	.st20{fill-rule:evenodd;clip-rule:evenodd;fill:#0A0B0C;}
	.st21{fill-rule:evenodd;clip-rule:evenodd;fill:#D52E26;}
	.st22{fill:none;stroke:#A92926;stroke-width:0.2568;stroke-linecap:round;stroke-linejoin:round;}
	.st23{fill-rule:evenodd;clip-rule:evenodd;fill:#1F1A17;}
	.st24{fill:none;stroke:#1F1A17;stroke-width:0.2568;stroke-linecap:round;stroke-linejoin:round;}
	.st25{fill:none;stroke:#0A0B0C;stroke-width:0.2568;stroke-linecap:round;stroke-linejoin:round;}
	.st26{fill-rule:evenodd;clip-rule:evenodd;fill:#DA2724;}
	.st27{fill:none;stroke:#A92926;stroke-width:0.214;stroke-linecap:round;stroke-linejoin:round;}
	.st28{fill-rule:evenodd;clip-rule:evenodd;fill:#FFFFFF;}
	.st29{fill-rule:evenodd;clip-rule:evenodd;fill:#96AEBE;}
	.st30{clip-path:url(#SVGID_11_);fill-rule:evenodd;clip-rule:evenodd;fill:#F8C300;}
	.st31{clip-path:url(#SVGID_11_);fill:none;stroke:#70614E;stroke-width:0.214;stroke-linejoin:bevel;}
	.st32{fill-rule:evenodd;clip-rule:evenodd;fill:#EFF0F2;}
	.st33{fill:none;stroke:#C2C1C1;stroke-width:0.214;stroke-linecap:round;stroke-linejoin:round;}
	.st34{fill:none;stroke:#C2C1C1;stroke-width:0.251;stroke-linecap:round;stroke-linejoin:round;}
</style>
<radialGradient id="SVGID_1_" cx="64.8" cy="1634.7469" r="62.6" gradientTransform="matrix(1 0 0 1 0 -1570.3469)" gradientUnits="userSpaceOnUse">
	<stop  offset="0.9487" style="stop-color:#212121"/>
	<stop  offset="1" style="stop-color:#606060;stop-opacity:0"/>
</radialGradient>
<circle class="st0" cx="64.8" cy="64.4" r="62.6"/>
<circle class="st1" cx="62.6" cy="62.6" r="62.6"/>
<g>
	<path class="st2" d="M63.3,38.7c5.9,0,10.7,0.8,10.7,1.9c0,1-4.8,1.9-10.7,1.9s-10.7-0.8-10.7-1.9C52.6,39.5,57.4,38.7,63.3,38.7
		L63.3,38.7z M63.3,38.7"/>
	<path class="st3" d="M63.3,38.7c5.9,0,10.7,0.8,10.7,1.9c0,1-4.8,1.9-10.7,1.9s-10.7-0.8-10.7-1.9C52.6,39.5,57.4,38.7,63.3,38.7
		L63.3,38.7z M63.3,38.7"/>
	<path class="st4" d="M42.4,80.5c2.2,0.1,0.4-2.8,2.2-4.8c-1.7-0.6-1.6,1-3.1,1.2L42.4,80.5z M42.4,80.5"/>
	<path class="st5" d="M42.4,80.5c2.2,0.1,0.4-2.8,2.2-4.8c-1.7-0.6-1.6,1-3.1,1.2L42.4,80.5z M42.4,80.5"/>
	<path class="st6" d="M88.9,50.7c0.7-1.1,2.2-1.5,1-2.9c0.4,0.5,0.3,1.2-0.4,1.6L88.9,50.7z M88.9,50.7"/>
	<path class="st7" d="M88.9,50.7c0.7-1.1,2.2-1.5,1-2.9c0.4,0.5,0.3,1.2-0.4,1.6L88.9,50.7z M88.9,50.7"/>
	<path class="st6" d="M84.4,56.2l4,0c-0.1-0.4-0.2-0.8-0.2-1.4c0-0.5,0-1-0.1-1.3h0c-0.2-1.1-0.6-1.5-1-1.8c0.6-1-0.1-1.8,0.7-1.8
		c1.9,0,2.8-1.3,2-2.1c-0.4-0.4-1.1-0.6-2.2-0.5c0,0,0,0-0.1,0l0,0c-2,0.3-2.4,2.2-3.2,2.9c-0.8,0.8-3.4,2-0.2,5.9
		C84.3,56.1,84.3,56.1,84.4,56.2L84.4,56.2z M84.4,56.2"/>
	<path class="st7" d="M84.4,56.2l4,0c-0.1-0.4-0.2-0.8-0.2-1.4c0-0.5,0-1-0.1-1.3h0c-0.2-1.1-0.6-1.5-1-1.8c0.6-1-0.1-1.8,0.7-1.8
		c1.9,0,2.8-1.3,2-2.1c-0.4-0.4-1.1-0.6-2.2-0.5c0,0,0,0-0.1,0l0,0c-2,0.3-2.4,2.2-3.2,2.9c-0.8,0.8-3.4,2-0.2,5.9
		C84.3,56.1,84.3,56.1,84.4,56.2L84.4,56.2z M84.4,56.2"/>
	<path class="st6" d="M88.2,75.8c0.3-0.7,0.4-1.6,0.4-2.5c0.1-2.4-0.4-2.2-0.5-3.2c-0.1-0.8,1.3-1,2.2-2.4c0,0,0-0.1,0.1-0.1l0,0
		c0,0,0-0.1,0.1-0.1c1-1.7-0.4-3.8-2.4-5.4C88,63,86.9,66,85.3,67.3c-0.9,0.7-0.7,3-0.3,4.5c0.3,1,0.2,1.3,0.1,2.2
		c0,0.7-0.2,1.2-0.3,1.7L88.2,75.8z M88.2,75.8"/>
	<path class="st7" d="M88.2,75.8c0.3-0.7,0.4-1.6,0.4-2.5c0.1-2.4-0.4-2.2-0.5-3.2c-0.1-0.8,1.3-1,2.2-2.4c0,0,0-0.1,0.1-0.1l0,0
		c0,0,0-0.1,0.1-0.1c1-1.7-0.4-3.8-2.4-5.4C88,63,86.9,66,85.3,67.3c-0.9,0.7-0.7,3-0.3,4.5c0.3,1,0.2,1.3,0.1,2.2
		c0,0.7-0.2,1.2-0.3,1.7L88.2,75.8z M88.2,75.8"/>
	<path class="st8" d="M88.1,62.2C88,63,86.9,66,85.3,67.3c-0.9,0.7-0.7,3-0.3,4.5c0.3,1,0.2,1.3,0.1,2.2c0,0.5,0.1,0.9,0.2,1.3"/>
	<path class="st4" d="M67.4,90l3.3,4.1l1.4-5.1c0.2-1.8-0.5-1.9-1.4-1.1c-0.5,0.4-0.8-1.1-1.5-0.7c-0.5,0.2,0,1.4-0.4,1.7
		C68.3,89.4,66.9,88.2,67.4,90L67.4,90z M67.4,90"/>
	<g>
		<defs>
			<rect id="SVGID_2_" x="20.7" y="16.3" width="85.1" height="87.9"/>
		</defs>
		<clipPath id="SVGID_3_">
			<use xlink:href="#SVGID_2_"  style="overflow:visible;"/>
		</clipPath>
		<path class="st9" d="M67.4,90l3.3,4.1l1.4-5.1c0.2-1.8-0.5-1.9-1.4-1.1c-0.5,0.4-0.8-1.1-1.5-0.7c-0.5,0.2,0,1.4-0.4,1.7
			C68.3,89.4,66.9,88.2,67.4,90L67.4,90z M67.4,90 M70.5,88.8c-0.7,0.5-1.3,1.4-1.8,2.5"/>
		<path class="st10" d="M73.7,97.1l4.3,0.6l-0.3,4.4c-0.1,1.5-1,2.3-1.7,1.5c-0.7-0.8-0.2-1.7-1.3-1.6c-1.6,0.2-0.1-1.7-1-1.7
			c-0.9,0-1-0.3-0.8-1.4C73.2,98.1,73.6,97.3,73.7,97.1L73.7,97.1z M73.7,97.1"/>
		<path class="st9" d="M73.7,97.1l4.3,0.6l-0.3,4.4c-0.1,1.5-1,2.3-1.7,1.5c-0.7-0.8-0.2-1.7-1.3-1.6c-1.6,0.2-0.1-1.7-1-1.7
			c-0.9,0-1-0.3-0.8-1.4C73.2,98.1,73.6,97.3,73.7,97.1L73.7,97.1z M73.7,97.1"/>
	</g>
	<path class="st4" d="M73.7,97.1l0.8-2c1,0.2,2.1,0.2,2.9,0.5c1.6,0.6,0.8,1.2,1.4,1.4c1.3,0.5,2,0.7,1.8,1.7c-0.2,1.3,0.4,2,0,2.5
		c-0.4,0.5-0.9,0.1-1.6,0c-0.4,0-1.2,0.5-1.6,0.3c-0.5-0.2-0.2-1.2-0.4-1.4c-0.4-0.3-0.9,0.3-1.2,0.1c-0.4-0.3,0-1.3-0.3-1.9
		C74.9,97.7,74,99.1,73.7,97.1L73.7,97.1z M73.7,97.1"/>
	<path class="st5" d="M73.7,97.1l0.8-2c1,0.2,2.1,0.2,2.9,0.5c1.6,0.6,0.8,1.2,1.4,1.4c1.3,0.5,2,0.7,1.8,1.7c-0.2,1.3,0.4,2,0,2.5
		c-0.4,0.5-0.9,0.1-1.6,0c-0.4,0-1.2,0.5-1.6,0.3c-0.5-0.2-0.2-1.2-0.4-1.4c-0.4-0.3-0.9,0.3-1.2,0.1c-0.4-0.3,0-1.3-0.3-1.9
		C74.9,97.7,74,99.1,73.7,97.1L73.7,97.1z M73.7,97.1 M74.2,95.8c2.5,0.6,3.9,1.9,4.7,3.6 M75.9,97.8l0.1-1.3l1,0 M77.1,99.1
		l0.1-1.9l0.8,0.2"/>
	<path class="st4" d="M92,73.3l0.4-0.8C91.7,72.2,91.2,72.7,92,73.3L92,73.3z M92,73.3"/>
	<path class="st5" d="M92,73.3l0.4-0.8C91.7,72.2,91.2,72.7,92,73.3L92,73.3z M92,73.3"/>
	<path class="st4" d="M92.3,72.5L92,73.3C93,73.7,93.3,72.9,92.3,72.5L92.3,72.5z M92.3,72.5"/>
	<path class="st5" d="M92.3,72.5L92,73.3C93,73.7,93.3,72.9,92.3,72.5L92.3,72.5z M92.3,72.5"/>
	<path class="st4" d="M90.5,58.5l0-1.8C89.2,56.7,88.7,58.1,90.5,58.5L90.5,58.5z M90.5,58.5"/>
	<path class="st5" d="M90.5,58.5l0-1.8C89.2,56.7,88.7,58.1,90.5,58.5L90.5,58.5z M90.5,58.5"/>
	<path class="st4" d="M90.5,56.7l0,1.7C92.4,58.7,92.7,56.7,90.5,56.7L90.5,56.7z M90.5,56.7"/>
	<path class="st5" d="M90.5,56.7l0,1.7C92.4,58.7,92.7,56.7,90.5,56.7L90.5,56.7z M90.5,56.7"/>
	<path class="st4" d="M90.8,42.1l0.8-1C90.8,40.5,89.9,41.1,90.8,42.1L90.8,42.1z M90.8,42.1"/>
	<path class="st5" d="M90.8,42.1l0.8-1C90.8,40.5,89.9,41.1,90.8,42.1L90.8,42.1z M90.8,42.1"/>
	<path class="st4" d="M91.6,41.2L90.8,42C91.9,43,92.6,42.1,91.6,41.2L91.6,41.2z M91.6,41.2"/>
	<path class="st5" d="M91.6,41.2L90.8,42C91.9,43,92.6,42.1,91.6,41.2L91.6,41.2z M91.6,41.2"/>
	<path class="st4" d="M95.3,89.7l7.9,2.2c0.4,0.3,0.2,1.3,0.5,1.6c0.8,0.8,1,1.6,0.7,2c-0.2,0.3-1.2,0.1-2-0.1c-0.9-0.3-1.7,0.1-2,0
		c-0.7-0.2-0.7-0.9-1.6-1.6c-0.5-0.4-1,0-1.4-0.7C96.7,92,96.8,91.3,95.3,89.7L95.3,89.7z M95.3,89.7"/>
	<path class="st5" d="M95.3,89.7l7.9,2.2c0.4,0.3,0.2,1.3,0.5,1.6c0.8,0.8,1,1.6,0.7,2c-0.2,0.3-1.2,0.1-2-0.1c-0.9-0.3-1.7,0.1-2,0
		c-0.7-0.2-0.7-0.9-1.6-1.6c-0.5-0.4-1,0-1.4-0.7C96.7,92,96.8,91.3,95.3,89.7L95.3,89.7z M95.3,89.7 M102.2,94.3
		c-1.7-1.4-4.2-3-6.8-4.5 M102,93l-1.5,0l0.2,1.2 M98.8,92.8l0-1l1,0.1"/>
	<g>
		<defs>
			<rect id="SVGID_4_" x="20.7" y="16.3" width="85.1" height="87.9"/>
		</defs>
		<clipPath id="SVGID_5_">
			<use xlink:href="#SVGID_4_"  style="overflow:visible;"/>
		</clipPath>
		<path class="st11" d="M95.3,89.7l0.2-0.5c1.7-0.1,2.1-0.7,2.9-1.2c1.2-0.8,0.8,0.9,1.2,0.9c0.6,0,1.1-0.9,1.5-1.1
			c1.1-0.5,0.8,1,1.3,1c0.5,0,0.9-0.6,1.6-0.6c0.5,0,0.3,0.6,0.6,0.9c0.3,0.2,1.1,0.1,1.1,0.6c-0.1,0.7-1.2,0.7-1.3,1.1
			c-0.2,0.7-0.1,1.5-1.1,0.9c-1.5-0.9-1.2,1.5-2.6,0c-1.2-1.2-1.9,0.5-2.6,0C97,90.7,97.2,90.7,95.3,89.7L95.3,89.7z M95.3,89.7"/>
		<path class="st12" d="M95.3,89.7l0.2-0.5c1.7-0.1,2.1-0.7,2.9-1.2c1.2-0.8,0.8,0.9,1.2,0.9c0.6,0,1.1-0.9,1.5-1.1
			c1.1-0.5,0.8,1,1.3,1c0.5,0,0.9-0.6,1.6-0.6c0.5,0,0.3,0.6,0.6,0.9c0.3,0.2,1.1,0.1,1.1,0.6c-0.1,0.7-1.2,0.7-1.3,1.1
			c-0.2,0.7-0.1,1.5-1.1,0.9c-1.5-0.9-1.2,1.5-2.6,0c-1.2-1.2-1.9,0.5-2.6,0C97,90.7,97.2,90.7,95.3,89.7L95.3,89.7z M95.3,89.7
			 M95.4,89.5c1.5,0.5,4.8,0.6,7.5,0.5 M101.9,89.2l-1.2,0.8l0.9,0.8 M98.5,89.1L98,89.9l0.5,0.7"/>
	</g>
	<path class="st4" d="M91.3,85.6l0.6,4.1c1.3,0,1.2-2.1,2.3-3.1c0.5-0.4,0.6-1.1,0.2-1.3c-0.7-0.4-1.3,0.8-2.1-0.1
		C92.1,84.8,91.6,84.8,91.3,85.6L91.3,85.6z M91.3,85.6"/>
	<path class="st5" d="M91.3,85.6l0.6,4.1c1.3,0,1.2-2.1,2.3-3.1c0.5-0.4,0.6-1.1,0.2-1.3c-0.7-0.4-1.3,0.8-2.1-0.1
		C92.1,84.8,91.6,84.8,91.3,85.6L91.3,85.6z M91.3,85.6"/>
	<path class="st4" d="M89.7,80.1l0.4-0.6c1.4-0.2,4.8-1,5.7-0.7c1.2,0.3,0,0.9,2.2,2.5c0.8,0.6,0.7,2.4,0.4,3.2
		c-0.3,0.9-1.1,0.9-1.3,0.4c-0.6-1.5-1.3,0.8-1.6-1.2c-0.2-1.6-1.3,0.5-1.8-0.9c-0.7-2.4-1.2,0.1-1.8-1.1
		C91.2,80.3,91,80.1,89.7,80.1L89.7,80.1z M89.7,80.1"/>
	<path class="st5" d="M89.7,80.1l0.4-0.6c1.4-0.2,4.8-1,5.7-0.7c1.2,0.3,0,0.9,2.2,2.5c0.8,0.6,0.7,2.4,0.4,3.2
		c-0.3,0.9-1.1,0.9-1.3,0.4c-0.6-1.5-1.3,0.8-1.6-1.2c-0.2-1.6-1.3,0.5-1.8-0.9c-0.7-2.4-1.2,0.1-1.8-1.1
		C91.2,80.3,91,80.1,89.7,80.1L89.7,80.1z M89.7,80.1 M90.1,79.5c2.8-0.5,5,0.9,6.3,2.8 M94.3,81.3l-0.6-1.4l0.8,0 M92.6,80.6
		l-0.3-1.1l0.5-0.2 M96.1,81.3l-0.9-0.4l0.4,1.3"/>
	<path class="st4" d="M95.3,75.4c1-2.5,0.1-3.1-0.5-2c-0.3,0.6-1.2-0.2-1.4,0.9c-0.2,1.5-1,0.1-0.9,2.1L95.3,75.4z M95.3,75.4"/>
	<path class="st5" d="M95.3,75.4c1-2.5,0.1-3.1-0.5-2c-0.3,0.6-1.2-0.2-1.4,0.9c-0.2,1.5-1,0.1-0.9,2.1L95.3,75.4z M95.3,75.4"/>
	<path class="st4" d="M90.5,78.8l-0.4,0.7c0.6-0.3,1.2-0.8,1.8-0.8c1.7,0.2,0.9-1.2,2.6-0.5c1.5,0.6,1-1.7,2.7,0
		c0.9,0.9,1.2-0.4,1.3-1.2c0.1-0.5,1.1-0.8,1.1-1.5c-0.1-1-1.7,0.1-1.8-0.9c-0.1-0.7-0.9-0.8-1.2-0.2c-1.4,2.3-1.2-1.5-2.5,0.4
		c-0.9,1.3-2.1-0.5-2,1.7C92.1,77.7,92.2,77.5,90.5,78.8L90.5,78.8z M90.5,78.8"/>
	<path class="st5" d="M90.5,78.8l-0.4,0.7c0.6-0.3,1.2-0.8,1.8-0.8c1.7,0.2,0.9-1.2,2.6-0.5c1.5,0.6,1-1.7,2.7,0
		c0.9,0.9,1.2-0.4,1.3-1.2c0.1-0.5,1.1-0.8,1.1-1.5c-0.1-1-1.7,0.1-1.8-0.9c-0.1-0.7-0.9-0.8-1.2-0.2c-1.4,2.3-1.2-1.5-2.5,0.4
		c-0.9,1.3-2.1-0.5-2,1.7C92.1,77.7,92.2,77.5,90.5,78.8L90.5,78.8z M90.5,78.8 M90.4,79c3.1-1.3,3.5-3.1,6.7-2.7 M94.7,77.7l-1-0.6
		l0.9-1 M96.2,76.7l-0.4-0.4l0.3-0.1"/>
	<path class="st4" d="M94.1,64.8l0.8-1C94.1,63.3,93.3,63.8,94.1,64.8L94.1,64.8z M94.1,64.8"/>
	<path class="st5" d="M94.1,64.8l0.8-1C94.1,63.3,93.3,63.8,94.1,64.8L94.1,64.8z M94.1,64.8"/>
	<path class="st4" d="M93.1,64.6l0.3,0.2c6.6-9.9,3.7-9.5,3.4-8.8c-0.7,1.5-1.1,0.1-1.6,1.2c-0.5,1.2-0.9,0.1-1,1.2
		c-0.2,2-1.3,0.3-1.1,1.8C93.4,62.6,93.2,63.5,93.1,64.6L93.1,64.6z M93.1,64.6"/>
	<path class="st5" d="M93.1,64.6l0.3,0.2c6.6-9.9,3.7-9.5,3.4-8.8c-0.7,1.5-1.1,0.1-1.6,1.2c-0.5,1.2-0.9,0.1-1,1.2
		c-0.2,2-1.3,0.3-1.1,1.8C93.4,62.6,93.2,63.5,93.1,64.6L93.1,64.6z M93.1,64.6"/>
	<path class="st4" d="M93.1,64.6l0.3,0.2c0.6-1.5,1.1-1.3,2.2-1.2c1.6,0.2,0.3-1.2,1.2-1.1c0.6,0,0.5,0.5,1.4,0.5
		c1.1,0,0.3-1.6,0.7-1.8c0.5-0.3,0.9,0.5,1.5,0.3c1-0.4-0.6-1.3,0.5-1.5c1-0.2,1.1-1.5-0.6-1.1c-0.8,0.2-0.6-1.2-1.7-0.6
		c-1.3,0.7-1.2-0.4-1.7,0.3c-1.4,1.9-1.3,0.3-1.9,1.1C93.7,61.5,94.5,62,93.1,64.6L93.1,64.6z M93.1,64.6"/>
	<path class="st5" d="M93.1,64.6l0.3,0.2c0.6-1.5,1.1-1.3,2.2-1.2c1.6,0.2,0.3-1.2,1.2-1.1c0.6,0,0.5,0.5,1.4,0.5
		c1.1,0,0.3-1.6,0.7-1.8c0.5-0.3,0.9,0.5,1.5,0.3c1-0.4-0.6-1.3,0.5-1.5c1-0.2,1.1-1.5-0.6-1.1c-0.8,0.2-0.6-1.2-1.7-0.6
		c-1.3,0.7-1.2-0.4-1.7,0.3c-1.4,1.9-1.3,0.3-1.9,1.1C93.7,61.5,94.5,62,93.1,64.6L93.1,64.6z M93.1,64.6"/>
	<path class="st4" d="M94.8,63.9l-0.7,0.9C95.1,65.5,95.8,64.6,94.8,63.9L94.8,63.9z M94.8,63.9"/>
	<path class="st5" d="M94.8,63.9l-0.7,0.9C95.1,65.5,95.8,64.6,94.8,63.9L94.8,63.9z M94.8,63.9"/>
	<path class="st4" d="M93.3,69.4l3.9-0.9c0.1-0.5,0.4-0.8,0.6-1.1c0.8-1.8-1.4,0-0.4-1.9c0.4-0.8-0.4-1.3-0.7-0.8
		c-1.4,1.8-1.3-0.8-2.1,0.8C93.8,67.3,92.9,67.4,93.3,69.4L93.3,69.4z M93.3,69.4"/>
	<path class="st5" d="M93.3,69.4l3.9-0.9c0.1-0.5,0.4-0.8,0.6-1.1c0.8-1.8-1.4,0-0.4-1.9c0.4-0.8-0.4-1.3-0.7-0.8
		c-1.4,1.8-1.3-0.8-2.1,0.8C93.8,67.3,92.9,67.4,93.3,69.4L93.3,69.4z M93.3,69.4 M96.4,66.1c-1.1,1.2-1.5,2-2,3.1"/>
	<path class="st4" d="M91.6,70.5l0.1,0.5c0.6-0.1,1-0.1,1.6,0.4c0.8,0.6,0.6-0.6,2.1,0.4c1.3,0.9,1.4-0.7,2.2-0.6
		c1.9,0,1.1-1.3,0.4-1.4c-1.1-0.2-0.1-1.6-1.4-1.2c-2.7,0.9-1.1-0.6-2.4-0.2C93.2,68.6,93.2,70.1,91.6,70.5L91.6,70.5z M91.6,70.5"
		/>
	<path class="st5" d="M91.6,70.5l0.1,0.5c0.6-0.1,1-0.1,1.6,0.4c0.8,0.6,0.6-0.6,2.1,0.4c1.3,0.9,1.4-0.7,2.2-0.6
		c1.9,0,1.1-1.3,0.4-1.4c-1.1-0.2-0.1-1.6-1.4-1.2c-2.7,0.9-1.1-0.6-2.4-0.2C93.2,68.6,93.2,70.1,91.6,70.5L91.6,70.5z M91.6,70.5
		 M91.7,70.7c2.2-0.5,3.1-1,5.6-0.5 M94.5,70.3l-0.7-0.2l0.4-0.3 M96.4,70.4L95.8,70l0.5-0.1"/>
	<path class="st4" d="M84.2,80.5c-2.2,0.1-0.4-2.8-2.2-4.8c1.7-0.6,1.6,1,3.1,1.2L84.2,80.5z M84.2,80.5"/>
	<path class="st5" d="M84.2,80.5c-2.2,0.1-0.4-2.8-2.2-4.8c1.7-0.6,1.6,1,3.1,1.2L84.2,80.5z M84.2,80.5"/>
	<path class="st4" d="M87.1,62.2l0.1,4.4C87.6,66.3,89.6,60.3,87.1,62.2L87.1,62.2z M87.1,62.2"/>
	<path class="st5" d="M87.1,62.2l0.1,4.4C87.6,66.3,89.6,60.3,87.1,62.2L87.1,62.2z M87.1,62.2 M98.4,59.9c-2.5,2.1-3.5,1.3-5.2,4.8
		 M98.1,59.7l-0.3,0.8l0.7-0.1 M96.8,60.6l-1,1.1l1.4,0.1"/>
	<path class="st4" d="M88.5,54.2l6.5-2.1c3.3,1.9,0.4,1.4,1.5,2.2c0.4,0.3,0.5,1.6-1.2,0.8c-1.6-0.7-0.5,0.9-2.2,0.7
		C90.3,55.4,92.2,53.5,88.5,54.2L88.5,54.2z M88.5,54.2"/>
	<path class="st5" d="M88.5,54.2l6.5-2.1c3.3,1.9,0.4,1.4,1.5,2.2c0.4,0.3,0.5,1.6-1.2,0.8c-1.6-0.7-0.5,0.9-2.2,0.7
		C90.3,55.4,92.2,53.5,88.5,54.2L88.5,54.2z M88.5,54.2"/>
	<path class="st4" d="M88.2,54.3l0-0.7c1-0.4,1.7-1.5,2.3-2.8c0.3-0.7,0.7,0.7,1.9-1.3c0.5-0.9,0.8,0.1,2.3-0.7
		c1.1-0.5,1.1,0.7,2.5,0.5c2.3-0.3,1.9,2.2,0.4,2.1c-2.5-0.2,0,2.5-2.5,1.9c-3.6-1-0.3,2.1-3.2,1.4C89.8,54.2,89.3,54.2,88.2,54.3
		L88.2,54.3z M88.2,54.3"/>
	<path class="st5" d="M88.2,54.3l0-0.7c1-0.4,1.7-1.5,2.3-2.8c0.3-0.7,0.7,0.7,1.9-1.3c0.5-0.9,0.8,0.1,2.3-0.7
		c1.1-0.5,1.1,0.7,2.5,0.5c2.3-0.3,1.9,2.2,0.4,2.1c-2.5-0.2,0,2.5-2.5,1.9c-3.6-1-0.3,2.1-3.2,1.4C89.8,54.2,89.3,54.2,88.2,54.3
		L88.2,54.3z M88.2,54.3 M95.8,50.6c-2.9-0.2-4.7,2.7-7.6,3.3 M94.5,51.4l-1.8,0.1l0.6-1.1 M92.1,53.6l-1.2-0.9l0.5-0.6"/>
	<path class="st4" d="M90.2,47.2l-0.1-0.3l4.2-2c0.4-0.1,0.8,0.2,1.2,0.1c1.3-0.1,1.2-0.9,2-0.9c0.7,0,0.4,1,0.8,1.2
		c0.9,0.3,1.2,1.1-0.9,1.3c-1.3,0.1-1.3,1.3-2.8,0.5C93,46.3,92.9,46.4,90.2,47.2L90.2,47.2z M90.2,47.2"/>
	<path class="st5" d="M90.2,47.2l-0.1-0.3l4.2-2c0.4-0.1,0.8,0.2,1.2,0.1c1.3-0.1,1.2-0.9,2-0.9c0.7,0,0.4,1,0.8,1.2
		c0.9,0.3,1.2,1.1-0.9,1.3c-1.3,0.1-1.3,1.3-2.8,0.5C93,46.3,92.9,46.4,90.2,47.2L90.2,47.2z M90.2,47.2 M94.1,45.9
		c0.7,0,0.9,0.2,2.2-0.2"/>
	<path class="st4" d="M90.1,46.9l0.1,0.3c2.4-1,3.6-1.3,4.4-1.4c1.2-0.2-0.4-0.8,1.1-1.6c1.1-0.6-0.4-1.4,0.2-2.4
		c0.4-0.7-0.3-1.5-0.9-0.7c-0.8,1.1-2.2-0.6-2.3,1c-0.1,3.1-1.2,0.8-1.6,1.9C90.8,44.7,91.8,45.9,90.1,46.9L90.1,46.9z M90.1,46.9"
		/>
	<path class="st5" d="M90.1,46.9l0.1,0.3c2.4-1,3.6-1.3,4.4-1.4c1.2-0.2-0.4-0.8,1.1-1.6c1.1-0.6-0.4-1.4,0.2-2.4
		c0.4-0.7-0.3-1.5-0.9-0.7c-0.8,1.1-2.2-0.6-2.3,1c-0.1,3.1-1.2,0.8-1.6,1.9C90.8,44.7,91.8,45.9,90.1,46.9L90.1,46.9z M90.1,46.9
		 M90.2,47.1c4.2-2.5,2.9-3.1,4.5-4.7 M93.9,45.3l-1-0.2l0.3-1.1 M94.7,43.9l-0.9-0.2V43"/>
	<path class="st4" d="M89.7,42.6l0.3-0.1l-3.3-6.1c-2.2-1.9-2.6-0.3-2.2,0.1c0.8,0.8,0,1.5,0.8,1.8c1.8,0.7-0.1,1.4,1.2,1.7
		C88.5,40.4,89.1,39.9,89.7,42.6L89.7,42.6z M89.7,42.6"/>
	<path class="st5" d="M89.7,42.6l0.3-0.1l-3.3-6.1c-2.2-1.9-2.6-0.3-2.2,0.1c0.8,0.8,0,1.5,0.8,1.8c1.8,0.7-0.1,1.4,1.2,1.7
		C88.5,40.4,89.1,39.9,89.7,42.6L89.7,42.6z M89.7,42.6"/>
	<path class="st4" d="M89.7,42.6l0.3-0.1c-0.8-3.7,1.5-4.4,1.6-5.4c0.2-1.6-1.4,0-1.1-2c0.3-2-1.6-0.4-2.2-1.7
		c-0.5-1.2-1.8-1.3-1.5,0c0.1,0.7-0.4,1-0.2,1.7c0.5,1.8-0.1,2.7,0.6,3.5C88.6,40.4,89,40.6,89.7,42.6L89.7,42.6z M89.7,42.6"/>
	<path class="st5" d="M89.7,42.6l0.3-0.1c-0.8-3.7,1.5-4.4,1.6-5.4c0.2-1.6-1.4,0-1.1-2c0.3-2-1.6-0.4-2.2-1.7
		c-0.5-1.2-1.8-1.3-1.5,0c0.1,0.7-0.4,1-0.2,1.7c0.5,1.8-0.1,2.7,0.6,3.5C88.6,40.4,89,40.6,89.7,42.6L89.7,42.6z M89.7,42.6
		 M89.8,42.6c-1.1-4.2-0.5-4.6-1.5-7.3 M88.2,37.9l0.9,0.9l0.1-0.8 M88.3,36.1c0.1,0,0.1,0.1,0.1,0.1l0.3,0.2l0.1-0.4"/>
	<path class="st8" d="M87.6,47.3c-2,0.3-2.4,2.2-3.2,2.9 M86.1,49.5c0-1,0.5-2.1,1.6-2.2c2.1-0.2,2.7,0.7,2.4,1.5"/>
	<path class="st4" d="M89.1,47.5l-0.2,0.3c-1.2-0.5-1.5-0.8-3.6-0.7c-1,0.1-0.4-0.8-1.5-0.8c-1.2,0-0.5-0.8-1.1-1.6
		c-0.8-0.9-0.1-2.2,2.8-0.2L89.1,47.5z M89.1,47.5"/>
	<path class="st5" d="M89.1,47.5l-0.2,0.3c-1.2-0.5-1.5-0.8-3.6-0.7c-1,0.1-0.4-0.8-1.5-0.8c-1.2,0-0.5-0.8-1.1-1.6
		c-0.8-0.9-0.1-2.2,2.8-0.2L89.1,47.5z M89.1,47.5"/>
	<path class="st4" d="M88.9,47.8l0.2-0.3c-1.8-2-0.7-2.7-1.1-4.7c-0.2-1.1-0.9,0.3-1.4-1.4c-0.3-1-1.4-0.3-2-0.8
		c-0.4-0.3-1.1-0.1-0.9,0.8c0.4,1.5-0.7,2.1,0.4,2.7c1.5,0.9,0,1.7,1,2.1C87.1,46.9,87.7,46.7,88.9,47.8L88.9,47.8z M88.9,47.8"/>
	<path class="st5" d="M88.9,47.8l0.2-0.3c-1.8-2-0.7-2.7-1.1-4.7c-0.2-1.1-0.9,0.3-1.4-1.4c-0.3-1-1.4-0.3-2-0.8
		c-0.4-0.3-1.1-0.1-0.9,0.8c0.4,1.5-0.7,2.1,0.4,2.7c1.5,0.9,0,1.7,1,2.1C87.1,46.9,87.7,46.7,88.9,47.8L88.9,47.8z M88.9,47.8
		 M84.9,41.9c1.2,2.4,2.1,3.9,4.1,5.8 M84.9,43.4l1.2,0.8l0-1.7 M87,44l0,1.5l-1.1-0.4"/>
	<path class="st8" d="M89.9,49.7c0.5-0.5,0.8-1,0-1.9"/>
	<path class="st4" d="M89.7,42.6c-0.1,2,0.1,4.5-0.6,4.9l-0.2,0.3c-0.3,1.2-0.7,2.2-1.1,2.5l0.6,0.9c0.4-1.5,1.4-3.5,1.8-4.1
		l-0.1-0.3c-0.3-0.1,0.1-2.9-0.1-4.5L89.7,42.6z M89.7,42.6"/>
	<path class="st5" d="M89.7,42.6c-0.1,2,0.1,4.5-0.6,4.9l-0.2,0.3c-0.3,1.2-0.7,2.2-1.1,2.5l0.6,0.9c0.4-1.5,1.4-3.5,1.8-4.1
		l-0.1-0.3c-0.3-0.1,0.1-2.9-0.1-4.5L89.7,42.6z M89.7,42.6 M90.5,41.1l-0.3,0l-0.4,1.2 M91.6,72.6l-1.1-0.3"/>
	<path class="st4" d="M95.3,87.4l1.2,0.6C96,88.7,94.9,88.2,95.3,87.4L95.3,87.4z M95.3,87.4"/>
	<path class="st5" d="M95.3,87.4l1.2,0.6C96,88.7,94.9,88.2,95.3,87.4L95.3,87.4z M95.3,87.4"/>
	<path class="st4" d="M96.4,88l-1.1-0.6C95.9,86.1,97,86.8,96.4,88L96.4,88z M96.4,88"/>
	<path class="st5" d="M96.4,88l-1.1-0.6C95.9,86.1,97,86.8,96.4,88L96.4,88z M96.4,88"/>
	<path class="st6" d="M89.2,89.1l-2.1,0.5c-0.6,0.9-1,0.6-2.1,1.4c-0.6,0.5-0.9,1.5-2.2,1.5c-1.6,0.1-1.4-1-3.3-1.1
		c-0.9,0-1.8,0.5-2.2,0c-0.4-0.6-0.8-0.5-1.5-0.7v1.4c0.5-0.3,1-0.3,1.1,0c0.4,1-0.4,1.1-0.3,1.8c0.1,1.3,1,1.7,1.6,1.8
		c1.9,0.2,2.6,0.8,3.3,1.5c0.2,0.2,2,1.4,3.3,0.4c0.9-0.7,2.8-2.2,3.3-3.2c1.1-2.3,3-2,3.8-3.8L89.2,89.1z M89.2,89.1"/>
	<path class="st7" d="M89.2,89.1l-2.1,0.5c-0.6,0.9-1,0.6-2.1,1.4c-0.6,0.5-0.9,1.5-2.2,1.5c-1.6,0.1-1.4-1-3.3-1.1
		c-0.9,0-1.8,0.5-2.2,0c-0.4-0.6-0.8-0.5-1.5-0.7v1.4c0.5-0.3,1-0.3,1.1,0c0.4,1-0.4,1.1-0.3,1.8c0.1,1.3,1,1.7,1.6,1.8
		c1.9,0.2,2.6,0.8,3.3,1.5c0.2,0.2,2,1.4,3.3,0.4c0.9-0.7,2.8-2.2,3.3-3.2c1.1-2.3,3-2,3.8-3.8L89.2,89.1z M89.2,89.1"/>
	<path class="st8" d="M91.7,90.7c-0.8,1.6-5.3,5.6-6.9,6.8c-1.3,1-3.1-0.2-3.3-0.4c-0.7-0.7-1.4-1.3-3.3-1.5
		c-0.5-0.1-1.5-0.5-1.6-1.8c-0.1-0.7,0.7-0.8,0.3-1.8c-0.1-0.3-0.5-0.3-0.9-0.1"/>
	<path class="st4" d="M94.9,91.1l-1.3,0C93.6,90.3,94.8,90,94.9,91.1L94.9,91.1z M94.9,91.1"/>
	<path class="st5" d="M94.9,91.1l-1.3,0C93.6,90.3,94.8,90,94.9,91.1L94.9,91.1z M94.9,91.1"/>
	<path class="st4" d="M93.6,91.1l1.2,0C95,92.6,93.5,92.8,93.6,91.1L93.6,91.1z M93.6,91.1"/>
	<path class="st5" d="M93.6,91.1l1.2,0C95,92.6,93.5,92.8,93.6,91.1L93.6,91.1z M93.6,91.1"/>
	<path class="st4" d="M95.5,89.2l-3.4-0.5c0,0.2,0,0.4-0.1,0.6l3.2,0.4L95.5,89.2z M95.5,89.2"/>
	<path class="st5" d="M95.5,89.2l-3.4-0.5c0,0.2,0,0.4-0.1,0.6l3.2,0.4L95.5,89.2z M95.5,89.2 M95.6,88.3l-0.7,0.9"/>
	<path class="st4" d="M79.9,94.6l1.7-0.1C81.5,93.6,80.2,92.4,79.9,94.6L79.9,94.6z M79.9,94.6"/>
	<path class="st5" d="M79.9,94.6l1.7-0.1C81.5,93.6,80.2,92.4,79.9,94.6L79.9,94.6z M79.9,94.6 M79.9,92.5c0.3,0.2,0.5,0.5,0.7,0.9
		 M94.3,90.4l0-0.8"/>
	<path class="st4" d="M81.5,94.6L80,94.6C79.7,96.6,81.7,96.7,81.5,94.6L81.5,94.6z M81.5,94.6"/>
	<path class="st5" d="M81.5,94.6L80,94.6C79.7,96.6,81.7,96.7,81.5,94.6L81.5,94.6z M81.5,94.6"/>
	<path class="st6" d="M84.7,75.7c-0.3,0.8-0.7,1.3-0.8,2c-0.4,2.3-0.1,4.3,1.2,5.5c0.6,0.6,1.5,1,1.7,1.2c1.1,1.2,0.7,4.4,0.3,5.1
		l2.1-0.5l2.6,1.4c0.1-0.3,0.2-0.6,0.2-0.9c0.1-0.5,0.1-0.9,0.1-1.3c0.1-2.5-1-2.3-2-4.3c-0.4-0.8,0.3-2.1-1.1-3.7
		c-0.4-0.5-0.8-0.7-1.2-0.9c0.2-1.5-1-1.5-0.6-1.9c0.4-0.4,0.7-1,1-1.8L84.7,75.7z M84.7,75.7"/>
	<path class="st7" d="M84.7,75.7c-0.3,0.8-0.7,1.3-0.8,2c-0.4,2.3-0.1,4.3,1.2,5.5c0.6,0.6,1.5,1,1.7,1.2c1.1,1.2,0.7,4.4,0.3,5.1
		l2.1-0.5l2.6,1.4c0.1-0.3,0.2-0.6,0.2-0.9c0.1-0.5,0.1-0.9,0.1-1.3c0.1-2.5-1-2.3-2-4.3c-0.4-0.8,0.3-2.1-1.1-3.7
		c-0.4-0.5-0.8-0.7-1.2-0.9c0.2-1.5-1-1.5-0.6-1.9c0.4-0.4,0.7-1,1-1.8L84.7,75.7z M84.7,75.7"/>
	<path class="st8" d="M89.8,68.5c-0.8,0.7-1.6,1-1.5,1.6c0.1,0.9,0.5,0.7,0.5,3.2c0,1.8-0.7,3.5-1.4,4.2c-0.4,0.4,0.8,0.3,0.6,1.9"
		/>
	<path class="st6" d="M89.5,49.4c-0.4,0.3-1,0.4-1.7,0.4c-0.8,0-0.1,0.8-0.7,1.8c0.4,0.3,0.8,0.7,1,1.8c0.9-0.6,0.1-1.7,0.8-2.8
		L89.5,49.4z M89.5,49.4"/>
	<path class="st7" d="M89.5,49.4c-0.4,0.3-1,0.4-1.7,0.4c-0.8,0-0.1,0.8-0.7,1.8c0.4,0.3,0.8,0.7,1,1.8c0.9-0.6,0.1-1.7,0.8-2.8
		L89.5,49.4z M89.5,49.4"/>
	<path class="st8" d="M85.2,83.3c-1.4-1.2-1.7-3.3-1.3-5.6c0.2-1.1,1-1.9,1.1-3.7 M87.2,77.7l-0.6,0.2"/>
	<path class="st4" d="M89.3,73.7c-2.6,2.7-4.4,0.3-8.3,2c3.4-1.2,1.3-5.1,8.2-3.4L89.3,73.7z M89.3,73.7"/>
	<path class="st5" d="M89.3,73.7c-2.6,2.7-4.4,0.3-8.3,2c3.4-1.2,1.3-5.1,8.2-3.4L89.3,73.7z M89.3,73.7 M83.4,74.5
		c0.9-0.7,1.9-1.3,3-1.7"/>
	<path class="st4" d="M90.4,77.9c0,0.2-0.8,1.2-1.6,2.2c0.1,0.1,0.2,0.1,0.2,0.2c0.1,0.1,0.2,0.3,0.3,0.4l0.3-0.6l0.4-0.6l0.4-0.7
		l0.5-0.4c1.7-1.4-2.6-5.8,0.7-7.5l-0.1-0.5c-0.5,0.2-1.5,1.5-0.9-0.5c0.4-1.4,1.6-2.5,2.7-5.1l-0.3-0.2c-1,1.7-2.4,4.1-2.7,3.8
		L90.3,68l-0.5,0.6l0,0.3l-0.3-0.3L89.1,69c0.8,1.1,0.6,2.1,0.5,3.2l1.4,4.3l0,1.4L90.4,77.9z M90.4,77.9"/>
	<path class="st5" d="M90.4,77.9c0,0.2-0.8,1.2-1.6,2.2c0.1,0.1,0.2,0.1,0.2,0.2c0.1,0.1,0.2,0.3,0.3,0.4l0.3-0.6l0.4-0.6l0.4-0.7
		l0.5-0.4c1.7-1.4-2.6-5.8,0.7-7.5l-0.1-0.5c-0.5,0.2-1.5,1.5-0.9-0.5c0.4-1.4,1.6-2.5,2.7-5.1l-0.3-0.2c-1,1.7-2.4,4.1-2.7,3.8
		L90.3,68l-0.5,0.6l0,0.3l-0.3-0.3L89.1,69c0.8,1.1,0.6,2.1,0.5,3.2l1.4,4.3l0,1.4L90.4,77.9z M90.4,77.9"/>
	<path class="st8" d="M85.2,75.3c0.3,0.8,0.8,1.4,0.8,2.7c0,2.1-1.6,2.4-1.4,4.3c0.1,1.2,1.9,1.9,2.2,2.2c1.1,1.2,0.7,4.4,0.3,5.1
		 M86.2,77.3c0.2,0,0.3,0.1,0.3,0.4c0.4,1.9,1.5,1.5,2.5,2.6c1.4,1.6,0.7,2.9,1.1,3.7c1.1,2.3,2.4,1.7,1.9,5.6
		c-0.1,0.5-0.2,0.9-0.4,1.2 M88.1,53.5c0.9-0.6,0.1-1.7,0.8-2.8c0.3-0.4,0.6-0.7,1-1 M90,48.8c-0.3,0.5-1,1-2.2,1
		c-0.8,0-0.1,0.8-0.7,1.8"/>
	<path class="st4" d="M90.4,77.9c0.2,0.4,0.6,0.3,0.8-0.1c-0.1-1.9-0.7-3.4-1.4-5.3c-0.4-1.2-1.4,0.1-1.7-2.9c-0.2-1.7-1,0.4-2.6-2
		c-0.6-0.9-2-0.5-1.7,0.1c0.9,2.1-1.4,1.8,0.3,2.8c2.3,1.4-0.3,2.5,2.1,2.7C90.7,73.7,90.4,76.4,90.4,77.9L90.4,77.9z M90.4,77.9"/>
	<path class="st5" d="M90.4,77.9c0.2,0.4,0.6,0.3,0.8-0.1c-0.1-1.9-0.7-3.4-1.4-5.3c-0.4-1.2-1.4,0.1-1.7-2.9c-0.2-1.7-1,0.4-2.6-2
		c-0.6-0.9-2-0.5-1.7,0.1c0.9,2.1-1.4,1.8,0.3,2.8c2.3,1.4-0.3,2.5,2.1,2.7C90.7,73.7,90.4,76.4,90.4,77.9L90.4,77.9z M90.4,77.9"/>
	<path class="st4" d="M88.1,67.8c-1.3-0.4-3.5,0.2-10.7-2.8C85.4,63.1,84.9,63.7,88.1,67.8L88.1,67.8z M88.1,67.8"/>
	<path class="st5" d="M88.1,67.8c-1.3-0.4-3.5,0.2-10.7-2.8C85.4,63.1,84.9,63.7,88.1,67.8L88.1,67.8z M88.1,67.8"/>
	<path class="st4" d="M89.2,69l0.3-0.4c-1.4-1.4-1.9-1.5-2-3c-0.1-1.1,0.4-2.6,0.1-3.4c-1.1-2.7-1.2,1.7-2.1-0.9
		c-0.6-1.9-1.1-2.3-1.9-1.8c-0.4,0.3-0.4,1.2,0.1,2.4c0.9,2-1.3,1.1,0.2,2.8C85.3,66.3,87.8,67.2,89.2,69L89.2,69z M89.2,69"/>
	<path class="st5" d="M89.2,69l0.3-0.4c-1.4-1.4-1.9-1.5-2-3c-0.1-1.1,0.4-2.6,0.1-3.4c-1.1-2.7-1.2,1.7-2.1-0.9
		c-0.6-1.9-1.1-2.3-1.9-1.8c-0.4,0.3-0.4,1.2,0.1,2.4c0.9,2-1.3,1.1,0.2,2.8C85.3,66.3,87.8,67.2,89.2,69L89.2,69z M89.2,69
		 M85.6,63.6c0.6,2.5,2.1,3.6,3.7,5.2 M90.5,74.4c-1.4-3.6-2.5-0.2-5.6-6.2 M84.5,69.6l1.2,0.2l0-0.4 M85.9,71.5l1.3,0.1l-0.5-1.2"
		/>
	<path class="st6" d="M37.7,50.7c-0.7-1.1-2.2-1.5-1-2.9c-0.4,0.5-0.3,1.2,0.4,1.6L37.7,50.7z M37.7,50.7"/>
	<path class="st7" d="M37.7,50.7c-0.7-1.1-2.2-1.5-1-2.9c-0.4,0.5-0.3,1.2,0.4,1.6L37.7,50.7z M37.7,50.7"/>
	<path class="st6" d="M42.2,56.2l-4,0c0.1-0.4,0.2-0.8,0.2-1.4c0-0.5,0-1,0.1-1.3h0c0.2-1.1,0.6-1.5,1-1.8c-0.6-1,0.1-1.8-0.7-1.8
		c-1.9,0-2.8-1.3-2-2.1c0.4-0.4,1.1-0.6,2.2-0.5c0,0,0,0,0.1,0l0,0c2,0.3,2.4,2.2,3.2,2.9c0.8,0.8,3.4,2,0.2,5.9
		C42.3,56.1,42.3,56.1,42.2,56.2L42.2,56.2z M42.2,56.2"/>
	<path class="st7" d="M42.2,56.2l-4,0c0.1-0.4,0.2-0.8,0.2-1.4c0-0.5,0-1,0.1-1.3h0c0.2-1.1,0.6-1.5,1-1.8c-0.6-1,0.1-1.8-0.7-1.8
		c-1.9,0-2.8-1.3-2-2.1c0.4-0.4,1.1-0.6,2.2-0.5c0,0,0,0,0.1,0l0,0c2,0.3,2.4,2.2,3.2,2.9c0.8,0.8,3.4,2,0.2,5.9
		C42.3,56.1,42.3,56.1,42.2,56.2L42.2,56.2z M42.2,56.2"/>
	<path class="st6" d="M38.4,75.8c-0.3-0.7-0.4-1.6-0.4-2.5c-0.1-2.4,0.4-2.2,0.5-3.2c0.1-0.8-1.3-1-2.2-2.4c0,0,0-0.1-0.1-0.1l0,0
		c0,0,0-0.1-0.1-0.1c-1-1.7,0.4-3.8,2.4-5.4c0.2,0.8,1.3,3.7,2.9,5.1c0.9,0.7,0.7,3,0.3,4.5c-0.3,1-0.2,1.3-0.1,2.2
		c0,0.7,0.2,1.2,0.3,1.7L38.4,75.8z M38.4,75.8"/>
	<path class="st7" d="M38.4,75.8c-0.3-0.7-0.4-1.6-0.4-2.5c-0.1-2.4,0.4-2.2,0.5-3.2c0.1-0.8-1.3-1-2.2-2.4c0,0,0-0.1-0.1-0.1l0,0
		c0,0,0-0.1-0.1-0.1c-1-1.7,0.4-3.8,2.4-5.4c0.2,0.8,1.3,3.7,2.9,5.1c0.9,0.7,0.7,3,0.3,4.5c-0.3,1-0.2,1.3-0.1,2.2
		c0,0.7,0.2,1.2,0.3,1.7L38.4,75.8z M38.4,75.8"/>
	<path class="st8" d="M38.5,62.2c0.2,0.8,1.3,3.7,2.9,5.1c0.9,0.7,0.7,3,0.3,4.5c-0.3,1-0.2,1.3-0.1,2.2c0,0.5-0.1,0.9-0.2,1.3"/>
	<path class="st4" d="M59.2,90L56,94.1L54.5,89c-0.2-1.8,0.5-1.9,1.4-1.1c0.5,0.4,0.8-1.1,1.5-0.7c0.5,0.2,0,1.4,0.4,1.7
		C58.3,89.4,59.7,88.2,59.2,90L59.2,90z M59.2,90"/>
	<path class="st5" d="M59.2,90L56,94.1L54.5,89c-0.2-1.8,0.5-1.9,1.4-1.1c0.5,0.4,0.8-1.1,1.5-0.7c0.5,0.2,0,1.4,0.4,1.7
		C58.3,89.4,59.7,88.2,59.2,90L59.2,90z M59.2,90"/>
	<g>
		<defs>
			<rect id="SVGID_6_" x="20.7" y="16.3" width="85.1" height="87.9"/>
		</defs>
		<clipPath id="SVGID_7_">
			<use xlink:href="#SVGID_6_"  style="overflow:visible;"/>
		</clipPath>
		<path class="st13" d="M52.9,97.1l-4.3,0.6l0.3,4.4c0.1,1.5,1,2.3,1.7,1.5c0.7-0.8,0.2-1.7,1.3-1.6c1.6,0.2,0.1-1.7,1-1.7
			c0.9,0,1-0.3,0.8-1.4C53.4,98.1,53,97.3,52.9,97.1L52.9,97.1z M52.9,97.1"/>
		<path class="st14" d="M52.9,97.1l-4.3,0.6l0.3,4.4c0.1,1.5,1,2.3,1.7,1.5c0.7-0.8,0.2-1.7,1.3-1.6c1.6,0.2,0.1-1.7,1-1.7
			c0.9,0,1-0.3,0.8-1.4C53.4,98.1,53,97.3,52.9,97.1L52.9,97.1z M52.9,97.1"/>
	</g>
	<path class="st4" d="M52.9,97.1l-0.8-2c-1,0.2-2.1,0.2-2.9,0.5c-1.6,0.6-0.8,1.2-1.4,1.4c-1.3,0.5-2,0.7-1.8,1.7
		c0.2,1.3-0.4,2,0,2.5c0.4,0.5,0.9,0.1,1.6,0c0.4,0,1.2,0.5,1.6,0.3c0.5-0.2,0.2-1.2,0.4-1.4c0.4-0.3,0.9,0.3,1.2,0.1
		c0.4-0.3,0-1.3,0.3-1.9C51.7,97.7,52.6,99.1,52.9,97.1L52.9,97.1z M52.9,97.1"/>
	<path class="st5" d="M52.9,97.1l-0.8-2c-1,0.2-2.1,0.2-2.9,0.5c-1.6,0.6-0.8,1.2-1.4,1.4c-1.3,0.5-2,0.7-1.8,1.7
		c0.2,1.3-0.4,2,0,2.5c0.4,0.5,0.9,0.1,1.6,0c0.4,0,1.2,0.5,1.6,0.3c0.5-0.2,0.2-1.2,0.4-1.4c0.4-0.3,0.9,0.3,1.2,0.1
		c0.4-0.3,0-1.3,0.3-1.9C51.7,97.7,52.6,99.1,52.9,97.1L52.9,97.1z M52.9,97.1 M52.4,95.8c-2.5,0.6-3.9,1.9-4.7,3.6 M50.7,97.8
		l-0.1-1.3l-1,0 M49.5,99.1l-0.1-1.9l-0.8,0.2 M56.1,88.8c0.7,0.5,1.3,1.4,1.8,2.5"/>
	<path class="st4" d="M34.6,73.3l-0.4-0.8C34.9,72.2,35.4,72.7,34.6,73.3L34.6,73.3z M34.6,73.3"/>
	<path class="st5" d="M34.6,73.3l-0.4-0.8C34.9,72.2,35.4,72.7,34.6,73.3L34.6,73.3z M34.6,73.3"/>
	<path class="st4" d="M34.3,72.5l0.3,0.8C33.6,73.7,33.3,72.9,34.3,72.5L34.3,72.5z M34.3,72.5"/>
	<path class="st5" d="M34.3,72.5l0.3,0.8C33.6,73.7,33.3,72.9,34.3,72.5L34.3,72.5z M34.3,72.5"/>
	<path class="st4" d="M36.1,58.5l0-1.8C37.4,56.7,37.9,58.1,36.1,58.5L36.1,58.5z M36.1,58.5"/>
	<path class="st5" d="M36.1,58.5l0-1.8C37.4,56.7,37.9,58.1,36.1,58.5L36.1,58.5z M36.1,58.5"/>
	<path class="st4" d="M36.1,56.7l0,1.7C34.2,58.7,33.9,56.7,36.1,56.7L36.1,56.7z M36.1,56.7"/>
	<path class="st5" d="M36.1,56.7l0,1.7C34.2,58.7,33.9,56.7,36.1,56.7L36.1,56.7z M36.1,56.7"/>
	<path class="st4" d="M35.8,42.1l-0.8-1C35.8,40.5,36.7,41.1,35.8,42.1L35.8,42.1z M35.8,42.1"/>
	<path class="st5" d="M35.8,42.1l-0.8-1C35.8,40.5,36.7,41.1,35.8,42.1L35.8,42.1z M35.8,42.1"/>
	<path class="st4" d="M35,41.2l0.7,0.9C34.7,43,34,42.1,35,41.2L35,41.2z M35,41.2"/>
	<path class="st5" d="M35,41.2l0.7,0.9C34.7,43,34,42.1,35,41.2L35,41.2z M35,41.2"/>
	<path class="st4" d="M31.3,89.7L23.3,92c-0.4,0.3-0.2,1.3-0.5,1.6c-0.8,0.8-1,1.6-0.7,2c0.2,0.3,1.2,0.1,2-0.1c0.9-0.3,1.7,0.1,2,0
		c0.7-0.2,0.7-0.9,1.6-1.6c0.5-0.4,1,0,1.4-0.7C29.9,92,29.8,91.3,31.3,89.7L31.3,89.7z M31.3,89.7"/>
	<path class="st5" d="M31.3,89.7L23.3,92c-0.4,0.3-0.2,1.3-0.5,1.6c-0.8,0.8-1,1.6-0.7,2c0.2,0.3,1.2,0.1,2-0.1c0.9-0.3,1.7,0.1,2,0
		c0.7-0.2,0.7-0.9,1.6-1.6c0.5-0.4,1,0,1.4-0.7C29.9,92,29.8,91.3,31.3,89.7L31.3,89.7z M31.3,89.7 M24.4,94.3
		c1.7-1.4,4.2-3,6.8-4.5 M24.6,93l1.5,0l-0.2,1.2 M27.8,92.8l0-1l-1,0.1"/>
	<g>
		<defs>
			<rect id="SVGID_8_" x="20.7" y="16.3" width="85.1" height="87.9"/>
		</defs>
		<clipPath id="SVGID_9_">
			<use xlink:href="#SVGID_8_"  style="overflow:visible;"/>
		</clipPath>
		<path class="st15" d="M31.3,89.7l-0.2-0.5c-1.7-0.1-2.1-0.7-2.9-1.2c-1.2-0.8-0.8,0.9-1.2,0.9c-0.6,0-1.1-0.9-1.5-1.1
			c-1.1-0.5-0.8,1-1.3,1c-0.5,0-0.9-0.6-1.6-0.6c-0.5,0-0.3,0.6-0.6,0.9c-0.3,0.2-1.1,0.1-1.1,0.6c0.1,0.7,1.2,0.7,1.3,1.1
			c0.2,0.7,0.1,1.5,1.1,0.9c1.5-0.9,1.2,1.5,2.6,0c1.2-1.2,1.9,0.5,2.6,0C29.6,90.7,29.4,90.7,31.3,89.7L31.3,89.7z M31.3,89.7"/>
		<path class="st16" d="M31.3,89.7l-0.2-0.5c-1.7-0.1-2.1-0.7-2.9-1.2c-1.2-0.8-0.8,0.9-1.2,0.9c-0.6,0-1.1-0.9-1.5-1.1
			c-1.1-0.5-0.8,1-1.3,1c-0.5,0-0.9-0.6-1.6-0.6c-0.5,0-0.3,0.6-0.6,0.9c-0.3,0.2-1.1,0.1-1.1,0.6c0.1,0.7,1.2,0.7,1.3,1.1
			c0.2,0.7,0.1,1.5,1.1,0.9c1.5-0.9,1.2,1.5,2.6,0c1.2-1.2,1.9,0.5,2.6,0C29.6,90.7,29.4,90.7,31.3,89.7L31.3,89.7z M31.3,89.7
			 M31.2,89.5c-1.5,0.5-4.8,0.6-7.5,0.5 M24.7,89.2l1.2,0.8L25,90.9 M28.1,89.1l0.5,0.8l-0.5,0.7"/>
	</g>
	<path class="st4" d="M35.3,85.6l-0.6,4.1c-1.3,0-1.2-2.1-2.3-3.1c-0.5-0.4-0.6-1.1-0.2-1.3c0.7-0.4,1.3,0.8,2.1-0.1
		C34.5,84.8,35,84.8,35.3,85.6L35.3,85.6z M35.3,85.6"/>
	<path class="st5" d="M35.3,85.6l-0.6,4.1c-1.3,0-1.2-2.1-2.3-3.1c-0.5-0.4-0.6-1.1-0.2-1.3c0.7-0.4,1.3,0.8,2.1-0.1
		C34.5,84.8,35,84.8,35.3,85.6L35.3,85.6z M35.3,85.6"/>
	<path class="st4" d="M36.9,80.1l-0.4-0.6c-1.4-0.2-4.8-1-5.7-0.7c-1.2,0.3,0,0.9-2.2,2.5c-0.8,0.6-0.7,2.4-0.4,3.2
		c0.3,0.9,1.1,0.9,1.3,0.4c0.6-1.5,1.3,0.8,1.6-1.2c0.2-1.6,1.3,0.5,1.8-0.9c0.7-2.4,1.2,0.1,1.8-1.1C35.4,80.3,35.6,80.1,36.9,80.1
		L36.9,80.1z M36.9,80.1"/>
	<path class="st5" d="M36.9,80.1l-0.4-0.6c-1.4-0.2-4.8-1-5.7-0.7c-1.2,0.3,0,0.9-2.2,2.5c-0.8,0.6-0.7,2.4-0.4,3.2
		c0.3,0.9,1.1,0.9,1.3,0.4c0.6-1.5,1.3,0.8,1.6-1.2c0.2-1.6,1.3,0.5,1.8-0.9c0.7-2.4,1.2,0.1,1.8-1.1C35.4,80.3,35.6,80.1,36.9,80.1
		L36.9,80.1z M36.9,80.1 M36.5,79.5c-2.8-0.5-5,0.9-6.3,2.8 M32.3,81.3l0.6-1.4l-0.8,0 M34,80.6l0.3-1.1l-0.5-0.2 M30.5,81.3
		l0.9-0.4L31,82.1"/>
	<path class="st4" d="M31.3,75.4c-1-2.5-0.1-3.1,0.5-2c0.3,0.6,1.2-0.2,1.4,0.9c0.2,1.5,1,0.1,0.9,2.1L31.3,75.4z M31.3,75.4"/>
	<path class="st5" d="M31.3,75.4c-1-2.5-0.1-3.1,0.5-2c0.3,0.6,1.2-0.2,1.4,0.9c0.2,1.5,1,0.1,0.9,2.1L31.3,75.4z M31.3,75.4"/>
	<path class="st4" d="M36.1,78.8l0.4,0.7c-0.6-0.3-1.2-0.8-1.8-0.8c-1.7,0.2-0.9-1.2-2.6-0.5c-1.5,0.6-1-1.7-2.7,0
		c-0.9,0.9-1.2-0.4-1.4-1.2c-0.1-0.5-1.1-0.8-1.1-1.5c0.1-1,1.7,0.1,1.8-0.9c0.1-0.7,0.9-0.8,1.2-0.2c1.4,2.3,1.2-1.5,2.5,0.4
		c0.9,1.3,2.1-0.5,2,1.7C34.5,77.7,34.4,77.5,36.1,78.8L36.1,78.8z M36.1,78.8"/>
	<path class="st5" d="M36.1,78.8l0.4,0.7c-0.6-0.3-1.2-0.8-1.8-0.8c-1.7,0.2-0.9-1.2-2.6-0.5c-1.5,0.6-1-1.7-2.7,0
		c-0.9,0.9-1.2-0.4-1.4-1.2c-0.1-0.5-1.1-0.8-1.1-1.5c0.1-1,1.7,0.1,1.8-0.9c0.1-0.7,0.9-0.8,1.2-0.2c1.4,2.3,1.2-1.5,2.5,0.4
		c0.9,1.3,2.1-0.5,2,1.7C34.5,77.7,34.4,77.5,36.1,78.8L36.1,78.8z M36.1,78.8 M36.2,79c-3.1-1.3-3.5-3.1-6.7-2.7 M31.9,77.7l1-0.6
		L32,76 M30.4,76.7l0.4-0.4l-0.3-0.1"/>
	<path class="st4" d="M32.5,64.8l-0.8-1C32.5,63.3,33.3,63.8,32.5,64.8L32.5,64.8z M32.5,64.8"/>
	<path class="st5" d="M32.5,64.8l-0.8-1C32.5,63.3,33.3,63.8,32.5,64.8L32.5,64.8z M32.5,64.8"/>
	<path class="st4" d="M33.5,64.6l-0.3,0.2c-6.6-9.9-3.7-9.5-3.4-8.8c0.7,1.5,1.1,0.1,1.6,1.2c0.5,1.2,0.9,0.1,1,1.2
		c0.2,2,1.3,0.3,1.1,1.8C33.2,62.6,33.4,63.5,33.5,64.6L33.5,64.6z M33.5,64.6"/>
	<path class="st5" d="M33.5,64.6l-0.3,0.2c-6.6-9.9-3.7-9.5-3.4-8.8c0.7,1.5,1.1,0.1,1.6,1.2c0.5,1.2,0.9,0.1,1,1.2
		c0.2,2,1.3,0.3,1.1,1.8C33.2,62.6,33.4,63.5,33.5,64.6L33.5,64.6z M33.5,64.6"/>
	<path class="st4" d="M33.5,64.6l-0.3,0.2c-0.6-1.5-1.1-1.3-2.2-1.2c-1.6,0.2-0.3-1.2-1.2-1.1c-0.6,0-0.5,0.5-1.4,0.5
		c-1.1,0-0.3-1.6-0.7-1.8c-0.5-0.3-0.9,0.5-1.5,0.3c-1-0.4,0.6-1.3-0.5-1.5c-1-0.2-1.1-1.5,0.6-1.1c0.8,0.2,0.6-1.2,1.7-0.6
		c1.3,0.7,1.2-0.4,1.7,0.3c1.4,1.9,1.3,0.3,1.9,1.1C32.9,61.5,32.1,62,33.5,64.6L33.5,64.6z M33.5,64.6"/>
	<path class="st5" d="M33.5,64.6l-0.3,0.2c-0.6-1.5-1.1-1.3-2.2-1.2c-1.6,0.2-0.3-1.2-1.2-1.1c-0.6,0-0.5,0.5-1.4,0.5
		c-1.1,0-0.3-1.6-0.7-1.8c-0.5-0.3-0.9,0.5-1.5,0.3c-1-0.4,0.6-1.3-0.5-1.5c-1-0.2-1.1-1.5,0.6-1.1c0.8,0.2,0.6-1.2,1.7-0.6
		c1.3,0.7,1.2-0.4,1.7,0.3c1.4,1.9,1.3,0.3,1.9,1.1C32.9,61.5,32.1,62,33.5,64.6L33.5,64.6z M33.5,64.6"/>
	<path class="st4" d="M31.8,63.9l0.7,0.9C31.5,65.5,30.8,64.6,31.8,63.9L31.8,63.9z M31.8,63.9"/>
	<path class="st5" d="M31.8,63.9l0.7,0.9C31.5,65.5,30.8,64.6,31.8,63.9L31.8,63.9z M31.8,63.9"/>
	<path class="st4" d="M33.3,69.4l-3.9-0.9c-0.1-0.5-0.4-0.8-0.6-1.1c-0.8-1.8,1.4,0,0.4-1.9c-0.4-0.8,0.4-1.3,0.7-0.8
		c1.4,1.8,1.3-0.8,2.1,0.8C32.8,67.3,33.7,67.4,33.3,69.4L33.3,69.4z M33.3,69.4"/>
	<path class="st5" d="M33.3,69.4l-3.9-0.9c-0.1-0.5-0.4-0.8-0.6-1.1c-0.8-1.8,1.4,0,0.4-1.9c-0.4-0.8,0.4-1.3,0.7-0.8
		c1.4,1.8,1.3-0.8,2.1,0.8C32.8,67.3,33.7,67.4,33.3,69.4L33.3,69.4z M33.3,69.4 M30.2,66.1c1.1,1.2,1.5,2,2,3.1"/>
	<path class="st4" d="M35,70.5L34.9,71c-0.6-0.1-1-0.1-1.6,0.4c-0.8,0.6-0.6-0.6-2.1,0.4C29.9,72.5,29.8,71,29,71
		c-1.9,0-1.1-1.3-0.4-1.4c1.1-0.2,0.1-1.6,1.4-1.2c2.7,0.9,1.1-0.6,2.4-0.2C33.4,68.6,33.4,70.1,35,70.5L35,70.5z M35,70.5"/>
	<path class="st5" d="M35,70.5L34.9,71c-0.6-0.1-1-0.1-1.6,0.4c-0.8,0.6-0.6-0.6-2.1,0.4C29.9,72.5,29.8,71,29,71
		c-1.9,0-1.1-1.3-0.4-1.4c1.1-0.2,0.1-1.6,1.4-1.2c2.7,0.9,1.1-0.6,2.4-0.2C33.4,68.6,33.4,70.1,35,70.5L35,70.5z M35,70.5
		 M34.9,70.7c-2.2-0.5-3.1-1-5.6-0.5 M32.1,70.3l0.7-0.2l-0.4-0.3 M30.2,70.4l0.5-0.4l-0.5-0.1 M28.2,59.9c2.5,2.1,3.5,1.3,5.2,4.8
		 M28.5,59.7l0.3,0.8l-0.7-0.1 M29.8,60.6l1,1.1l-1.4,0.1"/>
	<path class="st4" d="M38.1,54.2l-6.5-2.1c-3.3,1.9-0.4,1.4-1.5,2.2c-0.4,0.3-0.5,1.6,1.2,0.8c1.6-0.7,0.5,0.9,2.2,0.7
		C36.3,55.4,34.4,53.5,38.1,54.2L38.1,54.2z M38.1,54.2"/>
	<path class="st5" d="M38.1,54.2l-6.5-2.1c-3.3,1.9-0.4,1.4-1.5,2.2c-0.4,0.3-0.5,1.6,1.2,0.8c1.6-0.7,0.5,0.9,2.2,0.7
		C36.3,55.4,34.4,53.5,38.1,54.2L38.1,54.2z M38.1,54.2"/>
	<path class="st4" d="M38.4,54.3l0-0.7c-1-0.4-1.7-1.5-2.3-2.8c-0.3-0.7-0.7,0.7-1.9-1.3c-0.5-0.9-0.8,0.1-2.3-0.7
		c-1.1-0.5-1.1,0.7-2.5,0.5c-2.3-0.3-1.9,2.2-0.4,2.1c2.5-0.2,0,2.5,2.5,1.9c3.6-1,0.3,2.1,3.2,1.4C36.8,54.2,37.3,54.2,38.4,54.3
		L38.4,54.3z M38.4,54.3"/>
	<path class="st5" d="M38.4,54.3l0-0.7c-1-0.4-1.7-1.5-2.3-2.8c-0.3-0.7-0.7,0.7-1.9-1.3c-0.5-0.9-0.8,0.1-2.3-0.7
		c-1.1-0.5-1.1,0.7-2.5,0.5c-2.3-0.3-1.9,2.2-0.4,2.1c2.5-0.2,0,2.5,2.5,1.9c3.6-1,0.3,2.1,3.2,1.4C36.8,54.2,37.3,54.2,38.4,54.3
		L38.4,54.3z M38.4,54.3 M30.8,50.6c2.9-0.2,4.7,2.7,7.6,3.3 M32.1,51.4l1.8,0.1l-0.6-1.1 M34.5,53.6l1.2-0.9l-0.5-0.6"/>
	<path class="st4" d="M36.4,47.2l0.1-0.3l-4.2-2c-0.4-0.1-0.8,0.2-1.2,0.1c-1.3-0.1-1.2-0.9-2-0.9c-0.7,0-0.4,1-0.8,1.2
		c-0.9,0.3-1.2,1.1,0.9,1.3c1.3,0.1,1.3,1.3,2.8,0.5C33.6,46.3,33.7,46.4,36.4,47.2L36.4,47.2z M36.4,47.2"/>
	<path class="st5" d="M36.4,47.2l0.1-0.3l-4.2-2c-0.4-0.1-0.8,0.2-1.2,0.1c-1.3-0.1-1.2-0.9-2-0.9c-0.7,0-0.4,1-0.8,1.2
		c-0.9,0.3-1.2,1.1,0.9,1.3c1.3,0.1,1.3,1.3,2.8,0.5C33.6,46.3,33.7,46.4,36.4,47.2L36.4,47.2z M36.4,47.2 M32.5,45.9
		c-0.7,0-0.9,0.2-2.2-0.2"/>
	<path class="st4" d="M36.5,46.9l-0.1,0.3c-2.4-1-3.6-1.3-4.4-1.4c-1.2-0.2,0.4-0.8-1.1-1.6c-1.1-0.6,0.4-1.4-0.2-2.4
		c-0.4-0.7,0.3-1.5,0.9-0.7c0.8,1.1,2.2-0.6,2.3,1c0.1,3.1,1.2,0.8,1.6,1.9C35.8,44.7,34.8,45.9,36.5,46.9L36.5,46.9z M36.5,46.9"/>
	<path class="st5" d="M36.5,46.9l-0.1,0.3c-2.4-1-3.6-1.3-4.4-1.4c-1.2-0.2,0.4-0.8-1.1-1.6c-1.1-0.6,0.4-1.4-0.2-2.4
		c-0.4-0.7,0.3-1.5,0.9-0.7c0.8,1.1,2.2-0.6,2.3,1c0.1,3.1,1.2,0.8,1.6,1.9C35.8,44.7,34.8,45.9,36.5,46.9L36.5,46.9z M36.5,46.9
		 M36.4,47.1c-4.2-2.5-2.9-3.1-4.5-4.7 M32.7,45.3l1-0.2L33.5,44 M31.9,43.9l0.9-0.2V43"/>
	<path class="st4" d="M36.9,42.6l-0.3-0.1l3.3-6.1c2.2-1.9,2.6-0.3,2.2,0.1c-0.8,0.8,0,1.5-0.8,1.8c-1.8,0.7,0.1,1.4-1.2,1.7
		C38.1,40.4,37.5,39.9,36.9,42.6L36.9,42.6z M36.9,42.6"/>
	<path class="st5" d="M36.9,42.6l-0.3-0.1l3.3-6.1c2.2-1.9,2.6-0.3,2.2,0.1c-0.8,0.8,0,1.5-0.8,1.8c-1.8,0.7,0.1,1.4-1.2,1.7
		C38.1,40.4,37.5,39.9,36.9,42.6L36.9,42.6z M36.9,42.6"/>
	<path class="st4" d="M36.9,42.6l-0.3-0.1c0.8-3.7-1.5-4.4-1.6-5.4c-0.2-1.6,1.4,0,1.1-2c-0.3-2,1.6-0.4,2.2-1.7
		c0.5-1.2,1.8-1.3,1.5,0c-0.1,0.7,0.4,1,0.2,1.7c-0.5,1.8,0.1,2.7-0.6,3.5C38,40.4,37.6,40.6,36.9,42.6L36.9,42.6z M36.9,42.6"/>
	<path class="st5" d="M36.9,42.6l-0.3-0.1c0.8-3.7-1.5-4.4-1.6-5.4c-0.2-1.6,1.4,0,1.1-2c-0.3-2,1.6-0.4,2.2-1.7
		c0.5-1.2,1.8-1.3,1.5,0c-0.1,0.7,0.4,1,0.2,1.7c-0.5,1.8,0.1,2.7-0.6,3.5C38,40.4,37.6,40.6,36.9,42.6L36.9,42.6z M36.9,42.6
		 M36.8,42.6c1.1-4.2,0.5-4.6,1.5-7.3 M38.4,37.9l-0.9,0.9L37.3,38 M38.3,36.1c-0.1,0-0.1,0.1-0.1,0.1l-0.3,0.2L37.8,36"/>
	<path class="st8" d="M39,47.3c2,0.3,2.4,2.2,3.2,2.9 M40.5,49.5c0-1-0.5-2.1-1.6-2.2c-2.1-0.2-2.7,0.7-2.4,1.5"/>
	<path class="st4" d="M37.5,47.5l0.2,0.3c1.2-0.5,1.5-0.8,3.6-0.7c1,0.1,0.4-0.8,1.5-0.8c1.2,0,0.5-0.8,1.1-1.6
		c0.8-0.9,0.1-2.2-2.8-0.2L37.5,47.5z M37.5,47.5"/>
	<path class="st5" d="M37.5,47.5l0.2,0.3c1.2-0.5,1.5-0.8,3.6-0.7c1,0.1,0.4-0.8,1.5-0.8c1.2,0,0.5-0.8,1.1-1.6
		c0.8-0.9,0.1-2.2-2.8-0.2L37.5,47.5z M37.5,47.5"/>
	<path class="st4" d="M37.7,47.8l-0.2-0.3c1.8-2,0.7-2.7,1.1-4.7c0.2-1.1,0.9,0.3,1.4-1.4c0.3-1,1.4-0.3,2-0.8
		c0.4-0.3,1.1-0.1,0.9,0.8c-0.4,1.5,0.7,2.1-0.4,2.7c-1.5,0.9,0,1.7-1,2.1C39.5,46.9,38.9,46.7,37.7,47.8L37.7,47.8z M37.7,47.8"/>
	<path class="st5" d="M37.7,47.8l-0.2-0.3c1.8-2,0.7-2.7,1.1-4.7c0.2-1.1,0.9,0.3,1.4-1.4c0.3-1,1.4-0.3,2-0.8
		c0.4-0.3,1.1-0.1,0.9,0.8c-0.4,1.5,0.7,2.1-0.4,2.7c-1.5,0.9,0,1.7-1,2.1C39.5,46.9,38.9,46.7,37.7,47.8L37.7,47.8z M37.7,47.8
		 M41.7,41.9c-1.2,2.4-2.1,3.9-4.1,5.8 M41.7,43.4l-1.2,0.8l0-1.7 M39.6,44l0,1.5l1.1-0.4"/>
	<path class="st8" d="M36.7,49.7c-0.5-0.5-0.8-1,0-1.9"/>
	<path class="st4" d="M36.9,42.6c0.1,2-0.1,4.5,0.6,4.9l0.2,0.3c0.3,1.2,0.7,2.2,1.1,2.5l-0.6,0.9c-0.4-1.5-1.4-3.5-1.8-4.1l0.1-0.3
		c0.3-0.1-0.1-2.9,0.1-4.5L36.9,42.6z M36.9,42.6"/>
	<path class="st5" d="M36.9,42.6c0.1,2-0.1,4.5,0.6,4.9l0.2,0.3c0.3,1.2,0.7,2.2,1.1,2.5l-0.6,0.9c-0.4-1.5-1.4-3.5-1.8-4.1l0.1-0.3
		c0.3-0.1-0.1-2.9,0.1-4.5L36.9,42.6z M36.9,42.6 M36.1,41.1l0.3,0l0.4,1.2 M35,72.6l1.1-0.3"/>
	<path class="st4" d="M31.3,87.4L30.2,88C30.6,88.7,31.7,88.2,31.3,87.4L31.3,87.4z M31.3,87.4"/>
	<path class="st5" d="M31.3,87.4L30.2,88C30.6,88.7,31.7,88.2,31.3,87.4L31.3,87.4z M31.3,87.4"/>
	<path class="st4" d="M30.2,88l1.1-0.6C30.7,86.1,29.6,86.8,30.2,88L30.2,88z M30.2,88"/>
	<path class="st5" d="M30.2,88l1.1-0.6C30.7,86.1,29.6,86.8,30.2,88L30.2,88z M30.2,88"/>
	<path class="st6" d="M50.8,90.7c0.6-0.1,1.3-0.4,2.3-1.2c1.1-1,2,0,2.4,0.6c0.7,1.1,0.2,2,0.7,3l0,0.1c0,0,0-0.1,0-0.1
		c0.4-1.4,0.3-3.1,2.2-3c2.2,0.1,1.6,1.4,4.9,1.4c3.3,0,2.7-1.3,4.9-1.4c1.9-0.1,1.9,1.6,2.2,3c0,0,0,0.1,0,0.1l0-0.1
		c0.5-1,0-1.9,0.7-3c0.4-0.6,1.3-1.5,2.4-0.6c1,0.8,1.7,1.1,2.3,1.2v1.4c-0.6,0.4-1.3,1.2-1.3,2.3c-0.1,1.2,0,2.7-2.4,3.9
		c-1.1,0.5-2,0.7-3.1,0.3c-0.5-0.2-0.9-0.7-0.9-1.1v0c0,0,0,0,0,0c0-0.6-0.2-1.5-0.4-1.7c-1.1,0.2-2.9,0.3-4.3,0.3h-0.1
		c-1.4,0-3.2-0.1-4.3-0.3c-0.2,0.2-0.4,1.1-0.4,1.7c0,0,0,0,0,0v0h0c0,0.4-0.4,0.9-0.9,1.1c-1.2,0.4-2.1,0.2-3.1-0.3
		c-2.4-1.1-2.3-2.7-2.4-3.9c-0.1-1.1-0.7-1.9-1.3-2.3V90.7z M50.8,90.7"/>
	<path class="st7" d="M50.8,90.7c0.6-0.1,1.3-0.4,2.3-1.2c1.1-1,2,0,2.4,0.6c0.7,1.1,0.2,2,0.7,3l0,0.1c0,0,0-0.1,0-0.1
		c0.4-1.4,0.3-3.1,2.2-3c2.2,0.1,1.6,1.4,4.9,1.4c3.3,0,2.7-1.3,4.9-1.4c1.9-0.1,1.9,1.6,2.2,3c0,0,0,0.1,0,0.1l0-0.1
		c0.5-1,0-1.9,0.7-3c0.4-0.6,1.3-1.5,2.4-0.6c1,0.8,1.7,1.1,2.3,1.2v1.4c-0.6,0.4-1.3,1.2-1.3,2.3c-0.1,1.2,0,2.7-2.4,3.9
		c-1.1,0.5-2,0.7-3.1,0.3c-0.5-0.2-0.9-0.7-0.9-1.1v0c0,0,0,0,0,0c0-0.6-0.2-1.5-0.4-1.7c-1.1,0.2-2.9,0.3-4.3,0.3h-0.1
		c-1.4,0-3.2-0.1-4.3-0.3c-0.2,0.2-0.4,1.1-0.4,1.7c0,0,0,0,0,0v0h0c0,0.4-0.4,0.9-0.9,1.1c-1.2,0.4-2.1,0.2-3.1-0.3
		c-2.4-1.1-2.3-2.7-2.4-3.9c-0.1-1.1-0.7-1.9-1.3-2.3V90.7z M50.8,90.7"/>
	<path class="st8" d="M87.1,89.6c-3.1,3.7-4.5,2-7.6,1.8c-0.9,0-1.8,0.5-2.2,0c-0.7-1.1-1.5,0-3.8-1.9"/>
	<path class="st6" d="M37.4,89.1l2.1,0.5c0.6,0.9,1,0.6,2.1,1.4c0.6,0.5,0.9,1.5,2.2,1.5c1.6,0.1,1.4-1,3.3-1.1c0.9,0,1.8,0.5,2.2,0
		c0.4-0.6,0.8-0.5,1.5-0.7v1.4c-0.5-0.3-1-0.3-1.1,0c-0.4,1,0.4,1.1,0.3,1.8c-0.1,1.3-1,1.7-1.6,1.8c-1.9,0.2-2.6,0.8-3.3,1.5
		c-0.2,0.2-2,1.4-3.3,0.4c-0.9-0.7-2.8-2.2-3.3-3.2c-1.1-2.3-3-2-3.8-3.8L37.4,89.1z M37.4,89.1"/>
	<path class="st7" d="M37.4,89.1l2.1,0.5c0.6,0.9,1,0.6,2.1,1.4c0.6,0.5,0.9,1.5,2.2,1.5c1.6,0.1,1.4-1,3.3-1.1c0.9,0,1.8,0.5,2.2,0
		c0.4-0.6,0.8-0.5,1.5-0.7v1.4c-0.5-0.3-1-0.3-1.1,0c-0.4,1,0.4,1.1,0.3,1.8c-0.1,1.3-1,1.7-1.6,1.8c-1.9,0.2-2.6,0.8-3.3,1.5
		c-0.2,0.2-2,1.4-3.3,0.4c-0.9-0.7-2.8-2.2-3.3-3.2c-1.1-2.3-3-2-3.8-3.8L37.4,89.1z M37.4,89.1"/>
	<path class="st8" d="M34.9,90.7c0.8,1.6,5.3,5.6,6.9,6.8c1.3,1,3.1-0.2,3.3-0.4c0.7-0.7,1.4-1.3,3.3-1.5c0.5-0.1,1.5-0.5,1.6-1.8
		c0.1-0.7-0.7-0.8-0.3-1.8c0.1-0.3,0.5-0.3,0.9-0.1 M39.5,89.6c3.1,3.7,4.5,2,7.6,1.8c0.9,0,1.8,0.5,2.2,0c0.7-1.1,1.5,0,3.8-1.9"/>
	<path class="st4" d="M45.1,92.2l-0.8-0.8l-6.1,1.7c-0.4,0.6-0.3,1.3-0.7,1.9c-0.9,1.4,0.5,0.3,0.2,1.2c-0.3,0.9-0.2,2,0.6,1.3
		c1-0.8,1.2,0.1,1.7,0c0.6-0.2,0.4-0.8,0.8-1.4c0.2-0.3,1.6,0,1.9-0.5c0.5-0.9,0.4-0.9,1.2-1.6C44.3,93.6,44,92.8,45.1,92.2
		L45.1,92.2z M45.1,92.2"/>
	<path class="st5" d="M45.1,92.2l-0.8-0.8l-6.1,1.7c-0.4,0.6-0.3,1.3-0.7,1.9c-0.9,1.4,0.5,0.3,0.2,1.2c-0.3,0.9-0.2,2,0.6,1.3
		c1-0.8,1.2,0.1,1.7,0c0.6-0.2,0.4-0.8,0.8-1.4c0.2-0.3,1.6,0,1.9-0.5c0.5-0.9,0.4-0.9,1.2-1.6C44.3,93.6,44,92.8,45.1,92.2
		L45.1,92.2z M45.1,92.2"/>
	<path class="st4" d="M31.7,91.1l1.3,0C33,90.3,31.8,90,31.7,91.1L31.7,91.1z M31.7,91.1"/>
	<path class="st5" d="M31.7,91.1l1.3,0C33,90.3,31.8,90,31.7,91.1L31.7,91.1z M31.7,91.1"/>
	<path class="st4" d="M33,91.1l-1.2,0C31.6,92.6,33.1,92.8,33,91.1L33,91.1z M33,91.1"/>
	<path class="st5" d="M33,91.1l-1.2,0C31.6,92.6,33.1,92.8,33,91.1L33,91.1z M33,91.1"/>
	<path class="st4" d="M31.1,89.2l3.4-0.5c0,0.2,0,0.4,0.1,0.6l-3.2,0.4L31.1,89.2z M31.1,89.2"/>
	<path class="st5" d="M31.1,89.2l3.4-0.5c0,0.2,0,0.4,0.1,0.6l-3.2,0.4L31.1,89.2z M31.1,89.2 M31,88.3l0.7,0.9"/>
	<path class="st4" d="M46.7,94.6L45,94.6C45.1,93.6,46.4,92.4,46.7,94.6L46.7,94.6z M46.7,94.6"/>
	<path class="st5" d="M46.7,94.6L45,94.6C45.1,93.6,46.4,92.4,46.7,94.6L46.7,94.6z M46.7,94.6 M46.7,92.5c-0.3,0.2-0.5,0.5-0.7,0.9
		 M39.2,95.7c1.4-1.9,3.1-2.6,5.4-3.9 M32.3,90.4l0-0.8 M43,92.7l-0.2,1.1"/>
	<path class="st4" d="M45.1,94.6l1.6,0.1C46.9,96.6,44.9,96.7,45.1,94.6L45.1,94.6z M45.1,94.6"/>
	<path class="st5" d="M45.1,94.6l1.6,0.1C46.9,96.6,44.9,96.7,45.1,94.6L45.1,94.6z M45.1,94.6"/>
	<path class="st4" d="M50.8,92.4c-0.5-0.1-0.9-0.4-1.2-1l-0.5,0.1l0.5,0.8c-1,0-1.6-0.4-1.7-1h-0.6c0.4,1.1-3.6-1.2-3.9-3.3
		l-0.3-0.3c-1.4-0.6-2.4-2.2-3.1-3.3c-0.1,0-0.1,0.1-0.1,0.1c-0.2,0.2-0.3,0.4-0.4,0.7c1.4,2.3,3.5,3-0.2,3c0,0.3,0.1,0.5,0.1,0.7
		c2.5-0.1,2.8-0.7,3.3,0c0.5,0.7,2.3,2.5,1.7,2.5l0.8,0.8c0.7-0.3,1,0.1,1.6,0.3c2.4,0.8,3.9,0.9,5.2,0.9c-0.2-0.4-0.4-0.8-0.7-1
		L50.8,92.4z M50.8,92.4"/>
	<path class="st5" d="M50.8,92.4c-0.5-0.1-0.9-0.4-1.2-1l-0.5,0.1l0.5,0.8c-1,0-1.6-0.4-1.7-1h-0.6c0.4,1.1-3.6-1.2-3.9-3.3
		l-0.3-0.3c-1.4-0.6-2.4-2.2-3.1-3.3c-0.1,0-0.1,0.1-0.1,0.1c-0.2,0.2-0.3,0.4-0.4,0.7c1.4,2.3,3.5,3-0.2,3c0,0.3,0.1,0.5,0.1,0.7
		c2.5-0.1,2.8-0.7,3.3,0c0.5,0.7,2.3,2.5,1.7,2.5l0.8,0.8c0.7-0.3,1,0.1,1.6,0.3c2.4,0.8,3.9,0.9,5.2,0.9c-0.2-0.4-0.4-0.8-0.7-1
		L50.8,92.4z M50.8,92.4"/>
	<path class="st6" d="M41.9,75.7c0.3,0.8,0.7,1.3,0.8,2c0.4,2.3,0.1,4.3-1.2,5.5c-0.6,0.6-1.5,1-1.7,1.2c-1.1,1.2-0.7,4.4-0.3,5.1
		l-2.1-0.5l-2.6,1.4c-0.1-0.3-0.2-0.6-0.2-0.9c-0.1-0.5-0.1-0.9-0.1-1.3c-0.1-2.5,1-2.3,2-4.3c0.4-0.8-0.3-2.1,1.1-3.7
		c0.4-0.5,0.8-0.7,1.2-0.9c-0.2-1.5,1-1.5,0.6-1.9c-0.4-0.4-0.7-1-1-1.8L41.9,75.7z M41.9,75.7"/>
	<path class="st7" d="M41.9,75.7c0.3,0.8,0.7,1.3,0.8,2c0.4,2.3,0.1,4.3-1.2,5.5c-0.6,0.6-1.5,1-1.7,1.2c-1.1,1.2-0.7,4.4-0.3,5.1
		l-2.1-0.5l-2.6,1.4c-0.1-0.3-0.2-0.6-0.2-0.9c-0.1-0.5-0.1-0.9-0.1-1.3c-0.1-2.5,1-2.3,2-4.3c0.4-0.8-0.3-2.1,1.1-3.7
		c0.4-0.5,0.8-0.7,1.2-0.9c-0.2-1.5,1-1.5,0.6-1.9c-0.4-0.4-0.7-1-1-1.8L41.9,75.7z M41.9,75.7"/>
	<path class="st8" d="M36.8,68.5c0.8,0.7,1.6,1,1.5,1.6c-0.1,0.9-0.5,0.7-0.5,3.2c0,1.8,0.7,3.5,1.4,4.2c0.4,0.4-0.8,0.3-0.6,1.9"/>
	<path class="st4" d="M49.7,91.4c0.4-1.4,1.7-1.3,1.8-2.1c0.2-1.1-0.7-0.6-0.8-1.4c0-0.9,1.1-0.9,0.8-2.6l-5.5-1l3.2,7.1L49.7,91.4z
		 M49.7,91.4"/>
	<path class="st5" d="M49.7,91.4c0.4-1.4,1.7-1.3,1.8-2.1c0.2-1.1-0.7-0.6-0.8-1.4c0-0.9,1.1-0.9,0.8-2.6l-5.5-1l3.2,7.1L49.7,91.4z
		 M49.7,91.4"/>
	<path class="st4" d="M47.9,91.2c0.1-1.2,2-1,2-1.9c-0.1-1-1.7-0.5-1.7-1.5c-0.1-0.8,1-1.2,0.4-2.4l-2.5-1c-1.9,0.5-2.2,1.4-0.5,3.3
		c0.4,0.4-1,0.7-0.7,1.3c0.3,0.6,1.2-0.3,2.3,2.1H47.9z M47.9,91.2"/>
	<path class="st5" d="M47.9,91.2c0.1-1.2,2-1,2-1.9c-0.1-1-1.7-0.5-1.7-1.5c-0.1-0.8,1-1.2,0.4-2.4l-2.5-1c-1.9,0.5-2.2,1.4-0.5,3.3
		c0.4,0.4-1,0.7-0.7,1.3c0.3,0.6,1.2-0.3,2.3,2.1H47.9z M47.9,91.2 M47.6,91.2c-0.2-1.9-0.6-3.6-1.1-5.3"/>
	<path class="st4" d="M44.2,91.4l0.5,0.5c-1.7,0.3-1.8,0.6-2.9,1.8c-1.5,1.6-1.3-1.5-2.2-0.5c-0.6,0.7-0.6,2.1-1.5,2.1
		c-1,0-0.1-2.2-1-1.6c-0.8,0.5-1.4,1.6-2.1,1.5c-0.6-0.1-0.7-1.7-0.2-2.3c0.8-0.8-0.8-0.6-0.2-1.6c0.2-0.4,1.5-0.2,2-0.4
		c0.5-0.3-0.3-1.4,0.8-1.4c1.1-0.1,1,1,1.7,1c0.6,0,0.9-1,2.1,0C42.7,91.6,43.1,91.2,44.2,91.4L44.2,91.4z M44.2,91.4"/>
	<path class="st5" d="M44.2,91.4l0.5,0.5c-1.7,0.3-1.8,0.6-2.9,1.8c-1.5,1.6-1.3-1.5-2.2-0.5c-0.6,0.7-0.6,2.1-1.5,2.1
		c-1,0-0.1-2.2-1-1.6c-0.8,0.5-1.4,1.6-2.1,1.5c-0.6-0.1-0.7-1.7-0.2-2.3c0.8-0.8-0.8-0.6-0.2-1.6c0.2-0.4,1.5-0.2,2-0.4
		c0.5-0.3-0.3-1.4,0.8-1.4c1.1-0.1,1,1,1.7,1c0.6,0,0.9-1,2.1,0C42.7,91.6,43.1,91.2,44.2,91.4L44.2,91.4z M44.2,91.4 M44.2,91.4
		c-4-0.5-6.8,0.1-8.4,1.8 M37.6,90.7c0.6,0.2,1.2,0.5,1.7,0.7L38.4,93 M40.5,90.8l0.6,0.5l-0.3,1.1"/>
	<path class="st6" d="M37.1,49.4c0.4,0.3,1,0.4,1.7,0.4c0.8,0,0.1,0.8,0.7,1.8c-0.4,0.3-0.8,0.7-1,1.8c-0.9-0.6-0.1-1.7-0.8-2.8
		L37.1,49.4z M37.1,49.4"/>
	<path class="st7" d="M37.1,49.4c0.4,0.3,1,0.4,1.7,0.4c0.8,0,0.1,0.8,0.7,1.8c-0.4,0.3-0.8,0.7-1,1.8c-0.9-0.6-0.1-1.7-0.8-2.8
		L37.1,49.4z M37.1,49.4"/>
	<path class="st8" d="M50.5,92c0.7,0.3,1.5,1.2,1.6,2.4c0.1,1.2,0,2.7,2.4,3.9c1.1,0.5,2,0.7,3.1,0.3c0.8-0.3,1.3-1.4,0.4-1.7
		c-0.4-0.1-1-0.1-1.6-0.4c-0.7-0.3-0.7-1.2-0.5-1.4c0.5-0.4,1.2,0.3,2.2,0.5 M53.1,89.4c1.1-1,2,0,2.4,0.6c0.7,1.1,0.2,2,0.7,3
		 M41.4,83.3c1.4-1.2,1.7-3.3,1.3-5.6c-0.2-1.1-1-1.9-1.1-3.7 M57.3,96.7c-4.1-0.5-1.5-2.2-1.1-3.7c0.4-1.4,0.3-3.1,2.2-3
		c2.2,0.1,1.5,1.4,4.9,1.4c3.3,0,2.7-1.3,4.9-1.4c1.9-0.1,1.9,1.6,2.2,3c0.4,1.6,3,3.2-1.1,3.7 M58.5,97.4c0-0.6,0.2-1.5,0.4-1.7
		 M39.4,77.7l0.6,0.2"/>
	<path class="st4" d="M37.3,73.7c2.6,2.7,4.4,0.3,8.3,2c-3.4-1.2-1.3-5.1-8.2-3.4L37.3,73.7z M37.3,73.7"/>
	<path class="st5" d="M37.3,73.7c2.6,2.7,4.4,0.3,8.3,2c-3.4-1.2-1.3-5.1-8.2-3.4L37.3,73.7z M37.3,73.7 M43.2,74.5
		c-0.9-0.7-1.9-1.3-3-1.7"/>
	<path class="st4" d="M36.2,77.9c0,0.2,0.8,1.2,1.6,2.2c-0.1,0.1-0.2,0.1-0.2,0.2c-0.1,0.1-0.2,0.3-0.3,0.4l-0.3-0.6l-0.4-0.6
		l-0.4-0.7l-0.5-0.4c-1.7-1.4,2.6-5.8-0.7-7.5l0.1-0.5c0.5,0.2,1.5,1.5,0.9-0.5c-0.4-1.4-1.6-2.5-2.7-5.1l0.3-0.2
		c1,1.7,2.4,4.1,2.7,3.8l0.1-0.4l0.5,0.6l0,0.3l0.3-0.3l0.3,0.5c-0.8,1.1-0.6,2.1-0.5,3.2l-1.3,4.3l0,1.4L36.2,77.9z M36.2,77.9"/>
	<path class="st5" d="M36.2,77.9c0,0.2,0.8,1.2,1.6,2.2c-0.1,0.1-0.2,0.1-0.2,0.2c-0.1,0.1-0.2,0.3-0.3,0.4l-0.3-0.6l-0.4-0.6
		l-0.4-0.7l-0.5-0.4c-1.7-1.4,2.6-5.8-0.7-7.5l0.1-0.5c0.5,0.2,1.5,1.5,0.9-0.5c-0.4-1.4-1.6-2.5-2.7-5.1l0.3-0.2
		c1,1.7,2.4,4.1,2.7,3.8l0.1-0.4l0.5,0.6l0,0.3l0.3-0.3l0.3,0.5c-0.8,1.1-0.6,2.1-0.5,3.2l-1.3,4.3l0,1.4L36.2,77.9z M36.2,77.9"/>
	<path class="st8" d="M41.4,75.3c-0.3,0.8-0.8,1.4-0.8,2.7c0,2.1,1.6,2.4,1.4,4.3c-0.1,1.2-1.9,1.9-2.2,2.2
		c-1.1,1.2-0.7,4.4-0.3,5.1 M40.4,77.3c-0.2,0-0.3,0.1-0.3,0.4c-0.4,1.9-1.5,1.5-2.5,2.6c-1.4,1.6-0.7,2.9-1.1,3.7
		c-1.1,2.3-2.4,1.7-1.9,5.6c0.1,0.5,0.2,0.9,0.3,1.2 M38.5,53.5c-0.9-0.6-0.1-1.7-0.8-2.8c-0.3-0.4-0.6-0.7-1-1 M36.6,48.8
		c0.3,0.5,1,1,2.2,1c0.8,0,0.1,0.8,0.7,1.8"/>
	<path class="st4" d="M36.2,77.9c-0.2,0.4-0.6,0.3-0.8-0.1c0.1-1.9,0.7-3.4,1.4-5.3c0.4-1.2,1.4,0.1,1.7-2.9c0.2-1.7,1,0.4,2.6-2
		c0.6-0.9,2-0.5,1.7,0.1c-0.9,2.1,1.4,1.8-0.3,2.8c-2.3,1.4,0.3,2.5-2.1,2.7C35.9,73.7,36.2,76.4,36.2,77.9L36.2,77.9z M36.2,77.9"
		/>
	<path class="st5" d="M36.2,77.9c-0.2,0.4-0.6,0.3-0.8-0.1c0.1-1.9,0.7-3.4,1.4-5.3c0.4-1.2,1.4,0.1,1.7-2.9c0.2-1.7,1,0.4,2.6-2
		c0.6-0.9,2-0.5,1.7,0.1c-0.9,2.1,1.4,1.8-0.3,2.8c-2.3,1.4,0.3,2.5-2.1,2.7C35.9,73.7,36.2,76.4,36.2,77.9L36.2,77.9z M36.2,77.9
		 M36.1,74.4c1.4-3.6,2.5-0.2,5.6-6.2 M42.1,69.6l-1.2,0.2l0-0.4 M40.7,71.5l-1.3,0.1l0.5-1.2"/>
	<path class="st8" d="M55.9,92.2c-0.2,0.2-0.1,0.4-0.3,0.5 M52.5,93.7c-0.2,0.1-0.2,0.2-0.4,0.4"/>
	<path class="st4" d="M63,96c-3.3,2.5-6.6,4.4-7.4,6.6l-2.1-0.4c3.6-4.3,4.3-3.9,7.9-6.3C62,96,62.5,96,63,96L63,96z M63,96"/>
	<path class="st5" d="M63,96c-3.3,2.5-6.6,4.4-7.4,6.6l-2.1-0.4c3.6-4.3,4.3-3.9,7.9-6.3C62,96,62.5,96,63,96L63,96z M63,96"/>
	<path class="st4" d="M53.6,102.3c0,0.2,0.4,0.4,1,0.5s1.1,0,1.1-0.2c0-0.2-0.4-0.4-1-0.5C54.1,102,53.6,102.1,53.6,102.3
		L53.6,102.3z M53.6,102.3"/>
	<path class="st17" d="M53.6,102.3c0,0.2,0.4,0.4,1,0.5c0.6,0.1,1.1,0,1.1-0.2c0-0.2-0.4-0.4-1-0.5C54.1,102,53.6,102.1,53.6,102.3
		L53.6,102.3z M53.6,102.3"/>
	<path class="st8" d="M76.1,92c-0.7,0.3-1.5,1.2-1.6,2.4c-0.1,1.2,0,2.7-2.4,3.9c-1.1,0.5-2,0.7-3.1,0.3c-0.8-0.3-1.3-1.4-0.4-1.7
		c0.4-0.1,1-0.1,1.6-0.4c0.7-0.3,0.7-1.2,0.5-1.4c-0.5-0.4-1.1,0.3-2.2,0.5 M74.1,93.7c0.2,0.1,0.2,0.2,0.4,0.4 M68.1,97.4
		c0-0.6-0.2-1.5-0.4-1.7"/>
	<path class="st4" d="M63.6,96c3.3,2.5,6.6,4.4,7.4,6.6l2.1-0.4c-3.6-4.3-4.3-3.9-7.9-6.3C64.6,96,64.1,96,63.6,96L63.6,96z
		 M63.6,96"/>
	<path class="st5" d="M63.6,96c3.3,2.5,6.6,4.4,7.4,6.6l2.1-0.4c-3.6-4.3-4.3-3.9-7.9-6.3C64.6,96,64.1,96,63.6,96L63.6,96z
		 M63.6,96"/>
	<path class="st4" d="M73,102.3c0,0.2-0.4,0.4-1,0.5c-0.6,0.1-1.1,0-1.1-0.2c0-0.2,0.4-0.4,1-0.5C72.5,102,73,102.1,73,102.3
		L73,102.3z M73,102.3"/>
	<path class="st17" d="M73,102.3c0,0.2-0.4,0.4-1,0.5s-1.1,0-1.1-0.2c0-0.2,0.4-0.4,1-0.5C72.5,102,73,102.1,73,102.3L73,102.3z
		 M73,102.3"/>
	<path class="st8" d="M58.1,95.5c0.8,0.2,3.3,0.4,5.2,0.4c1.8,0,4.4-0.2,5.2-0.4 M73.5,89.4c-1.1-1-2,0-2.4,0.6
		c-0.7,1.1-0.2,2-0.7,3 M70.7,92.2c0.2,0.2,0.1,0.4,0.3,0.5"/>
	<path class="st4" d="M81.5,92.2l0.8-0.8l6.1,1.7c0.4,0.6,0.3,1.3,0.7,1.9c0.9,1.4-0.5,0.3-0.2,1.2c0.3,0.9,0.2,2-0.6,1.3
		c-1-0.8-1.2,0.1-1.7,0c-0.6-0.2-0.4-0.8-0.8-1.4c-0.2-0.3-1.6,0-1.9-0.5c-0.5-0.9-0.4-0.9-1.2-1.6C82.3,93.6,82.6,92.8,81.5,92.2
		L81.5,92.2z M81.5,92.2"/>
	<path class="st5" d="M81.5,92.2l0.8-0.8l6.1,1.7c0.4,0.6,0.3,1.3,0.7,1.9c0.9,1.4-0.5,0.3-0.2,1.2c0.3,0.9,0.2,2-0.6,1.3
		c-1-0.8-1.2,0.1-1.7,0c-0.6-0.2-0.4-0.8-0.8-1.4c-0.2-0.3-1.6,0-1.9-0.5c-0.5-0.9-0.4-0.9-1.2-1.6C82.3,93.6,82.6,92.8,81.5,92.2
		L81.5,92.2z M81.5,92.2 M87.4,95.7c-1.4-1.9-3.1-2.6-5.4-3.9 M83.6,92.7l0.2,1.1"/>
	<path class="st4" d="M75.8,92.4c0.5-0.1,0.9-0.4,1.2-1l0.5,0.1L77,92.3c1,0,1.6-0.4,1.7-1h0.6c-0.4,1.1,3.6-1.2,3.9-3.3l0.3-0.3
		c1.4-0.6,2.4-2.2,3.1-3.3c0.1,0,0.1,0.1,0.1,0.1c0.2,0.2,0.3,0.4,0.4,0.7c-1.4,2.3-3.5,3,0.2,3c0,0.3-0.1,0.5-0.1,0.7
		c-2.5-0.1-2.8-0.7-3.3,0c-0.5,0.7-2.3,2.5-1.7,2.5l-0.8,0.8c-0.7-0.3-1,0.1-1.6,0.3c-2.4,0.8-3.9,0.9-5.2,0.9
		c0.2-0.4,0.4-0.8,0.7-1L75.8,92.4z M75.8,92.4"/>
	<path class="st5" d="M75.8,92.4c0.5-0.1,0.9-0.4,1.2-1l0.5,0.1L77,92.3c1,0,1.6-0.4,1.7-1h0.6c-0.4,1.1,3.6-1.2,3.9-3.3l0.3-0.3
		c1.4-0.6,2.4-2.2,3.1-3.3c0.1,0,0.1,0.1,0.1,0.1c0.2,0.2,0.3,0.4,0.4,0.7c-1.4,2.3-3.5,3,0.2,3c0,0.3-0.1,0.5-0.1,0.7
		c-2.5-0.1-2.8-0.7-3.3,0c-0.5,0.7-2.3,2.5-1.7,2.5l-0.8,0.8c-0.7-0.3-1,0.1-1.6,0.3c-2.4,0.8-3.9,0.9-5.2,0.9
		c0.2-0.4,0.4-0.8,0.7-1L75.8,92.4z M75.8,92.4"/>
	<path class="st4" d="M76.9,91.4c-0.4-1.4-1.7-1.3-1.8-2.1c-0.2-1.1,0.7-0.6,0.8-1.4c0-0.9-1.1-0.9-0.8-2.6l5.5-1l-3.2,7.1
		L76.9,91.4z M76.9,91.4"/>
	<path class="st5" d="M76.9,91.4c-0.4-1.4-1.7-1.3-1.8-2.1c-0.2-1.1,0.7-0.6,0.8-1.4c0-0.9-1.1-0.9-0.8-2.6l5.5-1l-3.2,7.1
		L76.9,91.4z M76.9,91.4"/>
	<path class="st4" d="M78.7,91.2c-0.1-1.2-2-1-2-1.9c0.1-1,1.7-0.5,1.7-1.5c0.1-0.8-1-1.2-0.4-2.4l2.5-1c1.9,0.5,2.2,1.4,0.5,3.3
		c-0.4,0.4,1,0.7,0.7,1.3c-0.3,0.6-1.2-0.3-2.3,2.1H78.7z M78.7,91.2"/>
	<path class="st5" d="M78.7,91.2c-0.1-1.2-2-1-2-1.9c0.1-1,1.7-0.5,1.7-1.5c0.1-0.8-1-1.2-0.4-2.4l2.5-1c1.9,0.5,2.2,1.4,0.5,3.3
		c-0.4,0.4,1,0.7,0.7,1.3c-0.3,0.6-1.2-0.3-2.3,2.1H78.7z M78.7,91.2 M79,91.2c0.2-1.9,0.6-3.6,1.1-5.3"/>
	<path class="st4" d="M82.4,91.4l-0.5,0.5c1.7,0.3,1.8,0.6,2.9,1.8c1.5,1.6,1.3-1.5,2.2-0.5c0.6,0.7,0.6,2.1,1.5,2.1
		c1,0,0.1-2.2,1-1.6c0.8,0.5,1.4,1.6,2.1,1.5c0.6-0.1,0.7-1.7,0.2-2.3c-0.8-0.8,0.8-0.6,0.2-1.6c-0.2-0.4-1.5-0.2-2-0.4
		c-0.5-0.3,0.3-1.4-0.8-1.4c-1.1-0.1-1,1-1.7,1c-0.6,0-0.9-1-2.1,0C83.9,91.6,83.5,91.2,82.4,91.4L82.4,91.4z M82.4,91.4"/>
	<path class="st5" d="M82.4,91.4l-0.5,0.5c1.7,0.3,1.8,0.6,2.9,1.8c1.5,1.6,1.3-1.5,2.2-0.5c0.6,0.7,0.6,2.1,1.5,2.1
		c1,0,0.1-2.2,1-1.6c0.8,0.5,1.4,1.6,2.1,1.5c0.6-0.1,0.7-1.7,0.2-2.3c-0.8-0.8,0.8-0.6,0.2-1.6c-0.2-0.4-1.5-0.2-2-0.4
		c-0.5-0.3,0.3-1.4-0.8-1.4c-1.1-0.1-1,1-1.7,1c-0.6,0-0.9-1-2.1,0C83.9,91.6,83.5,91.2,82.4,91.4L82.4,91.4z M82.4,91.4 M82.4,91.4
		c4-0.5,6.8,0.1,8.4,1.8 M89,90.7c-0.6,0.2-1.2,0.5-1.7,0.7l0.9,1.6 M86.1,90.8l-0.6,0.5l0.3,1.1"/>
	<path class="st6" d="M85,59.3c0.1,0.6,0.1,1.1,0.2,1.5c0.1,0.2,0.7,1.5,1.3,1.3c0.3-0.1,0.1-0.5,0.2-0.9l0,0l0,0c0,0,0.1,0,0.1,0.1
		l0,0c0,0,0.1,0,0.1,0.1l0,0c0,0,0.1,0,0.1,0.1l0,0l0,0h0c0,0,0.1,0,0.1,0.1l0,0c0,0,0.1,0,0.1,0.1l0,0c0,0,0.1,0,0.1,0.1l0,0
		c0,0,0.1,0,0.1,0.1l0.1,0l0.1,0c0,0,0,0,0.1,0l0,0l0,0l0,0l0,0l0,0l0,0l0.1,0l0,0l0,0l0,0l0.1,0l0,0c2,1.6,3.4,3.6,2.4,5.4
		c0.9-1.6,0.4-3.9,0.9-4.9c0.6-1.5,1.9-2.5,0.1-3.8c-2-1.4-2.8-1.7-3.1-2.7h-4C84.7,56.8,84.9,58.2,85,59.3L85,59.3z M85,59.3"/>
	<path class="st7" d="M85,59.3c0.1,0.6,0.1,1.1,0.2,1.5c0.1,0.2,0.7,1.5,1.3,1.3c0.3-0.1,0.1-0.5,0.2-0.9l0,0l0,0c0,0,0.1,0,0.1,0.1
		l0,0c0,0,0.1,0,0.1,0.1l0,0c0,0,0.1,0,0.1,0.1l0,0l0,0h0c0,0,0.1,0,0.1,0.1l0,0c0,0,0.1,0,0.1,0.1l0,0c0,0,0.1,0,0.1,0.1l0,0
		c0,0,0.1,0,0.1,0.1l0.1,0l0.1,0c0,0,0,0,0.1,0l0,0l0,0l0,0l0,0l0,0l0,0l0.1,0l0,0l0,0l0,0l0.1,0l0,0c2,1.6,3.4,3.6,2.4,5.4
		c0.9-1.6,0.4-3.9,0.9-4.9c0.6-1.5,1.9-2.5,0.1-3.8c-2-1.4-2.8-1.7-3.1-2.7h-4C84.7,56.8,84.9,58.2,85,59.3L85,59.3z M85,59.3"/>
	<path class="st8" d="M86.7,61.3c2.8,1.6,5.2,4.4,3.7,6.5c-0.2,0.3-0.4,0.5-0.6,0.7 M84.2,56c0.7,0.8,0.7,3.7,1,4.8
		c0.1,0.2,0.7,1.5,1.3,1.3c0.3-0.1,0.1-0.5,0.2-0.9c0.3-0.8,0.8-1.4,1.3-1.9 M90.4,67.8c1.1-1.6,0.6-4.1,1-5.1
		c0.6-1.5,1.9-2.5,0.1-3.8c-2.7-1.8-3.3-1.8-3.3-4.1c0-4.1-2-2.4-2.1-5.3"/>
	<path class="st4" d="M38.5,67.8C39.8,67.4,42,68,49.2,65C41.2,63.1,41.7,63.7,38.5,67.8L38.5,67.8z M38.5,67.8"/>
	<path class="st5" d="M38.5,67.8C39.8,67.4,42,68,49.2,65C41.2,63.1,41.7,63.7,38.5,67.8L38.5,67.8z M38.5,67.8"/>
	<path class="st4" d="M39.5,62.2l-0.1,4.4C39,66.3,37,60.3,39.5,62.2L39.5,62.2z M39.5,62.2"/>
	<path class="st5" d="M39.5,62.2l-0.1,4.4C39,66.3,37,60.3,39.5,62.2L39.5,62.2z M39.5,62.2"/>
	<path class="st4" d="M37.4,69l-0.3-0.4c1.4-1.4,1.9-1.5,2-3c0.1-1.1-0.4-2.6-0.1-3.4c1.1-2.7,1.2,1.7,2.1-0.9
		c0.6-1.9,1.1-2.3,1.9-1.8c0.4,0.3,0.4,1.2-0.1,2.4c-0.9,2,1.3,1.1-0.2,2.8C41.3,66.3,38.8,67.2,37.4,69L37.4,69z M37.4,69"/>
	<path class="st5" d="M37.4,69l-0.3-0.4c1.4-1.4,1.9-1.5,2-3c0.1-1.1-0.4-2.6-0.1-3.4c1.1-2.7,1.2,1.7,2.1-0.9
		c0.6-1.9,1.1-2.3,1.9-1.8c0.4,0.3,0.4,1.2-0.1,2.4c-0.9,2,1.3,1.1-0.2,2.8C41.3,66.3,38.8,67.2,37.4,69L37.4,69z M37.4,69 M41,63.6
		c-0.6,2.5-2.1,3.6-3.7,5.2"/>
	<path class="st6" d="M41.6,59.3c-0.1,0.6-0.1,1.1-0.2,1.5c-0.1,0.2-0.7,1.5-1.3,1.3c-0.3-0.1-0.1-0.5-0.2-0.9l0,0l0,0
		c0,0-0.1,0-0.1,0.1l0,0c0,0-0.1,0-0.1,0.1l0,0c0,0-0.1,0-0.1,0.1l0,0l0,0c0,0-0.1,0-0.1,0.1l0,0c0,0-0.1,0-0.1,0.1l0,0
		c0,0-0.1,0-0.1,0.1l0,0c0,0-0.1,0-0.1,0.1l-0.1,0l-0.1,0c0,0,0,0-0.1,0l0,0l0,0l0,0l0,0l0,0l0,0l-0.1,0l0,0l0,0l0,0l-0.1,0l0,0
		c-2,1.6-3.4,3.6-2.4,5.4c-0.9-1.6-0.4-3.9-0.9-4.9c-0.6-1.5-1.9-2.5-0.1-3.8c2-1.4,2.8-1.7,3.1-2.7h4
		C41.9,56.8,41.7,58.2,41.6,59.3L41.6,59.3z M41.6,59.3"/>
	<path class="st7" d="M41.6,59.3c-0.1,0.6-0.1,1.1-0.2,1.5c-0.1,0.2-0.7,1.5-1.3,1.3c-0.3-0.1-0.1-0.5-0.2-0.9l0,0l0,0
		c0,0-0.1,0-0.1,0.1l0,0c0,0-0.1,0-0.1,0.1l0,0c0,0-0.1,0-0.1,0.1l0,0l0,0c0,0-0.1,0-0.1,0.1l0,0c0,0-0.1,0-0.1,0.1l0,0
		c0,0-0.1,0-0.1,0.1l0,0c0,0-0.1,0-0.1,0.1l-0.1,0l-0.1,0c0,0,0,0-0.1,0l0,0l0,0l0,0l0,0l0,0l0,0l-0.1,0l0,0l0,0l0,0l-0.1,0l0,0
		c-2,1.6-3.4,3.6-2.4,5.4c-0.9-1.6-0.4-3.9-0.9-4.9c-0.6-1.5-1.9-2.5-0.1-3.8c2-1.4,2.8-1.7,3.1-2.7h4
		C41.9,56.8,41.7,58.2,41.6,59.3L41.6,59.3z M41.6,59.3"/>
	<path class="st8" d="M39.9,61.3c-2.8,1.6-5.2,4.4-3.7,6.5c0.2,0.3,0.4,0.5,0.6,0.7 M42.4,56c-0.7,0.8-0.7,3.7-0.9,4.8
		c-0.1,0.2-0.7,1.5-1.3,1.3c-0.3-0.1-0.1-0.5-0.2-0.9c-0.3-0.8-0.8-1.4-1.3-1.9 M36.2,67.8c-1.1-1.6-0.6-4.1-1-5.1
		c-0.6-1.5-1.9-2.5-0.1-3.8c2.7-1.8,3.3-1.8,3.3-4.1c0-4.1,2-2.4,2.1-5.3"/>
	<path class="st18" d="M44,42.1h38.5v39.1c0,2.6-2.1,4.7-4.7,4.7L68,86.1c-2.4,0-4.4,1.8-4.6,4.1h-0.1c-0.3-2.3-2.3-4.1-4.7-4.1
		l-9.9-0.3c-2.6,0-4.7-2.1-4.7-4.7V42.1z M44,42.1"/>
	<path class="st19" d="M44,42.1h38.5v39.1c0,2.6-2.1,4.7-4.7,4.7L68,86.1c-2.4,0-4.4,1.8-4.6,4.1h-0.1c-0.3-2.3-2.3-4.1-4.7-4.1
		l-9.9-0.3c-2.6,0-4.7-2.1-4.7-4.7V42.1z M44,42.1"/>
	<path class="st20" d="M64.3,53.2c-2.7-0.5-2.6-2.8-2-4.7c0.3-0.9,1.3-2.7,3.4-3.4c-2.5-0.2-3,1.8-3.4,1.6c-0.3-0.1,0.1-1.9,0.4-2.6
		c-1.4,0.8-1,3.3-1.1,4.1c-0.2,1.9-0.6,2.2-1.8,0.7c-0.4-0.5-0.5-1-0.7-2.1c-0.7,2.6,1.7,3.8,2.2,4.8c0.2,0.4-0.2,0.7-1,0.4
		c-0.4-0.2-0.5-0.3-0.9-0.9c0.5,2.4,2,0.9,3,2.6c0.4-0.1,0.8-0.1,1.2,0L64.3,53.2z M64.3,53.2"/>
	<path class="st21" d="M74.8,65.3l0.4,0.5c0.2-0.1,0.6-0.3,0.6-0.7C75.8,64.3,75.7,65.3,74.8,65.3c-1.2-1-1.7-1.7-3.8-1.7
		c-1.8,0-1.7,0.6-3.1,0.7c-0.9,0-1-0.5-2.4-0.5c-0.9,0-1.7,0.6-2.2,0.2c-0.5-0.4-0.5-1.7-0.1-2.1c2.1-2.4,2.1-5.4,1.7-6.9
		c-0.1,0-0.2,0-0.3-0.1c0.8,0.2,1.4,0.2,1.7-0.7c0.2-0.5,0-0.4-0.2-0.2c-0.4,0.4-1,0.5-1.4,0.4c-0.4-0.5-1-0.8-1.7-0.9
		c-1.3,0-1.1,0.6-2.7,0.8l0.1,0.2l-0.1-0.2c-0.3,0-0.7,0.1-1.2,0.1l-0.3,1c1.6,0,2.1,0.6,0.5,0.6c-0.2,0-0.8-0.1-0.6,0.3
		c0.2,0.3,0.3,0.1,0.6,0.1c0.3,0,0.6,0,1,0.1c0.4,0,0.5,0.6,1.2,0.7c0.8,0.1,1.5-0.4,2.2-1.3c-0.7,0.9-1.4,1.4-2.2,1.3
		c0,0.9-0.2,1.9-1.4,2.1c-0.5,0.1-4.3,0.8-4.3,4.3c0,1.4,0,1.4,0,2.2c0.1,0.8,0.3,1.4,0.5,2c-1.5,0.3-1.6,0.6-2.4,0.8
		c-1.2,0.3-2.5,0.4-3.9,0.4L50.1,69c-0.6,1.5-2.5,2.6-4,3.9l0,0.1c0.1,0.6,0,1.3-0.1,1.8l0.7-0.3c0-0.5,0-1,0.3-1.4l0.4-0.2
		c1.2-1.3,2.3-2.2,3.7-3.2c1-0.4,2.3-0.3,3.1-0.2c1.1,0.2,2,0.9,3.3,1.2c-0.1-0.5-0.1-1.1-0.1-1.5c0,0.4,0,1,0.1,1.5
		c0.1,0.6,0.3,1.1,0.4,1.5c0.6,1.1,0.8,2,0.6,3.5l0.1,0.2c0.9,1.2,1.6,2.5,2,4.5l0,0.1c0,0.5-0.5,1.4-1.2,2.2l0.7,0.2
		c0.4-0.7,1-1.4,1.6-1.9l0-0.3c-0.8-1.6-1.5-3.5-1.8-5.4l0-0.2c-0.5-1-0.5-3.2,0.4-4c0.3-0.2,0-2.2,0.1-3.3c0,1.1,0.2,3-0.1,3.3
		c1.7,1.5,4.3,0.1,7.4-0.6c0.8-0.2,1.4-0.4,1.9-0.7c-0.5,0.3-1.1,0.5-1.9,0.7c-0.7,0.6-0.6,2.6,0.4,6.3c0,0.8-1.2,2.7-2.2,3.6
		c-0.3,0.9-0.7,1.5-1.3,2.1l0.7,0.2c0.3-0.7,0.8-1.2,1.3-1.4l0.3-0.3c0.2-1.2,1.7-3,2.6-4.1v-0.5c-0.8-1-0.9-1.5-0.9-1.8
		c0-1.2,2-1.2,2.8-3c-0.8-0.5-1.8-1.7-2.4-3.3c0.6,1.7,1.5,2.8,2.4,3.3c3.4,2,4.6,2.6,6.1,4.7c0.7,1,1.2,2.6,1.8,4.3
		c-0.4,0.8-0.8,1.3-1.2,1.8l0.7,0.2c0.3-0.5,0.9-1.3,1.4-1.4l-0.1-0.6c-0.8-1.5-1.1-3.1-1.3-4.9l-0.3-0.5c-2.2-1.3-3.7-3.5-3.4-5.4
		c0.2-1.3,1.6-2,0.1-4.5L74.8,65.3z M74.8,65.3"/>
	<path class="st22" d="M74.8,65.3l0.4,0.5c0.2-0.1,0.6-0.3,0.6-0.7C75.8,64.3,75.7,65.3,74.8,65.3c-1.2-1-1.7-1.7-3.8-1.7
		c-1.8,0-1.7,0.6-3.1,0.7c-0.9,0-1-0.5-2.4-0.5c-0.9,0-1.7,0.6-2.2,0.2c-0.5-0.4-0.5-1.7-0.1-2.1c2.1-2.4,2.1-5.4,1.7-6.9
		c-0.1,0-0.2,0-0.3-0.1c0.8,0.2,1.4,0.2,1.7-0.7c0.2-0.5,0-0.4-0.2-0.2c-0.4,0.4-1,0.5-1.4,0.4c-0.4-0.5-1-0.8-1.7-0.9
		c-1.3,0-1.1,0.6-2.7,0.8l0.1,0.2l-0.1-0.2c-0.3,0-0.7,0.1-1.2,0.1l-0.3,1c1.6,0,2.1,0.6,0.5,0.6c-0.2,0-0.8-0.1-0.6,0.3
		c0.2,0.3,0.3,0.1,0.6,0.1c0.3,0,0.6,0,1,0.1c0.4,0,0.5,0.6,1.2,0.7c0.8,0.1,1.5-0.4,2.2-1.3c-0.7,0.9-1.4,1.4-2.2,1.3
		c0,0.9-0.2,1.9-1.4,2.1c-0.5,0.1-4.3,0.8-4.3,4.3c0,1.4,0,1.4,0,2.2c0.1,0.8,0.3,1.4,0.5,2c-1.5,0.3-1.6,0.6-2.4,0.8
		c-1.2,0.3-2.5,0.4-3.9,0.4L50.1,69c-0.6,1.5-2.5,2.6-4,3.9l0,0.1c0.1,0.6,0,1.3-0.1,1.8l0.7-0.3c0-0.5,0-1,0.3-1.4l0.4-0.2
		c1.2-1.3,2.3-2.2,3.7-3.2c1-0.4,2.3-0.3,3.1-0.2c1.1,0.2,2,0.9,3.3,1.2c-0.1-0.5-0.1-1.1-0.1-1.5c0,0.4,0,1,0.1,1.5
		c0.1,0.6,0.3,1.1,0.4,1.5c0.6,1.1,0.8,2,0.6,3.5l0.1,0.2c0.9,1.2,1.6,2.5,2,4.5l0,0.1c0,0.5-0.5,1.4-1.2,2.2l0.7,0.2
		c0.4-0.7,1-1.4,1.6-1.9l0-0.3c-0.8-1.6-1.5-3.5-1.8-5.4l0-0.2c-0.5-1-0.5-3.2,0.4-4c0.3-0.2,0-2.2,0.1-3.3c0,1.1,0.2,3-0.1,3.3
		c1.7,1.5,4.3,0.1,7.4-0.6c0.8-0.2,1.4-0.4,1.9-0.7c-0.5,0.3-1.1,0.5-1.9,0.7c-0.7,0.6-0.6,2.6,0.4,6.3c0,0.8-1.2,2.7-2.2,3.6
		c-0.3,0.9-0.7,1.5-1.3,2.1l0.7,0.2c0.3-0.7,0.8-1.2,1.3-1.4l0.3-0.3c0.2-1.2,1.7-3,2.6-4.1v-0.5c-0.8-1-0.9-1.5-0.9-1.8
		c0-1.2,2-1.2,2.8-3c-0.8-0.5-1.8-1.7-2.4-3.3c0.6,1.7,1.5,2.8,2.4,3.3c3.4,2,4.6,2.6,6.1,4.7c0.7,1,1.2,2.6,1.8,4.3
		c-0.4,0.8-0.8,1.3-1.2,1.8l0.7,0.2c0.3-0.5,0.9-1.3,1.4-1.4l-0.1-0.6c-0.8-1.5-1.1-3.1-1.3-4.9l-0.3-0.5c-2.2-1.3-3.7-3.5-3.4-5.4
		c0.2-1.3,1.6-2,0.1-4.5L74.8,65.3z M74.8,65.3"/>
	<path class="st20" d="M62.7,54.7c0,0.1-0.2,0.2-0.3,0.2c-0.2,0-0.3-0.1-0.3-0.2c0-0.1,0.2-0.2,0.3-0.2
		C62.5,54.5,62.7,54.6,62.7,54.7L62.7,54.7z M62.7,54.7"/>
	<path class="st8" d="M84.4,50.2c-0.8,0.8-3.4,2-0.2,5.9 M42.2,50.2c0.8,0.8,3.4,2,0.2,5.9"/>
	<path class="st23" d="M59.3,54.4l-0.3,1c-0.3,0-0.4-0.3-0.4-0.7C58.7,54.4,58.9,54.4,59.3,54.4L59.3,54.4z M59.3,54.4"/>
	<path class="st24" d="M59.3,54.4l-0.3,1c-0.3,0-0.4-0.3-0.4-0.7C58.7,54.4,58.9,54.4,59.3,54.4L59.3,54.4z M59.3,54.4"/>
	<path class="st20" d="M65.3,83.8l0-0.7l-0.7-0.2c-0.4,0.2-0.7,0.5-1,0.9H65.3z M65.3,83.8"/>
	<path class="st25" d="M65.3,83.8l0-0.7l-0.7-0.2c-0.4,0.2-0.7,0.5-1,0.9H65.3z M65.3,83.8"/>
	<path class="st20" d="M60.2,83.8l0-0.7l-0.7-0.2c-0.4,0.2-0.7,0.5-1,0.9H60.2z M60.2,83.8"/>
	<path class="st25" d="M60.2,83.8l0-0.7l-0.7-0.2c-0.4,0.2-0.7,0.5-1,0.9H60.2z M60.2,83.8"/>
	<path class="st20" d="M78.8,83.8l0-0.7l-0.7-0.2c-0.4,0.2-0.7,0.5-1,0.9H78.8z M78.8,83.8"/>
	<path class="st25" d="M78.8,83.8l0-0.7l-0.7-0.2c-0.4,0.2-0.7,0.5-1,0.9H78.8z M78.8,83.8"/>
	<path class="st20" d="M47.1,75.2l-0.4-0.6L46,74.9c-0.2,0.4-0.3,0.8-0.3,1.3L47.1,75.2z M47.1,75.2"/>
	<path class="st25" d="M47.1,75.2l-0.4-0.6L46,74.9c-0.2,0.4-0.3,0.8-0.3,1.3L47.1,75.2z M47.1,75.2"/>
	<path class="st20" d="M63.6,53.6c0.4,0.1,0.7,0.3,1.1,0.7c1.7-1.5,4-1.8,5-3.8c0.7-1.3,0.9-4.7-0.3-6.7c0.7,4.9-0.2,6.3-1.3,1.7
		c-0.5,2.6,1.8,4.4,0.3,5.8c-0.8,0.7-1.4-0.2-1.9-2.3c-0.8,2,0.7,2.7,0,3.4c-0.8,0.9-1.9,0.8-2.1-1.3c-0.5,0.7-0.3,1.5,0,2.2
		l-0.6-0.1l-0.9,0L63.6,53.6z M63.6,53.6"/>
	<path class="st26" d="M64.8,29.2c0.6-3.7,1-4.9,2.4-7c8.1-1.1,12.8,7,5.7,14l-7.6-1.3l-1.4-3.1L64.8,29.2z M64.8,29.2"/>
	<path class="st27" d="M64.8,29.2c0.6-3.7,1-4.9,2.4-7c8.1-1.1,12.8,7,5.7,14l-7.6-1.3l-1.4-3.1L64.8,29.2z M64.8,29.2"/>
	<path class="st26" d="M61.8,29.2c-0.6-3.7-1-4.9-2.4-7c-8.1-1.1-12.8,7-5.7,14l7.6-1.3l1.4-3.1L61.8,29.2z M61.8,29.2"/>
	<path class="st27" d="M61.8,29.2c-0.6-3.7-1-4.9-2.4-7c-8.1-1.1-12.8,7-5.7,14l7.6-1.3l1.4-3.1L61.8,29.2z M61.8,29.2"/>
	<path class="st4" d="M65,27.8l-0.2,1.4l-0.8,2.6l1.3,3.1l7.6,1.3L74,35l0.1,2.6H52.6l0.1-2.6l1.1,1.2l7.6-1.3l1.3-3.1l-0.8-2.6
		l-0.3-1.4H65z M65,27.8"/>
	<path class="st3" d="M65,27.8l-0.2,1.4l-0.8,2.6l1.3,3.1l7.6,1.3L74,35l0.1,2.6H52.6l0.1-2.6l1.1,1.2l7.6-1.3l1.3-3.1l-0.8-2.6
		l-0.3-1.4H65z M65,27.8"/>
	<path class="st4" d="M57.9,35.5c-0.1-5.8-0.6-9-1.5-13.4c1-0.1,1.8-0.1,2.7-0.1c1,3.6,1.7,8.8,1.7,13.2L57.9,35.5z M57.9,35.5"/>
	<path class="st3" d="M57.9,35.5c-0.1-5.8-0.6-9-1.5-13.4c1-0.1,1.8-0.1,2.7-0.1c1,3.6,1.7,8.8,1.7,13.2L57.9,35.5z M57.9,35.5"/>
	<path class="st4" d="M56.3,32.9c0.7-0.1,1,0.1,1.2,0.6l0.1,0c0.1-0.9,0.2-1,0.9-1.4l0-0.2c-0.7-0.1-0.8-0.2-1.2-1l-0.1,0
		c-0.1,0.6-0.3,0.9-1,1c-0.1-1.1,0.1-1.5,0.7-1.9l0-0.2c-1-0.2-1.2-0.4-1.6-1.4l-0.2,0C55,29.8,54.9,30,54,30.5l0,0.2
		c0.7,0.1,1,0.5,1.2,1.5c-0.7,0.1-1-0.1-1.2-0.6l-0.1,0c-0.1,0.9-0.2,1-0.9,1.4l0,0.2c0.7,0.1,0.8,0.2,1.2,1l0.1,0
		c0.1-0.6,0.3-0.9,1-1c0,1.4,0,2.8-0.8,3.1c1.1-0.3,2.2-0.5,3.4-0.7C57.1,35.5,56.6,34.3,56.3,32.9L56.3,32.9z M56.3,32.9"/>
	<path class="st3" d="M56.3,32.9c0.7-0.1,1,0.1,1.2,0.6l0.1,0c0.1-0.9,0.2-1,0.9-1.4l0-0.2c-0.7-0.1-0.8-0.2-1.2-1l-0.1,0
		c-0.1,0.6-0.3,0.9-1,1c-0.1-1.1,0.1-1.5,0.7-1.9l0-0.2c-1-0.2-1.2-0.4-1.6-1.4l-0.2,0C55,29.8,54.9,30,54,30.5l0,0.2
		c0.7,0.1,1,0.5,1.2,1.5c-0.7,0.1-1-0.1-1.2-0.6l-0.1,0c-0.1,0.9-0.2,1-0.9,1.4l0,0.2c0.7,0.1,0.8,0.2,1.2,1l0.1,0
		c0.1-0.6,0.3-0.9,1-1c0,1.4,0,2.8-0.8,3.1c1.1-0.3,2.2-0.5,3.4-0.7C57.1,35.5,56.6,34.3,56.3,32.9L56.3,32.9z M56.3,32.9"/>
	<path class="st4" d="M51.5,34.3c0.9,1.3,1,2.1,2.1,2.3c-0.4,0.2-0.9,0.5-0.9,0.9c-0.5-0.9-0.8-1.8-1.5-3l0.1,0.6
		c-0.5-0.6-0.8-1.3-0.9-2l0.4,0.5c-0.3-0.9-0.2-0.9-0.6-1.8c-0.1-0.2-0.1-0.6-0.2-0.8c0-0.4,0-0.8-0.1-1.4l0.1,0
		c0.4,1.2,0.3,1.3,0.9,1.6l0.1,0.2c-0.3,0.4-0.3,0.9,0,2.1c0.3-0.2,0.3-0.5,0.3-1.2l0.1,0c0.3,0.8,0.4,0.9,0.8,0.9l0,0.2
		c-0.2,0.4-0.2,0.6,0.2,1.5l0,0C52,34.2,51.8,34.1,51.5,34.3L51.5,34.3z M51.5,34.3"/>
	<path class="st3" d="M51.5,34.3c0.9,1.3,1,2.1,2.1,2.3c-0.4,0.2-0.9,0.5-0.9,0.9c-0.5-0.9-0.8-1.8-1.5-3l0.1,0.6
		c-0.5-0.6-0.8-1.3-0.9-2l0.4,0.5c-0.3-0.9-0.2-0.9-0.6-1.8c-0.1-0.2-0.1-0.6-0.2-0.8c0-0.4,0-0.8-0.1-1.4l0.1,0
		c0.4,1.2,0.3,1.3,0.9,1.6l0.1,0.2c-0.3,0.4-0.3,0.9,0,2.1c0.3-0.2,0.3-0.5,0.3-1.2l0.1,0c0.3,0.8,0.4,0.9,0.8,0.9l0,0.2
		c-0.2,0.4-0.2,0.6,0.2,1.5l0,0C52,34.2,51.8,34.1,51.5,34.3L51.5,34.3z M51.5,34.3"/>
	<path class="st4" d="M68.7,35.5c0.1-5.8,0.6-9,1.5-13.4c-1-0.1-1.8-0.1-2.7-0.1c-1,3.6-1.7,8.8-1.7,13.2L68.7,35.5z M68.7,35.5"/>
	<path class="st3" d="M68.7,35.5c0.1-5.8,0.6-9,1.5-13.4c-1-0.1-1.8-0.1-2.7-0.1c-1,3.6-1.7,8.8-1.7,13.2L68.7,35.5z M68.7,35.5"/>
	<path class="st4" d="M70.3,32.9c-0.7-0.1-1,0.1-1.2,0.6l-0.1,0c-0.1-0.9-0.2-1-0.9-1.4l0-0.2c0.7-0.1,0.8-0.2,1.2-1l0.1,0
		c0.1,0.6,0.3,0.9,1,1c0.1-1.1-0.1-1.5-0.7-1.9l0-0.2c1-0.2,1.2-0.4,1.6-1.4l0.2,0c0.1,1.1,0.2,1.3,1.1,1.8l0,0.2
		c-0.7,0.1-1,0.5-1.2,1.5c0.7,0.1,1-0.1,1.2-0.6l0.1,0c0.1,0.9,0.2,1,0.9,1.4l0,0.2c-0.7,0.1-0.8,0.2-1.2,1l-0.1,0
		c-0.1-0.6-0.3-0.9-1-1c0,1.4,0,2.8,0.8,3.1c-1.1-0.3-2.2-0.5-3.4-0.7C69.5,35.5,70,34.3,70.3,32.9L70.3,32.9z M70.3,32.9"/>
	<path class="st3" d="M70.3,32.9c-0.7-0.1-1,0.1-1.2,0.6l-0.1,0c-0.1-0.9-0.2-1-0.9-1.4l0-0.2c0.7-0.1,0.8-0.2,1.2-1l0.1,0
		c0.1,0.6,0.3,0.9,1,1c0.1-1.1-0.1-1.5-0.7-1.9l0-0.2c1-0.2,1.2-0.4,1.6-1.4l0.2,0c0.1,1.1,0.2,1.3,1.1,1.8l0,0.2
		c-0.7,0.1-1,0.5-1.2,1.5c0.7,0.1,1-0.1,1.2-0.6l0.1,0c0.1,0.9,0.2,1,0.9,1.4l0,0.2c-0.7,0.1-0.8,0.2-1.2,1l-0.1,0
		c-0.1-0.6-0.3-0.9-1-1c0,1.4,0,2.8,0.8,3.1c-1.1-0.3-2.2-0.5-3.4-0.7C69.5,35.5,70,34.3,70.3,32.9L70.3,32.9z M70.3,32.9"/>
	<path class="st4" d="M75.1,34.3c-0.9,1.3-1,2.1-2.1,2.3c0.4,0.2,0.9,0.5,0.9,0.9c0.5-0.9,0.8-1.8,1.5-3L75.3,35
		c0.5-0.6,0.8-1.3,0.9-2l-0.3,0.6c0.3-0.9,0.2-0.9,0.6-1.8c0.1-0.2,0.1-0.6,0.2-0.8c0-0.4,0-0.8,0.1-1.4l-0.1,0
		c-0.4,1.2-0.3,1.3-0.9,1.6l-0.1,0.2c0.3,0.4,0.3,0.9,0,2.1c-0.3-0.2-0.3-0.5-0.3-1.2l-0.1,0c-0.3,0.8-0.4,0.9-0.8,0.9l0,0.2
		c0.2,0.4,0.2,0.6-0.2,1.5l0,0C74.6,34.2,74.9,34.1,75.1,34.3L75.1,34.3z M75.1,34.3"/>
	<path class="st3" d="M75.1,34.3c-0.9,1.3-1,2.1-2.1,2.3c0.4,0.2,0.9,0.5,0.9,0.9c0.5-0.9,0.8-1.8,1.5-3L75.3,35
		c0.5-0.6,0.8-1.3,0.9-2l-0.3,0.6c0.3-0.9,0.2-0.9,0.6-1.8c0.1-0.2,0.1-0.6,0.2-0.8c0-0.4,0-0.8,0.1-1.4l-0.1,0
		c-0.4,1.2-0.3,1.3-0.9,1.6l-0.1,0.2c0.3,0.4,0.3,0.9,0,2.1c-0.3-0.2-0.3-0.5-0.3-1.2l-0.1,0c-0.3,0.8-0.4,0.9-0.8,0.9l0,0.2
		c0.2,0.4,0.2,0.6-0.2,1.5l0,0C74.6,34.2,74.9,34.1,75.1,34.3L75.1,34.3z M75.1,34.3"/>
	<path class="st4" d="M64.3,29.7c0.2-5.8,0.3-4.9,0.9-7h-3.9c0.6,2.1,0.7,1.2,0.9,7H64.3z M64.3,29.7"/>
	<path class="st3" d="M64.3,29.7c0.2-5.8,0.3-4.9,0.9-7h-3.9c0.6,2.1,0.7,1.2,0.9,7H64.3z M64.3,29.7"/>
	<path class="st28" d="M65.3,22.7c-0.2,0.9-1,1.5-2,1.5c-1,0-1.8-0.7-2-1.5H65.3z M65.3,22.7"/>
	<path class="st3" d="M65.3,22.7c-0.2,0.9-1,1.5-2,1.5c-1,0-1.8-0.7-2-1.5H65.3z M65.3,22.7"/>
	<path class="st28" d="M62.8,21.8h-1.5c0.2-0.7,0.8-1.3,1.5-1.5V21.8z M62.8,21.8"/>
	<path class="st3" d="M62.8,21.8h-1.5c0.2-0.7,0.8-1.3,1.5-1.5V21.8z M62.8,21.8"/>
	<path class="st28" d="M63.8,20.3c0.7,0.2,1.3,0.8,1.5,1.5h-1.5V20.3z M63.8,20.3"/>
	<path class="st3" d="M63.8,20.3c0.7,0.2,1.3,0.8,1.5,1.5h-1.5V20.3z M63.8,20.3"/>
	<path class="st29" d="M63.8,20.3v1.5h1.5c0,0.2,0.1,0.3,0.1,0.5s0,0.3-0.1,0.5h-3.9c0-0.2-0.1-0.3-0.1-0.5s0-0.3,0.1-0.5h1.5v-1.5
		c0.2,0,0.3-0.1,0.5-0.1C63.5,20.2,63.6,20.2,63.8,20.3L63.8,20.3z M63.8,20.3"/>
	<path class="st3" d="M63.8,20.3v1.5h1.5c0,0.2,0.1,0.3,0.1,0.5s0,0.3-0.1,0.5h-3.9c0-0.2-0.1-0.3-0.1-0.5s0-0.3,0.1-0.5h1.5v-1.5
		c0.2,0,0.3-0.1,0.5-0.1C63.5,20.2,63.6,20.2,63.8,20.3L63.8,20.3z M63.8,20.3"/>
	<g>
		<defs>
			<rect id="SVGID_10_" x="20.7" y="16.3" width="85.1" height="87.9"/>
		</defs>
		<clipPath id="SVGID_11_">
			<use xlink:href="#SVGID_10_"  style="overflow:visible;"/>
		</clipPath>
		<path class="st30" d="M63,18.3c-0.9,0-1.2,0.1-1.4,0.5v-1.4c0.2,0.3,0.5,0.5,1.4,0.5c0-0.9-0.1-1.2-0.5-1.4H64
			c-0.3,0.2-0.5,0.5-0.5,1.4c0.9,0,1.2-0.1,1.4-0.5v1.4c-0.2-0.3-0.5-0.5-1.4-0.5c0,0.9,0.1,1.2,0.5,1.4v0.7
			c-0.2-0.1-0.5-0.1-0.7-0.1c-0.3,0-0.5,0-0.7,0.1v-0.7C62.9,19.5,63,19.2,63,18.3L63,18.3z M63,18.3"/>
		<path class="st31" d="M63,18.3c-0.9,0-1.2,0.1-1.4,0.5v-1.4c0.2,0.3,0.5,0.5,1.4,0.5c0-0.9-0.1-1.2-0.5-1.4H64
			c-0.3,0.2-0.5,0.5-0.5,1.4c0.9,0,1.2-0.1,1.4-0.5v1.4c-0.2-0.3-0.5-0.5-1.4-0.5c0,0.9,0.1,1.2,0.5,1.4v0.7
			c-0.2-0.1-0.5-0.1-0.7-0.1c-0.3,0-0.5,0-0.7,0.1v-0.7C62.9,19.5,63,19.2,63,18.3L63,18.3z M63,18.3"/>
	</g>
	<path class="st4" d="M63.4,28c0.3,1.1,0.5,1.2,1.7,1.6v0.2c-0.8,0.2-1.1,0.7-1.2,1.7c0.9,0,1.2-0.2,1.4-0.9h0.1
		c0.3,0.8,0.5,1,1.3,1.2l0,0.2c-0.8,0.2-1,0.4-1.3,1.2h-0.1c-0.2-0.6-0.5-0.8-1.4-0.9c0.2,1.4,0.3,2.7,1.3,2.8h-3.9
		c1-0.2,1.2-1.5,1.3-2.8c-0.9,0-1.2,0.2-1.4,0.9h-0.1c-0.3-0.8-0.5-1-1.3-1.2l0-0.2c0.8-0.2,1-0.4,1.3-1.2h0.1
		c0.2,0.6,0.5,0.8,1.4,0.9c0-1.1-0.3-1.5-1.2-1.7l0-0.2c1.2-0.4,1.4-0.6,1.7-1.6C63.3,28,63.3,28,63.4,28L63.4,28z M63.4,28"/>
	<path class="st3" d="M63.4,28c0.3,1.1,0.5,1.2,1.7,1.6v0.2c-0.8,0.2-1.1,0.7-1.2,1.7c0.9,0,1.2-0.2,1.4-0.9h0.1
		c0.3,0.8,0.5,1,1.3,1.2l0,0.2c-0.8,0.2-1,0.4-1.3,1.2h-0.1c-0.2-0.6-0.5-0.8-1.4-0.9c0.2,1.4,0.3,2.7,1.3,2.8h-3.9
		c1-0.2,1.2-1.5,1.3-2.8c-0.9,0-1.2,0.2-1.4,0.9h-0.1c-0.3-0.8-0.5-1-1.3-1.2l0-0.2c0.8-0.2,1-0.4,1.3-1.2h0.1
		c0.2,0.6,0.5,0.8,1.4,0.9c0-1.1-0.3-1.5-1.2-1.7l0-0.2c1.2-0.4,1.4-0.6,1.7-1.6C63.3,28,63.3,28,63.4,28L63.4,28z M63.4,28"/>
	<path class="st32" d="M62.9,31h0.9c0.3,0,0.5,0.2,0.5,0.5v0.9c0,0.3-0.2,0.5-0.5,0.5h-0.9c-0.3,0-0.5-0.2-0.5-0.5v-0.9
		C62.4,31.2,62.6,31,62.9,31L62.9,31z M62.9,31"/>
	<path class="st33" d="M62.9,31h0.9c0.3,0,0.5,0.2,0.5,0.5v0.9c0,0.3-0.2,0.5-0.5,0.5h-0.9c-0.3,0-0.5-0.2-0.5-0.5v-0.9
		C62.4,31.2,62.6,31,62.9,31L62.9,31z M62.9,31"/>
	<path class="st32" d="M70.7,31.6l0.7,0.1c0.3,0,0.5,0.3,0.4,0.6l-0.1,0.7c0,0.3-0.3,0.5-0.6,0.5l-0.7-0.1c-0.3,0-0.5-0.3-0.4-0.6
		l0.1-0.7C70.1,31.8,70.4,31.6,70.7,31.6L70.7,31.6z M70.7,31.6"/>
	<path class="st34" d="M70.7,31.6l0.7,0.1c0.3,0,0.5,0.3,0.4,0.6l-0.1,0.7c0,0.3-0.3,0.5-0.6,0.5l-0.7-0.1c-0.3,0-0.5-0.3-0.4-0.6
		l0.1-0.7C70.1,31.8,70.4,31.6,70.7,31.6L70.7,31.6z M70.7,31.6"/>
	<path class="st32" d="M55.9,31.6l-0.7,0.1c-0.3,0-0.5,0.3-0.4,0.6l0.1,0.7c0,0.3,0.3,0.5,0.6,0.5l0.7-0.1c0.3,0,0.5-0.3,0.4-0.6
		l-0.1-0.7C56.5,31.8,56.2,31.6,55.9,31.6L55.9,31.6z M55.9,31.6"/>
	<path class="st34" d="M55.9,31.6l-0.7,0.1c-0.3,0-0.5,0.3-0.4,0.6l0.1,0.7c0,0.3,0.3,0.5,0.6,0.5l0.7-0.1c0.3,0,0.5-0.3,0.4-0.6
		l-0.1-0.7C56.5,31.8,56.2,31.6,55.9,31.6L55.9,31.6z M55.9,31.6"/>
	<path class="st32" d="M75.9,33.1l0.1,0.1c0.1,0,0,0.3-0.1,0.5l-0.3,0.7c-0.1,0.3-0.3,0.5-0.3,0.5l-0.1-0.1c-0.1,0,0-0.3,0.1-0.5
		l0.3-0.7C75.7,33.2,75.9,33,75.9,33.1L75.9,33.1z M75.9,33.1"/>
	<path class="st34" d="M75.9,33.1l0.1,0.1c0.1,0,0,0.3-0.1,0.5l-0.3,0.7c-0.1,0.3-0.3,0.5-0.3,0.5l-0.1-0.1c-0.1,0,0-0.3,0.1-0.5
		l0.3-0.7C75.7,33.2,75.9,33,75.9,33.1L75.9,33.1z M75.9,33.1"/>
	<path class="st32" d="M76.1,33.1c0.5,0.2-0.3,1.9-0.8,1.7c0,0,0-0.3,0.2-0.5l0.3-0.7C75.9,33.3,76,33.1,76.1,33.1L76.1,33.1z
		 M76.1,33.1"/>
	<path class="st33" d="M76.1,33.1c0.5,0.2-0.3,1.9-0.8,1.7c0,0,0-0.3,0.2-0.5l0.3-0.7C75.9,33.3,76,33.1,76.1,33.1L76.1,33.1z
		 M76.1,33.1"/>
	<path class="st28" d="M63.2,24.9h0.3c0.2,0,0.4,0.2,0.4,0.4v0.3c0,0.2-0.2,0.4-0.4,0.4h-0.3c-0.2,0-0.4-0.2-0.4-0.4v-0.3
		C62.8,25.1,62.9,24.9,63.2,24.9L63.2,24.9z M63.2,24.9"/>
	<path class="st33" d="M63.2,24.9h0.3c0.2,0,0.4,0.2,0.4,0.4v0.3c0,0.2-0.2,0.4-0.4,0.4h-0.3c-0.2,0-0.4-0.2-0.4-0.4v-0.3
		C62.8,25.1,62.9,24.9,63.2,24.9L63.2,24.9z M63.2,24.9"/>
	<path class="st28" d="M63.2,26.5h0.3c0.2,0,0.4,0.2,0.4,0.4v0.3c0,0.2-0.2,0.4-0.4,0.4h-0.3c-0.2,0-0.4-0.2-0.4-0.4v-0.3
		C62.8,26.7,62.9,26.5,63.2,26.5L63.2,26.5z M63.2,26.5"/>
	<path class="st33" d="M63.2,26.5h0.3c0.2,0,0.4,0.2,0.4,0.4v0.3c0,0.2-0.2,0.4-0.4,0.4h-0.3c-0.2,0-0.4-0.2-0.4-0.4v-0.3
		C62.8,26.7,62.9,26.5,63.2,26.5L63.2,26.5z M63.2,26.5"/>
	<path class="st28" d="M67,32.7h0.5c0.2,0,0.4,0.2,0.4,0.4v0.5c0,0.2-0.2,0.4-0.4,0.4H67c-0.2,0-0.4-0.2-0.4-0.4v-0.5
		C66.6,32.9,66.8,32.7,67,32.7L67,32.7z M67,32.7"/>
	<path class="st33" d="M67,32.7h0.5c0.2,0,0.4,0.2,0.4,0.4v0.5c0,0.2-0.2,0.4-0.4,0.4H67c-0.2,0-0.4-0.2-0.4-0.4v-0.5
		C66.6,32.9,66.8,32.7,67,32.7L67,32.7z M67,32.7"/>
	<path class="st28" d="M67.2,31h0.4c0.2,0,0.4,0.2,0.4,0.4v0.4c0,0.2-0.2,0.4-0.4,0.4h-0.4c-0.2,0-0.4-0.2-0.4-0.4v-0.4
		C66.8,31.1,67,31,67.2,31L67.2,31z M67.2,31"/>
	<path class="st33" d="M67.2,31h0.4c0.2,0,0.4,0.2,0.4,0.4v0.4c0,0.2-0.2,0.4-0.4,0.4h-0.4c-0.2,0-0.4-0.2-0.4-0.4v-0.4
		C66.8,31.1,67,31,67.2,31L67.2,31z M67.2,31"/>
	<path class="st28" d="M67.3,29.3h0.4c0.2,0,0.4,0.2,0.4,0.4v0.4c0,0.2-0.2,0.4-0.4,0.4h-0.4c-0.2,0-0.4-0.2-0.4-0.4v-0.4
		C67,29.5,67.1,29.3,67.3,29.3L67.3,29.3z M67.3,29.3"/>
	<path class="st33" d="M67.3,29.3h0.4c0.2,0,0.4,0.2,0.4,0.4v0.4c0,0.2-0.2,0.4-0.4,0.4h-0.4c-0.2,0-0.4-0.2-0.4-0.4v-0.4
		C67,29.5,67.1,29.3,67.3,29.3L67.3,29.3z M67.3,29.3"/>
	<path class="st28" d="M67.6,27.6h0.3c0.2,0,0.4,0.2,0.4,0.4v0.3c0,0.2-0.2,0.4-0.4,0.4h-0.3c-0.2,0-0.4-0.2-0.4-0.4V28
		C67.2,27.8,67.3,27.6,67.6,27.6L67.6,27.6z M67.6,27.6"/>
	<path class="st33" d="M67.6,27.6h0.3c0.2,0,0.4,0.2,0.4,0.4v0.3c0,0.2-0.2,0.4-0.4,0.4h-0.3c-0.2,0-0.4-0.2-0.4-0.4V28
		C67.2,27.8,67.3,27.6,67.6,27.6L67.6,27.6z M67.6,27.6"/>
	<path class="st28" d="M67.8,26h0.3c0.2,0,0.4,0.2,0.4,0.4v0.3c0,0.2-0.2,0.4-0.4,0.4h-0.3c-0.2,0-0.4-0.2-0.4-0.4v-0.3
		C67.4,26.2,67.6,26,67.8,26L67.8,26z M67.8,26"/>
	<path class="st33" d="M67.8,26h0.3c0.2,0,0.4,0.2,0.4,0.4v0.3c0,0.2-0.2,0.4-0.4,0.4h-0.3c-0.2,0-0.4-0.2-0.4-0.4v-0.3
		C67.4,26.2,67.6,26,67.8,26L67.8,26z M67.8,26"/>
	<path class="st28" d="M68.1,24.3h0.3c0.2,0,0.4,0.2,0.4,0.4v0.3c0,0.2-0.2,0.4-0.4,0.4h-0.3c-0.2,0-0.4-0.2-0.4-0.4v-0.3
		C67.7,24.5,67.9,24.3,68.1,24.3L68.1,24.3z M68.1,24.3"/>
	<path class="st33" d="M68.1,24.3h0.3c0.2,0,0.4,0.2,0.4,0.4v0.3c0,0.2-0.2,0.4-0.4,0.4h-0.3c-0.2,0-0.4-0.2-0.4-0.4v-0.3
		C67.7,24.5,67.9,24.3,68.1,24.3L68.1,24.3z M68.1,24.3"/>
	<path class="st28" d="M68.4,22.7h0.2c0.2,0,0.4,0.2,0.4,0.4v0.2c0,0.2-0.2,0.4-0.4,0.4h-0.2c-0.2,0-0.4-0.2-0.4-0.4v-0.2
		C68.1,22.9,68.2,22.7,68.4,22.7L68.4,22.7z M68.4,22.7"/>
	<path class="st33" d="M68.4,22.7h0.2c0.2,0,0.4,0.2,0.4,0.4v0.2c0,0.2-0.2,0.4-0.4,0.4h-0.2c-0.2,0-0.4-0.2-0.4-0.4v-0.2
		C68.1,22.9,68.2,22.7,68.4,22.7L68.4,22.7z M68.4,22.7"/>
	<path class="st28" d="M59.1,32.7h0.5c0.2,0,0.4,0.2,0.4,0.4v0.5c0,0.2-0.2,0.4-0.4,0.4h-0.5c-0.2,0-0.4-0.2-0.4-0.4v-0.5
		C58.7,32.9,58.9,32.7,59.1,32.7L59.1,32.7z M59.1,32.7"/>
	<path class="st33" d="M59.1,32.7h0.5c0.2,0,0.4,0.2,0.4,0.4v0.5c0,0.2-0.2,0.4-0.4,0.4h-0.5c-0.2,0-0.4-0.2-0.4-0.4v-0.5
		C58.7,32.9,58.9,32.7,59.1,32.7L59.1,32.7z M59.1,32.7"/>
	<path class="st28" d="M59,31h0.4c0.2,0,0.4,0.2,0.4,0.4v0.4c0,0.2-0.2,0.4-0.4,0.4H59c-0.2,0-0.4-0.2-0.4-0.4v-0.4
		C58.6,31.1,58.8,31,59,31L59,31z M59,31"/>
	<path class="st33" d="M59,31h0.4c0.2,0,0.4,0.2,0.4,0.4v0.4c0,0.2-0.2,0.4-0.4,0.4H59c-0.2,0-0.4-0.2-0.4-0.4v-0.4
		C58.6,31.1,58.8,31,59,31L59,31z M59,31"/>
	<path class="st28" d="M58.9,29.3h0.4c0.2,0,0.4,0.2,0.4,0.4v0.4c0,0.2-0.2,0.4-0.4,0.4h-0.4c-0.2,0-0.4-0.2-0.4-0.4v-0.4
		C58.5,29.5,58.7,29.3,58.9,29.3L58.9,29.3z M58.9,29.3"/>
	<path class="st33" d="M58.9,29.3h0.4c0.2,0,0.4,0.2,0.4,0.4v0.4c0,0.2-0.2,0.4-0.4,0.4h-0.4c-0.2,0-0.4-0.2-0.4-0.4v-0.4
		C58.5,29.5,58.7,29.3,58.9,29.3L58.9,29.3z M58.9,29.3"/>
	<path class="st28" d="M58.7,27.6H59c0.2,0,0.4,0.2,0.4,0.4v0.3c0,0.2-0.2,0.4-0.4,0.4h-0.3c-0.2,0-0.4-0.2-0.4-0.4V28
		C58.3,27.8,58.5,27.6,58.7,27.6L58.7,27.6z M58.7,27.6"/>
	<path class="st33" d="M58.7,27.6H59c0.2,0,0.4,0.2,0.4,0.4v0.3c0,0.2-0.2,0.4-0.4,0.4h-0.3c-0.2,0-0.4-0.2-0.4-0.4V28
		C58.3,27.8,58.5,27.6,58.7,27.6L58.7,27.6z M58.7,27.6"/>
	<path class="st28" d="M58.5,26h0.3c0.2,0,0.4,0.2,0.4,0.4v0.3c0,0.2-0.2,0.4-0.4,0.4h-0.3c-0.2,0-0.4-0.2-0.4-0.4v-0.3
		C58.1,26.2,58.3,26,58.5,26L58.5,26z M58.5,26"/>
	<path class="st33" d="M58.5,26h0.3c0.2,0,0.4,0.2,0.4,0.4v0.3c0,0.2-0.2,0.4-0.4,0.4h-0.3c-0.2,0-0.4-0.2-0.4-0.4v-0.3
		C58.1,26.2,58.3,26,58.5,26L58.5,26z M58.5,26"/>
	<path class="st28" d="M58.2,24.3h0.3c0.2,0,0.4,0.2,0.4,0.4v0.3c0,0.2-0.2,0.4-0.4,0.4h-0.3c-0.2,0-0.4-0.2-0.4-0.4v-0.3
		C57.9,24.5,58,24.3,58.2,24.3L58.2,24.3z M58.2,24.3"/>
	<path class="st33" d="M58.2,24.3h0.3c0.2,0,0.4,0.2,0.4,0.4v0.3c0,0.2-0.2,0.4-0.4,0.4h-0.3c-0.2,0-0.4-0.2-0.4-0.4v-0.3
		C57.9,24.5,58,24.3,58.2,24.3L58.2,24.3z M58.2,24.3"/>
	<path class="st28" d="M58,22.7h0.2c0.2,0,0.4,0.2,0.4,0.4v0.2c0,0.2-0.2,0.4-0.4,0.4H58c-0.2,0-0.4-0.2-0.4-0.4v-0.2
		C57.6,22.9,57.7,22.7,58,22.7L58,22.7z M58,22.7"/>
	<path class="st33" d="M58,22.7h0.2c0.2,0,0.4,0.2,0.4,0.4v0.2c0,0.2-0.2,0.4-0.4,0.4H58c-0.2,0-0.4-0.2-0.4-0.4v-0.2
		C57.6,22.9,57.7,22.7,58,22.7L58,22.7z M58,22.7"/>
	<path class="st32" d="M50.7,33.1l-0.1,0.1c-0.1,0,0,0.3,0.1,0.5l0.3,0.7c0.1,0.3,0.3,0.5,0.3,0.5l0.1-0.1c0.1,0,0-0.3-0.1-0.5
		L51,33.5C50.9,33.2,50.7,33,50.7,33.1L50.7,33.1z M50.7,33.1"/>
	<path class="st34" d="M50.7,33.1l-0.1,0.1c-0.1,0,0,0.3,0.1,0.5l0.3,0.7c0.1,0.3,0.3,0.5,0.3,0.5l0.1-0.1c0.1,0,0-0.3-0.1-0.5
		L51,33.5C50.9,33.2,50.7,33,50.7,33.1L50.7,33.1z M50.7,33.1"/>
	<path class="st32" d="M50.5,33.1c-0.5,0.2,0.3,1.9,0.8,1.7c0,0,0-0.3-0.2-0.5l-0.3-0.7C50.7,33.3,50.6,33.1,50.5,33.1L50.5,33.1z
		 M50.5,33.1"/>
	<path class="st33" d="M50.5,33.1c-0.5,0.2,0.3,1.9,0.8,1.7c0,0,0-0.3-0.2-0.5l-0.3-0.7C50.7,33.3,50.6,33.1,50.5,33.1L50.5,33.1z
		 M50.5,33.1"/>
	<path class="st6" d="M79,37.7c-0.7,0.3-1.2,0.2-0.7,1.4c0.9,2.2-0.4,2.1-1.5,2.6c-0.3,0.1-0.6,0.3-0.8,0.4l0,0
		c-1.9,1.1-2.5,0.6-3.1,0c-0.8-0.8-2.3-0.1-3.2-0.5c-0.7-0.3-1.4-1.9-1.5-3.3l4,0c0,0.4,0,0.8,0.1,1.1c2,2.7,2.5,1.4,3.1,1
		c0.6-0.4,2-0.1,1-1.8c-1.3-2.4,1.8-3.8,2.7-3.1c1.3,1.1,2.6-0.2,2.4,2.3l0,0l1.3-0.3l0,0l0,0l0,0c0.2-0.1,1,0.3,1.2,0.9
		c0.3,0.7-0.3,0.8-3.7,2.2c0,0,0,0-0.1,0l0,0v0C80,40.5,79.6,39.9,79,37.7L79,37.7L79,37.7z M79,37.7"/>
	<path class="st7" d="M79,37.7c-0.7,0.3-1.2,0.2-0.7,1.4c0.9,2.2-0.4,2.1-1.5,2.6c-0.3,0.1-0.6,0.3-0.8,0.4l0,0
		c-1.9,1.1-2.5,0.6-3.1,0c-0.8-0.8-2.3-0.1-3.2-0.5c-0.7-0.3-1.4-1.9-1.5-3.3l4,0c0,0.4,0,0.8,0.1,1.1c2,2.7,2.5,1.4,3.1,1
		c0.6-0.4,2-0.1,1-1.8c-1.3-2.4,1.8-3.8,2.7-3.1c1.3,1.1,2.6-0.2,2.4,2.3l0,0l1.3-0.3l0,0l0,0l0,0c0.2-0.1,1,0.3,1.2,0.9
		c0.3,0.7-0.3,0.8-3.7,2.2c0,0,0,0-0.1,0l0,0v0C80,40.5,79.6,39.9,79,37.7L79,37.7L79,37.7z M79,37.7"/>
	<path class="st8" d="M72.2,38.3c-0.1,1.7,0.9,2.1,1.4,3.5c0.7,1.7,1.9,0.6,3.2-0.1c1.1-0.5,2.4-0.4,1.5-2.6c-0.7-1.6,0.4-1,1.3-1.8
		c1.7-1.4,1.8-0.8,1.9,0.3 M68.2,38.4c0.1,1.4,0.8,3,1.5,3.3c0.9,0.4,2.4-0.2,3.2,0.5c0.6,0.6,1.2,1.1,3.1,0 M81.5,37.7
		c0.3-2.5-1-1.2-2.3-2.3c-0.9-0.7-4,0.7-2.7,3.1c1,1.8-0.4,1.5-1,1.8c-0.7,0.5-1.1,1.8-3.1-1 M79,37.7c1,4.1,1.8,2.5,1.5,1.9
		 M83.6,38.1c-1.9-1.1,0-0.8,0.4,0.2c0.3,0.7-0.3,0.8-3.7,2.2 M83.6,38.1c-1.1,0.4-2.2,0.9-3.5,1.7c-0.6-1-1-1.5,1.1-2l1.6-0.4"/>
	<path class="st6" d="M47.6,37.7c0.7,0.3,1.2,0.2,0.7,1.4c-0.9,2.2,0.4,2.1,1.5,2.6c0.3,0.1,0.6,0.3,0.8,0.4l0,0
		c1.9,1.1,2.5,0.6,3.1,0c0.8-0.8,2.3-0.1,3.2-0.5c0.7-0.3,1.4-1.9,1.5-3.3l-4,0c0,0.4,0,0.8-0.1,1.1c-2,2.7-2.5,1.4-3.1,1
		c-0.6-0.4-2-0.1-1-1.8c1.3-2.4-1.8-3.8-2.7-3.1c-1.3,1.1-2.6-0.2-2.3,2.3l0,0l-1.3-0.3l0,0l0,0l0,0c-0.2-0.1-1,0.3-1.2,0.9
		c-0.3,0.7,0.3,0.8,3.7,2.2c0,0,0,0,0.1,0l0,0v0C46.6,40.5,47,39.9,47.6,37.7L47.6,37.7L47.6,37.7z M47.6,37.7"/>
	<path class="st7" d="M47.6,37.7c0.7,0.3,1.2,0.2,0.7,1.4c-0.9,2.2,0.4,2.1,1.5,2.6c0.3,0.1,0.6,0.3,0.8,0.4l0,0
		c1.9,1.1,2.5,0.6,3.1,0c0.8-0.8,2.3-0.1,3.2-0.5c0.7-0.3,1.4-1.9,1.5-3.3l-4,0c0,0.4,0,0.8-0.1,1.1c-2,2.7-2.5,1.4-3.1,1
		c-0.6-0.4-2-0.1-1-1.8c1.3-2.4-1.8-3.8-2.7-3.1c-1.3,1.1-2.6-0.2-2.3,2.3l0,0l-1.3-0.3l0,0l0,0l0,0c-0.2-0.1-1,0.3-1.2,0.9
		c-0.3,0.7,0.3,0.8,3.7,2.2c0,0,0,0,0.1,0l0,0v0C46.6,40.5,47,39.9,47.6,37.7L47.6,37.7L47.6,37.7z M47.6,37.7"/>
	<path class="st8" d="M54.4,38.3c0.1,1.7-0.9,2.1-1.4,3.5c-0.7,1.7-1.9,0.6-3.2-0.1c-1.1-0.5-2.4-0.4-1.5-2.6c0.7-1.6-0.4-1-1.3-1.8
		c-1.7-1.4-1.8-0.8-1.9,0.3 M58.4,38.4c-0.1,1.4-0.8,3-1.5,3.3c-0.9,0.4-2.4-0.2-3.2,0.5c-0.6,0.6-1.2,1.1-3.1,0 M45.1,37.7
		c-0.3-2.5,1-1.2,2.3-2.3c0.9-0.7,4,0.7,2.7,3.1c-1,1.8,0.4,1.5,1,1.8c0.7,0.5,1.1,1.8,3.1-1 M47.6,37.7c-1,4.1-1.8,2.5-1.5,1.9
		 M43,38.1c1.9-1.1,0-0.8-0.4,0.2c-0.3,0.7,0.3,0.8,3.7,2.2 M43,38.1c1.1,0.4,2.2,0.9,3.5,1.7c0.6-1,1-1.5-1.1-2l-1.6-0.4"/>
	<path class="st4" d="M74,37.6c0-1.3-4.8-2.3-10.7-2.3s-10.7,1-10.7,2.3v3c0-1,4.8-1.9,10.7-1.9S74,39.5,74,40.6V37.6z M74,37.6"/>
	<path class="st3" d="M74,37.6c0-1.3-4.8-2.3-10.7-2.3s-10.7,1-10.7,2.3v3c0-1,4.8-1.9,10.7-1.9S74,39.5,74,40.6V37.6z M74,37.6"/>
	<path class="st32" d="M63,36.2h0.6c0.3,0,0.5,0.2,0.5,0.5v0.6c0,0.3-0.2,0.5-0.5,0.5H63c-0.3,0-0.5-0.2-0.5-0.5v-0.6
		C62.5,36.4,62.7,36.2,63,36.2L63,36.2z M63,36.2"/>
	<path class="st33" d="M63,36.2h0.6c0.3,0,0.5,0.2,0.5,0.5v0.6c0,0.3-0.2,0.5-0.5,0.5H63c-0.3,0-0.5-0.2-0.5-0.5v-0.6
		C62.5,36.4,62.7,36.2,63,36.2L63,36.2z M63,36.2"/>
	<path class="st32" d="M65.1,36.2h0.6c0.3,0,0.5,0.2,0.5,0.5v0.6c0,0.3-0.2,0.5-0.5,0.5h-0.6c-0.3,0-0.5-0.2-0.5-0.5v-0.6
		C64.6,36.4,64.8,36.2,65.1,36.2L65.1,36.2z M65.1,36.2"/>
	<path class="st33" d="M65.1,36.2h0.6c0.3,0,0.5,0.2,0.5,0.5v0.6c0,0.3-0.2,0.5-0.5,0.5h-0.6c-0.3,0-0.5-0.2-0.5-0.5v-0.6
		C64.6,36.4,64.8,36.2,65.1,36.2L65.1,36.2z M65.1,36.2"/>
	<path class="st32" d="M67.1,36.4h0.5c0.3,0,0.5,0.2,0.5,0.5v0.6c0,0.3-0.2,0.5-0.5,0.5h-0.5c-0.3,0-0.5-0.2-0.5-0.5v-0.6
		C66.6,36.6,66.8,36.4,67.1,36.4L67.1,36.4z M67.1,36.4"/>
	<path class="st33" d="M67.1,36.4h0.5c0.3,0,0.5,0.2,0.5,0.5v0.6c0,0.3-0.2,0.5-0.5,0.5h-0.5c-0.3,0-0.5-0.2-0.5-0.5v-0.6
		C66.6,36.6,66.8,36.4,67.1,36.4L67.1,36.4z M67.1,36.4"/>
	<path class="st32" d="M69.1,36.6h0.5c0.3,0,0.5,0.2,0.5,0.5v0.6c0,0.3-0.2,0.5-0.5,0.5h-0.5c-0.3,0-0.5-0.2-0.5-0.5v-0.6
		C68.6,36.8,68.8,36.6,69.1,36.6L69.1,36.6z M69.1,36.6"/>
	<path class="st33" d="M69.1,36.6h0.5c0.3,0,0.5,0.2,0.5,0.5v0.6c0,0.3-0.2,0.5-0.5,0.5h-0.5c-0.3,0-0.5-0.2-0.5-0.5v-0.6
		C68.6,36.8,68.8,36.6,69.1,36.6L69.1,36.6z M69.1,36.6"/>
	<path class="st32" d="M71,36.9h0.4c0.3,0,0.5,0.2,0.5,0.5v0.6c0,0.3-0.2,0.5-0.5,0.5H71c-0.3,0-0.5-0.2-0.5-0.5v-0.6
		C70.5,37.1,70.7,36.9,71,36.9L71,36.9z M71,36.9"/>
	<path class="st33" d="M71,36.9h0.4c0.3,0,0.5,0.2,0.5,0.5v0.6c0,0.3-0.2,0.5-0.5,0.5H71c-0.3,0-0.5-0.2-0.5-0.5v-0.6
		C70.5,37.1,70.7,36.9,71,36.9L71,36.9z M71,36.9"/>
	<path class="st32" d="M72.8,37.5h0.3c0.3,0,0.5,0.2,0.5,0.5v0.6c0,0.3-0.2,0.5-0.5,0.5h-0.3c-0.3,0-0.5-0.2-0.5-0.5V38
		C72.4,37.7,72.6,37.5,72.8,37.5L72.8,37.5z M72.8,37.5"/>
	<path class="st33" d="M72.8,37.5h0.3c0.3,0,0.5,0.2,0.5,0.5v0.6c0,0.3-0.2,0.5-0.5,0.5h-0.3c-0.3,0-0.5-0.2-0.5-0.5V38
		C72.4,37.7,72.6,37.5,72.8,37.5L72.8,37.5z M72.8,37.5"/>
	<path class="st32" d="M61,36.2h0.6c0.3,0,0.5,0.2,0.5,0.5v0.6c0,0.3-0.2,0.5-0.5,0.5H61c-0.3,0-0.5-0.2-0.5-0.5v-0.6
		C60.5,36.4,60.7,36.2,61,36.2L61,36.2z M61,36.2"/>
	<path class="st33" d="M61,36.2h0.6c0.3,0,0.5,0.2,0.5,0.5v0.6c0,0.3-0.2,0.5-0.5,0.5H61c-0.3,0-0.5-0.2-0.5-0.5v-0.6
		C60.5,36.4,60.7,36.2,61,36.2L61,36.2z M61,36.2"/>
	<path class="st32" d="M59,36.4h0.5c0.3,0,0.5,0.2,0.5,0.5v0.6c0,0.3-0.2,0.5-0.5,0.5H59c-0.3,0-0.5-0.2-0.5-0.5v-0.6
		C58.5,36.6,58.7,36.4,59,36.4L59,36.4z M59,36.4"/>
	<path class="st33" d="M59,36.4h0.5c0.3,0,0.5,0.2,0.5,0.5v0.6c0,0.3-0.2,0.5-0.5,0.5H59c-0.3,0-0.5-0.2-0.5-0.5v-0.6
		C58.5,36.6,58.7,36.4,59,36.4L59,36.4z M59,36.4"/>
	<path class="st32" d="M57.1,36.6h0.5c0.3,0,0.5,0.2,0.5,0.5v0.6c0,0.3-0.2,0.5-0.5,0.5h-0.5c-0.3,0-0.5-0.2-0.5-0.5v-0.6
		C56.6,36.8,56.8,36.6,57.1,36.6L57.1,36.6z M57.1,36.6"/>
	<path class="st33" d="M57.1,36.6h0.5c0.3,0,0.5,0.2,0.5,0.5v0.6c0,0.3-0.2,0.5-0.5,0.5h-0.5c-0.3,0-0.5-0.2-0.5-0.5v-0.6
		C56.6,36.8,56.8,36.6,57.1,36.6L57.1,36.6z M57.1,36.6"/>
	<path class="st32" d="M55.2,36.9h0.4c0.3,0,0.5,0.2,0.5,0.5v0.6c0,0.3-0.2,0.5-0.5,0.5h-0.4c-0.3,0-0.5-0.2-0.5-0.5v-0.6
		C54.8,37.1,55,36.9,55.2,36.9L55.2,36.9z M55.2,36.9"/>
	<path class="st33" d="M55.2,36.9h0.4c0.3,0,0.5,0.2,0.5,0.5v0.6c0,0.3-0.2,0.5-0.5,0.5h-0.4c-0.3,0-0.5-0.2-0.5-0.5v-0.6
		C54.8,37.1,55,36.9,55.2,36.9L55.2,36.9z M55.2,36.9"/>
	<path class="st32" d="M53.5,37.5h0.3c0.3,0,0.5,0.2,0.5,0.5v0.6c0,0.3-0.2,0.5-0.5,0.5h-0.3c-0.3,0-0.5-0.2-0.5-0.5V38
		C53,37.7,53.3,37.5,53.5,37.5L53.5,37.5z M53.5,37.5"/>
	<path class="st33" d="M53.5,37.5h0.3c0.3,0,0.5,0.2,0.5,0.5v0.6c0,0.3-0.2,0.5-0.5,0.5h-0.3c-0.3,0-0.5-0.2-0.5-0.5V38
		C53,37.7,53.3,37.5,53.5,37.5L53.5,37.5z M53.5,37.5"/>
</g>
</svg>
