<?xml version="1.0" encoding="utf-8"?>
<!-- Generator: Adobe Illustrator 22.0.1, SVG Export Plug-In . SVG Version: 6.00 Build 0)  -->
<svg version="1.1" id="Слой_1" xmlns="http://www.w3.org/2000/svg" xmlns:xlink="http://www.w3.org/1999/xlink" x="0px" y="0px"
	 viewBox="0 0 127.3 127" style="enable-background:new 0 0 127.3 127;" xml:space="preserve">
<style type="text/css">
	.st0{fill:url(#SVGID_1_);}
	.st1{fill:#FFFFFF;}
	.st2{clip-path:url(#SVGID_3_);}
	.st3{fill:#D20000;}
	.st4{fill:#A15A41;}
	.st5{fill:#009AFF;}
	.st6{fill:#008E1F;}
	.st7{fill:#FFD700;}
</style>
<radialGradient id="SVGID_1_" cx="64.8" cy="2586.7468" r="62.6" gradientTransform="matrix(1 0 0 1 0 -2522.3469)" gradientUnits="userSpaceOnUse">
	<stop  offset="0.9487" style="stop-color:#212121"/>
	<stop  offset="1" style="stop-color:#606060;stop-opacity:0"/>
</radialGradient>
<circle class="st0" cx="64.8" cy="64.4" r="62.6"/>
<circle class="st1" cx="62.6" cy="62.6" r="62.6"/>
<g>
	<g>
		<defs>
			<rect id="SVGID_2_" x="27.5" y="22.7" width="71" height="88.5"/>
		</defs>
		<clipPath id="SVGID_3_">
			<use xlink:href="#SVGID_2_"  style="overflow:visible;"/>
		</clipPath>
		<path class="st2" d="M98.3,22.7H27.5v73.9c0,1.8,0.2,3.2,1,4.3c0.8,1.1,2.1,1.7,4.2,1.7c0.2,0,0.3,0,0.5,0h21.7
			c5.8,0.1,7.5,4,8.3,8.6c0.8-4.7,2.3-8.4,8.1-8.6h22.2c2-0.2,3.2-1,3.9-2.2c0.6-1,0.9-2.3,0.9-3.8L98.3,22.7"/>
	</g>
	<path class="st3" d="M97.7,23.3v73.3c0,1.5-0.2,2.6-0.8,3.5c-0.7,1.1-1.9,1.8-3.5,1.9H71.2c-5.1,0.2-7.1,3-8.1,6.5
		c-1-3.4-3.1-6.5-8.3-6.5l-22.2,0c-1.8,0-3-0.5-3.7-1.5c-0.6-0.9-0.9-2.1-0.9-4V23.2L97.7,23.3"/>
	<path d="M56.5,76.9l0,3.4l0.7,0.8h11.6l0.7-0.8l0-3.4h-3.7v0.7h-2.1L63,78.5l-0.8-0.9h-2.1v-0.7L56.5,76.9z M77.8,76.9V82
		c0.1,0.5,0.3,0.9,0.8,1.1v0.4l4.5,3.2v0.8l3.9,2.9l0,3.2H38.9l0-3.2l3.9-2.9v-0.8l4.5-3.2v-0.4c0.5-0.2,0.7-0.6,0.8-1.1v-5.2h-0.5
		v-5.7H48c-0.4-0.3-0.7-0.7-0.9-1.1l-0.1,0.3c-0.1,0.8-0.1,1.5,0.1,2.3c0.2,0.7,0,1.2-0.8,1.2c-0.5,0.5-1,0.4-1.4,0
		c-0.4,0.1-0.9-0.2-1-0.7c-0.4-0.2-0.4-0.7,0.1-1.2c0.6-0.5,0.5-1.2,0.5-1.9c-0.1-0.3,0-0.7,0.3-0.8c-0.3-0.6-0.1-1.4,0.5-1.7
		c0.4-0.2,0.9-0.2,1.2,0.1h0.3c0.3-1,1.2-1.8,2.3-2v0h0c-0.5-1.3,0-2.9,1.8-3.5h0.8l0.5-0.7V31.1H53l1.8-1.7l1.8,1.6h0.7v1.3h0.9
		v-1.3h1.5v-2h1.9L63,28l1.2,1.1h1.9v2h1.5v1.3h0.9v-1.3h0.7l1.8-1.6l1.8,1.6h0.6v30.3l0.5,0.8h0.8c1.8,0.7,2.4,2.3,1.8,3.5h0v0
		c1.1,0.2,2,0.9,2.3,2h0.3c0.6-0.4,1.3-0.2,1.7,0.4c0.2,0.4,0.3,0.9,0.1,1.3c0.3,0.2,0.4,0.5,0.3,0.8c0,0.7-0.1,1.4,0.5,1.9
		c0.5,0.6,0.5,1.1,0.1,1.2c-0.1,0.4-0.5,0.7-1,0.7c-0.4,0.4-0.9,0.5-1.4,0c-0.8,0-1-0.5-0.8-1.2c0.2-0.7,0.2-1.5,0.1-2.3l-0.1-0.3
		c-0.2,0.4-0.5,0.8-0.9,1.1h0.3v5.6L77.8,76.9L77.8,76.9z M77.8,76.9"/>
	<path class="st4" d="M52.6,63.9l1-0.3c0.4-0.2,0.9-0.2,1.3,0h0.4c0.2-0.1,0.5-0.1,0.6-0.3c0.2-0.1,0.3-0.2,0.4-0.1v0.4
		c0.2,0.1,0.4,0.1,0.5,0c0.3,0,0.6-0.2,0.7-0.5c0.1-0.2,0.4-0.2,0.5,0l0,0l-0.1,0.4c0.5,0.1,0.9,0.2,0.9-0.2c0.3-0.3,0.6-0.5,0.8,0
		c0.2,0.2,0.4,0.3,0.7,0c0.1-0.1,0.3-0.1,0.4,0c0.1,0.2,0.3,0.2,0.6,0c0.1,0.3,0.3,0.4,0.7,0c0.2-0.1,0.5-0.1,0.7,0
		c0.3,0.2,0.8,0.6,0.6,0c0.1-0.2,0.2-0.4,0.5,0c0.2,0.2,0.4,0.4,0.5,0c0.1-0.1,0.3-0.1,0.4,0c0,0,0.1,0.1,0.1,0.1
		c0.2,0.3,0.4,0.4,0.5,0c0.2-0.4,0.3-0.4,0.5,0c0.2,0.1,0.3,0.1,0.5,0.1c0.2-0.1,0.5-0.2,0.7,0l0.4,0l0-0.3h0.4l0.2,0.4
		c0.2,0.1,0.2,0.1,0.3,0c0.1-0.2,0.3-0.2,0.4,0c0.4,0.1,0.5,0,0.5-0.3l0.4-0.1l0.6,0.3c0.1,0.1,0.2,0.2,0.4,0.1
		c0.1,0,0.1-0.1,0.1-0.1l0.1-0.4c0.2-0.1,0.4-0.2,0.6,0.1l0.3,0.2c0.2,0.2,0.4,0.2,0.5,0l0.1-0.2h0.4l0.4,0.4l0.6,0l0.6-0.1l0.2,0.6
		l-0.2,0.2l-0.8-0.1C73.6,65,73.3,65,73,64.3h-0.4l-0.2,0.5l-0.2-0.4l-0.3,0l-0.1,0.3l-0.2-0.3l-0.3,0.1l-0.2,0.4l-0.2-0.4l-0.4-0.1
		l-0.1,0.4l-0.2-0.3h-0.4L69.7,65l-0.3-0.5l-0.3,0c0,0.2-0.2,0.2-0.4,0c-0.3-0.2-0.4-0.1-0.5,0.1c-0.4,0.3-0.6,0-0.8-0.1
		c-0.2,0.2-0.3,0.2-0.4,0l-0.2,0.1c-0.2-0.2-0.4-0.1-0.4,0.1c-0.2,0.1-0.4,0.1-0.5-0.1c-0.1-0.2-0.2-0.2-0.4,0
		c-0.1,0.2-0.2,0.2-0.5,0.1l-0.2,0.3l-0.4-0.4l-0.3,0l-0.2,0.3l-0.4-0.2c-0.1,0.4-0.3,0.4-0.7-0.1c-0.1-0.2-0.3-0.2-0.4,0l-0.1,0.4
		l-0.2-0.3l-0.3,0l-0.2,0.3l-0.1,0l-0.2-0.3c-0.3-0.3-0.4-0.1-0.4,0.2l0.3,0.7c-0.3-0.1-0.5-0.3-0.7-0.8h-0.2
		c-0.4,0.2-0.5,0.1-0.7-0.2c-0.2-0.3-0.3-0.2-0.4,0c-0.2,0.4-0.5,0.4-1.1-0.1c-0.1-0.3-0.3-0.2-0.4,0l-0.1,0.3
		c-0.5,0.1-0.9,0.1-1-0.3c-0.1-0.1-0.2-0.1-0.3,0L56,64.5c-0.1,0.2-0.2,0.2-0.5,0.1l-0.4-0.4c0-0.1-0.1-0.1-0.2-0.1c0,0,0,0-0.1,0.1
		c-0.3,0.1-0.5,0-0.5-0.3c-0.1-0.1-0.2-0.2-0.4-0.2c-0.1,0-0.1,0.1-0.1,0.1l-1,0.4C52.5,64.2,52.5,64.1,52.6,63.9"/>
	<path class="st5" d="M57.9,56.2c0.2-0.3,0.6-0.5,0.8-0.3c0.2,0.2,0.2,0.6,0,0.9c-0.2,0.3-0.6,0.5-0.8,0.3
		C57.7,56.9,57.7,56.5,57.9,56.2 M68.1,56.2c-0.2-0.3-0.6-0.5-0.8-0.3c-0.2,0.2-0.2,0.5,0,0.9c0.2,0.3,0.6,0.5,0.8,0.3
		C68.3,56.9,68.3,56.5,68.1,56.2"/>
	<path class="st3" d="M63,51c0.2,0,0.5-0.2,0.6-0.4h-1.1C62.5,50.8,62.8,51,63,51 M63,48c0.2,0,0.5,0.2,0.6,0.4h-1.1
		C62.5,48.2,62.8,48,63,48 M63.7,56.9c-0.1-0.3-0.3-1.1-0.7-1.1c-0.4,0-0.6,0.8-0.7,1.1c-0.1,0.4-0.1,0.8,0.2,1.1
		c0.3,0.2,0.7,0.2,1,0C63.8,57.8,63.8,57.3,63.7,56.9"/>
	<path class="st6" d="M64.4,69.9c-0.1,0.4-0.1,0.8-0.2,1.2v0h12.1c0.8,0,1.6-0.4,2.1-1.2H64.4 M49.8,71h12.1l0,0
		c0.2-0.4,0.5-0.7,0.6-1.2H47.8C48.2,70.6,49,71,49.8,71 M78.4,67.6c-0.4-0.8-1.2-1.3-2.1-1.4c-0.4,0.4-0.9,0.7-1.4,0.9H64.2
		c0.1,0.2,0.1,0.3,0.1,0.5H78.4 M62.3,67.6c-0.1-0.2-0.2-0.4-0.3-0.5H51.1c-0.5-0.2-1-0.5-1.4-0.9c-0.9,0.1-1.7,0.6-2.1,1.4H62.3z
		 M62.3,67.6"/>
	<path class="st7" d="M70.9,31h-0.5l0.5-0.5V31z M71.3,31h0.5l-0.5-0.5V31z M71.7,38.3l-0.7-1.9l-0.7,1.9H71.7 M70.4,33.2l0.7,1.9
		l0.7-1.9H70.4 M72,36.7v-1.9l-0.5,1L72,36.7 M70.2,34.8v1.9l0.5-1L70.2,34.8 M72.2,32.6H70c-0.1,0-0.2,0.1-0.2,0.2v5.7
		c0,0.1,0.1,0.2,0.2,0.2h2.2c0.1,0,0.2-0.1,0.2-0.2v-5.7C72.5,32.7,72.3,32.6,72.2,32.6L72.2,32.6z M69.1,40.4v15l0,0
		c0.3-0.2,0.7-0.2,1,0.1c0,0,0,0.1,0.1,0.1V42.5c0-0.2,0.1-0.3,0.3-0.3h0.9c0.2,0,0.3,0.1,0.3,0.3v15.6c0.4-0.1,0.7,0.2,0.8,0.6
		c0,0.3-0.1,0.5-0.3,0.7c0.3,0.4,0.5,0.7,0.8,1.1V40.4H69.1 M70.8,57.5l0.3,0.4V42.8h-0.3V57.5z M69.1,31.6H73v8.2h-3.9V31.6z
		 M46.6,68.7c0,0.3-0.3,0.6-0.6,0.6c-0.3,0-0.6-0.3-0.6-0.6s0.3-0.6,0.6-0.6C46.3,68.1,46.6,68.4,46.6,68.7 M80.6,68.7
		c0,0.3-0.3,0.6-0.6,0.6c-0.3,0-0.6-0.3-0.6-0.6s0.3-0.6,0.6-0.6C80.3,68.1,80.6,68.4,80.6,68.7 M63.6,46.3c0,0.3-0.2,0.5-0.5,0.5
		c-0.3,0-0.5-0.2-0.5-0.5c0-0.3,0.2-0.5,0.5-0.5C63.3,45.8,63.6,46,63.6,46.3 M55.6,38.3l-0.7-1.9l-0.7,1.9H55.6 M54.3,33.2l0.7,1.9
		l0.7-1.9H54.3 M55.8,36.7v-1.9l-0.5,1L55.8,36.7 M54,34.7v1.9l0.5-1L54,34.7 M75.1,73.7l0.9-0.8h-1.8L75.1,73.7 M75.1,74.3
		l-0.9,0.8H76L75.1,74.3 M75.7,74l0.8,0.9v-1.8L75.7,74 M74.5,74l-0.8,0.9v-1.8L74.5,74 M50.9,73.7L50,72.8h1.8L50.9,73.7
		 M50.9,74.3l0.9,0.8H50L50.9,74.3 M50.3,74l-0.8,0.9v-1.8L50.3,74 M51.5,74l0.8,0.9v-1.8L51.5,74 M63.3,71.1h-0.8
		c0.9-1.2,1-2.8,0.2-4h0.7C63.6,67.2,64.5,69.3,63.3,71.1 M63.8,53.1h-1.6c-2.1,2.4-3.6,5.4-5,9h3.6l0.6-0.5
		c0.2-0.1,0.2-0.2,0.2-0.3L61,60.4c-0.1-0.1-0.2-0.3-0.1-0.5c0.2-0.3,0.7-0.4,1.2-0.4c-0.4-0.2-0.3-0.8,0.3-0.6l0.3-0.1
		c-0.4-0.1-0.7-0.4-0.9-0.7c-0.3-0.6-0.2-1.1,0.1-1.8c0.1-0.4,0.3-0.7,0.6-1c-0.5-0.4-0.7-1.1-0.4-1.6c0.4-0.5,1.1-0.7,1.6-0.4
		c0.5,0.4,0.7,1.1,0.4,1.6c-0.1,0.2-0.2,0.3-0.4,0.4c0.2,0.3,0.4,0.6,0.6,1c0.2,0.7,0.4,1.2,0.1,1.8c-0.2,0.4-0.5,0.6-0.9,0.7
		l0.3,0.1c0.7-0.2,0.7,0.4,0.3,0.6c0.5,0,0.9,0.1,1.2,0.4c0.1,0.1,0.1,0.4-0.1,0.5l-0.5,0.8c-0.1,0.1,0,0.2,0.2,0.3l0.6,0.5h3.6
		C67.5,58.5,65.9,55.5,63.8,53.1 M79.5,69.7c-0.1,0.5-0.1,1,0.3,1.4C79.8,70.5,79.8,70,79.5,69.7 M79.4,71.9c-0.1,0.5-0.1,1,0.3,1.5
		C79.7,72.8,79.8,72.2,79.4,71.9 M80.7,71.9c-0.1,0.5-0.1,1,0.3,1.5C81.1,72.8,81.1,72.2,80.7,71.9 M80.1,70.9
		c-0.1,0.5-0.1,1,0.3,1.5C80.4,71.7,80.4,71.2,80.1,70.9 M80.5,69.7c-0.1,0.5-0.1,1,0.3,1.5C80.8,70.5,80.8,70,80.5,69.7 M64.4,68.3
		L64.4,68.3 M64.4,68.3c0,0.3,0,0.6,0,1h14.4v-1H64.4 M62.6,68.3H47.2v1h15.4C62.7,68.9,62.7,68.6,62.6,68.3 M46.6,71.9
		c-0.4,0.3-0.3,0.8-0.3,1.5C46.7,72.9,46.6,72.4,46.6,71.9 M45.9,70.9c-0.4,0.3-0.3,0.8-0.3,1.5C46,71.9,46,71.4,45.9,70.9
		 M46.5,69.7L46.5,69.7 M46.5,69.7c-0.4,0.3-0.3,0.8-0.3,1.4C46.6,70.7,46.6,70.2,46.5,69.7 M45.6,69.7L45.6,69.7 M45.6,69.7
		c-0.4,0.3-0.3,0.8-0.3,1.4C45.6,70.7,45.6,70.2,45.6,69.7 M45.3,71.9c-0.4,0.3-0.3,0.8-0.3,1.5C45.3,72.9,45.3,72.4,45.3,71.9
		 M62.9,76.7l-0.5,0.5l0.7,0.7l0.5-0.5L62.9,76.7 M62.7,73.9v-1.9h-2.1l0.6,0.7h1v1l-1.6,1.3v2.2h1.4l0.5-0.6l-0.5-0.4l-0.2,0.3
		h-0.5V75L62.7,73.9 M58.8,73.4l-0.2,0.2l0.4,0.4l0.2-0.2L58.8,73.4 M58.5,74.9l-1.3-1.2L56.8,74l1.3,1.2h1.8v-0.7L58.5,74.9
		 M59.8,71.9h-2V73l1.4-0.7l1.6,1.5l0.5-0.4L59.8,71.9 M56.9,72.8l0-0.8h-2l0,0V73l0.3,0v-0.7h1.4c0.2,0.1,0.2,0.2,0.1,0.4l-1.7,1.7
		v0.8h1.7l-0.8-0.7l0-0.6 M54.3,76v-4.2h-0.5v4.6h6.3V76L54.3,76 M63.3,71.9v1.9l0.5-0.2v-1h1l0.6-0.7H63.3 M64.8,75.6l0,0.7h-0.4
		l-1.6-1.5l-0.4,0.3l1.9,1.9l1.2-0.1v-2.3L64.8,75.6 M67.2,73.4l-0.4,0.4l0.2,0.2l0.4-0.4L67.2,73.4 M68.9,73.7l-1.3,1.2l-1.5-0.5
		v0.7h1.8l1.3-1.2L68.9,73.7 M66.6,71.9l-2.8,2.9l0.3,0.3l2.8-2.7l1.4,0.7v-1.1H66.6 M71.1,73v-1.1l0,0h-2l0,0.8l1.1,1.1l0,0.6
		l-0.8,0.7h1.8v-0.8l-1.7-1.7c-0.1-0.2-0.1-0.4,0.1-0.4h1.4V73 M71.7,71.7V76h-5.8v0.4h6.3v-4.6H71.7 M72.2,71.7L72.2,71.7
		 M55.2,80.3V77h-0.5v4.2h1C55.4,81.1,55.2,80.7,55.2,80.3 M54.9,81.8l0.7,0.8h0.6v-0.8H54.9 M54.2,81.6v-4.9h-0.3l0,5
		c0.1,0.6,0.5,1.1,1,1.3v1.4h0.3v-1.5C54.7,82.6,54.3,82.2,54.2,81.6 M53.3,81.6v-5h-4.4v5.1c0,0.4-0.1,0.9-0.4,1.3h5.3
		C53.5,82.6,53.3,82.1,53.3,81.6 M48,83.5h6.2v1.3H48V83.5z M70.8,77v3.3c0,0.4-0.1,0.7-0.4,0.9h1V77H70.8 M69.8,81.8v0.8h0.6
		l0.7-0.8H69.8 M71.9,76.7v4.9c-0.1,0.6-0.5,1.1-1,1.3v1.5h0.3V83c0.5-0.2,0.9-0.7,1-1.3l0-5H71.9 M77.2,81.7v-5.1h-4.4v5
		c-0.1,0.5-0.2,1-0.5,1.3h5.3C77.3,82.6,77.2,82.2,77.2,81.7 M71.9,83.5h6.2v1.3h-6.2V83.5z M78.6,84.1v1.2h-7.5l-0.8-0.8l-0.1-1.4
		c-1.1,0.1-1.7-0.4-1.6-1.6H57.4c0.1,1.2-0.5,1.6-1.6,1.6l-0.1,1.4l-0.8,0.8h-7.5v-1.2l-3.3,2.4h37.8 M39.5,90.8h47.1v2.3H39.5V90.8
		z M83.2,88.2v1.2H42.9v-1.2l-2.8,2.1H86L83.2,88.2 M43.4,87h39.2v1.9H43.4V87z M63.6,39.9c0,0.3-0.2,0.5-0.5,0.5
		c-0.3,0-0.5-0.2-0.5-0.5c0-0.3,0.2-0.5,0.5-0.5C63.3,39.4,63.6,39.7,63.6,39.9 M66.3,43c0,0.3-0.2,0.5-0.5,0.5
		c-0.3,0-0.5-0.2-0.5-0.5c0-0.3,0.2-0.5,0.5-0.5C66.1,42.5,66.3,42.7,66.3,43 M60.6,43c0,0.3-0.2,0.5-0.5,0.5
		c-0.3,0-0.5-0.2-0.5-0.5c0-0.3,0.2-0.5,0.5-0.5C60.4,42.5,60.6,42.7,60.6,43 M63.2,42.9v-2h-0.2v2h-1.8v0.2h1.8v2h0.2v-2h1.8v-0.2
		H63.2 M63,37.9c-2.5,0-4.6,1.1-5.6,2.7v14.1c0.3-0.3,0.5-0.6,0.8-0.8c-0.1-0.4,0.1-0.8,0.5-0.9c0.1-0.1,0.3-0.1,0.4,0
		c0.1-0.1,0.3-0.3,0.4-0.4c-0.1-0.3,0-0.5,0.2-0.7c-0.1-0.2,0-0.5,0.1-0.5v-0.5c-0.7-0.5-0.7-1.5-0.2-2.1c0.1-0.1,0.2-0.2,0.4-0.3
		c-0.2-0.9,1-1.7,1.9-1.3l0.4-0.1c-0.4-0.4-0.4-1,0-1.5c0-0.1,0.1-0.1,0.1-0.1v-1.9H61c-0.3,0.5-1,0.6-1.4,0.3
		c-0.5-0.3-0.6-1-0.3-1.4c0.3-0.5,1-0.6,1.4-0.3c0.1,0.1,0.2,0.2,0.3,0.3h1.5v-1.6c-0.5-0.3-0.6-1-0.3-1.4c0.3-0.5,1-0.6,1.4-0.3
		c0.5,0.3,0.6,1,0.3,1.4c-0.1,0.1-0.2,0.2-0.3,0.3v1.6H65c0.3-0.5,1-0.6,1.4-0.3c0.5,0.3,0.6,1,0.3,1.4c-0.3,0.5-1,0.6-1.4,0.3
		c-0.1-0.1-0.2-0.2-0.3-0.3h-1.4v1.9h0c0.5,0.3,0.6,1,0.3,1.4c-0.1,0.1-0.1,0.1-0.2,0.2l0.4,0.1c0.9-0.4,2.1,0.4,1.9,1.3
		c0.7,0.5,0.9,1.4,0.4,2.1c-0.1,0.1-0.2,0.2-0.3,0.4v0.5c0.2,0,0.2,0.4,0.1,0.5c0.2,0.2,0.3,0.4,0.2,0.7c0.2,0.1,0.3,0.3,0.5,0.4
		c0.4-0.1,0.8,0.1,0.9,0.4c0.1,0.1,0.1,0.3,0,0.4c0.2,0.3,0.5,0.5,0.8,0.8V40.7C67.6,39.1,65.5,38,63,37.9L63,37.9z M60.2,51.1h5.6
		v0.4h-5.6V51.1z M62.2,47.8c0.4-0.4,1.2-0.4,1.6,0C63.8,47.1,62.2,47.1,62.2,47.8 M60.6,48.2l1-0.5C61.3,47.4,60.5,47.7,60.6,48.2
		 M60.2,50.3v-1.2C59.8,49.2,59.7,50.1,60.2,50.3 M61.6,50.5V49C61,49.1,60.9,50.3,61.6,50.5 M64.4,49v1.5
		C65.2,50.3,65,49.1,64.4,49 M65.8,49.1v1.2C66.4,50.1,66.3,49.3,65.8,49.1 M64.4,47.7l1,0.5C65.5,47.7,64.7,47.4,64.4,47.7
		 M55.1,30.4v0.5h0.5L55.1,30.4 M54.2,31h0.5v-0.5L54.2,31 M54.9,42.8v15.1l0.3-0.4V42.7L54.9,42.8 M69.8,55.8
		c-0.1-0.1-0.1-0.1-0.2-0.1c-0.1,0-0.1,0-0.2,0.1l0.4,0.5C70,56.1,70,55.9,69.8,55.8L69.8,55.8z M56.4,55.7c-0.1,0-0.2,0-0.2,0.1
		c-0.1,0.1-0.1,0.3,0,0.5l0.4-0.5C56.6,55.7,56.5,55.6,56.4,55.7L56.4,55.7z M55.8,56.3v0.4l0.2-0.2C55.9,56.5,55.9,56.4,55.8,56.3
		 M53,40.4v20.2c0.3-0.4,0.5-0.8,0.8-1.1c-0.3-0.2-0.4-0.7-0.2-1c0.1-0.2,0.3-0.3,0.5-0.3c0,0,0.1,0,0.1,0V42.5
		c0-0.2,0.1-0.3,0.3-0.3h0.9c0.2,0,0.3,0.1,0.3,0.3v13.2c0,0,0-0.1,0.1-0.1c0.2-0.3,0.7-0.4,1-0.1l0,0v-15h0H53z M70.1,56.5l0.1,0.2
		v-0.4C70.2,56.4,70.2,56.5,70.1,56.5 M54.2,58.6c-0.1,0-0.3,0.1-0.3,0.3c0,0.1,0.1,0.2,0.1,0.2l0.3-0.4
		C54.3,58.6,54.3,58.6,54.2,58.6 M72.1,58.7c-0.1-0.1-0.1-0.1-0.2-0.1c-0.1,0-0.1,0-0.2,0.1l0.3,0.4C72.1,59,72.1,58.8,72.1,58.7
		C72.1,58.7,72.1,58.7,72.1,58.7L72.1,58.7z M63.4,29v0.8l0.6-0.4L63.4,29 M62.1,29.3l0.6,0.4V29L62.1,29.3 M66.3,35.8l0.7,0.4V35
		L66.3,35.8 M59,35v1.1l0.7-0.4L59,35 M57.5,38.4v0.3c1.2-1,2.6-1.7,4.2-1.9l-0.6-0.6v-0.7l-2.7-2.7h-1v5c0.8-0.5,1.6-0.9,2.5-1.2
		l0-0.3l-1,0.4c-0.3,0.1-0.4,0.1-0.4-0.2v-2.3c0.1-0.2,0.2-0.2,0.4-0.2l1.8,1.8v0.9C59.6,37.2,58.5,37.7,57.5,38.4 M65.1,32.7
		l-0.4,0.4l0.8,0.8l0.4-0.4L65.1,32.7 M66.1,31.6l-0.5,0.5l1,0.9l0.5-0.5v-0.9L66.1,31.6 M60,31.6h-1v0.9l0.5,0.5l1-0.9L60,31.6
		 M61.6,31.8l-1.8,1.6l0.6,0.6l1.8-1.6L61.6,31.8 M61.8,29.6h-1.5v1.5l0.4,0.5l0.5-0.4L61,30.9c0-0.2,0.1-0.4,0.4-0.3l1.5,1.6
		l0.8-0.7 M69.6,58.1c-0.1,0-0.3,0.1-0.3,0.3c0,0.2,0.1,0.3,0.3,0.3c0.2,0,0.3-0.1,0.3-0.3C69.9,58.2,69.7,58.1,69.6,58.1
		 M56.5,58.1c-0.2,0-0.3,0.1-0.3,0.3c0,0.2,0.1,0.3,0.3,0.3c0.2,0,0.3-0.1,0.3-0.3C56.7,58.2,56.6,58.1,56.5,58.1 M63.3,59.4
		c0,0.1-0.1,0.3-0.3,0.3c-0.1,0-0.3-0.1-0.3-0.3c0-0.1,0.1-0.3,0.3-0.3C63.2,59.1,63.3,59.3,63.3,59.4L63.3,59.4z M64.6,60.3
		c0,0.1-0.1,0.3-0.3,0.3c-0.1,0-0.3-0.1-0.3-0.3c0-0.1,0.1-0.3,0.3-0.3C64.4,60.1,64.6,60.2,64.6,60.3 M61.7,60.1
		c-0.2,0-0.3,0.1-0.3,0.3c0,0.2,0.1,0.3,0.3,0.3c0.1,0,0.3-0.1,0.3-0.3C62,60.2,61.9,60.1,61.7,60.1 M59.9,54
		c-0.2,0-0.3,0.1-0.3,0.3c0,0.2,0.1,0.3,0.3,0.3c0.2,0,0.3-0.1,0.3-0.3C60.2,54.1,60.1,54,59.9,54 M66.1,53.9
		c-0.2,0-0.3,0.1-0.3,0.3c0,0.1,0.1,0.3,0.3,0.3c0.2,0,0.3-0.1,0.3-0.3C66.4,54.1,66.3,54,66.1,53.9 M63.1,54.1
		c-0.2,0-0.3,0.1-0.3,0.3c0,0.1,0.1,0.3,0.3,0.3c0.2,0,0.3-0.1,0.3-0.3C63.4,54.2,63.2,54.1,63.1,54.1
		C63.1,54.1,63.1,54.1,63.1,54.1 M57.9,58c0.1,0.1,0.2,0.1,0.3,0.3l0.2-0.4C58.3,57.9,58.1,58,57.9,58 M55.4,62.1h1.1l0.3-0.7
		C56.4,61.8,55.9,62,55.4,62.1 M54.4,60L54.4,60c-0.5,0.7-1,1.4-1.5,2.1h1.3c-0.3-0.6-0.4-1.2,0.4-1.8C54.7,60,54.5,60.1,54.4,60
		 M57.6,59.4c-0.3,0-0.6-0.2-0.7-0.5c-0.3,0.2-0.8,0.2-1.1-0.2c-0.1-0.2-0.2-0.4-0.1-0.7c-0.4,0.4-0.7,0.9-1,1.4
		c0.2,0,0.4,0.1,0.5,0.3c0.1,0.1,0.2,0.1,0.3,0l0.3-0.3c0.2-0.2,0.5-0.2,0.7,0.1c0,0.2-0.1,0.4,0.3,0.5c0.2-0.1,0.4-0.1,0.6-0.1
		L57.6,59.4L57.6,59.4z M57.3,57.9c-0.4-0.2-0.5-0.8-0.3-1.3c-0.3,0.4-0.7,0.8-1,1.2c0.4-0.2,0.8-0.1,1,0.3c0,0,0,0.1,0,0.1
		c0.1-0.1,0.2-0.1,0.3-0.1C57.4,57.9,57.4,57.9,57.3,57.9 M59.1,54.2L59.1,54.2 M59.2,54.4c0-0.1,0-0.1,0-0.2c0,0,0,0,0-0.1
		c-0.2,0.2-0.5,0.5-0.7,0.7c0.4-0.2,0.9,0,1.1,0.4c0.1,0.1,0.1,0.2,0.1,0.4c0.2-0.2,0.3-0.5,0.5-0.7C59.7,55.1,59.3,54.8,59.2,54.4
		L59.2,54.4z M60.2,53.1c-0.1,0.1-0.2,0.3-0.4,0.4h0.1c0.4,0,0.7,0.3,0.8,0.7c0.2-0.3,0.5-0.8,0.7-1.1H60.2 M61.4,53.1L61.4,53.1
		 M64.3,62.1c-0.8-0.5-1.8-0.5-2.6,0H64.3 M69.2,61.2l0.4,0.8h1.1C70.1,62,69.6,61.7,69.2,61.2 M73.1,62.1c-0.5-0.7-1-1.5-1.5-2.2
		V60c0,0.1-0.3,0-0.1,0.3c0.8,0.5,0.7,1.2,0.4,1.8L73.1,62.1 M70.3,58.2c0.1,0.4-0.1,0.8-0.5,0.9c-0.2,0.1-0.5,0-0.7-0.1
		c-0.1,0.3-0.4,0.5-0.7,0.5l0.2,0.5c0.2,0,0.4,0,0.6,0.1c0.3-0.1,0.2-0.3,0.3-0.5c0.2-0.3,0.5-0.3,0.7-0.1l0.3,0.3
		c0.1,0.1,0.2,0.2,0.3,0c0.1-0.2,0.3-0.3,0.5-0.3C71,59.1,70.7,58.6,70.3,58.2 M67.6,57.8l0.2,0.4c0.1-0.1,0.2-0.2,0.3-0.3
		C67.9,58,67.7,57.9,67.6,57.8 M69,56.5c0.2,0.6,0.1,1.1-0.3,1.3c-0.1,0-0.1,0.1-0.1,0.1c0.1,0,0.2,0.1,0.3,0.1
		c0.2-0.4,0.6-0.6,1-0.4c0,0,0.1,0,0.1,0C69.7,57.3,69.3,56.9,69,56.5 M66.9,54.2c0,0.1,0,0.2,0,0.2c-0.1,0.4-0.5,0.6-1,0.5
		c0.2,0.2,0.3,0.5,0.5,0.8c0-0.1,0-0.2,0.1-0.4c0.2-0.4,0.7-0.6,1.1-0.4C67.4,54.7,67.1,54.5,66.9,54.2 M64.6,53.1L64.6,53.1
		 M65.8,53.1h-1.2c0.2,0.3,0.5,0.7,0.7,1.1c0-0.4,0.4-0.7,0.8-0.7C66,53.4,65.9,53.2,65.8,53.1 M67.2,36.8l-1-0.4l0,0.3
		c0.9,0.3,1.7,0.7,2.5,1.2v-5h-1l-2.7,2.7v0.7l-0.6,0.6c1.5,0.2,3,0.8,4.2,1.9v-0.3c-1-0.7-2-1.3-3.2-1.7v-0.9l1.8-1.8
		c0.2-0.1,0.4,0,0.4,0.2v2.3C67.6,36.8,67.4,36.9,67.2,36.8 M65.4,29.6h-1.3l-0.9,0.7l0.7,0.7l0.3-0.3l0.5,0.6l-1.5,1.3v3.3
		c0,0.2-0.2,0.3-0.4,0.2c-0.1,0-0.2-0.1-0.2-0.2v-3l-1,0.9v2L63,37l1.1-1.1l0-3.2l1.4-1.2L65.4,29.6 M53,31.6h3.9v8.2H53V31.6z
		 M48.2,71.7v4.6h5.1v-4.6H48.2 M72.7,71.7v4.6h5.1v-4.6H72.7 M65.5,57.6c-0.4,0.1-0.7-0.3-0.8-0.7c-0.1-0.5,0.1-0.9,0.5-1
		c0.4-0.1,0.7,0.3,0.8,0.7C66.1,57.1,65.9,57.6,65.5,57.6 M61.3,56.9c-0.1,0.5-0.5,0.8-0.8,0.7s-0.6-0.5-0.5-1s0.5-0.8,0.8-0.7h0
		C61.2,56,61.4,56.4,61.3,56.9 M56,32.6h-2.2c-0.1,0-0.2,0.1-0.2,0.2v5.7c0,0.1,0.1,0.2,0.2,0.2H56c0.1,0,0.2-0.1,0.2-0.2v-5.7
		C56.3,32.7,56.2,32.6,56,32.6L56,32.6z M77.1,75.7h-3.8v-3.3h3.8V75.7z M48.9,72.3h3.8v3.3h-3.8V72.3z M81.7,87.4H44.3
		c-0.3,0.3-0.3,0.8,0,1.2h37.4C82,88.2,82,87.7,81.7,87.4 M85.5,92.7h-45c-0.3-0.4-0.3-1,0-1.5h45C85.7,91.7,85.8,92.2,85.5,92.7"/>
</g>
</svg>
