<?xml version="1.0" encoding="utf-8"?>
<!-- Generator: Adobe Illustrator 22.0.1, SVG Export Plug-In . SVG Version: 6.00 Build 0)  -->
<svg version="1.1" id="Слой_1" xmlns="http://www.w3.org/2000/svg" xmlns:xlink="http://www.w3.org/1999/xlink" x="0px" y="0px"
	 viewBox="0 0 127.3 127" style="enable-background:new 0 0 127.3 127;" xml:space="preserve">
<style type="text/css">
	.st0{fill:url(#SVGID_1_);}
	.st1{fill:#FFFFFF;}
	.st2{fill-rule:evenodd;clip-rule:evenodd;fill:#FFFFFF;}
	.st3{fill:none;stroke:#000000;stroke-width:0.1286;stroke-linejoin:round;stroke-miterlimit:22.9256;}
	.st4{clip-path:url(#SVGID_3_);fill:none;stroke:#000000;stroke-width:0.1286;stroke-miterlimit:22.9256;}
	.st5{clip-path:url(#SVGID_3_);fill-rule:evenodd;clip-rule:evenodd;fill:#FFFFFF;}
	.st6{clip-path:url(#SVGID_5_);fill:none;stroke:#000000;stroke-width:0.1286;stroke-linejoin:round;stroke-miterlimit:22.9256;}
	.st7{clip-path:url(#SVGID_5_);fill-rule:evenodd;clip-rule:evenodd;fill:#FFFFFF;}
	.st8{fill-rule:evenodd;clip-rule:evenodd;fill:#0073C7;}
	.st9{fill:none;stroke:#000000;stroke-width:6.426273e-02;stroke-miterlimit:22.9256;}
	.st10{fill-rule:evenodd;clip-rule:evenodd;}
	.st11{fill:none;stroke:#000000;stroke-width:2.778123e-02;stroke-miterlimit:22.9256;}
	.st12{fill-rule:evenodd;clip-rule:evenodd;fill:#E8152E;}
	.st13{fill:none;stroke:#292929;stroke-width:0.1286;stroke-linejoin:round;stroke-miterlimit:22.9256;}
	.st14{clip-path:url(#SVGID_7_);fill:none;stroke:#000000;stroke-width:0.1286;stroke-miterlimit:22.9256;}
	.st15{fill-rule:evenodd;clip-rule:evenodd;fill:#D9D9D9;}
	.st16{fill-rule:evenodd;clip-rule:evenodd;fill:#F0C400;}
	.st17{fill:none;stroke:#000000;stroke-width:0.1286;stroke-miterlimit:22.9256;}
	.st18{fill-rule:evenodd;clip-rule:evenodd;fill:#F9F200;}
	.st19{fill-rule:evenodd;clip-rule:evenodd;fill:#D5B769;}
	.st20{clip-path:url(#SVGID_9_);fill:none;stroke:#000000;stroke-width:0.1286;stroke-miterlimit:22.9256;}
	.st21{fill:none;stroke:#0086CF;stroke-width:2.778123e-02;stroke-miterlimit:22.9256;}
	.st22{fill-rule:evenodd;clip-rule:evenodd;fill:#0068B0;}
	.st23{fill:none;stroke:#0964B0;stroke-width:2.778123e-02;stroke-miterlimit:22.9256;}
	.st24{fill:none;stroke:#FFFFFF;stroke-width:2.778123e-02;stroke-miterlimit:22.9256;}
	.st25{fill:none;stroke:#0964B0;stroke-width:0.1286;stroke-miterlimit:22.9256;}
	.st26{clip-path:url(#SVGID_11_);fill-rule:evenodd;clip-rule:evenodd;fill:#0073C7;}
	.st27{clip-path:url(#SVGID_11_);fill:none;stroke:#0086CF;stroke-width:2.778123e-02;stroke-miterlimit:22.9256;}
	.st28{fill:none;stroke:#292929;stroke-width:6.426273e-02;stroke-miterlimit:22.9256;}
	.st29{clip-path:url(#SVGID_13_);fill-rule:evenodd;clip-rule:evenodd;fill:#FFFFFF;}
	.st30{clip-path:url(#SVGID_13_);fill:none;stroke:#000000;stroke-width:0.1286;stroke-miterlimit:22.9256;}
</style>
<radialGradient id="SVGID_1_" cx="64.8" cy="2586.7468" r="62.6" gradientTransform="matrix(1 0 0 1 0 -2522.3469)" gradientUnits="userSpaceOnUse">
	<stop  offset="0.9487" style="stop-color:#212121"/>
	<stop  offset="1" style="stop-color:#606060;stop-opacity:0"/>
</radialGradient>
<circle class="st0" cx="64.8" cy="64.4" r="62.6"/>
<circle class="st1" cx="62.6" cy="62.6" r="62.6"/>
<g>
	<path class="st2" d="M42.4,52.9c1.1-1.4,2.1-1.1,3.2-1.7c1.1-1.1,2.4-3.4,5.5-5.2c0.8-1,1.4-1.6,1.6-2.3c0.1-0.4,0.1-0.7,0-1
		c-0.5-0.7-0.4,0.5-1.2,0.8c1.1-0.8,1.3-2,0.3-2c-0.6,0-0.2,0.8-1.3,1c0.6-0.2,0.8-0.3,1-0.8c0-0.5-1.4-0.6-2.7-0.1
		c-2.9,0.6-4.9,2.3-6.7,4.1C41.9,45.8,42.6,52.8,42.4,52.9L42.4,52.9z M42.4,52.9"/>
	<path class="st3" d="M42.4,52.9c1.1-1.4,2.1-1.1,3.2-1.7c1.1-1.1,2.4-3.4,5.5-5.2c0.8-1,1.4-1.6,1.6-2.3c0.1-0.4,0.1-0.7,0-1
		c-0.5-0.7-0.4,0.5-1.2,0.8c1.1-0.8,1.3-2,0.3-2c-0.6,0-0.2,0.8-1.3,1c0.6-0.2,0.8-0.3,1-0.8c0-0.5-1.4-0.6-2.7-0.1
		c-2.9,0.6-4.9,2.3-6.7,4.1C41.9,45.8,42.6,52.8,42.4,52.9L42.4,52.9z M42.4,52.9"/>
	<path class="st2" d="M96.5,85.5L76.4,87c0.4,1.4,0.8,2.4,1.8,3.5l0.2-2.6l-0.2,2.5c1.5,0.7,2.7-0.3,3.9,0.6l0.3-3.2L82.2,91
		c2.7,1,2.5-0.1,3.7-0.2l0.1-2.9l-0.1,2.9c1-0.3,1.5,0.5,2.2,0.5l0.2-2.7l-0.1,2.7c3.3-0.6,3.5,0.2,4.7-0.3l0.2-3.3l-0.2,3.2
		c0.5,0.1,0.2-1.5,2.9-1.4l0-2l0,2c0.2-1.9,0.5-1.1,0.8-1.8L96.5,85.5z M96.5,85.5"/>
	<g>
		<defs>
			<rect id="SVGID_2_" x="28.2" y="14.5" width="68.7" height="92.9"/>
		</defs>
		<clipPath id="SVGID_3_">
			<use xlink:href="#SVGID_2_"  style="overflow:visible;"/>
		</clipPath>
		<path class="st4" d="M96.5,85.5L76.4,87c0.4,1.4,0.8,2.4,1.8,3.5l0.2-2.6l-0.2,2.5c1.5,0.7,2.7-0.3,3.9,0.6l0.3-3.2L82.2,91
			c2.7,1,2.5-0.1,3.7-0.2l0.1-2.9l-0.1,2.9c1-0.3,1.5,0.5,2.2,0.5l0.2-2.7l-0.1,2.7c3.3-0.6,3.5,0.2,4.7-0.3l0.2-3.3l-0.2,3.2
			c0.5,0.1,0.2-1.5,2.9-1.4l0-2l0,2c0.2-1.9,0.5-1.1,0.8-1.8L96.5,85.5z M96.5,85.5"/>
		<path class="st5" d="M96.3,84.8c-0.8-2.5-6.9-2.7-14.6-2.4c-0.9-0.1-1.7,0.1-2.2,0.7c-2.4,1.2-3.8,2.5-2.9,4.3
			c0.5,1.4,1.4,2.1,2.8,2c1.6-0.5,2.4,1.5,4.6,0.7c2-1.5,4.2,0.6,5.1-0.1c1.1-0.4,3.1,0.3,3.7-0.7c0.5-1.9,1.9-0.8,2.9-1.2
			c0.5-1.1-0.3-0.9-0.1-1.6C95.7,85.9,97,86.2,96.3,84.8L96.3,84.8z M96.3,84.8"/>
		<path class="st4" d="M96.3,84.8c-0.8-2.5-6.9-2.7-14.6-2.4c-0.9-0.1-1.7,0.1-2.2,0.7c-2.4,1.2-3.8,2.5-2.9,4.3
			c0.5,1.4,1.4,2.1,2.8,2c1.6-0.5,2.4,1.5,4.6,0.7c2-1.5,4.2,0.6,5.1-0.1c1.1-0.4,3.1,0.3,3.7-0.7c0.5-1.9,1.9-0.8,2.9-1.2
			c0.5-1.1-0.3-0.9-0.1-1.6C95.7,85.9,97,86.2,96.3,84.8L96.3,84.8z M96.3,84.8"/>
	</g>
	<path class="st2" d="M28.2,85.5L48.3,87c-0.4,1.4-0.8,2.4-1.8,3.5l-0.2-2.6l0.2,2.6c-1.5,0.7-2.7-0.5-3.9,0.4l-0.3-3.1l0.2,3.2
		c-2.7,1-2.5-0.1-3.7-0.2l-0.1-2.9l0.1,2.9c-1-0.3-1.5,0.5-2.2,0.5l-0.2-2.7l0.2,2.7c-3.3-0.6-3.5,0.2-4.7-0.3l-0.2-3.3l0.2,3.2
		c-0.5,0.1-0.2-1.5-2.9-1.4l0-2l0,2c-0.2-1.9-0.5-1.1-0.7-1.8L28.2,85.5z M28.2,85.5"/>
	<g>
		<defs>
			<rect id="SVGID_4_" x="28.2" y="14.5" width="68.7" height="92.9"/>
		</defs>
		<clipPath id="SVGID_5_">
			<use xlink:href="#SVGID_4_"  style="overflow:visible;"/>
		</clipPath>
		<path class="st6" d="M28.2,85.5L48.3,87c-0.4,1.4-0.8,2.4-1.8,3.5l-0.2-2.6l0.2,2.6c-1.5,0.7-2.7-0.5-3.9,0.4l-0.3-3.1l0.2,3.2
			c-2.7,1-2.5-0.1-3.7-0.2l-0.1-2.9l0.1,2.9c-1-0.3-1.5,0.5-2.2,0.5l-0.2-2.7l0.2,2.7c-3.3-0.6-3.5,0.2-4.7-0.3l-0.2-3.3l0.2,3.2
			c-0.5,0.1-0.2-1.5-2.9-1.4l0-2l0,2c-0.2-1.9-0.5-1.1-0.7-1.8L28.2,85.5z M28.2,85.5"/>
		<path class="st7" d="M28.5,84.8c0.8-2.5,6.9-2.7,14.6-2.4c0.9-0.1,1.7,0.1,2.2,0.7c2.4,1.2,3.8,2.5,2.9,4.3
			c-0.5,1.4-1.4,2.1-2.8,2c-1.6-0.5-2.4,1.5-4.6,0.7c-2-1.5-4.2,0.6-5.1-0.1c-1.1-0.4-3.1,0.3-3.7-0.7c-0.4-1.9-1.9-0.8-2.9-1.2
			c-0.5-1.1,0.3-0.9,0.1-1.6C29,85.9,27.7,86.2,28.5,84.8L28.5,84.8z M28.5,84.8"/>
		<path class="st6" d="M28.5,84.8c0.8-2.5,6.9-2.7,14.6-2.4c0.9-0.1,1.7,0.1,2.2,0.7c2.4,1.2,3.8,2.5,2.9,4.3
			c-0.5,1.4-1.4,2.1-2.8,2c-1.6-0.5-2.4,1.5-4.6,0.7c-2-1.5-4.2,0.6-5.1-0.1c-1.1-0.4-3.1,0.3-3.7-0.7c-0.4-1.9-1.9-0.8-2.9-1.2
			c-0.5-1.1,0.3-0.9,0.1-1.6C29,85.9,27.7,86.2,28.5,84.8L28.5,84.8z M28.5,84.8"/>
	</g>
	<path class="st2" d="M82,52.9c-1.1-1.4-2.1-1.1-3.2-1.7c-1.1-1.1-2.4-3.4-5.5-5.2c-0.8-1-1.4-1.6-1.6-2.3c-0.1-0.4-0.1-0.7,0-1
		c0.5-0.7,0.4,0.5,1.2,0.8c-1.1-0.8-1.3-2-0.3-2c0.6,0,0.2,0.8,1.3,1c-0.6-0.2-0.8-0.3-1-0.8c0-0.5,1.4-0.6,2.7-0.1
		c2.9,0.6,4.9,2.3,6.7,4.1C82.5,45.8,81.8,52.8,82,52.9L82,52.9z M82,52.9"/>
	<path class="st3" d="M82,52.9c-1.1-1.4-2.1-1.1-3.2-1.7c-1.1-1.1-2.4-3.4-5.5-5.2c-0.8-1-1.4-1.6-1.6-2.3c-0.1-0.4-0.1-0.7,0-1
		c0.5-0.7,0.4,0.5,1.2,0.8c-1.1-0.8-1.3-2-0.3-2c0.6,0,0.2,0.8,1.3,1c-0.6-0.2-0.8-0.3-1-0.8c0-0.5,1.4-0.6,2.7-0.1
		c2.9,0.6,4.9,2.3,6.7,4.1C82.5,45.8,81.8,52.8,82,52.9L82,52.9z M82,52.9"/>
	<path class="st8" d="M43.4,46.8c12.5-2.7,25-2.7,37.5-0.4l-0.5,35.3c-0.5,9.4-12.9,9.2-18.1,15.1c-8-7.4-17.6-5.6-18.4-18.8
		L43.4,46.8z M43.4,46.8"/>
	<path class="st9" d="M43.4,46.8c12.5-2.7,25-2.7,37.5-0.4l-0.5,35.3c-0.5,9.4-12.9,9.2-18.1,15.1c-8-7.4-17.6-5.6-18.4-18.8
		L43.4,46.8z M43.4,46.8"/>
	<path class="st10" d="M72.7,41.2c0.4,0.2,0.4,0.1,0.6,0.5c0.2,0.1,0.3,0,0.3-0.3C73.4,41.1,73.2,41.1,72.7,41.2L72.7,41.2z
		 M72.7,41.2"/>
	<path class="st11" d="M72.7,41.2c0.4,0.2,0.4,0.1,0.6,0.5c0.2,0.1,0.3,0,0.3-0.3C73.4,41.1,73.2,41.1,72.7,41.2L72.7,41.2z
		 M72.7,41.2"/>
	<path class="st10" d="M71.5,41.8c0.4,0.3,0.4,0.2,0.6,0.5c0.3,0.1,0.4,0,0.3-0.3C72.2,41.7,72,41.7,71.5,41.8L71.5,41.8z
		 M71.5,41.8"/>
	<path class="st11" d="M71.5,41.8c0.4,0.3,0.4,0.2,0.6,0.5c0.3,0.1,0.4,0,0.3-0.3C72.2,41.7,72,41.7,71.5,41.8L71.5,41.8z
		 M71.5,41.8"/>
	<path class="st10" d="M71,42.9c0.4,0.2,0.4,0.1,0.7,0.4c0.2,0,0.3-0.1,0.2-0.4C71.7,42.6,71.5,42.6,71,42.9L71,42.9z M71,42.9"/>
	<path class="st11" d="M71,42.9c0.4,0.2,0.4,0.1,0.7,0.4c0.2,0,0.3-0.1,0.2-0.4C71.7,42.6,71.5,42.6,71,42.9L71,42.9z M71,42.9"/>
	<path class="st10" d="M53.4,42.8c-0.4,0.2-0.4,0-0.7,0.4c-0.2,0-0.3-0.1-0.2-0.4C52.7,42.5,52.9,42.5,53.4,42.8L53.4,42.8z
		 M53.4,42.8"/>
	<path class="st11" d="M53.4,42.8c-0.4,0.2-0.4,0-0.7,0.4c-0.2,0-0.3-0.1-0.2-0.4C52.7,42.5,52.9,42.5,53.4,42.8L53.4,42.8z
		 M53.4,42.8"/>
	<path class="st10" d="M52.9,41.7c-0.4,0.3-0.4,0.2-0.6,0.5c-0.3,0.1-0.4,0-0.3-0.3C52.2,41.6,52.4,41.6,52.9,41.7L52.9,41.7z
		 M52.9,41.7"/>
	<path class="st11" d="M52.9,41.7c-0.4,0.3-0.4,0.2-0.6,0.5c-0.3,0.1-0.4,0-0.3-0.3C52.2,41.6,52.4,41.6,52.9,41.7L52.9,41.7z
		 M52.9,41.7"/>
	<path class="st10" d="M51.7,41.2c-0.4,0.2-0.4,0.1-0.6,0.5c-0.3,0.1-0.3,0-0.3-0.3C51,41.1,51.2,41,51.7,41.2L51.7,41.2z
		 M51.7,41.2"/>
	<path class="st11" d="M51.7,41.2c-0.4,0.2-0.4,0.1-0.6,0.5c-0.3,0.1-0.3,0-0.3-0.3C51,41.1,51.2,41,51.7,41.2L51.7,41.2z
		 M51.7,41.2"/>
	<path class="st10" d="M44,86.4c-0.3-0.4-0.2-0.4-0.6-0.5c-0.1-0.2,0-0.3,0.3-0.3C44,85.7,44.1,85.9,44,86.4L44,86.4z M44,86.4"/>
	<path class="st11" d="M44,86.4c-0.3-0.4-0.2-0.4-0.6-0.5c-0.1-0.2,0-0.3,0.3-0.3C44,85.7,44.1,85.9,44,86.4L44,86.4z M44,86.4"/>
	<path class="st12" d="M45.3,36c0.5,0,1.3,0,1.2,0.3l-2.8,0.8L45.3,36z M45.3,36"/>
	<path class="st13" d="M45.3,36c0.5,0,1.3,0,1.2,0.3l-2.8,0.8L45.3,36z M45.3,36"/>
	<path class="st2" d="M42.9,53.1c0.4,1.4,0.3,2.8,0.2,4.2c-1.6-2.2-4.3-4-4.9-6.8c0.5,2.6,3.3,4.5,4.9,6.8c4.8,2,5.7,5.4,6.7,8.7
		c0.3,0.9-0.3,1.6-0.8,1.4c0-0.9,0.1-0.8-0.2-1.1c0.5,1.1-0.2,1.8-0.8,1.5c-0.2-0.1,0.1-0.9-0.2-1c0.5,0.9,0,1.6-0.9,0.9
		c-0.9-0.4-1.9-1.2-2.8-2.4c-0.1-0.9-0.6-1.2-1.4-1c-2.5-0.3-3.6-4.2-6.4-4.9c3,1.1,4.2,4.9,6.7,4.9c0.2,3-0.4,5.5-0.7,6.7
		c-0.4,1.3-0.4,2.5-0.1,3.8c0.7,3.1,1,4.1-0.5,6.9l-1.1,1.7c1.4,0.5,2.5,1.3,2.9,1.9c0.2,0.2,0.3,0.5,0.2,0.7
		c-0.2-0.4-0.7-0.6-1-0.8c0.5,0.2,0.9,0.5,1,0.9c0,0.4-0.2,0.7-0.7,0.6c-0.1-0.5-0.6-0.9-1.1-1c1.7,0.5,1.4,2-0.3,1.1
		c-0.3-0.8-1.3-1.5-3.2-2.1c-0.3-0.7,0.2-1.8,1-3.2c1.4-2.3,1.3-4.1,0.7-6.4l1.9-3l-1.9,2.9c0-0.6-0.1-1.1,0-1.7
		c0-0.9,0.2-1.9,0.4-2.8c-0.2,0.9-0.4,1.8-0.4,2.8c-0.1,3.2,1.2,5.2-0.8,8.2c-0.5,0.7-1.4,2.2-1,3.1c1.3,0.5,1.8,0.7,1.9,0.9
		c1.7,0.5,1.8,2.5,0.5,2c-0.2-0.5-0.6-0.9-1.3-1.2c2.6,1.4,0.3,2,0,1.7c0.3-0.6-0.1-1-1.1-1.1c2.1,0.4,1.1,1.7,0,1.4
		c-1.3,0-2.4-0.4-3.6-0.6c-1.4,0.2-2.7-1-4.2-3.5c-0.8-1.2-0.5-2.7,0.5-4.5c0.4-2.6-0.9-4.9-1.9-7.3c-0.2-2,0.1-4,0.7-6.1
		c0.4-3.1,0.5-6.1,0.2-9.2c-0.4-1.1-0.4-2.2-0.2-3.4C31,49,32.6,44.8,34.7,41c0.8-1.1,1.4-2.6,1.7-4.4c0.1-1.3,1.3-2.1,3.2-2.5
		c0.9-0.7,1.6-1.2,2.6-1.1c1,0,0.9,0.3,3.2-0.2c2.1,0,2.2,1.2,1.2,2.5l-2.2,1.5l2.2-0.6c0.4,1.2-2,2.1-3,3.5c-1,0.6-1.4,2.9-1.2,7
		C42.5,48.8,42.6,51,42.9,53.1L42.9,53.1z M42.9,53.1"/>
	<g>
		<defs>
			<rect id="SVGID_6_" x="28.2" y="14.5" width="68.7" height="92.9"/>
		</defs>
		<clipPath id="SVGID_7_">
			<use xlink:href="#SVGID_6_"  style="overflow:visible;"/>
		</clipPath>
		<path class="st14" d="M42.9,53.1c0.4,1.4,0.3,2.8,0.2,4.2c-1.6-2.2-4.3-4-4.9-6.8c0.5,2.6,3.3,4.5,4.9,6.8c4.8,2,5.7,5.4,6.7,8.7
			c0.3,0.9-0.3,1.6-0.8,1.4c0-0.9,0.1-0.8-0.2-1.1c0.5,1.1-0.2,1.8-0.8,1.5c-0.2-0.1,0.1-0.9-0.2-1c0.5,0.9,0,1.6-0.9,0.9
			c-0.9-0.4-1.9-1.2-2.8-2.4c-0.1-0.9-0.6-1.2-1.4-1c-2.5-0.3-3.6-4.2-6.4-4.9c3,1.1,4.2,4.9,6.7,4.9c0.2,3-0.4,5.5-0.7,6.7
			c-0.4,1.3-0.4,2.5-0.1,3.8c0.7,3.1,1,4.1-0.5,6.9l-1.1,1.7c1.4,0.5,2.5,1.3,2.9,1.9c0.2,0.2,0.3,0.5,0.2,0.7
			c-0.2-0.4-0.7-0.6-1-0.8c0.5,0.2,0.9,0.5,1,0.9c0,0.4-0.2,0.7-0.7,0.6c-0.1-0.5-0.6-0.9-1.1-1c1.7,0.5,1.4,2-0.3,1.1
			c-0.3-0.8-1.3-1.5-3.2-2.1c-0.3-0.7,0.2-1.8,1-3.2c1.4-2.3,1.3-4.1,0.7-6.4l1.9-3l-1.9,2.9c0-0.6-0.1-1.1,0-1.7
			c0-0.9,0.2-1.9,0.4-2.8c-0.2,0.9-0.4,1.8-0.4,2.8c-0.1,3.2,1.2,5.2-0.8,8.2c-0.5,0.7-1.4,2.2-1,3.1c1.3,0.5,1.8,0.7,1.9,0.9
			c1.7,0.5,1.8,2.5,0.5,2c-0.2-0.5-0.6-0.9-1.3-1.2c2.6,1.4,0.3,2,0,1.7c0.3-0.6-0.1-1-1.1-1.1c2.1,0.4,1.1,1.7,0,1.4
			c-1.3,0-2.4-0.4-3.6-0.6c-1.4,0.2-2.7-1-4.2-3.5c-0.8-1.2-0.5-2.7,0.5-4.5c0.4-2.6-0.9-4.9-1.9-7.3c-0.2-2,0.1-4,0.7-6.1
			c0.4-3.1,0.5-6.1,0.2-9.2c-0.4-1.1-0.4-2.2-0.2-3.4C31,49,32.6,44.8,34.7,41c0.8-1.1,1.4-2.6,1.7-4.4c0.1-1.3,1.3-2.1,3.2-2.5
			c0.9-0.7,1.6-1.2,2.6-1.1c1,0,0.9,0.3,3.2-0.2c2.1,0,2.2,1.2,1.2,2.5l-2.2,1.5l2.2-0.6c0.4,1.2-2,2.1-3,3.5c-1,0.6-1.4,2.9-1.2,7
			C42.5,48.8,42.6,51,42.9,53.1L42.9,53.1z M42.9,53.1"/>
	</g>
	<path class="st10" d="M47.5,33.1c0-0.3-0.5-0.4-1.2-0.2c0.2,0.4,0.5,0.7,0.9,0.9C47.4,33.6,47.5,33.6,47.5,33.1L47.5,33.1z
		 M47.5,33.1"/>
	<path class="st11" d="M47.5,33.1c0-0.3-0.5-0.4-1.2-0.2c0.2,0.4,0.5,0.7,0.9,0.9C47.4,33.6,47.5,33.6,47.5,33.1L47.5,33.1z
		 M47.5,33.1"/>
	<path class="st10" d="M42.5,34.2c-0.4,0.1-0.8,0.6-1.1,1.1c0.4-0.2,1.2-0.2,1.7-0.2L42.4,35c0-0.3,0-0.5-0.3-0.6L42.5,34.2z
		 M42.5,34.2"/>
	<path class="st9" d="M42.5,34.2c-0.4,0.1-0.8,0.6-1.1,1.1c0.4-0.2,1.2-0.2,1.7-0.2L42.4,35c0-0.3,0-0.5-0.3-0.6L42.5,34.2z
		 M42.5,34.2"/>
	<path class="st3" d="M38.8,35.3c-2.4-0.3-2.1,2.8,0.6,1.4"/>
	<path class="st10" d="M38.6,36.1c-0.1,0-0.1,0.1-0.1,0.1c0,0.1,0.1,0.1,0.1,0.1c0.1,0,0.2,0,0.2-0.1C38.7,36.2,38.6,36.1,38.6,36.1
		L38.6,36.1z M38.6,36.1"/>
	<path class="st11" d="M38.6,36.1c-0.1,0-0.1,0.1-0.1,0.1c0,0.1,0.1,0.1,0.1,0.1c0.1,0,0.2,0,0.2-0.1C38.7,36.2,38.6,36.1,38.6,36.1
		L38.6,36.1z M38.6,36.1"/>
	<path class="st10" d="M49.6,67.9c-0.1-0.4,0-0.4-0.4-0.7c0-0.3,0.1-0.3,0.4-0.2C49.9,67.3,49.9,67.4,49.6,67.9L49.6,67.9z
		 M49.6,67.9"/>
	<path class="st11" d="M49.6,67.9c-0.1-0.4,0-0.4-0.4-0.7c0-0.3,0.1-0.3,0.4-0.2C49.9,67.3,49.9,67.4,49.6,67.9L49.6,67.9z
		 M49.6,67.9"/>
	<path class="st10" d="M48.4,68.4c-0.1-0.4,0.1-0.4-0.2-0.7c0.1-0.3,0.2-0.3,0.4-0.1C48.8,67.9,48.7,68,48.4,68.4L48.4,68.4z
		 M48.4,68.4"/>
	<path class="st11" d="M48.4,68.4c-0.1-0.4,0.1-0.4-0.2-0.7c0.1-0.3,0.2-0.3,0.4-0.1C48.8,67.9,48.7,68,48.4,68.4L48.4,68.4z
		 M48.4,68.4"/>
	<path class="st10" d="M47.2,68.5c0.1-0.4,0.2-0.4,0-0.8c0.1-0.2,0.3-0.2,0.4,0C47.7,68.1,47.7,68.3,47.2,68.5L47.2,68.5z
		 M47.2,68.5"/>
	<path class="st11" d="M47.2,68.5c0.1-0.4,0.2-0.4,0-0.8c0.1-0.2,0.3-0.2,0.4,0C47.7,68.1,47.7,68.3,47.2,68.5L47.2,68.5z
		 M47.2,68.5"/>
	<path class="st10" d="M41.6,87.8c-0.3-0.3-0.2-0.4-0.6-0.5C40.9,87,41,87,41.3,87C41.6,87.1,41.7,87.3,41.6,87.8L41.6,87.8z
		 M41.6,87.8"/>
	<path class="st11" d="M41.6,87.8c-0.3-0.3-0.2-0.4-0.6-0.5C40.9,87,41,87,41.3,87C41.6,87.1,41.7,87.3,41.6,87.8L41.6,87.8z
		 M41.6,87.8"/>
	<path class="st10" d="M40.6,88.2c-0.3-0.3-0.2-0.4-0.6-0.5c-0.1-0.3,0-0.4,0.3-0.3C40.7,87.5,40.7,87.6,40.6,88.2L40.6,88.2z
		 M40.6,88.2"/>
	<path class="st11" d="M40.6,88.2c-0.3-0.3-0.2-0.4-0.6-0.5c-0.1-0.3,0-0.4,0.3-0.3C40.7,87.5,40.7,87.6,40.6,88.2L40.6,88.2z
		 M40.6,88.2"/>
	<path class="st10" d="M39.4,88.5c-0.2-0.4-0.1-0.4-0.5-0.6c0-0.2,0.1-0.3,0.3-0.3C39.6,87.8,39.6,87.9,39.4,88.5L39.4,88.5z
		 M39.4,88.5"/>
	<path class="st11" d="M39.4,88.5c-0.2-0.4-0.1-0.4-0.5-0.6c0-0.2,0.1-0.3,0.3-0.3C39.6,87.8,39.6,87.9,39.4,88.5L39.4,88.5z
		 M39.4,88.5"/>
	<path class="st10" d="M43.6,86.9c-0.2-0.4-0.1-0.4-0.5-0.6c0-0.3,0.1-0.4,0.3-0.2C43.7,86.3,43.8,86.4,43.6,86.9L43.6,86.9z
		 M43.6,86.9"/>
	<path class="st11" d="M43.6,86.9c-0.2-0.4-0.1-0.4-0.5-0.6c0-0.3,0.1-0.4,0.3-0.2C43.7,86.3,43.8,86.4,43.6,86.9L43.6,86.9z
		 M43.6,86.9"/>
	<path class="st10" d="M42.8,87.3c-0.2-0.4-0.1-0.4-0.5-0.6c0-0.2,0.1-0.3,0.3-0.2C43,86.7,43,86.8,42.8,87.3L42.8,87.3z M42.8,87.3
		"/>
	<path class="st11" d="M42.8,87.3c-0.2-0.4-0.1-0.4-0.5-0.6c0-0.2,0.1-0.3,0.3-0.2C43,86.7,43,86.8,42.8,87.3L42.8,87.3z M42.8,87.3
		"/>
	<path class="st15" d="M73.3,47.6l0.3,2.2l1.3,0.3l-1.3,0.3l-0.3,2.7L73,50.5l-2-0.3l2-0.3L73.3,47.6z M73.3,47.6"/>
	<path class="st16" d="M67.3,24.9l0.6,7.5L63.7,31L67.3,24.9z M67.3,24.9"/>
	<path class="st17" d="M67.3,24.9l0.6,7.5L63.7,31L67.3,24.9z M67.3,24.9"/>
	<path class="st16" d="M58.3,24.7l3.8,6.4L57.2,32L58.3,24.7z M58.3,24.7"/>
	<path class="st17" d="M58.3,24.7l3.8,6.4L57.2,32L58.3,24.7z M58.3,24.7"/>
	<path class="st8" d="M62.5,29c5.3,0,9.7,3,10.4,6.9c0.1,0.4-0.7,0.9-0.7,1.3c0,1.2,0.5,2.2-0.1,3.2c-2.1,1.8-5.4,2.3-9.7,2.3
		s-8.4-0.7-9.6-2.2c0-1.1,1.2-2.5,0.3-3.5c-0.4-0.4-1.1-1-0.9-1.5C53.3,31.8,57.5,29,62.5,29L62.5,29z M62.5,29"/>
	<path class="st17" d="M62.5,29c5.3,0,9.7,3,10.4,6.9c0.1,0.4-0.7,0.9-0.7,1.3c0,1.2,0.5,2.2-0.1,3.2c-2.1,1.8-5.4,2.3-9.7,2.3
		s-8.4-0.7-9.6-2.2c0-1.1,1.2-2.5,0.3-3.5c-0.4-0.4-1.1-1-0.9-1.5C53.3,31.8,57.5,29,62.5,29L62.5,29z M62.5,29"/>
	<path class="st18" d="M49.8,26.9l5.3,7.7l0.5-10.1l3.9,8.9l3.3-16.9l2.8,17.4l5.8-9.5l-1,10.5l5.9-7.2l-2.8,8.9l-1.2,4.8
		c-6.4-2.5-13-2.9-19.8-0.2l-1-5.2L49.8,26.9z M49.8,26.9"/>
	<path class="st17" d="M49.8,26.9l5.3,7.7l0.5-10.1l3.9,8.9l3.3-16.9l2.8,17.4l5.8-9.5l-1,10.5l5.9-7.2l-2.8,8.9l-1.2,4.8
		c-6.4-2.5-13-2.9-19.8-0.2l-1-5.2L49.8,26.9z M49.8,26.9"/>
	<path class="st16" d="M50.1,28.5l4.1,6.4l-2.6,1.2L50.1,28.5z M50.1,28.5"/>
	<path class="st17" d="M50.1,28.5l4.1,6.4l-2.6,1.2L50.1,28.5z M50.1,28.5"/>
	<path class="st16" d="M56,26.8l2.9,7l-3,0.6L56,26.8z M56,26.8"/>
	<path class="st17" d="M56,26.8l2.9,7l-3,0.6L56,26.8z M56,26.8"/>
	<path class="st16" d="M70.4,27l-0.9,8.2l-3.3-0.8L70.4,27z M70.4,27"/>
	<path class="st17" d="M70.4,27l-0.9,8.2l-3.3-0.8L70.4,27z M70.4,27"/>
	<path class="st16" d="M75.8,29.2l-2.3,7.3l-2.8-0.9L75.8,29.2z M75.8,29.2"/>
	<path class="st17" d="M75.8,29.2l-2.3,7.3l-2.8-0.9L75.8,29.2z M75.8,29.2"/>
	<path class="st16" d="M61.3,33.7l3.1-2.4l0.4,2.6L61.3,33.7z M61.3,33.7"/>
	<path class="st17" d="M61.3,33.7l3.1-2.4l0.4,2.6L61.3,33.7z M61.3,33.7"/>
	<path class="st16" d="M63.7,30.8l-2.5-1.9l-0.9,4.6L63.7,30.8z M63.7,30.8"/>
	<path class="st17" d="M63.7,30.8l-2.5-1.9l-0.9,4.6L63.7,30.8z M63.7,30.8"/>
	<path class="st16" d="M61.9,28.3l1.6-1.8l0.6,3.6L61.9,28.3z M61.9,28.3"/>
	<path class="st17" d="M61.9,28.3l1.6-1.8l0.6,3.6L61.9,28.3z M61.9,28.3"/>
	<path class="st16" d="M63.1,25.8L62,24.7l-0.5,3L63.1,25.8z M63.1,25.8"/>
	<path class="st17" d="M63.1,25.8L62,24.7l-0.5,3L63.1,25.8z M63.1,25.8"/>
	<path class="st16" d="M62.2,23.7l0.6-3.8l0.7,5.3L62.2,23.7z M62.2,23.7"/>
	<path class="st17" d="M62.2,23.7l0.6-3.8l0.7,5.3L62.2,23.7z M62.2,23.7"/>
	<path class="st19" d="M52.5,40.7c0.3,2.8,18.1,4.3,19.8,0.2c0.5-0.1,0.4-1-0.1-0.9c-1.6,4-17.5,3.2-19.3,0.2
		C52.3,40.1,51.9,40.6,52.5,40.7L52.5,40.7z M52.5,40.7"/>
	<path class="st17" d="M52.5,40.7c0.3,2.8,18.1,4.3,19.8,0.2c0.5-0.1,0.4-1-0.1-0.9c-1.6,4-17.5,3.2-19.3,0.2
		C52.3,40.1,51.9,40.6,52.5,40.7L52.5,40.7z M52.5,40.7"/>
	<path class="st16" d="M62.2,14.7c0.7,0.9,1.1,4.6,1.5,4l0.6-0.8c0.4,1.9,1.8,4.5-0.7,4.6c-0.3-0.1-0.5,0.1-0.4-0.4
		c-0.5,0.8-1.1,0.6-1.9,0.4c-2.3-1.5-0.4-3.7-1.3-5c0.4,0.3,0.8,0.8,1.2,1.1C61.5,17.4,62.2,15.8,62.2,14.7L62.2,14.7z M62.2,14.7"
		/>
	<g>
		<defs>
			<rect id="SVGID_8_" x="28.2" y="14.5" width="68.7" height="92.9"/>
		</defs>
		<clipPath id="SVGID_9_">
			<use xlink:href="#SVGID_8_"  style="overflow:visible;"/>
		</clipPath>
		<path class="st20" d="M62.2,14.7c0.7,0.9,1.1,4.6,1.5,4l0.6-0.8c0.4,1.9,1.8,4.5-0.7,4.6c-0.3-0.1-0.5,0.1-0.4-0.4
			c-0.5,0.8-1.1,0.6-1.9,0.4c-2.3-1.5-0.4-3.7-1.3-5c0.4,0.3,0.8,0.8,1.2,1.1C61.5,17.4,62.2,15.8,62.2,14.7L62.2,14.7z M62.2,14.7"
			/>
	</g>
	<path class="st16" d="M56.9,36.7c-0.2-0.2-0.5-0.3-0.7-0.5c-0.2,0.3-0.4,0.5-0.6,0.8c0.2,0.2,0.5,0.3,0.7,0.5
		C56.5,37.2,56.7,36.9,56.9,36.7L56.9,36.7z M63.2,36.2c-0.2-0.2-0.4-0.4-0.6-0.6c-0.2,0.2-0.5,0.4-0.7,0.6c0.2,0.2,0.4,0.4,0.6,0.6
		C62.7,36.6,62.9,36.4,63.2,36.2L63.2,36.2z M69.4,37.1c-0.2-0.3-0.3-0.5-0.5-0.7c-0.2,0.1-0.5,0.3-0.7,0.5c0.2,0.2,0.3,0.5,0.5,0.7
		C68.9,37.4,69.2,37.2,69.4,37.1L69.4,37.1z M71.1,38.3c0.2-0.1,0.5-0.3,0.7-0.4c0.1,0.3,0.3,0.5,0.4,0.8c-0.2,0.1-0.5,0.2-0.7,0.3
		c0.1,0.3,0.3,0.5,0.4,0.8l0.8-0.4l-0.4,1.2c-3.1-1.1-6.4-2-9.9-2c-3.3,0-6.6,0.8-9.7,1.8c-0.1,0-0.2,0.1-0.3,0.1l-0.2-1.1l0.6,0.3
		c0.1-0.3,0.3-0.5,0.4-0.8c-0.2-0.1-0.5-0.2-0.7-0.3c0.1-0.3,0.3-0.5,0.5-0.8c0.2,0.1,0.5,0.2,0.7,0.4c-0.1,0.3-0.3,0.5-0.5,0.8
		c0.2,0.1,0.5,0.3,0.7,0.4c0.2-0.3,0.3-0.5,0.5-0.8c0.2,0.1,0.5,0.3,0.7,0.4c0.2-0.3,0.3-0.5,0.5-0.8c-0.2-0.1-0.5-0.3-0.7-0.4
		c-0.2-0.1-0.5-0.3-0.7-0.4c-0.2-0.1-0.5-0.3-0.7-0.4c0.2-0.3,0.4-0.5,0.6-0.8c0.2,0.1,0.4,0.3,0.6,0.4c0.2-0.3,0.4-0.5,0.6-0.8
		c0.2,0.1,0.4,0.3,0.6,0.5c0.2-0.2,0.4-0.5,0.6-0.8c0.2,0.2,0.4,0.3,0.6,0.5c0.2-0.2,0.4-0.5,0.7-0.7c0.2,0.2,0.4,0.4,0.6,0.5
		c-0.2,0.2-0.4,0.5-0.6,0.7c-0.2,0.2-0.4,0.5-0.6,0.7c-0.2,0.2-0.4,0.5-0.5,0.7c0.2,0.2,0.4,0.3,0.7,0.5c0.2-0.2,0.4-0.5,0.6-0.7
		c0.2,0.2,0.4,0.3,0.6,0.5c0.2-0.2,0.4-0.4,0.5-0.6c-0.2-0.2-0.4-0.4-0.7-0.5c0.2-0.2,0.4-0.5,0.6-0.7c0.2,0.2,0.4,0.4,0.7,0.6
		c-0.2,0.2-0.4,0.4-0.6,0.7c0.2,0.2,0.4,0.4,0.6,0.6c0.2-0.2,0.4-0.4,0.6-0.7c0.2,0.2,0.4,0.4,0.6,0.6c0.2-0.2,0.4-0.4,0.6-0.6
		c-0.2-0.2-0.4-0.4-0.6-0.6c-0.2-0.2-0.4-0.4-0.6-0.6c-0.2-0.2-0.4-0.4-0.6-0.6c0.2-0.2,0.5-0.4,0.7-0.6c0.2,0.2,0.4,0.4,0.6,0.6
		c0.2-0.2,0.5-0.4,0.7-0.6c0.2,0.2,0.4,0.4,0.6,0.6c0.2-0.2,0.5-0.4,0.7-0.6c0.2,0.2,0.4,0.4,0.6,0.6c0.2-0.2,0.5-0.4,0.7-0.6
		c0.2,0.2,0.4,0.4,0.6,0.7c-0.2,0.2-0.5,0.4-0.7,0.5c-0.2,0.2-0.5,0.4-0.7,0.6c-0.2,0.2-0.4,0.4-0.7,0.6c0.2,0.2,0.4,0.4,0.6,0.6
		c0.2-0.2,0.4-0.4,0.7-0.6c0.2,0.2,0.4,0.4,0.6,0.6c0.2-0.2,0.4-0.3,0.6-0.5c-0.2-0.2-0.4-0.4-0.6-0.7c0.2-0.2,0.5-0.4,0.7-0.5
		c0.2,0.2,0.4,0.5,0.6,0.7c-0.2,0.2-0.5,0.3-0.7,0.5c0.2,0.2,0.4,0.4,0.6,0.7c0.2-0.2,0.5-0.3,0.7-0.5c0.2,0.2,0.4,0.5,0.5,0.7
		c0.2-0.2,0.5-0.3,0.7-0.5c-0.2-0.2-0.3-0.5-0.5-0.7c-0.2-0.2-0.4-0.5-0.5-0.7c-0.2-0.2-0.4-0.5-0.6-0.7c0.2-0.2,0.5-0.3,0.7-0.5
		c0.2,0.2,0.4,0.5,0.5,0.7c0.2-0.2,0.5-0.3,0.7-0.5c0.2,0.2,0.3,0.5,0.5,0.7c0.2-0.1,0.5-0.3,0.7-0.4c0.2,0.2,0.3,0.5,0.5,0.7
		c0.2-0.1,0.5-0.3,0.7-0.4c0.2,0.3,0.3,0.5,0.5,0.8c-0.2,0.1-0.5,0.3-0.7,0.4c-0.2,0.1-0.5,0.3-0.7,0.4c-0.2,0.1-0.5,0.3-0.7,0.4
		c0.2,0.3,0.3,0.5,0.5,0.7c0.2-0.1,0.5-0.3,0.7-0.4c0.2,0.3,0.3,0.5,0.5,0.8c0,0,0,0,0,0c0.2-0.1,0.4-0.2,0.7-0.4
		C71.4,38.8,71.2,38.5,71.1,38.3L71.1,38.3z M71.1,38.3"/>
	<path class="st17" d="M56.9,36.7c-0.2-0.2-0.5-0.3-0.7-0.5c-0.2,0.3-0.4,0.5-0.6,0.8c0.2,0.2,0.5,0.3,0.7,0.5
		C56.5,37.2,56.7,36.9,56.9,36.7L56.9,36.7z M63.2,36.2c-0.2-0.2-0.4-0.4-0.6-0.6c-0.2,0.2-0.5,0.4-0.7,0.6c0.2,0.2,0.4,0.4,0.6,0.6
		C62.7,36.6,62.9,36.4,63.2,36.2L63.2,36.2z M69.4,37.1c-0.2-0.3-0.3-0.5-0.5-0.7c-0.2,0.1-0.5,0.3-0.7,0.5c0.2,0.2,0.3,0.5,0.5,0.7
		C68.9,37.4,69.2,37.2,69.4,37.1L69.4,37.1z M71.1,38.3c0.2-0.1,0.5-0.3,0.7-0.4c0.1,0.3,0.3,0.5,0.4,0.8c-0.2,0.1-0.5,0.2-0.7,0.3
		c0.1,0.3,0.3,0.5,0.4,0.8l0.8-0.4l-0.4,1.2c-3.1-1.1-6.4-2-9.9-2c-3.3,0-6.6,0.8-9.7,1.8c-0.1,0-0.2,0.1-0.3,0.1l-0.2-1.1l0.6,0.3
		c0.1-0.3,0.3-0.5,0.4-0.8c-0.2-0.1-0.5-0.2-0.7-0.3c0.1-0.3,0.3-0.5,0.5-0.8c0.2,0.1,0.5,0.2,0.7,0.4c-0.1,0.3-0.3,0.5-0.5,0.8
		c0.2,0.1,0.5,0.3,0.7,0.4c0.2-0.3,0.3-0.5,0.5-0.8c0.2,0.1,0.5,0.3,0.7,0.4c0.2-0.3,0.3-0.5,0.5-0.8c-0.2-0.1-0.5-0.3-0.7-0.4
		c-0.2-0.1-0.5-0.3-0.7-0.4c-0.2-0.1-0.5-0.3-0.7-0.4c0.2-0.3,0.4-0.5,0.6-0.8c0.2,0.1,0.4,0.3,0.6,0.4c0.2-0.3,0.4-0.5,0.6-0.8
		c0.2,0.1,0.4,0.3,0.6,0.5c0.2-0.2,0.4-0.5,0.6-0.8c0.2,0.2,0.4,0.3,0.6,0.5c0.2-0.2,0.4-0.5,0.7-0.7c0.2,0.2,0.4,0.4,0.6,0.5
		c-0.2,0.2-0.4,0.5-0.6,0.7c-0.2,0.2-0.4,0.5-0.6,0.7c-0.2,0.2-0.4,0.5-0.5,0.7c0.2,0.2,0.4,0.3,0.7,0.5c0.2-0.2,0.4-0.5,0.6-0.7
		c0.2,0.2,0.4,0.3,0.6,0.5c0.2-0.2,0.4-0.4,0.5-0.6c-0.2-0.2-0.4-0.4-0.7-0.5c0.2-0.2,0.4-0.5,0.6-0.7c0.2,0.2,0.4,0.4,0.7,0.6
		c-0.2,0.2-0.4,0.4-0.6,0.7c0.2,0.2,0.4,0.4,0.6,0.6c0.2-0.2,0.4-0.4,0.6-0.7c0.2,0.2,0.4,0.4,0.6,0.6c0.2-0.2,0.4-0.4,0.6-0.6
		c-0.2-0.2-0.4-0.4-0.6-0.6c-0.2-0.2-0.4-0.4-0.6-0.6c-0.2-0.2-0.4-0.4-0.6-0.6c0.2-0.2,0.5-0.4,0.7-0.6c0.2,0.2,0.4,0.4,0.6,0.6
		c0.2-0.2,0.5-0.4,0.7-0.6c0.2,0.2,0.4,0.4,0.6,0.6c0.2-0.2,0.5-0.4,0.7-0.6c0.2,0.2,0.4,0.4,0.6,0.6c0.2-0.2,0.5-0.4,0.7-0.6
		c0.2,0.2,0.4,0.4,0.6,0.7c-0.2,0.2-0.5,0.4-0.7,0.5c-0.2,0.2-0.5,0.4-0.7,0.6c-0.2,0.2-0.4,0.4-0.7,0.6c0.2,0.2,0.4,0.4,0.6,0.6
		c0.2-0.2,0.4-0.4,0.7-0.6c0.2,0.2,0.4,0.4,0.6,0.6c0.2-0.2,0.4-0.3,0.6-0.5c-0.2-0.2-0.4-0.4-0.6-0.7c0.2-0.2,0.5-0.4,0.7-0.5
		c0.2,0.2,0.4,0.5,0.6,0.7c-0.2,0.2-0.5,0.3-0.7,0.5c0.2,0.2,0.4,0.4,0.6,0.7c0.2-0.2,0.5-0.3,0.7-0.5c0.2,0.2,0.4,0.5,0.5,0.7
		c0.2-0.2,0.5-0.3,0.7-0.5c-0.2-0.2-0.3-0.5-0.5-0.7c-0.2-0.2-0.4-0.5-0.5-0.7c-0.2-0.2-0.4-0.5-0.6-0.7c0.2-0.2,0.5-0.3,0.7-0.5
		c0.2,0.2,0.4,0.5,0.5,0.7c0.2-0.2,0.5-0.3,0.7-0.5c0.2,0.2,0.3,0.5,0.5,0.7c0.2-0.1,0.5-0.3,0.7-0.4c0.2,0.2,0.3,0.5,0.5,0.7
		c0.2-0.1,0.5-0.3,0.7-0.4c0.2,0.3,0.3,0.5,0.5,0.8c-0.2,0.1-0.5,0.3-0.7,0.4c-0.2,0.1-0.5,0.3-0.7,0.4c-0.2,0.1-0.5,0.3-0.7,0.4
		c0.2,0.3,0.3,0.5,0.5,0.7c0.2-0.1,0.5-0.3,0.7-0.4c0.2,0.3,0.3,0.5,0.5,0.8c0,0,0,0,0,0c0.2-0.1,0.4-0.2,0.7-0.4
		C71.4,38.8,71.2,38.5,71.1,38.3L71.1,38.3z M71.1,38.3"/>
	<path class="st19" d="M52.4,40.2c6.6-2.5,13.3-2.4,20.2,0.3c0.6,0.4-0.6,1.4-1.6,1.6c0.7-0.7,1.1-1.2,0.1-1.4
		c-6.1-1.8-11.9-2.1-17.3-0.1c-1,0.4-0.7,0.6-0.1,1.1C53.2,41.8,51.5,40.9,52.4,40.2L52.4,40.2z M52.4,40.2"/>
	<path class="st17" d="M52.4,40.2c6.6-2.5,13.3-2.4,20.2,0.3c0.6,0.4-0.6,1.4-1.6,1.6c0.7-0.7,1.1-1.2,0.1-1.4
		c-6.1-1.8-11.9-2.1-17.3-0.1c-1,0.4-0.7,0.6-0.1,1.1C53.2,41.8,51.5,40.9,52.4,40.2L52.4,40.2z M52.4,40.2"/>
	<path class="st8" d="M95.5,94c-0.4-1.2-4.3-3.5-5.8-2.8l-0.1,0.1l-0.1,0.1c0.2,0.4,1.4,1.1,2.2,1.5c0.2,0.1,0.2,0.3,0.2,0.4
		l-0.1,0.1l-0.1,0.1c-0.9,1.6-1,4.3-1.3,6.1l5.6,2.6c-1.7-1.9-1.4-3.4-3-5.1C93.3,96.5,95.2,93.6,95.5,94L95.5,94z M95.5,94"/>
	<path class="st21" d="M95.5,94c-0.4-1.2-4.3-3.5-5.8-2.8l-0.1,0.1l-0.1,0.1c0.2,0.4,1.4,1.1,2.2,1.5c0.2,0.1,0.2,0.3,0.2,0.4
		l-0.1,0.1l-0.1,0.1c-0.9,1.6-1,4.3-1.3,6.1l5.6,2.6c-1.7-1.9-1.4-3.4-3-5.1C93.3,96.5,95.2,93.6,95.5,94L95.5,94z M95.5,94"/>
	<path class="st22" d="M89.6,91.3c0.9,0.6,1.3,1.1,1.9,1.3c0.4,0.1,0.6,0.5,0.4,0.8c-0.3,1-1.3,0.8-2,1.3
		C90.1,93.6,90.1,92.5,89.6,91.3L89.6,91.3z M89.6,91.3"/>
	<path class="st23" d="M89.6,91.3c0.9,0.6,1.3,1.1,1.9,1.3c0.4,0.1,0.6,0.5,0.4,0.8c-0.3,1-1.3,0.8-2,1.3
		C90.1,93.6,90.1,92.5,89.6,91.3L89.6,91.3z M89.6,91.3"/>
	<path class="st22" d="M72,92c0.7-0.6,10.1,0.6,6.1,3c-0.1,0-0.2,0.2-0.4,0.2c-1.5,0.6-6.3,1.8-6.1,1.4C72.3,95.1,72.6,93.5,72,92
		L72,92z M72,92"/>
	<path class="st23" d="M72,92c0.7-0.6,10.1,0.6,6.1,3c-0.1,0-0.2,0.2-0.4,0.2c-1.5,0.6-6.3,1.8-6.1,1.4C72.3,95.1,72.6,93.5,72,92
		L72,92z M72,92"/>
	<path class="st8" d="M72.3,92c-0.7,0.1,0,0.8,1.2,1.2c2,0,4.9,0.4,4.5,1.7c0,0.1-0.1,0.4-0.2,0.6c-0.7,0.8-2.4,2.7-2.1,7.1
		c3-2,9.6-1,16.1,0.9V93c-5.9-1.9-12.7-2.6-18.3-1.3C73.1,91.8,72.8,91.8,72.3,92L72.3,92z M72.3,92"/>
	<path class="st21" d="M72.3,92c-0.7,0.1,0,0.8,1.2,1.2c2,0,4.9,0.4,4.5,1.7c0,0.1-0.1,0.4-0.2,0.6c-0.7,0.8-2.4,2.7-2.1,7.1
		c3-2,9.6-1,16.1,0.9V93c-5.9-1.9-12.7-2.6-18.3-1.3C73.1,91.8,72.8,91.8,72.3,92L72.3,92z M72.3,92"/>
	<path class="st2" d="M91.9,99.3c-0.3-0.5-0.6-0.9-0.9-1.4c-0.3,0.3-0.6,0.6-0.9,0.8c0.3,0.4,0.6,0.9,0.9,1.3
		C91.3,99.8,91.6,99.6,91.9,99.3L91.9,99.3z M91.9,99.3"/>
	<path class="st24" d="M91.9,99.3c-0.3-0.5-0.6-0.9-0.9-1.4c-0.3,0.3-0.6,0.6-0.9,0.8c0.3,0.4,0.6,0.9,0.9,1.3
		C91.3,99.8,91.6,99.6,91.9,99.3L91.9,99.3z M91.9,99.3"/>
	<path class="st2" d="M90.1,98.8c-0.3-0.4-0.6-0.9-0.9-1.3c-0.3,0.3-0.6,0.6-0.9,0.9c0.3,0.4,0.6,0.9,0.9,1.3
		C89.5,99.3,89.8,99.1,90.1,98.8L90.1,98.8z M90.1,98.8"/>
	<path class="st24" d="M90.1,98.8c-0.3-0.4-0.6-0.9-0.9-1.3c-0.3,0.3-0.6,0.6-0.9,0.9c0.3,0.4,0.6,0.9,0.9,1.3
		C89.5,99.3,89.8,99.1,90.1,98.8L90.1,98.8z M90.1,98.8"/>
	<path class="st2" d="M90.1,96.6c-0.3-0.4-0.6-0.9-0.9-1.3c-0.3,0.3-0.6,0.6-0.9,0.9c0.3,0.4,0.6,0.8,0.9,1.3
		C89.5,97.2,89.8,96.9,90.1,96.6L90.1,96.6z M90.1,96.6"/>
	<path class="st24" d="M90.1,96.6c-0.3-0.4-0.6-0.9-0.9-1.3c-0.3,0.3-0.6,0.6-0.9,0.9c0.3,0.4,0.6,0.8,0.9,1.3
		C89.5,97.2,89.8,96.9,90.1,96.6L90.1,96.6z M90.1,96.6"/>
	<path class="st2" d="M91,95.7c-0.3-0.4-0.6-0.9-0.9-1.3c-0.3,0.3-0.6,0.6-0.9,0.9c0.3,0.4,0.6,0.9,0.9,1.3
		C90.4,96.3,90.7,96,91,95.7L91,95.7z M91,95.7"/>
	<path class="st24" d="M91,95.7c-0.3-0.4-0.6-0.9-0.9-1.3c-0.3,0.3-0.6,0.6-0.9,0.9c0.3,0.4,0.6,0.9,0.9,1.3
		C90.4,96.3,90.7,96,91,95.7L91,95.7z M91,95.7"/>
	<path class="st2" d="M92,94.9c-0.3-0.5-0.6-0.9-0.9-1.4c-0.3,0.3-0.6,0.6-0.9,0.9c0.3,0.4,0.6,0.9,0.9,1.3
		C91.3,95.5,91.7,95.2,92,94.9L92,94.9z M92,94.9"/>
	<path class="st24" d="M92,94.9c-0.3-0.5-0.6-0.9-0.9-1.4c-0.3,0.3-0.6,0.6-0.9,0.9c0.3,0.4,0.6,0.9,0.9,1.3
		C91.3,95.5,91.7,95.2,92,94.9L92,94.9z M92,94.9"/>
	<path class="st2" d="M90.1,94.4c-0.3-0.4-0.6-0.9-0.9-1.3c-0.3,0.3-0.6,0.6-0.9,0.9c0.3,0.4,0.6,0.8,0.9,1.3
		C89.5,95,89.8,94.7,90.1,94.4L90.1,94.4z M90.1,94.4"/>
	<path class="st24" d="M90.1,94.4c-0.3-0.4-0.6-0.9-0.9-1.3c-0.3,0.3-0.6,0.6-0.9,0.9c0.3,0.4,0.6,0.8,0.9,1.3
		C89.5,95,89.8,94.7,90.1,94.4L90.1,94.4z M90.1,94.4"/>
	<path class="st2" d="M88.3,96.2c-0.3-0.4-0.6-0.8-0.9-1.2c-0.3,0.3-0.6,0.6-0.9,0.9c0.3,0.4,0.6,0.8,0.9,1.2
		C87.7,96.8,88,96.5,88.3,96.2L88.3,96.2z M88.3,96.2"/>
	<path class="st24" d="M88.3,96.2c-0.3-0.4-0.6-0.8-0.9-1.2c-0.3,0.3-0.6,0.6-0.9,0.9c0.3,0.4,0.6,0.8,0.9,1.2
		C87.7,96.8,88,96.5,88.3,96.2L88.3,96.2z M88.3,96.2"/>
	<path class="st2" d="M87.4,95c-0.3-0.4-0.6-0.8-0.9-1.2c-0.3,0.3-0.6,0.6-0.9,0.9c0.3,0.4,0.6,0.8,0.9,1.2
		C86.8,95.6,87.1,95.3,87.4,95L87.4,95z M87.4,95"/>
	<path class="st24" d="M87.4,95c-0.3-0.4-0.6-0.8-0.9-1.2c-0.3,0.3-0.6,0.6-0.9,0.9c0.3,0.4,0.6,0.8,0.9,1.2
		C86.8,95.6,87.1,95.3,87.4,95L87.4,95z M87.4,95"/>
	<path class="st2" d="M86.5,93.8c-0.3-0.4-0.6-0.8-0.9-1.2c-0.3,0.3-0.6,0.6-0.9,0.9c0.3,0.4,0.6,0.7,0.9,1.1
		C85.9,94.4,86.2,94.1,86.5,93.8L86.5,93.8z M86.5,93.8"/>
	<path class="st24" d="M86.5,93.8c-0.3-0.4-0.6-0.8-0.9-1.2c-0.3,0.3-0.6,0.6-0.9,0.9c0.3,0.4,0.6,0.7,0.9,1.1
		C85.9,94.4,86.2,94.1,86.5,93.8L86.5,93.8z M86.5,93.8"/>
	<path class="st2" d="M88.3,98.3c-0.3-0.4-0.6-0.8-0.9-1.3c-0.3,0.3-0.6,0.6-0.9,0.9c0.3,0.4,0.6,0.8,0.9,1.2
		C87.7,98.9,88,98.6,88.3,98.3L88.3,98.3z M88.3,98.3"/>
	<path class="st24" d="M88.3,98.3c-0.3-0.4-0.6-0.8-0.9-1.3c-0.3,0.3-0.6,0.6-0.9,0.9c0.3,0.4,0.6,0.8,0.9,1.2
		C87.7,98.9,88,98.6,88.3,98.3L88.3,98.3z M88.3,98.3"/>
	<path class="st2" d="M86.5,98c-0.3-0.4-0.6-0.8-0.9-1.2c-0.3,0.3-0.6,0.6-0.9,0.9c0.3,0.4,0.6,0.8,0.9,1.2
		C85.9,98.6,86.2,98.3,86.5,98L86.5,98z M86.5,98"/>
	<path class="st24" d="M86.5,98c-0.3-0.4-0.6-0.8-0.9-1.2c-0.3,0.3-0.6,0.6-0.9,0.9c0.3,0.4,0.6,0.8,0.9,1.2
		C85.9,98.6,86.2,98.3,86.5,98L86.5,98z M86.5,98"/>
	<path class="st2" d="M88.3,94c-0.3-0.4-0.6-0.8-0.9-1.2c-0.3,0.3-0.6,0.6-0.9,0.9c0.3,0.4,0.6,0.8,0.9,1.2
		C87.7,94.7,88,94.4,88.3,94L88.3,94z M88.3,94"/>
	<path class="st24" d="M88.3,94c-0.3-0.4-0.6-0.8-0.9-1.2c-0.3,0.3-0.6,0.6-0.9,0.9c0.3,0.4,0.6,0.8,0.9,1.2
		C87.7,94.7,88,94.4,88.3,94L88.3,94z M88.3,94"/>
	<path class="st2" d="M89.2,97.5c-0.3-0.4-0.6-0.9-0.9-1.3c-0.3,0.3-0.6,0.6-0.9,0.9c0.3,0.4,0.6,0.8,0.9,1.3
		C88.6,98,88.9,97.8,89.2,97.5L89.2,97.5z M89.2,97.5"/>
	<path class="st24" d="M89.2,97.5c-0.3-0.4-0.6-0.9-0.9-1.3c-0.3,0.3-0.6,0.6-0.9,0.9c0.3,0.4,0.6,0.8,0.9,1.3
		C88.6,98,88.9,97.8,89.2,97.5L89.2,97.5z M89.2,97.5"/>
	<path class="st2" d="M84.7,97.7c-0.3-0.4-0.6-0.8-0.9-1.1c-0.3,0.3-0.6,0.6-0.9,0.9c0.3,0.4,0.6,0.7,0.9,1.1
		C84.1,98.3,84.4,98,84.7,97.7L84.7,97.7z M84.7,97.7"/>
	<path class="st24" d="M84.7,97.7c-0.3-0.4-0.6-0.8-0.9-1.1c-0.3,0.3-0.6,0.6-0.9,0.9c0.3,0.4,0.6,0.7,0.9,1.1
		C84.1,98.3,84.4,98,84.7,97.7L84.7,97.7z M84.7,97.7"/>
	<path class="st2" d="M82.9,97.5c-0.3-0.4-0.6-0.7-0.9-1.1c-0.3,0.3-0.6,0.6-0.9,1c0.3,0.3,0.6,0.7,0.9,1
		C82.3,98.1,82.6,97.8,82.9,97.5L82.9,97.5z M82.9,97.5"/>
	<path class="st24" d="M82.9,97.5c-0.3-0.4-0.6-0.7-0.9-1.1c-0.3,0.3-0.6,0.6-0.9,1c0.3,0.3,0.6,0.7,0.9,1
		C82.3,98.1,82.6,97.8,82.9,97.5L82.9,97.5z M82.9,97.5"/>
	<path class="st2" d="M84.7,95.6c-0.3-0.4-0.6-0.8-0.9-1.1c-0.3,0.3-0.6,0.6-0.9,0.9c0.3,0.4,0.6,0.7,0.9,1.1
		C84.1,96.2,84.4,95.9,84.7,95.6L84.7,95.6z M84.7,95.6"/>
	<path class="st24" d="M84.7,95.6c-0.3-0.4-0.6-0.8-0.9-1.1c-0.3,0.3-0.6,0.6-0.9,0.9c0.3,0.4,0.6,0.7,0.9,1.1
		C84.1,96.2,84.4,95.9,84.7,95.6L84.7,95.6z M84.7,95.6"/>
	<path class="st2" d="M81.1,97.4c-0.3-0.4-0.6-0.7-0.9-1c-0.3,0.3-0.6,0.7-0.9,1c0.3,0.3,0.6,0.6,0.9,1C80.5,98,80.8,97.7,81.1,97.4
		L81.1,97.4z M81.1,97.4"/>
	<path class="st24" d="M81.1,97.4c-0.3-0.4-0.6-0.7-0.9-1c-0.3,0.3-0.6,0.7-0.9,1c0.3,0.3,0.6,0.6,0.9,1
		C80.5,98,80.8,97.7,81.1,97.4L81.1,97.4z M81.1,97.4"/>
	<path class="st2" d="M81.1,95.3c-0.3-0.3-0.6-0.7-0.9-1c-0.3,0.3-0.6,0.7-0.9,1c0.3,0.3,0.6,0.7,0.9,1C80.5,96,80.8,95.7,81.1,95.3
		L81.1,95.3z M81.1,95.3"/>
	<path class="st24" d="M81.1,95.3c-0.3-0.3-0.6-0.7-0.9-1c-0.3,0.3-0.6,0.7-0.9,1c0.3,0.3,0.6,0.7,0.9,1
		C80.5,96,80.8,95.7,81.1,95.3L81.1,95.3z M81.1,95.3"/>
	<path class="st2" d="M82,94.4c-0.3-0.4-0.6-0.7-0.9-1c-0.3,0.3-0.6,0.7-0.9,1c0.3,0.3,0.6,0.7,0.9,1C81.4,95,81.7,94.7,82,94.4
		L82,94.4z M82,94.4"/>
	<path class="st24" d="M82,94.4c-0.3-0.4-0.6-0.7-0.9-1c-0.3,0.3-0.6,0.7-0.9,1c0.3,0.3,0.6,0.7,0.9,1C81.4,95,81.7,94.7,82,94.4
		L82,94.4z M82,94.4"/>
	<path class="st2" d="M82.9,93.4c-0.3-0.4-0.6-0.7-0.9-1.1c-0.3,0.3-0.6,0.6-0.9,1c0.3,0.3,0.6,0.7,0.9,1
		C82.3,94,82.6,93.7,82.9,93.4L82.9,93.4z M82.9,93.4"/>
	<path class="st24" d="M82.9,93.4c-0.3-0.4-0.6-0.7-0.9-1.1c-0.3,0.3-0.6,0.6-0.9,1c0.3,0.3,0.6,0.7,0.9,1
		C82.3,94,82.6,93.7,82.9,93.4L82.9,93.4z M82.9,93.4"/>
	<path class="st2" d="M81.1,93.3c-0.3-0.4-0.6-0.7-0.9-1c-0.3,0.3-0.6,0.7-0.9,1c0.3,0.3,0.6,0.7,0.9,1C80.5,94,80.8,93.6,81.1,93.3
		L81.1,93.3z M81.1,93.3"/>
	<path class="st24" d="M81.1,93.3c-0.3-0.4-0.6-0.7-0.9-1c-0.3,0.3-0.6,0.7-0.9,1c0.3,0.3,0.6,0.7,0.9,1
		C80.5,94,80.8,93.6,81.1,93.3L81.1,93.3z M81.1,93.3"/>
	<path class="st2" d="M79.2,95.3c-0.3-0.3-0.6-0.6-0.9-1c-0.3,0.4-0.6,0.7-0.9,1.1c0.3,0.3,0.6,0.6,0.9,0.9
		C78.6,96,78.9,95.7,79.2,95.3L79.2,95.3z M79.2,95.3"/>
	<path class="st24" d="M79.2,95.3c-0.3-0.3-0.6-0.6-0.9-1c-0.3,0.4-0.6,0.7-0.9,1.1c0.3,0.3,0.6,0.6,0.9,0.9
		C78.6,96,78.9,95.7,79.2,95.3L79.2,95.3z M79.2,95.3"/>
	<path class="st2" d="M77.3,94.8c0.1-0.3,0.4-0.9-0.4-1.3c0.4-0.5,1.6,0.6,1.4,0.8l-0.9,1.1L77.3,94.8z M77.3,94.8"/>
	<path class="st24" d="M77.3,94.8c0.1-0.3,0.4-0.9-0.4-1.3c0.4-0.5,1.6,0.6,1.4,0.8l-0.9,1.1L77.3,94.8z M77.3,94.8"/>
	<path class="st2" d="M77.4,93.4c-0.3-0.3-0.6-0.6-0.9-0.9l-0.7,0.7c0.6,0.1,1.1,0.2,1.5,0.4L77.4,93.4z M77.4,93.4"/>
	<path class="st24" d="M77.4,93.4c-0.3-0.3-0.6-0.6-0.9-0.9l-0.7,0.7c0.6,0.1,1.1,0.2,1.5,0.4L77.4,93.4z M77.4,93.4"/>
	<path class="st2" d="M79.2,97.4c-0.3-0.3-0.6-0.6-0.9-1c-0.3,0.4-0.6,0.7-0.9,1.1c0.3,0.3,0.6,0.6,0.9,0.9
		C78.6,98.1,78.9,97.7,79.2,97.4L79.2,97.4z M79.2,97.4"/>
	<path class="st24" d="M79.2,97.4c-0.3-0.3-0.6-0.6-0.9-1c-0.3,0.4-0.6,0.7-0.9,1.1c0.3,0.3,0.6,0.6,0.9,0.9
		C78.6,98.1,78.9,97.7,79.2,97.4L79.2,97.4z M79.2,97.4"/>
	<path class="st2" d="M77.4,97.1c-0.3-0.3-0.6-0.6-0.9-0.9c-0.3,0.4-0.6,0.8-0.9,1.3c0.3,0.3,0.6,0.5,0.9,0.8
		C76.8,97.8,77.1,97.4,77.4,97.1L77.4,97.1z M77.4,97.1"/>
	<path class="st24" d="M77.4,97.1c-0.3-0.3-0.6-0.6-0.9-0.9c-0.3,0.4-0.6,0.8-0.9,1.3c0.3,0.3,0.6,0.5,0.9,0.8
		C76.8,97.8,77.1,97.4,77.4,97.1L77.4,97.1z M77.4,97.1"/>
	<path class="st2" d="M79.2,93.3c-0.3-0.3-0.6-0.7-0.9-1c-0.3,0.4-0.6,0.7-0.9,1.1c0.3,0.3,0.6,0.6,0.9,0.9
		C78.6,94,78.9,93.7,79.2,93.3L79.2,93.3z M79.2,93.3"/>
	<path class="st24" d="M79.2,93.3c-0.3-0.3-0.6-0.7-0.9-1c-0.3,0.4-0.6,0.7-0.9,1.1c0.3,0.3,0.6,0.6,0.9,0.9
		C78.6,94,78.9,93.7,79.2,93.3L79.2,93.3z M79.2,93.3"/>
	<path class="st2" d="M80.2,96.3c-0.3-0.3-0.6-0.7-0.9-1c-0.3,0.4-0.6,0.7-0.9,1.1c0.3,0.3,0.6,0.6,0.9,1
		C79.5,97,79.8,96.7,80.2,96.3L80.2,96.3z M80.2,96.3"/>
	<path class="st24" d="M80.2,96.3c-0.3-0.3-0.6-0.7-0.9-1c-0.3,0.4-0.6,0.7-0.9,1.1c0.3,0.3,0.6,0.6,0.9,1
		C79.5,97,79.8,96.7,80.2,96.3L80.2,96.3z M80.2,96.3"/>
	<path class="st2" d="M91.8,99.3c-2.6-1-5.3-1.3-8.1-1.7c-2.7-0.6-5.5-0.3-8.2,0.4c-0.3,0.4-0.6,0.9-0.9,1.4c3-0.7,6.1-1,9.1-0.7
		c2.7,0.3,5.4,1,8,1.8L91.8,99.3z M91.8,99.3"/>
	<path class="st24" d="M91.8,99.3c-2.6-1-5.3-1.3-8.1-1.7c-2.7-0.6-5.5-0.3-8.2,0.4c-0.3,0.4-0.6,0.9-0.9,1.4c3-0.7,6.1-1,9.1-0.7
		c2.7,0.3,5.4,1,8,1.8L91.8,99.3z M91.8,99.3"/>
	<path class="st12" d="M91.8,101.9c-4.6-1.4-10.3-2.4-14.7-1.6l0.1-0.7c4.6-0.8,10.2,0.4,14.6,1.6L91.8,101.9z M91.8,101.9"/>
	<line class="st25" x1="91.9" y1="93.1" x2="91.8" y2="103.4"/>
	<path class="st2" d="M76.8,100.6c-0.3-0.2-0.6-0.4-0.9-0.6c-0.3,0.4-0.6,0.8-0.9,1.2c0.3,0.2,0.6,0.4,0.9,0.7
		C76.2,101.4,76.5,101,76.8,100.6L76.8,100.6z M76.8,100.6"/>
	<path class="st24" d="M76.8,100.6c-0.3-0.2-0.6-0.4-0.9-0.6c-0.3,0.4-0.6,0.8-0.9,1.2c0.3,0.2,0.6,0.4,0.9,0.7
		C76.2,101.4,76.5,101,76.8,100.6L76.8,100.6z M76.8,100.6"/>
	<path class="st2" d="M76.8,98.8c-0.3-0.2-0.6-0.4-0.9-0.7c-0.3,0.4-0.6,0.8-0.9,1.2c0.3,0.2,0.6,0.5,0.9,0.7
		C76.2,99.6,76.5,99.2,76.8,98.8L76.8,98.8z M76.8,98.8"/>
	<path class="st24" d="M76.8,98.8c-0.3-0.2-0.6-0.4-0.9-0.7c-0.3,0.4-0.6,0.8-0.9,1.2c0.3,0.2,0.6,0.5,0.9,0.7
		C76.2,99.6,76.5,99.2,76.8,98.8L76.8,98.8z M76.8,98.8"/>
	<path class="st8" d="M29.1,93.9c0.4-1.2,4.3-3.6,5.8-2.8l0.1,0.1l0.1,0.1c-0.2,0.4-1.4,1.2-2.2,1.5c-0.2,0.1-0.2,0.3-0.2,0.4
		l0.1,0.1l0.1,0.1c0.9,1.6,1,4.4,1.3,6.2l-4.9,2.1c0.1-1.4,2.6-4.2,2.4-5.3C31.4,95.9,29.5,93.5,29.1,93.9L29.1,93.9z M29.1,93.9"/>
	<path class="st21" d="M29.1,93.9c0.4-1.2,4.3-3.6,5.8-2.8l0.1,0.1l0.1,0.1c-0.2,0.4-1.4,1.2-2.2,1.5c-0.2,0.1-0.2,0.3-0.2,0.4
		l0.1,0.1l0.1,0.1c0.9,1.6,1,4.4,1.3,6.2l-4.9,2.1c0.1-1.4,2.6-4.2,2.4-5.3C31.4,95.9,29.5,93.5,29.1,93.9L29.1,93.9z M29.1,93.9"/>
	<path class="st22" d="M35,91.3c-0.9,0.6-1.6,1.2-2.2,1.4c-0.3,0.1-0.2,0.5-0.1,0.6c0.3,1,1.3,1,2,1.4C34.6,93.6,34.5,92.5,35,91.3
		L35,91.3z M35,91.3"/>
	<path class="st23" d="M35,91.3c-0.9,0.6-1.6,1.2-2.2,1.4c-0.3,0.1-0.2,0.5-0.1,0.6c0.3,1,1.3,1,2,1.4C34.6,93.6,34.5,92.5,35,91.3
		L35,91.3z M35,91.3"/>
	<path class="st22" d="M52.6,92c-4.8,0.1-5.9,1.1-5.8,3.1c1.5,0.6,6.3,1.8,6.1,1.4C52.3,95,52.1,93.5,52.6,92L52.6,92z M52.6,92"/>
	<path class="st23" d="M52.6,92c-4.8,0.1-5.9,1.1-5.8,3.1c1.5,0.6,6.3,1.8,6.1,1.4C52.3,95,52.1,93.5,52.6,92L52.6,92z M52.6,92"/>
	<path class="st8" d="M52.3,91.8c0.7,0.1,0,0.7-1.2,1.1c-1.8,0.1-4.2-0.1-4.1,1.1c0,0.1-0.4,1-0.2,1.1c0.7,0.8,2.4,2.6,2.1,7
		c-3-1.9-9.6-0.9-16.1,1l-0.1-10.3c5.9-1.9,12.7-2.6,18.3-1.3C51.6,91.6,51.8,91.7,52.3,91.8L52.3,91.8z M52.3,91.8"/>
	<path class="st21" d="M52.3,91.8c0.7,0.1,0,0.7-1.2,1.1c-1.8,0.1-4.2-0.1-4.1,1.1c0,0.1-0.4,1-0.2,1.1c0.7,0.8,2.4,2.6,2.1,7
		c-3-1.9-9.6-0.9-16.1,1l-0.1-10.3c5.9-1.9,12.7-2.6,18.3-1.3C51.6,91.6,51.8,91.7,52.3,91.8L52.3,91.8z M52.3,91.8"/>
	<path class="st2" d="M34.5,96.4c0.3-0.4,0.6-0.9,0.9-1.3c0.3,0.3,0.6,0.6,0.9,0.9c-0.3,0.4-0.6,0.8-0.9,1.3
		C35.1,97,34.8,96.7,34.5,96.4L34.5,96.4z M34.5,96.4"/>
	<path class="st24" d="M34.5,96.4c0.3-0.4,0.6-0.9,0.9-1.3c0.3,0.3,0.6,0.6,0.9,0.9c-0.3,0.4-0.6,0.8-0.9,1.3
		C35.1,97,34.8,96.7,34.5,96.4L34.5,96.4z M34.5,96.4"/>
	<path class="st2" d="M43.6,97.1c0.3-0.3,0.6-0.7,0.9-1c0.3,0.3,0.6,0.7,0.9,1c-0.3,0.3-0.6,0.6-0.9,1
		C44.2,97.8,43.9,97.5,43.6,97.1L43.6,97.1z M43.6,97.1"/>
	<path class="st24" d="M43.6,97.1c0.3-0.3,0.6-0.7,0.9-1c0.3,0.3,0.6,0.7,0.9,1c-0.3,0.3-0.6,0.6-0.9,1
		C44.2,97.8,43.9,97.5,43.6,97.1L43.6,97.1z M43.6,97.1"/>
	<path class="st2" d="M47.3,94.6c-0.1-0.3-0.4-0.9,0.4-1.3c-0.4-0.5-1.6,0.6-1.4,0.9l0.9,1.1L47.3,94.6z M47.3,94.6"/>
	<path class="st24" d="M47.3,94.6c-0.1-0.3-0.4-0.9,0.4-1.3c-0.4-0.5-1.6,0.6-1.4,0.9l0.9,1.1L47.3,94.6z M47.3,94.6"/>
	<path class="st2" d="M47.2,97.4c0.3-0.3,0.6-0.6,0.9-0.9c0.3,0.4,0.6,0.8,0.9,1.3c-0.3,0.3-0.6,0.5-0.9,0.8
		C47.9,98.1,47.5,97.7,47.2,97.4L47.2,97.4z M47.2,97.4"/>
	<path class="st24" d="M47.2,97.4c0.3-0.3,0.6-0.6,0.9-0.9c0.3,0.4,0.6,0.8,0.9,1.3c-0.3,0.3-0.6,0.5-0.9,0.8
		C47.9,98.1,47.5,97.7,47.2,97.4L47.2,97.4z M47.2,97.4"/>
	<path class="st2" d="M32.8,99.1c2.7-0.7,5.4-1.4,8.1-1.7c2.7-0.4,5.5-0.2,8.2,0.4c0.3,0.4,0.6,0.9,0.9,1.4c-3-0.7-6.1-1-9.1-0.7
		c-2.7,0.3-5.4,1-8,1.8L32.8,99.1z M32.8,99.1"/>
	<path class="st24" d="M32.8,99.1c2.7-0.7,5.4-1.4,8.1-1.7c2.7-0.4,5.5-0.2,8.2,0.4c0.3,0.4,0.6,0.9,0.9,1.4c-3-0.7-6.1-1-9.1-0.7
		c-2.7,0.3-5.4,1-8,1.8L32.8,99.1z M32.8,99.1"/>
	<path class="st12" d="M32.8,101.7c4.7-1.3,10.6-2.4,14.7-1.6l-0.1-0.8c-4.6-0.8-10.3,0.4-14.7,1.6L32.8,101.7z M32.8,101.7"/>
	<g>
		<defs>
			<rect id="SVGID_10_" x="28.2" y="14.5" width="68.7" height="92.9"/>
		</defs>
		<clipPath id="SVGID_11_">
			<use xlink:href="#SVGID_10_"  style="overflow:visible;"/>
		</clipPath>
		<path class="st26" d="M47.3,93.9c-0.2,3.7,0.4,7,0.9,10.7c6.6,3.5,21.4,2.9,28,0.1c0.9-2.7,1.4-6.8,1.4-10.5
			C66.9,97.8,57.7,98,48.4,95C48,95.1,47.1,94.3,47.3,93.9L47.3,93.9z M47.3,93.9"/>
		<path class="st27" d="M47.3,93.9c-0.2,3.7,0.4,7,0.9,10.7c6.6,3.5,21.4,2.9,28,0.1c0.9-2.7,1.4-6.8,1.4-10.5
			C66.9,97.8,57.7,98,48.4,95C48,95.1,47.1,94.3,47.3,93.9L47.3,93.9z M47.3,93.9"/>
	</g>
	<path class="st12" d="M76.6,102.3c-0.1,0-0.4,0.1-0.5,0.2c-9.7,2.9-19.4,3-28.2-0.1l0.1,0.9c9,3.2,18.2,3,28,0.2
		c0.1,0,0.3-0.1,0.4-0.1L76.6,102.3z M76.6,102.3"/>
	<path class="st2" d="M32.7,99.1c0.3-0.5,0.6-0.9,0.9-1.4c0.3,0.3,0.6,0.6,0.9,0.8c-0.3,0.4-0.6,0.9-0.9,1.3
		C33.3,99.6,33,99.4,32.7,99.1L32.7,99.1z M32.7,99.1"/>
	<path class="st24" d="M32.7,99.1c0.3-0.5,0.6-0.9,0.9-1.4c0.3,0.3,0.6,0.6,0.9,0.8c-0.3,0.4-0.6,0.9-0.9,1.3
		C33.3,99.6,33,99.4,32.7,99.1L32.7,99.1z M32.7,99.1"/>
	<path class="st2" d="M34.5,98.6c0.3-0.4,0.6-0.9,0.9-1.3c0.3,0.3,0.6,0.6,0.9,0.9c-0.3,0.4-0.6,0.9-0.9,1.3
		C35.1,99.1,34.8,98.9,34.5,98.6L34.5,98.6z M34.5,98.6"/>
	<path class="st24" d="M34.5,98.6c0.3-0.4,0.6-0.9,0.9-1.3c0.3,0.3,0.6,0.6,0.9,0.9c-0.3,0.4-0.6,0.9-0.9,1.3
		C35.1,99.1,34.8,98.9,34.5,98.6L34.5,98.6z M34.5,98.6"/>
	<path class="st2" d="M33.6,95.5c0.3-0.4,0.6-0.9,0.9-1.3c0.3,0.3,0.6,0.6,0.9,0.9c-0.3,0.4-0.6,0.9-0.9,1.3
		C34.2,96.1,33.9,95.8,33.6,95.5L33.6,95.5z M33.6,95.5"/>
	<path class="st24" d="M33.6,95.5c0.3-0.4,0.6-0.9,0.9-1.3c0.3,0.3,0.6,0.6,0.9,0.9c-0.3,0.4-0.6,0.9-0.9,1.3
		C34.2,96.1,33.9,95.8,33.6,95.5L33.6,95.5z M33.6,95.5"/>
	<path class="st2" d="M32.7,94.7c0.3-0.5,0.6-0.9,0.9-1.4c0.3,0.3,0.6,0.6,0.9,0.9c-0.3,0.4-0.6,0.9-0.9,1.3
		C33.3,95.3,33,95,32.7,94.7L32.7,94.7z M32.7,94.7"/>
	<path class="st24" d="M32.7,94.7c0.3-0.5,0.6-0.9,0.9-1.4c0.3,0.3,0.6,0.6,0.9,0.9c-0.3,0.4-0.6,0.9-0.9,1.3
		C33.3,95.3,33,95,32.7,94.7L32.7,94.7z M32.7,94.7"/>
	<path class="st2" d="M34.5,94.2c0.3-0.4,0.6-0.9,0.9-1.3c0.3,0.3,0.6,0.6,0.9,0.9c-0.3,0.4-0.6,0.8-0.9,1.2
		C35.1,94.8,34.8,94.5,34.5,94.2L34.5,94.2z M34.5,94.2"/>
	<path class="st24" d="M34.5,94.2c0.3-0.4,0.6-0.9,0.9-1.3c0.3,0.3,0.6,0.6,0.9,0.9c-0.3,0.4-0.6,0.8-0.9,1.2
		C35.1,94.8,34.8,94.5,34.5,94.2L34.5,94.2z M34.5,94.2"/>
	<path class="st2" d="M36.4,96c0.3-0.4,0.6-0.8,0.9-1.2c0.3,0.3,0.6,0.6,0.9,0.9c-0.3,0.4-0.6,0.8-0.9,1.2
		C37,96.6,36.7,96.3,36.4,96L36.4,96z M36.4,96"/>
	<path class="st24" d="M36.4,96c0.3-0.4,0.6-0.8,0.9-1.2c0.3,0.3,0.6,0.6,0.9,0.9c-0.3,0.4-0.6,0.8-0.9,1.2
		C37,96.6,36.7,96.3,36.4,96L36.4,96z M36.4,96"/>
	<path class="st2" d="M37.3,94.8c0.3-0.4,0.6-0.8,0.9-1.2c0.3,0.3,0.6,0.6,0.9,0.9c-0.3,0.4-0.6,0.8-0.9,1.2
		C37.9,95.4,37.6,95.1,37.3,94.8L37.3,94.8z M37.3,94.8"/>
	<path class="st24" d="M37.3,94.8c0.3-0.4,0.6-0.8,0.9-1.2c0.3,0.3,0.6,0.6,0.9,0.9c-0.3,0.4-0.6,0.8-0.9,1.2
		C37.9,95.4,37.6,95.1,37.3,94.8L37.3,94.8z M37.3,94.8"/>
	<path class="st2" d="M38.2,93.6c0.3-0.4,0.6-0.8,0.9-1.1c0.3,0.3,0.6,0.6,0.9,0.9c-0.3,0.4-0.6,0.8-0.9,1.1
		C38.8,94.2,38.5,93.9,38.2,93.6L38.2,93.6z M38.2,93.6"/>
	<path class="st24" d="M38.2,93.6c0.3-0.4,0.6-0.8,0.9-1.1c0.3,0.3,0.6,0.6,0.9,0.9c-0.3,0.4-0.6,0.8-0.9,1.1
		C38.8,94.2,38.5,93.9,38.2,93.6L38.2,93.6z M38.2,93.6"/>
	<path class="st2" d="M36.4,98.1c0.3-0.4,0.6-0.8,0.9-1.3c0.3,0.3,0.6,0.6,0.9,0.9c-0.3,0.4-0.6,0.8-0.9,1.2
		C37,98.7,36.7,98.4,36.4,98.1L36.4,98.1z M36.4,98.1"/>
	<path class="st24" d="M36.4,98.1c0.3-0.4,0.6-0.8,0.9-1.3c0.3,0.3,0.6,0.6,0.9,0.9c-0.3,0.4-0.6,0.8-0.9,1.2
		C37,98.7,36.7,98.4,36.4,98.1L36.4,98.1z M36.4,98.1"/>
	<path class="st2" d="M38.2,97.8c0.3-0.4,0.6-0.8,0.9-1.2c0.3,0.3,0.6,0.6,0.9,0.9c-0.3,0.4-0.6,0.8-0.9,1.2
		C38.8,98.4,38.5,98.1,38.2,97.8L38.2,97.8z M38.2,97.8"/>
	<path class="st24" d="M38.2,97.8c0.3-0.4,0.6-0.8,0.9-1.2c0.3,0.3,0.6,0.6,0.9,0.9c-0.3,0.4-0.6,0.8-0.9,1.2
		C38.8,98.4,38.5,98.1,38.2,97.8L38.2,97.8z M38.2,97.8"/>
	<path class="st2" d="M36.3,93.9c0.3-0.4,0.6-0.8,0.9-1.2c0.3,0.3,0.6,0.6,0.9,0.9c-0.3,0.4-0.6,0.8-0.9,1.2
		C37,94.5,36.7,94.2,36.3,93.9L36.3,93.9z M36.3,93.9"/>
	<path class="st24" d="M36.3,93.9c0.3-0.4,0.6-0.8,0.9-1.2c0.3,0.3,0.6,0.6,0.9,0.9c-0.3,0.4-0.6,0.8-0.9,1.2
		C37,94.5,36.7,94.2,36.3,93.9L36.3,93.9z M36.3,93.9"/>
	<path class="st2" d="M35.5,97.3c0.3-0.4,0.6-0.9,0.9-1.3c0.3,0.3,0.6,0.6,0.9,0.9c-0.3,0.4-0.6,0.8-0.9,1.3
		C36.1,97.9,35.8,97.6,35.5,97.3L35.5,97.3z M35.5,97.3"/>
	<path class="st24" d="M35.5,97.3c0.3-0.4,0.6-0.9,0.9-1.3c0.3,0.3,0.6,0.6,0.9,0.9c-0.3,0.4-0.6,0.8-0.9,1.3
		C36.1,97.9,35.8,97.6,35.5,97.3L35.5,97.3z M35.5,97.3"/>
	<path class="st2" d="M39.9,97.5c0.3-0.4,0.6-0.8,0.9-1.1c0.3,0.3,0.6,0.6,0.9,0.9c-0.3,0.4-0.6,0.7-0.9,1.1
		C40.5,98.1,40.2,97.8,39.9,97.5L39.9,97.5z M39.9,97.5"/>
	<path class="st24" d="M39.9,97.5c0.3-0.4,0.6-0.8,0.9-1.1c0.3,0.3,0.6,0.6,0.9,0.9c-0.3,0.4-0.6,0.7-0.9,1.1
		C40.5,98.1,40.2,97.8,39.9,97.5L39.9,97.5z M39.9,97.5"/>
	<path class="st2" d="M41.8,97.3c0.3-0.4,0.6-0.7,0.9-1.1c0.3,0.3,0.6,0.6,0.9,1c-0.3,0.4-0.6,0.7-0.9,1.1
		C42.4,97.9,42.1,97.6,41.8,97.3L41.8,97.3z M41.8,97.3"/>
	<path class="st24" d="M41.8,97.3c0.3-0.4,0.6-0.7,0.9-1.1c0.3,0.3,0.6,0.6,0.9,1c-0.3,0.4-0.6,0.7-0.9,1.1
		C42.4,97.9,42.1,97.6,41.8,97.3L41.8,97.3z M41.8,97.3"/>
	<path class="st2" d="M39.9,95.4c0.3-0.4,0.6-0.8,0.9-1.1c0.3,0.3,0.6,0.6,0.9,0.9c-0.3,0.4-0.6,0.7-0.9,1.1
		C40.5,96,40.2,95.7,39.9,95.4L39.9,95.4z M39.9,95.4"/>
	<path class="st24" d="M39.9,95.4c0.3-0.4,0.6-0.8,0.9-1.1c0.3,0.3,0.6,0.6,0.9,0.9c-0.3,0.4-0.6,0.7-0.9,1.1
		C40.5,96,40.2,95.7,39.9,95.4L39.9,95.4z M39.9,95.4"/>
	<path class="st2" d="M43.6,95.1c0.3-0.3,0.6-0.7,0.9-1c0.3,0.3,0.6,0.7,0.9,1c-0.3,0.3-0.6,0.7-0.9,1
		C44.2,95.8,43.9,95.5,43.6,95.1L43.6,95.1z M43.6,95.1"/>
	<path class="st24" d="M43.6,95.1c0.3-0.3,0.6-0.7,0.9-1c0.3,0.3,0.6,0.7,0.9,1c-0.3,0.3-0.6,0.7-0.9,1
		C44.2,95.8,43.9,95.5,43.6,95.1L43.6,95.1z M43.6,95.1"/>
	<path class="st2" d="M42.7,94.2c0.3-0.4,0.6-0.7,0.9-1.1c0.3,0.3,0.6,0.7,0.9,1c-0.3,0.3-0.6,0.7-0.9,1
		C43.3,94.8,43,94.5,42.7,94.2L42.7,94.2z M42.7,94.2"/>
	<path class="st24" d="M42.7,94.2c0.3-0.4,0.6-0.7,0.9-1.1c0.3,0.3,0.6,0.7,0.9,1c-0.3,0.3-0.6,0.7-0.9,1
		C43.3,94.8,43,94.5,42.7,94.2L42.7,94.2z M42.7,94.2"/>
	<path class="st2" d="M41.7,93.2c0.3-0.4,0.6-0.7,0.9-1.1c0.3,0.3,0.6,0.6,0.9,1c-0.3,0.4-0.6,0.7-0.9,1.1
		C42.4,93.8,42.1,93.5,41.7,93.2L41.7,93.2z M41.7,93.2"/>
	<path class="st24" d="M41.7,93.2c0.3-0.4,0.6-0.7,0.9-1.1c0.3,0.3,0.6,0.6,0.9,1c-0.3,0.4-0.6,0.7-0.9,1.1
		C42.4,93.8,42.1,93.5,41.7,93.2L41.7,93.2z M41.7,93.2"/>
	<path class="st2" d="M43.6,93.1c0.3-0.3,0.6-0.7,0.9-1c0.3,0.3,0.6,0.7,0.9,1c-0.3,0.3-0.6,0.7-0.9,1
		C44.2,93.8,43.9,93.4,43.6,93.1L43.6,93.1z M43.6,93.1"/>
	<path class="st24" d="M43.6,93.1c0.3-0.3,0.6-0.7,0.9-1c0.3,0.3,0.6,0.7,0.9,1c-0.3,0.3-0.6,0.7-0.9,1
		C44.2,93.8,43.9,93.4,43.6,93.1L43.6,93.1z M43.6,93.1"/>
	<path class="st2" d="M45.4,95.1c0.3-0.3,0.6-0.6,0.9-1c0.3,0.4,0.6,0.7,0.9,1.1c-0.3,0.3-0.6,0.6-0.9,0.9
		C46,95.9,45.7,95.5,45.4,95.1L45.4,95.1z M45.4,95.1"/>
	<path class="st24" d="M45.4,95.1c0.3-0.3,0.6-0.6,0.9-1c0.3,0.4,0.6,0.7,0.9,1.1c-0.3,0.3-0.6,0.6-0.9,0.9
		C46,95.9,45.7,95.5,45.4,95.1L45.4,95.1z M45.4,95.1"/>
	<path class="st2" d="M47.2,93.2c0.3-0.3,0.6-0.6,0.9-0.9l0.7,0.7c-0.6,0.1-1.1,0.2-1.6,0.4L47.2,93.2z M47.2,93.2"/>
	<path class="st24" d="M47.2,93.2c0.3-0.3,0.6-0.6,0.9-0.9l0.7,0.7c-0.6,0.1-1.1,0.2-1.6,0.4L47.2,93.2z M47.2,93.2"/>
	<path class="st2" d="M45.4,97.2c0.3-0.3,0.6-0.6,0.9-1c0.3,0.4,0.6,0.7,0.9,1.1c-0.3,0.3-0.6,0.6-0.9,0.9
		C46,97.9,45.7,97.5,45.4,97.2L45.4,97.2z M45.4,97.2"/>
	<path class="st24" d="M45.4,97.2c0.3-0.3,0.6-0.6,0.9-1c0.3,0.4,0.6,0.7,0.9,1.1c-0.3,0.3-0.6,0.6-0.9,0.9
		C46,97.9,45.7,97.5,45.4,97.2L45.4,97.2z M45.4,97.2"/>
	<path class="st2" d="M45.4,93.1c0.3-0.3,0.6-0.7,0.9-1c0.3,0.4,0.6,0.7,0.9,1.1c-0.3,0.3-0.6,0.6-0.9,0.9
		C46,93.8,45.7,93.5,45.4,93.1L45.4,93.1z M45.4,93.1"/>
	<path class="st24" d="M45.4,93.1c0.3-0.3,0.6-0.7,0.9-1c0.3,0.4,0.6,0.7,0.9,1.1c-0.3,0.3-0.6,0.6-0.9,0.9
		C46,93.8,45.7,93.5,45.4,93.1L45.4,93.1z M45.4,93.1"/>
	<path class="st2" d="M44.5,96.1c0.3-0.3,0.6-0.7,0.9-1c0.3,0.4,0.6,0.7,0.9,1.1c-0.3,0.3-0.6,0.6-0.9,1
		C45.1,96.8,44.8,96.5,44.5,96.1L44.5,96.1z M44.5,96.1"/>
	<path class="st24" d="M44.5,96.1c0.3-0.3,0.6-0.7,0.9-1c0.3,0.4,0.6,0.7,0.9,1.1c-0.3,0.3-0.6,0.6-0.9,1
		C45.1,96.8,44.8,96.5,44.5,96.1L44.5,96.1z M44.5,96.1"/>
	<path class="st2" d="M56.8,102.5c0.3-0.3,0.6-0.6,0.9-0.8c0.3,0.3,0.6,0.7,0.9,1c-0.3,0.3-0.6,0.6-0.9,0.9
		C57.4,103.2,57.1,102.8,56.8,102.5L56.8,102.5z M56.8,102.5"/>
	<path class="st24" d="M56.8,102.5c0.3-0.3,0.6-0.6,0.9-0.8c0.3,0.3,0.6,0.7,0.9,1c-0.3,0.3-0.6,0.6-0.9,0.9
		C57.4,103.2,57.1,102.8,56.8,102.5L56.8,102.5z M56.8,102.5"/>
	<path class="st2" d="M58.6,102.7c0.3-0.3,0.6-0.6,0.9-0.9c0.3,0.3,0.6,0.7,0.9,1c-0.3,0.3-0.6,0.6-0.9,0.9
		C59.2,103.3,58.9,103,58.6,102.7L58.6,102.7z M58.6,102.7"/>
	<path class="st24" d="M58.6,102.7c0.3-0.3,0.6-0.6,0.9-0.9c0.3,0.3,0.6,0.7,0.9,1c-0.3,0.3-0.6,0.6-0.9,0.9
		C59.2,103.3,58.9,103,58.6,102.7L58.6,102.7z M58.6,102.7"/>
	<path class="st2" d="M56.8,100.6c0.3-0.3,0.6-0.5,0.9-0.8c0.3,0.4,0.6,0.7,0.9,1c-0.3,0.3-0.6,0.6-0.9,0.8
		C57.4,101.3,57.1,100.9,56.8,100.6L56.8,100.6z M56.8,100.6"/>
	<path class="st24" d="M56.8,100.6c0.3-0.3,0.6-0.5,0.9-0.8c0.3,0.4,0.6,0.7,0.9,1c-0.3,0.3-0.6,0.6-0.9,0.8
		C57.4,101.3,57.1,100.9,56.8,100.6L56.8,100.6z M56.8,100.6"/>
	<path class="st2" d="M60.4,102.8c0.3-0.3,0.6-0.6,0.9-0.9c0.3,0.3,0.6,0.6,0.9,0.9c-0.3,0.3-0.6,0.6-0.9,0.9
		C61.1,103.4,60.8,103.1,60.4,102.8L60.4,102.8z M60.4,102.8"/>
	<path class="st24" d="M60.4,102.8c0.3-0.3,0.6-0.6,0.9-0.9c0.3,0.3,0.6,0.6,0.9,0.9c-0.3,0.3-0.6,0.6-0.9,0.9
		C61.1,103.4,60.8,103.1,60.4,102.8L60.4,102.8z M60.4,102.8"/>
	<path class="st2" d="M60.4,101c0.3-0.3,0.6-0.6,0.9-0.9c0.3,0.3,0.6,0.6,0.9,0.9c-0.3,0.3-0.6,0.6-0.9,0.9
		C61.1,101.6,60.8,101.3,60.4,101L60.4,101z M60.4,101"/>
	<path class="st24" d="M60.4,101c0.3-0.3,0.6-0.6,0.9-0.9c0.3,0.3,0.6,0.6,0.9,0.9c-0.3,0.3-0.6,0.6-0.9,0.9
		C61.1,101.6,60.8,101.3,60.4,101L60.4,101z M60.4,101"/>
	<path class="st2" d="M59.5,100c0.3-0.3,0.6-0.6,0.9-0.8c0.3,0.3,0.6,0.7,0.9,1c-0.3,0.3-0.6,0.6-0.9,0.9
		C60.1,100.6,59.8,100.3,59.5,100L59.5,100z M59.5,100"/>
	<path class="st24" d="M59.5,100c0.3-0.3,0.6-0.6,0.9-0.8c0.3,0.3,0.6,0.7,0.9,1c-0.3,0.3-0.6,0.6-0.9,0.9
		C60.1,100.6,59.8,100.3,59.5,100L59.5,100z M59.5,100"/>
	<path class="st2" d="M58.6,98.9c0.3-0.3,0.6-0.5,0.9-0.8c0.3,0.3,0.6,0.7,0.9,1c-0.3,0.3-0.6,0.6-0.9,0.8
		C59.2,99.6,58.9,99.3,58.6,98.9L58.6,98.9z M58.6,98.9"/>
	<path class="st24" d="M58.6,98.9c0.3-0.3,0.6-0.5,0.9-0.8c0.3,0.3,0.6,0.7,0.9,1c-0.3,0.3-0.6,0.6-0.9,0.8
		C59.2,99.6,58.9,99.3,58.6,98.9L58.6,98.9z M58.6,98.9"/>
	<path class="st2" d="M60.4,99.1c0.3-0.3,0.6-0.6,0.9-0.8c0.3,0.3,0.6,0.6,0.9,1c-0.3,0.3-0.6,0.6-0.9,0.9
		C61.1,99.8,60.8,99.5,60.4,99.1L60.4,99.1z M60.4,99.1"/>
	<path class="st24" d="M60.4,99.1c0.3-0.3,0.6-0.6,0.9-0.8c0.3,0.3,0.6,0.6,0.9,1c-0.3,0.3-0.6,0.6-0.9,0.9
		C61.1,99.8,60.8,99.5,60.4,99.1L60.4,99.1z M60.4,99.1"/>
	<path class="st2" d="M62.3,101c0.3-0.3,0.6-0.6,0.9-0.9c0.3,0.3,0.6,0.6,0.9,0.9c-0.3,0.3-0.6,0.6-0.9,0.9
		C62.9,101.6,62.6,101.3,62.3,101L62.3,101z M62.3,101"/>
	<path class="st24" d="M62.3,101c0.3-0.3,0.6-0.6,0.9-0.9c0.3,0.3,0.6,0.6,0.9,0.9c-0.3,0.3-0.6,0.6-0.9,0.9
		C62.9,101.6,62.6,101.3,62.3,101L62.3,101z M62.3,101"/>
	<path class="st2" d="M63.2,100.1c0.3-0.3,0.6-0.6,0.9-0.9c0.3,0.3,0.6,0.6,0.9,0.9c-0.3,0.3-0.6,0.6-0.9,0.9
		C63.8,100.7,63.5,100.4,63.2,100.1L63.2,100.1z M63.2,100.1"/>
	<path class="st24" d="M63.2,100.1c0.3-0.3,0.6-0.6,0.9-0.9c0.3,0.3,0.6,0.6,0.9,0.9c-0.3,0.3-0.6,0.6-0.9,0.9
		C63.8,100.7,63.5,100.4,63.2,100.1L63.2,100.1z M63.2,100.1"/>
	<path class="st2" d="M64.1,99.2c0.3-0.3,0.6-0.6,0.9-0.9c0.3,0.3,0.6,0.6,0.9,0.8c-0.3,0.3-0.6,0.6-0.9,0.9
		C64.7,99.8,64.4,99.5,64.1,99.2L64.1,99.2z M64.1,99.2"/>
	<path class="st24" d="M64.1,99.2c0.3-0.3,0.6-0.6,0.9-0.9c0.3,0.3,0.6,0.6,0.9,0.8c-0.3,0.3-0.6,0.6-0.9,0.9
		C64.7,99.8,64.4,99.5,64.1,99.2L64.1,99.2z M64.1,99.2"/>
	<path class="st2" d="M62.3,102.8c0.3-0.3,0.6-0.6,0.9-0.9c0.3,0.3,0.6,0.6,0.9,0.9c-0.3,0.3-0.6,0.6-0.9,0.9
		C62.9,103.4,62.6,103.1,62.3,102.8L62.3,102.8z M62.3,102.8"/>
	<path class="st24" d="M62.3,102.8c0.3-0.3,0.6-0.6,0.9-0.9c0.3,0.3,0.6,0.6,0.9,0.9c-0.3,0.3-0.6,0.6-0.9,0.9
		C62.9,103.4,62.6,103.1,62.3,102.8L62.3,102.8z M62.3,102.8"/>
	<path class="st2" d="M64.1,102.8c0.3-0.3,0.6-0.6,0.9-0.9c0.3,0.3,0.6,0.5,0.9,0.8c-0.3,0.3-0.6,0.6-0.9,0.9
		C64.7,103.4,64.4,103.1,64.1,102.8L64.1,102.8z M64.1,102.8"/>
	<path class="st24" d="M64.1,102.8c0.3-0.3,0.6-0.6,0.9-0.9c0.3,0.3,0.6,0.5,0.9,0.8c-0.3,0.3-0.6,0.6-0.9,0.9
		C64.7,103.4,64.4,103.1,64.1,102.8L64.1,102.8z M64.1,102.8"/>
	<path class="st2" d="M62.3,99.3c0.3-0.3,0.6-0.6,0.9-0.9c0.3,0.3,0.6,0.6,0.9,0.9c-0.3,0.3-0.6,0.6-0.9,0.9
		C62.9,99.9,62.6,99.6,62.3,99.3L62.3,99.3z M62.3,99.3"/>
	<path class="st24" d="M62.3,99.3c0.3-0.3,0.6-0.6,0.9-0.9c0.3,0.3,0.6,0.6,0.9,0.9c-0.3,0.3-0.6,0.6-0.9,0.9
		C62.9,99.9,62.6,99.6,62.3,99.3L62.3,99.3z M62.3,99.3"/>
	<path class="st2" d="M61.4,101.9c0.3-0.3,0.6-0.6,0.9-0.9c0.3,0.3,0.6,0.6,0.9,0.9c-0.3,0.3-0.6,0.6-0.9,0.9
		C62,102.5,61.7,102.2,61.4,101.9L61.4,101.9z M61.4,101.9"/>
	<path class="st24" d="M61.4,101.9c0.3-0.3,0.6-0.6,0.9-0.9c0.3,0.3,0.6,0.6,0.9,0.9c-0.3,0.3-0.6,0.6-0.9,0.9
		C62,102.5,61.7,102.2,61.4,101.9L61.4,101.9z M61.4,101.9"/>
	<path class="st2" d="M65.8,102.7c0.3-0.3,0.6-0.6,0.9-1c0.3,0.3,0.6,0.5,0.9,0.8c-0.3,0.3-0.6,0.7-0.9,1
		C66.4,103.2,66.2,103,65.8,102.7L65.8,102.7z M65.8,102.7"/>
	<path class="st24" d="M65.8,102.7c0.3-0.3,0.6-0.6,0.9-1c0.3,0.3,0.6,0.5,0.9,0.8c-0.3,0.3-0.6,0.7-0.9,1
		C66.4,103.2,66.2,103,65.8,102.7L65.8,102.7z M65.8,102.7"/>
	<path class="st2" d="M67.7,102.5c0.3-0.3,0.6-0.7,0.9-1c0.3,0.2,0.6,0.5,0.9,0.7c-0.3,0.3-0.6,0.7-0.9,1
		C68.3,103,68,102.8,67.7,102.5L67.7,102.5z M67.7,102.5"/>
	<path class="st24" d="M67.7,102.5c0.3-0.3,0.6-0.7,0.9-1c0.3,0.2,0.6,0.5,0.9,0.7c-0.3,0.3-0.6,0.7-0.9,1
		C68.3,103,68,102.8,67.7,102.5L67.7,102.5z M67.7,102.5"/>
	<path class="st2" d="M65.8,100.9c0.3-0.3,0.6-0.6,0.9-1c0.3,0.3,0.6,0.5,0.9,0.8c-0.3,0.3-0.6,0.6-0.9,1
		C66.4,101.5,66.2,101.2,65.8,100.9L65.8,100.9z M65.8,100.9"/>
	<path class="st24" d="M65.8,100.9c0.3-0.3,0.6-0.6,0.9-1c0.3,0.3,0.6,0.5,0.9,0.8c-0.3,0.3-0.6,0.6-0.9,1
		C66.4,101.5,66.2,101.2,65.8,100.9L65.8,100.9z M65.8,100.9"/>
	<path class="st2" d="M69.5,102.3c0.3-0.3,0.6-0.7,0.9-1c0.3,0.2,0.6,0.5,0.9,0.7c-0.3,0.4-0.6,0.7-0.9,1
		C70.1,102.8,69.8,102.5,69.5,102.3L69.5,102.3z M69.5,102.3"/>
	<path class="st24" d="M69.5,102.3c0.3-0.3,0.6-0.7,0.9-1c0.3,0.2,0.6,0.5,0.9,0.7c-0.3,0.4-0.6,0.7-0.9,1
		C70.1,102.8,69.8,102.5,69.5,102.3L69.5,102.3z M69.5,102.3"/>
	<path class="st2" d="M69.5,100.5c0.3-0.3,0.6-0.7,0.9-1c0.3,0.2,0.6,0.5,0.9,0.7c-0.3,0.4-0.6,0.7-0.9,1
		C70.1,101,69.8,100.8,69.5,100.5L69.5,100.5z M69.5,100.5"/>
	<path class="st24" d="M69.5,100.5c0.3-0.3,0.6-0.7,0.9-1c0.3,0.2,0.6,0.5,0.9,0.7c-0.3,0.4-0.6,0.7-0.9,1
		C70.1,101,69.8,100.8,69.5,100.5L69.5,100.5z M69.5,100.5"/>
	<path class="st2" d="M68.6,99.8c0.3-0.3,0.6-0.7,0.9-1c0.3,0.2,0.6,0.5,0.9,0.7c-0.3,0.3-0.6,0.7-0.9,1
		C69.2,100.3,68.9,100,68.6,99.8L68.6,99.8z M68.6,99.8"/>
	<path class="st24" d="M68.6,99.8c0.3-0.3,0.6-0.7,0.9-1c0.3,0.2,0.6,0.5,0.9,0.7c-0.3,0.3-0.6,0.7-0.9,1
		C69.2,100.3,68.9,100,68.6,99.8L68.6,99.8z M68.6,99.8"/>
	<path class="st2" d="M67.7,99c0.3-0.3,0.6-0.7,0.9-1c0.3,0.2,0.6,0.5,0.9,0.7c-0.3,0.3-0.6,0.7-0.9,1C68.3,99.5,68,99.3,67.7,99
		L67.7,99z M67.7,99"/>
	<path class="st24" d="M67.7,99c0.3-0.3,0.6-0.7,0.9-1c0.3,0.2,0.6,0.5,0.9,0.7c-0.3,0.3-0.6,0.7-0.9,1C68.3,99.5,68,99.3,67.7,99
		L67.7,99z M67.7,99"/>
	<path class="st2" d="M69.5,98.8c0.3-0.3,0.6-0.7,0.9-1c0.3,0.2,0.6,0.5,0.9,0.7c-0.3,0.4-0.6,0.7-0.9,1
		C70.1,99.3,69.8,99,69.5,98.8L69.5,98.8z M69.5,98.8"/>
	<path class="st24" d="M69.5,98.8c0.3-0.3,0.6-0.7,0.9-1c0.3,0.2,0.6,0.5,0.9,0.7c-0.3,0.4-0.6,0.7-0.9,1
		C70.1,99.3,69.8,99,69.5,98.8L69.5,98.8z M69.5,98.8"/>
	<path class="st2" d="M71.3,100.2c0.3-0.4,0.6-0.7,0.9-1.1c0.3,0.2,0.6,0.4,0.9,0.7c-0.3,0.4-0.6,0.7-0.9,1.1
		C71.9,100.7,71.6,100.4,71.3,100.2L71.3,100.2z M71.3,100.2"/>
	<path class="st24" d="M71.3,100.2c0.3-0.4,0.6-0.7,0.9-1.1c0.3,0.2,0.6,0.4,0.9,0.7c-0.3,0.4-0.6,0.7-0.9,1.1
		C71.9,100.7,71.6,100.4,71.3,100.2L71.3,100.2z M71.3,100.2"/>
	<path class="st2" d="M72.2,99.1c0.3-0.4,0.6-0.7,0.9-1.1c0.3,0.2,0.6,0.4,0.9,0.6c-0.3,0.4-0.6,0.7-0.9,1.1
		C72.9,99.6,72.5,99.4,72.2,99.1L72.2,99.1z M72.2,99.1"/>
	<path class="st24" d="M72.2,99.1c0.3-0.4,0.6-0.7,0.9-1.1c0.3,0.2,0.6,0.4,0.9,0.6c-0.3,0.4-0.6,0.7-0.9,1.1
		C72.9,99.6,72.5,99.4,72.2,99.1L72.2,99.1z M72.2,99.1"/>
	<path class="st2" d="M73.2,98c0.3-0.4,0.6-0.7,0.9-1.1c0.3,0.2,0.6,0.4,0.9,0.6c-0.3,0.4-0.6,0.8-0.9,1.1
		C73.8,98.5,73.5,98.2,73.2,98L73.2,98z M73.2,98"/>
	<path class="st24" d="M73.2,98c0.3-0.4,0.6-0.7,0.9-1.1c0.3,0.2,0.6,0.4,0.9,0.6c-0.3,0.4-0.6,0.8-0.9,1.1
		C73.8,98.5,73.5,98.2,73.2,98L73.2,98z M73.2,98"/>
	<path class="st2" d="M71.3,101.9c0.3-0.4,0.6-0.7,0.9-1.1c0.3,0.2,0.6,0.5,0.9,0.7c-0.3,0.4-0.6,0.7-0.9,1.1
		C71.9,102.4,71.6,102.2,71.3,101.9L71.3,101.9z M71.3,101.9"/>
	<path class="st24" d="M71.3,101.9c0.3-0.4,0.6-0.7,0.9-1.1c0.3,0.2,0.6,0.5,0.9,0.7c-0.3,0.4-0.6,0.7-0.9,1.1
		C71.9,102.4,71.6,102.2,71.3,101.9L71.3,101.9z M71.3,101.9"/>
	<path class="st2" d="M73.2,101.6c0.3-0.4,0.6-0.7,0.9-1.1c0.3,0.2,0.6,0.4,0.9,0.6c-0.3,0.4-0.6,0.7-0.9,1.1
		C73.8,102,73.5,101.8,73.2,101.6L73.2,101.6z M73.2,101.6"/>
	<path class="st24" d="M73.2,101.6c0.3-0.4,0.6-0.7,0.9-1.1c0.3,0.2,0.6,0.4,0.9,0.6c-0.3,0.4-0.6,0.7-0.9,1.1
		C73.8,102,73.5,101.8,73.2,101.6L73.2,101.6z M73.2,101.6"/>
	<path class="st2" d="M71.3,98.4c0.3-0.4,0.6-0.7,0.9-1.1c0.3,0.2,0.6,0.4,0.9,0.7c-0.3,0.4-0.6,0.7-0.9,1.1
		C71.9,98.9,71.6,98.7,71.3,98.4L71.3,98.4z M71.3,98.4"/>
	<path class="st24" d="M71.3,98.4c0.3-0.4,0.6-0.7,0.9-1.1c0.3,0.2,0.6,0.4,0.9,0.7c-0.3,0.4-0.6,0.7-0.9,1.1
		C71.9,98.9,71.6,98.7,71.3,98.4L71.3,98.4z M71.3,98.4"/>
	<path class="st2" d="M70.4,101.2c0.3-0.3,0.6-0.7,0.9-1c0.3,0.2,0.6,0.5,0.9,0.7c-0.3,0.4-0.6,0.7-0.9,1.1
		C71,101.7,70.7,101.5,70.4,101.2L70.4,101.2z M70.4,101.2"/>
	<path class="st24" d="M70.4,101.2c0.3-0.3,0.6-0.7,0.9-1c0.3,0.2,0.6,0.5,0.9,0.7c-0.3,0.4-0.6,0.7-0.9,1.1
		C71,101.7,70.7,101.5,70.4,101.2L70.4,101.2z M70.4,101.2"/>
	<path class="st2" d="M47.8,100.5c0.3-0.2,0.6-0.4,0.9-0.6c0.3,0.4,0.6,0.8,0.9,1.2c-0.3,0.2-0.6,0.4-0.9,0.7
		C48.4,101.3,48.1,100.9,47.8,100.5L47.8,100.5z M47.8,100.5"/>
	<path class="st24" d="M47.8,100.5c0.3-0.2,0.6-0.4,0.9-0.6c0.3,0.4,0.6,0.8,0.9,1.2c-0.3,0.2-0.6,0.4-0.9,0.7
		C48.4,101.3,48.1,100.9,47.8,100.5L47.8,100.5z M47.8,100.5"/>
	<path class="st2" d="M49.7,101c0.3-0.2,0.6-0.5,0.9-0.7c0.3,0.4,0.6,0.8,0.9,1.2c-0.3,0.2-0.6,0.5-0.9,0.7
		C50.3,101.8,50,101.4,49.7,101L49.7,101z M49.7,101"/>
	<path class="st24" d="M49.7,101c0.3-0.2,0.6-0.5,0.9-0.7c0.3,0.4,0.6,0.8,0.9,1.2c-0.3,0.2-0.6,0.5-0.9,0.7
		C50.3,101.8,50,101.4,49.7,101L49.7,101z M49.7,101"/>
	<path class="st2" d="M47.8,98.6c0.3-0.2,0.6-0.4,0.9-0.7c0.3,0.4,0.6,0.8,0.9,1.2c-0.3,0.2-0.6,0.5-0.9,0.7
		C48.4,99.4,48.1,99,47.8,98.6L47.8,98.6z M47.8,98.6"/>
	<path class="st24" d="M47.8,98.6c0.3-0.2,0.6-0.4,0.9-0.7c0.3,0.4,0.6,0.8,0.9,1.2c-0.3,0.2-0.6,0.5-0.9,0.7
		C48.4,99.4,48.1,99,47.8,98.6L47.8,98.6z M47.8,98.6"/>
	<path class="st2" d="M51.5,101.5c0.3-0.2,0.6-0.5,0.9-0.7c0.3,0.4,0.6,0.8,0.9,1.1c-0.3,0.3-0.6,0.5-0.9,0.8
		C52.1,102.3,51.8,101.9,51.5,101.5L51.5,101.5z M51.5,101.5"/>
	<path class="st24" d="M51.5,101.5c0.3-0.2,0.6-0.5,0.9-0.7c0.3,0.4,0.6,0.8,0.9,1.1c-0.3,0.3-0.6,0.5-0.9,0.8
		C52.1,102.3,51.8,101.9,51.5,101.5L51.5,101.5z M51.5,101.5"/>
	<path class="st2" d="M51.5,99.6c0.3-0.3,0.6-0.5,0.9-0.8c0.3,0.4,0.6,0.8,0.9,1.1c-0.3,0.2-0.6,0.5-0.9,0.8
		C52.1,100.4,51.8,100,51.5,99.6L51.5,99.6z M51.5,99.6"/>
	<path class="st24" d="M51.5,99.6c0.3-0.3,0.6-0.5,0.9-0.8c0.3,0.4,0.6,0.8,0.9,1.1c-0.3,0.2-0.6,0.5-0.9,0.8
		C52.1,100.4,51.8,100,51.5,99.6L51.5,99.6z M51.5,99.6"/>
	<path class="st2" d="M50.6,98.5c0.3-0.2,0.6-0.5,0.9-0.7c0.3,0.4,0.6,0.8,0.9,1.1c-0.3,0.2-0.6,0.5-0.9,0.8
		C51.2,99.2,50.9,98.8,50.6,98.5L50.6,98.5z M50.6,98.5"/>
	<path class="st24" d="M50.6,98.5c0.3-0.2,0.6-0.5,0.9-0.7c0.3,0.4,0.6,0.8,0.9,1.1c-0.3,0.2-0.6,0.5-0.9,0.8
		C51.2,99.2,50.9,98.8,50.6,98.5L50.6,98.5z M50.6,98.5"/>
	<path class="st2" d="M49.7,97.3c0.3-0.2,0.6-0.5,0.9-0.7c0.3,0.4,0.6,0.8,0.9,1.1c-0.3,0.2-0.6,0.5-0.9,0.7
		C50.3,98.1,50,97.7,49.7,97.3L49.7,97.3z M49.7,97.3"/>
	<path class="st24" d="M49.7,97.3c0.3-0.2,0.6-0.5,0.9-0.7c0.3,0.4,0.6,0.8,0.9,1.1c-0.3,0.2-0.6,0.5-0.9,0.7
		C50.3,98.1,50,97.7,49.7,97.3L49.7,97.3z M49.7,97.3"/>
	<path class="st2" d="M51.5,97.7c0.3-0.2,0.6-0.5,0.9-0.8c0.3,0.4,0.6,0.8,0.9,1.1c-0.3,0.3-0.6,0.5-0.9,0.8
		C52.1,98.5,51.8,98.1,51.5,97.7L51.5,97.7z M51.5,97.7"/>
	<path class="st24" d="M51.5,97.7c0.3-0.2,0.6-0.5,0.9-0.8c0.3,0.4,0.6,0.8,0.9,1.1c-0.3,0.3-0.6,0.5-0.9,0.8
		C52.1,98.5,51.8,98.1,51.5,97.7L51.5,97.7z M51.5,97.7"/>
	<path class="st2" d="M53.3,100c0.3-0.3,0.6-0.5,0.9-0.8c0.3,0.4,0.6,0.7,0.9,1.1c-0.3,0.3-0.6,0.5-0.9,0.8
		C53.9,100.8,53.6,100.4,53.3,100L53.3,100z M53.3,100"/>
	<path class="st24" d="M53.3,100c0.3-0.3,0.6-0.5,0.9-0.8c0.3,0.4,0.6,0.7,0.9,1.1c-0.3,0.3-0.6,0.5-0.9,0.8
		C53.9,100.8,53.6,100.4,53.3,100L53.3,100z M53.3,100"/>
	<path class="st2" d="M54.2,99.2c0.3-0.3,0.6-0.5,0.9-0.8c0.3,0.4,0.6,0.7,0.9,1.1c-0.3,0.3-0.6,0.5-0.9,0.8
		C54.8,100,54.5,99.6,54.2,99.2L54.2,99.2z M54.2,99.2"/>
	<path class="st24" d="M54.2,99.2c0.3-0.3,0.6-0.5,0.9-0.8c0.3,0.4,0.6,0.7,0.9,1.1c-0.3,0.3-0.6,0.5-0.9,0.8
		C54.8,100,54.5,99.6,54.2,99.2L54.2,99.2z M54.2,99.2"/>
	<path class="st2" d="M55.2,98.4c0.3-0.3,0.6-0.5,0.9-0.8c0.3,0.4,0.6,0.7,0.9,1.1c-0.3,0.3-0.6,0.5-0.9,0.8
		C55.8,99.2,55.5,98.8,55.2,98.4L55.2,98.4z M55.2,98.4"/>
	<path class="st24" d="M55.2,98.4c0.3-0.3,0.6-0.5,0.9-0.8c0.3,0.4,0.6,0.7,0.9,1.1c-0.3,0.3-0.6,0.5-0.9,0.8
		C55.8,99.2,55.5,98.8,55.2,98.4L55.2,98.4z M55.2,98.4"/>
	<path class="st2" d="M53.3,101.9c0.3-0.3,0.6-0.5,0.9-0.8c0.3,0.4,0.6,0.7,0.9,1.1c-0.3,0.3-0.6,0.5-0.9,0.8
		C53.9,102.7,53.6,102.3,53.3,101.9L53.3,101.9z M53.3,101.9"/>
	<path class="st24" d="M53.3,101.9c0.3-0.3,0.6-0.5,0.9-0.8c0.3,0.4,0.6,0.7,0.9,1.1c-0.3,0.3-0.6,0.5-0.9,0.8
		C53.9,102.7,53.6,102.3,53.3,101.9L53.3,101.9z M53.3,101.9"/>
	<path class="st2" d="M55.2,102.3c0.3-0.3,0.6-0.5,0.9-0.8c0.3,0.4,0.6,0.7,0.9,1.1c-0.3,0.3-0.6,0.6-0.9,0.8
		C55.8,103,55.5,102.6,55.2,102.3L55.2,102.3z M55.2,102.3"/>
	<path class="st24" d="M55.2,102.3c0.3-0.3,0.6-0.5,0.9-0.8c0.3,0.4,0.6,0.7,0.9,1.1c-0.3,0.3-0.6,0.6-0.9,0.8
		C55.8,103,55.5,102.6,55.2,102.3L55.2,102.3z M55.2,102.3"/>
	<path class="st2" d="M53.3,98.1c0.3-0.3,0.6-0.5,0.9-0.8c0.3,0.4,0.6,0.7,0.9,1.1c-0.3,0.3-0.6,0.5-0.9,0.8
		C53.9,98.9,53.6,98.5,53.3,98.1L53.3,98.1z M53.3,98.1"/>
	<path class="st24" d="M53.3,98.1c0.3-0.3,0.6-0.5,0.9-0.8c0.3,0.4,0.6,0.7,0.9,1.1c-0.3,0.3-0.6,0.5-0.9,0.8
		C53.9,98.9,53.6,98.5,53.3,98.1L53.3,98.1z M53.3,98.1"/>
	<path class="st2" d="M52.4,100.8c0.3-0.3,0.6-0.5,0.9-0.8c0.3,0.4,0.6,0.8,0.9,1.1c-0.3,0.3-0.6,0.5-0.9,0.8
		C53,101.5,52.7,101.2,52.4,100.8L52.4,100.8z M52.4,100.8"/>
	<path class="st24" d="M52.4,100.8c0.3-0.3,0.6-0.5,0.9-0.8c0.3,0.4,0.6,0.8,0.9,1.1c-0.3,0.3-0.6,0.5-0.9,0.8
		C53,101.5,52.7,101.2,52.4,100.8L52.4,100.8z M52.4,100.8"/>
	<path class="st2" d="M47.6,100.4c1.7,0.6,3.5,1,5.3,1.3c2.8,0.6,5.6,1.1,8.4,1.2c0.3,0,0.7-0.4,1-0.4c0.2,0,0.5,0.4,0.7,0.4
		c3.1-0.1,6.2-0.6,9.3-1.3c1.5-0.2,2.9-0.6,4.3-1.1c0.1,0,0.3-0.1,0.4-0.1l-0.2,1c-0.1,0-0.3,0.1-0.4,0.1c-4.8,1.3-9.2,2.3-14,2.3
		c-4.7,0-9.7-0.8-14.3-2.3c-0.1,0-0.3-0.1-0.4-0.1L47.6,100.4z M47.6,100.4"/>
	<path class="st24" d="M47.6,100.4c1.7,0.6,3.5,1,5.3,1.3c2.8,0.6,5.6,1.1,8.4,1.2c0.3,0,0.7-0.4,1-0.4c0.2,0,0.5,0.4,0.7,0.4
		c3.1-0.1,6.2-0.6,9.3-1.3c1.5-0.2,2.9-0.6,4.3-1.1c0.1,0,0.3-0.1,0.4-0.1l-0.2,1c-0.1,0-0.3,0.1-0.4,0.1c-4.8,1.3-9.2,2.3-14,2.3
		c-4.7,0-9.7-0.8-14.3-2.3c-0.1,0-0.3-0.1-0.4-0.1L47.6,100.4z M47.6,100.4"/>
	<path class="st2" d="M75,99.3c0.3-0.4,0.6-0.8,0.9-1.2c0.3,0.2,0.6,0.4,0.9,0.6c-0.3,0.4-0.6,0.8-0.9,1.2
		C75.6,99.8,75.3,99.5,75,99.3L75,99.3z M75,99.3"/>
	<path class="st24" d="M75,99.3c0.3-0.4,0.6-0.8,0.9-1.2c0.3,0.2,0.6,0.4,0.9,0.6c-0.3,0.4-0.6,0.8-0.9,1.2
		C75.6,99.8,75.3,99.5,75,99.3L75,99.3z M75,99.3"/>
	<path class="st2" d="M75,101.1c0.3-0.4,0.6-0.8,0.9-1.2c0.3,0.2,0.6,0.4,0.9,0.6c-0.3,0.4-0.6,0.8-0.9,1.2
		C75.6,101.5,75.3,101.3,75,101.1L75,101.1z M75,101.1"/>
	<path class="st24" d="M75,101.1c0.3-0.4,0.6-0.8,0.9-1.2c0.3,0.2,0.6,0.4,0.9,0.6c-0.3,0.4-0.6,0.8-0.9,1.2
		C75.6,101.5,75.3,101.3,75,101.1L75,101.1z M75,101.1"/>
	<path class="st25" d="M32.7,92.9c0,3.4,0,6.9,0.1,10.2"/>
	<path class="st12" d="M79.1,36c-0.5,0-1.3,0-1.3,0.3l2.8,0.8L79.1,36z M79.1,36"/>
	<path class="st28" d="M79.1,36c-0.5,0-1.3,0-1.3,0.3l2.8,0.8L79.1,36z M79.1,36"/>
	<path class="st10" d="M76.9,33.1c0-0.3,0.5-0.4,1.3-0.2c-0.2,0.4-0.5,0.7-1,0.9C77,33.7,76.9,33.6,76.9,33.1L76.9,33.1z M76.9,33.1
		"/>
	<path class="st11" d="M76.9,33.1c0-0.3,0.5-0.4,1.3-0.2c-0.2,0.4-0.5,0.7-1,0.9C77,33.7,76.9,33.6,76.9,33.1L76.9,33.1z M76.9,33.1
		"/>
	<path class="st10" d="M74.8,68c0.1-0.4,0-0.4,0.4-0.7c0-0.3-0.1-0.3-0.4-0.2C74.5,67.4,74.5,67.5,74.8,68L74.8,68z M74.8,68"/>
	<path class="st11" d="M74.8,68c0.1-0.4,0-0.4,0.4-0.7c0-0.3-0.1-0.3-0.4-0.2C74.5,67.4,74.5,67.5,74.8,68L74.8,68z M74.8,68"/>
	<path class="st10" d="M76,68.5c0.1-0.4,0-0.4,0.2-0.7c-0.1-0.3-0.2-0.3-0.4-0.1C75.6,68,75.6,68.1,76,68.5L76,68.5z M76,68.5"/>
	<path class="st11" d="M76,68.5c0.1-0.4,0-0.4,0.2-0.7c-0.1-0.3-0.2-0.3-0.4-0.1C75.6,68,75.6,68.1,76,68.5L76,68.5z M76,68.5"/>
	<path class="st10" d="M77.2,68.6c-0.1-0.4-0.2-0.4,0-0.8c-0.1-0.2-0.3-0.2-0.4,0C76.7,68.2,76.7,68.4,77.2,68.6L77.2,68.6z
		 M77.2,68.6"/>
	<path class="st11" d="M77.2,68.6c-0.1-0.4-0.2-0.4,0-0.8c-0.1-0.2-0.3-0.2-0.4,0C76.7,68.2,76.7,68.4,77.2,68.6L77.2,68.6z
		 M77.2,68.6"/>
	<path class="st25" d="M47.3,94.1c-0.1,5.2,0.4,7.3,0.9,10.4 M77.4,94.3c0.3,5.2-0.6,7.4-1.3,10.5"/>
	<path class="st19" d="M51.6,35.9c6.5-3.1,13.8-2.9,21.9,0c0.5,0.1,0.5,0.8,0,0.6c-7.6-2.8-14.9-3.2-21.8,0
		C51.2,36.7,51,36.1,51.6,35.9L51.6,35.9z M51.6,35.9"/>
	<path class="st17" d="M51.6,35.9c6.5-3.1,13.8-2.9,21.9,0c0.5,0.1,0.5,0.8,0,0.6c-7.6-2.8-14.9-3.2-21.8,0
		C51.2,36.7,51,36.1,51.6,35.9L51.6,35.9z M51.6,35.9"/>
	<path class="st2" d="M64.4,75.6l3.2-0.8c-0.4,2.8-0.4,4.3,0.2,4.7c0.5,0.4-0.8,1.3-1.1,3.2c-0.4,1.3-1.7,2.5-1.2,4
		c-0.3,0-0.6,0.1-0.9,0.6c-1.1,1-1.7,0.6-1-0.2c-0.2,0.1-0.3,0.4-0.3,0.7c-0.1,0-0.3,0.1-0.4,0c-0.5-0.3,0.7-1.7,1.1-1.4
		c0-0.4,0.2-0.9,0.6-1.5c0.9-1.2,2-4.5,1.5-5.1C65.2,78.5,64.7,77,64.4,75.6L64.4,75.6z M64.4,75.6"/>
	<path class="st17" d="M64.4,75.6l3.2-0.8c-0.4,2.8-0.4,4.3,0.2,4.7c0.5,0.4-0.8,1.3-1.1,3.2c-0.4,1.3-1.7,2.5-1.2,4
		c-0.3,0-0.6,0.1-0.9,0.6c-1.1,1-1.7,0.6-1-0.2c-0.2,0.1-0.3,0.4-0.3,0.7c-0.1,0-0.3,0.1-0.4,0c-0.5-0.3,0.7-1.7,1.1-1.4
		c0-0.4,0.2-0.9,0.6-1.5c0.9-1.2,2-4.5,1.5-5.1C65.2,78.5,64.7,77,64.4,75.6L64.4,75.6z M64.4,75.6"/>
	<path class="st2" d="M58.8,74.5l1.5,3c-3.6-0.3-4.4,0.7-5.5,0.4c0.1,0.3,0,0.6-0.1,0.8c0.6,0.1,0.7,2.3,2,3.1
		c0.8,0,1.1,0.1,0.4,0.6c0.4,0.3,0.8,0.8,1.3,1c0.2,0.4,0.2,0.6,0,0.6c-0.2-0.1-0.3-0.2-0.5-0.2c0.3,0.1,0.5,0.2,0.6,0.5
		c0,0.3-1.1,0-1.6-0.3c0-0.3,0-0.6,0.2-0.7c-0.2,0-0.3,0.2-0.3,0.7c-1-0.7-0.8-1.5-2.9-4.1c-0.6-0.7-0.9-1.4-0.7-2.3
		c0.8-1,1.7-1.6,2.7-1.7C56.8,75,57.7,74.3,58.8,74.5L58.8,74.5z M58.8,74.5"/>
	<path class="st17" d="M58.8,74.5l1.5,3c-3.6-0.3-4.4,0.7-5.5,0.4c0.1,0.3,0,0.6-0.1,0.8c0.6,0.1,0.7,2.3,2,3.1
		c0.8,0,1.1,0.1,0.4,0.6c0.4,0.3,0.8,0.8,1.3,1c0.2,0.4,0.2,0.6,0,0.6c-0.2-0.1-0.3-0.2-0.5-0.2c0.3,0.1,0.5,0.2,0.6,0.5
		c0,0.3-1.1,0-1.6-0.3c0-0.3,0-0.6,0.2-0.7c-0.2,0-0.3,0.2-0.3,0.7c-1-0.7-0.8-1.5-2.9-4.1c-0.6-0.7-0.9-1.4-0.7-2.3
		c0.8-1,1.7-1.6,2.7-1.7C56.8,75,57.7,74.3,58.8,74.5L58.8,74.5z M58.8,74.5"/>
	<path class="st2" d="M56.9,48c0.8,1.6,1.6,2.4,2.1,2.1c0.1-0.4,0.1-0.8,0.1-1.3c0.2,0.3,0.4,0.6,0.4,1.2c0.2-0.1,0.5-0.2,0.7-0.4
		c0.1,0.6-1.1,1,0.2,1.9c0.5,0.5,0.9,1.1,1.3,1.9c0.3,0.5,0.6,0.4,0.8-0.3c0.5-2.1-1-2.1-0.7-4.1c0.5,0.3,0.5,1.6,1.1,1.9
		c0.2,0,0.4-0.2,0.6-0.8c0.1,1.7-0.3,3-0.9,4.1c-0.4,0.8-0.7,4.1,0.4,2.6c0.1,0.5-0.9,1.6-2.7,3.3c-1.7,1.5-3.6,2.3-5.5,2.6
		c0.4-1-0.8-1.2-1.2-2.1c0.8,0.4,1.6,0.5,2.5,0.5c0.8-0.7,2.6,0,2.8-0.9c-2.4-2.1-3.1-3.5-2.8-4.5c0.2,0.7,0.5,1.2,0.9,1.5
		c0-0.3,0.2-0.6,0.4-1c-0.1,2.3,1.2,2.4,2.2,3.6c1.7-1.3,2.7-3,1.6-5.9C60,51.1,56.7,50.8,56.9,48L56.9,48z M56.9,48"/>
	<path class="st17" d="M56.9,48c0.8,1.6,1.6,2.4,2.1,2.1c0.1-0.4,0.1-0.8,0.1-1.3c0.2,0.3,0.4,0.6,0.4,1.2c0.2-0.1,0.5-0.2,0.7-0.4
		c0.1,0.6-1.1,1,0.2,1.9c0.5,0.5,0.9,1.1,1.3,1.9c0.3,0.5,0.6,0.4,0.8-0.3c0.5-2.1-1-2.1-0.7-4.1c0.5,0.3,0.5,1.6,1.1,1.9
		c0.2,0,0.4-0.2,0.6-0.8c0.1,1.7-0.3,3-0.9,4.1c-0.4,0.8-0.7,4.1,0.4,2.6c0.1,0.5-0.9,1.6-2.7,3.3c-1.7,1.5-3.6,2.3-5.5,2.6
		c0.4-1-0.8-1.2-1.2-2.1c0.8,0.4,1.6,0.5,2.5,0.5c0.8-0.7,2.6,0,2.8-0.9c-2.4-2.1-3.1-3.5-2.8-4.5c0.2,0.7,0.5,1.2,0.9,1.5
		c0-0.3,0.2-0.6,0.4-1c-0.1,2.3,1.2,2.4,2.2,3.6c1.7-1.3,2.7-3,1.6-5.9C60,51.1,56.7,50.8,56.9,48L56.9,48z M56.9,48"/>
	<path class="st2" d="M64.5,47.2c0.2,1.2-0.5,2.3,0.5,3.5c0.1-0.7,0.2-1.3,0.4-1.7c0.3,0.3,0.2,0.8,0.2,1.5c0.2,0.1,0.5,0,0.8-0.3
		c0.1,0.5-1,0.8-0.8,1.5c0.5,0.9,0.9,1.8,1.2,2.7c2-2,0.1-4.7,1.6-5.5c0.1,0.7,0,1.6,0,2.4c0,0.5,0.7-0.1,1.1-0.2
		c-0.4,1-1.1,1-1.3,2.3c0,0.3-0.6,1.8-1.1,1.9c-0.2,1.1-0.5,2.2-1,3.3c0.7-0.1,0.9,0.2,1.8,0.2c-1.1,0.7-1.9,0-4,1.9
		c-0.5,0.4-1.7,0.8-2.6,1.2c-0.4-0.6-0.8-0.2-1.2,0.7c0.7-1.5,1.8-1.4,0.8,1c0.8,0.9,1.4,1.9,1.4,3.1v-0.4c0.3,0,0.7,0.7,1.1,2.5
		l-0.3-1.2c0.9,0.6,1.5,1.4,2,2.2l-0.5-0.7c1.3,0.8,3.2,0.4,5.3,1.8c0.1-0.7,0.2-1.1,0.5-1.3c0.4,0.3,0.7,0.9,0.6,1.9L70,70.8
		l0.5,0.5c1.4,1.6,1.3,3.7,1,6.3c-0.1,0.6,0.3,1.3,1,2.1c-0.1,4,0,7.2,0.4,7.6c-1.1-0.3-0.1,1-1.6,1.6c-0.1-0.3,0-0.6,0.1-0.9
		c-0.1,0.6-0.4,0.8-0.7,0.7c-0.1-0.4,0-0.9,0.4-1.4c0.3,0.1,0.6,0.4,0.9,0.2c-0.3,0.2-0.6-0.1-0.9-0.2c0.5-0.1,0.4-1.9,0.4-3.8
		c0-1.4-0.2-2.4-0.7-3c-0.9-1-1.9-1.7-2.7-2.9c-0.1-0.5-0.3-0.9-0.6-1.1c0.2,0.2,0.4,0.5,0.6,1.1c-1.5,0.4-3.2,0.5-5.4,0.4
		c0.1-0.4,0.2-0.7,0.2-1.1c0,0.6-0.4,1-0.5,2.4c0,0.4-0.6,1.3-0.9,2c0,0.4-0.1,1.1-0.3,1.9c-0.5,1.5-0.4,3.6-0.7,4
		c-0.4,0.5-0.4,0.8,0,1.4l-0.7,0c-0.3-0.1-0.3,0.2-0.8-0.3c0.3,0.3,0.6,0.2,0.9,0.3c-0.3,1.1-0.8,1.5-1.4,1.5
		c-0.2-0.1-0.1-0.6,0.2-0.9c-0.2,0.4-0.3,0.6-0.2,0.9c-0.7-0.1-0.8-0.6,0.3-2c1.1-1,0.9-4.1,1.2-6.1c0.1-0.8,0.6-4.1-0.5-5.5
		c0.2,0.4,0.4,0.9,0.5,1.4c-1.8-0.7-2.8-1.8-2.6-2.9l-0.4,0.6c-0.2-0.6-0.1-1.2,0.1-1.9l-0.5,0.5c-0.1-0.7,0.1-1.4,0.4-2.2l-0.5,0.4
		c-0.1-0.7,0.1-1.3,0.4-1.9l-0.5,0.5c-0.1-0.6,0.1-1.2,0.4-1.8l-0.4,0.2c0-1,0.7-2.3,0.1-3.1c0.3,0.3,0.7,0.5,1.2,0.5
		c-0.5,0-0.9-0.2-1.2-0.5c-0.5-1-2.2,0-2.5-1.3c-0.6-2.3,2.5-1.5,4.1-3.1c0.3,0,1.9-0.4,1.2,0.3c0.5-0.4,0.1-0.5-1.3-0.3
		c-0.8-0.2-2,0.7-3.1,0.9l0.3-0.6C54.8,62,54.3,62,53.7,62c0.4-0.4,0.8-0.6,1.4-0.5c-0.3-0.4-0.5-0.9-0.6-1.3
		c2.5,1.6,2.6,0.7,3.8,0.9c1.4,0.4,2.7,0.4,3.6-0.6c-1-0.8-2.1-1.7-3-2.8c0.3-0.1,0.7,0,0.9-0.1c0.1-0.5-0.1-1.1,0.1-1.6
		c0.7,0.6,0.3,1.6,0.4,2.5c1.1,0.9,2.1,1.7,2.6,1.7c2.2-0.9,3.1-2.8,3.1-5.4C65.5,52.3,62.2,50.1,64.5,47.2L64.5,47.2z M64.5,47.2"
		/>
	<path class="st3" d="M64.5,47.2c0.2,1.2-0.5,2.3,0.5,3.5c0.1-0.7,0.2-1.3,0.4-1.7c0.3,0.3,0.2,0.8,0.2,1.5c0.2,0.1,0.5,0,0.8-0.3
		c0.1,0.5-1,0.8-0.8,1.5c0.5,0.9,0.9,1.8,1.2,2.7c2-2,0.1-4.7,1.6-5.5c0.1,0.7,0,1.6,0,2.4c0,0.5,0.7-0.1,1.1-0.2
		c-0.4,1-1.1,1-1.3,2.3c0,0.3-0.6,1.8-1.1,1.9c-0.2,1.1-0.5,2.2-1,3.3c0.7-0.1,0.9,0.2,1.8,0.2c-1.1,0.7-1.9,0-4,1.9
		c-0.5,0.4-1.7,0.8-2.6,1.2c-0.4-0.6-0.8-0.2-1.2,0.7c0.7-1.5,1.8-1.4,0.8,1c0.8,0.9,1.4,1.9,1.4,3.1v-0.4c0.3,0,0.7,0.7,1.1,2.5
		l-0.3-1.2c0.9,0.6,1.5,1.4,2,2.2l-0.5-0.7c1.3,0.8,3.2,0.4,5.3,1.8c0.1-0.7,0.2-1.1,0.5-1.3c0.4,0.3,0.7,0.9,0.6,1.9L70,70.8
		l0.5,0.5c1.4,1.6,1.3,3.7,1,6.3c-0.1,0.6,0.3,1.3,1,2.1c-0.1,4,0,7.2,0.4,7.6c-1.1-0.3-0.1,1-1.6,1.6c-0.1-0.3,0-0.6,0.1-0.9
		c-0.1,0.6-0.4,0.8-0.7,0.7c-0.1-0.4,0-0.9,0.4-1.4c0.3,0.1,0.6,0.4,0.9,0.2c-0.3,0.2-0.6-0.1-0.9-0.2c0.5-0.1,0.4-1.9,0.4-3.8
		c0-1.4-0.2-2.4-0.7-3c-0.9-1-1.9-1.7-2.7-2.9c-0.1-0.5-0.3-0.9-0.6-1.1c0.2,0.2,0.4,0.5,0.6,1.1c-1.5,0.4-3.2,0.5-5.4,0.4
		c0.1-0.4,0.2-0.7,0.2-1.1c0,0.6-0.4,1-0.5,2.4c0,0.4-0.6,1.3-0.9,2c0,0.4-0.1,1.1-0.3,1.9c-0.5,1.5-0.4,3.6-0.7,4
		c-0.4,0.5-0.4,0.8,0,1.4l-0.7,0c-0.3-0.1-0.3,0.2-0.8-0.3c0.3,0.3,0.6,0.2,0.9,0.3c-0.3,1.1-0.8,1.5-1.4,1.5
		c-0.2-0.1-0.1-0.6,0.2-0.9c-0.2,0.4-0.3,0.6-0.2,0.9c-0.7-0.1-0.8-0.6,0.3-2c1.1-1,0.9-4.1,1.2-6.1c0.1-0.8,0.6-4.1-0.5-5.5
		c0.2,0.4,0.4,0.9,0.5,1.4c-1.8-0.7-2.8-1.8-2.6-2.9l-0.4,0.6c-0.2-0.6-0.1-1.2,0.1-1.9l-0.5,0.5c-0.1-0.7,0.1-1.4,0.4-2.2l-0.5,0.4
		c-0.1-0.7,0.1-1.3,0.4-1.9l-0.5,0.5c-0.1-0.6,0.1-1.2,0.4-1.8l-0.4,0.2c0-1,0.7-2.3,0.1-3.1c0.3,0.3,0.7,0.5,1.2,0.5
		c-0.5,0-0.9-0.2-1.2-0.5c-0.5-1-2.2,0-2.5-1.3c-0.6-2.3,2.5-1.5,4.1-3.1c0.3,0,1.9-0.4,1.2,0.3c0.5-0.4,0.1-0.5-1.3-0.3
		c-0.8-0.2-2,0.7-3.1,0.9l0.3-0.6C54.8,62,54.3,62,53.7,62c0.4-0.4,0.8-0.6,1.4-0.5c-0.3-0.4-0.5-0.9-0.6-1.3
		c2.5,1.6,2.6,0.7,3.8,0.9c1.4,0.4,2.7,0.4,3.6-0.6c-1-0.8-2.1-1.7-3-2.8c0.3-0.1,0.7,0,0.9-0.1c0.1-0.5-0.1-1.1,0.1-1.6
		c0.7,0.6,0.3,1.6,0.4,2.5c1.1,0.9,2.1,1.7,2.6,1.7c2.2-0.9,3.1-2.8,3.1-5.4C65.5,52.3,62.2,50.1,64.5,47.2L64.5,47.2z M64.5,47.2"
		/>
	<path class="st10" d="M57.9,63.8c0.5,0.1,0.6,0,0.8-0.1c-0.1-0.3-0.1-0.4-0.4-0.4C58.1,63.3,58,63.4,57.9,63.8L57.9,63.8z
		 M57.9,63.8"/>
	<path class="st17" d="M57.9,63.8c0.5,0.1,0.6,0,0.8-0.1c-0.1-0.3-0.1-0.4-0.4-0.4C58.1,63.3,58,63.4,57.9,63.8L57.9,63.8z
		 M57.9,63.8"/>
	<path class="st10" d="M60.2,62.9c0.3-0.1,0.2-0.1,0.1-0.3C60.1,62.8,60.2,62.7,60.2,62.9L60.2,62.9z M60.2,62.9"/>
	<path class="st17" d="M60.2,62.9c0.3-0.1,0.2-0.1,0.1-0.3C60.1,62.8,60.2,62.7,60.2,62.9L60.2,62.9z M60.2,62.9 M54.2,65.2
		c0.6-0.7,0.4,0,2.1-0.1 M54.7,64.4c0.2-0.1,0.4-0.2,0.5-0.2c0.1,0,0.2,0.1,0.2,0.3 M54.1,64.2l0.4,0.1 M57.1,66.4
		c0.7,0.2,1.2,0.1,1.5-0.1 M57.9,67.1l-0.3,0.5 M57.3,68v1.1 M57.9,70.4l0,0.8 M57.7,72.3c-0.1,0.3-0.2,0.6-0.1,0.9 M58.2,73.5
		c-0.2,0.3-0.1,0.9,0.1,1.2 M58.5,75.2c-0.2,0.3-0.1,0.9,0.1,1.2 M60.2,75.5c-0.2,0.3-0.1,1,0.1,1.2 M56.2,77l1.2,0 M55.9,77.3h0.4
		 M61,82c0.1,0.3,0.1,0.6-0.1,0.9 M64.3,86.7c0.2-0.1,0.3,0.1,0.4,0.2 M66.4,79c0.2,0.2,0.3,0.6,0.3,0.9 M71.8,79.6
		c0.2,0.2,0.2,0.5,0.2,0.9"/>
	<g>
		<defs>
			<rect id="SVGID_12_" x="28.2" y="14.5" width="68.7" height="92.9"/>
		</defs>
		<clipPath id="SVGID_13_">
			<use xlink:href="#SVGID_12_"  style="overflow:visible;"/>
		</clipPath>
		<path class="st29" d="M81.5,53.1c-0.4,1.4-0.3,2.8-0.2,4.2c1.6-2.2,4.3-4,4.9-6.8c-0.5,2.6-3.3,4.5-4.9,6.8
			c-4.8,2-5.7,5.4-6.7,8.7c-0.3,0.9,0.3,1.6,0.8,1.4c0-0.9-0.1-0.8,0.2-1.1c-0.5,1.1,0.2,1.8,0.8,1.5c0.2-0.1-0.1-0.9,0.3-1
			c-0.5,0.9,0,1.6,0.9,0.9c0.9-0.4,1.9-1.2,2.8-2.4c0.1-0.9,0.6-1.2,1.4-1c2.5-0.3,3.6-4.2,6.4-4.9c-3,1.1-4.2,4.9-6.7,4.9
			c-0.2,3,0.4,5.5,0.7,6.7c0.4,1.3,0.4,2.5,0.1,3.8c-0.7,3.1-1,4.1,0.5,6.9l1.1,1.7c-1.4,0.5-2.5,1.3-2.9,1.9
			c-0.2,0.2-0.3,0.5-0.2,0.7c0.2-0.4,0.7-0.6,1-0.8c-0.5,0.2-0.9,0.5-1,0.9c0,0.4,0.2,0.7,0.7,0.6c0.1-0.5,0.6-0.9,1.1-1
			c-1.7,0.5-1.4,2,0.3,1.1c0.3-0.8,1.3-1.5,3.2-2.1c0.3-0.7-0.2-1.8-1-3.2c-1.4-2.3-1.3-4.1-0.7-6.4l-1.9-3l1.9,2.9
			c0-0.6,0.1-1.1,0-1.7c0-0.9-0.2-1.9-0.4-2.8c0.2,0.9,0.4,1.8,0.4,2.8c0.1,3.2-1.2,5.2,0.8,8.2c0.5,0.7,1.4,2.2,1,3.1
			c-1.3,0.5-1.8,0.7-1.9,0.9c-1.7,0.5-1.8,2.5-0.5,2c0.2-0.5,0.6-0.9,1.3-1.2c-2.6,1.4-0.3,2,0,1.7c-0.3-0.6,0.1-1,1.1-1.1
			c-2.1,0.4-1.1,1.7,0,1.4c1.3,0,2.4-0.4,3.6-0.6c1.4,0.2,2.7-1,4.2-3.5c0.8-1.2,0.5-2.7-0.5-4.5c-0.4-2.6,0.9-4.9,1.9-7.3
			c0.2-2-0.1-4-0.7-6.1c-0.4-3.1-0.5-6.1-0.2-9.2c0.4-1.1,0.4-2.2,0.2-3.4c-1.1-4.9-2.7-9.1-4.8-12.9c-0.8-1.1-1.4-2.6-1.7-4.4
			c-0.1-1.3-1.3-2.1-3.2-2.5c-0.9-0.7-1.6-1.2-2.6-1.1c-1,0-0.9,0.3-3.2-0.2c-2.1,0-2.2,1.2-1.2,2.5l2.2,1.5l-2.2-0.6
			c-0.4,1.2,2,2.1,3,3.5c1,0.6,1.4,2.9,1.2,7C81.9,48.8,81.8,51,81.5,53.1L81.5,53.1z M81.5,53.1"/>
		<path class="st30" d="M81.5,53.1c-0.4,1.4-0.3,2.8-0.2,4.2c1.6-2.2,4.3-4,4.9-6.8c-0.5,2.6-3.3,4.5-4.9,6.8
			c-4.8,2-5.7,5.4-6.7,8.7c-0.3,0.9,0.3,1.6,0.8,1.4c0-0.9-0.1-0.8,0.2-1.1c-0.5,1.1,0.2,1.8,0.8,1.5c0.2-0.1-0.1-0.9,0.3-1
			c-0.5,0.9,0,1.6,0.9,0.9c0.9-0.4,1.9-1.2,2.8-2.4c0.1-0.9,0.6-1.2,1.4-1c2.5-0.3,3.6-4.2,6.4-4.9c-3,1.1-4.2,4.9-6.7,4.9
			c-0.2,3,0.4,5.5,0.7,6.7c0.4,1.3,0.4,2.5,0.1,3.8c-0.7,3.1-1,4.1,0.5,6.9l1.1,1.7c-1.4,0.5-2.5,1.3-2.9,1.9
			c-0.2,0.2-0.3,0.5-0.2,0.7c0.2-0.4,0.7-0.6,1-0.8c-0.5,0.2-0.9,0.5-1,0.9c0,0.4,0.2,0.7,0.7,0.6c0.1-0.5,0.6-0.9,1.1-1
			c-1.7,0.5-1.4,2,0.3,1.1c0.3-0.8,1.3-1.5,3.2-2.1c0.3-0.7-0.2-1.8-1-3.2c-1.4-2.3-1.3-4.1-0.7-6.4l-1.9-3l1.9,2.9
			c0-0.6,0.1-1.1,0-1.7c0-0.9-0.2-1.9-0.4-2.8c0.2,0.9,0.4,1.8,0.4,2.8c0.1,3.2-1.2,5.2,0.8,8.2c0.5,0.7,1.4,2.2,1,3.1
			c-1.3,0.5-1.8,0.7-1.9,0.9c-1.7,0.5-1.8,2.5-0.5,2c0.2-0.5,0.6-0.9,1.3-1.2c-2.6,1.4-0.3,2,0,1.7c-0.3-0.6,0.1-1,1.1-1.1
			c-2.1,0.4-1.1,1.7,0,1.4c1.3,0,2.4-0.4,3.6-0.6c1.4,0.2,2.7-1,4.2-3.5c0.8-1.2,0.5-2.7-0.5-4.5c-0.4-2.6,0.9-4.9,1.9-7.3
			c0.2-2-0.1-4-0.7-6.1c-0.4-3.1-0.5-6.1-0.2-9.2c0.4-1.1,0.4-2.2,0.2-3.4c-1.1-4.9-2.7-9.1-4.8-12.9c-0.8-1.1-1.4-2.6-1.7-4.4
			c-0.1-1.3-1.3-2.1-3.2-2.5c-0.9-0.7-1.6-1.2-2.6-1.1c-1,0-0.9,0.3-3.2-0.2c-2.1,0-2.2,1.2-1.2,2.5l2.2,1.5l-2.2-0.6
			c-0.4,1.2,2,2.1,3,3.5c1,0.6,1.4,2.9,1.2,7C81.9,48.8,81.8,51,81.5,53.1L81.5,53.1z M81.5,53.1"/>
	</g>
	<path class="st10" d="M81.9,34.3c0.4,0.1,0.8,0.6,1.1,1.1c-0.4-0.2-1.2-0.2-1.7-0.2l0.7-0.1c0-0.3,0-0.6,0.3-0.6L81.9,34.3z
		 M81.9,34.3"/>
	<path class="st9" d="M81.9,34.3c0.4,0.1,0.8,0.6,1.1,1.1c-0.4-0.2-1.2-0.2-1.7-0.2l0.7-0.1c0-0.3,0-0.6,0.3-0.6L81.9,34.3z
		 M81.9,34.3 M85.6,35.4c2.4-0.3,2.1,2.8-0.6,1.4"/>
	<path class="st10" d="M85.8,36.2c0.1,0,0.2,0.1,0.2,0.1c0,0.1-0.1,0.1-0.2,0.1c-0.1,0-0.1-0.1-0.1-0.1
		C85.7,36.2,85.7,36.2,85.8,36.2L85.8,36.2z M85.8,36.2"/>
	<path class="st11" d="M85.8,36.2c0.1,0,0.2,0.1,0.2,0.1c0,0.1-0.1,0.1-0.2,0.1c-0.1,0-0.1-0.1-0.1-0.1
		C85.7,36.2,85.7,36.2,85.8,36.2L85.8,36.2z M85.8,36.2"/>
	<path class="st10" d="M80.4,86.5c0.3-0.3,0.2-0.4,0.6-0.5c0.1-0.2,0-0.3-0.3-0.3C80.4,85.8,80.3,85.9,80.4,86.5L80.4,86.5z
		 M80.4,86.5"/>
	<path class="st11" d="M80.4,86.5c0.3-0.3,0.2-0.4,0.6-0.5c0.1-0.2,0-0.3-0.3-0.3C80.4,85.8,80.3,85.9,80.4,86.5L80.4,86.5z
		 M80.4,86.5"/>
	<path class="st10" d="M82.8,87.9c0.3-0.3,0.2-0.4,0.6-0.5c0.1-0.3,0-0.3-0.3-0.3C82.7,87.2,82.7,87.4,82.8,87.9L82.8,87.9z
		 M82.8,87.9"/>
	<path class="st11" d="M82.8,87.9c0.3-0.3,0.2-0.4,0.6-0.5c0.1-0.3,0-0.3-0.3-0.3C82.7,87.2,82.7,87.4,82.8,87.9L82.8,87.9z
		 M82.8,87.9"/>
	<path class="st10" d="M83.8,88.2c0.3-0.3,0.2-0.4,0.6-0.5c0.1-0.3,0-0.4-0.3-0.3C83.7,87.6,83.7,87.7,83.8,88.2L83.8,88.2z
		 M83.8,88.2"/>
	<path class="st11" d="M83.8,88.2c0.3-0.3,0.2-0.4,0.6-0.5c0.1-0.3,0-0.4-0.3-0.3C83.7,87.6,83.7,87.7,83.8,88.2L83.8,88.2z
		 M83.8,88.2"/>
	<path class="st10" d="M85,88.5c0.2-0.4,0.1-0.4,0.5-0.6c0-0.2-0.1-0.3-0.3-0.3C84.8,87.9,84.8,88,85,88.5L85,88.5z M85,88.5"/>
	<path class="st11" d="M85,88.5c0.2-0.4,0.1-0.4,0.5-0.6c0-0.2-0.1-0.3-0.3-0.3C84.8,87.9,84.8,88,85,88.5L85,88.5z M85,88.5"/>
	<path class="st10" d="M80.8,87c0.2-0.4,0.1-0.4,0.5-0.6c0-0.3-0.1-0.4-0.3-0.2C80.6,86.3,80.6,86.5,80.8,87L80.8,87z M80.8,87"/>
	<path class="st11" d="M80.8,87c0.2-0.4,0.1-0.4,0.5-0.6c0-0.3-0.1-0.4-0.3-0.2C80.6,86.3,80.6,86.5,80.8,87L80.8,87z M80.8,87"/>
	<path class="st10" d="M81.6,87.4c0.2-0.4,0.1-0.4,0.5-0.6c0-0.2-0.1-0.3-0.3-0.2C81.4,86.7,81.4,86.9,81.6,87.4L81.6,87.4z
		 M81.6,87.4"/>
	<path class="st11" d="M81.6,87.4c0.2-0.4,0.1-0.4,0.5-0.6c0-0.2-0.1-0.3-0.3-0.2C81.4,86.7,81.4,86.9,81.6,87.4L81.6,87.4z
		 M81.6,87.4"/>
</g>
</svg>
