<?xml version="1.0" encoding="utf-8"?>
<!-- Generator: Adobe Illustrator 22.0.1, SVG Export Plug-In . SVG Version: 6.00 Build 0)  -->
<svg version="1.1" id="Слой_1" xmlns="http://www.w3.org/2000/svg" xmlns:xlink="http://www.w3.org/1999/xlink" x="0px" y="0px"
	 viewBox="0 0 127.3 127" style="enable-background:new 0 0 127.3 127;" xml:space="preserve">
<style type="text/css">
	.st0{fill:url(#SVGID_1_);}
	.st1{fill:#FFFFFF;}
	.st2{fill-rule:evenodd;clip-rule:evenodd;fill:#2E2779;}
	.st3{fill-rule:evenodd;clip-rule:evenodd;fill:#00A7E5;}
	.st4{fill:none;stroke:#FFFFFF;stroke-width:1.3464;stroke-linecap:round;stroke-linejoin:round;}
	.st5{fill-rule:evenodd;clip-rule:evenodd;fill:#FFE502;}
	.st6{fill-rule:evenodd;clip-rule:evenodd;fill:#DA251D;}
	.st7{fill-rule:evenodd;clip-rule:evenodd;fill:#FFFFFF;}
</style>
<radialGradient id="SVGID_1_" cx="64.8" cy="2586.7468" r="62.6" gradientTransform="matrix(1 0 0 1 0 -2522.3469)" gradientUnits="userSpaceOnUse">
	<stop  offset="0.9487" style="stop-color:#212121"/>
	<stop  offset="1" style="stop-color:#606060;stop-opacity:0"/>
</radialGradient>
<circle class="st0" cx="64.8" cy="64.4" r="62.6"/>
<circle class="st1" cx="62.6" cy="62.6" r="62.6"/>
<g>
	<path class="st2" d="M106.3,61.2c0,23.8-19.3,43.1-43.1,43.1c-23.8,0-43.1-19.3-43.1-43.1c0-23.8,19.3-43.1,43.1-43.1
		C87,18.2,106.3,37.4,106.3,61.2L106.3,61.2z M106.3,61.2"/>
	<path class="st3" d="M103.6,61.2c0,22.2-18,40.2-40.2,40.2c-22.2,0-40.2-18-40.2-40.2C23.1,39,41.1,21,63.3,21
		C85.6,21,103.6,39,103.6,61.2L103.6,61.2z M103.6,61.2"/>
	<path class="st2" d="M32.2,54.5c0.5-2.6,1.3-5.1,2.4-7.4l-0.1,0l-2.7-1.5l0-0.1c-0.4,0.8-0.7,1.6-1,2.3l-1.5-0.3
		c0.9-2.3,2-4.5,3.4-6.5l1.2,0.9c-0.5,0.8-0.9,1.5-1.4,2.3l2.9,1.5c1.2-2.3,2.7-4.4,4.4-6.3l-2.3-2.2c-0.5,0.6-1,1.1-1.5,1.7
		c0,0,0,0,0,0l-1.1-1c1.4-1.7,3-3.4,4.7-4.8l0.9,1.1c-0.7,0.6-1.3,1.2-1.9,1.8l2.3,2.3c1.9-1.9,4-3.6,6.3-5l-1.5-2.7l0,0
		c-0.7,0.4-1.4,0.9-2.1,1.4l-0.9-1.2c1.9-1.3,3.8-2.4,5.9-3.3l0.6,1.3c-0.8,0.4-1.5,0.7-2.3,1.1l1.5,2.8c4.5-2.4,9.6-3.8,15.1-3.8
		l0,32H31.6c0-0.1,0-0.2,0-0.3c0-1.6,0.1-3.2,0.4-4.8l-3.3-0.4l0,0c-0.1,0.8-0.2,1.7-0.3,2.5l-1.5-0.2c0.2-2.2,0.6-4.4,1.1-6.5
		l1.5,0.3c-0.2,0.7-0.4,1.4-0.5,2.1l0,0.1l1.5,0.3L32.2,54.5z M32.2,54.5"/>
	<path class="st4" d="M32.2,54.5c0.5-2.6,1.3-5.1,2.4-7.4l-0.1,0l-2.7-1.5l0-0.1c-0.4,0.8-0.7,1.6-1,2.3l-1.5-0.3
		c0.9-2.3,2-4.5,3.4-6.5l1.2,0.9c-0.5,0.8-0.9,1.5-1.4,2.3l2.9,1.5c1.2-2.3,2.7-4.4,4.4-6.3l-2.3-2.2c-0.5,0.6-1,1.1-1.5,1.7
		c0,0,0,0,0,0l-1.1-1c1.4-1.7,3-3.4,4.7-4.8l0.9,1.1c-0.7,0.6-1.3,1.2-1.9,1.8l2.3,2.3c1.9-1.9,4-3.6,6.3-5l-1.5-2.7l0,0
		c-0.7,0.4-1.4,0.9-2.1,1.4l-0.9-1.2c1.9-1.3,3.8-2.4,5.9-3.3l0.6,1.3c-0.8,0.4-1.5,0.7-2.3,1.1l1.5,2.8c4.5-2.4,9.6-3.8,15.1-3.8
		l0,32H31.6c0-0.1,0-0.2,0-0.3c0-1.6,0.1-3.2,0.4-4.8l-3.3-0.4l0,0c-0.1,0.8-0.2,1.7-0.3,2.5l-1.5-0.2c0.2-2.2,0.6-4.4,1.1-6.5
		l1.5,0.3c-0.2,0.7-0.4,1.4-0.5,2.1l0,0.1l1.5,0.3L32.2,54.5z M32.2,54.5"/>
	<path class="st1" d="M104.1,61.2L104.1,61.2L104.1,61.2c0,11.3-4.6,21.4-11.9,28.8C84.8,97.4,74.6,102,63.3,102v0h0v0
		c-11.3,0-21.4-4.6-28.8-11.9c-7.4-7.4-11.9-17.6-11.9-28.8h0v0h0c0-11.3,4.6-21.4,11.9-28.8c7.4-7.4,17.6-11.9,28.8-11.9v0h0v0
		c11.3,0,21.4,4.6,28.8,11.9C99.5,39.8,104.1,50,104.1,61.2L104.1,61.2L104.1,61.2z M103,61.2L103,61.2L103,61.2L103,61.2
		c0-11-4.4-20.9-11.6-28.1C84.2,26,74.3,21.5,63.3,21.5v0h0v0c-11,0-20.9,4.4-28.1,11.6c-7.2,7.2-11.6,17.1-11.6,28.1h0v0h0
		c0,11,4.4,20.9,11.6,28.1c7.2,7.2,17.1,11.6,28.1,11.6v0h0v0c11,0,20.9-4.4,28.1-11.6C98.6,82.1,103,72.2,103,61.2L103,61.2z
		 M103,61.2"/>
	<path class="st2" d="M31.9,65.5l-1.8,0.3L28.6,66l0,0.1c0.1,0.7,0.2,1.4,0.4,2.1l-1.5,0.2c-0.4-2.1-0.7-4.3-0.8-6.5l1.5-0.1
		c0,0.9,0.1,1.7,0.2,2.6l0,0l3.3-0.2c-0.1-1.1-0.1-3.2-0.1-3.2l16.7,0l15,0v32.1C57.9,92.6,51,90.7,46.6,88L45,90.7
		c0.7,0.4,1.5,0.9,2.2,1.3l-0.6,1.3c-2-1-3.9-2.3-5.7-3.7l0.9-1.1c0.7,0.5,1.4,1,2.1,1.5l0,0l1.7-2.7c-2.2-1.5-4.2-3.3-6-5.3
		l-2.4,2.1c0.6,0.6,1.2,1.3,1.8,1.9l-1,1.1c-1.6-1.6-3.1-3.2-4.4-5.1l1.2-0.9c0,0,0,0,0,0c0.4,0.6,0.9,1.2,1.4,1.8l2.4-2.1
		c-1.6-2-3-4.2-4-6.6l-3,1.4c0.4,0.8,0.8,1.6,1.2,2.4l-1.2,0.9c-1.2-2.1-2.2-4.4-3-6.7l1.5-0.2c0.3,0.8,0.6,1.6,0.9,2.4l0-0.1
		l2.8-1.3l0.1,0C33,70.6,32.3,68.1,31.9,65.5L31.9,65.5z M31.9,65.5"/>
	<path class="st4" d="M31.9,65.5l-1.8,0.3L28.6,66l0,0.1c0.1,0.7,0.2,1.4,0.4,2.1l-1.5,0.2c-0.4-2.1-0.7-4.3-0.8-6.5l1.5-0.1
		c0,0.9,0.1,1.7,0.2,2.6l0,0l3.3-0.2c-0.1-1.1-0.1-3.2-0.1-3.2l16.7,0l15,0v32.1C57.9,92.6,51,90.7,46.6,88L45,90.7
		c0.7,0.4,1.5,0.9,2.2,1.3l-0.6,1.3c-2-1-3.9-2.3-5.7-3.7l0.9-1.1c0.7,0.5,1.4,1,2.1,1.5l0,0l1.7-2.7c-2.2-1.5-4.2-3.3-6-5.3
		l-2.4,2.1c0.6,0.6,1.2,1.3,1.8,1.9l-1,1.1c-1.6-1.6-3.1-3.2-4.4-5.1l1.2-0.9c0,0,0,0,0,0c0.4,0.6,0.9,1.2,1.4,1.8l2.4-2.1
		c-1.6-2-3-4.2-4-6.6l-3,1.4c0.4,0.8,0.8,1.6,1.2,2.4l-1.2,0.9c-1.2-2.1-2.2-4.4-3-6.7l1.5-0.2c0.3,0.8,0.6,1.6,0.9,2.4l0-0.1
		l2.8-1.3l0.1,0C33,70.6,32.3,68.1,31.9,65.5L31.9,65.5z M31.9,65.5"/>
	<path class="st2" d="M32.2,54.6c0.5-2.6,1.3-5.1,2.4-7.4l-0.1,0l-2.7-1.5l0-0.1c-0.4,0.8-0.7,1.6-1,2.3l-1.5-0.3
		c0.9-2.3,2-4.5,3.4-6.5l1.2,0.9c-0.5,0.8-0.9,1.5-1.4,2.3l2.9,1.5c1.2-2.3,2.7-4.4,4.4-6.3l-2.3-2.2c-0.5,0.6-1,1.1-1.5,1.7
		c0,0,0,0,0,0l-1.1-1c1.4-1.7,3-3.4,4.7-4.8l0.9,1.1c-0.7,0.6-1.3,1.2-1.9,1.8l2.3,2.3c1.9-1.9,4-3.6,6.3-5l-1.5-2.7l0,0
		c-0.7,0.4-1.4,0.9-2.1,1.4L42.5,31c1.9-1.3,3.8-2.4,5.9-3.3L49,29c-0.8,0.4-1.5,0.7-2.3,1.1l1.5,2.8c4.5-2.4,9.6-3.8,15.1-3.8l0,32
		H31.6c0-0.1,0-0.2,0-0.3c0-1.6,0.1-3.2,0.4-4.8l-3.3-0.4l0,0c-0.1,0.8-0.2,1.7-0.3,2.5l-1.5-0.2c0.2-2.2,0.6-4.4,1.1-6.5l1.5,0.3
		c-0.2,0.7-0.4,1.4-0.5,2.1l0,0.1l1.5,0.3L32.2,54.6z M32.2,54.6"/>
	<path class="st2" d="M31.9,65.6l-1.8,0.3l-1.5,0.2l0,0.1c0.1,0.7,0.2,1.4,0.4,2.1l-1.5,0.2c-0.4-2.1-0.7-4.3-0.8-6.5l1.5-0.1
		c0,0.9,0.1,1.7,0.2,2.5h0l3.3-0.2c-0.1-1.1-0.1-3.2-0.1-3.2l16.7,0h15v32.1c-5.5-0.3-12.4-2.2-16.7-4.9L45,90.8
		c0.7,0.4,1.5,0.9,2.2,1.3l-0.6,1.3c-2-1-3.9-2.3-5.7-3.7l0.9-1.1c0.7,0.5,1.4,1,2.1,1.5l0,0l1.7-2.7c-2.2-1.5-4.2-3.3-6-5.3
		l-2.4,2.1c0.6,0.6,1.2,1.3,1.8,1.9l-1,1.1c-1.6-1.6-3.1-3.2-4.4-5.1l1.2-0.9c0,0,0,0,0,0c0.4,0.6,0.9,1.2,1.4,1.8l2.4-2.1
		c-1.6-2-3-4.2-4-6.6l-3,1.4c0.4,0.8,0.8,1.6,1.2,2.4l-1.2,0.9c-1.2-2.1-2.2-4.4-3-6.7l1.5-0.2c0.3,0.8,0.6,1.6,0.9,2.4l0-0.1
		l2.8-1.3l0.1,0C33,70.7,32.3,68.2,31.9,65.6L31.9,65.6z M31.9,65.6"/>
	<path class="st2" d="M94.6,54.5l1.8-0.4l1.5-0.3l0-0.1c-0.1-0.7-0.3-1.4-0.5-2.1l1.5-0.3c0.6,2.1,1,4.3,1.1,6.5l-1.5,0.2
		c-0.1-0.9-0.2-1.7-0.3-2.5l0,0l-3.3,0.4c0.2,1.6,0.4,3.2,0.4,4.8c0,0.1,0,0.2,0,0.3H63.5l0-32c5.5,0,10.6,1.4,15.1,3.8l1.5-2.8
		c-0.8-0.4-1.5-0.8-2.3-1.1l0.6-1.3c2.1,0.9,4.1,2,5.9,3.3l-0.9,1.2c-0.7-0.5-1.4-0.9-2.1-1.4l0,0l-1.5,2.7c2.3,1.4,4.4,3.1,6.3,5
		l2.3-2.3c-0.6-0.6-1.2-1.2-1.9-1.8l0.9-1.1c1.7,1.5,3.3,3.1,4.7,4.8l-1.1,1c0,0,0,0,0,0c-0.5-0.6-1-1.2-1.5-1.7l-2.3,2.2
		c1.7,1.9,3.2,4,4.4,6.3l2.9-1.5c-0.4-0.8-0.9-1.6-1.4-2.3l1.2-0.9c1.3,2,2.5,4.2,3.4,6.5l-1.5,0.3c-0.3-0.8-0.7-1.6-1-2.3l0,0.1
		l-2.7,1.5l-0.1,0C93.2,49.4,94,51.9,94.6,54.5L94.6,54.5z M94.6,54.5"/>
	<path class="st4" d="M94.6,54.5l1.8-0.4l1.5-0.3l0-0.1c-0.1-0.7-0.3-1.4-0.5-2.1l1.5-0.3c0.6,2.1,1,4.3,1.1,6.5l-1.5,0.2
		c-0.1-0.9-0.2-1.7-0.3-2.5l0,0l-3.3,0.4c0.2,1.6,0.4,3.2,0.4,4.8c0,0.1,0,0.2,0,0.3H63.5l0-32c5.5,0,10.6,1.4,15.1,3.8l1.5-2.8
		c-0.8-0.4-1.5-0.8-2.3-1.1l0.6-1.3c2.1,0.9,4.1,2,5.9,3.3l-0.9,1.2c-0.7-0.5-1.4-0.9-2.1-1.4l0,0l-1.5,2.7c2.3,1.4,4.4,3.1,6.3,5
		l2.3-2.3c-0.6-0.6-1.2-1.2-1.9-1.8l0.9-1.1c1.7,1.5,3.3,3.1,4.7,4.8l-1.1,1c0,0,0,0,0,0c-0.5-0.6-1-1.2-1.5-1.7l-2.3,2.2
		c1.7,1.9,3.2,4,4.4,6.3l2.9-1.5c-0.4-0.8-0.9-1.6-1.4-2.3l1.2-0.9c1.3,2,2.5,4.2,3.4,6.5l-1.5,0.3c-0.3-0.8-0.7-1.6-1-2.3l0,0.1
		l-2.7,1.5l-0.1,0C93.2,49.4,94,51.9,94.6,54.5L94.6,54.5z M94.6,54.5"/>
	<path class="st2" d="M94.9,65.5c-0.4,2.6-1,5.1-2,7.5l0.1,0l2.8,1.3l0,0.1c0.3-0.8,0.6-1.6,0.9-2.4l1.5,0.2c-0.8,2.4-1.8,4.6-3,6.7
		L94,78c0.4-0.8,0.9-1.6,1.2-2.4l-3-1.4c-1.1,2.4-2.4,4.6-4,6.6l2.4,2.1c0.5-0.6,0.9-1.2,1.4-1.8c0,0,0,0,0,0l1.2,0.9
		c-1.3,1.8-2.8,3.5-4.4,5.1l-1-1.1c0.6-0.6,1.2-1.2,1.8-1.9L87.3,82c-1.8,2-3.8,3.8-6,5.3l1.7,2.7l0,0c0.7-0.5,1.4-1,2.1-1.5
		l0.9,1.1c-1.8,1.4-3.7,2.6-5.7,3.7L79.6,92c0.8-0.4,1.5-0.8,2.2-1.3L80.2,88c-4.3,2.7-11.3,4.6-16.7,4.9V60.9l15,0l16.7,0
		c0,0,0,2.2-0.1,3.2l3.3,0.2l0,0c0.1-0.8,0.1-1.7,0.2-2.6l1.5,0.1c-0.1,2.2-0.3,4.4-0.8,6.5l-1.5-0.2c0.1-0.7,0.3-1.4,0.4-2.1l0-0.1
		l-1.5-0.2L94.9,65.5z M94.9,65.5"/>
	<path class="st4" d="M94.9,65.5c-0.4,2.6-1,5.1-2,7.5l0.1,0l2.8,1.3l0,0.1c0.3-0.8,0.6-1.6,0.9-2.4l1.5,0.2c-0.8,2.4-1.8,4.6-3,6.7
		L94,78c0.4-0.8,0.9-1.6,1.2-2.4l-3-1.4c-1.1,2.4-2.4,4.6-4,6.6l2.4,2.1c0.5-0.6,0.9-1.2,1.4-1.8c0,0,0,0,0,0l1.2,0.9
		c-1.3,1.8-2.8,3.5-4.4,5.1l-1-1.1c0.6-0.6,1.2-1.2,1.8-1.9L87.3,82c-1.8,2-3.8,3.8-6,5.3l1.7,2.7l0,0c0.7-0.5,1.4-1,2.1-1.5
		l0.9,1.1c-1.8,1.4-3.7,2.6-5.7,3.7L79.6,92c0.8-0.4,1.5-0.8,2.2-1.3L80.2,88c-4.3,2.7-11.3,4.6-16.7,4.9V60.9l15,0l16.7,0
		c0,0,0,2.2-0.1,3.2l3.3,0.2l0,0c0.1-0.8,0.1-1.7,0.2-2.6l1.5,0.1c-0.1,2.2-0.3,4.4-0.8,6.5l-1.5-0.2c0.1-0.7,0.3-1.4,0.4-2.1l0-0.1
		l-1.5-0.2L94.9,65.5z M94.9,65.5"/>
	<path class="st2" d="M94.6,54.6l1.8-0.4l1.5-0.3l0-0.1c-0.1-0.7-0.3-1.4-0.5-2.1l1.5-0.3c0.6,2.1,1,4.3,1.1,6.5L98.4,58
		c-0.1-0.9-0.2-1.7-0.3-2.5l0,0l-3.3,0.4c0.2,1.6,0.4,3.2,0.4,4.8c0,0.1,0,0.2,0,0.3H63.5l0-32c5.5,0,10.6,1.4,15.1,3.8l1.5-2.8
		c-0.8-0.4-1.5-0.8-2.3-1.1l0.6-1.3c2.1,0.9,4.1,2,5.9,3.3l-0.9,1.2c-0.7-0.5-1.4-0.9-2.1-1.4l0,0l-1.5,2.7c2.3,1.4,4.4,3.1,6.3,5
		l2.3-2.3c-0.6-0.6-1.2-1.2-1.9-1.8l0.9-1.1c1.7,1.5,3.3,3.1,4.7,4.8l-1.1,1c0,0,0,0,0,0c-0.5-0.6-1-1.2-1.5-1.7l-2.3,2.2
		c1.7,1.9,3.2,4,4.4,6.3l2.9-1.5c-0.4-0.8-0.9-1.6-1.4-2.3l1.2-0.9c1.3,2,2.5,4.2,3.4,6.5L96.1,48c-0.3-0.8-0.7-1.6-1-2.3l0,0.1
		l-2.7,1.5l-0.1,0C93.2,49.5,94.1,52,94.6,54.6L94.6,54.6z M94.6,54.6"/>
	<path class="st2" d="M94.9,65.6c-0.4,2.6-1,5.1-2,7.5l0.1,0l2.8,1.3l0,0.1c0.3-0.8,0.6-1.6,0.9-2.4l1.5,0.2c-0.8,2.4-1.8,4.6-3,6.7
		L94,78.2c0.4-0.8,0.9-1.6,1.2-2.4l-3-1.4c-1.1,2.4-2.4,4.6-4,6.6l2.4,2.1c0.5-0.6,0.9-1.2,1.4-1.8c0,0,0,0,0,0l1.2,0.9
		c-1.3,1.8-2.8,3.5-4.4,5.1l-1-1.1c0.6-0.6,1.2-1.2,1.8-1.9l-2.4-2.1c-1.8,2-3.8,3.8-6,5.3l1.7,2.7l0,0c0.7-0.5,1.4-1,2.1-1.5
		l0.9,1.1c-1.8,1.4-3.7,2.6-5.7,3.7l-0.6-1.3c0.8-0.4,1.5-0.8,2.2-1.3l-1.7-2.7c-4.3,2.7-11.3,4.6-16.7,4.9V61h15l16.7,0
		c0,0,0,2.2-0.1,3.2l3.3,0.2h0c0.1-0.8,0.1-1.7,0.2-2.5L100,62c-0.1,2.2-0.3,4.4-0.8,6.5l-1.5-0.2c0.1-0.7,0.3-1.4,0.4-2.1l0-0.1
		l-1.5-0.2L94.9,65.6z M94.9,65.6"/>
	<path class="st3" d="M94,60.9c0,16.9-13.7,30.5-30.6,30.5c-16.9,0-30.6-13.7-30.6-30.5s13.7-30.5,30.6-30.5
		C80.3,30.4,94,44,94,60.9L94,60.9z M94,60.9"/>
	<path class="st5" d="M91.3,60.7c0,15.5-12.5,28-28,28c-15.5,0-28-12.5-28-28c0-15.5,12.5-28,28-28C78.7,32.8,91.3,45.3,91.3,60.7
		L91.3,60.7z M91.3,60.7"/>
	<path class="st6" d="M63.7,75.5l-5.2,0v1l5.1,0l0,6.1c0,0-3.2,0.2-5-2.1c-1.4-1.8-1.6-4.1-1.6-4.1h1v-1.4c0,0-4.8-0.3-6.9-1.4
		c-2.1-1-4.4-4-5.8-4.8c-1.6-0.8-2.7-0.4-3.3-0.9c-0.6-0.5-0.4-1.8,1.3-1.6c1.7,0.1,2.7,0.8,3.2,1.2c1.2,0.8,3,3,4.1,3.8
		c1.6,1.2,3.9,1.5,3.9,1.5s-1.5-0.7-3.2-2.3c-1.6-1.6-3-4.2-4.3-5.4c-1.9-1.7-3.8-1.9-5-2.1c-1.2-0.2-0.9-2.1,0.6-1.9
		c1.5,0.2,2.3,0.5,3.9,1.6c1.3,0.8,4.3,4.9,6,6.7c1.6,1.8,2.2,1.6,2.2,1.6s-1.9-2.5-3.2-4.8c-1.3-2.3-2.1-4.6-3.8-6.2
		c-1.8-1.8-2.6-2.2-4.5-2.7c-2-0.5-0.7-2.6,1.1-2c1.8,0.7,3.2,1.8,4.6,3.4c1.3,1.6,2.6,4.3,3.7,6.2c1.6,2.7,3.5,4.5,3.5,4.5
		s-1.5-2.9-2.9-6.1c-1.3-3.3-1.8-6.5-3.8-8.5c-2-2-2.8-2.3-3.8-2.9C44,51,45.2,49,47,50.1c1.8,1.1,3.9,3.2,4.8,4.6
		c1.3,2,2.6,7.3,3.7,9.8c1.1,2.3,2.1,3.9,2.1,3.9s-0.5-2.7-1.2-5.2c-0.8-3.1-1.3-7.9-2.9-10.7c-1.5-2.7-2.5-3.4-4.6-5.3
		c-0.9-0.8,0.5-2.4,1.8-1.3c1.3,1.1,4,4.2,5,7.1c0.8,2.5,2,8.8,2.7,10.9c0.6,2.1,1.4,3.8,1.4,3.8s-0.4-3.3-0.8-6.7
		c-0.2-2.2-0.9-5.9-1.4-8.2c-0.5-2.2-2.8-7-4.1-9.1c-1-1.5,1-2.6,1.8-1.1c1.2,2.2,2.4,5,3.1,7.4c1,3.5,1.9,8.9,2.1,11.4
		c0.3,3.2,0.5,3,1,5.5c0,0-0.2-6.8-0.7-12.9c-0.2-3.4-0.6-9.5-1.9-12.3c-1-2,1.4-3.6,2.3-0.3c1.1,4.2,1.4,13.3,1.5,16.6
		c0.2,3.3,0.7,9,0.7,9L63.7,75.5z M63.7,75.5"/>
	<path class="st6" d="M50.4,70.6c0,0-1-0.8-1.9-2.4c-1.6-2.6-3-3.5-4.4-4c-1.5-0.5-2.7-0.3-2.7,0.6c0,0.9,0.8,1,1.8,1
		c2.7,0,4.4,2.2,5.7,3.5C49.9,70.2,50.4,70.6,50.4,70.6L50.4,70.6z M50.4,70.6"/>
	<path class="st6" d="M51.7,67.9c0,0-2.1-3.8-3.4-5.8c-1.4-2.3-3.4-3.1-4.6-3.5c-2.2-0.8-2.5,1.1-1.9,1.6c0.6,0.5,1.9,0.3,3.7,1.3
		c1.4,0.8,3.4,2.8,4.1,3.9C50.3,66.3,51.7,67.9,51.7,67.9L51.7,67.9z M51.7,67.9"/>
	<path class="st6" d="M53.1,65.2c0,0-0.8-2.1-1.3-3.5c-0.6-1.6-0.9-3-2-4.9c-1.3-2.2-3.8-3.9-4.9-4.3c-1.7-0.6-2.2,1.4-0.6,2
		c2.2,0.9,2.8,1.4,3.7,2.4c1,1,2.3,3,3,4.4C51.6,62.3,53.1,65.2,53.1,65.2L53.1,65.2z M53.1,65.2"/>
	<path class="st6" d="M55.9,63.6c0,0-0.3-1.1-0.7-2.7c-0.3-1.5-0.7-3.8-1.5-6c-1.2-3.1-2.7-4.7-4.4-6.3c-2.2-2-3.2,0-1.9,0.9
		c1.7,1.2,4.3,3.8,5.3,5.6c0.9,1.7,1.6,4.5,2,5.7C55.1,61.8,55.9,63.6,55.9,63.6L55.9,63.6z M55.9,63.6"/>
	<path class="st6" d="M53,44.3c0.9,1.3,2,3,2.9,5.3c0.9,2.4,1.5,4.6,1.9,7c0.3,1.4,0.4,2.5,0.7,5.5c0,0-0.6-2.6-0.9-4.1
		c-0.5-2.3-1.1-4.8-1.9-6.8c-1.3-3-3.3-4.8-4.2-5.9C50.5,44.2,52,42.7,53,44.3L53,44.3z M53,44.3"/>
	<path class="st6" d="M60.9,59.9c-0.1,0.1-0.4-7-0.8-9.7c-0.5-2.8-1.3-7.2-2.2-8.5c-0.9-1.5-2.5-0.7-1.8,0.6c1,1.7,1.9,4,2.6,6
		c0.8,2.6,1.4,7.2,1.5,7.8C60.3,56.8,60.9,59.9,60.9,59.9L60.9,59.9z M60.9,59.9"/>
	<path class="st6" d="M63.4,39.4c0,0-0.8-0.1-1,0.8c-0.3,0.9-0.3,1.3,0.2,6.2c0.6,4.9,0.7,13.7,0.7,13.7L63.4,39.4z M63.4,39.4"/>
	<path class="st6" d="M63.3,75.5l5.1,0v1l-5,0l0,6.1c0,0,3.2,0.2,5-2.1c1.4-1.8,1.6-4.1,1.6-4.1h-1v-1.4c0,0,4.8-0.3,6.8-1.4
		c2-1,4.3-4,5.8-4.8c1.6-0.8,2.7-0.4,3.3-0.9c0.5-0.5,0.4-1.8-1.3-1.6c-1.7,0.1-2.7,0.8-3.2,1.2c-1.2,0.8-3,3-4.1,3.8
		c-1.6,1.2-3.9,1.5-3.9,1.5s1.5-0.7,3.2-2.3c1.6-1.6,3-4.2,4.2-5.4c1.9-1.7,3.8-1.9,4.9-2.1c1.1-0.2,0.9-2.1-0.6-1.9
		c-1.5,0.2-2.3,0.5-3.9,1.6c-1.3,0.8-4.3,4.9-5.9,6.7c-1.6,1.8-2.2,1.6-2.2,1.6s1.9-2.5,3.2-4.8c1.3-2.3,2.1-4.6,3.8-6.2
		c1.8-1.8,2.6-2.2,4.5-2.7c2-0.5,0.7-2.6-1.1-2c-1.8,0.7-3.2,1.8-4.5,3.4c-1.3,1.6-2.5,4.3-3.6,6.2C73,67.7,71,69.5,71,69.5
		s1.5-2.9,2.8-6.1c1.3-3.3,1.8-6.5,3.8-8.5c2-2,2.8-2.3,3.8-2.9c1.5-0.9,0.3-2.9-1.5-1.8c-1.8,1.1-3.9,3.2-4.8,4.6
		c-1.3,2-2.6,7.3-3.7,9.8c-1.1,2.3-2.1,3.9-2.1,3.9s0.5-2.7,1.1-5.2c0.8-3.1,1.3-7.9,2.9-10.7c1.5-2.7,2.5-3.4,4.6-5.3
		c0.9-0.8-0.5-2.4-1.8-1.3c-1.3,1.1-4,4.2-5,7.1c-0.8,2.5-2,8.8-2.6,10.9C67.8,66,67,67.7,67,67.7s0.4-3.3,0.8-6.7
		c0.2-2.2,0.9-5.9,1.4-8.2c0.5-2.2,2.7-7,4.1-9.1c0.9-1.5-1-2.6-1.8-1.1c-1.2,2.2-2.4,5-3.1,7.4c-1,3.5-1.9,8.9-2.1,11.4
		c-0.3,3.2-0.5,3-1,5.5c0,0,0.2-6.8,0.7-12.9c0.2-3.4,0.6-9.5,1.9-12.3c0.9-2-1.4-3.6-2.2-0.3C64.4,45.6,64.1,54.8,64,58
		c-0.2,3.3-0.7,9-0.7,9L63.3,75.5z M63.3,75.5"/>
	<path class="st6" d="M76.4,70.6c0,0,1-0.8,1.9-2.4c1.6-2.6,3-3.5,4.4-4c1.5-0.5,2.7-0.3,2.7,0.6c0,0.9-0.8,1-1.8,1
		c-2.7,0-4.4,2.2-5.7,3.4C77,70.2,76.4,70.6,76.4,70.6L76.4,70.6z M76.4,70.6"/>
	<path class="st6" d="M75.2,67.9c0,0,2.1-3.8,3.4-5.8c1.4-2.3,3.4-3.1,4.6-3.5c2.2-0.8,2.5,1.1,1.9,1.6c-0.6,0.5-1.9,0.3-3.7,1.3
		c-1.4,0.8-3.4,2.8-4.1,3.9C76.5,66.3,75.2,67.9,75.2,67.9L75.2,67.9z M75.2,67.9"/>
	<path class="st6" d="M73.7,65.2c0,0,0.8-2.1,1.3-3.5c0.6-1.6,0.9-3,2-4.9c1.3-2.2,3.8-3.9,4.9-4.3c1.7-0.6,2.2,1.4,0.6,2
		c-2.2,0.9-2.8,1.4-3.7,2.4c-1,1-2.3,3-3,4.4C75.3,62.3,73.7,65.2,73.7,65.2L73.7,65.2z M73.7,65.2"/>
	<path class="st6" d="M70.9,63.6c0,0,0.3-1.1,0.7-2.7c0.3-1.5,0.7-3.8,1.5-6c1.2-3.1,2.7-4.7,4.4-6.3c2.2-2,3.2,0,1.9,0.9
		c-1.7,1.2-4.3,3.8-5.3,5.6c-0.9,1.7-1.6,4.5-2,5.7C71.7,61.8,70.9,63.6,70.9,63.6L70.9,63.6z M70.9,63.6"/>
	<path class="st6" d="M73.8,44.3c-0.9,1.3-2,3-2.9,5.3c-0.9,2.4-1.5,4.6-1.9,7c-0.3,1.4-0.4,2.5-0.7,5.5c0,0,0.6-2.6,0.9-4.1
		c0.5-2.3,1.1-4.8,1.9-6.7c1.3-3,3.3-4.8,4.2-5.9C76.3,44.2,74.8,42.7,73.8,44.3L73.8,44.3z M73.8,44.3"/>
	<path class="st6" d="M65.9,59.9c0.1,0.1,0.4-7,0.8-9.7c0.5-2.8,1.3-7.2,2.2-8.5c0.9-1.5,2.5-0.7,1.8,0.6c-1,1.7-1.9,4-2.6,6
		c-0.8,2.6-1.4,7.2-1.5,7.8C66.5,56.8,65.9,59.9,65.9,59.9L65.9,59.9z M65.9,59.9"/>
	<path class="st6" d="M63.2,39.4c0,0,0.9-0.1,1.2,0.8c0.3,0.9,0.4,1.3-0.3,6.2C63.5,51.2,63.3,60,63.3,60L63.2,39.4z M63.2,39.4"/>
	<path class="st2" d="M75,25.2c0,6.5-5.3,11.8-11.8,11.8c-6.5,0-11.8-5.3-11.8-11.8c0-6.5,5.3-11.8,11.8-11.8
		C69.7,13.4,75,18.7,75,25.2L75,25.2z M75,25.2"/>
	<path class="st3" d="M73.2,25.1c0,5.4-4.4,9.8-9.8,9.8c-5.4,0-9.8-4.4-9.8-9.8c0-5.4,4.4-9.8,9.8-9.8
		C68.8,15.3,73.2,19.7,73.2,25.1L73.2,25.1z M73.2,25.1"/>
	<path class="st1" d="M73.5,25.1L73.5,25.1c0,2.8-1.1,5.3-3,7.1c-1.8,1.8-4.4,3-7.1,3v0h0v0c-2.8,0-5.3-1.1-7.1-3
		c-1.8-1.8-3-4.4-3-7.1h0v0h0c0-2.8,1.1-5.3,3-7.1c1.8-1.8,4.4-3,7.1-3v0h0v0c2.8,0,5.3,1.1,7.1,3C72.3,19.8,73.5,22.3,73.5,25.1
		L73.5,25.1L73.5,25.1z M72.9,25.1L72.9,25.1L72.9,25.1L72.9,25.1c0-2.6-1.1-5-2.8-6.8c-1.7-1.7-4.1-2.8-6.8-2.8v0h0v0
		c-2.6,0-5,1.1-6.8,2.8c-1.7,1.7-2.8,4.1-2.8,6.8h0v0h0c0,2.6,1.1,5,2.8,6.8c1.7,1.7,4.1,2.8,6.8,2.8v0h0v0c2.6,0,5-1.1,6.8-2.8
		C71.9,30.1,72.9,27.8,72.9,25.1L72.9,25.1z M72.9,25.1"/>
	<path class="st6" d="M60.9,16.9l-1.3,1.5l-0.6,1.4l0,1l-1,0.2l-1.5,0.5c0,0-1,0.8-1.1,0.9c-0.1,0.1-0.9,1.7-1,1.8
		c0,0.1,0.1,2.2,0.1,2.3c0,0.1,1.2,1.6,1.2,1.6s1.6,1,1.7,1.1s1,0.3,1,0.3l0.6-0.1l0.3,2.1l0.8,1.3l1.1,0.9l1.6,0.5c0,0,1,0,1.1,0
		c0.1,0,1.7-0.6,1.7-0.6l1.1-1.1l0.6-1.5l0.1-1.4l1.4-0.1l1.6-0.9l1.4-1.8l0.1-2.1L71.4,23l-1.5-1.5l-1.3-0.4l-1.2-0.2l-0.1-1.5
		l-1-1.8l-1.9-1.3l-2-0.1L60.9,16.9z M60.9,16.9"/>
	<path class="st7" d="M59.7,29.4c0,0,0-0.2,0-0.3c0-0.1,0.1-0.3,0.1-0.3c1.6-0.5,2.8-2,2.8-3.8c0,0,0.2,0,0.3,0c0.1,0,0.3,0,0.3,0
		C63.1,27.2,61.6,28.9,59.7,29.4L59.7,29.4z M59.7,29.4"/>
	<path class="st7" d="M58.6,29.5c-2.5,0-4.5-2-4.5-4.5c0-2.5,2-4.5,4.5-4.5c2,0,3.7,1.3,4.2,3.1c0,0-0.2,0.1-0.3,0.1
		c-0.1,0-0.3,0-0.3,0c-0.6-1.5-2-2.5-3.7-2.5c-2.2,0-3.9,1.8-3.9,3.9c0,2.2,1.8,3.9,3.9,3.9c0,0,0,0.2,0,0.3
		C58.6,29.4,58.6,29.5,58.6,29.5L58.6,29.5z M58.6,29.5"/>
	<path class="st7" d="M58.9,21.3c0,0,0.2,0,0.3,0c0.1,0,0.3,0.1,0.3,0.1c0.4,1.6,1.9,2.9,3.7,2.9c0,0,0,0.2,0,0.3c0,0.1,0,0.3,0,0.3
		C61.1,24.8,59.4,23.3,58.9,21.3L58.9,21.3z M58.9,21.3"/>
	<path class="st7" d="M58.8,20.3c0-2.5,2.1-4.4,4.5-4.4c2.5,0,4.4,2.1,4.4,4.5c0,2-1.4,3.6-3.1,4.2c0,0-0.1-0.2-0.1-0.3
		c0-0.1,0-0.3,0-0.3c1.5-0.5,2.6-1.9,2.6-3.6c0-2.2-1.7-3.9-3.8-4c-2.2,0-3.9,1.7-4,3.8c0,0-0.2,0-0.3,0
		C59,20.3,58.8,20.3,58.8,20.3L58.8,20.3z M58.8,20.3"/>
	<path class="st7" d="M63.5,25.3c0,0,0.2,0,0.3-0.1c0.1,0,0.2-0.1,0.2-0.1c0-1.7,1.1-3.3,2.8-3.8c0,0-0.1-0.2-0.1-0.3
		c0-0.1,0-0.2,0-0.2C64.7,21.4,63.4,23.3,63.5,25.3L63.5,25.3z M63.5,25.3"/>
	<path class="st7" d="M63.7,26.4c0.7,2.4,3.2,3.7,5.5,3c2.4-0.7,3.7-3.2,3-5.5c-0.6-1.9-2.3-3.1-4.1-3.2c0,0,0,0.2,0,0.3
		c0,0.1,0.1,0.3,0.1,0.3c1.6,0.1,3,1.2,3.5,2.8c0.6,2.1-0.6,4.2-2.7,4.9c-2.1,0.6-4.2-0.6-4.9-2.7c0,0-0.2,0.1-0.3,0.1
		C63.8,26.4,63.7,26.4,63.7,26.4L63.7,26.4z M63.7,26.4"/>
	<path class="st7" d="M67.7,28.9c0,0-0.2,0-0.3,0c-0.1,0-0.3-0.1-0.3-0.1c-0.4-1.6-1.9-2.9-3.7-2.9c0,0,0-0.2,0-0.3
		c0-0.1,0-0.3,0-0.3C65.5,25.4,67.2,26.9,67.7,28.9L67.7,28.9z M67.7,28.9"/>
	<path class="st7" d="M67.8,29.9c0,2.5-2.1,4.4-4.5,4.4c-2.5,0-4.4-2.1-4.4-4.5c0-2,1.3-3.6,3.1-4.2c0,0,0.1,0.2,0.1,0.3
		c0,0.1,0,0.3,0,0.3c-1.5,0.5-2.6,2-2.6,3.6c0,2.2,1.7,3.9,3.9,4c2.2,0,3.9-1.7,4-3.9c0,0,0.2,0,0.3,0
		C67.6,29.9,67.8,29.9,67.8,29.9L67.8,29.9z M67.8,29.9"/>
	<path class="st2" d="M52.6,84.8l-0.5,0.7l-1.7-1.8c0,0,0.9-0.7,1.1-1.9c0.2-1.2-1.5-3.6-1.5-3.6s1.6,1.8,2.1,2.8
		C53.2,83.2,52.6,84.8,52.6,84.8L52.6,84.8z M52.6,84.8"/>
	<path class="st2" d="M51.6,78.3c0,0-1.4-1-1.6-2.1c-0.2-1.1,1.4-1.6,2.2-1.2c0.9,0.4,1.7,2.2,1.7,2.2s-0.8-1.1-1.9-1
		c-0.6,0.1-0.6,0.3-0.7,0.8C51.3,77.5,51.6,78.3,51.6,78.3L51.6,78.3z M51.6,78.3"/>
	<path class="st2" d="M75,84.8l0.5,0.7l1.7-1.8c0,0-0.9-0.7-1.1-1.9c-0.2-1.2,1.5-3.6,1.5-3.6S75.9,80,75.4,81
		C74.4,83.2,75,84.8,75,84.8L75,84.8z M75,84.8"/>
	<path class="st2" d="M76,78.3c0,0,1.4-1,1.6-2.1c0.2-1.1-1.4-1.6-2.2-1.2c-0.9,0.4-1.7,2.2-1.7,2.2s0.8-1.1,1.9-1
		c0.6,0.1,0.6,0.3,0.7,0.8C76.3,77.5,76,78.3,76,78.3L76,78.3z M76,78.3"/>
	<path class="st7" d="M54.6,85.3l-2.3-1.9c0,0,0.7-0.6-0.7-3c-1.4-2.4-2.2-2.8-2.2-3.9c0-1.1,1.4-1.5,1.4-1.5s-1,0.5-0.6,1.6
		c0.4,1.1,2.8,2.6,3.6,4.9C54.8,84,54.6,85.3,54.6,85.3L54.6,85.3z M54.6,85.3"/>
	<path class="st7" d="M72.9,85.3l2.3-1.9c0,0-0.7-0.6,0.7-3c1.4-2.4,2.2-2.8,2.2-3.9c0-1.1-1.4-1.5-1.4-1.5s1,0.5,0.6,1.6
		c-0.4,1.1-2.8,2.6-3.6,4.9C72.8,84,72.9,85.3,72.9,85.3L72.9,85.3z M72.9,85.3"/>
	<path class="st7" d="M71.4,81.7c1.6-2,2.1-4.6,2.7-5.3c0.6-0.7,1.2-1.3,1.2-1.3s-0.1,0-1.3,0.9c-1.9,1.5-2.6,2.9-5.1,5
		c-2.2,1.9-5.2,1.5-5.2,1.5s-3,0.4-5.2-1.5c-2.5-2.1-3.1-3.5-5.1-5C52.3,75,52.2,75,52.2,75s0.6,0.5,1.2,1.3
		c0.6,0.7,1.1,3.3,2.7,5.3c2.7,3.3,7.7,2.9,7.7,2.9S68.8,85,71.4,81.7L71.4,81.7z M71.4,81.7"/>
	<path class="st7" d="M63.3,112.2l3.9-1.2l2.2-1.4l1.4,0.9l1.1,0.4l1.5-1.8l2.5,0.3l3.3-0.2l1.5-1.1l1.2-1.4l1.1,0.3l1.6-0.5l0.5-2
		l2.4-0.2l2.5-0.5l1.2-3.5l1.1,0.1l1.1-0.1l-0.3-1.8l1.8-0.5l1.3-1.1l1.8-0.9l-0.3-3l-1.7-1.4l1.6-1.8l2-2.7l0.4-3.6l-0.5-2.7
		c0,0-0.9,1.4-1.9,1.9c-1,0.5-1.5,0.3-2.8,1.4c-1.3,1.1-2.7,3.9-2.7,3.9s0-1.3-0.9-2.1c-0.9-0.8-1.8-0.5-2.4-0.7
		c-0.5-0.2-0.8-0.8-0.8-0.8s-0.8,1-1.5,1.4c-0.8,0.4-2.5,1.3-3.3,2.7C82.8,90,82.2,93,82.2,93s0.2-1.9-0.7-3
		c-1.2-1.4-2.4-1.7-2.8-1.9c-0.4-0.2-1.1-0.8-1.1-0.8s-0.6,1.1-1.7,1.5c-0.6,0.3-2.4,0.8-3.5,2.2c-1.1,1.4-1.9,4.2-1.9,4.2
		s0.2-1.6-1.1-3c-1.3-1.4-2.8-1.9-3.9-2.2c-1.1-0.3-2.1-1.7-2.1-1.7l0,0c0,0-1,1.4-2.1,1.7c-1.1,0.3-2.7,0.8-3.9,2.2
		c-1.3,1.4-1.1,3-1.1,3s-0.8-2.8-1.9-4.2c-1.1-1.4-2.8-1.9-3.5-2.2c-1.1-0.5-1.7-1.5-1.7-1.5S48.4,88,48,88.1
		c-0.4,0.2-1.6,0.5-2.8,1.9c-0.9,1-0.7,3-0.7,3s-0.7-3-1.4-4.4c-0.8-1.4-2.5-2.3-3.3-2.7c-0.8-0.4-1.5-1.4-1.5-1.4s-0.2,0.6-0.8,0.8
		c-0.5,0.2-1.4-0.2-2.4,0.7c-0.9,0.8-0.9,2.1-0.9,2.1s-1.4-2.8-2.7-3.9c-1.3-1.1-1.8-0.9-2.8-1.4c-1-0.5-1.9-1.9-1.9-1.9l-0.5,2.7
		l0.4,3.6l2,2.7l1.6,1.8l-1.7,1.4l-0.3,3l1.8,0.9l1.3,1.1l1.8,0.5l-0.3,1.8l1.1,0.1l1.1-0.1l1.2,3.5l2.5,0.5l2.4,0.2l0.5,2l1.6,0.5
		l1.1-0.3l1.2,1.4l1.5,1.1l3.3,0.2l2.5-0.3l1.5,1.8l1.1-0.4l1.4-0.9l2.2,1.4L63.3,112.2L63.3,112.2z M63.3,112.2"/>
	<path class="st6" d="M63.2,112.6c0,0-1.2-0.6-1.7-0.7c-0.5-0.1-1.2-0.3-2.3-0.5c-1.1-0.2-2.9-1.4-2.9-1.4s-0.3,0.4-0.7,0.6
		c-0.4,0.2-1,0.4-1,0.4s-0.6-0.6-1-1c-0.4-0.4-0.8-0.7-0.8-0.7s-0.9,0.2-2.3,0.2c-1.4,0.1-4.1,0-4.1,0s-0.1-0.4-0.2-0.6
		c-0.1-0.2-0.4-0.2-0.8-0.6c-0.4-0.4-1.2-1.4-1.2-1.4s-0.7,0.1-1.1,0.1c-0.4,0-1.2-0.1-1.2-0.1s-0.2-0.6-0.4-1c-0.2-0.3-0.4-1-0.4-1
		s-0.9,0.2-1.7,0.1c-0.7-0.1-1.2-0.7-2-0.9c-0.8-0.1-1.5-0.1-1.5-0.1s-0.1-0.5-0.1-0.7c-0.1-0.2-0.4-0.5-0.6-1
		c-0.2-0.5-0.5-1.8-0.5-1.8s-0.6,0.1-1.1,0.1c-0.6,0-1.2-0.2-1.2-0.2s-0.1-0.7-0.1-0.9c0-0.2,0.2-1,0.2-1s-0.9,0-1.4-0.1
		c-0.5-0.1-1.9-1.3-2.4-1.8c-0.5-0.5-1.3-0.3-1.3-0.3s0-1.7,0.3-2.8c0.3-1.1,1.9-2.2,1.9-2.2s-1.8-0.1-3.5-4.4
		c-1.7-4.3,0.4-5.5,0.4-5.5s0.3,1.3,1,2c0.7,0.7,2.8,0.6,4.2,2.3c1.4,1.7,1.3,3.2,1.6,4.1c0.4,0.9,1,1.3,1,1.3s0.1-0.3-0.1-0.6
		c-0.2-0.3-0.3-1.9-0.3-1.9s0.3,0.9,0.7,1.8c0.5,1,0.9,1.5,0.9,1.5s-1.6-3.9,0-5.5c0.8-0.7,2.6-0.7,2.6-0.7s0.9,1.3,1.7,1.8
		c0.8,0.5,1.5,0.9,2.3,2.2c0.8,1.4,1.3,6.1,1.7,6.8c0.5,0.7,1.1,1,1.1,1s-0.6-1.3-0.7-1.6S43.8,93,44,93.1c0.2,0.1,0.3,1.5,0.8,2.6
		c0.5,1,1.6,2.2,1.6,2.2S45,94.7,45.2,92c0.2-2.7,3.4-3.2,3.4-3.2s2.1,1.7,2.3,1.9c0.2,0.2,0.5,0.9,0.5,0.9l-0.1-1.4
		c0,0,2.3,1.9,3,3.4c0.7,1.5,0.5,4.3,1.1,6c0.6,1.7,1.4,1.5,1.4,1.5s-0.5-0.9-0.9-2.3c-0.4-1.4,0.1-3,0.1-3s-0.1,1.2,0.3,2.7
		c0.4,1.5,1.8,2.3,1.8,2.3s-1.2-2.3-1.3-4.3c-0.1-1.9,0.8-3.7,1.5-4.5c0.7-0.9,3-1.4,3.5-1.5c0.5-0.1,1.4-1.4,1.4-1.4l0,0
		c0,0,0.9,1.3,1.4,1.4c0.5,0.1,2.7,0.6,3.5,1.5c0.7,0.9,1.6,2.6,1.5,4.6c-0.1,1.9-1.3,4.3-1.3,4.3s1.4-0.8,1.8-2.3
		c0.4-1.5,0.3-2.7,0.3-2.7s0.5,1.5,0.1,3c-0.4,1.4-0.9,2.3-0.9,2.3s0.8,0.2,1.4-1.5c0.6-1.7,0.5-4.6,1.1-6c0.7-1.5,3-3.4,3-3.4
		l-0.1,1.4c0,0,0.3-0.6,0.5-0.9c0.1-0.3,2.3-1.9,2.3-1.9s3.2,0.6,3.4,3.2c0.2,2.7-1.3,5.9-1.3,5.9s1.2-1.2,1.6-2.2
		c0.5-1,0.6-2.4,0.8-2.6c0.2-0.1-0.3,2.3-0.5,2.7c-0.1,0.3-0.7,1.6-0.7,1.6s0.6-0.2,1.1-1c0.5-0.7,0.9-5.5,1.7-6.8
		c0.8-1.4,1.5-1.7,2.3-2.2c0.8-0.5,1.6-1.8,1.6-1.8s1.9,0,2.6,0.7c1.4,1.3,0,5.5,0,5.5s0.5-0.6,0.9-1.5c0.5-1,0.7-1.8,0.7-1.8
		S92.1,90,92,90.3c-0.2,0.3-0.1,0.6-0.1,0.6s0.6-0.4,1-1.3c0.4-0.9,0.3-2.4,1.6-4.1c1.4-1.7,3.5-1.6,4.2-2.3c0.7-0.7,1-2,1-2
		s2,1.2,0.4,5.5c-1.7,4.3-3.5,4.4-3.5,4.4s1.6,1.1,1.9,2.2c0.3,1.1,0.3,2.8,0.3,2.8s-0.7-0.2-1.3,0.3c-0.5,0.5-1.9,1.7-2.4,1.8
		c-0.5,0.1-1.4,0.1-1.4,0.1s0.2,0.8,0.2,1c0,0.2-0.1,0.9-0.1,0.9s-0.6,0.2-1.2,0.2c-0.6,0-1.1-0.1-1.1-0.1s-0.3,1.3-0.5,1.8
		c-0.2,0.5-0.6,0.8-0.6,1c-0.1,0.2-0.1,0.7-0.1,0.7s-0.7,0-1.5,0.1c-0.8,0.1-1.3,0.7-2,0.9c-0.7,0.1-1.7-0.1-1.7-0.1s-0.2,0.6-0.4,1
		c-0.2,0.3-0.4,1-0.4,1s-0.8,0.1-1.2,0.1c-0.4,0-1.1-0.1-1.1-0.1s-0.8,1-1.2,1.4c-0.4,0.4-0.7,0.5-0.8,0.6c-0.1,0.2-0.2,0.6-0.2,0.6
		s-2.7,0.1-4.1,0c-1.4-0.1-2.3-0.2-2.3-0.2s-0.4,0.3-0.8,0.7c-0.4,0.4-1,1-1,1s-0.6-0.2-1-0.4c-0.4-0.2-0.7-0.6-0.7-0.6
		s-1.8,1.3-2.9,1.4c-1.1,0.2-1.8,0.3-2.3,0.5C64.5,112,63.3,112.7,63.2,112.6L63.2,112.6 M26.8,83.3c0,0-0.7,2.1,0.4,3.9
		c1.2,1.7,2.2,2.1,2.7,2.2c0.5,0.1,2.2,0.1,1.9-1.5c-0.2-1.3-1.1-1.3-1.5-1.1c-0.4,0.2-1.1,0.7-1.1,0.7s0.3-1.5-0.1-2.2
		c-0.3-0.7-0.7-1.1-1.4-1.2C27.3,84,26.8,83.3,26.8,83.3 M98.6,83.9c-0.6,0.1-1.1,0.5-1.4,1.2c-0.3,0.7-0.1,2.2-0.1,2.2
		s-0.6-0.6-1.1-0.7c-0.4-0.2-1.3-0.2-1.5,1.1c-0.3,1.6,1.4,1.6,1.9,1.5c0.5-0.1,1.5-0.5,2.7-2.2c1.2-1.7,0.4-3.9,0.4-3.9
		S99.3,83.8,98.6,83.9 M43.3,96.6c0,0-0.8-1.5-1-2.9c-0.2-1.4-0.3-3.2-0.9-3.9c-0.7-0.7-0.9-0.6-1-0.5c-0.1,0.1-0.4,0.4-0.4,0.4
		s-0.1-0.5-0.1-0.8c0-0.4,0-0.7,0-0.7s-0.6-0.2-1-0.5c-0.4-0.3-0.7-0.8-0.7-0.8s-0.9-0.1-1.1,0.2c-0.2,0.3,0.1,1.1,0.1,1.1
		s-0.5-0.3-0.8-0.3c-0.3,0.1-0.8,0.8-0.5,2.2c0.2,1.4,1.1,2.6,1.5,2.9c0.5,0.4,1.2,0.5,1.5,0.3c0.3-0.2,0.2-0.8,0.2-0.8
		s0.7,1.3,1.3,2C41.4,95.4,43.3,96.6,43.3,96.6 M86.1,94.1c0.6-0.6,1.3-2,1.3-2s-0.1,0.6,0.2,0.8c0.3,0.2,1,0.1,1.5-0.3
		c0.5-0.4,1.3-1.6,1.5-2.9c0.2-1.4-0.2-2.1-0.5-2.2c-0.3-0.1-0.8,0.3-0.8,0.3s0.4-0.8,0.1-1.1c-0.2-0.3-1.1-0.2-1.1-0.2
		s-0.3,0.5-0.7,0.8c-0.4,0.3-1,0.5-1,0.5s0,0.3,0,0.7c0,0.4-0.1,0.8-0.1,0.8s-0.3-0.3-0.4-0.4c-0.1-0.1-0.3-0.2-1,0.5
		c-0.7,0.7-0.7,2.5-0.9,3.9c-0.2,1.4-1,2.9-1,2.9S85.2,95.1,86.1,94.1 M55.3,101.1c0,0-0.9-1.6-1.1-2.7c-0.2-1.2-0.3-3.4-0.9-4.7
		c-0.4-0.8-0.8-1-1.2-1c-0.3,0-0.3,0.9-0.3,0.9s-0.2-0.7-0.3-1.1c-0.2-0.3-0.6-1-1-1.3c-0.3-0.3-1.8-1.5-1.8-1.5s-1.1,0.3-1.2,1
		c-0.1,0.7,0.1,1.7,0.1,1.7s-0.5-1-1-0.5c-0.5,0.4-0.9,2.5,0.4,5c1.3,2.5,1.5,2,1.5,2s0.6,0.1,0.9-0.4c0.3-0.5,0.6-1,0.6-1
		s0.9,2,2.7,2.8C54.5,101.2,55.3,101.1,55.3,101.1 M74,100.1c1.8-0.8,2.7-2.8,2.7-2.8s0.3,0.5,0.6,1c0.3,0.5,0.9,0.4,0.9,0.4
		s0.2,0.5,1.5-2c1.3-2.5,0.9-4.6,0.4-5c-0.5-0.4-1,0.5-1,0.5s0.2-1,0.1-1.7c-0.1-0.7-1.2-1-1.2-1s-1.5,1.1-1.8,1.5
		c-0.3,0.3-0.8,1-1,1.3c-0.2,0.4-0.3,1.1-0.3,1.1s0-0.9-0.3-0.9c-0.3,0-0.8,0.3-1.2,1c-0.6,1.2-0.7,3.5-0.9,4.7
		c-0.2,1.2-1.1,2.7-1.1,2.7S72.3,101,74,100.1 M63.4,98.9c0,0,0.1,1.2,0.7,1.8c0.6,0.6,1.4,1.2,2.3,0.7c0.9-0.5,2.5-2.5,2.6-4.8
		c0.1-1.8-0.5-3.1-1.1-3.4c-0.6-0.3-1.1,0.3-1.3,1c-0.2,0.6,0.6-1.3-0.2-2.1c-0.6-0.7-1.4-0.3-2-0.9c-0.5-0.4-1-0.8-1-0.8l0,0
		c0,0-0.5,0.4-1,0.8c-0.6,0.5-1.4,0.2-2,0.9c-0.8,0.9-0.1,2.7-0.2,2.1c-0.2-0.6-0.6-1.3-1.3-1c-0.6,0.3-1.1,1.7-1.1,3.4
		c0.1,2.3,1.6,4.4,2.6,4.8c0.9,0.5,1.8-0.1,2.3-0.7C63.3,100.2,63.4,99,63.4,98.9L63.4,98.9 M38.8,94.9c0,0-2.6-1.6-3.7-2
		c-1.5-0.6-3.6-0.8-4.4-0.3c-0.8,0.5-1.3,1.7-0.6,2.4c0.3,0.3,0.9,0.4,1.4,0.8c0.5,0.4,1,0.9,2,0.6c1.1-0.3,1.8-1.4,2.7-1.5
		C37.2,94.9,38.8,94.9,38.8,94.9 M34.2,92.3L34,91.7c0,0-0.7-0.4-2.1-0.3c-1.3,0.2-2.7,1-2.8,2.1c-0.1,0.7,0,0.9,0.1,1.5
		c0.1,0.5,0.1,0.9,0.1,0.9s0.3-0.2,1,0.4c0.7,0.6,1.8,1.5,2.7,1.4c0.9-0.1,2.4-1.5,3.2-1.7c0.7-0.3,1,0,1,0l0-0.5c0,0-0.8-0.3-1.5,0
		c-0.7,0.3-1.9,1.8-2.9,1.6c-1.1-0.1-1.7-0.9-2.2-1.3c-0.5-0.4-0.8-0.4-0.8-0.4s-0.2-0.4-0.3-0.9c-0.3-0.7,0-1.6,0.4-2
		c0.5-0.4,1-0.7,1.9-0.7C33.2,91.8,34.2,92.3,34.2,92.3 M90.4,95c0.9,0.1,1.7,1.2,2.7,1.5c1.1,0.3,1.6-0.2,2-0.6
		c0.5-0.4,1.1-0.6,1.4-0.8c0.7-0.8,0.2-2-0.6-2.4c-0.8-0.5-2.9-0.3-4.4,0.3c-1.1,0.4-3.7,2-3.7,2S89.5,94.9,90.4,95 M94.7,91.9
		c0.9,0.1,1.4,0.3,1.9,0.7c0.4,0.4,0.7,1.3,0.4,2c-0.2,0.4-0.3,0.9-0.3,0.9s-0.3,0-0.8,0.4c-0.5,0.4-1.2,1.1-2.2,1.3
		c-1.1,0.1-2.3-1.4-2.9-1.6c-0.7-0.3-1.5,0-1.5,0l0,0.5c0,0,0.3-0.3,1,0c0.7,0.3,2.3,1.6,3.2,1.7c0.9,0.1,2-0.8,2.7-1.4
		c0.7-0.6,1-0.4,1-0.4s0-0.3,0.1-0.9c0.1-0.5,0.2-0.8,0.1-1.5c-0.1-1-1.4-1.9-2.8-2.1c-1.3-0.2-2.1,0.3-2.1,0.3l-0.2,0.6
		C92.4,92.3,93.5,91.8,94.7,91.9 M35.3,98.1c0,0-1,0-1.5,0.6c-0.5,0.6-0.3,1.1-0.3,1.1s0.8,0.1,1.2-0.2c0.4-0.3,0.4-0.5,0.5-0.8
		C35.2,98.5,35.3,98.1,35.3,98.1 M91.7,98.9c0.1,0.3,0.1,0.4,0.5,0.8c0.4,0.3,1.2,0.2,1.2,0.2s0.2-0.5-0.3-1.1
		c-0.5-0.6-1.5-0.6-1.5-0.6S91.6,98.6,91.7,98.9 M46.3,99.3c0,0-3-2.1-5.5-1.8c-2.5,0.2-4.1,1-4.1,2.2c0,0.7,0.4,1.1,0.5,1.5
		c0.1,0.3,0.1,0.8,0.1,0.8s0.6-0.1,1.1,0.1c0.5,0.2,1.5,1.2,2.4,0.9c0.9-0.3,2.4-1.8,3.2-2.5C44.9,99.8,46.3,99.3,46.3,99.3
		 M36.9,97.7c-0.6,0.4-1.1,1.1-1,2c0.1,0.7,0.5,1.5,0.7,1.9c0.2,0.4,0.2,1.3,0.2,1.3s0.6-0.2,1-0.1c0.4,0.1,1.4,1.1,2.7,1
		c1.3-0.1,3.6-2.4,4.1-2.9c0.5-0.5,1.6-1,1.6-1s-1.1,0-1.7,0.6c-0.6,0.5-2.6,2.7-4.1,2.9c-0.8,0.1-2.2-0.8-2.6-1
		c-0.5-0.2-0.8,0.1-0.8,0.1s-0.1-0.9-0.2-1.1c-0.1-0.2-0.4-0.6-0.4-0.9c-0.1-0.7-0.3-1.5,0.2-2.1c0.7-0.8,3.3-1.2,3.3-1.2
		S37.8,97.1,36.9,97.7 M82.8,100.4c0.8,0.6,2.3,2.2,3.2,2.5c0.9,0.3,1.9-0.7,2.4-0.9c0.5-0.2,1.1-0.1,1.1-0.1s0-0.6,0.1-0.8
		c0.2-0.4,0.6-0.8,0.5-1.5c-0.1-1.3-1.6-2-4.1-2.2c-2.5-0.2-5.5,1.8-5.5,1.8S81.9,99.7,82.8,100.4 M86.8,97c0,0,2.5,0.5,3.3,1.2
		c0.5,0.6,0.4,1.3,0.2,2.1c-0.1,0.3-0.3,0.7-0.4,0.9c-0.1,0.2-0.2,1.1-0.2,1.1s-0.3-0.3-0.8-0.1c-0.5,0.2-1.8,1.1-2.6,1
		c-1.4-0.2-3.4-2.4-4.1-2.9c-0.6-0.5-1.7-0.6-1.7-0.6s1.1,0.5,1.6,1c0.5,0.5,2.8,2.8,4.1,2.9c1.3,0.1,2.3-0.8,2.7-1
		c0.4-0.1,1,0.1,1,0.1s0-0.9,0.2-1.3c0.2-0.4,0.6-1.2,0.7-1.9c0.1-0.9-0.4-1.6-1-2C88.9,97,86.8,97,86.8,97 M56.2,102.3
		c0,0-3.9-1.3-6-1c-2.2,0.4-4,1.6-4.3,3.4c-0.3,1.8,0.5,1.5,1,2.2c0.4,0.5,0.4,0.9,0.4,0.9s0.4-0.2,1.5-0.2c1.1,0.1,1.5,0.4,2.8-0.2
		c1.2-0.6,1.9-2.7,2.7-3.5C55.2,103.1,56.2,102.3,56.2,102.3 M50.5,100.8c0,0-2.2,0.1-3.5,0.8c-1.3,0.7-2.5,2.1-2.2,3.8
		c0.3,1.7,1.6,2.2,1.8,2.6c0.2,0.4,0.4,0.7,0.4,0.7s0.7-0.2,1.5-0.1c0.8,0.1,2.6,0.4,3.4-0.1c0.8-0.6,2.4-2.9,3.1-3.7
		c0.7-0.8,2.1-2.1,2.1-2.1s-1.3,0.4-2,1.1c-0.8,0.7-2.7,4-3.6,4.3c-0.9,0.2-2.2,0-2.8,0c-0.6,0-1.5,0.1-1.5,0.1s-0.2-0.5-0.7-1
		c-0.5-0.5-1-0.8-1.2-1.7c-0.2-1.5,0.8-2.8,2-3.5C48.7,101.2,50.5,100.8,50.5,100.8 M72.4,103.9c0.8,0.8,1.5,2.9,2.7,3.5
		c1.3,0.6,1.7,0.2,2.8,0.2c1.1-0.1,1.5,0.2,1.5,0.2s0.1-0.4,0.4-0.9c0.5-0.7,1.3-0.4,1-2.2c-0.3-1.8-2.1-3-4.3-3.4
		c-2.1-0.4-5.9,1-5.9,1S71.6,103.1,72.4,103.9 M79.3,102c1.3,0.7,2.3,2.1,2,3.5c-0.2,0.9-0.6,1.2-1.2,1.7c-0.5,0.5-0.7,1-0.7,1
		s-0.8-0.1-1.5-0.1c-0.6,0-2,0.3-2.8,0c-0.9-0.2-2.9-3.5-3.6-4.3c-0.8-0.7-2-1.1-2-1.1s1.4,1.3,2.1,2.1c0.7,0.8,2.2,3.1,3.1,3.7
		c0.8,0.6,2.6,0.3,3.4,0.1c0.8-0.1,1.5,0.1,1.5,0.1s0.1-0.3,0.4-0.7c0.2-0.4,1.6-0.9,1.8-2.6c0.3-1.7-0.9-3.1-2.2-3.8
		c-1.3-0.7-3.5-0.8-3.5-0.8S78.1,101.2,79.3,102 M43.7,103.7c0,0-0.3,0.2-0.7,0.4c-0.4,0.2-0.8,0.3-0.8,0.3s0.1,0.5,0.5,1
		c0.4,0.5,1.2,0.4,1.2,0.4s0-0.6,0-1c0-0.4,0.1-1.4,0.1-1.4L43.7,103.7 M41.7,104.7c0,0,0.2,0.6,0.3,1c0.1,0.4,0.4,0.6,0.4,0.6
		s0.3,0.1,0.8,0.1c0.5,0,0.7-0.1,0.7-0.1v-0.2c0,0-0.9-0.1-1.3-0.3c-0.3-0.2-0.7-1.1-0.7-1.1L41.7,104.7 M82.4,103.2
		c0,0,0.1,1,0.1,1.4c0,0.4,0,1,0,1s0.8,0.1,1.2-0.4c0.4-0.5,0.5-1,0.5-1s-0.3-0.1-0.8-0.3c-0.4-0.2-0.7-0.4-0.7-0.4L82.4,103.2
		 M84.5,104.5c0,0-0.4,0.8-0.7,1.1c-0.3,0.2-1.3,0.3-1.3,0.3v0.2c0,0,0.2,0.1,0.7,0.1s0.8-0.1,0.8-0.1s0.3-0.2,0.4-0.6
		c0.1-0.4,0.3-1,0.3-1L84.5,104.5 M55.9,105.8c0,0-0.7,0.5-1.1,1.2c-0.3,0.6-0.6,1-0.6,1s0,0.3,0.8,0.8c0.8,0.4,1,0.1,1,0.1
		s-0.3-0.7-0.3-1.3C55.7,106.9,55.9,105.8,55.9,105.8 M53.8,108.6c0,0,0,0.6,0.3,1c0.3,0.4,0.7,0.7,0.7,0.7s0.4,0,0.8-0.2
		c0.4-0.2,0.7-0.5,0.7-0.5l-0.2-0.3c0,0-0.7,0.1-1.1,0c-0.4-0.2-1-0.9-1-0.9L53.8,108.6 M70.8,107.4c0,0.6-0.2,1.2-0.2,1.2
		s0.2,0.3,1-0.1c0.8-0.4,0.8-0.8,0.8-0.8s-0.2-0.4-0.6-1c-0.3-0.6-1.1-1.2-1.1-1.2C70.9,106.8,70.9,106.9,70.8,107.4 M72.6,108.1
		c0,0-0.5,0.7-1,0.9c-0.4,0.2-1.1,0-1.1,0l-0.2,0.3c0,0,0.3,0.4,0.7,0.5c0.4,0.2,0.8,0.2,0.8,0.2s0.4-0.3,0.7-0.7
		c0.3-0.4,0.3-1,0.3-1L72.6,108.1 M58.9,105.4c-0.4,0.7-0.9,2.1-0.3,2.9c0.8,1,1.4,0.6,2.6,1c1.2,0.4,2.3,0.9,2.3,0.9
		s0.9-0.5,2.1-0.9c1.2-0.4,1.9,0,2.6-1c0.6-0.8,0.1-2.2-0.3-2.9c-1.1-2-4.6-2.9-4.6-2.9S60,103.3,58.9,105.4 M63.4,110.8
		c0,0-0.2-0.3-0.8-0.7c-0.6-0.4-2.8-0.4-3.6-0.9c-0.8-0.6-1.4-1.4-1-3.1c0.5-1.7,2.6-3.4,2.6-3.4s-0.9,0.3-2,1.3
		c-0.9,0.9-2,3.1-0.9,4.8c1.1,1.7,3.9,1.5,4.7,1.8c0.7,0.3,1,0.8,1,0.8l0,0c0,0,0.3-0.5,1-0.8c0.7-0.3,3.6-0.1,4.7-1.8
		c1.1-1.7,0.1-3.9-0.9-4.8c-1-1-2-1.3-2-1.3s2.1,1.6,2.6,3.4c0.5,1.7-0.2,2.5-1,3.1c-0.8,0.6-2.9,0.6-3.6,0.9
		C63.6,110.5,63.4,110.8,63.4,110.8L63.4,110.8z M63.4,110.8"/>
</g>
</svg>
