<?xml version="1.0" encoding="UTF-8" standalone="no"?>
<svg
   xmlns:ooo="http://xml.openoffice.org/svg/export"
   xmlns:dc="http://purl.org/dc/elements/1.1/"
   xmlns:cc="http://creativecommons.org/ns#"
   xmlns:rdf="http://www.w3.org/1999/02/22-rdf-syntax-ns#"
   xmlns:svg="http://www.w3.org/2000/svg"
   xmlns="http://www.w3.org/2000/svg"
   xmlns:sodipodi="http://sodipodi.sourceforge.net/DTD/sodipodi-0.dtd"
   xmlns:inkscape="http://www.inkscape.org/namespaces/inkscape"
   version="1.2"
   width="262.5mm"
   height="245.04001mm"
   viewBox="0 0 26250 24504.001"
   preserveAspectRatio="xMidYMid"
   xml:space="preserve"
   id="svg1023"
   sodipodi:docname="courses.svg"
   style="fill-rule:evenodd;stroke-width:28.22200012;stroke-linejoin:round"
   inkscape:version="0.92.4 (5da689c313, 2019-01-14)"><metadata
   id="metadata1027"><rdf:RDF><cc:Work
       rdf:about=""><dc:format>image/svg+xml</dc:format><dc:type
         rdf:resource="http://purl.org/dc/dcmitype/StillImage" /><dc:title></dc:title></cc:Work></rdf:RDF></metadata><sodipodi:namedview
   pagecolor="#ffffff"
   bordercolor="#666666"
   borderopacity="1"
   objecttolerance="10"
   gridtolerance="10"
   guidetolerance="10"
   inkscape:pageopacity="0"
   inkscape:pageshadow="2"
   inkscape:window-width="1920"
   inkscape:window-height="1017"
   id="namedview1025"
   showgrid="false"
   fit-margin-top="0"
   fit-margin-left="0"
   fit-margin-right="0"
   fit-margin-bottom="0"
   inkscape:zoom="0.60578002"
   inkscape:cx="496.06299"
   inkscape:cy="257.59371"
   inkscape:window-x="-4"
   inkscape:window-y="-4"
   inkscape:window-maximized="1"
   inkscape:current-layer="svg1023" />
 <defs
   class="ClipPathGroup"
   id="defs928">
  <clipPath
   id="presentation_clip_path"
   clipPathUnits="userSpaceOnUse">
   <rect
   x="0"
   y="0"
   width="26250"
   height="37125"
   id="rect922" />
  </clipPath>
  <clipPath
   id="presentation_clip_path_shrink"
   clipPathUnits="userSpaceOnUse">
   <rect
   x="26"
   y="37"
   width="26198"
   height="37051"
   id="rect925" />
  </clipPath>
 </defs>
 <defs
   class="TextShapeIndex"
   id="defs932">
  <g
   ooo:slide="id1"
   ooo:id-list="id3 id4 id5 id6 id7 id8"
   id="g930" />
 </defs>
 <defs
   class="EmbeddedBulletChars"
   id="defs964">
  <g
   id="bullet-char-template-57356"
   transform="matrix(4.8828125e-4,0,0,-4.8828125e-4,0,0)">
   <path
   d="M 580,1141 1163,571 580,0 -4,571 Z"
   id="path934"
   inkscape:connector-curvature="0" />
  </g>
  <g
   id="bullet-char-template-57354"
   transform="matrix(4.8828125e-4,0,0,-4.8828125e-4,0,0)">
   <path
   d="M 8,1128 H 1137 V 0 H 8 Z"
   id="path937"
   inkscape:connector-curvature="0" />
  </g>
  <g
   id="bullet-char-template-10146"
   transform="matrix(4.8828125e-4,0,0,-4.8828125e-4,0,0)">
   <path
   d="M 174,0 602,739 174,1481 1456,739 Z M 1358,739 309,1346 659,739 Z"
   id="path940"
   inkscape:connector-curvature="0" />
  </g>
  <g
   id="bullet-char-template-10132"
   transform="matrix(4.8828125e-4,0,0,-4.8828125e-4,0,0)">
   <path
   d="M 2015,739 1276,0 H 717 l 543,543 H 174 v 393 h 1086 l -543,545 h 557 z"
   id="path943"
   inkscape:connector-curvature="0" />
  </g>
  <g
   id="bullet-char-template-10007"
   transform="matrix(4.8828125e-4,0,0,-4.8828125e-4,0,0)">
   <path
   d="m 0,-2 c -7,16 -16,29 -25,39 l 381,530 c -94,256 -141,385 -141,387 0,25 13,38 40,38 9,0 21,-2 34,-5 21,4 42,12 65,25 l 27,-13 111,-251 280,301 64,-25 24,25 c 21,-10 41,-24 62,-43 C 886,937 835,863 770,784 769,783 710,716 594,584 L 774,223 c 0,-27 -21,-55 -63,-84 l 16,-20 C 717,90 699,76 672,76 641,76 570,178 457,381 L 164,-76 c -22,-34 -53,-51 -92,-51 -42,0 -63,17 -64,51 -7,9 -10,24 -10,44 0,9 1,19 2,30 z"
   id="path946"
   inkscape:connector-curvature="0" />
  </g>
  <g
   id="bullet-char-template-10004"
   transform="matrix(4.8828125e-4,0,0,-4.8828125e-4,0,0)">
   <path
   d="M 285,-33 C 182,-33 111,30 74,156 52,228 41,333 41,471 c 0,78 14,145 41,201 34,71 87,106 158,106 53,0 88,-31 106,-94 l 23,-176 c 8,-64 28,-97 59,-98 l 735,706 c 11,11 33,17 66,17 42,0 63,-15 63,-46 V 965 c 0,-36 -10,-64 -30,-84 L 442,47 C 390,-6 338,-33 285,-33 Z"
   id="path949"
   inkscape:connector-curvature="0" />
  </g>
  <g
   id="bullet-char-template-9679"
   transform="matrix(4.8828125e-4,0,0,-4.8828125e-4,0,0)">
   <path
   d="M 813,0 C 632,0 489,54 383,161 276,268 223,411 223,592 c 0,181 53,324 160,431 106,107 249,161 430,161 179,0 323,-54 432,-161 108,-107 162,-251 162,-431 0,-180 -54,-324 -162,-431 C 1136,54 992,0 813,0 Z"
   id="path952"
   inkscape:connector-curvature="0" />
  </g>
  <g
   id="bullet-char-template-8226"
   transform="matrix(4.8828125e-4,0,0,-4.8828125e-4,0,0)">
   <path
   d="m 346,457 c -73,0 -137,26 -191,78 -54,51 -81,114 -81,188 0,73 27,136 81,188 54,52 118,78 191,78 73,0 134,-26 185,-79 51,-51 77,-114 77,-187 0,-75 -25,-137 -76,-188 -50,-52 -112,-78 -186,-78 z"
   id="path955"
   inkscape:connector-curvature="0" />
  </g>
  <g
   id="bullet-char-template-8211"
   transform="matrix(4.8828125e-4,0,0,-4.8828125e-4,0,0)">
   <path
   d="M -4,459 H 1135 V 606 H -4 Z"
   id="path958"
   inkscape:connector-curvature="0" />
  </g>
  <g
   id="bullet-char-template-61548"
   transform="matrix(4.8828125e-4,0,0,-4.8828125e-4,0,0)">
   <path
   d="m 173,740 c 0,163 58,303 173,419 116,115 255,173 419,173 163,0 302,-58 418,-173 116,-116 174,-256 174,-419 0,-163 -58,-303 -174,-418 C 1067,206 928,148 765,148 601,148 462,206 346,322 231,437 173,577 173,740 Z"
   id="path961"
   inkscape:connector-curvature="0" />
  </g>
 </defs>
 <defs
   class="TextEmbeddedBitmaps"
   id="defs966" />
 <g
   id="g971"
   transform="translate(0,-874)">
  <g
   id="id2"
   class="Master_Slide">
   <g
   id="bg-id2"
   class="Background" />
   <g
   id="bo-id2"
   class="BackgroundObjects" />
  </g>
 </g>
 <g
   class="SlideGroup"
   id="g1021"
   transform="translate(0,-874)">
  <g
   id="g1019">
   <g
   id="container-id1">
    <g
   id="id1"
   class="Slide"
   clip-path="url(#presentation_clip_path)">
     <g
   class="Page"
   id="g1015">
      <g
   class="com.sun.star.drawing.ClosedBezierShape"
   id="g978">
       <g
   id="id3">
        <rect
   class="BoundingBox"
   x="17500"
   y="22750"
   width="1315"
   height="2628"
   id="rect973"
   style="fill:none;stroke:none" />
        <path
   d="m 18481,22764 c -234,-60 -472,84 -530,318 l -438,1751 c -59,235 84,472 319,531 35,9 71,13 106,13 196,0 374,-133 424,-331 l 438,-1751 c 59,-235 -84,-472 -319,-531 z"
   id="path975"
   inkscape:connector-curvature="0"
   style="fill:#d99116;stroke:none" />
       </g>
      </g>
      <g
   class="com.sun.star.drawing.ClosedBezierShape"
   id="g985">
       <g
   id="id4">
        <rect
   class="BoundingBox"
   x="0"
   y="7437"
   width="18377"
   height="6565"
   id="rect980"
   style="fill:none;stroke:none" />
        <path
   d="m 13126,14001 c 57,0 113,-11 167,-34 l 4813,-1992 c 223,-92 329,-348 236,-571 -92,-224 -349,-329 -571,-237 L 13126,13089 875,8020 V 7875 C 875,7633 679,7437 438,7437 196,7437 0,7633 0,7875 v 437 c 0,177 107,337 270,404 l 12689,5251 c 53,23 110,34 167,34 z"
   id="path982"
   inkscape:connector-curvature="0"
   style="fill:#d99116;stroke:none" />
       </g>
      </g>
      <g
   class="com.sun.star.drawing.ClosedBezierShape"
   id="g992">
       <g
   id="id5">
        <rect
   class="BoundingBox"
   x="4375"
   y="11812"
   width="14002"
   height="8314"
   id="rect987"
   style="fill:none;stroke:none" />
        <path
   d="m 18330,18482 c -106,-216 -368,-305 -585,-198 -831,411 -2219,888 -4182,954 v -3926 c 0,-241 -196,-437 -437,-437 -242,0 -438,196 -438,437 v 3922 C 7255,19060 5502,15769 5250,15221 v -2971 c 0,-242 -196,-438 -437,-438 -242,0 -438,196 -438,438 v 3062 c 0,56 11,111 31,163 76,190 1938,4650 8720,4650 2370,0 4031,-575 5006,-1057 217,-107 306,-369 198,-586 z"
   id="path989"
   inkscape:connector-curvature="0"
   style="fill:#d99116;stroke:none" />
       </g>
      </g>
      <g
   class="com.sun.star.drawing.ClosedBezierShape"
   id="g999">
       <g
   id="id6">
        <rect
   class="BoundingBox"
   x="19250"
   y="23187"
   width="877"
   height="2189"
   id="rect994"
   style="fill:none;stroke:none" />
        <path
   d="m 19688,23187 c -242,0 -438,196 -438,438 v 1313 c 0,241 196,437 438,437 242,0 438,-196 438,-437 v -1313 c 0,-242 -196,-438 -438,-438 z"
   id="path996"
   inkscape:connector-curvature="0"
   style="fill:#d99116;stroke:none" />
       </g>
      </g>
      <g
   class="com.sun.star.drawing.ClosedBezierShape"
   id="g1006">
       <g
   id="id7">
        <rect
   class="BoundingBox"
   x="0"
   y="874"
   width="26252"
   height="21878"
   id="rect1001"
   style="fill:none;stroke:none" />
        <path
   d="m 25814,7438 c -242,0 -438,196 -438,437 v 145 l -5250,2161 v -791 l 5855,-2423 c 163,-67 270,-227 270,-404 0,-178 -107,-337 -270,-405 L 13293,908 c -108,-44 -227,-44 -335,0 L 270,6158 C 107,6226 0,6385 0,6563 c 0,177 107,337 270,404 l 12688,5250 c 54,22 111,33 168,33 56,0 113,-10 167,-33 l 4588,-1898 c 223,-92 329,-348 237,-572 -93,-223 -349,-328 -572,-236 L 13126,11340 1582,6563 13126,1786 24669,6563 19646,8641 14835,6845 c 25,-91 41,-185 41,-282 0,-736 -769,-1313 -1750,-1313 -982,0 -1750,577 -1750,1313 0,736 768,1312 1750,1312 438,0 828,-119 1132,-312 l 4993,1865 v 1401 1 9376 c -508,182 -875,663 -875,1232 0,724 589,1313 1312,1313 724,0 1313,-589 1313,-1313 0,-569 -367,-1050 -875,-1232 v -2483 c 1256,-948 1706,-2211 1726,-2267 15,-46 24,-94 24,-143 v -3062 c 0,-242 -196,-438 -438,-438 -242,0 -437,196 -437,438 v 2981 c -76,186 -339,758 -875,1322 v -5427 l 5854,-2410 c 164,-67 271,-227 271,-404 v -438 c 0,-241 -196,-437 -437,-437 z M 13126,7000 c -535,0 -876,-259 -876,-437 0,-179 341,-438 876,-438 534,0 875,259 875,438 0,178 -341,437 -875,437 z m 6562,14876 c -241,0 -437,-197 -437,-438 0,-241 196,-437 437,-437 242,0 438,196 438,437 0,241 -196,438 -438,438 z"
   id="path1003"
   inkscape:connector-curvature="0"
   style="fill:#d99116;stroke:none" />
       </g>
      </g>
      <g
   class="com.sun.star.drawing.ClosedBezierShape"
   id="g1013">
       <g
   id="id8">
        <rect
   class="BoundingBox"
   x="20563"
   y="22750"
   width="1315"
   height="2628"
   id="rect1008"
   style="fill:none;stroke:none" />
        <path
   d="m 21425,23081 c -59,-234 -297,-377 -530,-318 -235,59 -378,296 -319,531 l 438,1750 c 50,199 228,332 424,332 35,0 71,-4 106,-13 235,-59 378,-296 319,-531 z"
   id="path1010"
   inkscape:connector-curvature="0"
   style="fill:#d99116;stroke:none" />
       </g>
      </g>
     </g>
    </g>
   </g>
  </g>
 </g>
</svg>