<?xml version="1.0" encoding="UTF-8" standalone="no"?>
<svg
   xmlns:ooo="http://xml.openoffice.org/svg/export"
   xmlns:dc="http://purl.org/dc/elements/1.1/"
   xmlns:cc="http://creativecommons.org/ns#"
   xmlns:rdf="http://www.w3.org/1999/02/22-rdf-syntax-ns#"
   xmlns:svg="http://www.w3.org/2000/svg"
   xmlns="http://www.w3.org/2000/svg"
   xmlns:sodipodi="http://sodipodi.sourceforge.net/DTD/sodipodi-0.dtd"
   xmlns:inkscape="http://www.inkscape.org/namespaces/inkscape"
   version="1.2"
   width="262.5mm"
   height="262.51999mm"
   viewBox="0 0 26250 26251.999"
   preserveAspectRatio="xMidYMid"
   xml:space="preserve"
   id="svg1265"
   sodipodi:docname="faq.svg"
   style="fill-rule:evenodd;stroke-width:28.22200012;stroke-linejoin:round"
   inkscape:version="0.92.4 (5da689c313, 2019-01-14)"><metadata
   id="metadata1269"><rdf:RDF><cc:Work
       rdf:about=""><dc:format>image/svg+xml</dc:format><dc:type
         rdf:resource="http://purl.org/dc/dcmitype/StillImage" /><dc:title></dc:title></cc:Work></rdf:RDF></metadata><sodipodi:namedview
   pagecolor="#ffffff"
   bordercolor="#666666"
   borderopacity="1"
   objecttolerance="10"
   gridtolerance="10"
   guidetolerance="10"
   inkscape:pageopacity="0"
   inkscape:pageshadow="2"
   inkscape:window-width="1920"
   inkscape:window-height="1017"
   id="namedview1267"
   showgrid="false"
   fit-margin-top="0"
   fit-margin-left="0"
   fit-margin-right="0"
   fit-margin-bottom="0"
   inkscape:zoom="0.16819304"
   inkscape:cx="496.06299"
   inkscape:cy="290.62679"
   inkscape:window-x="-4"
   inkscape:window-y="-4"
   inkscape:window-maximized="1"
   inkscape:current-layer="svg1265" />
 <defs
   class="ClipPathGroup"
   id="defs1156">
  <clipPath
   id="presentation_clip_path"
   clipPathUnits="userSpaceOnUse">
   <rect
   x="0"
   y="0"
   width="26250"
   height="37125"
   id="rect1150" />
  </clipPath>
  <clipPath
   id="presentation_clip_path_shrink"
   clipPathUnits="userSpaceOnUse">
   <rect
   x="26"
   y="37"
   width="26198"
   height="37051"
   id="rect1153" />
  </clipPath>
 </defs>
 <defs
   class="TextShapeIndex"
   id="defs1160">
  <g
   ooo:slide="id1"
   ooo:id-list="id3 id4 id5 id6 id7 id8 id9 id10"
   id="g1158" />
 </defs>
 <defs
   class="EmbeddedBulletChars"
   id="defs1192">
  <g
   id="bullet-char-template-57356"
   transform="matrix(4.8828125e-4,0,0,-4.8828125e-4,0,0)">
   <path
   d="M 580,1141 1163,571 580,0 -4,571 Z"
   id="path1162"
   inkscape:connector-curvature="0" />
  </g>
  <g
   id="bullet-char-template-57354"
   transform="matrix(4.8828125e-4,0,0,-4.8828125e-4,0,0)">
   <path
   d="M 8,1128 H 1137 V 0 H 8 Z"
   id="path1165"
   inkscape:connector-curvature="0" />
  </g>
  <g
   id="bullet-char-template-10146"
   transform="matrix(4.8828125e-4,0,0,-4.8828125e-4,0,0)">
   <path
   d="M 174,0 602,739 174,1481 1456,739 Z M 1358,739 309,1346 659,739 Z"
   id="path1168"
   inkscape:connector-curvature="0" />
  </g>
  <g
   id="bullet-char-template-10132"
   transform="matrix(4.8828125e-4,0,0,-4.8828125e-4,0,0)">
   <path
   d="M 2015,739 1276,0 H 717 l 543,543 H 174 v 393 h 1086 l -543,545 h 557 z"
   id="path1171"
   inkscape:connector-curvature="0" />
  </g>
  <g
   id="bullet-char-template-10007"
   transform="matrix(4.8828125e-4,0,0,-4.8828125e-4,0,0)">
   <path
   d="m 0,-2 c -7,16 -16,29 -25,39 l 381,530 c -94,256 -141,385 -141,387 0,25 13,38 40,38 9,0 21,-2 34,-5 21,4 42,12 65,25 l 27,-13 111,-251 280,301 64,-25 24,25 c 21,-10 41,-24 62,-43 C 886,937 835,863 770,784 769,783 710,716 594,584 L 774,223 c 0,-27 -21,-55 -63,-84 l 16,-20 C 717,90 699,76 672,76 641,76 570,178 457,381 L 164,-76 c -22,-34 -53,-51 -92,-51 -42,0 -63,17 -64,51 -7,9 -10,24 -10,44 0,9 1,19 2,30 z"
   id="path1174"
   inkscape:connector-curvature="0" />
  </g>
  <g
   id="bullet-char-template-10004"
   transform="matrix(4.8828125e-4,0,0,-4.8828125e-4,0,0)">
   <path
   d="M 285,-33 C 182,-33 111,30 74,156 52,228 41,333 41,471 c 0,78 14,145 41,201 34,71 87,106 158,106 53,0 88,-31 106,-94 l 23,-176 c 8,-64 28,-97 59,-98 l 735,706 c 11,11 33,17 66,17 42,0 63,-15 63,-46 V 965 c 0,-36 -10,-64 -30,-84 L 442,47 C 390,-6 338,-33 285,-33 Z"
   id="path1177"
   inkscape:connector-curvature="0" />
  </g>
  <g
   id="bullet-char-template-9679"
   transform="matrix(4.8828125e-4,0,0,-4.8828125e-4,0,0)">
   <path
   d="M 813,0 C 632,0 489,54 383,161 276,268 223,411 223,592 c 0,181 53,324 160,431 106,107 249,161 430,161 179,0 323,-54 432,-161 108,-107 162,-251 162,-431 0,-180 -54,-324 -162,-431 C 1136,54 992,0 813,0 Z"
   id="path1180"
   inkscape:connector-curvature="0" />
  </g>
  <g
   id="bullet-char-template-8226"
   transform="matrix(4.8828125e-4,0,0,-4.8828125e-4,0,0)">
   <path
   d="m 346,457 c -73,0 -137,26 -191,78 -54,51 -81,114 -81,188 0,73 27,136 81,188 54,52 118,78 191,78 73,0 134,-26 185,-79 51,-51 77,-114 77,-187 0,-75 -25,-137 -76,-188 -50,-52 -112,-78 -186,-78 z"
   id="path1183"
   inkscape:connector-curvature="0" />
  </g>
  <g
   id="bullet-char-template-8211"
   transform="matrix(4.8828125e-4,0,0,-4.8828125e-4,0,0)">
   <path
   d="M -4,459 H 1135 V 606 H -4 Z"
   id="path1186"
   inkscape:connector-curvature="0" />
  </g>
  <g
   id="bullet-char-template-61548"
   transform="matrix(4.8828125e-4,0,0,-4.8828125e-4,0,0)">
   <path
   d="m 173,740 c 0,163 58,303 173,419 116,115 255,173 419,173 163,0 302,-58 418,-173 116,-116 174,-256 174,-419 0,-163 -58,-303 -174,-418 C 1067,206 928,148 765,148 601,148 462,206 346,322 231,437 173,577 173,740 Z"
   id="path1189"
   inkscape:connector-curvature="0" />
  </g>
 </defs>
 <defs
   class="TextEmbeddedBitmaps"
   id="defs1194" />
 <g
   id="g1199">
  <g
   id="id2"
   class="Master_Slide">
   <g
   id="bg-id2"
   class="Background" />
   <g
   id="bo-id2"
   class="BackgroundObjects" />
  </g>
 </g>
 <g
   class="SlideGroup"
   id="g1263">
  <g
   id="g1261">
   <g
   id="container-id1">
    <g
   id="id1"
   class="Slide"
   clip-path="url(#presentation_clip_path)">
     <g
   class="Page"
   id="g1257">
      <g
   class="com.sun.star.drawing.ClosedBezierShape"
   id="g1206">
       <g
   id="id3">
        <rect
   class="BoundingBox"
   x="0"
   y="8921"
   width="18254"
   height="17331"
   id="rect1201"
   style="fill:none;stroke:none" />
        <path
   d="m 17740,16356 c -283,0 -512,229 -512,512 v 3538 c 0,1414 -1151,2564 -2564,2564 H 9128 c -283,0 -512,229 -513,512 v 1019 L 7391,23278 c -79,-182 -261,-308 -470,-308 H 3589 c -1414,0 -2564,-1150 -2564,-2564 v -7896 c 0,-1414 1150,-2564 2564,-2564 h 5179 c 283,0 512,-229 512,-512 0,-283 -229,-513 -512,-513 H 3589 C 1610,8921 0,10531 0,12510 v 7896 c 0,1979 1610,3589 3589,3589 h 3069 l 2106,2106 c 98,98 229,150 363,150 66,0 132,-13 195,-39 192,-79 317,-266 317,-473 l 1,-1744 h 5024 c 1979,0 3589,-1610 3589,-3589 v -3538 c 0,-283 -230,-512 -513,-512 z"
   id="path1203"
   inkscape:connector-curvature="0"
   style="fill:#d99116;stroke:none" />
       </g>
      </g>
      <g
   class="com.sun.star.drawing.ClosedBezierShape"
   id="g1213">
       <g
   id="id4">
        <rect
   class="BoundingBox"
   x="10049"
   y="0"
   width="16203"
   height="16729"
   id="rect1208"
   style="fill:none;stroke:none" />
        <path
   d="m 18799,0 h -1298 c -4109,0 -7452,3343 -7452,7452 0,4109 3343,7452 7452,7452 h 1298 c 641,0 1276,-81 1891,-242 l 1917,1916 c 98,98 229,150 363,150 66,0 133,-13 196,-39 192,-79 316,-266 316,-474 v -2966 c 812,-657 1486,-1488 1959,-2415 538,-1054 810,-2191 810,-3382 C 26251,3343 22908,0 18799,0 Z m 3862,12589 c -128,97 -204,249 -204,410 v 1979 l -1255,-1254 c -97,-98 -228,-150 -362,-150 -50,0 -101,7 -151,22 -610,188 -1246,283 -1890,283 h -1298 c -3544,0 -6427,-2883 -6427,-6427 0,-3543 2884,-6427 6427,-6427 h 1298 c 3544,0 6427,2884 6427,6427 0,2037 -935,3910 -2565,5137 z"
   id="path1210"
   inkscape:connector-curvature="0"
   style="fill:#d99116;stroke:none" />
       </g>
      </g>
      <g
   class="com.sun.star.drawing.ClosedBezierShape"
   id="g1220">
       <g
   id="id5">
        <rect
   class="BoundingBox"
   x="16121"
   y="3592"
   width="4345"
   height="5986"
   id="rect1215"
   style="fill:none;stroke:none" />
        <path
   d="m 20459,5610 c -74,-1074 -940,-1939 -2013,-2013 -609,-42 -1190,163 -1634,578 -439,410 -690,988 -690,1588 0,283 230,512 513,512 283,0 513,-229 513,-512 0,-321 129,-619 364,-838 234,-219 541,-327 863,-305 566,39 1022,495 1061,1060 39,571 -336,1076 -891,1200 -450,101 -765,492 -765,952 v 1232 c 0,283 230,512 513,512 283,0 513,-229 513,-512 V 7873 c 1033,-250 1727,-1196 1653,-2263 z"
   id="path1217"
   inkscape:connector-curvature="0"
   style="fill:#d99116;stroke:none" />
       </g>
      </g>
      <g
   class="com.sun.star.drawing.ClosedBezierShape"
   id="g1227">
       <g
   id="id6">
        <rect
   class="BoundingBox"
   x="17780"
   y="10578"
   width="1027"
   height="1027"
   id="rect1222"
   style="fill:none;stroke:none" />
        <path
   d="m 18656,10728 c -95,-95 -228,-150 -363,-150 -135,0 -267,55 -363,150 -95,96 -150,228 -150,363 0,136 55,268 150,364 96,95 228,149 363,149 135,0 268,-54 363,-149 95,-96 150,-228 150,-364 0,-135 -55,-267 -150,-363 z"
   id="path1224"
   inkscape:connector-curvature="0"
   style="fill:#d99116;stroke:none" />
       </g>
      </g>
      <g
   class="com.sun.star.drawing.ClosedBezierShape"
   id="g1234">
       <g
   id="id7">
        <rect
   class="BoundingBox"
   x="2769"
   y="15894"
   width="11845"
   height="1027"
   id="rect1229"
   style="fill:none;stroke:none" />
        <path
   d="M 14101,15894 H 3282 c -283,0 -513,230 -513,513 0,284 230,513 513,513 h 10819 c 283,0 512,-229 512,-513 0,-283 -229,-513 -512,-513 z"
   id="path1231"
   inkscape:connector-curvature="0"
   style="fill:#d99116;stroke:none" />
       </g>
      </g>
      <g
   class="com.sun.star.drawing.ClosedBezierShape"
   id="g1241">
       <g
   id="id8">
        <rect
   class="BoundingBox"
   x="13586"
   y="18764"
   width="1027"
   height="1028"
   id="rect1236"
   style="fill:none;stroke:none" />
        <path
   d="m 14462,18915 c -95,-95 -228,-150 -363,-150 -135,0 -267,55 -363,150 -95,96 -150,228 -150,363 0,135 55,268 150,363 96,95 228,150 363,150 135,0 268,-55 363,-150 95,-95 150,-227 150,-363 0,-135 -55,-267 -150,-363 z"
   id="path1238"
   inkscape:connector-curvature="0"
   style="fill:#d99116;stroke:none" />
       </g>
      </g>
      <g
   class="com.sun.star.drawing.ClosedBezierShape"
   id="g1248">
       <g
   id="id9">
        <rect
   class="BoundingBox"
   x="2769"
   y="18764"
   width="9829"
   height="1028"
   id="rect1243"
   style="fill:none;stroke:none" />
        <path
   d="M 12084,18765 H 3282 c -283,0 -513,230 -513,513 0,284 230,513 513,513 h 8802 c 283,0 513,-229 513,-513 0,-283 -230,-513 -513,-513 z"
   id="path1245"
   inkscape:connector-curvature="0"
   style="fill:#d99116;stroke:none" />
       </g>
      </g>
      <g
   class="com.sun.star.drawing.ClosedBezierShape"
   id="g1255">
       <g
   id="id10">
        <rect
   class="BoundingBox"
   x="2769"
   y="13022"
   width="8513"
   height="1027"
   id="rect1250"
   style="fill:none;stroke:none" />
        <path
   d="M 10768,13022 H 3282 c -283,0 -513,230 -513,513 0,284 230,513 513,513 h 7486 c 283,0 513,-229 513,-513 0,-283 -230,-513 -513,-513 z"
   id="path1252"
   inkscape:connector-curvature="0"
   style="fill:#d99116;stroke:none" />
       </g>
      </g>
     </g>
    </g>
   </g>
  </g>
 </g>
</svg>