<?xml version="1.0" encoding="UTF-8" standalone="no"?>
<svg
   xmlns:ooo="http://xml.openoffice.org/svg/export"
   xmlns:dc="http://purl.org/dc/elements/1.1/"
   xmlns:cc="http://creativecommons.org/ns#"
   xmlns:rdf="http://www.w3.org/1999/02/22-rdf-syntax-ns#"
   xmlns:svg="http://www.w3.org/2000/svg"
   xmlns="http://www.w3.org/2000/svg"
   xmlns:sodipodi="http://sodipodi.sourceforge.net/DTD/sodipodi-0.dtd"
   xmlns:inkscape="http://www.inkscape.org/namespaces/inkscape"
   version="1.2"
   width="262.5mm"
   height="262.51999mm"
   viewBox="0 0 26250 26251.999"
   preserveAspectRatio="xMidYMid"
   xml:space="preserve"
   id="svg2134"
   sodipodi:docname="forum.svg"
   style="fill-rule:evenodd;stroke-width:28.22200012;stroke-linejoin:round"
   inkscape:version="0.92.4 (5da689c313, 2019-01-14)"><metadata
   id="metadata2138"><rdf:RDF><cc:Work
       rdf:about=""><dc:format>image/svg+xml</dc:format><dc:type
         rdf:resource="http://purl.org/dc/dcmitype/StillImage" /><dc:title></dc:title></cc:Work></rdf:RDF></metadata><sodipodi:namedview
   pagecolor="#ffffff"
   bordercolor="#666666"
   borderopacity="1"
   objecttolerance="10"
   gridtolerance="10"
   guidetolerance="10"
   inkscape:pageopacity="0"
   inkscape:pageshadow="2"
   inkscape:window-width="802"
   inkscape:window-height="480"
   id="namedview2136"
   showgrid="false"
   fit-margin-top="0"
   fit-margin-left="0"
   fit-margin-right="0"
   fit-margin-bottom="0"
   inkscape:zoom="0.16819304"
   inkscape:cx="496.06299"
   inkscape:cy="290.62679"
   inkscape:window-x="0"
   inkscape:window-y="0"
   inkscape:window-maximized="0"
   inkscape:current-layer="svg2134" />
 <defs
   class="ClipPathGroup"
   id="defs1983">
  <clipPath
   id="presentation_clip_path"
   clipPathUnits="userSpaceOnUse">
   <rect
   x="0"
   y="0"
   width="26250"
   height="37125"
   id="rect1977" />
  </clipPath>
  <clipPath
   id="presentation_clip_path_shrink"
   clipPathUnits="userSpaceOnUse">
   <rect
   x="26"
   y="37"
   width="26198"
   height="37051"
   id="rect1980" />
  </clipPath>
 </defs>
 <defs
   class="TextShapeIndex"
   id="defs1987">
  <g
   ooo:slide="id1"
   ooo:id-list="id3 id4 id5 id6 id7 id8 id9 id10 id11 id12 id13 id14 id15 id16"
   id="g1985" />
 </defs>
 <defs
   class="EmbeddedBulletChars"
   id="defs2019">
  <g
   id="bullet-char-template-57356"
   transform="matrix(4.8828125e-4,0,0,-4.8828125e-4,0,0)">
   <path
   d="M 580,1141 1163,571 580,0 -4,571 Z"
   id="path1989"
   inkscape:connector-curvature="0" />
  </g>
  <g
   id="bullet-char-template-57354"
   transform="matrix(4.8828125e-4,0,0,-4.8828125e-4,0,0)">
   <path
   d="M 8,1128 H 1137 V 0 H 8 Z"
   id="path1992"
   inkscape:connector-curvature="0" />
  </g>
  <g
   id="bullet-char-template-10146"
   transform="matrix(4.8828125e-4,0,0,-4.8828125e-4,0,0)">
   <path
   d="M 174,0 602,739 174,1481 1456,739 Z M 1358,739 309,1346 659,739 Z"
   id="path1995"
   inkscape:connector-curvature="0" />
  </g>
  <g
   id="bullet-char-template-10132"
   transform="matrix(4.8828125e-4,0,0,-4.8828125e-4,0,0)">
   <path
   d="M 2015,739 1276,0 H 717 l 543,543 H 174 v 393 h 1086 l -543,545 h 557 z"
   id="path1998"
   inkscape:connector-curvature="0" />
  </g>
  <g
   id="bullet-char-template-10007"
   transform="matrix(4.8828125e-4,0,0,-4.8828125e-4,0,0)">
   <path
   d="m 0,-2 c -7,16 -16,29 -25,39 l 381,530 c -94,256 -141,385 -141,387 0,25 13,38 40,38 9,0 21,-2 34,-5 21,4 42,12 65,25 l 27,-13 111,-251 280,301 64,-25 24,25 c 21,-10 41,-24 62,-43 C 886,937 835,863 770,784 769,783 710,716 594,584 L 774,223 c 0,-27 -21,-55 -63,-84 l 16,-20 C 717,90 699,76 672,76 641,76 570,178 457,381 L 164,-76 c -22,-34 -53,-51 -92,-51 -42,0 -63,17 -64,51 -7,9 -10,24 -10,44 0,9 1,19 2,30 z"
   id="path2001"
   inkscape:connector-curvature="0" />
  </g>
  <g
   id="bullet-char-template-10004"
   transform="matrix(4.8828125e-4,0,0,-4.8828125e-4,0,0)">
   <path
   d="M 285,-33 C 182,-33 111,30 74,156 52,228 41,333 41,471 c 0,78 14,145 41,201 34,71 87,106 158,106 53,0 88,-31 106,-94 l 23,-176 c 8,-64 28,-97 59,-98 l 735,706 c 11,11 33,17 66,17 42,0 63,-15 63,-46 V 965 c 0,-36 -10,-64 -30,-84 L 442,47 C 390,-6 338,-33 285,-33 Z"
   id="path2004"
   inkscape:connector-curvature="0" />
  </g>
  <g
   id="bullet-char-template-9679"
   transform="matrix(4.8828125e-4,0,0,-4.8828125e-4,0,0)">
   <path
   d="M 813,0 C 632,0 489,54 383,161 276,268 223,411 223,592 c 0,181 53,324 160,431 106,107 249,161 430,161 179,0 323,-54 432,-161 108,-107 162,-251 162,-431 0,-180 -54,-324 -162,-431 C 1136,54 992,0 813,0 Z"
   id="path2007"
   inkscape:connector-curvature="0" />
  </g>
  <g
   id="bullet-char-template-8226"
   transform="matrix(4.8828125e-4,0,0,-4.8828125e-4,0,0)">
   <path
   d="m 346,457 c -73,0 -137,26 -191,78 -54,51 -81,114 -81,188 0,73 27,136 81,188 54,52 118,78 191,78 73,0 134,-26 185,-79 51,-51 77,-114 77,-187 0,-75 -25,-137 -76,-188 -50,-52 -112,-78 -186,-78 z"
   id="path2010"
   inkscape:connector-curvature="0" />
  </g>
  <g
   id="bullet-char-template-8211"
   transform="matrix(4.8828125e-4,0,0,-4.8828125e-4,0,0)">
   <path
   d="M -4,459 H 1135 V 606 H -4 Z"
   id="path2013"
   inkscape:connector-curvature="0" />
  </g>
  <g
   id="bullet-char-template-61548"
   transform="matrix(4.8828125e-4,0,0,-4.8828125e-4,0,0)">
   <path
   d="m 173,740 c 0,163 58,303 173,419 116,115 255,173 419,173 163,0 302,-58 418,-173 116,-116 174,-256 174,-419 0,-163 -58,-303 -174,-418 C 1067,206 928,148 765,148 601,148 462,206 346,322 231,437 173,577 173,740 Z"
   id="path2016"
   inkscape:connector-curvature="0" />
  </g>
 </defs>
 <defs
   class="TextEmbeddedBitmaps"
   id="defs2021" />
 <g
   id="g2026">
  <g
   id="id2"
   class="Master_Slide">
   <g
   id="bg-id2"
   class="Background" />
   <g
   id="bo-id2"
   class="BackgroundObjects" />
  </g>
 </g>
 <g
   class="SlideGroup"
   id="g2132">
  <g
   id="g2130">
   <g
   id="container-id1">
    <g
   id="id1"
   class="Slide"
   clip-path="url(#presentation_clip_path)">
     <g
   class="Page"
   id="g2126">
      <g
   class="com.sun.star.drawing.ClosedBezierShape"
   id="g2033">
       <g
   id="id3">
        <rect
   class="BoundingBox"
   x="3500"
   y="20999"
   width="2627"
   height="878"
   id="rect2028"
   style="fill:none;stroke:none" />
        <path
   d="m 3938,21000 c -242,0 -438,196 -438,438 0,242 196,438 438,438 h 1750 c 242,0 438,-196 438,-438 0,-242 -196,-438 -438,-438 z"
   id="path2030"
   inkscape:connector-curvature="0"
   style="fill:#d99116;stroke:none" />
       </g>
      </g>
      <g
   class="com.sun.star.drawing.ClosedBezierShape"
   id="g2040">
       <g
   id="id4">
        <rect
   class="BoundingBox"
   x="0"
   y="14000"
   width="17502"
   height="12252"
   id="rect2035"
   style="fill:none;stroke:none" />
        <path
   d="M 17063,14000 H 2027 C 909,14000 0,14981 0,16188 v 7875 c 0,1207 909,2188 2027,2188 h 10638 c 1178,0 2211,-1022 2211,-2190 v -4812 c -2,-241 -197,-436 -438,-436 h -2 c -241,1 -437,198 -435,440 v 4810 c 0,740 -718,1313 -1336,1313 H 2027 c -635,0 -1152,-589 -1152,-1313 v -7875 c 0,-724 517,-1313 1152,-1313 h 13985 l -2736,2754 c -170,172 -169,449 2,619 172,171 449,170 619,-2 l 3477,-3500 c 124,-126 161,-313 93,-477 -67,-163 -227,-269 -404,-269 z"
   id="path2037"
   inkscape:connector-curvature="0"
   style="fill:#d99116;stroke:none" />
       </g>
      </g>
      <g
   class="com.sun.star.drawing.ClosedBezierShape"
   id="g2047">
       <g
   id="id5">
        <rect
   class="BoundingBox"
   x="3500"
   y="18374"
   width="6127"
   height="878"
   id="rect2042"
   style="fill:none;stroke:none" />
        <path
   d="m 9626,18813 c 0,-242 -196,-438 -438,-438 H 3938 c -242,0 -438,196 -438,438 0,242 196,438 438,438 h 5250 c 242,0 438,-196 438,-438 z"
   id="path2044"
   inkscape:connector-curvature="0"
   style="fill:#d99116;stroke:none" />
       </g>
      </g>
      <g
   class="com.sun.star.drawing.ClosedBezierShape"
   id="g2054">
       <g
   id="id6">
        <rect
   class="BoundingBox"
   x="0"
   y="0"
   width="7877"
   height="8752"
   id="rect2049"
   style="fill:none;stroke:none" />
        <path
   d="m 455,5143 c 83,840 449,1581 466,1616 397,793 996,1992 3017,1992 2021,0 2620,-1199 3016,-1992 18,-35 384,-776 467,-1616 271,-149 455,-438 455,-768 v -875 c 0,-323 -176,-606 -438,-757 V 2625 C 7438,1177 6261,0 4813,0 H 3063 C 1615,0 438,1177 438,2625 v 118 C 176,2894 0,3177 0,3500 v 876 c 0,329 184,618 455,767 z M 875,3500 c 242,0 438,-196 438,-437 v -438 c 0,-965 785,-1750 1750,-1750 h 1750 c 965,0 1750,785 1750,1750 v 438 c 0,241 196,437 438,437 v 875 c -242,0 -438,197 -438,438 0,757 -387,1547 -391,1555 -455,911 -857,1508 -2234,1508 -1377,0 -1779,-597 -2234,-1508 -4,-8 -391,-798 -391,-1555 0,-241 -196,-437 -438,-437 z"
   id="path2051"
   inkscape:connector-curvature="0"
   style="fill:#d99116;stroke:none" />
       </g>
      </g>
      <g
   class="com.sun.star.drawing.ClosedBezierShape"
   id="g2061">
       <g
   id="id7">
        <rect
   class="BoundingBox"
   x="4375"
   y="3500"
   width="1315"
   height="877"
   id="rect2056"
   style="fill:none;stroke:none" />
        <path
   d="m 4813,4376 h 438 c 241,0 437,-196 437,-438 0,-242 -196,-438 -437,-438 h -438 c -242,0 -438,196 -438,438 0,242 196,438 438,438 z"
   id="path2058"
   inkscape:connector-curvature="0"
   style="fill:#d99116;stroke:none" />
       </g>
      </g>
      <g
   class="com.sun.star.drawing.ClosedBezierShape"
   id="g2068">
       <g
   id="id8">
        <rect
   class="BoundingBox"
   x="2188"
   y="3500"
   width="1314"
   height="877"
   id="rect2063"
   style="fill:none;stroke:none" />
        <path
   d="m 2626,4376 h 438 c 241,0 437,-196 437,-438 0,-242 -196,-438 -437,-438 h -438 c -242,0 -438,196 -438,438 0,242 196,438 438,438 z"
   id="path2065"
   inkscape:connector-curvature="0"
   style="fill:#d99116;stroke:none" />
       </g>
      </g>
      <g
   class="com.sun.star.drawing.ClosedBezierShape"
   id="g2075">
       <g
   id="id9">
        <rect
   class="BoundingBox"
   x="14875"
   y="7000"
   width="2627"
   height="877"
   id="rect2070"
   style="fill:none;stroke:none" />
        <path
   d="m 15313,7876 h 1750 c 242,0 438,-196 438,-438 0,-242 -196,-438 -438,-438 h -1750 c -242,0 -438,196 -438,438 0,242 196,438 438,438 z"
   id="path2072"
   inkscape:connector-curvature="0"
   style="fill:#d99116;stroke:none" />
       </g>
      </g>
      <g
   class="com.sun.star.drawing.ClosedBezierShape"
   id="g2082">
       <g
   id="id10">
        <rect
   class="BoundingBox"
   x="14875"
   y="4375"
   width="6127"
   height="877"
   id="rect2077"
   style="fill:none;stroke:none" />
        <path
   d="m 20563,4375 h -5250 c -242,0 -438,196 -438,438 0,242 196,438 438,438 h 5250 c 242,0 438,-196 438,-438 0,-242 -196,-438 -438,-438 z"
   id="path2079"
   inkscape:connector-curvature="0"
   style="fill:#d99116;stroke:none" />
       </g>
      </g>
      <g
   class="com.sun.star.drawing.ClosedBezierShape"
   id="g2089">
       <g
   id="id11">
        <rect
   class="BoundingBox"
   x="8750"
   y="0"
   width="17503"
   height="12252"
   id="rect2084"
   style="fill:none;stroke:none" />
        <path
   d="M 24063,0 H 9188 c -177,0 -337,107 -405,270 -68,164 -30,352 95,477 l 3501,3500 c 171,171 447,171 618,0 172,-171 172,-447 0,-619 L 10244,875 h 13819 c 724,0 1313,589 1313,1313 v 7875 c 0,724 -589,1313 -1313,1313 H 13562 c -723,0 -1312,-589 -1312,-1313 V 5250 c 0,-241 -196,-437 -437,-437 -242,0 -438,196 -438,437 v 4813 c 0,1207 982,2188 2187,2188 h 10501 c 1206,0 2188,-981 2188,-2188 V 2188 C 26251,981 25269,0 24063,0 Z"
   id="path2086"
   inkscape:connector-curvature="0"
   style="fill:#d99116;stroke:none" />
       </g>
      </g>
      <g
   class="com.sun.star.drawing.ClosedBezierShape"
   id="g2096">
       <g
   id="id12">
        <rect
   class="BoundingBox"
   x="18375"
   y="7000"
   width="4377"
   height="877"
   id="rect2091"
   style="fill:none;stroke:none" />
        <path
   d="m 18375,7438 c 0,242 196,438 438,438 h 3500 c 242,0 438,-196 438,-438 0,-242 -196,-438 -438,-438 h -3500 c -242,0 -438,196 -438,438 z"
   id="path2093"
   inkscape:connector-curvature="0"
   style="fill:#d99116;stroke:none" />
       </g>
      </g>
      <g
   class="com.sun.star.drawing.ClosedBezierShape"
   id="g2103">
       <g
   id="id13">
        <rect
   class="BoundingBox"
   x="22750"
   y="17500"
   width="1314"
   height="877"
   id="rect2098"
   style="fill:none;stroke:none" />
        <path
   d="m 23626,17500 h -438 c -242,0 -438,196 -438,438 0,242 196,438 438,438 h 438 c 242,0 437,-196 437,-438 0,-242 -195,-438 -437,-438 z"
   id="path2100"
   inkscape:connector-curvature="0"
   style="fill:#d99116;stroke:none" />
       </g>
      </g>
      <g
   class="com.sun.star.drawing.ClosedBezierShape"
   id="g2110">
       <g
   id="id14">
        <rect
   class="BoundingBox"
   x="20563"
   y="17500"
   width="1315"
   height="877"
   id="rect2105"
   style="fill:none;stroke:none" />
        <path
   d="m 21439,17500 h -438 c -242,0 -438,196 -438,438 0,242 196,438 438,438 h 438 c 242,0 437,-196 437,-438 0,-242 -195,-438 -437,-438 z"
   id="path2107"
   inkscape:connector-curvature="0"
   style="fill:#d99116;stroke:none" />
       </g>
      </g>
      <g
   class="com.sun.star.drawing.ClosedBezierShape"
   id="g2117">
       <g
   id="id15">
        <rect
   class="BoundingBox"
   x="7000"
   y="20999"
   width="4377"
   height="878"
   id="rect2112"
   style="fill:none;stroke:none" />
        <path
   d="m 7438,21876 h 3500 c 242,0 438,-196 438,-438 0,-242 -196,-438 -438,-438 H 7438 c -242,0 -438,196 -438,438 0,242 196,438 438,438 z"
   id="path2114"
   inkscape:connector-curvature="0"
   style="fill:#d99116;stroke:none" />
       </g>
      </g>
      <g
   class="com.sun.star.drawing.ClosedBezierShape"
   id="g2124">
       <g
   id="id16">
        <rect
   class="BoundingBox"
   x="18375"
   y="14000"
   width="7877"
   height="8752"
   id="rect2119"
   style="fill:none;stroke:none" />
        <path
   d="m 25813,16743 v -118 c 0,-1448 -1177,-2625 -2625,-2625 h -1750 c -1448,0 -2625,1177 -2625,2625 v 118 c -262,151 -438,434 -438,757 v 875 c 0,330 184,619 454,768 84,840 450,1581 467,1616 397,793 996,1992 3017,1992 2021,0 2620,-1199 3017,-1992 17,-35 383,-776 467,-1616 270,-149 454,-438 454,-768 v -875 c 0,-323 -176,-606 -438,-757 z m -437,1632 c -242,0 -438,197 -438,438 0,757 -387,1547 -391,1555 -455,911 -857,1508 -2234,1508 -1377,0 -1779,-597 -2234,-1508 -4,-8 -391,-798 -391,-1555 0,-241 -196,-438 -438,-438 v -875 c 242,0 438,-196 438,-437 v -438 c 0,-965 785,-1750 1750,-1750 h 1750 c 965,0 1750,785 1750,1750 v 438 c 0,241 196,437 438,437 z"
   id="path2121"
   inkscape:connector-curvature="0"
   style="fill:#d99116;stroke:none" />
       </g>
      </g>
     </g>
    </g>
   </g>
  </g>
 </g>
</svg>