<?xml version="1.0" encoding="UTF-8" standalone="no"?>
<svg
   xmlns:ooo="http://xml.openoffice.org/svg/export"
   xmlns:dc="http://purl.org/dc/elements/1.1/"
   xmlns:cc="http://creativecommons.org/ns#"
   xmlns:rdf="http://www.w3.org/1999/02/22-rdf-syntax-ns#"
   xmlns:svg="http://www.w3.org/2000/svg"
   xmlns="http://www.w3.org/2000/svg"
   xmlns:sodipodi="http://sodipodi.sourceforge.net/DTD/sodipodi-0.dtd"
   xmlns:inkscape="http://www.inkscape.org/namespaces/inkscape"
   version="1.2"
   width="262.5mm"
   height="262.51999mm"
   viewBox="0 0 26250 26251.999"
   preserveAspectRatio="xMidYMid"
   xml:space="preserve"
   id="svg3087"
   sodipodi:docname="library.svg"
   style="fill-rule:evenodd;stroke-width:28.22200012;stroke-linejoin:round"
   inkscape:version="0.92.4 (5da689c313, 2019-01-14)"><metadata
   id="metadata3091"><rdf:RDF><cc:Work
       rdf:about=""><dc:format>image/svg+xml</dc:format><dc:type
         rdf:resource="http://purl.org/dc/dcmitype/StillImage" /><dc:title></dc:title></cc:Work></rdf:RDF></metadata><sodipodi:namedview
   pagecolor="#ffffff"
   bordercolor="#666666"
   borderopacity="1"
   objecttolerance="10"
   gridtolerance="10"
   guidetolerance="10"
   inkscape:pageopacity="0"
   inkscape:pageshadow="2"
   inkscape:window-width="802"
   inkscape:window-height="480"
   id="namedview3089"
   showgrid="false"
   fit-margin-top="0"
   fit-margin-left="0"
   fit-margin-right="0"
   fit-margin-bottom="0"
   inkscape:zoom="0.16819304"
   inkscape:cx="496.06299"
   inkscape:cy="290.62679"
   inkscape:window-x="0"
   inkscape:window-y="0"
   inkscape:window-maximized="0"
   inkscape:current-layer="svg3087" />
 <defs
   class="ClipPathGroup"
   id="defs2894">
  <clipPath
   id="presentation_clip_path"
   clipPathUnits="userSpaceOnUse">
   <rect
   x="0"
   y="0"
   width="26250"
   height="37125"
   id="rect2888" />
  </clipPath>
  <clipPath
   id="presentation_clip_path_shrink"
   clipPathUnits="userSpaceOnUse">
   <rect
   x="26"
   y="37"
   width="26198"
   height="37051"
   id="rect2891" />
  </clipPath>
 </defs>
 <defs
   class="TextShapeIndex"
   id="defs2898">
  <g
   ooo:slide="id1"
   ooo:id-list="id3 id4 id5 id6 id7 id8 id9 id10 id11 id12 id13 id14 id15 id16 id17 id18 id19 id20 id21 id22"
   id="g2896" />
 </defs>
 <defs
   class="EmbeddedBulletChars"
   id="defs2930">
  <g
   id="bullet-char-template-57356"
   transform="matrix(4.8828125e-4,0,0,-4.8828125e-4,0,0)">
   <path
   d="M 580,1141 1163,571 580,0 -4,571 Z"
   id="path2900"
   inkscape:connector-curvature="0" />
  </g>
  <g
   id="bullet-char-template-57354"
   transform="matrix(4.8828125e-4,0,0,-4.8828125e-4,0,0)">
   <path
   d="M 8,1128 H 1137 V 0 H 8 Z"
   id="path2903"
   inkscape:connector-curvature="0" />
  </g>
  <g
   id="bullet-char-template-10146"
   transform="matrix(4.8828125e-4,0,0,-4.8828125e-4,0,0)">
   <path
   d="M 174,0 602,739 174,1481 1456,739 Z M 1358,739 309,1346 659,739 Z"
   id="path2906"
   inkscape:connector-curvature="0" />
  </g>
  <g
   id="bullet-char-template-10132"
   transform="matrix(4.8828125e-4,0,0,-4.8828125e-4,0,0)">
   <path
   d="M 2015,739 1276,0 H 717 l 543,543 H 174 v 393 h 1086 l -543,545 h 557 z"
   id="path2909"
   inkscape:connector-curvature="0" />
  </g>
  <g
   id="bullet-char-template-10007"
   transform="matrix(4.8828125e-4,0,0,-4.8828125e-4,0,0)">
   <path
   d="m 0,-2 c -7,16 -16,29 -25,39 l 381,530 c -94,256 -141,385 -141,387 0,25 13,38 40,38 9,0 21,-2 34,-5 21,4 42,12 65,25 l 27,-13 111,-251 280,301 64,-25 24,25 c 21,-10 41,-24 62,-43 C 886,937 835,863 770,784 769,783 710,716 594,584 L 774,223 c 0,-27 -21,-55 -63,-84 l 16,-20 C 717,90 699,76 672,76 641,76 570,178 457,381 L 164,-76 c -22,-34 -53,-51 -92,-51 -42,0 -63,17 -64,51 -7,9 -10,24 -10,44 0,9 1,19 2,30 z"
   id="path2912"
   inkscape:connector-curvature="0" />
  </g>
  <g
   id="bullet-char-template-10004"
   transform="matrix(4.8828125e-4,0,0,-4.8828125e-4,0,0)">
   <path
   d="M 285,-33 C 182,-33 111,30 74,156 52,228 41,333 41,471 c 0,78 14,145 41,201 34,71 87,106 158,106 53,0 88,-31 106,-94 l 23,-176 c 8,-64 28,-97 59,-98 l 735,706 c 11,11 33,17 66,17 42,0 63,-15 63,-46 V 965 c 0,-36 -10,-64 -30,-84 L 442,47 C 390,-6 338,-33 285,-33 Z"
   id="path2915"
   inkscape:connector-curvature="0" />
  </g>
  <g
   id="bullet-char-template-9679"
   transform="matrix(4.8828125e-4,0,0,-4.8828125e-4,0,0)">
   <path
   d="M 813,0 C 632,0 489,54 383,161 276,268 223,411 223,592 c 0,181 53,324 160,431 106,107 249,161 430,161 179,0 323,-54 432,-161 108,-107 162,-251 162,-431 0,-180 -54,-324 -162,-431 C 1136,54 992,0 813,0 Z"
   id="path2918"
   inkscape:connector-curvature="0" />
  </g>
  <g
   id="bullet-char-template-8226"
   transform="matrix(4.8828125e-4,0,0,-4.8828125e-4,0,0)">
   <path
   d="m 346,457 c -73,0 -137,26 -191,78 -54,51 -81,114 -81,188 0,73 27,136 81,188 54,52 118,78 191,78 73,0 134,-26 185,-79 51,-51 77,-114 77,-187 0,-75 -25,-137 -76,-188 -50,-52 -112,-78 -186,-78 z"
   id="path2921"
   inkscape:connector-curvature="0" />
  </g>
  <g
   id="bullet-char-template-8211"
   transform="matrix(4.8828125e-4,0,0,-4.8828125e-4,0,0)">
   <path
   d="M -4,459 H 1135 V 606 H -4 Z"
   id="path2924"
   inkscape:connector-curvature="0" />
  </g>
  <g
   id="bullet-char-template-61548"
   transform="matrix(4.8828125e-4,0,0,-4.8828125e-4,0,0)">
   <path
   d="m 173,740 c 0,163 58,303 173,419 116,115 255,173 419,173 163,0 302,-58 418,-173 116,-116 174,-256 174,-419 0,-163 -58,-303 -174,-418 C 1067,206 928,148 765,148 601,148 462,206 346,322 231,437 173,577 173,740 Z"
   id="path2927"
   inkscape:connector-curvature="0" />
  </g>
 </defs>
 <defs
   class="TextEmbeddedBitmaps"
   id="defs2932" />
 <g
   id="g2937">
  <g
   id="id2"
   class="Master_Slide">
   <g
   id="bg-id2"
   class="Background" />
   <g
   id="bo-id2"
   class="BackgroundObjects" />
  </g>
 </g>
 <g
   class="SlideGroup"
   id="g3085">
  <g
   id="g3083">
   <g
   id="container-id1">
    <g
   id="id1"
   class="Slide"
   clip-path="url(#presentation_clip_path)">
     <g
   class="Page"
   id="g3079">
      <g
   class="com.sun.star.drawing.ClosedBezierShape"
   id="g2944">
       <g
   id="id3">
        <rect
   class="BoundingBox"
   x="17500"
   y="8750"
   width="1752"
   height="877"
   id="rect2939"
   style="fill:none;stroke:none" />
        <path
   d="m 18813,8750 h -875 c -242,0 -438,196 -438,438 0,242 196,438 438,438 h 875 c 242,0 438,-196 438,-438 0,-242 -196,-438 -438,-438 z"
   id="path2941"
   inkscape:connector-curvature="0"
   style="fill:#d99116;stroke:none" />
       </g>
      </g>
      <g
   class="com.sun.star.drawing.ClosedBezierShape"
   id="g2951">
       <g
   id="id4">
        <rect
   class="BoundingBox"
   x="17500"
   y="10499"
   width="1752"
   height="878"
   id="rect2946"
   style="fill:none;stroke:none" />
        <path
   d="m 18813,10500 h -875 c -242,0 -438,196 -438,438 0,242 196,438 438,438 h 875 c 242,0 438,-196 438,-438 0,-242 -196,-438 -438,-438 z"
   id="path2948"
   inkscape:connector-curvature="0"
   style="fill:#d99116;stroke:none" />
       </g>
      </g>
      <g
   class="com.sun.star.drawing.ClosedBezierShape"
   id="g2958">
       <g
   id="id5">
        <rect
   class="BoundingBox"
   x="17500"
   y="7000"
   width="1752"
   height="877"
   id="rect2953"
   style="fill:none;stroke:none" />
        <path
   d="m 18813,7000 h -875 c -242,0 -438,196 -438,438 0,242 196,438 438,438 h 875 c 242,0 438,-196 438,-438 0,-242 -196,-438 -438,-438 z"
   id="path2955"
   inkscape:connector-curvature="0"
   style="fill:#d99116;stroke:none" />
       </g>
      </g>
      <g
   class="com.sun.star.drawing.ClosedBezierShape"
   id="g2965">
       <g
   id="id6">
        <rect
   class="BoundingBox"
   x="17500"
   y="20999"
   width="1752"
   height="878"
   id="rect2960"
   style="fill:none;stroke:none" />
        <path
   d="m 18813,21000 h -875 c -242,0 -438,196 -438,438 0,242 196,438 438,438 h 875 c 242,0 438,-196 438,-438 0,-242 -196,-438 -438,-438 z"
   id="path2962"
   inkscape:connector-curvature="0"
   style="fill:#d99116;stroke:none" />
       </g>
      </g>
      <g
   class="com.sun.star.drawing.ClosedBezierShape"
   id="g2972">
       <g
   id="id7">
        <rect
   class="BoundingBox"
   x="6125"
   y="7000"
   width="3502"
   height="7002"
   id="rect2967"
   style="fill:none;stroke:none" />
        <path
   d="M 9188,7000 H 6563 c -242,0 -438,196 -438,438 v 6125 c 0,242 196,438 438,438 h 2625 c 242,0 438,-196 438,-438 V 7438 c 0,-242 -196,-438 -438,-438 z m -437,6126 H 7000 V 7875 h 1751 z"
   id="path2969"
   inkscape:connector-curvature="0"
   style="fill:#d99116;stroke:none" />
       </g>
      </g>
      <g
   class="com.sun.star.drawing.ClosedBezierShape"
   id="g2979">
       <g
   id="id8">
        <rect
   class="BoundingBox"
   x="6125"
   y="20999"
   width="3502"
   height="878"
   id="rect2974"
   style="fill:none;stroke:none" />
        <path
   d="M 9188,21000 H 6563 c -242,0 -438,196 -438,438 0,242 196,438 438,438 h 2625 c 242,0 438,-196 438,-438 0,-242 -196,-438 -438,-438 z"
   id="path2976"
   inkscape:connector-curvature="0"
   style="fill:#d99116;stroke:none" />
       </g>
      </g>
      <g
   class="com.sun.star.drawing.ClosedBezierShape"
   id="g2986">
       <g
   id="id9">
        <rect
   class="BoundingBox"
   x="6125"
   y="22750"
   width="3502"
   height="877"
   id="rect2981"
   style="fill:none;stroke:none" />
        <path
   d="M 9188,22750 H 6563 c -242,0 -438,196 -438,438 0,242 196,438 438,438 h 2625 c 242,0 438,-196 438,-438 0,-242 -196,-438 -438,-438 z"
   id="path2983"
   inkscape:connector-curvature="0"
   style="fill:#d99116;stroke:none" />
       </g>
      </g>
      <g
   class="com.sun.star.drawing.ClosedBezierShape"
   id="g2993">
       <g
   id="id10">
        <rect
   class="BoundingBox"
   x="17500"
   y="22750"
   width="1752"
   height="877"
   id="rect2988"
   style="fill:none;stroke:none" />
        <path
   d="m 18813,22750 h -875 c -242,0 -438,196 -438,438 0,242 196,438 438,438 h 875 c 242,0 438,-196 438,-438 0,-242 -196,-438 -438,-438 z"
   id="path2990"
   inkscape:connector-curvature="0"
   style="fill:#d99116;stroke:none" />
       </g>
      </g>
      <g
   class="com.sun.star.drawing.ClosedBezierShape"
   id="g3000">
       <g
   id="id11">
        <rect
   class="BoundingBox"
   x="21875"
   y="22750"
   width="2627"
   height="877"
   id="rect2995"
   style="fill:none;stroke:none" />
        <path
   d="m 24063,22750 h -1750 c -242,0 -438,196 -438,438 0,242 196,438 438,438 h 1750 c 242,0 438,-196 438,-438 0,-242 -196,-438 -438,-438 z"
   id="path2997"
   inkscape:connector-curvature="0"
   style="fill:#d99116;stroke:none" />
       </g>
      </g>
      <g
   class="com.sun.star.drawing.ClosedBezierShape"
   id="g3007">
       <g
   id="id12">
        <rect
   class="BoundingBox"
   x="12250"
   y="7000"
   width="2628"
   height="7002"
   id="rect3002"
   style="fill:none;stroke:none" />
        <path
   d="m 14876,7438 c 0,-242 -196,-438 -438,-438 h -1750 c -242,0 -438,196 -438,438 v 6125 c 0,242 196,438 438,438 h 1750 c 242,0 438,-196 438,-438 z m -875,5688 h -876 V 7875 h 876 z"
   id="path3004"
   inkscape:connector-curvature="0"
   style="fill:#d99116;stroke:none" />
       </g>
      </g>
      <g
   class="com.sun.star.drawing.ClosedBezierShape"
   id="g3014">
       <g
   id="id13">
        <rect
   class="BoundingBox"
   x="21875"
   y="20999"
   width="2627"
   height="878"
   id="rect3009"
   style="fill:none;stroke:none" />
        <path
   d="m 24063,21000 h -1750 c -242,0 -438,196 -438,438 0,242 196,438 438,438 h 1750 c 242,0 438,-196 438,-438 0,-242 -196,-438 -438,-438 z"
   id="path3011"
   inkscape:connector-curvature="0"
   style="fill:#d99116;stroke:none" />
       </g>
      </g>
      <g
   class="com.sun.star.drawing.ClosedBezierShape"
   id="g3021">
       <g
   id="id14">
        <rect
   class="BoundingBox"
   x="12250"
   y="22750"
   width="2628"
   height="877"
   id="rect3016"
   style="fill:none;stroke:none" />
        <path
   d="m 14438,22750 h -1750 c -242,0 -438,196 -438,438 0,242 196,438 438,438 h 1750 c 242,0 438,-196 438,-438 0,-242 -196,-438 -438,-438 z"
   id="path3018"
   inkscape:connector-curvature="0"
   style="fill:#d99116;stroke:none" />
       </g>
      </g>
      <g
   class="com.sun.star.drawing.ClosedBezierShape"
   id="g3028">
       <g
   id="id15">
        <rect
   class="BoundingBox"
   x="21875"
   y="10500"
   width="877"
   height="5252"
   id="rect3023"
   style="fill:none;stroke:none" />
        <path
   d="m 22313,15751 c 242,0 438,-196 438,-438 v -4375 c 0,-242 -196,-438 -438,-438 -242,0 -438,196 -438,438 v 4375 c 0,242 196,438 438,438 z"
   id="path3025"
   inkscape:connector-curvature="0"
   style="fill:#d99116;stroke:none" />
       </g>
      </g>
      <g
   class="com.sun.star.drawing.ClosedBezierShape"
   id="g3035">
       <g
   id="id16">
        <rect
   class="BoundingBox"
   x="23624"
   y="10500"
   width="878"
   height="5252"
   id="rect3030"
   style="fill:none;stroke:none" />
        <path
   d="m 24501,10938 c 0,-242 -196,-438 -438,-438 -242,0 -438,196 -438,438 v 4375 c 0,242 196,438 438,438 242,0 438,-196 438,-438 z"
   id="path3032"
   inkscape:connector-curvature="0"
   style="fill:#d99116;stroke:none" />
       </g>
      </g>
      <g
   class="com.sun.star.drawing.ClosedBezierShape"
   id="g3042">
       <g
   id="id17">
        <rect
   class="BoundingBox"
   x="0"
   y="0"
   width="26252"
   height="26252"
   id="rect3037"
   style="fill:none;stroke:none" />
        <path
   d="m 24938,3500 h -2625 c -241,0 -437,196 -437,438 0,241 196,437 437,437 h 2625 c 242,0 438,197 438,438 v 20125 c 0,242 -196,438 -438,438 H 21001 V 7000 h 2625 c 241,0 437,-196 437,-437 0,-242 -196,-438 -437,-438 H 21001 V 2188 c 0,-736 -577,-1313 -1313,-1313 h -2625 c -723,0 -1312,589 -1312,1313 V 25376 H 11375 V 2625 h 3063 c 242,0 438,-196 438,-437 0,-242 -196,-438 -438,-438 H 11375 V 1313 C 11375,577 10799,0 10063,0 H 5688 C 4964,0 4375,589 4375,1313 V 5250 H 2188 c -242,0 -438,196 -438,438 0,241 196,437 438,437 H 4375 V 25376 H 1313 c -242,0 -438,-196 -438,-438 V 3938 c 0,-241 196,-438 438,-438 h 1750 c 241,0 437,-196 437,-437 0,-242 -196,-438 -437,-438 H 1313 C 589,2625 0,3214 0,3938 v 21000 c 0,724 589,1313 1313,1313 h 23625 c 724,0 1313,-589 1313,-1313 V 4813 c 0,-724 -589,-1313 -1313,-1313 z M 10500,25376 H 5250 V 3500 h 3938 c 241,0 437,-196 437,-437 0,-242 -196,-438 -437,-438 H 5250 V 1313 c 0,-246 192,-438 438,-438 h 4375 c 249,0 437,188 437,438 z m 9626,0 H 16626 V 4375 h 2187 c 242,0 438,-196 438,-437 0,-242 -196,-438 -438,-438 H 16626 V 2188 c 0,-246 192,-438 437,-438 h 2625 c 250,0 438,188 438,438 z"
   id="path3039"
   inkscape:connector-curvature="0"
   style="fill:#d99116;stroke:none" />
       </g>
      </g>
      <g
   class="com.sun.star.drawing.ClosedBezierShape"
   id="g3049">
       <g
   id="id18">
        <rect
   class="BoundingBox"
   x="1750"
   y="20999"
   width="1752"
   height="878"
   id="rect3044"
   style="fill:none;stroke:none" />
        <path
   d="m 3063,21000 h -875 c -242,0 -438,196 -438,438 0,242 196,438 438,438 h 875 c 242,0 438,-196 438,-438 0,-242 -196,-438 -438,-438 z"
   id="path3046"
   inkscape:connector-curvature="0"
   style="fill:#d99116;stroke:none" />
       </g>
      </g>
      <g
   class="com.sun.star.drawing.ClosedBezierShape"
   id="g3056">
       <g
   id="id19">
        <rect
   class="BoundingBox"
   x="1750"
   y="22750"
   width="1752"
   height="877"
   id="rect3051"
   style="fill:none;stroke:none" />
        <path
   d="m 3063,22750 h -875 c -242,0 -438,196 -438,438 0,242 196,438 438,438 h 875 c 242,0 438,-196 438,-438 0,-242 -196,-438 -438,-438 z"
   id="path3053"
   inkscape:connector-curvature="0"
   style="fill:#d99116;stroke:none" />
       </g>
      </g>
      <g
   class="com.sun.star.drawing.ClosedBezierShape"
   id="g3063">
       <g
   id="id20">
        <rect
   class="BoundingBox"
   x="12250"
   y="20999"
   width="2628"
   height="878"
   id="rect3058"
   style="fill:none;stroke:none" />
        <path
   d="m 14438,21000 h -1750 c -242,0 -438,196 -438,438 0,242 196,438 438,438 h 1750 c 242,0 438,-196 438,-438 0,-242 -196,-438 -438,-438 z"
   id="path3060"
   inkscape:connector-curvature="0"
   style="fill:#d99116;stroke:none" />
       </g>
      </g>
      <g
   class="com.sun.star.drawing.ClosedBezierShape"
   id="g3070">
       <g
   id="id21">
        <rect
   class="BoundingBox"
   x="1750"
   y="10499"
   width="1752"
   height="878"
   id="rect3065"
   style="fill:none;stroke:none" />
        <path
   d="m 3063,10500 h -875 c -242,0 -438,196 -438,438 0,242 196,438 438,438 h 875 c 242,0 438,-196 438,-438 0,-242 -196,-438 -438,-438 z"
   id="path3067"
   inkscape:connector-curvature="0"
   style="fill:#d99116;stroke:none" />
       </g>
      </g>
      <g
   class="com.sun.star.drawing.ClosedBezierShape"
   id="g3077">
       <g
   id="id22">
        <rect
   class="BoundingBox"
   x="1750"
   y="12250"
   width="1752"
   height="877"
   id="rect3072"
   style="fill:none;stroke:none" />
        <path
   d="m 3063,12250 h -875 c -242,0 -438,196 -438,438 0,242 196,438 438,438 h 875 c 242,0 438,-196 438,-438 0,-242 -196,-438 -438,-438 z"
   id="path3074"
   inkscape:connector-curvature="0"
   style="fill:#d99116;stroke:none" />
       </g>
      </g>
     </g>
    </g>
   </g>
  </g>
 </g>
</svg>