<?xml version="1.0" encoding="UTF-8" standalone="no"?>
<svg
   xmlns:ooo="http://xml.openoffice.org/svg/export"
   xmlns:dc="http://purl.org/dc/elements/1.1/"
   xmlns:cc="http://creativecommons.org/ns#"
   xmlns:rdf="http://www.w3.org/1999/02/22-rdf-syntax-ns#"
   xmlns:svg="http://www.w3.org/2000/svg"
   xmlns="http://www.w3.org/2000/svg"
   xmlns:sodipodi="http://sodipodi.sourceforge.net/DTD/sodipodi-0.dtd"
   xmlns:inkscape="http://www.inkscape.org/namespaces/inkscape"
   version="1.2"
   width="198.73341mm"
   height="225.78mm"
   viewBox="0 0 19873.341 22578"
   preserveAspectRatio="xMidYMid"
   xml:space="preserve"
   id="svg3802"
   sodipodi:docname="video.svg"
   style="fill-rule:evenodd;stroke-width:28.22200012;stroke-linejoin:round"
   inkscape:version="0.92.4 (5da689c313, 2019-01-14)"><metadata
   id="metadata3806"><rdf:RDF><cc:Work
       rdf:about=""><dc:format>image/svg+xml</dc:format><dc:type
         rdf:resource="http://purl.org/dc/dcmitype/StillImage" /><dc:title></dc:title></cc:Work></rdf:RDF></metadata><sodipodi:namedview
   pagecolor="#ffffff"
   bordercolor="#666666"
   borderopacity="1"
   objecttolerance="10"
   gridtolerance="10"
   guidetolerance="10"
   inkscape:pageopacity="0"
   inkscape:pageshadow="2"
   inkscape:window-width="802"
   inkscape:window-height="480"
   id="namedview3804"
   showgrid="false"
   fit-margin-top="0"
   fit-margin-left="0"
   fit-margin-right="0"
   fit-margin-bottom="0"
   inkscape:zoom="0.27655978"
   inkscape:cx="375.01764"
   inkscape:cy="426.67087"
   inkscape:window-x="0"
   inkscape:window-y="0"
   inkscape:window-maximized="0"
   inkscape:current-layer="svg3802" />
 <defs
   class="ClipPathGroup"
   id="defs3728">
  <clipPath
   id="presentation_clip_path"
   clipPathUnits="userSpaceOnUse">
   <rect
   x="0"
   y="0"
   width="22578"
   height="22578"
   id="rect3722" />
  </clipPath>
  <clipPath
   id="presentation_clip_path_shrink"
   clipPathUnits="userSpaceOnUse">
   <rect
   x="22"
   y="22"
   width="22533"
   height="22533"
   id="rect3725" />
  </clipPath>
 </defs>
 <defs
   class="TextShapeIndex"
   id="defs3732">
  <g
   ooo:slide="id1"
   ooo:id-list="id3 id4 id5"
   id="g3730" />
 </defs>
 <defs
   class="EmbeddedBulletChars"
   id="defs3764">
  <g
   id="bullet-char-template-57356"
   transform="matrix(4.8828125e-4,0,0,-4.8828125e-4,0,0)">
   <path
   d="M 580,1141 1163,571 580,0 -4,571 Z"
   id="path3734"
   inkscape:connector-curvature="0" />
  </g>
  <g
   id="bullet-char-template-57354"
   transform="matrix(4.8828125e-4,0,0,-4.8828125e-4,0,0)">
   <path
   d="M 8,1128 H 1137 V 0 H 8 Z"
   id="path3737"
   inkscape:connector-curvature="0" />
  </g>
  <g
   id="bullet-char-template-10146"
   transform="matrix(4.8828125e-4,0,0,-4.8828125e-4,0,0)">
   <path
   d="M 174,0 602,739 174,1481 1456,739 Z M 1358,739 309,1346 659,739 Z"
   id="path3740"
   inkscape:connector-curvature="0" />
  </g>
  <g
   id="bullet-char-template-10132"
   transform="matrix(4.8828125e-4,0,0,-4.8828125e-4,0,0)">
   <path
   d="M 2015,739 1276,0 H 717 l 543,543 H 174 v 393 h 1086 l -543,545 h 557 z"
   id="path3743"
   inkscape:connector-curvature="0" />
  </g>
  <g
   id="bullet-char-template-10007"
   transform="matrix(4.8828125e-4,0,0,-4.8828125e-4,0,0)">
   <path
   d="m 0,-2 c -7,16 -16,29 -25,39 l 381,530 c -94,256 -141,385 -141,387 0,25 13,38 40,38 9,0 21,-2 34,-5 21,4 42,12 65,25 l 27,-13 111,-251 280,301 64,-25 24,25 c 21,-10 41,-24 62,-43 C 886,937 835,863 770,784 769,783 710,716 594,584 L 774,223 c 0,-27 -21,-55 -63,-84 l 16,-20 C 717,90 699,76 672,76 641,76 570,178 457,381 L 164,-76 c -22,-34 -53,-51 -92,-51 -42,0 -63,17 -64,51 -7,9 -10,24 -10,44 0,9 1,19 2,30 z"
   id="path3746"
   inkscape:connector-curvature="0" />
  </g>
  <g
   id="bullet-char-template-10004"
   transform="matrix(4.8828125e-4,0,0,-4.8828125e-4,0,0)">
   <path
   d="M 285,-33 C 182,-33 111,30 74,156 52,228 41,333 41,471 c 0,78 14,145 41,201 34,71 87,106 158,106 53,0 88,-31 106,-94 l 23,-176 c 8,-64 28,-97 59,-98 l 735,706 c 11,11 33,17 66,17 42,0 63,-15 63,-46 V 965 c 0,-36 -10,-64 -30,-84 L 442,47 C 390,-6 338,-33 285,-33 Z"
   id="path3749"
   inkscape:connector-curvature="0" />
  </g>
  <g
   id="bullet-char-template-9679"
   transform="matrix(4.8828125e-4,0,0,-4.8828125e-4,0,0)">
   <path
   d="M 813,0 C 632,0 489,54 383,161 276,268 223,411 223,592 c 0,181 53,324 160,431 106,107 249,161 430,161 179,0 323,-54 432,-161 108,-107 162,-251 162,-431 0,-180 -54,-324 -162,-431 C 1136,54 992,0 813,0 Z"
   id="path3752"
   inkscape:connector-curvature="0" />
  </g>
  <g
   id="bullet-char-template-8226"
   transform="matrix(4.8828125e-4,0,0,-4.8828125e-4,0,0)">
   <path
   d="m 346,457 c -73,0 -137,26 -191,78 -54,51 -81,114 -81,188 0,73 27,136 81,188 54,52 118,78 191,78 73,0 134,-26 185,-79 51,-51 77,-114 77,-187 0,-75 -25,-137 -76,-188 -50,-52 -112,-78 -186,-78 z"
   id="path3755"
   inkscape:connector-curvature="0" />
  </g>
  <g
   id="bullet-char-template-8211"
   transform="matrix(4.8828125e-4,0,0,-4.8828125e-4,0,0)">
   <path
   d="M -4,459 H 1135 V 606 H -4 Z"
   id="path3758"
   inkscape:connector-curvature="0" />
  </g>
  <g
   id="bullet-char-template-61548"
   transform="matrix(4.8828125e-4,0,0,-4.8828125e-4,0,0)">
   <path
   d="m 173,740 c 0,163 58,303 173,419 116,115 255,173 419,173 163,0 302,-58 418,-173 116,-116 174,-256 174,-419 0,-163 -58,-303 -174,-418 C 1067,206 928,148 765,148 601,148 462,206 346,322 231,437 173,577 173,740 Z"
   id="path3761"
   inkscape:connector-curvature="0" />
  </g>
 </defs>
 <defs
   class="TextEmbeddedBitmaps"
   id="defs3766" />
 <g
   id="g3771"
   transform="translate(-1366.6582)">
  <g
   id="id2"
   class="Master_Slide">
   <g
   id="bg-id2"
   class="Background" />
   <g
   id="bo-id2"
   class="BackgroundObjects" />
  </g>
 </g>
 <g
   class="SlideGroup"
   id="g3800"
   transform="translate(-1366.6582)">
  <g
   id="g3798">
   <g
   id="container-id1">
    <g
   id="id1"
   class="Slide"
   clip-path="url(#presentation_clip_path)">
     <g
   class="Page"
   id="g3794">
      <g
   class="com.sun.star.drawing.ClosedBezierShape"
   id="g3778">
       <g
   id="id3">
        <rect
   class="BoundingBox"
   x="1367"
   y="0"
   width="19873"
   height="22580"
   id="rect3773"
   style="fill:none;stroke:none" />
        <path
   d="M 20797,9114 H 5751 L 20202,4928 c 113,-33 207,-109 264,-211 56,-102 70,-223 37,-335 L 19747,1771 C 19445,728 18474,0 17386,0 c -229,0 -458,33 -679,97 L 3139,4027 c -628,182 -1148,599 -1465,1175 -317,575 -392,1238 -210,1865 l 739,2551 v 10507 c 0,1353 1101,2454 2454,2454 h 5299 c 244,0 441,-198 441,-441 0,-244 -197,-441 -441,-441 H 4657 c -867,0 -1572,-705 -1572,-1572 v -6002 h 2259 1 1 3454 1 1 3453 1 1 3454 1 1 4643 v 6002 c 0,867 -706,1572 -1573,1572 h -5299 c -243,0 -441,197 -441,441 0,243 198,441 441,441 h 5299 c 1354,0 2455,-1101 2455,-2454 V 9555 c 0,-243 -198,-441 -441,-441 z m -7777,4127 1874,-3245 h 2437 l -1873,3245 z m -3455,0 1874,-3245 h 2437 l -1874,3245 z m -3456,0 1874,-3245 h 2437 L 8546,13241 Z M 7749,7532 4611,4519 6962,3838 c 17,24 36,47 58,68 l 3138,3013 -2351,681 c -17,-24 -36,-47 -58,-68 z m 5909,-5549 3138,3013 -2351,681 c -17,-24 -36,-47 -58,-68 l -3137,-3013 2350,-681 c 17,24 36,47 58,68 z m -3319,961 3138,3014 -2351,681 c -17,-24 -36,-47 -58,-68 L 7930,3557 10281,2876 c 17,24 36,47 58,68 z M 16952,944 c 142,-41 288,-62 434,-62 698,0 1320,466 1514,1135 l 634,2186 -1770,513 c -17,-24 -36,-47 -58,-68 L 14569,1634 Z M 2446,5627 c 204,-369 537,-636 938,-753 l 259,-75 c 17,24 36,47 58,68 L 6839,7881 2945,9009 2311,6822 c -116,-401 -68,-826 135,-1195 z m 639,4369 H 6964 L 5091,13241 H 3085 Z m 13391,3245 1874,-3245 h 2006 v 3245 z m 0,0 z"
   id="path3775"
   inkscape:connector-curvature="0"
   style="fill:#d99116;stroke:none" />
       </g>
      </g>
      <g
   class="com.sun.star.drawing.ClosedBezierShape"
   id="g3785">
       <g
   id="id4">
        <rect
   class="BoundingBox"
   x="10013"
   y="15187"
   width="4758"
   height="5358"
   id="rect3780"
   style="fill:none;stroke:none" />
        <path
   d="m 14770,17865 c 0,-157 -84,-303 -220,-382 l -3875,-2237 c -137,-79 -305,-79 -441,0 -137,79 -221,224 -221,382 v 4474 c 0,158 84,303 221,382 68,40 144,59 220,59 76,0 152,-19 221,-59 l 3875,-2237 c 136,-79 220,-224 220,-382 z m -3875,1473 v -2946 l 2552,1473 z m 0,0 z"
   id="path3782"
   inkscape:connector-curvature="0"
   style="fill:#d99116;stroke:none" />
       </g>
      </g>
      <g
   class="com.sun.star.drawing.ClosedBezierShape"
   id="g3792">
       <g
   id="id5">
        <rect
   class="BoundingBox"
   x="11279"
   y="21696"
   width="884"
   height="885"
   id="rect3787"
   style="fill:none;stroke:none" />
        <path
   d="m 11720,21696 c -243,0 -441,198 -441,441 0,244 198,442 441,442 244,0 442,-198 442,-442 0,-243 -198,-441 -442,-441 z m 0,0 z"
   id="path3789"
   inkscape:connector-curvature="0"
   style="fill:#d99116;stroke:none" />
       </g>
      </g>
     </g>
    </g>
   </g>
  </g>
 </g>
</svg>