<svg xmlns="http://www.w3.org/2000/svg" viewBox="0 0 25.18 17"><title>ПочтаРесурс 2@2x</title><g id="Слой_2" data-name="Слой 2"><g id="Слой_1-2" data-name="Слой 1"><path d="M2884.48,628.12l-5.95-6,5.95-5.95v11.91Zm-.94,2.55h-23.28a1,1,0,0,1-.6-.21l6.94-6.94,3.29,3.28a2.82,2.82,0,0,0,4,0l3.3-3.3,6.95,7a.9.9,0,0,1-.6.22Zm-24.24-14.46,6,6-6,6V616.21Zm.37-2.34,0,0,0,0,0,0,0,0,0,0h0l0,0h0l0,0h23.82l0,0h0l0,0h0l0,0,0,0,0,0,0,0,0,0,0,0-11.57,11.57a.94.94,0,0,1-1.34,0l-11.57-11.57,0,0Z" transform="translate(-2859.3 -613.67)"/></g></g></svg>