<svg xmlns="http://www.w3.org/2000/svg" xmlns:xlink="http://www.w3.org/1999/xlink" viewBox="0 0 24.59 24.59"><defs><style>.cls-1{fill:none;}.cls-2{clip-path:url(#clip-path);}</style><clipPath id="clip-path" transform="translate(-22.74 -12.48)"><polygon class="cls-1" points="47.37 12.45 47.37 37.1 22.72 37.1 22.72 12.45 47.37 12.45 47.37 12.45"/></clipPath></defs><title>ТелефонРесурс 1@2x</title><g id="Слой_2" data-name="Слой 2"><g id="Слой_1-2" data-name="Слой 1"><g class="cls-2"><path d="M22.74,15.37a2.9,2.9,0,0,1,2.89-2.89h3.88A2.89,2.89,0,0,1,32.38,15a13.53,13.53,0,0,0,.52,2.53,2.88,2.88,0,0,1-.71,2.89L30.62,22a18.13,18.13,0,0,0,7.16,7.16l1.57-1.57a2.86,2.86,0,0,1,2.89-.71,14.76,14.76,0,0,0,2.53.52,2.88,2.88,0,0,1,2.56,2.87v3.88a2.92,2.92,0,0,1-.94,2.13,2.87,2.87,0,0,1-2.22.74,23.35,23.35,0,0,1-8-2.19A23.76,23.76,0,0,1,22.75,15.64c0-.09,0-.18,0-.27Z" transform="translate(-22.74 -12.48)"/></g></g></g></svg>