<svg xmlns="http://www.w3.org/2000/svg" viewBox="0 0 196.8 156.9"><defs><style>.cls-1{fill:#ed9718;}</style></defs><title>Ресурс 1</title><g id="Слой_2" data-name="Слой 2"><g id="Слой_1-2" data-name="Слой 1"><path class="cls-1" d="M178.6,75.3a25,25,0,0,0-10.1-47.4V13.7A13.72,13.72,0,0,0,154.8,0H14.6A13.72,13.72,0,0,0,.9,13.7V37.1a2.22,2.22,0,0,0,2.2,2.2,2.22,2.22,0,0,0,2.2-2.2V22.7H164.1v5.4a25,25,0,0,0-7.7,47.2,35.71,35.71,0,0,0-24.6,33.9v20.3H14.6a9.35,9.35,0,0,1-9.3-9.3V66.9a2.22,2.22,0,0,0-2.2-2.2A2.22,2.22,0,0,0,.9,66.9v53.3a13.72,13.72,0,0,0,13.7,13.7H82.5v23h4.4v-23h44.8v23h4.4V109.2a31.31,31.31,0,0,1,60.7-10.8V88.9A35.62,35.62,0,0,0,178.6,75.3ZM5.3,18.3V13.7a9.35,9.35,0,0,1,9.3-9.3H154.8a9.35,9.35,0,0,1,9.3,9.3v4.7H5.3ZM146.9,52.9a20.6,20.6,0,1,1,20.6,20.6A20.57,20.57,0,0,1,146.9,52.9Z"/><path class="cls-1" d="M100.8,70.7a2.2,2.2,0,0,0,2,1.2,3.55,3.55,0,0,0,1-.2l22.4-11.5a2.24,2.24,0,0,0-1-4.2H42.9A13.72,13.72,0,0,0,29.2,69.7V95.1a13.72,13.72,0,0,0,13.7,13.7H99.2a13.72,13.72,0,0,0,13.7-13.7V73.3a2.2,2.2,0,0,0-4.4,0V95.1a9.35,9.35,0,0,1-9.3,9.3H42.9a9.35,9.35,0,0,1-9.3-9.3V69.7a9.35,9.35,0,0,1,9.3-9.3H116l-14.3,7.4A2.21,2.21,0,0,0,100.8,70.7Z"/><path class="cls-1" d="M83.4,80.1a2.22,2.22,0,0,0-2.2-2.2H43.4a2.2,2.2,0,0,0,0,4.4H81.2A2.22,2.22,0,0,0,83.4,80.1Z"/><path class="cls-1" d="M43.4,90a2.2,2.2,0,1,0,0,4.4H55.6a2.2,2.2,0,0,0,0-4.4Z"/><path class="cls-1" d="M64.5,94.4H92.1a2.2,2.2,0,0,0,0-4.4H64.5a2.2,2.2,0,0,0,0,4.4Z"/><path class="cls-1" d="M6.7,51.5v.3a2.46,2.46,0,0,1-.5,1.5h0a3.46,3.46,0,0,1-2.8,1.5A3.37,3.37,0,0,1,0,51.4v-.3a2.69,2.69,0,0,1,.5-1.5A3.56,3.56,0,0,1,3.3,48,3.6,3.6,0,0,1,6.7,51.5Z"/></g></g></svg>