<svg xmlns="http://www.w3.org/2000/svg" viewBox="0 0 181.1 187.1"><defs><style>.cls-1{fill:#ed9718;}</style></defs><title>Ресурс 1</title><g id="Слой_2" data-name="Слой 2"><g id="Слой_1-2" data-name="Слой 1"><path class="cls-1" d="M163.9,181.6c1.7,1.9,3.4,3.8,5.2,5.5h-6.2c-.8-.9-1.6-1.7-2.4-2.6a2.21,2.21,0,0,1,.2-3.1A2.15,2.15,0,0,1,163.9,181.6Z"/><path class="cls-1" d="M152.1,167.6a2.2,2.2,0,1,1-3.4,2.8l-24.6-29.1a2.28,2.28,0,0,1,.1-3l1.1-1.1-5.8-5.9a73.82,73.82,0,0,1-98.1-5.5A73.24,73.24,0,0,1,0,79.3V79a2.33,2.33,0,0,1,2.3-2.3,2.38,2.38,0,0,1,2.2,1.6,2.77,2.77,0,0,0,.1.9,69.08,69.08,0,0,0,20,43.4c25.3,25.3,66.4,27,93.6,4a2.17,2.17,0,0,1,3,.1l8.8,8.8a2.12,2.12,0,0,1,0,3.1l-1.2,1.2Z"/><path class="cls-1" d="M181.1,158.1v5.8c-.3-.3-.6-.5-.9-.8L139.7,129l-1.2,1.2a2.12,2.12,0,0,1-3.1,0l-8.8-8.8a2.17,2.17,0,0,1-.1-3c23-27.3,21.3-68.4-3.9-93.6a69.29,69.29,0,0,0-98,0A67.89,67.89,0,0,0,8.2,50.9a4.18,4.18,0,0,1-.4,1h0a2.3,2.3,0,0,1-4.2-1.3v-.2c.1-.3.2-.7.3-1A72.1,72.1,0,0,1,21.4,21.6a73.7,73.7,0,0,1,109.7,98.1l5.8,5.8,1.1-1.1a2.17,2.17,0,0,1,3-.1Z"/><path class="cls-1" d="M158.5,180.6a2.29,2.29,0,0,1-1.7-.8l-4.4-5.2a2.2,2.2,0,0,1,3.4-2.8l4.4,5.2a2.13,2.13,0,0,1-.3,3.1A1.87,1.87,0,0,1,158.5,180.6Z"/><path class="cls-1" d="M68.1,61.6H39.7a2.2,2.2,0,1,1,0-4.4H68.1a2.2,2.2,0,1,1,0,4.4Z"/><path class="cls-1" d="M61,73.6H39.7a2.2,2.2,0,0,1,0-4.4H61a2.2,2.2,0,0,1,0,4.4Z"/><path class="cls-1" d="M58.3,84.4H39.6a2.2,2.2,0,0,1,0-4.4H58.3a2.2,2.2,0,0,1,0,4.4Z"/><path class="cls-1" d="M68.1,84.4H64A2.2,2.2,0,0,1,64,80h4.1a2.2,2.2,0,0,1,0,4.4Z"/><path class="cls-1" d="M119.1,88h0V48.6c0-9-5.7-16.3-12.6-16.3H39.4c-7,0-12.6,7.3-12.6,16.3V88a7.12,7.12,0,0,0-5.9,7.1v.3a7.17,7.17,0,0,0,7.2,7.2H118a7.17,7.17,0,0,0,7.2-7.2v-.3A7.47,7.47,0,0,0,119.1,88Zm-88-37.2h83.5V87.9H31.1Zm43-11.6a2.33,2.33,0,0,1,2.3,2.3,2.26,2.26,0,0,1-2.3,2.3,2.3,2.3,0,0,1,0-4.6Zm40.4,7.2H76.8a5.55,5.55,0,0,0,2.7-4.7,5.38,5.38,0,0,0-3-4.9h30.1C110.4,36.8,113.8,41,114.5,46.4ZM39.3,36.8H71.4a5.49,5.49,0,0,0-3,4.9,5.42,5.42,0,0,0,2.7,4.7H31.4C32,41,35.4,36.8,39.3,36.8Zm81.3,58.7a2.8,2.8,0,0,1-2.8,2.8H27.9a2.8,2.8,0,0,1-2.8-2.8v-.3a2.8,2.8,0,0,1,2.8-2.8h89.9a2.8,2.8,0,0,1,2.8,2.8Z"/><path class="cls-1" d="M104.9,57.1H79.6a2.22,2.22,0,0,0-2.2,2.2v22a2.22,2.22,0,0,0,2.2,2.2h25.3a2.22,2.22,0,0,0,2.2-2.2v-22A2.22,2.22,0,0,0,104.9,57.1Zm-2.2,22.1H81.8V61.6h20.9Z"/><path class="cls-1" d="M5.4,63.9v.2a1.78,1.78,0,0,1-.4,1H5a2.28,2.28,0,0,1-1.9,1A2.26,2.26,0,0,1,.8,63.8v-.2a2.93,2.93,0,0,1,.3-1A2.37,2.37,0,0,1,3,61.5,2.43,2.43,0,0,1,5.4,63.9Z"/></g></g></svg>