<svg xmlns="http://www.w3.org/2000/svg" viewBox="0 0 118.2 165.3"><defs><style>.cls-1{fill:#ed9718;}</style></defs><title>Ресурс 2</title><g id="Слой_2" data-name="Слой 2"><g id="Слой_1-2" data-name="Слой 1"><path class="cls-1" d="M62.4,40.1H95.7a2.2,2.2,0,1,0,0-4.4H62.4a2.22,2.22,0,0,0-2.2,2.2A2.16,2.16,0,0,0,62.4,40.1Z"/><path class="cls-1" d="M62.4,50.8H73.2a2.2,2.2,0,0,0,0-4.4H62.4a2.22,2.22,0,0,0-2.2,2.2A2.16,2.16,0,0,0,62.4,50.8Z"/><path class="cls-1" d="M105.2,46.4H80.9a2.2,2.2,0,0,0,0,4.4h24.3a2.2,2.2,0,1,0,0-4.4Z"/><path class="cls-1" d="M62.4,89.9H95.7a2.2,2.2,0,0,0,0-4.4H62.4a2.22,2.22,0,0,0-2.2,2.2A2.16,2.16,0,0,0,62.4,89.9Z"/><path class="cls-1" d="M62.4,100.5H73.2a2.2,2.2,0,0,0,0-4.4H62.4a2.22,2.22,0,0,0-2.2,2.2A2.16,2.16,0,0,0,62.4,100.5Z"/><path class="cls-1" d="M105.2,96.1H80.9a2.2,2.2,0,0,0,0,4.4h24.3a2.2,2.2,0,0,0,0-4.4Z"/><path class="cls-1" d="M62.4,139.6H95.7a2.2,2.2,0,0,0,0-4.4H62.4a2.22,2.22,0,0,0-2.2,2.2A2.16,2.16,0,0,0,62.4,139.6Z"/><path class="cls-1" d="M73.1,145.8H62.3a2.2,2.2,0,0,0,0,4.4H73.1a2.2,2.2,0,1,0,0-4.4Z"/><path class="cls-1" d="M105.2,145.8H80.9a2.2,2.2,0,0,0,0,4.4h24.3a2.2,2.2,0,1,0,0-4.4Z"/><path class="cls-1" d="M42.9,26.1H21.8a6.59,6.59,0,0,0-6.6,6.6V53.8a6.59,6.59,0,0,0,6.6,6.6H42.9a6.66,6.66,0,0,0,6.6-6.6V32.7A6.53,6.53,0,0,0,42.9,26.1Zm2.3,27.7A2.22,2.22,0,0,1,43,56H21.9a2.22,2.22,0,0,1-2.2-2.2V32.7a2.22,2.22,0,0,1,2.2-2.2H43a2.22,2.22,0,0,1,2.2,2.2Z"/><path class="cls-1" d="M42.9,75.6H21.8a6.59,6.59,0,0,0-6.6,6.6v21.1a6.66,6.66,0,0,0,6.6,6.6H42.9a6.66,6.66,0,0,0,6.6-6.6V82.2A6.47,6.47,0,0,0,42.9,75.6Zm2.3,27.7a2.22,2.22,0,0,1-2.2,2.2H21.9a2.22,2.22,0,0,1-2.2-2.2V82.2A2.22,2.22,0,0,1,21.9,80H43a2.22,2.22,0,0,1,2.2,2.2Z"/><path class="cls-1" d="M42.9,125H21.8a6.59,6.59,0,0,0-6.6,6.6v21.1a6.59,6.59,0,0,0,6.6,6.6H42.9a6.66,6.66,0,0,0,6.6-6.6V131.6A6.53,6.53,0,0,0,42.9,125Zm2.3,27.7a2.22,2.22,0,0,1-2.2,2.2H21.9a2.22,2.22,0,0,1-2.2-2.2V131.6a2.22,2.22,0,0,1,2.2-2.2H43a2.22,2.22,0,0,1,2.2,2.2Z"/><path class="cls-1" d="M5.5,130.5a2.22,2.22,0,0,0-2.2-2.2,2.22,2.22,0,0,0-2.2,2.2v33.4a6.6,6.6,0,0,0,.1,1.4H5.6a6.15,6.15,0,0,1-.1-1.4V130.5Z"/><path class="cls-1" d="M99.8,12.2A14.52,14.52,0,0,0,85.5,0H60.6A14.52,14.52,0,0,0,46.3,12.2H13.9a13,13,0,0,0-13,13v76a2.22,2.22,0,0,0,2.2,2.2,2.22,2.22,0,0,0,2.2-2.2v-76a8.6,8.6,0,0,1,8.6-8.6H118.2V12.2Zm-48.9,0a10,10,0,0,1,9.8-7.8H85.6a10.09,10.09,0,0,1,9.8,7.8Z"/><path class="cls-1" d="M6.7,116v.3a2.46,2.46,0,0,1-.5,1.5h0a3.46,3.46,0,0,1-2.8,1.5A3.37,3.37,0,0,1,0,115.9v-.3a2.69,2.69,0,0,1,.5-1.5,3.56,3.56,0,0,1,2.8-1.6A3.59,3.59,0,0,1,6.7,116Z"/></g></g></svg>