<?xml version="1.0" encoding="utf-8"?>
<!-- Generator: Adobe Illustrator 22.0.1, SVG Export Plug-In . SVG Version: 6.00 Build 0)  -->
<svg version="1.1" id="Слой_1" xmlns="http://www.w3.org/2000/svg" xmlns:xlink="http://www.w3.org/1999/xlink" x="0px" y="0px"
	 viewBox="0 0 197 157.1" style="enable-background:new 0 0 197 157.1;" xml:space="preserve">
<style type="text/css">
	.st0{fill:#00264C;}
</style>
<path class="st0" d="M178.7,75.4c8.2-4.1,13.9-12.6,13.9-22.4c0-13.4-10.7-24.4-24-25V13.7c0-7.6-6.2-13.7-13.7-13.7H14.7
	C7.2,0,1,6.2,1,13.7v23.4c0,1.2,1,2.2,2.2,2.2c1.2,0,2.2-1,2.2-2.2V22.8h158.8v5.4C152,29.9,142.6,40.4,142.6,53
	c0,9.8,5.7,18.3,13.9,22.4c-14.3,4.7-24.6,18.1-24.6,33.9v20.3H14.7c-5.1,0-9.3-4.2-9.3-9.3V67c0-1.2-1-2.2-2.2-2.2
	C2,64.8,1,65.8,1,67v53.3c0,7.6,6.2,13.7,13.7,13.7h67.9v23H87v-23h44.8v23h4.4v-47.7c0-17.3,14-31.3,31.3-31.3
	c13.5,0,25,8.6,29.4,20.5v-9.5C192.6,82.7,186.2,77.9,178.7,75.4z M5.4,18.4v-4.7c0-5.1,4.2-9.3,9.3-9.3h140.2
	c5.1,0,9.3,4.2,9.3,9.3v4.7H5.4z M147,53c0-11.4,9.2-20.6,20.6-20.6c11.4,0,20.6,9.2,20.6,20.6c0,11.3-9.2,20.6-20.6,20.6
	C156.2,73.6,147,64.4,147,53z"/>
<path class="st0" d="M100.9,70.7c0.4,0.8,1.2,1.2,2,1.2c0.3,0,0.7-0.1,1-0.2l22.4-11.5c0.9-0.5,1.4-1.5,1.1-2.5
	c-0.2-1-1.1-1.7-2.1-1.7H99.4H43c-7.6,0-13.7,6.2-13.7,13.7v25.4c0,7.6,6.2,13.7,13.7,13.7h56.3c7.6,0,13.7-6.2,13.7-13.7V73.4
	c0-1.2-1-2.2-2.2-2.2s-2.2,1-2.2,2.2v21.8c0,5.1-4.2,9.3-9.3,9.3H43c-5.1,0-9.3-4.2-9.3-9.3V69.7c0-5.1,4.2-9.3,9.3-9.3h56.3h16.8
	l-14.3,7.4C100.8,68.3,100.4,69.7,100.9,70.7z"/>
<path class="st0" d="M83.5,80.2c0-1.2-1-2.2-2.2-2.2H43.5c-1.2,0-2.2,1-2.2,2.2c0,1.2,1,2.2,2.2,2.2h37.8
	C82.5,82.4,83.5,81.4,83.5,80.2z"/>
<path class="st0" d="M43.5,90.1c-1.2,0-2.2,1-2.2,2.2c0,1.2,1,2.2,2.2,2.2h12.2c1.2,0,2.2-1,2.2-2.2c0-1.2-1-2.2-2.2-2.2H43.5z"/>
<path class="st0" d="M64.6,94.5h27.6c1.2,0,2.2-1,2.2-2.2c0-1.2-1-2.2-2.2-2.2H64.6c-1.2,0-2.2,1-2.2,2.2
	C62.4,93.5,63.4,94.5,64.6,94.5z"/>
<path class="st0" d="M6.8,51.5c0,0.1,0,0.2,0,0.3c0,0.6-0.2,1.1-0.5,1.5c0,0,0,0,0,0c-0.6,0.9-1.7,1.5-2.8,1.5
	c-1.9,0-3.4-1.5-3.4-3.4c0-0.1,0-0.2,0-0.3c0-0.5,0.2-1.1,0.5-1.5c0.6-0.9,1.7-1.6,2.8-1.6C5.2,48.2,6.8,49.7,6.8,51.5z"/>
</svg>
