<?xml version="1.0" encoding="utf-8"?>
<!-- Generator: Adobe Illustrator 22.0.1, SVG Export Plug-In . SVG Version: 6.00 Build 0)  -->
<svg version="1.1" id="Слой_1" xmlns="http://www.w3.org/2000/svg" xmlns:xlink="http://www.w3.org/1999/xlink" x="0px" y="0px"
	 viewBox="0 0 181.1 187" style="enable-background:new 0 0 181.1 187;" xml:space="preserve">
<style type="text/css">
	.st0{fill:#00264C;}
</style>
<path class="st0" d="M163.9,181.5c1.7,1.9,3.4,3.8,5.2,5.5h-6.2c-0.8-0.9-1.6-1.7-2.4-2.6c-0.8-0.9-0.7-2.3,0.2-3.1
	C161.7,180.5,163.1,180.6,163.9,181.5z"/>
<path class="st0" d="M152.1,167.6c0.8,0.9,0.7,2.3-0.3,3.1c-0.9,0.8-2.3,0.7-3.1-0.3l-24.6-29.2c-0.7-0.9-0.7-2.2,0.1-3l1.1-1.1
	l-5.8-5.9c-13.8,11.1-31,16.7-48.9,16c-18.6-0.7-36-8.4-49.2-21.5C8.8,113.2,1.3,96.8,0,79.3c0-0.1,0-0.2,0-0.3c0-1.2,1-2.3,2.3-2.3
	c1,0,1.9,0.7,2.2,1.6c0,0.3,0,0.6,0.1,0.9c1.3,16.4,8.3,31.6,20,43.4c25.3,25.3,66.4,27,93.6,4c0.9-0.8,2.2-0.7,3,0.1l8.8,8.8
	c0.9,0.9,0.9,2.3,0,3.1l-1.2,1.2L152.1,167.6z"/>
<path class="st0" d="M181.1,158.1v5.8c-0.3-0.3-0.6-0.5-0.9-0.8L139.7,129l-1.2,1.2c-0.9,0.9-2.3,0.9-3.1,0l-8.8-8.8
	c-0.8-0.8-0.9-2.1-0.1-3c23-27.3,21.3-68.4-3.9-93.6C109.4,11.6,92,4.4,73.5,4.4c-18.5,0-35.9,7.2-49,20.3
	C17,32.2,11.5,41.1,8.1,50.9c-0.1,0.3-0.2,0.7-0.4,1c0,0,0,0,0,0c-0.4,0.6-1.1,1-1.9,1c-1.3,0-2.3-1-2.3-2.3c0-0.1,0-0.1,0-0.2
	c0.1-0.3,0.2-0.7,0.3-1c3.6-10.4,9.5-19.9,17.5-27.8C35.3,7.7,53.8,0,73.5,0c19.7,0,38.2,7.7,52.1,21.6
	c13.2,13.2,20.8,30.6,21.5,49.2c0.7,17.8-5,35.1-16,48.9l5.8,5.8l1.1-1.1c0.8-0.8,2.1-0.9,3-0.1L181.1,158.1z"/>
<path class="st0" d="M158.5,180.6c-0.6,0-1.3-0.3-1.7-0.8l-4.4-5.2c-0.8-0.9-0.7-2.3,0.3-3.1c0.9-0.8,2.3-0.7,3.1,0.3l4.4,5.2
	c0.8,0.9,0.7,2.3-0.3,3.1C159.5,180.4,159,180.6,158.5,180.6z"/>
<path class="st0" d="M68.1,61.5H39.6c-1.2,0-2.2-1-2.2-2.2s1-2.2,2.2-2.2h28.4c1.2,0,2.2,1,2.2,2.2S69.3,61.5,68.1,61.5z"/>
<path class="st0" d="M61,73.5H39.6c-1.2,0-2.2-1-2.2-2.2s1-2.2,2.2-2.2H61c1.2,0,2.2,1,2.2,2.2S62.2,73.5,61,73.5z"/>
<path class="st0" d="M58.3,84.4H39.6c-1.2,0-2.2-1-2.2-2.2s1-2.2,2.2-2.2h18.7c1.2,0,2.2,1,2.2,2.2S59.5,84.4,58.3,84.4z"/>
<path class="st0" d="M68.1,84.4H64c-1.2,0-2.2-1-2.2-2.2s1-2.2,2.2-2.2h4.1c1.2,0,2.2,1,2.2,2.2S69.3,84.4,68.1,84.4z"/>
<path class="st0" d="M119.1,88C119.1,88,119.1,88,119.1,88l0-39.4c0-9-5.7-16.3-12.6-16.3H39.3c-7,0-12.6,7.3-12.6,16.3V88
	c-3.4,0.6-5.9,3.5-5.9,7.1v0.3c0,4,3.2,7.2,7.2,7.2h89.9c4,0,7.2-3.2,7.2-7.2V95C125.1,91.5,122.5,88.6,119.1,88z M31.1,50.8h83.5
	v37.1H31.1V50.8z M74.1,39.2c1.3,0,2.3,1.1,2.3,2.3c0,1.3-1,2.3-2.3,2.3c-1.3,0-2.3-1.1-2.3-2.3C71.8,40.2,72.8,39.2,74.1,39.2z
	 M114.5,46.3H76.8c0,0,0,0,0,0c1.6-1,2.7-2.7,2.7-4.7c0-2.2-1.2-4-3-4.9c0,0,0,0,0,0h30.1C110.4,36.7,113.8,40.9,114.5,46.3z
	 M39.3,36.7h32.1c0,0,0,0,0,0c-1.8,0.9-3,2.8-3,4.9c0,2,1.1,3.8,2.7,4.7c0,0,0,0,0,0H31.3C32,40.9,35.4,36.7,39.3,36.7z M120.6,95.4
	c0,1.5-1.2,2.8-2.8,2.8H28c-1.5,0-2.8-1.2-2.8-2.8V95c0-1.5,1.2-2.8,2.8-2.8h89.9c1.5,0,2.8,1.2,2.8,2.8V95.4z"/>
<path class="st0" d="M104.9,57.1H79.6c-1.2,0-2.2,1-2.2,2.2v22c0,1.2,1,2.2,2.2,2.2h25.3c1.2,0,2.2-1,2.2-2.2v-22
	C107.1,58.1,106.1,57.1,104.9,57.1z M102.7,79.1H81.8V61.5h20.9V79.1z"/>
<path class="st0" d="M5.4,63.8c0,0.1,0,0.1,0,0.2c0,0.4-0.2,0.7-0.4,1c0,0,0,0,0,0c-0.4,0.6-1.1,1-1.9,1c-1.3,0-2.3-1-2.3-2.3
	c0-0.1,0-0.1,0-0.2c0-0.4,0.2-0.7,0.3-1c0.4-0.6,1.1-1.1,1.9-1.1C4.4,61.5,5.4,62.5,5.4,63.8z"/>
</svg>
