<?xml version="1.0" encoding="utf-8"?>
<!-- Generator: Adobe Illustrator 22.0.1, SVG Export Plug-In . SVG Version: 6.00 Build 0)  -->
<svg version="1.1" id="Слой_1" xmlns="http://www.w3.org/2000/svg" xmlns:xlink="http://www.w3.org/1999/xlink" x="0px" y="0px"
	 viewBox="0 0 118.2 165.3" style="enable-background:new 0 0 118.2 165.3;" xml:space="preserve">
<style type="text/css">
	.st0{fill:#00264C;}
</style>
<path class="st0" d="M62.4,40.2h33.3c1.2,0,2.2-1,2.2-2.2s-1-2.2-2.2-2.2H62.4c-1.2,0-2.2,1-2.2,2.2S61.2,40.2,62.4,40.2z"/>
<path class="st0" d="M62.4,50.8h10.8c1.2,0,2.2-1,2.2-2.2s-1-2.2-2.2-2.2H62.4c-1.2,0-2.2,1-2.2,2.2S61.2,50.8,62.4,50.8z"/>
<path class="st0" d="M105.2,46.4H81c-1.2,0-2.2,1-2.2,2.2s1,2.2,2.2,2.2h24.3c1.2,0,2.2-1,2.2-2.2S106.4,46.4,105.2,46.4z"/>
<path class="st0" d="M62.4,89.9h33.3c1.2,0,2.2-1,2.2-2.2s-1-2.2-2.2-2.2H62.4c-1.2,0-2.2,1-2.2,2.2S61.2,89.9,62.4,89.9z"/>
<path class="st0" d="M62.4,100.6h10.8c1.2,0,2.2-1,2.2-2.2s-1-2.2-2.2-2.2H62.4c-1.2,0-2.2,1-2.2,2.2S61.2,100.6,62.4,100.6z"/>
<path class="st0" d="M105.2,96.2H81c-1.2,0-2.2,1-2.2,2.2s1,2.2,2.2,2.2h24.3c1.2,0,2.2-1,2.2-2.2S106.4,96.2,105.2,96.2z"/>
<path class="st0" d="M62.4,139.6h33.3c1.2,0,2.2-1,2.2-2.2s-1-2.2-2.2-2.2H62.4c-1.2,0-2.2,1-2.2,2.2S61.2,139.6,62.4,139.6z"/>
<path class="st0" d="M73.2,145.9H62.4c-1.2,0-2.2,1-2.2,2.2s1,2.2,2.2,2.2h10.8c1.2,0,2.2-1,2.2-2.2S74.4,145.9,73.2,145.9z"/>
<path class="st0" d="M105.2,145.9H81c-1.2,0-2.2,1-2.2,2.2s1,2.2,2.2,2.2h24.3c1.2,0,2.2-1,2.2-2.2S106.4,145.9,105.2,145.9z"/>
<path class="st0" d="M43,26.1H21.9c-3.7,0-6.6,3-6.6,6.6v21.1c0,3.7,3,6.6,6.6,6.6H43c3.6,0,6.6-3,6.6-6.6V32.8
	C49.6,29.1,46.6,26.1,43,26.1z M45.2,53.9c0,1.2-1,2.2-2.2,2.2H21.9c-1.2,0-2.2-1-2.2-2.2V32.8c0-1.2,1-2.2,2.2-2.2H43
	c1.2,0,2.2,1,2.2,2.2V53.9z"/>
<path class="st0" d="M43,75.6H21.9c-3.7,0-6.6,3-6.6,6.6v21.1c0,3.6,3,6.6,6.6,6.6H43c3.6,0,6.6-3,6.6-6.6V82.2
	C49.6,78.6,46.6,75.6,43,75.6z M45.2,103.3c0,1.2-1,2.2-2.2,2.2H21.9c-1.2,0-2.2-1-2.2-2.2V82.2c0-1.2,1-2.2,2.2-2.2H43
	c1.2,0,2.2,1,2.2,2.2V103.3z"/>
<path class="st0" d="M43,125.1H21.9c-3.7,0-6.6,3-6.6,6.6v21.1c0,3.7,3,6.6,6.6,6.6H43c3.6,0,6.6-3,6.6-6.6v-21.1
	C49.6,128,46.6,125.1,43,125.1z M45.2,152.8c0,1.2-1,2.2-2.2,2.2H21.9c-1.2,0-2.2-1-2.2-2.2v-21.1c0-1.2,1-2.2,2.2-2.2H43
	c1.2,0,2.2,1,2.2,2.2V152.8z"/>
<path class="st0" d="M5.5,130.6c0-1.2-1-2.2-2.2-2.2c-1.2,0-2.2,1-2.2,2.2V164c0,0.5,0,0.9,0.1,1.4h4.4c-0.1-0.4-0.1-0.9-0.1-1.4
	V130.6z"/>
<path class="st0" d="M99.9,12.2C98.8,5.3,92.8,0,85.6,0H60.7c-7.2,0-13.2,5.3-14.3,12.2H14.1c-7.2,0-13,5.8-13,13v76
	c0,1.2,1,2.2,2.2,2.2c1.2,0,2.2-1,2.2-2.2v-76c0-4.7,3.8-8.6,8.6-8.6h34.4h49.4h20.4v-4.4H99.9z M50.9,12.2c1-4.5,5-7.8,9.8-7.8
	h24.9c4.8,0,8.8,3.4,9.8,7.8H50.9z"/>
<path class="st0" d="M6.8,116.1c0,0.1,0,0.2,0,0.3c0,0.6-0.2,1.1-0.5,1.5c0,0,0,0,0,0c-0.6,0.9-1.7,1.5-2.8,1.5
	c-1.9,0-3.4-1.5-3.4-3.4c0-0.1,0-0.2,0-0.3c0-0.5,0.2-1.1,0.5-1.5c0.6-0.9,1.7-1.6,2.8-1.6C5.2,112.7,6.8,114.2,6.8,116.1z"/>
</svg>
